<?xml version="1.0" encoding="UTF-8" standalone="no"?>
<svg width="2100.00px" height="600.00px" version="1.1" xmlns="http://www.w3.org/2000/svg" xmlns:xlink="http://www.w3.org/1999/xlink" overflow="visible">
	<desc>Engraved by Verovio 2.0.0-dev-0f0381c</desc>
	<defs>
		<symbol id="E003" viewBox="0 0 1000 1000" overflow="inherit">
			<path transform="scale(1,-1)" d="M0 -0c49 0 97.5 -2.26367 135.5 4.73633c206 95 258.5 264.264 263.5 271.264c0 1 -14 7 -15 6c-88 -154 -251 -167 -321 -170c-1 0 -63 -1 -63 -1v-111z" />
		</symbol>
		<symbol id="E004" viewBox="0 0 1000 1000" overflow="inherit">
			<path transform="scale(1,-1)" d="M0 0c49 0 97.5 2.26367 135.5 -4.73633c206 -95 258.5 -264.264 263.5 -271.264c0 -1 -14 -7 -15 -6c-88 154 -251 167 -321 170c-1 0 -63 1 -63 1v111z" />
		</symbol>
		<symbol id="E050" viewBox="0 0 1000 1000" overflow="inherit">
			<path transform="scale(1,-1)" d="M441 -245c-23 -4 -48 -6 -76 -6c-59 0 -102 7 -130 20c-88 42 -150 93 -187 154c-26 44 -43 103 -48 176c-4 60 11 123 44 189c29 57 65 106 110 148s96 85 153 127c-3 16 -8 46 -13 92c-4 43 -5 73 -5 89c0 117 16 172 69 257c34 54 64 82 89 82c21 0 43 -30 69 -92 s39 -115 41 -159c2 -120 -19 -173 -67 -256c-13 -20 -63 -90 -98 -118c-13 -9 -25 -19 -37 -29l31 -181c8 1 18 2 28 2c58 0 102 -12 133 -35c59 -43 92 -104 98 -184c11 -135 -80 -229 -180 -270c8 -57 17 -110 25 -162c5 -31 6 -58 6 -80c0 -30 -5 -53 -14 -70 c-35 -64 -88 -99 -158 -103c-42 -3 -83 6 -124 26c-50 24 -77 59 -80 105c-2 34 5 63 20 87c18 28 45 42 79 44c51 4 99 -40 103 -87c4 -56 -30 -94 -105 -115c17 -24 51 -36 102 -36c62 0 116 43 140 85c9 16 13 41 13 74c0 20 -1 42 -5 67c-8 53 -18 106 -26 159zM461 939 c-95 0 -135 -175 -135 -286c0 -24 2 -48 5 -71c50 39 92 82 127 128c43 57 63 106 60 148c-4 54 -23 82 -57 81zM406 119l54 -326c80 27 116 88 109 184c-7 99 -62 146 -163 142zM382 117c-74 -2 -132 -50 -128 -127c2 -46 43 -99 75 -115c-3 -2 -7 -5 -10 -10 c-70 33 -116 88 -123 172c-5 73 42 135 88 170c23 17 49 29 78 36l-29 170c-21 -13 -52 -37 -92 -73c-50 -44 -86 -84 -109 -119c-49 -75 -71 -140 -67 -195c5 -68 35 -127 93 -176s125 -73 203 -73c25 0 50 3 75 9c-19 111 -36 221 -54 331z" />
		</symbol>
		<symbol id="E082" viewBox="0 0 1000 1000" overflow="inherit">
			<path transform="scale(1,-1)" d="M104 -185c-18 0 -55 -14 -65 -65h-36l-3 29c0 25 6 46 18 64c11 19 22 30 39 43l121 82l37 29c15 11 27 29 38 54c12 24 18 47 18 70c0 40 -19 88 -94 88c-25 0 -32 0 -50 -8c-14 -5 -23 -12 -26 -22c3 -9 7 -15 10 -18l24 -17c12 -7 17 -11 27 -21c5 -7 7 -16 7 -27 c0 -12 0 -57 -79 -74c-30 0 -76 26 -76 94c0 66 80 135 196 135c72 0 182 -32 182 -150c0 -53 -32 -95 -113 -133l-91 -41c-26 -11 -45 -23 -57 -37l49 7c84 0 115 -41 148 -41c20 0 33 20 39 61h35c0 -152 -68 -168 -114 -168c-17 0 -55 0 -69 7v0l-28 17 c-49 37 -69 40 -87 42z" />
		</symbol>
		<symbol id="E084" viewBox="0 0 1000 1000" overflow="inherit">
			<path transform="scale(1,-1)" d="M0 -78c84 97 114 180 134 329h170c-13 -32 -82 -132 -99 -151l-84 -97c-33 -36 -59 -63 -80 -81h162v102l127 123v-225h57v-39h-57v-34c0 -43 19 -65 57 -65v-34h-244v36c48 0 60 26 60 70v27h-203v39z" />
		</symbol>
		<symbol id="E062" viewBox="0 0 1000 1000" overflow="inherit">
			<path transform="scale(1,-1)" d="M158 96c51 0 73 -14 88 -49l16 -39c0 -17 -2 -30 -7 -40c-3 -11 -10 -21 -19 -31c-17 -18 -49 -43 -84 -43c-55 0 -77 13 -112 44c-24 21 -35 55 -35 100c0 46 14 81 32 112c30 52 71 79 137 93l36 6l26 2c154 0 235 -68 274 -182c11 -32 18 -68 18 -107 c0 -103 -26 -182 -68 -250c-89 -145 -234 -230 -412 -288l-30 -5c-9 0 -14 3 -14 8c3 10 5 11 10 16c35 15 70 30 96 44l78 43c96 57 162 136 197 258c9 33 17 60 22 100c3 22 5 35 6 39c-7 69 -16 115 -23 140s-4 22 -16 40c-8 12 -19 23 -31 34c-24 21 -62 44 -118 44 c-48 0 -84 -8 -113 -28c-28 -19 -42 -44 -42 -73v-16c2 -5 3 -9 4 -11c24 22 52 39 84 39zM585 -118c0 32 23 58 57 58c18 0 33 -6 40 -18c9 -15 16 -18 16 -40c0 -9 -2 -16 -5 -21c-6 -19 -27 -37 -51 -37c-34 0 -57 26 -57 58zM642 177c31 0 56 -27 56 -58 c0 -30 -25 -58 -56 -58l-23 3c-19 7 -34 32 -34 55l3 23c9 20 28 35 54 35z" />
		</symbol>
		<symbol id="E4E6" viewBox="0 0 1000 1000" overflow="inherit">
			<path transform="scale(1,-1)" d="M0 123c7 34 33 56 69 60c29 -3 43 -9 53 -29c4 -8 7 -15 10 -22c0 -21 -1 -25 -11 -35c-5 -8 -18 -14 -40 -20l12 -3l15 -1c44 0 97 26 122 56c10 11 18 26 24 42c7 1 15 2 22 3l-140 -424h-36l111 330c-10 -6 -27 -12 -53 -16l-52 -8h-10l-20 1c-1 0 -8 3 -21 6 c-37 9 -55 28 -55 60z" />
		</symbol>
		<symbol id="E0A4" viewBox="0 0 1000 1000" overflow="inherit">
			<path transform="scale(1,-1)" d="M0 -39c0 68 73 172 200 172c66 0 114 -37 114 -95c0 -84 -106 -171 -218 -171c-64 0 -96 30 -96 94z" />
		</symbol>
		<symbol id="E4E5" viewBox="0 0 1000 1000" overflow="inherit">
			<path transform="scale(1,-1)" d="M107 292c-13 24 -30 49 -52 71c-1 1 0 2 0 3l-2 2c3 3 4 4 6 4c12 0 26 -7 40 -20s44 -40 89 -81c26 -24 28 -29 46 -47c4 -4 8 -9 10 -14c6 -8 8 -16 8 -27c0 -19 -12 -40 -36 -61c-28 -23 -49 -38 -61 -73c-4 -11 -7 -27 -10 -50c13 -43 34 -83 59 -121 c31 -47 59 -79 101 -129c-8 0 -26 7 -54 20l-62 29l-21 6l-23 1c-25 0 -45 -10 -60 -30l-4 -14l-1 -12c0 -33 20 -56 39 -78c8 -9 17 -18 26 -26c17 -15 27 -24 28 -30l-3 -3c-11 5 -19 10 -25 15c-9 3 -37 21 -45 26c-24 14 -45 32 -63 51c-19 21 -37 44 -37 71 c0 63 27 95 80 95c41 0 86 -18 136 -52c-19 26 -37 48 -55 66c-23 23 -48 44 -73 65c-28 23 -47 40 -58 53s-17 26 -18 39c75 64 113 125 113 183c0 27 -7 48 -18 68z" />
		</symbol>
		<symbol id="E4E7" viewBox="0 0 1000 1000" overflow="inherit">
			<path transform="scale(1,-1)" d="M133 -111c-16 38 -21 43 -64 51c-37 -4 -60 -25 -68 -60c0 -32 18 -52 55 -58c8 -6 22 -10 43 -10c31 0 62 7 82 20l-108 -324h37c72 220 143 439 215 659h-4l-10 -2l-7 -1c-15 -35 -27 -52 -59 -71c-26 -15 -56 -27 -88 -29c-11 0 -20 2 -26 6c29 3 56 25 51 56 c-15 35 -19 42 -64 48c-38 -4 -60 -23 -68 -58c0 -32 18 -52 55 -59c7 -5 22 -8 45 -8c48 0 76 7 112 25l-66 -197c-21 -23 -50 -47 -90 -47c-7 0 -15 1 -25 4c31 5 52 22 52 55z" />
		</symbol>
		<symbol id="E262" viewBox="0 0 1000 1000" overflow="inherit">
			<path transform="scale(1,-1)" d="M136 186v169h17v-164l44 14v-91l-44 -14v-165l44 12v-91l-44 -13v-155h-17v150l-76 -22v-155h-17v149l-43 -13v90l43 14v167l-43 -14v92l43 13v169h17v-163zM60 73v-167l76 22v168z" />
		</symbol>
		<symbol id="E260" viewBox="0 0 1000 1000" overflow="inherit">
			<path transform="scale(1,-1)" d="M20 110c32 16 54 27 93 27c26 0 35 -3 54 -13c13 -7 24 -20 27 -38l4 -25c0 -28 -16 -57 -45 -89c-23 -25 -39 -44 -65 -68l-88 -79v644h20v-359zM90 106c-32 0 -48 -10 -70 -29v-194c31 31 54 59 71 84c21 32 32 59 32 84c0 9 1 16 1 20c0 14 -3 21 -11 30l-8 3z" />
		</symbol>
	</defs>
	<style type="text/css">g.page-margin{font-family:Times;} g.tempo{font-weight:bold;} g.dir, g.dynam, g.mNum{font-style:italic;} g.label{font-weight:normal;}</style>
	<svg class="definition-scale" viewBox="0 0 21000 6000">
		<g class="page-margin" transform="translate(500, 500)">
			<g class="system" id="system-0000000756000792">
				<path d="M13 720 L13 4365" stroke="#000000" stroke-width="27" />
				<use xlink:href="#E003" x="-167" y="720" height="720px" width="720px" />
				<use xlink:href="#E004" x="-167" y="4365" height="720px" width="720px" />
				<rect x="-167" y="702" height="3681" width="90" />
				<g class="section boundaryStart" id="section-L1F1" />
				<g class="measure" id="measure-L4">
					<g class="staff" id="staff-L4F3N1">
						<path d="M0 720 L2668 720" stroke="#000000" stroke-width="13" />
						<path d="M0 900 L2668 900" stroke="#000000" stroke-width="13" />
						<path d="M0 1080 L2668 1080" stroke="#000000" stroke-width="13" />
						<path d="M0 1260 L2668 1260" stroke="#000000" stroke-width="13" />
						<path d="M0 1440 L2668 1440" stroke="#000000" stroke-width="13" />
						<g class="clef" id="clef-0000002104306114">
							<use xlink:href="#E050" x="90" y="1260" height="720px" width="720px" />
						</g>
						<g class="meterSig" id="msig-0000000164675555">
							<use xlink:href="#E082" x="771" y="900" height="720px" width="720px" />
							<use xlink:href="#E084" x="777" y="1260" height="720px" width="720px" />
						</g>
						<g class="layer" id="layer-L4F3N1">
							<g class="mRest" id="mrest-L5F3">
								<rect x="1787" y="900" height="90" width="216" />
							</g>
						</g>
					</g>
					<g class="staff" id="staff-L4F2N1">
						<path d="M0 2205 L2668 2205" stroke="#000000" stroke-width="13" />
						<path d="M0 2385 L2668 2385" stroke="#000000" stroke-width="13" />
						<path d="M0 2565 L2668 2565" stroke="#000000" stroke-width="13" />
						<path d="M0 2745 L2668 2745" stroke="#000000" stroke-width="13" />
						<path d="M0 2925 L2668 2925" stroke="#000000" stroke-width="13" />
						<g class="clef" id="clef-0000001743115549">
							<use xlink:href="#E050" x="90" y="2745" height="720px" width="720px" />
						</g>
						<g class="meterSig" id="msig-0000000571119669">
							<use xlink:href="#E082" x="771" y="2385" height="720px" width="720px" />
							<use xlink:href="#E084" x="777" y="2745" height="720px" width="720px" />
						</g>
						<g class="layer" id="layer-L4F2N1">
							<g class="mRest" id="mrest-L5F2">
								<rect x="1787" y="2385" height="90" width="216" />
							</g>
						</g>
					</g>
					<g class="staff" id="staff-L4F1N1">
						<path d="M0 3645 L2668 3645" stroke="#000000" stroke-width="13" />
						<path d="M0 3825 L2668 3825" stroke="#000000" stroke-width="13" />
						<path d="M0 4005 L2668 4005" stroke="#000000" stroke-width="13" />
						<path d="M0 4185 L2668 4185" stroke="#000000" stroke-width="13" />
						<path d="M0 4365 L2668 4365" stroke="#000000" stroke-width="13" />
						<g class="clef" id="clef-0000001703858440">
							<use xlink:href="#E062" x="90" y="3825" height="720px" width="720px" />
						</g>
						<g class="meterSig" id="msig-0000000054368335">
							<use xlink:href="#E082" x="771" y="3825" height="720px" width="720px" />
							<use xlink:href="#E084" x="777" y="4185" height="720px" width="720px" />
						</g>
						<g class="layer" id="layer-L4F1N1">
							<g class="mRest" id="mrest-L5F1">
								<rect x="1787" y="3825" height="90" width="216" />
							</g>
						</g>
					</g>
					<g class="mNum autogenerated" id="mnum-0000001444615176" />
					<g class="barLineAttr" id="bline-0000001393513332">
						<path d="M2655 1440 L2655 720" stroke="#000000" stroke-width="27" />
						<path d="M2655 2925 L2655 2205" stroke="#000000" stroke-width="27" />
						<path d="M2655 4365 L2655 3645" stroke="#000000" stroke-width="27" />
					</g>
				</g>
				<g class="measure" id="measure-L6">
					<g class="staff" id="staff-L6F3N1">
						<path d="M2668 720 L5497 720" stroke="#000000" stroke-width="13" />
						<path d="M2668 900 L5497 900" stroke="#000000" stroke-width="13" />
						<path d="M2668 1080 L5497 1080" stroke="#000000" stroke-width="13" />
						<path d="M2668 1260 L5497 1260" stroke="#000000" stroke-width="13" />
						<path d="M2668 1440 L5497 1440" stroke="#000000" stroke-width="13" />
						<g class="layer" id="layer-L6F3N1">
							<g class="beam" id="beam-L7F3-L9F3">
								<polygon points="2867,1935 3730,1850 3730,1760 2867,1845 " />
								<polygon points="3572,1730 3730,1715 3730,1625 3572,1640 " />
								<g class="rest" id="rest-L7F3">
									<use xlink:href="#E4E6" x="2867" y="1080" height="720px" width="720px" />
									<g class="dots" id="dots-0000000830516006">
										<ellipse cx="3155" cy="990" rx="36" ry="36" />
									</g>
								</g>
								<g class="note" id="note-L9F3">
									<use xlink:href="#E0A4" x="3712" y="900" height="720px" width="720px" />
									<g class="stem">
										<rect x="3712" y="922" height="910" width="18" />
									</g>
									<g class="accid" id="accid-0000002110048751" />
								</g>
							</g>
							<g class="rest" id="rest-L10F3">
								<use xlink:href="#E4E5" x="4068" y="1080" height="720px" width="720px" />
							</g>
						</g>
					</g>
					<g class="staff" id="staff-L6F2N1">
						<path d="M2668 2205 L5497 2205" stroke="#000000" stroke-width="13" />
						<path d="M2668 2385 L5497 2385" stroke="#000000" stroke-width="13" />
						<path d="M2668 2565 L5497 2565" stroke="#000000" stroke-width="13" />
						<path d="M2668 2745 L5497 2745" stroke="#000000" stroke-width="13" />
						<path d="M2668 2925 L5497 2925" stroke="#000000" stroke-width="13" />
						<g class="layer" id="layer-L6F2N1">
							<g class="rest" id="rest-L7F2">
								<use xlink:href="#E4E5" x="2867" y="2565" height="720px" width="720px" />
							</g>
							<g class="beam" id="beam-L10F2-L12F2">
								<polygon points="4276,2081 5214,2123 5214,2213 4276,2171 " />
								<polygon points="4276,2216 4856,2242 4856,2332 4276,2306 " />
								<g class="rest" id="rest-L10F2">
									<use xlink:href="#E4E7" x="4068" y="2565" height="720px" width="720px" />
								</g>
								<g class="note" id="note-L11F2">
									<use xlink:href="#E0A4" x="4639" y="3015" height="720px" width="720px" />
									<g class="stem">
										<rect x="4847" y="2125" height="868" width="18" />
									</g>
									<g class="accid" id="accid-0000001988494769" />
								</g>
								<g class="rest" id="rest-L12F2">
									<use xlink:href="#E4E6" x="4988" y="2565" height="720px" width="720px" />
								</g>
							</g>
						</g>
					</g>
					<g class="staff" id="staff-L6F1N1">
						<path d="M2668 3645 L5497 3645" stroke="#000000" stroke-width="13" />
						<path d="M2668 3825 L5497 3825" stroke="#000000" stroke-width="13" />
						<path d="M2668 4005 L5497 4005" stroke="#000000" stroke-width="13" />
						<path d="M2668 4185 L5497 4185" stroke="#000000" stroke-width="13" />
						<path d="M2668 4365 L5497 4365" stroke="#000000" stroke-width="13" />
						<g class="layer" id="layer-L6F1N1">
							<g class="beam" id="beam-L7F1-L9F1">
								<polygon points="2867,4860 3730,4798 3730,4708 2867,4770 " />
								<polygon points="3372,4688 3730,4663 3730,4573 3372,4598 " />
								<g class="rest" id="rest-L7F1">
									<use xlink:href="#E4E6" x="2867" y="4005" height="720px" width="720px" />
								</g>
								<g class="note" id="note-L8F1">
									<use xlink:href="#E0A4" x="3363" y="3645" height="720px" width="720px" />
									<g class="stem">
										<rect x="3363" y="3667" height="1138" width="18" />
									</g>
									<g class="accid" id="accid-0000000541419805" />
								</g>
								<g class="rest" id="rest-L9F1">
									<use xlink:href="#E4E7" x="3712" y="4005" height="720px" width="720px" />
								</g>
							</g>
							<g class="beam" id="beam-L10F1-L12F1">
								<polygon points="4068,4860 5006,4803 5006,4713 4068,4770 " />
								<polygon points="4068,4725 4648,4690 4648,4600 4068,4635 " />
								<g class="rest" id="rest-L10F1">
									<use xlink:href="#E4E7" x="4068" y="4005" height="720px" width="720px" />
								</g>
								<g class="note" id="note-L11F1">
									<use xlink:href="#E0A4" x="4639" y="3825" height="720px" width="720px" />
									<g class="stem">
										<rect x="4639" y="3847" height="960" width="18" />
									</g>
									<g class="accid" id="accid-0000001696695399">
										<use xlink:href="#E262" x="4444" y="3825" height="720px" width="720px" />
									</g>
								</g>
								<g class="rest" id="rest-L12F1">
									<use xlink:href="#E4E6" x="4988" y="4005" height="720px" width="720px" />
								</g>
							</g>
						</g>
					</g>
					<g class="mNum autogenerated" id="mnum-0000002081106676" />
					<g class="barLineAttr" id="bline-0000000252227353">
						<path d="M5484 1440 L5484 720" stroke="#000000" stroke-width="27" />
						<path d="M5484 2925 L5484 2205" stroke="#000000" stroke-width="27" />
						<path d="M5484 4365 L5484 3645" stroke="#000000" stroke-width="27" />
					</g>
				</g>
				<g class="measure" id="measure-L13">
					<g class="staff" id="staff-L13F3N1">
						<path d="M5497 720 L8129 720" stroke="#000000" stroke-width="13" />
						<path d="M5497 900 L8129 900" stroke="#000000" stroke-width="13" />
						<path d="M5497 1080 L8129 1080" stroke="#000000" stroke-width="13" />
						<path d="M5497 1260 L8129 1260" stroke="#000000" stroke-width="13" />
						<path d="M5497 1440 L8129 1440" stroke="#000000" stroke-width="13" />
						<g class="ledgerLines above">
							<path d="M6021 540 L6300 540" stroke="#000000" stroke-width="22" />
						</g>
						<g class="layer" id="layer-L13F3N1">
							<g class="beam" id="beam-L14F3-L15F3">
								<polygon points="5696,1935 6070,1899 6070,1809 5696,1845 " />
								<polygon points="5696,1800 6070,1764 6070,1674 5696,1710 " />
								<g class="rest" id="rest-L14F3">
									<use xlink:href="#E4E7" x="5696" y="1080" height="720px" width="720px" />
								</g>
								<g class="note" id="note-L15F3">
									<use xlink:href="#E0A4" x="6052" y="540" height="720px" width="720px" />
									<g class="stem">
										<rect x="6052" y="562" height="1319" width="18" />
									</g>
									<g class="accid" id="accid-0000001892321337" />
								</g>
							</g>
							<g class="rest" id="rest-L16F3">
								<use xlink:href="#E4E5" x="6401" y="1080" height="720px" width="720px" />
								<g class="dots" id="dots-0000001946082756">
									<ellipse cx="6710" cy="990" rx="36" ry="36" />
								</g>
							</g>
						</g>
					</g>
					<g class="staff" id="staff-L13F2N1">
						<path d="M5497 2205 L8129 2205" stroke="#000000" stroke-width="13" />
						<path d="M5497 2385 L8129 2385" stroke="#000000" stroke-width="13" />
						<path d="M5497 2565 L8129 2565" stroke="#000000" stroke-width="13" />
						<path d="M5497 2745 L8129 2745" stroke="#000000" stroke-width="13" />
						<path d="M5497 2925 L8129 2925" stroke="#000000" stroke-width="13" />
						<g class="layer" id="layer-L13F2N1">
							<g class="mRest" id="mrest-L14F2">
								<rect x="6691" y="2385" height="90" width="216" />
							</g>
						</g>
					</g>
					<g class="staff" id="staff-L13F1N1">
						<path d="M5497 3645 L8129 3645" stroke="#000000" stroke-width="13" />
						<path d="M5497 3825 L8129 3825" stroke="#000000" stroke-width="13" />
						<path d="M5497 4005 L8129 4005" stroke="#000000" stroke-width="13" />
						<path d="M5497 4185 L8129 4185" stroke="#000000" stroke-width="13" />
						<path d="M5497 4365 L8129 4365" stroke="#000000" stroke-width="13" />
						<g class="layer" id="layer-L13F1N1">
							<g class="beam" id="beam-L14F1-L17F1">
								<polygon points="5904,3492 6958,3402 6958,3492 5904,3582 " />
								<polygon points="6800,3550 6958,3537 6958,3627 6800,3640 " />
								<g class="rest" id="rest-L14F1">
									<use xlink:href="#E4E6" x="5696" y="4005" height="720px" width="720px" />
									<g class="dots" id="dots-0000001636936282">
										<ellipse cx="5984" cy="3915" rx="36" ry="36" />
									</g>
								</g>
								<g class="note" id="note-L17F1">
									<use xlink:href="#E0A4" x="6732" y="4095" height="720px" width="720px" />
									<g class="stem">
										<rect x="6940" y="3420" height="653" width="18" />
									</g>
									<g class="accid" id="accid-0000001140633363" />
								</g>
							</g>
							<g class="beam" id="beam-L18F1-L19F1">
								<polygon points="7080,4860 7770,4792 7770,4702 7080,4770 " />
								<polygon points="7612,4672 7770,4657 7770,4567 7612,4582 " />
								<g class="rest" id="rest-L18F1">
									<use xlink:href="#E4E6" x="7080" y="4005" height="720px" width="720px" />
									<g class="dots" id="dots-0000001858815099">
										<ellipse cx="7368" cy="3915" rx="36" ry="36" />
									</g>
								</g>
								<g class="note" id="note-L19F1">
									<use xlink:href="#E0A4" x="7752" y="3825" height="720px" width="720px" />
									<g class="stem">
										<rect x="7752" y="3847" height="927" width="18" />
									</g>
									<g class="accid" id="accid-0000000893863480">
										<use xlink:href="#E262" x="7557" y="3825" height="720px" width="720px" />
									</g>
								</g>
							</g>
						</g>
					</g>
					<g class="mNum autogenerated" id="mnum-0000000109557981" />
					<g class="barLineAttr" id="bline-0000000044641899">
						<path d="M8116 1440 L8116 720" stroke="#000000" stroke-width="27" />
						<path d="M8116 2925 L8116 2205" stroke="#000000" stroke-width="27" />
						<path d="M8116 4365 L8116 3645" stroke="#000000" stroke-width="27" />
					</g>
				</g>
				<g class="measure" id="measure-L20">
					<g class="staff" id="staff-L20F3N1">
						<path d="M8129 720 L10527 720" stroke="#000000" stroke-width="13" />
						<path d="M8129 900 L10527 900" stroke="#000000" stroke-width="13" />
						<path d="M8129 1080 L10527 1080" stroke="#000000" stroke-width="13" />
						<path d="M8129 1260 L10527 1260" stroke="#000000" stroke-width="13" />
						<path d="M8129 1440 L10527 1440" stroke="#000000" stroke-width="13" />
						<g class="ledgerLines above">
							<path d="M9414 540 L9693 540" stroke="#000000" stroke-width="22" />
						</g>
						<g class="layer" id="layer-L20F3N1">
							<g class="rest" id="rest-L21F3">
								<use xlink:href="#E4E5" x="8328" y="1080" height="720px" width="720px" />
							</g>
							<g class="beam" id="beam-L22F3-L24F3">
								<polygon points="9089,1935 9812,1931 9812,1841 9089,1845 " />
								<polygon points="9089,1800 9454,1798 9454,1708 9089,1710 " />
								<g class="rest" id="rest-L22F3">
									<use xlink:href="#E4E7" x="9089" y="1080" height="720px" width="720px" />
								</g>
								<g class="note" id="note-L23F3">
									<use xlink:href="#E0A4" x="9445" y="540" height="720px" width="720px" />
									<g class="stem">
										<rect x="9445" y="562" height="1353" width="18" />
									</g>
									<g class="accid" id="accid-0000000367737714" />
								</g>
								<g class="rest" id="rest-L24F3">
									<use xlink:href="#E4E6" x="9794" y="1080" height="720px" width="720px" />
								</g>
							</g>
						</g>
					</g>
					<g class="staff" id="staff-L20F2N1">
						<path d="M8129 2205 L10527 2205" stroke="#000000" stroke-width="13" />
						<path d="M8129 2385 L10527 2385" stroke="#000000" stroke-width="13" />
						<path d="M8129 2565 L10527 2565" stroke="#000000" stroke-width="13" />
						<path d="M8129 2745 L10527 2745" stroke="#000000" stroke-width="13" />
						<path d="M8129 2925 L10527 2925" stroke="#000000" stroke-width="13" />
						<g class="layer" id="layer-L20F2N1">
							<g class="rest" id="rest-L21F2">
								<use xlink:href="#E4E5" x="8328" y="2565" height="720px" width="720px" />
							</g>
							<g class="beam" id="beam-L22F2-L25F2">
								<polygon points="9297,2079 10368,2118 10368,2208 9297,2169 " />
								<polygon points="10011,2240 10368,2253 10368,2343 10011,2330 " />
								<g class="rest" id="rest-L22F2">
									<use xlink:href="#E4E6" x="9089" y="2565" height="720px" width="720px" />
								</g>
								<g class="note" id="note-L24F2">
									<use xlink:href="#E0A4" x="9794" y="2925" height="720px" width="720px" />
									<g class="stem">
										<rect x="10002" y="2123" height="780" width="18" />
									</g>
									<g class="accid" id="accid-0000000207045019" />
								</g>
								<g class="rest" id="rest-L25F2">
									<use xlink:href="#E4E7" x="10142" y="2565" height="720px" width="720px" />
								</g>
							</g>
						</g>
					</g>
					<g class="staff" id="staff-L20F1N1">
						<path d="M8129 3645 L10527 3645" stroke="#000000" stroke-width="13" />
						<path d="M8129 3825 L10527 3825" stroke="#000000" stroke-width="13" />
						<path d="M8129 4005 L10527 4005" stroke="#000000" stroke-width="13" />
						<path d="M8129 4185 L10527 4185" stroke="#000000" stroke-width="13" />
						<path d="M8129 4365 L10527 4365" stroke="#000000" stroke-width="13" />
						<g class="layer" id="layer-L20F1N1">
							<g class="rest" id="rest-L21F1">
								<use xlink:href="#E4E5" x="8328" y="4005" height="720px" width="720px" />
							</g>
							<g class="beam" id="beam-L22F1-L25F1">
								<polygon points="9089,4860 10160,4754 10160,4664 9089,4770 " />
								<polygon points="10002,4634 10160,4619 10160,4529 10002,4544 " />
								<g class="rest" id="rest-L22F1">
									<use xlink:href="#E4E6" x="9089" y="4005" height="720px" width="720px" />
									<g class="dots" id="dots-0000000810996012">
										<ellipse cx="9377" cy="3915" rx="36" ry="36" />
									</g>
								</g>
								<g class="note" id="note-L25F1">
									<use xlink:href="#E0A4" x="10142" y="3735" height="720px" width="720px" />
									<g class="stem">
										<rect x="10142" y="3757" height="979" width="18" />
									</g>
									<g class="accid" id="accid-0000000434716656" />
								</g>
							</g>
						</g>
					</g>
					<g class="mNum autogenerated" id="mnum-0000001061224211" />
					<g class="barLineAttr" id="bline-0000000585417937">
						<path d="M10514 1440 L10514 720" stroke="#000000" stroke-width="27" />
						<path d="M10514 2925 L10514 2205" stroke="#000000" stroke-width="27" />
						<path d="M10514 4365 L10514 3645" stroke="#000000" stroke-width="27" />
					</g>
				</g>
				<g class="measure" id="measure-L26">
					<g class="staff" id="staff-L26F3N1">
						<path d="M10527 720 L13523 720" stroke="#000000" stroke-width="13" />
						<path d="M10527 900 L13523 900" stroke="#000000" stroke-width="13" />
						<path d="M10527 1080 L13523 1080" stroke="#000000" stroke-width="13" />
						<path d="M10527 1260 L13523 1260" stroke="#000000" stroke-width="13" />
						<path d="M10527 1440 L13523 1440" stroke="#000000" stroke-width="13" />
						<g class="ledgerLines above">
							<path d="M12759 540 L13038 540" stroke="#000000" stroke-width="22" />
							<path d="M12759 360 L13038 360" stroke="#000000" stroke-width="22" />
						</g>
						<g class="layer" id="layer-L26F3N1">
							<g class="beam" id="beam-L27F3-L29F3">
								<polygon points="10726,1935 11449,1931 11449,1841 10726,1845 " />
								<polygon points="10726,1800 11091,1798 11091,1708 10726,1710 " />
								<g class="rest" id="rest-L27F3">
									<use xlink:href="#E4E7" x="10726" y="1080" height="720px" width="720px" />
								</g>
								<g class="note" id="note-L28F3">
									<use xlink:href="#E0A4" x="11082" y="630" height="720px" width="720px" />
									<g class="stem">
										<rect x="11082" y="652" height="1263" width="18" />
									</g>
									<g class="accid" id="accid-0000000452793511" />
								</g>
								<g class="rest" id="rest-L29F3">
									<use xlink:href="#E4E6" x="11431" y="1080" height="720px" width="720px" />
								</g>
							</g>
							<g class="beam" id="beam-L31F3-L34F3">
								<polygon points="12110,1575 13156,1472 13156,1382 12110,1485 " />
								<polygon points="12799,1372 13156,1337 13156,1247 12799,1282 " />
								<g class="rest" id="rest-L31F3">
									<use xlink:href="#E4E6" x="12110" y="720" height="720px" width="720px" />
								</g>
								<g class="note" id="note-L33F3">
									<use xlink:href="#E0A4" x="12790" y="360" height="720px" width="720px" />
									<g class="stem">
										<rect x="12790" y="382" height="1107" width="18" />
									</g>
									<g class="accid" id="accid-0000002090847321" />
								</g>
								<g class="rest" id="rest-L34F3">
									<use xlink:href="#E4E7" x="13138" y="720" height="720px" width="720px" />
								</g>
							</g>
						</g>
					</g>
					<g class="staff" id="staff-L26F2N1">
						<path d="M10527 2205 L13523 2205" stroke="#000000" stroke-width="13" />
						<path d="M10527 2385 L13523 2385" stroke="#000000" stroke-width="13" />
						<path d="M10527 2565 L13523 2565" stroke="#000000" stroke-width="13" />
						<path d="M10527 2745 L13523 2745" stroke="#000000" stroke-width="13" />
						<path d="M10527 2925 L13523 2925" stroke="#000000" stroke-width="13" />
						<g class="layer" id="layer-L26F2N1">
							<g class="beam" id="beam-L27F2-L30F2">
								<polygon points="10934,2092 11988,2196 11988,2286 10934,2182 " />
								<polygon points="11830,2316 11988,2331 11988,2421 11830,2406 " />
								<g class="rest" id="rest-L27F2">
									<use xlink:href="#E4E6" x="10726" y="2565" height="720px" width="720px" />
									<g class="dots" id="dots-0000001918113627">
										<ellipse cx="11014" cy="2475" rx="36" ry="36" />
									</g>
								</g>
								<g class="note" id="note-L30F2">
									<use xlink:href="#E0A4" x="11762" y="3015" height="720px" width="720px" />
									<g class="stem">
										<rect x="11970" y="2214" height="779" width="18" />
									</g>
									<g class="accid" id="accid-0000001674031101" />
								</g>
							</g>
							<g class="beam" id="beam-L31F2-L32F2">
								<polygon points="12318,2070 12685,2070 12685,2160 12318,2160 " />
								<polygon points="12318,2205 12476,2205 12476,2295 12318,2295 " />
								<g class="note" id="note-L31F2">
									<use xlink:href="#E0A4" x="12110" y="2745" height="720px" width="720px" />
									<g class="stem">
										<rect x="12318" y="2088" height="635" width="18" />
									</g>
									<g class="accid" id="accid-0000000935467950" />
								</g>
								<g class="rest" id="rest-L32F2">
									<use xlink:href="#E4E6" x="12459" y="2565" height="720px" width="720px" />
									<g class="dots" id="dots-0000000292098116">
										<ellipse cx="12747" cy="2475" rx="36" ry="36" />
									</g>
								</g>
							</g>
						</g>
					</g>
					<g class="staff" id="staff-L26F1N1">
						<path d="M10527 3645 L13523 3645" stroke="#000000" stroke-width="13" />
						<path d="M10527 3825 L13523 3825" stroke="#000000" stroke-width="13" />
						<path d="M10527 4005 L13523 4005" stroke="#000000" stroke-width="13" />
						<path d="M10527 4185 L13523 4185" stroke="#000000" stroke-width="13" />
						<path d="M10527 4365 L13523 4365" stroke="#000000" stroke-width="13" />
						<g class="layer" id="layer-L26F1N1">
							<g class="beam" id="beam-L27F1-L30F1">
								<polygon points="10934,3510 11988,3510 11988,3600 10934,3600 " />
								<polygon points="11830,3645 11988,3645 11988,3735 11830,3735 " />
								<g class="rest" id="rest-L27F1">
									<use xlink:href="#E4E6" x="10726" y="4005" height="720px" width="720px" />
									<g class="dots" id="dots-0000000145418570">
										<ellipse cx="11014" cy="3915" rx="36" ry="36" />
									</g>
								</g>
								<g class="note" id="note-L30F1">
									<use xlink:href="#E0A4" x="11762" y="4185" height="720px" width="720px" />
									<g class="stem">
										<rect x="11970" y="3528" height="635" width="18" />
									</g>
									<g class="accid" id="accid-0000001478976490" />
								</g>
							</g>
							<g class="rest" id="rest-L31F1">
								<use xlink:href="#E4E5" x="12110" y="4005" height="720px" width="720px" />
							</g>
						</g>
					</g>
					<g class="mNum autogenerated" id="mnum-0000000942566544" />
					<g class="barLineAttr" id="bline-0000002100477221">
						<path d="M13510 1440 L13510 720" stroke="#000000" stroke-width="27" />
						<path d="M13510 2925 L13510 2205" stroke="#000000" stroke-width="27" />
						<path d="M13510 4365 L13510 3645" stroke="#000000" stroke-width="27" />
					</g>
				</g>
				<g class="measure" id="measure-L35">
					<g class="staff" id="staff-L35F3N1">
						<path d="M13523 720 L16792 720" stroke="#000000" stroke-width="13" />
						<path d="M13523 900 L16792 900" stroke="#000000" stroke-width="13" />
						<path d="M13523 1080 L16792 1080" stroke="#000000" stroke-width="13" />
						<path d="M13523 1260 L16792 1260" stroke="#000000" stroke-width="13" />
						<path d="M13523 1440 L16792 1440" stroke="#000000" stroke-width="13" />
						<g class="ledgerLines above">
							<path d="M14047 540 L14326 540" stroke="#000000" stroke-width="22" />
						</g>
						<g class="layer" id="layer-L35F3N1">
							<g class="beam" id="beam-L36F3-L39F3">
								<polygon points="13722,1936 14801,1987 14801,1897 13722,1846 " />
								<polygon points="13722,1801 14801,1852 14801,1762 13722,1711 " />
								<g class="rest" id="rest-L36F3">
									<use xlink:href="#E4E7" x="13722" y="1080" height="720px" width="720px" />
								</g>
								<g class="note" id="note-L37F3">
									<use xlink:href="#E0A4" x="14078" y="540" height="720px" width="720px" />
									<g class="stem">
										<rect x="14078" y="562" height="1373" width="18" />
									</g>
									<g class="accid" id="accid-0000001484255066" />
								</g>
								<g class="rest" id="rest-L38F3">
									<use xlink:href="#E4E7" x="14427" y="1080" height="720px" width="720px" />
								</g>
								<g class="note" id="note-L39F3">
									<use xlink:href="#E0A4" x="14783" y="1080" height="720px" width="720px" />
									<g class="stem">
										<rect x="14783" y="1102" height="867" width="18" />
									</g>
									<g class="accid" id="accid-0000000782844349" />
								</g>
							</g>
							<g class="rest" id="rest-L40F3">
								<use xlink:href="#E4E5" x="15139" y="1080" height="720px" width="720px" />
							</g>
						</g>
					</g>
					<g class="staff" id="staff-L35F2N1">
						<path d="M13523 2205 L16792 2205" stroke="#000000" stroke-width="13" />
						<path d="M13523 2385 L16792 2385" stroke="#000000" stroke-width="13" />
						<path d="M13523 2565 L16792 2565" stroke="#000000" stroke-width="13" />
						<path d="M13523 2745 L16792 2745" stroke="#000000" stroke-width="13" />
						<path d="M13523 2925 L16792 2925" stroke="#000000" stroke-width="13" />
						<g class="layer" id="layer-L35F2N1">
							<g class="beam" id="beam-L36F2-L39F2">
								<polygon points="13930,2078 15009,2116 15009,2206 13930,2168 " />
								<polygon points="14644,2239 15009,2251 15009,2341 14644,2329 " />
								<g class="rest" id="rest-L36F2">
									<use xlink:href="#E4E6" x="13722" y="2565" height="720px" width="720px" />
								</g>
								<g class="note" id="note-L38F2">
									<use xlink:href="#E0A4" x="14427" y="2925" height="720px" width="720px" />
									<g class="stem">
										<rect x="14635" y="2122" height="781" width="18" />
									</g>
									<g class="accid" id="accid-0000002049524539" />
								</g>
								<g class="rest" id="rest-L39F2">
									<use xlink:href="#E4E7" x="14783" y="2565" height="720px" width="720px" />
								</g>
							</g>
							<g class="beam" id="beam-L40F2-L42F2">
								<polygon points="15347,2319 16285,2227 16285,2317 15347,2409 " />
								<polygon points="15347,2454 15712,2418 15712,2508 15347,2544 " />
								<g class="note" id="note-L40F2">
									<use xlink:href="#E0A4" x="15139" y="3015" height="720px" width="720px" />
									<g class="stem">
										<rect x="15347" y="2337" height="656" width="18" />
									</g>
									<g class="accid" id="accid-0000000413812762" />
								</g>
								<g class="note" id="note-L41F2">
									<use xlink:href="#E0A4" x="15495" y="3015" height="720px" width="720px" />
									<g class="stem">
										<rect x="15703" y="2301" height="692" width="18" />
									</g>
									<g class="accid" id="accid-0000000899569033" />
								</g>
								<g class="rest" id="rest-L42F2">
									<use xlink:href="#E4E6" x="16059" y="2565" height="720px" width="720px" />
								</g>
							</g>
						</g>
					</g>
					<g class="staff" id="staff-L35F1N1">
						<path d="M13523 3645 L16792 3645" stroke="#000000" stroke-width="13" />
						<path d="M13523 3825 L16792 3825" stroke="#000000" stroke-width="13" />
						<path d="M13523 4005 L16792 4005" stroke="#000000" stroke-width="13" />
						<path d="M13523 4185 L16792 4185" stroke="#000000" stroke-width="13" />
						<path d="M13523 4365 L16792 4365" stroke="#000000" stroke-width="13" />
						<g class="layer" id="layer-L35F1N1">
							<g class="rest" id="rest-L36F1">
								<use xlink:href="#E4E5" x="13722" y="4005" height="720px" width="720px" />
							</g>
							<g class="beam" id="beam-L40F1-L43F1">
								<polygon points="15139,4861 16426,4892 16426,4802 15139,4771 " />
								<polygon points="15139,4726 16426,4757 16426,4667 15139,4636 " />
								<g class="rest" id="rest-L40F1">
									<use xlink:href="#E4E7" x="15139" y="4005" height="720px" width="720px" />
								</g>
								<g class="note" id="note-L41F1">
									<use xlink:href="#E0A4" x="15495" y="3735" height="720px" width="720px" />
									<g class="stem">
										<rect x="15495" y="3757" height="1095" width="18" />
									</g>
									<g class="accid" id="accid-0000001913520602" />
								</g>
								<g class="note" id="note-L42F1">
									<use xlink:href="#E0A4" x="16059" y="3825" height="720px" width="720px" />
									<g class="stem">
										<rect x="16059" y="3847" height="1019" width="18" />
									</g>
									<g class="accid" id="accid-0000001188546149">
										<use xlink:href="#E262" x="15864" y="3825" height="720px" width="720px" />
									</g>
								</g>
								<g class="rest" id="rest-L43F1">
									<use xlink:href="#E4E7" x="16408" y="4005" height="720px" width="720px" />
								</g>
							</g>
						</g>
					</g>
					<g class="mNum autogenerated" id="mnum-0000000806398110" />
					<g class="barLineAttr" id="bline-0000001001802164">
						<path d="M16779 1440 L16779 720" stroke="#000000" stroke-width="27" />
						<path d="M16779 2925 L16779 2205" stroke="#000000" stroke-width="27" />
						<path d="M16779 4365 L16779 3645" stroke="#000000" stroke-width="27" />
					</g>
				</g>
				<g class="measure" id="measure-L44">
					<g class="staff" id="staff-L44F3N1">
						<path d="M16792 720 L20004 720" stroke="#000000" stroke-width="13" />
						<path d="M16792 900 L20004 900" stroke="#000000" stroke-width="13" />
						<path d="M16792 1080 L20004 1080" stroke="#000000" stroke-width="13" />
						<path d="M16792 1260 L20004 1260" stroke="#000000" stroke-width="13" />
						<path d="M16792 1440 L20004 1440" stroke="#000000" stroke-width="13" />
						<g class="layer" id="layer-L44F3N1">
							<g class="rest" id="rest-L45F3">
								<use xlink:href="#E4E5" x="16991" y="1080" height="720px" width="720px" />
							</g>
							<g class="beam" id="beam-L49F3-L52F3">
								<polygon points="18591,1935 19645,1831 19645,1741 18591,1845 " />
								<polygon points="19487,1711 19645,1696 19645,1606 19487,1621 " />
								<g class="rest" id="rest-L49F3">
									<use xlink:href="#E4E6" x="18591" y="1080" height="720px" width="720px" />
									<g class="dots" id="dots-0000002024861893">
										<ellipse cx="18879" cy="990" rx="36" ry="36" />
									</g>
								</g>
								<g class="note" id="note-L52F3">
									<use xlink:href="#E0A4" x="19627" y="900" height="720px" width="720px" />
									<g class="stem">
										<rect x="19627" y="922" height="891" width="18" />
									</g>
									<g class="accid" id="accid-0000001822630018" />
								</g>
							</g>
						</g>
					</g>
					<g class="staff" id="staff-L44F2N1">
						<path d="M16792 2205 L20004 2205" stroke="#000000" stroke-width="13" />
						<path d="M16792 2385 L20004 2385" stroke="#000000" stroke-width="13" />
						<path d="M16792 2565 L20004 2565" stroke="#000000" stroke-width="13" />
						<path d="M16792 2745 L20004 2745" stroke="#000000" stroke-width="13" />
						<path d="M16792 2925 L20004 2925" stroke="#000000" stroke-width="13" />
						<g class="layer" id="layer-L44F2N1">
							<g class="beam" id="beam-L45F2-L48F2">
								<polygon points="17199,2092 18469,2217 18469,2307 17199,2182 " />
								<polygon points="18311,2338 18469,2352 18469,2442 18311,2428 " />
								<g class="rest" id="rest-L45F2">
									<use xlink:href="#E4E6" x="16991" y="2565" height="720px" width="720px" />
									<g class="dots" id="dots-0000001504536819">
										<ellipse cx="17279" cy="2475" rx="36" ry="36" />
									</g>
								</g>
								<g class="note" id="note-L48F2">
									<use xlink:href="#E0A4" x="18243" y="3015" height="720px" width="720px" />
									<g class="stem">
										<rect x="18451" y="2235" height="758" width="18" />
									</g>
									<g class="accid" id="accid-0000001542822401" />
								</g>
							</g>
							<g class="beam" id="beam-L49F2-L51F2">
								<polygon points="18799,1981 19522,1980 19522,2070 18799,2071 " />
								<polygon points="18799,2116 19165,2116 19165,2206 18799,2206 " />
								<g class="rest" id="rest-L49F2">
									<use xlink:href="#E4E7" x="18591" y="2565" height="720px" width="720px" />
								</g>
								<g class="note" id="note-L50F2">
									<use xlink:href="#E0A4" x="18948" y="2655" height="720px" width="720px" />
									<g class="stem">
										<rect x="19156" y="1999" height="634" width="18" />
									</g>
									<g class="accid" id="accid-0000001617275899" />
								</g>
								<g class="rest" id="rest-L51F2">
									<use xlink:href="#E4E6" x="19296" y="2565" height="720px" width="720px" />
								</g>
							</g>
						</g>
					</g>
					<g class="staff" id="staff-L44F1N1">
						<path d="M16792 3645 L20004 3645" stroke="#000000" stroke-width="13" />
						<path d="M16792 3825 L20004 3825" stroke="#000000" stroke-width="13" />
						<path d="M16792 4005 L20004 4005" stroke="#000000" stroke-width="13" />
						<path d="M16792 4185 L20004 4185" stroke="#000000" stroke-width="13" />
						<path d="M16792 4365 L20004 4365" stroke="#000000" stroke-width="13" />
						<g class="layer" id="layer-L44F1N1">
							<g class="beam" id="beam-L45F1-L46F1">
								<polygon points="17199,3510 17789,3510 17789,3600 17199,3600 " />
								<polygon points="17199,3645 17789,3645 17789,3735 17199,3735 " />
								<g class="rest" id="rest-L45F1">
									<use xlink:href="#E4E7" x="16991" y="4005" height="720px" width="720px" />
								</g>
								<g class="note" id="note-L46F1">
									<use xlink:href="#E0A4" x="17563" y="4185" height="720px" width="720px" />
									<g class="stem">
										<rect x="17771" y="3528" height="635" width="18" />
									</g>
									<g class="accid" id="accid-0000002107525475">
										<use xlink:href="#E260" x="17367" y="4185" height="720px" width="720px" />
									</g>
								</g>
							</g>
							<g class="rest" id="rest-L47F1">
								<use xlink:href="#E4E5" x="17912" y="4005" height="720px" width="720px" />
								<g class="dots" id="dots-0000001112475432">
									<ellipse cx="18221" cy="3915" rx="36" ry="36" />
								</g>
							</g>
						</g>
					</g>
					<g class="mNum autogenerated" id="mnum-0000001615400909" />
					<g class="barLineAttr" id="bline-0000002079039914">
						<path d="M19991 1440 L19991 720" stroke="#000000" stroke-width="27" />
						<path d="M19991 2925 L19991 2205" stroke="#000000" stroke-width="27" />
						<path d="M19991 4365 L19991 3645" stroke="#000000" stroke-width="27" />
					</g>
				</g>
			</g>
		</g>
	</svg>
</svg>
