<?xml version="1.0" encoding="UTF-8" standalone="no"?>
<svg width="2100.00px" height="600.00px" version="1.1" xmlns="http://www.w3.org/2000/svg" xmlns:xlink="http://www.w3.org/1999/xlink" overflow="visible">
	<desc>Engraved by Verovio 2.0.0-dev-0f0381c</desc>
	<defs>
		<symbol id="E003" viewBox="0 0 1000 1000" overflow="inherit">
			<path transform="scale(1,-1)" d="M0 -0c49 0 97.5 -2.26367 135.5 4.73633c206 95 258.5 264.264 263.5 271.264c0 1 -14 7 -15 6c-88 -154 -251 -167 -321 -170c-1 0 -63 -1 -63 -1v-111z" />
		</symbol>
		<symbol id="E004" viewBox="0 0 1000 1000" overflow="inherit">
			<path transform="scale(1,-1)" d="M0 0c49 0 97.5 2.26367 135.5 -4.73633c206 -95 258.5 -264.264 263.5 -271.264c0 -1 -14 -7 -15 -6c-88 154 -251 167 -321 170c-1 0 -63 1 -63 1v111z" />
		</symbol>
		<symbol id="E050" viewBox="0 0 1000 1000" overflow="inherit">
			<path transform="scale(1,-1)" d="M441 -245c-23 -4 -48 -6 -76 -6c-59 0 -102 7 -130 20c-88 42 -150 93 -187 154c-26 44 -43 103 -48 176c-4 60 11 123 44 189c29 57 65 106 110 148s96 85 153 127c-3 16 -8 46 -13 92c-4 43 -5 73 -5 89c0 117 16 172 69 257c34 54 64 82 89 82c21 0 43 -30 69 -92 s39 -115 41 -159c2 -120 -19 -173 -67 -256c-13 -20 -63 -90 -98 -118c-13 -9 -25 -19 -37 -29l31 -181c8 1 18 2 28 2c58 0 102 -12 133 -35c59 -43 92 -104 98 -184c11 -135 -80 -229 -180 -270c8 -57 17 -110 25 -162c5 -31 6 -58 6 -80c0 -30 -5 -53 -14 -70 c-35 -64 -88 -99 -158 -103c-42 -3 -83 6 -124 26c-50 24 -77 59 -80 105c-2 34 5 63 20 87c18 28 45 42 79 44c51 4 99 -40 103 -87c4 -56 -30 -94 -105 -115c17 -24 51 -36 102 -36c62 0 116 43 140 85c9 16 13 41 13 74c0 20 -1 42 -5 67c-8 53 -18 106 -26 159zM461 939 c-95 0 -135 -175 -135 -286c0 -24 2 -48 5 -71c50 39 92 82 127 128c43 57 63 106 60 148c-4 54 -23 82 -57 81zM406 119l54 -326c80 27 116 88 109 184c-7 99 -62 146 -163 142zM382 117c-74 -2 -132 -50 -128 -127c2 -46 43 -99 75 -115c-3 -2 -7 -5 -10 -10 c-70 33 -116 88 -123 172c-5 73 42 135 88 170c23 17 49 29 78 36l-29 170c-21 -13 -52 -37 -92 -73c-50 -44 -86 -84 -109 -119c-49 -75 -71 -140 -67 -195c5 -68 35 -127 93 -176s125 -73 203 -73c25 0 50 3 75 9c-19 111 -36 221 -54 331z" />
		</symbol>
		<symbol id="E082" viewBox="0 0 1000 1000" overflow="inherit">
			<path transform="scale(1,-1)" d="M104 -185c-18 0 -55 -14 -65 -65h-36l-3 29c0 25 6 46 18 64c11 19 22 30 39 43l121 82l37 29c15 11 27 29 38 54c12 24 18 47 18 70c0 40 -19 88 -94 88c-25 0 -32 0 -50 -8c-14 -5 -23 -12 -26 -22c3 -9 7 -15 10 -18l24 -17c12 -7 17 -11 27 -21c5 -7 7 -16 7 -27 c0 -12 0 -57 -79 -74c-30 0 -76 26 -76 94c0 66 80 135 196 135c72 0 182 -32 182 -150c0 -53 -32 -95 -113 -133l-91 -41c-26 -11 -45 -23 -57 -37l49 7c84 0 115 -41 148 -41c20 0 33 20 39 61h35c0 -152 -68 -168 -114 -168c-17 0 -55 0 -69 7v0l-28 17 c-49 37 -69 40 -87 42z" />
		</symbol>
		<symbol id="E084" viewBox="0 0 1000 1000" overflow="inherit">
			<path transform="scale(1,-1)" d="M0 -78c84 97 114 180 134 329h170c-13 -32 -82 -132 -99 -151l-84 -97c-33 -36 -59 -63 -80 -81h162v102l127 123v-225h57v-39h-57v-34c0 -43 19 -65 57 -65v-34h-244v36c48 0 60 26 60 70v27h-203v39z" />
		</symbol>
		<symbol id="E062" viewBox="0 0 1000 1000" overflow="inherit">
			<path transform="scale(1,-1)" d="M158 96c51 0 73 -14 88 -49l16 -39c0 -17 -2 -30 -7 -40c-3 -11 -10 -21 -19 -31c-17 -18 -49 -43 -84 -43c-55 0 -77 13 -112 44c-24 21 -35 55 -35 100c0 46 14 81 32 112c30 52 71 79 137 93l36 6l26 2c154 0 235 -68 274 -182c11 -32 18 -68 18 -107 c0 -103 -26 -182 -68 -250c-89 -145 -234 -230 -412 -288l-30 -5c-9 0 -14 3 -14 8c3 10 5 11 10 16c35 15 70 30 96 44l78 43c96 57 162 136 197 258c9 33 17 60 22 100c3 22 5 35 6 39c-7 69 -16 115 -23 140s-4 22 -16 40c-8 12 -19 23 -31 34c-24 21 -62 44 -118 44 c-48 0 -84 -8 -113 -28c-28 -19 -42 -44 -42 -73v-16c2 -5 3 -9 4 -11c24 22 52 39 84 39zM585 -118c0 32 23 58 57 58c18 0 33 -6 40 -18c9 -15 16 -18 16 -40c0 -9 -2 -16 -5 -21c-6 -19 -27 -37 -51 -37c-34 0 -57 26 -57 58zM642 177c31 0 56 -27 56 -58 c0 -30 -25 -58 -56 -58l-23 3c-19 7 -34 32 -34 55l3 23c9 20 28 35 54 35z" />
		</symbol>
		<symbol id="E4E5" viewBox="0 0 1000 1000" overflow="inherit">
			<path transform="scale(1,-1)" d="M107 292c-13 24 -30 49 -52 71c-1 1 0 2 0 3l-2 2c3 3 4 4 6 4c12 0 26 -7 40 -20s44 -40 89 -81c26 -24 28 -29 46 -47c4 -4 8 -9 10 -14c6 -8 8 -16 8 -27c0 -19 -12 -40 -36 -61c-28 -23 -49 -38 -61 -73c-4 -11 -7 -27 -10 -50c13 -43 34 -83 59 -121 c31 -47 59 -79 101 -129c-8 0 -26 7 -54 20l-62 29l-21 6l-23 1c-25 0 -45 -10 -60 -30l-4 -14l-1 -12c0 -33 20 -56 39 -78c8 -9 17 -18 26 -26c17 -15 27 -24 28 -30l-3 -3c-11 5 -19 10 -25 15c-9 3 -37 21 -45 26c-24 14 -45 32 -63 51c-19 21 -37 44 -37 71 c0 63 27 95 80 95c41 0 86 -18 136 -52c-19 26 -37 48 -55 66c-23 23 -48 44 -73 65c-28 23 -47 40 -58 53s-17 26 -18 39c75 64 113 125 113 183c0 27 -7 48 -18 68z" />
		</symbol>
		<symbol id="E4E7" viewBox="0 0 1000 1000" overflow="inherit">
			<path transform="scale(1,-1)" d="M133 -111c-16 38 -21 43 -64 51c-37 -4 -60 -25 -68 -60c0 -32 18 -52 55 -58c8 -6 22 -10 43 -10c31 0 62 7 82 20l-108 -324h37c72 220 143 439 215 659h-4l-10 -2l-7 -1c-15 -35 -27 -52 -59 -71c-26 -15 -56 -27 -88 -29c-11 0 -20 2 -26 6c29 3 56 25 51 56 c-15 35 -19 42 -64 48c-38 -4 -60 -23 -68 -58c0 -32 18 -52 55 -59c7 -5 22 -8 45 -8c48 0 76 7 112 25l-66 -197c-21 -23 -50 -47 -90 -47c-7 0 -15 1 -25 4c31 5 52 22 52 55z" />
		</symbol>
		<symbol id="E0A4" viewBox="0 0 1000 1000" overflow="inherit">
			<path transform="scale(1,-1)" d="M0 -39c0 68 73 172 200 172c66 0 114 -37 114 -95c0 -84 -106 -171 -218 -171c-64 0 -96 30 -96 94z" />
		</symbol>
		<symbol id="E4E6" viewBox="0 0 1000 1000" overflow="inherit">
			<path transform="scale(1,-1)" d="M0 123c7 34 33 56 69 60c29 -3 43 -9 53 -29c4 -8 7 -15 10 -22c0 -21 -1 -25 -11 -35c-5 -8 -18 -14 -40 -20l12 -3l15 -1c44 0 97 26 122 56c10 11 18 26 24 42c7 1 15 2 22 3l-140 -424h-36l111 330c-10 -6 -27 -12 -53 -16l-52 -8h-10l-20 1c-1 0 -8 3 -21 6 c-37 9 -55 28 -55 60z" />
		</symbol>
		<symbol id="E262" viewBox="0 0 1000 1000" overflow="inherit">
			<path transform="scale(1,-1)" d="M136 186v169h17v-164l44 14v-91l-44 -14v-165l44 12v-91l-44 -13v-155h-17v150l-76 -22v-155h-17v149l-43 -13v90l43 14v167l-43 -14v92l43 13v169h17v-163zM60 73v-167l76 22v168z" />
		</symbol>
		<symbol id="E242" viewBox="0 0 1000 1000" overflow="inherit">
			<path transform="scale(1,-1)" d="M206 -748c91 136 56.292 298.217 -119 352c-18 5 -47 9 -87 16v190v190h22c8 0 33 -61 71 -95c4 -3 -2 3 61 -56c62 -58 122 -137 122 -241c0 -32.1738 -6.57111 -65.5797 -17.0148 -96.4025c10.6799 -28.6511 17.0148 -59.8045 17.0148 -93.5975 c0 -71 -32 -148 -67 -190c-6 -5 -10 -7 -13 -7s-5 2 -5 5l4 10c1 3 5.87292 8.33755 11 16zM247.893 -462.544c4.43497 18.4096 7.1066 37.5837 7.1066 56.5441c0 105 -80 173 -168 200c-11.3931 3.16476 -27.1932 5.92889 -47.4001 9.3067 c8.64443 -16.7635 23.0469 -61.1485 53.4001 -88.3067c4 -3 -2 3 61 -56c35.6263 -33.3278 70.5922 -73.5895 93.8934 -121.544z" />
		</symbol>
		<symbol id="E260" viewBox="0 0 1000 1000" overflow="inherit">
			<path transform="scale(1,-1)" d="M20 110c32 16 54 27 93 27c26 0 35 -3 54 -13c13 -7 24 -20 27 -38l4 -25c0 -28 -16 -57 -45 -89c-23 -25 -39 -44 -65 -68l-88 -79v644h20v-359zM90 106c-32 0 -48 -10 -70 -29v-194c31 31 54 59 71 84c21 32 32 59 32 84c0 9 1 16 1 20c0 14 -3 21 -11 30l-8 3z" />
		</symbol>
	</defs>
	<style type="text/css">g.page-margin{font-family:Times;} g.tempo{font-weight:bold;} g.dir, g.dynam, g.mNum{font-style:italic;} g.label{font-weight:normal;}</style>
	<svg class="definition-scale" viewBox="0 0 21000 6000">
		<g class="page-margin" transform="translate(500, 500)">
			<g class="system" id="system-0000001473190656">
				<path d="M13 720 L13 4320" stroke="#000000" stroke-width="27" />
				<use xlink:href="#E003" x="-167" y="720" height="720px" width="720px" />
				<use xlink:href="#E004" x="-167" y="4320" height="720px" width="720px" />
				<rect x="-167" y="702" height="3636" width="90" />
				<g class="section boundaryStart" id="section-L1F1" />
				<g class="measure" id="measure-L4">
					<g class="staff" id="staff-L4F3N1">
						<path d="M0 720 L2595 720" stroke="#000000" stroke-width="13" />
						<path d="M0 900 L2595 900" stroke="#000000" stroke-width="13" />
						<path d="M0 1080 L2595 1080" stroke="#000000" stroke-width="13" />
						<path d="M0 1260 L2595 1260" stroke="#000000" stroke-width="13" />
						<path d="M0 1440 L2595 1440" stroke="#000000" stroke-width="13" />
						<g class="clef" id="clef-0000001776790388">
							<use xlink:href="#E050" x="90" y="1260" height="720px" width="720px" />
						</g>
						<g class="meterSig" id="msig-0000001755939581">
							<use xlink:href="#E082" x="771" y="900" height="720px" width="720px" />
							<use xlink:href="#E084" x="777" y="1260" height="720px" width="720px" />
						</g>
						<g class="layer" id="layer-L4F3N1">
							<g class="mRest" id="mrest-L5F3">
								<rect x="1751" y="900" height="90" width="216" />
							</g>
						</g>
					</g>
					<g class="staff" id="staff-L4F2N1">
						<path d="M0 2160 L2595 2160" stroke="#000000" stroke-width="13" />
						<path d="M0 2340 L2595 2340" stroke="#000000" stroke-width="13" />
						<path d="M0 2520 L2595 2520" stroke="#000000" stroke-width="13" />
						<path d="M0 2700 L2595 2700" stroke="#000000" stroke-width="13" />
						<path d="M0 2880 L2595 2880" stroke="#000000" stroke-width="13" />
						<g class="clef" id="clef-0000001356260793">
							<use xlink:href="#E050" x="90" y="2700" height="720px" width="720px" />
						</g>
						<g class="meterSig" id="msig-0000001283718693">
							<use xlink:href="#E082" x="771" y="2340" height="720px" width="720px" />
							<use xlink:href="#E084" x="777" y="2700" height="720px" width="720px" />
						</g>
						<g class="layer" id="layer-L4F2N1">
							<g class="mRest" id="mrest-L5F2">
								<rect x="1751" y="2340" height="90" width="216" />
							</g>
						</g>
					</g>
					<g class="staff" id="staff-L4F1N1">
						<path d="M0 3600 L2595 3600" stroke="#000000" stroke-width="13" />
						<path d="M0 3780 L2595 3780" stroke="#000000" stroke-width="13" />
						<path d="M0 3960 L2595 3960" stroke="#000000" stroke-width="13" />
						<path d="M0 4140 L2595 4140" stroke="#000000" stroke-width="13" />
						<path d="M0 4320 L2595 4320" stroke="#000000" stroke-width="13" />
						<g class="clef" id="clef-0000001839355489">
							<use xlink:href="#E062" x="90" y="3780" height="720px" width="720px" />
						</g>
						<g class="meterSig" id="msig-0000001020605058">
							<use xlink:href="#E082" x="771" y="3780" height="720px" width="720px" />
							<use xlink:href="#E084" x="777" y="4140" height="720px" width="720px" />
						</g>
						<g class="layer" id="layer-L4F1N1">
							<g class="mRest" id="mrest-L5F1">
								<rect x="1751" y="3780" height="90" width="216" />
							</g>
						</g>
					</g>
					<g class="mNum autogenerated" id="mnum-0000000639955171" />
					<g class="barLineAttr" id="bline-0000000264514383">
						<path d="M2582 1440 L2582 720" stroke="#000000" stroke-width="27" />
						<path d="M2582 2880 L2582 2160" stroke="#000000" stroke-width="27" />
						<path d="M2582 4320 L2582 3600" stroke="#000000" stroke-width="27" />
					</g>
				</g>
				<g class="measure" id="measure-L6">
					<g class="staff" id="staff-L6F3N1">
						<path d="M2595 720 L4869 720" stroke="#000000" stroke-width="13" />
						<path d="M2595 900 L4869 900" stroke="#000000" stroke-width="13" />
						<path d="M2595 1080 L4869 1080" stroke="#000000" stroke-width="13" />
						<path d="M2595 1260 L4869 1260" stroke="#000000" stroke-width="13" />
						<path d="M2595 1440 L4869 1440" stroke="#000000" stroke-width="13" />
						<g class="layer" id="layer-L6F3N1">
							<g class="mRest" id="mrest-L7F3">
								<rect x="3610" y="900" height="90" width="216" />
							</g>
						</g>
					</g>
					<g class="staff" id="staff-L6F2N1">
						<path d="M2595 2160 L4869 2160" stroke="#000000" stroke-width="13" />
						<path d="M2595 2340 L4869 2340" stroke="#000000" stroke-width="13" />
						<path d="M2595 2520 L4869 2520" stroke="#000000" stroke-width="13" />
						<path d="M2595 2700 L4869 2700" stroke="#000000" stroke-width="13" />
						<path d="M2595 2880 L4869 2880" stroke="#000000" stroke-width="13" />
						<g class="layer" id="layer-L6F2N1">
							<g class="rest" id="rest-L7F2">
								<use xlink:href="#E4E5" x="2784" y="2520" height="720px" width="720px" />
							</g>
							<g class="beam" id="beam-L8F2-L10F2">
								<polygon points="3717,2036 4610,2079 4610,2169 3717,2126 " />
								<polygon points="3717,2171 4269,2197 4269,2287 3717,2261 " />
								<g class="rest" id="rest-L8F2">
									<use xlink:href="#E4E7" x="3509" y="2520" height="720px" width="720px" />
								</g>
								<g class="note" id="note-L9F2">
									<use xlink:href="#E0A4" x="4052" y="2970" height="720px" width="720px" />
									<g class="stem">
										<rect x="4260" y="2080" height="868" width="18" />
									</g>
									<g class="accid" id="accid-0000001813510884" />
								</g>
								<g class="rest" id="rest-L10F2">
									<use xlink:href="#E4E6" x="4384" y="2520" height="720px" width="720px" />
								</g>
							</g>
						</g>
					</g>
					<g class="staff" id="staff-L6F1N1">
						<path d="M2595 3600 L4869 3600" stroke="#000000" stroke-width="13" />
						<path d="M2595 3780 L4869 3780" stroke="#000000" stroke-width="13" />
						<path d="M2595 3960 L4869 3960" stroke="#000000" stroke-width="13" />
						<path d="M2595 4140 L4869 4140" stroke="#000000" stroke-width="13" />
						<path d="M2595 4320 L4869 4320" stroke="#000000" stroke-width="13" />
						<g class="layer" id="layer-L6F1N1">
							<g class="rest" id="rest-L7F1">
								<use xlink:href="#E4E5" x="2784" y="3960" height="720px" width="720px" />
							</g>
							<g class="beam" id="beam-L8F1-L10F1">
								<polygon points="3509,4815 4402,4758 4402,4668 3509,4725 " />
								<polygon points="3509,4680 4061,4645 4061,4555 3509,4590 " />
								<g class="rest" id="rest-L8F1">
									<use xlink:href="#E4E7" x="3509" y="3960" height="720px" width="720px" />
								</g>
								<g class="note" id="note-L9F1">
									<use xlink:href="#E0A4" x="4052" y="3780" height="720px" width="720px" />
									<g class="stem">
										<rect x="4052" y="3802" height="960" width="18" />
									</g>
									<g class="accid" id="accid-0000001727167008">
										<use xlink:href="#E262" x="3857" y="3780" height="720px" width="720px" />
									</g>
								</g>
								<g class="rest" id="rest-L10F1">
									<use xlink:href="#E4E6" x="4384" y="3960" height="720px" width="720px" />
								</g>
							</g>
						</g>
					</g>
					<g class="mNum autogenerated" id="mnum-0000001512089890" />
					<g class="barLineAttr" id="bline-0000002095645047">
						<path d="M4856 1440 L4856 720" stroke="#000000" stroke-width="27" />
						<path d="M4856 2880 L4856 2160" stroke="#000000" stroke-width="27" />
						<path d="M4856 4320 L4856 3600" stroke="#000000" stroke-width="27" />
					</g>
				</g>
				<g class="measure" id="measure-L11">
					<g class="staff" id="staff-L11F3N1">
						<path d="M4869 720 L7775 720" stroke="#000000" stroke-width="13" />
						<path d="M4869 900 L7775 900" stroke="#000000" stroke-width="13" />
						<path d="M4869 1080 L7775 1080" stroke="#000000" stroke-width="13" />
						<path d="M4869 1260 L7775 1260" stroke="#000000" stroke-width="13" />
						<path d="M4869 1440 L7775 1440" stroke="#000000" stroke-width="13" />
						<g class="ledgerLines above">
							<path d="M5366 540 L5645 540" stroke="#000000" stroke-width="22" />
						</g>
						<g class="layer" id="layer-L11F3N1">
							<g class="beam" id="beam-L12F3-L14F3">
								<polygon points="5058,1935 5747,1930 5747,1840 5058,1845 " />
								<polygon points="5058,1800 5406,1798 5406,1708 5058,1710 " />
								<g class="rest" id="rest-L12F3">
									<use xlink:href="#E4E7" x="5058" y="1080" height="720px" width="720px" />
								</g>
								<g class="note" id="note-L13F3">
									<use xlink:href="#E0A4" x="5397" y="540" height="720px" width="720px" />
									<g class="stem">
										<rect x="5397" y="562" height="1353" width="18" />
									</g>
									<g class="accid" id="accid-0000000128235418" />
								</g>
								<g class="rest" id="rest-L14F3">
									<use xlink:href="#E4E6" x="5729" y="1080" height="720px" width="720px" />
								</g>
							</g>
							<g class="beam" id="beam-L15F3-L18F3">
								<polygon points="6201,1935 7434,1813 7434,1723 6201,1845 " />
								<polygon points="6201,1800 7434,1678 7434,1588 6201,1710 " />
								<g class="rest" id="rest-L15F3">
									<use xlink:href="#E4E7" x="6201" y="1080" height="720px" width="720px" />
								</g>
								<g class="note" id="note-L16F3">
									<use xlink:href="#E0A4" x="6745" y="720" height="720px" width="720px" />
									<g class="stem">
										<rect x="6745" y="742" height="1120" width="18" />
									</g>
									<g class="accid" id="accid-0000000829475777">
										<use xlink:href="#E262" x="6550" y="720" height="720px" width="720px" />
									</g>
								</g>
								<g class="rest" id="rest-L17F3">
									<use xlink:href="#E4E7" x="7077" y="1080" height="720px" width="720px" />
								</g>
								<g class="note" id="note-L18F3">
									<use xlink:href="#E0A4" x="7416" y="990" height="720px" width="720px" />
									<g class="stem">
										<rect x="7416" y="1012" height="783" width="18" />
									</g>
									<g class="accid" id="accid-0000001574235504" />
								</g>
							</g>
						</g>
					</g>
					<g class="staff" id="staff-L11F2N1">
						<path d="M4869 2160 L7775 2160" stroke="#000000" stroke-width="13" />
						<path d="M4869 2340 L7775 2340" stroke="#000000" stroke-width="13" />
						<path d="M4869 2520 L7775 2520" stroke="#000000" stroke-width="13" />
						<path d="M4869 2700 L7775 2700" stroke="#000000" stroke-width="13" />
						<path d="M4869 2880 L7775 2880" stroke="#000000" stroke-width="13" />
						<g class="layer" id="layer-L11F2N1">
							<g class="mRest" id="mrest-L12F2">
								<rect x="6200" y="2340" height="90" width="216" />
							</g>
						</g>
					</g>
					<g class="staff" id="staff-L11F1N1">
						<path d="M4869 3600 L7775 3600" stroke="#000000" stroke-width="13" />
						<path d="M4869 3780 L7775 3780" stroke="#000000" stroke-width="13" />
						<path d="M4869 3960 L7775 3960" stroke="#000000" stroke-width="13" />
						<path d="M4869 4140 L7775 4140" stroke="#000000" stroke-width="13" />
						<path d="M4869 4320 L7775 4320" stroke="#000000" stroke-width="13" />
						<g class="layer" id="layer-L11F1N1">
							<g class="mRest" id="mrest-L12F1">
								<rect x="6200" y="3780" height="90" width="216" />
							</g>
						</g>
					</g>
					<g class="mNum autogenerated" id="mnum-0000001297603137" />
					<g class="barLineAttr" id="bline-0000001032885068">
						<path d="M7762 1440 L7762 720" stroke="#000000" stroke-width="27" />
						<path d="M7762 2880 L7762 2160" stroke="#000000" stroke-width="27" />
						<path d="M7762 4320 L7762 3600" stroke="#000000" stroke-width="27" />
					</g>
				</g>
				<g class="measure" id="measure-L19">
					<g class="staff" id="staff-L19F3N1">
						<path d="M7775 720 L9859 720" stroke="#000000" stroke-width="13" />
						<path d="M7775 900 L9859 900" stroke="#000000" stroke-width="13" />
						<path d="M7775 1080 L9859 1080" stroke="#000000" stroke-width="13" />
						<path d="M7775 1260 L9859 1260" stroke="#000000" stroke-width="13" />
						<path d="M7775 1440 L9859 1440" stroke="#000000" stroke-width="13" />
						<g class="layer" id="layer-L19F3N1">
							<g class="mRest" id="mrest-L20F3">
								<rect x="8695" y="900" height="90" width="216" />
							</g>
						</g>
					</g>
					<g class="staff" id="staff-L19F2N1">
						<path d="M7775 2160 L9859 2160" stroke="#000000" stroke-width="13" />
						<path d="M7775 2340 L9859 2340" stroke="#000000" stroke-width="13" />
						<path d="M7775 2520 L9859 2520" stroke="#000000" stroke-width="13" />
						<path d="M7775 2700 L9859 2700" stroke="#000000" stroke-width="13" />
						<path d="M7775 2880 L9859 2880" stroke="#000000" stroke-width="13" />
						<g class="layer" id="layer-L19F2N1">
							<g class="rest" id="rest-L20F2">
								<use xlink:href="#E4E5" x="7964" y="2520" height="720px" width="720px" />
							</g>
							<g class="beam" id="beam-L21F2-L23F2">
								<polygon points="8897,2031 9718,2052 9718,2142 8897,2121 " />
								<polygon points="9378,2178 9718,2187 9718,2277 9378,2268 " />
								<g class="rest" id="rest-L21F2">
									<use xlink:href="#E4E6" x="8689" y="2520" height="720px" width="720px" />
								</g>
								<g class="note" id="note-L22F2">
									<use xlink:href="#E0A4" x="9161" y="2880" height="720px" width="720px" />
									<g class="stem">
										<rect x="9369" y="2061" height="797" width="18" />
									</g>
									<g class="accid" id="accid-0000000747058473" />
								</g>
								<g class="rest" id="rest-L23F2">
									<use xlink:href="#E4E7" x="9492" y="2520" height="720px" width="720px" />
								</g>
							</g>
						</g>
					</g>
					<g class="staff" id="staff-L19F1N1">
						<path d="M7775 3600 L9859 3600" stroke="#000000" stroke-width="13" />
						<path d="M7775 3780 L9859 3780" stroke="#000000" stroke-width="13" />
						<path d="M7775 3960 L9859 3960" stroke="#000000" stroke-width="13" />
						<path d="M7775 4140 L9859 4140" stroke="#000000" stroke-width="13" />
						<path d="M7775 4320 L9859 4320" stroke="#000000" stroke-width="13" />
						<g class="layer" id="layer-L19F1N1">
							<g class="mRest" id="mrest-L20F1">
								<rect x="8695" y="3780" height="90" width="216" />
							</g>
						</g>
					</g>
					<g class="mNum autogenerated" id="mnum-0000001135189751" />
					<g class="barLineAttr" id="bline-0000002123823107">
						<path d="M9846 1440 L9846 720" stroke="#000000" stroke-width="27" />
						<path d="M9846 2880 L9846 2160" stroke="#000000" stroke-width="27" />
						<path d="M9846 4320 L9846 3600" stroke="#000000" stroke-width="27" />
					</g>
				</g>
				<g class="measure" id="measure-L24">
					<g class="staff" id="staff-L24F3N1">
						<path d="M9859 720 L12725 720" stroke="#000000" stroke-width="13" />
						<path d="M9859 900 L12725 900" stroke="#000000" stroke-width="13" />
						<path d="M9859 1080 L12725 1080" stroke="#000000" stroke-width="13" />
						<path d="M9859 1260 L12725 1260" stroke="#000000" stroke-width="13" />
						<path d="M9859 1440 L12725 1440" stroke="#000000" stroke-width="13" />
						<g class="ledgerLines above">
							<path d="M11996 540 L12275 540" stroke="#000000" stroke-width="22" />
							<path d="M11996 360 L12275 360" stroke="#000000" stroke-width="22" />
						</g>
						<g class="layer" id="layer-L24F3N1">
							<g class="beam" id="beam-L25F3-L28F3">
								<polygon points="10048,1935 11233,1818 11233,1728 10048,1845 " />
								<polygon points="10893,1716 11233,1683 11233,1593 10893,1626 " />
								<g class="rest" id="rest-L25F3">
									<use xlink:href="#E4E6" x="10048" y="1080" height="720px" width="720px" />
								</g>
								<g class="note" id="note-L27F3">
									<use xlink:href="#E0A4" x="10884" y="810" height="720px" width="720px" />
									<g class="stem">
										<rect x="10884" y="832" height="1001" width="18" />
									</g>
									<g class="accid" id="accid-0000001239641550" />
								</g>
								<g class="rest" id="rest-L28F3">
									<use xlink:href="#E4E7" x="11215" y="1080" height="720px" width="720px" />
								</g>
							</g>
							<g class="beam" id="beam-L29F3-L31F3">
								<polygon points="11554,1575 12376,1512 12376,1422 11554,1485 " />
								<polygon points="12036,1403 12376,1377 12376,1287 12036,1313 " />
								<g class="rest" id="rest-L29F3">
									<use xlink:href="#E4E6" x="11554" y="720" height="720px" width="720px" />
								</g>
								<g class="note" id="note-L30F3">
									<use xlink:href="#E0A4" x="12027" y="360" height="720px" width="720px" />
									<g class="stem">
										<rect x="12027" y="382" height="1138" width="18" />
									</g>
									<g class="accid" id="accid-0000002093451759" />
								</g>
								<g class="rest" id="rest-L31F3">
									<use xlink:href="#E4E7" x="12358" y="720" height="720px" width="720px" />
								</g>
							</g>
						</g>
					</g>
					<g class="staff" id="staff-L24F2N1">
						<path d="M9859 2160 L12725 2160" stroke="#000000" stroke-width="13" />
						<path d="M9859 2340 L12725 2340" stroke="#000000" stroke-width="13" />
						<path d="M9859 2520 L12725 2520" stroke="#000000" stroke-width="13" />
						<path d="M9859 2700 L12725 2700" stroke="#000000" stroke-width="13" />
						<path d="M9859 2880 L12725 2880" stroke="#000000" stroke-width="13" />
						<g class="ledgerLines below">
							<path d="M10017 3060 L10296 3060" stroke="#000000" stroke-width="22" />
						</g>
						<g class="layer" id="layer-L24F2N1">
							<g class="note" id="note-L25F2">
								<use xlink:href="#E0A4" x="10048" y="3150" height="720px" width="720px" />
								<g class="stem">
									<rect x="10256" y="2520" height="608" width="18" />
									<g class="flag" id="flag-0000001899136875">
										<use xlink:href="#E242" x="10256" y="2520" height="720px" width="720px" />
									</g>
								</g>
								<g class="accid" id="accid-0000000640113900" />
							</g>
							<g class="rest" id="rest-L26F2">
								<use xlink:href="#E4E5" x="10569" y="2520" height="720px" width="720px" />
								<g class="dots" id="dots-0000000744012764">
									<ellipse cx="10878" cy="2430" rx="36" ry="36" />
									<ellipse cx="11013" cy="2430" rx="36" ry="36" />
								</g>
							</g>
						</g>
					</g>
					<g class="staff" id="staff-L24F1N1">
						<path d="M9859 3600 L12725 3600" stroke="#000000" stroke-width="13" />
						<path d="M9859 3780 L12725 3780" stroke="#000000" stroke-width="13" />
						<path d="M9859 3960 L12725 3960" stroke="#000000" stroke-width="13" />
						<path d="M9859 4140 L12725 4140" stroke="#000000" stroke-width="13" />
						<path d="M9859 4320 L12725 4320" stroke="#000000" stroke-width="13" />
						<g class="layer" id="layer-L24F1N1">
							<g class="mRest" id="mrest-L25F1">
								<rect x="11170" y="3780" height="90" width="216" />
							</g>
						</g>
					</g>
					<g class="mNum autogenerated" id="mnum-0000002081623843" />
					<g class="barLineAttr" id="bline-0000001251167522">
						<path d="M12712 1440 L12712 720" stroke="#000000" stroke-width="27" />
						<path d="M12712 2880 L12712 2160" stroke="#000000" stroke-width="27" />
						<path d="M12712 4320 L12712 3600" stroke="#000000" stroke-width="27" />
					</g>
				</g>
				<g class="measure" id="measure-L32">
					<g class="staff" id="staff-L32F3N1">
						<path d="M12725 720 L15212 720" stroke="#000000" stroke-width="13" />
						<path d="M12725 900 L15212 900" stroke="#000000" stroke-width="13" />
						<path d="M12725 1080 L15212 1080" stroke="#000000" stroke-width="13" />
						<path d="M12725 1260 L15212 1260" stroke="#000000" stroke-width="13" />
						<path d="M12725 1440 L15212 1440" stroke="#000000" stroke-width="13" />
						<g class="layer" id="layer-L32F3N1">
							<g class="mRest" id="mrest-L33F3">
								<rect x="13847" y="900" height="90" width="216" />
							</g>
						</g>
					</g>
					<g class="staff" id="staff-L32F2N1">
						<path d="M12725 2160 L15212 2160" stroke="#000000" stroke-width="13" />
						<path d="M12725 2340 L15212 2340" stroke="#000000" stroke-width="13" />
						<path d="M12725 2520 L15212 2520" stroke="#000000" stroke-width="13" />
						<path d="M12725 2700 L15212 2700" stroke="#000000" stroke-width="13" />
						<path d="M12725 2880 L15212 2880" stroke="#000000" stroke-width="13" />
						<g class="layer" id="layer-L32F2N1">
							<g class="rest" id="rest-L33F2">
								<use xlink:href="#E4E5" x="12914" y="2520" height="720px" width="720px" />
							</g>
							<g class="beam" id="beam-L34F2-L36F2">
								<polygon points="13847,2274 14740,2186 14740,2276 13847,2364 " />
								<polygon points="13847,2409 14195,2375 14195,2465 13847,2499 " />
								<g class="note" id="note-L34F2">
									<use xlink:href="#E0A4" x="13639" y="2970" height="720px" width="720px" />
									<g class="stem">
										<rect x="13847" y="2292" height="656" width="18" />
									</g>
									<g class="accid" id="accid-0000000692897027" />
								</g>
								<g class="note" id="note-L35F2">
									<use xlink:href="#E0A4" x="13978" y="2970" height="720px" width="720px" />
									<g class="stem">
										<rect x="14186" y="2258" height="690" width="18" />
									</g>
									<g class="accid" id="accid-0000000735632849" />
								</g>
								<g class="rest" id="rest-L36F2">
									<use xlink:href="#E4E6" x="14514" y="2520" height="720px" width="720px" />
								</g>
							</g>
						</g>
					</g>
					<g class="staff" id="staff-L32F1N1">
						<path d="M12725 3600 L15212 3600" stroke="#000000" stroke-width="13" />
						<path d="M12725 3780 L15212 3780" stroke="#000000" stroke-width="13" />
						<path d="M12725 3960 L15212 3960" stroke="#000000" stroke-width="13" />
						<path d="M12725 4140 L15212 4140" stroke="#000000" stroke-width="13" />
						<path d="M12725 4320 L15212 4320" stroke="#000000" stroke-width="13" />
						<g class="layer" id="layer-L32F1N1">
							<g class="rest" id="rest-L33F1">
								<use xlink:href="#E4E5" x="12914" y="3960" height="720px" width="720px" />
							</g>
							<g class="beam" id="beam-L34F1-L37F1">
								<polygon points="13639,4816 14863,4847 14863,4757 13639,4726 " />
								<polygon points="13639,4681 14863,4712 14863,4622 13639,4591 " />
								<g class="rest" id="rest-L34F1">
									<use xlink:href="#E4E7" x="13639" y="3960" height="720px" width="720px" />
								</g>
								<g class="note" id="note-L35F1">
									<use xlink:href="#E0A4" x="13978" y="3690" height="720px" width="720px" />
									<g class="stem">
										<rect x="13978" y="3712" height="1094" width="18" />
									</g>
									<g class="accid" id="accid-0000001622251727" />
								</g>
								<g class="note" id="note-L36F1">
									<use xlink:href="#E0A4" x="14514" y="3780" height="720px" width="720px" />
									<g class="stem">
										<rect x="14514" y="3802" height="1018" width="18" />
									</g>
									<g class="accid" id="accid-0000002106706282">
										<use xlink:href="#E262" x="14319" y="3780" height="720px" width="720px" />
									</g>
								</g>
								<g class="rest" id="rest-L37F1">
									<use xlink:href="#E4E7" x="14845" y="3960" height="720px" width="720px" />
								</g>
							</g>
						</g>
					</g>
					<g class="mNum autogenerated" id="mnum-0000000116603095" />
					<g class="barLineAttr" id="bline-0000000998228004">
						<path d="M15199 1440 L15199 720" stroke="#000000" stroke-width="27" />
						<path d="M15199 2880 L15199 2160" stroke="#000000" stroke-width="27" />
						<path d="M15199 4320 L15199 3600" stroke="#000000" stroke-width="27" />
					</g>
				</g>
				<g class="measure" id="measure-L38">
					<g class="staff" id="staff-L38F3N1">
						<path d="M15212 720 L17703 720" stroke="#000000" stroke-width="13" />
						<path d="M15212 900 L17703 900" stroke="#000000" stroke-width="13" />
						<path d="M15212 1080 L17703 1080" stroke="#000000" stroke-width="13" />
						<path d="M15212 1260 L17703 1260" stroke="#000000" stroke-width="13" />
						<path d="M15212 1440 L17703 1440" stroke="#000000" stroke-width="13" />
						<g class="ledgerLines above">
							<path d="M16719 540 L16998 540" stroke="#000000" stroke-width="22" />
							<path d="M16719 360 L16998 360" stroke="#000000" stroke-width="22" />
						</g>
						<g class="layer" id="layer-L38F3N1">
							<g class="rest" id="rest-L39F3">
								<use xlink:href="#E4E5" x="15401" y="1080" height="720px" width="720px" />
							</g>
							<g class="beam" id="beam-L42F3-L43F3">
								<polygon points="16750,1080 17100,1114 17100,1024 16750,990 " />
								<polygon points="16750,945 16908,960 16908,870 16750,855 " />
								<g class="note" id="note-L42F3">
									<use xlink:href="#E0A4" x="16750" y="360" height="720px" width="720px" />
									<g class="stem">
										<rect x="16750" y="382" height="680" width="18" />
									</g>
									<g class="accid" id="accid-0000001880769418" />
								</g>
								<g class="rest" id="rest-L43F3">
									<use xlink:href="#E4E6" x="17082" y="720" height="720px" width="720px" />
									<g class="dots" id="dots-0000000908715245">
										<ellipse cx="17370" cy="630" rx="36" ry="36" />
									</g>
								</g>
							</g>
						</g>
					</g>
					<g class="staff" id="staff-L38F2N1">
						<path d="M15212 2160 L17703 2160" stroke="#000000" stroke-width="13" />
						<path d="M15212 2340 L17703 2340" stroke="#000000" stroke-width="13" />
						<path d="M15212 2520 L17703 2520" stroke="#000000" stroke-width="13" />
						<path d="M15212 2700 L17703 2700" stroke="#000000" stroke-width="13" />
						<path d="M15212 2880 L17703 2880" stroke="#000000" stroke-width="13" />
						<g class="layer" id="layer-L38F2N1">
							<g class="mRest" id="mrest-L39F2">
								<rect x="16336" y="2340" height="90" width="216" />
							</g>
						</g>
					</g>
					<g class="staff" id="staff-L38F1N1">
						<path d="M15212 3600 L17703 3600" stroke="#000000" stroke-width="13" />
						<path d="M15212 3780 L17703 3780" stroke="#000000" stroke-width="13" />
						<path d="M15212 3960 L17703 3960" stroke="#000000" stroke-width="13" />
						<path d="M15212 4140 L17703 4140" stroke="#000000" stroke-width="13" />
						<path d="M15212 4320 L17703 4320" stroke="#000000" stroke-width="13" />
						<g class="layer" id="layer-L38F1N1">
							<g class="beam" id="beam-L39F1-L40F1">
								<polygon points="15609,3465 16172,3465 16172,3555 15609,3555 " />
								<polygon points="15609,3600 16172,3600 16172,3690 15609,3690 " />
								<g class="rest" id="rest-L39F1">
									<use xlink:href="#E4E7" x="15401" y="3960" height="720px" width="720px" />
								</g>
								<g class="note" id="note-L40F1">
									<use xlink:href="#E0A4" x="15946" y="4140" height="720px" width="720px" />
									<g class="stem">
										<rect x="16154" y="3483" height="635" width="18" />
									</g>
									<g class="accid" id="accid-0000001948551351">
										<use xlink:href="#E260" x="15750" y="4140" height="720px" width="720px" />
									</g>
								</g>
							</g>
							<g class="rest" id="rest-L41F1">
								<use xlink:href="#E4E5" x="16278" y="3960" height="720px" width="720px" />
								<g class="dots" id="dots-0000000814487734">
									<ellipse cx="16587" cy="3870" rx="36" ry="36" />
								</g>
							</g>
						</g>
					</g>
					<g class="mNum autogenerated" id="mnum-0000000444416344" />
					<g class="barLineAttr" id="bline-0000001329966373">
						<path d="M17690 1440 L17690 720" stroke="#000000" stroke-width="27" />
						<path d="M17690 2880 L17690 2160" stroke="#000000" stroke-width="27" />
						<path d="M17690 4320 L17690 3600" stroke="#000000" stroke-width="27" />
					</g>
				</g>
				<g class="measure" id="measure-L44">
					<g class="staff" id="staff-L44F3N1">
						<path d="M17703 720 L20003 720" stroke="#000000" stroke-width="13" />
						<path d="M17703 900 L20003 900" stroke="#000000" stroke-width="13" />
						<path d="M17703 1080 L20003 1080" stroke="#000000" stroke-width="13" />
						<path d="M17703 1260 L20003 1260" stroke="#000000" stroke-width="13" />
						<path d="M17703 1440 L20003 1440" stroke="#000000" stroke-width="13" />
						<g class="layer" id="layer-L44F3N1">
							<g class="mRest" id="mrest-L45F3">
								<rect x="18731" y="900" height="90" width="216" />
							</g>
						</g>
					</g>
					<g class="staff" id="staff-L44F2N1">
						<path d="M17703 2160 L20003 2160" stroke="#000000" stroke-width="13" />
						<path d="M17703 2340 L20003 2340" stroke="#000000" stroke-width="13" />
						<path d="M17703 2520 L20003 2520" stroke="#000000" stroke-width="13" />
						<path d="M17703 2700 L20003 2700" stroke="#000000" stroke-width="13" />
						<path d="M17703 2880 L20003 2880" stroke="#000000" stroke-width="13" />
						<g class="layer" id="layer-L44F2N1">
							<g class="beam" id="beam-L45F2-L46F2">
								<polygon points="18100,1997 18727,1936 18727,2026 18100,2087 " />
								<polygon points="18569,2086 18727,2071 18727,2161 18569,2176 " />
								<g class="rest" id="rest-L45F2">
									<use xlink:href="#E4E6" x="17892" y="2520" height="720px" width="720px" />
									<g class="dots" id="dots-0000001034579360">
										<ellipse cx="18180" cy="2430" rx="36" ry="36" />
									</g>
								</g>
								<g class="note" id="note-L46F2">
									<use xlink:href="#E0A4" x="18501" y="2610" height="720px" width="720px" />
									<g class="stem">
										<rect x="18709" y="1954" height="634" width="18" />
									</g>
									<g class="accid" id="accid-0000000586251492" />
								</g>
							</g>
							<g class="beam" id="beam-L47F2-L49F2">
								<polygon points="19041,2031 19863,2052 19863,2142 19041,2121 " />
								<polygon points="19522,2178 19863,2187 19863,2277 19522,2268 " />
								<g class="rest" id="rest-L47F2">
									<use xlink:href="#E4E6" x="18833" y="2520" height="720px" width="720px" />
								</g>
								<g class="note" id="note-L48F2">
									<use xlink:href="#E0A4" x="19305" y="2880" height="720px" width="720px" />
									<g class="stem">
										<rect x="19513" y="2061" height="797" width="18" />
									</g>
									<g class="accid" id="accid-0000000313788108" />
								</g>
								<g class="rest" id="rest-L49F2">
									<use xlink:href="#E4E7" x="19637" y="2520" height="720px" width="720px" />
								</g>
							</g>
						</g>
					</g>
					<g class="staff" id="staff-L44F1N1">
						<path d="M17703 3600 L20003 3600" stroke="#000000" stroke-width="13" />
						<path d="M17703 3780 L20003 3780" stroke="#000000" stroke-width="13" />
						<path d="M17703 3960 L20003 3960" stroke="#000000" stroke-width="13" />
						<path d="M17703 4140 L20003 4140" stroke="#000000" stroke-width="13" />
						<path d="M17703 4320 L20003 4320" stroke="#000000" stroke-width="13" />
						<g class="layer" id="layer-L44F1N1">
							<g class="mRest" id="mrest-L45F1">
								<rect x="18731" y="3780" height="90" width="216" />
							</g>
						</g>
					</g>
					<g class="mNum autogenerated" id="mnum-0000001942253982" />
					<g class="barLineAttr" id="bline-0000000334152924">
						<path d="M19990 1440 L19990 720" stroke="#000000" stroke-width="27" />
						<path d="M19990 2880 L19990 2160" stroke="#000000" stroke-width="27" />
						<path d="M19990 4320 L19990 3600" stroke="#000000" stroke-width="27" />
					</g>
				</g>
			</g>
		</g>
	</svg>
</svg>
