<?xml version="1.0" encoding="UTF-8" standalone="no"?>
<svg width="2100.00px" height="600.00px" version="1.1" xmlns="http://www.w3.org/2000/svg" xmlns:xlink="http://www.w3.org/1999/xlink" overflow="visible">
	<desc>Engraved by Verovio 2.0.0-dev-0f0381c</desc>
	<defs>
		<symbol id="E003" viewBox="0 0 1000 1000" overflow="inherit">
			<path transform="scale(1,-1)" d="M0 -0c49 0 97.5 -2.26367 135.5 4.73633c206 95 258.5 264.264 263.5 271.264c0 1 -14 7 -15 6c-88 -154 -251 -167 -321 -170c-1 0 -63 -1 -63 -1v-111z" />
		</symbol>
		<symbol id="E004" viewBox="0 0 1000 1000" overflow="inherit">
			<path transform="scale(1,-1)" d="M0 0c49 0 97.5 2.26367 135.5 -4.73633c206 -95 258.5 -264.264 263.5 -271.264c0 -1 -14 -7 -15 -6c-88 154 -251 167 -321 170c-1 0 -63 1 -63 1v111z" />
		</symbol>
		<symbol id="E050" viewBox="0 0 1000 1000" overflow="inherit">
			<path transform="scale(1,-1)" d="M441 -245c-23 -4 -48 -6 -76 -6c-59 0 -102 7 -130 20c-88 42 -150 93 -187 154c-26 44 -43 103 -48 176c-4 60 11 123 44 189c29 57 65 106 110 148s96 85 153 127c-3 16 -8 46 -13 92c-4 43 -5 73 -5 89c0 117 16 172 69 257c34 54 64 82 89 82c21 0 43 -30 69 -92 s39 -115 41 -159c2 -120 -19 -173 -67 -256c-13 -20 -63 -90 -98 -118c-13 -9 -25 -19 -37 -29l31 -181c8 1 18 2 28 2c58 0 102 -12 133 -35c59 -43 92 -104 98 -184c11 -135 -80 -229 -180 -270c8 -57 17 -110 25 -162c5 -31 6 -58 6 -80c0 -30 -5 -53 -14 -70 c-35 -64 -88 -99 -158 -103c-42 -3 -83 6 -124 26c-50 24 -77 59 -80 105c-2 34 5 63 20 87c18 28 45 42 79 44c51 4 99 -40 103 -87c4 -56 -30 -94 -105 -115c17 -24 51 -36 102 -36c62 0 116 43 140 85c9 16 13 41 13 74c0 20 -1 42 -5 67c-8 53 -18 106 -26 159zM461 939 c-95 0 -135 -175 -135 -286c0 -24 2 -48 5 -71c50 39 92 82 127 128c43 57 63 106 60 148c-4 54 -23 82 -57 81zM406 119l54 -326c80 27 116 88 109 184c-7 99 -62 146 -163 142zM382 117c-74 -2 -132 -50 -128 -127c2 -46 43 -99 75 -115c-3 -2 -7 -5 -10 -10 c-70 33 -116 88 -123 172c-5 73 42 135 88 170c23 17 49 29 78 36l-29 170c-21 -13 -52 -37 -92 -73c-50 -44 -86 -84 -109 -119c-49 -75 -71 -140 -67 -195c5 -68 35 -127 93 -176s125 -73 203 -73c25 0 50 3 75 9c-19 111 -36 221 -54 331z" />
		</symbol>
		<symbol id="E082" viewBox="0 0 1000 1000" overflow="inherit">
			<path transform="scale(1,-1)" d="M104 -185c-18 0 -55 -14 -65 -65h-36l-3 29c0 25 6 46 18 64c11 19 22 30 39 43l121 82l37 29c15 11 27 29 38 54c12 24 18 47 18 70c0 40 -19 88 -94 88c-25 0 -32 0 -50 -8c-14 -5 -23 -12 -26 -22c3 -9 7 -15 10 -18l24 -17c12 -7 17 -11 27 -21c5 -7 7 -16 7 -27 c0 -12 0 -57 -79 -74c-30 0 -76 26 -76 94c0 66 80 135 196 135c72 0 182 -32 182 -150c0 -53 -32 -95 -113 -133l-91 -41c-26 -11 -45 -23 -57 -37l49 7c84 0 115 -41 148 -41c20 0 33 20 39 61h35c0 -152 -68 -168 -114 -168c-17 0 -55 0 -69 7v0l-28 17 c-49 37 -69 40 -87 42z" />
		</symbol>
		<symbol id="E084" viewBox="0 0 1000 1000" overflow="inherit">
			<path transform="scale(1,-1)" d="M0 -78c84 97 114 180 134 329h170c-13 -32 -82 -132 -99 -151l-84 -97c-33 -36 -59 -63 -80 -81h162v102l127 123v-225h57v-39h-57v-34c0 -43 19 -65 57 -65v-34h-244v36c48 0 60 26 60 70v27h-203v39z" />
		</symbol>
		<symbol id="E4E5" viewBox="0 0 1000 1000" overflow="inherit">
			<path transform="scale(1,-1)" d="M107 292c-13 24 -30 49 -52 71c-1 1 0 2 0 3l-2 2c3 3 4 4 6 4c12 0 26 -7 40 -20s44 -40 89 -81c26 -24 28 -29 46 -47c4 -4 8 -9 10 -14c6 -8 8 -16 8 -27c0 -19 -12 -40 -36 -61c-28 -23 -49 -38 -61 -73c-4 -11 -7 -27 -10 -50c13 -43 34 -83 59 -121 c31 -47 59 -79 101 -129c-8 0 -26 7 -54 20l-62 29l-21 6l-23 1c-25 0 -45 -10 -60 -30l-4 -14l-1 -12c0 -33 20 -56 39 -78c8 -9 17 -18 26 -26c17 -15 27 -24 28 -30l-3 -3c-11 5 -19 10 -25 15c-9 3 -37 21 -45 26c-24 14 -45 32 -63 51c-19 21 -37 44 -37 71 c0 63 27 95 80 95c41 0 86 -18 136 -52c-19 26 -37 48 -55 66c-23 23 -48 44 -73 65c-28 23 -47 40 -58 53s-17 26 -18 39c75 64 113 125 113 183c0 27 -7 48 -18 68z" />
		</symbol>
		<symbol id="E4E7" viewBox="0 0 1000 1000" overflow="inherit">
			<path transform="scale(1,-1)" d="M133 -111c-16 38 -21 43 -64 51c-37 -4 -60 -25 -68 -60c0 -32 18 -52 55 -58c8 -6 22 -10 43 -10c31 0 62 7 82 20l-108 -324h37c72 220 143 439 215 659h-4l-10 -2l-7 -1c-15 -35 -27 -52 -59 -71c-26 -15 -56 -27 -88 -29c-11 0 -20 2 -26 6c29 3 56 25 51 56 c-15 35 -19 42 -64 48c-38 -4 -60 -23 -68 -58c0 -32 18 -52 55 -59c7 -5 22 -8 45 -8c48 0 76 7 112 25l-66 -197c-21 -23 -50 -47 -90 -47c-7 0 -15 1 -25 4c31 5 52 22 52 55z" />
		</symbol>
		<symbol id="E0A4" viewBox="0 0 1000 1000" overflow="inherit">
			<path transform="scale(1,-1)" d="M0 -39c0 68 73 172 200 172c66 0 114 -37 114 -95c0 -84 -106 -171 -218 -171c-64 0 -96 30 -96 94z" />
		</symbol>
		<symbol id="E4E6" viewBox="0 0 1000 1000" overflow="inherit">
			<path transform="scale(1,-1)" d="M0 123c7 34 33 56 69 60c29 -3 43 -9 53 -29c4 -8 7 -15 10 -22c0 -21 -1 -25 -11 -35c-5 -8 -18 -14 -40 -20l12 -3l15 -1c44 0 97 26 122 56c10 11 18 26 24 42c7 1 15 2 22 3l-140 -424h-36l111 330c-10 -6 -27 -12 -53 -16l-52 -8h-10l-20 1c-1 0 -8 3 -21 6 c-37 9 -55 28 -55 60z" />
		</symbol>
		<symbol id="E062" viewBox="0 0 1000 1000" overflow="inherit">
			<path transform="scale(1,-1)" d="M158 96c51 0 73 -14 88 -49l16 -39c0 -17 -2 -30 -7 -40c-3 -11 -10 -21 -19 -31c-17 -18 -49 -43 -84 -43c-55 0 -77 13 -112 44c-24 21 -35 55 -35 100c0 46 14 81 32 112c30 52 71 79 137 93l36 6l26 2c154 0 235 -68 274 -182c11 -32 18 -68 18 -107 c0 -103 -26 -182 -68 -250c-89 -145 -234 -230 -412 -288l-30 -5c-9 0 -14 3 -14 8c3 10 5 11 10 16c35 15 70 30 96 44l78 43c96 57 162 136 197 258c9 33 17 60 22 100c3 22 5 35 6 39c-7 69 -16 115 -23 140s-4 22 -16 40c-8 12 -19 23 -31 34c-24 21 -62 44 -118 44 c-48 0 -84 -8 -113 -28c-28 -19 -42 -44 -42 -73v-16c2 -5 3 -9 4 -11c24 22 52 39 84 39zM585 -118c0 32 23 58 57 58c18 0 33 -6 40 -18c9 -15 16 -18 16 -40c0 -9 -2 -16 -5 -21c-6 -19 -27 -37 -51 -37c-34 0 -57 26 -57 58zM642 177c31 0 56 -27 56 -58 c0 -30 -25 -58 -56 -58l-23 3c-19 7 -34 32 -34 55l3 23c9 20 28 35 54 35z" />
		</symbol>
		<symbol id="E262" viewBox="0 0 1000 1000" overflow="inherit">
			<path transform="scale(1,-1)" d="M136 186v169h17v-164l44 14v-91l-44 -14v-165l44 12v-91l-44 -13v-155h-17v150l-76 -22v-155h-17v149l-43 -13v90l43 14v167l-43 -14v92l43 13v169h17v-163zM60 73v-167l76 22v168z" />
		</symbol>
		<symbol id="E242" viewBox="0 0 1000 1000" overflow="inherit">
			<path transform="scale(1,-1)" d="M206 -748c91 136 56.292 298.217 -119 352c-18 5 -47 9 -87 16v190v190h22c8 0 33 -61 71 -95c4 -3 -2 3 61 -56c62 -58 122 -137 122 -241c0 -32.1738 -6.57111 -65.5797 -17.0148 -96.4025c10.6799 -28.6511 17.0148 -59.8045 17.0148 -93.5975 c0 -71 -32 -148 -67 -190c-6 -5 -10 -7 -13 -7s-5 2 -5 5l4 10c1 3 5.87292 8.33755 11 16zM247.893 -462.544c4.43497 18.4096 7.1066 37.5837 7.1066 56.5441c0 105 -80 173 -168 200c-11.3931 3.16476 -27.1932 5.92889 -47.4001 9.3067 c8.64443 -16.7635 23.0469 -61.1485 53.4001 -88.3067c4 -3 -2 3 61 -56c35.6263 -33.3278 70.5922 -73.5895 93.8934 -121.544z" />
		</symbol>
	</defs>
	<style type="text/css">g.page-margin{font-family:Times;} g.tempo{font-weight:bold;} g.dir, g.dynam, g.mNum{font-style:italic;} g.label{font-weight:normal;}</style>
	<svg class="definition-scale" viewBox="0 0 21000 6000">
		<g class="page-margin" transform="translate(500, 500)">
			<g class="system" id="system-0000000560629722">
				<path d="M13 720 L13 4369" stroke="#000000" stroke-width="27" />
				<use xlink:href="#E003" x="-167" y="720" height="720px" width="720px" />
				<use xlink:href="#E004" x="-167" y="4369" height="720px" width="720px" />
				<rect x="-167" y="702" height="3685" width="90" />
				<g class="section boundaryStart" id="section-L1F1" />
				<g class="measure" id="measure-L4">
					<g class="staff" id="staff-L4F3N1">
						<path d="M0 720 L4268 720" stroke="#000000" stroke-width="13" />
						<path d="M0 900 L4268 900" stroke="#000000" stroke-width="13" />
						<path d="M0 1080 L4268 1080" stroke="#000000" stroke-width="13" />
						<path d="M0 1260 L4268 1260" stroke="#000000" stroke-width="13" />
						<path d="M0 1440 L4268 1440" stroke="#000000" stroke-width="13" />
						<g class="clef" id="clef-0000001166786584">
							<use xlink:href="#E050" x="90" y="1260" height="720px" width="720px" />
						</g>
						<g class="meterSig" id="msig-0000001508936531">
							<use xlink:href="#E082" x="771" y="900" height="720px" width="720px" />
							<use xlink:href="#E084" x="777" y="1260" height="720px" width="720px" />
						</g>
						<g class="ledgerLines above">
							<path d="M3347 540 L3626 540" stroke="#000000" stroke-width="22" />
						</g>
						<g class="layer" id="layer-L4F3N1">
							<g class="rest" id="rest-L5F3">
								<use xlink:href="#E4E5" x="1357" y="1080" height="720px" width="720px" />
							</g>
							<g class="beam" id="beam-L9F3-L11F3">
								<polygon points="3008,1935 3758,1930 3758,1840 3008,1845 " />
								<polygon points="3008,1800 3387,1798 3387,1708 3008,1710 " />
								<g class="rest" id="rest-L9F3">
									<use xlink:href="#E4E7" x="3008" y="1080" height="720px" width="720px" />
								</g>
								<g class="note" id="note-L10F3">
									<use xlink:href="#E0A4" x="3378" y="540" height="720px" width="720px" />
									<g class="stem">
										<rect x="3378" y="562" height="1353" width="18" />
									</g>
									<g class="accid" id="accid-0000001808150968" />
								</g>
								<g class="rest" id="rest-L11F3">
									<use xlink:href="#E4E6" x="3740" y="1080" height="720px" width="720px" />
								</g>
							</g>
						</g>
					</g>
					<g class="staff" id="staff-L4F2N1">
						<path d="M0 2204 L4268 2204" stroke="#000000" stroke-width="13" />
						<path d="M0 2384 L4268 2384" stroke="#000000" stroke-width="13" />
						<path d="M0 2564 L4268 2564" stroke="#000000" stroke-width="13" />
						<path d="M0 2744 L4268 2744" stroke="#000000" stroke-width="13" />
						<path d="M0 2924 L4268 2924" stroke="#000000" stroke-width="13" />
						<g class="clef" id="clef-0000001061889094">
							<use xlink:href="#E050" x="90" y="2744" height="720px" width="720px" />
						</g>
						<g class="meterSig" id="msig-0000001580896288">
							<use xlink:href="#E082" x="771" y="2384" height="720px" width="720px" />
							<use xlink:href="#E084" x="777" y="2744" height="720px" width="720px" />
						</g>
						<g class="layer" id="layer-L4F2N1">
							<g class="beam" id="beam-L5F2-L8F2">
								<polygon points="1565,2091 2872,2220 2872,2310 1565,2181 " />
								<polygon points="2714,2340 2872,2355 2872,2445 2714,2430 " />
								<g class="rest" id="rest-L5F2">
									<use xlink:href="#E4E6" x="1357" y="2564" height="720px" width="720px" />
									<g class="dots" id="dots-0000001083118656">
										<ellipse cx="1645" cy="2474" rx="36" ry="36" />
									</g>
								</g>
								<g class="note" id="note-L8F2">
									<use xlink:href="#E0A4" x="2646" y="3014" height="720px" width="720px" />
									<g class="stem">
										<rect x="2854" y="2238" height="754" width="18" />
									</g>
									<g class="accid" id="accid-0000000746060696" />
								</g>
							</g>
							<g class="rest" id="rest-L9F2">
								<use xlink:href="#E4E5" x="3008" y="2564" height="720px" width="720px" />
							</g>
						</g>
					</g>
					<g class="staff" id="staff-L4F1N1">
						<path d="M0 3649 L4268 3649" stroke="#000000" stroke-width="13" />
						<path d="M0 3829 L4268 3829" stroke="#000000" stroke-width="13" />
						<path d="M0 4009 L4268 4009" stroke="#000000" stroke-width="13" />
						<path d="M0 4189 L4268 4189" stroke="#000000" stroke-width="13" />
						<path d="M0 4369 L4268 4369" stroke="#000000" stroke-width="13" />
						<g class="clef" id="clef-0000001456231732">
							<use xlink:href="#E062" x="90" y="3829" height="720px" width="720px" />
						</g>
						<g class="meterSig" id="msig-0000000015594865">
							<use xlink:href="#E082" x="771" y="3829" height="720px" width="720px" />
							<use xlink:href="#E084" x="777" y="4189" height="720px" width="720px" />
						</g>
						<g class="layer" id="layer-L4F1N1">
							<g class="beam" id="beam-L5F1-L6F1">
								<polygon points="1565,3335 2167,3394 2167,3484 1565,3425 " />
								<polygon points="1565,3470 2167,3529 2167,3619 1565,3560 " />
								<g class="note" id="note-L5F1">
									<use xlink:href="#E0A4" x="1357" y="4009" height="720px" width="720px" />
									<g class="stem">
										<rect x="1565" y="3353" height="634" width="18" />
									</g>
									<g class="accid" id="accid-0000002034802538" />
								</g>
								<g class="note" id="note-L6F1">
									<use xlink:href="#E0A4" x="1941" y="4099" height="720px" width="720px" />
									<g class="stem">
										<rect x="2149" y="3412" height="665" width="18" />
									</g>
									<g class="accid" id="accid-0000000336340987">
										<use xlink:href="#E262" x="1746" y="4099" height="720px" width="720px" />
									</g>
								</g>
							</g>
							<g class="rest" id="rest-L7F1">
								<use xlink:href="#E4E5" x="2303" y="4009" height="720px" width="720px" />
								<g class="dots" id="dots-0000000994605090">
									<ellipse cx="2612" cy="3919" rx="36" ry="36" />
								</g>
							</g>
						</g>
					</g>
					<g class="mNum autogenerated" id="mnum-0000001093132950" />
					<g class="barLineAttr" id="bline-0000001530453060">
						<path d="M4255 1440 L4255 720" stroke="#000000" stroke-width="27" />
						<path d="M4255 2924 L4255 2204" stroke="#000000" stroke-width="27" />
						<path d="M4255 4369 L4255 3649" stroke="#000000" stroke-width="27" />
					</g>
				</g>
				<g class="measure" id="measure-L12">
					<g class="staff" id="staff-L12F3N1">
						<path d="M4268 720 L7643 720" stroke="#000000" stroke-width="13" />
						<path d="M4268 900 L7643 900" stroke="#000000" stroke-width="13" />
						<path d="M4268 1080 L7643 1080" stroke="#000000" stroke-width="13" />
						<path d="M4268 1260 L7643 1260" stroke="#000000" stroke-width="13" />
						<path d="M4268 1440 L7643 1440" stroke="#000000" stroke-width="13" />
						<g class="layer" id="layer-L12F3N1">
							<g class="rest" id="rest-L13F3">
								<use xlink:href="#E4E5" x="4475" y="1080" height="720px" width="720px" />
							</g>
							<g class="beam" id="beam-L17F3-L19F3">
								<polygon points="6160,1935 7133,1849 7133,1759 6160,1845 " />
								<polygon points="6160,1800 6762,1747 6762,1657 6160,1710 " />
								<g class="rest" id="rest-L17F3">
									<use xlink:href="#E4E7" x="6160" y="1080" height="720px" width="720px" />
								</g>
								<g class="note" id="note-L18F3">
									<use xlink:href="#E0A4" x="6753" y="720" height="720px" width="720px" />
									<g class="stem">
										<rect x="6753" y="742" height="1122" width="18" />
									</g>
									<g class="accid" id="accid-0000000569043987">
										<use xlink:href="#E262" x="6558" y="720" height="720px" width="720px" />
									</g>
								</g>
								<g class="rest" id="rest-L19F3">
									<use xlink:href="#E4E6" x="7115" y="1080" height="720px" width="720px" />
								</g>
							</g>
						</g>
					</g>
					<g class="staff" id="staff-L12F2N1">
						<path d="M4268 2204 L7643 2204" stroke="#000000" stroke-width="13" />
						<path d="M4268 2384 L7643 2384" stroke="#000000" stroke-width="13" />
						<path d="M4268 2564 L7643 2564" stroke="#000000" stroke-width="13" />
						<path d="M4268 2744 L7643 2744" stroke="#000000" stroke-width="13" />
						<path d="M4268 2924 L7643 2924" stroke="#000000" stroke-width="13" />
						<g class="layer" id="layer-L12F2N1">
							<g class="beam" id="beam-L13F2-L16F2">
								<polygon points="4683,2318 6017,2186 6017,2276 4683,2408 " />
								<polygon points="4683,2453 6017,2321 6017,2411 4683,2543 " />
								<g class="note" id="note-L13F2">
									<use xlink:href="#E0A4" x="4475" y="3014" height="720px" width="720px" />
									<g class="stem">
										<rect x="4683" y="2336" height="656" width="18" />
									</g>
									<g class="accid" id="accid-0000000812634488" />
								</g>
								<g class="rest" id="rest-L14F2">
									<use xlink:href="#E4E7" x="4836" y="2924" height="720px" width="720px" />
								</g>
								<g class="note" id="note-L15F2">
									<use xlink:href="#E0A4" x="5206" y="2924" height="720px" width="720px" />
									<g class="stem">
										<rect x="5414" y="2263" height="639" width="18" />
									</g>
									<g class="accid" id="accid-0000000283544856" />
								</g>
								<g class="rest" id="rest-L16F2">
									<use xlink:href="#E4E7" x="5791" y="2564" height="720px" width="720px" />
								</g>
							</g>
							<g class="beam" id="beam-L17F2-L19F2">
								<polygon points="6368,2079 7341,2122 7341,2212 6368,2169 " />
								<polygon points="6368,2214 6970,2241 6970,2331 6368,2304 " />
								<g class="rest" id="rest-L17F2">
									<use xlink:href="#E4E7" x="6160" y="2564" height="720px" width="720px" />
								</g>
								<g class="note" id="note-L18F2">
									<use xlink:href="#E0A4" x="6753" y="3014" height="720px" width="720px" />
									<g class="stem">
										<rect x="6961" y="2124" height="868" width="18" />
									</g>
									<g class="accid" id="accid-0000001317591457" />
								</g>
								<g class="rest" id="rest-L19F2">
									<use xlink:href="#E4E6" x="7115" y="2564" height="720px" width="720px" />
								</g>
							</g>
						</g>
					</g>
					<g class="staff" id="staff-L12F1N1">
						<path d="M4268 3649 L7643 3649" stroke="#000000" stroke-width="13" />
						<path d="M4268 3829 L7643 3829" stroke="#000000" stroke-width="13" />
						<path d="M4268 4009 L7643 4009" stroke="#000000" stroke-width="13" />
						<path d="M4268 4189 L7643 4189" stroke="#000000" stroke-width="13" />
						<path d="M4268 4369 L7643 4369" stroke="#000000" stroke-width="13" />
						<g class="layer" id="layer-L12F1N1">
							<g class="beam" id="beam-L13F1-L16F1">
								<polygon points="4475,4864 5809,4732 5809,4642 4475,4774 " />
								<polygon points="5215,4655 5809,4597 5809,4507 5215,4565 " />
								<g class="rest" id="rest-L13F1">
									<use xlink:href="#E4E6" x="4475" y="4009" height="720px" width="720px" />
								</g>
								<g class="note" id="note-L15F1">
									<use xlink:href="#E0A4" x="5206" y="3649" height="720px" width="720px" />
									<g class="stem">
										<rect x="5206" y="3671" height="1101" width="18" />
									</g>
									<g class="accid" id="accid-0000000906346760" />
								</g>
								<g class="note" id="note-L16F1">
									<use xlink:href="#E0A4" x="5791" y="3829" height="720px" width="720px" />
									<g class="stem">
										<rect x="5791" y="3851" height="863" width="18" />
									</g>
									<g class="accid" id="accid-0000000217164584">
										<use xlink:href="#E262" x="5596" y="3829" height="720px" width="720px" />
									</g>
								</g>
							</g>
							<g class="beam" id="beam-L17F1-L19F1">
								<polygon points="6160,4595 7133,4691 7133,4601 6160,4505 " />
								<polygon points="6160,4460 6762,4520 6762,4430 6160,4370 " />
								<g class="note" id="note-L17F1">
									<use xlink:href="#E0A4" x="6160" y="3919" height="720px" width="720px" />
									<g class="stem">
										<rect x="6160" y="3941" height="636" width="18" />
									</g>
									<g class="accid" id="accid-0000000993577027" />
								</g>
								<g class="note" id="note-L18F1">
									<use xlink:href="#E0A4" x="6753" y="3829" height="720px" width="720px" />
									<g class="stem">
										<rect x="6753" y="3851" height="786" width="18" />
									</g>
									<g class="accid" id="accid-0000001033890895" />
								</g>
								<g class="rest" id="rest-L19F1">
									<use xlink:href="#E4E6" x="7115" y="4009" height="720px" width="720px" />
								</g>
							</g>
						</g>
					</g>
					<g class="mNum autogenerated" id="mnum-0000000836260920" />
					<g class="barLineAttr" id="bline-0000000349237226">
						<path d="M7630 1440 L7630 720" stroke="#000000" stroke-width="27" />
						<path d="M7630 2924 L7630 2204" stroke="#000000" stroke-width="27" />
						<path d="M7630 4369 L7630 3649" stroke="#000000" stroke-width="27" />
					</g>
				</g>
				<g class="measure" id="measure-L20">
					<g class="staff" id="staff-L20F3N1">
						<path d="M7643 720 L11217 720" stroke="#000000" stroke-width="13" />
						<path d="M7643 900 L11217 900" stroke="#000000" stroke-width="13" />
						<path d="M7643 1080 L11217 1080" stroke="#000000" stroke-width="13" />
						<path d="M7643 1260 L11217 1260" stroke="#000000" stroke-width="13" />
						<path d="M7643 1440 L11217 1440" stroke="#000000" stroke-width="13" />
						<g class="ledgerLines above">
							<path d="M8386 540 L8665 540" stroke="#000000" stroke-width="22" />
							<path d="M9118 540 L9397 540" stroke="#000000" stroke-width="22" />
							<path d="M10434 540 L10713 540" stroke="#000000" stroke-width="22" />
						</g>
						<g class="layer" id="layer-L20F3N1">
							<g class="beam" id="beam-L21F3-L24F3">
								<polygon points="7850,1935 9167,1805 9167,1715 7850,1845 " />
								<polygon points="7850,1800 9167,1670 9167,1580 7850,1710 " />
								<g class="rest" id="rest-L21F3">
									<use xlink:href="#E4E7" x="7850" y="1080" height="720px" width="720px" />
								</g>
								<g class="note" id="note-L22F3">
									<use xlink:href="#E0A4" x="8417" y="540" height="720px" width="720px" />
									<g class="stem">
										<rect x="8417" y="562" height="1298" width="18" />
									</g>
									<g class="accid" id="accid-0000002080834903" />
								</g>
								<g class="rest" id="rest-L23F3">
									<use xlink:href="#E4E7" x="8779" y="720" height="720px" width="720px" />
								</g>
								<g class="note" id="note-L24F3">
									<use xlink:href="#E0A4" x="9149" y="540" height="720px" width="720px" />
									<g class="stem">
										<rect x="9149" y="562" height="1225" width="18" />
									</g>
									<g class="accid" id="accid-0000000678574150" />
								</g>
							</g>
							<g class="beam" id="beam-L25F3-L28F3">
								<polygon points="9510,1935 10845,1803 10845,1713 9510,1845 " />
								<polygon points="9510,1800 10845,1668 10845,1578 9510,1710 " />
								<g class="rest" id="rest-L25F3">
									<use xlink:href="#E4E7" x="9510" y="1080" height="720px" width="720px" />
								</g>
								<g class="note" id="note-L26F3">
									<use xlink:href="#E0A4" x="10103" y="720" height="720px" width="720px" />
									<g class="stem">
										<rect x="10103" y="742" height="1115" width="18" />
									</g>
									<g class="accid" id="accid-0000000896236119">
										<use xlink:href="#E262" x="9908" y="720" height="720px" width="720px" />
									</g>
								</g>
								<g class="note" id="note-L27F3">
									<use xlink:href="#E0A4" x="10465" y="450" height="720px" width="720px" />
									<g class="stem">
										<rect x="10465" y="472" height="1349" width="18" />
									</g>
									<g class="accid" id="accid-0000001604761979" />
								</g>
								<g class="note" id="note-L28F3">
									<use xlink:href="#E0A4" x="10827" y="990" height="720px" width="720px" />
									<g class="stem">
										<rect x="10827" y="1012" height="773" width="18" />
									</g>
									<g class="accid" id="accid-0000000459368644" />
								</g>
							</g>
						</g>
					</g>
					<g class="staff" id="staff-L20F2N1">
						<path d="M7643 2204 L11217 2204" stroke="#000000" stroke-width="13" />
						<path d="M7643 2384 L11217 2384" stroke="#000000" stroke-width="13" />
						<path d="M7643 2564 L11217 2564" stroke="#000000" stroke-width="13" />
						<path d="M7643 2744 L11217 2744" stroke="#000000" stroke-width="13" />
						<path d="M7643 2924 L11217 2924" stroke="#000000" stroke-width="13" />
						<g class="ledgerLines below">
							<path d="M7819 3104 L8098 3104" stroke="#000000" stroke-width="22" />
						</g>
						<g class="layer" id="layer-L20F2N1">
							<g class="note" id="note-L21F2">
								<use xlink:href="#E0A4" x="7850" y="3104" height="720px" width="720px" />
								<g class="stem">
									<rect x="8058" y="2474" height="608" width="18" />
									<g class="flag" id="flag-0000000719422372">
										<use xlink:href="#E242" x="8058" y="2474" height="720px" width="720px" />
									</g>
								</g>
								<g class="accid" id="accid-0000000369573369" />
							</g>
							<g class="rest" id="rest-L22F2">
								<use xlink:href="#E4E5" x="8417" y="2564" height="720px" width="720px" />
								<g class="dots" id="dots-0000000998873594">
									<ellipse cx="8726" cy="2474" rx="36" ry="36" />
									<ellipse cx="8861" cy="2474" rx="36" ry="36" />
								</g>
							</g>
						</g>
					</g>
					<g class="staff" id="staff-L20F1N1">
						<path d="M7643 3649 L11217 3649" stroke="#000000" stroke-width="13" />
						<path d="M7643 3829 L11217 3829" stroke="#000000" stroke-width="13" />
						<path d="M7643 4009 L11217 4009" stroke="#000000" stroke-width="13" />
						<path d="M7643 4189 L11217 4189" stroke="#000000" stroke-width="13" />
						<path d="M7643 4369 L11217 4369" stroke="#000000" stroke-width="13" />
						<g class="layer" id="layer-L20F1N1">
							<g class="beam" id="beam-L21F1-L24F1">
								<polygon points="8058,3307 9375,3425 9375,3515 8058,3397 " />
								<polygon points="8058,3442 9375,3560 9375,3650 8058,3532 " />
								<g class="note" id="note-L21F1">
									<use xlink:href="#E0A4" x="7850" y="4009" height="720px" width="720px" />
									<g class="stem">
										<rect x="8058" y="3325" height="662" width="18" />
									</g>
									<g class="accid" id="accid-0000000353843220" />
								</g>
								<g class="note" id="note-L22F1">
									<use xlink:href="#E0A4" x="8417" y="4099" height="720px" width="720px" />
									<g class="stem">
										<rect x="8625" y="3377" height="700" width="18" />
									</g>
									<g class="accid" id="accid-0000001091470942" />
								</g>
								<g class="rest" id="rest-L23F1">
									<use xlink:href="#E4E7" x="8779" y="4009" height="720px" width="720px" />
								</g>
								<g class="note" id="note-L24F1">
									<use xlink:href="#E0A4" x="9149" y="4099" height="720px" width="720px" />
									<g class="stem">
										<rect x="9357" y="3443" height="634" width="18" />
									</g>
									<g class="accid" id="accid-0000001710312722" />
								</g>
							</g>
							<g class="beam" id="beam-L25F1-L28F1">
								<polygon points="9510,4864 10845,4732 10845,4642 9510,4774 " />
								<polygon points="10687,4612 10845,4597 10845,4507 10687,4522 " />
								<g class="rest" id="rest-L25F1">
									<use xlink:href="#E4E6" x="9510" y="4009" height="720px" width="720px" />
									<g class="dots" id="dots-0000001423674117">
										<ellipse cx="9798" cy="3919" rx="36" ry="36" />
									</g>
								</g>
								<g class="note" id="note-L28F1">
									<use xlink:href="#E0A4" x="10827" y="3829" height="720px" width="720px" />
									<g class="stem">
										<rect x="10827" y="3851" height="863" width="18" />
									</g>
									<g class="accid" id="accid-0000001236206791">
										<use xlink:href="#E262" x="10632" y="3829" height="720px" width="720px" />
									</g>
								</g>
							</g>
						</g>
					</g>
					<g class="mNum autogenerated" id="mnum-0000001562013663" />
					<g class="barLineAttr" id="bline-0000001577120877">
						<path d="M11204 1440 L11204 720" stroke="#000000" stroke-width="27" />
						<path d="M11204 2924 L11204 2204" stroke="#000000" stroke-width="27" />
						<path d="M11204 4369 L11204 3649" stroke="#000000" stroke-width="27" />
					</g>
				</g>
				<g class="measure" id="measure-L29">
					<g class="staff" id="staff-L29F3N1">
						<path d="M11217 720 L13949 720" stroke="#000000" stroke-width="13" />
						<path d="M11217 900 L13949 900" stroke="#000000" stroke-width="13" />
						<path d="M11217 1080 L13949 1080" stroke="#000000" stroke-width="13" />
						<path d="M11217 1260 L13949 1260" stroke="#000000" stroke-width="13" />
						<path d="M11217 1440 L13949 1440" stroke="#000000" stroke-width="13" />
						<g class="ledgerLines above">
							<path d="M12788 540 L13067 540" stroke="#000000" stroke-width="22" />
						</g>
						<g class="layer" id="layer-L29F3N1">
							<g class="rest" id="rest-L30F3">
								<use xlink:href="#E4E5" x="11424" y="1080" height="720px" width="720px" />
							</g>
							<g class="beam" id="beam-L32F3-L34F3">
								<polygon points="12449,1935 13206,1935 13206,1845 12449,1845 " />
								<polygon points="12449,1800 12828,1800 12828,1710 12449,1710 " />
								<g class="rest" id="rest-L32F3">
									<use xlink:href="#E4E7" x="12449" y="1080" height="720px" width="720px" />
								</g>
								<g class="note" id="note-L33F3">
									<use xlink:href="#E0A4" x="12819" y="540" height="720px" width="720px" />
									<g class="stem">
										<rect x="12819" y="562" height="1355" width="18" />
									</g>
									<g class="accid" id="accid-0000000418632401" />
								</g>
								<g class="rest" id="rest-L34F3">
									<use xlink:href="#E4E6" x="13188" y="1080" height="720px" width="720px" />
								</g>
							</g>
						</g>
					</g>
					<g class="staff" id="staff-L29F2N1">
						<path d="M11217 2204 L13949 2204" stroke="#000000" stroke-width="13" />
						<path d="M11217 2384 L13949 2384" stroke="#000000" stroke-width="13" />
						<path d="M11217 2564 L13949 2564" stroke="#000000" stroke-width="13" />
						<path d="M11217 2744 L13949 2744" stroke="#000000" stroke-width="13" />
						<path d="M11217 2924 L13949 2924" stroke="#000000" stroke-width="13" />
						<g class="layer" id="layer-L29F2N1">
							<g class="beam" id="beam-L30F2-L31F2">
								<polygon points="11632,2069 12313,2069 12313,2159 11632,2159 " />
								<polygon points="12155,2204 12313,2204 12313,2294 12155,2294 " />
								<g class="rest" id="rest-L30F2">
									<use xlink:href="#E4E6" x="11424" y="2564" height="720px" width="720px" />
									<g class="dots" id="dots-0000001882300408">
										<ellipse cx="11712" cy="2474" rx="36" ry="36" />
									</g>
								</g>
								<g class="note" id="note-L31F2">
									<use xlink:href="#E0A4" x="12087" y="2744" height="720px" width="720px" />
									<g class="stem">
										<rect x="12295" y="2087" height="635" width="18" />
									</g>
									<g class="accid" id="accid-0000001374376344" />
								</g>
							</g>
							<g class="beam" id="beam-L32F2-L35F2">
								<polygon points="12657,2318 13776,2208 13776,2298 12657,2408 " />
								<polygon points="12657,2453 13776,2343 13776,2433 12657,2543 " />
								<g class="note" id="note-L32F2">
									<use xlink:href="#E0A4" x="12449" y="3014" height="720px" width="720px" />
									<g class="stem">
										<rect x="12657" y="2336" height="656" width="18" />
									</g>
									<g class="accid" id="accid-0000000483939352" />
								</g>
								<g class="rest" id="rest-L33F2">
									<use xlink:href="#E4E7" x="12819" y="2924" height="720px" width="720px" />
								</g>
								<g class="note" id="note-L34F2">
									<use xlink:href="#E0A4" x="13188" y="2924" height="720px" width="720px" />
									<g class="stem">
										<rect x="13396" y="2262" height="640" width="18" />
									</g>
									<g class="accid" id="accid-0000002127760293" />
								</g>
								<g class="rest" id="rest-L35F2">
									<use xlink:href="#E4E7" x="13550" y="2564" height="720px" width="720px" />
								</g>
							</g>
						</g>
					</g>
					<g class="staff" id="staff-L29F1N1">
						<path d="M11217 3649 L13949 3649" stroke="#000000" stroke-width="13" />
						<path d="M11217 3829 L13949 3829" stroke="#000000" stroke-width="13" />
						<path d="M11217 4009 L13949 4009" stroke="#000000" stroke-width="13" />
						<path d="M11217 4189 L13949 4189" stroke="#000000" stroke-width="13" />
						<path d="M11217 4369 L13949 4369" stroke="#000000" stroke-width="13" />
						<g class="layer" id="layer-L29F1N1">
							<g class="rest" id="rest-L30F1">
								<use xlink:href="#E4E5" x="11424" y="4009" height="720px" width="720px" />
							</g>
							<g class="beam" id="beam-L32F1-L35F1">
								<polygon points="12449,4864 13568,4753 13568,4663 12449,4774 " />
								<polygon points="13410,4633 13568,4618 13568,4528 13410,4543 " />
								<g class="rest" id="rest-L32F1">
									<use xlink:href="#E4E6" x="12449" y="4009" height="720px" width="720px" />
									<g class="dots" id="dots-0000000963709954">
										<ellipse cx="12737" cy="3919" rx="36" ry="36" />
									</g>
								</g>
								<g class="note" id="note-L35F1">
									<use xlink:href="#E0A4" x="13550" y="3739" height="720px" width="720px" />
									<g class="stem">
										<rect x="13550" y="3761" height="974" width="18" />
									</g>
									<g class="accid" id="accid-0000001870665218" />
								</g>
							</g>
						</g>
					</g>
					<g class="mNum autogenerated" id="mnum-0000000602208253" />
					<g class="barLineAttr" id="bline-0000002141281730">
						<path d="M13936 1440 L13936 720" stroke="#000000" stroke-width="27" />
						<path d="M13936 2924 L13936 2204" stroke="#000000" stroke-width="27" />
						<path d="M13936 4369 L13936 3649" stroke="#000000" stroke-width="27" />
					</g>
				</g>
				<g class="measure" id="measure-L36">
					<g class="staff" id="staff-L36F3N1">
						<path d="M13949 720 L16851 720" stroke="#000000" stroke-width="13" />
						<path d="M13949 900 L16851 900" stroke="#000000" stroke-width="13" />
						<path d="M13949 1080 L16851 1080" stroke="#000000" stroke-width="13" />
						<path d="M13949 1260 L16851 1260" stroke="#000000" stroke-width="13" />
						<path d="M13949 1440 L16851 1440" stroke="#000000" stroke-width="13" />
						<g class="ledgerLines above">
							<path d="M16068 540 L16347 540" stroke="#000000" stroke-width="22" />
							<path d="M16068 360 L16347 360" stroke="#000000" stroke-width="22" />
						</g>
						<g class="layer" id="layer-L36F3N1">
							<g class="beam" id="beam-L37F3-L40F3">
								<polygon points="14156,1935 15240,1828 15240,1738 14156,1845 " />
								<polygon points="14870,1729 15240,1693 15240,1603 14870,1639 " />
								<g class="rest" id="rest-L37F3">
									<use xlink:href="#E4E6" x="14156" y="1080" height="720px" width="720px" />
								</g>
								<g class="note" id="note-L39F3">
									<use xlink:href="#E0A4" x="14861" y="810" height="720px" width="720px" />
									<g class="stem">
										<rect x="14861" y="832" height="1014" width="18" />
									</g>
									<g class="accid" id="accid-0000000376245979" />
								</g>
								<g class="note" id="note-L40F3">
									<use xlink:href="#E0A4" x="15222" y="630" height="720px" width="720px" />
									<g class="stem">
										<rect x="15222" y="652" height="1158" width="18" />
									</g>
									<g class="accid" id="accid-0000001879950510" />
								</g>
							</g>
							<g class="beam" id="beam-L41F3-L43F3">
								<polygon points="15584,1637 16479,1575 16479,1485 15584,1547 " />
								<polygon points="16108,1465 16479,1440 16479,1350 16108,1375 " />
								<g class="rest" id="rest-L41F3">
									<use xlink:href="#E4E6" x="15584" y="720" height="720px" width="720px" />
								</g>
								<g class="note" id="note-L42F3">
									<use xlink:href="#E0A4" x="16099" y="360" height="720px" width="720px" />
									<g class="stem">
										<rect x="16099" y="382" height="1200" width="18" />
									</g>
									<g class="accid" id="accid-0000000904210377" />
								</g>
								<g class="note" id="note-L43F3">
									<use xlink:href="#E0A4" x="16461" y="900" height="720px" width="720px" />
									<g class="stem">
										<rect x="16461" y="922" height="635" width="18" />
									</g>
									<g class="accid" id="accid-0000000014341922" />
								</g>
							</g>
						</g>
					</g>
					<g class="staff" id="staff-L36F2N1">
						<path d="M13949 2204 L16851 2204" stroke="#000000" stroke-width="13" />
						<path d="M13949 2384 L16851 2384" stroke="#000000" stroke-width="13" />
						<path d="M13949 2564 L16851 2564" stroke="#000000" stroke-width="13" />
						<path d="M13949 2744 L16851 2744" stroke="#000000" stroke-width="13" />
						<path d="M13949 2924 L16851 2924" stroke="#000000" stroke-width="13" />
						<g class="ledgerLines below">
							<path d="M14125 3104 L14404 3104" stroke="#000000" stroke-width="22" />
						</g>
						<g class="layer" id="layer-L36F2N1">
							<g class="beam" id="beam-L37F2-L38F2">
								<polygon points="14364,2498 14743,2462 14743,2552 14364,2588 " />
								<polygon points="14364,2633 14522,2618 14522,2708 14364,2723 " />
								<g class="note" id="note-L37F2">
									<use xlink:href="#E0A4" x="14156" y="3194" height="720px" width="720px" />
									<g class="stem">
										<rect x="14364" y="2516" height="656" width="18" />
									</g>
									<g class="accid" id="accid-0000000350299278" />
								</g>
								<g class="rest" id="rest-L38F2">
									<use xlink:href="#E4E6" x="14517" y="2924" height="720px" width="720px" />
									<g class="dots" id="dots-0000001992886468">
										<ellipse cx="14805" cy="2834" rx="36" ry="36" />
									</g>
								</g>
							</g>
							<g class="rest" id="rest-L41F2">
								<use xlink:href="#E4E5" x="15584" y="2564" height="720px" width="720px" />
							</g>
						</g>
					</g>
					<g class="staff" id="staff-L36F1N1">
						<path d="M13949 3649 L16851 3649" stroke="#000000" stroke-width="13" />
						<path d="M13949 3829 L16851 3829" stroke="#000000" stroke-width="13" />
						<path d="M13949 4009 L16851 4009" stroke="#000000" stroke-width="13" />
						<path d="M13949 4189 L16851 4189" stroke="#000000" stroke-width="13" />
						<path d="M13949 4369 L16851 4369" stroke="#000000" stroke-width="13" />
						<g class="layer" id="layer-L36F1N1">
							<g class="beam" id="beam-L37F1-L40F1">
								<polygon points="14364,3335 15448,3442 15448,3532 14364,3425 " />
								<polygon points="14364,3470 15448,3577 15448,3667 14364,3560 " />
								<g class="note" id="note-L37F1">
									<use xlink:href="#E0A4" x="14156" y="4009" height="720px" width="720px" />
									<g class="stem">
										<rect x="14364" y="3353" height="634" width="18" />
									</g>
									<g class="accid" id="accid-0000000201265567" />
								</g>
								<g class="rest" id="rest-L38F1">
									<use xlink:href="#E4E6" x="14517" y="4009" height="720px" width="720px" />
								</g>
								<g class="note" id="note-L40F1">
									<use xlink:href="#E0A4" x="15222" y="4189" height="720px" width="720px" />
									<g class="stem">
										<rect x="15430" y="3460" height="707" width="18" />
									</g>
									<g class="accid" id="accid-0000001288062940" />
								</g>
							</g>
							<g class="rest" id="rest-L41F1">
								<use xlink:href="#E4E5" x="15584" y="4009" height="720px" width="720px" />
							</g>
						</g>
					</g>
					<g class="mNum autogenerated" id="mnum-0000001291024770" />
					<g class="barLineAttr" id="bline-0000000238290341">
						<path d="M16838 1440 L16838 720" stroke="#000000" stroke-width="27" />
						<path d="M16838 2924 L16838 2204" stroke="#000000" stroke-width="27" />
						<path d="M16838 4369 L16838 3649" stroke="#000000" stroke-width="27" />
					</g>
				</g>
				<g class="measure" id="measure-L44">
					<g class="staff" id="staff-L44F3N1">
						<path d="M16851 720 L20003 720" stroke="#000000" stroke-width="13" />
						<path d="M16851 900 L20003 900" stroke="#000000" stroke-width="13" />
						<path d="M16851 1080 L20003 1080" stroke="#000000" stroke-width="13" />
						<path d="M16851 1260 L20003 1260" stroke="#000000" stroke-width="13" />
						<path d="M16851 1440 L20003 1440" stroke="#000000" stroke-width="13" />
						<g class="layer" id="layer-L44F3N1">
							<g class="beam" id="beam-L45F3-L47F3">
								<polygon points="17058,1935 17952,1847 17952,1757 17058,1845 " />
								<polygon points="17794,1727 17952,1712 17952,1622 17794,1637 " />
								<g class="rest" id="rest-L45F3">
									<use xlink:href="#E4E6" x="17058" y="1080" height="720px" width="720px" />
									<g class="dots" id="dots-0000001613322377">
										<ellipse cx="17346" cy="990" rx="36" ry="36" />
									</g>
								</g>
								<g class="note" id="note-L47F3">
									<use xlink:href="#E0A4" x="17934" y="1080" height="720px" width="720px" />
									<g class="stem">
										<rect x="17934" y="1102" height="727" width="18" />
									</g>
									<g class="accid" id="accid-0000000742724184" />
								</g>
							</g>
							<g class="rest" id="rest-L48F3">
								<use xlink:href="#E4E5" x="18296" y="1080" height="720px" width="720px" />
							</g>
						</g>
					</g>
					<g class="staff" id="staff-L44F2N1">
						<path d="M16851 2204 L20003 2204" stroke="#000000" stroke-width="13" />
						<path d="M16851 2384 L20003 2384" stroke="#000000" stroke-width="13" />
						<path d="M16851 2564 L20003 2564" stroke="#000000" stroke-width="13" />
						<path d="M16851 2744 L20003 2744" stroke="#000000" stroke-width="13" />
						<path d="M16851 2924 L20003 2924" stroke="#000000" stroke-width="13" />
						<g class="layer" id="layer-L44F2N1">
							<g class="beam" id="beam-L45F2-L47F2">
								<polygon points="17266,2068 18160,1980 18160,2070 17266,2158 " />
								<polygon points="17266,2203 18160,2115 18160,2205 17266,2293 " />
								<g class="note" id="note-L45F2">
									<use xlink:href="#E0A4" x="17058" y="3014" height="720px" width="720px" />
									<g class="stem">
										<rect x="17266" y="2086" height="906" width="18" />
									</g>
									<g class="accid" id="accid-0000002136391594" />
								</g>
								<g class="rest" id="rest-L46F2">
									<use xlink:href="#E4E6" x="17419" y="2564" height="720px" width="720px" />
								</g>
								<g class="note" id="note-L47F2">
									<use xlink:href="#E0A4" x="17934" y="2654" height="720px" width="720px" />
									<g class="stem">
										<rect x="18142" y="1998" height="634" width="18" />
									</g>
									<g class="accid" id="accid-0000001544321236" />
								</g>
							</g>
							<g class="beam" id="beam-L48F2-L50F2">
								<polygon points="18504,2318 19468,2223 19468,2313 18504,2408 " />
								<polygon points="18504,2453 18875,2417 18875,2507 18504,2543 " />
								<g class="note" id="note-L48F2">
									<use xlink:href="#E0A4" x="18296" y="3014" height="720px" width="720px" />
									<g class="stem">
										<rect x="18504" y="2336" height="656" width="18" />
									</g>
									<g class="accid" id="accid-0000000215633013" />
								</g>
								<g class="note" id="note-L49F2">
									<use xlink:href="#E0A4" x="18658" y="3014" height="720px" width="720px" />
									<g class="stem">
										<rect x="18866" y="2300" height="692" width="18" />
									</g>
									<g class="accid" id="accid-0000001246972054" />
								</g>
								<g class="rest" id="rest-L50F2">
									<use xlink:href="#E4E6" x="19242" y="2564" height="720px" width="720px" />
								</g>
							</g>
						</g>
					</g>
					<g class="staff" id="staff-L44F1N1">
						<path d="M16851 3649 L20003 3649" stroke="#000000" stroke-width="13" />
						<path d="M16851 3829 L20003 3829" stroke="#000000" stroke-width="13" />
						<path d="M16851 4009 L20003 4009" stroke="#000000" stroke-width="13" />
						<path d="M16851 4189 L20003 4189" stroke="#000000" stroke-width="13" />
						<path d="M16851 4369 L20003 4369" stroke="#000000" stroke-width="13" />
						<g class="layer" id="layer-L44F1N1">
							<g class="rest" id="rest-L45F1">
								<use xlink:href="#E4E5" x="17058" y="4009" height="720px" width="720px" />
							</g>
							<g class="beam" id="beam-L48F1-L51F1">
								<polygon points="18296,4595 19622,4726 19622,4636 18296,4505 " />
								<polygon points="18296,4460 19622,4591 19622,4501 18296,4370 " />
								<g class="note" id="note-L48F1">
									<use xlink:href="#E0A4" x="18296" y="3919" height="720px" width="720px" />
									<g class="stem">
										<rect x="18296" y="3941" height="636" width="18" />
									</g>
									<g class="accid" id="accid-0000001526043689" />
								</g>
								<g class="note" id="note-L49F1">
									<use xlink:href="#E0A4" x="18658" y="3739" height="720px" width="720px" />
									<g class="stem">
										<rect x="18658" y="3761" height="853" width="18" />
									</g>
									<g class="accid" id="accid-0000000989770644" />
								</g>
								<g class="note" id="note-L50F1">
									<use xlink:href="#E0A4" x="19242" y="3829" height="720px" width="720px" />
									<g class="stem">
										<rect x="19242" y="3851" height="821" width="18" />
									</g>
									<g class="accid" id="accid-0000000603007429">
										<use xlink:href="#E262" x="19047" y="3829" height="720px" width="720px" />
									</g>
								</g>
								<g class="rest" id="rest-L51F1">
									<use xlink:href="#E4E7" x="19604" y="4009" height="720px" width="720px" />
								</g>
							</g>
						</g>
					</g>
					<g class="mNum autogenerated" id="mnum-0000001468535056" />
					<g class="barLineAttr" id="bline-0000001165345947">
						<path d="M19990 1440 L19990 720" stroke="#000000" stroke-width="27" />
						<path d="M19990 2924 L19990 2204" stroke="#000000" stroke-width="27" />
						<path d="M19990 4369 L19990 3649" stroke="#000000" stroke-width="27" />
					</g>
				</g>
			</g>
		</g>
	</svg>
</svg>
