<?xml version="1.0" encoding="UTF-8" standalone="no"?>
<svg width="2100.00px" height="600.00px" version="1.1" xmlns="http://www.w3.org/2000/svg" xmlns:xlink="http://www.w3.org/1999/xlink" overflow="visible">
	<desc>Engraved by Verovio 2.0.0-dev-0f0381c</desc>
	<defs>
		<symbol id="E003" viewBox="0 0 1000 1000" overflow="inherit">
			<path transform="scale(1,-1)" d="M0 -0c49 0 97.5 -2.26367 135.5 4.73633c206 95 258.5 264.264 263.5 271.264c0 1 -14 7 -15 6c-88 -154 -251 -167 -321 -170c-1 0 -63 -1 -63 -1v-111z" />
		</symbol>
		<symbol id="E004" viewBox="0 0 1000 1000" overflow="inherit">
			<path transform="scale(1,-1)" d="M0 0c49 0 97.5 2.26367 135.5 -4.73633c206 -95 258.5 -264.264 263.5 -271.264c0 -1 -14 -7 -15 -6c-88 154 -251 167 -321 170c-1 0 -63 1 -63 1v111z" />
		</symbol>
		<symbol id="E050" viewBox="0 0 1000 1000" overflow="inherit">
			<path transform="scale(1,-1)" d="M441 -245c-23 -4 -48 -6 -76 -6c-59 0 -102 7 -130 20c-88 42 -150 93 -187 154c-26 44 -43 103 -48 176c-4 60 11 123 44 189c29 57 65 106 110 148s96 85 153 127c-3 16 -8 46 -13 92c-4 43 -5 73 -5 89c0 117 16 172 69 257c34 54 64 82 89 82c21 0 43 -30 69 -92 s39 -115 41 -159c2 -120 -19 -173 -67 -256c-13 -20 -63 -90 -98 -118c-13 -9 -25 -19 -37 -29l31 -181c8 1 18 2 28 2c58 0 102 -12 133 -35c59 -43 92 -104 98 -184c11 -135 -80 -229 -180 -270c8 -57 17 -110 25 -162c5 -31 6 -58 6 -80c0 -30 -5 -53 -14 -70 c-35 -64 -88 -99 -158 -103c-42 -3 -83 6 -124 26c-50 24 -77 59 -80 105c-2 34 5 63 20 87c18 28 45 42 79 44c51 4 99 -40 103 -87c4 -56 -30 -94 -105 -115c17 -24 51 -36 102 -36c62 0 116 43 140 85c9 16 13 41 13 74c0 20 -1 42 -5 67c-8 53 -18 106 -26 159zM461 939 c-95 0 -135 -175 -135 -286c0 -24 2 -48 5 -71c50 39 92 82 127 128c43 57 63 106 60 148c-4 54 -23 82 -57 81zM406 119l54 -326c80 27 116 88 109 184c-7 99 -62 146 -163 142zM382 117c-74 -2 -132 -50 -128 -127c2 -46 43 -99 75 -115c-3 -2 -7 -5 -10 -10 c-70 33 -116 88 -123 172c-5 73 42 135 88 170c23 17 49 29 78 36l-29 170c-21 -13 -52 -37 -92 -73c-50 -44 -86 -84 -109 -119c-49 -75 -71 -140 -67 -195c5 -68 35 -127 93 -176s125 -73 203 -73c25 0 50 3 75 9c-19 111 -36 221 -54 331z" />
		</symbol>
		<symbol id="E082" viewBox="0 0 1000 1000" overflow="inherit">
			<path transform="scale(1,-1)" d="M104 -185c-18 0 -55 -14 -65 -65h-36l-3 29c0 25 6 46 18 64c11 19 22 30 39 43l121 82l37 29c15 11 27 29 38 54c12 24 18 47 18 70c0 40 -19 88 -94 88c-25 0 -32 0 -50 -8c-14 -5 -23 -12 -26 -22c3 -9 7 -15 10 -18l24 -17c12 -7 17 -11 27 -21c5 -7 7 -16 7 -27 c0 -12 0 -57 -79 -74c-30 0 -76 26 -76 94c0 66 80 135 196 135c72 0 182 -32 182 -150c0 -53 -32 -95 -113 -133l-91 -41c-26 -11 -45 -23 -57 -37l49 7c84 0 115 -41 148 -41c20 0 33 20 39 61h35c0 -152 -68 -168 -114 -168c-17 0 -55 0 -69 7v0l-28 17 c-49 37 -69 40 -87 42z" />
		</symbol>
		<symbol id="E084" viewBox="0 0 1000 1000" overflow="inherit">
			<path transform="scale(1,-1)" d="M0 -78c84 97 114 180 134 329h170c-13 -32 -82 -132 -99 -151l-84 -97c-33 -36 -59 -63 -80 -81h162v102l127 123v-225h57v-39h-57v-34c0 -43 19 -65 57 -65v-34h-244v36c48 0 60 26 60 70v27h-203v39z" />
		</symbol>
		<symbol id="E062" viewBox="0 0 1000 1000" overflow="inherit">
			<path transform="scale(1,-1)" d="M158 96c51 0 73 -14 88 -49l16 -39c0 -17 -2 -30 -7 -40c-3 -11 -10 -21 -19 -31c-17 -18 -49 -43 -84 -43c-55 0 -77 13 -112 44c-24 21 -35 55 -35 100c0 46 14 81 32 112c30 52 71 79 137 93l36 6l26 2c154 0 235 -68 274 -182c11 -32 18 -68 18 -107 c0 -103 -26 -182 -68 -250c-89 -145 -234 -230 -412 -288l-30 -5c-9 0 -14 3 -14 8c3 10 5 11 10 16c35 15 70 30 96 44l78 43c96 57 162 136 197 258c9 33 17 60 22 100c3 22 5 35 6 39c-7 69 -16 115 -23 140s-4 22 -16 40c-8 12 -19 23 -31 34c-24 21 -62 44 -118 44 c-48 0 -84 -8 -113 -28c-28 -19 -42 -44 -42 -73v-16c2 -5 3 -9 4 -11c24 22 52 39 84 39zM585 -118c0 32 23 58 57 58c18 0 33 -6 40 -18c9 -15 16 -18 16 -40c0 -9 -2 -16 -5 -21c-6 -19 -27 -37 -51 -37c-34 0 -57 26 -57 58zM642 177c31 0 56 -27 56 -58 c0 -30 -25 -58 -56 -58l-23 3c-19 7 -34 32 -34 55l3 23c9 20 28 35 54 35z" />
		</symbol>
		<symbol id="E0A4" viewBox="0 0 1000 1000" overflow="inherit">
			<path transform="scale(1,-1)" d="M0 -39c0 68 73 172 200 172c66 0 114 -37 114 -95c0 -84 -106 -171 -218 -171c-64 0 -96 30 -96 94z" />
		</symbol>
		<symbol id="E262" viewBox="0 0 1000 1000" overflow="inherit">
			<path transform="scale(1,-1)" d="M136 186v169h17v-164l44 14v-91l-44 -14v-165l44 12v-91l-44 -13v-155h-17v150l-76 -22v-155h-17v149l-43 -13v90l43 14v167l-43 -14v92l43 13v169h17v-163zM60 73v-167l76 22v168z" />
		</symbol>
		<symbol id="E4E7" viewBox="0 0 1000 1000" overflow="inherit">
			<path transform="scale(1,-1)" d="M133 -111c-16 38 -21 43 -64 51c-37 -4 -60 -25 -68 -60c0 -32 18 -52 55 -58c8 -6 22 -10 43 -10c31 0 62 7 82 20l-108 -324h37c72 220 143 439 215 659h-4l-10 -2l-7 -1c-15 -35 -27 -52 -59 -71c-26 -15 -56 -27 -88 -29c-11 0 -20 2 -26 6c29 3 56 25 51 56 c-15 35 -19 42 -64 48c-38 -4 -60 -23 -68 -58c0 -32 18 -52 55 -59c7 -5 22 -8 45 -8c48 0 76 7 112 25l-66 -197c-21 -23 -50 -47 -90 -47c-7 0 -15 1 -25 4c31 5 52 22 52 55z" />
		</symbol>
		<symbol id="E4E6" viewBox="0 0 1000 1000" overflow="inherit">
			<path transform="scale(1,-1)" d="M0 123c7 34 33 56 69 60c29 -3 43 -9 53 -29c4 -8 7 -15 10 -22c0 -21 -1 -25 -11 -35c-5 -8 -18 -14 -40 -20l12 -3l15 -1c44 0 97 26 122 56c10 11 18 26 24 42c7 1 15 2 22 3l-140 -424h-36l111 330c-10 -6 -27 -12 -53 -16l-52 -8h-10l-20 1c-1 0 -8 3 -21 6 c-37 9 -55 28 -55 60z" />
		</symbol>
		<symbol id="E4E5" viewBox="0 0 1000 1000" overflow="inherit">
			<path transform="scale(1,-1)" d="M107 292c-13 24 -30 49 -52 71c-1 1 0 2 0 3l-2 2c3 3 4 4 6 4c12 0 26 -7 40 -20s44 -40 89 -81c26 -24 28 -29 46 -47c4 -4 8 -9 10 -14c6 -8 8 -16 8 -27c0 -19 -12 -40 -36 -61c-28 -23 -49 -38 -61 -73c-4 -11 -7 -27 -10 -50c13 -43 34 -83 59 -121 c31 -47 59 -79 101 -129c-8 0 -26 7 -54 20l-62 29l-21 6l-23 1c-25 0 -45 -10 -60 -30l-4 -14l-1 -12c0 -33 20 -56 39 -78c8 -9 17 -18 26 -26c17 -15 27 -24 28 -30l-3 -3c-11 5 -19 10 -25 15c-9 3 -37 21 -45 26c-24 14 -45 32 -63 51c-19 21 -37 44 -37 71 c0 63 27 95 80 95c41 0 86 -18 136 -52c-19 26 -37 48 -55 66c-23 23 -48 44 -73 65c-28 23 -47 40 -58 53s-17 26 -18 39c75 64 113 125 113 183c0 27 -7 48 -18 68z" />
		</symbol>
	</defs>
	<style type="text/css">g.page-margin{font-family:Times;} g.tempo{font-weight:bold;} g.dir, g.dynam, g.mNum{font-style:italic;} g.label{font-weight:normal;}</style>
	<svg class="definition-scale" viewBox="0 0 21000 6000">
		<g class="page-margin" transform="translate(500, 500)">
			<g class="system" id="system-0000000889616392">
				<path d="M13 720 L13 4320" stroke="#000000" stroke-width="27" />
				<use xlink:href="#E003" x="-167" y="720" height="720px" width="720px" />
				<use xlink:href="#E004" x="-167" y="4320" height="720px" width="720px" />
				<rect x="-167" y="702" height="3636" width="90" />
				<g class="section boundaryStart" id="section-L1F1" />
				<g class="measure" id="measure-L4">
					<g class="staff" id="staff-L4F3N1">
						<path d="M0 720 L4137 720" stroke="#000000" stroke-width="13" />
						<path d="M0 900 L4137 900" stroke="#000000" stroke-width="13" />
						<path d="M0 1080 L4137 1080" stroke="#000000" stroke-width="13" />
						<path d="M0 1260 L4137 1260" stroke="#000000" stroke-width="13" />
						<path d="M0 1440 L4137 1440" stroke="#000000" stroke-width="13" />
						<g class="clef" id="clef-0000002037562581">
							<use xlink:href="#E050" x="90" y="1260" height="720px" width="720px" />
						</g>
						<g class="meterSig" id="msig-0000001540063805">
							<use xlink:href="#E082" x="771" y="900" height="720px" width="720px" />
							<use xlink:href="#E084" x="777" y="1260" height="720px" width="720px" />
						</g>
						<g class="layer" id="layer-L4F3N1">
							<g class="mRest" id="mrest-L5F3">
								<rect x="2522" y="900" height="90" width="216" />
							</g>
						</g>
					</g>
					<g class="staff" id="staff-L4F2N1">
						<path d="M0 2160 L4137 2160" stroke="#000000" stroke-width="13" />
						<path d="M0 2340 L4137 2340" stroke="#000000" stroke-width="13" />
						<path d="M0 2520 L4137 2520" stroke="#000000" stroke-width="13" />
						<path d="M0 2700 L4137 2700" stroke="#000000" stroke-width="13" />
						<path d="M0 2880 L4137 2880" stroke="#000000" stroke-width="13" />
						<g class="clef" id="clef-0000000231973344">
							<use xlink:href="#E050" x="90" y="2700" height="720px" width="720px" />
						</g>
						<g class="meterSig" id="msig-0000001093173303">
							<use xlink:href="#E082" x="771" y="2340" height="720px" width="720px" />
							<use xlink:href="#E084" x="777" y="2700" height="720px" width="720px" />
						</g>
						<g class="layer" id="layer-L4F2N1">
							<g class="mRest" id="mrest-L5F2">
								<rect x="2522" y="2340" height="90" width="216" />
							</g>
						</g>
					</g>
					<g class="staff" id="staff-L4F1N1">
						<path d="M0 3600 L4137 3600" stroke="#000000" stroke-width="13" />
						<path d="M0 3780 L4137 3780" stroke="#000000" stroke-width="13" />
						<path d="M0 3960 L4137 3960" stroke="#000000" stroke-width="13" />
						<path d="M0 4140 L4137 4140" stroke="#000000" stroke-width="13" />
						<path d="M0 4320 L4137 4320" stroke="#000000" stroke-width="13" />
						<g class="clef" id="clef-0000001241103436">
							<use xlink:href="#E062" x="90" y="3780" height="720px" width="720px" />
						</g>
						<g class="meterSig" id="msig-0000000716785541">
							<use xlink:href="#E082" x="771" y="3780" height="720px" width="720px" />
							<use xlink:href="#E084" x="777" y="4140" height="720px" width="720px" />
						</g>
						<g class="layer" id="layer-L4F1N1">
							<g class="beam" id="beam-L5F1-L8F1">
								<polygon points="1568,3257 2924,3376 2924,3466 1568,3347 " />
								<polygon points="1568,3392 2924,3511 2924,3601 1568,3482 " />
								<g class="note" id="note-L5F1">
									<use xlink:href="#E0A4" x="1360" y="3960" height="720px" width="720px" />
									<g class="stem">
										<rect x="1568" y="3275" height="663" width="18" />
									</g>
									<g class="accid" id="accid-0000000942351297" />
								</g>
								<g class="note" id="note-L6F1">
									<use xlink:href="#E0A4" x="1954" y="4050" height="720px" width="720px" />
									<g class="stem">
										<rect x="2162" y="3328" height="700" width="18" />
									</g>
									<g class="accid" id="accid-0000000560974118">
										<use xlink:href="#E262" x="1759" y="4050" height="720px" width="720px" />
									</g>
								</g>
								<g class="rest" id="rest-L7F1">
									<use xlink:href="#E4E7" x="2322" y="3960" height="720px" width="720px" />
								</g>
								<g class="note" id="note-L8F1">
									<use xlink:href="#E0A4" x="2698" y="4050" height="720px" width="720px" />
									<g class="stem">
										<rect x="2906" y="3394" height="634" width="18" />
									</g>
									<g class="accid" id="accid-0000000374659851" />
								</g>
							</g>
							<g class="beam" id="beam-L9F1-L10F1">
								<polygon points="3065,4815 3758,4747 3758,4657 3065,4725 " />
								<polygon points="3600,4627 3758,4612 3758,4522 3600,4537 " />
								<g class="rest" id="rest-L9F1">
									<use xlink:href="#E4E6" x="3065" y="3960" height="720px" width="720px" />
									<g class="dots" id="dots-0000000730005275">
										<ellipse cx="3353" cy="3870" rx="36" ry="36" />
									</g>
								</g>
								<g class="note" id="note-L10F1">
									<use xlink:href="#E0A4" x="3740" y="3690" height="720px" width="720px" />
									<g class="stem">
										<rect x="3740" y="3712" height="1017" width="18" />
									</g>
									<g class="accid" id="accid-0000000188054828" />
								</g>
							</g>
						</g>
					</g>
					<g class="mNum autogenerated" id="mnum-0000000742790345" />
					<g class="barLineAttr" id="bline-0000000869881414">
						<path d="M4124 1440 L4124 720" stroke="#000000" stroke-width="27" />
						<path d="M4124 2880 L4124 2160" stroke="#000000" stroke-width="27" />
						<path d="M4124 4320 L4124 3600" stroke="#000000" stroke-width="27" />
					</g>
				</g>
				<g class="measure" id="measure-L11">
					<g class="staff" id="staff-L11F3N1">
						<path d="M4137 720 L7552 720" stroke="#000000" stroke-width="13" />
						<path d="M4137 900 L7552 900" stroke="#000000" stroke-width="13" />
						<path d="M4137 1080 L7552 1080" stroke="#000000" stroke-width="13" />
						<path d="M4137 1260 L7552 1260" stroke="#000000" stroke-width="13" />
						<path d="M4137 1440 L7552 1440" stroke="#000000" stroke-width="13" />
						<g class="layer" id="layer-L11F3N1">
							<g class="beam" id="beam-L12F3-L15F3">
								<polygon points="4574,1935 5703,1823 5703,1733 4574,1845 " />
								<polygon points="5545,1703 5703,1688 5703,1598 5545,1613 " />
								<g class="rest" id="rest-L12F3">
									<use xlink:href="#E4E6" x="4574" y="1080" height="720px" width="720px" />
									<g class="dots" id="dots-0000000443119962">
										<ellipse cx="4862" cy="990" rx="36" ry="36" />
									</g>
								</g>
								<g class="note" id="note-L15F3">
									<use xlink:href="#E0A4" x="5685" y="900" height="720px" width="720px" />
									<g class="stem">
										<rect x="5685" y="922" height="883" width="18" />
									</g>
									<g class="accid" id="accid-0000001251761690" />
								</g>
							</g>
							<g class="rest" id="rest-L16F3">
								<use xlink:href="#E4E5" x="6052" y="1080" height="720px" width="720px" />
							</g>
						</g>
					</g>
					<g class="staff" id="staff-L11F2N1">
						<path d="M4137 2160 L7552 2160" stroke="#000000" stroke-width="13" />
						<path d="M4137 2340 L7552 2340" stroke="#000000" stroke-width="13" />
						<path d="M4137 2520 L7552 2520" stroke="#000000" stroke-width="13" />
						<path d="M4137 2700 L7552 2700" stroke="#000000" stroke-width="13" />
						<path d="M4137 2880 L7552 2880" stroke="#000000" stroke-width="13" />
						<g class="layer" id="layer-L11F2N1">
							<g class="rest" id="rest-L12F2">
								<use xlink:href="#E4E5" x="4574" y="2520" height="720px" width="720px" />
							</g>
							<g class="beam" id="beam-L16F2-L17F2">
								<polygon points="6260,2274 6646,2237 6646,2327 6260,2364 " />
								<polygon points="6260,2409 6418,2394 6418,2484 6260,2499 " />
								<g class="note" id="note-L16F2">
									<use xlink:href="#E0A4" x="6052" y="2970" height="720px" width="720px" />
									<g class="stem">
										<rect x="6260" y="2292" height="656" width="18" />
									</g>
									<g class="accid" id="accid-0000000640050104" />
								</g>
								<g class="rest" id="rest-L17F2">
									<use xlink:href="#E4E6" x="6420" y="2520" height="720px" width="720px" />
									<g class="dots" id="dots-0000001413174979">
										<ellipse cx="6708" cy="2430" rx="36" ry="36" />
									</g>
								</g>
							</g>
						</g>
					</g>
					<g class="staff" id="staff-L11F1N1">
						<path d="M4137 3600 L7552 3600" stroke="#000000" stroke-width="13" />
						<path d="M4137 3780 L7552 3780" stroke="#000000" stroke-width="13" />
						<path d="M4137 3960 L7552 3960" stroke="#000000" stroke-width="13" />
						<path d="M4137 4140 L7552 4140" stroke="#000000" stroke-width="13" />
						<path d="M4137 4320 L7552 4320" stroke="#000000" stroke-width="13" />
						<g class="layer" id="layer-L11F1N1">
							<g class="beam" id="beam-L12F1-L15F1">
								<polygon points="4574,4567 5703,4455 5703,4365 4574,4477 " />
								<polygon points="4574,4432 5703,4320 5703,4230 4574,4342 " />
								<g class="note" id="note-L12F1">
									<use xlink:href="#E0A4" x="4574" y="3780" height="720px" width="720px" />
									<g class="stem">
										<rect x="4574" y="3802" height="747" width="18" />
									</g>
									<g class="accid" id="accid-0000002106787985">
										<use xlink:href="#E262" x="4379" y="3780" height="720px" width="720px" />
									</g>
								</g>
								<g class="rest" id="rest-L13F1">
									<use xlink:href="#E4E7" x="4941" y="3960" height="720px" width="720px" />
								</g>
								<g class="note" id="note-L14F1">
									<use xlink:href="#E0A4" x="5317" y="3600" height="720px" width="720px" />
									<g class="stem">
										<rect x="5317" y="3622" height="852" width="18" />
									</g>
									<g class="accid" id="accid-0000000434972447" />
								</g>
								<g class="note" id="note-L15F1">
									<use xlink:href="#E0A4" x="5685" y="3780" height="720px" width="720px" />
									<g class="stem">
										<rect x="5685" y="3802" height="635" width="18" />
									</g>
									<g class="accid" id="accid-0000001248977792" />
								</g>
							</g>
							<g class="beam" id="beam-L16F1-L19F1">
								<polygon points="6052,4545 7173,4434 7173,4344 6052,4455 " />
								<polygon points="6052,4410 7173,4299 7173,4209 6052,4320 " />
								<g class="note" id="note-L16F1">
									<use xlink:href="#E0A4" x="6052" y="3870" height="720px" width="720px" />
									<g class="stem">
										<rect x="6052" y="3892" height="635" width="18" />
									</g>
									<g class="accid" id="accid-0000002015630714" />
								</g>
								<g class="note" id="note-L17F1">
									<use xlink:href="#E0A4" x="6420" y="3780" height="720px" width="720px" />
									<g class="stem">
										<rect x="6420" y="3802" height="688" width="18" />
									</g>
									<g class="accid" id="accid-0000001788834351" />
								</g>
								<g class="note" id="note-L18F1">
									<use xlink:href="#E0A4" x="6788" y="3690" height="720px" width="720px" />
									<g class="stem">
										<rect x="6788" y="3712" height="741" width="18" />
									</g>
									<g class="accid" id="accid-0000001900643888" />
								</g>
								<g class="note" id="note-L19F1">
									<use xlink:href="#E0A4" x="7155" y="3600" height="720px" width="720px" />
									<g class="stem">
										<rect x="7155" y="3622" height="794" width="18" />
									</g>
									<g class="accid" id="accid-0000000161808141" />
								</g>
							</g>
						</g>
					</g>
					<g class="mNum autogenerated" id="mnum-0000000076019552" />
					<g class="barLineAttr" id="bline-0000001633423948">
						<path d="M7539 1440 L7539 720" stroke="#000000" stroke-width="27" />
						<path d="M7539 2880 L7539 2160" stroke="#000000" stroke-width="27" />
						<path d="M7539 4320 L7539 3600" stroke="#000000" stroke-width="27" />
					</g>
				</g>
				<g class="measure" id="measure-L20">
					<g class="staff" id="staff-L20F3N1">
						<path d="M7552 720 L10346 720" stroke="#000000" stroke-width="13" />
						<path d="M7552 900 L10346 900" stroke="#000000" stroke-width="13" />
						<path d="M7552 1080 L10346 1080" stroke="#000000" stroke-width="13" />
						<path d="M7552 1260 L10346 1260" stroke="#000000" stroke-width="13" />
						<path d="M7552 1440 L10346 1440" stroke="#000000" stroke-width="13" />
						<g class="layer" id="layer-L20F3N1">
							<g class="mRest" id="mrest-L21F3">
								<rect x="8827" y="900" height="90" width="216" />
							</g>
						</g>
					</g>
					<g class="staff" id="staff-L20F2N1">
						<path d="M7552 2160 L10346 2160" stroke="#000000" stroke-width="13" />
						<path d="M7552 2340 L10346 2340" stroke="#000000" stroke-width="13" />
						<path d="M7552 2520 L10346 2520" stroke="#000000" stroke-width="13" />
						<path d="M7552 2700 L10346 2700" stroke="#000000" stroke-width="13" />
						<path d="M7552 2880 L10346 2880" stroke="#000000" stroke-width="13" />
						<g class="layer" id="layer-L20F2N1">
							<g class="mRest" id="mrest-L21F2">
								<rect x="8827" y="2340" height="90" width="216" />
							</g>
						</g>
					</g>
					<g class="staff" id="staff-L20F1N1">
						<path d="M7552 3600 L10346 3600" stroke="#000000" stroke-width="13" />
						<path d="M7552 3780 L10346 3780" stroke="#000000" stroke-width="13" />
						<path d="M7552 3960 L10346 3960" stroke="#000000" stroke-width="13" />
						<path d="M7552 4140 L10346 4140" stroke="#000000" stroke-width="13" />
						<path d="M7552 4320 L10346 4320" stroke="#000000" stroke-width="13" />
						<g class="layer" id="layer-L20F1N1">
							<g class="beam" id="beam-L21F1-L24F1">
								<polygon points="7970,3268 9099,3376 9099,3466 7970,3358 " />
								<polygon points="7970,3403 9099,3511 9099,3601 7970,3493 " />
								<g class="note" id="note-L21F1">
									<use xlink:href="#E0A4" x="7762" y="3960" height="720px" width="720px" />
									<g class="stem">
										<rect x="7970" y="3286" height="652" width="18" />
									</g>
									<g class="accid" id="accid-0000000414805446" />
								</g>
								<g class="note" id="note-L22F1">
									<use xlink:href="#E0A4" x="8130" y="4050" height="720px" width="720px" />
									<g class="stem">
										<rect x="8338" y="3322" height="706" width="18" />
									</g>
									<g class="accid" id="accid-0000001882440324" />
								</g>
								<g class="rest" id="rest-L23F1">
									<use xlink:href="#E4E7" x="8497" y="3960" height="720px" width="720px" />
								</g>
								<g class="note" id="note-L24F1">
									<use xlink:href="#E0A4" x="8873" y="4050" height="720px" width="720px" />
									<g class="stem">
										<rect x="9081" y="3394" height="634" width="18" />
									</g>
									<g class="accid" id="accid-0000001135895883" />
								</g>
							</g>
							<g class="beam" id="beam-L25F1-L26F1">
								<polygon points="9241,4815 9967,4744 9967,4654 9241,4725 " />
								<polygon points="9809,4624 9967,4609 9967,4519 9809,4534 " />
								<g class="rest" id="rest-L25F1">
									<use xlink:href="#E4E6" x="9241" y="3960" height="720px" width="720px" />
									<g class="dots" id="dots-0000000651092380">
										<ellipse cx="9529" cy="3870" rx="36" ry="36" />
									</g>
								</g>
								<g class="note" id="note-L26F1">
									<use xlink:href="#E0A4" x="9949" y="3780" height="720px" width="720px" />
									<g class="stem">
										<rect x="9949" y="3802" height="924" width="18" />
									</g>
									<g class="accid" id="accid-0000001265411002">
										<use xlink:href="#E262" x="9754" y="3780" height="720px" width="720px" />
									</g>
								</g>
							</g>
						</g>
					</g>
					<g class="mNum autogenerated" id="mnum-0000001558459827" />
					<g class="barLineAttr" id="bline-0000001323717007">
						<path d="M10333 1440 L10333 720" stroke="#000000" stroke-width="27" />
						<path d="M10333 2880 L10333 2160" stroke="#000000" stroke-width="27" />
						<path d="M10333 4320 L10333 3600" stroke="#000000" stroke-width="27" />
					</g>
				</g>
				<g class="measure" id="measure-L27">
					<g class="staff" id="staff-L27F3N1">
						<path d="M10346 720 L13769 720" stroke="#000000" stroke-width="13" />
						<path d="M10346 900 L13769 900" stroke="#000000" stroke-width="13" />
						<path d="M10346 1080 L13769 1080" stroke="#000000" stroke-width="13" />
						<path d="M10346 1260 L13769 1260" stroke="#000000" stroke-width="13" />
						<path d="M10346 1440 L13769 1440" stroke="#000000" stroke-width="13" />
						<g class="ledgerLines above">
							<path d="M12379 540 L12658 540" stroke="#000000" stroke-width="22" />
						</g>
						<g class="layer" id="layer-L27F3N1">
							<g class="rest" id="rest-L28F3">
								<use xlink:href="#E4E5" x="10556" y="1080" height="720px" width="720px" />
							</g>
							<g class="beam" id="beam-L32F3-L34F3">
								<polygon points="12035,1936 13023,2033 13023,1943 12035,1846 " />
								<polygon points="12035,1801 12419,1839 12419,1749 12035,1711 " />
								<g class="rest" id="rest-L32F3">
									<use xlink:href="#E4E7" x="12035" y="1080" height="720px" width="720px" />
								</g>
								<g class="note" id="note-L33F3">
									<use xlink:href="#E0A4" x="12410" y="540" height="720px" width="720px" />
									<g class="stem">
										<rect x="12410" y="562" height="1394" width="18" />
									</g>
									<g class="accid" id="accid-0000000875833562" />
								</g>
								<g class="rest" id="rest-L34F3">
									<use xlink:href="#E4E6" x="13005" y="1080" height="720px" width="720px" />
								</g>
							</g>
						</g>
					</g>
					<g class="staff" id="staff-L27F2N1">
						<path d="M10346 2160 L13769 2160" stroke="#000000" stroke-width="13" />
						<path d="M10346 2340 L13769 2340" stroke="#000000" stroke-width="13" />
						<path d="M10346 2520 L13769 2520" stroke="#000000" stroke-width="13" />
						<path d="M10346 2700 L13769 2700" stroke="#000000" stroke-width="13" />
						<path d="M10346 2880 L13769 2880" stroke="#000000" stroke-width="13" />
						<g class="layer" id="layer-L27F2N1">
							<g class="mRest" id="mrest-L28F2">
								<rect x="11936" y="2340" height="90" width="216" />
							</g>
						</g>
					</g>
					<g class="staff" id="staff-L27F1N1">
						<path d="M10346 3600 L13769 3600" stroke="#000000" stroke-width="13" />
						<path d="M10346 3780 L13769 3780" stroke="#000000" stroke-width="13" />
						<path d="M10346 3960 L13769 3960" stroke="#000000" stroke-width="13" />
						<path d="M10346 4140 L13769 4140" stroke="#000000" stroke-width="13" />
						<path d="M10346 4320 L13769 4320" stroke="#000000" stroke-width="13" />
						<g class="layer" id="layer-L27F1N1">
							<g class="beam" id="beam-L28F1-L31F1">
								<polygon points="10556,4440 11685,4328 11685,4238 10556,4350 " />
								<polygon points="10556,4305 11685,4193 11685,4103 10556,4215 " />
								<g class="note" id="note-L28F1">
									<use xlink:href="#E0A4" x="10556" y="3600" height="720px" width="720px" />
									<g class="stem">
										<rect x="10556" y="3622" height="800" width="18" />
									</g>
									<g class="accid" id="accid-0000001670049996" />
								</g>
								<g class="rest" id="rest-L29F1">
									<use xlink:href="#E4E7" x="10924" y="3960" height="720px" width="720px" />
								</g>
								<g class="note" id="note-L30F1">
									<use xlink:href="#E0A4" x="11299" y="3690" height="720px" width="720px" />
									<g class="stem">
										<rect x="11299" y="3712" height="635" width="18" />
									</g>
									<g class="accid" id="accid-0000000664418453" />
								</g>
								<g class="note" id="note-L31F1">
									<use xlink:href="#E0A4" x="11667" y="3600" height="720px" width="720px" />
									<g class="stem">
										<rect x="11667" y="3622" height="688" width="18" />
									</g>
									<g class="accid" id="accid-0000001522832746" />
								</g>
							</g>
							<g class="beam" id="beam-L32F1-L35F1">
								<polygon points="12035,4545 13390,4461 13390,4371 12035,4455 " />
								<polygon points="12035,4410 13390,4326 13390,4236 12035,4320 " />
								<g class="note" id="note-L32F1">
									<use xlink:href="#E0A4" x="12035" y="3870" height="720px" width="720px" />
									<g class="stem">
										<rect x="12035" y="3892" height="635" width="18" />
									</g>
									<g class="accid" id="accid-0000001482788489" />
								</g>
								<g class="note" id="note-L33F1">
									<use xlink:href="#E0A4" x="12410" y="3600" height="720px" width="720px" />
									<g class="stem">
										<rect x="12410" y="3622" height="881" width="18" />
									</g>
									<g class="accid" id="accid-0000000273176215" />
								</g>
								<g class="note" id="note-L34F1">
									<use xlink:href="#E0A4" x="13005" y="3780" height="720px" width="720px" />
									<g class="stem">
										<rect x="13005" y="3802" height="664" width="18" />
									</g>
									<g class="accid" id="accid-0000000202769770">
										<use xlink:href="#E262" x="12810" y="3780" height="720px" width="720px" />
									</g>
								</g>
								<g class="note" id="note-L35F1">
									<use xlink:href="#E0A4" x="13372" y="3690" height="720px" width="720px" />
									<g class="stem">
										<rect x="13372" y="3712" height="731" width="18" />
									</g>
									<g class="accid" id="accid-0000000103290841" />
								</g>
							</g>
						</g>
					</g>
					<g class="mNum autogenerated" id="mnum-0000001188764297" />
					<g class="barLineAttr" id="bline-0000001212697031">
						<path d="M13756 1440 L13756 720" stroke="#000000" stroke-width="27" />
						<path d="M13756 2880 L13756 2160" stroke="#000000" stroke-width="27" />
						<path d="M13756 4320 L13756 3600" stroke="#000000" stroke-width="27" />
					</g>
				</g>
				<g class="measure" id="measure-L36">
					<g class="staff" id="staff-L36F3N1">
						<path d="M13769 720 L16571 720" stroke="#000000" stroke-width="13" />
						<path d="M13769 900 L16571 900" stroke="#000000" stroke-width="13" />
						<path d="M13769 1080 L16571 1080" stroke="#000000" stroke-width="13" />
						<path d="M13769 1260 L16571 1260" stroke="#000000" stroke-width="13" />
						<path d="M13769 1440 L16571 1440" stroke="#000000" stroke-width="13" />
						<g class="layer" id="layer-L36F3N1">
							<g class="beam" id="beam-L37F3-L38F3">
								<polygon points="13979,1935 14373,1897 14373,1807 13979,1845 " />
								<polygon points="13979,1800 14373,1762 14373,1672 13979,1710 " />
								<g class="rest" id="rest-L37F3">
									<use xlink:href="#E4E7" x="13979" y="1080" height="720px" width="720px" />
								</g>
								<g class="note" id="note-L38F3">
									<use xlink:href="#E0A4" x="14355" y="630" height="720px" width="720px" />
									<g class="stem">
										<rect x="14355" y="652" height="1227" width="18" />
									</g>
									<g class="accid" id="accid-0000000526099308" />
								</g>
							</g>
							<g class="rest" id="rest-L39F3">
								<use xlink:href="#E4E5" x="14722" y="1080" height="720px" width="720px" />
								<g class="dots" id="dots-0000000789881040">
									<ellipse cx="15031" cy="990" rx="36" ry="36" />
								</g>
							</g>
						</g>
					</g>
					<g class="staff" id="staff-L36F2N1">
						<path d="M13769 2160 L16571 2160" stroke="#000000" stroke-width="13" />
						<path d="M13769 2340 L16571 2340" stroke="#000000" stroke-width="13" />
						<path d="M13769 2520 L16571 2520" stroke="#000000" stroke-width="13" />
						<path d="M13769 2700 L16571 2700" stroke="#000000" stroke-width="13" />
						<path d="M13769 2880 L16571 2880" stroke="#000000" stroke-width="13" />
						<g class="layer" id="layer-L36F2N1">
							<g class="mRest" id="mrest-L37F2">
								<rect x="15048" y="2340" height="90" width="216" />
							</g>
						</g>
					</g>
					<g class="staff" id="staff-L36F1N1">
						<path d="M13769 3600 L16571 3600" stroke="#000000" stroke-width="13" />
						<path d="M13769 3780 L16571 3780" stroke="#000000" stroke-width="13" />
						<path d="M13769 3960 L16571 3960" stroke="#000000" stroke-width="13" />
						<path d="M13769 4140 L16571 4140" stroke="#000000" stroke-width="13" />
						<path d="M13769 4320 L16571 4320" stroke="#000000" stroke-width="13" />
						<g class="layer" id="layer-L36F1N1">
							<g class="beam" id="beam-L37F1-L40F1">
								<polygon points="14187,3286 15324,3398 15324,3488 14187,3376 " />
								<polygon points="14187,3421 15324,3533 15324,3623 14187,3511 " />
								<g class="note" id="note-L37F1">
									<use xlink:href="#E0A4" x="13979" y="3960" height="720px" width="720px" />
									<g class="stem">
										<rect x="14187" y="3304" height="634" width="18" />
									</g>
									<g class="accid" id="accid-0000000080592541" />
								</g>
								<g class="note" id="note-L38F1">
									<use xlink:href="#E0A4" x="14355" y="4140" height="720px" width="720px" />
									<g class="stem">
										<rect x="14563" y="3342" height="776" width="18" />
									</g>
									<g class="accid" id="accid-0000001254082001" />
								</g>
								<g class="rest" id="rest-L39F1">
									<use xlink:href="#E4E7" x="14722" y="3960" height="720px" width="720px" />
								</g>
								<g class="note" id="note-L40F1">
									<use xlink:href="#E0A4" x="15098" y="4140" height="720px" width="720px" />
									<g class="stem">
										<rect x="15306" y="3416" height="702" width="18" />
									</g>
									<g class="accid" id="accid-0000000911815075" />
								</g>
							</g>
							<g class="beam" id="beam-L41F1-L42F1">
								<polygon points="15466,4815 16192,4744 16192,4654 15466,4725 " />
								<polygon points="16034,4624 16192,4609 16192,4519 16034,4534 " />
								<g class="rest" id="rest-L41F1">
									<use xlink:href="#E4E6" x="15466" y="3960" height="720px" width="720px" />
									<g class="dots" id="dots-0000000429134499">
										<ellipse cx="15754" cy="3870" rx="36" ry="36" />
									</g>
								</g>
								<g class="note" id="note-L42F1">
									<use xlink:href="#E0A4" x="16174" y="3780" height="720px" width="720px" />
									<g class="stem">
										<rect x="16174" y="3802" height="924" width="18" />
									</g>
									<g class="accid" id="accid-0000000941757062">
										<use xlink:href="#E262" x="15979" y="3780" height="720px" width="720px" />
									</g>
								</g>
							</g>
						</g>
					</g>
					<g class="mNum autogenerated" id="mnum-0000000538902331" />
					<g class="barLineAttr" id="bline-0000000101234484">
						<path d="M16558 1440 L16558 720" stroke="#000000" stroke-width="27" />
						<path d="M16558 2880 L16558 2160" stroke="#000000" stroke-width="27" />
						<path d="M16558 4320 L16558 3600" stroke="#000000" stroke-width="27" />
					</g>
				</g>
				<g class="measure" id="measure-L43">
					<g class="staff" id="staff-L43F3N1">
						<path d="M16571 720 L20002 720" stroke="#000000" stroke-width="13" />
						<path d="M16571 900 L20002 900" stroke="#000000" stroke-width="13" />
						<path d="M16571 1080 L20002 1080" stroke="#000000" stroke-width="13" />
						<path d="M16571 1260 L20002 1260" stroke="#000000" stroke-width="13" />
						<path d="M16571 1440 L20002 1440" stroke="#000000" stroke-width="13" />
						<g class="ledgerLines above">
							<path d="M17126 540 L17405 540" stroke="#000000" stroke-width="22" />
						</g>
						<g class="layer" id="layer-L43F3N1">
							<g class="beam" id="beam-L44F3-L47F3">
								<polygon points="16781,1936 17926,1990 17926,1900 16781,1846 " />
								<polygon points="16781,1801 17926,1855 17926,1765 16781,1711 " />
								<g class="rest" id="rest-L44F3">
									<use xlink:href="#E4E7" x="16781" y="1080" height="720px" width="720px" />
								</g>
								<g class="note" id="note-L45F3">
									<use xlink:href="#E0A4" x="17157" y="540" height="720px" width="720px" />
									<g class="stem">
										<rect x="17157" y="562" height="1374" width="18" />
									</g>
									<g class="accid" id="accid-0000000750005010" />
								</g>
								<g class="rest" id="rest-L46F3">
									<use xlink:href="#E4E7" x="17532" y="1080" height="720px" width="720px" />
								</g>
								<g class="note" id="note-L47F3">
									<use xlink:href="#E0A4" x="17908" y="1080" height="720px" width="720px" />
									<g class="stem">
										<rect x="17908" y="1102" height="870" width="18" />
									</g>
									<g class="accid" id="accid-0000000491643011" />
								</g>
							</g>
							<g class="rest" id="rest-L48F3">
								<use xlink:href="#E4E5" x="18276" y="1080" height="720px" width="720px" />
							</g>
						</g>
					</g>
					<g class="staff" id="staff-L43F2N1">
						<path d="M16571 2160 L20002 2160" stroke="#000000" stroke-width="13" />
						<path d="M16571 2340 L20002 2340" stroke="#000000" stroke-width="13" />
						<path d="M16571 2520 L20002 2520" stroke="#000000" stroke-width="13" />
						<path d="M16571 2700 L20002 2700" stroke="#000000" stroke-width="13" />
						<path d="M16571 2880 L20002 2880" stroke="#000000" stroke-width="13" />
						<g class="layer" id="layer-L43F2N1">
							<g class="rest" id="rest-L44F2">
								<use xlink:href="#E4E5" x="16781" y="2520" height="720px" width="720px" />
							</g>
							<g class="beam" id="beam-L48F2-L50F2">
								<polygon points="18484,2274 19464,2178 19464,2268 18484,2364 " />
								<polygon points="18484,2409 18860,2372 18860,2462 18484,2499 " />
								<g class="note" id="note-L48F2">
									<use xlink:href="#E0A4" x="18276" y="2970" height="720px" width="720px" />
									<g class="stem">
										<rect x="18484" y="2292" height="656" width="18" />
									</g>
									<g class="accid" id="accid-0000001647183052" />
								</g>
								<g class="note" id="note-L49F2">
									<use xlink:href="#E0A4" x="18643" y="2970" height="720px" width="720px" />
									<g class="stem">
										<rect x="18851" y="2255" height="693" width="18" />
									</g>
									<g class="accid" id="accid-0000000702205643" />
								</g>
								<g class="rest" id="rest-L50F2">
									<use xlink:href="#E4E6" x="19238" y="2520" height="720px" width="720px" />
								</g>
							</g>
						</g>
					</g>
					<g class="staff" id="staff-L43F1N1">
						<path d="M16571 3600 L20002 3600" stroke="#000000" stroke-width="13" />
						<path d="M16571 3780 L20002 3780" stroke="#000000" stroke-width="13" />
						<path d="M16571 3960 L20002 3960" stroke="#000000" stroke-width="13" />
						<path d="M16571 4140 L20002 4140" stroke="#000000" stroke-width="13" />
						<path d="M16571 4320 L20002 4320" stroke="#000000" stroke-width="13" />
						<g class="layer" id="layer-L43F1N1">
							<g class="beam" id="beam-L44F1-L47F1">
								<polygon points="16781,4478 17926,4365 17926,4275 16781,4388 " />
								<polygon points="16781,4343 17926,4230 17926,4140 16781,4253 " />
								<g class="note" id="note-L44F1">
									<use xlink:href="#E0A4" x="16781" y="3690" height="720px" width="720px" />
									<g class="stem">
										<rect x="16781" y="3712" height="748" width="18" />
									</g>
									<g class="accid" id="accid-0000000485918624" />
								</g>
								<g class="rest" id="rest-L45F1">
									<use xlink:href="#E4E7" x="17157" y="3960" height="720px" width="720px" />
								</g>
								<g class="note" id="note-L46F1">
									<use xlink:href="#E0A4" x="17532" y="3600" height="720px" width="720px" />
									<g class="stem">
										<rect x="17532" y="3622" height="762" width="18" />
									</g>
									<g class="accid" id="accid-0000000962259946" />
								</g>
								<g class="note" id="note-L47F1">
									<use xlink:href="#E0A4" x="17908" y="3690" height="720px" width="720px" />
									<g class="stem">
										<rect x="17908" y="3712" height="635" width="18" />
									</g>
									<g class="accid" id="accid-0000001966241586" />
								</g>
							</g>
							<g class="beam" id="beam-L48F1-L51F1">
								<polygon points="18276,4552 19624,4419 19624,4329 18276,4462 " />
								<polygon points="18276,4417 19624,4284 19624,4194 18276,4327 " />
								<g class="note" id="note-L48F1">
									<use xlink:href="#E0A4" x="18276" y="3870" height="720px" width="720px" />
									<g class="stem">
										<rect x="18276" y="3892" height="642" width="18" />
									</g>
									<g class="accid" id="accid-0000000220768049" />
								</g>
								<g class="note" id="note-L49F1">
									<use xlink:href="#E0A4" x="18643" y="3690" height="720px" width="720px" />
									<g class="stem">
										<rect x="18643" y="3712" height="785" width="18" />
									</g>
									<g class="accid" id="accid-0000001842846221" />
								</g>
								<g class="note" id="note-L50F1">
									<use xlink:href="#E0A4" x="19238" y="3780" height="720px" width="720px" />
									<g class="stem">
										<rect x="19238" y="3802" height="635" width="18" />
									</g>
									<g class="accid" id="accid-0000001714406024">
										<use xlink:href="#E262" x="19043" y="3780" height="720px" width="720px" />
									</g>
								</g>
								<g class="note" id="note-L51F1">
									<use xlink:href="#E0A4" x="19606" y="3600" height="720px" width="720px" />
									<g class="stem">
										<rect x="19606" y="3622" height="779" width="18" />
									</g>
									<g class="accid" id="accid-0000000808055104" />
								</g>
							</g>
						</g>
					</g>
					<g class="mNum autogenerated" id="mnum-0000001384990479" />
					<g class="barLineAttr" id="bline-0000000832896237">
						<path d="M19989 1440 L19989 720" stroke="#000000" stroke-width="27" />
						<path d="M19989 2880 L19989 2160" stroke="#000000" stroke-width="27" />
						<path d="M19989 4320 L19989 3600" stroke="#000000" stroke-width="27" />
					</g>
				</g>
			</g>
		</g>
	</svg>
</svg>
