<?xml version="1.0" encoding="UTF-8" standalone="no"?>
<svg width="2100.00px" height="600.00px" version="1.1" xmlns="http://www.w3.org/2000/svg" xmlns:xlink="http://www.w3.org/1999/xlink" overflow="visible">
	<desc>Engraved by Verovio 2.0.0-dev-0f0381c</desc>
	<defs>
		<symbol id="E003" viewBox="0 0 1000 1000" overflow="inherit">
			<path transform="scale(1,-1)" d="M0 -0c49 0 97.5 -2.26367 135.5 4.73633c206 95 258.5 264.264 263.5 271.264c0 1 -14 7 -15 6c-88 -154 -251 -167 -321 -170c-1 0 -63 -1 -63 -1v-111z" />
		</symbol>
		<symbol id="E004" viewBox="0 0 1000 1000" overflow="inherit">
			<path transform="scale(1,-1)" d="M0 0c49 0 97.5 2.26367 135.5 -4.73633c206 -95 258.5 -264.264 263.5 -271.264c0 -1 -14 -7 -15 -6c-88 154 -251 167 -321 170c-1 0 -63 1 -63 1v111z" />
		</symbol>
		<symbol id="E050" viewBox="0 0 1000 1000" overflow="inherit">
			<path transform="scale(1,-1)" d="M441 -245c-23 -4 -48 -6 -76 -6c-59 0 -102 7 -130 20c-88 42 -150 93 -187 154c-26 44 -43 103 -48 176c-4 60 11 123 44 189c29 57 65 106 110 148s96 85 153 127c-3 16 -8 46 -13 92c-4 43 -5 73 -5 89c0 117 16 172 69 257c34 54 64 82 89 82c21 0 43 -30 69 -92 s39 -115 41 -159c2 -120 -19 -173 -67 -256c-13 -20 -63 -90 -98 -118c-13 -9 -25 -19 -37 -29l31 -181c8 1 18 2 28 2c58 0 102 -12 133 -35c59 -43 92 -104 98 -184c11 -135 -80 -229 -180 -270c8 -57 17 -110 25 -162c5 -31 6 -58 6 -80c0 -30 -5 -53 -14 -70 c-35 -64 -88 -99 -158 -103c-42 -3 -83 6 -124 26c-50 24 -77 59 -80 105c-2 34 5 63 20 87c18 28 45 42 79 44c51 4 99 -40 103 -87c4 -56 -30 -94 -105 -115c17 -24 51 -36 102 -36c62 0 116 43 140 85c9 16 13 41 13 74c0 20 -1 42 -5 67c-8 53 -18 106 -26 159zM461 939 c-95 0 -135 -175 -135 -286c0 -24 2 -48 5 -71c50 39 92 82 127 128c43 57 63 106 60 148c-4 54 -23 82 -57 81zM406 119l54 -326c80 27 116 88 109 184c-7 99 -62 146 -163 142zM382 117c-74 -2 -132 -50 -128 -127c2 -46 43 -99 75 -115c-3 -2 -7 -5 -10 -10 c-70 33 -116 88 -123 172c-5 73 42 135 88 170c23 17 49 29 78 36l-29 170c-21 -13 -52 -37 -92 -73c-50 -44 -86 -84 -109 -119c-49 -75 -71 -140 -67 -195c5 -68 35 -127 93 -176s125 -73 203 -73c25 0 50 3 75 9c-19 111 -36 221 -54 331z" />
		</symbol>
		<symbol id="E082" viewBox="0 0 1000 1000" overflow="inherit">
			<path transform="scale(1,-1)" d="M104 -185c-18 0 -55 -14 -65 -65h-36l-3 29c0 25 6 46 18 64c11 19 22 30 39 43l121 82l37 29c15 11 27 29 38 54c12 24 18 47 18 70c0 40 -19 88 -94 88c-25 0 -32 0 -50 -8c-14 -5 -23 -12 -26 -22c3 -9 7 -15 10 -18l24 -17c12 -7 17 -11 27 -21c5 -7 7 -16 7 -27 c0 -12 0 -57 -79 -74c-30 0 -76 26 -76 94c0 66 80 135 196 135c72 0 182 -32 182 -150c0 -53 -32 -95 -113 -133l-91 -41c-26 -11 -45 -23 -57 -37l49 7c84 0 115 -41 148 -41c20 0 33 20 39 61h35c0 -152 -68 -168 -114 -168c-17 0 -55 0 -69 7v0l-28 17 c-49 37 -69 40 -87 42z" />
		</symbol>
		<symbol id="E084" viewBox="0 0 1000 1000" overflow="inherit">
			<path transform="scale(1,-1)" d="M0 -78c84 97 114 180 134 329h170c-13 -32 -82 -132 -99 -151l-84 -97c-33 -36 -59 -63 -80 -81h162v102l127 123v-225h57v-39h-57v-34c0 -43 19 -65 57 -65v-34h-244v36c48 0 60 26 60 70v27h-203v39z" />
		</symbol>
		<symbol id="E4E5" viewBox="0 0 1000 1000" overflow="inherit">
			<path transform="scale(1,-1)" d="M107 292c-13 24 -30 49 -52 71c-1 1 0 2 0 3l-2 2c3 3 4 4 6 4c12 0 26 -7 40 -20s44 -40 89 -81c26 -24 28 -29 46 -47c4 -4 8 -9 10 -14c6 -8 8 -16 8 -27c0 -19 -12 -40 -36 -61c-28 -23 -49 -38 -61 -73c-4 -11 -7 -27 -10 -50c13 -43 34 -83 59 -121 c31 -47 59 -79 101 -129c-8 0 -26 7 -54 20l-62 29l-21 6l-23 1c-25 0 -45 -10 -60 -30l-4 -14l-1 -12c0 -33 20 -56 39 -78c8 -9 17 -18 26 -26c17 -15 27 -24 28 -30l-3 -3c-11 5 -19 10 -25 15c-9 3 -37 21 -45 26c-24 14 -45 32 -63 51c-19 21 -37 44 -37 71 c0 63 27 95 80 95c41 0 86 -18 136 -52c-19 26 -37 48 -55 66c-23 23 -48 44 -73 65c-28 23 -47 40 -58 53s-17 26 -18 39c75 64 113 125 113 183c0 27 -7 48 -18 68z" />
		</symbol>
		<symbol id="E062" viewBox="0 0 1000 1000" overflow="inherit">
			<path transform="scale(1,-1)" d="M158 96c51 0 73 -14 88 -49l16 -39c0 -17 -2 -30 -7 -40c-3 -11 -10 -21 -19 -31c-17 -18 -49 -43 -84 -43c-55 0 -77 13 -112 44c-24 21 -35 55 -35 100c0 46 14 81 32 112c30 52 71 79 137 93l36 6l26 2c154 0 235 -68 274 -182c11 -32 18 -68 18 -107 c0 -103 -26 -182 -68 -250c-89 -145 -234 -230 -412 -288l-30 -5c-9 0 -14 3 -14 8c3 10 5 11 10 16c35 15 70 30 96 44l78 43c96 57 162 136 197 258c9 33 17 60 22 100c3 22 5 35 6 39c-7 69 -16 115 -23 140s-4 22 -16 40c-8 12 -19 23 -31 34c-24 21 -62 44 -118 44 c-48 0 -84 -8 -113 -28c-28 -19 -42 -44 -42 -73v-16c2 -5 3 -9 4 -11c24 22 52 39 84 39zM585 -118c0 32 23 58 57 58c18 0 33 -6 40 -18c9 -15 16 -18 16 -40c0 -9 -2 -16 -5 -21c-6 -19 -27 -37 -51 -37c-34 0 -57 26 -57 58zM642 177c31 0 56 -27 56 -58 c0 -30 -25 -58 -56 -58l-23 3c-19 7 -34 32 -34 55l3 23c9 20 28 35 54 35z" />
		</symbol>
		<symbol id="E0A4" viewBox="0 0 1000 1000" overflow="inherit">
			<path transform="scale(1,-1)" d="M0 -39c0 68 73 172 200 172c66 0 114 -37 114 -95c0 -84 -106 -171 -218 -171c-64 0 -96 30 -96 94z" />
		</symbol>
		<symbol id="E243" viewBox="0 0 1000 1000" overflow="inherit">
			<path transform="scale(1,-1)" d="M216 730c91 -136 46.292 -280.217 -129 -334c-18 -5 -47 -9 -87 -16v-190v-190h22c8 0 33 61 71 95c4 3 -2 -3 61 56c62 58 122 137 122 241c0 32.1738 -6.57129 65.5801 -17.0146 96.4023c10.6797 28.6514 17.0146 59.8047 17.0146 93.5977c0 71 -22 130 -57 172 c-6 5 -10 7 -13 7s-5 -2 -5 -5l4 -10c1 -3 5.87305 -8.33789 11 -16zM247.894 462.544c4.43457 -18.4092 7.10645 -37.584 7.10645 -56.5439c0 -105 -80 -173 -168 -200c-11.3936 -3.16504 -27.1934 -5.92871 -47.4004 -9.30664 c8.64453 16.7637 23.0469 61.1484 53.4004 88.3066c4 3 -2 -3 61 56c35.626 33.3281 70.5918 73.5898 93.8936 121.544z" />
		</symbol>
		<symbol id="E242" viewBox="0 0 1000 1000" overflow="inherit">
			<path transform="scale(1,-1)" d="M206 -748c91 136 56.292 298.217 -119 352c-18 5 -47 9 -87 16v190v190h22c8 0 33 -61 71 -95c4 -3 -2 3 61 -56c62 -58 122 -137 122 -241c0 -32.1738 -6.57111 -65.5797 -17.0148 -96.4025c10.6799 -28.6511 17.0148 -59.8045 17.0148 -93.5975 c0 -71 -32 -148 -67 -190c-6 -5 -10 -7 -13 -7s-5 2 -5 5l4 10c1 3 5.87292 8.33755 11 16zM247.893 -462.544c4.43497 18.4096 7.1066 37.5837 7.1066 56.5441c0 105 -80 173 -168 200c-11.3931 3.16476 -27.1932 5.92889 -47.4001 9.3067 c8.64443 -16.7635 23.0469 -61.1485 53.4001 -88.3067c4 -3 -2 3 61 -56c35.6263 -33.3278 70.5922 -73.5895 93.8934 -121.544z" />
		</symbol>
		<symbol id="E262" viewBox="0 0 1000 1000" overflow="inherit">
			<path transform="scale(1,-1)" d="M136 186v169h17v-164l44 14v-91l-44 -14v-165l44 12v-91l-44 -13v-155h-17v150l-76 -22v-155h-17v149l-43 -13v90l43 14v167l-43 -14v92l43 13v169h17v-163zM60 73v-167l76 22v168z" />
		</symbol>
		<symbol id="E4E6" viewBox="0 0 1000 1000" overflow="inherit">
			<path transform="scale(1,-1)" d="M0 123c7 34 33 56 69 60c29 -3 43 -9 53 -29c4 -8 7 -15 10 -22c0 -21 -1 -25 -11 -35c-5 -8 -18 -14 -40 -20l12 -3l15 -1c44 0 97 26 122 56c10 11 18 26 24 42c7 1 15 2 22 3l-140 -424h-36l111 330c-10 -6 -27 -12 -53 -16l-52 -8h-10l-20 1c-1 0 -8 3 -21 6 c-37 9 -55 28 -55 60z" />
		</symbol>
		<symbol id="E4E7" viewBox="0 0 1000 1000" overflow="inherit">
			<path transform="scale(1,-1)" d="M133 -111c-16 38 -21 43 -64 51c-37 -4 -60 -25 -68 -60c0 -32 18 -52 55 -58c8 -6 22 -10 43 -10c31 0 62 7 82 20l-108 -324h37c72 220 143 439 215 659h-4l-10 -2l-7 -1c-15 -35 -27 -52 -59 -71c-26 -15 -56 -27 -88 -29c-11 0 -20 2 -26 6c29 3 56 25 51 56 c-15 35 -19 42 -64 48c-38 -4 -60 -23 -68 -58c0 -32 18 -52 55 -59c7 -5 22 -8 45 -8c48 0 76 7 112 25l-66 -197c-21 -23 -50 -47 -90 -47c-7 0 -15 1 -25 4c31 5 52 22 52 55z" />
		</symbol>
	</defs>
	<style type="text/css">g.page-margin{font-family:Times;} g.tempo{font-weight:bold;} g.dir, g.dynam, g.mNum{font-style:italic;} g.label{font-weight:normal;}</style>
	<svg class="definition-scale" viewBox="0 0 21000 6000">
		<g class="page-margin" transform="translate(500, 500)">
			<g class="system" id="system-0000000686634686">
				<path d="M13 720 L13 4320" stroke="#000000" stroke-width="27" />
				<use xlink:href="#E003" x="-167" y="720" height="720px" width="720px" />
				<use xlink:href="#E004" x="-167" y="4320" height="720px" width="720px" />
				<rect x="-167" y="702" height="3636" width="90" />
				<g class="section boundaryStart" id="section-L1F1" />
				<g class="measure" id="measure-L4">
					<g class="staff" id="staff-L4F3N1">
						<path d="M0 720 L2901 720" stroke="#000000" stroke-width="13" />
						<path d="M0 900 L2901 900" stroke="#000000" stroke-width="13" />
						<path d="M0 1080 L2901 1080" stroke="#000000" stroke-width="13" />
						<path d="M0 1260 L2901 1260" stroke="#000000" stroke-width="13" />
						<path d="M0 1440 L2901 1440" stroke="#000000" stroke-width="13" />
						<g class="clef" id="clef-0000000607895980">
							<use xlink:href="#E050" x="90" y="1260" height="720px" width="720px" />
						</g>
						<g class="meterSig" id="msig-0000001328027081">
							<use xlink:href="#E082" x="771" y="900" height="720px" width="720px" />
							<use xlink:href="#E084" x="777" y="1260" height="720px" width="720px" />
						</g>
						<g class="layer" id="layer-L4F3N1">
							<g class="rest" id="rest-L5F3">
								<use xlink:href="#E4E5" x="1351" y="1080" height="720px" width="720px" />
							</g>
							<g class="rest" id="rest-L6F3">
								<use xlink:href="#E4E5" x="2119" y="1080" height="720px" width="720px" />
							</g>
						</g>
					</g>
					<g class="staff" id="staff-L4F2N1">
						<path d="M0 2160 L2901 2160" stroke="#000000" stroke-width="13" />
						<path d="M0 2340 L2901 2340" stroke="#000000" stroke-width="13" />
						<path d="M0 2520 L2901 2520" stroke="#000000" stroke-width="13" />
						<path d="M0 2700 L2901 2700" stroke="#000000" stroke-width="13" />
						<path d="M0 2880 L2901 2880" stroke="#000000" stroke-width="13" />
						<g class="clef" id="clef-0000001353607096">
							<use xlink:href="#E050" x="90" y="2700" height="720px" width="720px" />
						</g>
						<g class="meterSig" id="msig-0000001780189801">
							<use xlink:href="#E082" x="771" y="2340" height="720px" width="720px" />
							<use xlink:href="#E084" x="777" y="2700" height="720px" width="720px" />
						</g>
						<g class="layer" id="layer-L4F2N1">
							<g class="rest" id="rest-L5F2">
								<use xlink:href="#E4E5" x="1351" y="2520" height="720px" width="720px" />
							</g>
							<g class="rest" id="rest-L6F2">
								<use xlink:href="#E4E5" x="2119" y="2520" height="720px" width="720px" />
							</g>
						</g>
					</g>
					<g class="staff" id="staff-L4F1N1">
						<path d="M0 3600 L2901 3600" stroke="#000000" stroke-width="13" />
						<path d="M0 3780 L2901 3780" stroke="#000000" stroke-width="13" />
						<path d="M0 3960 L2901 3960" stroke="#000000" stroke-width="13" />
						<path d="M0 4140 L2901 4140" stroke="#000000" stroke-width="13" />
						<path d="M0 4320 L2901 4320" stroke="#000000" stroke-width="13" />
						<g class="clef" id="clef-0000000907815403">
							<use xlink:href="#E062" x="90" y="3780" height="720px" width="720px" />
						</g>
						<g class="meterSig" id="msig-0000001929649933">
							<use xlink:href="#E082" x="771" y="3780" height="720px" width="720px" />
							<use xlink:href="#E084" x="777" y="4140" height="720px" width="720px" />
						</g>
						<g class="layer" id="layer-L4F1N1">
							<g class="rest" id="rest-L5F1">
								<use xlink:href="#E4E5" x="1351" y="3960" height="720px" width="720px" />
							</g>
							<g class="rest" id="rest-L6F1">
								<use xlink:href="#E4E5" x="2119" y="3960" height="720px" width="720px" />
							</g>
						</g>
					</g>
					<g class="mNum autogenerated" id="mnum-0000000253066402" />
					<g class="barLineAttr" id="bline-0000001989190930">
						<path d="M2888 1440 L2888 720" stroke="#000000" stroke-width="27" />
						<path d="M2888 2880 L2888 2160" stroke="#000000" stroke-width="27" />
						<path d="M2888 4320 L2888 3600" stroke="#000000" stroke-width="27" />
					</g>
				</g>
				<g class="measure" id="measure-L7">
					<g class="staff" id="staff-L7F3N1">
						<path d="M2901 720 L4964 720" stroke="#000000" stroke-width="13" />
						<path d="M2901 900 L4964 900" stroke="#000000" stroke-width="13" />
						<path d="M2901 1080 L4964 1080" stroke="#000000" stroke-width="13" />
						<path d="M2901 1260 L4964 1260" stroke="#000000" stroke-width="13" />
						<path d="M2901 1440 L4964 1440" stroke="#000000" stroke-width="13" />
						<g class="ledgerLines above">
							<path d="M3288 540 L3567 540" stroke="#000000" stroke-width="22" />
						</g>
						<g class="layer" id="layer-L7F3N1">
							<g class="note" id="note-L8F3">
								<use xlink:href="#E0A4" x="3319" y="450" height="720px" width="720px" />
								<g class="stem">
									<rect x="3319" y="472" height="608" width="18" />
									<g class="flag" id="flag-0000000751733059">
										<use xlink:href="#E243" x="3319" y="1080" height="720px" width="720px" />
									</g>
								</g>
								<g class="accid" id="accid-0000001859627359" />
							</g>
							<g class="rest" id="rest-L9F3">
								<use xlink:href="#E4E5" x="3871" y="1080" height="720px" width="720px" />
								<g class="dots" id="dots-0000000731227312">
									<ellipse cx="4180" cy="990" rx="36" ry="36" />
									<ellipse cx="4315" cy="990" rx="36" ry="36" />
								</g>
							</g>
						</g>
					</g>
					<g class="staff" id="staff-L7F2N1">
						<path d="M2901 2160 L4964 2160" stroke="#000000" stroke-width="13" />
						<path d="M2901 2340 L4964 2340" stroke="#000000" stroke-width="13" />
						<path d="M2901 2520 L4964 2520" stroke="#000000" stroke-width="13" />
						<path d="M2901 2700 L4964 2700" stroke="#000000" stroke-width="13" />
						<path d="M2901 2880 L4964 2880" stroke="#000000" stroke-width="13" />
						<g class="layer" id="layer-L7F2N1">
							<g class="note" id="note-L8F2">
								<use xlink:href="#E0A4" x="3319" y="2970" height="720px" width="720px" />
								<g class="stem">
									<rect x="3527" y="2340" height="608" width="18" />
									<g class="flag" id="flag-0000000537628807">
										<use xlink:href="#E242" x="3527" y="2340" height="720px" width="720px" />
									</g>
								</g>
								<g class="accid" id="accid-0000001439926960" />
							</g>
							<g class="rest" id="rest-L9F2">
								<use xlink:href="#E4E5" x="3871" y="2520" height="720px" width="720px" />
								<g class="dots" id="dots-0000001463656320">
									<ellipse cx="4180" cy="2430" rx="36" ry="36" />
									<ellipse cx="4315" cy="2430" rx="36" ry="36" />
								</g>
							</g>
						</g>
					</g>
					<g class="staff" id="staff-L7F1N1">
						<path d="M2901 3600 L4964 3600" stroke="#000000" stroke-width="13" />
						<path d="M2901 3780 L4964 3780" stroke="#000000" stroke-width="13" />
						<path d="M2901 3960 L4964 3960" stroke="#000000" stroke-width="13" />
						<path d="M2901 4140 L4964 4140" stroke="#000000" stroke-width="13" />
						<path d="M2901 4320 L4964 4320" stroke="#000000" stroke-width="13" />
						<g class="layer" id="layer-L7F1N1">
							<g class="note" id="note-L8F1">
								<use xlink:href="#E0A4" x="3319" y="3780" height="720px" width="720px" />
								<g class="stem">
									<rect x="3319" y="3802" height="608" width="18" />
									<g class="flag" id="flag-0000002006965922">
										<use xlink:href="#E243" x="3319" y="4410" height="720px" width="720px" />
									</g>
								</g>
								<g class="accid" id="accid-0000001190786324">
									<use xlink:href="#E262" x="3124" y="3780" height="720px" width="720px" />
								</g>
							</g>
							<g class="rest" id="rest-L9F1">
								<use xlink:href="#E4E5" x="3871" y="3960" height="720px" width="720px" />
								<g class="dots" id="dots-0000000550607625">
									<ellipse cx="4180" cy="3870" rx="36" ry="36" />
									<ellipse cx="4315" cy="3870" rx="36" ry="36" />
								</g>
							</g>
						</g>
					</g>
					<g class="mNum autogenerated" id="mnum-0000001658779380" />
					<g class="barLineAttr" id="bline-0000001704417279">
						<path d="M4951 1440 L4951 720" stroke="#000000" stroke-width="27" />
						<path d="M4951 2880 L4951 2160" stroke="#000000" stroke-width="27" />
						<path d="M4951 4320 L4951 3600" stroke="#000000" stroke-width="27" />
					</g>
				</g>
				<g class="measure" id="measure-L10">
					<g class="staff" id="staff-L10F3N1">
						<path d="M4964 720 L6496 720" stroke="#000000" stroke-width="13" />
						<path d="M4964 900 L6496 900" stroke="#000000" stroke-width="13" />
						<path d="M4964 1080 L6496 1080" stroke="#000000" stroke-width="13" />
						<path d="M4964 1260 L6496 1260" stroke="#000000" stroke-width="13" />
						<path d="M4964 1440 L6496 1440" stroke="#000000" stroke-width="13" />
						<g class="layer" id="layer-L10F3N1">
							<g class="mRest" id="mrest-L11F3">
								<rect x="5608" y="900" height="90" width="216" />
							</g>
						</g>
					</g>
					<g class="staff" id="staff-L10F2N1">
						<path d="M4964 2160 L6496 2160" stroke="#000000" stroke-width="13" />
						<path d="M4964 2340 L6496 2340" stroke="#000000" stroke-width="13" />
						<path d="M4964 2520 L6496 2520" stroke="#000000" stroke-width="13" />
						<path d="M4964 2700 L6496 2700" stroke="#000000" stroke-width="13" />
						<path d="M4964 2880 L6496 2880" stroke="#000000" stroke-width="13" />
						<g class="layer" id="layer-L10F2N1">
							<g class="mRest" id="mrest-L11F2">
								<rect x="5608" y="2340" height="90" width="216" />
							</g>
						</g>
					</g>
					<g class="staff" id="staff-L10F1N1">
						<path d="M4964 3600 L6496 3600" stroke="#000000" stroke-width="13" />
						<path d="M4964 3780 L6496 3780" stroke="#000000" stroke-width="13" />
						<path d="M4964 3960 L6496 3960" stroke="#000000" stroke-width="13" />
						<path d="M4964 4140 L6496 4140" stroke="#000000" stroke-width="13" />
						<path d="M4964 4320 L6496 4320" stroke="#000000" stroke-width="13" />
						<g class="layer" id="layer-L10F1N1">
							<g class="mRest" id="mrest-L11F1">
								<rect x="5608" y="3780" height="90" width="216" />
							</g>
						</g>
					</g>
					<g class="mNum autogenerated" id="mnum-0000001423121630" />
					<g class="barLineAttr" id="bline-0000001344953217">
						<path d="M6483 1440 L6483 720" stroke="#000000" stroke-width="27" />
						<path d="M6483 2880 L6483 2160" stroke="#000000" stroke-width="27" />
						<path d="M6483 4320 L6483 3600" stroke="#000000" stroke-width="27" />
					</g>
				</g>
				<g class="measure" id="measure-L12">
					<g class="staff" id="staff-L12F3N1">
						<path d="M6496 720 L8743 720" stroke="#000000" stroke-width="13" />
						<path d="M6496 900 L8743 900" stroke="#000000" stroke-width="13" />
						<path d="M6496 1080 L8743 1080" stroke="#000000" stroke-width="13" />
						<path d="M6496 1260 L8743 1260" stroke="#000000" stroke-width="13" />
						<path d="M6496 1440 L8743 1440" stroke="#000000" stroke-width="13" />
						<g class="layer" id="layer-L12F3N1">
							<g class="mRest" id="mrest-L13F3">
								<rect x="7498" y="900" height="90" width="216" />
							</g>
						</g>
					</g>
					<g class="staff" id="staff-L12F2N1">
						<path d="M6496 2160 L8743 2160" stroke="#000000" stroke-width="13" />
						<path d="M6496 2340 L8743 2340" stroke="#000000" stroke-width="13" />
						<path d="M6496 2520 L8743 2520" stroke="#000000" stroke-width="13" />
						<path d="M6496 2700 L8743 2700" stroke="#000000" stroke-width="13" />
						<path d="M6496 2880 L8743 2880" stroke="#000000" stroke-width="13" />
						<g class="layer" id="layer-L12F2N1">
							<g class="rest" id="rest-L13F2">
								<use xlink:href="#E4E5" x="6697" y="2520" height="720px" width="720px" />
							</g>
							<g class="beam" id="beam-L14F2-L16F2">
								<polygon points="7673,2032 8581,2056 8581,2146 7673,2122 " />
								<polygon points="8220,2181 8581,2191 8581,2281 8220,2271 " />
								<g class="rest" id="rest-L14F2">
									<use xlink:href="#E4E6" x="7465" y="2520" height="720px" width="720px" />
								</g>
								<g class="note" id="note-L15F2">
									<use xlink:href="#E0A4" x="8003" y="2880" height="720px" width="720px" />
									<g class="stem">
										<rect x="8211" y="2064" height="794" width="18" />
									</g>
									<g class="accid" id="accid-0000000002461762" />
								</g>
								<g class="rest" id="rest-L16F2">
									<use xlink:href="#E4E7" x="8355" y="2520" height="720px" width="720px" />
								</g>
							</g>
						</g>
					</g>
					<g class="staff" id="staff-L12F1N1">
						<path d="M6496 3600 L8743 3600" stroke="#000000" stroke-width="13" />
						<path d="M6496 3780 L8743 3780" stroke="#000000" stroke-width="13" />
						<path d="M6496 3960 L8743 3960" stroke="#000000" stroke-width="13" />
						<path d="M6496 4140 L8743 4140" stroke="#000000" stroke-width="13" />
						<path d="M6496 4320 L8743 4320" stroke="#000000" stroke-width="13" />
						<g class="layer" id="layer-L12F1N1">
							<g class="rest" id="rest-L13F1">
								<use xlink:href="#E4E5" x="6697" y="3960" height="720px" width="720px" />
							</g>
							<g class="beam" id="beam-L14F1-L16F1">
								<polygon points="7465,4815 8373,4766 8373,4676 7465,4725 " />
								<polygon points="8012,4650 8373,4631 8373,4541 8012,4560 " />
								<g class="rest" id="rest-L14F1">
									<use xlink:href="#E4E6" x="7465" y="3960" height="720px" width="720px" />
								</g>
								<g class="note" id="note-L15F1">
									<use xlink:href="#E0A4" x="8003" y="3780" height="720px" width="720px" />
									<g class="stem">
										<rect x="8003" y="3802" height="965" width="18" />
									</g>
									<g class="accid" id="accid-0000000779809695">
										<use xlink:href="#E262" x="7808" y="3780" height="720px" width="720px" />
									</g>
								</g>
								<g class="rest" id="rest-L16F1">
									<use xlink:href="#E4E7" x="8355" y="3960" height="720px" width="720px" />
								</g>
							</g>
						</g>
					</g>
					<g class="mNum autogenerated" id="mnum-0000001006949533" />
					<g class="barLineAttr" id="bline-0000000665178293">
						<path d="M8730 1440 L8730 720" stroke="#000000" stroke-width="27" />
						<path d="M8730 2880 L8730 2160" stroke="#000000" stroke-width="27" />
						<path d="M8730 4320 L8730 3600" stroke="#000000" stroke-width="27" />
					</g>
				</g>
				<g class="measure" id="measure-L17">
					<g class="staff" id="staff-L17F3N1">
						<path d="M8743 720 L10275 720" stroke="#000000" stroke-width="13" />
						<path d="M8743 900 L10275 900" stroke="#000000" stroke-width="13" />
						<path d="M8743 1080 L10275 1080" stroke="#000000" stroke-width="13" />
						<path d="M8743 1260 L10275 1260" stroke="#000000" stroke-width="13" />
						<path d="M8743 1440 L10275 1440" stroke="#000000" stroke-width="13" />
						<g class="layer" id="layer-L17F3N1">
							<g class="mRest" id="mrest-L18F3">
								<rect x="9387" y="900" height="90" width="216" />
							</g>
						</g>
					</g>
					<g class="staff" id="staff-L17F2N1">
						<path d="M8743 2160 L10275 2160" stroke="#000000" stroke-width="13" />
						<path d="M8743 2340 L10275 2340" stroke="#000000" stroke-width="13" />
						<path d="M8743 2520 L10275 2520" stroke="#000000" stroke-width="13" />
						<path d="M8743 2700 L10275 2700" stroke="#000000" stroke-width="13" />
						<path d="M8743 2880 L10275 2880" stroke="#000000" stroke-width="13" />
						<g class="layer" id="layer-L17F2N1">
							<g class="mRest" id="mrest-L18F2">
								<rect x="9387" y="2340" height="90" width="216" />
							</g>
						</g>
					</g>
					<g class="staff" id="staff-L17F1N1">
						<path d="M8743 3600 L10275 3600" stroke="#000000" stroke-width="13" />
						<path d="M8743 3780 L10275 3780" stroke="#000000" stroke-width="13" />
						<path d="M8743 3960 L10275 3960" stroke="#000000" stroke-width="13" />
						<path d="M8743 4140 L10275 4140" stroke="#000000" stroke-width="13" />
						<path d="M8743 4320 L10275 4320" stroke="#000000" stroke-width="13" />
						<g class="layer" id="layer-L17F1N1">
							<g class="mRest" id="mrest-L18F1">
								<rect x="9387" y="3780" height="90" width="216" />
							</g>
						</g>
					</g>
					<g class="mNum autogenerated" id="mnum-0000000735758359" />
					<g class="barLineAttr" id="bline-0000000219652201">
						<path d="M10262 1440 L10262 720" stroke="#000000" stroke-width="27" />
						<path d="M10262 2880 L10262 2160" stroke="#000000" stroke-width="27" />
						<path d="M10262 4320 L10262 3600" stroke="#000000" stroke-width="27" />
					</g>
				</g>
				<g class="measure" id="measure-L19">
					<g class="staff" id="staff-L19F3N1">
						<path d="M10275 720 L12470 720" stroke="#000000" stroke-width="13" />
						<path d="M10275 900 L12470 900" stroke="#000000" stroke-width="13" />
						<path d="M10275 1080 L12470 1080" stroke="#000000" stroke-width="13" />
						<path d="M10275 1260 L12470 1260" stroke="#000000" stroke-width="13" />
						<path d="M10275 1440 L12470 1440" stroke="#000000" stroke-width="13" />
						<g class="layer" id="layer-L19F3N1">
							<g class="rest" id="rest-L20F3">
								<use xlink:href="#E4E5" x="10476" y="1080" height="720px" width="720px" />
							</g>
							<g class="beam" id="beam-L21F3-L23F3">
								<polygon points="11244,1935 11974,1931 11974,1841 11244,1845 " />
								<polygon points="11244,1800 11613,1798 11613,1708 11244,1710 " />
								<g class="rest" id="rest-L21F3">
									<use xlink:href="#E4E7" x="11244" y="1080" height="720px" width="720px" />
								</g>
								<g class="note" id="note-L22F3">
									<use xlink:href="#E0A4" x="11604" y="630" height="720px" width="720px" />
									<g class="stem">
										<rect x="11604" y="652" height="1263" width="18" />
									</g>
									<g class="accid" id="accid-0000001961799467" />
								</g>
								<g class="rest" id="rest-L23F3">
									<use xlink:href="#E4E6" x="11956" y="1080" height="720px" width="720px" />
								</g>
							</g>
						</g>
					</g>
					<g class="staff" id="staff-L19F2N1">
						<path d="M10275 2160 L12470 2160" stroke="#000000" stroke-width="13" />
						<path d="M10275 2340 L12470 2340" stroke="#000000" stroke-width="13" />
						<path d="M10275 2520 L12470 2520" stroke="#000000" stroke-width="13" />
						<path d="M10275 2700 L12470 2700" stroke="#000000" stroke-width="13" />
						<path d="M10275 2880 L12470 2880" stroke="#000000" stroke-width="13" />
						<g class="layer" id="layer-L19F2N1">
							<g class="rest" id="rest-L20F2">
								<use xlink:href="#E4E5" x="10476" y="2520" height="720px" width="720px" />
							</g>
							<g class="beam" id="beam-L21F2-L23F2">
								<polygon points="11452,2026 12182,2028 12182,2118 11452,2116 " />
								<polygon points="11452,2161 11821,2162 11821,2252 11452,2251 " />
								<g class="rest" id="rest-L21F2">
									<use xlink:href="#E4E7" x="11244" y="2520" height="720px" width="720px" />
								</g>
								<g class="note" id="note-L22F2">
									<use xlink:href="#E0A4" x="11604" y="2970" height="720px" width="720px" />
									<g class="stem">
										<rect x="11812" y="2045" height="903" width="18" />
									</g>
									<g class="accid" id="accid-0000001540548993" />
								</g>
								<g class="rest" id="rest-L23F2">
									<use xlink:href="#E4E6" x="11956" y="2520" height="720px" width="720px" />
								</g>
							</g>
						</g>
					</g>
					<g class="staff" id="staff-L19F1N1">
						<path d="M10275 3600 L12470 3600" stroke="#000000" stroke-width="13" />
						<path d="M10275 3780 L12470 3780" stroke="#000000" stroke-width="13" />
						<path d="M10275 3960 L12470 3960" stroke="#000000" stroke-width="13" />
						<path d="M10275 4140 L12470 4140" stroke="#000000" stroke-width="13" />
						<path d="M10275 4320 L12470 4320" stroke="#000000" stroke-width="13" />
						<g class="layer" id="layer-L19F1N1">
							<g class="rest" id="rest-L20F1">
								<use xlink:href="#E4E5" x="10476" y="3960" height="720px" width="720px" />
							</g>
							<g class="beam" id="beam-L21F1-L23F1">
								<polygon points="11244,4815 11974,4812 11974,4722 11244,4725 " />
								<polygon points="11244,4680 11613,4679 11613,4589 11244,4590 " />
								<g class="rest" id="rest-L21F1">
									<use xlink:href="#E4E7" x="11244" y="3960" height="720px" width="720px" />
								</g>
								<g class="note" id="note-L22F1">
									<use xlink:href="#E0A4" x="11604" y="3690" height="720px" width="720px" />
									<g class="stem">
										<rect x="11604" y="3712" height="1084" width="18" />
									</g>
									<g class="accid" id="accid-0000002050243169" />
								</g>
								<g class="rest" id="rest-L23F1">
									<use xlink:href="#E4E6" x="11956" y="3960" height="720px" width="720px" />
								</g>
							</g>
						</g>
					</g>
					<g class="mNum autogenerated" id="mnum-0000000323637922" />
					<g class="barLineAttr" id="bline-0000001170349348">
						<path d="M12457 1440 L12457 720" stroke="#000000" stroke-width="27" />
						<path d="M12457 2880 L12457 2160" stroke="#000000" stroke-width="27" />
						<path d="M12457 4320 L12457 3600" stroke="#000000" stroke-width="27" />
					</g>
				</g>
				<g class="measure" id="measure-L24">
					<g class="staff" id="staff-L24F3N1">
						<path d="M12470 720 L14002 720" stroke="#000000" stroke-width="13" />
						<path d="M12470 900 L14002 900" stroke="#000000" stroke-width="13" />
						<path d="M12470 1080 L14002 1080" stroke="#000000" stroke-width="13" />
						<path d="M12470 1260 L14002 1260" stroke="#000000" stroke-width="13" />
						<path d="M12470 1440 L14002 1440" stroke="#000000" stroke-width="13" />
						<g class="layer" id="layer-L24F3N1">
							<g class="mRest" id="mrest-L25F3">
								<rect x="13114" y="900" height="90" width="216" />
							</g>
						</g>
					</g>
					<g class="staff" id="staff-L24F2N1">
						<path d="M12470 2160 L14002 2160" stroke="#000000" stroke-width="13" />
						<path d="M12470 2340 L14002 2340" stroke="#000000" stroke-width="13" />
						<path d="M12470 2520 L14002 2520" stroke="#000000" stroke-width="13" />
						<path d="M12470 2700 L14002 2700" stroke="#000000" stroke-width="13" />
						<path d="M12470 2880 L14002 2880" stroke="#000000" stroke-width="13" />
						<g class="layer" id="layer-L24F2N1">
							<g class="mRest" id="mrest-L25F2">
								<rect x="13114" y="2340" height="90" width="216" />
							</g>
						</g>
					</g>
					<g class="staff" id="staff-L24F1N1">
						<path d="M12470 3600 L14002 3600" stroke="#000000" stroke-width="13" />
						<path d="M12470 3780 L14002 3780" stroke="#000000" stroke-width="13" />
						<path d="M12470 3960 L14002 3960" stroke="#000000" stroke-width="13" />
						<path d="M12470 4140 L14002 4140" stroke="#000000" stroke-width="13" />
						<path d="M12470 4320 L14002 4320" stroke="#000000" stroke-width="13" />
						<g class="layer" id="layer-L24F1N1">
							<g class="mRest" id="mrest-L25F1">
								<rect x="13114" y="3780" height="90" width="216" />
							</g>
						</g>
					</g>
					<g class="mNum autogenerated" id="mnum-0000000900076026" />
					<g class="barLineAttr" id="bline-0000000033306746">
						<path d="M13989 1440 L13989 720" stroke="#000000" stroke-width="27" />
						<path d="M13989 2880 L13989 2160" stroke="#000000" stroke-width="27" />
						<path d="M13989 4320 L13989 3600" stroke="#000000" stroke-width="27" />
					</g>
				</g>
				<g class="measure" id="measure-L26">
					<g class="staff" id="staff-L26F3N1">
						<path d="M14002 720 L15998 720" stroke="#000000" stroke-width="13" />
						<path d="M14002 900 L15998 900" stroke="#000000" stroke-width="13" />
						<path d="M14002 1080 L15998 1080" stroke="#000000" stroke-width="13" />
						<path d="M14002 1260 L15998 1260" stroke="#000000" stroke-width="13" />
						<path d="M14002 1440 L15998 1440" stroke="#000000" stroke-width="13" />
						<g class="layer" id="layer-L26F3N1">
							<g class="mRest" id="mrest-L27F3">
								<rect x="14878" y="900" height="90" width="216" />
							</g>
						</g>
					</g>
					<g class="staff" id="staff-L26F2N1">
						<path d="M14002 2160 L15998 2160" stroke="#000000" stroke-width="13" />
						<path d="M14002 2340 L15998 2340" stroke="#000000" stroke-width="13" />
						<path d="M14002 2520 L15998 2520" stroke="#000000" stroke-width="13" />
						<path d="M14002 2700 L15998 2700" stroke="#000000" stroke-width="13" />
						<path d="M14002 2880 L15998 2880" stroke="#000000" stroke-width="13" />
						<g class="layer" id="layer-L26F2N1">
							<g class="rest" id="rest-L27F2">
								<use xlink:href="#E4E5" x="14203" y="2520" height="720px" width="720px" />
							</g>
							<g class="rest" id="rest-L28F2">
								<use xlink:href="#E4E5" x="14971" y="2520" height="720px" width="720px" />
							</g>
						</g>
					</g>
					<g class="staff" id="staff-L26F1N1">
						<path d="M14002 3600 L15998 3600" stroke="#000000" stroke-width="13" />
						<path d="M14002 3780 L15998 3780" stroke="#000000" stroke-width="13" />
						<path d="M14002 3960 L15998 3960" stroke="#000000" stroke-width="13" />
						<path d="M14002 4140 L15998 4140" stroke="#000000" stroke-width="13" />
						<path d="M14002 4320 L15998 4320" stroke="#000000" stroke-width="13" />
						<g class="layer" id="layer-L26F1N1">
							<g class="rest" id="rest-L27F1">
								<use xlink:href="#E4E5" x="14203" y="3960" height="720px" width="720px" />
							</g>
							<g class="beam" id="beam-L28F1-L29F1">
								<polygon points="14971,4815 15635,4750 15635,4660 14971,4725 " />
								<polygon points="15477,4630 15635,4615 15635,4525 15477,4540 " />
								<g class="rest" id="rest-L28F1">
									<use xlink:href="#E4E6" x="14971" y="3960" height="720px" width="720px" />
									<g class="dots" id="dots-0000001194091741">
										<ellipse cx="15259" cy="3870" rx="36" ry="36" />
									</g>
								</g>
								<g class="note" id="note-L29F1">
									<use xlink:href="#E0A4" x="15617" y="3600" height="720px" width="720px" />
									<g class="stem">
										<rect x="15617" y="3622" height="1110" width="18" />
									</g>
									<g class="accid" id="accid-0000001094146804" />
								</g>
							</g>
						</g>
					</g>
					<g class="mNum autogenerated" id="mnum-0000001333009651" />
					<g class="barLineAttr" id="bline-0000001144169387">
						<path d="M15985 1440 L15985 720" stroke="#000000" stroke-width="27" />
						<path d="M15985 2880 L15985 2160" stroke="#000000" stroke-width="27" />
						<path d="M15985 4320 L15985 3600" stroke="#000000" stroke-width="27" />
					</g>
				</g>
				<g class="measure" id="measure-L30">
					<g class="staff" id="staff-L30F3N1">
						<path d="M15998 720 L18472 720" stroke="#000000" stroke-width="13" />
						<path d="M15998 900 L18472 900" stroke="#000000" stroke-width="13" />
						<path d="M15998 1080 L18472 1080" stroke="#000000" stroke-width="13" />
						<path d="M15998 1260 L18472 1260" stroke="#000000" stroke-width="13" />
						<path d="M15998 1440 L18472 1440" stroke="#000000" stroke-width="13" />
						<g class="layer" id="layer-L30F3N1">
							<g class="rest" id="rest-L31F3">
								<use xlink:href="#E4E5" x="16416" y="1080" height="720px" width="720px" />
							</g>
							<g class="beam" id="beam-L33F3-L34F3">
								<polygon points="17414,1935 18110,1867 18110,1777 17414,1845 " />
								<polygon points="17952,1747 18110,1732 18110,1642 17952,1657 " />
								<g class="rest" id="rest-L33F3">
									<use xlink:href="#E4E6" x="17414" y="1080" height="720px" width="720px" />
									<g class="dots" id="dots-0000000968864167">
										<ellipse cx="17702" cy="990" rx="36" ry="36" />
									</g>
								</g>
								<g class="note" id="note-L34F3">
									<use xlink:href="#E0A4" x="18092" y="990" height="720px" width="720px" />
									<g class="stem">
										<rect x="18092" y="1012" height="837" width="18" />
									</g>
									<g class="accid" id="accid-0000001322528281">
										<use xlink:href="#E262" x="17897" y="990" height="720px" width="720px" />
									</g>
								</g>
							</g>
						</g>
					</g>
					<g class="staff" id="staff-L30F2N1">
						<path d="M15998 2160 L18472 2160" stroke="#000000" stroke-width="13" />
						<path d="M15998 2340 L18472 2340" stroke="#000000" stroke-width="13" />
						<path d="M15998 2520 L18472 2520" stroke="#000000" stroke-width="13" />
						<path d="M15998 2700 L18472 2700" stroke="#000000" stroke-width="13" />
						<path d="M15998 2880 L18472 2880" stroke="#000000" stroke-width="13" />
						<g class="ledgerLines below">
							<path d="M16385 3060 L16664 3060" stroke="#000000" stroke-width="22" />
							<path d="M18061 3060 L18340 3060" stroke="#000000" stroke-width="22" />
						</g>
						<g class="layer" id="layer-L30F2N1">
							<g class="beam" id="beam-L31F2-L32F2">
								<polygon points="16624,2364 16994,2329 16994,2419 16624,2454 " />
								<polygon points="16624,2499 16782,2484 16782,2574 16624,2589 " />
								<g class="note" id="note-L31F2">
									<use xlink:href="#E0A4" x="16416" y="3060" height="720px" width="720px" />
									<g class="stem">
										<rect x="16624" y="2382" height="656" width="18" />
									</g>
									<g class="accid" id="accid-0000001434164844">
										<use xlink:href="#E262" x="16221" y="3060" height="720px" width="720px" />
									</g>
								</g>
								<g class="rest" id="rest-L32F2">
									<use xlink:href="#E4E6" x="16768" y="2520" height="720px" width="720px" />
									<g class="dots" id="dots-0000000148729304">
										<ellipse cx="17056" cy="2430" rx="36" ry="36" />
									</g>
								</g>
							</g>
							<g class="beam" id="beam-L33F2-L34F2">
								<polygon points="17622,2047 18318,2115 18318,2205 17622,2137 " />
								<polygon points="18160,2235 18318,2250 18318,2340 18160,2325 " />
								<g class="rest" id="rest-L33F2">
									<use xlink:href="#E4E6" x="17414" y="2520" height="720px" width="720px" />
									<g class="dots" id="dots-0000000022447220">
										<ellipse cx="17702" cy="2430" rx="36" ry="36" />
									</g>
								</g>
								<g class="note" id="note-L34F2">
									<use xlink:href="#E0A4" x="18092" y="3060" height="720px" width="720px" />
									<g class="stem">
										<rect x="18300" y="2133" height="905" width="18" />
									</g>
									<g class="accid" id="accid-0000002000455393" />
								</g>
							</g>
						</g>
					</g>
					<g class="staff" id="staff-L30F1N1">
						<path d="M15998 3600 L18472 3600" stroke="#000000" stroke-width="13" />
						<path d="M15998 3780 L18472 3780" stroke="#000000" stroke-width="13" />
						<path d="M15998 3960 L18472 3960" stroke="#000000" stroke-width="13" />
						<path d="M15998 4140 L18472 4140" stroke="#000000" stroke-width="13" />
						<path d="M15998 4320 L18472 4320" stroke="#000000" stroke-width="13" />
						<g class="layer" id="layer-L30F1N1">
							<g class="beam" id="beam-L31F1-L32F1">
								<polygon points="16416,4636 16786,4672 16786,4582 16416,4546 " />
								<polygon points="16416,4501 16574,4516 16574,4426 16416,4411 " />
								<g class="note" id="note-L31F1">
									<use xlink:href="#E0A4" x="16416" y="3960" height="720px" width="720px" />
									<g class="stem">
										<rect x="16416" y="3982" height="636" width="18" />
									</g>
									<g class="accid" id="accid-0000000633261319" />
								</g>
								<g class="rest" id="rest-L32F1">
									<use xlink:href="#E4E6" x="16768" y="3960" height="720px" width="720px" />
									<g class="dots" id="dots-0000001933772074">
										<ellipse cx="17056" cy="3870" rx="36" ry="36" />
									</g>
								</g>
							</g>
							<g class="beam" id="beam-L33F1-L34F1">
								<polygon points="17414,4815 18110,4747 18110,4657 17414,4725 " />
								<polygon points="17952,4627 18110,4612 18110,4522 17952,4537 " />
								<g class="rest" id="rest-L33F1">
									<use xlink:href="#E4E6" x="17414" y="3960" height="720px" width="720px" />
									<g class="dots" id="dots-0000000889734020">
										<ellipse cx="17702" cy="3870" rx="36" ry="36" />
									</g>
								</g>
								<g class="note" id="note-L34F1">
									<use xlink:href="#E0A4" x="18092" y="3690" height="720px" width="720px" />
									<g class="stem">
										<rect x="18092" y="3712" height="1017" width="18" />
									</g>
									<g class="accid" id="accid-0000001038558369" />
								</g>
							</g>
						</g>
					</g>
					<g class="mNum autogenerated" id="mnum-0000000141806872" />
					<g class="barLineAttr" id="bline-0000000890810915">
						<path d="M18459 1440 L18459 720" stroke="#000000" stroke-width="27" />
						<path d="M18459 2880 L18459 2160" stroke="#000000" stroke-width="27" />
						<path d="M18459 4320 L18459 3600" stroke="#000000" stroke-width="27" />
					</g>
				</g>
				<g class="measure" id="measure-L35">
					<g class="staff" id="staff-L35F3N1">
						<path d="M18472 720 L20004 720" stroke="#000000" stroke-width="13" />
						<path d="M18472 900 L20004 900" stroke="#000000" stroke-width="13" />
						<path d="M18472 1080 L20004 1080" stroke="#000000" stroke-width="13" />
						<path d="M18472 1260 L20004 1260" stroke="#000000" stroke-width="13" />
						<path d="M18472 1440 L20004 1440" stroke="#000000" stroke-width="13" />
						<g class="layer" id="layer-L35F3N1">
							<g class="mRest" id="mrest-L36F3">
								<rect x="19116" y="900" height="90" width="216" />
							</g>
						</g>
					</g>
					<g class="staff" id="staff-L35F2N1">
						<path d="M18472 2160 L20004 2160" stroke="#000000" stroke-width="13" />
						<path d="M18472 2340 L20004 2340" stroke="#000000" stroke-width="13" />
						<path d="M18472 2520 L20004 2520" stroke="#000000" stroke-width="13" />
						<path d="M18472 2700 L20004 2700" stroke="#000000" stroke-width="13" />
						<path d="M18472 2880 L20004 2880" stroke="#000000" stroke-width="13" />
						<g class="layer" id="layer-L35F2N1">
							<g class="mRest" id="mrest-L36F2">
								<rect x="19116" y="2340" height="90" width="216" />
							</g>
						</g>
					</g>
					<g class="staff" id="staff-L35F1N1">
						<path d="M18472 3600 L20004 3600" stroke="#000000" stroke-width="13" />
						<path d="M18472 3780 L20004 3780" stroke="#000000" stroke-width="13" />
						<path d="M18472 3960 L20004 3960" stroke="#000000" stroke-width="13" />
						<path d="M18472 4140 L20004 4140" stroke="#000000" stroke-width="13" />
						<path d="M18472 4320 L20004 4320" stroke="#000000" stroke-width="13" />
						<g class="layer" id="layer-L35F1N1">
							<g class="mRest" id="mrest-L36F1">
								<rect x="19116" y="3780" height="90" width="216" />
							</g>
						</g>
					</g>
					<g class="mNum autogenerated" id="mnum-0000000614998714" />
					<g class="barLineAttr" id="bline-0000000672664938">
						<path d="M19991 1440 L19991 720" stroke="#000000" stroke-width="27" />
						<path d="M19991 2880 L19991 2160" stroke="#000000" stroke-width="27" />
						<path d="M19991 4320 L19991 3600" stroke="#000000" stroke-width="27" />
					</g>
				</g>
			</g>
		</g>
	</svg>
</svg>
