<?xml version="1.0" encoding="UTF-8" standalone="no"?>
<svg width="2100.00px" height="450.00px" version="1.1" xmlns="http://www.w3.org/2000/svg" xmlns:xlink="http://www.w3.org/1999/xlink" overflow="visible">
	<desc>Engraved by Verovio 2.0.0-dev-0f0381c</desc>
	<defs>
		<symbol id="E050" viewBox="0 0 1000 1000" overflow="inherit">
			<path transform="scale(1,-1)" d="M441 -245c-23 -4 -48 -6 -76 -6c-59 0 -102 7 -130 20c-88 42 -150 93 -187 154c-26 44 -43 103 -48 176c-4 60 11 123 44 189c29 57 65 106 110 148s96 85 153 127c-3 16 -8 46 -13 92c-4 43 -5 73 -5 89c0 117 16 172 69 257c34 54 64 82 89 82c21 0 43 -30 69 -92 s39 -115 41 -159c2 -120 -19 -173 -67 -256c-13 -20 -63 -90 -98 -118c-13 -9 -25 -19 -37 -29l31 -181c8 1 18 2 28 2c58 0 102 -12 133 -35c59 -43 92 -104 98 -184c11 -135 -80 -229 -180 -270c8 -57 17 -110 25 -162c5 -31 6 -58 6 -80c0 -30 -5 -53 -14 -70 c-35 -64 -88 -99 -158 -103c-42 -3 -83 6 -124 26c-50 24 -77 59 -80 105c-2 34 5 63 20 87c18 28 45 42 79 44c51 4 99 -40 103 -87c4 -56 -30 -94 -105 -115c17 -24 51 -36 102 -36c62 0 116 43 140 85c9 16 13 41 13 74c0 20 -1 42 -5 67c-8 53 -18 106 -26 159zM461 939 c-95 0 -135 -175 -135 -286c0 -24 2 -48 5 -71c50 39 92 82 127 128c43 57 63 106 60 148c-4 54 -23 82 -57 81zM406 119l54 -326c80 27 116 88 109 184c-7 99 -62 146 -163 142zM382 117c-74 -2 -132 -50 -128 -127c2 -46 43 -99 75 -115c-3 -2 -7 -5 -10 -10 c-70 33 -116 88 -123 172c-5 73 42 135 88 170c23 17 49 29 78 36l-29 170c-21 -13 -52 -37 -92 -73c-50 -44 -86 -84 -109 -119c-49 -75 -71 -140 -67 -195c5 -68 35 -127 93 -176s125 -73 203 -73c25 0 50 3 75 9c-19 111 -36 221 -54 331z" />
		</symbol>
		<symbol id="E082" viewBox="0 0 1000 1000" overflow="inherit">
			<path transform="scale(1,-1)" d="M104 -185c-18 0 -55 -14 -65 -65h-36l-3 29c0 25 6 46 18 64c11 19 22 30 39 43l121 82l37 29c15 11 27 29 38 54c12 24 18 47 18 70c0 40 -19 88 -94 88c-25 0 -32 0 -50 -8c-14 -5 -23 -12 -26 -22c3 -9 7 -15 10 -18l24 -17c12 -7 17 -11 27 -21c5 -7 7 -16 7 -27 c0 -12 0 -57 -79 -74c-30 0 -76 26 -76 94c0 66 80 135 196 135c72 0 182 -32 182 -150c0 -53 -32 -95 -113 -133l-91 -41c-26 -11 -45 -23 -57 -37l49 7c84 0 115 -41 148 -41c20 0 33 20 39 61h35c0 -152 -68 -168 -114 -168c-17 0 -55 0 -69 7v0l-28 17 c-49 37 -69 40 -87 42z" />
		</symbol>
		<symbol id="E084" viewBox="0 0 1000 1000" overflow="inherit">
			<path transform="scale(1,-1)" d="M0 -78c84 97 114 180 134 329h170c-13 -32 -82 -132 -99 -151l-84 -97c-33 -36 -59 -63 -80 -81h162v102l127 123v-225h57v-39h-57v-34c0 -43 19 -65 57 -65v-34h-244v36c48 0 60 26 60 70v27h-203v39z" />
		</symbol>
		<symbol id="E4E6" viewBox="0 0 1000 1000" overflow="inherit">
			<path transform="scale(1,-1)" d="M0 123c7 34 33 56 69 60c29 -3 43 -9 53 -29c4 -8 7 -15 10 -22c0 -21 -1 -25 -11 -35c-5 -8 -18 -14 -40 -20l12 -3l15 -1c44 0 97 26 122 56c10 11 18 26 24 42c7 1 15 2 22 3l-140 -424h-36l111 330c-10 -6 -27 -12 -53 -16l-52 -8h-10l-20 1c-1 0 -8 3 -21 6 c-37 9 -55 28 -55 60z" />
		</symbol>
		<symbol id="E0A4" viewBox="0 0 1000 1000" overflow="inherit">
			<path transform="scale(1,-1)" d="M0 -39c0 68 73 172 200 172c66 0 114 -37 114 -95c0 -84 -106 -171 -218 -171c-64 0 -96 30 -96 94z" />
		</symbol>
		<symbol id="E260" viewBox="0 0 1000 1000" overflow="inherit">
			<path transform="scale(1,-1)" d="M20 110c32 16 54 27 93 27c26 0 35 -3 54 -13c13 -7 24 -20 27 -38l4 -25c0 -28 -16 -57 -45 -89c-23 -25 -39 -44 -65 -68l-88 -79v644h20v-359zM90 106c-32 0 -48 -10 -70 -29v-194c31 31 54 59 71 84c21 32 32 59 32 84c0 9 1 16 1 20c0 14 -3 21 -11 30l-8 3z" />
		</symbol>
		<symbol id="E062" viewBox="0 0 1000 1000" overflow="inherit">
			<path transform="scale(1,-1)" d="M158 96c51 0 73 -14 88 -49l16 -39c0 -17 -2 -30 -7 -40c-3 -11 -10 -21 -19 -31c-17 -18 -49 -43 -84 -43c-55 0 -77 13 -112 44c-24 21 -35 55 -35 100c0 46 14 81 32 112c30 52 71 79 137 93l36 6l26 2c154 0 235 -68 274 -182c11 -32 18 -68 18 -107 c0 -103 -26 -182 -68 -250c-89 -145 -234 -230 -412 -288l-30 -5c-9 0 -14 3 -14 8c3 10 5 11 10 16c35 15 70 30 96 44l78 43c96 57 162 136 197 258c9 33 17 60 22 100c3 22 5 35 6 39c-7 69 -16 115 -23 140s-4 22 -16 40c-8 12 -19 23 -31 34c-24 21 -62 44 -118 44 c-48 0 -84 -8 -113 -28c-28 -19 -42 -44 -42 -73v-16c2 -5 3 -9 4 -11c24 22 52 39 84 39zM585 -118c0 32 23 58 57 58c18 0 33 -6 40 -18c9 -15 16 -18 16 -40c0 -9 -2 -16 -5 -21c-6 -19 -27 -37 -51 -37c-34 0 -57 26 -57 58zM642 177c31 0 56 -27 56 -58 c0 -30 -25 -58 -56 -58l-23 3c-19 7 -34 32 -34 55l3 23c9 20 28 35 54 35z" />
		</symbol>
		<symbol id="E262" viewBox="0 0 1000 1000" overflow="inherit">
			<path transform="scale(1,-1)" d="M136 186v169h17v-164l44 14v-91l-44 -14v-165l44 12v-91l-44 -13v-155h-17v150l-76 -22v-155h-17v149l-43 -13v90l43 14v167l-43 -14v92l43 13v169h17v-163zM60 73v-167l76 22v168z" />
		</symbol>
	</defs>
	<style type="text/css">g.page-margin{font-family:Times;} g.tempo{font-weight:bold;} g.dir, g.dynam, g.mNum{font-style:italic;} g.label{font-weight:normal;}</style>
	<svg class="definition-scale" viewBox="0 0 21000 4500">
		<g class="page-margin" transform="translate(500, 500)">
			<g class="system" id="system-0000000965612834">
				<path d="M13 720 L13 2880" stroke="#000000" stroke-width="27" />
				<path d="M-32,2862 C-392,2322 58,1980 -212,1800 C121,1980 -329,2322 -32,2862" stroke="#000000" stroke-linecap="round" stroke-linejoin="round" stroke-width="18" />
				<path d="M-32,738 C-329,1278 121,1620 -212,1800 C58,1620 -392,1278 -32,738" stroke="#000000" stroke-linecap="round" stroke-linejoin="round" stroke-width="18" />
				<g class="section boundaryStart" id="section-L1F1" />
				<g class="measure" id="measure-L4">
					<g class="staff" id="staff-L4F2N1">
						<path d="M0 720 L4981 720" stroke="#000000" stroke-width="13" />
						<path d="M0 900 L4981 900" stroke="#000000" stroke-width="13" />
						<path d="M0 1080 L4981 1080" stroke="#000000" stroke-width="13" />
						<path d="M0 1260 L4981 1260" stroke="#000000" stroke-width="13" />
						<path d="M0 1440 L4981 1440" stroke="#000000" stroke-width="13" />
						<g class="clef" id="clef-0000001481622454">
							<use xlink:href="#E050" x="90" y="1260" height="720px" width="720px" />
						</g>
						<g class="meterSig" id="msig-0000001555697413">
							<use xlink:href="#E082" x="771" y="900" height="720px" width="720px" />
							<use xlink:href="#E084" x="777" y="1260" height="720px" width="720px" />
						</g>
						<g class="layer" id="layer-L4F2N1">
							<g class="beam" id="beam-L5F2-L8F2">
								<polygon points="1566,585 2904,585 2904,675 1566,675 " />
								<polygon points="2746,720 2904,720 2904,810 2746,810 " />
								<g class="rest" id="rest-L5F2">
									<use xlink:href="#E4E6" x="1358" y="1080" height="720px" width="720px" />
									<g class="dots" id="dots-0000000679659753">
										<ellipse cx="1646" cy="990" rx="36" ry="36" />
									</g>
								</g>
								<g class="note" id="note-L8F2">
									<use xlink:href="#E0A4" x="2678" y="1260" height="720px" width="720px" />
									<g class="stem">
										<rect x="2886" y="603" height="635" width="18" />
									</g>
									<g class="accid" id="accid-0000001639987120" />
								</g>
							</g>
							<g class="beam" id="beam-L9F2-L12F2">
								<polygon points="3250,471 4814,316 4814,406 3250,561 " />
								<polygon points="3250,606 4814,451 4814,541 3250,696 " />
								<g class="note" id="note-L9F2">
									<use xlink:href="#E0A4" x="3042" y="1350" height="720px" width="720px" />
									<g class="stem">
										<rect x="3250" y="489" height="839" width="18" />
									</g>
									<g class="accid" id="accid-0000000436593348" />
								</g>
								<g class="note" id="note-L10F2">
									<use xlink:href="#E0A4" x="3633" y="1440" height="720px" width="720px" />
									<g class="stem">
										<rect x="3841" y="430" height="988" width="18" />
									</g>
									<g class="accid" id="accid-0000000674180271">
										<use xlink:href="#E260" x="3437" y="1440" height="720px" width="720px" />
									</g>
								</g>
								<g class="note" id="note-L11F2">
									<use xlink:href="#E0A4" x="4223" y="1080" height="720px" width="720px" />
									<g class="stem">
										<rect x="4431" y="371" height="687" width="18" />
									</g>
									<g class="accid" id="accid-0000001411112372">
										<use xlink:href="#E260" x="4027" y="1080" height="720px" width="720px" />
									</g>
								</g>
								<g class="note" id="note-L12F2">
									<use xlink:href="#E0A4" x="4588" y="990" height="720px" width="720px" />
									<g class="stem">
										<rect x="4796" y="334" height="634" width="18" />
									</g>
									<g class="accid" id="accid-0000000503234428" />
								</g>
							</g>
						</g>
					</g>
					<g class="staff" id="staff-L4F1N1">
						<path d="M0 2160 L4981 2160" stroke="#000000" stroke-width="13" />
						<path d="M0 2340 L4981 2340" stroke="#000000" stroke-width="13" />
						<path d="M0 2520 L4981 2520" stroke="#000000" stroke-width="13" />
						<path d="M0 2700 L4981 2700" stroke="#000000" stroke-width="13" />
						<path d="M0 2880 L4981 2880" stroke="#000000" stroke-width="13" />
						<g class="clef" id="clef-0000000993018066">
							<use xlink:href="#E062" x="90" y="2340" height="720px" width="720px" />
						</g>
						<g class="meterSig" id="msig-0000001559214425">
							<use xlink:href="#E082" x="771" y="2340" height="720px" width="720px" />
							<use xlink:href="#E084" x="777" y="2700" height="720px" width="720px" />
						</g>
						<g class="layer" id="layer-L4F1N1">
							<g class="beam" id="beam-L5F1-L8F1">
								<polygon points="1358,3285 2696,3178 2696,3088 1358,3195 " />
								<polygon points="1358,3150 2696,3043 2696,2953 1358,3060 " />
								<g class="note" id="note-L5F1">
									<use xlink:href="#E0A4" x="1358" y="2610" height="720px" width="720px" />
									<g class="stem">
										<rect x="1358" y="2632" height="635" width="18" />
									</g>
									<g class="accid" id="accid-0000002096487735" />
								</g>
								<g class="note" id="note-L6F1">
									<use xlink:href="#E0A4" x="1723" y="2250" height="720px" width="720px" />
									<g class="stem">
										<rect x="1723" y="2272" height="965" width="18" />
									</g>
									<g class="accid" id="accid-0000001140692742" />
								</g>
								<g class="note" id="note-L7F1">
									<use xlink:href="#E0A4" x="2087" y="2340" height="720px" width="720px" />
									<g class="stem">
										<rect x="2087" y="2362" height="846" width="18" />
									</g>
									<g class="accid" id="accid-0000000501745358" />
								</g>
								<g class="note" id="note-L8F1">
									<use xlink:href="#E0A4" x="2678" y="2430" height="720px" width="720px" />
									<g class="stem">
										<rect x="2678" y="2452" height="708" width="18" />
									</g>
									<g class="accid" id="accid-0000001293689464">
										<use xlink:href="#E260" x="2482" y="2430" height="720px" width="720px" />
									</g>
								</g>
							</g>
							<g class="beam" id="beam-L9F1-L12F1">
								<polygon points="3042,3123 4606,3099 4606,3009 3042,3033 " />
								<polygon points="3042,2988 4606,2964 4606,2874 3042,2898 " />
								<g class="note" id="note-L9F1">
									<use xlink:href="#E0A4" x="3042" y="2430" height="720px" width="720px" />
									<g class="stem">
										<rect x="3042" y="2452" height="653" width="18" />
									</g>
									<g class="accid" id="accid-0000000571316204" />
								</g>
								<g class="note" id="note-L10F1">
									<use xlink:href="#E0A4" x="3633" y="2250" height="720px" width="720px" />
									<g class="stem">
										<rect x="3633" y="2272" height="824" width="18" />
									</g>
									<g class="accid" id="accid-0000001727671953" />
								</g>
								<g class="note" id="note-L11F1">
									<use xlink:href="#E0A4" x="4223" y="2430" height="720px" width="720px" />
									<g class="stem">
										<rect x="4223" y="2452" height="635" width="18" />
									</g>
									<g class="accid" id="accid-0000000718557188" />
								</g>
								<g class="note" id="note-L12F1">
									<use xlink:href="#E0A4" x="4588" y="2340" height="720px" width="720px" />
									<g class="stem">
										<rect x="4588" y="2362" height="719" width="18" />
									</g>
									<g class="accid" id="accid-0000000351958131" />
								</g>
							</g>
						</g>
					</g>
					<g class="tie" id="tie-L8F1-L9F1">
						<path d="M2791,2295 C2882,2153 3064,2153 3155,2295 C3064,2197 2882,2197 2791,2295" stroke="#000000" stroke-linecap="round" stroke-linejoin="round" stroke-width="9" />
					</g>
					<g class="tie" id="tie-L12F2-L14F2">
						<path d="M4836,1035 C4975,1133 5253,1133 5393,1035 C5253,1177 4975,1177 4836,1035" stroke="#000000" stroke-linecap="round" stroke-linejoin="round" stroke-width="9" />
					</g>
					<g class="mNum autogenerated" id="mnum-0000001565238923" />
					<g class="barLineAttr" id="bline-0000001944566382">
						<path d="M4968 2880 L4968 720" stroke="#000000" stroke-width="27" />
					</g>
				</g>
				<g class="measure" id="measure-L13">
					<g class="staff" id="staff-L13F2N1">
						<path d="M4981 720 L9002 720" stroke="#000000" stroke-width="13" />
						<path d="M4981 900 L9002 900" stroke="#000000" stroke-width="13" />
						<path d="M4981 1080 L9002 1080" stroke="#000000" stroke-width="13" />
						<path d="M4981 1260 L9002 1260" stroke="#000000" stroke-width="13" />
						<path d="M4981 1440 L9002 1440" stroke="#000000" stroke-width="13" />
						<g class="layer" id="layer-L13F2N1">
							<g class="beam" id="beam-L14F2-L17F2">
								<polygon points="5623,316 7187,471 7187,561 5623,406 " />
								<polygon points="5623,451 7187,606 7187,696 5623,541 " />
								<g class="note" id="note-L14F2">
									<use xlink:href="#E0A4" x="5415" y="990" height="720px" width="720px" />
									<g class="stem">
										<rect x="5623" y="334" height="634" width="18" />
									</g>
									<g class="accid" id="accid-0000000078560263" />
								</g>
								<g class="note" id="note-L15F2">
									<use xlink:href="#E0A4" x="6006" y="1260" height="720px" width="720px" />
									<g class="stem">
										<rect x="6214" y="393" height="845" width="18" />
									</g>
									<g class="accid" id="accid-0000000495994466">
										<use xlink:href="#E260" x="5810" y="1260" height="720px" width="720px" />
									</g>
								</g>
								<g class="note" id="note-L16F2">
									<use xlink:href="#E0A4" x="6596" y="1440" height="720px" width="720px" />
									<g class="stem">
										<rect x="6804" y="452" height="966" width="18" />
									</g>
									<g class="accid" id="accid-0000002123626976">
										<use xlink:href="#E260" x="6400" y="1440" height="720px" width="720px" />
									</g>
								</g>
								<g class="note" id="note-L17F2">
									<use xlink:href="#E0A4" x="6961" y="1350" height="720px" width="720px" />
									<g class="stem">
										<rect x="7169" y="489" height="839" width="18" />
									</g>
									<g class="accid" id="accid-0000000567366859" />
								</g>
							</g>
							<g class="beam" id="beam-L18F2-L21F2">
								<polygon points="7759,692 8834,586 8834,676 7759,782 " />
								<polygon points="7759,827 7917,812 7917,902 7759,917 " />
								<polygon points="8676,736 8834,721 8834,811 8676,826 " />
								<g class="note" id="note-L18F2">
									<use xlink:href="#E0A4" x="7551" y="1530" height="720px" width="720px" />
									<g class="stem">
										<rect x="7759" y="710" height="798" width="18" />
									</g>
									<g class="accid" id="accid-0000000638831261">
										<use xlink:href="#E260" x="7355" y="1530" height="720px" width="720px" />
									</g>
								</g>
								<g class="note" id="note-L19F2">
									<use xlink:href="#E0A4" x="7916" y="1440" height="720px" width="720px" />
									<g class="stem">
										<rect x="8124" y="673" height="745" width="18" />
									</g>
									<g class="accid" id="accid-0000000147424192" />
								</g>
								<g class="note" id="note-L21F2">
									<use xlink:href="#E0A4" x="8608" y="1260" height="720px" width="720px" />
									<g class="stem">
										<rect x="8816" y="604" height="634" width="18" />
									</g>
									<g class="accid" id="accid-0000000288779564" />
								</g>
							</g>
						</g>
					</g>
					<g class="staff" id="staff-L13F1N1">
						<path d="M4981 2160 L9002 2160" stroke="#000000" stroke-width="13" />
						<path d="M4981 2340 L9002 2340" stroke="#000000" stroke-width="13" />
						<path d="M4981 2520 L9002 2520" stroke="#000000" stroke-width="13" />
						<path d="M4981 2700 L9002 2700" stroke="#000000" stroke-width="13" />
						<path d="M4981 2880 L9002 2880" stroke="#000000" stroke-width="13" />
						<g class="layer" id="layer-L13F1N1">
							<g class="beam" id="beam-L14F1-L16F1">
								<polygon points="5415,3105 6614,2986 6614,2896 5415,3015 " />
								<polygon points="5415,2970 6015,2910 6015,2820 5415,2880 " />
								<g class="note" id="note-L14F1">
									<use xlink:href="#E0A4" x="5415" y="2430" height="720px" width="720px" />
									<g class="stem">
										<rect x="5415" y="2452" height="635" width="18" />
									</g>
									<g class="accid" id="accid-0000001145404890">
										<use xlink:href="#E260" x="5219" y="2430" height="720px" width="720px" />
									</g>
								</g>
								<g class="note" id="note-L15F1">
									<use xlink:href="#E0A4" x="6006" y="2070" height="720px" width="720px" />
									<g class="stem">
										<rect x="6006" y="2092" height="935" width="18" />
									</g>
									<g class="accid" id="accid-0000001629868435">
										<use xlink:href="#E260" x="5810" y="2070" height="720px" width="720px" />
									</g>
								</g>
								<g class="note" id="note-L16F1">
									<use xlink:href="#E0A4" x="6596" y="2250" height="720px" width="720px" />
									<g class="stem">
										<rect x="6596" y="2272" height="696" width="18" />
									</g>
									<g class="accid" id="accid-0000001941891979">
										<use xlink:href="#E260" x="6400" y="2250" height="720px" width="720px" />
									</g>
								</g>
							</g>
							<g class="beam" id="beam-L18F1-L20F1">
								<polygon points="7551,2880 8280,2808 8280,2718 7551,2790 " />
								<g class="note" id="note-L18F1">
									<use xlink:href="#E0A4" x="7551" y="2250" height="720px" width="720px" />
									<g class="stem">
										<rect x="7551" y="2272" height="590" width="18" />
									</g>
									<g class="accid" id="accid-0000000988370109" />
								</g>
								<g class="note" id="note-L20F1">
									<use xlink:href="#E0A4" x="8262" y="2160" height="720px" width="720px" />
									<g class="stem">
										<rect x="8262" y="2182" height="608" width="18" />
									</g>
									<g class="accid" id="accid-0000000010050495">
										<use xlink:href="#E260" x="8066" y="2160" height="720px" width="720px" />
									</g>
								</g>
							</g>
						</g>
					</g>
					<g class="tie" id="tie-L16F1-L18F1">
						<path d="M6844,2205 C7015,2063 7357,2063 7529,2205 C7357,2107 7015,2107 6844,2205" stroke="#000000" stroke-linecap="round" stroke-linejoin="round" stroke-width="9" />
					</g>
					<g class="tie" id="tie-L21F2-L23F2">
						<path d="M8856,1305 C8995,1403 9273,1403 9413,1305 C9273,1447 8995,1447 8856,1305" stroke="#000000" stroke-linecap="round" stroke-linejoin="round" stroke-width="9" />
					</g>
					<g class="mNum autogenerated" id="mnum-0000001818943772" />
					<g class="barLineAttr" id="bline-0000000919011562">
						<path d="M8989 2880 L8989 720" stroke="#000000" stroke-width="27" />
					</g>
				</g>
				<g class="measure" id="measure-L22">
					<g class="staff" id="staff-L22F2N1">
						<path d="M9002 720 L13055 720" stroke="#000000" stroke-width="13" />
						<path d="M9002 900 L13055 900" stroke="#000000" stroke-width="13" />
						<path d="M9002 1080 L13055 1080" stroke="#000000" stroke-width="13" />
						<path d="M9002 1260 L13055 1260" stroke="#000000" stroke-width="13" />
						<path d="M9002 1440 L13055 1440" stroke="#000000" stroke-width="13" />
						<g class="layer" id="layer-L22F2N1">
							<g class="beam" id="beam-L23F2-L26F2">
								<polygon points="9643,571 10979,481 10979,571 9643,661 " />
								<polygon points="10821,626 10979,616 10979,706 10821,716 " />
								<g class="note" id="note-L23F2">
									<use xlink:href="#E0A4" x="9435" y="1260" height="720px" width="720px" />
									<g class="dots" id="dots-0000002012094949">
										<ellipse cx="9751" cy="1170" rx="36" ry="36" />
									</g>
									<g class="stem">
										<rect x="9643" y="589" height="649" width="18" />
									</g>
									<g class="accid" id="accid-0000000310556382" />
								</g>
								<g class="note" id="note-L26F2">
									<use xlink:href="#E0A4" x="10753" y="1170" height="720px" width="720px" />
									<g class="stem">
										<rect x="10961" y="499" height="649" width="18" />
									</g>
									<g class="accid" id="accid-0000001249887465" />
								</g>
							</g>
							<g class="beam" id="beam-L27F2-L30F2">
								<polygon points="11326,471 12887,316 12887,406 11326,561 " />
								<polygon points="11326,606 12887,451 12887,541 11326,696 " />
								<g class="note" id="note-L27F2">
									<use xlink:href="#E0A4" x="11118" y="1440" height="720px" width="720px" />
									<g class="stem">
										<rect x="11326" y="489" height="929" width="18" />
									</g>
									<g class="accid" id="accid-0000001500786805" />
								</g>
								<g class="note" id="note-L28F2">
									<use xlink:href="#E0A4" x="11707" y="1350" height="720px" width="720px" />
									<g class="stem">
										<rect x="11915" y="430" height="898" width="18" />
									</g>
									<g class="accid" id="accid-0000001726897573">
										<use xlink:href="#E262" x="11512" y="1350" height="720px" width="720px" />
									</g>
								</g>
								<g class="note" id="note-L29F2">
									<use xlink:href="#E0A4" x="12072" y="1080" height="720px" width="720px" />
									<g class="stem">
										<rect x="12280" y="393" height="665" width="18" />
									</g>
									<g class="accid" id="accid-0000000219519988" />
								</g>
								<g class="note" id="note-L30F2">
									<use xlink:href="#E0A4" x="12661" y="990" height="720px" width="720px" />
									<g class="stem">
										<rect x="12869" y="334" height="634" width="18" />
									</g>
									<g class="accid" id="accid-0000001448981081">
										<use xlink:href="#E262" x="12466" y="990" height="720px" width="720px" />
									</g>
								</g>
							</g>
						</g>
					</g>
					<g class="staff" id="staff-L22F1N1">
						<path d="M9002 2160 L13055 2160" stroke="#000000" stroke-width="13" />
						<path d="M9002 2340 L13055 2340" stroke="#000000" stroke-width="13" />
						<path d="M9002 2520 L13055 2520" stroke="#000000" stroke-width="13" />
						<path d="M9002 2700 L13055 2700" stroke="#000000" stroke-width="13" />
						<path d="M9002 2880 L13055 2880" stroke="#000000" stroke-width="13" />
						<g class="layer" id="layer-L22F1N1">
							<g class="beam" id="beam-L23F1-L26F1">
								<polygon points="9435,3645 10771,3513 10771,3423 9435,3555 " />
								<polygon points="9435,3510 10771,3378 10771,3288 9435,3420 " />
								<g class="note" id="note-L23F1">
									<use xlink:href="#E0A4" x="9435" y="2970" height="720px" width="720px" />
									<g class="stem">
										<rect x="9435" y="2992" height="635" width="18" />
									</g>
									<g class="accid" id="accid-0000001260290721">
										<use xlink:href="#E262" x="9240" y="2970" height="720px" width="720px" />
									</g>
								</g>
								<g class="note" id="note-L24F1">
									<use xlink:href="#E0A4" x="9800" y="2160" height="720px" width="720px" />
									<g class="stem">
										<rect x="9800" y="2182" height="1408" width="18" />
									</g>
									<g class="accid" id="accid-0000001841888638" />
								</g>
								<g class="note" id="note-L25F1">
									<use xlink:href="#E0A4" x="10164" y="2430" height="720px" width="720px" />
									<g class="stem">
										<rect x="10164" y="2452" height="1102" width="18" />
									</g>
									<g class="accid" id="accid-0000000963251683" />
								</g>
								<g class="note" id="note-L26F1">
									<use xlink:href="#E0A4" x="10753" y="2340" height="720px" width="720px" />
									<g class="stem">
										<rect x="10753" y="2362" height="1133" width="18" />
									</g>
									<g class="accid" id="accid-0000001733024302">
										<use xlink:href="#E262" x="10558" y="2340" height="720px" width="720px" />
									</g>
								</g>
							</g>
							<g class="beam" id="beam-L27F1-L30F1">
								<polygon points="11118,3016 12679,3142 12679,3052 11118,2926 " />
								<polygon points="11118,2881 12679,3007 12679,2917 11118,2791 " />
								<g class="note" id="note-L27F1">
									<use xlink:href="#E0A4" x="11118" y="2340" height="720px" width="720px" />
									<g class="stem">
										<rect x="11118" y="2362" height="636" width="18" />
									</g>
									<g class="accid" id="accid-0000000181532304" />
								</g>
								<g class="note" id="note-L28F1">
									<use xlink:href="#E0A4" x="11707" y="2160" height="720px" width="720px" />
									<g class="stem">
										<rect x="11707" y="2182" height="864" width="18" />
									</g>
									<g class="accid" id="accid-0000001599215717" />
								</g>
								<g class="note" id="note-L29F1">
									<use xlink:href="#E0A4" x="12072" y="2340" height="720px" width="720px" />
									<g class="stem">
										<rect x="12072" y="2362" height="714" width="18" />
									</g>
									<g class="accid" id="accid-0000000382182727" />
								</g>
								<g class="note" id="note-L30F1">
									<use xlink:href="#E0A4" x="12661" y="2430" height="720px" width="720px" />
									<g class="stem">
										<rect x="12661" y="2452" height="672" width="18" />
									</g>
									<g class="accid" id="accid-0000001237172933" />
								</g>
							</g>
						</g>
					</g>
					<g class="tie" id="tie-L26F1-L27F1">
						<path d="M10866,2205 C10957,2063 11139,2063 11231,2205 C11139,2107 10957,2107 10866,2205" stroke="#000000" stroke-linecap="round" stroke-linejoin="round" stroke-width="9" />
					</g>
					<g class="tie" id="tie-L30F2-L32F2">
						<path d="M12909,1035 C12992,1133 13158,1133 13241,1035 C13158,1177 12992,1177 12909,1035" stroke="#000000" stroke-linecap="round" stroke-linejoin="round" stroke-width="9" />
					</g>
					<g class="mNum autogenerated" id="mnum-0000001128862748" />
					<g class="barLineAttr" id="bline-0000001529655705">
						<path d="M13042 2880 L13042 720" stroke="#000000" stroke-width="27" />
					</g>
				</g>
				<g class="measure" id="measure-L31">
					<g class="staff" id="staff-L31F2N1">
						<path d="M13055 720 L16171 720" stroke="#000000" stroke-width="13" />
						<path d="M13055 900 L16171 900" stroke="#000000" stroke-width="13" />
						<path d="M13055 1080 L16171 1080" stroke="#000000" stroke-width="13" />
						<path d="M13055 1260 L16171 1260" stroke="#000000" stroke-width="13" />
						<path d="M13055 1440 L16171 1440" stroke="#000000" stroke-width="13" />
						<g class="ledgerLines below">
							<path d="M13961 1620 L14240 1620" stroke="#000000" stroke-width="22" />
							<path d="M15055 1620 L15334 1620" stroke="#000000" stroke-width="22" />
						</g>
						<g class="layer" id="layer-L31F2N1">
							<g class="beam" id="beam-L32F2-L35F2">
								<polygon points="13471,316 14583,426 14583,516 13471,406 " />
								<polygon points="13471,451 14583,561 14583,651 13471,541 " />
								<g class="note" id="note-L32F2">
									<use xlink:href="#E0A4" x="13263" y="990" height="720px" width="720px" />
									<g class="stem">
										<rect x="13471" y="334" height="634" width="18" />
									</g>
									<g class="accid" id="accid-0000001716118872" />
								</g>
								<g class="note" id="note-L33F2">
									<use xlink:href="#E0A4" x="13628" y="1440" height="720px" width="720px" />
									<g class="stem">
										<rect x="13836" y="371" height="1047" width="18" />
									</g>
									<g class="accid" id="accid-0000001317750568" />
								</g>
								<g class="note" id="note-L34F2">
									<use xlink:href="#E0A4" x="13992" y="1620" height="720px" width="720px" />
									<g class="stem">
										<rect x="14200" y="407" height="1191" width="18" />
									</g>
									<g class="accid" id="accid-0000000084011667" />
								</g>
								<g class="note" id="note-L35F2">
									<use xlink:href="#E0A4" x="14357" y="1350" height="720px" width="720px" />
									<g class="stem">
										<rect x="14565" y="444" height="884" width="18" />
									</g>
									<g class="accid" id="accid-0000001836958007" />
								</g>
							</g>
							<g class="beam" id="beam-L36F2-L39F2">
								<polygon points="14929,834 16004,728 16004,818 14929,924 " />
								<polygon points="14929,969 15087,954 15087,1044 14929,1059 " />
								<polygon points="15846,878 16004,863 16004,953 15846,968 " />
								<g class="note" id="note-L36F2">
									<use xlink:href="#E0A4" x="14721" y="1530" height="720px" width="720px" />
									<g class="stem">
										<rect x="14929" y="852" height="656" width="18" />
									</g>
									<g class="accid" id="accid-0000001584802349" />
								</g>
								<g class="note" id="note-L37F2">
									<use xlink:href="#E0A4" x="15086" y="1620" height="720px" width="720px" />
									<g class="stem">
										<rect x="15294" y="815" height="783" width="18" />
									</g>
									<g class="accid" id="accid-0000001356252336" />
								</g>
								<g class="note" id="note-L39F2">
									<use xlink:href="#E0A4" x="15778" y="1440" height="720px" width="720px" />
									<g class="stem">
										<rect x="15986" y="746" height="672" width="18" />
									</g>
									<g class="accid" id="accid-0000000947990160" />
								</g>
							</g>
						</g>
					</g>
					<g class="staff" id="staff-L31F1N1">
						<path d="M13055 2160 L16171 2160" stroke="#000000" stroke-width="13" />
						<path d="M13055 2340 L16171 2340" stroke="#000000" stroke-width="13" />
						<path d="M13055 2520 L16171 2520" stroke="#000000" stroke-width="13" />
						<path d="M13055 2700 L16171 2700" stroke="#000000" stroke-width="13" />
						<path d="M13055 2880 L16171 2880" stroke="#000000" stroke-width="13" />
						<g class="layer" id="layer-L31F1N1">
							<g class="beam" id="beam-L32F1-L34F1">
								<polygon points="13263,3465 14010,3392 14010,3302 13263,3375 " />
								<polygon points="13263,3330 13637,3293 13637,3203 13263,3240 " />
								<g class="note" id="note-L32F1">
									<use xlink:href="#E0A4" x="13263" y="2790" height="720px" width="720px" />
									<g class="stem">
										<rect x="13263" y="2812" height="635" width="18" />
									</g>
									<g class="accid" id="accid-0000001368205394" />
								</g>
								<g class="note" id="note-L33F1">
									<use xlink:href="#E0A4" x="13628" y="2160" height="720px" width="720px" />
									<g class="stem">
										<rect x="13628" y="2182" height="1228" width="18" />
									</g>
									<g class="accid" id="accid-0000000541830089" />
								</g>
								<g class="note" id="note-L34F1">
									<use xlink:href="#E0A4" x="13992" y="2430" height="720px" width="720px" />
									<g class="stem">
										<rect x="13992" y="2452" height="922" width="18" />
									</g>
									<g class="accid" id="accid-0000000980272404" />
								</g>
							</g>
							<g class="beam" id="beam-L36F1-L38F1">
								<polygon points="14721,3060 15450,2988 15450,2898 14721,2970 " />
								<g class="note" id="note-L36F1">
									<use xlink:href="#E0A4" x="14721" y="2430" height="720px" width="720px" />
									<g class="stem">
										<rect x="14721" y="2452" height="590" width="18" />
									</g>
									<g class="accid" id="accid-0000001424468377" />
								</g>
								<g class="note" id="note-L38F1">
									<use xlink:href="#E0A4" x="15432" y="2250" height="720px" width="720px" />
									<g class="stem">
										<rect x="15432" y="2272" height="698" width="18" />
									</g>
									<g class="accid" id="accid-0000001268015780" />
								</g>
							</g>
						</g>
					</g>
					<g class="tie" id="tie-L34F1-L36F1">
						<path d="M14240,2385 C14354,2243 14582,2243 14699,2385 C14582,2287 14354,2287 14240,2385" stroke="#000000" stroke-linecap="round" stroke-linejoin="round" stroke-width="9" />
					</g>
					<g class="tie" id="tie-L39F2-L41F2">
						<path d="M16026,1485 C16108,1583 16272,1583 16357,1485 C16272,1627 16108,1627 16026,1485" stroke="#000000" stroke-linecap="round" stroke-linejoin="round" stroke-width="9" />
					</g>
					<g class="mNum autogenerated" id="mnum-0000002124154376" />
					<g class="barLineAttr" id="bline-0000000042354190">
						<path d="M16158 2880 L16158 720" stroke="#000000" stroke-width="27" />
					</g>
				</g>
				<g class="measure" id="measure-L40">
					<g class="staff" id="staff-L40F2N1">
						<path d="M16171 720 L20002 720" stroke="#000000" stroke-width="13" />
						<path d="M16171 900 L20002 900" stroke="#000000" stroke-width="13" />
						<path d="M16171 1080 L20002 1080" stroke="#000000" stroke-width="13" />
						<path d="M16171 1260 L20002 1260" stroke="#000000" stroke-width="13" />
						<path d="M16171 1440 L20002 1440" stroke="#000000" stroke-width="13" />
						<g class="layer" id="layer-L40F2N1">
							<g class="beam" id="beam-L41F2-L44F2">
								<polygon points="16587,718 17925,586 17925,676 16587,808 " />
								<polygon points="17767,736 17925,721 17925,811 17767,826 " />
								<g class="note" id="note-L41F2">
									<use xlink:href="#E0A4" x="16379" y="1440" height="720px" width="720px" />
									<g class="dots" id="dots-0000000383587427">
										<ellipse cx="16695" cy="1350" rx="36" ry="36" />
									</g>
									<g class="stem">
										<rect x="16587" y="736" height="682" width="18" />
									</g>
									<g class="accid" id="accid-0000001756720999" />
								</g>
								<g class="note" id="note-L44F2">
									<use xlink:href="#E0A4" x="17699" y="1260" height="720px" width="720px" />
									<g class="stem">
										<rect x="17907" y="604" height="634" width="18" />
									</g>
									<g class="accid" id="accid-0000001273701233" />
								</g>
							</g>
							<g class="beam" id="beam-L45F2-L48F2">
								<polygon points="18271,471 19835,316 19835,406 18271,561 " />
								<polygon points="18271,606 19835,451 19835,541 18271,696 " />
								<g class="note" id="note-L45F2">
									<use xlink:href="#E0A4" x="18063" y="1350" height="720px" width="720px" />
									<g class="stem">
										<rect x="18271" y="489" height="839" width="18" />
									</g>
									<g class="accid" id="accid-0000001162166799" />
								</g>
								<g class="note" id="note-L46F2">
									<use xlink:href="#E0A4" x="18654" y="1440" height="720px" width="720px" />
									<g class="stem">
										<rect x="18862" y="430" height="988" width="18" />
									</g>
									<g class="accid" id="accid-0000000416362001">
										<use xlink:href="#E260" x="18458" y="1440" height="720px" width="720px" />
									</g>
								</g>
								<g class="note" id="note-L47F2">
									<use xlink:href="#E0A4" x="19244" y="1080" height="720px" width="720px" />
									<g class="stem">
										<rect x="19452" y="371" height="687" width="18" />
									</g>
									<g class="accid" id="accid-0000001456858857">
										<use xlink:href="#E260" x="19048" y="1080" height="720px" width="720px" />
									</g>
								</g>
								<g class="note" id="note-L48F2">
									<use xlink:href="#E0A4" x="19609" y="990" height="720px" width="720px" />
									<g class="stem">
										<rect x="19817" y="334" height="634" width="18" />
									</g>
									<g class="accid" id="accid-0000001474379216" />
								</g>
							</g>
						</g>
					</g>
					<g class="staff" id="staff-L40F1N1">
						<path d="M16171 2160 L20002 2160" stroke="#000000" stroke-width="13" />
						<path d="M16171 2340 L20002 2340" stroke="#000000" stroke-width="13" />
						<path d="M16171 2520 L20002 2520" stroke="#000000" stroke-width="13" />
						<path d="M16171 2700 L20002 2700" stroke="#000000" stroke-width="13" />
						<path d="M16171 2880 L20002 2880" stroke="#000000" stroke-width="13" />
						<g class="layer" id="layer-L40F1N1">
							<g class="beam" id="beam-L41F1-L44F1">
								<polygon points="16379,3285 17717,3178 17717,3088 16379,3195 " />
								<polygon points="16379,3150 17717,3043 17717,2953 16379,3060 " />
								<g class="note" id="note-L41F1">
									<use xlink:href="#E0A4" x="16379" y="2610" height="720px" width="720px" />
									<g class="stem">
										<rect x="16379" y="2632" height="635" width="18" />
									</g>
									<g class="accid" id="accid-0000001731387053" />
								</g>
								<g class="note" id="note-L42F1">
									<use xlink:href="#E0A4" x="16744" y="2250" height="720px" width="720px" />
									<g class="stem">
										<rect x="16744" y="2272" height="965" width="18" />
									</g>
									<g class="accid" id="accid-0000000797435716" />
								</g>
								<g class="note" id="note-L43F1">
									<use xlink:href="#E0A4" x="17108" y="2340" height="720px" width="720px" />
									<g class="stem">
										<rect x="17108" y="2362" height="846" width="18" />
									</g>
									<g class="accid" id="accid-0000000577677574" />
								</g>
								<g class="note" id="note-L44F1">
									<use xlink:href="#E0A4" x="17699" y="2430" height="720px" width="720px" />
									<g class="stem">
										<rect x="17699" y="2452" height="708" width="18" />
									</g>
									<g class="accid" id="accid-0000000738455716">
										<use xlink:href="#E260" x="17503" y="2430" height="720px" width="720px" />
									</g>
								</g>
							</g>
							<g class="beam" id="beam-L45F1-L48F1">
								<polygon points="18063,3123 19627,3099 19627,3009 18063,3033 " />
								<polygon points="18063,2988 19627,2964 19627,2874 18063,2898 " />
								<g class="note" id="note-L45F1">
									<use xlink:href="#E0A4" x="18063" y="2430" height="720px" width="720px" />
									<g class="stem">
										<rect x="18063" y="2452" height="653" width="18" />
									</g>
									<g class="accid" id="accid-0000000461588625" />
								</g>
								<g class="note" id="note-L46F1">
									<use xlink:href="#E0A4" x="18654" y="2250" height="720px" width="720px" />
									<g class="stem">
										<rect x="18654" y="2272" height="824" width="18" />
									</g>
									<g class="accid" id="accid-0000001641848763" />
								</g>
								<g class="note" id="note-L47F1">
									<use xlink:href="#E0A4" x="19244" y="2430" height="720px" width="720px" />
									<g class="stem">
										<rect x="19244" y="2452" height="635" width="18" />
									</g>
									<g class="accid" id="accid-0000001611930349" />
								</g>
								<g class="note" id="note-L48F1">
									<use xlink:href="#E0A4" x="19609" y="2340" height="720px" width="720px" />
									<g class="stem">
										<rect x="19609" y="2362" height="719" width="18" />
									</g>
									<g class="accid" id="accid-0000001606966357" />
								</g>
							</g>
						</g>
					</g>
					<g class="tie" id="tie-L44F1-L45F1">
						<path d="M17812,2295 C17903,2153 18085,2153 18176,2295 C18085,2197 17903,2197 17812,2295" stroke="#000000" stroke-linecap="round" stroke-linejoin="round" stroke-width="9" />
					</g>
					<g class="tie" id="tie-L48F2-L50F2">
						<path d="M19722,1125 C19788,1223 19920,1223 19989,1125 C19920,1267 19788,1267 19722,1125" stroke="#000000" stroke-linecap="round" stroke-linejoin="round" stroke-width="9" />
					</g>
					<g class="mNum autogenerated" id="mnum-0000000630646128" />
					<g class="barLineAttr" id="bline-0000001975523005">
						<path d="M19989 2880 L19989 720" stroke="#000000" stroke-width="27" />
					</g>
				</g>
			</g>
		</g>
	</svg>
</svg>
