<?xml version="1.0" encoding="UTF-8" standalone="no"?>
<svg width="2100.00px" height="450.00px" version="1.1" xmlns="http://www.w3.org/2000/svg" xmlns:xlink="http://www.w3.org/1999/xlink" overflow="visible">
	<desc>Engraved by Verovio 2.0.0-dev-0f0381c</desc>
	<defs>
		<symbol id="E050" viewBox="0 0 1000 1000" overflow="inherit">
			<path transform="scale(1,-1)" d="M441 -245c-23 -4 -48 -6 -76 -6c-59 0 -102 7 -130 20c-88 42 -150 93 -187 154c-26 44 -43 103 -48 176c-4 60 11 123 44 189c29 57 65 106 110 148s96 85 153 127c-3 16 -8 46 -13 92c-4 43 -5 73 -5 89c0 117 16 172 69 257c34 54 64 82 89 82c21 0 43 -30 69 -92 s39 -115 41 -159c2 -120 -19 -173 -67 -256c-13 -20 -63 -90 -98 -118c-13 -9 -25 -19 -37 -29l31 -181c8 1 18 2 28 2c58 0 102 -12 133 -35c59 -43 92 -104 98 -184c11 -135 -80 -229 -180 -270c8 -57 17 -110 25 -162c5 -31 6 -58 6 -80c0 -30 -5 -53 -14 -70 c-35 -64 -88 -99 -158 -103c-42 -3 -83 6 -124 26c-50 24 -77 59 -80 105c-2 34 5 63 20 87c18 28 45 42 79 44c51 4 99 -40 103 -87c4 -56 -30 -94 -105 -115c17 -24 51 -36 102 -36c62 0 116 43 140 85c9 16 13 41 13 74c0 20 -1 42 -5 67c-8 53 -18 106 -26 159zM461 939 c-95 0 -135 -175 -135 -286c0 -24 2 -48 5 -71c50 39 92 82 127 128c43 57 63 106 60 148c-4 54 -23 82 -57 81zM406 119l54 -326c80 27 116 88 109 184c-7 99 -62 146 -163 142zM382 117c-74 -2 -132 -50 -128 -127c2 -46 43 -99 75 -115c-3 -2 -7 -5 -10 -10 c-70 33 -116 88 -123 172c-5 73 42 135 88 170c23 17 49 29 78 36l-29 170c-21 -13 -52 -37 -92 -73c-50 -44 -86 -84 -109 -119c-49 -75 -71 -140 -67 -195c5 -68 35 -127 93 -176s125 -73 203 -73c25 0 50 3 75 9c-19 111 -36 221 -54 331z" />
		</symbol>
		<symbol id="E082" viewBox="0 0 1000 1000" overflow="inherit">
			<path transform="scale(1,-1)" d="M104 -185c-18 0 -55 -14 -65 -65h-36l-3 29c0 25 6 46 18 64c11 19 22 30 39 43l121 82l37 29c15 11 27 29 38 54c12 24 18 47 18 70c0 40 -19 88 -94 88c-25 0 -32 0 -50 -8c-14 -5 -23 -12 -26 -22c3 -9 7 -15 10 -18l24 -17c12 -7 17 -11 27 -21c5 -7 7 -16 7 -27 c0 -12 0 -57 -79 -74c-30 0 -76 26 -76 94c0 66 80 135 196 135c72 0 182 -32 182 -150c0 -53 -32 -95 -113 -133l-91 -41c-26 -11 -45 -23 -57 -37l49 7c84 0 115 -41 148 -41c20 0 33 20 39 61h35c0 -152 -68 -168 -114 -168c-17 0 -55 0 -69 7v0l-28 17 c-49 37 -69 40 -87 42z" />
		</symbol>
		<symbol id="E084" viewBox="0 0 1000 1000" overflow="inherit">
			<path transform="scale(1,-1)" d="M0 -78c84 97 114 180 134 329h170c-13 -32 -82 -132 -99 -151l-84 -97c-33 -36 -59 -63 -80 -81h162v102l127 123v-225h57v-39h-57v-34c0 -43 19 -65 57 -65v-34h-244v36c48 0 60 26 60 70v27h-203v39z" />
		</symbol>
		<symbol id="E0A4" viewBox="0 0 1000 1000" overflow="inherit">
			<path transform="scale(1,-1)" d="M0 -39c0 68 73 172 200 172c66 0 114 -37 114 -95c0 -84 -106 -171 -218 -171c-64 0 -96 30 -96 94z" />
		</symbol>
		<symbol id="E260" viewBox="0 0 1000 1000" overflow="inherit">
			<path transform="scale(1,-1)" d="M20 110c32 16 54 27 93 27c26 0 35 -3 54 -13c13 -7 24 -20 27 -38l4 -25c0 -28 -16 -57 -45 -89c-23 -25 -39 -44 -65 -68l-88 -79v644h20v-359zM90 106c-32 0 -48 -10 -70 -29v-194c31 31 54 59 71 84c21 32 32 59 32 84c0 9 1 16 1 20c0 14 -3 21 -11 30l-8 3z" />
		</symbol>
		<symbol id="E062" viewBox="0 0 1000 1000" overflow="inherit">
			<path transform="scale(1,-1)" d="M158 96c51 0 73 -14 88 -49l16 -39c0 -17 -2 -30 -7 -40c-3 -11 -10 -21 -19 -31c-17 -18 -49 -43 -84 -43c-55 0 -77 13 -112 44c-24 21 -35 55 -35 100c0 46 14 81 32 112c30 52 71 79 137 93l36 6l26 2c154 0 235 -68 274 -182c11 -32 18 -68 18 -107 c0 -103 -26 -182 -68 -250c-89 -145 -234 -230 -412 -288l-30 -5c-9 0 -14 3 -14 8c3 10 5 11 10 16c35 15 70 30 96 44l78 43c96 57 162 136 197 258c9 33 17 60 22 100c3 22 5 35 6 39c-7 69 -16 115 -23 140s-4 22 -16 40c-8 12 -19 23 -31 34c-24 21 -62 44 -118 44 c-48 0 -84 -8 -113 -28c-28 -19 -42 -44 -42 -73v-16c2 -5 3 -9 4 -11c24 22 52 39 84 39zM585 -118c0 32 23 58 57 58c18 0 33 -6 40 -18c9 -15 16 -18 16 -40c0 -9 -2 -16 -5 -21c-6 -19 -27 -37 -51 -37c-34 0 -57 26 -57 58zM642 177c31 0 56 -27 56 -58 c0 -30 -25 -58 -56 -58l-23 3c-19 7 -34 32 -34 55l3 23c9 20 28 35 54 35z" />
		</symbol>
	</defs>
	<style type="text/css">g.page-margin{font-family:Times;} g.tempo{font-weight:bold;} g.dir, g.dynam, g.mNum{font-style:italic;} g.label{font-weight:normal;}</style>
	<svg class="definition-scale" viewBox="0 0 21000 4500">
		<g class="page-margin" transform="translate(500, 500)">
			<g class="system" id="system-0000000813455009">
				<path d="M13 720 L13 2880" stroke="#000000" stroke-width="27" />
				<path d="M-32,2862 C-392,2322 58,1980 -212,1800 C121,1980 -329,2322 -32,2862" stroke="#000000" stroke-linecap="round" stroke-linejoin="round" stroke-width="18" />
				<path d="M-32,738 C-329,1278 121,1620 -212,1800 C58,1620 -392,1278 -32,738" stroke="#000000" stroke-linecap="round" stroke-linejoin="round" stroke-width="18" />
				<g class="section boundaryStart" id="section-L1F1" />
				<g class="measure" id="measure-L4">
					<g class="staff" id="staff-L4F2N1">
						<path d="M0 720 L4430 720" stroke="#000000" stroke-width="13" />
						<path d="M0 900 L4430 900" stroke="#000000" stroke-width="13" />
						<path d="M0 1080 L4430 1080" stroke="#000000" stroke-width="13" />
						<path d="M0 1260 L4430 1260" stroke="#000000" stroke-width="13" />
						<path d="M0 1440 L4430 1440" stroke="#000000" stroke-width="13" />
						<g class="clef" id="clef-0000000736361530">
							<use xlink:href="#E050" x="90" y="1260" height="720px" width="720px" />
						</g>
						<g class="meterSig" id="msig-0000000079977049">
							<use xlink:href="#E082" x="771" y="900" height="720px" width="720px" />
							<use xlink:href="#E084" x="777" y="1260" height="720px" width="720px" />
						</g>
						<g class="ledgerLines below">
							<path d="M3038 1620 L3317 1620" stroke="#000000" stroke-width="22" />
						</g>
						<g class="layer" id="layer-L4F2N1">
							<g class="beam" id="beam-L5F2-L7F2">
								<polygon points="1755,675 2439,675 2439,765 1755,765 " />
								<polygon points="1755,810 2097,810 2097,900 1755,900 " />
								<g class="note" id="note-L5F2">
									<use xlink:href="#E0A4" x="1547" y="1440" height="720px" width="720px" />
									<g class="stem">
										<rect x="1755" y="693" height="725" width="18" />
									</g>
									<g class="accid" id="accid-0000000884527134">
										<use xlink:href="#E260" x="1351" y="1440" height="720px" width="720px" />
									</g>
								</g>
								<g class="note" id="note-L6F2">
									<use xlink:href="#E0A4" x="1880" y="1350" height="720px" width="720px" />
									<g class="stem">
										<rect x="2088" y="693" height="635" width="18" />
									</g>
									<g class="accid" id="accid-0000001629884292" />
								</g>
								<g class="note" id="note-L7F2">
									<use xlink:href="#E0A4" x="2213" y="1440" height="720px" width="720px" />
									<g class="stem">
										<rect x="2421" y="693" height="725" width="18" />
									</g>
									<g class="accid" id="accid-0000001501027730" />
								</g>
							</g>
							<g class="beam" id="beam-L9F2-L12F2">
								<polygon points="3277,833 4295,733 4295,823 3277,923 " />
								<polygon points="3953,901 4295,868 4295,958 3953,991 " />
								<g class="note" id="note-L9F2">
									<use xlink:href="#E0A4" x="3069" y="1620" height="720px" width="720px" />
									<g class="stem">
										<rect x="3277" y="851" height="747" width="18" />
									</g>
									<g class="accid" id="accid-0000001181823263" />
								</g>
								<g class="note" id="note-L11F2">
									<use xlink:href="#E0A4" x="3736" y="1440" height="720px" width="720px" />
									<g class="stem">
										<rect x="3944" y="784" height="634" width="18" />
									</g>
									<g class="accid" id="accid-0000002128498688" />
								</g>
								<g class="note" id="note-L12F2">
									<use xlink:href="#E0A4" x="4069" y="1530" height="720px" width="720px" />
									<g class="stem">
										<rect x="4277" y="751" height="757" width="18" />
									</g>
									<g class="accid" id="accid-0000001041854489" />
								</g>
							</g>
						</g>
					</g>
					<g class="staff" id="staff-L4F1N1">
						<path d="M0 2160 L4430 2160" stroke="#000000" stroke-width="13" />
						<path d="M0 2340 L4430 2340" stroke="#000000" stroke-width="13" />
						<path d="M0 2520 L4430 2520" stroke="#000000" stroke-width="13" />
						<path d="M0 2700 L4430 2700" stroke="#000000" stroke-width="13" />
						<path d="M0 2880 L4430 2880" stroke="#000000" stroke-width="13" />
						<g class="clef" id="clef-0000001996983168">
							<use xlink:href="#E062" x="90" y="2340" height="720px" width="720px" />
						</g>
						<g class="meterSig" id="msig-0000000274185613">
							<use xlink:href="#E082" x="771" y="2340" height="720px" width="720px" />
							<use xlink:href="#E084" x="777" y="2700" height="720px" width="720px" />
						</g>
						<g class="layer" id="layer-L4F1N1">
							<g class="beam" id="beam-L5F1-L8F1">
								<polygon points="1547,3285 2548,3186 2548,3096 1547,3195 " />
								<polygon points="2390,3066 2548,3051 2548,2961 2390,2976 " />
								<g class="note" id="note-L5F1">
									<use xlink:href="#E0A4" x="1547" y="2610" height="720px" width="720px" />
									<g class="dots" id="dots-0000001837452327">
										<ellipse cx="1863" cy="2610" rx="36" ry="36" />
									</g>
									<g class="stem">
										<rect x="1547" y="2632" height="635" width="18" />
									</g>
									<g class="accid" id="accid-0000001911254531" />
								</g>
								<g class="note" id="note-L8F1">
									<use xlink:href="#E0A4" x="2530" y="2250" height="720px" width="720px" />
									<g class="stem">
										<rect x="2530" y="2272" height="896" width="18" />
									</g>
									<g class="accid" id="accid-0000001259165348" />
								</g>
							</g>
							<g class="beam" id="beam-L9F1-L12F1">
								<polygon points="3069,3115 4087,3015 4087,2925 3069,3025 " />
								<polygon points="3069,2980 4087,2880 4087,2790 3069,2890 " />
								<g class="note" id="note-L9F1">
									<use xlink:href="#E0A4" x="3069" y="2430" height="720px" width="720px" />
									<g class="stem">
										<rect x="3069" y="2452" height="645" width="18" />
									</g>
									<g class="accid" id="accid-0000001014387818">
										<use xlink:href="#E260" x="2873" y="2430" height="720px" width="720px" />
									</g>
								</g>
								<g class="note" id="note-L10F1">
									<use xlink:href="#E0A4" x="3403" y="2340" height="720px" width="720px" />
									<g class="stem">
										<rect x="3403" y="2362" height="701" width="18" />
									</g>
									<g class="accid" id="accid-0000001930786819" />
								</g>
								<g class="note" id="note-L11F1">
									<use xlink:href="#E0A4" x="3736" y="2250" height="720px" width="720px" />
									<g class="stem">
										<rect x="3736" y="2272" height="758" width="18" />
									</g>
									<g class="accid" id="accid-0000001175188662" />
								</g>
								<g class="note" id="note-L12F1">
									<use xlink:href="#E0A4" x="4069" y="2340" height="720px" width="720px" />
									<g class="stem">
										<rect x="4069" y="2362" height="635" width="18" />
									</g>
									<g class="accid" id="accid-0000000537744939" />
								</g>
							</g>
						</g>
					</g>
					<g class="mNum autogenerated" id="mnum-0000001768978037" />
					<g class="barLineAttr" id="bline-0000001061149708">
						<path d="M4417 2880 L4417 720" stroke="#000000" stroke-width="27" />
					</g>
				</g>
				<g class="measure" id="measure-L13">
					<g class="staff" id="staff-L13F2N1">
						<path d="M4430 720 L7710 720" stroke="#000000" stroke-width="13" />
						<path d="M4430 900 L7710 900" stroke="#000000" stroke-width="13" />
						<path d="M4430 1080 L7710 1080" stroke="#000000" stroke-width="13" />
						<path d="M4430 1260 L7710 1260" stroke="#000000" stroke-width="13" />
						<path d="M4430 1440 L7710 1440" stroke="#000000" stroke-width="13" />
						<g class="ledgerLines below">
							<path d="M6318 1620 L6597 1620" stroke="#000000" stroke-width="22" />
						</g>
						<g class="layer" id="layer-L13F2N1">
							<g class="beam" id="beam-L14F2-L16F2">
								<polygon points="5035,675 5719,675 5719,765 5035,765 " />
								<polygon points="5035,810 5377,810 5377,900 5035,900 " />
								<g class="note" id="note-L14F2">
									<use xlink:href="#E0A4" x="4827" y="1440" height="720px" width="720px" />
									<g class="stem">
										<rect x="5035" y="693" height="725" width="18" />
									</g>
									<g class="accid" id="accid-0000001002211319">
										<use xlink:href="#E260" x="4631" y="1440" height="720px" width="720px" />
									</g>
								</g>
								<g class="note" id="note-L15F2">
									<use xlink:href="#E0A4" x="5160" y="1350" height="720px" width="720px" />
									<g class="stem">
										<rect x="5368" y="693" height="635" width="18" />
									</g>
									<g class="accid" id="accid-0000000329220411" />
								</g>
								<g class="note" id="note-L16F2">
									<use xlink:href="#E0A4" x="5493" y="1440" height="720px" width="720px" />
									<g class="stem">
										<rect x="5701" y="693" height="725" width="18" />
									</g>
									<g class="accid" id="accid-0000001448529511" />
								</g>
							</g>
							<g class="beam" id="beam-L18F2-L21F2">
								<polygon points="6557,833 7575,733 7575,823 6557,923 " />
								<polygon points="7233,901 7575,868 7575,958 7233,991 " />
								<g class="note" id="note-L18F2">
									<use xlink:href="#E0A4" x="6349" y="1620" height="720px" width="720px" />
									<g class="stem">
										<rect x="6557" y="851" height="747" width="18" />
									</g>
									<g class="accid" id="accid-0000001864378574" />
								</g>
								<g class="note" id="note-L20F2">
									<use xlink:href="#E0A4" x="7016" y="1440" height="720px" width="720px" />
									<g class="stem">
										<rect x="7224" y="784" height="634" width="18" />
									</g>
									<g class="accid" id="accid-0000001901533175" />
								</g>
								<g class="note" id="note-L21F2">
									<use xlink:href="#E0A4" x="7349" y="1530" height="720px" width="720px" />
									<g class="stem">
										<rect x="7557" y="751" height="757" width="18" />
									</g>
									<g class="accid" id="accid-0000001976441426" />
								</g>
							</g>
						</g>
					</g>
					<g class="staff" id="staff-L13F1N1">
						<path d="M4430 2160 L7710 2160" stroke="#000000" stroke-width="13" />
						<path d="M4430 2340 L7710 2340" stroke="#000000" stroke-width="13" />
						<path d="M4430 2520 L7710 2520" stroke="#000000" stroke-width="13" />
						<path d="M4430 2700 L7710 2700" stroke="#000000" stroke-width="13" />
						<path d="M4430 2880 L7710 2880" stroke="#000000" stroke-width="13" />
						<g class="layer" id="layer-L13F1N1">
							<g class="beam" id="beam-L14F1-L17F1">
								<polygon points="4827,3285 5828,3186 5828,3096 4827,3195 " />
								<polygon points="5670,3066 5828,3051 5828,2961 5670,2976 " />
								<g class="note" id="note-L14F1">
									<use xlink:href="#E0A4" x="4827" y="2610" height="720px" width="720px" />
									<g class="dots" id="dots-0000001869441308">
										<ellipse cx="5143" cy="2610" rx="36" ry="36" />
									</g>
									<g class="stem">
										<rect x="4827" y="2632" height="635" width="18" />
									</g>
									<g class="accid" id="accid-0000000938425194" />
								</g>
								<g class="note" id="note-L17F1">
									<use xlink:href="#E0A4" x="5810" y="2250" height="720px" width="720px" />
									<g class="stem">
										<rect x="5810" y="2272" height="896" width="18" />
									</g>
									<g class="accid" id="accid-0000000765753328" />
								</g>
							</g>
							<g class="beam" id="beam-L18F1-L21F1">
								<polygon points="6349,3115 7367,3015 7367,2925 6349,3025 " />
								<polygon points="6349,2980 7367,2880 7367,2790 6349,2890 " />
								<g class="note" id="note-L18F1">
									<use xlink:href="#E0A4" x="6349" y="2430" height="720px" width="720px" />
									<g class="stem">
										<rect x="6349" y="2452" height="645" width="18" />
									</g>
									<g class="accid" id="accid-0000000269206314">
										<use xlink:href="#E260" x="6153" y="2430" height="720px" width="720px" />
									</g>
								</g>
								<g class="note" id="note-L19F1">
									<use xlink:href="#E0A4" x="6683" y="2340" height="720px" width="720px" />
									<g class="stem">
										<rect x="6683" y="2362" height="701" width="18" />
									</g>
									<g class="accid" id="accid-0000000209883645" />
								</g>
								<g class="note" id="note-L20F1">
									<use xlink:href="#E0A4" x="7016" y="2250" height="720px" width="720px" />
									<g class="stem">
										<rect x="7016" y="2272" height="758" width="18" />
									</g>
									<g class="accid" id="accid-0000000924975995" />
								</g>
								<g class="note" id="note-L21F1">
									<use xlink:href="#E0A4" x="7349" y="2340" height="720px" width="720px" />
									<g class="stem">
										<rect x="7349" y="2362" height="635" width="18" />
									</g>
									<g class="accid" id="accid-0000001004645243" />
								</g>
							</g>
						</g>
					</g>
					<g class="mNum autogenerated" id="mnum-0000000560106887" />
					<g class="barLineAttr" id="bline-0000000686181709">
						<path d="M7697 2880 L7697 720" stroke="#000000" stroke-width="27" />
					</g>
				</g>
				<g class="measure" id="measure-L22">
					<g class="staff" id="staff-L22F2N1">
						<path d="M7710 720 L10990 720" stroke="#000000" stroke-width="13" />
						<path d="M7710 900 L10990 900" stroke="#000000" stroke-width="13" />
						<path d="M7710 1080 L10990 1080" stroke="#000000" stroke-width="13" />
						<path d="M7710 1260 L10990 1260" stroke="#000000" stroke-width="13" />
						<path d="M7710 1440 L10990 1440" stroke="#000000" stroke-width="13" />
						<g class="ledgerLines below">
							<path d="M10598 1620 L10877 1620" stroke="#000000" stroke-width="22" />
						</g>
						<g class="layer" id="layer-L22F2N1">
							<g class="beam" id="beam-L23F2-L25F2">
								<polygon points="8315,585 8999,585 8999,675 8315,675 " />
								<polygon points="8315,720 8657,720 8657,810 8315,810 " />
								<g class="note" id="note-L23F2">
									<use xlink:href="#E0A4" x="8107" y="1260" height="720px" width="720px" />
									<g class="stem">
										<rect x="8315" y="603" height="635" width="18" />
									</g>
									<g class="accid" id="accid-0000000820090424" />
								</g>
								<g class="note" id="note-L24F2">
									<use xlink:href="#E0A4" x="8440" y="1350" height="720px" width="720px" />
									<g class="stem">
										<rect x="8648" y="603" height="725" width="18" />
									</g>
									<g class="accid" id="accid-0000000967122216" />
								</g>
								<g class="note" id="note-L25F2">
									<use xlink:href="#E0A4" x="8773" y="1260" height="720px" width="720px" />
									<g class="stem">
										<rect x="8981" y="603" height="635" width="18" />
									</g>
									<g class="accid" id="accid-0000000336634085" />
								</g>
							</g>
							<g class="beam" id="beam-L27F2-L30F2">
								<polygon points="9631,589 10855,585 10855,675 9631,679 " />
								<polygon points="10513,721 10855,720 10855,810 10513,811 " />
								<g class="note" id="note-L27F2">
									<use xlink:href="#E0A4" x="9423" y="1530" height="720px" width="720px" />
									<g class="stem">
										<rect x="9631" y="607" height="901" width="18" />
									</g>
									<g class="accid" id="accid-0000000554598823" />
								</g>
								<g class="note" id="note-L29F2">
									<use xlink:href="#E0A4" x="10296" y="1260" height="720px" width="720px" />
									<g class="stem">
										<rect x="10504" y="604" height="634" width="18" />
									</g>
									<g class="accid" id="accid-0000001039861733" />
								</g>
								<g class="note" id="note-L30F2">
									<use xlink:href="#E0A4" x="10629" y="1620" height="720px" width="720px" />
									<g class="stem">
										<rect x="10837" y="603" height="995" width="18" />
									</g>
									<g class="accid" id="accid-0000000716271053" />
								</g>
							</g>
						</g>
					</g>
					<g class="staff" id="staff-L22F1N1">
						<path d="M7710 2160 L10990 2160" stroke="#000000" stroke-width="13" />
						<path d="M7710 2340 L10990 2340" stroke="#000000" stroke-width="13" />
						<path d="M7710 2520 L10990 2520" stroke="#000000" stroke-width="13" />
						<path d="M7710 2700 L10990 2700" stroke="#000000" stroke-width="13" />
						<path d="M7710 2880 L10990 2880" stroke="#000000" stroke-width="13" />
						<g class="layer" id="layer-L22F1N1">
							<g class="beam" id="beam-L23F1-L26F1">
								<polygon points="8315,1945 9316,1846 9316,1936 8315,2035 " />
								<polygon points="9158,1996 9316,1981 9316,2071 9158,2086 " />
								<g class="note" id="note-L23F1">
									<use xlink:href="#E0A4" x="8107" y="2700" height="720px" width="720px" />
									<g class="dots" id="dots-0000001157436415">
										<ellipse cx="8423" cy="2610" rx="36" ry="36" />
									</g>
									<g class="stem">
										<rect x="8315" y="1963" height="715" width="18" />
									</g>
									<g class="accid" id="accid-0000000311633040">
										<use xlink:href="#E260" x="7911" y="2700" height="720px" width="720px" />
									</g>
								</g>
								<g class="note" id="note-L26F1">
									<use xlink:href="#E0A4" x="9090" y="2520" height="720px" width="720px" />
									<g class="stem">
										<rect x="9298" y="1864" height="634" width="18" />
									</g>
									<g class="accid" id="accid-0000001704953520" />
								</g>
							</g>
							<g class="beam" id="beam-L27F1-L30F1">
								<polygon points="9423,3107 10647,3228 10647,3138 9423,3017 " />
								<polygon points="9423,2972 10647,3093 10647,3003 9423,2882 " />
								<g class="note" id="note-L27F1">
									<use xlink:href="#E0A4" x="9423" y="2250" height="720px" width="720px" />
									<g class="stem">
										<rect x="9423" y="2272" height="817" width="18" />
									</g>
									<g class="accid" id="accid-0000001733354369" />
								</g>
								<g class="note" id="note-L28F1">
									<use xlink:href="#E0A4" x="9963" y="2430" height="720px" width="720px" />
									<g class="stem">
										<rect x="9963" y="2452" height="691" width="18" />
									</g>
									<g class="accid" id="accid-0000001646161328">
										<use xlink:href="#E260" x="9767" y="2430" height="720px" width="720px" />
									</g>
								</g>
								<g class="note" id="note-L29F1">
									<use xlink:href="#E0A4" x="10296" y="2520" height="720px" width="720px" />
									<g class="stem">
										<rect x="10296" y="2542" height="635" width="18" />
									</g>
									<g class="accid" id="accid-0000000025634932" />
								</g>
								<g class="note" id="note-L30F1">
									<use xlink:href="#E0A4" x="10629" y="2430" height="720px" width="720px" />
									<g class="stem">
										<rect x="10629" y="2452" height="758" width="18" />
									</g>
									<g class="accid" id="accid-0000000546492654" />
								</g>
							</g>
						</g>
					</g>
					<g class="mNum autogenerated" id="mnum-0000000085328876" />
					<g class="barLineAttr" id="bline-0000001526323695">
						<path d="M10977 2880 L10977 720" stroke="#000000" stroke-width="27" />
					</g>
				</g>
				<g class="measure" id="measure-L31">
					<g class="staff" id="staff-L31F2N1">
						<path d="M10990 720 L14270 720" stroke="#000000" stroke-width="13" />
						<path d="M10990 900 L14270 900" stroke="#000000" stroke-width="13" />
						<path d="M10990 1080 L14270 1080" stroke="#000000" stroke-width="13" />
						<path d="M10990 1260 L14270 1260" stroke="#000000" stroke-width="13" />
						<path d="M10990 1440 L14270 1440" stroke="#000000" stroke-width="13" />
						<g class="ledgerLines below">
							<path d="M13878 1620 L14157 1620" stroke="#000000" stroke-width="22" />
						</g>
						<g class="layer" id="layer-L31F2N1">
							<g class="beam" id="beam-L32F2-L34F2">
								<polygon points="11595,585 12279,585 12279,675 11595,675 " />
								<polygon points="11595,720 11937,720 11937,810 11595,810 " />
								<g class="note" id="note-L32F2">
									<use xlink:href="#E0A4" x="11387" y="1260" height="720px" width="720px" />
									<g class="stem">
										<rect x="11595" y="603" height="635" width="18" />
									</g>
									<g class="accid" id="accid-0000000937449080" />
								</g>
								<g class="note" id="note-L33F2">
									<use xlink:href="#E0A4" x="11720" y="1350" height="720px" width="720px" />
									<g class="stem">
										<rect x="11928" y="603" height="725" width="18" />
									</g>
									<g class="accid" id="accid-0000001030891154" />
								</g>
								<g class="note" id="note-L34F2">
									<use xlink:href="#E0A4" x="12053" y="1260" height="720px" width="720px" />
									<g class="stem">
										<rect x="12261" y="603" height="635" width="18" />
									</g>
									<g class="accid" id="accid-0000000458522472" />
								</g>
							</g>
							<g class="beam" id="beam-L36F2-L39F2">
								<polygon points="12911,589 14135,585 14135,675 12911,679 " />
								<polygon points="13793,721 14135,720 14135,810 13793,811 " />
								<g class="note" id="note-L36F2">
									<use xlink:href="#E0A4" x="12703" y="1530" height="720px" width="720px" />
									<g class="stem">
										<rect x="12911" y="607" height="901" width="18" />
									</g>
									<g class="accid" id="accid-0000000406353516" />
								</g>
								<g class="note" id="note-L38F2">
									<use xlink:href="#E0A4" x="13576" y="1260" height="720px" width="720px" />
									<g class="stem">
										<rect x="13784" y="604" height="634" width="18" />
									</g>
									<g class="accid" id="accid-0000001500744710" />
								</g>
								<g class="note" id="note-L39F2">
									<use xlink:href="#E0A4" x="13909" y="1620" height="720px" width="720px" />
									<g class="stem">
										<rect x="14117" y="603" height="995" width="18" />
									</g>
									<g class="accid" id="accid-0000001548244357" />
								</g>
							</g>
						</g>
					</g>
					<g class="staff" id="staff-L31F1N1">
						<path d="M10990 2160 L14270 2160" stroke="#000000" stroke-width="13" />
						<path d="M10990 2340 L14270 2340" stroke="#000000" stroke-width="13" />
						<path d="M10990 2520 L14270 2520" stroke="#000000" stroke-width="13" />
						<path d="M10990 2700 L14270 2700" stroke="#000000" stroke-width="13" />
						<path d="M10990 2880 L14270 2880" stroke="#000000" stroke-width="13" />
						<g class="layer" id="layer-L31F1N1">
							<g class="beam" id="beam-L32F1-L35F1">
								<polygon points="11595,1945 12596,1846 12596,1936 11595,2035 " />
								<polygon points="12438,1996 12596,1981 12596,2071 12438,2086 " />
								<g class="note" id="note-L32F1">
									<use xlink:href="#E0A4" x="11387" y="2700" height="720px" width="720px" />
									<g class="dots" id="dots-0000000415603683">
										<ellipse cx="11703" cy="2610" rx="36" ry="36" />
									</g>
									<g class="stem">
										<rect x="11595" y="1963" height="715" width="18" />
									</g>
									<g class="accid" id="accid-0000001971111414">
										<use xlink:href="#E260" x="11191" y="2700" height="720px" width="720px" />
									</g>
								</g>
								<g class="note" id="note-L35F1">
									<use xlink:href="#E0A4" x="12370" y="2520" height="720px" width="720px" />
									<g class="stem">
										<rect x="12578" y="1864" height="634" width="18" />
									</g>
									<g class="accid" id="accid-0000001248351241" />
								</g>
							</g>
							<g class="beam" id="beam-L36F1-L39F1">
								<polygon points="12703,3107 13927,3228 13927,3138 12703,3017 " />
								<polygon points="12703,2972 13927,3093 13927,3003 12703,2882 " />
								<g class="note" id="note-L36F1">
									<use xlink:href="#E0A4" x="12703" y="2250" height="720px" width="720px" />
									<g class="stem">
										<rect x="12703" y="2272" height="817" width="18" />
									</g>
									<g class="accid" id="accid-0000001435323466" />
								</g>
								<g class="note" id="note-L37F1">
									<use xlink:href="#E0A4" x="13243" y="2430" height="720px" width="720px" />
									<g class="stem">
										<rect x="13243" y="2452" height="691" width="18" />
									</g>
									<g class="accid" id="accid-0000002120904403">
										<use xlink:href="#E260" x="13047" y="2430" height="720px" width="720px" />
									</g>
								</g>
								<g class="note" id="note-L38F1">
									<use xlink:href="#E0A4" x="13576" y="2520" height="720px" width="720px" />
									<g class="stem">
										<rect x="13576" y="2542" height="635" width="18" />
									</g>
									<g class="accid" id="accid-0000000072418469" />
								</g>
								<g class="note" id="note-L39F1">
									<use xlink:href="#E0A4" x="13909" y="2430" height="720px" width="720px" />
									<g class="stem">
										<rect x="13909" y="2452" height="758" width="18" />
									</g>
									<g class="accid" id="accid-0000000500308826" />
								</g>
							</g>
						</g>
					</g>
					<g class="mNum autogenerated" id="mnum-0000001318087887" />
					<g class="barLineAttr" id="bline-0000001456662377">
						<path d="M14257 2880 L14257 720" stroke="#000000" stroke-width="27" />
					</g>
				</g>
				<g class="measure" id="measure-L40">
					<g class="staff" id="staff-L40F2N1">
						<path d="M14270 720 L17137 720" stroke="#000000" stroke-width="13" />
						<path d="M14270 900 L17137 900" stroke="#000000" stroke-width="13" />
						<path d="M14270 1080 L17137 1080" stroke="#000000" stroke-width="13" />
						<path d="M14270 1260 L17137 1260" stroke="#000000" stroke-width="13" />
						<path d="M14270 1440 L17137 1440" stroke="#000000" stroke-width="13" />
						<g class="ledgerLines below">
							<path d="M16745 1620 L17024 1620" stroke="#000000" stroke-width="22" />
						</g>
						<g class="layer" id="layer-L40F2N1">
							<g class="beam" id="beam-L41F2-L43F2">
								<polygon points="14668,586 15353,586 15353,676 14668,676 " />
								<polygon points="14668,721 15010,721 15010,811 14668,811 " />
								<g class="note" id="note-L41F2">
									<use xlink:href="#E0A4" x="14460" y="1350" height="720px" width="720px" />
									<g class="stem">
										<rect x="14668" y="604" height="724" width="18" />
									</g>
									<g class="accid" id="accid-0000000065147088" />
								</g>
								<g class="note" id="note-L42F2">
									<use xlink:href="#E0A4" x="14793" y="1260" height="720px" width="720px" />
									<g class="stem">
										<rect x="15001" y="604" height="634" width="18" />
									</g>
									<g class="accid" id="accid-0000001845736871" />
								</g>
								<g class="note" id="note-L43F2">
									<use xlink:href="#E0A4" x="15127" y="1350" height="720px" width="720px" />
									<g class="stem">
										<rect x="15335" y="604" height="724" width="18" />
									</g>
									<g class="accid" id="accid-0000001085829064" />
								</g>
							</g>
							<g class="beam" id="beam-L45F2-L48F2">
								<polygon points="15984,650 17002,688 17002,778 15984,740 " />
								<polygon points="16660,811 17002,823 17002,913 16660,901 " />
								<g class="note" id="note-L45F2">
									<use xlink:href="#E0A4" x="15776" y="1530" height="720px" width="720px" />
									<g class="stem">
										<rect x="15984" y="668" height="840" width="18" />
									</g>
									<g class="accid" id="accid-0000001615876979" />
								</g>
								<g class="note" id="note-L47F2">
									<use xlink:href="#E0A4" x="16443" y="1350" height="720px" width="720px" />
									<g class="stem">
										<rect x="16651" y="694" height="634" width="18" />
									</g>
									<g class="accid" id="accid-0000001565776470" />
								</g>
								<g class="note" id="note-L48F2">
									<use xlink:href="#E0A4" x="16776" y="1620" height="720px" width="720px" />
									<g class="stem">
										<rect x="16984" y="706" height="892" width="18" />
									</g>
									<g class="accid" id="accid-0000001267905899" />
								</g>
							</g>
						</g>
					</g>
					<g class="staff" id="staff-L40F1N1">
						<path d="M14270 2160 L17137 2160" stroke="#000000" stroke-width="13" />
						<path d="M14270 2340 L17137 2340" stroke="#000000" stroke-width="13" />
						<path d="M14270 2520 L17137 2520" stroke="#000000" stroke-width="13" />
						<path d="M14270 2700 L17137 2700" stroke="#000000" stroke-width="13" />
						<path d="M14270 2880 L17137 2880" stroke="#000000" stroke-width="13" />
						<g class="layer" id="layer-L40F1N1">
							<g class="beam" id="beam-L41F1-L44F1">
								<polygon points="14668,1945 15669,1846 15669,1936 14668,2035 " />
								<polygon points="15511,1996 15669,1981 15669,2071 15511,2086 " />
								<g class="note" id="note-L41F1">
									<use xlink:href="#E0A4" x="14460" y="2790" height="720px" width="720px" />
									<g class="dots" id="dots-0000000622059110">
										<ellipse cx="14776" cy="2790" rx="36" ry="36" />
									</g>
									<g class="stem">
										<rect x="14668" y="1963" height="805" width="18" />
									</g>
									<g class="accid" id="accid-0000000233695289" />
								</g>
								<g class="note" id="note-L44F1">
									<use xlink:href="#E0A4" x="15443" y="2520" height="720px" width="720px" />
									<g class="stem">
										<rect x="15651" y="1864" height="634" width="18" />
									</g>
									<g class="accid" id="accid-0000000890213594" />
								</g>
							</g>
							<g class="beam" id="beam-L45F1-L48F1">
								<polygon points="15776,3128 16794,3228 16794,3138 15776,3038 " />
								<polygon points="15776,2993 16794,3093 16794,3003 15776,2903 " />
								<g class="note" id="note-L45F1">
									<use xlink:href="#E0A4" x="15776" y="2340" height="720px" width="720px" />
									<g class="stem">
										<rect x="15776" y="2362" height="748" width="18" />
									</g>
									<g class="accid" id="accid-0000001109751899" />
								</g>
								<g class="note" id="note-L46F1">
									<use xlink:href="#E0A4" x="16109" y="2430" height="720px" width="720px" />
									<g class="stem">
										<rect x="16109" y="2452" height="692" width="18" />
									</g>
									<g class="accid" id="accid-0000000391139281" />
								</g>
								<g class="note" id="note-L47F1">
									<use xlink:href="#E0A4" x="16443" y="2520" height="720px" width="720px" />
									<g class="stem">
										<rect x="16443" y="2542" height="635" width="18" />
									</g>
									<g class="accid" id="accid-0000001886883004" />
								</g>
								<g class="note" id="note-L48F1">
									<use xlink:href="#E0A4" x="16776" y="2430" height="720px" width="720px" />
									<g class="stem">
										<rect x="16776" y="2452" height="758" width="18" />
									</g>
									<g class="accid" id="accid-0000001784758844" />
								</g>
							</g>
						</g>
					</g>
					<g class="mNum autogenerated" id="mnum-0000000503111708" />
					<g class="barLineAttr" id="bline-0000000666009809">
						<path d="M17124 2880 L17124 720" stroke="#000000" stroke-width="27" />
					</g>
				</g>
				<g class="measure" id="measure-L49">
					<g class="staff" id="staff-L49F2N1">
						<path d="M17137 720 L20004 720" stroke="#000000" stroke-width="13" />
						<path d="M17137 900 L20004 900" stroke="#000000" stroke-width="13" />
						<path d="M17137 1080 L20004 1080" stroke="#000000" stroke-width="13" />
						<path d="M17137 1260 L20004 1260" stroke="#000000" stroke-width="13" />
						<path d="M17137 1440 L20004 1440" stroke="#000000" stroke-width="13" />
						<g class="ledgerLines below">
							<path d="M19612 1620 L19891 1620" stroke="#000000" stroke-width="22" />
						</g>
						<g class="layer" id="layer-L49F2N1">
							<g class="beam" id="beam-L50F2-L52F2">
								<polygon points="17535,586 18220,586 18220,676 17535,676 " />
								<polygon points="17535,721 17877,721 17877,811 17535,811 " />
								<g class="note" id="note-L50F2">
									<use xlink:href="#E0A4" x="17327" y="1350" height="720px" width="720px" />
									<g class="stem">
										<rect x="17535" y="604" height="724" width="18" />
									</g>
									<g class="accid" id="accid-0000000042160088" />
								</g>
								<g class="note" id="note-L51F2">
									<use xlink:href="#E0A4" x="17660" y="1260" height="720px" width="720px" />
									<g class="stem">
										<rect x="17868" y="604" height="634" width="18" />
									</g>
									<g class="accid" id="accid-0000001553578244" />
								</g>
								<g class="note" id="note-L52F2">
									<use xlink:href="#E0A4" x="17994" y="1350" height="720px" width="720px" />
									<g class="stem">
										<rect x="18202" y="604" height="724" width="18" />
									</g>
									<g class="accid" id="accid-0000001982351241" />
								</g>
							</g>
							<g class="beam" id="beam-L54F2-L57F2">
								<polygon points="18851,650 19869,688 19869,778 18851,740 " />
								<polygon points="19527,811 19869,823 19869,913 19527,901 " />
								<g class="note" id="note-L54F2">
									<use xlink:href="#E0A4" x="18643" y="1530" height="720px" width="720px" />
									<g class="stem">
										<rect x="18851" y="668" height="840" width="18" />
									</g>
									<g class="accid" id="accid-0000000342585837" />
								</g>
								<g class="note" id="note-L56F2">
									<use xlink:href="#E0A4" x="19310" y="1350" height="720px" width="720px" />
									<g class="stem">
										<rect x="19518" y="694" height="634" width="18" />
									</g>
									<g class="accid" id="accid-0000000532909412" />
								</g>
								<g class="note" id="note-L57F2">
									<use xlink:href="#E0A4" x="19643" y="1620" height="720px" width="720px" />
									<g class="stem">
										<rect x="19851" y="706" height="892" width="18" />
									</g>
									<g class="accid" id="accid-0000000719740513" />
								</g>
							</g>
						</g>
					</g>
					<g class="staff" id="staff-L49F1N1">
						<path d="M17137 2160 L20004 2160" stroke="#000000" stroke-width="13" />
						<path d="M17137 2340 L20004 2340" stroke="#000000" stroke-width="13" />
						<path d="M17137 2520 L20004 2520" stroke="#000000" stroke-width="13" />
						<path d="M17137 2700 L20004 2700" stroke="#000000" stroke-width="13" />
						<path d="M17137 2880 L20004 2880" stroke="#000000" stroke-width="13" />
						<g class="layer" id="layer-L49F1N1">
							<g class="beam" id="beam-L50F1-L53F1">
								<polygon points="17535,1945 18536,1846 18536,1936 17535,2035 " />
								<polygon points="18378,1996 18536,1981 18536,2071 18378,2086 " />
								<g class="note" id="note-L50F1">
									<use xlink:href="#E0A4" x="17327" y="2790" height="720px" width="720px" />
									<g class="dots" id="dots-0000001381905859">
										<ellipse cx="17643" cy="2790" rx="36" ry="36" />
									</g>
									<g class="stem">
										<rect x="17535" y="1963" height="805" width="18" />
									</g>
									<g class="accid" id="accid-0000001642024982" />
								</g>
								<g class="note" id="note-L53F1">
									<use xlink:href="#E0A4" x="18310" y="2520" height="720px" width="720px" />
									<g class="stem">
										<rect x="18518" y="1864" height="634" width="18" />
									</g>
									<g class="accid" id="accid-0000000446896420" />
								</g>
							</g>
							<g class="beam" id="beam-L54F1-L57F1">
								<polygon points="18643,3128 19661,3228 19661,3138 18643,3038 " />
								<polygon points="18643,2993 19661,3093 19661,3003 18643,2903 " />
								<g class="note" id="note-L54F1">
									<use xlink:href="#E0A4" x="18643" y="2340" height="720px" width="720px" />
									<g class="stem">
										<rect x="18643" y="2362" height="748" width="18" />
									</g>
									<g class="accid" id="accid-0000000906038149" />
								</g>
								<g class="note" id="note-L55F1">
									<use xlink:href="#E0A4" x="18976" y="2430" height="720px" width="720px" />
									<g class="stem">
										<rect x="18976" y="2452" height="692" width="18" />
									</g>
									<g class="accid" id="accid-0000000199261763" />
								</g>
								<g class="note" id="note-L56F1">
									<use xlink:href="#E0A4" x="19310" y="2520" height="720px" width="720px" />
									<g class="stem">
										<rect x="19310" y="2542" height="635" width="18" />
									</g>
									<g class="accid" id="accid-0000001216609190" />
								</g>
								<g class="note" id="note-L57F1">
									<use xlink:href="#E0A4" x="19643" y="2430" height="720px" width="720px" />
									<g class="stem">
										<rect x="19643" y="2452" height="758" width="18" />
									</g>
									<g class="accid" id="accid-0000001905352903" />
								</g>
							</g>
						</g>
					</g>
					<g class="mNum autogenerated" id="mnum-0000000556736245" />
					<g class="barLineAttr" id="bline-0000000030723616">
						<path d="M19991 2880 L19991 720" stroke="#000000" stroke-width="27" />
					</g>
				</g>
			</g>
		</g>
	</svg>
</svg>
