<?xml version="1.0" encoding="UTF-8" standalone="no"?>
<svg width="2100.00px" height="450.00px" version="1.1" xmlns="http://www.w3.org/2000/svg" xmlns:xlink="http://www.w3.org/1999/xlink" overflow="visible">
	<desc>Engraved by Verovio 2.0.0-dev-0f0381c</desc>
	<defs>
		<symbol id="E050" viewBox="0 0 1000 1000" overflow="inherit">
			<path transform="scale(1,-1)" d="M441 -245c-23 -4 -48 -6 -76 -6c-59 0 -102 7 -130 20c-88 42 -150 93 -187 154c-26 44 -43 103 -48 176c-4 60 11 123 44 189c29 57 65 106 110 148s96 85 153 127c-3 16 -8 46 -13 92c-4 43 -5 73 -5 89c0 117 16 172 69 257c34 54 64 82 89 82c21 0 43 -30 69 -92 s39 -115 41 -159c2 -120 -19 -173 -67 -256c-13 -20 -63 -90 -98 -118c-13 -9 -25 -19 -37 -29l31 -181c8 1 18 2 28 2c58 0 102 -12 133 -35c59 -43 92 -104 98 -184c11 -135 -80 -229 -180 -270c8 -57 17 -110 25 -162c5 -31 6 -58 6 -80c0 -30 -5 -53 -14 -70 c-35 -64 -88 -99 -158 -103c-42 -3 -83 6 -124 26c-50 24 -77 59 -80 105c-2 34 5 63 20 87c18 28 45 42 79 44c51 4 99 -40 103 -87c4 -56 -30 -94 -105 -115c17 -24 51 -36 102 -36c62 0 116 43 140 85c9 16 13 41 13 74c0 20 -1 42 -5 67c-8 53 -18 106 -26 159zM461 939 c-95 0 -135 -175 -135 -286c0 -24 2 -48 5 -71c50 39 92 82 127 128c43 57 63 106 60 148c-4 54 -23 82 -57 81zM406 119l54 -326c80 27 116 88 109 184c-7 99 -62 146 -163 142zM382 117c-74 -2 -132 -50 -128 -127c2 -46 43 -99 75 -115c-3 -2 -7 -5 -10 -10 c-70 33 -116 88 -123 172c-5 73 42 135 88 170c23 17 49 29 78 36l-29 170c-21 -13 -52 -37 -92 -73c-50 -44 -86 -84 -109 -119c-49 -75 -71 -140 -67 -195c5 -68 35 -127 93 -176s125 -73 203 -73c25 0 50 3 75 9c-19 111 -36 221 -54 331z" />
		</symbol>
		<symbol id="E082" viewBox="0 0 1000 1000" overflow="inherit">
			<path transform="scale(1,-1)" d="M104 -185c-18 0 -55 -14 -65 -65h-36l-3 29c0 25 6 46 18 64c11 19 22 30 39 43l121 82l37 29c15 11 27 29 38 54c12 24 18 47 18 70c0 40 -19 88 -94 88c-25 0 -32 0 -50 -8c-14 -5 -23 -12 -26 -22c3 -9 7 -15 10 -18l24 -17c12 -7 17 -11 27 -21c5 -7 7 -16 7 -27 c0 -12 0 -57 -79 -74c-30 0 -76 26 -76 94c0 66 80 135 196 135c72 0 182 -32 182 -150c0 -53 -32 -95 -113 -133l-91 -41c-26 -11 -45 -23 -57 -37l49 7c84 0 115 -41 148 -41c20 0 33 20 39 61h35c0 -152 -68 -168 -114 -168c-17 0 -55 0 -69 7v0l-28 17 c-49 37 -69 40 -87 42z" />
		</symbol>
		<symbol id="E084" viewBox="0 0 1000 1000" overflow="inherit">
			<path transform="scale(1,-1)" d="M0 -78c84 97 114 180 134 329h170c-13 -32 -82 -132 -99 -151l-84 -97c-33 -36 -59 -63 -80 -81h162v102l127 123v-225h57v-39h-57v-34c0 -43 19 -65 57 -65v-34h-244v36c48 0 60 26 60 70v27h-203v39z" />
		</symbol>
		<symbol id="E4E5" viewBox="0 0 1000 1000" overflow="inherit">
			<path transform="scale(1,-1)" d="M107 292c-13 24 -30 49 -52 71c-1 1 0 2 0 3l-2 2c3 3 4 4 6 4c12 0 26 -7 40 -20s44 -40 89 -81c26 -24 28 -29 46 -47c4 -4 8 -9 10 -14c6 -8 8 -16 8 -27c0 -19 -12 -40 -36 -61c-28 -23 -49 -38 -61 -73c-4 -11 -7 -27 -10 -50c13 -43 34 -83 59 -121 c31 -47 59 -79 101 -129c-8 0 -26 7 -54 20l-62 29l-21 6l-23 1c-25 0 -45 -10 -60 -30l-4 -14l-1 -12c0 -33 20 -56 39 -78c8 -9 17 -18 26 -26c17 -15 27 -24 28 -30l-3 -3c-11 5 -19 10 -25 15c-9 3 -37 21 -45 26c-24 14 -45 32 -63 51c-19 21 -37 44 -37 71 c0 63 27 95 80 95c41 0 86 -18 136 -52c-19 26 -37 48 -55 66c-23 23 -48 44 -73 65c-28 23 -47 40 -58 53s-17 26 -18 39c75 64 113 125 113 183c0 27 -7 48 -18 68z" />
		</symbol>
		<symbol id="E0A4" viewBox="0 0 1000 1000" overflow="inherit">
			<path transform="scale(1,-1)" d="M0 -39c0 68 73 172 200 172c66 0 114 -37 114 -95c0 -84 -106 -171 -218 -171c-64 0 -96 30 -96 94z" />
		</symbol>
		<symbol id="E062" viewBox="0 0 1000 1000" overflow="inherit">
			<path transform="scale(1,-1)" d="M158 96c51 0 73 -14 88 -49l16 -39c0 -17 -2 -30 -7 -40c-3 -11 -10 -21 -19 -31c-17 -18 -49 -43 -84 -43c-55 0 -77 13 -112 44c-24 21 -35 55 -35 100c0 46 14 81 32 112c30 52 71 79 137 93l36 6l26 2c154 0 235 -68 274 -182c11 -32 18 -68 18 -107 c0 -103 -26 -182 -68 -250c-89 -145 -234 -230 -412 -288l-30 -5c-9 0 -14 3 -14 8c3 10 5 11 10 16c35 15 70 30 96 44l78 43c96 57 162 136 197 258c9 33 17 60 22 100c3 22 5 35 6 39c-7 69 -16 115 -23 140s-4 22 -16 40c-8 12 -19 23 -31 34c-24 21 -62 44 -118 44 c-48 0 -84 -8 -113 -28c-28 -19 -42 -44 -42 -73v-16c2 -5 3 -9 4 -11c24 22 52 39 84 39zM585 -118c0 32 23 58 57 58c18 0 33 -6 40 -18c9 -15 16 -18 16 -40c0 -9 -2 -16 -5 -21c-6 -19 -27 -37 -51 -37c-34 0 -57 26 -57 58zM642 177c31 0 56 -27 56 -58 c0 -30 -25 -58 -56 -58l-23 3c-19 7 -34 32 -34 55l3 23c9 20 28 35 54 35z" />
		</symbol>
		<symbol id="E260" viewBox="0 0 1000 1000" overflow="inherit">
			<path transform="scale(1,-1)" d="M20 110c32 16 54 27 93 27c26 0 35 -3 54 -13c13 -7 24 -20 27 -38l4 -25c0 -28 -16 -57 -45 -89c-23 -25 -39 -44 -65 -68l-88 -79v644h20v-359zM90 106c-32 0 -48 -10 -70 -29v-194c31 31 54 59 71 84c21 32 32 59 32 84c0 9 1 16 1 20c0 14 -3 21 -11 30l-8 3z" />
		</symbol>
		<symbol id="E262" viewBox="0 0 1000 1000" overflow="inherit">
			<path transform="scale(1,-1)" d="M136 186v169h17v-164l44 14v-91l-44 -14v-165l44 12v-91l-44 -13v-155h-17v150l-76 -22v-155h-17v149l-43 -13v90l43 14v167l-43 -14v92l43 13v169h17v-163zM60 73v-167l76 22v168z" />
		</symbol>
	</defs>
	<style type="text/css">g.page-margin{font-family:Times;} g.tempo{font-weight:bold;} g.dir, g.dynam, g.mNum{font-style:italic;} g.label{font-weight:normal;}</style>
	<svg class="definition-scale" viewBox="0 0 21000 4500">
		<g class="page-margin" transform="translate(500, 500)">
			<g class="system" id="system-0000001757207122">
				<path d="M13 720 L13 3034" stroke="#000000" stroke-width="27" />
				<path d="M-32,3016 C-392,2476 58,2057 -212,1877 C121,2057 -329,2476 -32,3016" stroke="#000000" stroke-linecap="round" stroke-linejoin="round" stroke-width="18" />
				<path d="M-32,738 C-329,1278 121,1697 -212,1877 C58,1697 -392,1278 -32,738" stroke="#000000" stroke-linecap="round" stroke-linejoin="round" stroke-width="18" />
				<g class="section boundaryStart" id="section-L1F1" />
				<g class="measure" id="measure-L4">
					<g class="staff" id="staff-L4F2N1">
						<path d="M0 720 L4383 720" stroke="#000000" stroke-width="13" />
						<path d="M0 900 L4383 900" stroke="#000000" stroke-width="13" />
						<path d="M0 1080 L4383 1080" stroke="#000000" stroke-width="13" />
						<path d="M0 1260 L4383 1260" stroke="#000000" stroke-width="13" />
						<path d="M0 1440 L4383 1440" stroke="#000000" stroke-width="13" />
						<g class="clef" id="clef-0000000046661928">
							<use xlink:href="#E050" x="90" y="1260" height="720px" width="720px" />
						</g>
						<g class="meterSig" id="msig-0000000415492741">
							<use xlink:href="#E082" x="771" y="900" height="720px" width="720px" />
							<use xlink:href="#E084" x="777" y="1260" height="720px" width="720px" />
						</g>
						<g class="layer" id="layer-L4F2N1">
							<g class="rest" id="rest-L5F2">
								<use xlink:href="#E4E5" x="1379" y="1080" height="720px" width="720px" />
							</g>
							<g class="beam" id="beam-L9F2-L11F2">
								<polygon points="3189,586 4178,683 4178,773 3189,676 " />
								<polygon points="3768,778 4178,818 4178,908 3768,868 " />
								<g class="note" id="note-L9F2">
									<use xlink:href="#E0A4" x="2981" y="1260" height="720px" width="720px" />
									<g class="stem">
										<rect x="3189" y="604" height="634" width="18" />
									</g>
									<g class="accid" id="accid-0000000250489737" />
								</g>
								<g class="note" id="note-L10F2">
									<use xlink:href="#E0A4" x="3551" y="1350" height="720px" width="720px" />
									<g class="stem">
										<rect x="3759" y="661" height="667" width="18" />
									</g>
									<g class="accid" id="accid-0000002056308858" />
								</g>
								<g class="note" id="note-L11F2">
									<use xlink:href="#E0A4" x="3952" y="1440" height="720px" width="720px" />
									<g class="stem">
										<rect x="4160" y="701" height="717" width="18" />
									</g>
									<g class="accid" id="accid-0000001976801896" />
								</g>
							</g>
						</g>
					</g>
					<g class="staff" id="staff-L4F1N1">
						<path d="M0 2314 L4383 2314" stroke="#000000" stroke-width="13" />
						<path d="M0 2494 L4383 2494" stroke="#000000" stroke-width="13" />
						<path d="M0 2674 L4383 2674" stroke="#000000" stroke-width="13" />
						<path d="M0 2854 L4383 2854" stroke="#000000" stroke-width="13" />
						<path d="M0 3034 L4383 3034" stroke="#000000" stroke-width="13" />
						<g class="clef" id="clef-0000001717161590">
							<use xlink:href="#E062" x="90" y="2494" height="720px" width="720px" />
						</g>
						<g class="meterSig" id="msig-0000000302111097">
							<use xlink:href="#E082" x="771" y="2494" height="720px" width="720px" />
							<use xlink:href="#E084" x="777" y="2854" height="720px" width="720px" />
						</g>
						<g class="layer" id="layer-L4F1N1">
							<g class="beam" id="beam-L5F1-L8F1">
								<polygon points="1587,2030 2806,1910 2806,2000 1587,2120 " />
								<polygon points="1587,2165 2806,2045 2806,2135 1587,2255 " />
								<g class="note" id="note-L5F1">
									<use xlink:href="#E0A4" x="1379" y="2764" height="720px" width="720px" />
									<g class="stem">
										<rect x="1587" y="2048" height="694" width="18" />
									</g>
									<g class="accid" id="accid-0000000092466885" />
								</g>
								<g class="note" id="note-L6F1">
									<use xlink:href="#E0A4" x="1779" y="2674" height="720px" width="720px" />
									<g class="stem">
										<rect x="1987" y="2008" height="644" width="18" />
									</g>
									<g class="accid" id="accid-0000001136853182" />
								</g>
								<g class="note" id="note-L7F1">
									<use xlink:href="#E0A4" x="2180" y="2764" height="720px" width="720px" />
									<g class="stem">
										<rect x="2388" y="1968" height="774" width="18" />
									</g>
									<g class="accid" id="accid-0000000008161327" />
								</g>
								<g class="note" id="note-L8F1">
									<use xlink:href="#E0A4" x="2580" y="2584" height="720px" width="720px" />
									<g class="stem">
										<rect x="2788" y="1928" height="634" width="18" />
									</g>
									<g class="accid" id="accid-0000001936800689" />
								</g>
							</g>
							<g class="beam" id="beam-L9F1-L11F1">
								<polygon points="3189,1903 4178,2000 4178,2090 3189,1993 " />
								<polygon points="3768,2095 4178,2135 4178,2225 3768,2185 " />
								<g class="note" id="note-L9F1">
									<use xlink:href="#E0A4" x="2981" y="2584" height="720px" width="720px" />
									<g class="stem">
										<rect x="3189" y="1921" height="641" width="18" />
									</g>
									<g class="accid" id="accid-0000001373116821" />
								</g>
								<g class="note" id="note-L10F1">
									<use xlink:href="#E0A4" x="3551" y="2854" height="720px" width="720px" />
									<g class="stem">
										<rect x="3759" y="1978" height="854" width="18" />
									</g>
									<g class="accid" id="accid-0000001066259826" />
								</g>
								<g class="note" id="note-L11F1">
									<use xlink:href="#E0A4" x="3952" y="2674" height="720px" width="720px" />
									<g class="stem">
										<rect x="4160" y="2018" height="634" width="18" />
									</g>
									<g class="accid" id="accid-0000000210361701" />
								</g>
							</g>
						</g>
					</g>
					<g class="tie" id="tie-L8F1-L9F1">
						<path d="M2693,2719 C2793,2817 2993,2817 3094,2719 C2993,2861 2793,2861 2693,2719" stroke="#000000" stroke-linecap="round" stroke-linejoin="round" stroke-width="9" />
					</g>
					<g class="mNum autogenerated" id="mnum-0000002009508836" />
					<g class="barLineAttr" id="bline-0000000376459643">
						<path d="M4370 3034 L4370 720" stroke="#000000" stroke-width="27" />
					</g>
				</g>
				<g class="measure" id="measure-L12">
					<g class="staff" id="staff-L12F2N1">
						<path d="M4383 720 L7847 720" stroke="#000000" stroke-width="13" />
						<path d="M4383 900 L7847 900" stroke="#000000" stroke-width="13" />
						<path d="M4383 1080 L7847 1080" stroke="#000000" stroke-width="13" />
						<path d="M4383 1260 L7847 1260" stroke="#000000" stroke-width="13" />
						<path d="M4383 1440 L7847 1440" stroke="#000000" stroke-width="13" />
						<g class="ledgerLines below">
							<path d="M4581 1620 L4860 1620" stroke="#000000" stroke-width="22" />
						</g>
						<g class="layer" id="layer-L12F2N1">
							<g class="beam" id="beam-L13F2-L16F2">
								<polygon points="4820,436 6039,316 6039,406 4820,526 " />
								<polygon points="4820,571 6039,451 6039,541 4820,661 " />
								<g class="note" id="note-L13F2">
									<use xlink:href="#E0A4" x="4612" y="1620" height="720px" width="720px" />
									<g class="stem">
										<rect x="4820" y="454" height="1144" width="18" />
									</g>
									<g class="accid" id="accid-0000001044122727" />
								</g>
								<g class="note" id="note-L14F2">
									<use xlink:href="#E0A4" x="5012" y="1440" height="720px" width="720px" />
									<g class="stem">
										<rect x="5220" y="414" height="1004" width="18" />
									</g>
									<g class="accid" id="accid-0000000127970705" />
								</g>
								<g class="note" id="note-L15F2">
									<use xlink:href="#E0A4" x="5413" y="1350" height="720px" width="720px" />
									<g class="stem">
										<rect x="5621" y="374" height="954" width="18" />
									</g>
									<g class="accid" id="accid-0000001036851544" />
								</g>
								<g class="note" id="note-L16F2">
									<use xlink:href="#E0A4" x="5813" y="990" height="720px" width="720px" />
									<g class="stem">
										<rect x="6021" y="334" height="634" width="18" />
									</g>
									<g class="accid" id="accid-0000001568923230" />
								</g>
							</g>
							<g class="beam" id="beam-L17F2-L20F2">
								<polygon points="6422,276 7641,396 7641,486 6422,366 " />
								<polygon points="6422,411 7641,531 7641,621 6422,501 " />
								<g class="note" id="note-L17F2">
									<use xlink:href="#E0A4" x="6214" y="1080" height="720px" width="720px" />
									<g class="stem">
										<rect x="6422" y="294" height="764" width="18" />
									</g>
									<g class="accid" id="accid-0000001510587716" />
								</g>
								<g class="note" id="note-L18F2">
									<use xlink:href="#E0A4" x="6614" y="990" height="720px" width="720px" />
									<g class="stem">
										<rect x="6822" y="334" height="634" width="18" />
									</g>
									<g class="accid" id="accid-0000002059173482" />
								</g>
								<g class="note" id="note-L19F2">
									<use xlink:href="#E0A4" x="7015" y="1260" height="720px" width="720px" />
									<g class="stem">
										<rect x="7223" y="374" height="864" width="18" />
									</g>
									<g class="accid" id="accid-0000000483918143" />
								</g>
								<g class="note" id="note-L20F2">
									<use xlink:href="#E0A4" x="7415" y="1350" height="720px" width="720px" />
									<g class="stem">
										<rect x="7623" y="414" height="914" width="18" />
									</g>
									<g class="accid" id="accid-0000000370587873" />
								</g>
							</g>
						</g>
					</g>
					<g class="staff" id="staff-L12F1N1">
						<path d="M4383 2314 L7847 2314" stroke="#000000" stroke-width="13" />
						<path d="M4383 2494 L7847 2494" stroke="#000000" stroke-width="13" />
						<path d="M4383 2674 L7847 2674" stroke="#000000" stroke-width="13" />
						<path d="M4383 2854 L7847 2854" stroke="#000000" stroke-width="13" />
						<path d="M4383 3034 L7847 3034" stroke="#000000" stroke-width="13" />
						<g class="layer" id="layer-L12F1N1">
							<g class="beam" id="beam-L13F1-L14F1">
								<polygon points="4612,3529 5030,3489 5030,3399 4612,3439 " />
								<polygon points="4612,3394 4770,3379 4770,3289 4612,3304 " />
								<g class="note" id="note-L13F1">
									<use xlink:href="#E0A4" x="4612" y="2854" height="720px" width="720px" />
									<g class="stem">
										<rect x="4612" y="2876" height="635" width="18" />
									</g>
									<g class="accid" id="accid-0000000680026071" />
								</g>
								<g class="note" id="note-L14F1">
									<use xlink:href="#E0A4" x="5012" y="2404" height="720px" width="720px" />
									<g class="dots" id="dots-0000001307537601">
										<ellipse cx="5328" cy="2404" rx="36" ry="36" />
									</g>
									<g class="stem">
										<rect x="5012" y="2426" height="1045" width="18" />
									</g>
									<g class="accid" id="accid-0000000556257804" />
								</g>
							</g>
							<g class="beam" id="beam-L17F1-L20F1">
								<polygon points="6214,3520 7433,3399 7433,3309 6214,3430 " />
								<polygon points="6214,3385 7433,3264 7433,3174 6214,3295 " />
								<g class="note" id="note-L17F1">
									<use xlink:href="#E0A4" x="6214" y="2764" height="720px" width="720px" />
									<g class="stem">
										<rect x="6214" y="2786" height="716" width="18" />
									</g>
									<g class="accid" id="accid-0000000461540713" />
								</g>
								<g class="note" id="note-L18F1">
									<use xlink:href="#E0A4" x="6614" y="2674" height="720px" width="720px" />
									<g class="stem">
										<rect x="6614" y="2696" height="766" width="18" />
									</g>
									<g class="accid" id="accid-0000001129662069" />
								</g>
								<g class="note" id="note-L19F1">
									<use xlink:href="#E0A4" x="7015" y="2764" height="720px" width="720px" />
									<g class="stem">
										<rect x="7015" y="2786" height="635" width="18" />
									</g>
									<g class="accid" id="accid-0000001944531078" />
								</g>
								<g class="note" id="note-L20F1">
									<use xlink:href="#E0A4" x="7415" y="2404" height="720px" width="720px" />
									<g class="stem">
										<rect x="7415" y="2426" height="955" width="18" />
									</g>
									<g class="accid" id="accid-0000002095442970" />
								</g>
							</g>
						</g>
					</g>
					<g class="tie" id="tie-L20F1-L22F1">
						<path d="M7663,2359 C7760,2217 7954,2217 8054,2359 C7954,2261 7760,2261 7663,2359" stroke="#000000" stroke-linecap="round" stroke-linejoin="round" stroke-width="9" />
					</g>
					<g class="mNum autogenerated" id="mnum-0000001163052655" />
					<g class="barLineAttr" id="bline-0000001079601220">
						<path d="M7834 3034 L7834 720" stroke="#000000" stroke-width="27" />
					</g>
				</g>
				<g class="measure" id="measure-L21">
					<g class="staff" id="staff-L21F2N1">
						<path d="M7847 720 L11556 720" stroke="#000000" stroke-width="13" />
						<path d="M7847 900 L11556 900" stroke="#000000" stroke-width="13" />
						<path d="M7847 1080 L11556 1080" stroke="#000000" stroke-width="13" />
						<path d="M7847 1260 L11556 1260" stroke="#000000" stroke-width="13" />
						<path d="M7847 1440 L11556 1440" stroke="#000000" stroke-width="13" />
						<g class="layer" id="layer-L21F2N1">
							<g class="rest" id="rest-L22F2">
								<use xlink:href="#E4E5" x="8076" y="1080" height="720px" width="720px" />
							</g>
							<g class="beam" id="beam-L25F2-L28F2">
								<polygon points="9903,586 11351,729 11351,819 9903,676 " />
								<polygon points="10693,799 11351,864 11351,954 10693,889 " />
								<g class="note" id="note-L25F2">
									<use xlink:href="#E0A4" x="9695" y="1260" height="720px" width="720px" />
									<g class="stem">
										<rect x="9903" y="604" height="634" width="18" />
									</g>
									<g class="accid" id="accid-0000000712550648" />
								</g>
								<g class="note" id="note-L27F2">
									<use xlink:href="#E0A4" x="10476" y="1350" height="720px" width="720px" />
									<g class="stem">
										<rect x="10684" y="682" height="646" width="18" />
									</g>
									<g class="accid" id="accid-0000000382036960" />
								</g>
								<g class="note" id="note-L28F2">
									<use xlink:href="#E0A4" x="11125" y="1440" height="720px" width="720px" />
									<g class="stem">
										<rect x="11333" y="747" height="671" width="18" />
									</g>
									<g class="accid" id="accid-0000001518999528">
										<use xlink:href="#E260" x="10929" y="1440" height="720px" width="720px" />
									</g>
								</g>
							</g>
						</g>
					</g>
					<g class="staff" id="staff-L21F1N1">
						<path d="M7847 2314 L11556 2314" stroke="#000000" stroke-width="13" />
						<path d="M7847 2494 L11556 2494" stroke="#000000" stroke-width="13" />
						<path d="M7847 2674 L11556 2674" stroke="#000000" stroke-width="13" />
						<path d="M7847 2854 L11556 2854" stroke="#000000" stroke-width="13" />
						<path d="M7847 3034 L11556 3034" stroke="#000000" stroke-width="13" />
						<g class="layer" id="layer-L21F1N1">
							<g class="beam" id="beam-L22F1-L24F1">
								<polygon points="8076,3382 9313,3504 9313,3414 8076,3292 " />
								<polygon points="8655,3304 9313,3369 9313,3279 8655,3214 " />
								<g class="note" id="note-L22F1">
									<use xlink:href="#E0A4" x="8076" y="2404" height="720px" width="720px" />
									<g class="stem">
										<rect x="8076" y="2426" height="938" width="18" />
									</g>
									<g class="accid" id="accid-0000000349930286" />
								</g>
								<g class="note" id="note-L23F1">
									<use xlink:href="#E0A4" x="8646" y="2764" height="720px" width="720px" />
									<g class="stem">
										<rect x="8646" y="2786" height="635" width="18" />
									</g>
									<g class="accid" id="accid-0000001771127629" />
								</g>
								<g class="note" id="note-L24F1">
									<use xlink:href="#E0A4" x="9295" y="2584" height="720px" width="720px" />
									<g class="stem">
										<rect x="9295" y="2606" height="880" width="18" />
									</g>
									<g class="accid" id="accid-0000001799398751">
										<use xlink:href="#E260" x="9099" y="2584" height="720px" width="720px" />
									</g>
								</g>
							</g>
							<g class="beam" id="beam-L25F1-L26F1">
								<polygon points="9903,2040 10322,2000 10322,2090 9903,2130 " />
								<polygon points="9903,2175 10061,2160 10061,2250 9903,2265 " />
								<g class="note" id="note-L25F1">
									<use xlink:href="#E0A4" x="9695" y="2764" height="720px" width="720px" />
									<g class="stem">
										<rect x="9903" y="2058" height="684" width="18" />
									</g>
									<g class="accid" id="accid-0000000014378192" />
								</g>
								<g class="note" id="note-L26F1">
									<use xlink:href="#E0A4" x="10096" y="2674" height="720px" width="720px" />
									<g class="dots" id="dots-0000000364851247">
										<ellipse cx="10412" cy="2584" rx="36" ry="36" />
									</g>
									<g class="stem">
										<rect x="10304" y="2018" height="634" width="18" />
									</g>
									<g class="accid" id="accid-0000001230889883" />
								</g>
							</g>
						</g>
					</g>
					<g class="mNum autogenerated" id="mnum-0000001573540764" />
					<g class="barLineAttr" id="bline-0000001950234651">
						<path d="M11543 3034 L11543 720" stroke="#000000" stroke-width="27" />
					</g>
				</g>
				<g class="measure" id="measure-L29">
					<g class="staff" id="staff-L29F2N1">
						<path d="M11556 720 L16013 720" stroke="#000000" stroke-width="13" />
						<path d="M11556 900 L16013 900" stroke="#000000" stroke-width="13" />
						<path d="M11556 1080 L16013 1080" stroke="#000000" stroke-width="13" />
						<path d="M11556 1260 L16013 1260" stroke="#000000" stroke-width="13" />
						<path d="M11556 1440 L16013 1440" stroke="#000000" stroke-width="13" />
						<g class="ledgerLines below">
							<path d="M12002 1620 L12281 1620" stroke="#000000" stroke-width="22" />
						</g>
						<g class="layer" id="layer-L29F2N1">
							<g class="beam" id="beam-L30F2-L33F2">
								<polygon points="12241,486 13957,316 13957,406 12241,576 " />
								<polygon points="12241,621 13957,451 13957,541 12241,711 " />
								<g class="note" id="note-L30F2">
									<use xlink:href="#E0A4" x="12033" y="1620" height="720px" width="720px" />
									<g class="stem">
										<rect x="12241" y="504" height="1094" width="18" />
									</g>
									<g class="accid" id="accid-0000000176544819" />
								</g>
								<g class="note" id="note-L31F2">
									<use xlink:href="#E0A4" x="12682" y="1440" height="720px" width="720px" />
									<g class="stem">
										<rect x="12890" y="439" height="979" width="18" />
									</g>
									<g class="accid" id="accid-0000002146185773">
										<use xlink:href="#E260" x="12486" y="1440" height="720px" width="720px" />
									</g>
								</g>
								<g class="note" id="note-L32F2">
									<use xlink:href="#E0A4" x="13083" y="1350" height="720px" width="720px" />
									<g class="stem">
										<rect x="13291" y="399" height="929" width="18" />
									</g>
									<g class="accid" id="accid-0000001126895214" />
								</g>
								<g class="note" id="note-L33F2">
									<use xlink:href="#E0A4" x="13731" y="990" height="720px" width="720px" />
									<g class="stem">
										<rect x="13939" y="334" height="634" width="18" />
									</g>
									<g class="accid" id="accid-0000001972850245" />
								</g>
							</g>
							<g class="beam" id="beam-L34F2-L37F2">
								<polygon points="14588,276 15808,396 15808,486 14588,366 " />
								<polygon points="14588,411 15808,531 15808,621 14588,501 " />
								<g class="note" id="note-L34F2">
									<use xlink:href="#E0A4" x="14380" y="1080" height="720px" width="720px" />
									<g class="stem">
										<rect x="14588" y="294" height="764" width="18" />
									</g>
									<g class="accid" id="accid-0000000033877070">
										<use xlink:href="#E260" x="14184" y="1080" height="720px" width="720px" />
									</g>
								</g>
								<g class="note" id="note-L35F2">
									<use xlink:href="#E0A4" x="14781" y="990" height="720px" width="720px" />
									<g class="stem">
										<rect x="14989" y="334" height="634" width="18" />
									</g>
									<g class="accid" id="accid-0000001839472672" />
								</g>
								<g class="note" id="note-L36F2">
									<use xlink:href="#E0A4" x="15181" y="1260" height="720px" width="720px" />
									<g class="stem">
										<rect x="15389" y="374" height="864" width="18" />
									</g>
									<g class="accid" id="accid-0000001341489926" />
								</g>
								<g class="note" id="note-L37F2">
									<use xlink:href="#E0A4" x="15582" y="1350" height="720px" width="720px" />
									<g class="stem">
										<rect x="15790" y="414" height="914" width="18" />
									</g>
									<g class="accid" id="accid-0000001465399375" />
								</g>
							</g>
						</g>
					</g>
					<g class="staff" id="staff-L29F1N1">
						<path d="M11556 2314 L16013 2314" stroke="#000000" stroke-width="13" />
						<path d="M11556 2494 L16013 2494" stroke="#000000" stroke-width="13" />
						<path d="M11556 2674 L16013 2674" stroke="#000000" stroke-width="13" />
						<path d="M11556 2854 L16013 2854" stroke="#000000" stroke-width="13" />
						<path d="M11556 3034 L16013 3034" stroke="#000000" stroke-width="13" />
						<g class="layer" id="layer-L29F1N1">
							<g class="beam" id="beam-L30F1-L33F1">
								<polygon points="12241,2065 13957,1895 13957,1985 12241,2155 " />
								<polygon points="12241,2200 13957,2030 13957,2120 12241,2290 " />
								<g class="note" id="note-L30F1">
									<use xlink:href="#E0A4" x="12033" y="2854" height="720px" width="720px" />
									<g class="stem">
										<rect x="12241" y="2083" height="749" width="18" />
									</g>
									<g class="accid" id="accid-0000001555356678">
										<use xlink:href="#E260" x="11837" y="2854" height="720px" width="720px" />
									</g>
								</g>
								<g class="note" id="note-L31F1">
									<use xlink:href="#E0A4" x="12682" y="2674" height="720px" width="720px" />
									<g class="stem">
										<rect x="12890" y="2018" height="634" width="18" />
									</g>
									<g class="accid" id="accid-0000000424821303" />
								</g>
								<g class="note" id="note-L32F1">
									<use xlink:href="#E0A4" x="13083" y="2854" height="720px" width="720px" />
									<g class="stem">
										<rect x="13291" y="1978" height="854" width="18" />
									</g>
									<g class="accid" id="accid-0000001186952509" />
								</g>
								<g class="note" id="note-L33F1">
									<use xlink:href="#E0A4" x="13731" y="2584" height="720px" width="720px" />
									<g class="stem">
										<rect x="13939" y="1913" height="649" width="18" />
									</g>
									<g class="accid" id="accid-0000001427736512">
										<use xlink:href="#E260" x="13535" y="2584" height="720px" width="720px" />
									</g>
								</g>
							</g>
							<g class="beam" id="beam-L34F1-L37F1">
								<polygon points="14588,1880 15808,2000 15808,2090 14588,1970 " />
								<polygon points="15398,2095 15808,2135 15808,2225 15398,2185 " />
								<g class="note" id="note-L34F1">
									<use xlink:href="#E0A4" x="14380" y="2584" height="720px" width="720px" />
									<g class="stem">
										<rect x="14588" y="1898" height="664" width="18" />
									</g>
									<g class="accid" id="accid-0000000342250747" />
								</g>
								<g class="note" id="note-L36F1">
									<use xlink:href="#E0A4" x="15181" y="2854" height="720px" width="720px" />
									<g class="stem">
										<rect x="15389" y="1978" height="854" width="18" />
									</g>
									<g class="accid" id="accid-0000000538430821" />
								</g>
								<g class="note" id="note-L37F1">
									<use xlink:href="#E0A4" x="15582" y="2674" height="720px" width="720px" />
									<g class="stem">
										<rect x="15790" y="2018" height="634" width="18" />
									</g>
									<g class="accid" id="accid-0000000563605076" />
								</g>
							</g>
						</g>
					</g>
					<g class="tie" id="tie-L33F1-L34F1">
						<path d="M13979,2629 C14073,2727 14261,2727 14358,2629 C14261,2771 14073,2771 13979,2629" stroke="#000000" stroke-linecap="round" stroke-linejoin="round" stroke-width="9" />
					</g>
					<g class="mNum autogenerated" id="mnum-0000001395151299" />
					<g class="barLineAttr" id="bline-0000001079213778">
						<path d="M16000 3034 L16000 720" stroke="#000000" stroke-width="27" />
					</g>
				</g>
				<g class="measure" id="measure-L38">
					<g class="staff" id="staff-L38F2N1">
						<path d="M16013 720 L20003 720" stroke="#000000" stroke-width="13" />
						<path d="M16013 900 L20003 900" stroke="#000000" stroke-width="13" />
						<path d="M16013 1080 L20003 1080" stroke="#000000" stroke-width="13" />
						<path d="M16013 1260 L20003 1260" stroke="#000000" stroke-width="13" />
						<path d="M16013 1440 L20003 1440" stroke="#000000" stroke-width="13" />
						<g class="layer" id="layer-L38F2N1">
							<g class="rest" id="rest-L39F2">
								<use xlink:href="#E4E5" x="16490" y="1080" height="720px" width="720px" />
							</g>
							<g class="beam" id="beam-L41F2-L44F2">
								<polygon points="18082,661 19797,831 19797,921 18082,751 " />
								<polygon points="19141,901 19797,966 19797,1056 19141,991 " />
								<g class="note" id="note-L41F2">
									<use xlink:href="#E0A4" x="17874" y="1350" height="720px" width="720px" />
									<g class="stem">
										<rect x="18082" y="679" height="649" width="18" />
									</g>
									<g class="accid" id="accid-0000001550223329">
										<use xlink:href="#E262" x="17679" y="1350" height="720px" width="720px" />
									</g>
								</g>
								<g class="note" id="note-L43F2">
									<use xlink:href="#E0A4" x="18924" y="1440" height="720px" width="720px" />
									<g class="stem">
										<rect x="19132" y="784" height="634" width="18" />
									</g>
									<g class="accid" id="accid-0000001770806212">
										<use xlink:href="#E262" x="18729" y="1440" height="720px" width="720px" />
									</g>
								</g>
								<g class="note" id="note-L44F2">
									<use xlink:href="#E0A4" x="19571" y="1530" height="720px" width="720px" />
									<g class="stem">
										<rect x="19779" y="849" height="659" width="18" />
									</g>
									<g class="accid" id="accid-0000000765918784">
										<use xlink:href="#E262" x="19376" y="1530" height="720px" width="720px" />
									</g>
								</g>
							</g>
						</g>
					</g>
					<g class="staff" id="staff-L38F1N1">
						<path d="M16013 2314 L20003 2314" stroke="#000000" stroke-width="13" />
						<path d="M16013 2494 L20003 2494" stroke="#000000" stroke-width="13" />
						<path d="M16013 2674 L20003 2674" stroke="#000000" stroke-width="13" />
						<path d="M16013 2854 L20003 2854" stroke="#000000" stroke-width="13" />
						<path d="M16013 3034 L20003 3034" stroke="#000000" stroke-width="13" />
						<g class="layer" id="layer-L38F1N1">
							<g class="beam" id="beam-L39F1-L40F1">
								<polygon points="16698,1975 17365,1910 17365,2000 16698,2065 " />
								<polygon points="16698,2110 16856,2095 16856,2185 16698,2200 " />
								<g class="note" id="note-L39F1">
									<use xlink:href="#E0A4" x="16490" y="2854" height="720px" width="720px" />
									<g class="stem">
										<rect x="16698" y="1993" height="839" width="18" />
									</g>
									<g class="accid" id="accid-0000001361006322">
										<use xlink:href="#E260" x="16294" y="2854" height="720px" width="720px" />
									</g>
								</g>
								<g class="note" id="note-L40F1">
									<use xlink:href="#E0A4" x="17139" y="2584" height="720px" width="720px" />
									<g class="dots" id="dots-0000000828801975">
										<ellipse cx="17455" cy="2584" rx="36" ry="36" />
									</g>
									<g class="stem">
										<rect x="17347" y="1928" height="634" width="18" />
									</g>
									<g class="accid" id="accid-0000000525587811">
										<use xlink:href="#E260" x="16943" y="2584" height="720px" width="720px" />
									</g>
								</g>
							</g>
							<g class="beam" id="beam-L41F1-L44F1">
								<polygon points="18082,1990 19797,1820 19797,1910 18082,2080 " />
								<polygon points="18082,2125 19797,1955 19797,2045 18082,2215 " />
								<g class="note" id="note-L41F1">
									<use xlink:href="#E0A4" x="17874" y="2854" height="720px" width="720px" />
									<g class="stem">
										<rect x="18082" y="2008" height="824" width="18" />
									</g>
									<g class="accid" id="accid-0000000585054494" />
								</g>
								<g class="note" id="note-L42F1">
									<use xlink:href="#E0A4" x="18523" y="2674" height="720px" width="720px" />
									<g class="stem">
										<rect x="18731" y="1943" height="709" width="18" />
									</g>
									<g class="accid" id="accid-0000000180344228">
										<use xlink:href="#E260" x="18327" y="2674" height="720px" width="720px" />
									</g>
								</g>
								<g class="note" id="note-L43F1">
									<use xlink:href="#E0A4" x="18924" y="2854" height="720px" width="720px" />
									<g class="stem">
										<rect x="19132" y="1903" height="929" width="18" />
									</g>
									<g class="accid" id="accid-0000001837187012" />
								</g>
								<g class="note" id="note-L44F1">
									<use xlink:href="#E0A4" x="19571" y="2494" height="720px" width="720px" />
									<g class="stem">
										<rect x="19779" y="1838" height="634" width="18" />
									</g>
									<g class="accid" id="accid-0000002069814783" />
								</g>
							</g>
						</g>
					</g>
					<g class="tie" id="tie-L44F1-L46F1">
						<path d="M19684,2629 C19760,2727 19912,2727 19990,2629 C19912,2771 19760,2771 19684,2629" stroke="#000000" stroke-linecap="round" stroke-linejoin="round" stroke-width="9" />
					</g>
					<g class="mNum autogenerated" id="mnum-0000002137874046" />
					<g class="barLineAttr" id="bline-0000001403144864">
						<path d="M19990 3034 L19990 720" stroke="#000000" stroke-width="27" />
					</g>
				</g>
			</g>
		</g>
	</svg>
</svg>
