<?xml version="1.0" encoding="UTF-8" standalone="no"?>
<svg width="2100.00px" height="450.00px" version="1.1" xmlns="http://www.w3.org/2000/svg" xmlns:xlink="http://www.w3.org/1999/xlink" overflow="visible">
	<desc>Engraved by Verovio 2.0.0-dev-0f0381c</desc>
	<defs>
		<symbol id="E050" viewBox="0 0 1000 1000" overflow="inherit">
			<path transform="scale(1,-1)" d="M441 -245c-23 -4 -48 -6 -76 -6c-59 0 -102 7 -130 20c-88 42 -150 93 -187 154c-26 44 -43 103 -48 176c-4 60 11 123 44 189c29 57 65 106 110 148s96 85 153 127c-3 16 -8 46 -13 92c-4 43 -5 73 -5 89c0 117 16 172 69 257c34 54 64 82 89 82c21 0 43 -30 69 -92 s39 -115 41 -159c2 -120 -19 -173 -67 -256c-13 -20 -63 -90 -98 -118c-13 -9 -25 -19 -37 -29l31 -181c8 1 18 2 28 2c58 0 102 -12 133 -35c59 -43 92 -104 98 -184c11 -135 -80 -229 -180 -270c8 -57 17 -110 25 -162c5 -31 6 -58 6 -80c0 -30 -5 -53 -14 -70 c-35 -64 -88 -99 -158 -103c-42 -3 -83 6 -124 26c-50 24 -77 59 -80 105c-2 34 5 63 20 87c18 28 45 42 79 44c51 4 99 -40 103 -87c4 -56 -30 -94 -105 -115c17 -24 51 -36 102 -36c62 0 116 43 140 85c9 16 13 41 13 74c0 20 -1 42 -5 67c-8 53 -18 106 -26 159zM461 939 c-95 0 -135 -175 -135 -286c0 -24 2 -48 5 -71c50 39 92 82 127 128c43 57 63 106 60 148c-4 54 -23 82 -57 81zM406 119l54 -326c80 27 116 88 109 184c-7 99 -62 146 -163 142zM382 117c-74 -2 -132 -50 -128 -127c2 -46 43 -99 75 -115c-3 -2 -7 -5 -10 -10 c-70 33 -116 88 -123 172c-5 73 42 135 88 170c23 17 49 29 78 36l-29 170c-21 -13 -52 -37 -92 -73c-50 -44 -86 -84 -109 -119c-49 -75 -71 -140 -67 -195c5 -68 35 -127 93 -176s125 -73 203 -73c25 0 50 3 75 9c-19 111 -36 221 -54 331z" />
		</symbol>
		<symbol id="E082" viewBox="0 0 1000 1000" overflow="inherit">
			<path transform="scale(1,-1)" d="M104 -185c-18 0 -55 -14 -65 -65h-36l-3 29c0 25 6 46 18 64c11 19 22 30 39 43l121 82l37 29c15 11 27 29 38 54c12 24 18 47 18 70c0 40 -19 88 -94 88c-25 0 -32 0 -50 -8c-14 -5 -23 -12 -26 -22c3 -9 7 -15 10 -18l24 -17c12 -7 17 -11 27 -21c5 -7 7 -16 7 -27 c0 -12 0 -57 -79 -74c-30 0 -76 26 -76 94c0 66 80 135 196 135c72 0 182 -32 182 -150c0 -53 -32 -95 -113 -133l-91 -41c-26 -11 -45 -23 -57 -37l49 7c84 0 115 -41 148 -41c20 0 33 20 39 61h35c0 -152 -68 -168 -114 -168c-17 0 -55 0 -69 7v0l-28 17 c-49 37 -69 40 -87 42z" />
		</symbol>
		<symbol id="E084" viewBox="0 0 1000 1000" overflow="inherit">
			<path transform="scale(1,-1)" d="M0 -78c84 97 114 180 134 329h170c-13 -32 -82 -132 -99 -151l-84 -97c-33 -36 -59 -63 -80 -81h162v102l127 123v-225h57v-39h-57v-34c0 -43 19 -65 57 -65v-34h-244v36c48 0 60 26 60 70v27h-203v39z" />
		</symbol>
		<symbol id="E0A4" viewBox="0 0 1000 1000" overflow="inherit">
			<path transform="scale(1,-1)" d="M0 -39c0 68 73 172 200 172c66 0 114 -37 114 -95c0 -84 -106 -171 -218 -171c-64 0 -96 30 -96 94z" />
		</symbol>
		<symbol id="E062" viewBox="0 0 1000 1000" overflow="inherit">
			<path transform="scale(1,-1)" d="M158 96c51 0 73 -14 88 -49l16 -39c0 -17 -2 -30 -7 -40c-3 -11 -10 -21 -19 -31c-17 -18 -49 -43 -84 -43c-55 0 -77 13 -112 44c-24 21 -35 55 -35 100c0 46 14 81 32 112c30 52 71 79 137 93l36 6l26 2c154 0 235 -68 274 -182c11 -32 18 -68 18 -107 c0 -103 -26 -182 -68 -250c-89 -145 -234 -230 -412 -288l-30 -5c-9 0 -14 3 -14 8c3 10 5 11 10 16c35 15 70 30 96 44l78 43c96 57 162 136 197 258c9 33 17 60 22 100c3 22 5 35 6 39c-7 69 -16 115 -23 140s-4 22 -16 40c-8 12 -19 23 -31 34c-24 21 -62 44 -118 44 c-48 0 -84 -8 -113 -28c-28 -19 -42 -44 -42 -73v-16c2 -5 3 -9 4 -11c24 22 52 39 84 39zM585 -118c0 32 23 58 57 58c18 0 33 -6 40 -18c9 -15 16 -18 16 -40c0 -9 -2 -16 -5 -21c-6 -19 -27 -37 -51 -37c-34 0 -57 26 -57 58zM642 177c31 0 56 -27 56 -58 c0 -30 -25 -58 -56 -58l-23 3c-19 7 -34 32 -34 55l3 23c9 20 28 35 54 35z" />
		</symbol>
		<symbol id="E260" viewBox="0 0 1000 1000" overflow="inherit">
			<path transform="scale(1,-1)" d="M20 110c32 16 54 27 93 27c26 0 35 -3 54 -13c13 -7 24 -20 27 -38l4 -25c0 -28 -16 -57 -45 -89c-23 -25 -39 -44 -65 -68l-88 -79v644h20v-359zM90 106c-32 0 -48 -10 -70 -29v-194c31 31 54 59 71 84c21 32 32 59 32 84c0 9 1 16 1 20c0 14 -3 21 -11 30l-8 3z" />
		</symbol>
		<symbol id="E262" viewBox="0 0 1000 1000" overflow="inherit">
			<path transform="scale(1,-1)" d="M136 186v169h17v-164l44 14v-91l-44 -14v-165l44 12v-91l-44 -13v-155h-17v150l-76 -22v-155h-17v149l-43 -13v90l43 14v167l-43 -14v92l43 13v169h17v-163zM60 73v-167l76 22v168z" />
		</symbol>
	</defs>
	<style type="text/css">g.page-margin{font-family:Times;} g.tempo{font-weight:bold;} g.dir, g.dynam, g.mNum{font-style:italic;} g.label{font-weight:normal;}</style>
	<svg class="definition-scale" viewBox="0 0 21000 4500">
		<g class="page-margin" transform="translate(500, 500)">
			<g class="system" id="system-0000001492906097">
				<path d="M13 720 L13 2880" stroke="#000000" stroke-width="27" />
				<path d="M-32,2862 C-392,2322 58,1980 -212,1800 C121,1980 -329,2322 -32,2862" stroke="#000000" stroke-linecap="round" stroke-linejoin="round" stroke-width="18" />
				<path d="M-32,738 C-329,1278 121,1620 -212,1800 C58,1620 -392,1278 -32,738" stroke="#000000" stroke-linecap="round" stroke-linejoin="round" stroke-width="18" />
				<g class="section boundaryStart" id="section-L1F1" />
				<g class="measure" id="measure-L4">
					<g class="staff" id="staff-L4F2N1">
						<path d="M0 720 L4445 720" stroke="#000000" stroke-width="13" />
						<path d="M0 900 L4445 900" stroke="#000000" stroke-width="13" />
						<path d="M0 1080 L4445 1080" stroke="#000000" stroke-width="13" />
						<path d="M0 1260 L4445 1260" stroke="#000000" stroke-width="13" />
						<path d="M0 1440 L4445 1440" stroke="#000000" stroke-width="13" />
						<g class="clef" id="clef-0000001948827379">
							<use xlink:href="#E050" x="90" y="1260" height="720px" width="720px" />
						</g>
						<g class="meterSig" id="msig-0000000521174809">
							<use xlink:href="#E082" x="771" y="900" height="720px" width="720px" />
							<use xlink:href="#E084" x="777" y="1260" height="720px" width="720px" />
						</g>
						<g class="layer" id="layer-L4F2N1">
							<g class="beam" id="beam-L5F2-L8F2">
								<polygon points="1577,393 2745,278 2745,368 1577,483 " />
								<polygon points="2352,451 2745,413 2745,503 2352,541 " />
								<g class="note" id="note-L5F2">
									<use xlink:href="#E0A4" x="1369" y="1260" height="720px" width="720px" />
									<g class="stem">
										<rect x="1577" y="411" height="827" width="18" />
									</g>
									<g class="accid" id="accid-0000001522242570" />
								</g>
								<g class="note" id="note-L7F2">
									<use xlink:href="#E0A4" x="2135" y="990" height="720px" width="720px" />
									<g class="stem">
										<rect x="2343" y="334" height="634" width="18" />
									</g>
									<g class="accid" id="accid-0000001449914190" />
								</g>
								<g class="note" id="note-L8F2">
									<use xlink:href="#E0A4" x="2519" y="1080" height="720px" width="720px" />
									<g class="stem">
										<rect x="2727" y="296" height="762" width="18" />
									</g>
									<g class="accid" id="accid-0000001181095575" />
								</g>
							</g>
							<g class="beam" id="beam-L9F2-L11F2">
								<polygon points="3110,316 3894,393 3894,483 3110,406 " />
								<polygon points="3110,451 3502,490 3502,580 3110,541 " />
								<g class="note" id="note-L9F2">
									<use xlink:href="#E0A4" x="2902" y="990" height="720px" width="720px" />
									<g class="stem">
										<rect x="3110" y="334" height="634" width="18" />
									</g>
									<g class="accid" id="accid-0000001054420981" />
								</g>
								<g class="note" id="note-L10F2">
									<use xlink:href="#E0A4" x="3285" y="1170" height="720px" width="720px" />
									<g class="stem">
										<rect x="3493" y="373" height="775" width="18" />
									</g>
									<g class="accid" id="accid-0000001315306928" />
								</g>
								<g class="note" id="note-L11F2">
									<use xlink:href="#E0A4" x="3668" y="1260" height="720px" width="720px" />
									<g class="stem">
										<rect x="3876" y="411" height="827" width="18" />
									</g>
									<g class="accid" id="accid-0000000082684164" />
								</g>
							</g>
						</g>
					</g>
					<g class="staff" id="staff-L4F1N1">
						<path d="M0 2160 L4445 2160" stroke="#000000" stroke-width="13" />
						<path d="M0 2340 L4445 2340" stroke="#000000" stroke-width="13" />
						<path d="M0 2520 L4445 2520" stroke="#000000" stroke-width="13" />
						<path d="M0 2700 L4445 2700" stroke="#000000" stroke-width="13" />
						<path d="M0 2880 L4445 2880" stroke="#000000" stroke-width="13" />
						<g class="clef" id="clef-0000001946702397">
							<use xlink:href="#E062" x="90" y="2340" height="720px" width="720px" />
						</g>
						<g class="meterSig" id="msig-0000001313824334">
							<use xlink:href="#E082" x="771" y="2340" height="720px" width="720px" />
							<use xlink:href="#E084" x="777" y="2700" height="720px" width="720px" />
						</g>
						<g class="layer" id="layer-L4F1N1">
							<g class="beam" id="beam-L5F1-L8F1">
								<polygon points="1369,3285 2537,3170 2537,3080 1369,3195 " />
								<polygon points="1369,3150 2537,3035 2537,2945 1369,3060 " />
								<g class="note" id="note-L5F1">
									<use xlink:href="#E0A4" x="1369" y="2610" height="720px" width="720px" />
									<g class="stem">
										<rect x="1369" y="2632" height="635" width="18" />
									</g>
									<g class="accid" id="accid-0000001357241309" />
								</g>
								<g class="note" id="note-L6F1">
									<use xlink:href="#E0A4" x="1752" y="2340" height="720px" width="720px" />
									<g class="stem">
										<rect x="1752" y="2362" height="866" width="18" />
									</g>
									<g class="accid" id="accid-0000001637232148" />
								</g>
								<g class="note" id="note-L7F1">
									<use xlink:href="#E0A4" x="2135" y="2430" height="720px" width="720px" />
									<g class="stem">
										<rect x="2135" y="2452" height="738" width="18" />
									</g>
									<g class="accid" id="accid-0000000912261787" />
								</g>
								<g class="note" id="note-L8F1">
									<use xlink:href="#E0A4" x="2519" y="2250" height="720px" width="720px" />
									<g class="stem">
										<rect x="2519" y="2272" height="880" width="18" />
									</g>
									<g class="accid" id="accid-0000001437766604" />
								</g>
							</g>
							<g class="beam" id="beam-L9F1-L12F1">
								<polygon points="2902,2992 4050,3105 4050,3015 2902,2902 " />
								<polygon points="2902,2857 3060,2872 3060,2782 2902,2767 " />
								<polygon points="3892,2956 4050,2970 4050,2880 3892,2866 " />
								<g class="note" id="note-L9F1">
									<use xlink:href="#E0A4" x="2902" y="2250" height="720px" width="720px" />
									<g class="stem">
										<rect x="2902" y="2272" height="702" width="18" />
									</g>
									<g class="accid" id="accid-0000000121716686" />
								</g>
								<g class="note" id="note-L10F1">
									<use xlink:href="#E0A4" x="3285" y="2340" height="720px" width="720px" />
									<g class="stem">
										<rect x="3285" y="2362" height="651" width="18" />
									</g>
									<g class="accid" id="accid-0000001409943893" />
								</g>
								<g class="note" id="note-L12F1">
									<use xlink:href="#E0A4" x="4032" y="2430" height="720px" width="720px" />
									<g class="stem">
										<rect x="4032" y="2452" height="635" width="18" />
									</g>
									<g class="accid" id="accid-0000000195818410" />
								</g>
							</g>
						</g>
					</g>
					<g class="tie" id="tie-L8F1-L9F1">
						<path d="M2632,2115 C2727,1973 2917,1973 3015,2115 C2917,2017 2727,2017 2632,2115" stroke="#000000" stroke-linecap="round" stroke-linejoin="round" stroke-width="9" />
					</g>
					<g class="mNum autogenerated" id="mnum-0000001858815923" />
					<g class="barLineAttr" id="bline-0000001029266483">
						<path d="M4432 2880 L4432 720" stroke="#000000" stroke-width="27" />
					</g>
				</g>
				<g class="measure" id="measure-L13">
					<g class="staff" id="staff-L13F2N1">
						<path d="M4445 720 L7740 720" stroke="#000000" stroke-width="13" />
						<path d="M4445 900 L7740 900" stroke="#000000" stroke-width="13" />
						<path d="M4445 1080 L7740 1080" stroke="#000000" stroke-width="13" />
						<path d="M4445 1260 L7740 1260" stroke="#000000" stroke-width="13" />
						<path d="M4445 1440 L7740 1440" stroke="#000000" stroke-width="13" />
						<g class="layer" id="layer-L13F2N1">
							<g class="beam" id="beam-L14F2-L17F2">
								<polygon points="4872,393 6040,278 6040,368 4872,483 " />
								<polygon points="5647,451 6040,413 6040,503 5647,541 " />
								<g class="note" id="note-L14F2">
									<use xlink:href="#E0A4" x="4664" y="1260" height="720px" width="720px" />
									<g class="stem">
										<rect x="4872" y="411" height="827" width="18" />
									</g>
									<g class="accid" id="accid-0000000795469186" />
								</g>
								<g class="note" id="note-L16F2">
									<use xlink:href="#E0A4" x="5430" y="990" height="720px" width="720px" />
									<g class="stem">
										<rect x="5638" y="334" height="634" width="18" />
									</g>
									<g class="accid" id="accid-0000000563682035" />
								</g>
								<g class="note" id="note-L17F2">
									<use xlink:href="#E0A4" x="5814" y="1080" height="720px" width="720px" />
									<g class="stem">
										<rect x="6022" y="296" height="762" width="18" />
									</g>
									<g class="accid" id="accid-0000000214616979" />
								</g>
							</g>
							<g class="beam" id="beam-L18F2-L20F2">
								<polygon points="6405,316 7189,393 7189,483 6405,406 " />
								<polygon points="6405,451 6797,490 6797,580 6405,541 " />
								<g class="note" id="note-L18F2">
									<use xlink:href="#E0A4" x="6197" y="990" height="720px" width="720px" />
									<g class="stem">
										<rect x="6405" y="334" height="634" width="18" />
									</g>
									<g class="accid" id="accid-0000001215088510" />
								</g>
								<g class="note" id="note-L19F2">
									<use xlink:href="#E0A4" x="6580" y="1170" height="720px" width="720px" />
									<g class="stem">
										<rect x="6788" y="373" height="775" width="18" />
									</g>
									<g class="accid" id="accid-0000000007678405" />
								</g>
								<g class="note" id="note-L20F2">
									<use xlink:href="#E0A4" x="6963" y="1260" height="720px" width="720px" />
									<g class="stem">
										<rect x="7171" y="411" height="827" width="18" />
									</g>
									<g class="accid" id="accid-0000000880827845" />
								</g>
							</g>
						</g>
					</g>
					<g class="staff" id="staff-L13F1N1">
						<path d="M4445 2160 L7740 2160" stroke="#000000" stroke-width="13" />
						<path d="M4445 2340 L7740 2340" stroke="#000000" stroke-width="13" />
						<path d="M4445 2520 L7740 2520" stroke="#000000" stroke-width="13" />
						<path d="M4445 2700 L7740 2700" stroke="#000000" stroke-width="13" />
						<path d="M4445 2880 L7740 2880" stroke="#000000" stroke-width="13" />
						<g class="layer" id="layer-L13F1N1">
							<g class="beam" id="beam-L14F1-L17F1">
								<polygon points="4664,3285 5832,3170 5832,3080 4664,3195 " />
								<polygon points="4664,3150 5832,3035 5832,2945 4664,3060 " />
								<g class="note" id="note-L14F1">
									<use xlink:href="#E0A4" x="4664" y="2610" height="720px" width="720px" />
									<g class="stem">
										<rect x="4664" y="2632" height="635" width="18" />
									</g>
									<g class="accid" id="accid-0000001323632451" />
								</g>
								<g class="note" id="note-L15F1">
									<use xlink:href="#E0A4" x="5047" y="2340" height="720px" width="720px" />
									<g class="stem">
										<rect x="5047" y="2362" height="866" width="18" />
									</g>
									<g class="accid" id="accid-0000001973661751" />
								</g>
								<g class="note" id="note-L16F1">
									<use xlink:href="#E0A4" x="5430" y="2430" height="720px" width="720px" />
									<g class="stem">
										<rect x="5430" y="2452" height="738" width="18" />
									</g>
									<g class="accid" id="accid-0000000578335652" />
								</g>
								<g class="note" id="note-L17F1">
									<use xlink:href="#E0A4" x="5814" y="2250" height="720px" width="720px" />
									<g class="stem">
										<rect x="5814" y="2272" height="880" width="18" />
									</g>
									<g class="accid" id="accid-0000001005915524" />
								</g>
							</g>
							<g class="beam" id="beam-L18F1-L21F1">
								<polygon points="6197,2992 7345,3105 7345,3015 6197,2902 " />
								<polygon points="6197,2857 6355,2872 6355,2782 6197,2767 " />
								<polygon points="7187,2956 7345,2970 7345,2880 7187,2866 " />
								<g class="note" id="note-L18F1">
									<use xlink:href="#E0A4" x="6197" y="2250" height="720px" width="720px" />
									<g class="stem">
										<rect x="6197" y="2272" height="702" width="18" />
									</g>
									<g class="accid" id="accid-0000001316419671" />
								</g>
								<g class="note" id="note-L19F1">
									<use xlink:href="#E0A4" x="6580" y="2340" height="720px" width="720px" />
									<g class="stem">
										<rect x="6580" y="2362" height="651" width="18" />
									</g>
									<g class="accid" id="accid-0000001699721722" />
								</g>
								<g class="note" id="note-L21F1">
									<use xlink:href="#E0A4" x="7327" y="2430" height="720px" width="720px" />
									<g class="stem">
										<rect x="7327" y="2452" height="635" width="18" />
									</g>
									<g class="accid" id="accid-0000001655223933" />
								</g>
							</g>
						</g>
					</g>
					<g class="tie" id="tie-L17F1-L18F1">
						<path d="M5927,2115 C6022,1973 6212,1973 6310,2115 C6212,2017 6022,2017 5927,2115" stroke="#000000" stroke-linecap="round" stroke-linejoin="round" stroke-width="9" />
					</g>
					<g class="mNum autogenerated" id="mnum-0000000164750682" />
					<g class="barLineAttr" id="bline-0000001549255518">
						<path d="M7727 2880 L7727 720" stroke="#000000" stroke-width="27" />
					</g>
				</g>
				<g class="measure" id="measure-L22">
					<g class="staff" id="staff-L22F2N1">
						<path d="M7740 720 L11748 720" stroke="#000000" stroke-width="13" />
						<path d="M7740 900 L11748 900" stroke="#000000" stroke-width="13" />
						<path d="M7740 1080 L11748 1080" stroke="#000000" stroke-width="13" />
						<path d="M7740 1260 L11748 1260" stroke="#000000" stroke-width="13" />
						<path d="M7740 1440 L11748 1440" stroke="#000000" stroke-width="13" />
						<g class="layer" id="layer-L22F2N1">
							<g class="beam" id="beam-L23F2-L26F2">
								<polygon points="8405,455 9810,316 9810,406 8405,545 " />
								<polygon points="9418,489 9810,451 9810,541 9418,579 " />
								<g class="note" id="note-L23F2">
									<use xlink:href="#E0A4" x="8197" y="1260" height="720px" width="720px" />
									<g class="stem">
										<rect x="8405" y="473" height="765" width="18" />
									</g>
									<g class="accid" id="accid-0000001767399752" />
								</g>
								<g class="note" id="note-L25F2">
									<use xlink:href="#E0A4" x="9201" y="1080" height="720px" width="720px" />
									<g class="stem">
										<rect x="9409" y="372" height="686" width="18" />
									</g>
									<g class="accid" id="accid-0000000306790710">
										<use xlink:href="#E260" x="9005" y="1080" height="720px" width="720px" />
									</g>
								</g>
								<g class="note" id="note-L26F2">
									<use xlink:href="#E0A4" x="9584" y="990" height="720px" width="720px" />
									<g class="stem">
										<rect x="9792" y="334" height="634" width="18" />
									</g>
									<g class="accid" id="accid-0000000893936353" />
								</g>
							</g>
							<g class="beam" id="beam-L27F2-L29F2">
								<polygon points="10175,406 11197,507 11197,597 10175,496 " />
								<polygon points="10175,541 10805,603 10805,693 10175,631 " />
								<g class="note" id="note-L27F2">
									<use xlink:href="#E0A4" x="9967" y="1080" height="720px" width="720px" />
									<g class="stem">
										<rect x="10175" y="424" height="634" width="18" />
									</g>
									<g class="accid" id="accid-0000000065322067" />
								</g>
								<g class="note" id="note-L28F2">
									<use xlink:href="#E0A4" x="10588" y="1170" height="720px" width="720px" />
									<g class="stem">
										<rect x="10796" y="486" height="662" width="18" />
									</g>
									<g class="accid" id="accid-0000000451228643">
										<use xlink:href="#E260" x="10392" y="1170" height="720px" width="720px" />
									</g>
								</g>
								<g class="note" id="note-L29F2">
									<use xlink:href="#E0A4" x="10971" y="1260" height="720px" width="720px" />
									<g class="stem">
										<rect x="11179" y="525" height="713" width="18" />
									</g>
									<g class="accid" id="accid-0000001389555908" />
								</g>
							</g>
						</g>
					</g>
					<g class="staff" id="staff-L22F1N1">
						<path d="M7740 2160 L11748 2160" stroke="#000000" stroke-width="13" />
						<path d="M7740 2340 L11748 2340" stroke="#000000" stroke-width="13" />
						<path d="M7740 2520 L11748 2520" stroke="#000000" stroke-width="13" />
						<path d="M7740 2700 L11748 2700" stroke="#000000" stroke-width="13" />
						<path d="M7740 2880 L11748 2880" stroke="#000000" stroke-width="13" />
						<g class="layer" id="layer-L22F1N1">
							<g class="beam" id="beam-L23F1-L26F1">
								<polygon points="8197,3375 9602,3236 9602,3146 8197,3285 " />
								<polygon points="8197,3240 9602,3101 9602,3011 8197,3150 " />
								<g class="note" id="note-L23F1">
									<use xlink:href="#E0A4" x="8197" y="2700" height="720px" width="720px" />
									<g class="stem">
										<rect x="8197" y="2722" height="635" width="18" />
									</g>
									<g class="accid" id="accid-0000000719231726">
										<use xlink:href="#E260" x="8001" y="2700" height="720px" width="720px" />
									</g>
								</g>
								<g class="note" id="note-L24F1">
									<use xlink:href="#E0A4" x="8580" y="2340" height="720px" width="720px" />
									<g class="stem">
										<rect x="8580" y="2362" height="956" width="18" />
									</g>
									<g class="accid" id="accid-0000000859920724" />
								</g>
								<g class="note" id="note-L25F1">
									<use xlink:href="#E0A4" x="9201" y="2430" height="720px" width="720px" />
									<g class="stem">
										<rect x="9201" y="2452" height="804" width="18" />
									</g>
									<g class="accid" id="accid-0000000028840986">
										<use xlink:href="#E260" x="9005" y="2430" height="720px" width="720px" />
									</g>
								</g>
								<g class="note" id="note-L26F1">
									<use xlink:href="#E0A4" x="9584" y="2250" height="720px" width="720px" />
									<g class="stem">
										<rect x="9584" y="2272" height="946" width="18" />
									</g>
									<g class="accid" id="accid-0000001087288201" />
								</g>
							</g>
							<g class="beam" id="beam-L27F1-L30F1">
								<polygon points="9967,2968 11353,3105 11353,3015 9967,2878 " />
								<polygon points="9967,2833 10125,2848 10125,2758 9967,2743 " />
								<polygon points="11195,2955 11353,2970 11353,2880 11195,2865 " />
								<g class="note" id="note-L27F1">
									<use xlink:href="#E0A4" x="9967" y="2250" height="720px" width="720px" />
									<g class="stem">
										<rect x="9967" y="2272" height="678" width="18" />
									</g>
									<g class="accid" id="accid-0000000935149776" />
								</g>
								<g class="note" id="note-L28F1">
									<use xlink:href="#E0A4" x="10588" y="2340" height="720px" width="720px" />
									<g class="stem">
										<rect x="10588" y="2362" height="651" width="18" />
									</g>
									<g class="accid" id="accid-0000000252581373" />
								</g>
								<g class="note" id="note-L30F1">
									<use xlink:href="#E0A4" x="11335" y="2430" height="720px" width="720px" />
									<g class="stem">
										<rect x="11335" y="2452" height="635" width="18" />
									</g>
									<g class="accid" id="accid-0000000280427112" />
								</g>
							</g>
						</g>
					</g>
					<g class="tie" id="tie-L26F1-L27F1">
						<path d="M9697,2115 C9792,1973 9982,1973 10080,2115 C9982,2017 9792,2017 9697,2115" stroke="#000000" stroke-linecap="round" stroke-linejoin="round" stroke-width="9" />
					</g>
					<g class="mNum autogenerated" id="mnum-0000000655751638" />
					<g class="barLineAttr" id="bline-0000000786701500">
						<path d="M11735 2880 L11735 720" stroke="#000000" stroke-width="27" />
					</g>
				</g>
				<g class="measure" id="measure-L31">
					<g class="staff" id="staff-L31F2N1">
						<path d="M11748 720 L15756 720" stroke="#000000" stroke-width="13" />
						<path d="M11748 900 L15756 900" stroke="#000000" stroke-width="13" />
						<path d="M11748 1080 L15756 1080" stroke="#000000" stroke-width="13" />
						<path d="M11748 1260 L15756 1260" stroke="#000000" stroke-width="13" />
						<path d="M11748 1440 L15756 1440" stroke="#000000" stroke-width="13" />
						<g class="layer" id="layer-L31F2N1">
							<g class="beam" id="beam-L32F2-L35F2">
								<polygon points="12413,455 13818,316 13818,406 12413,545 " />
								<polygon points="13426,489 13818,451 13818,541 13426,579 " />
								<g class="note" id="note-L32F2">
									<use xlink:href="#E0A4" x="12205" y="1260" height="720px" width="720px" />
									<g class="stem">
										<rect x="12413" y="473" height="765" width="18" />
									</g>
									<g class="accid" id="accid-0000001972107667" />
								</g>
								<g class="note" id="note-L34F2">
									<use xlink:href="#E0A4" x="13209" y="1080" height="720px" width="720px" />
									<g class="stem">
										<rect x="13417" y="372" height="686" width="18" />
									</g>
									<g class="accid" id="accid-0000001068072123">
										<use xlink:href="#E260" x="13013" y="1080" height="720px" width="720px" />
									</g>
								</g>
								<g class="note" id="note-L35F2">
									<use xlink:href="#E0A4" x="13592" y="990" height="720px" width="720px" />
									<g class="stem">
										<rect x="13800" y="334" height="634" width="18" />
									</g>
									<g class="accid" id="accid-0000001367508559" />
								</g>
							</g>
							<g class="beam" id="beam-L36F2-L38F2">
								<polygon points="14183,406 15205,507 15205,597 14183,496 " />
								<polygon points="14183,541 14813,603 14813,693 14183,631 " />
								<g class="note" id="note-L36F2">
									<use xlink:href="#E0A4" x="13975" y="1080" height="720px" width="720px" />
									<g class="stem">
										<rect x="14183" y="424" height="634" width="18" />
									</g>
									<g class="accid" id="accid-0000000703645792" />
								</g>
								<g class="note" id="note-L37F2">
									<use xlink:href="#E0A4" x="14596" y="1170" height="720px" width="720px" />
									<g class="stem">
										<rect x="14804" y="486" height="662" width="18" />
									</g>
									<g class="accid" id="accid-0000000248950091">
										<use xlink:href="#E260" x="14400" y="1170" height="720px" width="720px" />
									</g>
								</g>
								<g class="note" id="note-L38F2">
									<use xlink:href="#E0A4" x="14979" y="1260" height="720px" width="720px" />
									<g class="stem">
										<rect x="15187" y="525" height="713" width="18" />
									</g>
									<g class="accid" id="accid-0000000704761091" />
								</g>
							</g>
						</g>
					</g>
					<g class="staff" id="staff-L31F1N1">
						<path d="M11748 2160 L15756 2160" stroke="#000000" stroke-width="13" />
						<path d="M11748 2340 L15756 2340" stroke="#000000" stroke-width="13" />
						<path d="M11748 2520 L15756 2520" stroke="#000000" stroke-width="13" />
						<path d="M11748 2700 L15756 2700" stroke="#000000" stroke-width="13" />
						<path d="M11748 2880 L15756 2880" stroke="#000000" stroke-width="13" />
						<g class="layer" id="layer-L31F1N1">
							<g class="beam" id="beam-L32F1-L35F1">
								<polygon points="12205,3375 13610,3236 13610,3146 12205,3285 " />
								<polygon points="12205,3240 13610,3101 13610,3011 12205,3150 " />
								<g class="note" id="note-L32F1">
									<use xlink:href="#E0A4" x="12205" y="2700" height="720px" width="720px" />
									<g class="stem">
										<rect x="12205" y="2722" height="635" width="18" />
									</g>
									<g class="accid" id="accid-0000001047234137">
										<use xlink:href="#E260" x="12009" y="2700" height="720px" width="720px" />
									</g>
								</g>
								<g class="note" id="note-L33F1">
									<use xlink:href="#E0A4" x="12588" y="2340" height="720px" width="720px" />
									<g class="stem">
										<rect x="12588" y="2362" height="956" width="18" />
									</g>
									<g class="accid" id="accid-0000000105221399" />
								</g>
								<g class="note" id="note-L34F1">
									<use xlink:href="#E0A4" x="13209" y="2430" height="720px" width="720px" />
									<g class="stem">
										<rect x="13209" y="2452" height="804" width="18" />
									</g>
									<g class="accid" id="accid-0000000192821621">
										<use xlink:href="#E260" x="13013" y="2430" height="720px" width="720px" />
									</g>
								</g>
								<g class="note" id="note-L35F1">
									<use xlink:href="#E0A4" x="13592" y="2250" height="720px" width="720px" />
									<g class="stem">
										<rect x="13592" y="2272" height="946" width="18" />
									</g>
									<g class="accid" id="accid-0000001143577766" />
								</g>
							</g>
							<g class="beam" id="beam-L36F1-L39F1">
								<polygon points="13975,2968 15361,3105 15361,3015 13975,2878 " />
								<polygon points="13975,2833 14133,2848 14133,2758 13975,2743 " />
								<polygon points="15203,2955 15361,2970 15361,2880 15203,2865 " />
								<g class="note" id="note-L36F1">
									<use xlink:href="#E0A4" x="13975" y="2250" height="720px" width="720px" />
									<g class="stem">
										<rect x="13975" y="2272" height="678" width="18" />
									</g>
									<g class="accid" id="accid-0000000716199356" />
								</g>
								<g class="note" id="note-L37F1">
									<use xlink:href="#E0A4" x="14596" y="2340" height="720px" width="720px" />
									<g class="stem">
										<rect x="14596" y="2362" height="651" width="18" />
									</g>
									<g class="accid" id="accid-0000000338873131" />
								</g>
								<g class="note" id="note-L39F1">
									<use xlink:href="#E0A4" x="15343" y="2430" height="720px" width="720px" />
									<g class="stem">
										<rect x="15343" y="2452" height="635" width="18" />
									</g>
									<g class="accid" id="accid-0000000242428185" />
								</g>
							</g>
						</g>
					</g>
					<g class="tie" id="tie-L35F1-L36F1">
						<path d="M13705,2115 C13800,1973 13990,1973 14088,2115 C13990,2017 13800,2017 13705,2115" stroke="#000000" stroke-linecap="round" stroke-linejoin="round" stroke-width="9" />
					</g>
					<g class="mNum autogenerated" id="mnum-0000000072538222" />
					<g class="barLineAttr" id="bline-0000000892500245">
						<path d="M15743 2880 L15743 720" stroke="#000000" stroke-width="27" />
					</g>
				</g>
				<g class="measure" id="measure-L40">
					<g class="staff" id="staff-L40F2N1">
						<path d="M15756 720 L20001 720" stroke="#000000" stroke-width="13" />
						<path d="M15756 900 L20001 900" stroke="#000000" stroke-width="13" />
						<path d="M15756 1080 L20001 1080" stroke="#000000" stroke-width="13" />
						<path d="M15756 1260 L20001 1260" stroke="#000000" stroke-width="13" />
						<path d="M15756 1440 L20001 1440" stroke="#000000" stroke-width="13" />
						<g class="layer" id="layer-L40F2N1">
							<g class="beam" id="beam-L41F2-L44F2">
								<polygon points="16421,569 18064,406 18064,496 16421,659 " />
								<polygon points="17434,603 18064,541 18064,631 17434,693 " />
								<g class="note" id="note-L41F2">
									<use xlink:href="#E0A4" x="16213" y="1350" height="720px" width="720px" />
									<g class="stem">
										<rect x="16421" y="587" height="741" width="18" />
									</g>
									<g class="accid" id="accid-0000000324219866">
										<use xlink:href="#E262" x="16018" y="1350" height="720px" width="720px" />
									</g>
								</g>
								<g class="note" id="note-L43F2">
									<use xlink:href="#E0A4" x="17217" y="1170" height="720px" width="720px" />
									<g class="stem">
										<rect x="17425" y="486" height="662" width="18" />
									</g>
									<g class="accid" id="accid-0000000098169526">
										<use xlink:href="#E262" x="17022" y="1170" height="720px" width="720px" />
									</g>
								</g>
								<g class="note" id="note-L44F2">
									<use xlink:href="#E0A4" x="17838" y="1080" height="720px" width="720px" />
									<g class="stem">
										<rect x="18046" y="424" height="634" width="18" />
									</g>
									<g class="accid" id="accid-0000000672383680" />
								</g>
							</g>
							<g class="beam" id="beam-L45F2-L47F2">
								<polygon points="18429,496 19450,597 19450,687 18429,586 " />
								<polygon points="18429,631 19058,693 19058,783 18429,721 " />
								<g class="note" id="note-L45F2">
									<use xlink:href="#E0A4" x="18221" y="1170" height="720px" width="720px" />
									<g class="stem">
										<rect x="18429" y="514" height="634" width="18" />
									</g>
									<g class="accid" id="accid-0000000354511151" />
								</g>
								<g class="note" id="note-L46F2">
									<use xlink:href="#E0A4" x="18841" y="1260" height="720px" width="720px" />
									<g class="stem">
										<rect x="19049" y="576" height="662" width="18" />
									</g>
									<g class="accid" id="accid-0000001448752635">
										<use xlink:href="#E262" x="18646" y="1260" height="720px" width="720px" />
									</g>
								</g>
								<g class="note" id="note-L47F2">
									<use xlink:href="#E0A4" x="19224" y="1350" height="720px" width="720px" />
									<g class="stem">
										<rect x="19432" y="615" height="713" width="18" />
									</g>
									<g class="accid" id="accid-0000000374701216" />
								</g>
							</g>
						</g>
					</g>
					<g class="staff" id="staff-L40F1N1">
						<path d="M15756 2160 L20001 2160" stroke="#000000" stroke-width="13" />
						<path d="M15756 2340 L20001 2340" stroke="#000000" stroke-width="13" />
						<path d="M15756 2520 L20001 2520" stroke="#000000" stroke-width="13" />
						<path d="M15756 2700 L20001 2700" stroke="#000000" stroke-width="13" />
						<path d="M15756 2880 L20001 2880" stroke="#000000" stroke-width="13" />
						<g class="layer" id="layer-L40F1N1">
							<g class="beam" id="beam-L41F1-L44F1">
								<polygon points="16213,3375 17856,3212 17856,3122 16213,3285 " />
								<polygon points="16213,3240 17856,3077 17856,2987 16213,3150 " />
								<g class="note" id="note-L41F1">
									<use xlink:href="#E0A4" x="16213" y="2700" height="720px" width="720px" />
									<g class="stem">
										<rect x="16213" y="2722" height="635" width="18" />
									</g>
									<g class="accid" id="accid-0000001510326323">
										<use xlink:href="#E260" x="16017" y="2700" height="720px" width="720px" />
									</g>
								</g>
								<g class="note" id="note-L42F1">
									<use xlink:href="#E0A4" x="16596" y="2340" height="720px" width="720px" />
									<g class="stem">
										<rect x="16596" y="2362" height="956" width="18" />
									</g>
									<g class="accid" id="accid-0000001936646426" />
								</g>
								<g class="note" id="note-L43F1">
									<use xlink:href="#E0A4" x="17217" y="2520" height="720px" width="720px" />
									<g class="stem">
										<rect x="17217" y="2542" height="714" width="18" />
									</g>
									<g class="accid" id="accid-0000000625794085">
										<use xlink:href="#E260" x="17021" y="2520" height="720px" width="720px" />
									</g>
								</g>
								<g class="note" id="note-L44F1">
									<use xlink:href="#E0A4" x="17838" y="2250" height="720px" width="720px" />
									<g class="stem">
										<rect x="17838" y="2272" height="922" width="18" />
									</g>
									<g class="accid" id="accid-0000001662102022">
										<use xlink:href="#E260" x="17642" y="2250" height="720px" width="720px" />
									</g>
								</g>
							</g>
							<g class="beam" id="beam-L45F1-L48F1">
								<polygon points="18221,3058 19606,3195 19606,3105 18221,2968 " />
								<polygon points="18221,2923 18379,2938 18379,2848 18221,2833 " />
								<polygon points="19448,3045 19606,3060 19606,2970 19448,2955 " />
								<g class="note" id="note-L45F1">
									<use xlink:href="#E0A4" x="18221" y="2250" height="720px" width="720px" />
									<g class="stem">
										<rect x="18221" y="2272" height="768" width="18" />
									</g>
									<g class="accid" id="accid-0000001834651555" />
								</g>
								<g class="note" id="note-L46F1">
									<use xlink:href="#E0A4" x="18841" y="2340" height="720px" width="720px" />
									<g class="stem">
										<rect x="18841" y="2362" height="740" width="18" />
									</g>
									<g class="accid" id="accid-0000001198554666" />
								</g>
								<g class="note" id="note-L48F1">
									<use xlink:href="#E0A4" x="19588" y="2520" height="720px" width="720px" />
									<g class="stem">
										<rect x="19588" y="2542" height="635" width="18" />
									</g>
									<g class="accid" id="accid-0000001576921671" />
								</g>
							</g>
						</g>
					</g>
					<g class="tie" id="tie-L44F1-L45F1">
						<path d="M17951,2115 C18046,1973 18236,1973 18334,2115 C18236,2017 18046,2017 17951,2115" stroke="#000000" stroke-linecap="round" stroke-linejoin="round" stroke-width="9" />
					</g>
					<g class="mNum autogenerated" id="mnum-0000000596394779" />
					<g class="barLineAttr" id="bline-0000000634213571">
						<path d="M19988 2880 L19988 720" stroke="#000000" stroke-width="27" />
					</g>
				</g>
			</g>
		</g>
	</svg>
</svg>
