<?xml version="1.0" encoding="UTF-8" standalone="no"?>
<svg width="2100.00px" height="450.00px" version="1.1" xmlns="http://www.w3.org/2000/svg" xmlns:xlink="http://www.w3.org/1999/xlink" overflow="visible">
	<desc>Engraved by Verovio 2.0.0-dev-0f0381c</desc>
	<defs>
		<symbol id="E050" viewBox="0 0 1000 1000" overflow="inherit">
			<path transform="scale(1,-1)" d="M441 -245c-23 -4 -48 -6 -76 -6c-59 0 -102 7 -130 20c-88 42 -150 93 -187 154c-26 44 -43 103 -48 176c-4 60 11 123 44 189c29 57 65 106 110 148s96 85 153 127c-3 16 -8 46 -13 92c-4 43 -5 73 -5 89c0 117 16 172 69 257c34 54 64 82 89 82c21 0 43 -30 69 -92 s39 -115 41 -159c2 -120 -19 -173 -67 -256c-13 -20 -63 -90 -98 -118c-13 -9 -25 -19 -37 -29l31 -181c8 1 18 2 28 2c58 0 102 -12 133 -35c59 -43 92 -104 98 -184c11 -135 -80 -229 -180 -270c8 -57 17 -110 25 -162c5 -31 6 -58 6 -80c0 -30 -5 -53 -14 -70 c-35 -64 -88 -99 -158 -103c-42 -3 -83 6 -124 26c-50 24 -77 59 -80 105c-2 34 5 63 20 87c18 28 45 42 79 44c51 4 99 -40 103 -87c4 -56 -30 -94 -105 -115c17 -24 51 -36 102 -36c62 0 116 43 140 85c9 16 13 41 13 74c0 20 -1 42 -5 67c-8 53 -18 106 -26 159zM461 939 c-95 0 -135 -175 -135 -286c0 -24 2 -48 5 -71c50 39 92 82 127 128c43 57 63 106 60 148c-4 54 -23 82 -57 81zM406 119l54 -326c80 27 116 88 109 184c-7 99 -62 146 -163 142zM382 117c-74 -2 -132 -50 -128 -127c2 -46 43 -99 75 -115c-3 -2 -7 -5 -10 -10 c-70 33 -116 88 -123 172c-5 73 42 135 88 170c23 17 49 29 78 36l-29 170c-21 -13 -52 -37 -92 -73c-50 -44 -86 -84 -109 -119c-49 -75 -71 -140 -67 -195c5 -68 35 -127 93 -176s125 -73 203 -73c25 0 50 3 75 9c-19 111 -36 221 -54 331z" />
		</symbol>
		<symbol id="E082" viewBox="0 0 1000 1000" overflow="inherit">
			<path transform="scale(1,-1)" d="M104 -185c-18 0 -55 -14 -65 -65h-36l-3 29c0 25 6 46 18 64c11 19 22 30 39 43l121 82l37 29c15 11 27 29 38 54c12 24 18 47 18 70c0 40 -19 88 -94 88c-25 0 -32 0 -50 -8c-14 -5 -23 -12 -26 -22c3 -9 7 -15 10 -18l24 -17c12 -7 17 -11 27 -21c5 -7 7 -16 7 -27 c0 -12 0 -57 -79 -74c-30 0 -76 26 -76 94c0 66 80 135 196 135c72 0 182 -32 182 -150c0 -53 -32 -95 -113 -133l-91 -41c-26 -11 -45 -23 -57 -37l49 7c84 0 115 -41 148 -41c20 0 33 20 39 61h35c0 -152 -68 -168 -114 -168c-17 0 -55 0 -69 7v0l-28 17 c-49 37 -69 40 -87 42z" />
		</symbol>
		<symbol id="E084" viewBox="0 0 1000 1000" overflow="inherit">
			<path transform="scale(1,-1)" d="M0 -78c84 97 114 180 134 329h170c-13 -32 -82 -132 -99 -151l-84 -97c-33 -36 -59 -63 -80 -81h162v102l127 123v-225h57v-39h-57v-34c0 -43 19 -65 57 -65v-34h-244v36c48 0 60 26 60 70v27h-203v39z" />
		</symbol>
		<symbol id="E4E7" viewBox="0 0 1000 1000" overflow="inherit">
			<path transform="scale(1,-1)" d="M133 -111c-16 38 -21 43 -64 51c-37 -4 -60 -25 -68 -60c0 -32 18 -52 55 -58c8 -6 22 -10 43 -10c31 0 62 7 82 20l-108 -324h37c72 220 143 439 215 659h-4l-10 -2l-7 -1c-15 -35 -27 -52 -59 -71c-26 -15 -56 -27 -88 -29c-11 0 -20 2 -26 6c29 3 56 25 51 56 c-15 35 -19 42 -64 48c-38 -4 -60 -23 -68 -58c0 -32 18 -52 55 -59c7 -5 22 -8 45 -8c48 0 76 7 112 25l-66 -197c-21 -23 -50 -47 -90 -47c-7 0 -15 1 -25 4c31 5 52 22 52 55z" />
		</symbol>
		<symbol id="E0A4" viewBox="0 0 1000 1000" overflow="inherit">
			<path transform="scale(1,-1)" d="M0 -39c0 68 73 172 200 172c66 0 114 -37 114 -95c0 -84 -106 -171 -218 -171c-64 0 -96 30 -96 94z" />
		</symbol>
		<symbol id="E062" viewBox="0 0 1000 1000" overflow="inherit">
			<path transform="scale(1,-1)" d="M158 96c51 0 73 -14 88 -49l16 -39c0 -17 -2 -30 -7 -40c-3 -11 -10 -21 -19 -31c-17 -18 -49 -43 -84 -43c-55 0 -77 13 -112 44c-24 21 -35 55 -35 100c0 46 14 81 32 112c30 52 71 79 137 93l36 6l26 2c154 0 235 -68 274 -182c11 -32 18 -68 18 -107 c0 -103 -26 -182 -68 -250c-89 -145 -234 -230 -412 -288l-30 -5c-9 0 -14 3 -14 8c3 10 5 11 10 16c35 15 70 30 96 44l78 43c96 57 162 136 197 258c9 33 17 60 22 100c3 22 5 35 6 39c-7 69 -16 115 -23 140s-4 22 -16 40c-8 12 -19 23 -31 34c-24 21 -62 44 -118 44 c-48 0 -84 -8 -113 -28c-28 -19 -42 -44 -42 -73v-16c2 -5 3 -9 4 -11c24 22 52 39 84 39zM585 -118c0 32 23 58 57 58c18 0 33 -6 40 -18c9 -15 16 -18 16 -40c0 -9 -2 -16 -5 -21c-6 -19 -27 -37 -51 -37c-34 0 -57 26 -57 58zM642 177c31 0 56 -27 56 -58 c0 -30 -25 -58 -56 -58l-23 3c-19 7 -34 32 -34 55l3 23c9 20 28 35 54 35z" />
		</symbol>
		<symbol id="E260" viewBox="0 0 1000 1000" overflow="inherit">
			<path transform="scale(1,-1)" d="M20 110c32 16 54 27 93 27c26 0 35 -3 54 -13c13 -7 24 -20 27 -38l4 -25c0 -28 -16 -57 -45 -89c-23 -25 -39 -44 -65 -68l-88 -79v644h20v-359zM90 106c-32 0 -48 -10 -70 -29v-194c31 31 54 59 71 84c21 32 32 59 32 84c0 9 1 16 1 20c0 14 -3 21 -11 30l-8 3z" />
		</symbol>
		<symbol id="E262" viewBox="0 0 1000 1000" overflow="inherit">
			<path transform="scale(1,-1)" d="M136 186v169h17v-164l44 14v-91l-44 -14v-165l44 12v-91l-44 -13v-155h-17v150l-76 -22v-155h-17v149l-43 -13v90l43 14v167l-43 -14v92l43 13v169h17v-163zM60 73v-167l76 22v168z" />
		</symbol>
	</defs>
	<style type="text/css">g.page-margin{font-family:Times;} g.tempo{font-weight:bold;} g.dir, g.dynam, g.mNum{font-style:italic;} g.label{font-weight:normal;}</style>
	<svg class="definition-scale" viewBox="0 0 21000 4500">
		<g class="page-margin" transform="translate(500, 500)">
			<g class="system" id="system-0000000519972860">
				<path d="M13 720 L13 2880" stroke="#000000" stroke-width="27" />
				<path d="M-32,2862 C-392,2322 58,1980 -212,1800 C121,1980 -329,2322 -32,2862" stroke="#000000" stroke-linecap="round" stroke-linejoin="round" stroke-width="18" />
				<path d="M-32,738 C-329,1278 121,1620 -212,1800 C58,1620 -392,1278 -32,738" stroke="#000000" stroke-linecap="round" stroke-linejoin="round" stroke-width="18" />
				<g class="section boundaryStart" id="section-L1F1" />
				<g class="measure" id="measure-L4">
					<g class="staff" id="staff-L4F2N1">
						<path d="M0 720 L4456 720" stroke="#000000" stroke-width="13" />
						<path d="M0 900 L4456 900" stroke="#000000" stroke-width="13" />
						<path d="M0 1080 L4456 1080" stroke="#000000" stroke-width="13" />
						<path d="M0 1260 L4456 1260" stroke="#000000" stroke-width="13" />
						<path d="M0 1440 L4456 1440" stroke="#000000" stroke-width="13" />
						<g class="clef" id="clef-0000001823232831">
							<use xlink:href="#E050" x="90" y="1260" height="720px" width="720px" />
						</g>
						<g class="meterSig" id="msig-0000000630031574">
							<use xlink:href="#E082" x="771" y="900" height="720px" width="720px" />
							<use xlink:href="#E084" x="777" y="1260" height="720px" width="720px" />
						</g>
						<g class="layer" id="layer-L4F2N1">
							<g class="beam" id="beam-L5F2-L8F2">
								<polygon points="1576,393 2746,278 2746,368 1576,483 " />
								<polygon points="1576,528 2746,413 2746,503 1576,618 " />
								<g class="rest" id="rest-L5F2">
									<use xlink:href="#E4E7" x="1368" y="1080" height="720px" width="720px" />
								</g>
								<g class="note" id="note-L6F2">
									<use xlink:href="#E0A4" x="1757" y="1260" height="720px" width="720px" />
									<g class="stem">
										<rect x="1965" y="372" height="866" width="18" />
									</g>
									<g class="accid" id="accid-0000002050980516" />
								</g>
								<g class="note" id="note-L7F2">
									<use xlink:href="#E0A4" x="2138" y="990" height="720px" width="720px" />
									<g class="stem">
										<rect x="2346" y="334" height="634" width="18" />
									</g>
									<g class="accid" id="accid-0000001287136804" />
								</g>
								<g class="note" id="note-L8F2">
									<use xlink:href="#E0A4" x="2520" y="1080" height="720px" width="720px" />
									<g class="stem">
										<rect x="2728" y="296" height="762" width="18" />
									</g>
									<g class="accid" id="accid-0000000506428380" />
								</g>
							</g>
							<g class="beam" id="beam-L9F2-L12F2">
								<polygon points="3109,316 4270,431 4270,521 3109,406 " />
								<polygon points="3880,527 4270,566 4270,656 3880,617 " />
								<g class="note" id="note-L9F2">
									<use xlink:href="#E0A4" x="2901" y="990" height="720px" width="720px" />
									<g class="stem">
										<rect x="3109" y="334" height="634" width="18" />
									</g>
									<g class="accid" id="accid-0000000512408327" />
								</g>
								<g class="note" id="note-L11F2">
									<use xlink:href="#E0A4" x="3663" y="1260" height="720px" width="720px" />
									<g class="stem">
										<rect x="3871" y="410" height="828" width="18" />
									</g>
									<g class="accid" id="accid-0000002060983544" />
								</g>
								<g class="note" id="note-L12F2">
									<use xlink:href="#E0A4" x="4044" y="1440" height="720px" width="720px" />
									<g class="stem">
										<rect x="4252" y="449" height="969" width="18" />
									</g>
									<g class="accid" id="accid-0000001669075704" />
								</g>
							</g>
						</g>
					</g>
					<g class="staff" id="staff-L4F1N1">
						<path d="M0 2160 L4456 2160" stroke="#000000" stroke-width="13" />
						<path d="M0 2340 L4456 2340" stroke="#000000" stroke-width="13" />
						<path d="M0 2520 L4456 2520" stroke="#000000" stroke-width="13" />
						<path d="M0 2700 L4456 2700" stroke="#000000" stroke-width="13" />
						<path d="M0 2880 L4456 2880" stroke="#000000" stroke-width="13" />
						<g class="clef" id="clef-0000001846284508">
							<use xlink:href="#E062" x="90" y="2340" height="720px" width="720px" />
						</g>
						<g class="meterSig" id="msig-0000001512510453">
							<use xlink:href="#E082" x="771" y="2340" height="720px" width="720px" />
							<use xlink:href="#E084" x="777" y="2700" height="720px" width="720px" />
						</g>
						<g class="ledgerLines above">
							<path d="M3632 1980 L3911 1980" stroke="#000000" stroke-width="22" />
						</g>
						<g class="layer" id="layer-L4F1N1">
							<g class="beam" id="beam-L5F1-L8F1">
								<polygon points="1368,3285 2538,3169 2538,3079 1368,3195 " />
								<polygon points="1368,3150 1526,3135 1526,3045 1368,3060 " />
								<polygon points="2380,3049 2538,3034 2538,2944 2380,2959 " />
								<g class="note" id="note-L5F1">
									<use xlink:href="#E0A4" x="1368" y="2610" height="720px" width="720px" />
									<g class="stem">
										<rect x="1368" y="2632" height="635" width="18" />
									</g>
									<g class="accid" id="accid-0000001829337123" />
								</g>
								<g class="note" id="note-L6F1">
									<use xlink:href="#E0A4" x="1757" y="2520" height="720px" width="720px" />
									<g class="stem">
										<rect x="1757" y="2542" height="686" width="18" />
									</g>
									<g class="accid" id="accid-0000001992012801" />
								</g>
								<g class="note" id="note-L8F1">
									<use xlink:href="#E0A4" x="2520" y="2430" height="720px" width="720px" />
									<g class="stem">
										<rect x="2520" y="2452" height="699" width="18" />
									</g>
									<g class="accid" id="accid-0000001710284270" />
								</g>
							</g>
							<g class="beam" id="beam-L9F1-L11F1">
								<polygon points="2901,2925 3681,2848 3681,2758 2901,2835 " />
								<polygon points="2901,2790 3291,2751 3291,2661 2901,2700 " />
								<g class="note" id="note-L9F1">
									<use xlink:href="#E0A4" x="2901" y="2250" height="720px" width="720px" />
									<g class="stem">
										<rect x="2901" y="2272" height="635" width="18" />
									</g>
									<g class="accid" id="accid-0000001886450998" />
								</g>
								<g class="note" id="note-L10F1">
									<use xlink:href="#E0A4" x="3282" y="2160" height="720px" width="720px" />
									<g class="stem">
										<rect x="3282" y="2182" height="686" width="18" />
									</g>
									<g class="accid" id="accid-0000001540580125" />
								</g>
								<g class="note" id="note-L11F1">
									<use xlink:href="#E0A4" x="3663" y="1980" height="720px" width="720px" />
									<g class="stem">
										<rect x="3663" y="2002" height="828" width="18" />
									</g>
									<g class="accid" id="accid-0000000214367331" />
								</g>
							</g>
						</g>
					</g>
					<g class="tie" id="tie-L12F2-L14F2">
						<path d="M4292,1485 C4382,1583 4562,1583 4652,1485 C4562,1627 4382,1627 4292,1485" stroke="#000000" stroke-linecap="round" stroke-linejoin="round" stroke-width="9" />
					</g>
					<g class="mNum autogenerated" id="mnum-0000001681695134" />
					<g class="barLineAttr" id="bline-0000000763943563">
						<path d="M4443 2880 L4443 720" stroke="#000000" stroke-width="27" />
					</g>
				</g>
				<g class="measure" id="measure-L13">
					<g class="staff" id="staff-L13F2N1">
						<path d="M4456 720 L7753 720" stroke="#000000" stroke-width="13" />
						<path d="M4456 900 L7753 900" stroke="#000000" stroke-width="13" />
						<path d="M4456 1080 L7753 1080" stroke="#000000" stroke-width="13" />
						<path d="M4456 1260 L7753 1260" stroke="#000000" stroke-width="13" />
						<path d="M4456 1440 L7753 1440" stroke="#000000" stroke-width="13" />
						<g class="ledgerLines below">
							<path d="M5405 1620 L5684 1620" stroke="#000000" stroke-width="22" />
						</g>
						<g class="layer" id="layer-L13F2N1">
							<g class="beam" id="beam-L14F2-L17F2">
								<polygon points="4882,550 6043,658 6043,748 4882,640 " />
								<polygon points="4882,685 6043,793 6043,883 4882,775 " />
								<g class="note" id="note-L14F2">
									<use xlink:href="#E0A4" x="4674" y="1440" height="720px" width="720px" />
									<g class="stem">
										<rect x="4882" y="568" height="850" width="18" />
									</g>
									<g class="accid" id="accid-0000000033051781" />
								</g>
								<g class="note" id="note-L15F2">
									<use xlink:href="#E0A4" x="5055" y="1260" height="720px" width="720px" />
									<g class="stem">
										<rect x="5263" y="604" height="634" width="18" />
									</g>
									<g class="accid" id="accid-0000000358484443" />
								</g>
								<g class="note" id="note-L16F2">
									<use xlink:href="#E0A4" x="5436" y="1620" height="720px" width="720px" />
									<g class="stem">
										<rect x="5644" y="640" height="958" width="18" />
									</g>
									<g class="accid" id="accid-0000001537501557" />
								</g>
								<g class="note" id="note-L17F2">
									<use xlink:href="#E0A4" x="5817" y="1440" height="720px" width="720px" />
									<g class="stem">
										<rect x="6025" y="676" height="742" width="18" />
									</g>
									<g class="accid" id="accid-0000000159889255" />
								</g>
							</g>
							<g class="beam" id="beam-L18F2-L21F2">
								<polygon points="6406,663 7568,548 7568,638 6406,753 " />
								<polygon points="7178,721 7568,683 7568,773 7178,811 " />
								<g class="note" id="note-L18F2">
									<use xlink:href="#E0A4" x="6198" y="1530" height="720px" width="720px" />
									<g class="stem">
										<rect x="6406" y="681" height="827" width="18" />
									</g>
									<g class="accid" id="accid-0000000085467331" />
								</g>
								<g class="note" id="note-L20F2">
									<use xlink:href="#E0A4" x="6961" y="1260" height="720px" width="720px" />
									<g class="stem">
										<rect x="7169" y="604" height="634" width="18" />
									</g>
									<g class="accid" id="accid-0000001456509018" />
								</g>
								<g class="note" id="note-L21F2">
									<use xlink:href="#E0A4" x="7342" y="1440" height="720px" width="720px" />
									<g class="stem">
										<rect x="7550" y="566" height="852" width="18" />
									</g>
									<g class="accid" id="accid-0000001370728304" />
								</g>
							</g>
						</g>
					</g>
					<g class="staff" id="staff-L13F1N1">
						<path d="M4456 2160 L7753 2160" stroke="#000000" stroke-width="13" />
						<path d="M4456 2340 L7753 2340" stroke="#000000" stroke-width="13" />
						<path d="M4456 2520 L7753 2520" stroke="#000000" stroke-width="13" />
						<path d="M4456 2700 L7753 2700" stroke="#000000" stroke-width="13" />
						<path d="M4456 2880 L7753 2880" stroke="#000000" stroke-width="13" />
						<g class="ledgerLines above">
							<path d="M5786 1980 L6065 1980" stroke="#000000" stroke-width="22" />
						</g>
						<g class="layer" id="layer-L13F1N1">
							<g class="beam" id="beam-L14F1-L17F1">
								<polygon points="4674,2835 5835,2720 5835,2630 4674,2745 " />
								<polygon points="4674,2700 4832,2685 4832,2595 4674,2610 " />
								<polygon points="5677,2600 5835,2585 5835,2495 5677,2510 " />
								<g class="note" id="note-L14F1">
									<use xlink:href="#E0A4" x="4674" y="2160" height="720px" width="720px" />
									<g class="stem">
										<rect x="4674" y="2182" height="635" width="18" />
									</g>
									<g class="accid" id="accid-0000001642283963" />
								</g>
								<g class="note" id="note-L15F1">
									<use xlink:href="#E0A4" x="5055" y="2070" height="720px" width="720px" />
									<g class="stem">
										<rect x="5055" y="2092" height="686" width="18" />
									</g>
									<g class="accid" id="accid-0000002138922634" />
								</g>
								<g class="note" id="note-L17F1">
									<use xlink:href="#E0A4" x="5817" y="1980" height="720px" width="720px" />
									<g class="stem">
										<rect x="5817" y="2002" height="700" width="18" />
									</g>
									<g class="accid" id="accid-0000000613568522" />
								</g>
							</g>
							<g class="beam" id="beam-L18F1-L20F1">
								<polygon points="6198,3118 6979,3195 6979,3105 6198,3028 " />
								<polygon points="6198,2983 6589,3022 6589,2932 6198,2893 " />
								<g class="note" id="note-L18F1">
									<use xlink:href="#E0A4" x="6198" y="2160" height="720px" width="720px" />
									<g class="stem">
										<rect x="6198" y="2182" height="918" width="18" />
									</g>
									<g class="accid" id="accid-0000001620363026" />
								</g>
								<g class="note" id="note-L19F1">
									<use xlink:href="#E0A4" x="6580" y="2250" height="720px" width="720px" />
									<g class="stem">
										<rect x="6580" y="2272" height="867" width="18" />
									</g>
									<g class="accid" id="accid-0000000921287178" />
								</g>
								<g class="note" id="note-L20F1">
									<use xlink:href="#E0A4" x="6961" y="2520" height="720px" width="720px" />
									<g class="stem">
										<rect x="6961" y="2542" height="635" width="18" />
									</g>
									<g class="accid" id="accid-0000001371768503" />
								</g>
							</g>
						</g>
					</g>
					<g class="tie" id="tie-L21F2-L23F2">
						<path d="M7590,1485 C7679,1583 7857,1583 7949,1485 C7857,1627 7679,1627 7590,1485" stroke="#000000" stroke-linecap="round" stroke-linejoin="round" stroke-width="9" />
					</g>
					<g class="mNum autogenerated" id="mnum-0000000552946040" />
					<g class="barLineAttr" id="bline-0000000875090892">
						<path d="M7740 2880 L7740 720" stroke="#000000" stroke-width="27" />
					</g>
				</g>
				<g class="measure" id="measure-L22">
					<g class="staff" id="staff-L22F2N1">
						<path d="M7753 720 L11523 720" stroke="#000000" stroke-width="13" />
						<path d="M7753 900 L11523 900" stroke="#000000" stroke-width="13" />
						<path d="M7753 1080 L11523 1080" stroke="#000000" stroke-width="13" />
						<path d="M7753 1260 L11523 1260" stroke="#000000" stroke-width="13" />
						<path d="M7753 1440 L11523 1440" stroke="#000000" stroke-width="13" />
						<g class="layer" id="layer-L22F2N1">
							<g class="beam" id="beam-L23F2-L26F2">
								<polygon points="8179,392 9577,254 9577,344 8179,482 " />
								<polygon points="8179,527 9577,389 9577,479 8179,617 " />
								<g class="note" id="note-L23F2">
									<use xlink:href="#E0A4" x="7971" y="1440" height="720px" width="720px" />
									<g class="stem">
										<rect x="8179" y="410" height="1008" width="18" />
									</g>
									<g class="accid" id="accid-0000000156681872" />
								</g>
								<g class="note" id="note-L24F2">
									<use xlink:href="#E0A4" x="8352" y="1260" height="720px" width="720px" />
									<g class="stem">
										<rect x="8560" y="372" height="866" width="18" />
									</g>
									<g class="accid" id="accid-0000001900545986" />
								</g>
								<g class="note" id="note-L25F2">
									<use xlink:href="#E0A4" x="8733" y="990" height="720px" width="720px" />
									<g class="stem">
										<rect x="8941" y="334" height="634" width="18" />
									</g>
									<g class="accid" id="accid-0000000564386609" />
								</g>
								<g class="note" id="note-L26F2">
									<use xlink:href="#E0A4" x="9351" y="1080" height="720px" width="720px" />
									<g class="stem">
										<rect x="9559" y="272" height="786" width="18" />
									</g>
									<g class="accid" id="accid-0000000441269239">
										<use xlink:href="#E260" x="9155" y="1080" height="720px" width="720px" />
									</g>
								</g>
							</g>
							<g class="beam" id="beam-L27F2-L30F2">
								<polygon points="9940,316 11338,454 11338,544 9940,406 " />
								<polygon points="10948,551 11338,589 11338,679 10948,641 " />
								<g class="note" id="note-L27F2">
									<use xlink:href="#E0A4" x="9732" y="990" height="720px" width="720px" />
									<g class="stem">
										<rect x="9940" y="334" height="634" width="18" />
									</g>
									<g class="accid" id="accid-0000001093825352" />
								</g>
								<g class="note" id="note-L29F2">
									<use xlink:href="#E0A4" x="10731" y="1260" height="720px" width="720px" />
									<g class="stem">
										<rect x="10939" y="434" height="804" width="18" />
									</g>
									<g class="accid" id="accid-0000000895501199" />
								</g>
								<g class="note" id="note-L30F2">
									<use xlink:href="#E0A4" x="11112" y="1350" height="720px" width="720px" />
									<g class="stem">
										<rect x="11320" y="472" height="856" width="18" />
									</g>
									<g class="accid" id="accid-0000002138922389" />
								</g>
							</g>
						</g>
					</g>
					<g class="staff" id="staff-L22F1N1">
						<path d="M7753 2160 L11523 2160" stroke="#000000" stroke-width="13" />
						<path d="M7753 2340 L11523 2340" stroke="#000000" stroke-width="13" />
						<path d="M7753 2520 L11523 2520" stroke="#000000" stroke-width="13" />
						<path d="M7753 2700 L11523 2700" stroke="#000000" stroke-width="13" />
						<path d="M7753 2880 L11523 2880" stroke="#000000" stroke-width="13" />
						<g class="ledgerLines above">
							<path d="M10700 1980 L10979 1980" stroke="#000000" stroke-width="22" />
						</g>
						<g class="layer" id="layer-L22F1N1">
							<g class="beam" id="beam-L23F1-L26F1">
								<polygon points="7971,3285 9369,3147 9369,3057 7971,3195 " />
								<polygon points="7971,3150 8129,3135 8129,3045 7971,3060 " />
								<polygon points="9211,3026 9369,3012 9369,2922 9211,2936 " />
								<g class="note" id="note-L23F1">
									<use xlink:href="#E0A4" x="7971" y="2610" height="720px" width="720px" />
									<g class="stem">
										<rect x="7971" y="2632" height="635" width="18" />
									</g>
									<g class="accid" id="accid-0000000486549286" />
								</g>
								<g class="note" id="note-L24F1">
									<use xlink:href="#E0A4" x="8352" y="2520" height="720px" width="720px" />
									<g class="stem">
										<rect x="8352" y="2542" height="686" width="18" />
									</g>
									<g class="accid" id="accid-0000001939342662" />
								</g>
								<g class="note" id="note-L26F1">
									<use xlink:href="#E0A4" x="9351" y="2430" height="720px" width="720px" />
									<g class="stem">
										<rect x="9351" y="2452" height="677" width="18" />
									</g>
									<g class="accid" id="accid-0000000453462770">
										<use xlink:href="#E260" x="9155" y="2430" height="720px" width="720px" />
									</g>
								</g>
							</g>
							<g class="beam" id="beam-L27F1-L29F1">
								<polygon points="9732,2925 10749,2825 10749,2735 9732,2835 " />
								<polygon points="9732,2790 10359,2728 10359,2638 9732,2700 " />
								<g class="note" id="note-L27F1">
									<use xlink:href="#E0A4" x="9732" y="2250" height="720px" width="720px" />
									<g class="stem">
										<rect x="9732" y="2272" height="635" width="18" />
									</g>
									<g class="accid" id="accid-0000000921919556" />
								</g>
								<g class="note" id="note-L28F1">
									<use xlink:href="#E0A4" x="10350" y="2160" height="720px" width="720px" />
									<g class="stem">
										<rect x="10350" y="2182" height="663" width="18" />
									</g>
									<g class="accid" id="accid-0000000520055871">
										<use xlink:href="#E260" x="10154" y="2160" height="720px" width="720px" />
									</g>
								</g>
								<g class="note" id="note-L29F1">
									<use xlink:href="#E0A4" x="10731" y="1980" height="720px" width="720px" />
									<g class="stem">
										<rect x="10731" y="2002" height="805" width="18" />
									</g>
									<g class="accid" id="accid-0000002109275173" />
								</g>
							</g>
						</g>
					</g>
					<g class="tie" id="tie-L30F2-L32F2">
						<path d="M11360,1395 C11508,1493 11804,1493 11955,1395 C11804,1537 11508,1537 11360,1395" stroke="#000000" stroke-linecap="round" stroke-linejoin="round" stroke-width="9" />
					</g>
					<g class="mNum autogenerated" id="mnum-0000000137702507" />
					<g class="barLineAttr" id="bline-0000001351806349">
						<path d="M11510 2880 L11510 720" stroke="#000000" stroke-width="27" />
					</g>
				</g>
				<g class="measure" id="measure-L31">
					<g class="staff" id="staff-L31F2N1">
						<path d="M11523 720 L15529 720" stroke="#000000" stroke-width="13" />
						<path d="M11523 900 L15529 900" stroke="#000000" stroke-width="13" />
						<path d="M11523 1080 L15529 1080" stroke="#000000" stroke-width="13" />
						<path d="M11523 1260 L15529 1260" stroke="#000000" stroke-width="13" />
						<path d="M11523 1440 L15529 1440" stroke="#000000" stroke-width="13" />
						<g class="ledgerLines below">
							<path d="M12945 1620 L13224 1620" stroke="#000000" stroke-width="22" />
						</g>
						<g class="layer" id="layer-L31F2N1">
							<g class="beam" id="beam-L32F2-L35F2">
								<polygon points="12185,539 13583,644 13583,734 12185,629 " />
								<polygon points="12185,674 13583,779 13583,869 12185,764 " />
								<g class="note" id="note-L32F2">
									<use xlink:href="#E0A4" x="11977" y="1350" height="720px" width="720px" />
									<g class="stem">
										<rect x="12185" y="557" height="771" width="18" />
									</g>
									<g class="accid" id="accid-0000001089641298" />
								</g>
								<g class="note" id="note-L33F2">
									<use xlink:href="#E0A4" x="12595" y="1260" height="720px" width="720px" />
									<g class="stem">
										<rect x="12803" y="604" height="634" width="18" />
									</g>
									<g class="accid" id="accid-0000000447468320" />
								</g>
								<g class="note" id="note-L34F2">
									<use xlink:href="#E0A4" x="12976" y="1620" height="720px" width="720px" />
									<g class="stem">
										<rect x="13184" y="633" height="965" width="18" />
									</g>
									<g class="accid" id="accid-0000000165224209" />
								</g>
								<g class="note" id="note-L35F2">
									<use xlink:href="#E0A4" x="13357" y="1350" height="720px" width="720px" />
									<g class="stem">
										<rect x="13565" y="662" height="666" width="18" />
									</g>
									<g class="accid" id="accid-0000002146547819" />
								</g>
							</g>
							<g class="beam" id="beam-L36F2-L39F2">
								<polygon points="14183,662 15344,547 15344,637 14183,752 " />
								<polygon points="14954,721 15344,682 15344,772 14954,811 " />
								<g class="note" id="note-L36F2">
									<use xlink:href="#E0A4" x="13975" y="1440" height="720px" width="720px" />
									<g class="stem">
										<rect x="14183" y="680" height="738" width="18" />
									</g>
									<g class="accid" id="accid-0000000821500255">
										<use xlink:href="#E260" x="13779" y="1440" height="720px" width="720px" />
									</g>
								</g>
								<g class="note" id="note-L38F2">
									<use xlink:href="#E0A4" x="14737" y="1260" height="720px" width="720px" />
									<g class="stem">
										<rect x="14945" y="604" height="634" width="18" />
									</g>
									<g class="accid" id="accid-0000001077493573" />
								</g>
								<g class="note" id="note-L39F2">
									<use xlink:href="#E0A4" x="15118" y="1350" height="720px" width="720px" />
									<g class="stem">
										<rect x="15326" y="565" height="763" width="18" />
									</g>
									<g class="accid" id="accid-0000000710596390" />
								</g>
							</g>
						</g>
					</g>
					<g class="staff" id="staff-L31F1N1">
						<path d="M11523 2160 L15529 2160" stroke="#000000" stroke-width="13" />
						<path d="M11523 2340 L15529 2340" stroke="#000000" stroke-width="13" />
						<path d="M11523 2520 L15529 2520" stroke="#000000" stroke-width="13" />
						<path d="M11523 2700 L15529 2700" stroke="#000000" stroke-width="13" />
						<path d="M11523 2880 L15529 2880" stroke="#000000" stroke-width="13" />
						<g class="ledgerLines above">
							<path d="M13326 1980 L13605 1980" stroke="#000000" stroke-width="22" />
						</g>
						<g class="layer" id="layer-L31F1N1">
							<g class="beam" id="beam-L32F1-L35F1">
								<polygon points="11977,2835 13375,2697 13375,2607 11977,2745 " />
								<polygon points="11977,2700 12135,2685 12135,2595 11977,2610 " />
								<polygon points="13217,2576 13375,2562 13375,2472 13217,2486 " />
								<g class="note" id="note-L32F1">
									<use xlink:href="#E0A4" x="11977" y="2160" height="720px" width="720px" />
									<g class="stem">
										<rect x="11977" y="2182" height="635" width="18" />
									</g>
									<g class="accid" id="accid-0000001321476375">
										<use xlink:href="#E260" x="11781" y="2160" height="720px" width="720px" />
									</g>
								</g>
								<g class="note" id="note-L33F1">
									<use xlink:href="#E0A4" x="12595" y="2070" height="720px" width="720px" />
									<g class="stem">
										<rect x="12595" y="2092" height="663" width="18" />
									</g>
									<g class="accid" id="accid-0000000968406262">
										<use xlink:href="#E260" x="12399" y="2070" height="720px" width="720px" />
									</g>
								</g>
								<g class="note" id="note-L35F1">
									<use xlink:href="#E0A4" x="13357" y="1980" height="720px" width="720px" />
									<g class="stem">
										<rect x="13357" y="2002" height="677" width="18" />
									</g>
									<g class="accid" id="accid-0000001562233239" />
								</g>
							</g>
							<g class="beam" id="beam-L36F1-L38F1">
								<polygon points="13975,3118 14755,3195 14755,3105 13975,3028 " />
								<polygon points="13975,2983 14365,3022 14365,2932 13975,2893 " />
								<g class="note" id="note-L36F1">
									<use xlink:href="#E0A4" x="13975" y="2160" height="720px" width="720px" />
									<g class="stem">
										<rect x="13975" y="2182" height="918" width="18" />
									</g>
									<g class="accid" id="accid-0000001929267844" />
								</g>
								<g class="note" id="note-L37F1">
									<use xlink:href="#E0A4" x="14356" y="2250" height="720px" width="720px" />
									<g class="stem">
										<rect x="14356" y="2272" height="867" width="18" />
									</g>
									<g class="accid" id="accid-0000002008960428" />
								</g>
								<g class="note" id="note-L38F1">
									<use xlink:href="#E0A4" x="14737" y="2520" height="720px" width="720px" />
									<g class="stem">
										<rect x="14737" y="2542" height="635" width="18" />
									</g>
									<g class="accid" id="accid-0000000357059055" />
								</g>
							</g>
						</g>
					</g>
					<g class="tie" id="tie-L39F2-L41F2">
						<path d="M15366,1395 C15455,1493 15633,1493 15725,1395 C15633,1537 15455,1537 15366,1395" stroke="#000000" stroke-linecap="round" stroke-linejoin="round" stroke-width="9" />
					</g>
					<g class="mNum autogenerated" id="mnum-0000000413495542" />
					<g class="barLineAttr" id="bline-0000001691057864">
						<path d="M15516 2880 L15516 720" stroke="#000000" stroke-width="27" />
					</g>
				</g>
				<g class="measure" id="measure-L40">
					<g class="staff" id="staff-L40F2N1">
						<path d="M15529 720 L20002 720" stroke="#000000" stroke-width="13" />
						<path d="M15529 900 L20002 900" stroke="#000000" stroke-width="13" />
						<path d="M15529 1080 L20002 1080" stroke="#000000" stroke-width="13" />
						<path d="M15529 1260 L20002 1260" stroke="#000000" stroke-width="13" />
						<path d="M15529 1440 L20002 1440" stroke="#000000" stroke-width="13" />
						<g class="layer" id="layer-L40F2N1">
							<g class="beam" id="beam-L41F2-L44F2">
								<polygon points="15955,506 17587,344 17587,434 15955,596 " />
								<polygon points="15955,641 17587,479 17587,569 15955,731 " />
								<g class="note" id="note-L41F2">
									<use xlink:href="#E0A4" x="15747" y="1350" height="720px" width="720px" />
									<g class="stem">
										<rect x="15955" y="524" height="804" width="18" />
									</g>
									<g class="accid" id="accid-0000001906435165" />
								</g>
								<g class="note" id="note-L42F2">
									<use xlink:href="#E0A4" x="16363" y="1350" height="720px" width="720px" />
									<g class="stem">
										<rect x="16571" y="462" height="866" width="18" />
									</g>
									<g class="accid" id="accid-0000001809152277">
										<use xlink:href="#E262" x="16168" y="1350" height="720px" width="720px" />
									</g>
								</g>
								<g class="note" id="note-L43F2">
									<use xlink:href="#E0A4" x="16744" y="1080" height="720px" width="720px" />
									<g class="stem">
										<rect x="16952" y="424" height="634" width="18" />
									</g>
									<g class="accid" id="accid-0000001998776437" />
								</g>
								<g class="note" id="note-L44F2">
									<use xlink:href="#E0A4" x="17361" y="1170" height="720px" width="720px" />
									<g class="stem">
										<rect x="17569" y="362" height="786" width="18" />
									</g>
									<g class="accid" id="accid-0000001107368556">
										<use xlink:href="#E262" x="17166" y="1170" height="720px" width="720px" />
									</g>
								</g>
							</g>
							<g class="beam" id="beam-L45F2-L48F2">
								<polygon points="18185,406 19817,568 19817,658 18185,496 " />
								<polygon points="19192,641 19817,703 19817,793 19192,731 " />
								<g class="note" id="note-L45F2">
									<use xlink:href="#E0A4" x="17977" y="1080" height="720px" width="720px" />
									<g class="stem">
										<rect x="18185" y="424" height="634" width="18" />
									</g>
									<g class="accid" id="accid-0000001170440210" />
								</g>
								<g class="note" id="note-L47F2">
									<use xlink:href="#E0A4" x="18975" y="1350" height="720px" width="720px" />
									<g class="stem">
										<rect x="19183" y="524" height="804" width="18" />
									</g>
									<g class="accid" id="accid-0000000810080238" />
								</g>
								<g class="note" id="note-L48F2">
									<use xlink:href="#E0A4" x="19591" y="1530" height="720px" width="720px" />
									<g class="stem">
										<rect x="19799" y="586" height="922" width="18" />
									</g>
									<g class="accid" id="accid-0000001556946448">
										<use xlink:href="#E262" x="19396" y="1530" height="720px" width="720px" />
									</g>
								</g>
							</g>
						</g>
					</g>
					<g class="staff" id="staff-L40F1N1">
						<path d="M15529 2160 L20002 2160" stroke="#000000" stroke-width="13" />
						<path d="M15529 2340 L20002 2340" stroke="#000000" stroke-width="13" />
						<path d="M15529 2520 L20002 2520" stroke="#000000" stroke-width="13" />
						<path d="M15529 2700 L20002 2700" stroke="#000000" stroke-width="13" />
						<path d="M15529 2880 L20002 2880" stroke="#000000" stroke-width="13" />
						<g class="layer" id="layer-L40F1N1">
							<g class="beam" id="beam-L41F1-L44F1">
								<polygon points="15955,1998 17587,1836 17587,1926 15955,2088 " />
								<polygon points="15955,2133 16113,2118 16113,2208 15955,2223 " />
								<polygon points="17429,1986 17587,1971 17587,2061 17429,2076 " />
								<g class="note" id="note-L41F1">
									<use xlink:href="#E0A4" x="15747" y="2700" height="720px" width="720px" />
									<g class="stem">
										<rect x="15955" y="2016" height="662" width="18" />
									</g>
									<g class="accid" id="accid-0000001931982761" />
								</g>
								<g class="note" id="note-L42F1">
									<use xlink:href="#E0A4" x="16363" y="2610" height="720px" width="720px" />
									<g class="stem">
										<rect x="16571" y="1954" height="634" width="18" />
									</g>
									<g class="accid" id="accid-0000000241951356">
										<use xlink:href="#E262" x="16168" y="2610" height="720px" width="720px" />
									</g>
								</g>
								<g class="note" id="note-L44F1">
									<use xlink:href="#E0A4" x="17361" y="2520" height="720px" width="720px" />
									<g class="stem">
										<rect x="17569" y="1854" height="644" width="18" />
									</g>
									<g class="accid" id="accid-0000000443411982">
										<use xlink:href="#E262" x="17166" y="2520" height="720px" width="720px" />
									</g>
								</g>
							</g>
							<g class="beam" id="beam-L45F1-L47F1">
								<polygon points="17977,3015 18993,2915 18993,2825 17977,2925 " />
								<polygon points="17977,2880 18603,2818 18603,2728 17977,2790 " />
								<g class="note" id="note-L45F1">
									<use xlink:href="#E0A4" x="17977" y="2340" height="720px" width="720px" />
									<g class="stem">
										<rect x="17977" y="2362" height="635" width="18" />
									</g>
									<g class="accid" id="accid-0000001125814595">
										<use xlink:href="#E262" x="17782" y="2340" height="720px" width="720px" />
									</g>
								</g>
								<g class="note" id="note-L46F1">
									<use xlink:href="#E0A4" x="18594" y="2250" height="720px" width="720px" />
									<g class="stem">
										<rect x="18594" y="2272" height="663" width="18" />
									</g>
									<g class="accid" id="accid-0000001472302988">
										<use xlink:href="#E262" x="18399" y="2250" height="720px" width="720px" />
									</g>
								</g>
								<g class="note" id="note-L47F1">
									<use xlink:href="#E0A4" x="18975" y="2070" height="720px" width="720px" />
									<g class="stem">
										<rect x="18975" y="2092" height="805" width="18" />
									</g>
									<g class="accid" id="accid-0000001112599746" />
								</g>
							</g>
						</g>
					</g>
					<g class="tie" id="tie-L48F2-L50F2">
						<path d="M19704,1665 C19775,1763 19917,1763 19989,1665 C19917,1807 19775,1807 19704,1665" stroke="#000000" stroke-linecap="round" stroke-linejoin="round" stroke-width="9" />
					</g>
					<g class="mNum autogenerated" id="mnum-0000000003735975" />
					<g class="barLineAttr" id="bline-0000000300315381">
						<path d="M19989 2880 L19989 720" stroke="#000000" stroke-width="27" />
					</g>
				</g>
			</g>
		</g>
	</svg>
</svg>
