<?xml version="1.0" encoding="UTF-8" standalone="no"?>
<svg width="2100.00px" height="450.00px" version="1.1" xmlns="http://www.w3.org/2000/svg" xmlns:xlink="http://www.w3.org/1999/xlink" overflow="visible">
	<desc>Engraved by Verovio 2.0.0-dev-0f0381c</desc>
	<defs>
		<symbol id="E050" viewBox="0 0 1000 1000" overflow="inherit">
			<path transform="scale(1,-1)" d="M441 -245c-23 -4 -48 -6 -76 -6c-59 0 -102 7 -130 20c-88 42 -150 93 -187 154c-26 44 -43 103 -48 176c-4 60 11 123 44 189c29 57 65 106 110 148s96 85 153 127c-3 16 -8 46 -13 92c-4 43 -5 73 -5 89c0 117 16 172 69 257c34 54 64 82 89 82c21 0 43 -30 69 -92 s39 -115 41 -159c2 -120 -19 -173 -67 -256c-13 -20 -63 -90 -98 -118c-13 -9 -25 -19 -37 -29l31 -181c8 1 18 2 28 2c58 0 102 -12 133 -35c59 -43 92 -104 98 -184c11 -135 -80 -229 -180 -270c8 -57 17 -110 25 -162c5 -31 6 -58 6 -80c0 -30 -5 -53 -14 -70 c-35 -64 -88 -99 -158 -103c-42 -3 -83 6 -124 26c-50 24 -77 59 -80 105c-2 34 5 63 20 87c18 28 45 42 79 44c51 4 99 -40 103 -87c4 -56 -30 -94 -105 -115c17 -24 51 -36 102 -36c62 0 116 43 140 85c9 16 13 41 13 74c0 20 -1 42 -5 67c-8 53 -18 106 -26 159zM461 939 c-95 0 -135 -175 -135 -286c0 -24 2 -48 5 -71c50 39 92 82 127 128c43 57 63 106 60 148c-4 54 -23 82 -57 81zM406 119l54 -326c80 27 116 88 109 184c-7 99 -62 146 -163 142zM382 117c-74 -2 -132 -50 -128 -127c2 -46 43 -99 75 -115c-3 -2 -7 -5 -10 -10 c-70 33 -116 88 -123 172c-5 73 42 135 88 170c23 17 49 29 78 36l-29 170c-21 -13 -52 -37 -92 -73c-50 -44 -86 -84 -109 -119c-49 -75 -71 -140 -67 -195c5 -68 35 -127 93 -176s125 -73 203 -73c25 0 50 3 75 9c-19 111 -36 221 -54 331z" />
		</symbol>
		<symbol id="E082" viewBox="0 0 1000 1000" overflow="inherit">
			<path transform="scale(1,-1)" d="M104 -185c-18 0 -55 -14 -65 -65h-36l-3 29c0 25 6 46 18 64c11 19 22 30 39 43l121 82l37 29c15 11 27 29 38 54c12 24 18 47 18 70c0 40 -19 88 -94 88c-25 0 -32 0 -50 -8c-14 -5 -23 -12 -26 -22c3 -9 7 -15 10 -18l24 -17c12 -7 17 -11 27 -21c5 -7 7 -16 7 -27 c0 -12 0 -57 -79 -74c-30 0 -76 26 -76 94c0 66 80 135 196 135c72 0 182 -32 182 -150c0 -53 -32 -95 -113 -133l-91 -41c-26 -11 -45 -23 -57 -37l49 7c84 0 115 -41 148 -41c20 0 33 20 39 61h35c0 -152 -68 -168 -114 -168c-17 0 -55 0 -69 7v0l-28 17 c-49 37 -69 40 -87 42z" />
		</symbol>
		<symbol id="E084" viewBox="0 0 1000 1000" overflow="inherit">
			<path transform="scale(1,-1)" d="M0 -78c84 97 114 180 134 329h170c-13 -32 -82 -132 -99 -151l-84 -97c-33 -36 -59 -63 -80 -81h162v102l127 123v-225h57v-39h-57v-34c0 -43 19 -65 57 -65v-34h-244v36c48 0 60 26 60 70v27h-203v39z" />
		</symbol>
		<symbol id="E0A4" viewBox="0 0 1000 1000" overflow="inherit">
			<path transform="scale(1,-1)" d="M0 -39c0 68 73 172 200 172c66 0 114 -37 114 -95c0 -84 -106 -171 -218 -171c-64 0 -96 30 -96 94z" />
		</symbol>
		<symbol id="E062" viewBox="0 0 1000 1000" overflow="inherit">
			<path transform="scale(1,-1)" d="M158 96c51 0 73 -14 88 -49l16 -39c0 -17 -2 -30 -7 -40c-3 -11 -10 -21 -19 -31c-17 -18 -49 -43 -84 -43c-55 0 -77 13 -112 44c-24 21 -35 55 -35 100c0 46 14 81 32 112c30 52 71 79 137 93l36 6l26 2c154 0 235 -68 274 -182c11 -32 18 -68 18 -107 c0 -103 -26 -182 -68 -250c-89 -145 -234 -230 -412 -288l-30 -5c-9 0 -14 3 -14 8c3 10 5 11 10 16c35 15 70 30 96 44l78 43c96 57 162 136 197 258c9 33 17 60 22 100c3 22 5 35 6 39c-7 69 -16 115 -23 140s-4 22 -16 40c-8 12 -19 23 -31 34c-24 21 -62 44 -118 44 c-48 0 -84 -8 -113 -28c-28 -19 -42 -44 -42 -73v-16c2 -5 3 -9 4 -11c24 22 52 39 84 39zM585 -118c0 32 23 58 57 58c18 0 33 -6 40 -18c9 -15 16 -18 16 -40c0 -9 -2 -16 -5 -21c-6 -19 -27 -37 -51 -37c-34 0 -57 26 -57 58zM642 177c31 0 56 -27 56 -58 c0 -30 -25 -58 -56 -58l-23 3c-19 7 -34 32 -34 55l3 23c9 20 28 35 54 35z" />
		</symbol>
		<symbol id="E260" viewBox="0 0 1000 1000" overflow="inherit">
			<path transform="scale(1,-1)" d="M20 110c32 16 54 27 93 27c26 0 35 -3 54 -13c13 -7 24 -20 27 -38l4 -25c0 -28 -16 -57 -45 -89c-23 -25 -39 -44 -65 -68l-88 -79v644h20v-359zM90 106c-32 0 -48 -10 -70 -29v-194c31 31 54 59 71 84c21 32 32 59 32 84c0 9 1 16 1 20c0 14 -3 21 -11 30l-8 3z" />
		</symbol>
	</defs>
	<style type="text/css">g.page-margin{font-family:Times;} g.tempo{font-weight:bold;} g.dir, g.dynam, g.mNum{font-style:italic;} g.label{font-weight:normal;}</style>
	<svg class="definition-scale" viewBox="0 0 21000 4500">
		<g class="page-margin" transform="translate(500, 500)">
			<g class="system" id="system-0000000208415840">
				<path d="M13 720 L13 3088" stroke="#000000" stroke-width="27" />
				<path d="M-32,3070 C-392,2530 58,2084 -212,1904 C121,2084 -329,2530 -32,3070" stroke="#000000" stroke-linecap="round" stroke-linejoin="round" stroke-width="18" />
				<path d="M-32,738 C-329,1278 121,1724 -212,1904 C58,1724 -392,1278 -32,738" stroke="#000000" stroke-linecap="round" stroke-linejoin="round" stroke-width="18" />
				<g class="section boundaryStart" id="section-L1F1" />
				<g class="measure" id="measure-L4">
					<g class="staff" id="staff-L4F2N1">
						<path d="M0 720 L3774 720" stroke="#000000" stroke-width="13" />
						<path d="M0 900 L3774 900" stroke="#000000" stroke-width="13" />
						<path d="M0 1080 L3774 1080" stroke="#000000" stroke-width="13" />
						<path d="M0 1260 L3774 1260" stroke="#000000" stroke-width="13" />
						<path d="M0 1440 L3774 1440" stroke="#000000" stroke-width="13" />
						<g class="clef" id="clef-0000001741513519">
							<use xlink:href="#E050" x="90" y="1260" height="720px" width="720px" />
						</g>
						<g class="meterSig" id="msig-0000001563088870">
							<use xlink:href="#E082" x="771" y="900" height="720px" width="720px" />
							<use xlink:href="#E084" x="777" y="1260" height="720px" width="720px" />
						</g>
						<g class="layer" id="layer-L4F2N1">
							<g class="beam" id="beam-L5F2-L7F2">
								<polygon points="1544,395 2349,316 2349,406 1544,485 " />
								<polygon points="2015,484 2349,451 2349,541 2015,574 " />
								<g class="note" id="note-L5F2">
									<use xlink:href="#E0A4" x="1336" y="1440" height="720px" width="720px" />
									<g class="stem">
										<rect x="1544" y="413" height="1005" width="18" />
									</g>
									<g class="accid" id="accid-0000000211396656" />
								</g>
								<g class="note" id="note-L6F2">
									<use xlink:href="#E0A4" x="1798" y="1080" height="720px" width="720px" />
									<g class="stem">
										<rect x="2006" y="367" height="691" width="18" />
									</g>
									<g class="accid" id="accid-0000001183482088" />
								</g>
								<g class="note" id="note-L7F2">
									<use xlink:href="#E0A4" x="2123" y="990" height="720px" width="720px" />
									<g class="stem">
										<rect x="2331" y="334" height="634" width="18" />
									</g>
									<g class="accid" id="accid-0000000349129360" />
								</g>
							</g>
							<g class="beam" id="beam-L8F2-L11F2">
								<polygon points="2448,1863 3440,1809 3440,1719 2448,1773 " />
								<polygon points="2448,1728 3440,1674 3440,1584 2448,1638 " />
								<g class="note" id="note-L8F2">
									<use xlink:href="#E0A4" x="2448" y="1080" height="720px" width="720px" />
									<g class="stem">
										<rect x="2448" y="1102" height="743" width="18" />
									</g>
									<g class="accid" id="accid-0000001182287986" />
								</g>
								<g class="note" id="note-L9F2">
									<use xlink:href="#E0A4" x="2773" y="1170" height="720px" width="720px" />
									<g class="stem">
										<rect x="2773" y="1192" height="635" width="18" />
									</g>
									<g class="accid" id="accid-0000001345782252" />
								</g>
								<g class="note" id="note-L10F2">
									<use xlink:href="#E0A4" x="3097" y="990" height="720px" width="720px" />
									<g class="stem">
										<rect x="3097" y="1012" height="797" width="18" />
									</g>
									<g class="accid" id="accid-0000001611491408" />
								</g>
								<g class="note" id="note-L11F2">
									<use xlink:href="#E0A4" x="3422" y="1080" height="720px" width="720px" />
									<g class="stem">
										<rect x="3422" y="1102" height="689" width="18" />
									</g>
									<g class="accid" id="accid-0000000902021887" />
								</g>
							</g>
						</g>
					</g>
					<g class="staff" id="staff-L4F1N1">
						<path d="M0 2368 L3774 2368" stroke="#000000" stroke-width="13" />
						<path d="M0 2548 L3774 2548" stroke="#000000" stroke-width="13" />
						<path d="M0 2728 L3774 2728" stroke="#000000" stroke-width="13" />
						<path d="M0 2908 L3774 2908" stroke="#000000" stroke-width="13" />
						<path d="M0 3088 L3774 3088" stroke="#000000" stroke-width="13" />
						<g class="clef" id="clef-0000000667184339">
							<use xlink:href="#E062" x="90" y="2548" height="720px" width="720px" />
						</g>
						<g class="meterSig" id="msig-0000001355064586">
							<use xlink:href="#E082" x="771" y="2548" height="720px" width="720px" />
							<use xlink:href="#E084" x="777" y="2908" height="720px" width="720px" />
						</g>
						<g class="layer" id="layer-L4F1N1">
							<g class="beam" id="beam-L5F1-L7F1">
								<polygon points="1336,3493 2141,3414 2141,3324 1336,3403 " />
								<polygon points="1807,3311 2141,3279 2141,3189 1807,3221 " />
								<g class="note" id="note-L5F1">
									<use xlink:href="#E0A4" x="1336" y="2818" height="720px" width="720px" />
									<g class="stem">
										<rect x="1336" y="2840" height="635" width="18" />
									</g>
									<g class="accid" id="accid-0000001765879834" />
								</g>
								<g class="note" id="note-L6F1">
									<use xlink:href="#E0A4" x="1798" y="2638" height="720px" width="720px" />
									<g class="stem">
										<rect x="1798" y="2660" height="768" width="18" />
									</g>
									<g class="accid" id="accid-0000001054374897" />
								</g>
								<g class="note" id="note-L7F1">
									<use xlink:href="#E0A4" x="2123" y="2548" height="720px" width="720px" />
									<g class="stem">
										<rect x="2123" y="2570" height="826" width="18" />
									</g>
									<g class="accid" id="accid-0000001771800126" />
								</g>
							</g>
							<g class="beam" id="beam-L8F1-L10F1">
								<polygon points="2448,3088 3115,3023 3115,2933 2448,2998 " />
								<g class="note" id="note-L8F1">
									<use xlink:href="#E0A4" x="2448" y="2458" height="720px" width="720px" />
									<g class="stem">
										<rect x="2448" y="2480" height="590" width="18" />
									</g>
									<g class="accid" id="accid-0000000153395763" />
								</g>
								<g class="note" id="note-L10F1">
									<use xlink:href="#E0A4" x="3097" y="2368" height="720px" width="720px" />
									<g class="stem">
										<rect x="3097" y="2390" height="615" width="18" />
									</g>
									<g class="accid" id="accid-0000000806494654" />
								</g>
							</g>
						</g>
					</g>
					<g class="mNum autogenerated" id="mnum-0000000469449881" />
					<g class="barLineAttr" id="bline-0000001552427428">
						<path d="M3761 3088 L3761 720" stroke="#000000" stroke-width="27" />
					</g>
				</g>
				<g class="measure" id="measure-L12">
					<g class="staff" id="staff-L12F2N1">
						<path d="M3774 720 L6586 720" stroke="#000000" stroke-width="13" />
						<path d="M3774 900 L6586 900" stroke="#000000" stroke-width="13" />
						<path d="M3774 1080 L6586 1080" stroke="#000000" stroke-width="13" />
						<path d="M3774 1260 L6586 1260" stroke="#000000" stroke-width="13" />
						<path d="M3774 1440 L6586 1440" stroke="#000000" stroke-width="13" />
						<g class="layer" id="layer-L12F2N1">
							<g class="beam" id="beam-L13F2-L16F2">
								<polygon points="4168,547 5160,586 5160,676 4168,637 " />
								<polygon points="4826,708 5160,721 5160,811 4826,798 " />
								<g class="note" id="note-L13F2">
									<use xlink:href="#E0A4" x="3960" y="1260" height="720px" width="720px" />
									<g class="stem">
										<rect x="4168" y="565" height="673" width="18" />
									</g>
									<g class="accid" id="accid-0000000682673834" />
								</g>
								<g class="note" id="note-L15F2">
									<use xlink:href="#E0A4" x="4609" y="1440" height="720px" width="720px" />
									<g class="stem">
										<rect x="4817" y="591" height="827" width="18" />
									</g>
									<g class="accid" id="accid-0000000316914984" />
								</g>
								<g class="note" id="note-L16F2">
									<use xlink:href="#E0A4" x="4934" y="1260" height="720px" width="720px" />
									<g class="stem">
										<rect x="5142" y="604" height="634" width="18" />
									</g>
									<g class="accid" id="accid-0000000053229504" />
								</g>
							</g>
							<g class="beam" id="beam-L17F2-L20F2">
								<polygon points="5467,308 6459,406 6459,496 5467,398 " />
								<polygon points="5467,443 6459,541 6459,631 5467,533 " />
								<g class="note" id="note-L17F2">
									<use xlink:href="#E0A4" x="5259" y="990" height="720px" width="720px" />
									<g class="stem">
										<rect x="5467" y="326" height="642" width="18" />
									</g>
									<g class="accid" id="accid-0000001117124880" />
								</g>
								<g class="note" id="note-L18F2">
									<use xlink:href="#E0A4" x="5584" y="1080" height="720px" width="720px" />
									<g class="stem">
										<rect x="5792" y="359" height="699" width="18" />
									</g>
									<g class="accid" id="accid-0000001707034775" />
								</g>
								<g class="note" id="note-L19F2">
									<use xlink:href="#E0A4" x="5908" y="1260" height="720px" width="720px" />
									<g class="stem">
										<rect x="6116" y="391" height="847" width="18" />
									</g>
									<g class="accid" id="accid-0000001260503009" />
								</g>
								<g class="note" id="note-L20F2">
									<use xlink:href="#E0A4" x="6233" y="1080" height="720px" width="720px" />
									<g class="stem">
										<rect x="6441" y="424" height="634" width="18" />
									</g>
									<g class="accid" id="accid-0000001614189522" />
								</g>
							</g>
						</g>
					</g>
					<g class="staff" id="staff-L12F1N1">
						<path d="M3774 2368 L6586 2368" stroke="#000000" stroke-width="13" />
						<path d="M3774 2548 L6586 2548" stroke="#000000" stroke-width="13" />
						<path d="M3774 2728 L6586 2728" stroke="#000000" stroke-width="13" />
						<path d="M3774 2908 L6586 2908" stroke="#000000" stroke-width="13" />
						<path d="M3774 3088 L6586 3088" stroke="#000000" stroke-width="13" />
						<g class="ledgerLines above">
							<path d="M4253 2188 L4532 2188" stroke="#000000" stroke-width="22" />
						</g>
						<g class="layer" id="layer-L12F1N1">
							<g class="beam" id="beam-L13F1-L15F1">
								<polygon points="3960,2954 4627,2954 4627,2864 3960,2864 " />
								<polygon points="3960,2819 4293,2819 4293,2729 3960,2729 " />
								<g class="note" id="note-L13F1">
									<use xlink:href="#E0A4" x="3960" y="2278" height="720px" width="720px" />
									<g class="stem">
										<rect x="3960" y="2300" height="636" width="18" />
									</g>
									<g class="accid" id="accid-0000000634817536" />
								</g>
								<g class="note" id="note-L14F1">
									<use xlink:href="#E0A4" x="4284" y="2188" height="720px" width="720px" />
									<g class="stem">
										<rect x="4284" y="2210" height="726" width="18" />
									</g>
									<g class="accid" id="accid-0000001202450846" />
								</g>
								<g class="note" id="note-L15F1">
									<use xlink:href="#E0A4" x="4609" y="2278" height="720px" width="720px" />
									<g class="stem">
										<rect x="4609" y="2300" height="636" width="18" />
									</g>
									<g class="accid" id="accid-0000001360901226" />
								</g>
							</g>
							<g class="beam" id="beam-L17F1-L20F1">
								<polygon points="5259,3075 6251,3133 6251,3043 5259,2985 " />
								<polygon points="5917,2979 6251,2998 6251,2908 5917,2889 " />
								<g class="note" id="note-L17F1">
									<use xlink:href="#E0A4" x="5259" y="2368" height="720px" width="720px" />
									<g class="stem">
										<rect x="5259" y="2390" height="667" width="18" />
									</g>
									<g class="accid" id="accid-0000000745919275" />
								</g>
								<g class="note" id="note-L19F1">
									<use xlink:href="#E0A4" x="5908" y="2278" height="720px" width="720px" />
									<g class="stem">
										<rect x="5908" y="2300" height="796" width="18" />
									</g>
									<g class="accid" id="accid-0000001217310038" />
								</g>
								<g class="note" id="note-L20F1">
									<use xlink:href="#E0A4" x="6233" y="2458" height="720px" width="720px" />
									<g class="stem">
										<rect x="6233" y="2480" height="635" width="18" />
									</g>
									<g class="accid" id="accid-0000001896214419" />
								</g>
							</g>
						</g>
					</g>
					<g class="mNum autogenerated" id="mnum-0000002127753863" />
					<g class="barLineAttr" id="bline-0000001693596049">
						<path d="M6573 3088 L6573 720" stroke="#000000" stroke-width="27" />
					</g>
				</g>
				<g class="measure" id="measure-L21">
					<g class="staff" id="staff-L21F2N1">
						<path d="M6586 720 L9476 720" stroke="#000000" stroke-width="13" />
						<path d="M6586 900 L9476 900" stroke="#000000" stroke-width="13" />
						<path d="M6586 1080 L9476 1080" stroke="#000000" stroke-width="13" />
						<path d="M6586 1260 L9476 1260" stroke="#000000" stroke-width="13" />
						<path d="M6586 1440 L9476 1440" stroke="#000000" stroke-width="13" />
						<g class="layer" id="layer-L21F2N1">
							<g class="beam" id="beam-L22F2-L24F2">
								<polygon points="6980,401 7849,316 7849,406 6980,491 " />
								<polygon points="7515,483 7849,451 7849,541 7515,573 " />
								<g class="note" id="note-L22F2">
									<use xlink:href="#E0A4" x="6772" y="1350" height="720px" width="720px" />
									<g class="stem">
										<rect x="6980" y="419" height="909" width="18" />
									</g>
									<g class="accid" id="accid-0000001025281900" />
								</g>
								<g class="note" id="note-L23F2">
									<use xlink:href="#E0A4" x="7298" y="1080" height="720px" width="720px" />
									<g class="stem">
										<rect x="7506" y="366" height="692" width="18" />
									</g>
									<g class="accid" id="accid-0000000749950589">
										<use xlink:href="#E260" x="7102" y="1080" height="720px" width="720px" />
									</g>
								</g>
								<g class="note" id="note-L24F2">
									<use xlink:href="#E0A4" x="7623" y="990" height="720px" width="720px" />
									<g class="stem">
										<rect x="7831" y="334" height="634" width="18" />
									</g>
									<g class="accid" id="accid-0000001489762534" />
								</g>
							</g>
							<g class="beam" id="beam-L25F2-L28F2">
								<polygon points="7947,1865 9141,1820 9141,1730 7947,1775 " />
								<polygon points="7947,1730 9141,1685 9141,1595 7947,1640 " />
								<g class="note" id="note-L25F2">
									<use xlink:href="#E0A4" x="7947" y="1080" height="720px" width="720px" />
									<g class="stem">
										<rect x="7947" y="1102" height="745" width="18" />
									</g>
									<g class="accid" id="accid-0000001067641129" />
								</g>
								<g class="note" id="note-L26F2">
									<use xlink:href="#E0A4" x="8474" y="1170" height="720px" width="720px" />
									<g class="stem">
										<rect x="8474" y="1192" height="635" width="18" />
									</g>
									<g class="accid" id="accid-0000001372956777">
										<use xlink:href="#E260" x="8278" y="1170" height="720px" width="720px" />
									</g>
								</g>
								<g class="note" id="note-L27F2">
									<use xlink:href="#E0A4" x="8799" y="990" height="720px" width="720px" />
									<g class="stem">
										<rect x="8799" y="1012" height="802" width="18" />
									</g>
									<g class="accid" id="accid-0000001423245514" />
								</g>
								<g class="note" id="note-L28F2">
									<use xlink:href="#E0A4" x="9123" y="1080" height="720px" width="720px" />
									<g class="stem">
										<rect x="9123" y="1102" height="700" width="18" />
									</g>
									<g class="accid" id="accid-0000001924668784" />
								</g>
							</g>
						</g>
					</g>
					<g class="staff" id="staff-L21F1N1">
						<path d="M6586 2368 L9476 2368" stroke="#000000" stroke-width="13" />
						<path d="M6586 2548 L9476 2548" stroke="#000000" stroke-width="13" />
						<path d="M6586 2728 L9476 2728" stroke="#000000" stroke-width="13" />
						<path d="M6586 2908 L9476 2908" stroke="#000000" stroke-width="13" />
						<path d="M6586 3088 L9476 3088" stroke="#000000" stroke-width="13" />
						<g class="layer" id="layer-L21F1N1">
							<g class="beam" id="beam-L22F1-L24F1">
								<polygon points="6772,3493 7641,3407 7641,3317 6772,3403 " />
								<polygon points="7307,3305 7641,3272 7641,3182 7307,3215 " />
								<g class="note" id="note-L22F1">
									<use xlink:href="#E0A4" x="6772" y="2818" height="720px" width="720px" />
									<g class="stem">
										<rect x="6772" y="2840" height="635" width="18" />
									</g>
									<g class="accid" id="accid-0000002115527030" />
								</g>
								<g class="note" id="note-L23F1">
									<use xlink:href="#E0A4" x="7298" y="2638" height="720px" width="720px" />
									<g class="stem">
										<rect x="7298" y="2660" height="762" width="18" />
									</g>
									<g class="accid" id="accid-0000000608342808">
										<use xlink:href="#E260" x="7102" y="2638" height="720px" width="720px" />
									</g>
								</g>
								<g class="note" id="note-L24F1">
									<use xlink:href="#E0A4" x="7623" y="2548" height="720px" width="720px" />
									<g class="stem">
										<rect x="7623" y="2570" height="819" width="18" />
									</g>
									<g class="accid" id="accid-0000000852814843" />
								</g>
							</g>
							<g class="beam" id="beam-L25F1-L27F1">
								<polygon points="7947,3088 8817,3002 8817,2912 7947,2998 " />
								<g class="note" id="note-L25F1">
									<use xlink:href="#E0A4" x="7947" y="2458" height="720px" width="720px" />
									<g class="stem">
										<rect x="7947" y="2480" height="590" width="18" />
									</g>
									<g class="accid" id="accid-0000000467553741" />
								</g>
								<g class="note" id="note-L27F1">
									<use xlink:href="#E0A4" x="8799" y="2368" height="720px" width="720px" />
									<g class="stem">
										<rect x="8799" y="2390" height="594" width="18" />
									</g>
									<g class="accid" id="accid-0000001995447861">
										<use xlink:href="#E260" x="8603" y="2368" height="720px" width="720px" />
									</g>
								</g>
							</g>
						</g>
					</g>
					<g class="mNum autogenerated" id="mnum-0000001829865595" />
					<g class="barLineAttr" id="bline-0000001121544304">
						<path d="M9463 3088 L9463 720" stroke="#000000" stroke-width="27" />
					</g>
				</g>
				<g class="measure" id="measure-L29">
					<g class="staff" id="staff-L29F2N1">
						<path d="M9476 720 L12690 720" stroke="#000000" stroke-width="13" />
						<path d="M9476 900 L12690 900" stroke="#000000" stroke-width="13" />
						<path d="M9476 1080 L12690 1080" stroke="#000000" stroke-width="13" />
						<path d="M9476 1260 L12690 1260" stroke="#000000" stroke-width="13" />
						<path d="M9476 1440 L12690 1440" stroke="#000000" stroke-width="13" />
						<g class="layer" id="layer-L29F2N1">
							<g class="beam" id="beam-L30F2-L33F2">
								<polygon points="10071,567 11063,586 11063,676 10071,657 " />
								<polygon points="10730,715 11063,721 11063,811 10730,805 " />
								<g class="note" id="note-L30F2">
									<use xlink:href="#E0A4" x="9863" y="1260" height="720px" width="720px" />
									<g class="stem">
										<rect x="10071" y="585" height="653" width="18" />
									</g>
									<g class="accid" id="accid-0000000004893094" />
								</g>
								<g class="note" id="note-L32F2">
									<use xlink:href="#E0A4" x="10513" y="1350" height="720px" width="720px" />
									<g class="stem">
										<rect x="10721" y="598" height="730" width="18" />
									</g>
									<g class="accid" id="accid-0000001636246384" />
								</g>
								<g class="note" id="note-L33F2">
									<use xlink:href="#E0A4" x="10837" y="1260" height="720px" width="720px" />
									<g class="stem">
										<rect x="11045" y="604" height="634" width="18" />
									</g>
									<g class="accid" id="accid-0000000447994806" />
								</g>
							</g>
							<g class="beam" id="beam-L34F2-L37F2">
								<polygon points="11370,288 12564,406 12564,496 11370,378 " />
								<polygon points="11370,423 12564,541 12564,631 11370,513 " />
								<g class="note" id="note-L34F2">
									<use xlink:href="#E0A4" x="11162" y="990" height="720px" width="720px" />
									<g class="stem">
										<rect x="11370" y="306" height="662" width="18" />
									</g>
									<g class="accid" id="accid-0000001566227265" />
								</g>
								<g class="note" id="note-L35F2">
									<use xlink:href="#E0A4" x="11689" y="1080" height="720px" width="720px" />
									<g class="stem">
										<rect x="11897" y="359" height="699" width="18" />
									</g>
									<g class="accid" id="accid-0000000359962695">
										<use xlink:href="#E260" x="11493" y="1080" height="720px" width="720px" />
									</g>
								</g>
								<g class="note" id="note-L36F2">
									<use xlink:href="#E0A4" x="12013" y="1260" height="720px" width="720px" />
									<g class="stem">
										<rect x="12221" y="391" height="847" width="18" />
									</g>
									<g class="accid" id="accid-0000001534061743" />
								</g>
								<g class="note" id="note-L37F2">
									<use xlink:href="#E0A4" x="12338" y="1080" height="720px" width="720px" />
									<g class="stem">
										<rect x="12546" y="424" height="634" width="18" />
									</g>
									<g class="accid" id="accid-0000001179549071" />
								</g>
							</g>
						</g>
					</g>
					<g class="staff" id="staff-L29F1N1">
						<path d="M9476 2368 L12690 2368" stroke="#000000" stroke-width="13" />
						<path d="M9476 2548 L12690 2548" stroke="#000000" stroke-width="13" />
						<path d="M9476 2728 L12690 2728" stroke="#000000" stroke-width="13" />
						<path d="M9476 2908 L12690 2908" stroke="#000000" stroke-width="13" />
						<path d="M9476 3088 L12690 3088" stroke="#000000" stroke-width="13" />
						<g class="ledgerLines above">
							<path d="M10157 2188 L10436 2188" stroke="#000000" stroke-width="22" />
						</g>
						<g class="layer" id="layer-L29F1N1">
							<g class="beam" id="beam-L30F1-L32F1">
								<polygon points="9863,2953 10531,2953 10531,2863 9863,2863 " />
								<polygon points="9863,2818 10197,2818 10197,2728 9863,2728 " />
								<g class="note" id="note-L30F1">
									<use xlink:href="#E0A4" x="9863" y="2278" height="720px" width="720px" />
									<g class="stem">
										<rect x="9863" y="2300" height="635" width="18" />
									</g>
									<g class="accid" id="accid-0000002037447977">
										<use xlink:href="#E260" x="9667" y="2278" height="720px" width="720px" />
									</g>
								</g>
								<g class="note" id="note-L31F1">
									<use xlink:href="#E0A4" x="10188" y="2188" height="720px" width="720px" />
									<g class="stem">
										<rect x="10188" y="2210" height="725" width="18" />
									</g>
									<g class="accid" id="accid-0000000754515473" />
								</g>
								<g class="note" id="note-L32F1">
									<use xlink:href="#E0A4" x="10513" y="2278" height="720px" width="720px" />
									<g class="stem">
										<rect x="10513" y="2300" height="635" width="18" />
									</g>
									<g class="accid" id="accid-0000000941059265" />
								</g>
							</g>
							<g class="beam" id="beam-L34F1-L37F1">
								<polygon points="11162,3087 12356,3133 12356,3043 11162,2997 " />
								<polygon points="12022,2986 12356,2998 12356,2908 12022,2896 " />
								<g class="note" id="note-L34F1">
									<use xlink:href="#E0A4" x="11162" y="2368" height="720px" width="720px" />
									<g class="stem">
										<rect x="11162" y="2390" height="679" width="18" />
									</g>
									<g class="accid" id="accid-0000000289794662">
										<use xlink:href="#E260" x="10966" y="2368" height="720px" width="720px" />
									</g>
								</g>
								<g class="note" id="note-L36F1">
									<use xlink:href="#E0A4" x="12013" y="2278" height="720px" width="720px" />
									<g class="stem">
										<rect x="12013" y="2300" height="803" width="18" />
									</g>
									<g class="accid" id="accid-0000001836477482" />
								</g>
								<g class="note" id="note-L37F1">
									<use xlink:href="#E0A4" x="12338" y="2458" height="720px" width="720px" />
									<g class="stem">
										<rect x="12338" y="2480" height="635" width="18" />
									</g>
									<g class="accid" id="accid-0000002055166323" />
								</g>
							</g>
						</g>
					</g>
					<g class="mNum autogenerated" id="mnum-0000002073564771" />
					<g class="barLineAttr" id="bline-0000000025030383">
						<path d="M12677 3088 L12677 720" stroke="#000000" stroke-width="27" />
					</g>
				</g>
				<g class="measure" id="measure-L38">
					<g class="staff" id="staff-L38F2N1">
						<path d="M12690 720 L16184 720" stroke="#000000" stroke-width="13" />
						<path d="M12690 900 L16184 900" stroke="#000000" stroke-width="13" />
						<path d="M12690 1080 L16184 1080" stroke="#000000" stroke-width="13" />
						<path d="M12690 1260 L16184 1260" stroke="#000000" stroke-width="13" />
						<path d="M12690 1440 L16184 1440" stroke="#000000" stroke-width="13" />
						<g class="layer" id="layer-L38F2N1">
							<g class="beam" id="beam-L39F2-L41F2">
								<polygon points="13285,332 14356,226 14356,316 13285,422 " />
								<polygon points="13820,414 14356,361 14356,451 13820,504 " />
								<g class="note" id="note-L39F2">
									<use xlink:href="#E0A4" x="13077" y="1350" height="720px" width="720px" />
									<g class="stem">
										<rect x="13285" y="350" height="978" width="18" />
									</g>
									<g class="accid" id="accid-0000000582123827" />
								</g>
								<g class="note" id="note-L40F2">
									<use xlink:href="#E0A4" x="13603" y="1080" height="720px" width="720px" />
									<g class="stem">
										<rect x="13811" y="297" height="761" width="18" />
									</g>
									<g class="accid" id="accid-0000001350799763">
										<use xlink:href="#E260" x="13407" y="1080" height="720px" width="720px" />
									</g>
								</g>
								<g class="note" id="note-L41F2">
									<use xlink:href="#E0A4" x="14130" y="900" height="720px" width="720px" />
									<g class="stem">
										<rect x="14338" y="244" height="634" width="18" />
									</g>
									<g class="accid" id="accid-0000000105942176">
										<use xlink:href="#E260" x="13934" y="900" height="720px" width="720px" />
									</g>
								</g>
							</g>
							<g class="beam" id="beam-L42F2-L45F2">
								<polygon points="14656,1879 15850,1803 15850,1713 14656,1789 " />
								<polygon points="14656,1744 15850,1668 15850,1578 14656,1654 " />
								<g class="note" id="note-L42F2">
									<use xlink:href="#E0A4" x="14656" y="1080" height="720px" width="720px" />
									<g class="stem">
										<rect x="14656" y="1102" height="759" width="18" />
									</g>
									<g class="accid" id="accid-0000000065547464" />
								</g>
								<g class="note" id="note-L43F2">
									<use xlink:href="#E0A4" x="15182" y="1170" height="720px" width="720px" />
									<g class="stem">
										<rect x="15182" y="1192" height="635" width="18" />
									</g>
									<g class="accid" id="accid-0000000929761240">
										<use xlink:href="#E260" x="14986" y="1170" height="720px" width="720px" />
									</g>
								</g>
								<g class="note" id="note-L44F2">
									<use xlink:href="#E0A4" x="15507" y="900" height="720px" width="720px" />
									<g class="stem">
										<rect x="15507" y="922" height="884" width="18" />
									</g>
									<g class="accid" id="accid-0000000023294921" />
								</g>
								<g class="note" id="note-L45F2">
									<use xlink:href="#E0A4" x="15832" y="1080" height="720px" width="720px" />
									<g class="stem">
										<rect x="15832" y="1102" height="683" width="18" />
									</g>
									<g class="accid" id="accid-0000000823151515" />
								</g>
							</g>
						</g>
					</g>
					<g class="staff" id="staff-L38F1N1">
						<path d="M12690 2368 L16184 2368" stroke="#000000" stroke-width="13" />
						<path d="M12690 2548 L16184 2548" stroke="#000000" stroke-width="13" />
						<path d="M12690 2728 L16184 2728" stroke="#000000" stroke-width="13" />
						<path d="M12690 2908 L16184 2908" stroke="#000000" stroke-width="13" />
						<path d="M12690 3088 L16184 3088" stroke="#000000" stroke-width="13" />
						<g class="layer" id="layer-L38F1N1">
							<g class="beam" id="beam-L39F1-L41F1">
								<polygon points="13077,3403 14148,3297 14148,3207 13077,3313 " />
								<polygon points="13612,3215 14148,3162 14148,3072 13612,3125 " />
								<g class="note" id="note-L39F1">
									<use xlink:href="#E0A4" x="13077" y="2728" height="720px" width="720px" />
									<g class="stem">
										<rect x="13077" y="2750" height="635" width="18" />
									</g>
									<g class="accid" id="accid-0000001327556724">
										<use xlink:href="#E260" x="12881" y="2728" height="720px" width="720px" />
									</g>
								</g>
								<g class="note" id="note-L40F1">
									<use xlink:href="#E0A4" x="13603" y="2638" height="720px" width="720px" />
									<g class="stem">
										<rect x="13603" y="2660" height="672" width="18" />
									</g>
									<g class="accid" id="accid-0000000235252151">
										<use xlink:href="#E260" x="13407" y="2638" height="720px" width="720px" />
									</g>
								</g>
								<g class="note" id="note-L41F1">
									<use xlink:href="#E0A4" x="14130" y="2548" height="720px" width="720px" />
									<g class="stem">
										<rect x="14130" y="2570" height="709" width="18" />
									</g>
									<g class="accid" id="accid-0000001285187690" />
								</g>
							</g>
							<g class="beam" id="beam-L42F1-L44F1">
								<polygon points="14656,3088 15525,3002 15525,2912 14656,2998 " />
								<g class="note" id="note-L42F1">
									<use xlink:href="#E0A4" x="14656" y="2458" height="720px" width="720px" />
									<g class="stem">
										<rect x="14656" y="2480" height="590" width="18" />
									</g>
									<g class="accid" id="accid-0000001253143644">
										<use xlink:href="#E260" x="14460" y="2458" height="720px" width="720px" />
									</g>
								</g>
								<g class="note" id="note-L44F1">
									<use xlink:href="#E0A4" x="15507" y="2368" height="720px" width="720px" />
									<g class="stem">
										<rect x="15507" y="2390" height="594" width="18" />
									</g>
									<g class="accid" id="accid-0000000338072635">
										<use xlink:href="#E260" x="15311" y="2368" height="720px" width="720px" />
									</g>
								</g>
							</g>
						</g>
					</g>
					<g class="mNum autogenerated" id="mnum-0000001178820398" />
					<g class="barLineAttr" id="bline-0000001310708017">
						<path d="M16171 3088 L16171 720" stroke="#000000" stroke-width="27" />
					</g>
				</g>
				<g class="measure" id="measure-L46">
					<g class="staff" id="staff-L46F2N1">
						<path d="M16184 720 L20003 720" stroke="#000000" stroke-width="13" />
						<path d="M16184 900 L20003 900" stroke="#000000" stroke-width="13" />
						<path d="M16184 1080 L20003 1080" stroke="#000000" stroke-width="13" />
						<path d="M16184 1260 L20003 1260" stroke="#000000" stroke-width="13" />
						<path d="M16184 1440 L20003 1440" stroke="#000000" stroke-width="13" />
						<g class="layer" id="layer-L46F2N1">
							<g class="beam" id="beam-L47F2-L50F2">
								<polygon points="16779,561 17973,586 17973,676 16779,651 " />
								<polygon points="17639,714 17973,721 17973,811 17639,804 " />
								<g class="note" id="note-L47F2">
									<use xlink:href="#E0A4" x="16571" y="1260" height="720px" width="720px" />
									<g class="stem">
										<rect x="16779" y="579" height="659" width="18" />
									</g>
									<g class="accid" id="accid-0000001081322722">
										<use xlink:href="#E260" x="16375" y="1260" height="720px" width="720px" />
									</g>
								</g>
								<g class="note" id="note-L49F2">
									<use xlink:href="#E0A4" x="17422" y="1350" height="720px" width="720px" />
									<g class="stem">
										<rect x="17630" y="597" height="731" width="18" />
									</g>
									<g class="accid" id="accid-0000000259475825" />
								</g>
								<g class="note" id="note-L50F2">
									<use xlink:href="#E0A4" x="17747" y="1260" height="720px" width="720px" />
									<g class="stem">
										<rect x="17955" y="604" height="634" width="18" />
									</g>
									<g class="accid" id="accid-0000000208570653" />
								</g>
							</g>
							<g class="beam" id="beam-L51F2-L54F2">
								<polygon points="18273,1849 19669,1987 19669,1897 18273,1759 " />
								<polygon points="18273,1714 19669,1852 19669,1762 18273,1624 " />
								<g class="note" id="note-L51F2">
									<use xlink:href="#E0A4" x="18273" y="900" height="720px" width="720px" />
									<g class="stem">
										<rect x="18273" y="922" height="909" width="18" />
									</g>
									<g class="accid" id="accid-0000000988902204">
										<use xlink:href="#E260" x="18077" y="900" height="720px" width="720px" />
									</g>
								</g>
								<g class="note" id="note-L52F2">
									<use xlink:href="#E0A4" x="18800" y="1080" height="720px" width="720px" />
									<g class="stem">
										<rect x="18800" y="1102" height="782" width="18" />
									</g>
									<g class="accid" id="accid-0000001297213620">
										<use xlink:href="#E260" x="18604" y="1080" height="720px" width="720px" />
									</g>
								</g>
								<g class="note" id="note-L53F2">
									<use xlink:href="#E0A4" x="19124" y="1260" height="720px" width="720px" />
									<g class="stem">
										<rect x="19124" y="1282" height="635" width="18" />
									</g>
									<g class="accid" id="accid-0000000695762710" />
								</g>
								<g class="note" id="note-L54F2">
									<use xlink:href="#E0A4" x="19651" y="1080" height="720px" width="720px" />
									<g class="stem">
										<rect x="19651" y="1102" height="867" width="18" />
									</g>
									<g class="accid" id="accid-0000002031294501" />
								</g>
							</g>
						</g>
					</g>
					<g class="staff" id="staff-L46F1N1">
						<path d="M16184 2368 L20003 2368" stroke="#000000" stroke-width="13" />
						<path d="M16184 2548 L20003 2548" stroke="#000000" stroke-width="13" />
						<path d="M16184 2728 L20003 2728" stroke="#000000" stroke-width="13" />
						<path d="M16184 2908 L20003 2908" stroke="#000000" stroke-width="13" />
						<path d="M16184 3088 L20003 3088" stroke="#000000" stroke-width="13" />
						<g class="ledgerLines above">
							<path d="M17066 2188 L17345 2188" stroke="#000000" stroke-width="22" />
						</g>
						<g class="layer" id="layer-L46F1N1">
							<g class="beam" id="beam-L47F1-L49F1">
								<polygon points="16571,2981 17440,2953 17440,2863 16571,2891 " />
								<polygon points="16571,2846 17106,2829 17106,2739 16571,2756 " />
								<g class="note" id="note-L47F1">
									<use xlink:href="#E0A4" x="16571" y="2278" height="720px" width="720px" />
									<g class="stem">
										<rect x="16571" y="2300" height="663" width="18" />
									</g>
									<g class="accid" id="accid-0000001435165057">
										<use xlink:href="#E260" x="16375" y="2278" height="720px" width="720px" />
									</g>
								</g>
								<g class="note" id="note-L48F1">
									<use xlink:href="#E0A4" x="17097" y="2098" height="720px" width="720px" />
									<g class="stem">
										<rect x="17097" y="2120" height="826" width="18" />
									</g>
									<g class="accid" id="accid-0000000468454454">
										<use xlink:href="#E260" x="16901" y="2098" height="720px" width="720px" />
									</g>
								</g>
								<g class="note" id="note-L49F1">
									<use xlink:href="#E0A4" x="17422" y="2278" height="720px" width="720px" />
									<g class="stem">
										<rect x="17422" y="2300" height="635" width="18" />
									</g>
									<g class="accid" id="accid-0000001556871132" />
								</g>
							</g>
							<g class="beam" id="beam-L51F1-L54F1">
								<polygon points="18273,3065 19669,3133 19669,3043 18273,2975 " />
								<polygon points="19133,2972 19669,2998 19669,2908 19133,2882 " />
								<g class="note" id="note-L51F1">
									<use xlink:href="#E0A4" x="18273" y="2368" height="720px" width="720px" />
									<g class="stem">
										<rect x="18273" y="2390" height="657" width="18" />
									</g>
									<g class="accid" id="accid-0000000667880525">
										<use xlink:href="#E260" x="18077" y="2368" height="720px" width="720px" />
									</g>
								</g>
								<g class="note" id="note-L53F1">
									<use xlink:href="#E0A4" x="19124" y="2278" height="720px" width="720px" />
									<g class="stem">
										<rect x="19124" y="2300" height="789" width="18" />
									</g>
									<g class="accid" id="accid-0000000005146756" />
								</g>
								<g class="note" id="note-L54F1">
									<use xlink:href="#E0A4" x="19651" y="2458" height="720px" width="720px" />
									<g class="stem">
										<rect x="19651" y="2480" height="635" width="18" />
									</g>
									<g class="accid" id="accid-0000001933492420">
										<use xlink:href="#E260" x="19455" y="2458" height="720px" width="720px" />
									</g>
								</g>
							</g>
						</g>
					</g>
					<g class="mNum autogenerated" id="mnum-0000001655638833" />
					<g class="barLineAttr" id="bline-0000001862325430">
						<path d="M19990 3088 L19990 720" stroke="#000000" stroke-width="27" />
					</g>
				</g>
			</g>
		</g>
	</svg>
</svg>
