<?xml version="1.0" encoding="UTF-8" standalone="no"?>
<svg width="2100.00px" height="450.00px" version="1.1" xmlns="http://www.w3.org/2000/svg" xmlns:xlink="http://www.w3.org/1999/xlink" overflow="visible">
	<desc>Engraved by Verovio 2.0.0-dev-0f0381c</desc>
	<defs>
		<symbol id="E050" viewBox="0 0 1000 1000" overflow="inherit">
			<path transform="scale(1,-1)" d="M441 -245c-23 -4 -48 -6 -76 -6c-59 0 -102 7 -130 20c-88 42 -150 93 -187 154c-26 44 -43 103 -48 176c-4 60 11 123 44 189c29 57 65 106 110 148s96 85 153 127c-3 16 -8 46 -13 92c-4 43 -5 73 -5 89c0 117 16 172 69 257c34 54 64 82 89 82c21 0 43 -30 69 -92 s39 -115 41 -159c2 -120 -19 -173 -67 -256c-13 -20 -63 -90 -98 -118c-13 -9 -25 -19 -37 -29l31 -181c8 1 18 2 28 2c58 0 102 -12 133 -35c59 -43 92 -104 98 -184c11 -135 -80 -229 -180 -270c8 -57 17 -110 25 -162c5 -31 6 -58 6 -80c0 -30 -5 -53 -14 -70 c-35 -64 -88 -99 -158 -103c-42 -3 -83 6 -124 26c-50 24 -77 59 -80 105c-2 34 5 63 20 87c18 28 45 42 79 44c51 4 99 -40 103 -87c4 -56 -30 -94 -105 -115c17 -24 51 -36 102 -36c62 0 116 43 140 85c9 16 13 41 13 74c0 20 -1 42 -5 67c-8 53 -18 106 -26 159zM461 939 c-95 0 -135 -175 -135 -286c0 -24 2 -48 5 -71c50 39 92 82 127 128c43 57 63 106 60 148c-4 54 -23 82 -57 81zM406 119l54 -326c80 27 116 88 109 184c-7 99 -62 146 -163 142zM382 117c-74 -2 -132 -50 -128 -127c2 -46 43 -99 75 -115c-3 -2 -7 -5 -10 -10 c-70 33 -116 88 -123 172c-5 73 42 135 88 170c23 17 49 29 78 36l-29 170c-21 -13 -52 -37 -92 -73c-50 -44 -86 -84 -109 -119c-49 -75 -71 -140 -67 -195c5 -68 35 -127 93 -176s125 -73 203 -73c25 0 50 3 75 9c-19 111 -36 221 -54 331z" />
		</symbol>
		<symbol id="E082" viewBox="0 0 1000 1000" overflow="inherit">
			<path transform="scale(1,-1)" d="M104 -185c-18 0 -55 -14 -65 -65h-36l-3 29c0 25 6 46 18 64c11 19 22 30 39 43l121 82l37 29c15 11 27 29 38 54c12 24 18 47 18 70c0 40 -19 88 -94 88c-25 0 -32 0 -50 -8c-14 -5 -23 -12 -26 -22c3 -9 7 -15 10 -18l24 -17c12 -7 17 -11 27 -21c5 -7 7 -16 7 -27 c0 -12 0 -57 -79 -74c-30 0 -76 26 -76 94c0 66 80 135 196 135c72 0 182 -32 182 -150c0 -53 -32 -95 -113 -133l-91 -41c-26 -11 -45 -23 -57 -37l49 7c84 0 115 -41 148 -41c20 0 33 20 39 61h35c0 -152 -68 -168 -114 -168c-17 0 -55 0 -69 7v0l-28 17 c-49 37 -69 40 -87 42z" />
		</symbol>
		<symbol id="E084" viewBox="0 0 1000 1000" overflow="inherit">
			<path transform="scale(1,-1)" d="M0 -78c84 97 114 180 134 329h170c-13 -32 -82 -132 -99 -151l-84 -97c-33 -36 -59 -63 -80 -81h162v102l127 123v-225h57v-39h-57v-34c0 -43 19 -65 57 -65v-34h-244v36c48 0 60 26 60 70v27h-203v39z" />
		</symbol>
		<symbol id="E0A4" viewBox="0 0 1000 1000" overflow="inherit">
			<path transform="scale(1,-1)" d="M0 -39c0 68 73 172 200 172c66 0 114 -37 114 -95c0 -84 -106 -171 -218 -171c-64 0 -96 30 -96 94z" />
		</symbol>
		<symbol id="E062" viewBox="0 0 1000 1000" overflow="inherit">
			<path transform="scale(1,-1)" d="M158 96c51 0 73 -14 88 -49l16 -39c0 -17 -2 -30 -7 -40c-3 -11 -10 -21 -19 -31c-17 -18 -49 -43 -84 -43c-55 0 -77 13 -112 44c-24 21 -35 55 -35 100c0 46 14 81 32 112c30 52 71 79 137 93l36 6l26 2c154 0 235 -68 274 -182c11 -32 18 -68 18 -107 c0 -103 -26 -182 -68 -250c-89 -145 -234 -230 -412 -288l-30 -5c-9 0 -14 3 -14 8c3 10 5 11 10 16c35 15 70 30 96 44l78 43c96 57 162 136 197 258c9 33 17 60 22 100c3 22 5 35 6 39c-7 69 -16 115 -23 140s-4 22 -16 40c-8 12 -19 23 -31 34c-24 21 -62 44 -118 44 c-48 0 -84 -8 -113 -28c-28 -19 -42 -44 -42 -73v-16c2 -5 3 -9 4 -11c24 22 52 39 84 39zM585 -118c0 32 23 58 57 58c18 0 33 -6 40 -18c9 -15 16 -18 16 -40c0 -9 -2 -16 -5 -21c-6 -19 -27 -37 -51 -37c-34 0 -57 26 -57 58zM642 177c31 0 56 -27 56 -58 c0 -30 -25 -58 -56 -58l-23 3c-19 7 -34 32 -34 55l3 23c9 20 28 35 54 35z" />
		</symbol>
		<symbol id="E4E6" viewBox="0 0 1000 1000" overflow="inherit">
			<path transform="scale(1,-1)" d="M0 123c7 34 33 56 69 60c29 -3 43 -9 53 -29c4 -8 7 -15 10 -22c0 -21 -1 -25 -11 -35c-5 -8 -18 -14 -40 -20l12 -3l15 -1c44 0 97 26 122 56c10 11 18 26 24 42c7 1 15 2 22 3l-140 -424h-36l111 330c-10 -6 -27 -12 -53 -16l-52 -8h-10l-20 1c-1 0 -8 3 -21 6 c-37 9 -55 28 -55 60z" />
		</symbol>
		<symbol id="E260" viewBox="0 0 1000 1000" overflow="inherit">
			<path transform="scale(1,-1)" d="M20 110c32 16 54 27 93 27c26 0 35 -3 54 -13c13 -7 24 -20 27 -38l4 -25c0 -28 -16 -57 -45 -89c-23 -25 -39 -44 -65 -68l-88 -79v644h20v-359zM90 106c-32 0 -48 -10 -70 -29v-194c31 31 54 59 71 84c21 32 32 59 32 84c0 9 1 16 1 20c0 14 -3 21 -11 30l-8 3z" />
		</symbol>
	</defs>
	<style type="text/css">g.page-margin{font-family:Times;} g.tempo{font-weight:bold;} g.dir, g.dynam, g.mNum{font-style:italic;} g.label{font-weight:normal;}</style>
	<svg class="definition-scale" viewBox="0 0 21000 4500">
		<g class="page-margin" transform="translate(500, 500)">
			<g class="system" id="system-0000000990521378">
				<path d="M13 720 L13 2946" stroke="#000000" stroke-width="27" />
				<path d="M-32,2928 C-392,2388 58,2013 -212,1833 C121,2013 -329,2388 -32,2928" stroke="#000000" stroke-linecap="round" stroke-linejoin="round" stroke-width="18" />
				<path d="M-32,738 C-329,1278 121,1653 -212,1833 C58,1653 -392,1278 -32,738" stroke="#000000" stroke-linecap="round" stroke-linejoin="round" stroke-width="18" />
				<g class="section boundaryStart" id="section-L1F1" />
				<g class="measure" id="measure-L4">
					<g class="staff" id="staff-L4F2N1">
						<path d="M0 720 L4499 720" stroke="#000000" stroke-width="13" />
						<path d="M0 900 L4499 900" stroke="#000000" stroke-width="13" />
						<path d="M0 1080 L4499 1080" stroke="#000000" stroke-width="13" />
						<path d="M0 1260 L4499 1260" stroke="#000000" stroke-width="13" />
						<path d="M0 1440 L4499 1440" stroke="#000000" stroke-width="13" />
						<g class="clef" id="clef-0000001433723736">
							<use xlink:href="#E050" x="90" y="1260" height="720px" width="720px" />
						</g>
						<g class="meterSig" id="msig-0000001828311612">
							<use xlink:href="#E082" x="771" y="900" height="720px" width="720px" />
							<use xlink:href="#E084" x="777" y="1260" height="720px" width="720px" />
						</g>
						<g class="ledgerLines below">
							<path d="M4049 1620 L4328 1620" stroke="#000000" stroke-width="22" />
						</g>
						<g class="layer" id="layer-L4F2N1">
							<g class="beam" id="beam-L5F2-L6F2">
								<polygon points="1580,355 1988,316 1988,406 1580,445 " />
								<polygon points="1580,490 1738,475 1738,565 1580,580 " />
								<g class="note" id="note-L5F2">
									<use xlink:href="#E0A4" x="1372" y="1260" height="720px" width="720px" />
									<g class="stem">
										<rect x="1580" y="373" height="865" width="18" />
									</g>
									<g class="accid" id="accid-0000000339832587" />
								</g>
								<g class="note" id="note-L6F2">
									<use xlink:href="#E0A4" x="1762" y="990" height="720px" width="720px" />
									<g class="dots" id="dots-0000000558717185">
										<ellipse cx="2078" cy="990" rx="36" ry="36" />
									</g>
									<g class="stem">
										<rect x="1970" y="334" height="634" width="18" />
									</g>
									<g class="accid" id="accid-0000001788746741" />
								</g>
							</g>
							<g class="beam" id="beam-L9F2-L12F2">
								<polygon points="3119,316 4306,433 4306,523 3119,406 " />
								<polygon points="3907,529 4306,568 4306,658 3907,619 " />
								<g class="note" id="note-L9F2">
									<use xlink:href="#E0A4" x="2911" y="990" height="720px" width="720px" />
									<g class="stem">
										<rect x="3119" y="334" height="634" width="18" />
									</g>
									<g class="accid" id="accid-0000001199628714" />
								</g>
								<g class="note" id="note-L11F2">
									<use xlink:href="#E0A4" x="3690" y="1260" height="720px" width="720px" />
									<g class="stem">
										<rect x="3898" y="412" height="826" width="18" />
									</g>
									<g class="accid" id="accid-0000001358478757" />
								</g>
								<g class="note" id="note-L12F2">
									<use xlink:href="#E0A4" x="4080" y="1620" height="720px" width="720px" />
									<g class="stem">
										<rect x="4288" y="451" height="1147" width="18" />
									</g>
									<g class="accid" id="accid-0000002008450863" />
								</g>
							</g>
						</g>
					</g>
					<g class="staff" id="staff-L4F1N1">
						<path d="M0 2226 L4499 2226" stroke="#000000" stroke-width="13" />
						<path d="M0 2406 L4499 2406" stroke="#000000" stroke-width="13" />
						<path d="M0 2586 L4499 2586" stroke="#000000" stroke-width="13" />
						<path d="M0 2766 L4499 2766" stroke="#000000" stroke-width="13" />
						<path d="M0 2946 L4499 2946" stroke="#000000" stroke-width="13" />
						<g class="clef" id="clef-0000000089757961">
							<use xlink:href="#E062" x="90" y="2406" height="720px" width="720px" />
						</g>
						<g class="meterSig" id="msig-0000001028530333">
							<use xlink:href="#E082" x="771" y="2406" height="720px" width="720px" />
							<use xlink:href="#E084" x="777" y="2766" height="720px" width="720px" />
						</g>
						<g class="layer" id="layer-L4F1N1">
							<g class="beam" id="beam-L5F1-L8F1">
								<polygon points="1372,3441 2539,3326 2539,3236 1372,3351 " />
								<polygon points="2141,3230 2539,3191 2539,3101 2141,3140 " />
								<g class="rest" id="rest-L5F1">
									<use xlink:href="#E4E6" x="1372" y="2586" height="720px" width="720px" />
								</g>
								<g class="note" id="note-L7F1">
									<use xlink:href="#E0A4" x="2132" y="2496" height="720px" width="720px" />
									<g class="stem">
										<rect x="2132" y="2518" height="829" width="18" />
									</g>
									<g class="accid" id="accid-0000001594358134" />
								</g>
								<g class="note" id="note-L8F1">
									<use xlink:href="#E0A4" x="2521" y="2226" height="720px" width="720px" />
									<g class="stem">
										<rect x="2521" y="2248" height="1060" width="18" />
									</g>
									<g class="accid" id="accid-0000000975872092" />
								</g>
							</g>
							<g class="beam" id="beam-L9F1-L11F1">
								<polygon points="2911,3132 3708,3210 3708,3120 2911,3042 " />
								<polygon points="2911,2997 3309,3036 3309,2946 2911,2907 " />
								<g class="note" id="note-L9F1">
									<use xlink:href="#E0A4" x="2911" y="2316" height="720px" width="720px" />
									<g class="stem">
										<rect x="2911" y="2338" height="776" width="18" />
									</g>
									<g class="accid" id="accid-0000001066872254" />
								</g>
								<g class="note" id="note-L10F1">
									<use xlink:href="#E0A4" x="3300" y="2496" height="720px" width="720px" />
									<g class="stem">
										<rect x="3300" y="2518" height="635" width="18" />
									</g>
									<g class="accid" id="accid-0000001122004894" />
								</g>
								<g class="rest" id="rest-L11F1">
									<use xlink:href="#E4E6" x="3690" y="2586" height="720px" width="720px" />
								</g>
							</g>
						</g>
					</g>
					<g class="tie" id="tie-L6F2-L9F2">
						<path d="M2190,1035 C2364,1133 2712,1133 2889,1035 C2712,1177 2364,1177 2190,1035" stroke="#000000" stroke-linecap="round" stroke-linejoin="round" stroke-width="9" />
					</g>
					<g class="mNum autogenerated" id="mnum-0000001548030946" />
					<g class="barLineAttr" id="bline-0000001979792234">
						<path d="M4486 2946 L4486 720" stroke="#000000" stroke-width="27" />
					</g>
				</g>
				<g class="measure" id="measure-L13">
					<g class="staff" id="staff-L13F2N1">
						<path d="M4499 720 L7868 720" stroke="#000000" stroke-width="13" />
						<path d="M4499 900 L7868 900" stroke="#000000" stroke-width="13" />
						<path d="M4499 1080 L7868 1080" stroke="#000000" stroke-width="13" />
						<path d="M4499 1260 L7868 1260" stroke="#000000" stroke-width="13" />
						<path d="M4499 1440 L7868 1440" stroke="#000000" stroke-width="13" />
						<g class="layer" id="layer-L13F2N1">
							<g class="beam" id="beam-L14F2-L17F2">
								<polygon points="4929,779 6116,760 6116,850 4929,869 " />
								<polygon points="5718,901 6116,895 6116,985 5718,991 " />
								<g class="note" id="note-L14F2">
									<use xlink:href="#E0A4" x="4721" y="1530" height="720px" width="720px" />
									<g class="stem">
										<rect x="4929" y="797" height="711" width="18" />
									</g>
									<g class="accid" id="accid-0000000590125459" />
								</g>
								<g class="note" id="note-L16F2">
									<use xlink:href="#E0A4" x="5501" y="1440" height="720px" width="720px" />
									<g class="stem">
										<rect x="5709" y="784" height="634" width="18" />
									</g>
									<g class="accid" id="accid-0000001296716632" />
								</g>
								<g class="note" id="note-L17F2">
									<use xlink:href="#E0A4" x="5890" y="1530" height="720px" width="720px" />
									<g class="stem">
										<rect x="6098" y="778" height="730" width="18" />
									</g>
									<g class="accid" id="accid-0000001335168029" />
								</g>
							</g>
							<g class="beam" id="beam-L18F2-L21F2">
								<polygon points="6488,394 7674,277 7674,367 6488,484 " />
								<polygon points="6488,529 7674,412 7674,502 6488,619 " />
								<g class="note" id="note-L18F2">
									<use xlink:href="#E0A4" x="6280" y="1260" height="720px" width="720px" />
									<g class="stem">
										<rect x="6488" y="412" height="826" width="18" />
									</g>
									<g class="accid" id="accid-0000001582808121" />
								</g>
								<g class="note" id="note-L19F2">
									<use xlink:href="#E0A4" x="6669" y="1170" height="720px" width="720px" />
									<g class="stem">
										<rect x="6877" y="373" height="775" width="18" />
									</g>
									<g class="accid" id="accid-0000000625736016" />
								</g>
								<g class="note" id="note-L20F2">
									<use xlink:href="#E0A4" x="7059" y="990" height="720px" width="720px" />
									<g class="stem">
										<rect x="7267" y="334" height="634" width="18" />
									</g>
									<g class="accid" id="accid-0000001086963627" />
								</g>
								<g class="note" id="note-L21F2">
									<use xlink:href="#E0A4" x="7448" y="1080" height="720px" width="720px" />
									<g class="stem">
										<rect x="7656" y="295" height="763" width="18" />
									</g>
									<g class="accid" id="accid-0000000617731346" />
								</g>
							</g>
						</g>
					</g>
					<g class="staff" id="staff-L13F1N1">
						<path d="M4499 2226 L7868 2226" stroke="#000000" stroke-width="13" />
						<path d="M4499 2406 L7868 2406" stroke="#000000" stroke-width="13" />
						<path d="M4499 2586 L7868 2586" stroke="#000000" stroke-width="13" />
						<path d="M4499 2766 L7868 2766" stroke="#000000" stroke-width="13" />
						<path d="M4499 2946 L7868 2946" stroke="#000000" stroke-width="13" />
						<g class="layer" id="layer-L13F1N1">
							<g class="beam" id="beam-L14F1-L17F1">
								<polygon points="4721,3172 5908,3199 5908,3109 4721,3082 " />
								<polygon points="4721,3037 5908,3064 5908,2974 4721,2947 " />
								<g class="note" id="note-L14F1">
									<use xlink:href="#E0A4" x="4721" y="2496" height="720px" width="720px" />
									<g class="stem">
										<rect x="4721" y="2518" height="636" width="18" />
									</g>
									<g class="accid" id="accid-0000001441650546" />
								</g>
								<g class="note" id="note-L15F1">
									<use xlink:href="#E0A4" x="5111" y="2226" height="720px" width="720px" />
									<g class="stem">
										<rect x="5111" y="2248" height="915" width="18" />
									</g>
									<g class="accid" id="accid-0000000206647926" />
								</g>
								<g class="note" id="note-L16F1">
									<use xlink:href="#E0A4" x="5501" y="2316" height="720px" width="720px" />
									<g class="stem">
										<rect x="5501" y="2338" height="834" width="18" />
									</g>
									<g class="accid" id="accid-0000000237109457" />
								</g>
								<g class="note" id="note-L17F1">
									<use xlink:href="#E0A4" x="5890" y="2496" height="720px" width="720px" />
									<g class="stem">
										<rect x="5890" y="2518" height="663" width="18" />
									</g>
									<g class="accid" id="accid-0000001120142902" />
								</g>
							</g>
							<g class="beam" id="beam-L18F1-L21F1">
								<polygon points="6280,3441 7466,3324 7466,3234 6280,3351 " />
								<polygon points="7068,3228 7466,3189 7466,3099 7068,3138 " />
								<g class="rest" id="rest-L18F1">
									<use xlink:href="#E4E6" x="6280" y="2586" height="720px" width="720px" />
								</g>
								<g class="note" id="note-L20F1">
									<use xlink:href="#E0A4" x="7059" y="2496" height="720px" width="720px" />
									<g class="stem">
										<rect x="7059" y="2518" height="827" width="18" />
									</g>
									<g class="accid" id="accid-0000001665191733" />
								</g>
								<g class="note" id="note-L21F1">
									<use xlink:href="#E0A4" x="7448" y="2226" height="720px" width="720px" />
									<g class="stem">
										<rect x="7448" y="2248" height="1058" width="18" />
									</g>
									<g class="accid" id="accid-0000000844188378" />
								</g>
							</g>
						</g>
					</g>
					<g class="mNum autogenerated" id="mnum-0000001318583352" />
					<g class="barLineAttr" id="bline-0000001723977431">
						<path d="M7855 2946 L7855 720" stroke="#000000" stroke-width="27" />
					</g>
				</g>
				<g class="measure" id="measure-L22">
					<g class="staff" id="staff-L22F2N1">
						<path d="M7868 720 L11738 720" stroke="#000000" stroke-width="13" />
						<path d="M7868 900 L11738 900" stroke="#000000" stroke-width="13" />
						<path d="M7868 1080 L11738 1080" stroke="#000000" stroke-width="13" />
						<path d="M7868 1260 L11738 1260" stroke="#000000" stroke-width="13" />
						<path d="M7868 1440 L11738 1440" stroke="#000000" stroke-width="13" />
						<g class="layer" id="layer-L22F2N1">
							<g class="beam" id="beam-L23F2-L24F2">
								<polygon points="8332,1845 8981,1781 8981,1691 8332,1755 " />
								<polygon points="8332,1710 8490,1695 8490,1605 8332,1620 " />
								<g class="note" id="note-L23F2">
									<use xlink:href="#E0A4" x="8332" y="1170" height="720px" width="720px" />
									<g class="stem">
										<rect x="8332" y="1192" height="635" width="18" />
									</g>
									<g class="accid" id="accid-0000001954670545">
										<use xlink:href="#E260" x="8136" y="1170" height="720px" width="720px" />
									</g>
								</g>
								<g class="note" id="note-L24F2">
									<use xlink:href="#E0A4" x="8963" y="900" height="720px" width="720px" />
									<g class="dots" id="dots-0000001992259128">
										<ellipse cx="9279" cy="810" rx="36" ry="36" />
									</g>
									<g class="stem">
										<rect x="8963" y="922" height="841" width="18" />
									</g>
									<g class="accid" id="accid-0000000081383825" />
								</g>
							</g>
							<g class="beam" id="beam-L26F2-L29F2">
								<polygon points="10116,226 11544,367 11544,457 10116,316 " />
								<polygon points="11145,463 11544,502 11544,592 11145,553 " />
								<g class="note" id="note-L26F2">
									<use xlink:href="#E0A4" x="9908" y="900" height="720px" width="720px" />
									<g class="stem">
										<rect x="10116" y="244" height="634" width="18" />
									</g>
									<g class="accid" id="accid-0000000666985228" />
								</g>
								<g class="note" id="note-L28F2">
									<use xlink:href="#E0A4" x="10928" y="1170" height="720px" width="720px" />
									<g class="stem">
										<rect x="11136" y="346" height="802" width="18" />
									</g>
									<g class="accid" id="accid-0000001321315405" />
								</g>
								<g class="note" id="note-L29F2">
									<use xlink:href="#E0A4" x="11318" y="1530" height="720px" width="720px" />
									<g class="stem">
										<rect x="11526" y="385" height="1123" width="18" />
									</g>
									<g class="accid" id="accid-0000001746316310" />
								</g>
							</g>
						</g>
					</g>
					<g class="staff" id="staff-L22F1N1">
						<path d="M7868 2226 L11738 2226" stroke="#000000" stroke-width="13" />
						<path d="M7868 2406 L11738 2406" stroke="#000000" stroke-width="13" />
						<path d="M7868 2586 L11738 2586" stroke="#000000" stroke-width="13" />
						<path d="M7868 2766 L11738 2766" stroke="#000000" stroke-width="13" />
						<path d="M7868 2946 L11738 2946" stroke="#000000" stroke-width="13" />
						<g class="layer" id="layer-L22F1N1">
							<g class="beam" id="beam-L23F1-L25F1">
								<polygon points="8332,3107 9371,3210 9371,3120 8332,3017 " />
								<polygon points="8332,2972 8972,3036 8972,2946 8332,2882 " />
								<g class="note" id="note-L23F1">
									<use xlink:href="#E0A4" x="8332" y="2316" height="720px" width="720px" />
									<g class="stem">
										<rect x="8332" y="2338" height="751" width="18" />
									</g>
									<g class="accid" id="accid-0000000271685248" />
								</g>
								<g class="note" id="note-L24F1">
									<use xlink:href="#E0A4" x="8963" y="2496" height="720px" width="720px" />
									<g class="stem">
										<rect x="8963" y="2518" height="635" width="18" />
									</g>
									<g class="accid" id="accid-0000001273559980">
										<use xlink:href="#E260" x="8767" y="2496" height="720px" width="720px" />
									</g>
								</g>
								<g class="rest" id="rest-L25F1">
									<use xlink:href="#E4E6" x="9353" y="2586" height="720px" width="720px" />
								</g>
							</g>
							<g class="beam" id="beam-L26F1-L29F1">
								<polygon points="9908,3183 11336,3171 11336,3081 9908,3093 " />
								<polygon points="9908,3048 11336,3036 11336,2946 9908,2958 " />
								<g class="note" id="note-L26F1">
									<use xlink:href="#E0A4" x="9908" y="2496" height="720px" width="720px" />
									<g class="stem">
										<rect x="9908" y="2518" height="647" width="18" />
									</g>
									<g class="accid" id="accid-0000001802652396" />
								</g>
								<g class="note" id="note-L27F1">
									<use xlink:href="#E0A4" x="10539" y="2226" height="720px" width="720px" />
									<g class="stem">
										<rect x="10539" y="2248" height="912" width="18" />
									</g>
									<g class="accid" id="accid-0000002063343128">
										<use xlink:href="#E260" x="10343" y="2226" height="720px" width="720px" />
									</g>
								</g>
								<g class="note" id="note-L28F1">
									<use xlink:href="#E0A4" x="10928" y="2316" height="720px" width="720px" />
									<g class="stem">
										<rect x="10928" y="2338" height="818" width="18" />
									</g>
									<g class="accid" id="accid-0000000510074495" />
								</g>
								<g class="note" id="note-L29F1">
									<use xlink:href="#E0A4" x="11318" y="2496" height="720px" width="720px" />
									<g class="stem">
										<rect x="11318" y="2518" height="635" width="18" />
									</g>
									<g class="accid" id="accid-0000001848000965" />
								</g>
							</g>
						</g>
					</g>
					<g class="tie" id="tie-L24F2-L26F2">
						<path d="M9391,855 C9514,713 9760,713 9886,855 C9760,757 9514,757 9391,855" stroke="#000000" stroke-linecap="round" stroke-linejoin="round" stroke-width="9" />
					</g>
					<g class="mNum autogenerated" id="mnum-0000001298115209" />
					<g class="barLineAttr" id="bline-0000000052483137">
						<path d="M11725 2946 L11725 720" stroke="#000000" stroke-width="27" />
					</g>
				</g>
				<g class="measure" id="measure-L30">
					<g class="staff" id="staff-L30F2N1">
						<path d="M11738 720 L15891 720" stroke="#000000" stroke-width="13" />
						<path d="M11738 900 L15891 900" stroke="#000000" stroke-width="13" />
						<path d="M11738 1080 L15891 1080" stroke="#000000" stroke-width="13" />
						<path d="M11738 1260 L15891 1260" stroke="#000000" stroke-width="13" />
						<path d="M11738 1440 L15891 1440" stroke="#000000" stroke-width="13" />
						<g class="layer" id="layer-L30F2N1">
							<g class="beam" id="beam-L31F2-L33F2">
								<polygon points="12410,675 13656,676 13656,766 12410,765 " />
								<polygon points="13016,811 13656,811 13656,901 13016,901 " />
								<g class="note" id="note-L31F2">
									<use xlink:href="#E0A4" x="12202" y="1440" height="720px" width="720px" />
									<g class="stem">
										<rect x="12410" y="693" height="725" width="18" />
									</g>
									<g class="accid" id="accid-0000000328050464">
										<use xlink:href="#E260" x="12006" y="1440" height="720px" width="720px" />
									</g>
								</g>
								<g class="note" id="note-L32F2">
									<use xlink:href="#E0A4" x="12799" y="1350" height="720px" width="720px" />
									<g class="stem">
										<rect x="13007" y="694" height="634" width="18" />
									</g>
									<g class="accid" id="accid-0000000931791832" />
								</g>
								<g class="note" id="note-L33F2">
									<use xlink:href="#E0A4" x="13430" y="1440" height="720px" width="720px" />
									<g class="stem">
										<rect x="13638" y="694" height="724" width="18" />
									</g>
									<g class="accid" id="accid-0000001269482276" />
								</g>
							</g>
							<g class="beam" id="beam-L34F2-L37F2">
								<polygon points="14061,1845 15489,1704 15489,1614 14061,1755 " />
								<polygon points="14061,1710 15489,1569 15489,1479 14061,1620 " />
								<g class="note" id="note-L34F2">
									<use xlink:href="#E0A4" x="14061" y="1170" height="720px" width="720px" />
									<g class="stem">
										<rect x="14061" y="1192" height="635" width="18" />
									</g>
									<g class="accid" id="accid-0000000381960240">
										<use xlink:href="#E260" x="13865" y="1170" height="720px" width="720px" />
									</g>
								</g>
								<g class="note" id="note-L35F2">
									<use xlink:href="#E0A4" x="14692" y="1080" height="720px" width="720px" />
									<g class="stem">
										<rect x="14692" y="1102" height="661" width="18" />
									</g>
									<g class="accid" id="accid-0000000275378125">
										<use xlink:href="#E260" x="14496" y="1080" height="720px" width="720px" />
									</g>
								</g>
								<g class="note" id="note-L36F2">
									<use xlink:href="#E0A4" x="15082" y="900" height="720px" width="720px" />
									<g class="stem">
										<rect x="15082" y="922" height="802" width="18" />
									</g>
									<g class="accid" id="accid-0000000999680162" />
								</g>
								<g class="note" id="note-L37F2">
									<use xlink:href="#E0A4" x="15471" y="990" height="720px" width="720px" />
									<g class="stem">
										<rect x="15471" y="1012" height="674" width="18" />
									</g>
									<g class="accid" id="accid-0000000773270439" />
								</g>
							</g>
						</g>
					</g>
					<g class="staff" id="staff-L30F1N1">
						<path d="M11738 2226 L15891 2226" stroke="#000000" stroke-width="13" />
						<path d="M11738 2406 L15891 2406" stroke="#000000" stroke-width="13" />
						<path d="M11738 2586 L15891 2586" stroke="#000000" stroke-width="13" />
						<path d="M11738 2766 L15891 2766" stroke="#000000" stroke-width="13" />
						<path d="M11738 2946 L15891 2946" stroke="#000000" stroke-width="13" />
						<g class="layer" id="layer-L30F1N1">
							<g class="beam" id="beam-L31F1-L33F1">
								<polygon points="12202,3441 13448,3318 13448,3228 12202,3351 " />
								<polygon points="12808,3246 13448,3183 13448,3093 12808,3156 " />
								<g class="rest" id="rest-L31F1">
									<use xlink:href="#E4E6" x="12202" y="2586" height="720px" width="720px" />
								</g>
								<g class="note" id="note-L32F1">
									<use xlink:href="#E0A4" x="12799" y="2496" height="720px" width="720px" />
									<g class="stem">
										<rect x="12799" y="2518" height="845" width="18" />
									</g>
									<g class="accid" id="accid-0000000289921506">
										<use xlink:href="#E260" x="12603" y="2496" height="720px" width="720px" />
									</g>
								</g>
								<g class="note" id="note-L33F1">
									<use xlink:href="#E0A4" x="13430" y="2226" height="720px" width="720px" />
									<g class="stem">
										<rect x="13430" y="2248" height="1052" width="18" />
									</g>
									<g class="accid" id="accid-0000001362311443">
										<use xlink:href="#E260" x="13234" y="2226" height="720px" width="720px" />
									</g>
								</g>
							</g>
							<g class="beam" id="beam-L34F1-L36F1">
								<polygon points="14061,3107 15100,3210 15100,3120 14061,3017 " />
								<polygon points="14061,2972 14701,3036 14701,2946 14061,2882 " />
								<g class="note" id="note-L34F1">
									<use xlink:href="#E0A4" x="14061" y="2316" height="720px" width="720px" />
									<g class="stem">
										<rect x="14061" y="2338" height="751" width="18" />
									</g>
									<g class="accid" id="accid-0000001756632267" />
								</g>
								<g class="note" id="note-L35F1">
									<use xlink:href="#E0A4" x="14692" y="2496" height="720px" width="720px" />
									<g class="stem">
										<rect x="14692" y="2518" height="635" width="18" />
									</g>
									<g class="accid" id="accid-0000002109034749" />
								</g>
								<g class="rest" id="rest-L36F1">
									<use xlink:href="#E4E6" x="15082" y="2586" height="720px" width="720px" />
								</g>
							</g>
						</g>
					</g>
					<g class="mNum autogenerated" id="mnum-0000000744884700" />
					<g class="barLineAttr" id="bline-0000001454477854">
						<path d="M15878 2946 L15878 720" stroke="#000000" stroke-width="27" />
					</g>
				</g>
				<g class="measure" id="measure-L38">
					<g class="staff" id="staff-L38F2N1">
						<path d="M15891 720 L20002 720" stroke="#000000" stroke-width="13" />
						<path d="M15891 900 L20002 900" stroke="#000000" stroke-width="13" />
						<path d="M15891 1080 L20002 1080" stroke="#000000" stroke-width="13" />
						<path d="M15891 1260 L20002 1260" stroke="#000000" stroke-width="13" />
						<path d="M15891 1440 L20002 1440" stroke="#000000" stroke-width="13" />
						<g class="layer" id="layer-L38F2N1">
							<g class="beam" id="beam-L39F2-L40F2">
								<polygon points="16355,1845 17004,1781 17004,1691 16355,1755 " />
								<polygon points="16355,1710 16513,1695 16513,1605 16355,1620 " />
								<g class="note" id="note-L39F2">
									<use xlink:href="#E0A4" x="16355" y="1170" height="720px" width="720px" />
									<g class="stem">
										<rect x="16355" y="1192" height="635" width="18" />
									</g>
									<g class="accid" id="accid-0000000101489701">
										<use xlink:href="#E260" x="16159" y="1170" height="720px" width="720px" />
									</g>
								</g>
								<g class="note" id="note-L40F2">
									<use xlink:href="#E0A4" x="16986" y="900" height="720px" width="720px" />
									<g class="dots" id="dots-0000001954884228">
										<ellipse cx="17302" cy="810" rx="36" ry="36" />
									</g>
									<g class="stem">
										<rect x="16986" y="922" height="841" width="18" />
									</g>
									<g class="accid" id="accid-0000001694045239">
										<use xlink:href="#E260" x="16790" y="900" height="720px" width="720px" />
									</g>
								</g>
							</g>
							<g class="beam" id="beam-L43F2-L45F2">
								<polygon points="18604,226 19808,345 19808,435 18604,316 " />
								<polygon points="19168,417 19808,480 19808,570 19168,507 " />
								<g class="note" id="note-L43F2">
									<use xlink:href="#E0A4" x="18396" y="900" height="720px" width="720px" />
									<g class="stem">
										<rect x="18604" y="244" height="634" width="18" />
									</g>
									<g class="accid" id="accid-0000001347668541" />
								</g>
								<g class="note" id="note-L44F2">
									<use xlink:href="#E0A4" x="18951" y="1170" height="720px" width="720px" />
									<g class="stem">
										<rect x="19159" y="300" height="848" width="18" />
									</g>
									<g class="accid" id="accid-0000000071442376" />
								</g>
								<g class="note" id="note-L45F2">
									<use xlink:href="#E0A4" x="19582" y="1530" height="720px" width="720px" />
									<g class="stem">
										<rect x="19790" y="363" height="1145" width="18" />
									</g>
									<g class="accid" id="accid-0000000254975940">
										<use xlink:href="#E260" x="19386" y="1530" height="720px" width="720px" />
									</g>
								</g>
							</g>
						</g>
					</g>
					<g class="staff" id="staff-L38F1N1">
						<path d="M15891 2226 L20002 2226" stroke="#000000" stroke-width="13" />
						<path d="M15891 2406 L20002 2406" stroke="#000000" stroke-width="13" />
						<path d="M15891 2586 L20002 2586" stroke="#000000" stroke-width="13" />
						<path d="M15891 2766 L20002 2766" stroke="#000000" stroke-width="13" />
						<path d="M15891 2946 L20002 2946" stroke="#000000" stroke-width="13" />
						<g class="layer" id="layer-L38F1N1">
							<g class="beam" id="beam-L39F1-L42F1">
								<polygon points="16355,3172 18025,3173 18025,3083 16355,3082 " />
								<polygon points="16355,3037 18025,3038 18025,2948 16355,2947 " />
								<g class="note" id="note-L39F1">
									<use xlink:href="#E0A4" x="16355" y="2496" height="720px" width="720px" />
									<g class="stem">
										<rect x="16355" y="2518" height="636" width="18" />
									</g>
									<g class="accid" id="accid-0000000344394131">
										<use xlink:href="#E260" x="16159" y="2496" height="720px" width="720px" />
									</g>
								</g>
								<g class="note" id="note-L40F1">
									<use xlink:href="#E0A4" x="16986" y="2226" height="720px" width="720px" />
									<g class="stem">
										<rect x="16986" y="2248" height="906" width="18" />
									</g>
									<g class="accid" id="accid-0000000518032845">
										<use xlink:href="#E260" x="16790" y="2226" height="720px" width="720px" />
									</g>
								</g>
								<g class="note" id="note-L41F1">
									<use xlink:href="#E0A4" x="17617" y="2316" height="720px" width="720px" />
									<g class="stem">
										<rect x="17617" y="2338" height="817" width="18" />
									</g>
									<g class="accid" id="accid-0000001324592987">
										<use xlink:href="#E260" x="17421" y="2316" height="720px" width="720px" />
									</g>
								</g>
								<g class="note" id="note-L42F1">
									<use xlink:href="#E0A4" x="18007" y="2496" height="720px" width="720px" />
									<g class="stem">
										<rect x="18007" y="2518" height="637" width="18" />
									</g>
									<g class="accid" id="accid-0000001503087706" />
								</g>
							</g>
							<g class="beam" id="beam-L43F1-L45F1">
								<polygon points="18396,3441 19600,3322 19600,3232 18396,3351 " />
								<polygon points="18960,3250 19600,3187 19600,3097 18960,3160 " />
								<g class="rest" id="rest-L43F1">
									<use xlink:href="#E4E6" x="18396" y="2586" height="720px" width="720px" />
								</g>
								<g class="note" id="note-L44F1">
									<use xlink:href="#E0A4" x="18951" y="2406" height="720px" width="720px" />
									<g class="stem">
										<rect x="18951" y="2428" height="939" width="18" />
									</g>
									<g class="accid" id="accid-0000001394607570" />
								</g>
								<g class="note" id="note-L45F1">
									<use xlink:href="#E0A4" x="19582" y="2226" height="720px" width="720px" />
									<g class="stem">
										<rect x="19582" y="2248" height="1056" width="18" />
									</g>
									<g class="accid" id="accid-0000000183643965" />
								</g>
							</g>
						</g>
					</g>
					<g class="tie" id="tie-L40F2-L43F2">
						<path d="M17414,855 C17654,713 18134,713 18374,855 C18134,757 17654,757 17414,855" stroke="#000000" stroke-linecap="round" stroke-linejoin="round" stroke-width="9" />
					</g>
					<g class="mNum autogenerated" id="mnum-0000001846161505" />
					<g class="barLineAttr" id="bline-0000000392230382">
						<path d="M19989 2946 L19989 720" stroke="#000000" stroke-width="27" />
					</g>
				</g>
			</g>
		</g>
	</svg>
</svg>
