<?xml version="1.0" encoding="UTF-8" standalone="no"?>
<svg width="2100.00px" height="450.00px" version="1.1" xmlns="http://www.w3.org/2000/svg" xmlns:xlink="http://www.w3.org/1999/xlink" overflow="visible">
	<desc>Engraved by Verovio 2.0.0-dev-0f0381c</desc>
	<defs>
		<symbol id="E050" viewBox="0 0 1000 1000" overflow="inherit">
			<path transform="scale(1,-1)" d="M441 -245c-23 -4 -48 -6 -76 -6c-59 0 -102 7 -130 20c-88 42 -150 93 -187 154c-26 44 -43 103 -48 176c-4 60 11 123 44 189c29 57 65 106 110 148s96 85 153 127c-3 16 -8 46 -13 92c-4 43 -5 73 -5 89c0 117 16 172 69 257c34 54 64 82 89 82c21 0 43 -30 69 -92 s39 -115 41 -159c2 -120 -19 -173 -67 -256c-13 -20 -63 -90 -98 -118c-13 -9 -25 -19 -37 -29l31 -181c8 1 18 2 28 2c58 0 102 -12 133 -35c59 -43 92 -104 98 -184c11 -135 -80 -229 -180 -270c8 -57 17 -110 25 -162c5 -31 6 -58 6 -80c0 -30 -5 -53 -14 -70 c-35 -64 -88 -99 -158 -103c-42 -3 -83 6 -124 26c-50 24 -77 59 -80 105c-2 34 5 63 20 87c18 28 45 42 79 44c51 4 99 -40 103 -87c4 -56 -30 -94 -105 -115c17 -24 51 -36 102 -36c62 0 116 43 140 85c9 16 13 41 13 74c0 20 -1 42 -5 67c-8 53 -18 106 -26 159zM461 939 c-95 0 -135 -175 -135 -286c0 -24 2 -48 5 -71c50 39 92 82 127 128c43 57 63 106 60 148c-4 54 -23 82 -57 81zM406 119l54 -326c80 27 116 88 109 184c-7 99 -62 146 -163 142zM382 117c-74 -2 -132 -50 -128 -127c2 -46 43 -99 75 -115c-3 -2 -7 -5 -10 -10 c-70 33 -116 88 -123 172c-5 73 42 135 88 170c23 17 49 29 78 36l-29 170c-21 -13 -52 -37 -92 -73c-50 -44 -86 -84 -109 -119c-49 -75 -71 -140 -67 -195c5 -68 35 -127 93 -176s125 -73 203 -73c25 0 50 3 75 9c-19 111 -36 221 -54 331z" />
		</symbol>
		<symbol id="E082" viewBox="0 0 1000 1000" overflow="inherit">
			<path transform="scale(1,-1)" d="M104 -185c-18 0 -55 -14 -65 -65h-36l-3 29c0 25 6 46 18 64c11 19 22 30 39 43l121 82l37 29c15 11 27 29 38 54c12 24 18 47 18 70c0 40 -19 88 -94 88c-25 0 -32 0 -50 -8c-14 -5 -23 -12 -26 -22c3 -9 7 -15 10 -18l24 -17c12 -7 17 -11 27 -21c5 -7 7 -16 7 -27 c0 -12 0 -57 -79 -74c-30 0 -76 26 -76 94c0 66 80 135 196 135c72 0 182 -32 182 -150c0 -53 -32 -95 -113 -133l-91 -41c-26 -11 -45 -23 -57 -37l49 7c84 0 115 -41 148 -41c20 0 33 20 39 61h35c0 -152 -68 -168 -114 -168c-17 0 -55 0 -69 7v0l-28 17 c-49 37 -69 40 -87 42z" />
		</symbol>
		<symbol id="E084" viewBox="0 0 1000 1000" overflow="inherit">
			<path transform="scale(1,-1)" d="M0 -78c84 97 114 180 134 329h170c-13 -32 -82 -132 -99 -151l-84 -97c-33 -36 -59 -63 -80 -81h162v102l127 123v-225h57v-39h-57v-34c0 -43 19 -65 57 -65v-34h-244v36c48 0 60 26 60 70v27h-203v39z" />
		</symbol>
		<symbol id="E4E6" viewBox="0 0 1000 1000" overflow="inherit">
			<path transform="scale(1,-1)" d="M0 123c7 34 33 56 69 60c29 -3 43 -9 53 -29c4 -8 7 -15 10 -22c0 -21 -1 -25 -11 -35c-5 -8 -18 -14 -40 -20l12 -3l15 -1c44 0 97 26 122 56c10 11 18 26 24 42c7 1 15 2 22 3l-140 -424h-36l111 330c-10 -6 -27 -12 -53 -16l-52 -8h-10l-20 1c-1 0 -8 3 -21 6 c-37 9 -55 28 -55 60z" />
		</symbol>
		<symbol id="E0A4" viewBox="0 0 1000 1000" overflow="inherit">
			<path transform="scale(1,-1)" d="M0 -39c0 68 73 172 200 172c66 0 114 -37 114 -95c0 -84 -106 -171 -218 -171c-64 0 -96 30 -96 94z" />
		</symbol>
		<symbol id="E062" viewBox="0 0 1000 1000" overflow="inherit">
			<path transform="scale(1,-1)" d="M158 96c51 0 73 -14 88 -49l16 -39c0 -17 -2 -30 -7 -40c-3 -11 -10 -21 -19 -31c-17 -18 -49 -43 -84 -43c-55 0 -77 13 -112 44c-24 21 -35 55 -35 100c0 46 14 81 32 112c30 52 71 79 137 93l36 6l26 2c154 0 235 -68 274 -182c11 -32 18 -68 18 -107 c0 -103 -26 -182 -68 -250c-89 -145 -234 -230 -412 -288l-30 -5c-9 0 -14 3 -14 8c3 10 5 11 10 16c35 15 70 30 96 44l78 43c96 57 162 136 197 258c9 33 17 60 22 100c3 22 5 35 6 39c-7 69 -16 115 -23 140s-4 22 -16 40c-8 12 -19 23 -31 34c-24 21 -62 44 -118 44 c-48 0 -84 -8 -113 -28c-28 -19 -42 -44 -42 -73v-16c2 -5 3 -9 4 -11c24 22 52 39 84 39zM585 -118c0 32 23 58 57 58c18 0 33 -6 40 -18c9 -15 16 -18 16 -40c0 -9 -2 -16 -5 -21c-6 -19 -27 -37 -51 -37c-34 0 -57 26 -57 58zM642 177c31 0 56 -27 56 -58 c0 -30 -25 -58 -56 -58l-23 3c-19 7 -34 32 -34 55l3 23c9 20 28 35 54 35z" />
		</symbol>
		<symbol id="E260" viewBox="0 0 1000 1000" overflow="inherit">
			<path transform="scale(1,-1)" d="M20 110c32 16 54 27 93 27c26 0 35 -3 54 -13c13 -7 24 -20 27 -38l4 -25c0 -28 -16 -57 -45 -89c-23 -25 -39 -44 -65 -68l-88 -79v644h20v-359zM90 106c-32 0 -48 -10 -70 -29v-194c31 31 54 59 71 84c21 32 32 59 32 84c0 9 1 16 1 20c0 14 -3 21 -11 30l-8 3z" />
		</symbol>
		<symbol id="E262" viewBox="0 0 1000 1000" overflow="inherit">
			<path transform="scale(1,-1)" d="M136 186v169h17v-164l44 14v-91l-44 -14v-165l44 12v-91l-44 -13v-155h-17v150l-76 -22v-155h-17v149l-43 -13v90l43 14v167l-43 -14v92l43 13v169h17v-163zM60 73v-167l76 22v168z" />
		</symbol>
	</defs>
	<style type="text/css">g.page-margin{font-family:Times;} g.tempo{font-weight:bold;} g.dir, g.dynam, g.mNum{font-style:italic;} g.label{font-weight:normal;}</style>
	<svg class="definition-scale" viewBox="0 0 21000 4500">
		<g class="page-margin" transform="translate(500, 500)">
			<g class="system" id="system-0000001864988694">
				<path d="M13 720 L13 2966" stroke="#000000" stroke-width="27" />
				<path d="M-32,2948 C-392,2408 58,2023 -212,1843 C121,2023 -329,2408 -32,2948" stroke="#000000" stroke-linecap="round" stroke-linejoin="round" stroke-width="18" />
				<path d="M-32,738 C-329,1278 121,1663 -212,1843 C58,1663 -392,1278 -32,738" stroke="#000000" stroke-linecap="round" stroke-linejoin="round" stroke-width="18" />
				<g class="section boundaryStart" id="section-L1F1" />
				<g class="measure" id="measure-L4">
					<g class="staff" id="staff-L4F2N1">
						<path d="M0 720 L3962 720" stroke="#000000" stroke-width="13" />
						<path d="M0 900 L3962 900" stroke="#000000" stroke-width="13" />
						<path d="M0 1080 L3962 1080" stroke="#000000" stroke-width="13" />
						<path d="M0 1260 L3962 1260" stroke="#000000" stroke-width="13" />
						<path d="M0 1440 L3962 1440" stroke="#000000" stroke-width="13" />
						<g class="clef" id="clef-0000000613063057">
							<use xlink:href="#E050" x="90" y="1260" height="720px" width="720px" />
						</g>
						<g class="meterSig" id="msig-0000000124260693">
							<use xlink:href="#E082" x="771" y="900" height="720px" width="720px" />
							<use xlink:href="#E084" x="777" y="1260" height="720px" width="720px" />
						</g>
						<g class="layer" id="layer-L4F2N1">
							<g class="beam" id="beam-L5F2-L8F2">
								<polygon points="1545,607 2527,704 2527,794 1545,697 " />
								<polygon points="2191,806 2527,839 2527,929 2191,896 " />
								<g class="rest" id="rest-L5F2">
									<use xlink:href="#E4E6" x="1337" y="1080" height="720px" width="720px" />
								</g>
								<g class="note" id="note-L7F2">
									<use xlink:href="#E0A4" x="1974" y="1440" height="720px" width="720px" />
									<g class="stem">
										<rect x="2182" y="689" height="729" width="18" />
									</g>
									<g class="accid" id="accid-0000000240823498" />
								</g>
								<g class="note" id="note-L8F2">
									<use xlink:href="#E0A4" x="2301" y="1530" height="720px" width="720px" />
									<g class="stem">
										<rect x="2509" y="722" height="786" width="18" />
									</g>
									<g class="accid" id="accid-0000000557959672" />
								</g>
							</g>
							<g class="beam" id="beam-L9F2-L12F2">
								<polygon points="2835,774 3834,676 3834,766 2835,864 " />
								<polygon points="3498,843 3834,811 3834,901 3498,933 " />
								<g class="note" id="note-L9F2">
									<use xlink:href="#E0A4" x="2627" y="1530" height="720px" width="720px" />
									<g class="stem">
										<rect x="2835" y="792" height="716" width="18" />
									</g>
									<g class="accid" id="accid-0000001574953897" />
								</g>
								<g class="note" id="note-L11F2">
									<use xlink:href="#E0A4" x="3281" y="1440" height="720px" width="720px" />
									<g class="stem">
										<rect x="3489" y="726" height="692" width="18" />
									</g>
									<g class="accid" id="accid-0000000083408409" />
								</g>
								<g class="note" id="note-L12F2">
									<use xlink:href="#E0A4" x="3608" y="1350" height="720px" width="720px" />
									<g class="stem">
										<rect x="3816" y="694" height="634" width="18" />
									</g>
									<g class="accid" id="accid-0000001358069862" />
								</g>
							</g>
						</g>
					</g>
					<g class="staff" id="staff-L4F1N1">
						<path d="M0 2246 L3962 2246" stroke="#000000" stroke-width="13" />
						<path d="M0 2426 L3962 2426" stroke="#000000" stroke-width="13" />
						<path d="M0 2606 L3962 2606" stroke="#000000" stroke-width="13" />
						<path d="M0 2786 L3962 2786" stroke="#000000" stroke-width="13" />
						<path d="M0 2966 L3962 2966" stroke="#000000" stroke-width="13" />
						<g class="clef" id="clef-0000001095362367">
							<use xlink:href="#E062" x="90" y="2426" height="720px" width="720px" />
						</g>
						<g class="meterSig" id="msig-0000001525480085">
							<use xlink:href="#E082" x="771" y="2426" height="720px" width="720px" />
							<use xlink:href="#E084" x="777" y="2786" height="720px" width="720px" />
						</g>
						<g class="layer" id="layer-L4F1N1">
							<g class="beam" id="beam-L5F1-L6F1">
								<polygon points="1337,3371 1681,3338 1681,3248 1337,3281 " />
								<polygon points="1337,3236 1495,3221 1495,3131 1337,3146 " />
								<g class="note" id="note-L5F1">
									<use xlink:href="#E0A4" x="1337" y="2696" height="720px" width="720px" />
									<g class="stem">
										<rect x="1337" y="2718" height="635" width="18" />
									</g>
									<g class="accid" id="accid-0000001268015844" />
								</g>
								<g class="note" id="note-L6F1">
									<use xlink:href="#E0A4" x="1663" y="2426" height="720px" width="720px" />
									<g class="dots" id="dots-0000000870550001">
										<ellipse cx="1979" cy="2336" rx="36" ry="36" />
									</g>
									<g class="stem">
										<rect x="1663" y="2448" height="872" width="18" />
									</g>
									<g class="accid" id="accid-0000000966904803" />
								</g>
							</g>
							<g class="beam" id="beam-L9F1-L12F1">
								<polygon points="2627,3305 3626,3404 3626,3314 2627,3215 " />
								<polygon points="2627,3170 3626,3269 3626,3179 2627,3080 " />
								<g class="note" id="note-L9F1">
									<use xlink:href="#E0A4" x="2627" y="2336" height="720px" width="720px" />
									<g class="stem">
										<rect x="2627" y="2358" height="929" width="18" />
									</g>
									<g class="accid" id="accid-0000000435381114" />
								</g>
								<g class="note" id="note-L10F1">
									<use xlink:href="#E0A4" x="2954" y="2246" height="720px" width="720px" />
									<g class="stem">
										<rect x="2954" y="2268" height="1052" width="18" />
									</g>
									<g class="accid" id="accid-0000001578116390" />
								</g>
								<g class="note" id="note-L11F1">
									<use xlink:href="#E0A4" x="3281" y="2696" height="720px" width="720px" />
									<g class="stem">
										<rect x="3281" y="2718" height="635" width="18" />
									</g>
									<g class="accid" id="accid-0000000801179577" />
								</g>
								<g class="note" id="note-L12F1">
									<use xlink:href="#E0A4" x="3608" y="2516" height="720px" width="720px" />
									<g class="stem">
										<rect x="3608" y="2538" height="848" width="18" />
									</g>
									<g class="accid" id="accid-0000000996555990" />
								</g>
							</g>
						</g>
					</g>
					<g class="tie" id="tie-L8F2-L9F2">
						<path d="M2414,1665 C2495,1763 2657,1763 2740,1665 C2657,1807 2495,1807 2414,1665" stroke="#000000" stroke-linecap="round" stroke-linejoin="round" stroke-width="9" />
					</g>
					<g class="tie" id="tie-L12F1-L14F1">
						<path d="M3856,2471 C3923,2329 4057,2329 4127,2471 C4057,2373 3923,2373 3856,2471" stroke="#000000" stroke-linecap="round" stroke-linejoin="round" stroke-width="9" />
					</g>
					<g class="mNum autogenerated" id="mnum-0000000950517079" />
					<g class="barLineAttr" id="bline-0000000104092395">
						<path d="M3949 2966 L3949 720" stroke="#000000" stroke-width="27" />
					</g>
				</g>
				<g class="measure" id="measure-L13">
					<g class="staff" id="staff-L13F2N1">
						<path d="M3962 720 L6774 720" stroke="#000000" stroke-width="13" />
						<path d="M3962 900 L6774 900" stroke="#000000" stroke-width="13" />
						<path d="M3962 1080 L6774 1080" stroke="#000000" stroke-width="13" />
						<path d="M3962 1260 L6774 1260" stroke="#000000" stroke-width="13" />
						<path d="M3962 1440 L6774 1440" stroke="#000000" stroke-width="13" />
						<g class="ledgerLines below">
							<path d="M6389 1620 L6668 1620" stroke="#000000" stroke-width="22" />
						</g>
						<g class="layer" id="layer-L13F2N1">
							<g class="beam" id="beam-L14F2-L17F2">
								<polygon points="4357,532 5355,477 5355,567 4357,622 " />
								<polygon points="4357,667 5355,612 5355,702 4357,757 " />
								<g class="note" id="note-L14F2">
									<use xlink:href="#E0A4" x="4149" y="1260" height="720px" width="720px" />
									<g class="stem">
										<rect x="4357" y="550" height="688" width="18" />
									</g>
									<g class="accid" id="accid-0000001229035670" />
								</g>
								<g class="note" id="note-L15F2">
									<use xlink:href="#E0A4" x="4475" y="1350" height="720px" width="720px" />
									<g class="stem">
										<rect x="4683" y="532" height="796" width="18" />
									</g>
									<g class="accid" id="accid-0000001247375279" />
								</g>
								<g class="note" id="note-L16F2">
									<use xlink:href="#E0A4" x="4802" y="1170" height="720px" width="720px" />
									<g class="stem">
										<rect x="5010" y="514" height="634" width="18" />
									</g>
									<g class="accid" id="accid-0000000395405176" />
								</g>
								<g class="note" id="note-L17F2">
									<use xlink:href="#E0A4" x="5129" y="1260" height="720px" width="720px" />
									<g class="stem">
										<rect x="5337" y="495" height="743" width="18" />
									</g>
									<g class="accid" id="accid-0000000582825690" />
								</g>
							</g>
							<g class="beam" id="beam-L18F2-L21F2">
								<polygon points="5664,316 6646,413 6646,503 5664,406 " />
								<polygon points="6310,515 6646,548 6646,638 6310,605 " />
								<g class="note" id="note-L18F2">
									<use xlink:href="#E0A4" x="5456" y="990" height="720px" width="720px" />
									<g class="stem">
										<rect x="5664" y="334" height="634" width="18" />
									</g>
									<g class="accid" id="accid-0000000592689499" />
								</g>
								<g class="note" id="note-L20F2">
									<use xlink:href="#E0A4" x="6093" y="1260" height="720px" width="720px" />
									<g class="stem">
										<rect x="6301" y="398" height="840" width="18" />
									</g>
									<g class="accid" id="accid-0000001619506196" />
								</g>
								<g class="note" id="note-L21F2">
									<use xlink:href="#E0A4" x="6420" y="1620" height="720px" width="720px" />
									<g class="stem">
										<rect x="6628" y="431" height="1167" width="18" />
									</g>
									<g class="accid" id="accid-0000001945605290" />
								</g>
							</g>
						</g>
					</g>
					<g class="staff" id="staff-L13F1N1">
						<path d="M3962 2246 L6774 2246" stroke="#000000" stroke-width="13" />
						<path d="M3962 2426 L6774 2426" stroke="#000000" stroke-width="13" />
						<path d="M3962 2606 L6774 2606" stroke="#000000" stroke-width="13" />
						<path d="M3962 2786 L6774 2786" stroke="#000000" stroke-width="13" />
						<path d="M3962 2966 L6774 2966" stroke="#000000" stroke-width="13" />
						<g class="layer" id="layer-L13F1N1">
							<g class="beam" id="beam-L14F1-L17F1">
								<polygon points="4149,3191 5147,3093 5147,3003 4149,3101 " />
								<polygon points="4811,2990 5147,2958 5147,2868 4811,2900 " />
								<g class="note" id="note-L14F1">
									<use xlink:href="#E0A4" x="4149" y="2516" height="720px" width="720px" />
									<g class="stem">
										<rect x="4149" y="2538" height="635" width="18" />
									</g>
									<g class="accid" id="accid-0000000961648215" />
								</g>
								<g class="note" id="note-L16F1">
									<use xlink:href="#E0A4" x="4802" y="2336" height="720px" width="720px" />
									<g class="stem">
										<rect x="4802" y="2358" height="749" width="18" />
									</g>
									<g class="accid" id="accid-0000000371351422" />
								</g>
								<g class="note" id="note-L17F1">
									<use xlink:href="#E0A4" x="5129" y="2246" height="720px" width="720px" />
									<g class="stem">
										<rect x="5129" y="2268" height="807" width="18" />
									</g>
									<g class="accid" id="accid-0000001446758710" />
								</g>
							</g>
							<g class="beam" id="beam-L18F1-L19F1">
								<polygon points="5664,1875 6009,1842 6009,1932 5664,1965 " />
								<polygon points="5664,2010 5822,1995 5822,2085 5664,2100 " />
								<g class="note" id="note-L18F1">
									<use xlink:href="#E0A4" x="5456" y="2786" height="720px" width="720px" />
									<g class="stem">
										<rect x="5664" y="1893" height="871" width="18" />
									</g>
									<g class="accid" id="accid-0000000446720923" />
								</g>
								<g class="note" id="note-L19F1">
									<use xlink:href="#E0A4" x="5783" y="2516" height="720px" width="720px" />
									<g class="dots" id="dots-0000002103659215">
										<ellipse cx="6099" cy="2516" rx="36" ry="36" />
									</g>
									<g class="stem">
										<rect x="5991" y="1860" height="634" width="18" />
									</g>
									<g class="accid" id="accid-0000000276367573" />
								</g>
							</g>
						</g>
					</g>
					<g class="mNum autogenerated" id="mnum-0000000352108313" />
					<g class="barLineAttr" id="bline-0000001073663676">
						<path d="M6761 2966 L6761 720" stroke="#000000" stroke-width="27" />
					</g>
				</g>
				<g class="measure" id="measure-L22">
					<g class="staff" id="staff-L22F2N1">
						<path d="M6774 720 L9617 720" stroke="#000000" stroke-width="13" />
						<path d="M6774 900 L9617 900" stroke="#000000" stroke-width="13" />
						<path d="M6774 1080 L9617 1080" stroke="#000000" stroke-width="13" />
						<path d="M6774 1260 L9617 1260" stroke="#000000" stroke-width="13" />
						<path d="M6774 1440 L9617 1440" stroke="#000000" stroke-width="13" />
						<g class="layer" id="layer-L22F2N1">
							<g class="beam" id="beam-L23F2-L26F2">
								<polygon points="7169,607 8370,726 8370,816 7169,697 " />
								<polygon points="8034,828 8370,861 8370,951 8034,918 " />
								<g class="rest" id="rest-L23F2">
									<use xlink:href="#E4E6" x="6961" y="1080" height="720px" width="720px" />
								</g>
								<g class="note" id="note-L25F2">
									<use xlink:href="#E0A4" x="7817" y="1440" height="720px" width="720px" />
									<g class="stem">
										<rect x="8025" y="711" height="707" width="18" />
									</g>
									<g class="accid" id="accid-0000000699794437">
										<use xlink:href="#E260" x="7621" y="1440" height="720px" width="720px" />
									</g>
								</g>
								<g class="note" id="note-L26F2">
									<use xlink:href="#E0A4" x="8144" y="1530" height="720px" width="720px" />
									<g class="stem">
										<rect x="8352" y="744" height="764" width="18" />
									</g>
									<g class="accid" id="accid-0000000854424249" />
								</g>
							</g>
							<g class="beam" id="beam-L27F2-L29F2">
								<polygon points="8679,755 9489,676 9489,766 8679,845 " />
								<polygon points="9153,843 9489,811 9489,901 9153,933 " />
								<g class="note" id="note-L27F2">
									<use xlink:href="#E0A4" x="8471" y="1530" height="720px" width="720px" />
									<g class="stem">
										<rect x="8679" y="773" height="735" width="18" />
									</g>
									<g class="accid" id="accid-0000002054914854" />
								</g>
								<g class="note" id="note-L28F2">
									<use xlink:href="#E0A4" x="8936" y="1440" height="720px" width="720px" />
									<g class="stem">
										<rect x="9144" y="726" height="692" width="18" />
									</g>
									<g class="accid" id="accid-0000001541243408" />
								</g>
								<g class="note" id="note-L29F2">
									<use xlink:href="#E0A4" x="9263" y="1350" height="720px" width="720px" />
									<g class="stem">
										<rect x="9471" y="694" height="634" width="18" />
									</g>
									<g class="accid" id="accid-0000001886683636" />
								</g>
							</g>
						</g>
					</g>
					<g class="staff" id="staff-L22F1N1">
						<path d="M6774 2246 L9617 2246" stroke="#000000" stroke-width="13" />
						<path d="M6774 2426 L9617 2426" stroke="#000000" stroke-width="13" />
						<path d="M6774 2606 L9617 2606" stroke="#000000" stroke-width="13" />
						<path d="M6774 2786 L9617 2786" stroke="#000000" stroke-width="13" />
						<path d="M6774 2966 L9617 2966" stroke="#000000" stroke-width="13" />
						<g class="layer" id="layer-L22F1N1">
							<g class="beam" id="beam-L23F1-L26F1">
								<polygon points="6961,3195 8162,3314 8162,3224 6961,3105 " />
								<polygon points="6961,3060 8162,3179 8162,3089 6961,2970 " />
								<g class="note" id="note-L23F1">
									<use xlink:href="#E0A4" x="6961" y="2336" height="720px" width="720px" />
									<g class="stem">
										<rect x="6961" y="2358" height="819" width="18" />
									</g>
									<g class="accid" id="accid-0000001336736964" />
								</g>
								<g class="note" id="note-L24F1">
									<use xlink:href="#E0A4" x="7490" y="2246" height="720px" width="720px" />
									<g class="stem">
										<rect x="7490" y="2268" height="962" width="18" />
									</g>
									<g class="accid" id="accid-0000001232164355">
										<use xlink:href="#E260" x="7294" y="2246" height="720px" width="720px" />
									</g>
								</g>
								<g class="note" id="note-L25F1">
									<use xlink:href="#E0A4" x="7817" y="2606" height="720px" width="720px" />
									<g class="stem">
										<rect x="7817" y="2628" height="635" width="18" />
									</g>
									<g class="accid" id="accid-0000001901706464" />
								</g>
								<g class="note" id="note-L26F1">
									<use xlink:href="#E0A4" x="8144" y="2426" height="720px" width="720px" />
									<g class="stem">
										<rect x="8144" y="2448" height="848" width="18" />
									</g>
									<g class="accid" id="accid-0000002087615669" />
								</g>
							</g>
							<g class="beam" id="beam-L27F1-L29F1">
								<polygon points="8471,3101 9281,3021 9281,2931 8471,3011 " />
								<polygon points="8945,2919 9281,2886 9281,2796 8945,2829 " />
								<g class="note" id="note-L27F1">
									<use xlink:href="#E0A4" x="8471" y="2426" height="720px" width="720px" />
									<g class="stem">
										<rect x="8471" y="2448" height="635" width="18" />
									</g>
									<g class="accid" id="accid-0000000416922867" />
								</g>
								<g class="note" id="note-L28F1">
									<use xlink:href="#E0A4" x="8936" y="2336" height="720px" width="720px" />
									<g class="stem">
										<rect x="8936" y="2358" height="678" width="18" />
									</g>
									<g class="accid" id="accid-0000001613807066" />
								</g>
								<g class="note" id="note-L29F1">
									<use xlink:href="#E0A4" x="9263" y="2246" height="720px" width="720px" />
									<g class="stem">
										<rect x="9263" y="2268" height="735" width="18" />
									</g>
									<g class="accid" id="accid-0000002043229117" />
								</g>
							</g>
						</g>
					</g>
					<g class="tie" id="tie-L26F2-L27F2">
						<path d="M8257,1665 C8338,1763 8500,1763 8584,1665 C8500,1807 8338,1807 8257,1665" stroke="#000000" stroke-linecap="round" stroke-linejoin="round" stroke-width="9" />
					</g>
					<g class="tie" id="tie-L26F1-L27F1">
						<path d="M8257,2291 C8338,2149 8500,2149 8584,2291 C8500,2193 8338,2193 8257,2291" stroke="#000000" stroke-linecap="round" stroke-linejoin="round" stroke-width="9" />
					</g>
					<g class="mNum autogenerated" id="mnum-0000001457801381" />
					<g class="barLineAttr" id="bline-0000000061606026">
						<path d="M9604 2966 L9604 720" stroke="#000000" stroke-width="27" />
					</g>
				</g>
				<g class="measure" id="measure-L30">
					<g class="staff" id="staff-L30F2N1">
						<path d="M9617 720 L13054 720" stroke="#000000" stroke-width="13" />
						<path d="M9617 900 L13054 900" stroke="#000000" stroke-width="13" />
						<path d="M9617 1080 L13054 1080" stroke="#000000" stroke-width="13" />
						<path d="M9617 1260 L13054 1260" stroke="#000000" stroke-width="13" />
						<path d="M9617 1440 L13054 1440" stroke="#000000" stroke-width="13" />
						<g class="ledgerLines below">
							<path d="M12669 1620 L12948 1620" stroke="#000000" stroke-width="22" />
						</g>
						<g class="layer" id="layer-L30F2N1">
							<g class="beam" id="beam-L31F2-L34F2">
								<polygon points="10012,541 11416,482 11416,572 10012,631 " />
								<polygon points="10012,676 11416,617 11416,707 10012,766 " />
								<g class="note" id="note-L31F2">
									<use xlink:href="#E0A4" x="9804" y="1260" height="720px" width="720px" />
									<g class="stem">
										<rect x="10012" y="559" height="679" width="18" />
									</g>
									<g class="accid" id="accid-0000000650544725" />
								</g>
								<g class="note" id="note-L32F2">
									<use xlink:href="#E0A4" x="10333" y="1350" height="720px" width="720px" />
									<g class="stem">
										<rect x="10541" y="536" height="792" width="18" />
									</g>
									<g class="accid" id="accid-0000000461074067" />
								</g>
								<g class="note" id="note-L33F2">
									<use xlink:href="#E0A4" x="10863" y="1170" height="720px" width="720px" />
									<g class="stem">
										<rect x="11071" y="514" height="634" width="18" />
									</g>
									<g class="accid" id="accid-0000002025837369">
										<use xlink:href="#E260" x="10667" y="1170" height="720px" width="720px" />
									</g>
								</g>
								<g class="note" id="note-L34F2">
									<use xlink:href="#E0A4" x="11190" y="1260" height="720px" width="720px" />
									<g class="stem">
										<rect x="11398" y="500" height="738" width="18" />
									</g>
									<g class="accid" id="accid-0000001408816479" />
								</g>
							</g>
							<g class="beam" id="beam-L35F2-L38F2">
								<polygon points="11724,316 12926,435 12926,525 11724,406 " />
								<polygon points="12590,537 12926,570 12926,660 12590,627 " />
								<g class="note" id="note-L35F2">
									<use xlink:href="#E0A4" x="11516" y="990" height="720px" width="720px" />
									<g class="stem">
										<rect x="11724" y="334" height="634" width="18" />
									</g>
									<g class="accid" id="accid-0000001134874804" />
								</g>
								<g class="note" id="note-L37F2">
									<use xlink:href="#E0A4" x="12373" y="1260" height="720px" width="720px" />
									<g class="stem">
										<rect x="12581" y="420" height="818" width="18" />
									</g>
									<g class="accid" id="accid-0000001154421309" />
								</g>
								<g class="note" id="note-L38F2">
									<use xlink:href="#E0A4" x="12700" y="1620" height="720px" width="720px" />
									<g class="stem">
										<rect x="12908" y="453" height="1145" width="18" />
									</g>
									<g class="accid" id="accid-0000001226639766" />
								</g>
							</g>
						</g>
					</g>
					<g class="staff" id="staff-L30F1N1">
						<path d="M9617 2246 L13054 2246" stroke="#000000" stroke-width="13" />
						<path d="M9617 2426 L13054 2426" stroke="#000000" stroke-width="13" />
						<path d="M9617 2606 L13054 2606" stroke="#000000" stroke-width="13" />
						<path d="M9617 2786 L13054 2786" stroke="#000000" stroke-width="13" />
						<path d="M9617 2966 L13054 2966" stroke="#000000" stroke-width="13" />
						<g class="layer" id="layer-L30F1N1">
							<g class="beam" id="beam-L31F1-L32F1">
								<polygon points="9804,3281 10351,3228 10351,3138 9804,3191 " />
								<polygon points="9804,3146 9962,3131 9962,3041 9804,3056 " />
								<g class="note" id="note-L31F1">
									<use xlink:href="#E0A4" x="9804" y="2606" height="720px" width="720px" />
									<g class="stem">
										<rect x="9804" y="2628" height="635" width="18" />
									</g>
									<g class="accid" id="accid-0000000927132467" />
								</g>
								<g class="note" id="note-L32F1">
									<use xlink:href="#E0A4" x="10333" y="2516" height="720px" width="720px" />
									<g class="dots" id="dots-0000002078123967">
										<ellipse cx="10649" cy="2516" rx="36" ry="36" />
									</g>
									<g class="stem">
										<rect x="10333" y="2538" height="672" width="18" />
									</g>
									<g class="accid" id="accid-0000000053466045">
										<use xlink:href="#E260" x="10137" y="2516" height="720px" width="720px" />
									</g>
								</g>
							</g>
							<g class="beam" id="beam-L35F1-L38F1">
								<polygon points="11516,3195 12718,3314 12718,3224 11516,3105 " />
								<polygon points="11516,3060 12718,3179 12718,3089 11516,2970 " />
								<g class="note" id="note-L35F1">
									<use xlink:href="#E0A4" x="11516" y="2336" height="720px" width="720px" />
									<g class="stem">
										<rect x="11516" y="2358" height="819" width="18" />
									</g>
									<g class="accid" id="accid-0000000340846769" />
								</g>
								<g class="note" id="note-L36F1">
									<use xlink:href="#E0A4" x="12046" y="2246" height="720px" width="720px" />
									<g class="stem">
										<rect x="12046" y="2268" height="962" width="18" />
									</g>
									<g class="accid" id="accid-0000000193283671">
										<use xlink:href="#E260" x="11850" y="2246" height="720px" width="720px" />
									</g>
								</g>
								<g class="note" id="note-L37F1">
									<use xlink:href="#E0A4" x="12373" y="2606" height="720px" width="720px" />
									<g class="stem">
										<rect x="12373" y="2628" height="635" width="18" />
									</g>
									<g class="accid" id="accid-0000001218764497" />
								</g>
								<g class="note" id="note-L38F1">
									<use xlink:href="#E0A4" x="12700" y="2516" height="720px" width="720px" />
									<g class="stem">
										<rect x="12700" y="2538" height="758" width="18" />
									</g>
									<g class="accid" id="accid-0000000435506611" />
								</g>
							</g>
						</g>
					</g>
					<g class="tie" id="tie-L38F1-L40F1">
						<path d="M12948,2471 C13015,2329 13149,2329 13219,2471 C13149,2373 13015,2373 12948,2471" stroke="#000000" stroke-linecap="round" stroke-linejoin="round" stroke-width="9" />
					</g>
					<g class="mNum autogenerated" id="mnum-0000000448379926" />
					<g class="barLineAttr" id="bline-0000000337737163">
						<path d="M13041 2966 L13041 720" stroke="#000000" stroke-width="27" />
					</g>
				</g>
				<g class="measure" id="measure-L39">
					<g class="staff" id="staff-L39F2N1">
						<path d="M13054 720 L16552 720" stroke="#000000" stroke-width="13" />
						<path d="M13054 900 L16552 900" stroke="#000000" stroke-width="13" />
						<path d="M13054 1080 L16552 1080" stroke="#000000" stroke-width="13" />
						<path d="M13054 1260 L16552 1260" stroke="#000000" stroke-width="13" />
						<path d="M13054 1440 L16552 1440" stroke="#000000" stroke-width="13" />
						<g class="ledgerLines below">
							<path d="M14269 1620 L14548 1620" stroke="#000000" stroke-width="22" />
							<path d="M14798 1620 L15077 1620" stroke="#000000" stroke-width="22" />
						</g>
						<g class="layer" id="layer-L39F2N1">
							<g class="beam" id="beam-L40F2-L42F2">
								<polygon points="13449,607 14526,713 14526,803 13449,697 " />
								<polygon points="13987,795 14526,848 14526,938 13987,885 " />
								<g class="rest" id="rest-L40F2">
									<use xlink:href="#E4E6" x="13241" y="1080" height="720px" width="720px" />
								</g>
								<g class="note" id="note-L41F2">
									<use xlink:href="#E0A4" x="13770" y="1530" height="720px" width="720px" />
									<g class="stem">
										<rect x="13978" y="678" height="830" width="18" />
									</g>
									<g class="accid" id="accid-0000000097584741">
										<use xlink:href="#E262" x="13575" y="1530" height="720px" width="720px" />
									</g>
								</g>
								<g class="note" id="note-L42F2">
									<use xlink:href="#E0A4" x="14300" y="1620" height="720px" width="720px" />
									<g class="stem">
										<rect x="14508" y="731" height="867" width="18" />
									</g>
									<g class="accid" id="accid-0000002120991749">
										<use xlink:href="#E262" x="14105" y="1620" height="720px" width="720px" />
									</g>
								</g>
							</g>
							<g class="beam" id="beam-L43F2-L46F2">
								<polygon points="15037,903 16424,766 16424,856 15037,993 " />
								<polygon points="15886,954 16424,901 16424,991 15886,1044 " />
								<g class="note" id="note-L43F2">
									<use xlink:href="#E0A4" x="14829" y="1620" height="720px" width="720px" />
									<g class="stem">
										<rect x="15037" y="921" height="677" width="18" />
									</g>
									<g class="accid" id="accid-0000001881522186" />
								</g>
								<g class="note" id="note-L45F2">
									<use xlink:href="#E0A4" x="15669" y="1530" height="720px" width="720px" />
									<g class="stem">
										<rect x="15877" y="837" height="671" width="18" />
									</g>
									<g class="accid" id="accid-0000001479047212" />
								</g>
								<g class="note" id="note-L46F2">
									<use xlink:href="#E0A4" x="16198" y="1440" height="720px" width="720px" />
									<g class="stem">
										<rect x="16406" y="784" height="634" width="18" />
									</g>
									<g class="accid" id="accid-0000001773384882">
										<use xlink:href="#E262" x="16003" y="1440" height="720px" width="720px" />
									</g>
								</g>
							</g>
						</g>
					</g>
					<g class="staff" id="staff-L39F1N1">
						<path d="M13054 2246 L16552 2246" stroke="#000000" stroke-width="13" />
						<path d="M13054 2426 L16552 2426" stroke="#000000" stroke-width="13" />
						<path d="M13054 2606 L16552 2606" stroke="#000000" stroke-width="13" />
						<path d="M13054 2786 L16552 2786" stroke="#000000" stroke-width="13" />
						<path d="M13054 2966 L16552 2966" stroke="#000000" stroke-width="13" />
						<g class="layer" id="layer-L39F1N1">
							<g class="beam" id="beam-L40F1-L42F1">
								<polygon points="13241,3191 14318,3085 14318,2995 13241,3101 " />
								<polygon points="13779,3003 14318,2950 14318,2860 13779,2913 " />
								<g class="note" id="note-L40F1">
									<use xlink:href="#E0A4" x="13241" y="2516" height="720px" width="720px" />
									<g class="stem">
										<rect x="13241" y="2538" height="635" width="18" />
									</g>
									<g class="accid" id="accid-0000000969901752" />
								</g>
								<g class="note" id="note-L41F1">
									<use xlink:href="#E0A4" x="13770" y="2336" height="720px" width="720px" />
									<g class="stem">
										<rect x="13770" y="2358" height="762" width="18" />
									</g>
									<g class="accid" id="accid-0000000374224291">
										<use xlink:href="#E260" x="13574" y="2336" height="720px" width="720px" />
									</g>
								</g>
								<g class="note" id="note-L42F1">
									<use xlink:href="#E0A4" x="14300" y="2246" height="720px" width="720px" />
									<g class="stem">
										<rect x="14300" y="2268" height="799" width="18" />
									</g>
									<g class="accid" id="accid-0000001090029614">
										<use xlink:href="#E260" x="14104" y="2246" height="720px" width="720px" />
									</g>
								</g>
							</g>
							<g class="beam" id="beam-L43F1-L44F1">
								<polygon points="14829,3318 15377,3371 15377,3281 14829,3228 " />
								<polygon points="14829,3183 14987,3198 14987,3108 14829,3093 " />
								<g class="note" id="note-L43F1">
									<use xlink:href="#E0A4" x="14829" y="2516" height="720px" width="720px" />
									<g class="stem">
										<rect x="14829" y="2538" height="762" width="18" />
									</g>
									<g class="accid" id="accid-L43F1">
										<use xlink:href="#E260" x="14633" y="2516" height="720px" width="720px" />
									</g>
								</g>
								<g class="note" id="note-L44F1">
									<use xlink:href="#E0A4" x="15359" y="2696" height="720px" width="720px" />
									<g class="dots" id="dots-0000000216970894">
										<ellipse cx="15675" cy="2696" rx="36" ry="36" />
									</g>
									<g class="stem">
										<rect x="15359" y="2718" height="635" width="18" />
									</g>
									<g class="accid" id="accid-0000000318328318">
										<use xlink:href="#E260" x="15163" y="2696" height="720px" width="720px" />
									</g>
								</g>
							</g>
						</g>
					</g>
					<g class="tie" id="tie-L42F2-L43F2">
						<path d="M14413,1755 C14545,1853 14809,1853 14942,1755 C14809,1897 14545,1897 14413,1755" stroke="#000000" stroke-linecap="round" stroke-linejoin="round" stroke-width="9" />
					</g>
					<g class="mNum autogenerated" id="mnum-0000001532952333" />
					<g class="barLineAttr" id="bline-0000000938376254">
						<path d="M16539 2966 L16539 720" stroke="#000000" stroke-width="27" />
					</g>
				</g>
				<g class="measure" id="measure-L47">
					<g class="staff" id="staff-L47F2N1">
						<path d="M16552 720 L20002 720" stroke="#000000" stroke-width="13" />
						<path d="M16552 900 L20002 900" stroke="#000000" stroke-width="13" />
						<path d="M16552 1080 L20002 1080" stroke="#000000" stroke-width="13" />
						<path d="M16552 1260 L20002 1260" stroke="#000000" stroke-width="13" />
						<path d="M16552 1440 L20002 1440" stroke="#000000" stroke-width="13" />
						<g class="ledgerLines below">
							<path d="M19617 1620 L19896 1620" stroke="#000000" stroke-width="22" />
						</g>
						<g class="layer" id="layer-L47F2N1">
							<g class="beam" id="beam-L48F2-L51F2">
								<polygon points="17148,622 18755,568 18755,658 17148,712 " />
								<polygon points="17148,757 18755,703 18755,793 17148,847 " />
								<g class="note" id="note-L48F2">
									<use xlink:href="#E0A4" x="16940" y="1350" height="720px" width="720px" />
									<g class="stem">
										<rect x="17148" y="640" height="688" width="18" />
									</g>
									<g class="accid" id="accid-0000000775786122">
										<use xlink:href="#E262" x="16745" y="1350" height="720px" width="720px" />
									</g>
								</g>
								<g class="note" id="note-L49F2">
									<use xlink:href="#E0A4" x="17470" y="1440" height="720px" width="720px" />
									<g class="stem">
										<rect x="17678" y="622" height="796" width="18" />
									</g>
									<g class="accid" id="accid-0000001202686448">
										<use xlink:href="#E262" x="17275" y="1440" height="720px" width="720px" />
									</g>
								</g>
								<g class="note" id="note-L50F2">
									<use xlink:href="#E0A4" x="17999" y="1260" height="720px" width="720px" />
									<g class="stem">
										<rect x="18207" y="604" height="634" width="18" />
									</g>
									<g class="accid" id="accid-0000000428811947">
										<use xlink:href="#E262" x="17804" y="1260" height="720px" width="720px" />
									</g>
								</g>
								<g class="note" id="note-L51F2">
									<use xlink:href="#E0A4" x="18529" y="1350" height="720px" width="720px" />
									<g class="stem">
										<rect x="18737" y="586" height="742" width="18" />
									</g>
									<g class="accid" id="accid-0000000081055978" />
								</g>
							</g>
							<g class="beam" id="beam-L52F2-L54F2">
								<polygon points="19064,406 19874,485 19874,575 19064,496 " />
								<polygon points="19538,588 19874,620 19874,710 19538,678 " />
								<g class="note" id="note-L52F2">
									<use xlink:href="#E0A4" x="18856" y="1080" height="720px" width="720px" />
									<g class="stem">
										<rect x="19064" y="424" height="634" width="18" />
									</g>
									<g class="accid" id="accid-0000000799988178" />
								</g>
								<g class="note" id="note-L53F2">
									<use xlink:href="#E0A4" x="19321" y="1350" height="720px" width="720px" />
									<g class="stem">
										<rect x="19529" y="471" height="857" width="18" />
									</g>
									<g class="accid" id="accid-0000001019628597" />
								</g>
								<g class="note" id="note-L54F2">
									<use xlink:href="#E0A4" x="19648" y="1710" height="720px" width="720px" />
									<g class="stem">
										<rect x="19856" y="503" height="1185" width="18" />
									</g>
									<g class="accid" id="accid-0000000809386223" />
								</g>
							</g>
						</g>
					</g>
					<g class="staff" id="staff-L47F1N1">
						<path d="M16552 2246 L20002 2246" stroke="#000000" stroke-width="13" />
						<path d="M16552 2426 L20002 2426" stroke="#000000" stroke-width="13" />
						<path d="M16552 2606 L20002 2606" stroke="#000000" stroke-width="13" />
						<path d="M16552 2786 L20002 2786" stroke="#000000" stroke-width="13" />
						<path d="M16552 2966 L20002 2966" stroke="#000000" stroke-width="13" />
						<g class="layer" id="layer-L47F1N1">
							<g class="beam" id="beam-L48F1-L51F1">
								<polygon points="16940,3302 18547,3461 18547,3371 16940,3212 " />
								<polygon points="16940,3167 18547,3326 18547,3236 16940,3077 " />
								<g class="note" id="note-L48F1">
									<use xlink:href="#E0A4" x="16940" y="2426" height="720px" width="720px" />
									<g class="stem">
										<rect x="16940" y="2448" height="836" width="18" />
									</g>
									<g class="accid" id="accid-0000000058368476" />
								</g>
								<g class="note" id="note-L49F1">
									<use xlink:href="#E0A4" x="17470" y="2246" height="720px" width="720px" />
									<g class="stem">
										<rect x="17470" y="2268" height="1069" width="18" />
									</g>
									<g class="accid" id="accid-0000000494624504">
										<use xlink:href="#E260" x="17274" y="2246" height="720px" width="720px" />
									</g>
								</g>
								<g class="note" id="note-L50F1">
									<use xlink:href="#E0A4" x="17999" y="2516" height="720px" width="720px" />
									<g class="stem">
										<rect x="17999" y="2538" height="852" width="18" />
									</g>
									<g class="accid" id="accid-0000000467229485">
										<use xlink:href="#E260" x="17803" y="2516" height="720px" width="720px" />
									</g>
								</g>
								<g class="note" id="note-L51F1">
									<use xlink:href="#E0A4" x="18529" y="2786" height="720px" width="720px" />
									<g class="stem">
										<rect x="18529" y="2808" height="635" width="18" />
									</g>
									<g class="accid" id="accid-0000000026136314">
										<use xlink:href="#E260" x="18333" y="2786" height="720px" width="720px" />
									</g>
								</g>
							</g>
							<g class="beam" id="beam-L52F1-L54F1">
								<polygon points="18856,3461 19666,3381 19666,3291 18856,3371 " />
								<polygon points="19330,3279 19666,3246 19666,3156 19330,3189 " />
								<g class="note" id="note-L52F1">
									<use xlink:href="#E0A4" x="18856" y="2786" height="720px" width="720px" />
									<g class="stem">
										<rect x="18856" y="2808" height="635" width="18" />
									</g>
									<g class="accid" id="accid-0000002063647083" />
								</g>
								<g class="note" id="note-L53F1">
									<use xlink:href="#E0A4" x="19321" y="2426" height="720px" width="720px" />
									<g class="stem">
										<rect x="19321" y="2448" height="948" width="18" />
									</g>
									<g class="accid" id="accid-0000001730693583" />
								</g>
								<g class="note" id="note-L54F1">
									<use xlink:href="#E0A4" x="19648" y="2246" height="720px" width="720px" />
									<g class="stem">
										<rect x="19648" y="2268" height="1095" width="18" />
									</g>
									<g class="accid" id="accid-0000001849823732" />
								</g>
							</g>
						</g>
					</g>
					<g class="tie" id="tie-L51F1-L52F1">
						<path d="M18642,2651 C18723,2509 18885,2509 18969,2651 C18885,2553 18723,2553 18642,2651" stroke="#000000" stroke-linecap="round" stroke-linejoin="round" stroke-width="9" />
					</g>
					<g class="mNum autogenerated" id="mnum-0000000454679044" />
					<g class="barLineAttr" id="bline-0000000883459063">
						<path d="M19989 2966 L19989 720" stroke="#000000" stroke-width="27" />
					</g>
				</g>
			</g>
		</g>
	</svg>
</svg>
