<?xml version="1.0" encoding="UTF-8" standalone="no"?>
<svg width="2100.00px" height="450.00px" version="1.1" xmlns="http://www.w3.org/2000/svg" xmlns:xlink="http://www.w3.org/1999/xlink" overflow="visible">
	<desc>Engraved by Verovio 2.0.0-dev-0f0381c</desc>
	<defs>
		<symbol id="E050" viewBox="0 0 1000 1000" overflow="inherit">
			<path transform="scale(1,-1)" d="M441 -245c-23 -4 -48 -6 -76 -6c-59 0 -102 7 -130 20c-88 42 -150 93 -187 154c-26 44 -43 103 -48 176c-4 60 11 123 44 189c29 57 65 106 110 148s96 85 153 127c-3 16 -8 46 -13 92c-4 43 -5 73 -5 89c0 117 16 172 69 257c34 54 64 82 89 82c21 0 43 -30 69 -92 s39 -115 41 -159c2 -120 -19 -173 -67 -256c-13 -20 -63 -90 -98 -118c-13 -9 -25 -19 -37 -29l31 -181c8 1 18 2 28 2c58 0 102 -12 133 -35c59 -43 92 -104 98 -184c11 -135 -80 -229 -180 -270c8 -57 17 -110 25 -162c5 -31 6 -58 6 -80c0 -30 -5 -53 -14 -70 c-35 -64 -88 -99 -158 -103c-42 -3 -83 6 -124 26c-50 24 -77 59 -80 105c-2 34 5 63 20 87c18 28 45 42 79 44c51 4 99 -40 103 -87c4 -56 -30 -94 -105 -115c17 -24 51 -36 102 -36c62 0 116 43 140 85c9 16 13 41 13 74c0 20 -1 42 -5 67c-8 53 -18 106 -26 159zM461 939 c-95 0 -135 -175 -135 -286c0 -24 2 -48 5 -71c50 39 92 82 127 128c43 57 63 106 60 148c-4 54 -23 82 -57 81zM406 119l54 -326c80 27 116 88 109 184c-7 99 -62 146 -163 142zM382 117c-74 -2 -132 -50 -128 -127c2 -46 43 -99 75 -115c-3 -2 -7 -5 -10 -10 c-70 33 -116 88 -123 172c-5 73 42 135 88 170c23 17 49 29 78 36l-29 170c-21 -13 -52 -37 -92 -73c-50 -44 -86 -84 -109 -119c-49 -75 -71 -140 -67 -195c5 -68 35 -127 93 -176s125 -73 203 -73c25 0 50 3 75 9c-19 111 -36 221 -54 331z" />
		</symbol>
		<symbol id="E082" viewBox="0 0 1000 1000" overflow="inherit">
			<path transform="scale(1,-1)" d="M104 -185c-18 0 -55 -14 -65 -65h-36l-3 29c0 25 6 46 18 64c11 19 22 30 39 43l121 82l37 29c15 11 27 29 38 54c12 24 18 47 18 70c0 40 -19 88 -94 88c-25 0 -32 0 -50 -8c-14 -5 -23 -12 -26 -22c3 -9 7 -15 10 -18l24 -17c12 -7 17 -11 27 -21c5 -7 7 -16 7 -27 c0 -12 0 -57 -79 -74c-30 0 -76 26 -76 94c0 66 80 135 196 135c72 0 182 -32 182 -150c0 -53 -32 -95 -113 -133l-91 -41c-26 -11 -45 -23 -57 -37l49 7c84 0 115 -41 148 -41c20 0 33 20 39 61h35c0 -152 -68 -168 -114 -168c-17 0 -55 0 -69 7v0l-28 17 c-49 37 -69 40 -87 42z" />
		</symbol>
		<symbol id="E084" viewBox="0 0 1000 1000" overflow="inherit">
			<path transform="scale(1,-1)" d="M0 -78c84 97 114 180 134 329h170c-13 -32 -82 -132 -99 -151l-84 -97c-33 -36 -59 -63 -80 -81h162v102l127 123v-225h57v-39h-57v-34c0 -43 19 -65 57 -65v-34h-244v36c48 0 60 26 60 70v27h-203v39z" />
		</symbol>
		<symbol id="E4E7" viewBox="0 0 1000 1000" overflow="inherit">
			<path transform="scale(1,-1)" d="M133 -111c-16 38 -21 43 -64 51c-37 -4 -60 -25 -68 -60c0 -32 18 -52 55 -58c8 -6 22 -10 43 -10c31 0 62 7 82 20l-108 -324h37c72 220 143 439 215 659h-4l-10 -2l-7 -1c-15 -35 -27 -52 -59 -71c-26 -15 -56 -27 -88 -29c-11 0 -20 2 -26 6c29 3 56 25 51 56 c-15 35 -19 42 -64 48c-38 -4 -60 -23 -68 -58c0 -32 18 -52 55 -59c7 -5 22 -8 45 -8c48 0 76 7 112 25l-66 -197c-21 -23 -50 -47 -90 -47c-7 0 -15 1 -25 4c31 5 52 22 52 55z" />
		</symbol>
		<symbol id="E0A4" viewBox="0 0 1000 1000" overflow="inherit">
			<path transform="scale(1,-1)" d="M0 -39c0 68 73 172 200 172c66 0 114 -37 114 -95c0 -84 -106 -171 -218 -171c-64 0 -96 30 -96 94z" />
		</symbol>
		<symbol id="E062" viewBox="0 0 1000 1000" overflow="inherit">
			<path transform="scale(1,-1)" d="M158 96c51 0 73 -14 88 -49l16 -39c0 -17 -2 -30 -7 -40c-3 -11 -10 -21 -19 -31c-17 -18 -49 -43 -84 -43c-55 0 -77 13 -112 44c-24 21 -35 55 -35 100c0 46 14 81 32 112c30 52 71 79 137 93l36 6l26 2c154 0 235 -68 274 -182c11 -32 18 -68 18 -107 c0 -103 -26 -182 -68 -250c-89 -145 -234 -230 -412 -288l-30 -5c-9 0 -14 3 -14 8c3 10 5 11 10 16c35 15 70 30 96 44l78 43c96 57 162 136 197 258c9 33 17 60 22 100c3 22 5 35 6 39c-7 69 -16 115 -23 140s-4 22 -16 40c-8 12 -19 23 -31 34c-24 21 -62 44 -118 44 c-48 0 -84 -8 -113 -28c-28 -19 -42 -44 -42 -73v-16c2 -5 3 -9 4 -11c24 22 52 39 84 39zM585 -118c0 32 23 58 57 58c18 0 33 -6 40 -18c9 -15 16 -18 16 -40c0 -9 -2 -16 -5 -21c-6 -19 -27 -37 -51 -37c-34 0 -57 26 -57 58zM642 177c31 0 56 -27 56 -58 c0 -30 -25 -58 -56 -58l-23 3c-19 7 -34 32 -34 55l3 23c9 20 28 35 54 35z" />
		</symbol>
		<symbol id="E260" viewBox="0 0 1000 1000" overflow="inherit">
			<path transform="scale(1,-1)" d="M20 110c32 16 54 27 93 27c26 0 35 -3 54 -13c13 -7 24 -20 27 -38l4 -25c0 -28 -16 -57 -45 -89c-23 -25 -39 -44 -65 -68l-88 -79v644h20v-359zM90 106c-32 0 -48 -10 -70 -29v-194c31 31 54 59 71 84c21 32 32 59 32 84c0 9 1 16 1 20c0 14 -3 21 -11 30l-8 3z" />
		</symbol>
		<symbol id="E262" viewBox="0 0 1000 1000" overflow="inherit">
			<path transform="scale(1,-1)" d="M136 186v169h17v-164l44 14v-91l-44 -14v-165l44 12v-91l-44 -13v-155h-17v150l-76 -22v-155h-17v149l-43 -13v90l43 14v167l-43 -14v92l43 13v169h17v-163zM60 73v-167l76 22v168z" />
		</symbol>
	</defs>
	<style type="text/css">g.page-margin{font-family:Times;} g.tempo{font-weight:bold;} g.dir, g.dynam, g.mNum{font-style:italic;} g.label{font-weight:normal;}</style>
	<svg class="definition-scale" viewBox="0 0 21000 4500">
		<g class="page-margin" transform="translate(500, 500)">
			<g class="system" id="system-0000001281891401">
				<path d="M13 720 L13 2880" stroke="#000000" stroke-width="27" />
				<path d="M-32,2862 C-392,2322 58,1980 -212,1800 C121,1980 -329,2322 -32,2862" stroke="#000000" stroke-linecap="round" stroke-linejoin="round" stroke-width="18" />
				<path d="M-32,738 C-329,1278 121,1620 -212,1800 C58,1620 -392,1278 -32,738" stroke="#000000" stroke-linecap="round" stroke-linejoin="round" stroke-width="18" />
				<g class="section boundaryStart" id="section-L1F1" />
				<g class="measure" id="measure-L4">
					<g class="staff" id="staff-L4F2N1">
						<path d="M0 720 L4341 720" stroke="#000000" stroke-width="13" />
						<path d="M0 900 L4341 900" stroke="#000000" stroke-width="13" />
						<path d="M0 1080 L4341 1080" stroke="#000000" stroke-width="13" />
						<path d="M0 1260 L4341 1260" stroke="#000000" stroke-width="13" />
						<path d="M0 1440 L4341 1440" stroke="#000000" stroke-width="13" />
						<g class="clef" id="clef-0000000417839790">
							<use xlink:href="#E050" x="90" y="1260" height="720px" width="720px" />
						</g>
						<g class="meterSig" id="msig-0000000361824840">
							<use xlink:href="#E082" x="771" y="900" height="720px" width="720px" />
							<use xlink:href="#E084" x="777" y="1260" height="720px" width="720px" />
						</g>
						<g class="ledgerLines below">
							<path d="M3913 1620 L4192 1620" stroke="#000000" stroke-width="22" />
						</g>
						<g class="layer" id="layer-L4F2N1">
							<g class="beam" id="beam-L5F2-L7F2">
								<polygon points="1568,317 2330,315 2330,405 1568,407 " />
								<polygon points="1568,452 1953,451 1953,541 1568,542 " />
								<g class="rest" id="rest-L5F2">
									<use xlink:href="#E4E7" x="1360" y="1080" height="720px" width="720px" />
								</g>
								<g class="note" id="note-L6F2">
									<use xlink:href="#E0A4" x="1736" y="990" height="720px" width="720px" />
									<g class="stem">
										<rect x="1944" y="334" height="634" width="18" />
									</g>
									<g class="accid" id="accid-0000002086168938" />
								</g>
								<g class="note" id="note-L7F2">
									<use xlink:href="#E0A4" x="2104" y="1260" height="720px" width="720px" />
									<g class="stem">
										<rect x="2312" y="333" height="905" width="18" />
									</g>
									<g class="accid" id="accid-0000001712614153" />
								</g>
							</g>
							<g class="beam" id="beam-L9F2-L12F2">
								<polygon points="3048,586 4170,697 4170,787 3048,676 " />
								<polygon points="3048,721 4170,832 4170,922 3048,811 " />
								<g class="note" id="note-L9F2">
									<use xlink:href="#E0A4" x="2840" y="1260" height="720px" width="720px" />
									<g class="stem">
										<rect x="3048" y="604" height="634" width="18" />
									</g>
									<g class="accid" id="accid-0000001875481073" />
								</g>
								<g class="note" id="note-L10F2">
									<use xlink:href="#E0A4" x="3208" y="1350" height="720px" width="720px" />
									<g class="stem">
										<rect x="3416" y="641" height="687" width="18" />
									</g>
									<g class="accid" id="accid-0000000100485273" />
								</g>
								<g class="note" id="note-L11F2">
									<use xlink:href="#E0A4" x="3576" y="1440" height="720px" width="720px" />
									<g class="stem">
										<rect x="3784" y="678" height="740" width="18" />
									</g>
									<g class="accid" id="accid-0000001184084307" />
								</g>
								<g class="note" id="note-L12F2">
									<use xlink:href="#E0A4" x="3944" y="1620" height="720px" width="720px" />
									<g class="stem">
										<rect x="4152" y="715" height="883" width="18" />
									</g>
									<g class="accid" id="accid-0000001541493433" />
								</g>
							</g>
						</g>
					</g>
					<g class="staff" id="staff-L4F1N1">
						<path d="M0 2160 L4341 2160" stroke="#000000" stroke-width="13" />
						<path d="M0 2340 L4341 2340" stroke="#000000" stroke-width="13" />
						<path d="M0 2520 L4341 2520" stroke="#000000" stroke-width="13" />
						<path d="M0 2700 L4341 2700" stroke="#000000" stroke-width="13" />
						<path d="M0 2880 L4341 2880" stroke="#000000" stroke-width="13" />
						<g class="clef" id="clef-0000001663881223">
							<use xlink:href="#E062" x="90" y="2340" height="720px" width="720px" />
						</g>
						<g class="meterSig" id="msig-0000000319663727">
							<use xlink:href="#E082" x="771" y="2340" height="720px" width="720px" />
							<use xlink:href="#E084" x="777" y="2700" height="720px" width="720px" />
						</g>
						<g class="ledgerLines above">
							<path d="M2073 1980 L2352 1980" stroke="#000000" stroke-width="22" />
							<path d="M2809 1980 L3088 1980" stroke="#000000" stroke-width="22" />
						</g>
						<g class="layer" id="layer-L4F1N1">
							<g class="beam" id="beam-L5F1-L8F1">
								<polygon points="1360,3285 2490,3173 2490,3083 1360,3195 " />
								<polygon points="1360,3150 2490,3038 2490,2948 1360,3060 " />
								<g class="note" id="note-L5F1">
									<use xlink:href="#E0A4" x="1360" y="2610" height="720px" width="720px" />
									<g class="stem">
										<rect x="1360" y="2632" height="635" width="18" />
									</g>
									<g class="accid" id="accid-0000001693099231" />
								</g>
								<g class="note" id="note-L6F1">
									<use xlink:href="#E0A4" x="1736" y="2250" height="720px" width="720px" />
									<g class="stem">
										<rect x="1736" y="2272" height="957" width="18" />
									</g>
									<g class="accid" id="accid-0000002045769550" />
								</g>
								<g class="note" id="note-L7F1">
									<use xlink:href="#E0A4" x="2104" y="1980" height="720px" width="720px" />
									<g class="stem">
										<rect x="2104" y="2002" height="1190" width="18" />
									</g>
									<g class="accid" id="accid-0000001412272303" />
								</g>
								<g class="note" id="note-L8F1">
									<use xlink:href="#E0A4" x="2472" y="2160" height="720px" width="720px" />
									<g class="stem">
										<rect x="2472" y="2182" height="973" width="18" />
									</g>
									<g class="accid" id="accid-0000002131324869" />
								</g>
							</g>
							<g class="beam" id="beam-L9F1-L12F1">
								<polygon points="2840,2904 3962,3015 3962,2925 2840,2814 " />
								<polygon points="3585,2843 3962,2880 3962,2790 3585,2753 " />
								<g class="note" id="note-L9F1">
									<use xlink:href="#E0A4" x="2840" y="1980" height="720px" width="720px" />
									<g class="stem">
										<rect x="2840" y="2002" height="884" width="18" />
									</g>
									<g class="accid" id="accid-0000000736655579" />
								</g>
								<g class="note" id="note-L11F1">
									<use xlink:href="#E0A4" x="3576" y="2250" height="720px" width="720px" />
									<g class="stem">
										<rect x="3576" y="2272" height="688" width="18" />
									</g>
									<g class="accid" id="accid-0000001041494056" />
								</g>
								<g class="note" id="note-L12F1">
									<use xlink:href="#E0A4" x="3944" y="2340" height="720px" width="720px" />
									<g class="stem">
										<rect x="3944" y="2362" height="635" width="18" />
									</g>
									<g class="accid" id="accid-0000001053329816" />
								</g>
							</g>
						</g>
					</g>
					<g class="tie" id="tie-L7F2-L9F2">
						<path d="M2352,1305 C2468,1403 2700,1403 2818,1305 C2700,1447 2468,1447 2352,1305" stroke="#000000" stroke-linecap="round" stroke-linejoin="round" stroke-width="9" />
					</g>
					<g class="mNum autogenerated" id="mnum-0000000395343399" />
					<g class="barLineAttr" id="bline-0000001905848455">
						<path d="M4328 2880 L4328 720" stroke="#000000" stroke-width="27" />
					</g>
				</g>
				<g class="measure" id="measure-L13">
					<g class="staff" id="staff-L13F2N1">
						<path d="M4341 720 L8647 720" stroke="#000000" stroke-width="13" />
						<path d="M4341 900 L8647 900" stroke="#000000" stroke-width="13" />
						<path d="M4341 1080 L8647 1080" stroke="#000000" stroke-width="13" />
						<path d="M4341 1260 L8647 1260" stroke="#000000" stroke-width="13" />
						<path d="M4341 1440 L8647 1440" stroke="#000000" stroke-width="13" />
						<g class="layer" id="layer-L13F2N1">
							<g class="beam" id="beam-L14F2-L17F2">
								<polygon points="4987,586 6319,676 6319,766 4987,676 " />
								<polygon points="6161,801 6319,811 6319,901 6161,891 " />
								<g class="note" id="note-L14F2">
									<use xlink:href="#E0A4" x="4779" y="1260" height="720px" width="720px" />
									<g class="dots" id="dots-0000000709805728">
										<ellipse cx="5095" cy="1170" rx="36" ry="36" />
									</g>
									<g class="stem">
										<rect x="4987" y="604" height="634" width="18" />
									</g>
									<g class="accid" id="accid-0000000439179494" />
								</g>
								<g class="note" id="note-L17F2">
									<use xlink:href="#E0A4" x="6093" y="1350" height="720px" width="720px" />
									<g class="stem">
										<rect x="6301" y="694" height="634" width="18" />
									</g>
									<g class="accid" id="accid-0000000512378753" />
								</g>
							</g>
							<g class="beam" id="beam-L18F2-L21F2">
								<polygon points="6897,459 8476,389 8476,479 6897,549 " />
								<polygon points="6897,594 8476,524 8476,614 6897,684 " />
								<g class="note" id="note-L18F2">
									<use xlink:href="#E0A4" x="6689" y="1440" height="720px" width="720px" />
									<g class="stem">
										<rect x="6897" y="477" height="941" width="18" />
									</g>
									<g class="accid" id="accid-0000001602998505">
										<use xlink:href="#E260" x="6493" y="1440" height="720px" width="720px" />
									</g>
								</g>
								<g class="note" id="note-L19F2">
									<use xlink:href="#E0A4" x="7285" y="1170" height="720px" width="720px" />
									<g class="stem">
										<rect x="7493" y="450" height="698" width="18" />
									</g>
									<g class="accid" id="accid-0000001598806326">
										<use xlink:href="#E260" x="7089" y="1170" height="720px" width="720px" />
									</g>
								</g>
								<g class="note" id="note-L20F2">
									<use xlink:href="#E0A4" x="7882" y="1080" height="720px" width="720px" />
									<g class="stem">
										<rect x="8090" y="424" height="634" width="18" />
									</g>
									<g class="accid" id="accid-0000001699393965">
										<use xlink:href="#E260" x="7686" y="1080" height="720px" width="720px" />
									</g>
								</g>
								<g class="note" id="note-L21F2">
									<use xlink:href="#E0A4" x="8250" y="1440" height="720px" width="720px" />
									<g class="stem">
										<rect x="8458" y="407" height="1011" width="18" />
									</g>
									<g class="accid" id="accid-0000000730026904" />
								</g>
							</g>
						</g>
					</g>
					<g class="staff" id="staff-L13F1N1">
						<path d="M4341 2160 L8647 2160" stroke="#000000" stroke-width="13" />
						<path d="M4341 2340 L8647 2340" stroke="#000000" stroke-width="13" />
						<path d="M4341 2520 L8647 2520" stroke="#000000" stroke-width="13" />
						<path d="M4341 2700 L8647 2700" stroke="#000000" stroke-width="13" />
						<path d="M4341 2880 L8647 2880" stroke="#000000" stroke-width="13" />
						<g class="layer" id="layer-L13F1N1">
							<g class="beam" id="beam-L14F1-L16F1">
								<polygon points="4779,3105 5762,3008 5762,2918 4779,3015 " />
								<polygon points="4779,2970 5156,2933 5156,2843 4779,2880 " />
								<g class="note" id="note-L14F1">
									<use xlink:href="#E0A4" x="4779" y="2430" height="720px" width="720px" />
									<g class="stem">
										<rect x="4779" y="2452" height="635" width="18" />
									</g>
									<g class="accid" id="accid-0000001891157568">
										<use xlink:href="#E260" x="4583" y="2430" height="720px" width="720px" />
									</g>
								</g>
								<g class="note" id="note-L15F1">
									<use xlink:href="#E0A4" x="5147" y="2340" height="720px" width="720px" />
									<g class="stem">
										<rect x="5147" y="2362" height="688" width="18" />
									</g>
									<g class="accid" id="accid-0000001127277531" />
								</g>
								<g class="note" id="note-L16F1">
									<use xlink:href="#E0A4" x="5744" y="2070" height="720px" width="720px" />
									<g class="stem">
										<rect x="5744" y="2092" height="898" width="18" />
									</g>
									<g class="accid" id="accid-0000000110014548">
										<use xlink:href="#E260" x="5548" y="2070" height="720px" width="720px" />
									</g>
								</g>
							</g>
							<g class="note" id="note-L18F1">
								<use xlink:href="#E0A4" x="6689" y="2250" height="720px" width="720px" />
								<g class="stem">
									<rect x="6689" y="2272" height="608" width="18" />
								</g>
								<g class="accid" id="accid-0000000660330162" />
							</g>
						</g>
					</g>
					<g class="tie" id="tie-L21F2-L23F2">
						<path d="M8498,1485 C8639,1583 8921,1583 9063,1485 C8921,1627 8639,1627 8498,1485" stroke="#000000" stroke-linecap="round" stroke-linejoin="round" stroke-width="9" />
					</g>
					<g class="mNum autogenerated" id="mnum-0000000561483739" />
					<g class="barLineAttr" id="bline-0000000210150832">
						<path d="M8634 2880 L8634 720" stroke="#000000" stroke-width="27" />
					</g>
				</g>
				<g class="measure" id="measure-L22">
					<g class="staff" id="staff-L22F2N1">
						<path d="M8647 720 L13200 720" stroke="#000000" stroke-width="13" />
						<path d="M8647 900 L13200 900" stroke="#000000" stroke-width="13" />
						<path d="M8647 1080 L13200 1080" stroke="#000000" stroke-width="13" />
						<path d="M8647 1260 L13200 1260" stroke="#000000" stroke-width="13" />
						<path d="M8647 1440 L13200 1440" stroke="#000000" stroke-width="13" />
						<g class="ledgerLines below">
							<path d="M12772 1620 L13051 1620" stroke="#000000" stroke-width="22" />
						</g>
						<g class="layer" id="layer-L22F2N1">
							<g class="beam" id="beam-L23F2-L25F2">
								<polygon points="9293,466 10504,346 10504,436 9293,556 " />
								<polygon points="9293,601 9899,541 9899,631 9293,691 " />
								<g class="note" id="note-L23F2">
									<use xlink:href="#E0A4" x="9085" y="1440" height="720px" width="720px" />
									<g class="stem">
										<rect x="9293" y="484" height="934" width="18" />
									</g>
									<g class="accid" id="accid-0000000278606384" />
								</g>
								<g class="note" id="note-L24F2">
									<use xlink:href="#E0A4" x="9682" y="1080" height="720px" width="720px" />
									<g class="stem">
										<rect x="9890" y="424" height="634" width="18" />
									</g>
									<g class="accid" id="accid-0000001103646867">
										<use xlink:href="#E260" x="9486" y="1080" height="720px" width="720px" />
									</g>
								</g>
								<g class="note" id="note-L25F2">
									<use xlink:href="#E0A4" x="10278" y="1260" height="720px" width="720px" />
									<g class="stem">
										<rect x="10486" y="364" height="874" width="18" />
									</g>
									<g class="accid" id="accid-0000001667124134">
										<use xlink:href="#E260" x="10082" y="1260" height="720px" width="720px" />
									</g>
								</g>
							</g>
							<g class="beam" id="beam-L27F2-L30F2">
								<polygon points="11450,586 13029,742 13029,832 11450,676 " />
								<polygon points="11450,721 13029,877 13029,967 11450,811 " />
								<g class="note" id="note-L27F2">
									<use xlink:href="#E0A4" x="11242" y="1260" height="720px" width="720px" />
									<g class="stem">
										<rect x="11450" y="604" height="634" width="18" />
									</g>
									<g class="accid" id="accid-0000000880867186" />
								</g>
								<g class="note" id="note-L28F2">
									<use xlink:href="#E0A4" x="11610" y="1350" height="720px" width="720px" />
									<g class="stem">
										<rect x="11818" y="641" height="687" width="18" />
									</g>
									<g class="accid" id="accid-0000000632079627" />
								</g>
								<g class="note" id="note-L29F2">
									<use xlink:href="#E0A4" x="12206" y="1530" height="720px" width="720px" />
									<g class="stem">
										<rect x="12414" y="701" height="807" width="18" />
									</g>
									<g class="accid" id="accid-0000000141599791">
										<use xlink:href="#E260" x="12010" y="1530" height="720px" width="720px" />
									</g>
								</g>
								<g class="note" id="note-L30F2">
									<use xlink:href="#E0A4" x="12803" y="1710" height="720px" width="720px" />
									<g class="stem">
										<rect x="13011" y="760" height="928" width="18" />
									</g>
									<g class="accid" id="accid-0000000665021178">
										<use xlink:href="#E260" x="12607" y="1710" height="720px" width="720px" />
									</g>
								</g>
							</g>
						</g>
					</g>
					<g class="staff" id="staff-L22F1N1">
						<path d="M8647 2160 L13200 2160" stroke="#000000" stroke-width="13" />
						<path d="M8647 2340 L13200 2340" stroke="#000000" stroke-width="13" />
						<path d="M8647 2520 L13200 2520" stroke="#000000" stroke-width="13" />
						<path d="M8647 2700 L13200 2700" stroke="#000000" stroke-width="13" />
						<path d="M8647 2880 L13200 2880" stroke="#000000" stroke-width="13" />
						<g class="layer" id="layer-L22F1N1">
							<g class="beam" id="beam-L23F1-L26F1">
								<polygon points="9085,3555 10892,3376 10892,3286 9085,3465 " />
								<polygon points="9085,3420 10892,3241 10892,3151 9085,3330 " />
								<g class="note" id="note-L23F1">
									<use xlink:href="#E0A4" x="9085" y="2880" height="720px" width="720px" />
									<g class="stem">
										<rect x="9085" y="2902" height="635" width="18" />
									</g>
									<g class="accid" id="accid-0000001768767275">
										<use xlink:href="#E260" x="8889" y="2880" height="720px" width="720px" />
									</g>
								</g>
								<g class="note" id="note-L24F1">
									<use xlink:href="#E0A4" x="9682" y="2250" height="720px" width="720px" />
									<g class="stem">
										<rect x="9682" y="2272" height="1205" width="18" />
									</g>
									<g class="accid" id="accid-0000000200822930">
										<use xlink:href="#E260" x="9486" y="2250" height="720px" width="720px" />
									</g>
								</g>
								<g class="note" id="note-L25F1">
									<use xlink:href="#E0A4" x="10278" y="2070" height="720px" width="720px" />
									<g class="stem">
										<rect x="10278" y="2092" height="1325" width="18" />
									</g>
									<g class="accid" id="accid-0000000044302382">
										<use xlink:href="#E260" x="10082" y="2070" height="720px" width="720px" />
									</g>
								</g>
								<g class="note" id="note-L26F1">
									<use xlink:href="#E0A4" x="10874" y="2160" height="720px" width="720px" />
									<g class="stem">
										<rect x="10874" y="2182" height="1176" width="18" />
									</g>
									<g class="accid" id="accid-0000000725320379">
										<use xlink:href="#E260" x="10678" y="2160" height="720px" width="720px" />
									</g>
								</g>
							</g>
							<g class="beam" id="beam-L27F1-L30F1">
								<polygon points="11242,2858 12821,3015 12821,2925 11242,2768 " />
								<polygon points="12215,2820 12821,2880 12821,2790 12215,2730 " />
								<g class="note" id="note-L27F1">
									<use xlink:href="#E0A4" x="11242" y="2070" height="720px" width="720px" />
									<g class="stem">
										<rect x="11242" y="2092" height="748" width="18" />
									</g>
									<g class="accid" id="accid-0000001436491781" />
								</g>
								<g class="note" id="note-L29F1">
									<use xlink:href="#E0A4" x="12206" y="2250" height="720px" width="720px" />
									<g class="stem">
										<rect x="12206" y="2272" height="665" width="18" />
									</g>
									<g class="accid" id="accid-0000001199536172" />
								</g>
								<g class="note" id="note-L30F1">
									<use xlink:href="#E0A4" x="12803" y="2340" height="720px" width="720px" />
									<g class="stem">
										<rect x="12803" y="2362" height="635" width="18" />
									</g>
									<g class="accid" id="accid-0000001852420730" />
								</g>
							</g>
						</g>
					</g>
					<g class="tie" id="tie-L25F2-L27F2">
						<path d="M10526,1305 C10699,1403 11045,1403 11220,1305 C11045,1447 10699,1447 10526,1305" stroke="#000000" stroke-linecap="round" stroke-linejoin="round" stroke-width="9" />
					</g>
					<g class="mNum autogenerated" id="mnum-0000000228524148" />
					<g class="barLineAttr" id="bline-0000000852241441">
						<path d="M13187 2880 L13187 720" stroke="#000000" stroke-width="27" />
					</g>
				</g>
				<g class="measure" id="measure-L31">
					<g class="staff" id="staff-L31F2N1">
						<path d="M13200 720 L16819 720" stroke="#000000" stroke-width="13" />
						<path d="M13200 900 L16819 900" stroke="#000000" stroke-width="13" />
						<path d="M13200 1080 L16819 1080" stroke="#000000" stroke-width="13" />
						<path d="M13200 1260 L16819 1260" stroke="#000000" stroke-width="13" />
						<path d="M13200 1440 L16819 1440" stroke="#000000" stroke-width="13" />
						<g class="layer" id="layer-L31F2N1">
							<g class="beam" id="beam-L32F2-L35F2">
								<polygon points="13618,751 14949,661 14949,751 13618,841 " />
								<polygon points="14791,806 14949,796 14949,886 14791,896 " />
								<g class="note" id="note-L32F2">
									<use xlink:href="#E0A4" x="13410" y="1440" height="720px" width="720px" />
									<g class="dots" id="dots-0000001561078745">
										<ellipse cx="13726" cy="1350" rx="36" ry="36" />
									</g>
									<g class="stem">
										<rect x="13618" y="769" height="649" width="18" />
									</g>
									<g class="accid" id="accid-0000000034731183" />
								</g>
								<g class="note" id="note-L35F2">
									<use xlink:href="#E0A4" x="14723" y="1350" height="720px" width="720px" />
									<g class="stem">
										<rect x="14931" y="679" height="649" width="18" />
									</g>
									<g class="accid" id="accid-0000002129048653">
										<use xlink:href="#E262" x="14528" y="1350" height="720px" width="720px" />
									</g>
								</g>
							</g>
							<g class="beam" id="beam-L36F2-L39F2">
								<polygon points="15299,340 16648,307 16648,397 15299,430 " />
								<polygon points="15299,475 16648,442 16648,532 15299,565 " />
								<g class="note" id="note-L36F2">
									<use xlink:href="#E0A4" x="15091" y="1170" height="720px" width="720px" />
									<g class="stem">
										<rect x="15299" y="358" height="790" width="18" />
									</g>
									<g class="accid" id="accid-0000000899723698" />
								</g>
								<g class="note" id="note-L37F2">
									<use xlink:href="#E0A4" x="15459" y="1080" height="720px" width="720px" />
									<g class="stem">
										<rect x="15667" y="349" height="709" width="18" />
									</g>
									<g class="accid" id="accid-0000000375616547" />
								</g>
								<g class="note" id="note-L38F2">
									<use xlink:href="#E0A4" x="16054" y="990" height="720px" width="720px" />
									<g class="stem">
										<rect x="16262" y="334" height="634" width="18" />
									</g>
									<g class="accid" id="accid-0000001680091660">
										<use xlink:href="#E262" x="15859" y="990" height="720px" width="720px" />
									</g>
								</g>
								<g class="note" id="note-L39F2">
									<use xlink:href="#E0A4" x="16422" y="1170" height="720px" width="720px" />
									<g class="stem">
										<rect x="16630" y="325" height="823" width="18" />
									</g>
									<g class="accid" id="accid-0000001791388960" />
								</g>
							</g>
						</g>
					</g>
					<g class="staff" id="staff-L31F1N1">
						<path d="M13200 2160 L16819 2160" stroke="#000000" stroke-width="13" />
						<path d="M13200 2340 L16819 2340" stroke="#000000" stroke-width="13" />
						<path d="M13200 2520 L16819 2520" stroke="#000000" stroke-width="13" />
						<path d="M13200 2700 L16819 2700" stroke="#000000" stroke-width="13" />
						<path d="M13200 2880 L16819 2880" stroke="#000000" stroke-width="13" />
						<g class="layer" id="layer-L31F1N1">
							<g class="beam" id="beam-L32F1-L34F1">
								<polygon points="13410,3465 14391,3368 14391,3278 13410,3375 " />
								<polygon points="13410,3330 14014,3270 14014,3180 13410,3240 " />
								<g class="note" id="note-L32F1">
									<use xlink:href="#E0A4" x="13410" y="2790" height="720px" width="720px" />
									<g class="stem">
										<rect x="13410" y="2812" height="635" width="18" />
									</g>
									<g class="accid" id="accid-0000000751316291" />
								</g>
								<g class="note" id="note-L33F1">
									<use xlink:href="#E0A4" x="14005" y="2340" height="720px" width="720px" />
									<g class="stem">
										<rect x="14005" y="2362" height="1025" width="18" />
									</g>
									<g class="accid" id="accid-0000000244957958">
										<use xlink:href="#E262" x="13810" y="2340" height="720px" width="720px" />
									</g>
								</g>
								<g class="note" id="note-L34F1">
									<use xlink:href="#E0A4" x="14373" y="2160" height="720px" width="720px" />
									<g class="stem">
										<rect x="14373" y="2182" height="1168" width="18" />
									</g>
									<g class="accid" id="accid-0000002111806673" />
								</g>
							</g>
							<g class="note" id="note-L36F1">
								<use xlink:href="#E0A4" x="15091" y="2430" height="720px" width="720px" />
								<g class="stem">
									<rect x="15091" y="2452" height="608" width="18" />
								</g>
								<g class="accid" id="accid-0000001615764011" />
							</g>
						</g>
					</g>
					<g class="tie" id="tie-L39F2-L41F2">
						<path d="M16670,1215 C16754,1313 16922,1313 17007,1215 C16922,1357 16754,1357 16670,1215" stroke="#000000" stroke-linecap="round" stroke-linejoin="round" stroke-width="9" />
					</g>
					<g class="mNum autogenerated" id="mnum-0000002072797532" />
					<g class="barLineAttr" id="bline-0000001341150658">
						<path d="M16806 2880 L16806 720" stroke="#000000" stroke-width="27" />
					</g>
				</g>
				<g class="measure" id="measure-L40">
					<g class="staff" id="staff-L40F2N1">
						<path d="M16819 720 L20002 720" stroke="#000000" stroke-width="13" />
						<path d="M16819 900 L20002 900" stroke="#000000" stroke-width="13" />
						<path d="M16819 1080 L20002 1080" stroke="#000000" stroke-width="13" />
						<path d="M16819 1260 L20002 1260" stroke="#000000" stroke-width="13" />
						<path d="M16819 1440 L20002 1440" stroke="#000000" stroke-width="13" />
						<g class="ledgerLines below">
							<path d="M19574 1620 L19853 1620" stroke="#000000" stroke-width="22" />
						</g>
						<g class="layer" id="layer-L40F2N1">
							<g class="beam" id="beam-L41F2-L43F2">
								<polygon points="17237,279 17991,353 17991,443 17237,369 " />
								<polygon points="17237,414 17614,451 17614,541 17237,504 " />
								<g class="note" id="note-L41F2">
									<use xlink:href="#E0A4" x="17029" y="1170" height="720px" width="720px" />
									<g class="stem">
										<rect x="17237" y="297" height="851" width="18" />
									</g>
									<g class="accid" id="accid-0000001877244762" />
								</g>
								<g class="note" id="note-L42F2">
									<use xlink:href="#E0A4" x="17397" y="990" height="720px" width="720px" />
									<g class="stem">
										<rect x="17605" y="334" height="634" width="18" />
									</g>
									<g class="accid" id="accid-0000001711167657" />
								</g>
								<g class="note" id="note-L43F2">
									<use xlink:href="#E0A4" x="17765" y="1260" height="720px" width="720px" />
									<g class="stem">
										<rect x="17973" y="371" height="867" width="18" />
									</g>
									<g class="accid" id="accid-0000001597522017" />
								</g>
							</g>
							<g class="beam" id="beam-L45F2-L48F2">
								<polygon points="18709,586 19831,697 19831,787 18709,676 " />
								<polygon points="18709,721 19831,832 19831,922 18709,811 " />
								<g class="note" id="note-L45F2">
									<use xlink:href="#E0A4" x="18501" y="1260" height="720px" width="720px" />
									<g class="stem">
										<rect x="18709" y="604" height="634" width="18" />
									</g>
									<g class="accid" id="accid-0000000792301955" />
								</g>
								<g class="note" id="note-L46F2">
									<use xlink:href="#E0A4" x="18869" y="1350" height="720px" width="720px" />
									<g class="stem">
										<rect x="19077" y="641" height="687" width="18" />
									</g>
									<g class="accid" id="accid-0000001507976833" />
								</g>
								<g class="note" id="note-L47F2">
									<use xlink:href="#E0A4" x="19237" y="1440" height="720px" width="720px" />
									<g class="stem">
										<rect x="19445" y="678" height="740" width="18" />
									</g>
									<g class="accid" id="accid-0000000395044178" />
								</g>
								<g class="note" id="note-L48F2">
									<use xlink:href="#E0A4" x="19605" y="1620" height="720px" width="720px" />
									<g class="stem">
										<rect x="19813" y="715" height="883" width="18" />
									</g>
									<g class="accid" id="accid-0000000843864983" />
								</g>
							</g>
						</g>
					</g>
					<g class="staff" id="staff-L40F1N1">
						<path d="M16819 2160 L20002 2160" stroke="#000000" stroke-width="13" />
						<path d="M16819 2340 L20002 2340" stroke="#000000" stroke-width="13" />
						<path d="M16819 2520 L20002 2520" stroke="#000000" stroke-width="13" />
						<path d="M16819 2700 L20002 2700" stroke="#000000" stroke-width="13" />
						<path d="M16819 2880 L20002 2880" stroke="#000000" stroke-width="13" />
						<g class="ledgerLines above">
							<path d="M17734 1980 L18013 1980" stroke="#000000" stroke-width="22" />
							<path d="M18470 1980 L18749 1980" stroke="#000000" stroke-width="22" />
						</g>
						<g class="layer" id="layer-L40F1N1">
							<g class="beam" id="beam-L41F1-L44F1">
								<polygon points="17029,3285 18151,3174 18151,3084 17029,3195 " />
								<polygon points="17029,3150 18151,3039 18151,2949 17029,3060 " />
								<g class="note" id="note-L41F1">
									<use xlink:href="#E0A4" x="17029" y="2610" height="720px" width="720px" />
									<g class="stem">
										<rect x="17029" y="2632" height="635" width="18" />
									</g>
									<g class="accid" id="accid-0000001592954285" />
								</g>
								<g class="note" id="note-L42F1">
									<use xlink:href="#E0A4" x="17397" y="2250" height="720px" width="720px" />
									<g class="stem">
										<rect x="17397" y="2272" height="958" width="18" />
									</g>
									<g class="accid" id="accid-0000000562810064" />
								</g>
								<g class="note" id="note-L43F1">
									<use xlink:href="#E0A4" x="17765" y="1980" height="720px" width="720px" />
									<g class="stem">
										<rect x="17765" y="2002" height="1191" width="18" />
									</g>
									<g class="accid" id="accid-0000002068614806" />
								</g>
								<g class="note" id="note-L44F1">
									<use xlink:href="#E0A4" x="18133" y="2160" height="720px" width="720px" />
									<g class="stem">
										<rect x="18133" y="2182" height="974" width="18" />
									</g>
									<g class="accid" id="accid-0000000217851342" />
								</g>
							</g>
							<g class="beam" id="beam-L45F1-L48F1">
								<polygon points="18501,2904 19623,3015 19623,2925 18501,2814 " />
								<polygon points="19246,2843 19623,2880 19623,2790 19246,2753 " />
								<g class="note" id="note-L45F1">
									<use xlink:href="#E0A4" x="18501" y="1980" height="720px" width="720px" />
									<g class="stem">
										<rect x="18501" y="2002" height="884" width="18" />
									</g>
									<g class="accid" id="accid-0000000993276415" />
								</g>
								<g class="note" id="note-L47F1">
									<use xlink:href="#E0A4" x="19237" y="2250" height="720px" width="720px" />
									<g class="stem">
										<rect x="19237" y="2272" height="688" width="18" />
									</g>
									<g class="accid" id="accid-0000001382708181" />
								</g>
								<g class="note" id="note-L48F1">
									<use xlink:href="#E0A4" x="19605" y="2340" height="720px" width="720px" />
									<g class="stem">
										<rect x="19605" y="2362" height="635" width="18" />
									</g>
									<g class="accid" id="accid-0000001666878444" />
								</g>
							</g>
						</g>
					</g>
					<g class="tie" id="tie-L43F2-L45F2">
						<path d="M18013,1305 C18129,1403 18361,1403 18479,1305 C18361,1447 18129,1447 18013,1305" stroke="#000000" stroke-linecap="round" stroke-linejoin="round" stroke-width="9" />
					</g>
					<g class="mNum autogenerated" id="mnum-0000001348391774" />
					<g class="barLineAttr" id="bline-0000001285391925">
						<path d="M19989 2880 L19989 720" stroke="#000000" stroke-width="27" />
					</g>
				</g>
			</g>
		</g>
	</svg>
</svg>
