<?xml version="1.0" encoding="UTF-8" standalone="no"?>
<svg width="2100.00px" height="450.00px" version="1.1" xmlns="http://www.w3.org/2000/svg" xmlns:xlink="http://www.w3.org/1999/xlink" overflow="visible">
	<desc>Engraved by Verovio 2.0.0-dev-0f0381c</desc>
	<defs>
		<symbol id="E050" viewBox="0 0 1000 1000" overflow="inherit">
			<path transform="scale(1,-1)" d="M441 -245c-23 -4 -48 -6 -76 -6c-59 0 -102 7 -130 20c-88 42 -150 93 -187 154c-26 44 -43 103 -48 176c-4 60 11 123 44 189c29 57 65 106 110 148s96 85 153 127c-3 16 -8 46 -13 92c-4 43 -5 73 -5 89c0 117 16 172 69 257c34 54 64 82 89 82c21 0 43 -30 69 -92 s39 -115 41 -159c2 -120 -19 -173 -67 -256c-13 -20 -63 -90 -98 -118c-13 -9 -25 -19 -37 -29l31 -181c8 1 18 2 28 2c58 0 102 -12 133 -35c59 -43 92 -104 98 -184c11 -135 -80 -229 -180 -270c8 -57 17 -110 25 -162c5 -31 6 -58 6 -80c0 -30 -5 -53 -14 -70 c-35 -64 -88 -99 -158 -103c-42 -3 -83 6 -124 26c-50 24 -77 59 -80 105c-2 34 5 63 20 87c18 28 45 42 79 44c51 4 99 -40 103 -87c4 -56 -30 -94 -105 -115c17 -24 51 -36 102 -36c62 0 116 43 140 85c9 16 13 41 13 74c0 20 -1 42 -5 67c-8 53 -18 106 -26 159zM461 939 c-95 0 -135 -175 -135 -286c0 -24 2 -48 5 -71c50 39 92 82 127 128c43 57 63 106 60 148c-4 54 -23 82 -57 81zM406 119l54 -326c80 27 116 88 109 184c-7 99 -62 146 -163 142zM382 117c-74 -2 -132 -50 -128 -127c2 -46 43 -99 75 -115c-3 -2 -7 -5 -10 -10 c-70 33 -116 88 -123 172c-5 73 42 135 88 170c23 17 49 29 78 36l-29 170c-21 -13 -52 -37 -92 -73c-50 -44 -86 -84 -109 -119c-49 -75 -71 -140 -67 -195c5 -68 35 -127 93 -176s125 -73 203 -73c25 0 50 3 75 9c-19 111 -36 221 -54 331z" />
		</symbol>
		<symbol id="E082" viewBox="0 0 1000 1000" overflow="inherit">
			<path transform="scale(1,-1)" d="M104 -185c-18 0 -55 -14 -65 -65h-36l-3 29c0 25 6 46 18 64c11 19 22 30 39 43l121 82l37 29c15 11 27 29 38 54c12 24 18 47 18 70c0 40 -19 88 -94 88c-25 0 -32 0 -50 -8c-14 -5 -23 -12 -26 -22c3 -9 7 -15 10 -18l24 -17c12 -7 17 -11 27 -21c5 -7 7 -16 7 -27 c0 -12 0 -57 -79 -74c-30 0 -76 26 -76 94c0 66 80 135 196 135c72 0 182 -32 182 -150c0 -53 -32 -95 -113 -133l-91 -41c-26 -11 -45 -23 -57 -37l49 7c84 0 115 -41 148 -41c20 0 33 20 39 61h35c0 -152 -68 -168 -114 -168c-17 0 -55 0 -69 7v0l-28 17 c-49 37 -69 40 -87 42z" />
		</symbol>
		<symbol id="E084" viewBox="0 0 1000 1000" overflow="inherit">
			<path transform="scale(1,-1)" d="M0 -78c84 97 114 180 134 329h170c-13 -32 -82 -132 -99 -151l-84 -97c-33 -36 -59 -63 -80 -81h162v102l127 123v-225h57v-39h-57v-34c0 -43 19 -65 57 -65v-34h-244v36c48 0 60 26 60 70v27h-203v39z" />
		</symbol>
		<symbol id="E0A4" viewBox="0 0 1000 1000" overflow="inherit">
			<path transform="scale(1,-1)" d="M0 -39c0 68 73 172 200 172c66 0 114 -37 114 -95c0 -84 -106 -171 -218 -171c-64 0 -96 30 -96 94z" />
		</symbol>
		<symbol id="E062" viewBox="0 0 1000 1000" overflow="inherit">
			<path transform="scale(1,-1)" d="M158 96c51 0 73 -14 88 -49l16 -39c0 -17 -2 -30 -7 -40c-3 -11 -10 -21 -19 -31c-17 -18 -49 -43 -84 -43c-55 0 -77 13 -112 44c-24 21 -35 55 -35 100c0 46 14 81 32 112c30 52 71 79 137 93l36 6l26 2c154 0 235 -68 274 -182c11 -32 18 -68 18 -107 c0 -103 -26 -182 -68 -250c-89 -145 -234 -230 -412 -288l-30 -5c-9 0 -14 3 -14 8c3 10 5 11 10 16c35 15 70 30 96 44l78 43c96 57 162 136 197 258c9 33 17 60 22 100c3 22 5 35 6 39c-7 69 -16 115 -23 140s-4 22 -16 40c-8 12 -19 23 -31 34c-24 21 -62 44 -118 44 c-48 0 -84 -8 -113 -28c-28 -19 -42 -44 -42 -73v-16c2 -5 3 -9 4 -11c24 22 52 39 84 39zM585 -118c0 32 23 58 57 58c18 0 33 -6 40 -18c9 -15 16 -18 16 -40c0 -9 -2 -16 -5 -21c-6 -19 -27 -37 -51 -37c-34 0 -57 26 -57 58zM642 177c31 0 56 -27 56 -58 c0 -30 -25 -58 -56 -58l-23 3c-19 7 -34 32 -34 55l3 23c9 20 28 35 54 35z" />
		</symbol>
		<symbol id="E260" viewBox="0 0 1000 1000" overflow="inherit">
			<path transform="scale(1,-1)" d="M20 110c32 16 54 27 93 27c26 0 35 -3 54 -13c13 -7 24 -20 27 -38l4 -25c0 -28 -16 -57 -45 -89c-23 -25 -39 -44 -65 -68l-88 -79v644h20v-359zM90 106c-32 0 -48 -10 -70 -29v-194c31 31 54 59 71 84c21 32 32 59 32 84c0 9 1 16 1 20c0 14 -3 21 -11 30l-8 3z" />
		</symbol>
		<symbol id="E262" viewBox="0 0 1000 1000" overflow="inherit">
			<path transform="scale(1,-1)" d="M136 186v169h17v-164l44 14v-91l-44 -14v-165l44 12v-91l-44 -13v-155h-17v150l-76 -22v-155h-17v149l-43 -13v90l43 14v167l-43 -14v92l43 13v169h17v-163zM60 73v-167l76 22v168z" />
		</symbol>
	</defs>
	<style type="text/css">g.page-margin{font-family:Times;} g.tempo{font-weight:bold;} g.dir, g.dynam, g.mNum{font-style:italic;} g.label{font-weight:normal;}</style>
	<svg class="definition-scale" viewBox="0 0 21000 4500">
		<g class="page-margin" transform="translate(500, 500)">
			<g class="system" id="system-0000002147201515">
				<path d="M13 720 L13 2880" stroke="#000000" stroke-width="27" />
				<path d="M-32,2862 C-392,2322 58,1980 -212,1800 C121,1980 -329,2322 -32,2862" stroke="#000000" stroke-linecap="round" stroke-linejoin="round" stroke-width="18" />
				<path d="M-32,738 C-329,1278 121,1620 -212,1800 C58,1620 -392,1278 -32,738" stroke="#000000" stroke-linecap="round" stroke-linejoin="round" stroke-width="18" />
				<g class="section boundaryStart" id="section-L1F1" />
				<g class="measure" id="measure-L4">
					<g class="staff" id="staff-L4F2N1">
						<path d="M0 720 L4448 720" stroke="#000000" stroke-width="13" />
						<path d="M0 900 L4448 900" stroke="#000000" stroke-width="13" />
						<path d="M0 1080 L4448 1080" stroke="#000000" stroke-width="13" />
						<path d="M0 1260 L4448 1260" stroke="#000000" stroke-width="13" />
						<path d="M0 1440 L4448 1440" stroke="#000000" stroke-width="13" />
						<g class="clef" id="clef-0000001698265114">
							<use xlink:href="#E050" x="90" y="1260" height="720px" width="720px" />
						</g>
						<g class="meterSig" id="msig-0000000536618721">
							<use xlink:href="#E082" x="771" y="900" height="720px" width="720px" />
							<use xlink:href="#E084" x="777" y="1260" height="720px" width="720px" />
						</g>
						<g class="layer" id="layer-L4F2N1">
							<g class="beam" id="beam-L5F2-L6F2">
								<polygon points="1576,534 1975,496 1975,586 1576,624 " />
								<polygon points="1576,669 1734,654 1734,744 1576,759 " />
								<g class="note" id="note-L5F2">
									<use xlink:href="#E0A4" x="1368" y="1260" height="720px" width="720px" />
									<g class="stem">
										<rect x="1576" y="552" height="686" width="18" />
									</g>
									<g class="accid" id="accid-0000001379195225" />
								</g>
								<g class="note" id="note-L6F2">
									<use xlink:href="#E0A4" x="1749" y="1170" height="720px" width="720px" />
									<g class="dots" id="dots-0000001242219282">
										<ellipse cx="2065" cy="1170" rx="36" ry="36" />
									</g>
									<g class="stem">
										<rect x="1957" y="514" height="634" width="18" />
									</g>
									<g class="accid" id="accid-0000000674560042" />
								</g>
							</g>
							<g class="beam" id="beam-L9F2-L12F2">
								<polygon points="3101,431 4263,316 4263,406 3101,521 " />
								<polygon points="3101,566 4263,451 4263,541 3101,656 " />
								<g class="note" id="note-L9F2">
									<use xlink:href="#E0A4" x="2893" y="1440" height="720px" width="720px" />
									<g class="stem">
										<rect x="3101" y="449" height="969" width="18" />
									</g>
									<g class="accid" id="accid-0000001879703487" />
								</g>
								<g class="note" id="note-L10F2">
									<use xlink:href="#E0A4" x="3274" y="1080" height="720px" width="720px" />
									<g class="stem">
										<rect x="3482" y="411" height="647" width="18" />
									</g>
									<g class="accid" id="accid-0000000096587030" />
								</g>
								<g class="note" id="note-L11F2">
									<use xlink:href="#E0A4" x="3655" y="1170" height="720px" width="720px" />
									<g class="stem">
										<rect x="3863" y="373" height="775" width="18" />
									</g>
									<g class="accid" id="accid-0000000621734402" />
								</g>
								<g class="note" id="note-L12F2">
									<use xlink:href="#E0A4" x="4037" y="990" height="720px" width="720px" />
									<g class="stem">
										<rect x="4245" y="334" height="634" width="18" />
									</g>
									<g class="accid" id="accid-0000000110797602" />
								</g>
							</g>
						</g>
					</g>
					<g class="staff" id="staff-L4F1N1">
						<path d="M0 2160 L4448 2160" stroke="#000000" stroke-width="13" />
						<path d="M0 2340 L4448 2340" stroke="#000000" stroke-width="13" />
						<path d="M0 2520 L4448 2520" stroke="#000000" stroke-width="13" />
						<path d="M0 2700 L4448 2700" stroke="#000000" stroke-width="13" />
						<path d="M0 2880 L4448 2880" stroke="#000000" stroke-width="13" />
						<g class="clef" id="clef-0000001667010094">
							<use xlink:href="#E062" x="90" y="2340" height="720px" width="720px" />
						</g>
						<g class="meterSig" id="msig-0000001366991096">
							<use xlink:href="#E082" x="771" y="2340" height="720px" width="720px" />
							<use xlink:href="#E084" x="777" y="2700" height="720px" width="720px" />
						</g>
						<g class="layer" id="layer-L4F1N1">
							<g class="beam" id="beam-L5F1-L8F1">
								<polygon points="1368,3362 2530,3247 2530,3157 1368,3272 " />
								<polygon points="1368,3227 2530,3112 2530,3022 1368,3137 " />
								<g class="note" id="note-L5F1">
									<use xlink:href="#E0A4" x="1368" y="2610" height="720px" width="720px" />
									<g class="stem">
										<rect x="1368" y="2632" height="712" width="18" />
									</g>
									<g class="accid" id="accid-0000000707452056" />
								</g>
								<g class="note" id="note-L6F1">
									<use xlink:href="#E0A4" x="1749" y="2520" height="720px" width="720px" />
									<g class="stem">
										<rect x="1749" y="2542" height="763" width="18" />
									</g>
									<g class="accid" id="accid-0000001425017278" />
								</g>
								<g class="note" id="note-L7F1">
									<use xlink:href="#E0A4" x="2130" y="2610" height="720px" width="720px" />
									<g class="stem">
										<rect x="2130" y="2632" height="635" width="18" />
									</g>
									<g class="accid" id="accid-0000001747870082" />
								</g>
								<g class="note" id="note-L8F1">
									<use xlink:href="#E0A4" x="2512" y="2340" height="720px" width="720px" />
									<g class="stem">
										<rect x="2512" y="2362" height="867" width="18" />
									</g>
									<g class="accid" id="accid-0000001176594710" />
								</g>
							</g>
							<g class="beam" id="beam-L9F1-L12F1">
								<polygon points="2893,3144 4055,3029 4055,2939 2893,3054 " />
								<polygon points="2893,3009 3051,2994 3051,2904 2893,2919 " />
								<polygon points="3897,2909 4055,2894 4055,2804 3897,2819 " />
								<g class="note" id="note-L9F1">
									<use xlink:href="#E0A4" x="2893" y="2340" height="720px" width="720px" />
									<g class="stem">
										<rect x="2893" y="2362" height="764" width="18" />
									</g>
									<g class="accid" id="accid-0000002024049902" />
								</g>
								<g class="note" id="note-L10F1">
									<use xlink:href="#E0A4" x="3274" y="2430" height="720px" width="720px" />
									<g class="stem">
										<rect x="3274" y="2452" height="635" width="18" />
									</g>
									<g class="accid" id="accid-0000000430511189" />
								</g>
								<g class="note" id="note-L12F1">
									<use xlink:href="#E0A4" x="4037" y="2250" height="720px" width="720px" />
									<g class="stem">
										<rect x="4037" y="2272" height="739" width="18" />
									</g>
									<g class="accid" id="accid-0000001228241678" />
								</g>
							</g>
						</g>
					</g>
					<g class="tie" id="tie-L8F1-L9F1">
						<path d="M2625,2205 C2720,2063 2910,2063 3006,2205 C2910,2107 2720,2107 2625,2205" stroke="#000000" stroke-linecap="round" stroke-linejoin="round" stroke-width="9" />
					</g>
					<g class="mNum autogenerated" id="mnum-0000001734689016" />
					<g class="barLineAttr" id="bline-0000001457008598">
						<path d="M4435 2880 L4435 720" stroke="#000000" stroke-width="27" />
					</g>
				</g>
				<g class="measure" id="measure-L13">
					<g class="staff" id="staff-L13F2N1">
						<path d="M4448 720 L7746 720" stroke="#000000" stroke-width="13" />
						<path d="M4448 900 L7746 900" stroke="#000000" stroke-width="13" />
						<path d="M4448 1080 L7746 1080" stroke="#000000" stroke-width="13" />
						<path d="M4448 1260 L7746 1260" stroke="#000000" stroke-width="13" />
						<path d="M4448 1440 L7746 1440" stroke="#000000" stroke-width="13" />
						<g class="layer" id="layer-L13F2N1">
							<g class="beam" id="beam-L14F2-L15F2">
								<polygon points="4874,676 5273,714 5273,804 4874,766 " />
								<polygon points="4874,811 5032,826 5032,916 4874,901 " />
								<g class="note" id="note-L14F2">
									<use xlink:href="#E0A4" x="4666" y="1350" height="720px" width="720px" />
									<g class="stem">
										<rect x="4874" y="694" height="634" width="18" />
									</g>
									<g class="accid" id="accid-0000000720934410" />
								</g>
								<g class="note" id="note-L15F2">
									<use xlink:href="#E0A4" x="5047" y="1440" height="720px" width="720px" />
									<g class="dots" id="dots-0000000679995970">
										<ellipse cx="5363" cy="1350" rx="36" ry="36" />
									</g>
									<g class="stem">
										<rect x="5255" y="732" height="686" width="18" />
									</g>
									<g class="accid" id="accid-0000001476821391" />
								</g>
							</g>
							<g class="beam" id="beam-L18F2-L21F2">
								<polygon points="6399,431 7561,316 7561,406 6399,521 " />
								<polygon points="6399,566 7561,451 7561,541 6399,656 " />
								<g class="note" id="note-L18F2">
									<use xlink:href="#E0A4" x="6191" y="1170" height="720px" width="720px" />
									<g class="stem">
										<rect x="6399" y="449" height="699" width="18" />
									</g>
									<g class="accid" id="accid-0000002085361549" />
								</g>
								<g class="note" id="note-L19F2">
									<use xlink:href="#E0A4" x="6572" y="1260" height="720px" width="720px" />
									<g class="stem">
										<rect x="6780" y="411" height="827" width="18" />
									</g>
									<g class="accid" id="accid-0000001362077986" />
								</g>
								<g class="note" id="note-L20F2">
									<use xlink:href="#E0A4" x="6953" y="1350" height="720px" width="720px" />
									<g class="stem">
										<rect x="7161" y="373" height="955" width="18" />
									</g>
									<g class="accid" id="accid-0000001196016439" />
								</g>
								<g class="note" id="note-L21F2">
									<use xlink:href="#E0A4" x="7335" y="990" height="720px" width="720px" />
									<g class="stem">
										<rect x="7543" y="334" height="634" width="18" />
									</g>
									<g class="accid" id="accid-0000002080752979" />
								</g>
							</g>
						</g>
					</g>
					<g class="staff" id="staff-L13F1N1">
						<path d="M4448 2160 L7746 2160" stroke="#000000" stroke-width="13" />
						<path d="M4448 2340 L7746 2340" stroke="#000000" stroke-width="13" />
						<path d="M4448 2520 L7746 2520" stroke="#000000" stroke-width="13" />
						<path d="M4448 2700 L7746 2700" stroke="#000000" stroke-width="13" />
						<path d="M4448 2880 L7746 2880" stroke="#000000" stroke-width="13" />
						<g class="ledgerLines above">
							<path d="M5779 1980 L6058 1980" stroke="#000000" stroke-width="22" />
							<path d="M6160 1980 L6439 1980" stroke="#000000" stroke-width="22" />
						</g>
						<g class="layer" id="layer-L13F1N1">
							<g class="beam" id="beam-L14F1-L17F1">
								<polygon points="4666,2964 5828,2849 5828,2759 4666,2874 " />
								<polygon points="4666,2829 5828,2714 5828,2624 4666,2739 " />
								<g class="note" id="note-L14F1">
									<use xlink:href="#E0A4" x="4666" y="2160" height="720px" width="720px" />
									<g class="stem">
										<rect x="4666" y="2182" height="764" width="18" />
									</g>
									<g class="accid" id="accid-0000000770885118" />
								</g>
								<g class="note" id="note-L15F1">
									<use xlink:href="#E0A4" x="5047" y="2250" height="720px" width="720px" />
									<g class="stem">
										<rect x="5047" y="2272" height="635" width="18" />
									</g>
									<g class="accid" id="accid-0000000717697001" />
								</g>
								<g class="note" id="note-L16F1">
									<use xlink:href="#E0A4" x="5428" y="2070" height="720px" width="720px" />
									<g class="stem">
										<rect x="5428" y="2092" height="777" width="18" />
									</g>
									<g class="accid" id="accid-0000000147153677" />
								</g>
								<g class="note" id="note-L17F1">
									<use xlink:href="#E0A4" x="5810" y="1980" height="720px" width="720px" />
									<g class="stem">
										<rect x="5810" y="2002" height="829" width="18" />
									</g>
									<g class="accid" id="accid-0000000407407530" />
								</g>
							</g>
							<g class="beam" id="beam-L18F1-L21F1">
								<polygon points="6191,2810 7353,2925 7353,2835 6191,2720 " />
								<polygon points="6191,2675 6349,2690 6349,2600 6191,2585 " />
								<polygon points="7195,2775 7353,2790 7353,2700 7195,2685 " />
								<g class="note" id="note-L18F1">
									<use xlink:href="#E0A4" x="6191" y="1980" height="720px" width="720px" />
									<g class="stem">
										<rect x="6191" y="2002" height="790" width="18" />
									</g>
									<g class="accid" id="accid-0000002083773531" />
								</g>
								<g class="note" id="note-L19F1">
									<use xlink:href="#E0A4" x="6572" y="2070" height="720px" width="720px" />
									<g class="stem">
										<rect x="6572" y="2092" height="739" width="18" />
									</g>
									<g class="accid" id="accid-0000000556231452" />
								</g>
								<g class="note" id="note-L21F1">
									<use xlink:href="#E0A4" x="7335" y="2250" height="720px" width="720px" />
									<g class="stem">
										<rect x="7335" y="2272" height="635" width="18" />
									</g>
									<g class="accid" id="accid-0000001915000810" />
								</g>
							</g>
						</g>
					</g>
					<g class="tie" id="tie-L17F1-L18F1">
						<path d="M5923,1845 C6018,1703 6208,1703 6304,1845 C6208,1747 6018,1747 5923,1845" stroke="#000000" stroke-linecap="round" stroke-linejoin="round" stroke-width="9" />
					</g>
					<g class="mNum autogenerated" id="mnum-0000000603197052" />
					<g class="barLineAttr" id="bline-0000001986511512">
						<path d="M7733 2880 L7733 720" stroke="#000000" stroke-width="27" />
					</g>
				</g>
				<g class="measure" id="measure-L22">
					<g class="staff" id="staff-L22F2N1">
						<path d="M7746 720 L11517 720" stroke="#000000" stroke-width="13" />
						<path d="M7746 900 L11517 900" stroke="#000000" stroke-width="13" />
						<path d="M7746 1080 L11517 1080" stroke="#000000" stroke-width="13" />
						<path d="M7746 1260 L11517 1260" stroke="#000000" stroke-width="13" />
						<path d="M7746 1440 L11517 1440" stroke="#000000" stroke-width="13" />
						<g class="layer" id="layer-L22F2N1">
							<g class="beam" id="beam-L23F2-L24F2">
								<polygon points="8172,468 8807,406 8807,496 8172,558 " />
								<polygon points="8172,603 8330,588 8330,678 8172,693 " />
								<g class="note" id="note-L23F2">
									<use xlink:href="#E0A4" x="7964" y="1260" height="720px" width="720px" />
									<g class="stem">
										<rect x="8172" y="486" height="752" width="18" />
									</g>
									<g class="accid" id="accid-0000000889466592" />
								</g>
								<g class="note" id="note-L24F2">
									<use xlink:href="#E0A4" x="8581" y="1080" height="720px" width="720px" />
									<g class="dots" id="dots-0000001789000675">
										<ellipse cx="8897" cy="990" rx="36" ry="36" />
									</g>
									<g class="stem">
										<rect x="8789" y="424" height="634" width="18" />
									</g>
									<g class="accid" id="accid-0000000298328612">
										<use xlink:href="#E260" x="8385" y="1080" height="720px" width="720px" />
									</g>
								</g>
							</g>
							<g class="beam" id="beam-L27F2-L30F2">
								<polygon points="9933,454 11332,316 11332,406 9933,544 " />
								<polygon points="9933,589 11332,451 11332,541 9933,679 " />
								<g class="note" id="note-L27F2">
									<use xlink:href="#E0A4" x="9725" y="1440" height="720px" width="720px" />
									<g class="stem">
										<rect x="9933" y="472" height="946" width="18" />
									</g>
									<g class="accid" id="accid-0000002126560834">
										<use xlink:href="#E260" x="9529" y="1440" height="720px" width="720px" />
									</g>
								</g>
								<g class="note" id="note-L28F2">
									<use xlink:href="#E0A4" x="10343" y="1170" height="720px" width="720px" />
									<g class="stem">
										<rect x="10551" y="410" height="738" width="18" />
									</g>
									<g class="accid" id="accid-0000000979782790">
										<use xlink:href="#E260" x="10147" y="1170" height="720px" width="720px" />
									</g>
								</g>
								<g class="note" id="note-L29F2">
									<use xlink:href="#E0A4" x="10724" y="1080" height="720px" width="720px" />
									<g class="stem">
										<rect x="10932" y="372" height="686" width="18" />
									</g>
									<g class="accid" id="accid-0000000123137443" />
								</g>
								<g class="note" id="note-L30F2">
									<use xlink:href="#E0A4" x="11106" y="990" height="720px" width="720px" />
									<g class="stem">
										<rect x="11314" y="334" height="634" width="18" />
									</g>
									<g class="accid" id="accid-0000001910885085" />
								</g>
							</g>
						</g>
					</g>
					<g class="staff" id="staff-L22F1N1">
						<path d="M7746 2160 L11517 2160" stroke="#000000" stroke-width="13" />
						<path d="M7746 2340 L11517 2340" stroke="#000000" stroke-width="13" />
						<path d="M7746 2520 L11517 2520" stroke="#000000" stroke-width="13" />
						<path d="M7746 2700 L11517 2700" stroke="#000000" stroke-width="13" />
						<path d="M7746 2880 L11517 2880" stroke="#000000" stroke-width="13" />
						<g class="layer" id="layer-L22F1N1">
							<g class="beam" id="beam-L23F1-L26F1">
								<polygon points="7964,3385 9362,3247 9362,3157 7964,3295 " />
								<polygon points="7964,3250 9362,3112 9362,3022 7964,3160 " />
								<g class="note" id="note-L23F1">
									<use xlink:href="#E0A4" x="7964" y="2610" height="720px" width="720px" />
									<g class="stem">
										<rect x="7964" y="2632" height="735" width="18" />
									</g>
									<g class="accid" id="accid-0000001605390401" />
								</g>
								<g class="note" id="note-L24F1">
									<use xlink:href="#E0A4" x="8581" y="2520" height="720px" width="720px" />
									<g class="stem">
										<rect x="8581" y="2542" height="763" width="18" />
									</g>
									<g class="accid" id="accid-0000000974551055" />
								</g>
								<g class="note" id="note-L25F1">
									<use xlink:href="#E0A4" x="8963" y="2610" height="720px" width="720px" />
									<g class="stem">
										<rect x="8963" y="2632" height="635" width="18" />
									</g>
									<g class="accid" id="accid-0000000445150065" />
								</g>
								<g class="note" id="note-L26F1">
									<use xlink:href="#E0A4" x="9344" y="2340" height="720px" width="720px" />
									<g class="stem">
										<rect x="9344" y="2362" height="867" width="18" />
									</g>
									<g class="accid" id="accid-0000002022686247" />
								</g>
							</g>
							<g class="beam" id="beam-L27F1-L30F1">
								<polygon points="9725,3149 11124,3050 11124,2960 9725,3059 " />
								<polygon points="9725,3014 9883,3003 9883,2913 9725,2924 " />
								<polygon points="10966,2925 11124,2915 11124,2825 10966,2835 " />
								<g class="note" id="note-L27F1">
									<use xlink:href="#E0A4" x="9725" y="2340" height="720px" width="720px" />
									<g class="stem">
										<rect x="9725" y="2362" height="769" width="18" />
									</g>
									<g class="accid" id="accid-0000000781464060" />
								</g>
								<g class="note" id="note-L28F1">
									<use xlink:href="#E0A4" x="10343" y="2430" height="720px" width="720px" />
									<g class="stem">
										<rect x="10343" y="2452" height="635" width="18" />
									</g>
									<g class="accid" id="accid-0000002073993649">
										<use xlink:href="#E260" x="10147" y="2430" height="720px" width="720px" />
									</g>
								</g>
								<g class="note" id="note-L30F1">
									<use xlink:href="#E0A4" x="11106" y="2250" height="720px" width="720px" />
									<g class="stem">
										<rect x="11106" y="2272" height="760" width="18" />
									</g>
									<g class="accid" id="accid-0000000456199162" />
								</g>
							</g>
						</g>
					</g>
					<g class="tie" id="tie-L26F1-L27F1">
						<path d="M9457,2205 C9552,2063 9742,2063 9838,2205 C9742,2107 9552,2107 9457,2205" stroke="#000000" stroke-linecap="round" stroke-linejoin="round" stroke-width="9" />
					</g>
					<g class="mNum autogenerated" id="mnum-0000000074213666" />
					<g class="barLineAttr" id="bline-0000001777967446">
						<path d="M11504 2880 L11504 720" stroke="#000000" stroke-width="27" />
					</g>
				</g>
				<g class="measure" id="measure-L31">
					<g class="staff" id="staff-L31F2N1">
						<path d="M11517 720 L15524 720" stroke="#000000" stroke-width="13" />
						<path d="M11517 900 L15524 900" stroke="#000000" stroke-width="13" />
						<path d="M11517 1080 L15524 1080" stroke="#000000" stroke-width="13" />
						<path d="M11517 1260 L15524 1260" stroke="#000000" stroke-width="13" />
						<path d="M11517 1440 L15524 1440" stroke="#000000" stroke-width="13" />
						<g class="layer" id="layer-L31F2N1">
							<g class="beam" id="beam-L32F2-L33F2">
								<polygon points="12179,676 12815,738 12815,828 12179,766 " />
								<polygon points="12179,811 12337,826 12337,916 12179,901 " />
								<g class="note" id="note-L32F2">
									<use xlink:href="#E0A4" x="11971" y="1350" height="720px" width="720px" />
									<g class="stem">
										<rect x="12179" y="694" height="634" width="18" />
									</g>
									<g class="accid" id="accid-0000000228625903" />
								</g>
								<g class="note" id="note-L33F2">
									<use xlink:href="#E0A4" x="12589" y="1440" height="720px" width="720px" />
									<g class="dots" id="dots-0000000149901087">
										<ellipse cx="12905" cy="1350" rx="36" ry="36" />
									</g>
									<g class="stem">
										<rect x="12797" y="756" height="662" width="18" />
									</g>
									<g class="accid" id="accid-0000001273144432">
										<use xlink:href="#E260" x="12393" y="1440" height="720px" width="720px" />
									</g>
								</g>
							</g>
							<g class="beam" id="beam-L36F2-L39F2">
								<polygon points="14177,370 15339,316 15339,406 14177,460 " />
								<polygon points="14177,505 15339,451 15339,541 14177,595 " />
								<g class="note" id="note-L36F2">
									<use xlink:href="#E0A4" x="13969" y="1080" height="720px" width="720px" />
									<g class="stem">
										<rect x="14177" y="388" height="670" width="18" />
									</g>
									<g class="accid" id="accid-0000001593803460">
										<use xlink:href="#E260" x="13773" y="1080" height="720px" width="720px" />
									</g>
								</g>
								<g class="note" id="note-L37F2">
									<use xlink:href="#E0A4" x="14351" y="1260" height="720px" width="720px" />
									<g class="stem">
										<rect x="14559" y="370" height="868" width="18" />
									</g>
									<g class="accid" id="accid-0000001853977033" />
								</g>
								<g class="note" id="note-L38F2">
									<use xlink:href="#E0A4" x="14732" y="1350" height="720px" width="720px" />
									<g class="stem">
										<rect x="14940" y="352" height="976" width="18" />
									</g>
									<g class="accid" id="accid-0000000405981631" />
								</g>
								<g class="note" id="note-L39F2">
									<use xlink:href="#E0A4" x="15113" y="990" height="720px" width="720px" />
									<g class="stem">
										<rect x="15321" y="334" height="634" width="18" />
									</g>
									<g class="accid" id="accid-0000001650330644" />
								</g>
							</g>
						</g>
					</g>
					<g class="staff" id="staff-L31F1N1">
						<path d="M11517 2160 L15524 2160" stroke="#000000" stroke-width="13" />
						<path d="M11517 2340 L15524 2340" stroke="#000000" stroke-width="13" />
						<path d="M11517 2520 L15524 2520" stroke="#000000" stroke-width="13" />
						<path d="M11517 2700 L15524 2700" stroke="#000000" stroke-width="13" />
						<path d="M11517 2880 L15524 2880" stroke="#000000" stroke-width="13" />
						<g class="ledgerLines above">
							<path d="M13557 1980 L13836 1980" stroke="#000000" stroke-width="22" />
							<path d="M13938 1980 L14217 1980" stroke="#000000" stroke-width="22" />
						</g>
						<g class="layer" id="layer-L31F1N1">
							<g class="beam" id="beam-L32F1-L35F1">
								<polygon points="11971,2987 13606,2825 13606,2735 11971,2897 " />
								<polygon points="11971,2852 13606,2690 13606,2600 11971,2762 " />
								<g class="note" id="note-L32F1">
									<use xlink:href="#E0A4" x="11971" y="2160" height="720px" width="720px" />
									<g class="stem">
										<rect x="11971" y="2182" height="787" width="18" />
									</g>
									<g class="accid" id="accid-0000000044079514">
										<use xlink:href="#E260" x="11775" y="2160" height="720px" width="720px" />
									</g>
								</g>
								<g class="note" id="note-L33F1">
									<use xlink:href="#E0A4" x="12589" y="2250" height="720px" width="720px" />
									<g class="stem">
										<rect x="12589" y="2272" height="635" width="18" />
									</g>
									<g class="accid" id="accid-0000001662121699" />
								</g>
								<g class="note" id="note-L34F1">
									<use xlink:href="#E0A4" x="13207" y="2070" height="720px" width="720px" />
									<g class="stem">
										<rect x="13207" y="2092" height="753" width="18" />
									</g>
									<g class="accid" id="accid-0000001956833334">
										<use xlink:href="#E260" x="13011" y="2070" height="720px" width="720px" />
									</g>
								</g>
								<g class="note" id="note-L35F1">
									<use xlink:href="#E0A4" x="13588" y="1980" height="720px" width="720px" />
									<g class="stem">
										<rect x="13588" y="2002" height="805" width="18" />
									</g>
									<g class="accid" id="accid-0000001114925550" />
								</g>
							</g>
							<g class="beam" id="beam-L36F1-L39F1">
								<polygon points="13969,2810 15131,2925 15131,2835 13969,2720 " />
								<polygon points="13969,2675 14127,2690 14127,2600 13969,2585 " />
								<polygon points="14973,2775 15131,2790 15131,2700 14973,2685 " />
								<g class="note" id="note-L36F1">
									<use xlink:href="#E0A4" x="13969" y="1980" height="720px" width="720px" />
									<g class="stem">
										<rect x="13969" y="2002" height="790" width="18" />
									</g>
									<g class="accid" id="accid-0000000926047837" />
								</g>
								<g class="note" id="note-L37F1">
									<use xlink:href="#E0A4" x="14351" y="2070" height="720px" width="720px" />
									<g class="stem">
										<rect x="14351" y="2092" height="739" width="18" />
									</g>
									<g class="accid" id="accid-0000000416060665" />
								</g>
								<g class="note" id="note-L39F1">
									<use xlink:href="#E0A4" x="15113" y="2250" height="720px" width="720px" />
									<g class="stem">
										<rect x="15113" y="2272" height="635" width="18" />
									</g>
									<g class="accid" id="accid-0000001304542332" />
								</g>
							</g>
						</g>
					</g>
					<g class="tie" id="tie-L35F1-L36F1">
						<path d="M13701,1845 C13796,1703 13986,1703 14082,1845 C13986,1747 13796,1747 13701,1845" stroke="#000000" stroke-linecap="round" stroke-linejoin="round" stroke-width="9" />
					</g>
					<g class="mNum autogenerated" id="mnum-0000001021419887" />
					<g class="barLineAttr" id="bline-0000001837298453">
						<path d="M15511 2880 L15511 720" stroke="#000000" stroke-width="27" />
					</g>
				</g>
				<g class="measure" id="measure-L40">
					<g class="staff" id="staff-L40F2N1">
						<path d="M15524 720 L20003 720" stroke="#000000" stroke-width="13" />
						<path d="M15524 900 L20003 900" stroke="#000000" stroke-width="13" />
						<path d="M15524 1080 L20003 1080" stroke="#000000" stroke-width="13" />
						<path d="M15524 1260 L20003 1260" stroke="#000000" stroke-width="13" />
						<path d="M15524 1440 L20003 1440" stroke="#000000" stroke-width="13" />
						<g class="ledgerLines below">
							<path d="M19561 1620 L19840 1620" stroke="#000000" stroke-width="22" />
						</g>
						<g class="layer" id="layer-L40F2N1">
							<g class="beam" id="beam-L41F2-L42F2">
								<polygon points="16186,468 16822,406 16822,496 16186,558 " />
								<polygon points="16186,603 16344,588 16344,678 16186,693 " />
								<g class="note" id="note-L41F2">
									<use xlink:href="#E0A4" x="15978" y="1260" height="720px" width="720px" />
									<g class="stem">
										<rect x="16186" y="486" height="752" width="18" />
									</g>
									<g class="accid" id="accid-0000000114928682">
										<use xlink:href="#E260" x="15782" y="1260" height="720px" width="720px" />
									</g>
								</g>
								<g class="note" id="note-L42F2">
									<use xlink:href="#E0A4" x="16596" y="1080" height="720px" width="720px" />
									<g class="dots" id="dots-0000002035708442">
										<ellipse cx="16912" cy="990" rx="36" ry="36" />
									</g>
									<g class="stem">
										<rect x="16804" y="424" height="634" width="18" />
									</g>
									<g class="accid" id="accid-0000001341080610">
										<use xlink:href="#E260" x="16400" y="1080" height="720px" width="720px" />
									</g>
								</g>
							</g>
							<g class="beam" id="beam-L45F2-L48F2">
								<polygon points="18183,313 19818,463 19818,553 18183,403 " />
								<polygon points="18183,448 19818,598 19818,688 18183,538 " />
								<g class="note" id="note-L45F2">
									<use xlink:href="#E0A4" x="17975" y="1440" height="720px" width="720px" />
									<g class="stem">
										<rect x="18183" y="331" height="1087" width="18" />
									</g>
									<g class="accid" id="accid-0000000877379568">
										<use xlink:href="#E260" x="17779" y="1440" height="720px" width="720px" />
									</g>
								</g>
								<g class="note" id="note-L46F2">
									<use xlink:href="#E0A4" x="18593" y="1170" height="720px" width="720px" />
									<g class="stem">
										<rect x="18801" y="388" height="760" width="18" />
									</g>
									<g class="accid" id="accid-0000001582108583">
										<use xlink:href="#E260" x="18397" y="1170" height="720px" width="720px" />
									</g>
								</g>
								<g class="note" id="note-L47F2">
									<use xlink:href="#E0A4" x="18974" y="1080" height="720px" width="720px" />
									<g class="stem">
										<rect x="19182" y="424" height="634" width="18" />
									</g>
									<g class="accid" id="accid-0000001310263406" />
								</g>
								<g class="note" id="note-L48F2">
									<use xlink:href="#E0A4" x="19592" y="1620" height="720px" width="720px" />
									<g class="stem">
										<rect x="19800" y="481" height="1117" width="18" />
									</g>
									<g class="accid" id="accid-0000000666088044">
										<use xlink:href="#E260" x="19396" y="1620" height="720px" width="720px" />
									</g>
								</g>
							</g>
						</g>
					</g>
					<g class="staff" id="staff-L40F1N1">
						<path d="M15524 2160 L20003 2160" stroke="#000000" stroke-width="13" />
						<path d="M15524 2340 L20003 2340" stroke="#000000" stroke-width="13" />
						<path d="M15524 2520 L20003 2520" stroke="#000000" stroke-width="13" />
						<path d="M15524 2700 L20003 2700" stroke="#000000" stroke-width="13" />
						<path d="M15524 2880 L20003 2880" stroke="#000000" stroke-width="13" />
						<g class="layer" id="layer-L40F1N1">
							<g class="beam" id="beam-L41F1-L44F1">
								<polygon points="16186,1918 17820,1756 17820,1846 16186,2008 " />
								<polygon points="16186,2053 17820,1891 17820,1981 16186,2143 " />
								<g class="note" id="note-L41F1">
									<use xlink:href="#E0A4" x="15978" y="2700" height="720px" width="720px" />
									<g class="stem">
										<rect x="16186" y="1936" height="742" width="18" />
									</g>
									<g class="accid" id="accid-0000000161395031" />
								</g>
								<g class="note" id="note-L42F1">
									<use xlink:href="#E0A4" x="16596" y="2610" height="720px" width="720px" />
									<g class="stem">
										<rect x="16804" y="1874" height="714" width="18" />
									</g>
									<g class="accid" id="accid-0000000848337104">
										<use xlink:href="#E262" x="16401" y="2610" height="720px" width="720px" />
									</g>
								</g>
								<g class="note" id="note-L43F1">
									<use xlink:href="#E0A4" x="16977" y="2700" height="720px" width="720px" />
									<g class="stem">
										<rect x="17185" y="1836" height="842" width="18" />
									</g>
									<g class="accid" id="accid-0000000558215154" />
								</g>
								<g class="note" id="note-L44F1">
									<use xlink:href="#E0A4" x="17594" y="2430" height="720px" width="720px" />
									<g class="stem">
										<rect x="17802" y="1774" height="634" width="18" />
									</g>
									<g class="accid" id="accid-0000001428413604">
										<use xlink:href="#E262" x="17399" y="2430" height="720px" width="720px" />
									</g>
								</g>
							</g>
							<g class="beam" id="beam-L45F1-L48F1">
								<polygon points="17975,3237 19610,3128 19610,3038 17975,3147 " />
								<polygon points="17975,3102 18133,3092 18133,3002 17975,3012 " />
								<polygon points="19452,3003 19610,2993 19610,2903 19452,2913 " />
								<g class="note" id="note-L45F1">
									<use xlink:href="#E0A4" x="17975" y="2430" height="720px" width="720px" />
									<g class="stem">
										<rect x="17975" y="2452" height="767" width="18" />
									</g>
									<g class="accid" id="accid-0000001026902205" />
								</g>
								<g class="note" id="note-L46F1">
									<use xlink:href="#E0A4" x="18593" y="2520" height="720px" width="720px" />
									<g class="stem">
										<rect x="18593" y="2542" height="635" width="18" />
									</g>
									<g class="accid" id="accid-0000001471112777">
										<use xlink:href="#E262" x="18398" y="2520" height="720px" width="720px" />
									</g>
								</g>
								<g class="note" id="note-L48F1">
									<use xlink:href="#E0A4" x="19592" y="2340" height="720px" width="720px" />
									<g class="stem">
										<rect x="19592" y="2362" height="748" width="18" />
									</g>
									<g class="accid" id="accid-0000001708819233">
										<use xlink:href="#E262" x="19397" y="2340" height="720px" width="720px" />
									</g>
								</g>
							</g>
						</g>
					</g>
					<g class="tie" id="tie-L44F1-L45F1">
						<path d="M17707,2565 C17802,2663 17992,2663 18088,2565 C17992,2707 17802,2707 17707,2565" stroke="#000000" stroke-linecap="round" stroke-linejoin="round" stroke-width="9" />
					</g>
					<g class="mNum autogenerated" id="mnum-0000001506293999" />
					<g class="barLineAttr" id="bline-0000000374694238">
						<path d="M19990 2880 L19990 720" stroke="#000000" stroke-width="27" />
					</g>
				</g>
			</g>
		</g>
	</svg>
</svg>
