<?xml version="1.0" encoding="UTF-8" standalone="no"?>
<svg width="2100.00px" height="450.00px" version="1.1" xmlns="http://www.w3.org/2000/svg" xmlns:xlink="http://www.w3.org/1999/xlink" overflow="visible">
	<desc>Engraved by Verovio 2.0.0-dev-0f0381c</desc>
	<defs>
		<symbol id="E050" viewBox="0 0 1000 1000" overflow="inherit">
			<path transform="scale(1,-1)" d="M441 -245c-23 -4 -48 -6 -76 -6c-59 0 -102 7 -130 20c-88 42 -150 93 -187 154c-26 44 -43 103 -48 176c-4 60 11 123 44 189c29 57 65 106 110 148s96 85 153 127c-3 16 -8 46 -13 92c-4 43 -5 73 -5 89c0 117 16 172 69 257c34 54 64 82 89 82c21 0 43 -30 69 -92 s39 -115 41 -159c2 -120 -19 -173 -67 -256c-13 -20 -63 -90 -98 -118c-13 -9 -25 -19 -37 -29l31 -181c8 1 18 2 28 2c58 0 102 -12 133 -35c59 -43 92 -104 98 -184c11 -135 -80 -229 -180 -270c8 -57 17 -110 25 -162c5 -31 6 -58 6 -80c0 -30 -5 -53 -14 -70 c-35 -64 -88 -99 -158 -103c-42 -3 -83 6 -124 26c-50 24 -77 59 -80 105c-2 34 5 63 20 87c18 28 45 42 79 44c51 4 99 -40 103 -87c4 -56 -30 -94 -105 -115c17 -24 51 -36 102 -36c62 0 116 43 140 85c9 16 13 41 13 74c0 20 -1 42 -5 67c-8 53 -18 106 -26 159zM461 939 c-95 0 -135 -175 -135 -286c0 -24 2 -48 5 -71c50 39 92 82 127 128c43 57 63 106 60 148c-4 54 -23 82 -57 81zM406 119l54 -326c80 27 116 88 109 184c-7 99 -62 146 -163 142zM382 117c-74 -2 -132 -50 -128 -127c2 -46 43 -99 75 -115c-3 -2 -7 -5 -10 -10 c-70 33 -116 88 -123 172c-5 73 42 135 88 170c23 17 49 29 78 36l-29 170c-21 -13 -52 -37 -92 -73c-50 -44 -86 -84 -109 -119c-49 -75 -71 -140 -67 -195c5 -68 35 -127 93 -176s125 -73 203 -73c25 0 50 3 75 9c-19 111 -36 221 -54 331z" />
		</symbol>
		<symbol id="E082" viewBox="0 0 1000 1000" overflow="inherit">
			<path transform="scale(1,-1)" d="M104 -185c-18 0 -55 -14 -65 -65h-36l-3 29c0 25 6 46 18 64c11 19 22 30 39 43l121 82l37 29c15 11 27 29 38 54c12 24 18 47 18 70c0 40 -19 88 -94 88c-25 0 -32 0 -50 -8c-14 -5 -23 -12 -26 -22c3 -9 7 -15 10 -18l24 -17c12 -7 17 -11 27 -21c5 -7 7 -16 7 -27 c0 -12 0 -57 -79 -74c-30 0 -76 26 -76 94c0 66 80 135 196 135c72 0 182 -32 182 -150c0 -53 -32 -95 -113 -133l-91 -41c-26 -11 -45 -23 -57 -37l49 7c84 0 115 -41 148 -41c20 0 33 20 39 61h35c0 -152 -68 -168 -114 -168c-17 0 -55 0 -69 7v0l-28 17 c-49 37 -69 40 -87 42z" />
		</symbol>
		<symbol id="E084" viewBox="0 0 1000 1000" overflow="inherit">
			<path transform="scale(1,-1)" d="M0 -78c84 97 114 180 134 329h170c-13 -32 -82 -132 -99 -151l-84 -97c-33 -36 -59 -63 -80 -81h162v102l127 123v-225h57v-39h-57v-34c0 -43 19 -65 57 -65v-34h-244v36c48 0 60 26 60 70v27h-203v39z" />
		</symbol>
		<symbol id="E0A4" viewBox="0 0 1000 1000" overflow="inherit">
			<path transform="scale(1,-1)" d="M0 -39c0 68 73 172 200 172c66 0 114 -37 114 -95c0 -84 -106 -171 -218 -171c-64 0 -96 30 -96 94z" />
		</symbol>
		<symbol id="E062" viewBox="0 0 1000 1000" overflow="inherit">
			<path transform="scale(1,-1)" d="M158 96c51 0 73 -14 88 -49l16 -39c0 -17 -2 -30 -7 -40c-3 -11 -10 -21 -19 -31c-17 -18 -49 -43 -84 -43c-55 0 -77 13 -112 44c-24 21 -35 55 -35 100c0 46 14 81 32 112c30 52 71 79 137 93l36 6l26 2c154 0 235 -68 274 -182c11 -32 18 -68 18 -107 c0 -103 -26 -182 -68 -250c-89 -145 -234 -230 -412 -288l-30 -5c-9 0 -14 3 -14 8c3 10 5 11 10 16c35 15 70 30 96 44l78 43c96 57 162 136 197 258c9 33 17 60 22 100c3 22 5 35 6 39c-7 69 -16 115 -23 140s-4 22 -16 40c-8 12 -19 23 -31 34c-24 21 -62 44 -118 44 c-48 0 -84 -8 -113 -28c-28 -19 -42 -44 -42 -73v-16c2 -5 3 -9 4 -11c24 22 52 39 84 39zM585 -118c0 32 23 58 57 58c18 0 33 -6 40 -18c9 -15 16 -18 16 -40c0 -9 -2 -16 -5 -21c-6 -19 -27 -37 -51 -37c-34 0 -57 26 -57 58zM642 177c31 0 56 -27 56 -58 c0 -30 -25 -58 -56 -58l-23 3c-19 7 -34 32 -34 55l3 23c9 20 28 35 54 35z" />
		</symbol>
		<symbol id="E260" viewBox="0 0 1000 1000" overflow="inherit">
			<path transform="scale(1,-1)" d="M20 110c32 16 54 27 93 27c26 0 35 -3 54 -13c13 -7 24 -20 27 -38l4 -25c0 -28 -16 -57 -45 -89c-23 -25 -39 -44 -65 -68l-88 -79v644h20v-359zM90 106c-32 0 -48 -10 -70 -29v-194c31 31 54 59 71 84c21 32 32 59 32 84c0 9 1 16 1 20c0 14 -3 21 -11 30l-8 3z" />
		</symbol>
		<symbol id="E262" viewBox="0 0 1000 1000" overflow="inherit">
			<path transform="scale(1,-1)" d="M136 186v169h17v-164l44 14v-91l-44 -14v-165l44 12v-91l-44 -13v-155h-17v150l-76 -22v-155h-17v149l-43 -13v90l43 14v167l-43 -14v92l43 13v169h17v-163zM60 73v-167l76 22v168z" />
		</symbol>
	</defs>
	<style type="text/css">g.page-margin{font-family:Times;} g.tempo{font-weight:bold;} g.dir, g.dynam, g.mNum{font-style:italic;} g.label{font-weight:normal;}</style>
	<svg class="definition-scale" viewBox="0 0 21000 4500">
		<g class="page-margin" transform="translate(500, 500)">
			<g class="system" id="system-0000001513895555">
				<path d="M13 720 L13 3141" stroke="#000000" stroke-width="27" />
				<path d="M-32,3123 C-392,2583 58,2111 -212,1931 C121,2111 -329,2583 -32,3123" stroke="#000000" stroke-linecap="round" stroke-linejoin="round" stroke-width="18" />
				<path d="M-32,738 C-329,1278 121,1751 -212,1931 C58,1751 -392,1278 -32,738" stroke="#000000" stroke-linecap="round" stroke-linejoin="round" stroke-width="18" />
				<g class="section boundaryStart" id="section-L1F1" />
				<g class="measure" id="measure-L4">
					<g class="staff" id="staff-L4F2N1">
						<path d="M0 720 L4314 720" stroke="#000000" stroke-width="13" />
						<path d="M0 900 L4314 900" stroke="#000000" stroke-width="13" />
						<path d="M0 1080 L4314 1080" stroke="#000000" stroke-width="13" />
						<path d="M0 1260 L4314 1260" stroke="#000000" stroke-width="13" />
						<path d="M0 1440 L4314 1440" stroke="#000000" stroke-width="13" />
						<g class="clef" id="clef-0000001766072779">
							<use xlink:href="#E050" x="90" y="1260" height="720px" width="720px" />
						</g>
						<g class="meterSig" id="msig-0000002013711466">
							<use xlink:href="#E082" x="771" y="900" height="720px" width="720px" />
							<use xlink:href="#E084" x="777" y="1260" height="720px" width="720px" />
						</g>
						<g class="layer" id="layer-L4F2N1">
							<g class="beam" id="beam-L5F2-L8F2">
								<polygon points="1582,352 2775,298 2775,388 1582,442 " />
								<polygon points="1582,487 2775,433 2775,523 1582,577 " />
								<g class="note" id="note-L5F2">
									<use xlink:href="#E0A4" x="1374" y="1260" height="720px" width="720px" />
									<g class="stem">
										<rect x="1582" y="370" height="868" width="18" />
									</g>
									<g class="accid" id="accid-0000000024820044" />
								</g>
								<g class="note" id="note-L6F2">
									<use xlink:href="#E0A4" x="1766" y="1170" height="720px" width="720px" />
									<g class="stem">
										<rect x="1974" y="352" height="796" width="18" />
									</g>
									<g class="accid" id="accid-0000001480423825" />
								</g>
								<g class="note" id="note-L7F2">
									<use xlink:href="#E0A4" x="2158" y="990" height="720px" width="720px" />
									<g class="stem">
										<rect x="2366" y="334" height="634" width="18" />
									</g>
									<g class="accid" id="accid-0000000976988700" />
								</g>
								<g class="note" id="note-L8F2">
									<use xlink:href="#E0A4" x="2549" y="1260" height="720px" width="720px" />
									<g class="stem">
										<rect x="2757" y="316" height="922" width="18" />
									</g>
									<g class="accid" id="accid-0000001371957296" />
								</g>
							</g>
							<g class="beam" id="beam-L9F2-L11F2">
								<polygon points="3149,676 4117,771 4117,861 3149,766 " />
								<polygon points="3716,867 4117,906 4117,996 3716,957 " />
								<g class="note" id="note-L9F2">
									<use xlink:href="#E0A4" x="2941" y="1350" height="720px" width="720px" />
									<g class="stem">
										<rect x="3149" y="694" height="634" width="18" />
									</g>
									<g class="accid" id="accid-0000001464383210" />
								</g>
								<g class="note" id="note-L10F2">
									<use xlink:href="#E0A4" x="3499" y="1440" height="720px" width="720px" />
									<g class="stem">
										<rect x="3707" y="750" height="668" width="18" />
									</g>
									<g class="accid" id="accid-0000000939287274" />
								</g>
								<g class="note" id="note-L11F2">
									<use xlink:href="#E0A4" x="3891" y="1530" height="720px" width="720px" />
									<g class="stem">
										<rect x="4099" y="789" height="719" width="18" />
									</g>
									<g class="accid" id="accid-0000000972776036" />
								</g>
							</g>
						</g>
					</g>
					<g class="staff" id="staff-L4F1N1">
						<path d="M0 2421 L4314 2421" stroke="#000000" stroke-width="13" />
						<path d="M0 2601 L4314 2601" stroke="#000000" stroke-width="13" />
						<path d="M0 2781 L4314 2781" stroke="#000000" stroke-width="13" />
						<path d="M0 2961 L4314 2961" stroke="#000000" stroke-width="13" />
						<path d="M0 3141 L4314 3141" stroke="#000000" stroke-width="13" />
						<g class="clef" id="clef-0000000106332342">
							<use xlink:href="#E062" x="90" y="2601" height="720px" width="720px" />
						</g>
						<g class="meterSig" id="msig-0000000421277690">
							<use xlink:href="#E082" x="771" y="2601" height="720px" width="720px" />
							<use xlink:href="#E084" x="777" y="2961" height="720px" width="720px" />
						</g>
						<g class="ledgerLines above">
							<path d="M2518 2241 L2797 2241" stroke="#000000" stroke-width="22" />
							<path d="M2910 2241 L3189 2241" stroke="#000000" stroke-width="22" />
						</g>
						<g class="layer" id="layer-L4F1N1">
							<g class="beam" id="beam-L5F1-L8F1">
								<polygon points="1374,3546 2567,3428 2567,3338 1374,3456 " />
								<polygon points="1374,3411 2567,3293 2567,3203 1374,3321 " />
								<g class="note" id="note-L5F1">
									<use xlink:href="#E0A4" x="1374" y="2871" height="720px" width="720px" />
									<g class="stem">
										<rect x="1374" y="2893" height="635" width="18" />
									</g>
									<g class="accid" id="accid-0000000688227433" />
								</g>
								<g class="note" id="note-L6F1">
									<use xlink:href="#E0A4" x="1766" y="2601" height="720px" width="720px" />
									<g class="stem">
										<rect x="1766" y="2623" height="865" width="18" />
									</g>
									<g class="accid" id="accid-0000000593283459" />
								</g>
								<g class="note" id="note-L7F1">
									<use xlink:href="#E0A4" x="2158" y="2511" height="720px" width="720px" />
									<g class="stem">
										<rect x="2158" y="2533" height="916" width="18" />
									</g>
									<g class="accid" id="accid-0000002016029420" />
								</g>
								<g class="note" id="note-L8F1">
									<use xlink:href="#E0A4" x="2549" y="2241" height="720px" width="720px" />
									<g class="stem">
										<rect x="2549" y="2263" height="1147" width="18" />
									</g>
									<g class="accid" id="accid-0000001585595230" />
								</g>
							</g>
							<g class="beam" id="beam-L9F1-L11F1">
								<polygon points="2941,3181 3909,3276 3909,3186 2941,3091 " />
								<polygon points="3508,3102 3909,3141 3909,3051 3508,3012 " />
								<g class="note" id="note-L9F1">
									<use xlink:href="#E0A4" x="2941" y="2241" height="720px" width="720px" />
									<g class="stem">
										<rect x="2941" y="2263" height="900" width="18" />
									</g>
									<g class="accid" id="accid-0000001363776272" />
								</g>
								<g class="note" id="note-L10F1">
									<use xlink:href="#E0A4" x="3499" y="2511" height="720px" width="720px" />
									<g class="stem">
										<rect x="3499" y="2533" height="686" width="18" />
									</g>
									<g class="accid" id="accid-0000000732319970" />
								</g>
								<g class="note" id="note-L11F1">
									<use xlink:href="#E0A4" x="3891" y="2601" height="720px" width="720px" />
									<g class="stem">
										<rect x="3891" y="2623" height="635" width="18" />
									</g>
									<g class="accid" id="accid-0000000143601927" />
								</g>
							</g>
						</g>
					</g>
					<g class="tie" id="tie-L8F1-L9F1">
						<path d="M2662,2106 C2760,1964 2956,1964 3054,2106 C2956,2008 2760,2008 2662,2106" stroke="#000000" stroke-linecap="round" stroke-linejoin="round" stroke-width="9" />
					</g>
					<g class="mNum autogenerated" id="mnum-0000001039672683" />
					<g class="barLineAttr" id="bline-0000001422422523">
						<path d="M4301 3141 L4301 720" stroke="#000000" stroke-width="27" />
					</g>
				</g>
				<g class="measure" id="measure-L12">
					<g class="staff" id="staff-L12F2N1">
						<path d="M4314 720 L7703 720" stroke="#000000" stroke-width="13" />
						<path d="M4314 900 L7703 900" stroke="#000000" stroke-width="13" />
						<path d="M4314 1080 L7703 1080" stroke="#000000" stroke-width="13" />
						<path d="M4314 1260 L7703 1260" stroke="#000000" stroke-width="13" />
						<path d="M4314 1440 L7703 1440" stroke="#000000" stroke-width="13" />
						<g class="ledgerLines below">
							<path d="M4507 1620 L4786 1620" stroke="#000000" stroke-width="22" />
						</g>
						<g class="layer" id="layer-L12F2N1">
							<g class="beam" id="beam-L13F2-L16F2">
								<polygon points="4746,395 5939,277 5939,367 4746,485 " />
								<polygon points="4746,530 5939,412 5939,502 4746,620 " />
								<g class="note" id="note-L13F2">
									<use xlink:href="#E0A4" x="4538" y="1620" height="720px" width="720px" />
									<g class="stem">
										<rect x="4746" y="413" height="1185" width="18" />
									</g>
									<g class="accid" id="accid-0000001745828078" />
								</g>
								<g class="note" id="note-L14F2">
									<use xlink:href="#E0A4" x="4930" y="1350" height="720px" width="720px" />
									<g class="stem">
										<rect x="5138" y="374" height="954" width="18" />
									</g>
									<g class="accid" id="accid-0000001843303561" />
								</g>
								<g class="note" id="note-L15F2">
									<use xlink:href="#E0A4" x="5322" y="990" height="720px" width="720px" />
									<g class="stem">
										<rect x="5530" y="334" height="634" width="18" />
									</g>
									<g class="accid" id="accid-0000000623547458" />
								</g>
								<g class="note" id="note-L16F2">
									<use xlink:href="#E0A4" x="5713" y="1080" height="720px" width="720px" />
									<g class="stem">
										<rect x="5921" y="295" height="763" width="18" />
									</g>
									<g class="accid" id="accid-0000000918293751" />
								</g>
							</g>
							<g class="beam" id="beam-L17F2-L20F2">
								<polygon points="6313,434 7507,316 7507,406 6313,524 " />
								<polygon points="7106,490 7507,451 7507,541 7106,580 " />
								<g class="note" id="note-L17F2">
									<use xlink:href="#E0A4" x="6105" y="1260" height="720px" width="720px" />
									<g class="stem">
										<rect x="6313" y="452" height="786" width="18" />
									</g>
									<g class="accid" id="accid-0000001275692508" />
								</g>
								<g class="note" id="note-L19F2">
									<use xlink:href="#E0A4" x="6889" y="1350" height="720px" width="720px" />
									<g class="stem">
										<rect x="7097" y="373" height="955" width="18" />
									</g>
									<g class="accid" id="accid-0000001832079302" />
								</g>
								<g class="note" id="note-L20F2">
									<use xlink:href="#E0A4" x="7281" y="990" height="720px" width="720px" />
									<g class="stem">
										<rect x="7489" y="334" height="634" width="18" />
									</g>
									<g class="accid" id="accid-0000000188883825" />
								</g>
							</g>
						</g>
					</g>
					<g class="staff" id="staff-L12F1N1">
						<path d="M4314 2421 L7703 2421" stroke="#000000" stroke-width="13" />
						<path d="M4314 2601 L7703 2601" stroke="#000000" stroke-width="13" />
						<path d="M4314 2781 L7703 2781" stroke="#000000" stroke-width="13" />
						<path d="M4314 2961 L7703 2961" stroke="#000000" stroke-width="13" />
						<path d="M4314 3141 L7703 3141" stroke="#000000" stroke-width="13" />
						<g class="layer" id="layer-L12F1N1">
							<g class="beam" id="beam-L13F1-L14F1">
								<polygon points="4538,3416 4948,3456 4948,3366 4538,3326 " />
								<polygon points="4538,3281 4696,3296 4696,3206 4538,3191 " />
								<g class="note" id="note-L13F1">
									<use xlink:href="#E0A4" x="4538" y="2691" height="720px" width="720px" />
									<g class="stem">
										<rect x="4538" y="2713" height="685" width="18" />
									</g>
									<g class="accid" id="accid-0000001368148139" />
								</g>
								<g class="note" id="note-L14F1">
									<use xlink:href="#E0A4" x="4930" y="2781" height="720px" width="720px" />
									<g class="dots" id="dots-0000002025689596">
										<ellipse cx="5246" cy="2691" rx="36" ry="36" />
									</g>
									<g class="stem">
										<rect x="4930" y="2803" height="635" width="18" />
									</g>
									<g class="accid" id="accid-0000000120794151" />
								</g>
							</g>
							<g class="beam" id="beam-L17F1-L20F1">
								<polygon points="6105,3546 7299,3428 7299,3338 6105,3456 " />
								<polygon points="6105,3411 7299,3293 7299,3203 6105,3321 " />
								<g class="note" id="note-L17F1">
									<use xlink:href="#E0A4" x="6105" y="2871" height="720px" width="720px" />
									<g class="stem">
										<rect x="6105" y="2893" height="635" width="18" />
									</g>
									<g class="accid" id="accid-0000000828135182" />
								</g>
								<g class="note" id="note-L18F1">
									<use xlink:href="#E0A4" x="6497" y="2691" height="720px" width="720px" />
									<g class="stem">
										<rect x="6497" y="2713" height="775" width="18" />
									</g>
									<g class="accid" id="accid-0000000265898028" />
								</g>
								<g class="note" id="note-L19F1">
									<use xlink:href="#E0A4" x="6889" y="2421" height="720px" width="720px" />
									<g class="stem">
										<rect x="6889" y="2443" height="1006" width="18" />
									</g>
									<g class="accid" id="accid-0000001019517186" />
								</g>
								<g class="note" id="note-L20F1">
									<use xlink:href="#E0A4" x="7281" y="2511" height="720px" width="720px" />
									<g class="stem">
										<rect x="7281" y="2533" height="877" width="18" />
									</g>
									<g class="accid" id="accid-0000001332266669" />
								</g>
							</g>
						</g>
					</g>
					<g class="mNum autogenerated" id="mnum-0000000246297552" />
					<g class="barLineAttr" id="bline-0000000022147696">
						<path d="M7690 3141 L7690 720" stroke="#000000" stroke-width="27" />
					</g>
				</g>
				<g class="measure" id="measure-L21">
					<g class="staff" id="staff-L21F2N1">
						<path d="M7703 720 L11187 720" stroke="#000000" stroke-width="13" />
						<path d="M7703 900 L11187 900" stroke="#000000" stroke-width="13" />
						<path d="M7703 1080 L11187 1080" stroke="#000000" stroke-width="13" />
						<path d="M7703 1260 L11187 1260" stroke="#000000" stroke-width="13" />
						<path d="M7703 1440 L11187 1440" stroke="#000000" stroke-width="13" />
						<g class="layer" id="layer-L21F2N1">
							<g class="beam" id="beam-L22F2-L25F2">
								<polygon points="8135,369 9571,295 9571,385 8135,459 " />
								<polygon points="8135,504 9571,430 9571,520 8135,594 " />
								<g class="note" id="note-L22F2">
									<use xlink:href="#E0A4" x="7927" y="1260" height="720px" width="720px" />
									<g class="stem">
										<rect x="8135" y="387" height="851" width="18" />
									</g>
									<g class="accid" id="accid-0000001144009408" />
								</g>
								<g class="note" id="note-L23F2">
									<use xlink:href="#E0A4" x="8562" y="1170" height="720px" width="720px" />
									<g class="stem">
										<rect x="8770" y="354" height="794" width="18" />
									</g>
									<g class="accid" id="accid-0000000307719443">
										<use xlink:href="#E260" x="8366" y="1170" height="720px" width="720px" />
									</g>
								</g>
								<g class="note" id="note-L24F2">
									<use xlink:href="#E0A4" x="8954" y="990" height="720px" width="720px" />
									<g class="stem">
										<rect x="9162" y="334" height="634" width="18" />
									</g>
									<g class="accid" id="accid-0000001934597409" />
								</g>
								<g class="note" id="note-L25F2">
									<use xlink:href="#E0A4" x="9345" y="1260" height="720px" width="720px" />
									<g class="stem">
										<rect x="9553" y="313" height="925" width="18" />
									</g>
									<g class="accid" id="accid-0000000273504233" />
								</g>
							</g>
							<g class="beam" id="beam-L26F2-L28F2">
								<polygon points="9945,676 10990,779 10990,869 9945,766 " />
								<polygon points="10589,875 10990,914 10990,1004 10589,965 " />
								<g class="note" id="note-L26F2">
									<use xlink:href="#E0A4" x="9737" y="1350" height="720px" width="720px" />
									<g class="stem">
										<rect x="9945" y="694" height="634" width="18" />
									</g>
									<g class="accid" id="accid-0000000209745671" />
								</g>
								<g class="note" id="note-L27F2">
									<use xlink:href="#E0A4" x="10372" y="1440" height="720px" width="720px" />
									<g class="stem">
										<rect x="10580" y="758" height="660" width="18" />
									</g>
									<g class="accid" id="accid-0000001365679872">
										<use xlink:href="#E260" x="10176" y="1440" height="720px" width="720px" />
									</g>
								</g>
								<g class="note" id="note-L28F2">
									<use xlink:href="#E0A4" x="10764" y="1530" height="720px" width="720px" />
									<g class="stem">
										<rect x="10972" y="797" height="711" width="18" />
									</g>
									<g class="accid" id="accid-0000001448525805" />
								</g>
							</g>
						</g>
					</g>
					<g class="staff" id="staff-L21F1N1">
						<path d="M7703 2421 L11187 2421" stroke="#000000" stroke-width="13" />
						<path d="M7703 2601 L11187 2601" stroke="#000000" stroke-width="13" />
						<path d="M7703 2781 L11187 2781" stroke="#000000" stroke-width="13" />
						<path d="M7703 2961 L11187 2961" stroke="#000000" stroke-width="13" />
						<path d="M7703 3141 L11187 3141" stroke="#000000" stroke-width="13" />
						<g class="ledgerLines above">
							<path d="M9314 2241 L9593 2241" stroke="#000000" stroke-width="22" />
							<path d="M9706 2241 L9985 2241" stroke="#000000" stroke-width="22" />
						</g>
						<g class="layer" id="layer-L21F1N1">
							<g class="beam" id="beam-L22F1-L25F1">
								<polygon points="7927,3546 9363,3404 9363,3314 7927,3456 " />
								<polygon points="7927,3411 9363,3269 9363,3179 7927,3321 " />
								<g class="note" id="note-L22F1">
									<use xlink:href="#E0A4" x="7927" y="2871" height="720px" width="720px" />
									<g class="stem">
										<rect x="7927" y="2893" height="635" width="18" />
									</g>
									<g class="accid" id="accid-0000000966557773" />
								</g>
								<g class="note" id="note-L23F1">
									<use xlink:href="#E0A4" x="8562" y="2601" height="720px" width="720px" />
									<g class="stem">
										<rect x="8562" y="2623" height="841" width="18" />
									</g>
									<g class="accid" id="accid-0000001230517940" />
								</g>
								<g class="note" id="note-L24F1">
									<use xlink:href="#E0A4" x="8954" y="2511" height="720px" width="720px" />
									<g class="stem">
										<rect x="8954" y="2533" height="892" width="18" />
									</g>
									<g class="accid" id="accid-0000000210636684" />
								</g>
								<g class="note" id="note-L25F1">
									<use xlink:href="#E0A4" x="9345" y="2241" height="720px" width="720px" />
									<g class="stem">
										<rect x="9345" y="2263" height="1123" width="18" />
									</g>
									<g class="accid" id="accid-0000001106321415" />
								</g>
							</g>
							<g class="beam" id="beam-L26F1-L28F1">
								<polygon points="9737,3173 10782,3276 10782,3186 9737,3083 " />
								<polygon points="10381,3102 10782,3141 10782,3051 10381,3012 " />
								<g class="note" id="note-L26F1">
									<use xlink:href="#E0A4" x="9737" y="2241" height="720px" width="720px" />
									<g class="stem">
										<rect x="9737" y="2263" height="892" width="18" />
									</g>
									<g class="accid" id="accid-0000000498946492" />
								</g>
								<g class="note" id="note-L27F1">
									<use xlink:href="#E0A4" x="10372" y="2511" height="720px" width="720px" />
									<g class="stem">
										<rect x="10372" y="2533" height="686" width="18" />
									</g>
									<g class="accid" id="accid-0000002060450409" />
								</g>
								<g class="note" id="note-L28F1">
									<use xlink:href="#E0A4" x="10764" y="2601" height="720px" width="720px" />
									<g class="stem">
										<rect x="10764" y="2623" height="635" width="18" />
									</g>
									<g class="accid" id="accid-0000000812913258" />
								</g>
							</g>
						</g>
					</g>
					<g class="tie" id="tie-L25F1-L26F1">
						<path d="M9458,2106 C9556,1964 9752,1964 9850,2106 C9752,2008 9556,2008 9458,2106" stroke="#000000" stroke-linecap="round" stroke-linejoin="round" stroke-width="9" />
					</g>
					<g class="mNum autogenerated" id="mnum-0000000462045003" />
					<g class="barLineAttr" id="bline-0000001863190014">
						<path d="M11174 3141 L11174 720" stroke="#000000" stroke-width="27" />
					</g>
				</g>
				<g class="measure" id="measure-L29">
					<g class="staff" id="staff-L29F2N1">
						<path d="M11187 720 L15305 720" stroke="#000000" stroke-width="13" />
						<path d="M11187 900 L15305 900" stroke="#000000" stroke-width="13" />
						<path d="M11187 1080 L15305 1080" stroke="#000000" stroke-width="13" />
						<path d="M11187 1260 L15305 1260" stroke="#000000" stroke-width="13" />
						<path d="M11187 1440 L15305 1440" stroke="#000000" stroke-width="13" />
						<g class="ledgerLines below">
							<path d="M11623 1620 L11902 1620" stroke="#000000" stroke-width="22" />
						</g>
						<g class="layer" id="layer-L29F2N1">
							<g class="beam" id="beam-L30F2-L33F2">
								<polygon points="11862,395 13299,253 13299,343 11862,485 " />
								<polygon points="11862,530 13299,388 13299,478 11862,620 " />
								<g class="note" id="note-L30F2">
									<use xlink:href="#E0A4" x="11654" y="1620" height="720px" width="720px" />
									<g class="stem">
										<rect x="11862" y="413" height="1185" width="18" />
									</g>
									<g class="accid" id="accid-0000001980091509" />
								</g>
								<g class="note" id="note-L31F2">
									<use xlink:href="#E0A4" x="12046" y="1350" height="720px" width="720px" />
									<g class="stem">
										<rect x="12254" y="374" height="954" width="18" />
									</g>
									<g class="accid" id="accid-0000000891043262" />
								</g>
								<g class="note" id="note-L32F2">
									<use xlink:href="#E0A4" x="12438" y="990" height="720px" width="720px" />
									<g class="stem">
										<rect x="12646" y="334" height="634" width="18" />
									</g>
									<g class="accid" id="accid-0000001768134465" />
								</g>
								<g class="note" id="note-L33F2">
									<use xlink:href="#E0A4" x="13073" y="1080" height="720px" width="720px" />
									<g class="stem">
										<rect x="13281" y="271" height="787" width="18" />
									</g>
									<g class="accid" id="accid-0000001429795873">
										<use xlink:href="#E260" x="12877" y="1080" height="720px" width="720px" />
									</g>
								</g>
							</g>
							<g class="beam" id="beam-L34F2-L37F2">
								<polygon points="13672,458 15109,316 15109,406 13672,548 " />
								<polygon points="14708,490 15109,451 15109,541 14708,580 " />
								<g class="note" id="note-L34F2">
									<use xlink:href="#E0A4" x="13464" y="1260" height="720px" width="720px" />
									<g class="stem">
										<rect x="13672" y="476" height="762" width="18" />
									</g>
									<g class="accid" id="accid-0000000625548692" />
								</g>
								<g class="note" id="note-L36F2">
									<use xlink:href="#E0A4" x="14491" y="1350" height="720px" width="720px" />
									<g class="stem">
										<rect x="14699" y="373" height="955" width="18" />
									</g>
									<g class="accid" id="accid-0000000690482031" />
								</g>
								<g class="note" id="note-L37F2">
									<use xlink:href="#E0A4" x="14883" y="990" height="720px" width="720px" />
									<g class="stem">
										<rect x="15091" y="334" height="634" width="18" />
									</g>
									<g class="accid" id="accid-0000000236955806" />
								</g>
							</g>
						</g>
					</g>
					<g class="staff" id="staff-L29F1N1">
						<path d="M11187 2421 L15305 2421" stroke="#000000" stroke-width="13" />
						<path d="M11187 2601 L15305 2601" stroke="#000000" stroke-width="13" />
						<path d="M11187 2781 L15305 2781" stroke="#000000" stroke-width="13" />
						<path d="M11187 2961 L15305 2961" stroke="#000000" stroke-width="13" />
						<path d="M11187 3141 L15305 3141" stroke="#000000" stroke-width="13" />
						<g class="layer" id="layer-L29F1N1">
							<g class="beam" id="beam-L30F1-L31F1">
								<polygon points="11654,3416 12064,3456 12064,3366 11654,3326 " />
								<polygon points="11654,3281 11812,3296 11812,3206 11654,3191 " />
								<g class="note" id="note-L30F1">
									<use xlink:href="#E0A4" x="11654" y="2691" height="720px" width="720px" />
									<g class="stem">
										<rect x="11654" y="2713" height="685" width="18" />
									</g>
									<g class="accid" id="accid-0000000325115950">
										<use xlink:href="#E260" x="11458" y="2691" height="720px" width="720px" />
									</g>
								</g>
								<g class="note" id="note-L31F1">
									<use xlink:href="#E0A4" x="12046" y="2781" height="720px" width="720px" />
									<g class="dots" id="dots-0000001193799502">
										<ellipse cx="12362" cy="2691" rx="36" ry="36" />
									</g>
									<g class="stem">
										<rect x="12046" y="2803" height="635" width="18" />
									</g>
									<g class="accid" id="accid-0000002046689846" />
								</g>
							</g>
							<g class="beam" id="beam-L34F1-L37F1">
								<polygon points="13464,3546 14901,3404 14901,3314 13464,3456 " />
								<polygon points="13464,3411 14901,3269 14901,3179 13464,3321 " />
								<g class="note" id="note-L34F1">
									<use xlink:href="#E0A4" x="13464" y="2871" height="720px" width="720px" />
									<g class="stem">
										<rect x="13464" y="2893" height="635" width="18" />
									</g>
									<g class="accid" id="accid-0000001116976978" />
								</g>
								<g class="note" id="note-L35F1">
									<use xlink:href="#E0A4" x="13856" y="2691" height="720px" width="720px" />
									<g class="stem">
										<rect x="13856" y="2713" height="775" width="18" />
									</g>
									<g class="accid" id="accid-0000000199625915" />
								</g>
								<g class="note" id="note-L36F1">
									<use xlink:href="#E0A4" x="14491" y="2421" height="720px" width="720px" />
									<g class="stem">
										<rect x="14491" y="2443" height="982" width="18" />
									</g>
									<g class="accid" id="accid-0000000676791738">
										<use xlink:href="#E260" x="14295" y="2421" height="720px" width="720px" />
									</g>
								</g>
								<g class="note" id="note-L37F1">
									<use xlink:href="#E0A4" x="14883" y="2511" height="720px" width="720px" />
									<g class="stem">
										<rect x="14883" y="2533" height="853" width="18" />
									</g>
									<g class="accid" id="accid-0000000537062626" />
								</g>
							</g>
						</g>
					</g>
					<g class="mNum autogenerated" id="mnum-0000001540223828" />
					<g class="barLineAttr" id="bline-0000000577057113">
						<path d="M15292 3141 L15292 720" stroke="#000000" stroke-width="27" />
					</g>
				</g>
				<g class="measure" id="measure-L38">
					<g class="staff" id="staff-L38F2N1">
						<path d="M15305 720 L20003 720" stroke="#000000" stroke-width="13" />
						<path d="M15305 900 L20003 900" stroke="#000000" stroke-width="13" />
						<path d="M15305 1080 L20003 1080" stroke="#000000" stroke-width="13" />
						<path d="M15305 1260 L20003 1260" stroke="#000000" stroke-width="13" />
						<path d="M15305 1440 L20003 1440" stroke="#000000" stroke-width="13" />
						<g class="ledgerLines below">
							<path d="M18914 1620 L19193 1620" stroke="#000000" stroke-width="22" />
							<path d="M18914 1800 L19193 1800" stroke="#000000" stroke-width="22" />
							<path d="M18914 1980 L19193 1980" stroke="#000000" stroke-width="22" />
							<path d="M18914 2160 L19193 2160" stroke="#000000" stroke-width="22" />
						</g>
						<g class="layer" id="layer-L38F2N1">
							<g class="beam" id="beam-L39F2-L42F2">
								<polygon points="15980,424 17901,397 17901,487 15980,514 " />
								<polygon points="15980,559 17901,532 17901,622 15980,649 " />
								<g class="note" id="note-L39F2">
									<use xlink:href="#E0A4" x="15772" y="1260" height="720px" width="720px" />
									<g class="stem">
										<rect x="15980" y="442" height="796" width="18" />
									</g>
									<g class="accid" id="accid-0000001001244256">
										<use xlink:href="#E260" x="15576" y="1260" height="720px" width="720px" />
									</g>
								</g>
								<g class="note" id="note-L40F2">
									<use xlink:href="#E0A4" x="16407" y="1170" height="720px" width="720px" />
									<g class="stem">
										<rect x="16615" y="433" height="715" width="18" />
									</g>
									<g class="accid" id="accid-0000001772297006">
										<use xlink:href="#E260" x="16211" y="1170" height="720px" width="720px" />
									</g>
								</g>
								<g class="note" id="note-L41F2">
									<use xlink:href="#E0A4" x="17042" y="1080" height="720px" width="720px" />
									<g class="stem">
										<rect x="17250" y="424" height="634" width="18" />
									</g>
									<g class="accid" id="accid-0000000219034378">
										<use xlink:href="#E260" x="16846" y="1080" height="720px" width="720px" />
									</g>
								</g>
								<g class="note" id="note-L42F2">
									<use xlink:href="#E0A4" x="17675" y="1260" height="720px" width="720px" />
									<g class="stem">
										<rect x="17883" y="415" height="823" width="18" />
									</g>
									<g class="accid" id="accid-0000001308749963" />
								</g>
							</g>
							<g class="beam" id="beam-L43F2-L45F2">
								<polygon points="18518,766 19806,856 19806,946 18518,856 " />
								<polygon points="19162,946 19806,991 19806,1081 19162,1036 " />
								<g class="note" id="note-L43F2">
									<use xlink:href="#E0A4" x="18310" y="1440" height="720px" width="720px" />
									<g class="stem">
										<rect x="18518" y="784" height="634" width="18" />
									</g>
									<g class="accid" id="accid-0000000999337560">
										<use xlink:href="#E260" x="18114" y="1440" height="720px" width="720px" />
									</g>
								</g>
								<g class="note" id="note-L44F2">
									<use xlink:href="#E0A4" x="18945" y="2250" height="720px" width="720px" />
									<g class="stem">
										<rect x="19153" y="829" height="1399" width="18" />
									</g>
									<g class="accid" id="accid-0000000538564596">
										<use xlink:href="#E260" x="18749" y="2250" height="720px" width="720px" />
									</g>
								</g>
								<g class="note" id="note-L45F2">
									<use xlink:href="#E0A4" x="19580" y="1530" height="720px" width="720px" />
									<g class="stem">
										<rect x="19788" y="874" height="634" width="18" />
									</g>
									<g class="accid" id="accid-0000001567787439">
										<use xlink:href="#E260" x="19384" y="1530" height="720px" width="720px" />
									</g>
								</g>
							</g>
						</g>
					</g>
					<g class="staff" id="staff-L38F1N1">
						<path d="M15305 2421 L20003 2421" stroke="#000000" stroke-width="13" />
						<path d="M15305 2601 L20003 2601" stroke="#000000" stroke-width="13" />
						<path d="M15305 2781 L20003 2781" stroke="#000000" stroke-width="13" />
						<path d="M15305 2961 L20003 2961" stroke="#000000" stroke-width="13" />
						<path d="M15305 3141 L20003 3141" stroke="#000000" stroke-width="13" />
						<g class="ledgerLines above">
							<path d="M17644 2241 L17923 2241" stroke="#000000" stroke-width="22" />
							<path d="M18279 2241 L18558 2241" stroke="#000000" stroke-width="22" />
						</g>
						<g class="layer" id="layer-L38F1N1">
							<g class="beam" id="beam-L39F1-L42F1">
								<polygon points="15772,3546 17693,3355 17693,3265 15772,3456 " />
								<polygon points="15772,3411 17693,3220 17693,3130 15772,3321 " />
								<g class="note" id="note-L39F1">
									<use xlink:href="#E0A4" x="15772" y="2871" height="720px" width="720px" />
									<g class="stem">
										<rect x="15772" y="2893" height="635" width="18" />
									</g>
									<g class="accid" id="accid-0000001558063316">
										<use xlink:href="#E262" x="15577" y="2871" height="720px" width="720px" />
									</g>
								</g>
								<g class="note" id="note-L40F1">
									<use xlink:href="#E0A4" x="16407" y="2691" height="720px" width="720px" />
									<g class="stem">
										<rect x="16407" y="2713" height="751" width="18" />
									</g>
									<g class="accid" id="accid-0000000802400990">
										<use xlink:href="#E262" x="16212" y="2691" height="720px" width="720px" />
									</g>
								</g>
								<g class="note" id="note-L41F1">
									<use xlink:href="#E0A4" x="17042" y="2601" height="720px" width="720px" />
									<g class="stem">
										<rect x="17042" y="2623" height="778" width="18" />
									</g>
									<g class="accid" id="accid-0000000920168513">
										<use xlink:href="#E262" x="16847" y="2601" height="720px" width="720px" />
									</g>
								</g>
								<g class="note" id="note-L42F1">
									<use xlink:href="#E0A4" x="17675" y="2241" height="720px" width="720px" />
									<g class="stem">
										<rect x="17675" y="2263" height="1074" width="18" />
									</g>
									<g class="accid" id="accid-0000001973551027">
										<use xlink:href="#E262" x="17480" y="2241" height="720px" width="720px" />
									</g>
								</g>
							</g>
							<g class="beam" id="beam-L43F1-L45F1">
								<polygon points="18310,3239 19598,3366 19598,3276 18310,3149 " />
								<polygon points="18954,3168 19598,3231 19598,3141 18954,3078 " />
								<g class="note" id="note-L43F1">
									<use xlink:href="#E0A4" x="18310" y="2241" height="720px" width="720px" />
									<g class="stem">
										<rect x="18310" y="2263" height="958" width="18" />
									</g>
									<g class="accid" id="accid-0000001341476598" />
								</g>
								<g class="note" id="note-L44F1">
									<use xlink:href="#E0A4" x="18945" y="2601" height="720px" width="720px" />
									<g class="stem">
										<rect x="18945" y="2623" height="662" width="18" />
									</g>
									<g class="accid" id="accid-0000001174113894" />
								</g>
								<g class="note" id="note-L45F1">
									<use xlink:href="#E0A4" x="19580" y="2691" height="720px" width="720px" />
									<g class="stem">
										<rect x="19580" y="2713" height="635" width="18" />
									</g>
									<g class="accid" id="accid-0000001384955038" />
								</g>
							</g>
						</g>
					</g>
					<g class="tie" id="tie-L42F1-L43F1">
						<path d="M17923,2196 C18014,2054 18196,2054 18288,2196 C18196,2098 18014,2098 17923,2196" stroke="#000000" stroke-linecap="round" stroke-linejoin="round" stroke-width="9" />
					</g>
					<g class="mNum autogenerated" id="mnum-0000001246658327" />
					<g class="barLineAttr" id="bline-0000001183204781">
						<path d="M19990 3141 L19990 720" stroke="#000000" stroke-width="27" />
					</g>
				</g>
			</g>
		</g>
	</svg>
</svg>
