<?xml version="1.0" encoding="UTF-8" standalone="no"?>
<svg width="2100.00px" height="450.00px" version="1.1" xmlns="http://www.w3.org/2000/svg" xmlns:xlink="http://www.w3.org/1999/xlink" overflow="visible">
	<desc>Engraved by Verovio 2.0.0-dev-0f0381c</desc>
	<defs>
		<symbol id="E050" viewBox="0 0 1000 1000" overflow="inherit">
			<path transform="scale(1,-1)" d="M441 -245c-23 -4 -48 -6 -76 -6c-59 0 -102 7 -130 20c-88 42 -150 93 -187 154c-26 44 -43 103 -48 176c-4 60 11 123 44 189c29 57 65 106 110 148s96 85 153 127c-3 16 -8 46 -13 92c-4 43 -5 73 -5 89c0 117 16 172 69 257c34 54 64 82 89 82c21 0 43 -30 69 -92 s39 -115 41 -159c2 -120 -19 -173 -67 -256c-13 -20 -63 -90 -98 -118c-13 -9 -25 -19 -37 -29l31 -181c8 1 18 2 28 2c58 0 102 -12 133 -35c59 -43 92 -104 98 -184c11 -135 -80 -229 -180 -270c8 -57 17 -110 25 -162c5 -31 6 -58 6 -80c0 -30 -5 -53 -14 -70 c-35 -64 -88 -99 -158 -103c-42 -3 -83 6 -124 26c-50 24 -77 59 -80 105c-2 34 5 63 20 87c18 28 45 42 79 44c51 4 99 -40 103 -87c4 -56 -30 -94 -105 -115c17 -24 51 -36 102 -36c62 0 116 43 140 85c9 16 13 41 13 74c0 20 -1 42 -5 67c-8 53 -18 106 -26 159zM461 939 c-95 0 -135 -175 -135 -286c0 -24 2 -48 5 -71c50 39 92 82 127 128c43 57 63 106 60 148c-4 54 -23 82 -57 81zM406 119l54 -326c80 27 116 88 109 184c-7 99 -62 146 -163 142zM382 117c-74 -2 -132 -50 -128 -127c2 -46 43 -99 75 -115c-3 -2 -7 -5 -10 -10 c-70 33 -116 88 -123 172c-5 73 42 135 88 170c23 17 49 29 78 36l-29 170c-21 -13 -52 -37 -92 -73c-50 -44 -86 -84 -109 -119c-49 -75 -71 -140 -67 -195c5 -68 35 -127 93 -176s125 -73 203 -73c25 0 50 3 75 9c-19 111 -36 221 -54 331z" />
		</symbol>
		<symbol id="E082" viewBox="0 0 1000 1000" overflow="inherit">
			<path transform="scale(1,-1)" d="M104 -185c-18 0 -55 -14 -65 -65h-36l-3 29c0 25 6 46 18 64c11 19 22 30 39 43l121 82l37 29c15 11 27 29 38 54c12 24 18 47 18 70c0 40 -19 88 -94 88c-25 0 -32 0 -50 -8c-14 -5 -23 -12 -26 -22c3 -9 7 -15 10 -18l24 -17c12 -7 17 -11 27 -21c5 -7 7 -16 7 -27 c0 -12 0 -57 -79 -74c-30 0 -76 26 -76 94c0 66 80 135 196 135c72 0 182 -32 182 -150c0 -53 -32 -95 -113 -133l-91 -41c-26 -11 -45 -23 -57 -37l49 7c84 0 115 -41 148 -41c20 0 33 20 39 61h35c0 -152 -68 -168 -114 -168c-17 0 -55 0 -69 7v0l-28 17 c-49 37 -69 40 -87 42z" />
		</symbol>
		<symbol id="E084" viewBox="0 0 1000 1000" overflow="inherit">
			<path transform="scale(1,-1)" d="M0 -78c84 97 114 180 134 329h170c-13 -32 -82 -132 -99 -151l-84 -97c-33 -36 -59 -63 -80 -81h162v102l127 123v-225h57v-39h-57v-34c0 -43 19 -65 57 -65v-34h-244v36c48 0 60 26 60 70v27h-203v39z" />
		</symbol>
		<symbol id="E4E7" viewBox="0 0 1000 1000" overflow="inherit">
			<path transform="scale(1,-1)" d="M133 -111c-16 38 -21 43 -64 51c-37 -4 -60 -25 -68 -60c0 -32 18 -52 55 -58c8 -6 22 -10 43 -10c31 0 62 7 82 20l-108 -324h37c72 220 143 439 215 659h-4l-10 -2l-7 -1c-15 -35 -27 -52 -59 -71c-26 -15 -56 -27 -88 -29c-11 0 -20 2 -26 6c29 3 56 25 51 56 c-15 35 -19 42 -64 48c-38 -4 -60 -23 -68 -58c0 -32 18 -52 55 -59c7 -5 22 -8 45 -8c48 0 76 7 112 25l-66 -197c-21 -23 -50 -47 -90 -47c-7 0 -15 1 -25 4c31 5 52 22 52 55z" />
		</symbol>
		<symbol id="E0A4" viewBox="0 0 1000 1000" overflow="inherit">
			<path transform="scale(1,-1)" d="M0 -39c0 68 73 172 200 172c66 0 114 -37 114 -95c0 -84 -106 -171 -218 -171c-64 0 -96 30 -96 94z" />
		</symbol>
		<symbol id="E062" viewBox="0 0 1000 1000" overflow="inherit">
			<path transform="scale(1,-1)" d="M158 96c51 0 73 -14 88 -49l16 -39c0 -17 -2 -30 -7 -40c-3 -11 -10 -21 -19 -31c-17 -18 -49 -43 -84 -43c-55 0 -77 13 -112 44c-24 21 -35 55 -35 100c0 46 14 81 32 112c30 52 71 79 137 93l36 6l26 2c154 0 235 -68 274 -182c11 -32 18 -68 18 -107 c0 -103 -26 -182 -68 -250c-89 -145 -234 -230 -412 -288l-30 -5c-9 0 -14 3 -14 8c3 10 5 11 10 16c35 15 70 30 96 44l78 43c96 57 162 136 197 258c9 33 17 60 22 100c3 22 5 35 6 39c-7 69 -16 115 -23 140s-4 22 -16 40c-8 12 -19 23 -31 34c-24 21 -62 44 -118 44 c-48 0 -84 -8 -113 -28c-28 -19 -42 -44 -42 -73v-16c2 -5 3 -9 4 -11c24 22 52 39 84 39zM585 -118c0 32 23 58 57 58c18 0 33 -6 40 -18c9 -15 16 -18 16 -40c0 -9 -2 -16 -5 -21c-6 -19 -27 -37 -51 -37c-34 0 -57 26 -57 58zM642 177c31 0 56 -27 56 -58 c0 -30 -25 -58 -56 -58l-23 3c-19 7 -34 32 -34 55l3 23c9 20 28 35 54 35z" />
		</symbol>
		<symbol id="E260" viewBox="0 0 1000 1000" overflow="inherit">
			<path transform="scale(1,-1)" d="M20 110c32 16 54 27 93 27c26 0 35 -3 54 -13c13 -7 24 -20 27 -38l4 -25c0 -28 -16 -57 -45 -89c-23 -25 -39 -44 -65 -68l-88 -79v644h20v-359zM90 106c-32 0 -48 -10 -70 -29v-194c31 31 54 59 71 84c21 32 32 59 32 84c0 9 1 16 1 20c0 14 -3 21 -11 30l-8 3z" />
		</symbol>
		<symbol id="E262" viewBox="0 0 1000 1000" overflow="inherit">
			<path transform="scale(1,-1)" d="M136 186v169h17v-164l44 14v-91l-44 -14v-165l44 12v-91l-44 -13v-155h-17v150l-76 -22v-155h-17v149l-43 -13v90l43 14v167l-43 -14v92l43 13v169h17v-163zM60 73v-167l76 22v168z" />
		</symbol>
	</defs>
	<style type="text/css">g.page-margin{font-family:Times;} g.tempo{font-weight:bold;} g.dir, g.dynam, g.mNum{font-style:italic;} g.label{font-weight:normal;}</style>
	<svg class="definition-scale" viewBox="0 0 21000 4500">
		<g class="page-margin" transform="translate(500, 500)">
			<g class="system" id="system-0000000773673615">
				<path d="M13 720 L13 2880" stroke="#000000" stroke-width="27" />
				<path d="M-32,2862 C-392,2322 58,1980 -212,1800 C121,1980 -329,2322 -32,2862" stroke="#000000" stroke-linecap="round" stroke-linejoin="round" stroke-width="18" />
				<path d="M-32,738 C-329,1278 121,1620 -212,1800 C58,1620 -392,1278 -32,738" stroke="#000000" stroke-linecap="round" stroke-linejoin="round" stroke-width="18" />
				<g class="section boundaryStart" id="section-L1F1" />
				<g class="measure" id="measure-L4">
					<g class="staff" id="staff-L4F2N1">
						<path d="M0 720 L4497 720" stroke="#000000" stroke-width="13" />
						<path d="M0 900 L4497 900" stroke="#000000" stroke-width="13" />
						<path d="M0 1080 L4497 1080" stroke="#000000" stroke-width="13" />
						<path d="M0 1260 L4497 1260" stroke="#000000" stroke-width="13" />
						<path d="M0 1440 L4497 1440" stroke="#000000" stroke-width="13" />
						<g class="clef" id="clef-0000000161330015">
							<use xlink:href="#E050" x="90" y="1260" height="720px" width="720px" />
						</g>
						<g class="meterSig" id="msig-0000001349199591">
							<use xlink:href="#E082" x="771" y="900" height="720px" width="720px" />
							<use xlink:href="#E084" x="777" y="1260" height="720px" width="720px" />
						</g>
						<g class="layer" id="layer-L4F2N1">
							<g class="beam" id="beam-L5F2-L7F2">
								<polygon points="1578,546 2377,624 2377,714 1578,636 " />
								<polygon points="1578,681 1982,721 1982,811 1578,771 " />
								<g class="rest" id="rest-L5F2">
									<use xlink:href="#E4E7" x="1370" y="1080" height="720px" width="720px" />
								</g>
								<g class="note" id="note-L6F2">
									<use xlink:href="#E0A4" x="1765" y="1260" height="720px" width="720px" />
									<g class="stem">
										<rect x="1973" y="604" height="634" width="18" />
									</g>
									<g class="accid" id="accid-0000000029255287" />
								</g>
								<g class="note" id="note-L7F2">
									<use xlink:href="#E0A4" x="2151" y="1530" height="720px" width="720px" />
									<g class="stem">
										<rect x="2359" y="642" height="866" width="18" />
									</g>
									<g class="accid" id="accid-0000001596597238" />
								</g>
							</g>
							<g class="beam" id="beam-L9F2-L12F2">
								<polygon points="3131,712 4307,658 4307,748 3131,802 " />
								<polygon points="3131,847 4307,793 4307,883 3131,937 " />
								<g class="note" id="note-L9F2">
									<use xlink:href="#E0A4" x="2923" y="1440" height="720px" width="720px" />
									<g class="stem">
										<rect x="3131" y="730" height="688" width="18" />
									</g>
									<g class="accid" id="accid-0000000933489984" />
								</g>
								<g class="note" id="note-L10F2">
									<use xlink:href="#E0A4" x="3309" y="1530" height="720px" width="720px" />
									<g class="stem">
										<rect x="3517" y="712" height="796" width="18" />
									</g>
									<g class="accid" id="accid-0000001608808087" />
								</g>
								<g class="note" id="note-L11F2">
									<use xlink:href="#E0A4" x="3695" y="1350" height="720px" width="720px" />
									<g class="stem">
										<rect x="3903" y="694" height="634" width="18" />
									</g>
									<g class="accid" id="accid-0000000667477784" />
								</g>
								<g class="note" id="note-L12F2">
									<use xlink:href="#E0A4" x="4081" y="1440" height="720px" width="720px" />
									<g class="stem">
										<rect x="4289" y="676" height="742" width="18" />
									</g>
									<g class="accid" id="accid-0000000734572719" />
								</g>
							</g>
						</g>
					</g>
					<g class="staff" id="staff-L4F1N1">
						<path d="M0 2160 L4497 2160" stroke="#000000" stroke-width="13" />
						<path d="M0 2340 L4497 2340" stroke="#000000" stroke-width="13" />
						<path d="M0 2520 L4497 2520" stroke="#000000" stroke-width="13" />
						<path d="M0 2700 L4497 2700" stroke="#000000" stroke-width="13" />
						<path d="M0 2880 L4497 2880" stroke="#000000" stroke-width="13" />
						<g class="clef" id="clef-0000000717697264">
							<use xlink:href="#E062" x="90" y="2340" height="720px" width="720px" />
						</g>
						<g class="meterSig" id="msig-0000002069754496">
							<use xlink:href="#E082" x="771" y="2340" height="720px" width="720px" />
							<use xlink:href="#E084" x="777" y="2700" height="720px" width="720px" />
						</g>
						<g class="ledgerLines above">
							<path d="M2506 1980 L2785 1980" stroke="#000000" stroke-width="22" />
						</g>
						<g class="layer" id="layer-L4F1N1">
							<g class="beam" id="beam-L5F1-L8F1">
								<polygon points="1370,3285 2555,3168 2555,3078 1370,3195 " />
								<polygon points="2160,3071 2555,3033 2555,2943 2160,2981 " />
								<g class="note" id="note-L5F1">
									<use xlink:href="#E0A4" x="1370" y="2610" height="720px" width="720px" />
									<g class="stem">
										<rect x="1370" y="2632" height="635" width="18" />
									</g>
									<g class="accid" id="accid-0000000386494804" />
								</g>
								<g class="note" id="note-L7F1">
									<use xlink:href="#E0A4" x="2151" y="2070" height="720px" width="720px" />
									<g class="stem">
										<rect x="2151" y="2092" height="1096" width="18" />
									</g>
									<g class="accid" id="accid-0000001389393059" />
								</g>
								<g class="note" id="note-L8F1">
									<use xlink:href="#E0A4" x="2537" y="1980" height="720px" width="720px" />
									<g class="stem">
										<rect x="2537" y="2002" height="1148" width="18" />
									</g>
									<g class="accid" id="accid-0000001808884908" />
								</g>
							</g>
							<g class="beam" id="beam-L9F1-L12F1">
								<polygon points="2923,2925 4099,2835 4099,2745 2923,2835 " />
								<polygon points="3941,2711 4099,2700 4099,2610 3941,2621 " />
								<g class="note" id="note-L9F1">
									<use xlink:href="#E0A4" x="2923" y="2250" height="720px" width="720px" />
									<g class="dots" id="dots-0000000620669993">
										<ellipse cx="3239" cy="2250" rx="36" ry="36" />
									</g>
									<g class="stem">
										<rect x="2923" y="2272" height="635" width="18" />
									</g>
									<g class="accid" id="accid-0000001552787523" />
								</g>
								<g class="note" id="note-L12F1">
									<use xlink:href="#E0A4" x="4081" y="2160" height="720px" width="720px" />
									<g class="stem">
										<rect x="4081" y="2182" height="635" width="18" />
									</g>
									<g class="accid" id="accid-0000000497627535" />
								</g>
							</g>
						</g>
					</g>
					<g class="mNum autogenerated" id="mnum-0000001467992858" />
					<g class="barLineAttr" id="bline-0000001850477716">
						<path d="M4484 2880 L4484 720" stroke="#000000" stroke-width="27" />
					</g>
				</g>
				<g class="measure" id="measure-L13">
					<g class="staff" id="staff-L13F2N1">
						<path d="M4497 720 L8315 720" stroke="#000000" stroke-width="13" />
						<path d="M4497 900 L8315 900" stroke="#000000" stroke-width="13" />
						<path d="M4497 1080 L8315 1080" stroke="#000000" stroke-width="13" />
						<path d="M4497 1260 L8315 1260" stroke="#000000" stroke-width="13" />
						<path d="M4497 1440 L8315 1440" stroke="#000000" stroke-width="13" />
						<g class="layer" id="layer-L13F2N1">
							<g class="beam" id="beam-L14F2-L17F2">
								<polygon points="5165,546 6580,406 6580,496 5165,636 " />
								<polygon points="5946,604 6580,541 6580,631 5946,694 " />
								<g class="note" id="note-L14F2">
									<use xlink:href="#E0A4" x="4957" y="1260" height="720px" width="720px" />
									<g class="stem">
										<rect x="5165" y="564" height="674" width="18" />
									</g>
									<g class="accid" id="accid-0000000303929472" />
								</g>
								<g class="note" id="note-L16F2">
									<use xlink:href="#E0A4" x="5729" y="1170" height="720px" width="720px" />
									<g class="stem">
										<rect x="5937" y="487" height="661" width="18" />
									</g>
									<g class="accid" id="accid-0000001070306658">
										<use xlink:href="#E260" x="5533" y="1170" height="720px" width="720px" />
									</g>
								</g>
								<g class="note" id="note-L17F2">
									<use xlink:href="#E0A4" x="6354" y="1080" height="720px" width="720px" />
									<g class="stem">
										<rect x="6562" y="424" height="634" width="18" />
									</g>
									<g class="accid" id="accid-0000000919604652">
										<use xlink:href="#E260" x="6158" y="1080" height="720px" width="720px" />
									</g>
								</g>
							</g>
							<g class="beam" id="beam-L18F2-L20F2">
								<polygon points="6740,1632 7530,1710 7530,1620 6740,1542 " />
								<g class="note" id="note-L18F2">
									<use xlink:href="#E0A4" x="6740" y="990" height="720px" width="720px" />
									<g class="stem">
										<rect x="6740" y="1012" height="602" width="18" />
									</g>
									<g class="accid" id="accid-0000000787077253" />
								</g>
								<g class="note" id="note-L20F2">
									<use xlink:href="#E0A4" x="7512" y="1080" height="720px" width="720px" />
									<g class="stem">
										<rect x="7512" y="1102" height="590" width="18" />
									</g>
									<g class="accid" id="accid-0000002056042197" />
								</g>
							</g>
						</g>
					</g>
					<g class="staff" id="staff-L13F1N1">
						<path d="M4497 2160 L8315 2160" stroke="#000000" stroke-width="13" />
						<path d="M4497 2340 L8315 2340" stroke="#000000" stroke-width="13" />
						<path d="M4497 2520 L8315 2520" stroke="#000000" stroke-width="13" />
						<path d="M4497 2700 L8315 2700" stroke="#000000" stroke-width="13" />
						<path d="M4497 2880 L8315 2880" stroke="#000000" stroke-width="13" />
						<g class="layer" id="layer-L13F1N1">
							<g class="beam" id="beam-L14F1-L16F1">
								<polygon points="4957,3105 5747,3105 5747,3015 4957,3015 " />
								<polygon points="4957,2970 5352,2970 5352,2880 4957,2880 " />
								<g class="note" id="note-L14F1">
									<use xlink:href="#E0A4" x="4957" y="2430" height="720px" width="720px" />
									<g class="stem">
										<rect x="4957" y="2452" height="635" width="18" />
									</g>
									<g class="accid" id="accid-0000000641103323">
										<use xlink:href="#E260" x="4761" y="2430" height="720px" width="720px" />
									</g>
								</g>
								<g class="note" id="note-L15F1">
									<use xlink:href="#E0A4" x="5343" y="2340" height="720px" width="720px" />
									<g class="stem">
										<rect x="5343" y="2362" height="725" width="18" />
									</g>
									<g class="accid" id="accid-0000000168907916" />
								</g>
								<g class="note" id="note-L16F1">
									<use xlink:href="#E0A4" x="5729" y="2430" height="720px" width="720px" />
									<g class="stem">
										<rect x="5729" y="2452" height="635" width="18" />
									</g>
									<g class="accid" id="accid-0000001439912953" />
								</g>
							</g>
							<g class="beam" id="beam-L18F1-L21F1">
								<polygon points="6740,3106 7917,3133 7917,3043 6740,3016 " />
								<polygon points="6740,2971 7917,2998 7917,2908 6740,2881 " />
								<g class="note" id="note-L18F1">
									<use xlink:href="#E0A4" x="6740" y="2430" height="720px" width="720px" />
									<g class="stem">
										<rect x="6740" y="2452" height="636" width="18" />
									</g>
									<g class="accid" id="accid-0000001684414739" />
								</g>
								<g class="note" id="note-L19F1">
									<use xlink:href="#E0A4" x="7126" y="2250" height="720px" width="720px" />
									<g class="stem">
										<rect x="7126" y="2272" height="825" width="18" />
									</g>
									<g class="accid" id="accid-0000000179977728" />
								</g>
								<g class="note" id="note-L20F1">
									<use xlink:href="#E0A4" x="7512" y="2340" height="720px" width="720px" />
									<g class="stem">
										<rect x="7512" y="2362" height="744" width="18" />
									</g>
									<g class="accid" id="accid-0000000550083088" />
								</g>
								<g class="note" id="note-L21F1">
									<use xlink:href="#E0A4" x="7899" y="2430" height="720px" width="720px" />
									<g class="stem">
										<rect x="7899" y="2452" height="663" width="18" />
									</g>
									<g class="accid" id="accid-0000001482800248" />
								</g>
							</g>
						</g>
					</g>
					<g class="tie" id="tie-L16F1-L18F1">
						<path d="M5977,2385 C6162,2243 6532,2243 6718,2385 C6532,2287 6162,2287 5977,2385" stroke="#000000" stroke-linecap="round" stroke-linejoin="round" stroke-width="9" />
					</g>
					<g class="tie" id="tie-L20F2-L23F2">
						<path d="M7760,1035 C8008,893 8504,893 8752,1035 C8504,937 8008,937 7760,1035" stroke="#000000" stroke-linecap="round" stroke-linejoin="round" stroke-width="9" />
					</g>
					<g class="mNum autogenerated" id="mnum-0000001183875791" />
					<g class="barLineAttr" id="bline-0000002084847840">
						<path d="M8302 2880 L8302 720" stroke="#000000" stroke-width="27" />
					</g>
				</g>
				<g class="measure" id="measure-L22">
					<g class="staff" id="staff-L22F2N1">
						<path d="M8315 720 L12849 720" stroke="#000000" stroke-width="13" />
						<path d="M8315 900 L12849 900" stroke="#000000" stroke-width="13" />
						<path d="M8315 1080 L12849 1080" stroke="#000000" stroke-width="13" />
						<path d="M8315 1260 L12849 1260" stroke="#000000" stroke-width="13" />
						<path d="M8315 1440 L12849 1440" stroke="#000000" stroke-width="13" />
						<g class="layer" id="layer-L22F2N1">
							<g class="beam" id="beam-L23F2-L25F2">
								<polygon points="8982,343 10251,468 10251,558 8982,433 " />
								<polygon points="8982,478 9616,541 9616,631 8982,568 " />
								<g class="note" id="note-L23F2">
									<use xlink:href="#E0A4" x="8774" y="1080" height="720px" width="720px" />
									<g class="stem">
										<rect x="8982" y="361" height="697" width="18" />
									</g>
									<g class="accid" id="accid-0000000092399778" />
								</g>
								<g class="note" id="note-L24F2">
									<use xlink:href="#E0A4" x="9399" y="1080" height="720px" width="720px" />
									<g class="stem">
										<rect x="9607" y="424" height="634" width="18" />
									</g>
									<g class="accid" id="accid-L24F2">
										<use xlink:href="#E260" x="9203" y="1080" height="720px" width="720px" />
									</g>
								</g>
								<g class="note" id="note-L25F2">
									<use xlink:href="#E0A4" x="10025" y="1440" height="720px" width="720px" />
									<g class="stem">
										<rect x="10233" y="486" height="932" width="18" />
									</g>
									<g class="accid" id="accid-0000000793274934">
										<use xlink:href="#E260" x="9829" y="1440" height="720px" width="720px" />
									</g>
								</g>
							</g>
							<g class="beam" id="beam-L27F2-L30F2">
								<polygon points="11243,569 12658,468 12658,558 11243,659 " />
								<polygon points="11243,704 12658,603 12658,693 11243,794 " />
								<g class="note" id="note-L27F2">
									<use xlink:href="#E0A4" x="11035" y="1530" height="720px" width="720px" />
									<g class="stem">
										<rect x="11243" y="587" height="921" width="18" />
									</g>
									<g class="accid" id="accid-0000000202537168">
										<use xlink:href="#E260" x="10839" y="1530" height="720px" width="720px" />
									</g>
								</g>
								<g class="note" id="note-L28F2">
									<use xlink:href="#E0A4" x="11421" y="1440" height="720px" width="720px" />
									<g class="stem">
										<rect x="11629" y="559" height="859" width="18" />
									</g>
									<g class="accid" id="accid-0000000205086555" />
								</g>
								<g class="note" id="note-L29F2">
									<use xlink:href="#E0A4" x="12046" y="1170" height="720px" width="720px" />
									<g class="stem">
										<rect x="12254" y="514" height="634" width="18" />
									</g>
									<g class="accid" id="accid-0000001766523938">
										<use xlink:href="#E260" x="11850" y="1170" height="720px" width="720px" />
									</g>
								</g>
								<g class="note" id="note-L30F2">
									<use xlink:href="#E0A4" x="12432" y="1530" height="720px" width="720px" />
									<g class="stem">
										<rect x="12640" y="486" height="1022" width="18" />
									</g>
									<g class="accid" id="accid-0000001087648365" />
								</g>
							</g>
						</g>
					</g>
					<g class="staff" id="staff-L22F1N1">
						<path d="M8315 2160 L12849 2160" stroke="#000000" stroke-width="13" />
						<path d="M8315 2340 L12849 2340" stroke="#000000" stroke-width="13" />
						<path d="M8315 2520 L12849 2520" stroke="#000000" stroke-width="13" />
						<path d="M8315 2700 L12849 2700" stroke="#000000" stroke-width="13" />
						<path d="M8315 2880 L12849 2880" stroke="#000000" stroke-width="13" />
						<g class="layer" id="layer-L22F1N1">
							<g class="beam" id="beam-L23F1-L26F1">
								<polygon points="8774,3023 10667,2835 10667,2745 8774,2933 " />
								<polygon points="10034,2762 10667,2700 10667,2610 10034,2672 " />
								<g class="note" id="note-L23F1">
									<use xlink:href="#E0A4" x="8774" y="2340" height="720px" width="720px" />
									<g class="stem">
										<rect x="8774" y="2362" height="643" width="18" />
									</g>
									<g class="accid" id="accid-0000001496608592">
										<use xlink:href="#E262" x="8579" y="2340" height="720px" width="720px" />
									</g>
								</g>
								<g class="note" id="note-L25F1">
									<use xlink:href="#E0A4" x="10025" y="2070" height="720px" width="720px" />
									<g class="stem">
										<rect x="10025" y="2092" height="787" width="18" />
									</g>
									<g class="accid" id="accid-0000001949353207" />
								</g>
								<g class="note" id="note-L26F1">
									<use xlink:href="#E0A4" x="10649" y="2160" height="720px" width="720px" />
									<g class="stem">
										<rect x="10649" y="2182" height="635" width="18" />
									</g>
									<g class="accid" id="accid-0000000340521520">
										<use xlink:href="#E262" x="10454" y="2160" height="720px" width="720px" />
									</g>
								</g>
							</g>
							<g class="beam" id="beam-L27F1-L30F1">
								<polygon points="11035,3015 12450,2925 12450,2835 11035,2925 " />
								<polygon points="12292,2800 12450,2790 12450,2700 12292,2710 " />
								<g class="note" id="note-L27F1">
									<use xlink:href="#E0A4" x="11035" y="2340" height="720px" width="720px" />
									<g class="dots" id="dots-0000000018871574">
										<ellipse cx="11351" cy="2250" rx="36" ry="36" />
									</g>
									<g class="stem">
										<rect x="11035" y="2362" height="635" width="18" />
									</g>
									<g class="accid" id="accid-0000001790877776" />
								</g>
								<g class="note" id="note-L30F1">
									<use xlink:href="#E0A4" x="12432" y="2250" height="720px" width="720px" />
									<g class="stem">
										<rect x="12432" y="2272" height="635" width="18" />
									</g>
									<g class="accid" id="accid-0000001051821877">
										<use xlink:href="#E262" x="12237" y="2250" height="720px" width="720px" />
									</g>
								</g>
							</g>
						</g>
					</g>
					<g class="mNum autogenerated" id="mnum-0000002113942865" />
					<g class="barLineAttr" id="bline-0000001310993295">
						<path d="M12836 2880 L12836 720" stroke="#000000" stroke-width="27" />
					</g>
				</g>
				<g class="measure" id="measure-L31">
					<g class="staff" id="staff-L31F2N1">
						<path d="M12849 720 L16664 720" stroke="#000000" stroke-width="13" />
						<path d="M12849 900 L16664 900" stroke="#000000" stroke-width="13" />
						<path d="M12849 1080 L16664 1080" stroke="#000000" stroke-width="13" />
						<path d="M12849 1260 L16664 1260" stroke="#000000" stroke-width="13" />
						<path d="M12849 1440 L16664 1440" stroke="#000000" stroke-width="13" />
						<g class="layer" id="layer-L31F2N1">
							<g class="beam" id="beam-L32F2-L35F2">
								<polygon points="13277,660 14930,496 14930,586 13277,750 " />
								<polygon points="14535,670 14930,631 14930,721 14535,760 " />
								<g class="note" id="note-L32F2">
									<use xlink:href="#E0A4" x="13069" y="1440" height="720px" width="720px" />
									<g class="stem">
										<rect x="13277" y="678" height="740" width="18" />
									</g>
									<g class="accid" id="accid-0000000401248640" />
								</g>
								<g class="note" id="note-L34F2">
									<use xlink:href="#E0A4" x="14318" y="1260" height="720px" width="720px" />
									<g class="stem">
										<rect x="14526" y="553" height="685" width="18" />
									</g>
									<g class="accid" id="accid-0000001290752734">
										<use xlink:href="#E262" x="14123" y="1260" height="720px" width="720px" />
									</g>
								</g>
								<g class="note" id="note-L35F2">
									<use xlink:href="#E0A4" x="14704" y="1170" height="720px" width="720px" />
									<g class="stem">
										<rect x="14912" y="514" height="634" width="18" />
									</g>
									<g class="accid" id="accid-0000001439038693" />
								</g>
							</g>
							<g class="beam" id="beam-L36F2-L38F2">
								<polygon points="15298,451 16088,528 16088,618 15298,541 " />
								<g class="note" id="note-L36F2">
									<use xlink:href="#E0A4" x="15090" y="1080" height="720px" width="720px" />
									<g class="stem">
										<rect x="15298" y="469" height="589" width="18" />
									</g>
									<g class="accid" id="accid-0000000591383724" />
								</g>
								<g class="note" id="note-L38F2">
									<use xlink:href="#E0A4" x="15862" y="1170" height="720px" width="720px" />
									<g class="stem">
										<rect x="16070" y="546" height="602" width="18" />
									</g>
									<g class="accid" id="accid-0000002144968294" />
								</g>
							</g>
						</g>
					</g>
					<g class="staff" id="staff-L31F1N1">
						<path d="M12849 2160 L16664 2160" stroke="#000000" stroke-width="13" />
						<path d="M12849 2340 L16664 2340" stroke="#000000" stroke-width="13" />
						<path d="M12849 2520 L16664 2520" stroke="#000000" stroke-width="13" />
						<path d="M12849 2700 L16664 2700" stroke="#000000" stroke-width="13" />
						<path d="M12849 2880 L16664 2880" stroke="#000000" stroke-width="13" />
						<g class="layer" id="layer-L31F1N1">
							<g class="beam" id="beam-L32F1-L34F1">
								<polygon points="13277,1729 14544,1604 14544,1694 13277,1819 " />
								<polygon points="13277,1864 13911,1801 13911,1891 13277,1954 " />
								<g class="note" id="note-L32F1">
									<use xlink:href="#E0A4" x="13069" y="2790" height="720px" width="720px" />
									<g class="stem">
										<rect x="13277" y="1747" height="1021" width="18" />
									</g>
									<g class="accid" id="accid-0000000710975116" />
								</g>
								<g class="note" id="note-L33F1">
									<use xlink:href="#E0A4" x="13694" y="2340" height="720px" width="720px" />
									<g class="stem">
										<rect x="13902" y="1684" height="634" width="18" />
									</g>
									<g class="accid" id="accid-0000000394001066">
										<use xlink:href="#E262" x="13499" y="2340" height="720px" width="720px" />
									</g>
								</g>
								<g class="note" id="note-L34F1">
									<use xlink:href="#E0A4" x="14318" y="2610" height="720px" width="720px" />
									<g class="stem">
										<rect x="14526" y="1622" height="966" width="18" />
									</g>
									<g class="accid" id="accid-0000001605651318">
										<use xlink:href="#E262" x="14123" y="2610" height="720px" width="720px" />
									</g>
								</g>
							</g>
							<g class="beam" id="beam-L36F1-L39F1">
								<polygon points="15090,3312 16266,3285 16266,3195 15090,3222 " />
								<polygon points="15090,3177 16266,3150 16266,3060 15090,3087 " />
								<g class="note" id="note-L36F1">
									<use xlink:href="#E0A4" x="15090" y="2610" height="720px" width="720px" />
									<g class="stem">
										<rect x="15090" y="2632" height="662" width="18" />
									</g>
									<g class="accid" id="accid-0000001009896607" />
								</g>
								<g class="note" id="note-L37F1">
									<use xlink:href="#E0A4" x="15476" y="2430" height="720px" width="720px" />
									<g class="stem">
										<rect x="15476" y="2452" height="833" width="18" />
									</g>
									<g class="accid" id="accid-0000002014486588" />
								</g>
								<g class="note" id="note-L38F1">
									<use xlink:href="#E0A4" x="15862" y="2340" height="720px" width="720px" />
									<g class="stem">
										<rect x="15862" y="2362" height="914" width="18" />
									</g>
									<g class="accid" id="accid-0000000063552242" />
								</g>
								<g class="note" id="note-L39F1">
									<use xlink:href="#E0A4" x="16248" y="2610" height="720px" width="720px" />
									<g class="stem">
										<rect x="16248" y="2632" height="635" width="18" />
									</g>
									<g class="accid" id="accid-0000000739205171" />
								</g>
							</g>
						</g>
					</g>
					<g class="tie" id="tie-L34F1-L36F1">
						<path d="M14566,2655 C14691,2753 14941,2753 15068,2655 C14941,2797 14691,2797 14566,2655" stroke="#000000" stroke-linecap="round" stroke-linejoin="round" stroke-width="9" />
					</g>
					<g class="tie" id="tie-L38F2-L41F2">
						<path d="M16110,1215 C16298,1313 16674,1313 16862,1215 C16674,1357 16298,1357 16110,1215" stroke="#000000" stroke-linecap="round" stroke-linejoin="round" stroke-width="9" />
					</g>
					<g class="mNum autogenerated" id="mnum-0000001552905289" />
					<g class="barLineAttr" id="bline-0000001345224931">
						<path d="M16651 2880 L16651 720" stroke="#000000" stroke-width="27" />
					</g>
				</g>
				<g class="measure" id="measure-L40">
					<g class="staff" id="staff-L40F2N1">
						<path d="M16664 720 L20003 720" stroke="#000000" stroke-width="13" />
						<path d="M16664 900 L20003 900" stroke="#000000" stroke-width="13" />
						<path d="M16664 1080 L20003 1080" stroke="#000000" stroke-width="13" />
						<path d="M16664 1260 L20003 1260" stroke="#000000" stroke-width="13" />
						<path d="M16664 1440 L20003 1440" stroke="#000000" stroke-width="13" />
						<g class="layer" id="layer-L40F2N1">
							<g class="beam" id="beam-L41F2-L43F2">
								<polygon points="17092,496 17882,573 17882,663 17092,586 " />
								<polygon points="17092,631 17487,670 17487,760 17092,721 " />
								<g class="note" id="note-L41F2">
									<use xlink:href="#E0A4" x="16884" y="1170" height="720px" width="720px" />
									<g class="stem">
										<rect x="17092" y="514" height="634" width="18" />
									</g>
									<g class="accid" id="accid-0000002132562726" />
								</g>
								<g class="note" id="note-L42F2">
									<use xlink:href="#E0A4" x="17270" y="1260" height="720px" width="720px" />
									<g class="stem">
										<rect x="17478" y="553" height="685" width="18" />
									</g>
									<g class="accid" id="accid-0000000117254926" />
								</g>
								<g class="note" id="note-L43F2">
									<use xlink:href="#E0A4" x="17656" y="1530" height="720px" width="720px" />
									<g class="stem">
										<rect x="17864" y="591" height="917" width="18" />
									</g>
									<g class="accid" id="accid-0000001320553483" />
								</g>
							</g>
							<g class="beam" id="beam-L45F2-L48F2">
								<polygon points="18637,712 19813,658 19813,748 18637,802 " />
								<polygon points="18637,847 19813,793 19813,883 18637,937 " />
								<g class="note" id="note-L45F2">
									<use xlink:href="#E0A4" x="18429" y="1440" height="720px" width="720px" />
									<g class="stem">
										<rect x="18637" y="730" height="688" width="18" />
									</g>
									<g class="accid" id="accid-0000002143163626" />
								</g>
								<g class="note" id="note-L46F2">
									<use xlink:href="#E0A4" x="18815" y="1530" height="720px" width="720px" />
									<g class="stem">
										<rect x="19023" y="712" height="796" width="18" />
									</g>
									<g class="accid" id="accid-0000002132296580" />
								</g>
								<g class="note" id="note-L47F2">
									<use xlink:href="#E0A4" x="19201" y="1350" height="720px" width="720px" />
									<g class="stem">
										<rect x="19409" y="694" height="634" width="18" />
									</g>
									<g class="accid" id="accid-0000001714632395" />
								</g>
								<g class="note" id="note-L48F2">
									<use xlink:href="#E0A4" x="19587" y="1440" height="720px" width="720px" />
									<g class="stem">
										<rect x="19795" y="676" height="742" width="18" />
									</g>
									<g class="accid" id="accid-0000001539573411" />
								</g>
							</g>
						</g>
					</g>
					<g class="staff" id="staff-L40F1N1">
						<path d="M16664 2160 L20003 2160" stroke="#000000" stroke-width="13" />
						<path d="M16664 2340 L20003 2340" stroke="#000000" stroke-width="13" />
						<path d="M16664 2520 L20003 2520" stroke="#000000" stroke-width="13" />
						<path d="M16664 2700 L20003 2700" stroke="#000000" stroke-width="13" />
						<path d="M16664 2880 L20003 2880" stroke="#000000" stroke-width="13" />
						<g class="ledgerLines above">
							<path d="M18011 1980 L18290 1980" stroke="#000000" stroke-width="22" />
						</g>
						<g class="layer" id="layer-L40F1N1">
							<g class="beam" id="beam-L41F1-L44F1">
								<polygon points="16884,3285 18060,3169 18060,3079 16884,3195 " />
								<polygon points="17665,3072 18060,3034 18060,2944 17665,2982 " />
								<g class="note" id="note-L41F1">
									<use xlink:href="#E0A4" x="16884" y="2610" height="720px" width="720px" />
									<g class="stem">
										<rect x="16884" y="2632" height="635" width="18" />
									</g>
									<g class="accid" id="accid-0000002086710246" />
								</g>
								<g class="note" id="note-L43F1">
									<use xlink:href="#E0A4" x="17656" y="2070" height="720px" width="720px" />
									<g class="stem">
										<rect x="17656" y="2092" height="1097" width="18" />
									</g>
									<g class="accid" id="accid-0000000546582504" />
								</g>
								<g class="note" id="note-L44F1">
									<use xlink:href="#E0A4" x="18042" y="1980" height="720px" width="720px" />
									<g class="stem">
										<rect x="18042" y="2002" height="1149" width="18" />
									</g>
									<g class="accid" id="accid-0000001318368805" />
								</g>
							</g>
							<g class="beam" id="beam-L45F1-L48F1">
								<polygon points="18429,2925 19605,2835 19605,2745 18429,2835 " />
								<polygon points="19447,2711 19605,2700 19605,2610 19447,2621 " />
								<g class="note" id="note-L45F1">
									<use xlink:href="#E0A4" x="18429" y="2250" height="720px" width="720px" />
									<g class="dots" id="dots-0000000194524293">
										<ellipse cx="18745" cy="2250" rx="36" ry="36" />
									</g>
									<g class="stem">
										<rect x="18429" y="2272" height="635" width="18" />
									</g>
									<g class="accid" id="accid-0000001447201970" />
								</g>
								<g class="note" id="note-L48F1">
									<use xlink:href="#E0A4" x="19587" y="2160" height="720px" width="720px" />
									<g class="stem">
										<rect x="19587" y="2182" height="635" width="18" />
									</g>
									<g class="accid" id="accid-0000000279672868" />
								</g>
							</g>
						</g>
					</g>
					<g class="mNum autogenerated" id="mnum-0000001956109239" />
					<g class="barLineAttr" id="bline-0000001653018694">
						<path d="M19990 2880 L19990 720" stroke="#000000" stroke-width="27" />
					</g>
				</g>
			</g>
		</g>
	</svg>
</svg>
