<?xml version="1.0" encoding="UTF-8" standalone="no"?>
<svg width="2100.00px" height="450.00px" version="1.1" xmlns="http://www.w3.org/2000/svg" xmlns:xlink="http://www.w3.org/1999/xlink" overflow="visible">
	<desc>Engraved by Verovio 2.0.0-dev-0f0381c</desc>
	<defs>
		<symbol id="E050" viewBox="0 0 1000 1000" overflow="inherit">
			<path transform="scale(1,-1)" d="M441 -245c-23 -4 -48 -6 -76 -6c-59 0 -102 7 -130 20c-88 42 -150 93 -187 154c-26 44 -43 103 -48 176c-4 60 11 123 44 189c29 57 65 106 110 148s96 85 153 127c-3 16 -8 46 -13 92c-4 43 -5 73 -5 89c0 117 16 172 69 257c34 54 64 82 89 82c21 0 43 -30 69 -92 s39 -115 41 -159c2 -120 -19 -173 -67 -256c-13 -20 -63 -90 -98 -118c-13 -9 -25 -19 -37 -29l31 -181c8 1 18 2 28 2c58 0 102 -12 133 -35c59 -43 92 -104 98 -184c11 -135 -80 -229 -180 -270c8 -57 17 -110 25 -162c5 -31 6 -58 6 -80c0 -30 -5 -53 -14 -70 c-35 -64 -88 -99 -158 -103c-42 -3 -83 6 -124 26c-50 24 -77 59 -80 105c-2 34 5 63 20 87c18 28 45 42 79 44c51 4 99 -40 103 -87c4 -56 -30 -94 -105 -115c17 -24 51 -36 102 -36c62 0 116 43 140 85c9 16 13 41 13 74c0 20 -1 42 -5 67c-8 53 -18 106 -26 159zM461 939 c-95 0 -135 -175 -135 -286c0 -24 2 -48 5 -71c50 39 92 82 127 128c43 57 63 106 60 148c-4 54 -23 82 -57 81zM406 119l54 -326c80 27 116 88 109 184c-7 99 -62 146 -163 142zM382 117c-74 -2 -132 -50 -128 -127c2 -46 43 -99 75 -115c-3 -2 -7 -5 -10 -10 c-70 33 -116 88 -123 172c-5 73 42 135 88 170c23 17 49 29 78 36l-29 170c-21 -13 -52 -37 -92 -73c-50 -44 -86 -84 -109 -119c-49 -75 -71 -140 -67 -195c5 -68 35 -127 93 -176s125 -73 203 -73c25 0 50 3 75 9c-19 111 -36 221 -54 331z" />
		</symbol>
		<symbol id="E082" viewBox="0 0 1000 1000" overflow="inherit">
			<path transform="scale(1,-1)" d="M104 -185c-18 0 -55 -14 -65 -65h-36l-3 29c0 25 6 46 18 64c11 19 22 30 39 43l121 82l37 29c15 11 27 29 38 54c12 24 18 47 18 70c0 40 -19 88 -94 88c-25 0 -32 0 -50 -8c-14 -5 -23 -12 -26 -22c3 -9 7 -15 10 -18l24 -17c12 -7 17 -11 27 -21c5 -7 7 -16 7 -27 c0 -12 0 -57 -79 -74c-30 0 -76 26 -76 94c0 66 80 135 196 135c72 0 182 -32 182 -150c0 -53 -32 -95 -113 -133l-91 -41c-26 -11 -45 -23 -57 -37l49 7c84 0 115 -41 148 -41c20 0 33 20 39 61h35c0 -152 -68 -168 -114 -168c-17 0 -55 0 -69 7v0l-28 17 c-49 37 -69 40 -87 42z" />
		</symbol>
		<symbol id="E084" viewBox="0 0 1000 1000" overflow="inherit">
			<path transform="scale(1,-1)" d="M0 -78c84 97 114 180 134 329h170c-13 -32 -82 -132 -99 -151l-84 -97c-33 -36 -59 -63 -80 -81h162v102l127 123v-225h57v-39h-57v-34c0 -43 19 -65 57 -65v-34h-244v36c48 0 60 26 60 70v27h-203v39z" />
		</symbol>
		<symbol id="E4E5" viewBox="0 0 1000 1000" overflow="inherit">
			<path transform="scale(1,-1)" d="M107 292c-13 24 -30 49 -52 71c-1 1 0 2 0 3l-2 2c3 3 4 4 6 4c12 0 26 -7 40 -20s44 -40 89 -81c26 -24 28 -29 46 -47c4 -4 8 -9 10 -14c6 -8 8 -16 8 -27c0 -19 -12 -40 -36 -61c-28 -23 -49 -38 -61 -73c-4 -11 -7 -27 -10 -50c13 -43 34 -83 59 -121 c31 -47 59 -79 101 -129c-8 0 -26 7 -54 20l-62 29l-21 6l-23 1c-25 0 -45 -10 -60 -30l-4 -14l-1 -12c0 -33 20 -56 39 -78c8 -9 17 -18 26 -26c17 -15 27 -24 28 -30l-3 -3c-11 5 -19 10 -25 15c-9 3 -37 21 -45 26c-24 14 -45 32 -63 51c-19 21 -37 44 -37 71 c0 63 27 95 80 95c41 0 86 -18 136 -52c-19 26 -37 48 -55 66c-23 23 -48 44 -73 65c-28 23 -47 40 -58 53s-17 26 -18 39c75 64 113 125 113 183c0 27 -7 48 -18 68z" />
		</symbol>
		<symbol id="E0A4" viewBox="0 0 1000 1000" overflow="inherit">
			<path transform="scale(1,-1)" d="M0 -39c0 68 73 172 200 172c66 0 114 -37 114 -95c0 -84 -106 -171 -218 -171c-64 0 -96 30 -96 94z" />
		</symbol>
		<symbol id="E260" viewBox="0 0 1000 1000" overflow="inherit">
			<path transform="scale(1,-1)" d="M20 110c32 16 54 27 93 27c26 0 35 -3 54 -13c13 -7 24 -20 27 -38l4 -25c0 -28 -16 -57 -45 -89c-23 -25 -39 -44 -65 -68l-88 -79v644h20v-359zM90 106c-32 0 -48 -10 -70 -29v-194c31 31 54 59 71 84c21 32 32 59 32 84c0 9 1 16 1 20c0 14 -3 21 -11 30l-8 3z" />
		</symbol>
		<symbol id="E062" viewBox="0 0 1000 1000" overflow="inherit">
			<path transform="scale(1,-1)" d="M158 96c51 0 73 -14 88 -49l16 -39c0 -17 -2 -30 -7 -40c-3 -11 -10 -21 -19 -31c-17 -18 -49 -43 -84 -43c-55 0 -77 13 -112 44c-24 21 -35 55 -35 100c0 46 14 81 32 112c30 52 71 79 137 93l36 6l26 2c154 0 235 -68 274 -182c11 -32 18 -68 18 -107 c0 -103 -26 -182 -68 -250c-89 -145 -234 -230 -412 -288l-30 -5c-9 0 -14 3 -14 8c3 10 5 11 10 16c35 15 70 30 96 44l78 43c96 57 162 136 197 258c9 33 17 60 22 100c3 22 5 35 6 39c-7 69 -16 115 -23 140s-4 22 -16 40c-8 12 -19 23 -31 34c-24 21 -62 44 -118 44 c-48 0 -84 -8 -113 -28c-28 -19 -42 -44 -42 -73v-16c2 -5 3 -9 4 -11c24 22 52 39 84 39zM585 -118c0 32 23 58 57 58c18 0 33 -6 40 -18c9 -15 16 -18 16 -40c0 -9 -2 -16 -5 -21c-6 -19 -27 -37 -51 -37c-34 0 -57 26 -57 58zM642 177c31 0 56 -27 56 -58 c0 -30 -25 -58 -56 -58l-23 3c-19 7 -34 32 -34 55l3 23c9 20 28 35 54 35z" />
		</symbol>
		<symbol id="E262" viewBox="0 0 1000 1000" overflow="inherit">
			<path transform="scale(1,-1)" d="M136 186v169h17v-164l44 14v-91l-44 -14v-165l44 12v-91l-44 -13v-155h-17v150l-76 -22v-155h-17v149l-43 -13v90l43 14v167l-43 -14v92l43 13v169h17v-163zM60 73v-167l76 22v168z" />
		</symbol>
	</defs>
	<style type="text/css">g.page-margin{font-family:Times;} g.tempo{font-weight:bold;} g.dir, g.dynam, g.mNum{font-style:italic;} g.label{font-weight:normal;}</style>
	<svg class="definition-scale" viewBox="0 0 21000 4500">
		<g class="page-margin" transform="translate(500, 500)">
			<g class="system" id="system-0000000179938278">
				<path d="M13 720 L13 2880" stroke="#000000" stroke-width="27" />
				<path d="M-32,2862 C-392,2322 58,1980 -212,1800 C121,1980 -329,2322 -32,2862" stroke="#000000" stroke-linecap="round" stroke-linejoin="round" stroke-width="18" />
				<path d="M-32,738 C-329,1278 121,1620 -212,1800 C58,1620 -392,1278 -32,738" stroke="#000000" stroke-linecap="round" stroke-linejoin="round" stroke-width="18" />
				<g class="section boundaryStart" id="section-L1F1" />
				<g class="measure" id="measure-L4">
					<g class="staff" id="staff-L4F2N1">
						<path d="M0 720 L4329 720" stroke="#000000" stroke-width="13" />
						<path d="M0 900 L4329 900" stroke="#000000" stroke-width="13" />
						<path d="M0 1080 L4329 1080" stroke="#000000" stroke-width="13" />
						<path d="M0 1260 L4329 1260" stroke="#000000" stroke-width="13" />
						<path d="M0 1440 L4329 1440" stroke="#000000" stroke-width="13" />
						<g class="clef" id="clef-0000001449869373">
							<use xlink:href="#E050" x="90" y="1260" height="720px" width="720px" />
						</g>
						<g class="meterSig" id="msig-0000000457609502">
							<use xlink:href="#E082" x="771" y="900" height="720px" width="720px" />
							<use xlink:href="#E084" x="777" y="1260" height="720px" width="720px" />
						</g>
						<g class="layer" id="layer-L4F2N1">
							<g class="rest" id="rest-L5F2">
								<use xlink:href="#E4E5" x="1375" y="1080" height="720px" width="720px" />
							</g>
							<g class="beam" id="beam-L9F2-L11F2">
								<polygon points="3158,406 4131,502 4131,592 3158,496 " />
								<polygon points="3728,597 4131,637 4131,727 3728,687 " />
								<g class="note" id="note-L9F2">
									<use xlink:href="#E0A4" x="2950" y="1080" height="720px" width="720px" />
									<g class="stem">
										<rect x="3158" y="424" height="634" width="18" />
									</g>
									<g class="accid" id="accid-0000001847570894">
										<use xlink:href="#E260" x="2754" y="1080" height="720px" width="720px" />
									</g>
								</g>
								<g class="note" id="note-L10F2">
									<use xlink:href="#E0A4" x="3511" y="1170" height="720px" width="720px" />
									<g class="stem">
										<rect x="3719" y="480" height="668" width="18" />
									</g>
									<g class="accid" id="accid-0000001791972570" />
								</g>
								<g class="note" id="note-L11F2">
									<use xlink:href="#E0A4" x="3905" y="1530" height="720px" width="720px" />
									<g class="stem">
										<rect x="4113" y="520" height="988" width="18" />
									</g>
									<g class="accid" id="accid-0000000582022054" />
								</g>
							</g>
						</g>
					</g>
					<g class="staff" id="staff-L4F1N1">
						<path d="M0 2160 L4329 2160" stroke="#000000" stroke-width="13" />
						<path d="M0 2340 L4329 2340" stroke="#000000" stroke-width="13" />
						<path d="M0 2520 L4329 2520" stroke="#000000" stroke-width="13" />
						<path d="M0 2700 L4329 2700" stroke="#000000" stroke-width="13" />
						<path d="M0 2880 L4329 2880" stroke="#000000" stroke-width="13" />
						<g class="clef" id="clef-0000000903960207">
							<use xlink:href="#E062" x="90" y="2340" height="720px" width="720px" />
						</g>
						<g class="meterSig" id="msig-0000001559880171">
							<use xlink:href="#E082" x="771" y="2340" height="720px" width="720px" />
							<use xlink:href="#E084" x="777" y="2700" height="720px" width="720px" />
						</g>
						<g class="layer" id="layer-L4F1N1">
							<g class="beam" id="beam-L5F1-L8F1">
								<polygon points="1375,3159 2574,3213 2574,3123 1375,3069 " />
								<polygon points="1375,3024 2574,3078 2574,2988 1375,2934 " />
								<g class="note" id="note-L5F1">
									<use xlink:href="#E0A4" x="1375" y="2250" height="720px" width="720px" />
									<g class="stem">
										<rect x="1375" y="2272" height="869" width="18" />
									</g>
									<g class="accid" id="accid-0000001766383413" />
								</g>
								<g class="note" id="note-L6F1">
									<use xlink:href="#E0A4" x="1769" y="2340" height="720px" width="720px" />
									<g class="stem">
										<rect x="1769" y="2362" height="797" width="18" />
									</g>
									<g class="accid" id="accid-0000000341013788" />
								</g>
								<g class="note" id="note-L7F1">
									<use xlink:href="#E0A4" x="2162" y="2520" height="720px" width="720px" />
									<g class="stem">
										<rect x="2162" y="2542" height="635" width="18" />
									</g>
									<g class="accid" id="accid-0000000858655459" />
								</g>
								<g class="note" id="note-L8F1">
									<use xlink:href="#E0A4" x="2556" y="2250" height="720px" width="720px" />
									<g class="stem">
										<rect x="2556" y="2272" height="923" width="18" />
									</g>
									<g class="accid" id="accid-0000001833768858" />
								</g>
							</g>
							<g class="beam" id="beam-L9F1-L11F1">
								<polygon points="2950,3009 3923,3019 3923,2929 2950,2919 " />
								<polygon points="3520,2880 3923,2884 3923,2794 3520,2790 " />
								<g class="note" id="note-L9F1">
									<use xlink:href="#E0A4" x="2950" y="2250" height="720px" width="720px" />
									<g class="stem">
										<rect x="2950" y="2272" height="719" width="18" />
									</g>
									<g class="accid" id="accid-0000001675698958" />
								</g>
								<g class="note" id="note-L10F1">
									<use xlink:href="#E0A4" x="3511" y="2340" height="720px" width="720px" />
									<g class="stem">
										<rect x="3511" y="2362" height="635" width="18" />
									</g>
									<g class="accid" id="accid-0000001136294644" />
								</g>
								<g class="note" id="note-L11F1">
									<use xlink:href="#E0A4" x="3905" y="2250" height="720px" width="720px" />
									<g class="stem">
										<rect x="3905" y="2272" height="729" width="18" />
									</g>
									<g class="accid" id="accid-0000000323596808" />
								</g>
							</g>
						</g>
					</g>
					<g class="tie" id="tie-L8F1-L9F1">
						<path d="M2669,2115 C2767,1973 2963,1973 3063,2115 C2963,2017 2767,2017 2669,2115" stroke="#000000" stroke-linecap="round" stroke-linejoin="round" stroke-width="9" />
					</g>
					<g class="mNum autogenerated" id="mnum-0000000913294418" />
					<g class="barLineAttr" id="bline-0000001742258570">
						<path d="M4316 2880 L4316 720" stroke="#000000" stroke-width="27" />
					</g>
				</g>
				<g class="measure" id="measure-L12">
					<g class="staff" id="staff-L12F2N1">
						<path d="M4329 720 L8223 720" stroke="#000000" stroke-width="13" />
						<path d="M4329 900 L8223 900" stroke="#000000" stroke-width="13" />
						<path d="M4329 1080 L8223 1080" stroke="#000000" stroke-width="13" />
						<path d="M4329 1260 L8223 1260" stroke="#000000" stroke-width="13" />
						<path d="M4329 1440 L8223 1440" stroke="#000000" stroke-width="13" />
						<g class="ledgerLines below">
							<path d="M4523 1620 L4802 1620" stroke="#000000" stroke-width="22" />
						</g>
						<g class="layer" id="layer-L12F2N1">
							<g class="beam" id="beam-L13F2-L16F2">
								<polygon points="4762,626 6205,483 6205,573 4762,716 " />
								<polygon points="4762,761 6205,618 6205,708 4762,851 " />
								<g class="note" id="note-L13F2">
									<use xlink:href="#E0A4" x="4554" y="1620" height="720px" width="720px" />
									<g class="stem">
										<rect x="4762" y="644" height="954" width="18" />
									</g>
									<g class="accid" id="accid-0000000968234438" />
								</g>
								<g class="note" id="note-L14F2">
									<use xlink:href="#E0A4" x="4948" y="1260" height="720px" width="720px" />
									<g class="stem">
										<rect x="5156" y="604" height="634" width="18" />
									</g>
									<g class="accid" id="accid-0000000812954910" />
								</g>
								<g class="note" id="note-L15F2">
									<use xlink:href="#E0A4" x="5586" y="1440" height="720px" width="720px" />
									<g class="stem">
										<rect x="5794" y="541" height="877" width="18" />
									</g>
									<g class="accid" id="accid-0000001549466960">
										<use xlink:href="#E260" x="5390" y="1440" height="720px" width="720px" />
									</g>
								</g>
								<g class="note" id="note-L16F2">
									<use xlink:href="#E0A4" x="5979" y="1260" height="720px" width="720px" />
									<g class="stem">
										<rect x="6187" y="501" height="737" width="18" />
									</g>
									<g class="accid" id="accid-0000001544719008" />
								</g>
							</g>
							<g class="beam" id="beam-L17F2-L20F2">
								<polygon points="6825,276 8025,394 8025,484 6825,366 " />
								<polygon points="6825,411 8025,529 8025,619 6825,501 " />
								<g class="note" id="note-L17F2">
									<use xlink:href="#E0A4" x="6617" y="1080" height="720px" width="720px" />
									<g class="stem">
										<rect x="6825" y="294" height="764" width="18" />
									</g>
									<g class="accid" id="accid-0000001590495343">
										<use xlink:href="#E260" x="6421" y="1080" height="720px" width="720px" />
									</g>
								</g>
								<g class="note" id="note-L18F2">
									<use xlink:href="#E0A4" x="7011" y="990" height="720px" width="720px" />
									<g class="stem">
										<rect x="7219" y="334" height="634" width="18" />
									</g>
									<g class="accid" id="accid-0000001009803774" />
								</g>
								<g class="note" id="note-L19F2">
									<use xlink:href="#E0A4" x="7405" y="1080" height="720px" width="720px" />
									<g class="stem">
										<rect x="7613" y="373" height="685" width="18" />
									</g>
									<g class="accid" id="accid-0000001912509688" />
								</g>
								<g class="note" id="note-L20F2">
									<use xlink:href="#E0A4" x="7799" y="1260" height="720px" width="720px" />
									<g class="stem">
										<rect x="8007" y="412" height="826" width="18" />
									</g>
									<g class="accid" id="accid-0000000347671094" />
								</g>
							</g>
						</g>
					</g>
					<g class="staff" id="staff-L12F1N1">
						<path d="M4329 2160 L8223 2160" stroke="#000000" stroke-width="13" />
						<path d="M4329 2340 L8223 2340" stroke="#000000" stroke-width="13" />
						<path d="M4329 2520 L8223 2520" stroke="#000000" stroke-width="13" />
						<path d="M4329 2700 L8223 2700" stroke="#000000" stroke-width="13" />
						<path d="M4329 2880 L8223 2880" stroke="#000000" stroke-width="13" />
						<g class="layer" id="layer-L12F1N1">
							<g class="beam" id="beam-L13F1-L14F1">
								<polygon points="4554,3195 4966,3155 4966,3065 4554,3105 " />
								<polygon points="4554,3060 4712,3045 4712,2955 4554,2970 " />
								<g class="note" id="note-L13F1">
									<use xlink:href="#E0A4" x="4554" y="2520" height="720px" width="720px" />
									<g class="stem">
										<rect x="4554" y="2542" height="635" width="18" />
									</g>
									<g class="accid" id="accid-0000000597959524" />
								</g>
								<g class="note" id="note-L14F1">
									<use xlink:href="#E0A4" x="4948" y="2340" height="720px" width="720px" />
									<g class="dots" id="dots-0000001812273745">
										<ellipse cx="5264" cy="2250" rx="36" ry="36" />
									</g>
									<g class="stem">
										<rect x="4948" y="2362" height="775" width="18" />
									</g>
									<g class="accid" id="accid-0000000399647845" />
								</g>
							</g>
							<g class="beam" id="beam-L17F1-L20F1">
								<polygon points="6617,3141 7817,3222 7817,3132 6617,3051 " />
								<polygon points="6617,3006 7817,3087 7817,2997 6617,2916 " />
								<g class="note" id="note-L17F1">
									<use xlink:href="#E0A4" x="6617" y="2340" height="720px" width="720px" />
									<g class="stem">
										<rect x="6617" y="2362" height="761" width="18" />
									</g>
									<g class="accid" id="accid-0000001472692099" />
								</g>
								<g class="note" id="note-L18F1">
									<use xlink:href="#E0A4" x="7011" y="2250" height="720px" width="720px" />
									<g class="stem">
										<rect x="7011" y="2272" height="878" width="18" />
									</g>
									<g class="accid" id="accid-0000000683708984" />
								</g>
								<g class="note" id="note-L19F1">
									<use xlink:href="#E0A4" x="7405" y="2520" height="720px" width="720px" />
									<g class="stem">
										<rect x="7405" y="2542" height="635" width="18" />
									</g>
									<g class="accid" id="accid-0000001050058167" />
								</g>
								<g class="note" id="note-L20F1">
									<use xlink:href="#E0A4" x="7799" y="2340" height="720px" width="720px" />
									<g class="stem">
										<rect x="7799" y="2362" height="842" width="18" />
									</g>
									<g class="accid" id="accid-0000001522238367" />
								</g>
							</g>
						</g>
					</g>
					<g class="tie" id="tie-L20F1-L22F1">
						<path d="M8047,2295 C8141,2153 8329,2153 8426,2295 C8329,2197 8141,2197 8047,2295" stroke="#000000" stroke-linecap="round" stroke-linejoin="round" stroke-width="9" />
					</g>
					<g class="mNum autogenerated" id="mnum-0000001432844713" />
					<g class="barLineAttr" id="bline-0000001259988733">
						<path d="M8210 2880 L8210 720" stroke="#000000" stroke-width="27" />
					</g>
				</g>
				<g class="measure" id="measure-L21">
					<g class="staff" id="staff-L21F2N1">
						<path d="M8223 720 L12188 720" stroke="#000000" stroke-width="13" />
						<path d="M8223 900 L12188 900" stroke="#000000" stroke-width="13" />
						<path d="M8223 1080 L12188 1080" stroke="#000000" stroke-width="13" />
						<path d="M8223 1260 L12188 1260" stroke="#000000" stroke-width="13" />
						<path d="M8223 1440 L12188 1440" stroke="#000000" stroke-width="13" />
						<g class="layer" id="layer-L21F2N1">
							<g class="rest" id="rest-L22F2">
								<use xlink:href="#E4E5" x="8448" y="1080" height="720px" width="720px" />
							</g>
							<g class="beam" id="beam-L25F2-L28F2">
								<polygon points="10566,406 11990,547 11990,637 10566,496 " />
								<polygon points="11343,618 11990,682 11990,772 11343,708 " />
								<g class="note" id="note-L25F2">
									<use xlink:href="#E0A4" x="10358" y="1080" height="720px" width="720px" />
									<g class="stem">
										<rect x="10566" y="424" height="634" width="18" />
									</g>
									<g class="accid" id="accid-0000000648759422">
										<use xlink:href="#E260" x="10162" y="1080" height="720px" width="720px" />
									</g>
								</g>
								<g class="note" id="note-L27F2">
									<use xlink:href="#E0A4" x="11126" y="1170" height="720px" width="720px" />
									<g class="stem">
										<rect x="11334" y="501" height="647" width="18" />
									</g>
									<g class="accid" id="accid-0000000873851865">
										<use xlink:href="#E260" x="10930" y="1170" height="720px" width="720px" />
									</g>
								</g>
								<g class="note" id="note-L28F2">
									<use xlink:href="#E0A4" x="11764" y="1530" height="720px" width="720px" />
									<g class="stem">
										<rect x="11972" y="565" height="943" width="18" />
									</g>
									<g class="accid" id="accid-0000001045568358">
										<use xlink:href="#E260" x="11568" y="1530" height="720px" width="720px" />
									</g>
								</g>
							</g>
						</g>
					</g>
					<g class="staff" id="staff-L21F1N1">
						<path d="M8223 2160 L12188 2160" stroke="#000000" stroke-width="13" />
						<path d="M8223 2340 L12188 2340" stroke="#000000" stroke-width="13" />
						<path d="M8223 2520 L12188 2520" stroke="#000000" stroke-width="13" />
						<path d="M8223 2700 L12188 2700" stroke="#000000" stroke-width="13" />
						<path d="M8223 2880 L12188 2880" stroke="#000000" stroke-width="13" />
						<g class="layer" id="layer-L21F1N1">
							<g class="beam" id="beam-L22F1-L24F1">
								<polygon points="8448,3105 9739,3105 9739,3015 8448,3015 " />
								<polygon points="9094,2970 9739,2970 9739,2880 9094,2880 " />
								<g class="note" id="note-L22F1">
									<use xlink:href="#E0A4" x="8448" y="2340" height="720px" width="720px" />
									<g class="stem">
										<rect x="8448" y="2362" height="725" width="18" />
									</g>
									<g class="accid" id="accid-0000001325508385" />
								</g>
								<g class="note" id="note-L23F1">
									<use xlink:href="#E0A4" x="9085" y="2430" height="720px" width="720px" />
									<g class="stem">
										<rect x="9085" y="2452" height="635" width="18" />
									</g>
									<g class="accid" id="accid-0000000275136538">
										<use xlink:href="#E262" x="8890" y="2430" height="720px" width="720px" />
									</g>
								</g>
								<g class="note" id="note-L24F1">
									<use xlink:href="#E0A4" x="9721" y="2340" height="720px" width="720px" />
									<g class="stem">
										<rect x="9721" y="2362" height="725" width="18" />
									</g>
									<g class="accid" id="accid-0000001387034365">
										<use xlink:href="#E262" x="9526" y="2340" height="720px" width="720px" />
									</g>
								</g>
							</g>
							<g class="beam" id="beam-L25F1-L26F1">
								<polygon points="10358,3285 10770,3245 10770,3155 10358,3195 " />
								<polygon points="10358,3150 10516,3135 10516,3045 10358,3060 " />
								<g class="note" id="note-L25F1">
									<use xlink:href="#E0A4" x="10358" y="2610" height="720px" width="720px" />
									<g class="stem">
										<rect x="10358" y="2632" height="635" width="18" />
									</g>
									<g class="accid" id="accid-0000000561370089">
										<use xlink:href="#E262" x="10163" y="2610" height="720px" width="720px" />
									</g>
								</g>
								<g class="note" id="note-L26F1">
									<use xlink:href="#E0A4" x="10752" y="2430" height="720px" width="720px" />
									<g class="dots" id="dots-0000001641274227">
										<ellipse cx="11068" cy="2430" rx="36" ry="36" />
									</g>
									<g class="stem">
										<rect x="10752" y="2452" height="775" width="18" />
									</g>
									<g class="accid" id="accid-0000001796997948" />
								</g>
							</g>
						</g>
					</g>
					<g class="mNum autogenerated" id="mnum-0000000645640609" />
					<g class="barLineAttr" id="bline-0000001210034814">
						<path d="M12175 2880 L12175 720" stroke="#000000" stroke-width="27" />
					</g>
				</g>
				<g class="measure" id="measure-L29">
					<g class="staff" id="staff-L29F2N1">
						<path d="M12188 720 L16569 720" stroke="#000000" stroke-width="13" />
						<path d="M12188 900 L16569 900" stroke="#000000" stroke-width="13" />
						<path d="M12188 1080 L16569 1080" stroke="#000000" stroke-width="13" />
						<path d="M12188 1260 L16569 1260" stroke="#000000" stroke-width="13" />
						<path d="M12188 1440 L16569 1440" stroke="#000000" stroke-width="13" />
						<g class="ledgerLines below">
							<path d="M12625 1620 L12904 1620" stroke="#000000" stroke-width="22" />
						</g>
						<g class="layer" id="layer-L29F2N1">
							<g class="beam" id="beam-L30F2-L33F2">
								<polygon points="12864,650 14552,483 14552,573 12864,740 " />
								<polygon points="12864,785 14552,618 14552,708 12864,875 " />
								<g class="note" id="note-L30F2">
									<use xlink:href="#E0A4" x="12656" y="1620" height="720px" width="720px" />
									<g class="stem">
										<rect x="12864" y="668" height="930" width="18" />
									</g>
									<g class="accid" id="accid-0000001451435699" />
								</g>
								<g class="note" id="note-L31F2">
									<use xlink:href="#E0A4" x="13294" y="1260" height="720px" width="720px" />
									<g class="stem">
										<rect x="13502" y="604" height="634" width="18" />
									</g>
									<g class="accid" id="accid-0000001027550324">
										<use xlink:href="#E260" x="13098" y="1260" height="720px" width="720px" />
									</g>
								</g>
								<g class="note" id="note-L32F2">
									<use xlink:href="#E0A4" x="13932" y="1440" height="720px" width="720px" />
									<g class="stem">
										<rect x="14140" y="540" height="878" width="18" />
									</g>
									<g class="accid" id="accid-0000001771145364">
										<use xlink:href="#E260" x="13736" y="1440" height="720px" width="720px" />
									</g>
								</g>
								<g class="note" id="note-L33F2">
									<use xlink:href="#E0A4" x="14326" y="1260" height="720px" width="720px" />
									<g class="stem">
										<rect x="14534" y="501" height="737" width="18" />
									</g>
									<g class="accid" id="accid-0000001418591315" />
								</g>
							</g>
							<g class="beam" id="beam-L34F2-L37F2">
								<polygon points="15172,276 16371,394 16371,484 15172,366 " />
								<polygon points="15172,411 16371,529 16371,619 15172,501 " />
								<g class="note" id="note-L34F2">
									<use xlink:href="#E0A4" x="14964" y="1080" height="720px" width="720px" />
									<g class="stem">
										<rect x="15172" y="294" height="764" width="18" />
									</g>
									<g class="accid" id="accid-0000001360754886">
										<use xlink:href="#E260" x="14768" y="1080" height="720px" width="720px" />
									</g>
								</g>
								<g class="note" id="note-L35F2">
									<use xlink:href="#E0A4" x="15358" y="990" height="720px" width="720px" />
									<g class="stem">
										<rect x="15566" y="334" height="634" width="18" />
									</g>
									<g class="accid" id="accid-0000001953021125" />
								</g>
								<g class="note" id="note-L36F2">
									<use xlink:href="#E0A4" x="15751" y="1080" height="720px" width="720px" />
									<g class="stem">
										<rect x="15959" y="373" height="685" width="18" />
									</g>
									<g class="accid" id="accid-0000002103198659" />
								</g>
								<g class="note" id="note-L37F2">
									<use xlink:href="#E0A4" x="16145" y="1260" height="720px" width="720px" />
									<g class="stem">
										<rect x="16353" y="412" height="826" width="18" />
									</g>
									<g class="accid" id="accid-0000001354060038" />
								</g>
							</g>
						</g>
					</g>
					<g class="staff" id="staff-L29F1N1">
						<path d="M12188 2160 L16569 2160" stroke="#000000" stroke-width="13" />
						<path d="M12188 2340 L16569 2340" stroke="#000000" stroke-width="13" />
						<path d="M12188 2520 L16569 2520" stroke="#000000" stroke-width="13" />
						<path d="M12188 2700 L16569 2700" stroke="#000000" stroke-width="13" />
						<path d="M12188 2880 L16569 2880" stroke="#000000" stroke-width="13" />
						<g class="layer" id="layer-L29F1N1">
							<g class="beam" id="beam-L30F1-L33F1">
								<polygon points="12656,3194 14344,3313 14344,3223 12656,3104 " />
								<polygon points="12656,3059 14344,3178 14344,3088 12656,2969 " />
								<g class="note" id="note-L30F1">
									<use xlink:href="#E0A4" x="12656" y="2430" height="720px" width="720px" />
									<g class="stem">
										<rect x="12656" y="2452" height="724" width="18" />
									</g>
									<g class="accid" id="accid-0000001579424565">
										<use xlink:href="#E262" x="12461" y="2430" height="720px" width="720px" />
									</g>
								</g>
								<g class="note" id="note-L31F1">
									<use xlink:href="#E0A4" x="13294" y="2250" height="720px" width="720px" />
									<g class="stem">
										<rect x="13294" y="2272" height="950" width="18" />
									</g>
									<g class="accid" id="accid-0000001758966274">
										<use xlink:href="#E262" x="13099" y="2250" height="720px" width="720px" />
									</g>
								</g>
								<g class="note" id="note-L32F1">
									<use xlink:href="#E0A4" x="13932" y="2610" height="720px" width="720px" />
									<g class="stem">
										<rect x="13932" y="2632" height="635" width="18" />
									</g>
									<g class="accid" id="accid-0000000215578375">
										<use xlink:href="#E262" x="13737" y="2610" height="720px" width="720px" />
									</g>
								</g>
								<g class="note" id="note-L33F1">
									<use xlink:href="#E0A4" x="14326" y="2430" height="720px" width="720px" />
									<g class="stem">
										<rect x="14326" y="2452" height="843" width="18" />
									</g>
									<g class="accid" id="accid-0000001329288181" />
								</g>
							</g>
							<g class="beam" id="beam-L34F1-L37F1">
								<polygon points="14964,3184 16163,3065 16163,2975 14964,3094 " />
								<polygon points="15760,2970 16163,2930 16163,2840 15760,2880 " />
								<g class="note" id="note-L34F1">
									<use xlink:href="#E0A4" x="14964" y="2430" height="720px" width="720px" />
									<g class="stem">
										<rect x="14964" y="2452" height="714" width="18" />
									</g>
									<g class="accid" id="accid-0000000632551285" />
								</g>
								<g class="note" id="note-L36F1">
									<use xlink:href="#E0A4" x="15751" y="2430" height="720px" width="720px" />
									<g class="stem">
										<rect x="15751" y="2452" height="635" width="18" />
									</g>
									<g class="accid" id="accid-0000001967132753" />
								</g>
								<g class="note" id="note-L37F1">
									<use xlink:href="#E0A4" x="16145" y="2250" height="720px" width="720px" />
									<g class="stem">
										<rect x="16145" y="2272" height="775" width="18" />
									</g>
									<g class="accid" id="accid-0000000673445220" />
								</g>
							</g>
						</g>
					</g>
					<g class="tie" id="tie-L33F1-L34F1">
						<path d="M14574,2385 C14666,2243 14850,2243 14942,2385 C14850,2287 14666,2287 14574,2385" stroke="#000000" stroke-linecap="round" stroke-linejoin="round" stroke-width="9" />
					</g>
					<g class="mNum autogenerated" id="mnum-0000001381405002" />
					<g class="barLineAttr" id="bline-0000000799223195">
						<path d="M16556 2880 L16556 720" stroke="#000000" stroke-width="27" />
					</g>
				</g>
				<g class="measure" id="measure-L38">
					<g class="staff" id="staff-L38F2N1">
						<path d="M16569 720 L20002 720" stroke="#000000" stroke-width="13" />
						<path d="M16569 900 L20002 900" stroke="#000000" stroke-width="13" />
						<path d="M16569 1080 L20002 1080" stroke="#000000" stroke-width="13" />
						<path d="M16569 1260 L20002 1260" stroke="#000000" stroke-width="13" />
						<path d="M16569 1440 L20002 1440" stroke="#000000" stroke-width="13" />
						<g class="ledgerLines below">
							<path d="M19547 1620 L19826 1620" stroke="#000000" stroke-width="22" />
						</g>
						<g class="layer" id="layer-L38F2N1">
							<g class="rest" id="rest-L39F2">
								<use xlink:href="#E4E5" x="16794" y="1080" height="720px" width="720px" />
							</g>
							<g class="beam" id="beam-L41F2-L44F2">
								<polygon points="18361,496 19804,639 19804,729 18361,586 " />
								<polygon points="19158,710 19804,774 19804,864 19158,800 " />
								<g class="note" id="note-L41F2">
									<use xlink:href="#E0A4" x="18153" y="1170" height="720px" width="720px" />
									<g class="stem">
										<rect x="18361" y="514" height="634" width="18" />
									</g>
									<g class="accid" id="accid-0000000503887899" />
								</g>
								<g class="note" id="note-L43F2">
									<use xlink:href="#E0A4" x="18941" y="1260" height="720px" width="720px" />
									<g class="stem">
										<rect x="19149" y="593" height="645" width="18" />
									</g>
									<g class="accid" id="accid-0000001517341398">
										<use xlink:href="#E262" x="18746" y="1260" height="720px" width="720px" />
									</g>
								</g>
								<g class="note" id="note-L44F2">
									<use xlink:href="#E0A4" x="19578" y="1620" height="720px" width="720px" />
									<g class="stem">
										<rect x="19786" y="657" height="941" width="18" />
									</g>
									<g class="accid" id="accid-0000000753723145">
										<use xlink:href="#E262" x="19383" y="1620" height="720px" width="720px" />
									</g>
								</g>
							</g>
						</g>
					</g>
					<g class="staff" id="staff-L38F1N1">
						<path d="M16569 2160 L20002 2160" stroke="#000000" stroke-width="13" />
						<path d="M16569 2340 L20002 2340" stroke="#000000" stroke-width="13" />
						<path d="M16569 2520 L20002 2520" stroke="#000000" stroke-width="13" />
						<path d="M16569 2700 L20002 2700" stroke="#000000" stroke-width="13" />
						<path d="M16569 2880 L20002 2880" stroke="#000000" stroke-width="13" />
						<g class="layer" id="layer-L38F1N1">
							<g class="beam" id="beam-L39F1-L40F1">
								<polygon points="16794,3105 17449,3041 17449,2951 16794,3015 " />
								<polygon points="16794,2970 16952,2955 16952,2865 16794,2880 " />
								<g class="note" id="note-L39F1">
									<use xlink:href="#E0A4" x="16794" y="2430" height="720px" width="720px" />
									<g class="stem">
										<rect x="16794" y="2452" height="635" width="18" />
									</g>
									<g class="accid" id="accid-0000001578962791" />
								</g>
								<g class="note" id="note-L40F1">
									<use xlink:href="#E0A4" x="17431" y="2250" height="720px" width="720px" />
									<g class="dots" id="dots-0000000024865191">
										<ellipse cx="17747" cy="2250" rx="36" ry="36" />
									</g>
									<g class="stem">
										<rect x="17431" y="2272" height="751" width="18" />
									</g>
									<g class="accid" id="accid-0000000190053328">
										<use xlink:href="#E262" x="17236" y="2250" height="720px" width="720px" />
									</g>
								</g>
							</g>
							<g class="beam" id="beam-L41F1-L44F1">
								<polygon points="18153,3171 19596,3051 19596,2961 18153,3081 " />
								<polygon points="18153,3036 19596,2916 19596,2826 18153,2946 " />
								<g class="note" id="note-L41F1">
									<use xlink:href="#E0A4" x="18153" y="2430" height="720px" width="720px" />
									<g class="stem">
										<rect x="18153" y="2452" height="701" width="18" />
									</g>
									<g class="accid" id="accid-0000000295661962" />
								</g>
								<g class="note" id="note-L42F1">
									<use xlink:href="#E0A4" x="18547" y="2250" height="720px" width="720px" />
									<g class="stem">
										<rect x="18547" y="2272" height="848" width="18" />
									</g>
									<g class="accid" id="accid-0000001115722698" />
								</g>
								<g class="note" id="note-L43F1">
									<use xlink:href="#E0A4" x="18941" y="2430" height="720px" width="720px" />
									<g class="stem">
										<rect x="18941" y="2452" height="635" width="18" />
									</g>
									<g class="accid" id="accid-0000001881294137" />
								</g>
								<g class="note" id="note-L44F1">
									<use xlink:href="#E0A4" x="19578" y="2250" height="720px" width="720px" />
									<g class="stem">
										<rect x="19578" y="2272" height="761" width="18" />
									</g>
									<g class="accid" id="accid-0000001347947070" />
								</g>
							</g>
						</g>
					</g>
					<g class="tie" id="tie-L44F1-L46F1">
						<path d="M19691,2115 C19765,1973 19913,1973 19989,2115 C19913,2017 19765,2017 19691,2115" stroke="#000000" stroke-linecap="round" stroke-linejoin="round" stroke-width="9" />
					</g>
					<g class="mNum autogenerated" id="mnum-0000001058679672" />
					<g class="barLineAttr" id="bline-0000002017148066">
						<path d="M19989 2880 L19989 720" stroke="#000000" stroke-width="27" />
					</g>
				</g>
			</g>
		</g>
	</svg>
</svg>
