<?xml version="1.0" encoding="UTF-8" standalone="no"?>
<svg width="2100.00px" height="450.00px" version="1.1" xmlns="http://www.w3.org/2000/svg" xmlns:xlink="http://www.w3.org/1999/xlink" overflow="visible">
	<desc>Engraved by Verovio 2.0.0-dev-0f0381c</desc>
	<defs>
		<symbol id="E050" viewBox="0 0 1000 1000" overflow="inherit">
			<path transform="scale(1,-1)" d="M441 -245c-23 -4 -48 -6 -76 -6c-59 0 -102 7 -130 20c-88 42 -150 93 -187 154c-26 44 -43 103 -48 176c-4 60 11 123 44 189c29 57 65 106 110 148s96 85 153 127c-3 16 -8 46 -13 92c-4 43 -5 73 -5 89c0 117 16 172 69 257c34 54 64 82 89 82c21 0 43 -30 69 -92 s39 -115 41 -159c2 -120 -19 -173 -67 -256c-13 -20 -63 -90 -98 -118c-13 -9 -25 -19 -37 -29l31 -181c8 1 18 2 28 2c58 0 102 -12 133 -35c59 -43 92 -104 98 -184c11 -135 -80 -229 -180 -270c8 -57 17 -110 25 -162c5 -31 6 -58 6 -80c0 -30 -5 -53 -14 -70 c-35 -64 -88 -99 -158 -103c-42 -3 -83 6 -124 26c-50 24 -77 59 -80 105c-2 34 5 63 20 87c18 28 45 42 79 44c51 4 99 -40 103 -87c4 -56 -30 -94 -105 -115c17 -24 51 -36 102 -36c62 0 116 43 140 85c9 16 13 41 13 74c0 20 -1 42 -5 67c-8 53 -18 106 -26 159zM461 939 c-95 0 -135 -175 -135 -286c0 -24 2 -48 5 -71c50 39 92 82 127 128c43 57 63 106 60 148c-4 54 -23 82 -57 81zM406 119l54 -326c80 27 116 88 109 184c-7 99 -62 146 -163 142zM382 117c-74 -2 -132 -50 -128 -127c2 -46 43 -99 75 -115c-3 -2 -7 -5 -10 -10 c-70 33 -116 88 -123 172c-5 73 42 135 88 170c23 17 49 29 78 36l-29 170c-21 -13 -52 -37 -92 -73c-50 -44 -86 -84 -109 -119c-49 -75 -71 -140 -67 -195c5 -68 35 -127 93 -176s125 -73 203 -73c25 0 50 3 75 9c-19 111 -36 221 -54 331z" />
		</symbol>
		<symbol id="E082" viewBox="0 0 1000 1000" overflow="inherit">
			<path transform="scale(1,-1)" d="M104 -185c-18 0 -55 -14 -65 -65h-36l-3 29c0 25 6 46 18 64c11 19 22 30 39 43l121 82l37 29c15 11 27 29 38 54c12 24 18 47 18 70c0 40 -19 88 -94 88c-25 0 -32 0 -50 -8c-14 -5 -23 -12 -26 -22c3 -9 7 -15 10 -18l24 -17c12 -7 17 -11 27 -21c5 -7 7 -16 7 -27 c0 -12 0 -57 -79 -74c-30 0 -76 26 -76 94c0 66 80 135 196 135c72 0 182 -32 182 -150c0 -53 -32 -95 -113 -133l-91 -41c-26 -11 -45 -23 -57 -37l49 7c84 0 115 -41 148 -41c20 0 33 20 39 61h35c0 -152 -68 -168 -114 -168c-17 0 -55 0 -69 7v0l-28 17 c-49 37 -69 40 -87 42z" />
		</symbol>
		<symbol id="E084" viewBox="0 0 1000 1000" overflow="inherit">
			<path transform="scale(1,-1)" d="M0 -78c84 97 114 180 134 329h170c-13 -32 -82 -132 -99 -151l-84 -97c-33 -36 -59 -63 -80 -81h162v102l127 123v-225h57v-39h-57v-34c0 -43 19 -65 57 -65v-34h-244v36c48 0 60 26 60 70v27h-203v39z" />
		</symbol>
		<symbol id="E4E5" viewBox="0 0 1000 1000" overflow="inherit">
			<path transform="scale(1,-1)" d="M107 292c-13 24 -30 49 -52 71c-1 1 0 2 0 3l-2 2c3 3 4 4 6 4c12 0 26 -7 40 -20s44 -40 89 -81c26 -24 28 -29 46 -47c4 -4 8 -9 10 -14c6 -8 8 -16 8 -27c0 -19 -12 -40 -36 -61c-28 -23 -49 -38 -61 -73c-4 -11 -7 -27 -10 -50c13 -43 34 -83 59 -121 c31 -47 59 -79 101 -129c-8 0 -26 7 -54 20l-62 29l-21 6l-23 1c-25 0 -45 -10 -60 -30l-4 -14l-1 -12c0 -33 20 -56 39 -78c8 -9 17 -18 26 -26c17 -15 27 -24 28 -30l-3 -3c-11 5 -19 10 -25 15c-9 3 -37 21 -45 26c-24 14 -45 32 -63 51c-19 21 -37 44 -37 71 c0 63 27 95 80 95c41 0 86 -18 136 -52c-19 26 -37 48 -55 66c-23 23 -48 44 -73 65c-28 23 -47 40 -58 53s-17 26 -18 39c75 64 113 125 113 183c0 27 -7 48 -18 68z" />
		</symbol>
		<symbol id="E0A4" viewBox="0 0 1000 1000" overflow="inherit">
			<path transform="scale(1,-1)" d="M0 -39c0 68 73 172 200 172c66 0 114 -37 114 -95c0 -84 -106 -171 -218 -171c-64 0 -96 30 -96 94z" />
		</symbol>
		<symbol id="E062" viewBox="0 0 1000 1000" overflow="inherit">
			<path transform="scale(1,-1)" d="M158 96c51 0 73 -14 88 -49l16 -39c0 -17 -2 -30 -7 -40c-3 -11 -10 -21 -19 -31c-17 -18 -49 -43 -84 -43c-55 0 -77 13 -112 44c-24 21 -35 55 -35 100c0 46 14 81 32 112c30 52 71 79 137 93l36 6l26 2c154 0 235 -68 274 -182c11 -32 18 -68 18 -107 c0 -103 -26 -182 -68 -250c-89 -145 -234 -230 -412 -288l-30 -5c-9 0 -14 3 -14 8c3 10 5 11 10 16c35 15 70 30 96 44l78 43c96 57 162 136 197 258c9 33 17 60 22 100c3 22 5 35 6 39c-7 69 -16 115 -23 140s-4 22 -16 40c-8 12 -19 23 -31 34c-24 21 -62 44 -118 44 c-48 0 -84 -8 -113 -28c-28 -19 -42 -44 -42 -73v-16c2 -5 3 -9 4 -11c24 22 52 39 84 39zM585 -118c0 32 23 58 57 58c18 0 33 -6 40 -18c9 -15 16 -18 16 -40c0 -9 -2 -16 -5 -21c-6 -19 -27 -37 -51 -37c-34 0 -57 26 -57 58zM642 177c31 0 56 -27 56 -58 c0 -30 -25 -58 -56 -58l-23 3c-19 7 -34 32 -34 55l3 23c9 20 28 35 54 35z" />
		</symbol>
		<symbol id="E260" viewBox="0 0 1000 1000" overflow="inherit">
			<path transform="scale(1,-1)" d="M20 110c32 16 54 27 93 27c26 0 35 -3 54 -13c13 -7 24 -20 27 -38l4 -25c0 -28 -16 -57 -45 -89c-23 -25 -39 -44 -65 -68l-88 -79v644h20v-359zM90 106c-32 0 -48 -10 -70 -29v-194c31 31 54 59 71 84c21 32 32 59 32 84c0 9 1 16 1 20c0 14 -3 21 -11 30l-8 3z" />
		</symbol>
		<symbol id="E262" viewBox="0 0 1000 1000" overflow="inherit">
			<path transform="scale(1,-1)" d="M136 186v169h17v-164l44 14v-91l-44 -14v-165l44 12v-91l-44 -13v-155h-17v150l-76 -22v-155h-17v149l-43 -13v90l43 14v167l-43 -14v92l43 13v169h17v-163zM60 73v-167l76 22v168z" />
		</symbol>
	</defs>
	<style type="text/css">g.page-margin{font-family:Times;} g.tempo{font-weight:bold;} g.dir, g.dynam, g.mNum{font-style:italic;} g.label{font-weight:normal;}</style>
	<svg class="definition-scale" viewBox="0 0 21000 4500">
		<g class="page-margin" transform="translate(500, 500)">
			<g class="system" id="system-0000000455477290">
				<path d="M13 720 L13 2944" stroke="#000000" stroke-width="27" />
				<path d="M-32,2926 C-392,2386 58,2012 -212,1832 C121,2012 -329,2386 -32,2926" stroke="#000000" stroke-linecap="round" stroke-linejoin="round" stroke-width="18" />
				<path d="M-32,738 C-329,1278 121,1652 -212,1832 C58,1652 -392,1278 -32,738" stroke="#000000" stroke-linecap="round" stroke-linejoin="round" stroke-width="18" />
				<g class="section boundaryStart" id="section-L1F1" />
				<g class="measure" id="measure-L4">
					<g class="staff" id="staff-L4F2N1">
						<path d="M0 720 L4457 720" stroke="#000000" stroke-width="13" />
						<path d="M0 900 L4457 900" stroke="#000000" stroke-width="13" />
						<path d="M0 1080 L4457 1080" stroke="#000000" stroke-width="13" />
						<path d="M0 1260 L4457 1260" stroke="#000000" stroke-width="13" />
						<path d="M0 1440 L4457 1440" stroke="#000000" stroke-width="13" />
						<g class="clef" id="clef-0000001193304403">
							<use xlink:href="#E050" x="90" y="1260" height="720px" width="720px" />
						</g>
						<g class="meterSig" id="msig-0000000517321888">
							<use xlink:href="#E082" x="771" y="900" height="720px" width="720px" />
							<use xlink:href="#E084" x="777" y="1260" height="720px" width="720px" />
						</g>
						<g class="ledgerLines below">
							<path d="M3636 1620 L3915 1620" stroke="#000000" stroke-width="22" />
						</g>
						<g class="layer" id="layer-L4F2N1">
							<g class="rest" id="rest-L5F2">
								<use xlink:href="#E4E5" x="1367" y="1080" height="720px" width="720px" />
							</g>
							<g class="beam" id="beam-L9F2-L11F2">
								<polygon points="3333,586 4273,678 4273,768 3333,676 " />
								<polygon points="3884,775 4273,813 4273,903 3884,865 " />
								<g class="note" id="note-L9F2">
									<use xlink:href="#E0A4" x="3125" y="1260" height="720px" width="720px" />
									<g class="stem">
										<rect x="3333" y="604" height="634" width="18" />
									</g>
									<g class="accid" id="accid-0000000050837855" />
								</g>
								<g class="note" id="note-L10F2">
									<use xlink:href="#E0A4" x="3667" y="1620" height="720px" width="720px" />
									<g class="stem">
										<rect x="3875" y="658" height="940" width="18" />
									</g>
									<g class="accid" id="accid-0000000001380842" />
								</g>
								<g class="note" id="note-L11F2">
									<use xlink:href="#E0A4" x="4047" y="1530" height="720px" width="720px" />
									<g class="stem">
										<rect x="4255" y="696" height="812" width="18" />
									</g>
									<g class="accid" id="accid-0000001938007754" />
								</g>
							</g>
						</g>
					</g>
					<g class="staff" id="staff-L4F1N1">
						<path d="M0 2224 L4457 2224" stroke="#000000" stroke-width="13" />
						<path d="M0 2404 L4457 2404" stroke="#000000" stroke-width="13" />
						<path d="M0 2584 L4457 2584" stroke="#000000" stroke-width="13" />
						<path d="M0 2764 L4457 2764" stroke="#000000" stroke-width="13" />
						<path d="M0 2944 L4457 2944" stroke="#000000" stroke-width="13" />
						<g class="clef" id="clef-0000001615168560">
							<use xlink:href="#E062" x="90" y="2404" height="720px" width="720px" />
						</g>
						<g class="meterSig" id="msig-0000001944689840">
							<use xlink:href="#E082" x="771" y="2404" height="720px" width="720px" />
							<use xlink:href="#E084" x="777" y="2764" height="720px" width="720px" />
						</g>
						<g class="layer" id="layer-L4F1N1">
							<g class="beam" id="beam-L5F1-L8F1">
								<polygon points="1575,1948 2971,1810 2971,1900 1575,2038 " />
								<polygon points="1575,2083 2971,1945 2971,2035 1575,2173 " />
								<g class="note" id="note-L5F1">
									<use xlink:href="#E0A4" x="1367" y="2674" height="720px" width="720px" />
									<g class="stem">
										<rect x="1575" y="1966" height="686" width="18" />
									</g>
									<g class="accid" id="accid-0000000390719281" />
								</g>
								<g class="note" id="note-L6F1">
									<use xlink:href="#E0A4" x="1748" y="2584" height="720px" width="720px" />
									<g class="stem">
										<rect x="1956" y="1928" height="634" width="18" />
									</g>
									<g class="accid" id="accid-0000000016381519" />
								</g>
								<g class="note" id="note-L7F1">
									<use xlink:href="#E0A4" x="2128" y="2674" height="720px" width="720px" />
									<g class="stem">
										<rect x="2336" y="1890" height="762" width="18" />
									</g>
									<g class="accid" id="accid-0000001665771395" />
								</g>
								<g class="note" id="note-L8F1">
									<use xlink:href="#E0A4" x="2745" y="2494" height="720px" width="720px" />
									<g class="stem">
										<rect x="2953" y="1828" height="644" width="18" />
									</g>
									<g class="accid" id="accid-0000001826341407">
										<use xlink:href="#E260" x="2549" y="2494" height="720px" width="720px" />
									</g>
								</g>
							</g>
							<g class="beam" id="beam-L9F1-L11F1">
								<polygon points="3125,3256 4065,3349 4065,3259 3125,3166 " />
								<polygon points="3676,3176 4065,3214 4065,3124 3676,3086 " />
								<g class="note" id="note-L9F1">
									<use xlink:href="#E0A4" x="3125" y="2494" height="720px" width="720px" />
									<g class="stem">
										<rect x="3125" y="2516" height="722" width="18" />
									</g>
									<g class="accid" id="accid-0000000589195022" />
								</g>
								<g class="note" id="note-L10F1">
									<use xlink:href="#E0A4" x="3667" y="2584" height="720px" width="720px" />
									<g class="stem">
										<rect x="3667" y="2606" height="687" width="18" />
									</g>
									<g class="accid" id="accid-0000002102051855" />
								</g>
								<g class="note" id="note-L11F1">
									<use xlink:href="#E0A4" x="4047" y="2674" height="720px" width="720px" />
									<g class="stem">
										<rect x="4047" y="2696" height="635" width="18" />
									</g>
									<g class="accid" id="accid-0000001221788498" />
								</g>
							</g>
						</g>
					</g>
					<g class="tie" id="tie-L8F1-L9F1">
						<path d="M2858,2629 C2953,2727 3143,2727 3238,2629 C3143,2771 2953,2771 2858,2629" stroke="#000000" stroke-linecap="round" stroke-linejoin="round" stroke-width="9" />
					</g>
					<g class="mNum autogenerated" id="mnum-0000002034112724" />
					<g class="barLineAttr" id="bline-0000000099249250">
						<path d="M4444 2944 L4444 720" stroke="#000000" stroke-width="27" />
					</g>
				</g>
				<g class="measure" id="measure-L12">
					<g class="staff" id="staff-L12F2N1">
						<path d="M4457 720 L8456 720" stroke="#000000" stroke-width="13" />
						<path d="M4457 900 L8456 900" stroke="#000000" stroke-width="13" />
						<path d="M4457 1080 L8456 1080" stroke="#000000" stroke-width="13" />
						<path d="M4457 1260 L8456 1260" stroke="#000000" stroke-width="13" />
						<path d="M4457 1440 L8456 1440" stroke="#000000" stroke-width="13" />
						<g class="layer" id="layer-L12F2N1">
							<g class="beam" id="beam-L13F2-L16F2">
								<polygon points="5118,481 6749,376 6749,466 5118,571 " />
								<polygon points="5118,616 6749,511 6749,601 5118,706 " />
								<g class="note" id="note-L13F2">
									<use xlink:href="#E0A4" x="4910" y="1170" height="720px" width="720px" />
									<g class="stem">
										<rect x="5118" y="499" height="649" width="18" />
									</g>
									<g class="accid" id="accid-0000001678633456">
										<use xlink:href="#E260" x="4714" y="1170" height="720px" width="720px" />
									</g>
								</g>
								<g class="note" id="note-L14F2">
									<use xlink:href="#E0A4" x="5527" y="1350" height="720px" width="720px" />
									<g class="stem">
										<rect x="5735" y="459" height="869" width="18" />
									</g>
									<g class="accid" id="accid-0000001944243587" />
								</g>
								<g class="note" id="note-L15F2">
									<use xlink:href="#E0A4" x="5907" y="1260" height="720px" width="720px" />
									<g class="stem">
										<rect x="6115" y="434" height="804" width="18" />
									</g>
									<g class="accid" id="accid-0000000097744016" />
								</g>
								<g class="note" id="note-L16F2">
									<use xlink:href="#E0A4" x="6523" y="1080" height="720px" width="720px" />
									<g class="stem">
										<rect x="6731" y="394" height="664" width="18" />
									</g>
									<g class="accid" id="accid-0000001436387927">
										<use xlink:href="#E260" x="6327" y="1080" height="720px" width="720px" />
									</g>
								</g>
							</g>
							<g class="beam" id="beam-L17F2-L20F2">
								<polygon points="7112,316 8271,430 8271,520 7112,406 " />
								<polygon points="7112,451 8271,565 8271,655 7112,541 " />
								<g class="note" id="note-L17F2">
									<use xlink:href="#E0A4" x="6904" y="990" height="720px" width="720px" />
									<g class="stem">
										<rect x="7112" y="334" height="634" width="18" />
									</g>
									<g class="accid" id="accid-0000000811514457" />
								</g>
								<g class="note" id="note-L18F2">
									<use xlink:href="#E0A4" x="7284" y="1080" height="720px" width="720px" />
									<g class="stem">
										<rect x="7492" y="372" height="686" width="18" />
									</g>
									<g class="accid" id="accid-0000001546150841" />
								</g>
								<g class="note" id="note-L19F2">
									<use xlink:href="#E0A4" x="7665" y="1260" height="720px" width="720px" />
									<g class="stem">
										<rect x="7873" y="410" height="828" width="18" />
									</g>
									<g class="accid" id="accid-0000001633883542" />
								</g>
								<g class="note" id="note-L20F2">
									<use xlink:href="#E0A4" x="8045" y="1350" height="720px" width="720px" />
									<g class="stem">
										<rect x="8253" y="448" height="880" width="18" />
									</g>
									<g class="accid" id="accid-0000000425635689" />
								</g>
							</g>
						</g>
					</g>
					<g class="staff" id="staff-L12F1N1">
						<path d="M4457 2224 L8456 2224" stroke="#000000" stroke-width="13" />
						<path d="M4457 2404 L8456 2404" stroke="#000000" stroke-width="13" />
						<path d="M4457 2584 L8456 2584" stroke="#000000" stroke-width="13" />
						<path d="M4457 2764 L8456 2764" stroke="#000000" stroke-width="13" />
						<path d="M4457 2944 L8456 2944" stroke="#000000" stroke-width="13" />
						<g class="layer" id="layer-L12F1N1">
							<g class="beam" id="beam-L13F1-L14F1">
								<polygon points="4910,3259 5545,3197 5545,3107 4910,3169 " />
								<polygon points="4910,3124 5068,3109 5068,3019 4910,3034 " />
								<g class="note" id="note-L13F1">
									<use xlink:href="#E0A4" x="4910" y="2584" height="720px" width="720px" />
									<g class="stem">
										<rect x="4910" y="2606" height="635" width="18" />
									</g>
									<g class="accid" id="accid-0000000370559520" />
								</g>
								<g class="note" id="note-L14F1">
									<use xlink:href="#E0A4" x="5527" y="2494" height="720px" width="720px" />
									<g class="dots" id="dots-0000001836098905">
										<ellipse cx="5843" cy="2494" rx="36" ry="36" />
									</g>
									<g class="stem">
										<rect x="5527" y="2516" height="663" width="18" />
									</g>
									<g class="accid" id="accid-0000001366214867">
										<use xlink:href="#E260" x="5331" y="2494" height="720px" width="720px" />
									</g>
								</g>
							</g>
							<g class="beam" id="beam-L17F1-L20F1">
								<polygon points="6904,3385 8063,3277 8063,3187 6904,3295 " />
								<polygon points="6904,3250 8063,3142 8063,3052 6904,3160 " />
								<g class="note" id="note-L17F1">
									<use xlink:href="#E0A4" x="6904" y="2584" height="720px" width="720px" />
									<g class="stem">
										<rect x="6904" y="2606" height="761" width="18" />
									</g>
									<g class="accid" id="accid-0000001647505363" />
								</g>
								<g class="note" id="note-L18F1">
									<use xlink:href="#E0A4" x="7284" y="2674" height="720px" width="720px" />
									<g class="stem">
										<rect x="7284" y="2696" height="635" width="18" />
									</g>
									<g class="accid" id="accid-0000000865487870" />
								</g>
								<g class="note" id="note-L19F1">
									<use xlink:href="#E0A4" x="7665" y="2584" height="720px" width="720px" />
									<g class="stem">
										<rect x="7665" y="2606" height="689" width="18" />
									</g>
									<g class="accid" id="accid-0000000181548710" />
								</g>
								<g class="note" id="note-L20F1">
									<use xlink:href="#E0A4" x="8045" y="2494" height="720px" width="720px" />
									<g class="stem">
										<rect x="8045" y="2516" height="743" width="18" />
									</g>
									<g class="accid" id="accid-0000001618440585" />
								</g>
							</g>
						</g>
					</g>
					<g class="mNum autogenerated" id="mnum-0000001178605140" />
					<g class="barLineAttr" id="bline-0000000907986319">
						<path d="M8443 2944 L8443 720" stroke="#000000" stroke-width="27" />
					</g>
				</g>
				<g class="measure" id="measure-L21">
					<g class="staff" id="staff-L21F2N1">
						<path d="M8456 720 L12232 720" stroke="#000000" stroke-width="13" />
						<path d="M8456 900 L12232 900" stroke="#000000" stroke-width="13" />
						<path d="M8456 1080 L12232 1080" stroke="#000000" stroke-width="13" />
						<path d="M8456 1260 L12232 1260" stroke="#000000" stroke-width="13" />
						<path d="M8456 1440 L12232 1440" stroke="#000000" stroke-width="13" />
						<g class="ledgerLines below">
							<path d="M11175 1620 L11454 1620" stroke="#000000" stroke-width="22" />
							<path d="M11790 1620 L12069 1620" stroke="#000000" stroke-width="22" />
						</g>
						<g class="layer" id="layer-L21F2N1">
							<g class="rest" id="rest-L22F2">
								<use xlink:href="#E4E5" x="8673" y="1080" height="720px" width="720px" />
							</g>
							<g class="beam" id="beam-L26F2-L28F2">
								<polygon points="10873,676 12047,792 12047,882 10873,766 " />
								<polygon points="11423,865 12047,927 12047,1017 11423,955 " />
								<g class="note" id="note-L26F2">
									<use xlink:href="#E0A4" x="10665" y="1350" height="720px" width="720px" />
									<g class="stem">
										<rect x="10873" y="694" height="634" width="18" />
									</g>
									<g class="accid" id="accid-0000001925257482">
										<use xlink:href="#E262" x="10470" y="1350" height="720px" width="720px" />
									</g>
								</g>
								<g class="note" id="note-L27F2">
									<use xlink:href="#E0A4" x="11206" y="1710" height="720px" width="720px" />
									<g class="stem">
										<rect x="11414" y="748" height="940" width="18" />
									</g>
									<g class="accid" id="accid-0000001692993848" />
								</g>
								<g class="note" id="note-L28F2">
									<use xlink:href="#E0A4" x="11821" y="1620" height="720px" width="720px" />
									<g class="stem">
										<rect x="12029" y="810" height="788" width="18" />
									</g>
									<g class="accid" id="accid-0000000227435250">
										<use xlink:href="#E262" x="11626" y="1620" height="720px" width="720px" />
									</g>
								</g>
							</g>
						</g>
					</g>
					<g class="staff" id="staff-L21F1N1">
						<path d="M8456 2224 L12232 2224" stroke="#000000" stroke-width="13" />
						<path d="M8456 2404 L12232 2404" stroke="#000000" stroke-width="13" />
						<path d="M8456 2584 L12232 2584" stroke="#000000" stroke-width="13" />
						<path d="M8456 2764 L12232 2764" stroke="#000000" stroke-width="13" />
						<path d="M8456 2944 L12232 2944" stroke="#000000" stroke-width="13" />
						<g class="layer" id="layer-L21F1N1">
							<g class="beam" id="beam-L22F1-L25F1">
								<polygon points="8881,2057 10510,1907 10510,1997 8881,2147 " />
								<polygon points="8881,2192 10510,2042 10510,2132 8881,2282 " />
								<g class="note" id="note-L22F1">
									<use xlink:href="#E0A4" x="8673" y="2764" height="720px" width="720px" />
									<g class="stem">
										<rect x="8881" y="2075" height="667" width="18" />
									</g>
									<g class="accid" id="accid-0000001788093797" />
								</g>
								<g class="note" id="note-L23F1">
									<use xlink:href="#E0A4" x="9288" y="2674" height="720px" width="720px" />
									<g class="stem">
										<rect x="9496" y="2018" height="634" width="18" />
									</g>
									<g class="accid" id="accid-0000000107150212">
										<use xlink:href="#E262" x="9093" y="2674" height="720px" width="720px" />
									</g>
								</g>
								<g class="note" id="note-L24F1">
									<use xlink:href="#E0A4" x="9669" y="2764" height="720px" width="720px" />
									<g class="stem">
										<rect x="9877" y="1982" height="760" width="18" />
									</g>
									<g class="accid" id="accid-0000001901707041" />
								</g>
								<g class="note" id="note-L25F1">
									<use xlink:href="#E0A4" x="10284" y="2584" height="720px" width="720px" />
									<g class="stem">
										<rect x="10492" y="1925" height="637" width="18" />
									</g>
									<g class="accid" id="accid-0000001867077170">
										<use xlink:href="#E262" x="10089" y="2584" height="720px" width="720px" />
									</g>
								</g>
							</g>
							<g class="beam" id="beam-L26F1-L28F1">
								<polygon points="10873,1910 12047,2026 12047,2116 10873,2000 " />
								<polygon points="11423,2099 12047,2161 12047,2251 11423,2189 " />
								<g class="note" id="note-L26F1">
									<use xlink:href="#E0A4" x="10665" y="2584" height="720px" width="720px" />
									<g class="stem">
										<rect x="10873" y="1928" height="634" width="18" />
									</g>
									<g class="accid" id="accid-0000001290295848" />
								</g>
								<g class="note" id="note-L27F1">
									<use xlink:href="#E0A4" x="11206" y="2674" height="720px" width="720px" />
									<g class="stem">
										<rect x="11414" y="1982" height="670" width="18" />
									</g>
									<g class="accid" id="accid-0000001924641485" />
								</g>
								<g class="note" id="note-L28F1">
									<use xlink:href="#E0A4" x="11821" y="2764" height="720px" width="720px" />
									<g class="stem">
										<rect x="12029" y="2044" height="698" width="18" />
									</g>
									<g class="accid" id="accid-0000001944501064" />
								</g>
							</g>
						</g>
					</g>
					<g class="tie" id="tie-L25F1-L26F1">
						<path d="M10397,2719 C10492,2817 10682,2817 10778,2719 C10682,2861 10492,2861 10397,2719" stroke="#000000" stroke-linecap="round" stroke-linejoin="round" stroke-width="9" />
					</g>
					<g class="mNum autogenerated" id="mnum-0000000450470749" />
					<g class="barLineAttr" id="bline-0000000967664771">
						<path d="M12219 2944 L12219 720" stroke="#000000" stroke-width="27" />
					</g>
				</g>
				<g class="measure" id="measure-L29">
					<g class="staff" id="staff-L29F2N1">
						<path d="M12232 720 L16462 720" stroke="#000000" stroke-width="13" />
						<path d="M12232 900 L16462 900" stroke="#000000" stroke-width="13" />
						<path d="M12232 1080 L16462 1080" stroke="#000000" stroke-width="13" />
						<path d="M12232 1260 L16462 1260" stroke="#000000" stroke-width="13" />
						<path d="M12232 1440 L16462 1440" stroke="#000000" stroke-width="13" />
						<g class="layer" id="layer-L29F2N1">
							<g class="beam" id="beam-L30F2-L33F2">
								<polygon points="12892,573 14756,465 14756,555 12892,663 " />
								<polygon points="12892,708 14756,600 14756,690 12892,798 " />
								<g class="note" id="note-L30F2">
									<use xlink:href="#E0A4" x="12684" y="1260" height="720px" width="720px" />
									<g class="stem">
										<rect x="12892" y="591" height="647" width="18" />
									</g>
									<g class="accid" id="accid-0000000488034886">
										<use xlink:href="#E262" x="12489" y="1260" height="720px" width="720px" />
									</g>
								</g>
								<g class="note" id="note-L31F2">
									<use xlink:href="#E0A4" x="13299" y="1440" height="720px" width="720px" />
									<g class="stem">
										<rect x="13507" y="555" height="863" width="18" />
									</g>
									<g class="accid" id="accid-0000000947345851">
										<use xlink:href="#E262" x="13104" y="1440" height="720px" width="720px" />
									</g>
								</g>
								<g class="note" id="note-L32F2">
									<use xlink:href="#E0A4" x="13914" y="1350" height="720px" width="720px" />
									<g class="stem">
										<rect x="14122" y="519" height="809" width="18" />
									</g>
									<g class="accid" id="accid-0000001819231180">
										<use xlink:href="#E262" x="13719" y="1350" height="720px" width="720px" />
									</g>
								</g>
								<g class="note" id="note-L33F2">
									<use xlink:href="#E0A4" x="14530" y="1170" height="720px" width="720px" />
									<g class="stem">
										<rect x="14738" y="483" height="665" width="18" />
									</g>
									<g class="accid" id="accid-0000001155952505">
										<use xlink:href="#E262" x="14335" y="1170" height="720px" width="720px" />
									</g>
								</g>
							</g>
							<g class="beam" id="beam-L34F2-L37F2">
								<polygon points="15118,406 16277,520 16277,610 15118,496 " />
								<polygon points="15118,541 16277,655 16277,745 15118,631 " />
								<g class="note" id="note-L34F2">
									<use xlink:href="#E0A4" x="14910" y="1080" height="720px" width="720px" />
									<g class="stem">
										<rect x="15118" y="424" height="634" width="18" />
									</g>
									<g class="accid" id="accid-0000002110290857" />
								</g>
								<g class="note" id="note-L35F2">
									<use xlink:href="#E0A4" x="15290" y="1170" height="720px" width="720px" />
									<g class="stem">
										<rect x="15498" y="462" height="686" width="18" />
									</g>
									<g class="accid" id="accid-0000001435650216" />
								</g>
								<g class="note" id="note-L36F2">
									<use xlink:href="#E0A4" x="15671" y="1350" height="720px" width="720px" />
									<g class="stem">
										<rect x="15879" y="500" height="828" width="18" />
									</g>
									<g class="accid" id="accid-0000002061367093" />
								</g>
								<g class="note" id="note-L37F2">
									<use xlink:href="#E0A4" x="16051" y="1440" height="720px" width="720px" />
									<g class="stem">
										<rect x="16259" y="538" height="880" width="18" />
									</g>
									<g class="accid" id="accid-0000002070879608" />
								</g>
							</g>
						</g>
					</g>
					<g class="staff" id="staff-L29F1N1">
						<path d="M12232 2224 L16462 2224" stroke="#000000" stroke-width="13" />
						<path d="M12232 2404 L16462 2404" stroke="#000000" stroke-width="13" />
						<path d="M12232 2584 L16462 2584" stroke="#000000" stroke-width="13" />
						<path d="M12232 2764 L16462 2764" stroke="#000000" stroke-width="13" />
						<path d="M12232 2944 L16462 2944" stroke="#000000" stroke-width="13" />
						<g class="layer" id="layer-L29F1N1">
							<g class="beam" id="beam-L30F1-L31F1">
								<polygon points="12892,1972 13525,1910 13525,2000 12892,2062 " />
								<polygon points="12892,2107 13050,2092 13050,2182 12892,2197 " />
								<g class="note" id="note-L30F1">
									<use xlink:href="#E0A4" x="12684" y="2674" height="720px" width="720px" />
									<g class="stem">
										<rect x="12892" y="1990" height="662" width="18" />
									</g>
									<g class="accid" id="accid-0000001647884311">
										<use xlink:href="#E262" x="12489" y="2674" height="720px" width="720px" />
									</g>
								</g>
								<g class="note" id="note-L31F1">
									<use xlink:href="#E0A4" x="13299" y="2584" height="720px" width="720px" />
									<g class="dots" id="dots-0000000236321453">
										<ellipse cx="13615" cy="2494" rx="36" ry="36" />
									</g>
									<g class="stem">
										<rect x="13507" y="1928" height="634" width="18" />
									</g>
									<g class="accid" id="accid-0000000826277560">
										<use xlink:href="#E262" x="13104" y="2584" height="720px" width="720px" />
									</g>
								</g>
							</g>
							<g class="beam" id="beam-L34F1-L37F1">
								<polygon points="15118,1979 16277,1871 16277,1961 15118,2069 " />
								<polygon points="15118,2114 16277,2006 16277,2096 15118,2204 " />
								<g class="note" id="note-L34F1">
									<use xlink:href="#E0A4" x="14910" y="2674" height="720px" width="720px" />
									<g class="stem">
										<rect x="15118" y="1997" height="655" width="18" />
									</g>
									<g class="accid" id="accid-0000002032219393" />
								</g>
								<g class="note" id="note-L35F1">
									<use xlink:href="#E0A4" x="15290" y="2764" height="720px" width="720px" />
									<g class="stem">
										<rect x="15498" y="1961" height="781" width="18" />
									</g>
									<g class="accid" id="accid-0000002097807836" />
								</g>
								<g class="note" id="note-L36F1">
									<use xlink:href="#E0A4" x="15671" y="2674" height="720px" width="720px" />
									<g class="stem">
										<rect x="15879" y="1925" height="727" width="18" />
									</g>
									<g class="accid" id="accid-0000001496456870" />
								</g>
								<g class="note" id="note-L37F1">
									<use xlink:href="#E0A4" x="16051" y="2584" height="720px" width="720px" />
									<g class="stem">
										<rect x="16259" y="1889" height="673" width="18" />
									</g>
									<g class="accid" id="accid-0000001570767608" />
								</g>
							</g>
						</g>
					</g>
					<g class="mNum autogenerated" id="mnum-0000002032927026" />
					<g class="barLineAttr" id="bline-0000001439201866">
						<path d="M16449 2944 L16449 720" stroke="#000000" stroke-width="27" />
					</g>
				</g>
				<g class="measure" id="measure-L38">
					<g class="staff" id="staff-L38F2N1">
						<path d="M16462 720 L20003 720" stroke="#000000" stroke-width="13" />
						<path d="M16462 900 L20003 900" stroke="#000000" stroke-width="13" />
						<path d="M16462 1080 L20003 1080" stroke="#000000" stroke-width="13" />
						<path d="M16462 1260 L20003 1260" stroke="#000000" stroke-width="13" />
						<path d="M16462 1440 L20003 1440" stroke="#000000" stroke-width="13" />
						<g class="ledgerLines below">
							<path d="M18947 1620 L19226 1620" stroke="#000000" stroke-width="22" />
							<path d="M19562 1620 L19841 1620" stroke="#000000" stroke-width="22" />
						</g>
						<g class="layer" id="layer-L38F2N1">
							<g class="rest" id="rest-L39F2">
								<use xlink:href="#E4E5" x="16679" y="1080" height="720px" width="720px" />
							</g>
							<g class="beam" id="beam-L43F2-L45F2">
								<polygon points="18644,676 19819,792 19819,882 18644,766 " />
								<polygon points="19195,865 19819,927 19819,1017 19195,955 " />
								<g class="note" id="note-L43F2">
									<use xlink:href="#E0A4" x="18436" y="1350" height="720px" width="720px" />
									<g class="stem">
										<rect x="18644" y="694" height="634" width="18" />
									</g>
									<g class="accid" id="accid-0000001285607908">
										<use xlink:href="#E262" x="18241" y="1350" height="720px" width="720px" />
									</g>
								</g>
								<g class="note" id="note-L44F2">
									<use xlink:href="#E0A4" x="18978" y="1710" height="720px" width="720px" />
									<g class="stem">
										<rect x="19186" y="748" height="940" width="18" />
									</g>
									<g class="accid" id="accid-0000001369414152" />
								</g>
								<g class="note" id="note-L45F2">
									<use xlink:href="#E0A4" x="19593" y="1620" height="720px" width="720px" />
									<g class="stem">
										<rect x="19801" y="810" height="788" width="18" />
									</g>
									<g class="accid" id="accid-0000001301438772">
										<use xlink:href="#E262" x="19398" y="1620" height="720px" width="720px" />
									</g>
								</g>
							</g>
						</g>
					</g>
					<g class="staff" id="staff-L38F1N1">
						<path d="M16462 2224 L20003 2224" stroke="#000000" stroke-width="13" />
						<path d="M16462 2404 L20003 2404" stroke="#000000" stroke-width="13" />
						<path d="M16462 2584 L20003 2584" stroke="#000000" stroke-width="13" />
						<path d="M16462 2764 L20003 2764" stroke="#000000" stroke-width="13" />
						<path d="M16462 2944 L20003 2944" stroke="#000000" stroke-width="13" />
						<g class="layer" id="layer-L38F1N1">
							<g class="beam" id="beam-L39F1-L42F1">
								<polygon points="16887,2045 18281,1910 18281,2000 16887,2135 " />
								<polygon points="16887,2180 18281,2045 18281,2135 16887,2270 " />
								<g class="note" id="note-L39F1">
									<use xlink:href="#E0A4" x="16679" y="2764" height="720px" width="720px" />
									<g class="stem">
										<rect x="16887" y="2063" height="679" width="18" />
									</g>
									<g class="accid" id="accid-0000000471428427" />
								</g>
								<g class="note" id="note-L40F1">
									<use xlink:href="#E0A4" x="17294" y="2674" height="720px" width="720px" />
									<g class="stem">
										<rect x="17502" y="2003" height="649" width="18" />
									</g>
									<g class="accid" id="accid-0000001192695479">
										<use xlink:href="#E262" x="17099" y="2674" height="720px" width="720px" />
									</g>
								</g>
								<g class="note" id="note-L41F1">
									<use xlink:href="#E0A4" x="17675" y="2764" height="720px" width="720px" />
									<g class="stem">
										<rect x="17883" y="1965" height="777" width="18" />
									</g>
									<g class="accid" id="accid-0000000506836596" />
								</g>
								<g class="note" id="note-L42F1">
									<use xlink:href="#E0A4" x="18055" y="2584" height="720px" width="720px" />
									<g class="stem">
										<rect x="18263" y="1928" height="634" width="18" />
									</g>
									<g class="accid" id="accid-0000001691898296" />
								</g>
							</g>
							<g class="beam" id="beam-L43F1-L45F1">
								<polygon points="18644,1910 19819,2026 19819,2116 18644,2000 " />
								<polygon points="19195,2099 19819,2161 19819,2251 19195,2189 " />
								<g class="note" id="note-L43F1">
									<use xlink:href="#E0A4" x="18436" y="2584" height="720px" width="720px" />
									<g class="stem">
										<rect x="18644" y="1928" height="634" width="18" />
									</g>
									<g class="accid" id="accid-0000000150984629" />
								</g>
								<g class="note" id="note-L44F1">
									<use xlink:href="#E0A4" x="18978" y="2674" height="720px" width="720px" />
									<g class="stem">
										<rect x="19186" y="1982" height="670" width="18" />
									</g>
									<g class="accid" id="accid-0000000305536573" />
								</g>
								<g class="note" id="note-L45F1">
									<use xlink:href="#E0A4" x="19593" y="2764" height="720px" width="720px" />
									<g class="stem">
										<rect x="19801" y="2044" height="698" width="18" />
									</g>
									<g class="accid" id="accid-0000000019892242" />
								</g>
							</g>
						</g>
					</g>
					<g class="tie" id="tie-L42F1-L43F1">
						<path d="M18168,2719 C18263,2817 18453,2817 18549,2719 C18453,2861 18263,2861 18168,2719" stroke="#000000" stroke-linecap="round" stroke-linejoin="round" stroke-width="9" />
					</g>
					<g class="mNum autogenerated" id="mnum-0000000980337046" />
					<g class="barLineAttr" id="bline-0000001114485054">
						<path d="M19990 2944 L19990 720" stroke="#000000" stroke-width="27" />
					</g>
				</g>
			</g>
		</g>
	</svg>
</svg>
