<?xml version="1.0" encoding="UTF-8" standalone="no"?>
<svg width="2100.00px" height="450.00px" version="1.1" xmlns="http://www.w3.org/2000/svg" xmlns:xlink="http://www.w3.org/1999/xlink" overflow="visible">
	<desc>Engraved by Verovio 2.0.0-dev-0f0381c</desc>
	<defs>
		<symbol id="E050" viewBox="0 0 1000 1000" overflow="inherit">
			<path transform="scale(1,-1)" d="M441 -245c-23 -4 -48 -6 -76 -6c-59 0 -102 7 -130 20c-88 42 -150 93 -187 154c-26 44 -43 103 -48 176c-4 60 11 123 44 189c29 57 65 106 110 148s96 85 153 127c-3 16 -8 46 -13 92c-4 43 -5 73 -5 89c0 117 16 172 69 257c34 54 64 82 89 82c21 0 43 -30 69 -92 s39 -115 41 -159c2 -120 -19 -173 -67 -256c-13 -20 -63 -90 -98 -118c-13 -9 -25 -19 -37 -29l31 -181c8 1 18 2 28 2c58 0 102 -12 133 -35c59 -43 92 -104 98 -184c11 -135 -80 -229 -180 -270c8 -57 17 -110 25 -162c5 -31 6 -58 6 -80c0 -30 -5 -53 -14 -70 c-35 -64 -88 -99 -158 -103c-42 -3 -83 6 -124 26c-50 24 -77 59 -80 105c-2 34 5 63 20 87c18 28 45 42 79 44c51 4 99 -40 103 -87c4 -56 -30 -94 -105 -115c17 -24 51 -36 102 -36c62 0 116 43 140 85c9 16 13 41 13 74c0 20 -1 42 -5 67c-8 53 -18 106 -26 159zM461 939 c-95 0 -135 -175 -135 -286c0 -24 2 -48 5 -71c50 39 92 82 127 128c43 57 63 106 60 148c-4 54 -23 82 -57 81zM406 119l54 -326c80 27 116 88 109 184c-7 99 -62 146 -163 142zM382 117c-74 -2 -132 -50 -128 -127c2 -46 43 -99 75 -115c-3 -2 -7 -5 -10 -10 c-70 33 -116 88 -123 172c-5 73 42 135 88 170c23 17 49 29 78 36l-29 170c-21 -13 -52 -37 -92 -73c-50 -44 -86 -84 -109 -119c-49 -75 -71 -140 -67 -195c5 -68 35 -127 93 -176s125 -73 203 -73c25 0 50 3 75 9c-19 111 -36 221 -54 331z" />
		</symbol>
		<symbol id="E082" viewBox="0 0 1000 1000" overflow="inherit">
			<path transform="scale(1,-1)" d="M104 -185c-18 0 -55 -14 -65 -65h-36l-3 29c0 25 6 46 18 64c11 19 22 30 39 43l121 82l37 29c15 11 27 29 38 54c12 24 18 47 18 70c0 40 -19 88 -94 88c-25 0 -32 0 -50 -8c-14 -5 -23 -12 -26 -22c3 -9 7 -15 10 -18l24 -17c12 -7 17 -11 27 -21c5 -7 7 -16 7 -27 c0 -12 0 -57 -79 -74c-30 0 -76 26 -76 94c0 66 80 135 196 135c72 0 182 -32 182 -150c0 -53 -32 -95 -113 -133l-91 -41c-26 -11 -45 -23 -57 -37l49 7c84 0 115 -41 148 -41c20 0 33 20 39 61h35c0 -152 -68 -168 -114 -168c-17 0 -55 0 -69 7v0l-28 17 c-49 37 -69 40 -87 42z" />
		</symbol>
		<symbol id="E084" viewBox="0 0 1000 1000" overflow="inherit">
			<path transform="scale(1,-1)" d="M0 -78c84 97 114 180 134 329h170c-13 -32 -82 -132 -99 -151l-84 -97c-33 -36 -59 -63 -80 -81h162v102l127 123v-225h57v-39h-57v-34c0 -43 19 -65 57 -65v-34h-244v36c48 0 60 26 60 70v27h-203v39z" />
		</symbol>
		<symbol id="E0A4" viewBox="0 0 1000 1000" overflow="inherit">
			<path transform="scale(1,-1)" d="M0 -39c0 68 73 172 200 172c66 0 114 -37 114 -95c0 -84 -106 -171 -218 -171c-64 0 -96 30 -96 94z" />
		</symbol>
		<symbol id="E062" viewBox="0 0 1000 1000" overflow="inherit">
			<path transform="scale(1,-1)" d="M158 96c51 0 73 -14 88 -49l16 -39c0 -17 -2 -30 -7 -40c-3 -11 -10 -21 -19 -31c-17 -18 -49 -43 -84 -43c-55 0 -77 13 -112 44c-24 21 -35 55 -35 100c0 46 14 81 32 112c30 52 71 79 137 93l36 6l26 2c154 0 235 -68 274 -182c11 -32 18 -68 18 -107 c0 -103 -26 -182 -68 -250c-89 -145 -234 -230 -412 -288l-30 -5c-9 0 -14 3 -14 8c3 10 5 11 10 16c35 15 70 30 96 44l78 43c96 57 162 136 197 258c9 33 17 60 22 100c3 22 5 35 6 39c-7 69 -16 115 -23 140s-4 22 -16 40c-8 12 -19 23 -31 34c-24 21 -62 44 -118 44 c-48 0 -84 -8 -113 -28c-28 -19 -42 -44 -42 -73v-16c2 -5 3 -9 4 -11c24 22 52 39 84 39zM585 -118c0 32 23 58 57 58c18 0 33 -6 40 -18c9 -15 16 -18 16 -40c0 -9 -2 -16 -5 -21c-6 -19 -27 -37 -51 -37c-34 0 -57 26 -57 58zM642 177c31 0 56 -27 56 -58 c0 -30 -25 -58 -56 -58l-23 3c-19 7 -34 32 -34 55l3 23c9 20 28 35 54 35z" />
		</symbol>
		<symbol id="E260" viewBox="0 0 1000 1000" overflow="inherit">
			<path transform="scale(1,-1)" d="M20 110c32 16 54 27 93 27c26 0 35 -3 54 -13c13 -7 24 -20 27 -38l4 -25c0 -28 -16 -57 -45 -89c-23 -25 -39 -44 -65 -68l-88 -79v644h20v-359zM90 106c-32 0 -48 -10 -70 -29v-194c31 31 54 59 71 84c21 32 32 59 32 84c0 9 1 16 1 20c0 14 -3 21 -11 30l-8 3z" />
		</symbol>
	</defs>
	<style type="text/css">g.page-margin{font-family:Times;} g.tempo{font-weight:bold;} g.dir, g.dynam, g.mNum{font-style:italic;} g.label{font-weight:normal;}</style>
	<svg class="definition-scale" viewBox="0 0 21000 4500">
		<g class="page-margin" transform="translate(500, 500)">
			<g class="system" id="system-0000000604352877">
				<path d="M13 720 L13 2880" stroke="#000000" stroke-width="27" />
				<path d="M-32,2862 C-392,2322 58,1980 -212,1800 C121,1980 -329,2322 -32,2862" stroke="#000000" stroke-linecap="round" stroke-linejoin="round" stroke-width="18" />
				<path d="M-32,738 C-329,1278 121,1620 -212,1800 C58,1620 -392,1278 -32,738" stroke="#000000" stroke-linecap="round" stroke-linejoin="round" stroke-width="18" />
				<g class="section boundaryStart" id="section-L1F1" />
				<g class="measure" id="measure-L4">
					<g class="staff" id="staff-L4F2N1">
						<path d="M0 720 L4487 720" stroke="#000000" stroke-width="13" />
						<path d="M0 900 L4487 900" stroke="#000000" stroke-width="13" />
						<path d="M0 1080 L4487 1080" stroke="#000000" stroke-width="13" />
						<path d="M0 1260 L4487 1260" stroke="#000000" stroke-width="13" />
						<path d="M0 1440 L4487 1440" stroke="#000000" stroke-width="13" />
						<g class="clef" id="clef-0000000393491490">
							<use xlink:href="#E050" x="90" y="1260" height="720px" width="720px" />
						</g>
						<g class="meterSig" id="msig-0000001309323317">
							<use xlink:href="#E082" x="771" y="900" height="720px" width="720px" />
							<use xlink:href="#E084" x="777" y="1260" height="720px" width="720px" />
						</g>
						<g class="layer" id="layer-L4F2N1">
							<g class="beam" id="beam-L5F2-L7F2">
								<polygon points="1580,394 2374,316 2374,406 1580,484 " />
								<polygon points="1580,529 1977,490 1977,580 1580,619 " />
								<g class="note" id="note-L5F2">
									<use xlink:href="#E0A4" x="1372" y="1260" height="720px" width="720px" />
									<g class="stem">
										<rect x="1580" y="412" height="826" width="18" />
									</g>
									<g class="accid" id="accid-0000000153887029" />
								</g>
								<g class="note" id="note-L6F2">
									<use xlink:href="#E0A4" x="1760" y="1170" height="720px" width="720px" />
									<g class="stem">
										<rect x="1968" y="373" height="775" width="18" />
									</g>
									<g class="accid" id="accid-0000000898900748" />
								</g>
								<g class="note" id="note-L7F2">
									<use xlink:href="#E0A4" x="2148" y="990" height="720px" width="720px" />
									<g class="stem">
										<rect x="2356" y="334" height="634" width="18" />
									</g>
									<g class="accid" id="accid-0000000326756100" />
								</g>
							</g>
							<g class="beam" id="beam-L9F2-L12F2">
								<polygon points="3132,582 4295,563 4295,653 3132,672 " />
								<polygon points="3132,717 3290,715 3290,805 3132,807 " />
								<polygon points="4137,701 4295,698 4295,788 4137,791 " />
								<g class="note" id="note-L9F2">
									<use xlink:href="#E0A4" x="2924" y="1260" height="720px" width="720px" />
									<g class="stem">
										<rect x="3132" y="600" height="638" width="18" />
									</g>
									<g class="accid" id="accid-0000000471786044" />
								</g>
								<g class="note" id="note-L10F2">
									<use xlink:href="#E0A4" x="3312" y="1350" height="720px" width="720px" />
									<g class="stem">
										<rect x="3520" y="594" height="734" width="18" />
									</g>
									<g class="accid" id="accid-0000001513062232" />
								</g>
								<g class="note" id="note-L12F2">
									<use xlink:href="#E0A4" x="4069" y="1260" height="720px" width="720px" />
									<g class="stem">
										<rect x="4277" y="581" height="657" width="18" />
									</g>
									<g class="accid" id="accid-0000000687714995" />
								</g>
							</g>
						</g>
					</g>
					<g class="staff" id="staff-L4F1N1">
						<path d="M0 2160 L4487 2160" stroke="#000000" stroke-width="13" />
						<path d="M0 2340 L4487 2340" stroke="#000000" stroke-width="13" />
						<path d="M0 2520 L4487 2520" stroke="#000000" stroke-width="13" />
						<path d="M0 2700 L4487 2700" stroke="#000000" stroke-width="13" />
						<path d="M0 2880 L4487 2880" stroke="#000000" stroke-width="13" />
						<g class="clef" id="clef-0000000532058010">
							<use xlink:href="#E062" x="90" y="2340" height="720px" width="720px" />
						</g>
						<g class="meterSig" id="msig-0000000177067962">
							<use xlink:href="#E082" x="771" y="2340" height="720px" width="720px" />
							<use xlink:href="#E084" x="777" y="2700" height="720px" width="720px" />
						</g>
						<g class="layer" id="layer-L4F1N1">
							<g class="beam" id="beam-L5F1-L8F1">
								<polygon points="1372,3285 2554,3168 2554,3078 1372,3195 " />
								<polygon points="1372,3150 2554,3033 2554,2943 1372,3060 " />
								<g class="note" id="note-L5F1">
									<use xlink:href="#E0A4" x="1372" y="2610" height="720px" width="720px" />
									<g class="stem">
										<rect x="1372" y="2632" height="635" width="18" />
									</g>
									<g class="accid" id="accid-0000000028075704" />
								</g>
								<g class="note" id="note-L6F1">
									<use xlink:href="#E0A4" x="1760" y="2430" height="720px" width="720px" />
									<g class="stem">
										<rect x="1760" y="2452" height="776" width="18" />
									</g>
									<g class="accid" id="accid-0000000010140944" />
								</g>
								<g class="note" id="note-L7F1">
									<use xlink:href="#E0A4" x="2148" y="2340" height="720px" width="720px" />
									<g class="stem">
										<rect x="2148" y="2362" height="827" width="18" />
									</g>
									<g class="accid" id="accid-0000000737539757" />
								</g>
								<g class="note" id="note-L8F1">
									<use xlink:href="#E0A4" x="2536" y="2430" height="720px" width="720px" />
									<g class="stem">
										<rect x="2536" y="2452" height="698" width="18" />
									</g>
									<g class="accid" id="accid-0000000651607337" />
								</g>
							</g>
							<g class="beam" id="beam-L9F1-L11F1">
								<polygon points="2924,3285 3718,3285 3718,3195 2924,3195 " />
								<polygon points="2924,3150 3321,3150 3321,3060 2924,3060 " />
								<g class="note" id="note-L9F1">
									<use xlink:href="#E0A4" x="2924" y="2430" height="720px" width="720px" />
									<g class="stem">
										<rect x="2924" y="2452" height="815" width="18" />
									</g>
									<g class="accid" id="accid-0000001757785364" />
								</g>
								<g class="note" id="note-L10F1">
									<use xlink:href="#E0A4" x="3312" y="2610" height="720px" width="720px" />
									<g class="stem">
										<rect x="3312" y="2632" height="635" width="18" />
									</g>
									<g class="accid" id="accid-0000001741588530" />
								</g>
								<g class="note" id="note-L11F1">
									<use xlink:href="#E0A4" x="3700" y="2430" height="720px" width="720px" />
									<g class="stem">
										<rect x="3700" y="2452" height="815" width="18" />
									</g>
									<g class="accid" id="accid-0000000196942129" />
								</g>
							</g>
						</g>
					</g>
					<g class="tie" id="tie-L8F1-L9F1">
						<path d="M2649,2295 C2746,2153 2940,2153 3037,2295 C2940,2197 2746,2197 2649,2295" stroke="#000000" stroke-linecap="round" stroke-linejoin="round" stroke-width="9" />
					</g>
					<g class="mNum autogenerated" id="mnum-0000000466940064" />
					<g class="barLineAttr" id="bline-0000000997021130">
						<path d="M4474 2880 L4474 720" stroke="#000000" stroke-width="27" />
					</g>
				</g>
				<g class="measure" id="measure-L13">
					<g class="staff" id="staff-L13F2N1">
						<path d="M4487 720 L7824 720" stroke="#000000" stroke-width="13" />
						<path d="M4487 900 L7824 900" stroke="#000000" stroke-width="13" />
						<path d="M4487 1080 L7824 1080" stroke="#000000" stroke-width="13" />
						<path d="M4487 1260 L7824 1260" stroke="#000000" stroke-width="13" />
						<path d="M4487 1440 L7824 1440" stroke="#000000" stroke-width="13" />
						<g class="layer" id="layer-L13F2N1">
							<g class="beam" id="beam-L14F2-L16F2">
								<polygon points="4917,394 5711,316 5711,406 4917,484 " />
								<polygon points="4917,529 5314,490 5314,580 4917,619 " />
								<g class="note" id="note-L14F2">
									<use xlink:href="#E0A4" x="4709" y="1260" height="720px" width="720px" />
									<g class="stem">
										<rect x="4917" y="412" height="826" width="18" />
									</g>
									<g class="accid" id="accid-0000000484235667" />
								</g>
								<g class="note" id="note-L15F2">
									<use xlink:href="#E0A4" x="5097" y="1170" height="720px" width="720px" />
									<g class="stem">
										<rect x="5305" y="373" height="775" width="18" />
									</g>
									<g class="accid" id="accid-0000001239550747" />
								</g>
								<g class="note" id="note-L16F2">
									<use xlink:href="#E0A4" x="5485" y="990" height="720px" width="720px" />
									<g class="stem">
										<rect x="5693" y="334" height="634" width="18" />
									</g>
									<g class="accid" id="accid-0000001184529342" />
								</g>
							</g>
							<g class="beam" id="beam-L18F2-L21F2">
								<polygon points="6469,582 7632,563 7632,653 6469,672 " />
								<polygon points="6469,717 6627,715 6627,805 6469,807 " />
								<polygon points="7474,701 7632,698 7632,788 7474,791 " />
								<g class="note" id="note-L18F2">
									<use xlink:href="#E0A4" x="6261" y="1260" height="720px" width="720px" />
									<g class="stem">
										<rect x="6469" y="600" height="638" width="18" />
									</g>
									<g class="accid" id="accid-0000000239188241" />
								</g>
								<g class="note" id="note-L19F2">
									<use xlink:href="#E0A4" x="6649" y="1350" height="720px" width="720px" />
									<g class="stem">
										<rect x="6857" y="594" height="734" width="18" />
									</g>
									<g class="accid" id="accid-0000000367208085" />
								</g>
								<g class="note" id="note-L21F2">
									<use xlink:href="#E0A4" x="7406" y="1260" height="720px" width="720px" />
									<g class="stem">
										<rect x="7614" y="581" height="657" width="18" />
									</g>
									<g class="accid" id="accid-0000000621026032" />
								</g>
							</g>
						</g>
					</g>
					<g class="staff" id="staff-L13F1N1">
						<path d="M4487 2160 L7824 2160" stroke="#000000" stroke-width="13" />
						<path d="M4487 2340 L7824 2340" stroke="#000000" stroke-width="13" />
						<path d="M4487 2520 L7824 2520" stroke="#000000" stroke-width="13" />
						<path d="M4487 2700 L7824 2700" stroke="#000000" stroke-width="13" />
						<path d="M4487 2880 L7824 2880" stroke="#000000" stroke-width="13" />
						<g class="layer" id="layer-L13F1N1">
							<g class="beam" id="beam-L14F1-L17F1">
								<polygon points="4709,3285 5891,3168 5891,3078 4709,3195 " />
								<polygon points="4709,3150 5891,3033 5891,2943 4709,3060 " />
								<g class="note" id="note-L14F1">
									<use xlink:href="#E0A4" x="4709" y="2610" height="720px" width="720px" />
									<g class="stem">
										<rect x="4709" y="2632" height="635" width="18" />
									</g>
									<g class="accid" id="accid-0000000922733779" />
								</g>
								<g class="note" id="note-L15F1">
									<use xlink:href="#E0A4" x="5097" y="2430" height="720px" width="720px" />
									<g class="stem">
										<rect x="5097" y="2452" height="776" width="18" />
									</g>
									<g class="accid" id="accid-0000000718645051" />
								</g>
								<g class="note" id="note-L16F1">
									<use xlink:href="#E0A4" x="5485" y="2340" height="720px" width="720px" />
									<g class="stem">
										<rect x="5485" y="2362" height="827" width="18" />
									</g>
									<g class="accid" id="accid-0000001006252639" />
								</g>
								<g class="note" id="note-L17F1">
									<use xlink:href="#E0A4" x="5873" y="2430" height="720px" width="720px" />
									<g class="stem">
										<rect x="5873" y="2452" height="698" width="18" />
									</g>
									<g class="accid" id="accid-0000000960534949" />
								</g>
							</g>
							<g class="beam" id="beam-L18F1-L20F1">
								<polygon points="6261,3285 7055,3285 7055,3195 6261,3195 " />
								<polygon points="6261,3150 6658,3150 6658,3060 6261,3060 " />
								<g class="note" id="note-L18F1">
									<use xlink:href="#E0A4" x="6261" y="2430" height="720px" width="720px" />
									<g class="stem">
										<rect x="6261" y="2452" height="815" width="18" />
									</g>
									<g class="accid" id="accid-0000001328722884" />
								</g>
								<g class="note" id="note-L19F1">
									<use xlink:href="#E0A4" x="6649" y="2610" height="720px" width="720px" />
									<g class="stem">
										<rect x="6649" y="2632" height="635" width="18" />
									</g>
									<g class="accid" id="accid-0000000465078073" />
								</g>
								<g class="note" id="note-L20F1">
									<use xlink:href="#E0A4" x="7037" y="2430" height="720px" width="720px" />
									<g class="stem">
										<rect x="7037" y="2452" height="815" width="18" />
									</g>
									<g class="accid" id="accid-0000000077966550" />
								</g>
							</g>
						</g>
					</g>
					<g class="tie" id="tie-L17F1-L18F1">
						<path d="M5986,2295 C6083,2153 6277,2153 6374,2295 C6277,2197 6083,2197 5986,2295" stroke="#000000" stroke-linecap="round" stroke-linejoin="round" stroke-width="9" />
					</g>
					<g class="mNum autogenerated" id="mnum-0000000459536775" />
					<g class="barLineAttr" id="bline-0000001906454485">
						<path d="M7811 2880 L7811 720" stroke="#000000" stroke-width="27" />
					</g>
				</g>
				<g class="measure" id="measure-L22">
					<g class="staff" id="staff-L22F2N1">
						<path d="M7824 720 L11883 720" stroke="#000000" stroke-width="13" />
						<path d="M7824 900 L11883 900" stroke="#000000" stroke-width="13" />
						<path d="M7824 1080 L11883 1080" stroke="#000000" stroke-width="13" />
						<path d="M7824 1260 L11883 1260" stroke="#000000" stroke-width="13" />
						<path d="M7824 1440 L11883 1440" stroke="#000000" stroke-width="13" />
						<g class="layer" id="layer-L22F2N1">
							<g class="beam" id="beam-L23F2-L25F2">
								<polygon points="8494,532 9770,406 9770,496 8494,622 " />
								<polygon points="8494,667 9132,604 9132,694 8494,757 " />
								<g class="note" id="note-L23F2">
									<use xlink:href="#E0A4" x="8286" y="1260" height="720px" width="720px" />
									<g class="stem">
										<rect x="8494" y="550" height="688" width="18" />
									</g>
									<g class="accid" id="accid-0000000519220157" />
								</g>
								<g class="note" id="note-L24F2">
									<use xlink:href="#E0A4" x="8915" y="1170" height="720px" width="720px" />
									<g class="stem">
										<rect x="9123" y="487" height="661" width="18" />
									</g>
									<g class="accid" id="accid-0000000023896156">
										<use xlink:href="#E260" x="8719" y="1170" height="720px" width="720px" />
									</g>
								</g>
								<g class="note" id="note-L25F2">
									<use xlink:href="#E0A4" x="9544" y="1080" height="720px" width="720px" />
									<g class="stem">
										<rect x="9752" y="424" height="634" width="18" />
									</g>
									<g class="accid" id="accid-0000001085261035">
										<use xlink:href="#E260" x="9348" y="1080" height="720px" width="720px" />
									</g>
								</g>
							</g>
							<g class="beam" id="beam-L27F2-L30F2">
								<polygon points="10528,582 11691,563 11691,653 10528,672 " />
								<polygon points="10528,717 10686,715 10686,805 10528,807 " />
								<polygon points="11533,701 11691,698 11691,788 11533,791 " />
								<g class="note" id="note-L27F2">
									<use xlink:href="#E0A4" x="10320" y="1260" height="720px" width="720px" />
									<g class="stem">
										<rect x="10528" y="600" height="638" width="18" />
									</g>
									<g class="accid" id="accid-0000000036271497" />
								</g>
								<g class="note" id="note-L28F2">
									<use xlink:href="#E0A4" x="10708" y="1350" height="720px" width="720px" />
									<g class="stem">
										<rect x="10916" y="594" height="734" width="18" />
									</g>
									<g class="accid" id="accid-0000001048018169" />
								</g>
								<g class="note" id="note-L30F2">
									<use xlink:href="#E0A4" x="11465" y="1260" height="720px" width="720px" />
									<g class="stem">
										<rect x="11673" y="581" height="657" width="18" />
									</g>
									<g class="accid" id="accid-0000001898613904" />
								</g>
							</g>
						</g>
					</g>
					<g class="staff" id="staff-L22F1N1">
						<path d="M7824 2160 L11883 2160" stroke="#000000" stroke-width="13" />
						<path d="M7824 2340 L11883 2340" stroke="#000000" stroke-width="13" />
						<path d="M7824 2520 L11883 2520" stroke="#000000" stroke-width="13" />
						<path d="M7824 2700 L11883 2700" stroke="#000000" stroke-width="13" />
						<path d="M7824 2880 L11883 2880" stroke="#000000" stroke-width="13" />
						<g class="layer" id="layer-L22F1N1">
							<g class="beam" id="beam-L23F1-L26F1">
								<polygon points="8286,3375 9950,3210 9950,3120 8286,3285 " />
								<polygon points="8286,3240 9950,3075 9950,2985 8286,3150 " />
								<g class="note" id="note-L23F1">
									<use xlink:href="#E0A4" x="8286" y="2700" height="720px" width="720px" />
									<g class="stem">
										<rect x="8286" y="2722" height="635" width="18" />
									</g>
									<g class="accid" id="accid-0000001173413972">
										<use xlink:href="#E260" x="8090" y="2700" height="720px" width="720px" />
									</g>
								</g>
								<g class="note" id="note-L24F1">
									<use xlink:href="#E0A4" x="8915" y="2430" height="720px" width="720px" />
									<g class="stem">
										<rect x="8915" y="2452" height="842" width="18" />
									</g>
									<g class="accid" id="accid-0000000973169162">
										<use xlink:href="#E260" x="8719" y="2430" height="720px" width="720px" />
									</g>
								</g>
								<g class="note" id="note-L25F1">
									<use xlink:href="#E0A4" x="9544" y="2340" height="720px" width="720px" />
									<g class="stem">
										<rect x="9544" y="2362" height="869" width="18" />
									</g>
									<g class="accid" id="accid-0000000125882545" />
								</g>
								<g class="note" id="note-L26F1">
									<use xlink:href="#E0A4" x="9932" y="2430" height="720px" width="720px" />
									<g class="stem">
										<rect x="9932" y="2452" height="740" width="18" />
									</g>
									<g class="accid" id="accid-0000001149188488" />
								</g>
							</g>
							<g class="beam" id="beam-L27F1-L29F1">
								<polygon points="10320,3375 11115,3375 11115,3285 10320,3285 " />
								<polygon points="10320,3240 10717,3240 10717,3150 10320,3150 " />
								<g class="note" id="note-L27F1">
									<use xlink:href="#E0A4" x="10320" y="2430" height="720px" width="720px" />
									<g class="stem">
										<rect x="10320" y="2452" height="905" width="18" />
									</g>
									<g class="accid" id="accid-0000001584978385" />
								</g>
								<g class="note" id="note-L28F1">
									<use xlink:href="#E0A4" x="10708" y="2700" height="720px" width="720px" />
									<g class="stem">
										<rect x="10708" y="2722" height="635" width="18" />
									</g>
									<g class="accid" id="accid-0000000037855368" />
								</g>
								<g class="note" id="note-L29F1">
									<use xlink:href="#E0A4" x="11097" y="2430" height="720px" width="720px" />
									<g class="stem">
										<rect x="11097" y="2452" height="905" width="18" />
									</g>
									<g class="accid" id="accid-0000000807594715" />
								</g>
							</g>
						</g>
					</g>
					<g class="tie" id="tie-L26F1-L27F1">
						<path d="M10045,2295 C10142,2153 10336,2153 10433,2295 C10336,2197 10142,2197 10045,2295" stroke="#000000" stroke-linecap="round" stroke-linejoin="round" stroke-width="9" />
					</g>
					<g class="mNum autogenerated" id="mnum-0000002048578825" />
					<g class="barLineAttr" id="bline-0000000871911290">
						<path d="M11870 2880 L11870 720" stroke="#000000" stroke-width="27" />
					</g>
				</g>
				<g class="measure" id="measure-L31">
					<g class="staff" id="staff-L31F2N1">
						<path d="M11883 720 L15942 720" stroke="#000000" stroke-width="13" />
						<path d="M11883 900 L15942 900" stroke="#000000" stroke-width="13" />
						<path d="M11883 1080 L15942 1080" stroke="#000000" stroke-width="13" />
						<path d="M11883 1260 L15942 1260" stroke="#000000" stroke-width="13" />
						<path d="M11883 1440 L15942 1440" stroke="#000000" stroke-width="13" />
						<g class="layer" id="layer-L31F2N1">
							<g class="beam" id="beam-L32F2-L34F2">
								<polygon points="12553,532 13829,406 13829,496 12553,622 " />
								<polygon points="12553,667 13191,604 13191,694 12553,757 " />
								<g class="note" id="note-L32F2">
									<use xlink:href="#E0A4" x="12345" y="1260" height="720px" width="720px" />
									<g class="stem">
										<rect x="12553" y="550" height="688" width="18" />
									</g>
									<g class="accid" id="accid-0000001969709254" />
								</g>
								<g class="note" id="note-L33F2">
									<use xlink:href="#E0A4" x="12974" y="1170" height="720px" width="720px" />
									<g class="stem">
										<rect x="13182" y="487" height="661" width="18" />
									</g>
									<g class="accid" id="accid-0000001194615140">
										<use xlink:href="#E260" x="12778" y="1170" height="720px" width="720px" />
									</g>
								</g>
								<g class="note" id="note-L34F2">
									<use xlink:href="#E0A4" x="13603" y="1080" height="720px" width="720px" />
									<g class="stem">
										<rect x="13811" y="424" height="634" width="18" />
									</g>
									<g class="accid" id="accid-0000000425070509">
										<use xlink:href="#E260" x="13407" y="1080" height="720px" width="720px" />
									</g>
								</g>
							</g>
							<g class="beam" id="beam-L36F2-L39F2">
								<polygon points="14587,582 15750,563 15750,653 14587,672 " />
								<polygon points="14587,717 14745,715 14745,805 14587,807 " />
								<polygon points="15592,701 15750,698 15750,788 15592,791 " />
								<g class="note" id="note-L36F2">
									<use xlink:href="#E0A4" x="14379" y="1260" height="720px" width="720px" />
									<g class="stem">
										<rect x="14587" y="600" height="638" width="18" />
									</g>
									<g class="accid" id="accid-0000001951100071" />
								</g>
								<g class="note" id="note-L37F2">
									<use xlink:href="#E0A4" x="14767" y="1350" height="720px" width="720px" />
									<g class="stem">
										<rect x="14975" y="594" height="734" width="18" />
									</g>
									<g class="accid" id="accid-0000001686450290" />
								</g>
								<g class="note" id="note-L39F2">
									<use xlink:href="#E0A4" x="15524" y="1260" height="720px" width="720px" />
									<g class="stem">
										<rect x="15732" y="581" height="657" width="18" />
									</g>
									<g class="accid" id="accid-0000002061587030" />
								</g>
							</g>
						</g>
					</g>
					<g class="staff" id="staff-L31F1N1">
						<path d="M11883 2160 L15942 2160" stroke="#000000" stroke-width="13" />
						<path d="M11883 2340 L15942 2340" stroke="#000000" stroke-width="13" />
						<path d="M11883 2520 L15942 2520" stroke="#000000" stroke-width="13" />
						<path d="M11883 2700 L15942 2700" stroke="#000000" stroke-width="13" />
						<path d="M11883 2880 L15942 2880" stroke="#000000" stroke-width="13" />
						<g class="layer" id="layer-L31F1N1">
							<g class="beam" id="beam-L32F1-L35F1">
								<polygon points="12345,3375 14009,3210 14009,3120 12345,3285 " />
								<polygon points="12345,3240 14009,3075 14009,2985 12345,3150 " />
								<g class="note" id="note-L32F1">
									<use xlink:href="#E0A4" x="12345" y="2700" height="720px" width="720px" />
									<g class="stem">
										<rect x="12345" y="2722" height="635" width="18" />
									</g>
									<g class="accid" id="accid-0000001412741078">
										<use xlink:href="#E260" x="12149" y="2700" height="720px" width="720px" />
									</g>
								</g>
								<g class="note" id="note-L33F1">
									<use xlink:href="#E0A4" x="12974" y="2430" height="720px" width="720px" />
									<g class="stem">
										<rect x="12974" y="2452" height="842" width="18" />
									</g>
									<g class="accid" id="accid-0000001329533530">
										<use xlink:href="#E260" x="12778" y="2430" height="720px" width="720px" />
									</g>
								</g>
								<g class="note" id="note-L34F1">
									<use xlink:href="#E0A4" x="13603" y="2340" height="720px" width="720px" />
									<g class="stem">
										<rect x="13603" y="2362" height="869" width="18" />
									</g>
									<g class="accid" id="accid-0000001714499317" />
								</g>
								<g class="note" id="note-L35F1">
									<use xlink:href="#E0A4" x="13991" y="2430" height="720px" width="720px" />
									<g class="stem">
										<rect x="13991" y="2452" height="740" width="18" />
									</g>
									<g class="accid" id="accid-0000001999627724" />
								</g>
							</g>
							<g class="beam" id="beam-L36F1-L38F1">
								<polygon points="14379,3375 15174,3375 15174,3285 14379,3285 " />
								<polygon points="14379,3240 14776,3240 14776,3150 14379,3150 " />
								<g class="note" id="note-L36F1">
									<use xlink:href="#E0A4" x="14379" y="2430" height="720px" width="720px" />
									<g class="stem">
										<rect x="14379" y="2452" height="905" width="18" />
									</g>
									<g class="accid" id="accid-0000001424084402" />
								</g>
								<g class="note" id="note-L37F1">
									<use xlink:href="#E0A4" x="14767" y="2700" height="720px" width="720px" />
									<g class="stem">
										<rect x="14767" y="2722" height="635" width="18" />
									</g>
									<g class="accid" id="accid-0000000790840034" />
								</g>
								<g class="note" id="note-L38F1">
									<use xlink:href="#E0A4" x="15156" y="2430" height="720px" width="720px" />
									<g class="stem">
										<rect x="15156" y="2452" height="905" width="18" />
									</g>
									<g class="accid" id="accid-0000001819834310" />
								</g>
							</g>
						</g>
					</g>
					<g class="tie" id="tie-L35F1-L36F1">
						<path d="M14104,2295 C14201,2153 14395,2153 14492,2295 C14395,2197 14201,2197 14104,2295" stroke="#000000" stroke-linecap="round" stroke-linejoin="round" stroke-width="9" />
					</g>
					<g class="mNum autogenerated" id="mnum-0000001025265456" />
					<g class="barLineAttr" id="bline-0000001953903761">
						<path d="M15929 2880 L15929 720" stroke="#000000" stroke-width="27" />
					</g>
				</g>
				<g class="measure" id="measure-L40">
					<g class="staff" id="staff-L40F2N1">
						<path d="M15942 720 L20001 720" stroke="#000000" stroke-width="13" />
						<path d="M15942 900 L20001 900" stroke="#000000" stroke-width="13" />
						<path d="M15942 1080 L20001 1080" stroke="#000000" stroke-width="13" />
						<path d="M15942 1260 L20001 1260" stroke="#000000" stroke-width="13" />
						<path d="M15942 1440 L20001 1440" stroke="#000000" stroke-width="13" />
						<g class="layer" id="layer-L40F2N1">
							<g class="beam" id="beam-L41F2-L43F2">
								<polygon points="16612,532 17888,406 17888,496 16612,622 " />
								<polygon points="16612,667 17250,604 17250,694 16612,757 " />
								<g class="note" id="note-L41F2">
									<use xlink:href="#E0A4" x="16404" y="1260" height="720px" width="720px" />
									<g class="stem">
										<rect x="16612" y="550" height="688" width="18" />
									</g>
									<g class="accid" id="accid-0000001552040871">
										<use xlink:href="#E260" x="16208" y="1260" height="720px" width="720px" />
									</g>
								</g>
								<g class="note" id="note-L42F2">
									<use xlink:href="#E0A4" x="17033" y="1170" height="720px" width="720px" />
									<g class="stem">
										<rect x="17241" y="487" height="661" width="18" />
									</g>
									<g class="accid" id="accid-0000000599433998">
										<use xlink:href="#E260" x="16837" y="1170" height="720px" width="720px" />
									</g>
								</g>
								<g class="note" id="note-L43F2">
									<use xlink:href="#E0A4" x="17662" y="1080" height="720px" width="720px" />
									<g class="stem">
										<rect x="17870" y="424" height="634" width="18" />
									</g>
									<g class="accid" id="accid-0000000504089868">
										<use xlink:href="#E260" x="17466" y="1080" height="720px" width="720px" />
									</g>
								</g>
							</g>
							<g class="beam" id="beam-L45F2-L48F2">
								<polygon points="18646,582 19809,563 19809,653 18646,672 " />
								<polygon points="18646,717 18804,715 18804,805 18646,807 " />
								<polygon points="19651,701 19809,698 19809,788 19651,791 " />
								<g class="note" id="note-L45F2">
									<use xlink:href="#E0A4" x="18438" y="1260" height="720px" width="720px" />
									<g class="stem">
										<rect x="18646" y="600" height="638" width="18" />
									</g>
									<g class="accid" id="accid-0000000269276775" />
								</g>
								<g class="note" id="note-L46F2">
									<use xlink:href="#E0A4" x="18826" y="1350" height="720px" width="720px" />
									<g class="stem">
										<rect x="19034" y="594" height="734" width="18" />
									</g>
									<g class="accid" id="accid-0000000819963038" />
								</g>
								<g class="note" id="note-L48F2">
									<use xlink:href="#E0A4" x="19583" y="1260" height="720px" width="720px" />
									<g class="stem">
										<rect x="19791" y="581" height="657" width="18" />
									</g>
									<g class="accid" id="accid-0000000811042234" />
								</g>
							</g>
						</g>
					</g>
					<g class="staff" id="staff-L40F1N1">
						<path d="M15942 2160 L20001 2160" stroke="#000000" stroke-width="13" />
						<path d="M15942 2340 L20001 2340" stroke="#000000" stroke-width="13" />
						<path d="M15942 2520 L20001 2520" stroke="#000000" stroke-width="13" />
						<path d="M15942 2700 L20001 2700" stroke="#000000" stroke-width="13" />
						<path d="M15942 2880 L20001 2880" stroke="#000000" stroke-width="13" />
						<g class="layer" id="layer-L40F1N1">
							<g class="beam" id="beam-L41F1-L44F1">
								<polygon points="16404,3375 18068,3210 18068,3120 16404,3285 " />
								<polygon points="16404,3240 18068,3075 18068,2985 16404,3150 " />
								<g class="note" id="note-L41F1">
									<use xlink:href="#E0A4" x="16404" y="2700" height="720px" width="720px" />
									<g class="stem">
										<rect x="16404" y="2722" height="635" width="18" />
									</g>
									<g class="accid" id="accid-0000000929375310">
										<use xlink:href="#E260" x="16208" y="2700" height="720px" width="720px" />
									</g>
								</g>
								<g class="note" id="note-L42F1">
									<use xlink:href="#E0A4" x="17033" y="2520" height="720px" width="720px" />
									<g class="stem">
										<rect x="17033" y="2542" height="752" width="18" />
									</g>
									<g class="accid" id="accid-0000001357788306">
										<use xlink:href="#E260" x="16837" y="2520" height="720px" width="720px" />
									</g>
								</g>
								<g class="note" id="note-L43F1">
									<use xlink:href="#E0A4" x="17662" y="2340" height="720px" width="720px" />
									<g class="stem">
										<rect x="17662" y="2362" height="869" width="18" />
									</g>
									<g class="accid" id="accid-0000001155124104" />
								</g>
								<g class="note" id="note-L44F1">
									<use xlink:href="#E0A4" x="18050" y="2520" height="720px" width="720px" />
									<g class="stem">
										<rect x="18050" y="2542" height="650" width="18" />
									</g>
									<g class="accid" id="accid-0000001440997453" />
								</g>
							</g>
							<g class="beam" id="beam-L45F1-L47F1">
								<polygon points="18646,1845 19441,1845 19441,1935 18646,1935 " />
								<polygon points="18646,1980 19043,1980 19043,2070 18646,2070 " />
								<g class="note" id="note-L45F1">
									<use xlink:href="#E0A4" x="18438" y="2520" height="720px" width="720px" />
									<g class="stem">
										<rect x="18646" y="1863" height="635" width="18" />
									</g>
									<g class="accid" id="accid-0000001624114501" />
								</g>
								<g class="note" id="note-L46F1">
									<use xlink:href="#E0A4" x="18826" y="2700" height="720px" width="720px" />
									<g class="stem">
										<rect x="19034" y="1863" height="815" width="18" />
									</g>
									<g class="accid" id="accid-0000000328097186" />
								</g>
								<g class="note" id="note-L47F1">
									<use xlink:href="#E0A4" x="19215" y="2520" height="720px" width="720px" />
									<g class="stem">
										<rect x="19423" y="1863" height="635" width="18" />
									</g>
									<g class="accid" id="accid-0000000305881148" />
								</g>
							</g>
						</g>
					</g>
					<g class="tie" id="tie-L44F1-L45F1">
						<path d="M18163,2385 C18260,2243 18454,2243 18551,2385 C18454,2287 18260,2287 18163,2385" stroke="#000000" stroke-linecap="round" stroke-linejoin="round" stroke-width="9" />
					</g>
					<g class="mNum autogenerated" id="mnum-0000000734084494" />
					<g class="barLineAttr" id="bline-0000000743840743">
						<path d="M19988 2880 L19988 720" stroke="#000000" stroke-width="27" />
					</g>
				</g>
			</g>
		</g>
	</svg>
</svg>
