<?xml version="1.0" encoding="UTF-8" standalone="no"?>
<svg width="2100.00px" height="450.00px" version="1.1" xmlns="http://www.w3.org/2000/svg" xmlns:xlink="http://www.w3.org/1999/xlink" overflow="visible">
	<desc>Engraved by Verovio 2.0.0-dev-0f0381c</desc>
	<defs>
		<symbol id="E050" viewBox="0 0 1000 1000" overflow="inherit">
			<path transform="scale(1,-1)" d="M441 -245c-23 -4 -48 -6 -76 -6c-59 0 -102 7 -130 20c-88 42 -150 93 -187 154c-26 44 -43 103 -48 176c-4 60 11 123 44 189c29 57 65 106 110 148s96 85 153 127c-3 16 -8 46 -13 92c-4 43 -5 73 -5 89c0 117 16 172 69 257c34 54 64 82 89 82c21 0 43 -30 69 -92 s39 -115 41 -159c2 -120 -19 -173 -67 -256c-13 -20 -63 -90 -98 -118c-13 -9 -25 -19 -37 -29l31 -181c8 1 18 2 28 2c58 0 102 -12 133 -35c59 -43 92 -104 98 -184c11 -135 -80 -229 -180 -270c8 -57 17 -110 25 -162c5 -31 6 -58 6 -80c0 -30 -5 -53 -14 -70 c-35 -64 -88 -99 -158 -103c-42 -3 -83 6 -124 26c-50 24 -77 59 -80 105c-2 34 5 63 20 87c18 28 45 42 79 44c51 4 99 -40 103 -87c4 -56 -30 -94 -105 -115c17 -24 51 -36 102 -36c62 0 116 43 140 85c9 16 13 41 13 74c0 20 -1 42 -5 67c-8 53 -18 106 -26 159zM461 939 c-95 0 -135 -175 -135 -286c0 -24 2 -48 5 -71c50 39 92 82 127 128c43 57 63 106 60 148c-4 54 -23 82 -57 81zM406 119l54 -326c80 27 116 88 109 184c-7 99 -62 146 -163 142zM382 117c-74 -2 -132 -50 -128 -127c2 -46 43 -99 75 -115c-3 -2 -7 -5 -10 -10 c-70 33 -116 88 -123 172c-5 73 42 135 88 170c23 17 49 29 78 36l-29 170c-21 -13 -52 -37 -92 -73c-50 -44 -86 -84 -109 -119c-49 -75 -71 -140 -67 -195c5 -68 35 -127 93 -176s125 -73 203 -73c25 0 50 3 75 9c-19 111 -36 221 -54 331z" />
		</symbol>
		<symbol id="E082" viewBox="0 0 1000 1000" overflow="inherit">
			<path transform="scale(1,-1)" d="M104 -185c-18 0 -55 -14 -65 -65h-36l-3 29c0 25 6 46 18 64c11 19 22 30 39 43l121 82l37 29c15 11 27 29 38 54c12 24 18 47 18 70c0 40 -19 88 -94 88c-25 0 -32 0 -50 -8c-14 -5 -23 -12 -26 -22c3 -9 7 -15 10 -18l24 -17c12 -7 17 -11 27 -21c5 -7 7 -16 7 -27 c0 -12 0 -57 -79 -74c-30 0 -76 26 -76 94c0 66 80 135 196 135c72 0 182 -32 182 -150c0 -53 -32 -95 -113 -133l-91 -41c-26 -11 -45 -23 -57 -37l49 7c84 0 115 -41 148 -41c20 0 33 20 39 61h35c0 -152 -68 -168 -114 -168c-17 0 -55 0 -69 7v0l-28 17 c-49 37 -69 40 -87 42z" />
		</symbol>
		<symbol id="E084" viewBox="0 0 1000 1000" overflow="inherit">
			<path transform="scale(1,-1)" d="M0 -78c84 97 114 180 134 329h170c-13 -32 -82 -132 -99 -151l-84 -97c-33 -36 -59 -63 -80 -81h162v102l127 123v-225h57v-39h-57v-34c0 -43 19 -65 57 -65v-34h-244v36c48 0 60 26 60 70v27h-203v39z" />
		</symbol>
		<symbol id="E0A4" viewBox="0 0 1000 1000" overflow="inherit">
			<path transform="scale(1,-1)" d="M0 -39c0 68 73 172 200 172c66 0 114 -37 114 -95c0 -84 -106 -171 -218 -171c-64 0 -96 30 -96 94z" />
		</symbol>
		<symbol id="E062" viewBox="0 0 1000 1000" overflow="inherit">
			<path transform="scale(1,-1)" d="M158 96c51 0 73 -14 88 -49l16 -39c0 -17 -2 -30 -7 -40c-3 -11 -10 -21 -19 -31c-17 -18 -49 -43 -84 -43c-55 0 -77 13 -112 44c-24 21 -35 55 -35 100c0 46 14 81 32 112c30 52 71 79 137 93l36 6l26 2c154 0 235 -68 274 -182c11 -32 18 -68 18 -107 c0 -103 -26 -182 -68 -250c-89 -145 -234 -230 -412 -288l-30 -5c-9 0 -14 3 -14 8c3 10 5 11 10 16c35 15 70 30 96 44l78 43c96 57 162 136 197 258c9 33 17 60 22 100c3 22 5 35 6 39c-7 69 -16 115 -23 140s-4 22 -16 40c-8 12 -19 23 -31 34c-24 21 -62 44 -118 44 c-48 0 -84 -8 -113 -28c-28 -19 -42 -44 -42 -73v-16c2 -5 3 -9 4 -11c24 22 52 39 84 39zM585 -118c0 32 23 58 57 58c18 0 33 -6 40 -18c9 -15 16 -18 16 -40c0 -9 -2 -16 -5 -21c-6 -19 -27 -37 -51 -37c-34 0 -57 26 -57 58zM642 177c31 0 56 -27 56 -58 c0 -30 -25 -58 -56 -58l-23 3c-19 7 -34 32 -34 55l3 23c9 20 28 35 54 35z" />
		</symbol>
		<symbol id="E4E6" viewBox="0 0 1000 1000" overflow="inherit">
			<path transform="scale(1,-1)" d="M0 123c7 34 33 56 69 60c29 -3 43 -9 53 -29c4 -8 7 -15 10 -22c0 -21 -1 -25 -11 -35c-5 -8 -18 -14 -40 -20l12 -3l15 -1c44 0 97 26 122 56c10 11 18 26 24 42c7 1 15 2 22 3l-140 -424h-36l111 330c-10 -6 -27 -12 -53 -16l-52 -8h-10l-20 1c-1 0 -8 3 -21 6 c-37 9 -55 28 -55 60z" />
		</symbol>
		<symbol id="E260" viewBox="0 0 1000 1000" overflow="inherit">
			<path transform="scale(1,-1)" d="M20 110c32 16 54 27 93 27c26 0 35 -3 54 -13c13 -7 24 -20 27 -38l4 -25c0 -28 -16 -57 -45 -89c-23 -25 -39 -44 -65 -68l-88 -79v644h20v-359zM90 106c-32 0 -48 -10 -70 -29v-194c31 31 54 59 71 84c21 32 32 59 32 84c0 9 1 16 1 20c0 14 -3 21 -11 30l-8 3z" />
		</symbol>
		<symbol id="E262" viewBox="0 0 1000 1000" overflow="inherit">
			<path transform="scale(1,-1)" d="M136 186v169h17v-164l44 14v-91l-44 -14v-165l44 12v-91l-44 -13v-155h-17v150l-76 -22v-155h-17v149l-43 -13v90l43 14v167l-43 -14v92l43 13v169h17v-163zM60 73v-167l76 22v168z" />
		</symbol>
	</defs>
	<style type="text/css">g.page-margin{font-family:Times;} g.tempo{font-weight:bold;} g.dir, g.dynam, g.mNum{font-style:italic;} g.label{font-weight:normal;}</style>
	<svg class="definition-scale" viewBox="0 0 21000 4500">
		<g class="page-margin" transform="translate(500, 500)">
			<g class="system" id="system-0000000496814621">
				<path d="M13 720 L13 2880" stroke="#000000" stroke-width="27" />
				<path d="M-32,2862 C-392,2322 58,1980 -212,1800 C121,1980 -329,2322 -32,2862" stroke="#000000" stroke-linecap="round" stroke-linejoin="round" stroke-width="18" />
				<path d="M-32,738 C-329,1278 121,1620 -212,1800 C58,1620 -392,1278 -32,738" stroke="#000000" stroke-linecap="round" stroke-linejoin="round" stroke-width="18" />
				<g class="section boundaryStart" id="section-L1F1" />
				<g class="measure" id="measure-L4">
					<g class="staff" id="staff-L4F2N1">
						<path d="M0 720 L4531 720" stroke="#000000" stroke-width="13" />
						<path d="M0 900 L4531 900" stroke="#000000" stroke-width="13" />
						<path d="M0 1080 L4531 1080" stroke="#000000" stroke-width="13" />
						<path d="M0 1260 L4531 1260" stroke="#000000" stroke-width="13" />
						<path d="M0 1440 L4531 1440" stroke="#000000" stroke-width="13" />
						<g class="clef" id="clef-0000000114356522">
							<use xlink:href="#E050" x="90" y="1260" height="720px" width="720px" />
						</g>
						<g class="meterSig" id="msig-0000002139684836">
							<use xlink:href="#E082" x="771" y="900" height="720px" width="720px" />
							<use xlink:href="#E084" x="777" y="1260" height="720px" width="720px" />
						</g>
						<g class="ledgerLines below">
							<path d="M4076 1620 L4355 1620" stroke="#000000" stroke-width="22" />
						</g>
						<g class="layer" id="layer-L4F2N1">
							<g class="beam" id="beam-L5F2-L6F2">
								<polygon points="1583,586 1994,626 1994,716 1583,676 " />
								<polygon points="1583,721 1741,736 1741,826 1583,811 " />
								<g class="note" id="note-L5F2">
									<use xlink:href="#E0A4" x="1375" y="1260" height="720px" width="720px" />
									<g class="stem">
										<rect x="1583" y="604" height="634" width="18" />
									</g>
									<g class="accid" id="accid-0000000992171440" />
								</g>
								<g class="note" id="note-L6F2">
									<use xlink:href="#E0A4" x="1768" y="1440" height="720px" width="720px" />
									<g class="dots" id="dots-0000001438063145">
										<ellipse cx="2084" cy="1350" rx="36" ry="36" />
									</g>
									<g class="stem">
										<rect x="1976" y="644" height="774" width="18" />
									</g>
									<g class="accid" id="accid-0000001452601268" />
								</g>
							</g>
							<g class="beam" id="beam-L9F2-L12F2">
								<polygon points="3136,676 4333,794 4333,884 3136,766 " />
								<polygon points="3931,890 4333,929 4333,1019 3931,980 " />
								<g class="note" id="note-L9F2">
									<use xlink:href="#E0A4" x="2928" y="1350" height="720px" width="720px" />
									<g class="stem">
										<rect x="3136" y="694" height="634" width="18" />
									</g>
									<g class="accid" id="accid-0000000274993461" />
								</g>
								<g class="note" id="note-L11F2">
									<use xlink:href="#E0A4" x="3714" y="1440" height="720px" width="720px" />
									<g class="stem">
										<rect x="3922" y="773" height="645" width="18" />
									</g>
									<g class="accid" id="accid-0000001318069732" />
								</g>
								<g class="note" id="note-L12F2">
									<use xlink:href="#E0A4" x="4107" y="1620" height="720px" width="720px" />
									<g class="stem">
										<rect x="4315" y="812" height="786" width="18" />
									</g>
									<g class="accid" id="accid-0000000355915149" />
								</g>
							</g>
						</g>
					</g>
					<g class="staff" id="staff-L4F1N1">
						<path d="M0 2160 L4531 2160" stroke="#000000" stroke-width="13" />
						<path d="M0 2340 L4531 2340" stroke="#000000" stroke-width="13" />
						<path d="M0 2520 L4531 2520" stroke="#000000" stroke-width="13" />
						<path d="M0 2700 L4531 2700" stroke="#000000" stroke-width="13" />
						<path d="M0 2880 L4531 2880" stroke="#000000" stroke-width="13" />
						<g class="clef" id="clef-0000002069369637">
							<use xlink:href="#E062" x="90" y="2340" height="720px" width="720px" />
						</g>
						<g class="meterSig" id="msig-0000001397825894">
							<use xlink:href="#E082" x="771" y="2340" height="720px" width="720px" />
							<use xlink:href="#E084" x="777" y="2700" height="720px" width="720px" />
						</g>
						<g class="ledgerLines above">
							<path d="M2897 1980 L3176 1980" stroke="#000000" stroke-width="22" />
						</g>
						<g class="layer" id="layer-L4F1N1">
							<g class="beam" id="beam-L5F1-L8F1">
								<polygon points="1375,3375 2552,3259 2552,3169 1375,3285 " />
								<polygon points="2150,3163 2552,3124 2552,3034 2150,3073 " />
								<g class="rest" id="rest-L5F1">
									<use xlink:href="#E4E6" x="1375" y="2520" height="720px" width="720px" />
								</g>
								<g class="note" id="note-L7F1">
									<use xlink:href="#E0A4" x="2141" y="2250" height="720px" width="720px" />
									<g class="stem">
										<rect x="2141" y="2272" height="1008" width="18" />
									</g>
									<g class="accid" id="accid-0000000916720051" />
								</g>
								<g class="note" id="note-L8F1">
									<use xlink:href="#E0A4" x="2534" y="2070" height="720px" width="720px" />
									<g class="stem">
										<rect x="2534" y="2092" height="1149" width="18" />
									</g>
									<g class="accid" id="accid-0000001836164130" />
								</g>
							</g>
							<g class="beam" id="beam-L9F1-L11F1">
								<polygon points="2928,2885 3732,2964 3732,2874 2928,2795 " />
								<polygon points="2928,2750 3330,2790 3330,2700 2928,2660 " />
								<g class="note" id="note-L9F1">
									<use xlink:href="#E0A4" x="2928" y="1980" height="720px" width="720px" />
									<g class="stem">
										<rect x="2928" y="2002" height="865" width="18" />
									</g>
									<g class="accid" id="accid-0000000110837807" />
								</g>
								<g class="note" id="note-L10F1">
									<use xlink:href="#E0A4" x="3321" y="2250" height="720px" width="720px" />
									<g class="stem">
										<rect x="3321" y="2272" height="635" width="18" />
									</g>
									<g class="accid" id="accid-0000002094696670" />
								</g>
								<g class="rest" id="rest-L11F1">
									<use xlink:href="#E4E6" x="3714" y="2520" height="720px" width="720px" />
								</g>
							</g>
						</g>
					</g>
					<g class="tie" id="tie-L12F2-L14F2">
						<path d="M4355,1665 C4449,1763 4637,1763 4734,1665 C4637,1807 4449,1807 4355,1665" stroke="#000000" stroke-linecap="round" stroke-linejoin="round" stroke-width="9" />
					</g>
					<g class="mNum autogenerated" id="mnum-0000000473639587" />
					<g class="barLineAttr" id="bline-0000000745030048">
						<path d="M4518 2880 L4518 720" stroke="#000000" stroke-width="27" />
					</g>
				</g>
				<g class="measure" id="measure-L13">
					<g class="staff" id="staff-L13F2N1">
						<path d="M4531 720 L7912 720" stroke="#000000" stroke-width="13" />
						<path d="M4531 900 L7912 900" stroke="#000000" stroke-width="13" />
						<path d="M4531 1080 L7912 1080" stroke="#000000" stroke-width="13" />
						<path d="M4531 1260 L7912 1260" stroke="#000000" stroke-width="13" />
						<path d="M4531 1440 L7912 1440" stroke="#000000" stroke-width="13" />
						<g class="ledgerLines below">
							<path d="M4725 1620 L5004 1620" stroke="#000000" stroke-width="22" />
						</g>
						<g class="layer" id="layer-L13F2N1">
							<g class="beam" id="beam-L14F2-L17F2">
								<polygon points="4964,838 6161,730 6161,820 4964,928 " />
								<polygon points="4964,973 6161,865 6161,955 4964,1063 " />
								<g class="note" id="note-L14F2">
									<use xlink:href="#E0A4" x="4756" y="1620" height="720px" width="720px" />
									<g class="stem">
										<rect x="4964" y="856" height="742" width="18" />
									</g>
									<g class="accid" id="accid-0000000166475553" />
								</g>
								<g class="note" id="note-L15F2">
									<use xlink:href="#E0A4" x="5149" y="1530" height="720px" width="720px" />
									<g class="stem">
										<rect x="5357" y="820" height="688" width="18" />
									</g>
									<g class="accid" id="accid-0000000046236275" />
								</g>
								<g class="note" id="note-L16F2">
									<use xlink:href="#E0A4" x="5542" y="1440" height="720px" width="720px" />
									<g class="stem">
										<rect x="5750" y="784" height="634" width="18" />
									</g>
									<g class="accid" id="accid-0000000741910876" />
								</g>
								<g class="note" id="note-L17F2">
									<use xlink:href="#E0A4" x="5935" y="1530" height="720px" width="720px" />
									<g class="stem">
										<rect x="6143" y="748" height="760" width="18" />
									</g>
									<g class="accid" id="accid-0000001349476319" />
								</g>
							</g>
							<g class="beam" id="beam-L18F2-L21F2">
								<polygon points="6536,432 7714,316 7714,406 6536,522 " />
								<polygon points="6536,567 6694,552 6694,642 6536,657 " />
								<polygon points="7556,466 7714,451 7714,541 7556,556 " />
								<g class="note" id="note-L18F2">
									<use xlink:href="#E0A4" x="6328" y="1260" height="720px" width="720px" />
									<g class="stem">
										<rect x="6536" y="450" height="788" width="18" />
									</g>
									<g class="accid" id="accid-0000001744964551" />
								</g>
								<g class="note" id="note-L19F2">
									<use xlink:href="#E0A4" x="6722" y="1170" height="720px" width="720px" />
									<g class="stem">
										<rect x="6930" y="410" height="738" width="18" />
									</g>
									<g class="accid" id="accid-0000000916488480" />
								</g>
								<g class="note" id="note-L21F2">
									<use xlink:href="#E0A4" x="7488" y="990" height="720px" width="720px" />
									<g class="stem">
										<rect x="7696" y="334" height="634" width="18" />
									</g>
									<g class="accid" id="accid-0000001112165571" />
								</g>
							</g>
						</g>
					</g>
					<g class="staff" id="staff-L13F1N1">
						<path d="M4531 2160 L7912 2160" stroke="#000000" stroke-width="13" />
						<path d="M4531 2340 L7912 2340" stroke="#000000" stroke-width="13" />
						<path d="M4531 2520 L7912 2520" stroke="#000000" stroke-width="13" />
						<path d="M4531 2700 L7912 2700" stroke="#000000" stroke-width="13" />
						<path d="M4531 2880 L7912 2880" stroke="#000000" stroke-width="13" />
						<g class="ledgerLines above">
							<path d="M5511 1980 L5790 1980" stroke="#000000" stroke-width="22" />
						</g>
						<g class="layer" id="layer-L13F1N1">
							<g class="beam" id="beam-L14F1-L17F1">
								<polygon points="4756,2952 5953,2925 5953,2835 4756,2862 " />
								<polygon points="4756,2817 5953,2790 5953,2700 4756,2727 " />
								<g class="note" id="note-L14F1">
									<use xlink:href="#E0A4" x="4756" y="2250" height="720px" width="720px" />
									<g class="stem">
										<rect x="4756" y="2272" height="662" width="18" />
									</g>
									<g class="accid" id="accid-0000001732155464" />
								</g>
								<g class="note" id="note-L15F1">
									<use xlink:href="#E0A4" x="5149" y="2070" height="720px" width="720px" />
									<g class="stem">
										<rect x="5149" y="2092" height="833" width="18" />
									</g>
									<g class="accid" id="accid-0000000976374530" />
								</g>
								<g class="note" id="note-L16F1">
									<use xlink:href="#E0A4" x="5542" y="1980" height="720px" width="720px" />
									<g class="stem">
										<rect x="5542" y="2002" height="914" width="18" />
									</g>
									<g class="accid" id="accid-0000000162185508" />
								</g>
								<g class="note" id="note-L17F1">
									<use xlink:href="#E0A4" x="5935" y="2250" height="720px" width="720px" />
									<g class="stem">
										<rect x="5935" y="2272" height="635" width="18" />
									</g>
									<g class="accid" id="accid-0000002128576758" />
								</g>
							</g>
							<g class="beam" id="beam-L18F1-L21F1">
								<polygon points="6328,3375 7506,3259 7506,3169 6328,3285 " />
								<polygon points="7104,3163 7506,3124 7506,3034 7104,3073 " />
								<g class="rest" id="rest-L18F1">
									<use xlink:href="#E4E6" x="6328" y="2520" height="720px" width="720px" />
								</g>
								<g class="note" id="note-L20F1">
									<use xlink:href="#E0A4" x="7095" y="2250" height="720px" width="720px" />
									<g class="stem">
										<rect x="7095" y="2272" height="1008" width="18" />
									</g>
									<g class="accid" id="accid-0000001859480294" />
								</g>
								<g class="note" id="note-L21F1">
									<use xlink:href="#E0A4" x="7488" y="2070" height="720px" width="720px" />
									<g class="stem">
										<rect x="7488" y="2092" height="1149" width="18" />
									</g>
									<g class="accid" id="accid-0000002079976378" />
								</g>
							</g>
						</g>
					</g>
					<g class="mNum autogenerated" id="mnum-0000001398060722" />
					<g class="barLineAttr" id="bline-0000001408943772">
						<path d="M7899 2880 L7899 720" stroke="#000000" stroke-width="27" />
					</g>
				</g>
				<g class="measure" id="measure-L22">
					<g class="staff" id="staff-L22F2N1">
						<path d="M7912 720 L11781 720" stroke="#000000" stroke-width="13" />
						<path d="M7912 900 L11781 900" stroke="#000000" stroke-width="13" />
						<path d="M7912 1080 L11781 1080" stroke="#000000" stroke-width="13" />
						<path d="M7912 1260 L11781 1260" stroke="#000000" stroke-width="13" />
						<path d="M7912 1440 L11781 1440" stroke="#000000" stroke-width="13" />
						<g class="ledgerLines below">
							<path d="M11326 1620 L11605 1620" stroke="#000000" stroke-width="22" />
						</g>
						<g class="layer" id="layer-L22F2N1">
							<g class="beam" id="beam-L23F2-L24F2">
								<polygon points="8345,586 9000,650 9000,740 8345,676 " />
								<polygon points="8345,721 8503,736 8503,826 8345,811 " />
								<g class="note" id="note-L23F2">
									<use xlink:href="#E0A4" x="8137" y="1260" height="720px" width="720px" />
									<g class="stem">
										<rect x="8345" y="604" height="634" width="18" />
									</g>
									<g class="accid" id="accid-0000000504067945" />
								</g>
								<g class="note" id="note-L24F2">
									<use xlink:href="#E0A4" x="8774" y="1440" height="720px" width="720px" />
									<g class="dots" id="dots-0000000769300664">
										<ellipse cx="9090" cy="1350" rx="36" ry="36" />
									</g>
									<g class="stem">
										<rect x="8982" y="668" height="750" width="18" />
									</g>
									<g class="accid" id="accid-0000001200810951">
										<use xlink:href="#E260" x="8578" y="1440" height="720px" width="720px" />
									</g>
								</g>
							</g>
							<g class="beam" id="beam-L27F2-L30F2">
								<polygon points="10385,676 11583,794 11583,884 10385,766 " />
								<polygon points="11181,890 11583,929 11583,1019 11181,980 " />
								<g class="note" id="note-L27F2">
									<use xlink:href="#E0A4" x="10177" y="1350" height="720px" width="720px" />
									<g class="stem">
										<rect x="10385" y="694" height="634" width="18" />
									</g>
									<g class="accid" id="accid-0000001128887608" />
								</g>
								<g class="note" id="note-L29F2">
									<use xlink:href="#E0A4" x="10964" y="1440" height="720px" width="720px" />
									<g class="stem">
										<rect x="11172" y="773" height="645" width="18" />
									</g>
									<g class="accid" id="accid-0000000039835179" />
								</g>
								<g class="note" id="note-L30F2">
									<use xlink:href="#E0A4" x="11357" y="1620" height="720px" width="720px" />
									<g class="stem">
										<rect x="11565" y="812" height="786" width="18" />
									</g>
									<g class="accid" id="accid-0000000721440914" />
								</g>
							</g>
						</g>
					</g>
					<g class="staff" id="staff-L22F1N1">
						<path d="M7912 2160 L11781 2160" stroke="#000000" stroke-width="13" />
						<path d="M7912 2340 L11781 2340" stroke="#000000" stroke-width="13" />
						<path d="M7912 2520 L11781 2520" stroke="#000000" stroke-width="13" />
						<path d="M7912 2700 L11781 2700" stroke="#000000" stroke-width="13" />
						<path d="M7912 2880 L11781 2880" stroke="#000000" stroke-width="13" />
						<g class="ledgerLines above">
							<path d="M10146 1980 L10425 1980" stroke="#000000" stroke-width="22" />
						</g>
						<g class="layer" id="layer-L22F1N1">
							<g class="beam" id="beam-L23F1-L26F1">
								<polygon points="8137,3375 9802,3210 9802,3120 8137,3285 " />
								<polygon points="9156,3139 9802,3075 9802,2985 9156,3049 " />
								<g class="rest" id="rest-L23F1">
									<use xlink:href="#E4E6" x="8137" y="2520" height="720px" width="720px" />
								</g>
								<g class="note" id="note-L25F1">
									<use xlink:href="#E0A4" x="9147" y="2250" height="720px" width="720px" />
									<g class="stem">
										<rect x="9147" y="2272" height="984" width="18" />
									</g>
									<g class="accid" id="accid-0000001102161203" />
								</g>
								<g class="note" id="note-L26F1">
									<use xlink:href="#E0A4" x="9784" y="2070" height="720px" width="720px" />
									<g class="stem">
										<rect x="9784" y="2092" height="1100" width="18" />
									</g>
									<g class="accid" id="accid-0000001760574185">
										<use xlink:href="#E260" x="9588" y="2070" height="720px" width="720px" />
									</g>
								</g>
							</g>
							<g class="beam" id="beam-L27F1-L29F1">
								<polygon points="10177,2885 10982,2964 10982,2874 10177,2795 " />
								<polygon points="10177,2750 10580,2790 10580,2700 10177,2660 " />
								<g class="note" id="note-L27F1">
									<use xlink:href="#E0A4" x="10177" y="1980" height="720px" width="720px" />
									<g class="stem">
										<rect x="10177" y="2002" height="865" width="18" />
									</g>
									<g class="accid" id="accid-0000000655375577" />
								</g>
								<g class="note" id="note-L28F1">
									<use xlink:href="#E0A4" x="10571" y="2250" height="720px" width="720px" />
									<g class="stem">
										<rect x="10571" y="2272" height="635" width="18" />
									</g>
									<g class="accid" id="accid-0000001721490182" />
								</g>
								<g class="rest" id="rest-L29F1">
									<use xlink:href="#E4E6" x="10964" y="2520" height="720px" width="720px" />
								</g>
							</g>
						</g>
					</g>
					<g class="tie" id="tie-L30F2-L32F2">
						<path d="M11605,1665 C11699,1763 11887,1763 11984,1665 C11887,1807 11699,1807 11605,1665" stroke="#000000" stroke-linecap="round" stroke-linejoin="round" stroke-width="9" />
					</g>
					<g class="mNum autogenerated" id="mnum-0000000132538473" />
					<g class="barLineAttr" id="bline-0000001718963275">
						<path d="M11768 2880 L11768 720" stroke="#000000" stroke-width="27" />
					</g>
				</g>
				<g class="measure" id="measure-L31">
					<g class="staff" id="staff-L31F2N1">
						<path d="M11781 720 L15894 720" stroke="#000000" stroke-width="13" />
						<path d="M11781 900 L15894 900" stroke="#000000" stroke-width="13" />
						<path d="M11781 1080 L15894 1080" stroke="#000000" stroke-width="13" />
						<path d="M11781 1260 L15894 1260" stroke="#000000" stroke-width="13" />
						<path d="M11781 1440 L15894 1440" stroke="#000000" stroke-width="13" />
						<g class="ledgerLines below">
							<path d="M11975 1620 L12254 1620" stroke="#000000" stroke-width="22" />
						</g>
						<g class="layer" id="layer-L31F2N1">
							<g class="beam" id="beam-L32F2-L35F2">
								<polygon points="12214,857 13899,738 13899,828 12214,947 " />
								<polygon points="12214,992 13899,873 13899,963 12214,1082 " />
								<g class="note" id="note-L32F2">
									<use xlink:href="#E0A4" x="12006" y="1620" height="720px" width="720px" />
									<g class="stem">
										<rect x="12214" y="875" height="723" width="18" />
									</g>
									<g class="accid" id="accid-0000000493887292" />
								</g>
								<g class="note" id="note-L33F2">
									<use xlink:href="#E0A4" x="12643" y="1530" height="720px" width="720px" />
									<g class="stem">
										<rect x="12851" y="830" height="678" width="18" />
									</g>
									<g class="accid" id="accid-0000002108180581" />
								</g>
								<g class="note" id="note-L34F2">
									<use xlink:href="#E0A4" x="13280" y="1440" height="720px" width="720px" />
									<g class="stem">
										<rect x="13488" y="784" height="634" width="18" />
									</g>
									<g class="accid" id="accid-0000001355309399">
										<use xlink:href="#E260" x="13084" y="1440" height="720px" width="720px" />
									</g>
								</g>
								<g class="note" id="note-L35F2">
									<use xlink:href="#E0A4" x="13673" y="1530" height="720px" width="720px" />
									<g class="stem">
										<rect x="13881" y="756" height="752" width="18" />
									</g>
									<g class="accid" id="accid-0000001275828551" />
								</g>
							</g>
							<g class="beam" id="beam-L36F2-L39F2">
								<polygon points="14274,457 15696,316 15696,406 14274,547 " />
								<polygon points="14274,592 14432,577 14432,667 14274,682 " />
								<polygon points="15538,466 15696,451 15696,541 15538,556 " />
								<g class="note" id="note-L36F2">
									<use xlink:href="#E0A4" x="14066" y="1260" height="720px" width="720px" />
									<g class="stem">
										<rect x="14274" y="475" height="763" width="18" />
									</g>
									<g class="accid" id="accid-0000000738685802" />
								</g>
								<g class="note" id="note-L37F2">
									<use xlink:href="#E0A4" x="14703" y="1170" height="720px" width="720px" />
									<g class="stem">
										<rect x="14911" y="411" height="737" width="18" />
									</g>
									<g class="accid" id="accid-0000001133529586">
										<use xlink:href="#E260" x="14507" y="1170" height="720px" width="720px" />
									</g>
								</g>
								<g class="note" id="note-L39F2">
									<use xlink:href="#E0A4" x="15470" y="990" height="720px" width="720px" />
									<g class="stem">
										<rect x="15678" y="334" height="634" width="18" />
									</g>
									<g class="accid" id="accid-0000001153797736" />
								</g>
							</g>
						</g>
					</g>
					<g class="staff" id="staff-L31F1N1">
						<path d="M11781 2160 L15894 2160" stroke="#000000" stroke-width="13" />
						<path d="M11781 2340 L15894 2340" stroke="#000000" stroke-width="13" />
						<path d="M11781 2520 L15894 2520" stroke="#000000" stroke-width="13" />
						<path d="M11781 2700 L15894 2700" stroke="#000000" stroke-width="13" />
						<path d="M11781 2880 L15894 2880" stroke="#000000" stroke-width="13" />
						<g class="ledgerLines above">
							<path d="M13249 1980 L13528 1980" stroke="#000000" stroke-width="22" />
						</g>
						<g class="layer" id="layer-L31F1N1">
							<g class="beam" id="beam-L32F1-L35F1">
								<polygon points="12006,2983 13691,2925 13691,2835 12006,2893 " />
								<polygon points="12006,2848 13691,2790 13691,2700 12006,2758 " />
								<g class="note" id="note-L32F1">
									<use xlink:href="#E0A4" x="12006" y="2250" height="720px" width="720px" />
									<g class="stem">
										<rect x="12006" y="2272" height="693" width="18" />
									</g>
									<g class="accid" id="accid-0000000732582576" />
								</g>
								<g class="note" id="note-L33F1">
									<use xlink:href="#E0A4" x="12643" y="2070" height="720px" width="720px" />
									<g class="stem">
										<rect x="12643" y="2092" height="851" width="18" />
									</g>
									<g class="accid" id="accid-0000001458706147">
										<use xlink:href="#E260" x="12447" y="2070" height="720px" width="720px" />
									</g>
								</g>
								<g class="note" id="note-L34F1">
									<use xlink:href="#E0A4" x="13280" y="1980" height="720px" width="720px" />
									<g class="stem">
										<rect x="13280" y="2002" height="919" width="18" />
									</g>
									<g class="accid" id="accid-0000000273203543" />
								</g>
								<g class="note" id="note-L35F1">
									<use xlink:href="#E0A4" x="13673" y="2250" height="720px" width="720px" />
									<g class="stem">
										<rect x="13673" y="2272" height="635" width="18" />
									</g>
									<g class="accid" id="accid-0000001630147124" />
								</g>
							</g>
							<g class="beam" id="beam-L36F1-L39F1">
								<polygon points="14066,3375 15488,3234 15488,3144 14066,3285 " />
								<polygon points="15086,3138 15488,3099 15488,3009 15086,3048 " />
								<g class="rest" id="rest-L36F1">
									<use xlink:href="#E4E6" x="14066" y="2520" height="720px" width="720px" />
								</g>
								<g class="note" id="note-L38F1">
									<use xlink:href="#E0A4" x="15077" y="2250" height="720px" width="720px" />
									<g class="stem">
										<rect x="15077" y="2272" height="983" width="18" />
									</g>
									<g class="accid" id="accid-0000001024846721" />
								</g>
								<g class="note" id="note-L39F1">
									<use xlink:href="#E0A4" x="15470" y="2070" height="720px" width="720px" />
									<g class="stem">
										<rect x="15470" y="2092" height="1124" width="18" />
									</g>
									<g class="accid" id="accid-0000001859971239" />
								</g>
							</g>
						</g>
					</g>
					<g class="mNum autogenerated" id="mnum-0000001250464178" />
					<g class="barLineAttr" id="bline-0000000376660613">
						<path d="M15881 2880 L15881 720" stroke="#000000" stroke-width="27" />
					</g>
				</g>
				<g class="measure" id="measure-L40">
					<g class="staff" id="staff-L40F2N1">
						<path d="M15894 720 L20003 720" stroke="#000000" stroke-width="13" />
						<path d="M15894 900 L20003 900" stroke="#000000" stroke-width="13" />
						<path d="M15894 1080 L20003 1080" stroke="#000000" stroke-width="13" />
						<path d="M15894 1260 L20003 1260" stroke="#000000" stroke-width="13" />
						<path d="M15894 1440 L20003 1440" stroke="#000000" stroke-width="13" />
						<g class="ledgerLines below">
							<path d="M19548 1620 L19827 1620" stroke="#000000" stroke-width="22" />
						</g>
						<g class="layer" id="layer-L40F2N1">
							<g class="beam" id="beam-L41F2-L42F2">
								<polygon points="16569,676 17223,740 17223,830 16569,766 " />
								<polygon points="16569,811 16727,826 16727,916 16569,901 " />
								<g class="note" id="note-L41F2">
									<use xlink:href="#E0A4" x="16361" y="1350" height="720px" width="720px" />
									<g class="stem">
										<rect x="16569" y="694" height="634" width="18" />
									</g>
									<g class="accid" id="accid-0000000542470281">
										<use xlink:href="#E262" x="16166" y="1350" height="720px" width="720px" />
									</g>
								</g>
								<g class="note" id="note-L42F2">
									<use xlink:href="#E0A4" x="16997" y="1530" height="720px" width="720px" />
									<g class="dots" id="dots-0000000923953842">
										<ellipse cx="17313" cy="1530" rx="36" ry="36" />
									</g>
									<g class="stem">
										<rect x="17205" y="758" height="750" width="18" />
									</g>
									<g class="accid" id="accid-0000001924449989">
										<use xlink:href="#E262" x="16802" y="1530" height="720px" width="720px" />
									</g>
								</g>
							</g>
							<g class="beam" id="beam-L45F2-L48F2">
								<polygon points="18608,766 19805,884 19805,974 18608,856 " />
								<polygon points="19403,980 19805,1019 19805,1109 19403,1070 " />
								<g class="note" id="note-L45F2">
									<use xlink:href="#E0A4" x="18400" y="1440" height="720px" width="720px" />
									<g class="stem">
										<rect x="18608" y="784" height="634" width="18" />
									</g>
									<g class="accid" id="accid-0000002118649706">
										<use xlink:href="#E262" x="18205" y="1440" height="720px" width="720px" />
									</g>
								</g>
								<g class="note" id="note-L47F2">
									<use xlink:href="#E0A4" x="19186" y="1530" height="720px" width="720px" />
									<g class="stem">
										<rect x="19394" y="863" height="645" width="18" />
									</g>
									<g class="accid" id="accid-0000000380983882" />
								</g>
								<g class="note" id="note-L48F2">
									<use xlink:href="#E0A4" x="19579" y="1710" height="720px" width="720px" />
									<g class="stem">
										<rect x="19787" y="902" height="786" width="18" />
									</g>
									<g class="accid" id="accid-0000000336031899" />
								</g>
							</g>
						</g>
					</g>
					<g class="staff" id="staff-L40F1N1">
						<path d="M15894 2160 L20003 2160" stroke="#000000" stroke-width="13" />
						<path d="M15894 2340 L20003 2340" stroke="#000000" stroke-width="13" />
						<path d="M15894 2520 L20003 2520" stroke="#000000" stroke-width="13" />
						<path d="M15894 2700 L20003 2700" stroke="#000000" stroke-width="13" />
						<path d="M15894 2880 L20003 2880" stroke="#000000" stroke-width="13" />
						<g class="layer" id="layer-L40F1N1">
							<g class="beam" id="beam-L41F1-L44F1">
								<polygon points="16361,3375 18024,3210 18024,3120 16361,3285 " />
								<polygon points="17379,3139 18024,3075 18024,2985 17379,3049 " />
								<g class="rest" id="rest-L41F1">
									<use xlink:href="#E4E6" x="16361" y="2520" height="720px" width="720px" />
								</g>
								<g class="note" id="note-L43F1">
									<use xlink:href="#E0A4" x="17370" y="2340" height="720px" width="720px" />
									<g class="stem">
										<rect x="17370" y="2362" height="894" width="18" />
									</g>
									<g class="accid" id="accid-0000000397978191">
										<use xlink:href="#E262" x="17175" y="2340" height="720px" width="720px" />
									</g>
								</g>
								<g class="note" id="note-L44F1">
									<use xlink:href="#E0A4" x="18006" y="2160" height="720px" width="720px" />
									<g class="stem">
										<rect x="18006" y="2182" height="1010" width="18" />
									</g>
									<g class="accid" id="accid-0000002090271569">
										<use xlink:href="#E262" x="17811" y="2160" height="720px" width="720px" />
									</g>
								</g>
							</g>
							<g class="beam" id="beam-L45F1-L47F1">
								<polygon points="18400,2975 19204,3054 19204,2964 18400,2885 " />
								<polygon points="18400,2840 18802,2880 18802,2790 18400,2750 " />
								<g class="note" id="note-L45F1">
									<use xlink:href="#E0A4" x="18400" y="2070" height="720px" width="720px" />
									<g class="stem">
										<rect x="18400" y="2092" height="865" width="18" />
									</g>
									<g class="accid" id="accid-0000000793200203" />
								</g>
								<g class="note" id="note-L46F1">
									<use xlink:href="#E0A4" x="18793" y="2340" height="720px" width="720px" />
									<g class="stem">
										<rect x="18793" y="2362" height="635" width="18" />
									</g>
									<g class="accid" id="accid-0000000552612947" />
								</g>
								<g class="rest" id="rest-L47F1">
									<use xlink:href="#E4E6" x="19186" y="2520" height="720px" width="720px" />
								</g>
							</g>
						</g>
					</g>
					<g class="tie" id="tie-L48F2-L50F2">
						<path d="M19692,1845 C19766,1943 19914,1943 19990,1845 C19914,1987 19766,1987 19692,1845" stroke="#000000" stroke-linecap="round" stroke-linejoin="round" stroke-width="9" />
					</g>
					<g class="mNum autogenerated" id="mnum-0000000271404398" />
					<g class="barLineAttr" id="bline-0000001314625878">
						<path d="M19990 2880 L19990 720" stroke="#000000" stroke-width="27" />
					</g>
				</g>
			</g>
		</g>
	</svg>
</svg>
