<?xml version="1.0" encoding="UTF-8" standalone="no"?>
<svg width="2100.00px" height="450.00px" version="1.1" xmlns="http://www.w3.org/2000/svg" xmlns:xlink="http://www.w3.org/1999/xlink" overflow="visible">
	<desc>Engraved by Verovio 2.0.0-dev-0f0381c</desc>
	<defs>
		<symbol id="E050" viewBox="0 0 1000 1000" overflow="inherit">
			<path transform="scale(1,-1)" d="M441 -245c-23 -4 -48 -6 -76 -6c-59 0 -102 7 -130 20c-88 42 -150 93 -187 154c-26 44 -43 103 -48 176c-4 60 11 123 44 189c29 57 65 106 110 148s96 85 153 127c-3 16 -8 46 -13 92c-4 43 -5 73 -5 89c0 117 16 172 69 257c34 54 64 82 89 82c21 0 43 -30 69 -92 s39 -115 41 -159c2 -120 -19 -173 -67 -256c-13 -20 -63 -90 -98 -118c-13 -9 -25 -19 -37 -29l31 -181c8 1 18 2 28 2c58 0 102 -12 133 -35c59 -43 92 -104 98 -184c11 -135 -80 -229 -180 -270c8 -57 17 -110 25 -162c5 -31 6 -58 6 -80c0 -30 -5 -53 -14 -70 c-35 -64 -88 -99 -158 -103c-42 -3 -83 6 -124 26c-50 24 -77 59 -80 105c-2 34 5 63 20 87c18 28 45 42 79 44c51 4 99 -40 103 -87c4 -56 -30 -94 -105 -115c17 -24 51 -36 102 -36c62 0 116 43 140 85c9 16 13 41 13 74c0 20 -1 42 -5 67c-8 53 -18 106 -26 159zM461 939 c-95 0 -135 -175 -135 -286c0 -24 2 -48 5 -71c50 39 92 82 127 128c43 57 63 106 60 148c-4 54 -23 82 -57 81zM406 119l54 -326c80 27 116 88 109 184c-7 99 -62 146 -163 142zM382 117c-74 -2 -132 -50 -128 -127c2 -46 43 -99 75 -115c-3 -2 -7 -5 -10 -10 c-70 33 -116 88 -123 172c-5 73 42 135 88 170c23 17 49 29 78 36l-29 170c-21 -13 -52 -37 -92 -73c-50 -44 -86 -84 -109 -119c-49 -75 -71 -140 -67 -195c5 -68 35 -127 93 -176s125 -73 203 -73c25 0 50 3 75 9c-19 111 -36 221 -54 331z" />
		</symbol>
		<symbol id="E082" viewBox="0 0 1000 1000" overflow="inherit">
			<path transform="scale(1,-1)" d="M104 -185c-18 0 -55 -14 -65 -65h-36l-3 29c0 25 6 46 18 64c11 19 22 30 39 43l121 82l37 29c15 11 27 29 38 54c12 24 18 47 18 70c0 40 -19 88 -94 88c-25 0 -32 0 -50 -8c-14 -5 -23 -12 -26 -22c3 -9 7 -15 10 -18l24 -17c12 -7 17 -11 27 -21c5 -7 7 -16 7 -27 c0 -12 0 -57 -79 -74c-30 0 -76 26 -76 94c0 66 80 135 196 135c72 0 182 -32 182 -150c0 -53 -32 -95 -113 -133l-91 -41c-26 -11 -45 -23 -57 -37l49 7c84 0 115 -41 148 -41c20 0 33 20 39 61h35c0 -152 -68 -168 -114 -168c-17 0 -55 0 -69 7v0l-28 17 c-49 37 -69 40 -87 42z" />
		</symbol>
		<symbol id="E084" viewBox="0 0 1000 1000" overflow="inherit">
			<path transform="scale(1,-1)" d="M0 -78c84 97 114 180 134 329h170c-13 -32 -82 -132 -99 -151l-84 -97c-33 -36 -59 -63 -80 -81h162v102l127 123v-225h57v-39h-57v-34c0 -43 19 -65 57 -65v-34h-244v36c48 0 60 26 60 70v27h-203v39z" />
		</symbol>
		<symbol id="E0A4" viewBox="0 0 1000 1000" overflow="inherit">
			<path transform="scale(1,-1)" d="M0 -39c0 68 73 172 200 172c66 0 114 -37 114 -95c0 -84 -106 -171 -218 -171c-64 0 -96 30 -96 94z" />
		</symbol>
		<symbol id="E260" viewBox="0 0 1000 1000" overflow="inherit">
			<path transform="scale(1,-1)" d="M20 110c32 16 54 27 93 27c26 0 35 -3 54 -13c13 -7 24 -20 27 -38l4 -25c0 -28 -16 -57 -45 -89c-23 -25 -39 -44 -65 -68l-88 -79v644h20v-359zM90 106c-32 0 -48 -10 -70 -29v-194c31 31 54 59 71 84c21 32 32 59 32 84c0 9 1 16 1 20c0 14 -3 21 -11 30l-8 3z" />
		</symbol>
		<symbol id="E062" viewBox="0 0 1000 1000" overflow="inherit">
			<path transform="scale(1,-1)" d="M158 96c51 0 73 -14 88 -49l16 -39c0 -17 -2 -30 -7 -40c-3 -11 -10 -21 -19 -31c-17 -18 -49 -43 -84 -43c-55 0 -77 13 -112 44c-24 21 -35 55 -35 100c0 46 14 81 32 112c30 52 71 79 137 93l36 6l26 2c154 0 235 -68 274 -182c11 -32 18 -68 18 -107 c0 -103 -26 -182 -68 -250c-89 -145 -234 -230 -412 -288l-30 -5c-9 0 -14 3 -14 8c3 10 5 11 10 16c35 15 70 30 96 44l78 43c96 57 162 136 197 258c9 33 17 60 22 100c3 22 5 35 6 39c-7 69 -16 115 -23 140s-4 22 -16 40c-8 12 -19 23 -31 34c-24 21 -62 44 -118 44 c-48 0 -84 -8 -113 -28c-28 -19 -42 -44 -42 -73v-16c2 -5 3 -9 4 -11c24 22 52 39 84 39zM585 -118c0 32 23 58 57 58c18 0 33 -6 40 -18c9 -15 16 -18 16 -40c0 -9 -2 -16 -5 -21c-6 -19 -27 -37 -51 -37c-34 0 -57 26 -57 58zM642 177c31 0 56 -27 56 -58 c0 -30 -25 -58 -56 -58l-23 3c-19 7 -34 32 -34 55l3 23c9 20 28 35 54 35z" />
		</symbol>
		<symbol id="E262" viewBox="0 0 1000 1000" overflow="inherit">
			<path transform="scale(1,-1)" d="M136 186v169h17v-164l44 14v-91l-44 -14v-165l44 12v-91l-44 -13v-155h-17v150l-76 -22v-155h-17v149l-43 -13v90l43 14v167l-43 -14v92l43 13v169h17v-163zM60 73v-167l76 22v168z" />
		</symbol>
	</defs>
	<style type="text/css">g.page-margin{font-family:Times;} g.tempo{font-weight:bold;} g.dir, g.dynam, g.mNum{font-style:italic;} g.label{font-weight:normal;}</style>
	<svg class="definition-scale" viewBox="0 0 21000 4500">
		<g class="page-margin" transform="translate(500, 500)">
			<g class="system" id="system-0000000344353195">
				<path d="M13 720 L13 3028" stroke="#000000" stroke-width="27" />
				<path d="M-32,3010 C-392,2470 58,2054 -212,1874 C121,2054 -329,2470 -32,3010" stroke="#000000" stroke-linecap="round" stroke-linejoin="round" stroke-width="18" />
				<path d="M-32,738 C-329,1278 121,1694 -212,1874 C58,1694 -392,1278 -32,738" stroke="#000000" stroke-linecap="round" stroke-linejoin="round" stroke-width="18" />
				<g class="section boundaryStart" id="section-L1F1" />
				<g class="measure" id="measure-L4">
					<g class="staff" id="staff-L4F2N1">
						<path d="M0 720 L4890 720" stroke="#000000" stroke-width="13" />
						<path d="M0 900 L4890 900" stroke="#000000" stroke-width="13" />
						<path d="M0 1080 L4890 1080" stroke="#000000" stroke-width="13" />
						<path d="M0 1260 L4890 1260" stroke="#000000" stroke-width="13" />
						<path d="M0 1440 L4890 1440" stroke="#000000" stroke-width="13" />
						<g class="clef" id="clef-0000001248974479">
							<use xlink:href="#E050" x="90" y="1260" height="720px" width="720px" />
						</g>
						<g class="meterSig" id="msig-0000002008902775">
							<use xlink:href="#E082" x="771" y="900" height="720px" width="720px" />
							<use xlink:href="#E084" x="777" y="1260" height="720px" width="720px" />
						</g>
						<g class="layer" id="layer-L4F2N1">
							<g class="beam" id="beam-L5F2-L8F2">
								<polygon points="1758,461 3200,318 3200,408 1758,551 " />
								<polygon points="1758,596 3200,453 3200,543 1758,686 " />
								<g class="note" id="note-L5F2">
									<use xlink:href="#E0A4" x="1550" y="1440" height="720px" width="720px" />
									<g class="stem">
										<rect x="1758" y="479" height="939" width="18" />
									</g>
									<g class="accid" id="accid-0000001648731627">
										<use xlink:href="#E260" x="1354" y="1440" height="720px" width="720px" />
									</g>
								</g>
								<g class="note" id="note-L6F2">
									<use xlink:href="#E0A4" x="2094" y="1080" height="720px" width="720px" />
									<g class="stem">
										<rect x="2302" y="424" height="634" width="18" />
									</g>
									<g class="accid" id="accid-0000000981966506">
										<use xlink:href="#E260" x="1898" y="1080" height="720px" width="720px" />
									</g>
								</g>
								<g class="note" id="note-L7F2">
									<use xlink:href="#E0A4" x="2639" y="1170" height="720px" width="720px" />
									<g class="stem">
										<rect x="2847" y="370" height="778" width="18" />
									</g>
									<g class="accid" id="accid-0000000493734800">
										<use xlink:href="#E260" x="2443" y="1170" height="720px" width="720px" />
									</g>
								</g>
								<g class="note" id="note-L8F2">
									<use xlink:href="#E0A4" x="2974" y="1260" height="720px" width="720px" />
									<g class="stem">
										<rect x="3182" y="336" height="902" width="18" />
									</g>
									<g class="accid" id="accid-0000001119501599" />
								</g>
							</g>
							<g class="beam" id="beam-L9F2-L12F2">
								<polygon points="3518,269 4752,375 4752,465 3518,359 " />
								<polygon points="3518,404 3676,417 3676,507 3518,494 " />
								<polygon points="4594,497 4752,510 4752,600 4594,587 " />
								<g class="note" id="note-L9F2">
									<use xlink:href="#E0A4" x="3310" y="1170" height="720px" width="720px" />
									<g class="stem">
										<rect x="3518" y="287" height="861" width="18" />
									</g>
									<g class="accid" id="accid-0000000881004925" />
								</g>
								<g class="note" id="note-L10F2">
									<use xlink:href="#E0A4" x="3854" y="990" height="720px" width="720px" />
									<g class="stem">
										<rect x="4062" y="334" height="634" width="18" />
									</g>
									<g class="accid" id="accid-0000000381685292" />
								</g>
								<g class="note" id="note-L12F2">
									<use xlink:href="#E0A4" x="4526" y="1260" height="720px" width="720px" />
									<g class="stem">
										<rect x="4734" y="393" height="845" width="18" />
									</g>
									<g class="accid" id="accid-0000000164193475" />
								</g>
							</g>
						</g>
					</g>
					<g class="staff" id="staff-L4F1N1">
						<path d="M0 2308 L4890 2308" stroke="#000000" stroke-width="13" />
						<path d="M0 2488 L4890 2488" stroke="#000000" stroke-width="13" />
						<path d="M0 2668 L4890 2668" stroke="#000000" stroke-width="13" />
						<path d="M0 2848 L4890 2848" stroke="#000000" stroke-width="13" />
						<path d="M0 3028 L4890 3028" stroke="#000000" stroke-width="13" />
						<g class="clef" id="clef-0000000891041291">
							<use xlink:href="#E062" x="90" y="2488" height="720px" width="720px" />
						</g>
						<g class="meterSig" id="msig-0000001327507306">
							<use xlink:href="#E082" x="771" y="2488" height="720px" width="720px" />
							<use xlink:href="#E084" x="777" y="2848" height="720px" width="720px" />
						</g>
						<g class="layer" id="layer-L4F1N1">
							<g class="beam" id="beam-L5F1-L8F1">
								<polygon points="1758,1989 3200,2003 3200,2093 1758,2079 " />
								<polygon points="1758,2124 1916,2125 1916,2215 1758,2214 " />
								<polygon points="3042,2136 3200,2138 3200,2228 3042,2226 " />
								<g class="note" id="note-L5F1">
									<use xlink:href="#E0A4" x="1550" y="2758" height="720px" width="720px" />
									<g class="stem">
										<rect x="1758" y="2007" height="729" width="18" />
									</g>
									<g class="accid" id="accid-0000000165042862" />
								</g>
								<g class="note" id="note-L6F1">
									<use xlink:href="#E0A4" x="2094" y="2668" height="720px" width="720px" />
									<g class="stem">
										<rect x="2302" y="2012" height="634" width="18" />
									</g>
									<g class="accid" id="accid-0000000034999307" />
								</g>
								<g class="note" id="note-L8F1">
									<use xlink:href="#E0A4" x="2974" y="2758" height="720px" width="720px" />
									<g class="stem">
										<rect x="3182" y="2021" height="715" width="18" />
									</g>
									<g class="accid" id="accid-0000000921965486" />
								</g>
							</g>
							<g class="beam" id="beam-L9F1-L12F1">
								<polygon points="3310,3521 4544,3433 4544,3343 3310,3431 " />
								<polygon points="3310,3386 4544,3298 4544,3208 3310,3296 " />
								<g class="note" id="note-L9F1">
									<use xlink:href="#E0A4" x="3310" y="2758" height="720px" width="720px" />
									<g class="stem">
										<rect x="3310" y="2780" height="723" width="18" />
									</g>
									<g class="accid" id="accid-0000000218464362" />
								</g>
								<g class="note" id="note-L10F1">
									<use xlink:href="#E0A4" x="3854" y="2578" height="720px" width="720px" />
									<g class="stem">
										<rect x="3854" y="2600" height="864" width="18" />
									</g>
									<g class="accid" id="accid-0000002073584392">
										<use xlink:href="#E260" x="3658" y="2578" height="720px" width="720px" />
									</g>
								</g>
								<g class="note" id="note-L11F1">
									<use xlink:href="#E0A4" x="4190" y="2398" height="720px" width="720px" />
									<g class="stem">
										<rect x="4190" y="2420" height="1019" width="18" />
									</g>
									<g class="accid" id="accid-0000000970388120" />
								</g>
								<g class="note" id="note-L12F1">
									<use xlink:href="#E0A4" x="4526" y="2758" height="720px" width="720px" />
									<g class="stem">
										<rect x="4526" y="2780" height="635" width="18" />
									</g>
									<g class="accid" id="accid-0000002029813098" />
								</g>
							</g>
						</g>
					</g>
					<g class="tie" id="tie-L8F1-L9F1">
						<path d="M3087,2893 C3171,2991 3339,2991 3423,2893 C3339,3035 3171,3035 3087,2893" stroke="#000000" stroke-linecap="round" stroke-linejoin="round" stroke-width="9" />
					</g>
					<g class="tie" id="tie-L12F1-L14F1">
						<path d="M4774,2713 C4897,2571 5143,2571 5268,2713 C5143,2615 4897,2615 4774,2713" stroke="#000000" stroke-linecap="round" stroke-linejoin="round" stroke-width="9" />
					</g>
					<g class="mNum autogenerated" id="mnum-0000001561295123" />
					<g class="barLineAttr" id="bline-0000001554767545">
						<path d="M4877 3028 L4877 720" stroke="#000000" stroke-width="27" />
					</g>
				</g>
				<g class="measure" id="measure-L13">
					<g class="staff" id="staff-L13F2N1">
						<path d="M4890 720 L8086 720" stroke="#000000" stroke-width="13" />
						<path d="M4890 900 L8086 900" stroke="#000000" stroke-width="13" />
						<path d="M4890 1080 L8086 1080" stroke="#000000" stroke-width="13" />
						<path d="M4890 1260 L8086 1260" stroke="#000000" stroke-width="13" />
						<path d="M4890 1440 L8086 1440" stroke="#000000" stroke-width="13" />
						<g class="layer" id="layer-L13F2N1">
							<g class="beam" id="beam-L14F2-L17F2">
								<polygon points="5498,383 6732,261 6732,351 5498,473 " />
								<polygon points="5498,518 6732,396 6732,486 5498,608 " />
								<g class="note" id="note-L14F2">
									<use xlink:href="#E0A4" x="5290" y="1440" height="720px" width="720px" />
									<g class="stem">
										<rect x="5498" y="401" height="1017" width="18" />
									</g>
									<g class="accid" id="accid-0000000955297964">
										<use xlink:href="#E260" x="5094" y="1440" height="720px" width="720px" />
									</g>
								</g>
								<g class="note" id="note-L15F2">
									<use xlink:href="#E0A4" x="5626" y="1350" height="720px" width="720px" />
									<g class="stem">
										<rect x="5834" y="367" height="961" width="18" />
									</g>
									<g class="accid" id="accid-0000000434285729" />
								</g>
								<g class="note" id="note-L16F2">
									<use xlink:href="#E0A4" x="5962" y="990" height="720px" width="720px" />
									<g class="stem">
										<rect x="6170" y="334" height="634" width="18" />
									</g>
									<g class="accid" id="accid-0000000461284873" />
								</g>
								<g class="note" id="note-L17F2">
									<use xlink:href="#E0A4" x="6506" y="1080" height="720px" width="720px" />
									<g class="stem">
										<rect x="6714" y="279" height="779" width="18" />
									</g>
									<g class="accid" id="accid-0000001929130400">
										<use xlink:href="#E260" x="6310" y="1080" height="720px" width="720px" />
									</g>
								</g>
							</g>
							<g class="beam" id="beam-L18F2-L20F2">
								<polygon points="7050,440 7948,352 7948,442 7050,530 " />
								<polygon points="7050,575 7208,560 7208,650 7050,665 " />
								<polygon points="7790,502 7948,487 7948,577 7790,592 " />
								<g class="note" id="note-L18F2">
									<use xlink:href="#E0A4" x="6842" y="1440" height="720px" width="720px" />
									<g class="stem">
										<rect x="7050" y="458" height="960" width="18" />
									</g>
									<g class="accid" id="accid-0000000962573741" />
								</g>
								<g class="note" id="note-L19F2">
									<use xlink:href="#E0A4" x="7178" y="1080" height="720px" width="720px" />
									<g class="stem">
										<rect x="7386" y="424" height="634" width="18" />
									</g>
									<g class="accid" id="accid-0000001751987969" />
								</g>
								<g class="note" id="note-L20F2">
									<use xlink:href="#E0A4" x="7722" y="1170" height="720px" width="720px" />
									<g class="stem">
										<rect x="7930" y="370" height="778" width="18" />
									</g>
									<g class="accid" id="accid-0000000635006847">
										<use xlink:href="#E260" x="7526" y="1170" height="720px" width="720px" />
									</g>
								</g>
							</g>
						</g>
					</g>
					<g class="staff" id="staff-L13F1N1">
						<path d="M4890 2308 L8086 2308" stroke="#000000" stroke-width="13" />
						<path d="M4890 2488 L8086 2488" stroke="#000000" stroke-width="13" />
						<path d="M4890 2668 L8086 2668" stroke="#000000" stroke-width="13" />
						<path d="M4890 2848 L8086 2848" stroke="#000000" stroke-width="13" />
						<path d="M4890 3028 L8086 3028" stroke="#000000" stroke-width="13" />
						<g class="layer" id="layer-L13F1N1">
							<g class="beam" id="beam-L14F1-L17F1">
								<polygon points="5290,3433 6524,3311 6524,3221 5290,3343 " />
								<polygon points="5290,3298 5448,3283 5448,3193 5290,3208 " />
								<polygon points="6366,3191 6524,3176 6524,3086 6366,3101 " />
								<g class="note" id="note-L14F1">
									<use xlink:href="#E0A4" x="5290" y="2758" height="720px" width="720px" />
									<g class="stem">
										<rect x="5290" y="2780" height="635" width="18" />
									</g>
									<g class="accid" id="accid-0000001318559289" />
								</g>
								<g class="note" id="note-L15F1">
									<use xlink:href="#E0A4" x="5626" y="2668" height="720px" width="720px" />
									<g class="stem">
										<rect x="5626" y="2690" height="691" width="18" />
									</g>
									<g class="accid" id="accid-0000000881941277" />
								</g>
								<g class="note" id="note-L17F1">
									<use xlink:href="#E0A4" x="6506" y="2578" height="720px" width="720px" />
									<g class="stem">
										<rect x="6506" y="2600" height="693" width="18" />
									</g>
									<g class="accid" id="accid-0000001822654185">
										<use xlink:href="#E260" x="6310" y="2578" height="720px" width="720px" />
									</g>
								</g>
							</g>
							<g class="beam" id="beam-L18F1-L20F1">
								<polygon points="6842,3165 7740,3253 7740,3163 6842,3075 " />
								<polygon points="6842,3030 7000,3045 7000,2955 6842,2940 " />
								<polygon points="7582,3104 7740,3118 7740,3028 7582,3014 " />
								<g class="note" id="note-L18F1">
									<use xlink:href="#E0A4" x="6842" y="2398" height="720px" width="720px" />
									<g class="stem">
										<rect x="6842" y="2420" height="727" width="18" />
									</g>
									<g class="accid" id="accid-0000001518379811" />
								</g>
								<g class="note" id="note-L19F1">
									<use xlink:href="#E0A4" x="7178" y="2488" height="720px" width="720px" />
									<g class="stem">
										<rect x="7178" y="2510" height="671" width="18" />
									</g>
									<g class="accid" id="accid-0000001933119252" />
								</g>
								<g class="note" id="note-L20F1">
									<use xlink:href="#E0A4" x="7722" y="2578" height="720px" width="720px" />
									<g class="stem">
										<rect x="7722" y="2600" height="635" width="18" />
									</g>
									<g class="accid" id="accid-0000001342288938" />
								</g>
							</g>
						</g>
					</g>
					<g class="mNum autogenerated" id="mnum-0000000253687998" />
					<g class="barLineAttr" id="bline-0000002145610387">
						<path d="M8073 3028 L8073 720" stroke="#000000" stroke-width="27" />
					</g>
				</g>
				<g class="measure" id="measure-L21">
					<g class="staff" id="staff-L21F2N1">
						<path d="M8086 720 L12241 720" stroke="#000000" stroke-width="13" />
						<path d="M8086 900 L12241 900" stroke="#000000" stroke-width="13" />
						<path d="M8086 1080 L12241 1080" stroke="#000000" stroke-width="13" />
						<path d="M8086 1260 L12241 1260" stroke="#000000" stroke-width="13" />
						<path d="M8086 1440 L12241 1440" stroke="#000000" stroke-width="13" />
						<g class="ledgerLines below">
							<path d="M10968 1620 L11247 1620" stroke="#000000" stroke-width="22" />
						</g>
						<g class="layer" id="layer-L21F2N1">
							<g class="beam" id="beam-L22F2-L25F2">
								<polygon points="8694,451 10345,316 10345,406 8694,541 " />
								<polygon points="8694,586 10345,451 10345,541 8694,676 " />
								<g class="note" id="note-L22F2">
									<use xlink:href="#E0A4" x="8486" y="1440" height="720px" width="720px" />
									<g class="stem">
										<rect x="8694" y="469" height="949" width="18" />
									</g>
									<g class="accid" id="accid-0000001125979029">
										<use xlink:href="#E260" x="8290" y="1440" height="720px" width="720px" />
									</g>
								</g>
								<g class="note" id="note-L23F2">
									<use xlink:href="#E0A4" x="9030" y="1080" height="720px" width="720px" />
									<g class="stem">
										<rect x="9238" y="424" height="634" width="18" />
									</g>
									<g class="accid" id="accid-0000002083596091">
										<use xlink:href="#E260" x="8834" y="1080" height="720px" width="720px" />
									</g>
								</g>
								<g class="note" id="note-L24F2">
									<use xlink:href="#E0A4" x="9575" y="1170" height="720px" width="720px" />
									<g class="stem">
										<rect x="9783" y="379" height="769" width="18" />
									</g>
									<g class="accid" id="accid-0000000416369872">
										<use xlink:href="#E260" x="9379" y="1170" height="720px" width="720px" />
									</g>
								</g>
								<g class="note" id="note-L25F2">
									<use xlink:href="#E0A4" x="10119" y="1260" height="720px" width="720px" />
									<g class="stem">
										<rect x="10327" y="334" height="904" width="18" />
									</g>
									<g class="accid" id="accid-0000000026485444">
										<use xlink:href="#E260" x="9923" y="1260" height="720px" width="720px" />
									</g>
								</g>
							</g>
							<g class="beam" id="beam-L26F2-L29F2">
								<polygon points="10663,496 12104,522 12104,612 10663,586 " />
								<polygon points="10663,631 10821,634 10821,724 10663,721 " />
								<polygon points="11946,655 12104,657 12104,747 11946,745 " />
								<g class="note" id="note-L26F2">
									<use xlink:href="#E0A4" x="10455" y="1170" height="720px" width="720px" />
									<g class="stem">
										<rect x="10663" y="514" height="634" width="18" />
									</g>
									<g class="accid" id="accid-0000000960136738" />
								</g>
								<g class="note" id="note-L27F2">
									<use xlink:href="#E0A4" x="10999" y="1620" height="720px" width="720px" />
									<g class="stem">
										<rect x="11207" y="524" height="1074" width="18" />
									</g>
									<g class="accid" id="accid-0000001785664248">
										<use xlink:href="#E260" x="10803" y="1620" height="720px" width="720px" />
									</g>
								</g>
								<g class="note" id="note-L29F2">
									<use xlink:href="#E0A4" x="11878" y="1260" height="720px" width="720px" />
									<g class="stem">
										<rect x="12086" y="540" height="698" width="18" />
									</g>
									<g class="accid" id="accid-0000001177358477" />
								</g>
							</g>
						</g>
					</g>
					<g class="staff" id="staff-L21F1N1">
						<path d="M8086 2308 L12241 2308" stroke="#000000" stroke-width="13" />
						<path d="M8086 2488 L12241 2488" stroke="#000000" stroke-width="13" />
						<path d="M8086 2668 L12241 2668" stroke="#000000" stroke-width="13" />
						<path d="M8086 2848 L12241 2848" stroke="#000000" stroke-width="13" />
						<path d="M8086 3028 L12241 3028" stroke="#000000" stroke-width="13" />
						<g class="layer" id="layer-L21F1N1">
							<g class="beam" id="beam-L22F1-L25F1">
								<polygon points="8694,2078 10345,2097 10345,2187 8694,2168 " />
								<polygon points="8694,2213 8852,2215 8852,2305 8694,2303 " />
								<polygon points="10187,2231 10345,2232 10345,2322 10187,2321 " />
								<g class="note" id="note-L22F1">
									<use xlink:href="#E0A4" x="8486" y="2848" height="720px" width="720px" />
									<g class="stem">
										<rect x="8694" y="2096" height="730" width="18" />
									</g>
									<g class="accid" id="accid-0000000504849729" />
								</g>
								<g class="note" id="note-L23F1">
									<use xlink:href="#E0A4" x="9030" y="2758" height="720px" width="720px" />
									<g class="stem">
										<rect x="9238" y="2102" height="634" width="18" />
									</g>
									<g class="accid" id="accid-0000001497519569">
										<use xlink:href="#E262" x="8835" y="2758" height="720px" width="720px" />
									</g>
								</g>
								<g class="note" id="note-L25F1">
									<use xlink:href="#E0A4" x="10119" y="2848" height="720px" width="720px" />
									<g class="stem">
										<rect x="10327" y="2115" height="711" width="18" />
									</g>
									<g class="accid" id="accid-0000001733808764" />
								</g>
							</g>
							<g class="beam" id="beam-L26F1-L29F1">
								<polygon points="10663,1885 12104,1792 12104,1882 10663,1975 " />
								<polygon points="10663,2020 12104,1927 12104,2017 10663,2110 " />
								<g class="note" id="note-L26F1">
									<use xlink:href="#E0A4" x="10455" y="2848" height="720px" width="720px" />
									<g class="stem">
										<rect x="10663" y="1903" height="923" width="18" />
									</g>
									<g class="accid" id="accid-0000001603724309" />
								</g>
								<g class="note" id="note-L27F1">
									<use xlink:href="#E0A4" x="10999" y="2668" height="720px" width="720px" />
									<g class="stem">
										<rect x="11207" y="1867" height="779" width="18" />
									</g>
									<g class="accid" id="accid-0000000853168785">
										<use xlink:href="#E262" x="10804" y="2668" height="720px" width="720px" />
									</g>
								</g>
								<g class="note" id="note-L28F1">
									<use xlink:href="#E0A4" x="11542" y="2488" height="720px" width="720px" />
									<g class="stem">
										<rect x="11750" y="1832" height="634" width="18" />
									</g>
									<g class="accid" id="accid-0000001914895167">
										<use xlink:href="#E262" x="11347" y="2488" height="720px" width="720px" />
									</g>
								</g>
								<g class="note" id="note-L29F1">
									<use xlink:href="#E0A4" x="11878" y="2848" height="720px" width="720px" />
									<g class="stem">
										<rect x="12086" y="1810" height="1016" width="18" />
									</g>
									<g class="accid" id="accid-0000001703424705" />
								</g>
							</g>
						</g>
					</g>
					<g class="tie" id="tie-L25F1-L26F1">
						<path d="M10232,2983 C10316,3081 10484,3081 10568,2983 C10484,3125 10316,3125 10232,2983" stroke="#000000" stroke-linecap="round" stroke-linejoin="round" stroke-width="9" />
					</g>
					<g class="tie" id="tie-L29F1-L31F1">
						<path d="M12126,2893 C12249,2991 12495,2991 12619,2893 C12495,3035 12249,3035 12126,2893" stroke="#000000" stroke-linecap="round" stroke-linejoin="round" stroke-width="9" />
					</g>
					<g class="mNum autogenerated" id="mnum-0000000290743476" />
					<g class="barLineAttr" id="bline-0000000381485777">
						<path d="M12228 3028 L12228 720" stroke="#000000" stroke-width="27" />
					</g>
				</g>
				<g class="measure" id="measure-L30">
					<g class="staff" id="staff-L30F2N1">
						<path d="M12241 720 L16267 720" stroke="#000000" stroke-width="13" />
						<path d="M12241 900 L16267 900" stroke="#000000" stroke-width="13" />
						<path d="M12241 1080 L16267 1080" stroke="#000000" stroke-width="13" />
						<path d="M12241 1260 L16267 1260" stroke="#000000" stroke-width="13" />
						<path d="M12241 1440 L16267 1440" stroke="#000000" stroke-width="13" />
						<g class="ledgerLines below">
							<path d="M13697 1620 L13976 1620" stroke="#000000" stroke-width="22" />
						</g>
						<g class="layer" id="layer-L30F2N1">
							<g class="beam" id="beam-L31F2-L34F2">
								<polygon points="12849,569 14499,406 14499,496 12849,659 " />
								<polygon points="12849,704 14499,541 14499,631 12849,794 " />
								<g class="note" id="note-L31F2">
									<use xlink:href="#E0A4" x="12641" y="1440" height="720px" width="720px" />
									<g class="stem">
										<rect x="12849" y="587" height="831" width="18" />
									</g>
									<g class="accid" id="accid-0000001224908050">
										<use xlink:href="#E260" x="12445" y="1440" height="720px" width="720px" />
									</g>
								</g>
								<g class="note" id="note-L32F2">
									<use xlink:href="#E0A4" x="13184" y="1350" height="720px" width="720px" />
									<g class="stem">
										<rect x="13392" y="532" height="796" width="18" />
									</g>
									<g class="accid" id="accid-0000001236432785" />
								</g>
								<g class="note" id="note-L33F2">
									<use xlink:href="#E0A4" x="13728" y="1620" height="720px" width="720px" />
									<g class="stem">
										<rect x="13936" y="478" height="1120" width="18" />
									</g>
									<g class="accid" id="accid-0000001560350914">
										<use xlink:href="#E260" x="13532" y="1620" height="720px" width="720px" />
									</g>
								</g>
								<g class="note" id="note-L34F2">
									<use xlink:href="#E0A4" x="14273" y="1080" height="720px" width="720px" />
									<g class="stem">
										<rect x="14481" y="424" height="634" width="18" />
									</g>
									<g class="accid" id="accid-0000002050262357">
										<use xlink:href="#E260" x="14077" y="1080" height="720px" width="720px" />
									</g>
								</g>
							</g>
							<g class="beam" id="beam-L35F2-L37F2">
								<polygon points="15024,461 16129,352 16129,442 15024,551 " />
								<polygon points="15024,596 15182,581 15182,671 15024,686 " />
								<polygon points="15971,502 16129,487 16129,577 15971,592 " />
								<g class="note" id="note-L35F2">
									<use xlink:href="#E0A4" x="14816" y="1440" height="720px" width="720px" />
									<g class="stem">
										<rect x="15024" y="479" height="939" width="18" />
									</g>
									<g class="accid" id="accid-0000001815339305" />
								</g>
								<g class="note" id="note-L36F2">
									<use xlink:href="#E0A4" x="15359" y="1080" height="720px" width="720px" />
									<g class="stem">
										<rect x="15567" y="424" height="634" width="18" />
									</g>
									<g class="accid" id="accid-0000001952175693" />
								</g>
								<g class="note" id="note-L37F2">
									<use xlink:href="#E0A4" x="15903" y="1170" height="720px" width="720px" />
									<g class="stem">
										<rect x="16111" y="370" height="778" width="18" />
									</g>
									<g class="accid" id="accid-0000001554934373">
										<use xlink:href="#E260" x="15707" y="1170" height="720px" width="720px" />
									</g>
								</g>
							</g>
						</g>
					</g>
					<g class="staff" id="staff-L30F1N1">
						<path d="M12241 2308 L16267 2308" stroke="#000000" stroke-width="13" />
						<path d="M12241 2488 L16267 2488" stroke="#000000" stroke-width="13" />
						<path d="M12241 2668 L16267 2668" stroke="#000000" stroke-width="13" />
						<path d="M12241 2848 L16267 2848" stroke="#000000" stroke-width="13" />
						<path d="M12241 3028 L16267 3028" stroke="#000000" stroke-width="13" />
						<g class="layer" id="layer-L30F1N1">
							<g class="beam" id="beam-L31F1-L34F1">
								<polygon points="12849,2139 14499,1976 14499,2066 12849,2229 " />
								<polygon points="12849,2274 13007,2259 13007,2349 12849,2364 " />
								<polygon points="14341,2125 14499,2111 14499,2201 14341,2215 " />
								<g class="note" id="note-L31F1">
									<use xlink:href="#E0A4" x="12641" y="2848" height="720px" width="720px" />
									<g class="stem">
										<rect x="12849" y="2157" height="669" width="18" />
									</g>
									<g class="accid" id="accid-0000000559276660" />
								</g>
								<g class="note" id="note-L32F1">
									<use xlink:href="#E0A4" x="13184" y="2758" height="720px" width="720px" />
									<g class="stem">
										<rect x="13392" y="2102" height="634" width="18" />
									</g>
									<g class="accid" id="accid-0000001753415282">
										<use xlink:href="#E262" x="12989" y="2758" height="720px" width="720px" />
									</g>
								</g>
								<g class="note" id="note-L34F1">
									<use xlink:href="#E0A4" x="14273" y="2668" height="720px" width="720px" />
									<g class="stem">
										<rect x="14481" y="1994" height="652" width="18" />
									</g>
									<g class="accid" id="accid-0000001912776769">
										<use xlink:href="#E262" x="14078" y="2668" height="720px" width="720px" />
									</g>
								</g>
							</g>
							<g class="beam" id="beam-L35F1-L37F1">
								<polygon points="14816,3234 15921,3343 15921,3253 14816,3144 " />
								<polygon points="14816,3099 14974,3114 14974,3024 14816,3009 " />
								<polygon points="15763,3193 15921,3208 15921,3118 15763,3103 " />
								<g class="note" id="note-L35F1">
									<use xlink:href="#E0A4" x="14816" y="2488" height="720px" width="720px" />
									<g class="stem">
										<rect x="14816" y="2510" height="706" width="18" />
									</g>
									<g class="accid" id="accid-0000001776870155">
										<use xlink:href="#E262" x="14621" y="2488" height="720px" width="720px" />
									</g>
								</g>
								<g class="note" id="note-L36F1">
									<use xlink:href="#E0A4" x="15359" y="2578" height="720px" width="720px" />
									<g class="stem">
										<rect x="15359" y="2600" height="671" width="18" />
									</g>
									<g class="accid" id="accid-0000000013539805">
										<use xlink:href="#E262" x="15164" y="2578" height="720px" width="720px" />
									</g>
								</g>
								<g class="note" id="note-L37F1">
									<use xlink:href="#E0A4" x="15903" y="2668" height="720px" width="720px" />
									<g class="stem">
										<rect x="15903" y="2690" height="635" width="18" />
									</g>
									<g class="accid" id="accid-0000000003414033" />
								</g>
							</g>
						</g>
					</g>
					<g class="mNum autogenerated" id="mnum-0000001610818333" />
					<g class="barLineAttr" id="bline-0000000461818489">
						<path d="M16254 3028 L16254 720" stroke="#000000" stroke-width="27" />
					</g>
				</g>
				<g class="measure" id="measure-L38">
					<g class="staff" id="staff-L38F2N1">
						<path d="M16267 720 L20003 720" stroke="#000000" stroke-width="13" />
						<path d="M16267 900 L20003 900" stroke="#000000" stroke-width="13" />
						<path d="M16267 1080 L20003 1080" stroke="#000000" stroke-width="13" />
						<path d="M16267 1260 L20003 1260" stroke="#000000" stroke-width="13" />
						<path d="M16267 1440 L20003 1440" stroke="#000000" stroke-width="13" />
						<g class="layer" id="layer-L38F2N1">
							<g class="beam" id="beam-L39F2-L42F2">
								<polygon points="16667,551 18314,388 18314,478 16667,641 " />
								<polygon points="16667,686 18314,523 18314,613 16667,776 " />
								<g class="note" id="note-L39F2">
									<use xlink:href="#E0A4" x="16459" y="1530" height="720px" width="720px" />
									<g class="stem">
										<rect x="16667" y="569" height="939" width="18" />
									</g>
									<g class="accid" id="accid-0000000700552976" />
								</g>
								<g class="note" id="note-L40F2">
									<use xlink:href="#E0A4" x="17002" y="1170" height="720px" width="720px" />
									<g class="stem">
										<rect x="17210" y="514" height="634" width="18" />
									</g>
									<g class="accid" id="accid-0000002018962388" />
								</g>
								<g class="note" id="note-L41F2">
									<use xlink:href="#E0A4" x="17545" y="1350" height="720px" width="720px" />
									<g class="stem">
										<rect x="17753" y="460" height="868" width="18" />
									</g>
									<g class="accid" id="accid-0000001850626250">
										<use xlink:href="#E262" x="17350" y="1350" height="720px" width="720px" />
									</g>
								</g>
								<g class="note" id="note-L42F2">
									<use xlink:href="#E0A4" x="18088" y="1260" height="720px" width="720px" />
									<g class="stem">
										<rect x="18296" y="406" height="832" width="18" />
									</g>
									<g class="accid" id="accid-0000001298545149">
										<use xlink:href="#E262" x="17893" y="1260" height="720px" width="720px" />
									</g>
								</g>
							</g>
							<g class="beam" id="beam-L43F2-L46F2">
								<polygon points="18632,412 19865,390 19865,480 18632,502 " />
								<polygon points="18632,547 18790,544 18790,634 18632,637 " />
								<polygon points="19707,528 19865,525 19865,615 19707,618 " />
								<g class="note" id="note-L43F2">
									<use xlink:href="#E0A4" x="18424" y="1350" height="720px" width="720px" />
									<g class="stem">
										<rect x="18632" y="430" height="898" width="18" />
									</g>
									<g class="accid" id="accid-0000001492377502" />
								</g>
								<g class="note" id="note-L44F2">
									<use xlink:href="#E0A4" x="18760" y="1080" height="720px" width="720px" />
									<g class="stem">
										<rect x="18968" y="424" height="634" width="18" />
									</g>
									<g class="accid" id="accid-0000001476832353" />
								</g>
								<g class="note" id="note-L46F2">
									<use xlink:href="#E0A4" x="19639" y="1260" height="720px" width="720px" />
									<g class="stem">
										<rect x="19847" y="408" height="830" width="18" />
									</g>
									<g class="accid" id="accid-0000000369126030" />
								</g>
							</g>
						</g>
					</g>
					<g class="staff" id="staff-L38F1N1">
						<path d="M16267 2308 L20003 2308" stroke="#000000" stroke-width="13" />
						<path d="M16267 2488 L20003 2488" stroke="#000000" stroke-width="13" />
						<path d="M16267 2668 L20003 2668" stroke="#000000" stroke-width="13" />
						<path d="M16267 2848 L20003 2848" stroke="#000000" stroke-width="13" />
						<path d="M16267 3028 L20003 3028" stroke="#000000" stroke-width="13" />
						<g class="layer" id="layer-L38F1N1">
							<g class="beam" id="beam-L39F1-L42F1">
								<polygon points="16667,2078 18314,2097 18314,2187 16667,2168 " />
								<polygon points="16667,2213 16825,2215 16825,2305 16667,2303 " />
								<polygon points="18156,2231 18314,2232 18314,2322 18156,2321 " />
								<g class="note" id="note-L39F1">
									<use xlink:href="#E0A4" x="16459" y="2848" height="720px" width="720px" />
									<g class="stem">
										<rect x="16667" y="2096" height="730" width="18" />
									</g>
									<g class="accid" id="accid-0000000558391915" />
								</g>
								<g class="note" id="note-L40F1">
									<use xlink:href="#E0A4" x="17002" y="2758" height="720px" width="720px" />
									<g class="stem">
										<rect x="17210" y="2102" height="634" width="18" />
									</g>
									<g class="accid" id="accid-0000000893625696">
										<use xlink:href="#E262" x="16807" y="2758" height="720px" width="720px" />
									</g>
								</g>
								<g class="note" id="note-L42F1">
									<use xlink:href="#E0A4" x="18088" y="2848" height="720px" width="720px" />
									<g class="stem">
										<rect x="18296" y="2115" height="711" width="18" />
									</g>
									<g class="accid" id="accid-0000001030228395" />
								</g>
							</g>
							<g class="beam" id="beam-L43F1-L46F1">
								<polygon points="18632,1863 19865,1795 19865,1885 18632,1953 " />
								<polygon points="18632,1998 19865,1930 19865,2020 18632,2088 " />
								<g class="note" id="note-L43F1">
									<use xlink:href="#E0A4" x="18424" y="2848" height="720px" width="720px" />
									<g class="stem">
										<rect x="18632" y="1881" height="945" width="18" />
									</g>
									<g class="accid" id="accid-0000000726809309" />
								</g>
								<g class="note" id="note-L44F1">
									<use xlink:href="#E0A4" x="18760" y="2668" height="720px" width="720px" />
									<g class="stem">
										<rect x="18968" y="1862" height="784" width="18" />
									</g>
									<g class="accid" id="accid-0000001949320405" />
								</g>
								<g class="note" id="note-L45F1">
									<use xlink:href="#E0A4" x="19303" y="2488" height="720px" width="720px" />
									<g class="stem">
										<rect x="19511" y="1832" height="634" width="18" />
									</g>
									<g class="accid" id="accid-0000000979340627">
										<use xlink:href="#E262" x="19108" y="2488" height="720px" width="720px" />
									</g>
								</g>
								<g class="note" id="note-L46F1">
									<use xlink:href="#E0A4" x="19639" y="2848" height="720px" width="720px" />
									<g class="stem">
										<rect x="19847" y="1813" height="1013" width="18" />
									</g>
									<g class="accid" id="accid-0000001963490670" />
								</g>
							</g>
						</g>
					</g>
					<g class="tie" id="tie-L42F1-L43F1">
						<path d="M18201,2983 C18285,3081 18453,3081 18537,2983 C18453,3125 18285,3125 18201,2983" stroke="#000000" stroke-linecap="round" stroke-linejoin="round" stroke-width="9" />
					</g>
					<g class="tie" id="tie-L46F1-L48F1">
						<path d="M19752,2983 C19811,3081 19929,3081 19990,2983 C19929,3125 19811,3125 19752,2983" stroke="#000000" stroke-linecap="round" stroke-linejoin="round" stroke-width="9" />
					</g>
					<g class="mNum autogenerated" id="mnum-0000001338488357" />
					<g class="barLineAttr" id="bline-0000000743689879">
						<path d="M19990 3028 L19990 720" stroke="#000000" stroke-width="27" />
					</g>
				</g>
			</g>
		</g>
	</svg>
</svg>
