<?xml version="1.0" encoding="UTF-8" standalone="no"?>
<svg width="2100.00px" height="450.00px" version="1.1" xmlns="http://www.w3.org/2000/svg" xmlns:xlink="http://www.w3.org/1999/xlink" overflow="visible">
	<desc>Engraved by Verovio 2.0.0-dev-0f0381c</desc>
	<defs>
		<symbol id="E050" viewBox="0 0 1000 1000" overflow="inherit">
			<path transform="scale(1,-1)" d="M441 -245c-23 -4 -48 -6 -76 -6c-59 0 -102 7 -130 20c-88 42 -150 93 -187 154c-26 44 -43 103 -48 176c-4 60 11 123 44 189c29 57 65 106 110 148s96 85 153 127c-3 16 -8 46 -13 92c-4 43 -5 73 -5 89c0 117 16 172 69 257c34 54 64 82 89 82c21 0 43 -30 69 -92 s39 -115 41 -159c2 -120 -19 -173 -67 -256c-13 -20 -63 -90 -98 -118c-13 -9 -25 -19 -37 -29l31 -181c8 1 18 2 28 2c58 0 102 -12 133 -35c59 -43 92 -104 98 -184c11 -135 -80 -229 -180 -270c8 -57 17 -110 25 -162c5 -31 6 -58 6 -80c0 -30 -5 -53 -14 -70 c-35 -64 -88 -99 -158 -103c-42 -3 -83 6 -124 26c-50 24 -77 59 -80 105c-2 34 5 63 20 87c18 28 45 42 79 44c51 4 99 -40 103 -87c4 -56 -30 -94 -105 -115c17 -24 51 -36 102 -36c62 0 116 43 140 85c9 16 13 41 13 74c0 20 -1 42 -5 67c-8 53 -18 106 -26 159zM461 939 c-95 0 -135 -175 -135 -286c0 -24 2 -48 5 -71c50 39 92 82 127 128c43 57 63 106 60 148c-4 54 -23 82 -57 81zM406 119l54 -326c80 27 116 88 109 184c-7 99 -62 146 -163 142zM382 117c-74 -2 -132 -50 -128 -127c2 -46 43 -99 75 -115c-3 -2 -7 -5 -10 -10 c-70 33 -116 88 -123 172c-5 73 42 135 88 170c23 17 49 29 78 36l-29 170c-21 -13 -52 -37 -92 -73c-50 -44 -86 -84 -109 -119c-49 -75 -71 -140 -67 -195c5 -68 35 -127 93 -176s125 -73 203 -73c25 0 50 3 75 9c-19 111 -36 221 -54 331z" />
		</symbol>
		<symbol id="E082" viewBox="0 0 1000 1000" overflow="inherit">
			<path transform="scale(1,-1)" d="M104 -185c-18 0 -55 -14 -65 -65h-36l-3 29c0 25 6 46 18 64c11 19 22 30 39 43l121 82l37 29c15 11 27 29 38 54c12 24 18 47 18 70c0 40 -19 88 -94 88c-25 0 -32 0 -50 -8c-14 -5 -23 -12 -26 -22c3 -9 7 -15 10 -18l24 -17c12 -7 17 -11 27 -21c5 -7 7 -16 7 -27 c0 -12 0 -57 -79 -74c-30 0 -76 26 -76 94c0 66 80 135 196 135c72 0 182 -32 182 -150c0 -53 -32 -95 -113 -133l-91 -41c-26 -11 -45 -23 -57 -37l49 7c84 0 115 -41 148 -41c20 0 33 20 39 61h35c0 -152 -68 -168 -114 -168c-17 0 -55 0 -69 7v0l-28 17 c-49 37 -69 40 -87 42z" />
		</symbol>
		<symbol id="E084" viewBox="0 0 1000 1000" overflow="inherit">
			<path transform="scale(1,-1)" d="M0 -78c84 97 114 180 134 329h170c-13 -32 -82 -132 -99 -151l-84 -97c-33 -36 -59 -63 -80 -81h162v102l127 123v-225h57v-39h-57v-34c0 -43 19 -65 57 -65v-34h-244v36c48 0 60 26 60 70v27h-203v39z" />
		</symbol>
		<symbol id="E0A4" viewBox="0 0 1000 1000" overflow="inherit">
			<path transform="scale(1,-1)" d="M0 -39c0 68 73 172 200 172c66 0 114 -37 114 -95c0 -84 -106 -171 -218 -171c-64 0 -96 30 -96 94z" />
		</symbol>
		<symbol id="E062" viewBox="0 0 1000 1000" overflow="inherit">
			<path transform="scale(1,-1)" d="M158 96c51 0 73 -14 88 -49l16 -39c0 -17 -2 -30 -7 -40c-3 -11 -10 -21 -19 -31c-17 -18 -49 -43 -84 -43c-55 0 -77 13 -112 44c-24 21 -35 55 -35 100c0 46 14 81 32 112c30 52 71 79 137 93l36 6l26 2c154 0 235 -68 274 -182c11 -32 18 -68 18 -107 c0 -103 -26 -182 -68 -250c-89 -145 -234 -230 -412 -288l-30 -5c-9 0 -14 3 -14 8c3 10 5 11 10 16c35 15 70 30 96 44l78 43c96 57 162 136 197 258c9 33 17 60 22 100c3 22 5 35 6 39c-7 69 -16 115 -23 140s-4 22 -16 40c-8 12 -19 23 -31 34c-24 21 -62 44 -118 44 c-48 0 -84 -8 -113 -28c-28 -19 -42 -44 -42 -73v-16c2 -5 3 -9 4 -11c24 22 52 39 84 39zM585 -118c0 32 23 58 57 58c18 0 33 -6 40 -18c9 -15 16 -18 16 -40c0 -9 -2 -16 -5 -21c-6 -19 -27 -37 -51 -37c-34 0 -57 26 -57 58zM642 177c31 0 56 -27 56 -58 c0 -30 -25 -58 -56 -58l-23 3c-19 7 -34 32 -34 55l3 23c9 20 28 35 54 35z" />
		</symbol>
		<symbol id="E260" viewBox="0 0 1000 1000" overflow="inherit">
			<path transform="scale(1,-1)" d="M20 110c32 16 54 27 93 27c26 0 35 -3 54 -13c13 -7 24 -20 27 -38l4 -25c0 -28 -16 -57 -45 -89c-23 -25 -39 -44 -65 -68l-88 -79v644h20v-359zM90 106c-32 0 -48 -10 -70 -29v-194c31 31 54 59 71 84c21 32 32 59 32 84c0 9 1 16 1 20c0 14 -3 21 -11 30l-8 3z" />
		</symbol>
		<symbol id="E262" viewBox="0 0 1000 1000" overflow="inherit">
			<path transform="scale(1,-1)" d="M136 186v169h17v-164l44 14v-91l-44 -14v-165l44 12v-91l-44 -13v-155h-17v150l-76 -22v-155h-17v149l-43 -13v90l43 14v167l-43 -14v92l43 13v169h17v-163zM60 73v-167l76 22v168z" />
		</symbol>
	</defs>
	<style type="text/css">g.page-margin{font-family:Times;} g.tempo{font-weight:bold;} g.dir, g.dynam, g.mNum{font-style:italic;} g.label{font-weight:normal;}</style>
	<svg class="definition-scale" viewBox="0 0 21000 4500">
		<g class="page-margin" transform="translate(500, 500)">
			<g class="system" id="system-0000001519238803">
				<path d="M13 720 L13 2880" stroke="#000000" stroke-width="27" />
				<path d="M-32,2862 C-392,2322 58,1980 -212,1800 C121,1980 -329,2322 -32,2862" stroke="#000000" stroke-linecap="round" stroke-linejoin="round" stroke-width="18" />
				<path d="M-32,738 C-329,1278 121,1620 -212,1800 C58,1620 -392,1278 -32,738" stroke="#000000" stroke-linecap="round" stroke-linejoin="round" stroke-width="18" />
				<g class="section boundaryStart" id="section-L1F1" />
				<g class="measure" id="measure-L4">
					<g class="staff" id="staff-L4F2N1">
						<path d="M0 720 L4329 720" stroke="#000000" stroke-width="13" />
						<path d="M0 900 L4329 900" stroke="#000000" stroke-width="13" />
						<path d="M0 1080 L4329 1080" stroke="#000000" stroke-width="13" />
						<path d="M0 1260 L4329 1260" stroke="#000000" stroke-width="13" />
						<path d="M0 1440 L4329 1440" stroke="#000000" stroke-width="13" />
						<g class="clef" id="clef-0000001421664013">
							<use xlink:href="#E050" x="90" y="1260" height="720px" width="720px" />
						</g>
						<g class="meterSig" id="msig-0000001004009969">
							<use xlink:href="#E082" x="771" y="900" height="720px" width="720px" />
							<use xlink:href="#E084" x="777" y="1260" height="720px" width="720px" />
						</g>
						<g class="layer" id="layer-L4F2N1">
							<g class="beam" id="beam-L5F2-L8F2">
								<polygon points="1568,746 2688,766 2688,856 1568,836 " />
								<polygon points="2312,894 2688,901 2688,991 2312,984 " />
								<g class="note" id="note-L5F2">
									<use xlink:href="#E0A4" x="1360" y="1440" height="720px" width="720px" />
									<g class="stem">
										<rect x="1568" y="764" height="654" width="18" />
									</g>
									<g class="accid" id="accid-0000000574296101" />
								</g>
								<g class="note" id="note-L7F2">
									<use xlink:href="#E0A4" x="2095" y="1530" height="720px" width="720px" />
									<g class="stem">
										<rect x="2303" y="777" height="731" width="18" />
									</g>
									<g class="accid" id="accid-0000001857110363" />
								</g>
								<g class="note" id="note-L8F2">
									<use xlink:href="#E0A4" x="2462" y="1440" height="720px" width="720px" />
									<g class="stem">
										<rect x="2670" y="784" height="634" width="18" />
									</g>
									<g class="accid" id="accid-0000001045336104" />
								</g>
							</g>
							<g class="beam" id="beam-L9F2-L11F2">
								<polygon points="2830,1845 3582,1771 3582,1681 2830,1755 " />
								<polygon points="2830,1710 3206,1673 3206,1583 2830,1620 " />
								<g class="note" id="note-L9F2">
									<use xlink:href="#E0A4" x="2830" y="1170" height="720px" width="720px" />
									<g class="stem">
										<rect x="2830" y="1192" height="635" width="18" />
									</g>
									<g class="accid" id="accid-0000001428121211" />
								</g>
								<g class="note" id="note-L10F2">
									<use xlink:href="#E0A4" x="3197" y="1080" height="720px" width="720px" />
									<g class="stem">
										<rect x="3197" y="1102" height="688" width="18" />
									</g>
									<g class="accid" id="accid-0000000634109004" />
								</g>
								<g class="note" id="note-L11F2">
									<use xlink:href="#E0A4" x="3564" y="990" height="720px" width="720px" />
									<g class="stem">
										<rect x="3564" y="1012" height="741" width="18" />
									</g>
									<g class="accid" id="accid-0000001777743131" />
								</g>
							</g>
						</g>
					</g>
					<g class="staff" id="staff-L4F1N1">
						<path d="M0 2160 L4329 2160" stroke="#000000" stroke-width="13" />
						<path d="M0 2340 L4329 2340" stroke="#000000" stroke-width="13" />
						<path d="M0 2520 L4329 2520" stroke="#000000" stroke-width="13" />
						<path d="M0 2700 L4329 2700" stroke="#000000" stroke-width="13" />
						<path d="M0 2880 L4329 2880" stroke="#000000" stroke-width="13" />
						<g class="clef" id="clef-0000001616534504">
							<use xlink:href="#E062" x="90" y="2340" height="720px" width="720px" />
						</g>
						<g class="meterSig" id="msig-0000001279790531">
							<use xlink:href="#E082" x="771" y="2340" height="720px" width="720px" />
							<use xlink:href="#E084" x="777" y="2700" height="720px" width="720px" />
						</g>
						<g class="layer" id="layer-L4F1N1">
							<g class="beam" id="beam-L5F1-L8F1">
								<polygon points="1360,3285 2480,3174 2480,3084 1360,3195 " />
								<polygon points="1360,3150 2480,3039 2480,2949 1360,3060 " />
								<g class="note" id="note-L5F1">
									<use xlink:href="#E0A4" x="1360" y="2610" height="720px" width="720px" />
									<g class="stem">
										<rect x="1360" y="2632" height="635" width="18" />
									</g>
									<g class="accid" id="accid-0000001570519318" />
								</g>
								<g class="note" id="note-L6F1">
									<use xlink:href="#E0A4" x="1727" y="2520" height="720px" width="720px" />
									<g class="stem">
										<rect x="1727" y="2542" height="688" width="18" />
									</g>
									<g class="accid" id="accid-0000000699723043" />
								</g>
								<g class="note" id="note-L7F1">
									<use xlink:href="#E0A4" x="2095" y="2340" height="720px" width="720px" />
									<g class="stem">
										<rect x="2095" y="2362" height="831" width="18" />
									</g>
									<g class="accid" id="accid-0000000835426120" />
								</g>
								<g class="note" id="note-L8F1">
									<use xlink:href="#E0A4" x="2462" y="2250" height="720px" width="720px" />
									<g class="stem">
										<rect x="2462" y="2272" height="884" width="18" />
									</g>
									<g class="accid" id="accid-0000002108458239" />
								</g>
							</g>
							<g class="beam" id="beam-L9F1-L12F1">
								<polygon points="2830,3080 3950,3118 3950,3028 2830,2990 " />
								<polygon points="3573,2970 3950,2983 3950,2893 3573,2880 " />
								<g class="note" id="note-L9F1">
									<use xlink:href="#E0A4" x="2830" y="2250" height="720px" width="720px" />
									<g class="stem">
										<rect x="2830" y="2272" height="790" width="18" />
									</g>
									<g class="accid" id="accid-0000000030853698" />
								</g>
								<g class="note" id="note-L11F1">
									<use xlink:href="#E0A4" x="3564" y="2430" height="720px" width="720px" />
									<g class="stem">
										<rect x="3564" y="2452" height="635" width="18" />
									</g>
									<g class="accid" id="accid-0000000410077533" />
								</g>
								<g class="note" id="note-L12F1">
									<use xlink:href="#E0A4" x="3932" y="2250" height="720px" width="720px" />
									<g class="stem">
										<rect x="3932" y="2272" height="828" width="18" />
									</g>
									<g class="accid" id="accid-0000001413100640" />
								</g>
							</g>
						</g>
					</g>
					<g class="tie" id="tie-L8F1-L9F1">
						<path d="M2575,2115 C2667,1973 2851,1973 2943,2115 C2851,2017 2667,2017 2575,2115" stroke="#000000" stroke-linecap="round" stroke-linejoin="round" stroke-width="9" />
					</g>
					<g class="mNum autogenerated" id="mnum-0000000321236757" />
					<g class="barLineAttr" id="bline-0000001116421986">
						<path d="M4316 2880 L4316 720" stroke="#000000" stroke-width="27" />
					</g>
				</g>
				<g class="measure" id="measure-L13">
					<g class="staff" id="staff-L13F2N1">
						<path d="M4329 720 L7508 720" stroke="#000000" stroke-width="13" />
						<path d="M4329 900 L7508 900" stroke="#000000" stroke-width="13" />
						<path d="M4329 1080 L7508 1080" stroke="#000000" stroke-width="13" />
						<path d="M4329 1260 L7508 1260" stroke="#000000" stroke-width="13" />
						<path d="M4329 1440 L7508 1440" stroke="#000000" stroke-width="13" />
						<g class="ledgerLines below">
							<path d="M5978 1620 L6257 1620" stroke="#000000" stroke-width="22" />
							<path d="M7080 1620 L7359 1620" stroke="#000000" stroke-width="22" />
						</g>
						<g class="layer" id="layer-L13F2N1">
							<g class="beam" id="beam-L14F2-L17F2">
								<polygon points="4747,658 5867,766 5867,856 4747,748 " />
								<polygon points="4747,793 5867,901 5867,991 4747,883 " />
								<g class="note" id="note-L14F2">
									<use xlink:href="#E0A4" x="4539" y="1350" height="720px" width="720px" />
									<g class="stem">
										<rect x="4747" y="676" height="652" width="18" />
									</g>
									<g class="accid" id="accid-0000001496506190" />
								</g>
								<g class="note" id="note-L15F2">
									<use xlink:href="#E0A4" x="4906" y="1440" height="720px" width="720px" />
									<g class="stem">
										<rect x="5114" y="712" height="706" width="18" />
									</g>
									<g class="accid" id="accid-0000000376146552" />
								</g>
								<g class="note" id="note-L16F2">
									<use xlink:href="#E0A4" x="5274" y="1530" height="720px" width="720px" />
									<g class="stem">
										<rect x="5482" y="748" height="760" width="18" />
									</g>
									<g class="accid" id="accid-0000001004503653" />
								</g>
								<g class="note" id="note-L17F2">
									<use xlink:href="#E0A4" x="5641" y="1440" height="720px" width="720px" />
									<g class="stem">
										<rect x="5849" y="784" height="634" width="18" />
									</g>
									<g class="accid" id="accid-0000001497548961" />
								</g>
							</g>
							<g class="beam" id="beam-L18F2-L21F2">
								<polygon points="6217,869 7337,849 7337,939 6217,959 " />
								<polygon points="6960,991 7337,984 7337,1074 6960,1081 " />
								<g class="note" id="note-L18F2">
									<use xlink:href="#E0A4" x="6009" y="1620" height="720px" width="720px" />
									<g class="stem">
										<rect x="6217" y="887" height="711" width="18" />
									</g>
									<g class="accid" id="accid-0000000384919798" />
								</g>
								<g class="note" id="note-L20F2">
									<use xlink:href="#E0A4" x="6743" y="1530" height="720px" width="720px" />
									<g class="stem">
										<rect x="6951" y="874" height="634" width="18" />
									</g>
									<g class="accid" id="accid-0000001806966496" />
								</g>
								<g class="note" id="note-L21F2">
									<use xlink:href="#E0A4" x="7111" y="1620" height="720px" width="720px" />
									<g class="stem">
										<rect x="7319" y="867" height="731" width="18" />
									</g>
									<g class="accid" id="accid-0000000284858232" />
								</g>
							</g>
						</g>
					</g>
					<g class="staff" id="staff-L13F1N1">
						<path d="M4329 2160 L7508 2160" stroke="#000000" stroke-width="13" />
						<path d="M4329 2340 L7508 2340" stroke="#000000" stroke-width="13" />
						<path d="M4329 2520 L7508 2520" stroke="#000000" stroke-width="13" />
						<path d="M4329 2700 L7508 2700" stroke="#000000" stroke-width="13" />
						<path d="M4329 2880 L7508 2880" stroke="#000000" stroke-width="13" />
						<g class="layer" id="layer-L13F1N1">
							<g class="beam" id="beam-L14F1-L15F1">
								<polygon points="4539,2888 4924,2925 4924,2835 4539,2798 " />
								<polygon points="4539,2753 4697,2768 4697,2678 4539,2663 " />
								<g class="note" id="note-L14F1">
									<use xlink:href="#E0A4" x="4539" y="2160" height="720px" width="720px" />
									<g class="stem">
										<rect x="4539" y="2182" height="688" width="18" />
									</g>
									<g class="accid" id="accid-0000000680225709" />
								</g>
								<g class="note" id="note-L15F1">
									<use xlink:href="#E0A4" x="4906" y="2250" height="720px" width="720px" />
									<g class="dots" id="dots-0000001838637501">
										<ellipse cx="5222" cy="2250" rx="36" ry="36" />
									</g>
									<g class="stem">
										<rect x="4906" y="2272" height="635" width="18" />
									</g>
									<g class="accid" id="accid-0000000429447446" />
								</g>
							</g>
							<g class="beam" id="beam-L18F1-L21F1">
								<polygon points="6009,3123 7129,3069 7129,2979 6009,3033 " />
								<polygon points="6009,2988 7129,2934 7129,2844 6009,2898 " />
								<g class="note" id="note-L18F1">
									<use xlink:href="#E0A4" x="6009" y="2340" height="720px" width="720px" />
									<g class="stem">
										<rect x="6009" y="2362" height="743" width="18" />
									</g>
									<g class="accid" id="accid-0000001719413133" />
								</g>
								<g class="note" id="note-L19F1">
									<use xlink:href="#E0A4" x="6376" y="2430" height="720px" width="720px" />
									<g class="stem">
										<rect x="6376" y="2452" height="635" width="18" />
									</g>
									<g class="accid" id="accid-0000000900078517" />
								</g>
								<g class="note" id="note-L20F1">
									<use xlink:href="#E0A4" x="6743" y="2250" height="720px" width="720px" />
									<g class="stem">
										<rect x="6743" y="2272" height="797" width="18" />
									</g>
									<g class="accid" id="accid-0000000604218694" />
								</g>
								<g class="note" id="note-L21F1">
									<use xlink:href="#E0A4" x="7111" y="2340" height="720px" width="720px" />
									<g class="stem">
										<rect x="7111" y="2362" height="689" width="18" />
									</g>
									<g class="accid" id="accid-0000001210134076" />
								</g>
							</g>
						</g>
					</g>
					<g class="mNum autogenerated" id="mnum-0000001043814009" />
					<g class="barLineAttr" id="bline-0000000982338297">
						<path d="M7495 2880 L7495 720" stroke="#000000" stroke-width="27" />
					</g>
				</g>
				<g class="measure" id="measure-L22">
					<g class="staff" id="staff-L22F2N1">
						<path d="M7508 720 L11370 720" stroke="#000000" stroke-width="13" />
						<path d="M7508 900 L11370 900" stroke="#000000" stroke-width="13" />
						<path d="M7508 1080 L11370 1080" stroke="#000000" stroke-width="13" />
						<path d="M7508 1260 L11370 1260" stroke="#000000" stroke-width="13" />
						<path d="M7508 1440 L11370 1440" stroke="#000000" stroke-width="13" />
						<g class="layer" id="layer-L22F2N1">
							<g class="beam" id="beam-L23F2-L26F2">
								<polygon points="8154,746 9274,766 9274,856 8154,836 " />
								<polygon points="8898,894 9274,901 9274,991 8898,984 " />
								<g class="note" id="note-L23F2">
									<use xlink:href="#E0A4" x="7946" y="1440" height="720px" width="720px" />
									<g class="stem">
										<rect x="8154" y="764" height="654" width="18" />
									</g>
									<g class="accid" id="accid-0000000061245009">
										<use xlink:href="#E260" x="7750" y="1440" height="720px" width="720px" />
									</g>
								</g>
								<g class="note" id="note-L25F2">
									<use xlink:href="#E0A4" x="8681" y="1530" height="720px" width="720px" />
									<g class="stem">
										<rect x="8889" y="777" height="731" width="18" />
									</g>
									<g class="accid" id="accid-0000000040089890" />
								</g>
								<g class="note" id="note-L26F2">
									<use xlink:href="#E0A4" x="9048" y="1440" height="720px" width="720px" />
									<g class="stem">
										<rect x="9256" y="784" height="634" width="18" />
									</g>
									<g class="accid" id="accid-0000000982479865" />
								</g>
							</g>
							<g class="beam" id="beam-L27F2-L29F2">
								<polygon points="9643,1845 10624,1748 10624,1658 9643,1755 " />
								<polygon points="9643,1710 10248,1650 10248,1560 9643,1620 " />
								<g class="note" id="note-L27F2">
									<use xlink:href="#E0A4" x="9643" y="1170" height="720px" width="720px" />
									<g class="stem">
										<rect x="9643" y="1192" height="635" width="18" />
									</g>
									<g class="accid" id="accid-0000002026060087">
										<use xlink:href="#E260" x="9447" y="1170" height="720px" width="720px" />
									</g>
								</g>
								<g class="note" id="note-L28F2">
									<use xlink:href="#E0A4" x="10239" y="1080" height="720px" width="720px" />
									<g class="stem">
										<rect x="10239" y="1102" height="665" width="18" />
									</g>
									<g class="accid" id="accid-0000001050400749">
										<use xlink:href="#E260" x="10043" y="1080" height="720px" width="720px" />
									</g>
								</g>
								<g class="note" id="note-L29F2">
									<use xlink:href="#E0A4" x="10606" y="990" height="720px" width="720px" />
									<g class="stem">
										<rect x="10606" y="1012" height="718" width="18" />
									</g>
									<g class="accid" id="accid-0000000402406524" />
								</g>
							</g>
						</g>
					</g>
					<g class="staff" id="staff-L22F1N1">
						<path d="M7508 2160 L11370 2160" stroke="#000000" stroke-width="13" />
						<path d="M7508 2340 L11370 2340" stroke="#000000" stroke-width="13" />
						<path d="M7508 2520 L11370 2520" stroke="#000000" stroke-width="13" />
						<path d="M7508 2700 L11370 2700" stroke="#000000" stroke-width="13" />
						<path d="M7508 2880 L11370 2880" stroke="#000000" stroke-width="13" />
						<g class="layer" id="layer-L22F1N1">
							<g class="beam" id="beam-L23F1-L26F1">
								<polygon points="7946,3285 9066,3174 9066,3084 7946,3195 " />
								<polygon points="7946,3150 9066,3039 9066,2949 7946,3060 " />
								<g class="note" id="note-L23F1">
									<use xlink:href="#E0A4" x="7946" y="2610" height="720px" width="720px" />
									<g class="stem">
										<rect x="7946" y="2632" height="635" width="18" />
									</g>
									<g class="accid" id="accid-0000000232172556" />
								</g>
								<g class="note" id="note-L24F1">
									<use xlink:href="#E0A4" x="8313" y="2520" height="720px" width="720px" />
									<g class="stem">
										<rect x="8313" y="2542" height="688" width="18" />
									</g>
									<g class="accid" id="accid-0000001038921236" />
								</g>
								<g class="note" id="note-L25F1">
									<use xlink:href="#E0A4" x="8681" y="2340" height="720px" width="720px" />
									<g class="stem">
										<rect x="8681" y="2362" height="831" width="18" />
									</g>
									<g class="accid" id="accid-0000000941466317" />
								</g>
								<g class="note" id="note-L26F1">
									<use xlink:href="#E0A4" x="9048" y="2250" height="720px" width="720px" />
									<g class="stem">
										<rect x="9048" y="2272" height="884" width="18" />
									</g>
									<g class="accid" id="accid-0000002038977721" />
								</g>
							</g>
							<g class="beam" id="beam-L27F1-L30F1">
								<polygon points="9643,3069 10992,3119 10992,3029 9643,2979 " />
								<polygon points="10615,2970 10992,2984 10992,2894 10615,2880 " />
								<g class="note" id="note-L27F1">
									<use xlink:href="#E0A4" x="9643" y="2250" height="720px" width="720px" />
									<g class="stem">
										<rect x="9643" y="2272" height="779" width="18" />
									</g>
									<g class="accid" id="accid-0000001771028834" />
								</g>
								<g class="note" id="note-L29F1">
									<use xlink:href="#E0A4" x="10606" y="2430" height="720px" width="720px" />
									<g class="stem">
										<rect x="10606" y="2452" height="635" width="18" />
									</g>
									<g class="accid" id="accid-0000001207166561">
										<use xlink:href="#E260" x="10410" y="2430" height="720px" width="720px" />
									</g>
								</g>
								<g class="note" id="note-L30F1">
									<use xlink:href="#E0A4" x="10974" y="2250" height="720px" width="720px" />
									<g class="stem">
										<rect x="10974" y="2272" height="829" width="18" />
									</g>
									<g class="accid" id="accid-0000000760923396" />
								</g>
							</g>
						</g>
					</g>
					<g class="tie" id="tie-L26F1-L27F1">
						<path d="M9296,2205 C9377,2063 9539,2063 9621,2205 C9539,2107 9377,2107 9296,2205" stroke="#000000" stroke-linecap="round" stroke-linejoin="round" stroke-width="9" />
					</g>
					<g class="mNum autogenerated" id="mnum-0000002097470946" />
					<g class="barLineAttr" id="bline-0000000874476132">
						<path d="M11357 2880 L11357 720" stroke="#000000" stroke-width="27" />
					</g>
				</g>
				<g class="measure" id="measure-L31">
					<g class="staff" id="staff-L31F2N1">
						<path d="M11370 720 L15232 720" stroke="#000000" stroke-width="13" />
						<path d="M11370 900 L15232 900" stroke="#000000" stroke-width="13" />
						<path d="M11370 1080 L15232 1080" stroke="#000000" stroke-width="13" />
						<path d="M11370 1260 L15232 1260" stroke="#000000" stroke-width="13" />
						<path d="M11370 1440 L15232 1440" stroke="#000000" stroke-width="13" />
						<g class="ledgerLines below">
							<path d="M13474 1620 L13753 1620" stroke="#000000" stroke-width="22" />
							<path d="M14805 1620 L15084 1620" stroke="#000000" stroke-width="22" />
						</g>
						<g class="layer" id="layer-L31F2N1">
							<g class="beam" id="beam-L32F2-L35F2">
								<polygon points="12016,647 13364,766 13364,856 12016,737 " />
								<polygon points="12016,782 13364,901 13364,991 12016,872 " />
								<g class="note" id="note-L32F2">
									<use xlink:href="#E0A4" x="11808" y="1350" height="720px" width="720px" />
									<g class="stem">
										<rect x="12016" y="665" height="663" width="18" />
									</g>
									<g class="accid" id="accid-0000001919405276" />
								</g>
								<g class="note" id="note-L33F2">
									<use xlink:href="#E0A4" x="12403" y="1440" height="720px" width="720px" />
									<g class="stem">
										<rect x="12611" y="718" height="700" width="18" />
									</g>
									<g class="accid" id="accid-0000001192634096">
										<use xlink:href="#E260" x="12207" y="1440" height="720px" width="720px" />
									</g>
								</g>
								<g class="note" id="note-L34F2">
									<use xlink:href="#E0A4" x="12771" y="1530" height="720px" width="720px" />
									<g class="stem">
										<rect x="12979" y="751" height="757" width="18" />
									</g>
									<g class="accid" id="accid-0000000111593107" />
								</g>
								<g class="note" id="note-L35F2">
									<use xlink:href="#E0A4" x="13138" y="1440" height="720px" width="720px" />
									<g class="stem">
										<rect x="13346" y="784" height="634" width="18" />
									</g>
									<g class="accid" id="accid-0000001002453273" />
								</g>
							</g>
							<g class="beam" id="beam-L36F2-L39F2">
								<polygon points="13713,874 15062,849 15062,939 13713,964 " />
								<polygon points="14685,991 15062,984 15062,1074 14685,1081 " />
								<g class="note" id="note-L36F2">
									<use xlink:href="#E0A4" x="13505" y="1620" height="720px" width="720px" />
									<g class="stem">
										<rect x="13713" y="892" height="706" width="18" />
									</g>
									<g class="accid" id="accid-0000000710023813" />
								</g>
								<g class="note" id="note-L38F2">
									<use xlink:href="#E0A4" x="14468" y="1530" height="720px" width="720px" />
									<g class="stem">
										<rect x="14676" y="874" height="634" width="18" />
									</g>
									<g class="accid" id="accid-0000001913401670" />
								</g>
								<g class="note" id="note-L39F2">
									<use xlink:href="#E0A4" x="14836" y="1620" height="720px" width="720px" />
									<g class="stem">
										<rect x="15044" y="867" height="731" width="18" />
									</g>
									<g class="accid" id="accid-0000001076405749" />
								</g>
							</g>
						</g>
					</g>
					<g class="staff" id="staff-L31F1N1">
						<path d="M11370 2160 L15232 2160" stroke="#000000" stroke-width="13" />
						<path d="M11370 2340 L15232 2340" stroke="#000000" stroke-width="13" />
						<path d="M11370 2520 L15232 2520" stroke="#000000" stroke-width="13" />
						<path d="M11370 2700 L15232 2700" stroke="#000000" stroke-width="13" />
						<path d="M11370 2880 L15232 2880" stroke="#000000" stroke-width="13" />
						<g class="layer" id="layer-L31F1N1">
							<g class="beam" id="beam-L32F1-L33F1">
								<polygon points="11808,2865 12421,2925 12421,2835 11808,2775 " />
								<polygon points="11808,2730 11966,2745 11966,2655 11808,2640 " />
								<g class="note" id="note-L32F1">
									<use xlink:href="#E0A4" x="11808" y="2160" height="720px" width="720px" />
									<g class="stem">
										<rect x="11808" y="2182" height="665" width="18" />
									</g>
									<g class="accid" id="accid-0000000492432671">
										<use xlink:href="#E260" x="11612" y="2160" height="720px" width="720px" />
									</g>
								</g>
								<g class="note" id="note-L33F1">
									<use xlink:href="#E0A4" x="12403" y="2250" height="720px" width="720px" />
									<g class="dots" id="dots-0000001980445487">
										<ellipse cx="12719" cy="2250" rx="36" ry="36" />
									</g>
									<g class="stem">
										<rect x="12403" y="2272" height="635" width="18" />
									</g>
									<g class="accid" id="accid-0000000757570991" />
								</g>
							</g>
							<g class="beam" id="beam-L36F1-L39F1">
								<polygon points="13505,3125 14854,3080 14854,2990 13505,3035 " />
								<polygon points="13505,2990 14854,2945 14854,2855 13505,2900 " />
								<g class="note" id="note-L36F1">
									<use xlink:href="#E0A4" x="13505" y="2340" height="720px" width="720px" />
									<g class="stem">
										<rect x="13505" y="2362" height="745" width="18" />
									</g>
									<g class="accid" id="accid-0000001589493559" />
								</g>
								<g class="note" id="note-L37F1">
									<use xlink:href="#E0A4" x="14101" y="2430" height="720px" width="720px" />
									<g class="stem">
										<rect x="14101" y="2452" height="635" width="18" />
									</g>
									<g class="accid" id="accid-0000000040092042">
										<use xlink:href="#E260" x="13905" y="2430" height="720px" width="720px" />
									</g>
								</g>
								<g class="note" id="note-L38F1">
									<use xlink:href="#E0A4" x="14468" y="2250" height="720px" width="720px" />
									<g class="stem">
										<rect x="14468" y="2272" height="802" width="18" />
									</g>
									<g class="accid" id="accid-0000001131343612" />
								</g>
								<g class="note" id="note-L39F1">
									<use xlink:href="#E0A4" x="14836" y="2340" height="720px" width="720px" />
									<g class="stem">
										<rect x="14836" y="2362" height="700" width="18" />
									</g>
									<g class="accid" id="accid-0000000756731296" />
								</g>
							</g>
						</g>
					</g>
					<g class="mNum autogenerated" id="mnum-0000002000154418" />
					<g class="barLineAttr" id="bline-0000001280693040">
						<path d="M15219 2880 L15219 720" stroke="#000000" stroke-width="27" />
					</g>
				</g>
				<g class="measure" id="measure-L40">
					<g class="staff" id="staff-L40F2N1">
						<path d="M15232 720 L20003 720" stroke="#000000" stroke-width="13" />
						<path d="M15232 900 L20003 900" stroke="#000000" stroke-width="13" />
						<path d="M15232 1080 L20003 1080" stroke="#000000" stroke-width="13" />
						<path d="M15232 1260 L20003 1260" stroke="#000000" stroke-width="13" />
						<path d="M15232 1440 L20003 1440" stroke="#000000" stroke-width="13" />
						<g class="ledgerLines below">
							<path d="M18612 1620 L18891 1620" stroke="#000000" stroke-width="22" />
						</g>
						<g class="layer" id="layer-L40F2N1">
							<g class="beam" id="beam-L41F2-L44F2">
								<polygon points="15878,747 17678,766 17678,856 15878,837 " />
								<polygon points="17075,895 17678,901 17678,991 17075,985 " />
								<g class="note" id="note-L41F2">
									<use xlink:href="#E0A4" x="15670" y="1440" height="720px" width="720px" />
									<g class="stem">
										<rect x="15878" y="765" height="653" width="18" />
									</g>
									<g class="accid" id="accid-0000000010525126">
										<use xlink:href="#E260" x="15474" y="1440" height="720px" width="720px" />
									</g>
								</g>
								<g class="note" id="note-L43F2">
									<use xlink:href="#E0A4" x="16858" y="1530" height="720px" width="720px" />
									<g class="stem">
										<rect x="17066" y="778" height="730" width="18" />
									</g>
									<g class="accid" id="accid-0000001705033577">
										<use xlink:href="#E260" x="16662" y="1530" height="720px" width="720px" />
									</g>
								</g>
								<g class="note" id="note-L44F2">
									<use xlink:href="#E0A4" x="17452" y="1440" height="720px" width="720px" />
									<g class="stem">
										<rect x="17660" y="784" height="634" width="18" />
									</g>
									<g class="accid" id="accid-0000000920005458" />
								</g>
							</g>
							<g class="beam" id="beam-L45F2-L47F2">
								<polygon points="18256,479 19464,389 19464,479 18256,569 " />
								<polygon points="18256,614 18860,569 18860,659 18256,704 " />
								<g class="note" id="note-L45F2">
									<use xlink:href="#E0A4" x="18048" y="1170" height="720px" width="720px" />
									<g class="stem">
										<rect x="18256" y="497" height="651" width="18" />
									</g>
									<g class="accid" id="accid-0000001102258494">
										<use xlink:href="#E260" x="17852" y="1170" height="720px" width="720px" />
									</g>
								</g>
								<g class="note" id="note-L46F2">
									<use xlink:href="#E0A4" x="18643" y="1620" height="720px" width="720px" />
									<g class="stem">
										<rect x="18851" y="452" height="1146" width="18" />
									</g>
									<g class="accid" id="accid-0000000564310338">
										<use xlink:href="#E260" x="18447" y="1620" height="720px" width="720px" />
									</g>
								</g>
								<g class="note" id="note-L47F2">
									<use xlink:href="#E0A4" x="19238" y="1080" height="720px" width="720px" />
									<g class="stem">
										<rect x="19446" y="407" height="651" width="18" />
									</g>
									<g class="accid" id="accid-0000001474983111">
										<use xlink:href="#E260" x="19042" y="1080" height="720px" width="720px" />
									</g>
								</g>
							</g>
						</g>
					</g>
					<g class="staff" id="staff-L40F1N1">
						<path d="M15232 2160 L20003 2160" stroke="#000000" stroke-width="13" />
						<path d="M15232 2340 L20003 2340" stroke="#000000" stroke-width="13" />
						<path d="M15232 2520 L20003 2520" stroke="#000000" stroke-width="13" />
						<path d="M15232 2700 L20003 2700" stroke="#000000" stroke-width="13" />
						<path d="M15232 2880 L20003 2880" stroke="#000000" stroke-width="13" />
						<g class="layer" id="layer-L40F1N1">
							<g class="beam" id="beam-L41F1-L44F1">
								<polygon points="15670,3375 17470,3196 17470,3106 15670,3285 " />
								<polygon points="15670,3240 17470,3061 17470,2971 15670,3150 " />
								<g class="note" id="note-L41F1">
									<use xlink:href="#E0A4" x="15670" y="2700" height="720px" width="720px" />
									<g class="stem">
										<rect x="15670" y="2722" height="635" width="18" />
									</g>
									<g class="accid" id="accid-0000000595018211" />
								</g>
								<g class="note" id="note-L42F1">
									<use xlink:href="#E0A4" x="16264" y="2610" height="720px" width="720px" />
									<g class="stem">
										<rect x="16264" y="2632" height="665" width="18" />
									</g>
									<g class="accid" id="accid-0000000815708326">
										<use xlink:href="#E262" x="16069" y="2610" height="720px" width="720px" />
									</g>
								</g>
								<g class="note" id="note-L43F1">
									<use xlink:href="#E0A4" x="16858" y="2430" height="720px" width="720px" />
									<g class="stem">
										<rect x="16858" y="2452" height="786" width="18" />
									</g>
									<g class="accid" id="accid-0000002087364378">
										<use xlink:href="#E262" x="16663" y="2430" height="720px" width="720px" />
									</g>
								</g>
								<g class="note" id="note-L44F1">
									<use xlink:href="#E0A4" x="17452" y="2340" height="720px" width="720px" />
									<g class="stem">
										<rect x="17452" y="2362" height="816" width="18" />
									</g>
									<g class="accid" id="accid-0000000710722551">
										<use xlink:href="#E262" x="17257" y="2340" height="720px" width="720px" />
									</g>
								</g>
							</g>
							<g class="beam" id="beam-L45F1-L48F1">
								<polygon points="18048,3151 19624,3209 19624,3119 18048,3061 " />
								<polygon points="19247,3060 19624,3074 19624,2984 19247,2970 " />
								<g class="note" id="note-L45F1">
									<use xlink:href="#E0A4" x="18048" y="2340" height="720px" width="720px" />
									<g class="stem">
										<rect x="18048" y="2362" height="771" width="18" />
									</g>
									<g class="accid" id="accid-0000000299855149" />
								</g>
								<g class="note" id="note-L47F1">
									<use xlink:href="#E0A4" x="19238" y="2520" height="720px" width="720px" />
									<g class="stem">
										<rect x="19238" y="2542" height="635" width="18" />
									</g>
									<g class="accid" id="accid-0000000134861000">
										<use xlink:href="#E262" x="19043" y="2520" height="720px" width="720px" />
									</g>
								</g>
								<g class="note" id="note-L48F1">
									<use xlink:href="#E0A4" x="19606" y="2340" height="720px" width="720px" />
									<g class="stem">
										<rect x="19606" y="2362" height="829" width="18" />
									</g>
									<g class="accid" id="accid-0000001388939901" />
								</g>
							</g>
						</g>
					</g>
					<g class="tie" id="tie-L44F1-L45F1">
						<path d="M17700,2295 C17781,2153 17943,2153 18026,2295 C17943,2197 17781,2197 17700,2295" stroke="#000000" stroke-linecap="round" stroke-linejoin="round" stroke-width="9" />
					</g>
					<g class="mNum autogenerated" id="mnum-0000000190056546" />
					<g class="barLineAttr" id="bline-0000001195893905">
						<path d="M19990 2880 L19990 720" stroke="#000000" stroke-width="27" />
					</g>
				</g>
			</g>
		</g>
	</svg>
</svg>
