<?xml version="1.0" encoding="UTF-8" standalone="no"?>
<svg width="2100.00px" height="450.00px" version="1.1" xmlns="http://www.w3.org/2000/svg" xmlns:xlink="http://www.w3.org/1999/xlink" overflow="visible">
	<desc>Engraved by Verovio 2.0.0-dev-0f0381c</desc>
	<defs>
		<symbol id="E050" viewBox="0 0 1000 1000" overflow="inherit">
			<path transform="scale(1,-1)" d="M441 -245c-23 -4 -48 -6 -76 -6c-59 0 -102 7 -130 20c-88 42 -150 93 -187 154c-26 44 -43 103 -48 176c-4 60 11 123 44 189c29 57 65 106 110 148s96 85 153 127c-3 16 -8 46 -13 92c-4 43 -5 73 -5 89c0 117 16 172 69 257c34 54 64 82 89 82c21 0 43 -30 69 -92 s39 -115 41 -159c2 -120 -19 -173 -67 -256c-13 -20 -63 -90 -98 -118c-13 -9 -25 -19 -37 -29l31 -181c8 1 18 2 28 2c58 0 102 -12 133 -35c59 -43 92 -104 98 -184c11 -135 -80 -229 -180 -270c8 -57 17 -110 25 -162c5 -31 6 -58 6 -80c0 -30 -5 -53 -14 -70 c-35 -64 -88 -99 -158 -103c-42 -3 -83 6 -124 26c-50 24 -77 59 -80 105c-2 34 5 63 20 87c18 28 45 42 79 44c51 4 99 -40 103 -87c4 -56 -30 -94 -105 -115c17 -24 51 -36 102 -36c62 0 116 43 140 85c9 16 13 41 13 74c0 20 -1 42 -5 67c-8 53 -18 106 -26 159zM461 939 c-95 0 -135 -175 -135 -286c0 -24 2 -48 5 -71c50 39 92 82 127 128c43 57 63 106 60 148c-4 54 -23 82 -57 81zM406 119l54 -326c80 27 116 88 109 184c-7 99 -62 146 -163 142zM382 117c-74 -2 -132 -50 -128 -127c2 -46 43 -99 75 -115c-3 -2 -7 -5 -10 -10 c-70 33 -116 88 -123 172c-5 73 42 135 88 170c23 17 49 29 78 36l-29 170c-21 -13 -52 -37 -92 -73c-50 -44 -86 -84 -109 -119c-49 -75 -71 -140 -67 -195c5 -68 35 -127 93 -176s125 -73 203 -73c25 0 50 3 75 9c-19 111 -36 221 -54 331z" />
		</symbol>
		<symbol id="E082" viewBox="0 0 1000 1000" overflow="inherit">
			<path transform="scale(1,-1)" d="M104 -185c-18 0 -55 -14 -65 -65h-36l-3 29c0 25 6 46 18 64c11 19 22 30 39 43l121 82l37 29c15 11 27 29 38 54c12 24 18 47 18 70c0 40 -19 88 -94 88c-25 0 -32 0 -50 -8c-14 -5 -23 -12 -26 -22c3 -9 7 -15 10 -18l24 -17c12 -7 17 -11 27 -21c5 -7 7 -16 7 -27 c0 -12 0 -57 -79 -74c-30 0 -76 26 -76 94c0 66 80 135 196 135c72 0 182 -32 182 -150c0 -53 -32 -95 -113 -133l-91 -41c-26 -11 -45 -23 -57 -37l49 7c84 0 115 -41 148 -41c20 0 33 20 39 61h35c0 -152 -68 -168 -114 -168c-17 0 -55 0 -69 7v0l-28 17 c-49 37 -69 40 -87 42z" />
		</symbol>
		<symbol id="E084" viewBox="0 0 1000 1000" overflow="inherit">
			<path transform="scale(1,-1)" d="M0 -78c84 97 114 180 134 329h170c-13 -32 -82 -132 -99 -151l-84 -97c-33 -36 -59 -63 -80 -81h162v102l127 123v-225h57v-39h-57v-34c0 -43 19 -65 57 -65v-34h-244v36c48 0 60 26 60 70v27h-203v39z" />
		</symbol>
		<symbol id="E0A4" viewBox="0 0 1000 1000" overflow="inherit">
			<path transform="scale(1,-1)" d="M0 -39c0 68 73 172 200 172c66 0 114 -37 114 -95c0 -84 -106 -171 -218 -171c-64 0 -96 30 -96 94z" />
		</symbol>
		<symbol id="E062" viewBox="0 0 1000 1000" overflow="inherit">
			<path transform="scale(1,-1)" d="M158 96c51 0 73 -14 88 -49l16 -39c0 -17 -2 -30 -7 -40c-3 -11 -10 -21 -19 -31c-17 -18 -49 -43 -84 -43c-55 0 -77 13 -112 44c-24 21 -35 55 -35 100c0 46 14 81 32 112c30 52 71 79 137 93l36 6l26 2c154 0 235 -68 274 -182c11 -32 18 -68 18 -107 c0 -103 -26 -182 -68 -250c-89 -145 -234 -230 -412 -288l-30 -5c-9 0 -14 3 -14 8c3 10 5 11 10 16c35 15 70 30 96 44l78 43c96 57 162 136 197 258c9 33 17 60 22 100c3 22 5 35 6 39c-7 69 -16 115 -23 140s-4 22 -16 40c-8 12 -19 23 -31 34c-24 21 -62 44 -118 44 c-48 0 -84 -8 -113 -28c-28 -19 -42 -44 -42 -73v-16c2 -5 3 -9 4 -11c24 22 52 39 84 39zM585 -118c0 32 23 58 57 58c18 0 33 -6 40 -18c9 -15 16 -18 16 -40c0 -9 -2 -16 -5 -21c-6 -19 -27 -37 -51 -37c-34 0 -57 26 -57 58zM642 177c31 0 56 -27 56 -58 c0 -30 -25 -58 -56 -58l-23 3c-19 7 -34 32 -34 55l3 23c9 20 28 35 54 35z" />
		</symbol>
		<symbol id="E260" viewBox="0 0 1000 1000" overflow="inherit">
			<path transform="scale(1,-1)" d="M20 110c32 16 54 27 93 27c26 0 35 -3 54 -13c13 -7 24 -20 27 -38l4 -25c0 -28 -16 -57 -45 -89c-23 -25 -39 -44 -65 -68l-88 -79v644h20v-359zM90 106c-32 0 -48 -10 -70 -29v-194c31 31 54 59 71 84c21 32 32 59 32 84c0 9 1 16 1 20c0 14 -3 21 -11 30l-8 3z" />
		</symbol>
		<symbol id="E262" viewBox="0 0 1000 1000" overflow="inherit">
			<path transform="scale(1,-1)" d="M136 186v169h17v-164l44 14v-91l-44 -14v-165l44 12v-91l-44 -13v-155h-17v150l-76 -22v-155h-17v149l-43 -13v90l43 14v167l-43 -14v92l43 13v169h17v-163zM60 73v-167l76 22v168z" />
		</symbol>
	</defs>
	<style type="text/css">g.page-margin{font-family:Times;} g.tempo{font-weight:bold;} g.dir, g.dynam, g.mNum{font-style:italic;} g.label{font-weight:normal;}</style>
	<svg class="definition-scale" viewBox="0 0 21000 4500">
		<g class="page-margin" transform="translate(500, 500)">
			<g class="system" id="system-0000000241153988">
				<path d="M13 720 L13 2880" stroke="#000000" stroke-width="27" />
				<path d="M-32,2862 C-392,2322 58,1980 -212,1800 C121,1980 -329,2322 -32,2862" stroke="#000000" stroke-linecap="round" stroke-linejoin="round" stroke-width="18" />
				<path d="M-32,738 C-329,1278 121,1620 -212,1800 C58,1620 -392,1278 -32,738" stroke="#000000" stroke-linecap="round" stroke-linejoin="round" stroke-width="18" />
				<g class="section boundaryStart" id="section-L1F1" />
				<g class="measure" id="measure-L4">
					<g class="staff" id="staff-L4F2N1">
						<path d="M0 720 L4399 720" stroke="#000000" stroke-width="13" />
						<path d="M0 900 L4399 900" stroke="#000000" stroke-width="13" />
						<path d="M0 1080 L4399 1080" stroke="#000000" stroke-width="13" />
						<path d="M0 1260 L4399 1260" stroke="#000000" stroke-width="13" />
						<path d="M0 1440 L4399 1440" stroke="#000000" stroke-width="13" />
						<g class="clef" id="clef-0000000967910182">
							<use xlink:href="#E050" x="90" y="1260" height="720px" width="720px" />
						</g>
						<g class="meterSig" id="msig-0000000477802849">
							<use xlink:href="#E082" x="771" y="900" height="720px" width="720px" />
							<use xlink:href="#E084" x="777" y="1260" height="720px" width="720px" />
						</g>
						<g class="ledgerLines below">
							<path d="M2468 1620 L2747 1620" stroke="#000000" stroke-width="22" />
						</g>
						<g class="layer" id="layer-L4F2N1">
							<g class="beam" id="beam-L5F2-L8F2">
								<polygon points="1574,638 2725,752 2725,842 1574,728 " />
								<polygon points="1574,773 2725,887 2725,977 1574,863 " />
								<g class="note" id="note-L5F2">
									<use xlink:href="#E0A4" x="1366" y="1440" height="720px" width="720px" />
									<g class="stem">
										<rect x="1574" y="656" height="762" width="18" />
									</g>
									<g class="accid" id="accid-0000001955630348" />
								</g>
								<g class="note" id="note-L6F2">
									<use xlink:href="#E0A4" x="1744" y="1350" height="720px" width="720px" />
									<g class="stem">
										<rect x="1952" y="694" height="634" width="18" />
									</g>
									<g class="accid" id="accid-0000000862366022" />
								</g>
								<g class="note" id="note-L7F2">
									<use xlink:href="#E0A4" x="2121" y="1440" height="720px" width="720px" />
									<g class="stem">
										<rect x="2329" y="732" height="686" width="18" />
									</g>
									<g class="accid" id="accid-0000000222696285" />
								</g>
								<g class="note" id="note-L8F2">
									<use xlink:href="#E0A4" x="2499" y="1620" height="720px" width="720px" />
									<g class="stem">
										<rect x="2707" y="770" height="828" width="18" />
									</g>
									<g class="accid" id="accid-0000001624786493" />
								</g>
							</g>
							<g class="beam" id="beam-L9F2-L11F2">
								<polygon points="3085,765 3859,765 3859,855 3085,855 " />
								<polygon points="3085,900 3472,900 3472,990 3085,990 " />
								<g class="note" id="note-L9F2">
									<use xlink:href="#E0A4" x="2877" y="1440" height="720px" width="720px" />
									<g class="stem">
										<rect x="3085" y="783" height="635" width="18" />
									</g>
									<g class="accid" id="accid-0000001162654302" />
								</g>
								<g class="note" id="note-L10F2">
									<use xlink:href="#E0A4" x="3255" y="1530" height="720px" width="720px" />
									<g class="stem">
										<rect x="3463" y="783" height="725" width="18" />
									</g>
									<g class="accid" id="accid-0000000558811373" />
								</g>
								<g class="note" id="note-L11F2">
									<use xlink:href="#E0A4" x="3633" y="1440" height="720px" width="720px" />
									<g class="stem">
										<rect x="3841" y="783" height="635" width="18" />
									</g>
									<g class="accid" id="accid-0000002133881160" />
								</g>
							</g>
						</g>
					</g>
					<g class="staff" id="staff-L4F1N1">
						<path d="M0 2160 L4399 2160" stroke="#000000" stroke-width="13" />
						<path d="M0 2340 L4399 2340" stroke="#000000" stroke-width="13" />
						<path d="M0 2520 L4399 2520" stroke="#000000" stroke-width="13" />
						<path d="M0 2700 L4399 2700" stroke="#000000" stroke-width="13" />
						<path d="M0 2880 L4399 2880" stroke="#000000" stroke-width="13" />
						<g class="clef" id="clef-0000000991127010">
							<use xlink:href="#E062" x="90" y="2340" height="720px" width="720px" />
						</g>
						<g class="meterSig" id="msig-0000001988490938">
							<use xlink:href="#E082" x="771" y="2340" height="720px" width="720px" />
							<use xlink:href="#E084" x="777" y="2700" height="720px" width="720px" />
						</g>
						<g class="layer" id="layer-L4F1N1">
							<g class="beam" id="beam-L5F1-L8F1">
								<polygon points="1366,3285 2517,3171 2517,3081 1366,3195 " />
								<polygon points="2359,3051 2517,3036 2517,2946 2359,2961 " />
								<g class="note" id="note-L5F1">
									<use xlink:href="#E0A4" x="1366" y="2610" height="720px" width="720px" />
									<g class="dots" id="dots-0000000552088618">
										<ellipse cx="1682" cy="2610" rx="36" ry="36" />
									</g>
									<g class="stem">
										<rect x="1366" y="2632" height="635" width="18" />
									</g>
									<g class="accid" id="accid-0000001243554210" />
								</g>
								<g class="note" id="note-L8F1">
									<use xlink:href="#E0A4" x="2499" y="2250" height="720px" width="720px" />
									<g class="stem">
										<rect x="2499" y="2272" height="881" width="18" />
									</g>
									<g class="accid" id="accid-0000000471420900" />
								</g>
							</g>
							<g class="beam" id="beam-L9F1-L12F1">
								<polygon points="2877,2926 4009,3016 4009,2926 2877,2836 " />
								<polygon points="3851,2869 4009,2881 4009,2791 3851,2779 " />
								<g class="note" id="note-L9F1">
									<use xlink:href="#E0A4" x="2877" y="2250" height="720px" width="720px" />
									<g class="dots" id="dots-0000000180604708">
										<ellipse cx="3193" cy="2250" rx="36" ry="36" />
									</g>
									<g class="stem">
										<rect x="2877" y="2272" height="636" width="18" />
									</g>
									<g class="accid" id="accid-0000000072955473" />
								</g>
								<g class="note" id="note-L12F1">
									<use xlink:href="#E0A4" x="3991" y="2340" height="720px" width="720px" />
									<g class="stem">
										<rect x="3991" y="2362" height="636" width="18" />
									</g>
									<g class="accid" id="accid-0000001184033330" />
								</g>
							</g>
						</g>
					</g>
					<g class="tie" id="tie-L8F1-L9F1">
						<path d="M2612,2115 C2706,1973 2894,1973 2990,2115 C2894,2017 2706,2017 2612,2115" stroke="#000000" stroke-linecap="round" stroke-linejoin="round" stroke-width="9" />
					</g>
					<g class="tie" id="tie-L11F2-L14F2">
						<path d="M3881,1485 C4117,1583 4589,1583 4827,1485 C4589,1627 4117,1627 3881,1485" stroke="#000000" stroke-linecap="round" stroke-linejoin="round" stroke-width="9" />
					</g>
					<g class="mNum autogenerated" id="mnum-0000001073124497" />
					<g class="barLineAttr" id="bline-0000002064652966">
						<path d="M4386 2880 L4386 720" stroke="#000000" stroke-width="27" />
					</g>
				</g>
				<g class="measure" id="measure-L13">
					<g class="staff" id="staff-L13F2N1">
						<path d="M4399 720 L8604 720" stroke="#000000" stroke-width="13" />
						<path d="M4399 900 L8604 900" stroke="#000000" stroke-width="13" />
						<path d="M4399 1080 L8604 1080" stroke="#000000" stroke-width="13" />
						<path d="M4399 1260 L8604 1260" stroke="#000000" stroke-width="13" />
						<path d="M4399 1440 L8604 1440" stroke="#000000" stroke-width="13" />
						<g class="layer" id="layer-L13F2N1">
							<g class="beam" id="beam-L14F2-L16F2">
								<polygon points="5057,405 6299,405 6299,495 5057,495 " />
								<polygon points="5057,540 5678,540 5678,630 5057,630 " />
								<g class="note" id="note-L14F2">
									<use xlink:href="#E0A4" x="4849" y="1440" height="720px" width="720px" />
									<g class="stem">
										<rect x="5057" y="423" height="995" width="18" />
									</g>
									<g class="accid" id="accid-0000001752940089" />
								</g>
								<g class="note" id="note-L15F2">
									<use xlink:href="#E0A4" x="5461" y="1080" height="720px" width="720px" />
									<g class="stem">
										<rect x="5669" y="423" height="635" width="18" />
									</g>
									<g class="accid" id="accid-0000000117134447">
										<use xlink:href="#E260" x="5265" y="1080" height="720px" width="720px" />
									</g>
								</g>
								<g class="note" id="note-L16F2">
									<use xlink:href="#E0A4" x="6073" y="1440" height="720px" width="720px" />
									<g class="stem">
										<rect x="6281" y="423" height="995" width="18" />
									</g>
									<g class="accid" id="accid-0000000158383221">
										<use xlink:href="#E260" x="5877" y="1440" height="720px" width="720px" />
									</g>
								</g>
							</g>
							<g class="beam" id="beam-L18F2-L20F2">
								<polygon points="7271,675 8045,675 8045,765 7271,765 " />
								<polygon points="7271,810 7658,810 7658,900 7271,900 " />
								<g class="note" id="note-L18F2">
									<use xlink:href="#E0A4" x="7063" y="1440" height="720px" width="720px" />
									<g class="stem">
										<rect x="7271" y="693" height="725" width="18" />
									</g>
									<g class="accid" id="accid-0000001576236145" />
								</g>
								<g class="note" id="note-L19F2">
									<use xlink:href="#E0A4" x="7441" y="1350" height="720px" width="720px" />
									<g class="stem">
										<rect x="7649" y="693" height="635" width="18" />
									</g>
									<g class="accid" id="accid-0000000224650553" />
								</g>
								<g class="note" id="note-L20F2">
									<use xlink:href="#E0A4" x="7819" y="1440" height="720px" width="720px" />
									<g class="stem">
										<rect x="8027" y="693" height="725" width="18" />
									</g>
									<g class="accid" id="accid-0000001818401405" />
								</g>
							</g>
						</g>
					</g>
					<g class="staff" id="staff-L13F1N1">
						<path d="M4399 2160 L8604 2160" stroke="#000000" stroke-width="13" />
						<path d="M4399 2340 L8604 2340" stroke="#000000" stroke-width="13" />
						<path d="M4399 2520 L8604 2520" stroke="#000000" stroke-width="13" />
						<path d="M4399 2700 L8604 2700" stroke="#000000" stroke-width="13" />
						<path d="M4399 2880 L8604 2880" stroke="#000000" stroke-width="13" />
						<g class="ledgerLines above">
							<path d="M7032 1980 L7311 1980" stroke="#000000" stroke-width="22" />
						</g>
						<g class="layer" id="layer-L13F1N1">
							<g class="beam" id="beam-L14F1-L17F1">
								<polygon points="4849,3105 6703,2921 6703,2831 4849,3015 " />
								<polygon points="4849,2970 6703,2786 6703,2696 4849,2880 " />
								<g class="note" id="note-L14F1">
									<use xlink:href="#E0A4" x="4849" y="2430" height="720px" width="720px" />
									<g class="stem">
										<rect x="4849" y="2452" height="635" width="18" />
									</g>
									<g class="accid" id="accid-0000000103631279">
										<use xlink:href="#E260" x="4653" y="2430" height="720px" width="720px" />
									</g>
								</g>
								<g class="note" id="note-L15F1">
									<use xlink:href="#E0A4" x="5461" y="2340" height="720px" width="720px" />
									<g class="stem">
										<rect x="5461" y="2362" height="663" width="18" />
									</g>
									<g class="accid" id="accid-0000000476971908" />
								</g>
								<g class="note" id="note-L16F1">
									<use xlink:href="#E0A4" x="6073" y="2250" height="720px" width="720px" />
									<g class="stem">
										<rect x="6073" y="2272" height="692" width="18" />
									</g>
									<g class="accid" id="accid-0000001685228729" />
								</g>
								<g class="note" id="note-L17F1">
									<use xlink:href="#E0A4" x="6685" y="2070" height="720px" width="720px" />
									<g class="stem">
										<rect x="6685" y="2092" height="811" width="18" />
									</g>
									<g class="accid" id="accid-0000001133826948">
										<use xlink:href="#E260" x="6489" y="2070" height="720px" width="720px" />
									</g>
								</g>
							</g>
							<g class="beam" id="beam-L18F1-L21F1">
								<polygon points="7063,2849 8215,2963 8215,2873 7063,2759 " />
								<polygon points="7063,2714 8215,2828 8215,2738 7063,2624 " />
								<g class="note" id="note-L18F1">
									<use xlink:href="#E0A4" x="7063" y="1980" height="720px" width="720px" />
									<g class="stem">
										<rect x="7063" y="2002" height="829" width="18" />
									</g>
									<g class="accid" id="accid-0000000766546832" />
								</g>
								<g class="note" id="note-L19F1">
									<use xlink:href="#E0A4" x="7441" y="2070" height="720px" width="720px" />
									<g class="stem">
										<rect x="7441" y="2092" height="777" width="18" />
									</g>
									<g class="accid" id="accid-0000001695290690" />
								</g>
								<g class="note" id="note-L20F1">
									<use xlink:href="#E0A4" x="7819" y="2250" height="720px" width="720px" />
									<g class="stem">
										<rect x="7819" y="2272" height="635" width="18" />
									</g>
									<g class="accid" id="accid-0000001336383621" />
								</g>
								<g class="note" id="note-L21F1">
									<use xlink:href="#E0A4" x="8197" y="2070" height="720px" width="720px" />
									<g class="stem">
										<rect x="8197" y="2092" height="853" width="18" />
									</g>
									<g class="accid" id="accid-0000001325202214" />
								</g>
							</g>
						</g>
					</g>
					<g class="tie" id="tie-L16F2-L18F2">
						<path d="M6321,1485 C6501,1583 6861,1583 7041,1485 C6861,1627 6501,1627 6321,1485" stroke="#000000" stroke-linecap="round" stroke-linejoin="round" stroke-width="9" />
					</g>
					<g class="mNum autogenerated" id="mnum-0000001584043719" />
					<g class="barLineAttr" id="bline-0000001873113273">
						<path d="M8591 2880 L8591 720" stroke="#000000" stroke-width="27" />
					</g>
				</g>
				<g class="measure" id="measure-L22">
					<g class="staff" id="staff-L22F2N1">
						<path d="M8604 720 L12786 720" stroke="#000000" stroke-width="13" />
						<path d="M8604 900 L12786 900" stroke="#000000" stroke-width="13" />
						<path d="M8604 1080 L12786 1080" stroke="#000000" stroke-width="13" />
						<path d="M8604 1260 L12786 1260" stroke="#000000" stroke-width="13" />
						<path d="M8604 1440 L12786 1440" stroke="#000000" stroke-width="13" />
						<g class="ledgerLines below">
							<path d="M9023 1620 L9302 1620" stroke="#000000" stroke-width="22" />
							<path d="M10012 1620 L10291 1620" stroke="#000000" stroke-width="22" />
							<path d="M11001 1620 L11280 1620" stroke="#000000" stroke-width="22" />
							<path d="M11989 1620 L12268 1620" stroke="#000000" stroke-width="22" />
						</g>
						<g class="layer" id="layer-L22F2N1">
							<g class="beam" id="beam-L23F2-L26F2">
								<polygon points="9262,647 10880,487 10880,577 9262,737 " />
								<polygon points="9262,782 10880,622 10880,712 9262,872 " />
								<g class="note" id="note-L23F2">
									<use xlink:href="#E0A4" x="9054" y="1620" height="720px" width="720px" />
									<g class="stem">
										<rect x="9262" y="665" height="933" width="18" />
									</g>
									<g class="accid" id="accid-0000000268574599">
										<use xlink:href="#E262" x="8859" y="1620" height="720px" width="720px" />
									</g>
								</g>
								<g class="note" id="note-L24F2">
									<use xlink:href="#E0A4" x="9665" y="1260" height="720px" width="720px" />
									<g class="stem">
										<rect x="9873" y="604" height="634" width="18" />
									</g>
									<g class="accid" id="accid-0000001511609075">
										<use xlink:href="#E262" x="9470" y="1260" height="720px" width="720px" />
									</g>
								</g>
								<g class="note" id="note-L25F2">
									<use xlink:href="#E0A4" x="10043" y="1620" height="720px" width="720px" />
									<g class="stem">
										<rect x="10251" y="566" height="1032" width="18" />
									</g>
									<g class="accid" id="accid-0000000564009717" />
								</g>
								<g class="note" id="note-L26F2">
									<use xlink:href="#E0A4" x="10654" y="1350" height="720px" width="720px" />
									<g class="stem">
										<rect x="10862" y="505" height="823" width="18" />
									</g>
									<g class="accid" id="accid-0000001429006803">
										<use xlink:href="#E262" x="10459" y="1350" height="720px" width="720px" />
									</g>
								</g>
							</g>
							<g class="beam" id="beam-L27F2-L29F2">
								<polygon points="11240,864 12246,851 12246,941 11240,954 " />
								<polygon points="11240,999 11859,991 11859,1081 11240,1089 " />
								<g class="note" id="note-L27F2">
									<use xlink:href="#E0A4" x="11032" y="1620" height="720px" width="720px" />
									<g class="stem">
										<rect x="11240" y="882" height="716" width="18" />
									</g>
									<g class="accid" id="accid-0000001717362804" />
								</g>
								<g class="note" id="note-L28F2">
									<use xlink:href="#E0A4" x="11642" y="1530" height="720px" width="720px" />
									<g class="stem">
										<rect x="11850" y="874" height="634" width="18" />
									</g>
									<g class="accid" id="accid-0000001454932908">
										<use xlink:href="#E262" x="11447" y="1530" height="720px" width="720px" />
									</g>
								</g>
								<g class="note" id="note-L29F2">
									<use xlink:href="#E0A4" x="12020" y="1620" height="720px" width="720px" />
									<g class="stem">
										<rect x="12228" y="869" height="729" width="18" />
									</g>
									<g class="accid" id="accid-0000001320755660" />
								</g>
							</g>
						</g>
					</g>
					<g class="staff" id="staff-L22F1N1">
						<path d="M8604 2160 L12786 2160" stroke="#000000" stroke-width="13" />
						<path d="M8604 2340 L12786 2340" stroke="#000000" stroke-width="13" />
						<path d="M8604 2520 L12786 2520" stroke="#000000" stroke-width="13" />
						<path d="M8604 2700 L12786 2700" stroke="#000000" stroke-width="13" />
						<path d="M8604 2880 L12786 2880" stroke="#000000" stroke-width="13" />
						<g class="layer" id="layer-L22F1N1">
							<g class="beam" id="beam-L23F1-L26F1">
								<polygon points="9054,3555 10672,3395 10672,3305 9054,3465 " />
								<polygon points="10514,3274 10672,3260 10672,3170 10514,3184 " />
								<g class="note" id="note-L23F1">
									<use xlink:href="#E0A4" x="9054" y="2880" height="720px" width="720px" />
									<g class="dots" id="dots-0000000951038639">
										<ellipse cx="9370" cy="2790" rx="36" ry="36" />
									</g>
									<g class="stem">
										<rect x="9054" y="2902" height="635" width="18" />
									</g>
									<g class="accid" id="accid-0000000589884232">
										<use xlink:href="#E260" x="8858" y="2880" height="720px" width="720px" />
									</g>
								</g>
								<g class="note" id="note-L26F1">
									<use xlink:href="#E0A4" x="10654" y="2070" height="720px" width="720px" />
									<g class="stem">
										<rect x="10654" y="2092" height="1285" width="18" />
									</g>
									<g class="accid" id="accid-0000000295945419">
										<use xlink:href="#E260" x="10458" y="2070" height="720px" width="720px" />
									</g>
								</g>
							</g>
							<g class="beam" id="beam-L27F1-L30F1">
								<polygon points="11032,2880 12397,3015 12397,2925 11032,2790 " />
								<polygon points="12239,2865 12397,2880 12397,2790 12239,2775 " />
								<g class="note" id="note-L27F1">
									<use xlink:href="#E0A4" x="11032" y="2070" height="720px" width="720px" />
									<g class="dots" id="dots-0000000518662168">
										<ellipse cx="11348" cy="2070" rx="36" ry="36" />
									</g>
									<g class="stem">
										<rect x="11032" y="2092" height="770" width="18" />
									</g>
									<g class="accid" id="accid-0000001450923936" />
								</g>
								<g class="note" id="note-L30F1">
									<use xlink:href="#E0A4" x="12379" y="2340" height="720px" width="720px" />
									<g class="stem">
										<rect x="12379" y="2362" height="635" width="18" />
									</g>
									<g class="accid" id="accid-0000000655877789" />
								</g>
							</g>
						</g>
					</g>
					<g class="tie" id="tie-L26F1-L27F1">
						<path d="M10767,1935 C10861,1793 11049,1793 11145,1935 C11049,1837 10861,1837 10767,1935" stroke="#000000" stroke-linecap="round" stroke-linejoin="round" stroke-width="9" />
					</g>
					<g class="tie" id="tie-L29F2-L32F2">
						<path d="M12268,1665 C12446,1763 12802,1763 12980,1665 C12802,1807 12446,1807 12268,1665" stroke="#000000" stroke-linecap="round" stroke-linejoin="round" stroke-width="9" />
					</g>
					<g class="mNum autogenerated" id="mnum-0000000256270302" />
					<g class="barLineAttr" id="bline-0000000238062261">
						<path d="M12773 2880 L12773 720" stroke="#000000" stroke-width="27" />
					</g>
				</g>
				<g class="measure" id="measure-L31">
					<g class="staff" id="staff-L31F2N1">
						<path d="M12786 720 L16753 720" stroke="#000000" stroke-width="13" />
						<path d="M12786 900 L16753 900" stroke="#000000" stroke-width="13" />
						<path d="M12786 1080 L16753 1080" stroke="#000000" stroke-width="13" />
						<path d="M12786 1260 L16753 1260" stroke="#000000" stroke-width="13" />
						<path d="M12786 1440 L16753 1440" stroke="#000000" stroke-width="13" />
						<g class="ledgerLines below">
							<path d="M12971 1620 L13250 1620" stroke="#000000" stroke-width="22" />
						</g>
						<g class="layer" id="layer-L31F2N1">
							<g class="beam" id="beam-L32F2-L34F2">
								<polygon points="13210,557 14216,458 14216,548 13210,647 " />
								<polygon points="13210,692 13830,631 13830,721 13210,782 " />
								<g class="note" id="note-L32F2">
									<use xlink:href="#E0A4" x="13002" y="1620" height="720px" width="720px" />
									<g class="stem">
										<rect x="13210" y="575" height="1023" width="18" />
									</g>
									<g class="accid" id="accid-0000001369104490" />
								</g>
								<g class="note" id="note-L33F2">
									<use xlink:href="#E0A4" x="13613" y="1170" height="720px" width="720px" />
									<g class="stem">
										<rect x="13821" y="514" height="634" width="18" />
									</g>
									<g class="accid" id="accid-0000000754792538" />
								</g>
								<g class="note" id="note-L34F2">
									<use xlink:href="#E0A4" x="13990" y="1440" height="720px" width="720px" />
									<g class="stem">
										<rect x="14198" y="476" height="942" width="18" />
									</g>
									<g class="accid" id="accid-0000002051892182" />
								</g>
							</g>
							<g class="beam" id="beam-L36F2-L38F2">
								<polygon points="15187,603 16194,576 16194,666 15187,693 " />
								<polygon points="15187,738 15807,721 15807,811 15187,828 " />
								<g class="note" id="note-L36F2">
									<use xlink:href="#E0A4" x="14979" y="1440" height="720px" width="720px" />
									<g class="stem">
										<rect x="15187" y="621" height="797" width="18" />
									</g>
									<g class="accid" id="accid-0000000621867795" />
								</g>
								<g class="note" id="note-L37F2">
									<use xlink:href="#E0A4" x="15590" y="1260" height="720px" width="720px" />
									<g class="stem">
										<rect x="15798" y="604" height="634" width="18" />
									</g>
									<g class="accid" id="accid-0000000583617197">
										<use xlink:href="#E262" x="15395" y="1260" height="720px" width="720px" />
									</g>
								</g>
								<g class="note" id="note-L38F2">
									<use xlink:href="#E0A4" x="15968" y="1440" height="720px" width="720px" />
									<g class="stem">
										<rect x="16176" y="594" height="824" width="18" />
									</g>
									<g class="accid" id="accid-0000000463200448" />
								</g>
							</g>
						</g>
					</g>
					<g class="staff" id="staff-L31F1N1">
						<path d="M12786 2160 L16753 2160" stroke="#000000" stroke-width="13" />
						<path d="M12786 2340 L16753 2340" stroke="#000000" stroke-width="13" />
						<path d="M12786 2520 L16753 2520" stroke="#000000" stroke-width="13" />
						<path d="M12786 2700 L16753 2700" stroke="#000000" stroke-width="13" />
						<path d="M12786 2880 L16753 2880" stroke="#000000" stroke-width="13" />
						<g class="ledgerLines above">
							<path d="M14570 1980 L14849 1980" stroke="#000000" stroke-width="22" />
							<path d="M15559 1980 L15838 1980" stroke="#000000" stroke-width="22" />
							<path d="M16315 1980 L16594 1980" stroke="#000000" stroke-width="22" />
						</g>
						<g class="layer" id="layer-L31F1N1">
							<g class="beam" id="beam-L32F1-L35F1">
								<polygon points="13002,3564 14619,3404 14619,3314 13002,3474 " />
								<polygon points="13002,3429 14619,3269 14619,3179 13002,3339 " />
								<g class="note" id="note-L32F1">
									<use xlink:href="#E0A4" x="13002" y="2790" height="720px" width="720px" />
									<g class="stem">
										<rect x="13002" y="2812" height="734" width="18" />
									</g>
									<g class="accid" id="accid-0000000105310759" />
								</g>
								<g class="note" id="note-L33F1">
									<use xlink:href="#E0A4" x="13613" y="2340" height="720px" width="720px" />
									<g class="stem">
										<rect x="13613" y="2362" height="1122" width="18" />
									</g>
									<g class="accid" id="accid-0000000658285423">
										<use xlink:href="#E262" x="13418" y="2340" height="720px" width="720px" />
									</g>
								</g>
								<g class="note" id="note-L34F1">
									<use xlink:href="#E0A4" x="13990" y="2790" height="720px" width="720px" />
									<g class="stem">
										<rect x="13990" y="2812" height="635" width="18" />
									</g>
									<g class="accid" id="accid-0000001091584351" />
								</g>
								<g class="note" id="note-L35F1">
									<use xlink:href="#E0A4" x="14601" y="1980" height="720px" width="720px" />
									<g class="stem">
										<rect x="14601" y="2002" height="1384" width="18" />
									</g>
									<g class="accid" id="accid-0000000219545022">
										<use xlink:href="#E262" x="14406" y="1980" height="720px" width="720px" />
									</g>
								</g>
							</g>
							<g class="beam" id="beam-L36F1-L39F1">
								<polygon points="14979,3366 16364,3503 16364,3413 14979,3276 " />
								<polygon points="14979,3231 16364,3368 16364,3278 14979,3141 " />
								<g class="note" id="note-L36F1">
									<use xlink:href="#E0A4" x="14979" y="2070" height="720px" width="720px" />
									<g class="stem">
										<rect x="14979" y="2092" height="1256" width="18" />
									</g>
									<g class="accid" id="accid-0000000181732217" />
								</g>
								<g class="note" id="note-L37F1">
									<use xlink:href="#E0A4" x="15590" y="1980" height="720px" width="720px" />
									<g class="stem">
										<rect x="15590" y="2002" height="1408" width="18" />
									</g>
									<g class="accid" id="accid-0000001843687542" />
								</g>
								<g class="note" id="note-L38F1">
									<use xlink:href="#E0A4" x="15968" y="2790" height="720px" width="720px" />
									<g class="stem">
										<rect x="15968" y="2812" height="635" width="18" />
									</g>
									<g class="accid" id="accid-0000000648091051" />
								</g>
								<g class="note" id="note-L39F1">
									<use xlink:href="#E0A4" x="16346" y="1980" height="720px" width="720px" />
									<g class="stem">
										<rect x="16346" y="2002" height="1483" width="18" />
									</g>
									<g class="accid" id="accid-0000000781512138" />
								</g>
							</g>
						</g>
					</g>
					<g class="tie" id="tie-L34F2-L36F2">
						<path d="M14238,1485 C14417,1583 14775,1583 14957,1485 C14775,1627 14417,1627 14238,1485" stroke="#000000" stroke-linecap="round" stroke-linejoin="round" stroke-width="9" />
					</g>
					<g class="mNum autogenerated" id="mnum-0000001485760682" />
					<g class="barLineAttr" id="bline-0000001419391542">
						<path d="M16740 2880 L16740 720" stroke="#000000" stroke-width="27" />
					</g>
				</g>
				<g class="measure" id="measure-L40">
					<g class="staff" id="staff-L40F2N1">
						<path d="M16753 720 L20002 720" stroke="#000000" stroke-width="13" />
						<path d="M16753 900 L20002 900" stroke="#000000" stroke-width="13" />
						<path d="M16753 1080 L20002 1080" stroke="#000000" stroke-width="13" />
						<path d="M16753 1260 L20002 1260" stroke="#000000" stroke-width="13" />
						<path d="M16753 1440 L20002 1440" stroke="#000000" stroke-width="13" />
						<g class="ledgerLines below">
							<path d="M18071 1620 L18350 1620" stroke="#000000" stroke-width="22" />
						</g>
						<g class="layer" id="layer-L40F2N1">
							<g class="beam" id="beam-L41F2-L44F2">
								<polygon points="17177,638 18328,752 18328,842 17177,728 " />
								<polygon points="17177,773 18328,887 18328,977 17177,863 " />
								<g class="note" id="note-L41F2">
									<use xlink:href="#E0A4" x="16969" y="1440" height="720px" width="720px" />
									<g class="stem">
										<rect x="17177" y="656" height="762" width="18" />
									</g>
									<g class="accid" id="accid-0000001513165554" />
								</g>
								<g class="note" id="note-L42F2">
									<use xlink:href="#E0A4" x="17347" y="1350" height="720px" width="720px" />
									<g class="stem">
										<rect x="17555" y="694" height="634" width="18" />
									</g>
									<g class="accid" id="accid-0000000145145796" />
								</g>
								<g class="note" id="note-L43F2">
									<use xlink:href="#E0A4" x="17724" y="1440" height="720px" width="720px" />
									<g class="stem">
										<rect x="17932" y="732" height="686" width="18" />
									</g>
									<g class="accid" id="accid-0000002070430272" />
								</g>
								<g class="note" id="note-L44F2">
									<use xlink:href="#E0A4" x="18102" y="1620" height="720px" width="720px" />
									<g class="stem">
										<rect x="18310" y="770" height="828" width="18" />
									</g>
									<g class="accid" id="accid-0000001038381482" />
								</g>
							</g>
							<g class="beam" id="beam-L45F2-L47F2">
								<polygon points="18688,765 19462,765 19462,855 18688,855 " />
								<polygon points="18688,900 19075,900 19075,990 18688,990 " />
								<g class="note" id="note-L45F2">
									<use xlink:href="#E0A4" x="18480" y="1440" height="720px" width="720px" />
									<g class="stem">
										<rect x="18688" y="783" height="635" width="18" />
									</g>
									<g class="accid" id="accid-0000000575452808" />
								</g>
								<g class="note" id="note-L46F2">
									<use xlink:href="#E0A4" x="18858" y="1530" height="720px" width="720px" />
									<g class="stem">
										<rect x="19066" y="783" height="725" width="18" />
									</g>
									<g class="accid" id="accid-0000001170580709" />
								</g>
								<g class="note" id="note-L47F2">
									<use xlink:href="#E0A4" x="19236" y="1440" height="720px" width="720px" />
									<g class="stem">
										<rect x="19444" y="783" height="635" width="18" />
									</g>
									<g class="accid" id="accid-0000000654809282" />
								</g>
							</g>
						</g>
					</g>
					<g class="staff" id="staff-L40F1N1">
						<path d="M16753 2160 L20002 2160" stroke="#000000" stroke-width="13" />
						<path d="M16753 2340 L20002 2340" stroke="#000000" stroke-width="13" />
						<path d="M16753 2520 L20002 2520" stroke="#000000" stroke-width="13" />
						<path d="M16753 2700 L20002 2700" stroke="#000000" stroke-width="13" />
						<path d="M16753 2880 L20002 2880" stroke="#000000" stroke-width="13" />
						<g class="layer" id="layer-L40F1N1">
							<g class="beam" id="beam-L41F1-L44F1">
								<polygon points="16969,3285 18120,3171 18120,3081 16969,3195 " />
								<polygon points="17962,3051 18120,3036 18120,2946 17962,2961 " />
								<g class="note" id="note-L41F1">
									<use xlink:href="#E0A4" x="16969" y="2610" height="720px" width="720px" />
									<g class="dots" id="dots-0000001163620153">
										<ellipse cx="17285" cy="2610" rx="36" ry="36" />
									</g>
									<g class="stem">
										<rect x="16969" y="2632" height="635" width="18" />
									</g>
									<g class="accid" id="accid-0000000435909256" />
								</g>
								<g class="note" id="note-L44F1">
									<use xlink:href="#E0A4" x="18102" y="2250" height="720px" width="720px" />
									<g class="stem">
										<rect x="18102" y="2272" height="881" width="18" />
									</g>
									<g class="accid" id="accid-0000000784633011" />
								</g>
							</g>
							<g class="beam" id="beam-L45F1-L48F1">
								<polygon points="18480,2926 19612,3016 19612,2926 18480,2836 " />
								<polygon points="19454,2869 19612,2881 19612,2791 19454,2779 " />
								<g class="note" id="note-L45F1">
									<use xlink:href="#E0A4" x="18480" y="2250" height="720px" width="720px" />
									<g class="dots" id="dots-0000001331866909">
										<ellipse cx="18796" cy="2250" rx="36" ry="36" />
									</g>
									<g class="stem">
										<rect x="18480" y="2272" height="636" width="18" />
									</g>
									<g class="accid" id="accid-0000000175050090" />
								</g>
								<g class="note" id="note-L48F1">
									<use xlink:href="#E0A4" x="19594" y="2340" height="720px" width="720px" />
									<g class="stem">
										<rect x="19594" y="2362" height="636" width="18" />
									</g>
									<g class="accid" id="accid-0000001402010863" />
								</g>
							</g>
						</g>
					</g>
					<g class="tie" id="tie-L44F1-L45F1">
						<path d="M18215,2115 C18309,1973 18497,1973 18593,2115 C18497,2017 18309,2017 18215,2115" stroke="#000000" stroke-linecap="round" stroke-linejoin="round" stroke-width="9" />
					</g>
					<g class="tie" id="tie-L47F2-L50F2">
						<path d="M19484,1485 C19610,1583 19862,1583 19989,1485 C19862,1627 19610,1627 19484,1485" stroke="#000000" stroke-linecap="round" stroke-linejoin="round" stroke-width="9" />
					</g>
					<g class="mNum autogenerated" id="mnum-0000001761714387" />
					<g class="barLineAttr" id="bline-0000001031066421">
						<path d="M19989 2880 L19989 720" stroke="#000000" stroke-width="27" />
					</g>
				</g>
			</g>
		</g>
	</svg>
</svg>
