<?xml version="1.0" encoding="UTF-8" standalone="no"?>
<svg width="2100.00px" height="450.00px" version="1.1" xmlns="http://www.w3.org/2000/svg" xmlns:xlink="http://www.w3.org/1999/xlink" overflow="visible">
	<desc>Engraved by Verovio 2.0.0-dev-0f0381c</desc>
	<defs>
		<symbol id="E050" viewBox="0 0 1000 1000" overflow="inherit">
			<path transform="scale(1,-1)" d="M441 -245c-23 -4 -48 -6 -76 -6c-59 0 -102 7 -130 20c-88 42 -150 93 -187 154c-26 44 -43 103 -48 176c-4 60 11 123 44 189c29 57 65 106 110 148s96 85 153 127c-3 16 -8 46 -13 92c-4 43 -5 73 -5 89c0 117 16 172 69 257c34 54 64 82 89 82c21 0 43 -30 69 -92 s39 -115 41 -159c2 -120 -19 -173 -67 -256c-13 -20 -63 -90 -98 -118c-13 -9 -25 -19 -37 -29l31 -181c8 1 18 2 28 2c58 0 102 -12 133 -35c59 -43 92 -104 98 -184c11 -135 -80 -229 -180 -270c8 -57 17 -110 25 -162c5 -31 6 -58 6 -80c0 -30 -5 -53 -14 -70 c-35 -64 -88 -99 -158 -103c-42 -3 -83 6 -124 26c-50 24 -77 59 -80 105c-2 34 5 63 20 87c18 28 45 42 79 44c51 4 99 -40 103 -87c4 -56 -30 -94 -105 -115c17 -24 51 -36 102 -36c62 0 116 43 140 85c9 16 13 41 13 74c0 20 -1 42 -5 67c-8 53 -18 106 -26 159zM461 939 c-95 0 -135 -175 -135 -286c0 -24 2 -48 5 -71c50 39 92 82 127 128c43 57 63 106 60 148c-4 54 -23 82 -57 81zM406 119l54 -326c80 27 116 88 109 184c-7 99 -62 146 -163 142zM382 117c-74 -2 -132 -50 -128 -127c2 -46 43 -99 75 -115c-3 -2 -7 -5 -10 -10 c-70 33 -116 88 -123 172c-5 73 42 135 88 170c23 17 49 29 78 36l-29 170c-21 -13 -52 -37 -92 -73c-50 -44 -86 -84 -109 -119c-49 -75 -71 -140 -67 -195c5 -68 35 -127 93 -176s125 -73 203 -73c25 0 50 3 75 9c-19 111 -36 221 -54 331z" />
		</symbol>
		<symbol id="E082" viewBox="0 0 1000 1000" overflow="inherit">
			<path transform="scale(1,-1)" d="M104 -185c-18 0 -55 -14 -65 -65h-36l-3 29c0 25 6 46 18 64c11 19 22 30 39 43l121 82l37 29c15 11 27 29 38 54c12 24 18 47 18 70c0 40 -19 88 -94 88c-25 0 -32 0 -50 -8c-14 -5 -23 -12 -26 -22c3 -9 7 -15 10 -18l24 -17c12 -7 17 -11 27 -21c5 -7 7 -16 7 -27 c0 -12 0 -57 -79 -74c-30 0 -76 26 -76 94c0 66 80 135 196 135c72 0 182 -32 182 -150c0 -53 -32 -95 -113 -133l-91 -41c-26 -11 -45 -23 -57 -37l49 7c84 0 115 -41 148 -41c20 0 33 20 39 61h35c0 -152 -68 -168 -114 -168c-17 0 -55 0 -69 7v0l-28 17 c-49 37 -69 40 -87 42z" />
		</symbol>
		<symbol id="E084" viewBox="0 0 1000 1000" overflow="inherit">
			<path transform="scale(1,-1)" d="M0 -78c84 97 114 180 134 329h170c-13 -32 -82 -132 -99 -151l-84 -97c-33 -36 -59 -63 -80 -81h162v102l127 123v-225h57v-39h-57v-34c0 -43 19 -65 57 -65v-34h-244v36c48 0 60 26 60 70v27h-203v39z" />
		</symbol>
		<symbol id="E0A4" viewBox="0 0 1000 1000" overflow="inherit">
			<path transform="scale(1,-1)" d="M0 -39c0 68 73 172 200 172c66 0 114 -37 114 -95c0 -84 -106 -171 -218 -171c-64 0 -96 30 -96 94z" />
		</symbol>
		<symbol id="E062" viewBox="0 0 1000 1000" overflow="inherit">
			<path transform="scale(1,-1)" d="M158 96c51 0 73 -14 88 -49l16 -39c0 -17 -2 -30 -7 -40c-3 -11 -10 -21 -19 -31c-17 -18 -49 -43 -84 -43c-55 0 -77 13 -112 44c-24 21 -35 55 -35 100c0 46 14 81 32 112c30 52 71 79 137 93l36 6l26 2c154 0 235 -68 274 -182c11 -32 18 -68 18 -107 c0 -103 -26 -182 -68 -250c-89 -145 -234 -230 -412 -288l-30 -5c-9 0 -14 3 -14 8c3 10 5 11 10 16c35 15 70 30 96 44l78 43c96 57 162 136 197 258c9 33 17 60 22 100c3 22 5 35 6 39c-7 69 -16 115 -23 140s-4 22 -16 40c-8 12 -19 23 -31 34c-24 21 -62 44 -118 44 c-48 0 -84 -8 -113 -28c-28 -19 -42 -44 -42 -73v-16c2 -5 3 -9 4 -11c24 22 52 39 84 39zM585 -118c0 32 23 58 57 58c18 0 33 -6 40 -18c9 -15 16 -18 16 -40c0 -9 -2 -16 -5 -21c-6 -19 -27 -37 -51 -37c-34 0 -57 26 -57 58zM642 177c31 0 56 -27 56 -58 c0 -30 -25 -58 -56 -58l-23 3c-19 7 -34 32 -34 55l3 23c9 20 28 35 54 35z" />
		</symbol>
		<symbol id="E4E7" viewBox="0 0 1000 1000" overflow="inherit">
			<path transform="scale(1,-1)" d="M133 -111c-16 38 -21 43 -64 51c-37 -4 -60 -25 -68 -60c0 -32 18 -52 55 -58c8 -6 22 -10 43 -10c31 0 62 7 82 20l-108 -324h37c72 220 143 439 215 659h-4l-10 -2l-7 -1c-15 -35 -27 -52 -59 -71c-26 -15 -56 -27 -88 -29c-11 0 -20 2 -26 6c29 3 56 25 51 56 c-15 35 -19 42 -64 48c-38 -4 -60 -23 -68 -58c0 -32 18 -52 55 -59c7 -5 22 -8 45 -8c48 0 76 7 112 25l-66 -197c-21 -23 -50 -47 -90 -47c-7 0 -15 1 -25 4c31 5 52 22 52 55z" />
		</symbol>
		<symbol id="E260" viewBox="0 0 1000 1000" overflow="inherit">
			<path transform="scale(1,-1)" d="M20 110c32 16 54 27 93 27c26 0 35 -3 54 -13c13 -7 24 -20 27 -38l4 -25c0 -28 -16 -57 -45 -89c-23 -25 -39 -44 -65 -68l-88 -79v644h20v-359zM90 106c-32 0 -48 -10 -70 -29v-194c31 31 54 59 71 84c21 32 32 59 32 84c0 9 1 16 1 20c0 14 -3 21 -11 30l-8 3z" />
		</symbol>
		<symbol id="E262" viewBox="0 0 1000 1000" overflow="inherit">
			<path transform="scale(1,-1)" d="M136 186v169h17v-164l44 14v-91l-44 -14v-165l44 12v-91l-44 -13v-155h-17v150l-76 -22v-155h-17v149l-43 -13v90l43 14v167l-43 -14v92l43 13v169h17v-163zM60 73v-167l76 22v168z" />
		</symbol>
	</defs>
	<style type="text/css">g.page-margin{font-family:Times;} g.tempo{font-weight:bold;} g.dir, g.dynam, g.mNum{font-style:italic;} g.label{font-weight:normal;}</style>
	<svg class="definition-scale" viewBox="0 0 21000 4500">
		<g class="page-margin" transform="translate(500, 500)">
			<g class="system" id="system-0000000649715871">
				<path d="M13 720 L13 2880" stroke="#000000" stroke-width="27" />
				<path d="M-32,2862 C-392,2322 58,1980 -212,1800 C121,1980 -329,2322 -32,2862" stroke="#000000" stroke-linecap="round" stroke-linejoin="round" stroke-width="18" />
				<path d="M-32,738 C-329,1278 121,1620 -212,1800 C58,1620 -392,1278 -32,738" stroke="#000000" stroke-linecap="round" stroke-linejoin="round" stroke-width="18" />
				<g class="section boundaryStart" id="section-L1F1" />
				<g class="measure" id="measure-L4">
					<g class="staff" id="staff-L4F2N1">
						<path d="M0 720 L4261 720" stroke="#000000" stroke-width="13" />
						<path d="M0 900 L4261 900" stroke="#000000" stroke-width="13" />
						<path d="M0 1080 L4261 1080" stroke="#000000" stroke-width="13" />
						<path d="M0 1260 L4261 1260" stroke="#000000" stroke-width="13" />
						<path d="M0 1440 L4261 1440" stroke="#000000" stroke-width="13" />
						<g class="clef" id="clef-0000001477852379">
							<use xlink:href="#E050" x="90" y="1260" height="720px" width="720px" />
						</g>
						<g class="meterSig" id="msig-0000000469072651">
							<use xlink:href="#E082" x="771" y="900" height="720px" width="720px" />
							<use xlink:href="#E084" x="777" y="1260" height="720px" width="720px" />
						</g>
						<g class="layer" id="layer-L4F2N1">
							<g class="beam" id="beam-L5F2-L8F2">
								<polygon points="1563,586 2665,676 2665,766 1563,676 " />
								<polygon points="2507,798 2665,811 2665,901 2507,888 " />
								<g class="note" id="note-L5F2">
									<use xlink:href="#E0A4" x="1355" y="1260" height="720px" width="720px" />
									<g class="dots" id="dots-0000000733116022">
										<ellipse cx="1671" cy="1170" rx="36" ry="36" />
									</g>
									<g class="stem">
										<rect x="1563" y="604" height="634" width="18" />
									</g>
									<g class="accid" id="accid-0000001327439856" />
								</g>
								<g class="note" id="note-L8F2">
									<use xlink:href="#E0A4" x="2439" y="1350" height="720px" width="720px" />
									<g class="stem">
										<rect x="2647" y="694" height="634" width="18" />
									</g>
									<g class="accid" id="accid-0000001183957350" />
								</g>
							</g>
							<g class="beam" id="beam-L9F2-L12F2">
								<polygon points="3005,514 4099,406 4099,496 3005,604 " />
								<polygon points="3005,649 4099,541 4099,631 3005,739 " />
								<g class="note" id="note-L9F2">
									<use xlink:href="#E0A4" x="2797" y="1440" height="720px" width="720px" />
									<g class="stem">
										<rect x="3005" y="532" height="886" width="18" />
									</g>
									<g class="accid" id="accid-0000001958349872" />
								</g>
								<g class="note" id="note-L10F2">
									<use xlink:href="#E0A4" x="3156" y="1350" height="720px" width="720px" />
									<g class="stem">
										<rect x="3364" y="496" height="832" width="18" />
									</g>
									<g class="accid" id="accid-0000001231222658" />
								</g>
								<g class="note" id="note-L11F2">
									<use xlink:href="#E0A4" x="3515" y="1170" height="720px" width="720px" />
									<g class="stem">
										<rect x="3723" y="460" height="688" width="18" />
									</g>
									<g class="accid" id="accid-0000000311535507" />
								</g>
								<g class="note" id="note-L12F2">
									<use xlink:href="#E0A4" x="3873" y="1080" height="720px" width="720px" />
									<g class="stem">
										<rect x="4081" y="424" height="634" width="18" />
									</g>
									<g class="accid" id="accid-0000001114200166" />
								</g>
							</g>
						</g>
					</g>
					<g class="staff" id="staff-L4F1N1">
						<path d="M0 2160 L4261 2160" stroke="#000000" stroke-width="13" />
						<path d="M0 2340 L4261 2340" stroke="#000000" stroke-width="13" />
						<path d="M0 2520 L4261 2520" stroke="#000000" stroke-width="13" />
						<path d="M0 2700 L4261 2700" stroke="#000000" stroke-width="13" />
						<path d="M0 2880 L4261 2880" stroke="#000000" stroke-width="13" />
						<g class="clef" id="clef-0000000291577220">
							<use xlink:href="#E062" x="90" y="2340" height="720px" width="720px" />
						</g>
						<g class="meterSig" id="msig-0000002128137733">
							<use xlink:href="#E082" x="771" y="2340" height="720px" width="720px" />
							<use xlink:href="#E084" x="777" y="2700" height="720px" width="720px" />
						</g>
						<g class="ledgerLines above">
							<path d="M3484 1980 L3763 1980" stroke="#000000" stroke-width="22" />
						</g>
						<g class="layer" id="layer-L4F1N1">
							<g class="beam" id="beam-L5F1-L8F1">
								<polygon points="1355,3375 2457,3266 2457,3176 1355,3285 " />
								<polygon points="1355,3240 2457,3131 2457,3041 1355,3150 " />
								<g class="rest" id="rest-L5F1">
									<use xlink:href="#E4E7" x="1355" y="2520" height="720px" width="720px" />
								</g>
								<g class="note" id="note-L6F1">
									<use xlink:href="#E0A4" x="1721" y="2430" height="720px" width="720px" />
									<g class="stem">
										<rect x="1721" y="2452" height="868" width="18" />
									</g>
									<g class="accid" id="accid-0000001619166585" />
								</g>
								<g class="note" id="note-L7F1">
									<use xlink:href="#E0A4" x="2080" y="2070" height="720px" width="720px" />
									<g class="stem">
										<rect x="2080" y="2092" height="1192" width="18" />
									</g>
									<g class="accid" id="accid-0000000485812288" />
								</g>
								<g class="note" id="note-L8F1">
									<use xlink:href="#E0A4" x="2439" y="2160" height="720px" width="720px" />
									<g class="stem">
										<rect x="2439" y="2182" height="1066" width="18" />
									</g>
									<g class="accid" id="accid-0000001752971281" />
								</g>
							</g>
							<g class="beam" id="beam-L9F1-L12F1">
								<polygon points="2797,2983 3891,2925 3891,2835 2797,2893 " />
								<polygon points="3524,2809 3891,2790 3891,2700 3524,2719 " />
								<g class="note" id="note-L9F1">
									<use xlink:href="#E0A4" x="2797" y="2250" height="720px" width="720px" />
									<g class="stem">
										<rect x="2797" y="2272" height="693" width="18" />
									</g>
									<g class="accid" id="accid-0000001242630950" />
								</g>
								<g class="note" id="note-L11F1">
									<use xlink:href="#E0A4" x="3515" y="1980" height="720px" width="720px" />
									<g class="stem">
										<rect x="3515" y="2002" height="924" width="18" />
									</g>
									<g class="accid" id="accid-0000001377055428" />
								</g>
								<g class="note" id="note-L12F1">
									<use xlink:href="#E0A4" x="3873" y="2250" height="720px" width="720px" />
									<g class="stem">
										<rect x="3873" y="2272" height="635" width="18" />
									</g>
									<g class="accid" id="accid-0000000321394797" />
								</g>
							</g>
						</g>
					</g>
					<g class="tie" id="tie-L12F1-L14F1">
						<path d="M4121,2205 C4201,2063 4361,2063 4444,2205 C4361,2107 4201,2107 4121,2205" stroke="#000000" stroke-linecap="round" stroke-linejoin="round" stroke-width="9" />
					</g>
					<g class="mNum autogenerated" id="mnum-0000001806767864" />
					<g class="barLineAttr" id="bline-0000000015196097">
						<path d="M4248 2880 L4248 720" stroke="#000000" stroke-width="27" />
					</g>
				</g>
				<g class="measure" id="measure-L13">
					<g class="staff" id="staff-L13F2N1">
						<path d="M4261 720 L7364 720" stroke="#000000" stroke-width="13" />
						<path d="M4261 900 L7364 900" stroke="#000000" stroke-width="13" />
						<path d="M4261 1080 L7364 1080" stroke="#000000" stroke-width="13" />
						<path d="M4261 1260 L7364 1260" stroke="#000000" stroke-width="13" />
						<path d="M4261 1440 L7364 1440" stroke="#000000" stroke-width="13" />
						<g class="ledgerLines below">
							<path d="M6946 1620 L7225 1620" stroke="#000000" stroke-width="22" />
						</g>
						<g class="layer" id="layer-L13F2N1">
							<g class="beam" id="beam-L14F2-L17F2">
								<polygon points="4466,1666 5560,1756 5560,1666 4466,1576 " />
								<polygon points="5402,1609 5560,1621 5560,1531 5402,1519 " />
								<g class="note" id="note-L14F2">
									<use xlink:href="#E0A4" x="4466" y="990" height="720px" width="720px" />
									<g class="dots" id="dots-0000002065343648">
										<ellipse cx="4782" cy="990" rx="36" ry="36" />
									</g>
									<g class="stem">
										<rect x="4466" y="1012" height="636" width="18" />
									</g>
									<g class="accid" id="accid-0000000735348362" />
								</g>
								<g class="note" id="note-L17F2">
									<use xlink:href="#E0A4" x="5542" y="1080" height="720px" width="720px" />
									<g class="stem">
										<rect x="5542" y="1102" height="636" width="18" />
									</g>
									<g class="accid" id="accid-0000000112056379" />
								</g>
							</g>
							<g class="beam" id="beam-L18F2-L21F2">
								<polygon points="6109,586 7203,694 7203,784 6109,676 " />
								<polygon points="6109,721 7203,829 7203,919 6109,811 " />
								<g class="note" id="note-L18F2">
									<use xlink:href="#E0A4" x="5901" y="1260" height="720px" width="720px" />
									<g class="stem">
										<rect x="6109" y="604" height="634" width="18" />
									</g>
									<g class="accid" id="accid-0000000769451455" />
								</g>
								<g class="note" id="note-L19F2">
									<use xlink:href="#E0A4" x="6259" y="1440" height="720px" width="720px" />
									<g class="stem">
										<rect x="6467" y="640" height="778" width="18" />
									</g>
									<g class="accid" id="accid-0000001018424821" />
								</g>
								<g class="note" id="note-L20F2">
									<use xlink:href="#E0A4" x="6618" y="1350" height="720px" width="720px" />
									<g class="stem">
										<rect x="6826" y="676" height="652" width="18" />
									</g>
									<g class="accid" id="accid-0000000739679273" />
								</g>
								<g class="note" id="note-L21F2">
									<use xlink:href="#E0A4" x="6977" y="1620" height="720px" width="720px" />
									<g class="stem">
										<rect x="7185" y="712" height="886" width="18" />
									</g>
									<g class="accid" id="accid-0000001086122552" />
								</g>
							</g>
						</g>
					</g>
					<g class="staff" id="staff-L13F1N1">
						<path d="M4261 2160 L7364 2160" stroke="#000000" stroke-width="13" />
						<path d="M4261 2340 L7364 2340" stroke="#000000" stroke-width="13" />
						<path d="M4261 2520 L7364 2520" stroke="#000000" stroke-width="13" />
						<path d="M4261 2700 L7364 2700" stroke="#000000" stroke-width="13" />
						<path d="M4261 2880 L7364 2880" stroke="#000000" stroke-width="13" />
						<g class="layer" id="layer-L13F1N1">
							<g class="beam" id="beam-L14F1-L17F1">
								<polygon points="4466,3123 5560,3231 5560,3141 4466,3033 " />
								<polygon points="4466,2988 5560,3096 5560,3006 4466,2898 " />
								<g class="note" id="note-L14F1">
									<use xlink:href="#E0A4" x="4466" y="2250" height="720px" width="720px" />
									<g class="stem">
										<rect x="4466" y="2272" height="833" width="18" />
									</g>
									<g class="accid" id="accid-0000001116895743" />
								</g>
								<g class="note" id="note-L15F1">
									<use xlink:href="#E0A4" x="4824" y="2430" height="720px" width="720px" />
									<g class="stem">
										<rect x="4824" y="2452" height="689" width="18" />
									</g>
									<g class="accid" id="accid-0000001333025242" />
								</g>
								<g class="note" id="note-L16F1">
									<use xlink:href="#E0A4" x="5183" y="2520" height="720px" width="720px" />
									<g class="stem">
										<rect x="5183" y="2542" height="635" width="18" />
									</g>
									<g class="accid" id="accid-0000001871937681" />
								</g>
								<g class="note" id="note-L17F1">
									<use xlink:href="#E0A4" x="5542" y="2430" height="720px" width="720px" />
									<g class="stem">
										<rect x="5542" y="2452" height="761" width="18" />
									</g>
									<g class="accid" id="accid-0000000216010895" />
								</g>
							</g>
							<g class="beam" id="beam-L18F1-L21F1">
								<polygon points="5901,3285 6995,3177 6995,3087 5901,3195 " />
								<polygon points="6627,3078 6995,3042 6995,2952 6627,2988 " />
								<g class="note" id="note-L18F1">
									<use xlink:href="#E0A4" x="5901" y="2610" height="720px" width="720px" />
									<g class="stem">
										<rect x="5901" y="2632" height="635" width="18" />
									</g>
									<g class="accid" id="accid-0000001963041628" />
								</g>
								<g class="note" id="note-L20F1">
									<use xlink:href="#E0A4" x="6618" y="2520" height="720px" width="720px" />
									<g class="stem">
										<rect x="6618" y="2542" height="653" width="18" />
									</g>
									<g class="accid" id="accid-0000001675209381" />
								</g>
								<g class="note" id="note-L21F1">
									<use xlink:href="#E0A4" x="6977" y="2430" height="720px" width="720px" />
									<g class="stem">
										<rect x="6977" y="2452" height="707" width="18" />
									</g>
									<g class="accid" id="accid-0000001403214477" />
								</g>
							</g>
						</g>
					</g>
					<g class="tie" id="tie-L21F1-L23F1">
						<path d="M7225,2385 C7305,2243 7465,2243 7547,2385 C7465,2287 7305,2287 7225,2385" stroke="#000000" stroke-linecap="round" stroke-linejoin="round" stroke-width="9" />
					</g>
					<g class="mNum autogenerated" id="mnum-0000001113927680" />
					<g class="barLineAttr" id="bline-0000001177345922">
						<path d="M7351 2880 L7351 720" stroke="#000000" stroke-width="27" />
					</g>
				</g>
				<g class="measure" id="measure-L22">
					<g class="staff" id="staff-L22F2N1">
						<path d="M7364 720 L11802 720" stroke="#000000" stroke-width="13" />
						<path d="M7364 900 L11802 900" stroke="#000000" stroke-width="13" />
						<path d="M7364 1080 L11802 1080" stroke="#000000" stroke-width="13" />
						<path d="M7364 1260 L11802 1260" stroke="#000000" stroke-width="13" />
						<path d="M7364 1440 L11802 1440" stroke="#000000" stroke-width="13" />
						<g class="layer" id="layer-L22F2N1">
							<g class="beam" id="beam-L23F2-L26F2">
								<polygon points="7777,586 9538,676 9538,766 7777,676 " />
								<polygon points="9380,803 9538,811 9538,901 9380,893 " />
								<g class="note" id="note-L23F2">
									<use xlink:href="#E0A4" x="7569" y="1260" height="720px" width="720px" />
									<g class="dots" id="dots-0000001880865880">
										<ellipse cx="7885" cy="1170" rx="36" ry="36" />
									</g>
									<g class="stem">
										<rect x="7777" y="604" height="634" width="18" />
									</g>
									<g class="accid" id="accid-0000000555271219" />
								</g>
								<g class="note" id="note-L26F2">
									<use xlink:href="#E0A4" x="9312" y="1350" height="720px" width="720px" />
									<g class="stem">
										<rect x="9520" y="694" height="634" width="18" />
									</g>
									<g class="accid" id="accid-0000002076229422" />
								</g>
							</g>
							<g class="beam" id="beam-L27F2-L30F2">
								<polygon points="10101,558 11640,406 11640,496 10101,648 " />
								<polygon points="10101,693 11640,541 11640,631 10101,783 " />
								<g class="note" id="note-L27F2">
									<use xlink:href="#E0A4" x="9893" y="1440" height="720px" width="720px" />
									<g class="stem">
										<rect x="10101" y="576" height="842" width="18" />
									</g>
									<g class="accid" id="accid-0000000775494159">
										<use xlink:href="#E260" x="9697" y="1440" height="720px" width="720px" />
									</g>
								</g>
								<g class="note" id="note-L28F2">
									<use xlink:href="#E0A4" x="10252" y="1350" height="720px" width="720px" />
									<g class="stem">
										<rect x="10460" y="540" height="788" width="18" />
									</g>
									<g class="accid" id="accid-0000000843542049" />
								</g>
								<g class="note" id="note-L29F2">
									<use xlink:href="#E0A4" x="10833" y="1170" height="720px" width="720px" />
									<g class="stem">
										<rect x="11041" y="482" height="666" width="18" />
									</g>
									<g class="accid" id="accid-0000000711277416">
										<use xlink:href="#E260" x="10637" y="1170" height="720px" width="720px" />
									</g>
								</g>
								<g class="note" id="note-L30F2">
									<use xlink:href="#E0A4" x="11414" y="1080" height="720px" width="720px" />
									<g class="stem">
										<rect x="11622" y="424" height="634" width="18" />
									</g>
									<g class="accid" id="accid-0000000122034458">
										<use xlink:href="#E260" x="11218" y="1080" height="720px" width="720px" />
									</g>
								</g>
							</g>
						</g>
					</g>
					<g class="staff" id="staff-L22F1N1">
						<path d="M7364 2160 L11802 2160" stroke="#000000" stroke-width="13" />
						<path d="M7364 2340 L11802 2340" stroke="#000000" stroke-width="13" />
						<path d="M7364 2520 L11802 2520" stroke="#000000" stroke-width="13" />
						<path d="M7364 2700 L11802 2700" stroke="#000000" stroke-width="13" />
						<path d="M7364 2880 L11802 2880" stroke="#000000" stroke-width="13" />
						<g class="ledgerLines above">
							<path d="M10802 1980 L11081 1980" stroke="#000000" stroke-width="22" />
						</g>
						<g class="layer" id="layer-L22F1N1">
							<g class="beam" id="beam-L23F1-L26F1">
								<polygon points="7569,3164 9330,2989 9330,2899 7569,3074 " />
								<polygon points="7569,3029 9330,2854 9330,2764 7569,2939 " />
								<g class="note" id="note-L23F1">
									<use xlink:href="#E0A4" x="7569" y="2430" height="720px" width="720px" />
									<g class="stem">
										<rect x="7569" y="2452" height="694" width="18" />
									</g>
									<g class="accid" id="accid-0000000124020173" />
								</g>
								<g class="note" id="note-L24F1">
									<use xlink:href="#E0A4" x="8150" y="2430" height="720px" width="720px" />
									<g class="stem">
										<rect x="8150" y="2452" height="635" width="18" />
									</g>
									<g class="accid" id="accid-0000000518730744">
										<use xlink:href="#E260" x="7954" y="2430" height="720px" width="720px" />
									</g>
								</g>
								<g class="note" id="note-L25F1">
									<use xlink:href="#E0A4" x="8731" y="2070" height="720px" width="720px" />
									<g class="stem">
										<rect x="8731" y="2092" height="937" width="18" />
									</g>
									<g class="accid" id="accid-0000001519600238">
										<use xlink:href="#E260" x="8535" y="2070" height="720px" width="720px" />
									</g>
								</g>
								<g class="note" id="note-L26F1">
									<use xlink:href="#E0A4" x="9312" y="2160" height="720px" width="720px" />
									<g class="stem">
										<rect x="9312" y="2182" height="789" width="18" />
									</g>
									<g class="accid" id="accid-0000000361526724">
										<use xlink:href="#E260" x="9116" y="2160" height="720px" width="720px" />
									</g>
								</g>
							</g>
							<g class="beam" id="beam-L27F1-L30F1">
								<polygon points="9893,2966 11432,2925 11432,2835 9893,2876 " />
								<polygon points="10842,2805 11432,2790 11432,2700 10842,2715 " />
								<g class="note" id="note-L27F1">
									<use xlink:href="#E0A4" x="9893" y="2250" height="720px" width="720px" />
									<g class="stem">
										<rect x="9893" y="2272" height="676" width="18" />
									</g>
									<g class="accid" id="accid-0000001653852000" />
								</g>
								<g class="note" id="note-L29F1">
									<use xlink:href="#E0A4" x="10833" y="1980" height="720px" width="720px" />
									<g class="stem">
										<rect x="10833" y="2002" height="920" width="18" />
									</g>
									<g class="accid" id="accid-0000002139219649" />
								</g>
								<g class="note" id="note-L30F1">
									<use xlink:href="#E0A4" x="11414" y="2250" height="720px" width="720px" />
									<g class="stem">
										<rect x="11414" y="2272" height="635" width="18" />
									</g>
									<g class="accid" id="accid-0000002108529261" />
								</g>
							</g>
						</g>
					</g>
					<g class="tie" id="tie-L30F1-L32F1">
						<path d="M11662,2205 C11742,2063 11902,2063 11985,2205 C11902,2107 11742,2107 11662,2205" stroke="#000000" stroke-linecap="round" stroke-linejoin="round" stroke-width="9" />
					</g>
					<g class="mNum autogenerated" id="mnum-0000000383645119" />
					<g class="barLineAttr" id="bline-0000000286096052">
						<path d="M11789 2880 L11789 720" stroke="#000000" stroke-width="27" />
					</g>
				</g>
				<g class="measure" id="measure-L31">
					<g class="staff" id="staff-L31F2N1">
						<path d="M11802 720 L15350 720" stroke="#000000" stroke-width="13" />
						<path d="M11802 900 L15350 900" stroke="#000000" stroke-width="13" />
						<path d="M11802 1080 L15350 1080" stroke="#000000" stroke-width="13" />
						<path d="M11802 1260 L15350 1260" stroke="#000000" stroke-width="13" />
						<path d="M11802 1440 L15350 1440" stroke="#000000" stroke-width="13" />
						<g class="ledgerLines below">
							<path d="M14931 1620 L15210 1620" stroke="#000000" stroke-width="22" />
						</g>
						<g class="layer" id="layer-L31F2N1">
							<g class="beam" id="beam-L32F2-L35F2">
								<polygon points="12007,1666 13323,1756 13323,1666 12007,1576 " />
								<polygon points="13165,1611 13323,1621 13323,1531 13165,1521 " />
								<g class="note" id="note-L32F2">
									<use xlink:href="#E0A4" x="12007" y="990" height="720px" width="720px" />
									<g class="dots" id="dots-0000000194757519">
										<ellipse cx="12323" cy="990" rx="36" ry="36" />
									</g>
									<g class="stem">
										<rect x="12007" y="1012" height="636" width="18" />
									</g>
									<g class="accid" id="accid-0000001787317220" />
								</g>
								<g class="note" id="note-L35F2">
									<use xlink:href="#E0A4" x="13305" y="1080" height="720px" width="720px" />
									<g class="stem">
										<rect x="13305" y="1102" height="636" width="18" />
									</g>
									<g class="accid" id="accid-0000001780248589">
										<use xlink:href="#E260" x="13109" y="1080" height="720px" width="720px" />
									</g>
								</g>
							</g>
							<g class="beam" id="beam-L36F2-L39F2">
								<polygon points="13872,582 15188,712 15188,802 13872,672 " />
								<polygon points="13872,717 15188,847 15188,937 13872,807 " />
								<g class="note" id="note-L36F2">
									<use xlink:href="#E0A4" x="13664" y="1260" height="720px" width="720px" />
									<g class="stem">
										<rect x="13872" y="600" height="638" width="18" />
									</g>
									<g class="accid" id="accid-0000001457278721" />
								</g>
								<g class="note" id="note-L37F2">
									<use xlink:href="#E0A4" x="14245" y="1440" height="720px" width="720px" />
									<g class="stem">
										<rect x="14453" y="658" height="760" width="18" />
									</g>
									<g class="accid" id="accid-0000001435468836">
										<use xlink:href="#E260" x="14049" y="1440" height="720px" width="720px" />
									</g>
								</g>
								<g class="note" id="note-L38F2">
									<use xlink:href="#E0A4" x="14604" y="1350" height="720px" width="720px" />
									<g class="stem">
										<rect x="14812" y="694" height="634" width="18" />
									</g>
									<g class="accid" id="accid-0000001365553599" />
								</g>
								<g class="note" id="note-L39F2">
									<use xlink:href="#E0A4" x="14962" y="1620" height="720px" width="720px" />
									<g class="stem">
										<rect x="15170" y="730" height="868" width="18" />
									</g>
									<g class="accid" id="accid-0000000007301851" />
								</g>
							</g>
						</g>
					</g>
					<g class="staff" id="staff-L31F1N1">
						<path d="M11802 2160 L15350 2160" stroke="#000000" stroke-width="13" />
						<path d="M11802 2340 L15350 2340" stroke="#000000" stroke-width="13" />
						<path d="M11802 2520 L15350 2520" stroke="#000000" stroke-width="13" />
						<path d="M11802 2700 L15350 2700" stroke="#000000" stroke-width="13" />
						<path d="M11802 2880 L15350 2880" stroke="#000000" stroke-width="13" />
						<g class="layer" id="layer-L31F1N1">
							<g class="beam" id="beam-L32F1-L35F1">
								<polygon points="12007,3101 13323,3231 13323,3141 12007,3011 " />
								<polygon points="12007,2966 13323,3096 13323,3006 12007,2876 " />
								<g class="note" id="note-L32F1">
									<use xlink:href="#E0A4" x="12007" y="2250" height="720px" width="720px" />
									<g class="stem">
										<rect x="12007" y="2272" height="811" width="18" />
									</g>
									<g class="accid" id="accid-0000002115841088" />
								</g>
								<g class="note" id="note-L33F1">
									<use xlink:href="#E0A4" x="12588" y="2430" height="720px" width="720px" />
									<g class="stem">
										<rect x="12588" y="2452" height="690" width="18" />
									</g>
									<g class="accid" id="accid-0000001670635680">
										<use xlink:href="#E260" x="12392" y="2430" height="720px" width="720px" />
									</g>
								</g>
								<g class="note" id="note-L34F1">
									<use xlink:href="#E0A4" x="12947" y="2520" height="720px" width="720px" />
									<g class="stem">
										<rect x="12947" y="2542" height="635" width="18" />
									</g>
									<g class="accid" id="accid-0000000301194186" />
								</g>
								<g class="note" id="note-L35F1">
									<use xlink:href="#E0A4" x="13305" y="2430" height="720px" width="720px" />
									<g class="stem">
										<rect x="13305" y="2452" height="761" width="18" />
									</g>
									<g class="accid" id="accid-0000000060175515" />
								</g>
							</g>
							<g class="beam" id="beam-L36F1-L39F1">
								<polygon points="13664,3289 14980,3159 14980,3069 13664,3199 " />
								<polygon points="14613,3060 14980,3024 14980,2934 14613,2970 " />
								<g class="note" id="note-L36F1">
									<use xlink:href="#E0A4" x="13664" y="2610" height="720px" width="720px" />
									<g class="stem">
										<rect x="13664" y="2632" height="639" width="18" />
									</g>
									<g class="accid" id="accid-0000000858622062" />
								</g>
								<g class="note" id="note-L38F1">
									<use xlink:href="#E0A4" x="14604" y="2520" height="720px" width="720px" />
									<g class="stem">
										<rect x="14604" y="2542" height="635" width="18" />
									</g>
									<g class="accid" id="accid-0000001903539276" />
								</g>
								<g class="note" id="note-L39F1">
									<use xlink:href="#E0A4" x="14962" y="2430" height="720px" width="720px" />
									<g class="stem">
										<rect x="14962" y="2452" height="689" width="18" />
									</g>
									<g class="accid" id="accid-0000000018648862" />
								</g>
							</g>
						</g>
					</g>
					<g class="tie" id="tie-L39F1-L41F1">
						<path d="M15210,2385 C15346,2243 15618,2243 15754,2385 C15618,2287 15346,2287 15210,2385" stroke="#000000" stroke-linecap="round" stroke-linejoin="round" stroke-width="9" />
					</g>
					<g class="mNum autogenerated" id="mnum-0000000827171621" />
					<g class="barLineAttr" id="bline-0000000300783362">
						<path d="M15337 2880 L15337 720" stroke="#000000" stroke-width="27" />
					</g>
				</g>
				<g class="measure" id="measure-L40">
					<g class="staff" id="staff-L40F2N1">
						<path d="M15350 720 L20002 720" stroke="#000000" stroke-width="13" />
						<path d="M15350 900 L20002 900" stroke="#000000" stroke-width="13" />
						<path d="M15350 1080 L20002 1080" stroke="#000000" stroke-width="13" />
						<path d="M15350 1260 L20002 1260" stroke="#000000" stroke-width="13" />
						<path d="M15350 1440 L20002 1440" stroke="#000000" stroke-width="13" />
						<g class="layer" id="layer-L40F2N1">
							<g class="beam" id="beam-L41F2-L44F2">
								<polygon points="15984,676 17742,766 17742,856 15984,766 " />
								<polygon points="17584,893 17742,901 17742,991 17584,983 " />
								<g class="note" id="note-L41F2">
									<use xlink:href="#E0A4" x="15776" y="1350" height="720px" width="720px" />
									<g class="dots" id="dots-0000001015592632">
										<ellipse cx="16092" cy="1350" rx="36" ry="36" />
									</g>
									<g class="stem">
										<rect x="15984" y="694" height="634" width="18" />
									</g>
									<g class="accid" id="accid-0000001404969088">
										<use xlink:href="#E262" x="15581" y="1350" height="720px" width="720px" />
									</g>
								</g>
								<g class="note" id="note-L44F2">
									<use xlink:href="#E0A4" x="17516" y="1440" height="720px" width="720px" />
									<g class="stem">
										<rect x="17724" y="784" height="634" width="18" />
									</g>
									<g class="accid" id="accid-0000000526222590">
										<use xlink:href="#E262" x="17321" y="1440" height="720px" width="720px" />
									</g>
								</g>
							</g>
							<g class="beam" id="beam-L45F2-L48F2">
								<polygon points="18304,648 19841,496 19841,586 18304,738 " />
								<polygon points="18304,783 19841,631 19841,721 18304,873 " />
								<g class="note" id="note-L45F2">
									<use xlink:href="#E0A4" x="18096" y="1530" height="720px" width="720px" />
									<g class="stem">
										<rect x="18304" y="666" height="842" width="18" />
									</g>
									<g class="accid" id="accid-0000001424328987">
										<use xlink:href="#E262" x="17901" y="1530" height="720px" width="720px" />
									</g>
								</g>
								<g class="note" id="note-L46F2">
									<use xlink:href="#E0A4" x="18455" y="1440" height="720px" width="720px" />
									<g class="stem">
										<rect x="18663" y="630" height="788" width="18" />
									</g>
									<g class="accid" id="accid-0000001155725415" />
								</g>
								<g class="note" id="note-L47F2">
									<use xlink:href="#E0A4" x="19035" y="1260" height="720px" width="720px" />
									<g class="stem">
										<rect x="19243" y="572" height="666" width="18" />
									</g>
									<g class="accid" id="accid-0000001696389427">
										<use xlink:href="#E262" x="18840" y="1260" height="720px" width="720px" />
									</g>
								</g>
								<g class="note" id="note-L48F2">
									<use xlink:href="#E0A4" x="19615" y="1170" height="720px" width="720px" />
									<g class="stem">
										<rect x="19823" y="514" height="634" width="18" />
									</g>
									<g class="accid" id="accid-0000000122477812">
										<use xlink:href="#E262" x="19420" y="1170" height="720px" width="720px" />
									</g>
								</g>
							</g>
						</g>
					</g>
					<g class="staff" id="staff-L40F1N1">
						<path d="M15350 2160 L20002 2160" stroke="#000000" stroke-width="13" />
						<path d="M15350 2340 L20002 2340" stroke="#000000" stroke-width="13" />
						<path d="M15350 2520 L20002 2520" stroke="#000000" stroke-width="13" />
						<path d="M15350 2700 L20002 2700" stroke="#000000" stroke-width="13" />
						<path d="M15350 2880 L20002 2880" stroke="#000000" stroke-width="13" />
						<g class="layer" id="layer-L40F1N1">
							<g class="beam" id="beam-L41F1-L44F1">
								<polygon points="15776,3253 17534,3079 17534,2989 15776,3163 " />
								<polygon points="15776,3118 17534,2944 17534,2854 15776,3028 " />
								<g class="note" id="note-L41F1">
									<use xlink:href="#E0A4" x="15776" y="2430" height="720px" width="720px" />
									<g class="stem">
										<rect x="15776" y="2452" height="783" width="18" />
									</g>
									<g class="accid" id="accid-0000001167215405" />
								</g>
								<g class="note" id="note-L42F1">
									<use xlink:href="#E0A4" x="16356" y="2520" height="720px" width="720px" />
									<g class="stem">
										<rect x="16356" y="2542" height="635" width="18" />
									</g>
									<g class="accid" id="accid-0000001418047841">
										<use xlink:href="#E262" x="16161" y="2520" height="720px" width="720px" />
									</g>
								</g>
								<g class="note" id="note-L43F1">
									<use xlink:href="#E0A4" x="16936" y="2160" height="720px" width="720px" />
									<g class="stem">
										<rect x="16936" y="2182" height="937" width="18" />
									</g>
									<g class="accid" id="accid-0000001044390637">
										<use xlink:href="#E262" x="16741" y="2160" height="720px" width="720px" />
									</g>
								</g>
								<g class="note" id="note-L44F1">
									<use xlink:href="#E0A4" x="17516" y="2250" height="720px" width="720px" />
									<g class="stem">
										<rect x="17516" y="2272" height="789" width="18" />
									</g>
									<g class="accid" id="accid-0000000748210015">
										<use xlink:href="#E262" x="17321" y="2250" height="720px" width="720px" />
									</g>
								</g>
							</g>
							<g class="beam" id="beam-L45F1-L48F1">
								<polygon points="18096,3057 19633,3015 19633,2925 18096,2967 " />
								<polygon points="19044,2896 19633,2880 19633,2790 19044,2806 " />
								<g class="note" id="note-L45F1">
									<use xlink:href="#E0A4" x="18096" y="2340" height="720px" width="720px" />
									<g class="stem">
										<rect x="18096" y="2362" height="677" width="18" />
									</g>
									<g class="accid" id="accid-0000000974153652">
										<use xlink:href="#E262" x="17901" y="2340" height="720px" width="720px" />
									</g>
								</g>
								<g class="note" id="note-L47F1">
									<use xlink:href="#E0A4" x="19035" y="2070" height="720px" width="720px" />
									<g class="stem">
										<rect x="19035" y="2092" height="921" width="18" />
									</g>
									<g class="accid" id="accid-0000001493934996" />
								</g>
								<g class="note" id="note-L48F1">
									<use xlink:href="#E0A4" x="19615" y="2340" height="720px" width="720px" />
									<g class="stem">
										<rect x="19615" y="2362" height="635" width="18" />
									</g>
									<g class="accid" id="accid-0000000007537469" />
								</g>
							</g>
						</g>
					</g>
					<g class="tie" id="tie-L48F1-L50F1">
						<path d="M19728,2205 C19793,2063 19923,2063 19989,2205 C19923,2107 19793,2107 19728,2205" stroke="#000000" stroke-linecap="round" stroke-linejoin="round" stroke-width="9" />
					</g>
					<g class="mNum autogenerated" id="mnum-0000000947335354" />
					<g class="barLineAttr" id="bline-0000001779793332">
						<path d="M19989 2880 L19989 720" stroke="#000000" stroke-width="27" />
					</g>
				</g>
			</g>
		</g>
	</svg>
</svg>
