<?xml version="1.0" encoding="UTF-8" standalone="no"?>
<svg width="2100.00px" height="450.00px" version="1.1" xmlns="http://www.w3.org/2000/svg" xmlns:xlink="http://www.w3.org/1999/xlink" overflow="visible">
	<desc>Engraved by Verovio 2.0.0-dev-0f0381c</desc>
	<defs>
		<symbol id="E050" viewBox="0 0 1000 1000" overflow="inherit">
			<path transform="scale(1,-1)" d="M441 -245c-23 -4 -48 -6 -76 -6c-59 0 -102 7 -130 20c-88 42 -150 93 -187 154c-26 44 -43 103 -48 176c-4 60 11 123 44 189c29 57 65 106 110 148s96 85 153 127c-3 16 -8 46 -13 92c-4 43 -5 73 -5 89c0 117 16 172 69 257c34 54 64 82 89 82c21 0 43 -30 69 -92 s39 -115 41 -159c2 -120 -19 -173 -67 -256c-13 -20 -63 -90 -98 -118c-13 -9 -25 -19 -37 -29l31 -181c8 1 18 2 28 2c58 0 102 -12 133 -35c59 -43 92 -104 98 -184c11 -135 -80 -229 -180 -270c8 -57 17 -110 25 -162c5 -31 6 -58 6 -80c0 -30 -5 -53 -14 -70 c-35 -64 -88 -99 -158 -103c-42 -3 -83 6 -124 26c-50 24 -77 59 -80 105c-2 34 5 63 20 87c18 28 45 42 79 44c51 4 99 -40 103 -87c4 -56 -30 -94 -105 -115c17 -24 51 -36 102 -36c62 0 116 43 140 85c9 16 13 41 13 74c0 20 -1 42 -5 67c-8 53 -18 106 -26 159zM461 939 c-95 0 -135 -175 -135 -286c0 -24 2 -48 5 -71c50 39 92 82 127 128c43 57 63 106 60 148c-4 54 -23 82 -57 81zM406 119l54 -326c80 27 116 88 109 184c-7 99 -62 146 -163 142zM382 117c-74 -2 -132 -50 -128 -127c2 -46 43 -99 75 -115c-3 -2 -7 -5 -10 -10 c-70 33 -116 88 -123 172c-5 73 42 135 88 170c23 17 49 29 78 36l-29 170c-21 -13 -52 -37 -92 -73c-50 -44 -86 -84 -109 -119c-49 -75 -71 -140 -67 -195c5 -68 35 -127 93 -176s125 -73 203 -73c25 0 50 3 75 9c-19 111 -36 221 -54 331z" />
		</symbol>
		<symbol id="E082" viewBox="0 0 1000 1000" overflow="inherit">
			<path transform="scale(1,-1)" d="M104 -185c-18 0 -55 -14 -65 -65h-36l-3 29c0 25 6 46 18 64c11 19 22 30 39 43l121 82l37 29c15 11 27 29 38 54c12 24 18 47 18 70c0 40 -19 88 -94 88c-25 0 -32 0 -50 -8c-14 -5 -23 -12 -26 -22c3 -9 7 -15 10 -18l24 -17c12 -7 17 -11 27 -21c5 -7 7 -16 7 -27 c0 -12 0 -57 -79 -74c-30 0 -76 26 -76 94c0 66 80 135 196 135c72 0 182 -32 182 -150c0 -53 -32 -95 -113 -133l-91 -41c-26 -11 -45 -23 -57 -37l49 7c84 0 115 -41 148 -41c20 0 33 20 39 61h35c0 -152 -68 -168 -114 -168c-17 0 -55 0 -69 7v0l-28 17 c-49 37 -69 40 -87 42z" />
		</symbol>
		<symbol id="E084" viewBox="0 0 1000 1000" overflow="inherit">
			<path transform="scale(1,-1)" d="M0 -78c84 97 114 180 134 329h170c-13 -32 -82 -132 -99 -151l-84 -97c-33 -36 -59 -63 -80 -81h162v102l127 123v-225h57v-39h-57v-34c0 -43 19 -65 57 -65v-34h-244v36c48 0 60 26 60 70v27h-203v39z" />
		</symbol>
		<symbol id="E4E5" viewBox="0 0 1000 1000" overflow="inherit">
			<path transform="scale(1,-1)" d="M107 292c-13 24 -30 49 -52 71c-1 1 0 2 0 3l-2 2c3 3 4 4 6 4c12 0 26 -7 40 -20s44 -40 89 -81c26 -24 28 -29 46 -47c4 -4 8 -9 10 -14c6 -8 8 -16 8 -27c0 -19 -12 -40 -36 -61c-28 -23 -49 -38 -61 -73c-4 -11 -7 -27 -10 -50c13 -43 34 -83 59 -121 c31 -47 59 -79 101 -129c-8 0 -26 7 -54 20l-62 29l-21 6l-23 1c-25 0 -45 -10 -60 -30l-4 -14l-1 -12c0 -33 20 -56 39 -78c8 -9 17 -18 26 -26c17 -15 27 -24 28 -30l-3 -3c-11 5 -19 10 -25 15c-9 3 -37 21 -45 26c-24 14 -45 32 -63 51c-19 21 -37 44 -37 71 c0 63 27 95 80 95c41 0 86 -18 136 -52c-19 26 -37 48 -55 66c-23 23 -48 44 -73 65c-28 23 -47 40 -58 53s-17 26 -18 39c75 64 113 125 113 183c0 27 -7 48 -18 68z" />
		</symbol>
		<symbol id="E0A4" viewBox="0 0 1000 1000" overflow="inherit">
			<path transform="scale(1,-1)" d="M0 -39c0 68 73 172 200 172c66 0 114 -37 114 -95c0 -84 -106 -171 -218 -171c-64 0 -96 30 -96 94z" />
		</symbol>
		<symbol id="E062" viewBox="0 0 1000 1000" overflow="inherit">
			<path transform="scale(1,-1)" d="M158 96c51 0 73 -14 88 -49l16 -39c0 -17 -2 -30 -7 -40c-3 -11 -10 -21 -19 -31c-17 -18 -49 -43 -84 -43c-55 0 -77 13 -112 44c-24 21 -35 55 -35 100c0 46 14 81 32 112c30 52 71 79 137 93l36 6l26 2c154 0 235 -68 274 -182c11 -32 18 -68 18 -107 c0 -103 -26 -182 -68 -250c-89 -145 -234 -230 -412 -288l-30 -5c-9 0 -14 3 -14 8c3 10 5 11 10 16c35 15 70 30 96 44l78 43c96 57 162 136 197 258c9 33 17 60 22 100c3 22 5 35 6 39c-7 69 -16 115 -23 140s-4 22 -16 40c-8 12 -19 23 -31 34c-24 21 -62 44 -118 44 c-48 0 -84 -8 -113 -28c-28 -19 -42 -44 -42 -73v-16c2 -5 3 -9 4 -11c24 22 52 39 84 39zM585 -118c0 32 23 58 57 58c18 0 33 -6 40 -18c9 -15 16 -18 16 -40c0 -9 -2 -16 -5 -21c-6 -19 -27 -37 -51 -37c-34 0 -57 26 -57 58zM642 177c31 0 56 -27 56 -58 c0 -30 -25 -58 -56 -58l-23 3c-19 7 -34 32 -34 55l3 23c9 20 28 35 54 35z" />
		</symbol>
		<symbol id="E260" viewBox="0 0 1000 1000" overflow="inherit">
			<path transform="scale(1,-1)" d="M20 110c32 16 54 27 93 27c26 0 35 -3 54 -13c13 -7 24 -20 27 -38l4 -25c0 -28 -16 -57 -45 -89c-23 -25 -39 -44 -65 -68l-88 -79v644h20v-359zM90 106c-32 0 -48 -10 -70 -29v-194c31 31 54 59 71 84c21 32 32 59 32 84c0 9 1 16 1 20c0 14 -3 21 -11 30l-8 3z" />
		</symbol>
		<symbol id="E262" viewBox="0 0 1000 1000" overflow="inherit">
			<path transform="scale(1,-1)" d="M136 186v169h17v-164l44 14v-91l-44 -14v-165l44 12v-91l-44 -13v-155h-17v150l-76 -22v-155h-17v149l-43 -13v90l43 14v167l-43 -14v92l43 13v169h17v-163zM60 73v-167l76 22v168z" />
		</symbol>
	</defs>
	<style type="text/css">g.page-margin{font-family:Times;} g.tempo{font-weight:bold;} g.dir, g.dynam, g.mNum{font-style:italic;} g.label{font-weight:normal;}</style>
	<svg class="definition-scale" viewBox="0 0 21000 4500">
		<g class="page-margin" transform="translate(500, 500)">
			<g class="system" id="system-0000000420095916">
				<path d="M13 720 L13 2944" stroke="#000000" stroke-width="27" />
				<path d="M-32,2926 C-392,2386 58,2012 -212,1832 C121,2012 -329,2386 -32,2926" stroke="#000000" stroke-linecap="round" stroke-linejoin="round" stroke-width="18" />
				<path d="M-32,738 C-329,1278 121,1652 -212,1832 C58,1652 -392,1278 -32,738" stroke="#000000" stroke-linecap="round" stroke-linejoin="round" stroke-width="18" />
				<g class="section boundaryStart" id="section-L1F1" />
				<g class="measure" id="measure-L4">
					<g class="staff" id="staff-L4F2N1">
						<path d="M0 720 L3822 720" stroke="#000000" stroke-width="13" />
						<path d="M0 900 L3822 900" stroke="#000000" stroke-width="13" />
						<path d="M0 1080 L3822 1080" stroke="#000000" stroke-width="13" />
						<path d="M0 1260 L3822 1260" stroke="#000000" stroke-width="13" />
						<path d="M0 1440 L3822 1440" stroke="#000000" stroke-width="13" />
						<g class="clef" id="clef-0000000004276621">
							<use xlink:href="#E050" x="90" y="1260" height="720px" width="720px" />
						</g>
						<g class="meterSig" id="msig-0000001010208796">
							<use xlink:href="#E082" x="771" y="900" height="720px" width="720px" />
							<use xlink:href="#E084" x="777" y="1260" height="720px" width="720px" />
						</g>
						<g class="ledgerLines below">
							<path d="M3102 1620 L3381 1620" stroke="#000000" stroke-width="22" />
						</g>
						<g class="layer" id="layer-L4F2N1">
							<g class="rest" id="rest-L5F2">
								<use xlink:href="#E4E5" x="1339" y="1080" height="720px" width="720px" />
							</g>
							<g class="beam" id="beam-L9F2-L11F2">
								<polygon points="2870,586 3690,666 3690,756 2870,676 " />
								<polygon points="3350,768 3690,801 3690,891 3350,858 " />
								<g class="note" id="note-L9F2">
									<use xlink:href="#E0A4" x="2662" y="1260" height="720px" width="720px" />
									<g class="stem">
										<rect x="2870" y="604" height="634" width="18" />
									</g>
									<g class="accid" id="accid-0000000870452246" />
								</g>
								<g class="note" id="note-L10F2">
									<use xlink:href="#E0A4" x="3133" y="1620" height="720px" width="720px" />
									<g class="stem">
										<rect x="3341" y="651" height="947" width="18" />
									</g>
									<g class="accid" id="accid-0000000264336393" />
								</g>
								<g class="note" id="note-L11F2">
									<use xlink:href="#E0A4" x="3464" y="1530" height="720px" width="720px" />
									<g class="stem">
										<rect x="3672" y="684" height="824" width="18" />
									</g>
									<g class="accid" id="accid-0000000989909929" />
								</g>
							</g>
						</g>
					</g>
					<g class="staff" id="staff-L4F1N1">
						<path d="M0 2224 L3822 2224" stroke="#000000" stroke-width="13" />
						<path d="M0 2404 L3822 2404" stroke="#000000" stroke-width="13" />
						<path d="M0 2584 L3822 2584" stroke="#000000" stroke-width="13" />
						<path d="M0 2764 L3822 2764" stroke="#000000" stroke-width="13" />
						<path d="M0 2944 L3822 2944" stroke="#000000" stroke-width="13" />
						<g class="clef" id="clef-0000000573521190">
							<use xlink:href="#E062" x="90" y="2404" height="720px" width="720px" />
						</g>
						<g class="meterSig" id="msig-0000001264032594">
							<use xlink:href="#E082" x="771" y="2404" height="720px" width="720px" />
							<use xlink:href="#E084" x="777" y="2764" height="720px" width="720px" />
						</g>
						<g class="layer" id="layer-L4F1N1">
							<g class="beam" id="beam-L5F1-L8F1">
								<polygon points="1547,1919 2557,1820 2557,1910 1547,2009 " />
								<polygon points="1547,2054 2557,1955 2557,2045 1547,2144 " />
								<g class="note" id="note-L5F1">
									<use xlink:href="#E0A4" x="1339" y="2674" height="720px" width="720px" />
									<g class="stem">
										<rect x="1547" y="1937" height="715" width="18" />
									</g>
									<g class="accid" id="accid-0000000344041004" />
								</g>
								<g class="note" id="note-L6F1">
									<use xlink:href="#E0A4" x="1670" y="2584" height="720px" width="720px" />
									<g class="stem">
										<rect x="1878" y="1904" height="658" width="18" />
									</g>
									<g class="accid" id="accid-0000001496182372" />
								</g>
								<g class="note" id="note-L7F1">
									<use xlink:href="#E0A4" x="2000" y="2674" height="720px" width="720px" />
									<g class="stem">
										<rect x="2208" y="1871" height="781" width="18" />
									</g>
									<g class="accid" id="accid-0000001871909835" />
								</g>
								<g class="note" id="note-L8F1">
									<use xlink:href="#E0A4" x="2331" y="2494" height="720px" width="720px" />
									<g class="stem">
										<rect x="2539" y="1838" height="634" width="18" />
									</g>
									<g class="accid" id="accid-0000000642826202" />
								</g>
							</g>
							<g class="beam" id="beam-L9F1-L11F1">
								<polygon points="2662,3268 3482,3349 3482,3259 2662,3178 " />
								<polygon points="3142,3181 3482,3214 3482,3124 3142,3091 " />
								<g class="note" id="note-L9F1">
									<use xlink:href="#E0A4" x="2662" y="2494" height="720px" width="720px" />
									<g class="stem">
										<rect x="2662" y="2516" height="734" width="18" />
									</g>
									<g class="accid" id="accid-0000001025680093" />
								</g>
								<g class="note" id="note-L10F1">
									<use xlink:href="#E0A4" x="3133" y="2584" height="720px" width="720px" />
									<g class="stem">
										<rect x="3133" y="2606" height="692" width="18" />
									</g>
									<g class="accid" id="accid-0000001665796727" />
								</g>
								<g class="note" id="note-L11F1">
									<use xlink:href="#E0A4" x="3464" y="2674" height="720px" width="720px" />
									<g class="stem">
										<rect x="3464" y="2696" height="635" width="18" />
									</g>
									<g class="accid" id="accid-0000002073837271" />
								</g>
							</g>
						</g>
					</g>
					<g class="tie" id="tie-L8F1-L9F1">
						<path d="M2444,2629 C2526,2727 2690,2727 2775,2629 C2690,2771 2526,2771 2444,2629" stroke="#000000" stroke-linecap="round" stroke-linejoin="round" stroke-width="9" />
					</g>
					<g class="mNum autogenerated" id="mnum-0000000001644151" />
					<g class="barLineAttr" id="bline-0000001468324923">
						<path d="M3809 2944 L3809 720" stroke="#000000" stroke-width="27" />
					</g>
				</g>
				<g class="measure" id="measure-L12">
					<g class="staff" id="staff-L12F2N1">
						<path d="M3822 720 L6685 720" stroke="#000000" stroke-width="13" />
						<path d="M3822 900 L6685 900" stroke="#000000" stroke-width="13" />
						<path d="M3822 1080 L6685 1080" stroke="#000000" stroke-width="13" />
						<path d="M3822 1260 L6685 1260" stroke="#000000" stroke-width="13" />
						<path d="M3822 1440 L6685 1440" stroke="#000000" stroke-width="13" />
						<g class="layer" id="layer-L12F2N1">
							<g class="beam" id="beam-L13F2-L16F2">
								<polygon points="4219,474 5229,375 5229,465 4219,564 " />
								<polygon points="4219,609 5229,510 5229,600 4219,699 " />
								<g class="note" id="note-L13F2">
									<use xlink:href="#E0A4" x="4011" y="1170" height="720px" width="720px" />
									<g class="stem">
										<rect x="4219" y="492" height="656" width="18" />
									</g>
									<g class="accid" id="accid-0000000695647520" />
								</g>
								<g class="note" id="note-L14F2">
									<use xlink:href="#E0A4" x="4342" y="1350" height="720px" width="720px" />
									<g class="stem">
										<rect x="4550" y="459" height="869" width="18" />
									</g>
									<g class="accid" id="accid-0000000232097888" />
								</g>
								<g class="note" id="note-L15F2">
									<use xlink:href="#E0A4" x="4672" y="1260" height="720px" width="720px" />
									<g class="stem">
										<rect x="4880" y="426" height="812" width="18" />
									</g>
									<g class="accid" id="accid-0000001761409738" />
								</g>
								<g class="note" id="note-L16F2">
									<use xlink:href="#E0A4" x="5003" y="1080" height="720px" width="720px" />
									<g class="stem">
										<rect x="5211" y="393" height="665" width="18" />
									</g>
									<g class="accid" id="accid-0000002040869582" />
								</g>
							</g>
							<g class="beam" id="beam-L17F2-L20F2">
								<polygon points="5542,316 6552,415 6552,505 5542,406 " />
								<polygon points="5542,451 6552,550 6552,640 5542,541 " />
								<g class="note" id="note-L17F2">
									<use xlink:href="#E0A4" x="5334" y="990" height="720px" width="720px" />
									<g class="stem">
										<rect x="5542" y="334" height="634" width="18" />
									</g>
									<g class="accid" id="accid-0000000139914540" />
								</g>
								<g class="note" id="note-L18F2">
									<use xlink:href="#E0A4" x="5665" y="1080" height="720px" width="720px" />
									<g class="stem">
										<rect x="5873" y="367" height="691" width="18" />
									</g>
									<g class="accid" id="accid-0000000259133757" />
								</g>
								<g class="note" id="note-L19F2">
									<use xlink:href="#E0A4" x="5995" y="1260" height="720px" width="720px" />
									<g class="stem">
										<rect x="6203" y="400" height="838" width="18" />
									</g>
									<g class="accid" id="accid-0000000491792486" />
								</g>
								<g class="note" id="note-L20F2">
									<use xlink:href="#E0A4" x="6326" y="1350" height="720px" width="720px" />
									<g class="stem">
										<rect x="6534" y="433" height="895" width="18" />
									</g>
									<g class="accid" id="accid-0000001790720149" />
								</g>
							</g>
						</g>
					</g>
					<g class="staff" id="staff-L12F1N1">
						<path d="M3822 2224 L6685 2224" stroke="#000000" stroke-width="13" />
						<path d="M3822 2404 L6685 2404" stroke="#000000" stroke-width="13" />
						<path d="M3822 2584 L6685 2584" stroke="#000000" stroke-width="13" />
						<path d="M3822 2764 L6685 2764" stroke="#000000" stroke-width="13" />
						<path d="M3822 2944 L6685 2944" stroke="#000000" stroke-width="13" />
						<g class="layer" id="layer-L12F1N1">
							<g class="beam" id="beam-L13F1-L14F1">
								<polygon points="4011,3259 4360,3225 4360,3135 4011,3169 " />
								<polygon points="4011,3124 4169,3109 4169,3019 4011,3034 " />
								<g class="note" id="note-L13F1">
									<use xlink:href="#E0A4" x="4011" y="2584" height="720px" width="720px" />
									<g class="stem">
										<rect x="4011" y="2606" height="635" width="18" />
									</g>
									<g class="accid" id="accid-0000001634316748" />
								</g>
								<g class="note" id="note-L14F1">
									<use xlink:href="#E0A4" x="4342" y="2494" height="720px" width="720px" />
									<g class="dots" id="dots-0000000341802542">
										<ellipse cx="4658" cy="2494" rx="36" ry="36" />
									</g>
									<g class="stem">
										<rect x="4342" y="2516" height="691" width="18" />
									</g>
									<g class="accid" id="accid-0000000337696982" />
								</g>
							</g>
							<g class="beam" id="beam-L17F1-L20F1">
								<polygon points="5334,3383 6344,3283 6344,3193 5334,3293 " />
								<polygon points="5334,3248 6344,3148 6344,3058 5334,3158 " />
								<g class="note" id="note-L17F1">
									<use xlink:href="#E0A4" x="5334" y="2584" height="720px" width="720px" />
									<g class="stem">
										<rect x="5334" y="2606" height="759" width="18" />
									</g>
									<g class="accid" id="accid-0000001907825194" />
								</g>
								<g class="note" id="note-L18F1">
									<use xlink:href="#E0A4" x="5665" y="2674" height="720px" width="720px" />
									<g class="stem">
										<rect x="5665" y="2696" height="635" width="18" />
									</g>
									<g class="accid" id="accid-0000000392059724" />
								</g>
								<g class="note" id="note-L19F1">
									<use xlink:href="#E0A4" x="5995" y="2584" height="720px" width="720px" />
									<g class="stem">
										<rect x="5995" y="2606" height="692" width="18" />
									</g>
									<g class="accid" id="accid-0000001964905080" />
								</g>
								<g class="note" id="note-L20F1">
									<use xlink:href="#E0A4" x="6326" y="2494" height="720px" width="720px" />
									<g class="stem">
										<rect x="6326" y="2516" height="749" width="18" />
									</g>
									<g class="accid" id="accid-0000000288774524" />
								</g>
							</g>
						</g>
					</g>
					<g class="mNum autogenerated" id="mnum-0000002117232850" />
					<g class="barLineAttr" id="bline-0000001161816431">
						<path d="M6672 2944 L6672 720" stroke="#000000" stroke-width="27" />
					</g>
				</g>
				<g class="measure" id="measure-L21">
					<g class="staff" id="staff-L21F2N1">
						<path d="M6685 720 L9562 720" stroke="#000000" stroke-width="13" />
						<path d="M6685 900 L9562 900" stroke="#000000" stroke-width="13" />
						<path d="M6685 1080 L9562 1080" stroke="#000000" stroke-width="13" />
						<path d="M6685 1260 L9562 1260" stroke="#000000" stroke-width="13" />
						<path d="M6685 1440 L9562 1440" stroke="#000000" stroke-width="13" />
						<g class="ledgerLines below">
							<path d="M8842 1620 L9121 1620" stroke="#000000" stroke-width="22" />
						</g>
						<g class="layer" id="layer-L21F2N1">
							<g class="rest" id="rest-L22F2">
								<use xlink:href="#E4E5" x="6874" y="1080" height="720px" width="720px" />
							</g>
							<g class="beam" id="beam-L26F2-L28F2">
								<polygon points="8610,586 9430,666 9430,756 8610,676 " />
								<polygon points="9090,768 9430,801 9430,891 9090,858 " />
								<g class="note" id="note-L26F2">
									<use xlink:href="#E0A4" x="8402" y="1260" height="720px" width="720px" />
									<g class="stem">
										<rect x="8610" y="604" height="634" width="18" />
									</g>
									<g class="accid" id="accid-0000000455791562" />
								</g>
								<g class="note" id="note-L27F2">
									<use xlink:href="#E0A4" x="8873" y="1620" height="720px" width="720px" />
									<g class="stem">
										<rect x="9081" y="651" height="947" width="18" />
									</g>
									<g class="accid" id="accid-0000001975252927" />
								</g>
								<g class="note" id="note-L28F2">
									<use xlink:href="#E0A4" x="9204" y="1530" height="720px" width="720px" />
									<g class="stem">
										<rect x="9412" y="684" height="824" width="18" />
									</g>
									<g class="accid" id="accid-0000000087821376" />
								</g>
							</g>
						</g>
					</g>
					<g class="staff" id="staff-L21F1N1">
						<path d="M6685 2224 L9562 2224" stroke="#000000" stroke-width="13" />
						<path d="M6685 2404 L9562 2404" stroke="#000000" stroke-width="13" />
						<path d="M6685 2584 L9562 2584" stroke="#000000" stroke-width="13" />
						<path d="M6685 2764 L9562 2764" stroke="#000000" stroke-width="13" />
						<path d="M6685 2944 L9562 2944" stroke="#000000" stroke-width="13" />
						<g class="layer" id="layer-L21F1N1">
							<g class="beam" id="beam-L22F1-L25F1">
								<polygon points="7082,1940 8297,1820 8297,1910 7082,2030 " />
								<polygon points="7082,2075 8297,1955 8297,2045 7082,2165 " />
								<g class="note" id="note-L22F1">
									<use xlink:href="#E0A4" x="6874" y="2674" height="720px" width="720px" />
									<g class="stem">
										<rect x="7082" y="1958" height="694" width="18" />
									</g>
									<g class="accid" id="accid-0000001883891583" />
								</g>
								<g class="note" id="note-L23F1">
									<use xlink:href="#E0A4" x="7205" y="2584" height="720px" width="720px" />
									<g class="stem">
										<rect x="7413" y="1925" height="637" width="18" />
									</g>
									<g class="accid" id="accid-0000001995759810" />
								</g>
								<g class="note" id="note-L24F1">
									<use xlink:href="#E0A4" x="7535" y="2674" height="720px" width="720px" />
									<g class="stem">
										<rect x="7743" y="1892" height="760" width="18" />
									</g>
									<g class="accid" id="accid-0000000155533033" />
								</g>
								<g class="note" id="note-L25F1">
									<use xlink:href="#E0A4" x="8071" y="2494" height="720px" width="720px" />
									<g class="stem">
										<rect x="8279" y="1838" height="634" width="18" />
									</g>
									<g class="accid" id="accid-0000000309276480">
										<use xlink:href="#E260" x="7875" y="2494" height="720px" width="720px" />
									</g>
								</g>
							</g>
							<g class="beam" id="beam-L26F1-L28F1">
								<polygon points="8402,3268 9222,3349 9222,3259 8402,3178 " />
								<polygon points="8882,3181 9222,3214 9222,3124 8882,3091 " />
								<g class="note" id="note-L26F1">
									<use xlink:href="#E0A4" x="8402" y="2494" height="720px" width="720px" />
									<g class="stem">
										<rect x="8402" y="2516" height="734" width="18" />
									</g>
									<g class="accid" id="accid-0000000682353802" />
								</g>
								<g class="note" id="note-L27F1">
									<use xlink:href="#E0A4" x="8873" y="2584" height="720px" width="720px" />
									<g class="stem">
										<rect x="8873" y="2606" height="692" width="18" />
									</g>
									<g class="accid" id="accid-0000001817114775" />
								</g>
								<g class="note" id="note-L28F1">
									<use xlink:href="#E0A4" x="9204" y="2674" height="720px" width="720px" />
									<g class="stem">
										<rect x="9204" y="2696" height="635" width="18" />
									</g>
									<g class="accid" id="accid-0000000656630049" />
								</g>
							</g>
						</g>
					</g>
					<g class="tie" id="tie-L25F1-L26F1">
						<path d="M8184,2629 C8266,2727 8430,2727 8515,2629 C8430,2771 8266,2771 8184,2629" stroke="#000000" stroke-linecap="round" stroke-linejoin="round" stroke-width="9" />
					</g>
					<g class="mNum autogenerated" id="mnum-0000000156878128" />
					<g class="barLineAttr" id="bline-0000000537683740">
						<path d="M9549 2944 L9549 720" stroke="#000000" stroke-width="27" />
					</g>
				</g>
				<g class="measure" id="measure-L29">
					<g class="staff" id="staff-L29F2N1">
						<path d="M9562 720 L13040 720" stroke="#000000" stroke-width="13" />
						<path d="M9562 900 L13040 900" stroke="#000000" stroke-width="13" />
						<path d="M9562 1080 L13040 1080" stroke="#000000" stroke-width="13" />
						<path d="M9562 1260 L13040 1260" stroke="#000000" stroke-width="13" />
						<path d="M9562 1440 L13040 1440" stroke="#000000" stroke-width="13" />
						<g class="layer" id="layer-L29F2N1">
							<g class="beam" id="beam-L30F2-L33F2">
								<polygon points="10164,479 11585,374 11585,464 10164,569 " />
								<polygon points="10164,614 11585,509 11585,599 10164,704 " />
								<g class="note" id="note-L30F2">
									<use xlink:href="#E0A4" x="9956" y="1170" height="720px" width="720px" />
									<g class="stem">
										<rect x="10164" y="497" height="651" width="18" />
									</g>
									<g class="accid" id="accid-0000000083551511">
										<use xlink:href="#E260" x="9760" y="1170" height="720px" width="720px" />
									</g>
								</g>
								<g class="note" id="note-L31F2">
									<use xlink:href="#E0A4" x="10492" y="1350" height="720px" width="720px" />
									<g class="stem">
										<rect x="10700" y="457" height="871" width="18" />
									</g>
									<g class="accid" id="accid-0000002046464779" />
								</g>
								<g class="note" id="note-L32F2">
									<use xlink:href="#E0A4" x="10823" y="1260" height="720px" width="720px" />
									<g class="stem">
										<rect x="11031" y="432" height="806" width="18" />
									</g>
									<g class="accid" id="accid-0000001165124821" />
								</g>
								<g class="note" id="note-L33F2">
									<use xlink:href="#E0A4" x="11359" y="1080" height="720px" width="720px" />
									<g class="stem">
										<rect x="11567" y="392" height="666" width="18" />
									</g>
									<g class="accid" id="accid-0000001857664602">
										<use xlink:href="#E260" x="11163" y="1080" height="720px" width="720px" />
									</g>
								</g>
							</g>
							<g class="beam" id="beam-L34F2-L37F2">
								<polygon points="11897,316 12908,416 12908,506 11897,406 " />
								<polygon points="11897,451 12908,551 12908,641 11897,541 " />
								<g class="note" id="note-L34F2">
									<use xlink:href="#E0A4" x="11689" y="990" height="720px" width="720px" />
									<g class="stem">
										<rect x="11897" y="334" height="634" width="18" />
									</g>
									<g class="accid" id="accid-0000000267400726" />
								</g>
								<g class="note" id="note-L35F2">
									<use xlink:href="#E0A4" x="12020" y="1080" height="720px" width="720px" />
									<g class="stem">
										<rect x="12228" y="367" height="691" width="18" />
									</g>
									<g class="accid" id="accid-0000000098605674" />
								</g>
								<g class="note" id="note-L36F2">
									<use xlink:href="#E0A4" x="12351" y="1260" height="720px" width="720px" />
									<g class="stem">
										<rect x="12559" y="400" height="838" width="18" />
									</g>
									<g class="accid" id="accid-0000000550456142" />
								</g>
								<g class="note" id="note-L37F2">
									<use xlink:href="#E0A4" x="12682" y="1350" height="720px" width="720px" />
									<g class="stem">
										<rect x="12890" y="434" height="894" width="18" />
									</g>
									<g class="accid" id="accid-0000000834298757" />
								</g>
							</g>
						</g>
					</g>
					<g class="staff" id="staff-L29F1N1">
						<path d="M9562 2224 L13040 2224" stroke="#000000" stroke-width="13" />
						<path d="M9562 2404 L13040 2404" stroke="#000000" stroke-width="13" />
						<path d="M9562 2584 L13040 2584" stroke="#000000" stroke-width="13" />
						<path d="M9562 2764 L13040 2764" stroke="#000000" stroke-width="13" />
						<path d="M9562 2944 L13040 2944" stroke="#000000" stroke-width="13" />
						<g class="layer" id="layer-L29F1N1">
							<g class="beam" id="beam-L30F1-L31F1">
								<polygon points="9956,3259 10510,3205 10510,3115 9956,3169 " />
								<polygon points="9956,3124 10114,3109 10114,3019 9956,3034 " />
								<g class="note" id="note-L30F1">
									<use xlink:href="#E0A4" x="9956" y="2584" height="720px" width="720px" />
									<g class="stem">
										<rect x="9956" y="2606" height="635" width="18" />
									</g>
									<g class="accid" id="accid-0000002025714189" />
								</g>
								<g class="note" id="note-L31F1">
									<use xlink:href="#E0A4" x="10492" y="2494" height="720px" width="720px" />
									<g class="dots" id="dots-0000000283609402">
										<ellipse cx="10808" cy="2494" rx="36" ry="36" />
									</g>
									<g class="stem">
										<rect x="10492" y="2516" height="671" width="18" />
									</g>
									<g class="accid" id="accid-0000001785177000">
										<use xlink:href="#E260" x="10296" y="2494" height="720px" width="720px" />
									</g>
								</g>
							</g>
							<g class="beam" id="beam-L34F1-L37F1">
								<polygon points="11689,3383 12700,3283 12700,3193 11689,3293 " />
								<polygon points="11689,3248 12700,3148 12700,3058 11689,3158 " />
								<g class="note" id="note-L34F1">
									<use xlink:href="#E0A4" x="11689" y="2584" height="720px" width="720px" />
									<g class="stem">
										<rect x="11689" y="2606" height="759" width="18" />
									</g>
									<g class="accid" id="accid-0000000558695426" />
								</g>
								<g class="note" id="note-L35F1">
									<use xlink:href="#E0A4" x="12020" y="2674" height="720px" width="720px" />
									<g class="stem">
										<rect x="12020" y="2696" height="635" width="18" />
									</g>
									<g class="accid" id="accid-0000001249285754" />
								</g>
								<g class="note" id="note-L36F1">
									<use xlink:href="#E0A4" x="12351" y="2584" height="720px" width="720px" />
									<g class="stem">
										<rect x="12351" y="2606" height="692" width="18" />
									</g>
									<g class="accid" id="accid-0000001803730998" />
								</g>
								<g class="note" id="note-L37F1">
									<use xlink:href="#E0A4" x="12682" y="2494" height="720px" width="720px" />
									<g class="stem">
										<rect x="12682" y="2516" height="749" width="18" />
									</g>
									<g class="accid" id="accid-0000001894479607" />
								</g>
							</g>
						</g>
					</g>
					<g class="mNum autogenerated" id="mnum-0000002072666425" />
					<g class="barLineAttr" id="bline-0000000132236767">
						<path d="M13027 2944 L13027 720" stroke="#000000" stroke-width="27" />
					</g>
				</g>
				<g class="measure" id="measure-L38">
					<g class="staff" id="staff-L38F2N1">
						<path d="M13040 720 L16324 720" stroke="#000000" stroke-width="13" />
						<path d="M13040 900 L16324 900" stroke="#000000" stroke-width="13" />
						<path d="M13040 1080 L16324 1080" stroke="#000000" stroke-width="13" />
						<path d="M13040 1260 L16324 1260" stroke="#000000" stroke-width="13" />
						<path d="M13040 1440 L16324 1440" stroke="#000000" stroke-width="13" />
						<g class="ledgerLines below">
							<path d="M15400 1620 L15679 1620" stroke="#000000" stroke-width="22" />
							<path d="M15935 1620 L16214 1620" stroke="#000000" stroke-width="22" />
						</g>
						<g class="layer" id="layer-L38F2N1">
							<g class="rest" id="rest-L39F2">
								<use xlink:href="#E4E5" x="13229" y="1080" height="720px" width="720px" />
							</g>
							<g class="beam" id="beam-L43F2-L45F2">
								<polygon points="15168,676 16192,777 16192,867 15168,766 " />
								<polygon points="15648,858 16192,912 16192,1002 15648,948 " />
								<g class="note" id="note-L43F2">
									<use xlink:href="#E0A4" x="14960" y="1350" height="720px" width="720px" />
									<g class="stem">
										<rect x="15168" y="694" height="634" width="18" />
									</g>
									<g class="accid" id="accid-0000000748890990">
										<use xlink:href="#E262" x="14765" y="1350" height="720px" width="720px" />
									</g>
								</g>
								<g class="note" id="note-L44F2">
									<use xlink:href="#E0A4" x="15431" y="1710" height="720px" width="720px" />
									<g class="stem">
										<rect x="15639" y="741" height="947" width="18" />
									</g>
									<g class="accid" id="accid-0000000826665302" />
								</g>
								<g class="note" id="note-L45F2">
									<use xlink:href="#E0A4" x="15966" y="1620" height="720px" width="720px" />
									<g class="stem">
										<rect x="16174" y="795" height="803" width="18" />
									</g>
									<g class="accid" id="accid-0000000772627123">
										<use xlink:href="#E262" x="15771" y="1620" height="720px" width="720px" />
									</g>
								</g>
							</g>
						</g>
					</g>
					<g class="staff" id="staff-L38F1N1">
						<path d="M13040 2224 L16324 2224" stroke="#000000" stroke-width="13" />
						<path d="M13040 2404 L16324 2404" stroke="#000000" stroke-width="13" />
						<path d="M13040 2584 L16324 2584" stroke="#000000" stroke-width="13" />
						<path d="M13040 2764 L16324 2764" stroke="#000000" stroke-width="13" />
						<path d="M13040 2944 L16324 2944" stroke="#000000" stroke-width="13" />
						<g class="layer" id="layer-L38F1N1">
							<g class="beam" id="beam-L39F1-L42F1">
								<polygon points="13437,2050 14855,1910 14855,2000 13437,2140 " />
								<polygon points="13437,2185 14855,2045 14855,2135 13437,2275 " />
								<g class="note" id="note-L39F1">
									<use xlink:href="#E0A4" x="13229" y="2764" height="720px" width="720px" />
									<g class="stem">
										<rect x="13437" y="2068" height="674" width="18" />
									</g>
									<g class="accid" id="accid-0000001869217591" />
								</g>
								<g class="note" id="note-L40F1">
									<use xlink:href="#E0A4" x="13764" y="2674" height="720px" width="720px" />
									<g class="stem">
										<rect x="13972" y="2014" height="638" width="18" />
									</g>
									<g class="accid" id="accid-0000001027436850">
										<use xlink:href="#E262" x="13569" y="2674" height="720px" width="720px" />
									</g>
								</g>
								<g class="note" id="note-L41F1">
									<use xlink:href="#E0A4" x="14094" y="2764" height="720px" width="720px" />
									<g class="stem">
										<rect x="14302" y="1981" height="761" width="18" />
									</g>
									<g class="accid" id="accid-0000001515655460" />
								</g>
								<g class="note" id="note-L42F1">
									<use xlink:href="#E0A4" x="14629" y="2584" height="720px" width="720px" />
									<g class="stem">
										<rect x="14837" y="1928" height="634" width="18" />
									</g>
									<g class="accid" id="accid-0000001708351538">
										<use xlink:href="#E262" x="14434" y="2584" height="720px" width="720px" />
									</g>
								</g>
							</g>
							<g class="beam" id="beam-L43F1-L45F1">
								<polygon points="15168,1910 16192,2011 16192,2101 15168,2000 " />
								<polygon points="15648,2092 16192,2146 16192,2236 15648,2182 " />
								<g class="note" id="note-L43F1">
									<use xlink:href="#E0A4" x="14960" y="2584" height="720px" width="720px" />
									<g class="stem">
										<rect x="15168" y="1928" height="634" width="18" />
									</g>
									<g class="accid" id="accid-0000000628934716" />
								</g>
								<g class="note" id="note-L44F1">
									<use xlink:href="#E0A4" x="15431" y="2674" height="720px" width="720px" />
									<g class="stem">
										<rect x="15639" y="1975" height="677" width="18" />
									</g>
									<g class="accid" id="accid-0000000921464677" />
								</g>
								<g class="note" id="note-L45F1">
									<use xlink:href="#E0A4" x="15966" y="2764" height="720px" width="720px" />
									<g class="stem">
										<rect x="16174" y="2029" height="713" width="18" />
									</g>
									<g class="accid" id="accid-0000000997800598" />
								</g>
							</g>
						</g>
					</g>
					<g class="tie" id="tie-L42F1-L43F1">
						<path d="M14742,2719 C14824,2817 14988,2817 15073,2719 C14988,2861 14824,2861 14742,2719" stroke="#000000" stroke-linecap="round" stroke-linejoin="round" stroke-width="9" />
					</g>
					<g class="mNum autogenerated" id="mnum-0000000221413646" />
					<g class="barLineAttr" id="bline-0000002074163272">
						<path d="M16311 2944 L16311 720" stroke="#000000" stroke-width="27" />
					</g>
				</g>
				<g class="measure" id="measure-L46">
					<g class="staff" id="staff-L46F2N1">
						<path d="M16324 720 L20003 720" stroke="#000000" stroke-width="13" />
						<path d="M16324 900 L20003 900" stroke="#000000" stroke-width="13" />
						<path d="M16324 1080 L20003 1080" stroke="#000000" stroke-width="13" />
						<path d="M16324 1260 L20003 1260" stroke="#000000" stroke-width="13" />
						<path d="M16324 1440 L20003 1440" stroke="#000000" stroke-width="13" />
						<g class="layer" id="layer-L46F2N1">
							<g class="beam" id="beam-L47F2-L50F2">
								<polygon points="16925,571 18548,463 18548,553 16925,661 " />
								<polygon points="16925,706 18548,598 18548,688 16925,796 " />
								<g class="note" id="note-L47F2">
									<use xlink:href="#E0A4" x="16717" y="1260" height="720px" width="720px" />
									<g class="stem">
										<rect x="16925" y="589" height="649" width="18" />
									</g>
									<g class="accid" id="accid-0000000896542229">
										<use xlink:href="#E262" x="16522" y="1260" height="720px" width="720px" />
									</g>
								</g>
								<g class="note" id="note-L48F2">
									<use xlink:href="#E0A4" x="17252" y="1440" height="720px" width="720px" />
									<g class="stem">
										<rect x="17460" y="553" height="865" width="18" />
									</g>
									<g class="accid" id="accid-0000001674186914">
										<use xlink:href="#E262" x="17057" y="1440" height="720px" width="720px" />
									</g>
								</g>
								<g class="note" id="note-L49F2">
									<use xlink:href="#E0A4" x="17787" y="1350" height="720px" width="720px" />
									<g class="stem">
										<rect x="17995" y="517" height="811" width="18" />
									</g>
									<g class="accid" id="accid-0000001300931165">
										<use xlink:href="#E262" x="17592" y="1350" height="720px" width="720px" />
									</g>
								</g>
								<g class="note" id="note-L50F2">
									<use xlink:href="#E0A4" x="18322" y="1170" height="720px" width="720px" />
									<g class="stem">
										<rect x="18530" y="481" height="667" width="18" />
									</g>
									<g class="accid" id="accid-0000002084374356">
										<use xlink:href="#E262" x="18127" y="1170" height="720px" width="720px" />
									</g>
								</g>
							</g>
							<g class="beam" id="beam-L51F2-L54F2">
								<polygon points="18860,406 19871,506 19871,596 18860,496 " />
								<polygon points="18860,541 19871,641 19871,731 18860,631 " />
								<g class="note" id="note-L51F2">
									<use xlink:href="#E0A4" x="18652" y="1080" height="720px" width="720px" />
									<g class="stem">
										<rect x="18860" y="424" height="634" width="18" />
									</g>
									<g class="accid" id="accid-0000001804841656" />
								</g>
								<g class="note" id="note-L52F2">
									<use xlink:href="#E0A4" x="18983" y="1170" height="720px" width="720px" />
									<g class="stem">
										<rect x="19191" y="457" height="691" width="18" />
									</g>
									<g class="accid" id="accid-0000000813658631" />
								</g>
								<g class="note" id="note-L53F2">
									<use xlink:href="#E0A4" x="19314" y="1350" height="720px" width="720px" />
									<g class="stem">
										<rect x="19522" y="490" height="838" width="18" />
									</g>
									<g class="accid" id="accid-0000001342900287" />
								</g>
								<g class="note" id="note-L54F2">
									<use xlink:href="#E0A4" x="19645" y="1440" height="720px" width="720px" />
									<g class="stem">
										<rect x="19853" y="524" height="894" width="18" />
									</g>
									<g class="accid" id="accid-0000000963797412" />
								</g>
							</g>
						</g>
					</g>
					<g class="staff" id="staff-L46F1N1">
						<path d="M16324 2224 L20003 2224" stroke="#000000" stroke-width="13" />
						<path d="M16324 2404 L20003 2404" stroke="#000000" stroke-width="13" />
						<path d="M16324 2584 L20003 2584" stroke="#000000" stroke-width="13" />
						<path d="M16324 2764 L20003 2764" stroke="#000000" stroke-width="13" />
						<path d="M16324 2944 L20003 2944" stroke="#000000" stroke-width="13" />
						<g class="layer" id="layer-L46F1N1">
							<g class="beam" id="beam-L47F1-L48F1">
								<polygon points="16925,1964 17478,1910 17478,2000 16925,2054 " />
								<polygon points="16925,2099 17083,2084 17083,2174 16925,2189 " />
								<g class="note" id="note-L47F1">
									<use xlink:href="#E0A4" x="16717" y="2674" height="720px" width="720px" />
									<g class="stem">
										<rect x="16925" y="1982" height="670" width="18" />
									</g>
									<g class="accid" id="accid-0000001323361612">
										<use xlink:href="#E262" x="16522" y="2674" height="720px" width="720px" />
									</g>
								</g>
								<g class="note" id="note-L48F1">
									<use xlink:href="#E0A4" x="17252" y="2584" height="720px" width="720px" />
									<g class="dots" id="dots-0000001738035525">
										<ellipse cx="17568" cy="2494" rx="36" ry="36" />
									</g>
									<g class="stem">
										<rect x="17460" y="1928" height="634" width="18" />
									</g>
									<g class="accid" id="accid-0000000764622215">
										<use xlink:href="#E262" x="17057" y="2584" height="720px" width="720px" />
									</g>
								</g>
							</g>
							<g class="beam" id="beam-L51F1-L54F1">
								<polygon points="18860,1978 19871,1878 19871,1968 18860,2068 " />
								<polygon points="18860,2113 19871,2013 19871,2103 18860,2203 " />
								<g class="note" id="note-L51F1">
									<use xlink:href="#E0A4" x="18652" y="2674" height="720px" width="720px" />
									<g class="stem">
										<rect x="18860" y="1996" height="656" width="18" />
									</g>
									<g class="accid" id="accid-0000000263184790" />
								</g>
								<g class="note" id="note-L52F1">
									<use xlink:href="#E0A4" x="18983" y="2764" height="720px" width="720px" />
									<g class="stem">
										<rect x="19191" y="1963" height="779" width="18" />
									</g>
									<g class="accid" id="accid-0000000321099695" />
								</g>
								<g class="note" id="note-L53F1">
									<use xlink:href="#E0A4" x="19314" y="2674" height="720px" width="720px" />
									<g class="stem">
										<rect x="19522" y="1930" height="722" width="18" />
									</g>
									<g class="accid" id="accid-0000001403907334" />
								</g>
								<g class="note" id="note-L54F1">
									<use xlink:href="#E0A4" x="19645" y="2584" height="720px" width="720px" />
									<g class="stem">
										<rect x="19853" y="1896" height="666" width="18" />
									</g>
									<g class="accid" id="accid-0000001014319511" />
								</g>
							</g>
						</g>
					</g>
					<g class="mNum autogenerated" id="mnum-0000000557387987" />
					<g class="barLineAttr" id="bline-0000001108336872">
						<path d="M19990 2944 L19990 720" stroke="#000000" stroke-width="27" />
					</g>
				</g>
			</g>
		</g>
	</svg>
</svg>
