<?xml version="1.0" encoding="UTF-8" standalone="no"?>
<svg width="2100.00px" height="450.00px" version="1.1" xmlns="http://www.w3.org/2000/svg" xmlns:xlink="http://www.w3.org/1999/xlink" overflow="visible">
	<desc>Engraved by Verovio 2.0.0-dev-0f0381c</desc>
	<defs>
		<symbol id="E050" viewBox="0 0 1000 1000" overflow="inherit">
			<path transform="scale(1,-1)" d="M441 -245c-23 -4 -48 -6 -76 -6c-59 0 -102 7 -130 20c-88 42 -150 93 -187 154c-26 44 -43 103 -48 176c-4 60 11 123 44 189c29 57 65 106 110 148s96 85 153 127c-3 16 -8 46 -13 92c-4 43 -5 73 -5 89c0 117 16 172 69 257c34 54 64 82 89 82c21 0 43 -30 69 -92 s39 -115 41 -159c2 -120 -19 -173 -67 -256c-13 -20 -63 -90 -98 -118c-13 -9 -25 -19 -37 -29l31 -181c8 1 18 2 28 2c58 0 102 -12 133 -35c59 -43 92 -104 98 -184c11 -135 -80 -229 -180 -270c8 -57 17 -110 25 -162c5 -31 6 -58 6 -80c0 -30 -5 -53 -14 -70 c-35 -64 -88 -99 -158 -103c-42 -3 -83 6 -124 26c-50 24 -77 59 -80 105c-2 34 5 63 20 87c18 28 45 42 79 44c51 4 99 -40 103 -87c4 -56 -30 -94 -105 -115c17 -24 51 -36 102 -36c62 0 116 43 140 85c9 16 13 41 13 74c0 20 -1 42 -5 67c-8 53 -18 106 -26 159zM461 939 c-95 0 -135 -175 -135 -286c0 -24 2 -48 5 -71c50 39 92 82 127 128c43 57 63 106 60 148c-4 54 -23 82 -57 81zM406 119l54 -326c80 27 116 88 109 184c-7 99 -62 146 -163 142zM382 117c-74 -2 -132 -50 -128 -127c2 -46 43 -99 75 -115c-3 -2 -7 -5 -10 -10 c-70 33 -116 88 -123 172c-5 73 42 135 88 170c23 17 49 29 78 36l-29 170c-21 -13 -52 -37 -92 -73c-50 -44 -86 -84 -109 -119c-49 -75 -71 -140 -67 -195c5 -68 35 -127 93 -176s125 -73 203 -73c25 0 50 3 75 9c-19 111 -36 221 -54 331z" />
		</symbol>
		<symbol id="E082" viewBox="0 0 1000 1000" overflow="inherit">
			<path transform="scale(1,-1)" d="M104 -185c-18 0 -55 -14 -65 -65h-36l-3 29c0 25 6 46 18 64c11 19 22 30 39 43l121 82l37 29c15 11 27 29 38 54c12 24 18 47 18 70c0 40 -19 88 -94 88c-25 0 -32 0 -50 -8c-14 -5 -23 -12 -26 -22c3 -9 7 -15 10 -18l24 -17c12 -7 17 -11 27 -21c5 -7 7 -16 7 -27 c0 -12 0 -57 -79 -74c-30 0 -76 26 -76 94c0 66 80 135 196 135c72 0 182 -32 182 -150c0 -53 -32 -95 -113 -133l-91 -41c-26 -11 -45 -23 -57 -37l49 7c84 0 115 -41 148 -41c20 0 33 20 39 61h35c0 -152 -68 -168 -114 -168c-17 0 -55 0 -69 7v0l-28 17 c-49 37 -69 40 -87 42z" />
		</symbol>
		<symbol id="E084" viewBox="0 0 1000 1000" overflow="inherit">
			<path transform="scale(1,-1)" d="M0 -78c84 97 114 180 134 329h170c-13 -32 -82 -132 -99 -151l-84 -97c-33 -36 -59 -63 -80 -81h162v102l127 123v-225h57v-39h-57v-34c0 -43 19 -65 57 -65v-34h-244v36c48 0 60 26 60 70v27h-203v39z" />
		</symbol>
		<symbol id="E0A4" viewBox="0 0 1000 1000" overflow="inherit">
			<path transform="scale(1,-1)" d="M0 -39c0 68 73 172 200 172c66 0 114 -37 114 -95c0 -84 -106 -171 -218 -171c-64 0 -96 30 -96 94z" />
		</symbol>
		<symbol id="E062" viewBox="0 0 1000 1000" overflow="inherit">
			<path transform="scale(1,-1)" d="M158 96c51 0 73 -14 88 -49l16 -39c0 -17 -2 -30 -7 -40c-3 -11 -10 -21 -19 -31c-17 -18 -49 -43 -84 -43c-55 0 -77 13 -112 44c-24 21 -35 55 -35 100c0 46 14 81 32 112c30 52 71 79 137 93l36 6l26 2c154 0 235 -68 274 -182c11 -32 18 -68 18 -107 c0 -103 -26 -182 -68 -250c-89 -145 -234 -230 -412 -288l-30 -5c-9 0 -14 3 -14 8c3 10 5 11 10 16c35 15 70 30 96 44l78 43c96 57 162 136 197 258c9 33 17 60 22 100c3 22 5 35 6 39c-7 69 -16 115 -23 140s-4 22 -16 40c-8 12 -19 23 -31 34c-24 21 -62 44 -118 44 c-48 0 -84 -8 -113 -28c-28 -19 -42 -44 -42 -73v-16c2 -5 3 -9 4 -11c24 22 52 39 84 39zM585 -118c0 32 23 58 57 58c18 0 33 -6 40 -18c9 -15 16 -18 16 -40c0 -9 -2 -16 -5 -21c-6 -19 -27 -37 -51 -37c-34 0 -57 26 -57 58zM642 177c31 0 56 -27 56 -58 c0 -30 -25 -58 -56 -58l-23 3c-19 7 -34 32 -34 55l3 23c9 20 28 35 54 35z" />
		</symbol>
		<symbol id="E260" viewBox="0 0 1000 1000" overflow="inherit">
			<path transform="scale(1,-1)" d="M20 110c32 16 54 27 93 27c26 0 35 -3 54 -13c13 -7 24 -20 27 -38l4 -25c0 -28 -16 -57 -45 -89c-23 -25 -39 -44 -65 -68l-88 -79v644h20v-359zM90 106c-32 0 -48 -10 -70 -29v-194c31 31 54 59 71 84c21 32 32 59 32 84c0 9 1 16 1 20c0 14 -3 21 -11 30l-8 3z" />
		</symbol>
		<symbol id="E262" viewBox="0 0 1000 1000" overflow="inherit">
			<path transform="scale(1,-1)" d="M136 186v169h17v-164l44 14v-91l-44 -14v-165l44 12v-91l-44 -13v-155h-17v150l-76 -22v-155h-17v149l-43 -13v90l43 14v167l-43 -14v92l43 13v169h17v-163zM60 73v-167l76 22v168z" />
		</symbol>
	</defs>
	<style type="text/css">g.page-margin{font-family:Times;} g.tempo{font-weight:bold;} g.dir, g.dynam, g.mNum{font-style:italic;} g.label{font-weight:normal;}</style>
	<svg class="definition-scale" viewBox="0 0 21000 4500">
		<g class="page-margin" transform="translate(500, 500)">
			<g class="system" id="system-0000000034349337">
				<path d="M13 720 L13 2880" stroke="#000000" stroke-width="27" />
				<path d="M-32,2862 C-392,2322 58,1980 -212,1800 C121,1980 -329,2322 -32,2862" stroke="#000000" stroke-linecap="round" stroke-linejoin="round" stroke-width="18" />
				<path d="M-32,738 C-329,1278 121,1620 -212,1800 C58,1620 -392,1278 -32,738" stroke="#000000" stroke-linecap="round" stroke-linejoin="round" stroke-width="18" />
				<g class="section boundaryStart" id="section-L1F1" />
				<g class="measure" id="measure-L4">
					<g class="staff" id="staff-L4F2N1">
						<path d="M0 720 L3798 720" stroke="#000000" stroke-width="13" />
						<path d="M0 900 L3798 900" stroke="#000000" stroke-width="13" />
						<path d="M0 1080 L3798 1080" stroke="#000000" stroke-width="13" />
						<path d="M0 1260 L3798 1260" stroke="#000000" stroke-width="13" />
						<path d="M0 1440 L3798 1440" stroke="#000000" stroke-width="13" />
						<g class="clef" id="clef-0000001291858599">
							<use xlink:href="#E050" x="90" y="1260" height="720px" width="720px" />
						</g>
						<g class="meterSig" id="msig-0000001207802223">
							<use xlink:href="#E082" x="771" y="900" height="720px" width="720px" />
							<use xlink:href="#E084" x="777" y="1260" height="720px" width="720px" />
						</g>
						<g class="layer" id="layer-L4F2N1">
							<g class="beam" id="beam-L5F2-L7F2">
								<polygon points="1545,576 2358,496 2358,586 1545,666 " />
								<polygon points="1545,711 1703,696 1703,786 1545,801 " />
								<polygon points="2200,646 2358,631 2358,721 2200,736 " />
								<g class="note" id="note-L5F2">
									<use xlink:href="#E0A4" x="1337" y="1440" height="720px" width="720px" />
									<g class="stem">
										<rect x="1545" y="594" height="824" width="18" />
									</g>
									<g class="accid" id="accid-0000001785986842" />
								</g>
								<g class="note" id="note-L6F2">
									<use xlink:href="#E0A4" x="1665" y="1260" height="720px" width="720px" />
									<g class="stem">
										<rect x="1873" y="561" height="677" width="18" />
									</g>
									<g class="accid" id="accid-0000001824241232" />
								</g>
								<g class="note" id="note-L7F2">
									<use xlink:href="#E0A4" x="2132" y="1170" height="720px" width="720px" />
									<g class="stem">
										<rect x="2340" y="514" height="634" width="18" />
									</g>
									<g class="accid" id="accid-0000001496462336" />
								</g>
							</g>
							<g class="beam" id="beam-L8F2-L11F2">
								<polygon points="2667,283 3669,382 3669,472 2667,373 " />
								<polygon points="2667,418 3669,517 3669,607 2667,508 " />
								<g class="note" id="note-L8F2">
									<use xlink:href="#E0A4" x="2459" y="1080" height="720px" width="720px" />
									<g class="stem">
										<rect x="2667" y="301" height="757" width="18" />
									</g>
									<g class="accid" id="accid-0000001172551993" />
								</g>
								<g class="note" id="note-L9F2">
									<use xlink:href="#E0A4" x="2787" y="990" height="720px" width="720px" />
									<g class="stem">
										<rect x="2995" y="334" height="634" width="18" />
									</g>
									<g class="accid" id="accid-0000001378859192" />
								</g>
								<g class="note" id="note-L10F2">
									<use xlink:href="#E0A4" x="3115" y="1080" height="720px" width="720px" />
									<g class="stem">
										<rect x="3323" y="367" height="691" width="18" />
									</g>
									<g class="accid" id="accid-0000000593893872" />
								</g>
								<g class="note" id="note-L11F2">
									<use xlink:href="#E0A4" x="3443" y="1440" height="720px" width="720px" />
									<g class="stem">
										<rect x="3651" y="400" height="1018" width="18" />
									</g>
									<g class="accid" id="accid-0000000675728686" />
								</g>
							</g>
						</g>
					</g>
					<g class="staff" id="staff-L4F1N1">
						<path d="M0 2160 L3798 2160" stroke="#000000" stroke-width="13" />
						<path d="M0 2340 L3798 2340" stroke="#000000" stroke-width="13" />
						<path d="M0 2520 L3798 2520" stroke="#000000" stroke-width="13" />
						<path d="M0 2700 L3798 2700" stroke="#000000" stroke-width="13" />
						<path d="M0 2880 L3798 2880" stroke="#000000" stroke-width="13" />
						<g class="clef" id="clef-0000001516530517">
							<use xlink:href="#E062" x="90" y="2340" height="720px" width="720px" />
						</g>
						<g class="meterSig" id="msig-0000001992476623">
							<use xlink:href="#E082" x="771" y="2340" height="720px" width="720px" />
							<use xlink:href="#E084" x="777" y="2700" height="720px" width="720px" />
						</g>
						<g class="layer" id="layer-L4F1N1">
							<g class="beam" id="beam-L5F1-L7F1">
								<polygon points="1337,3285 2150,3205 2150,3115 1337,3195 " />
								<polygon points="1992,3085 2150,3070 2150,2980 1992,2995 " />
								<g class="note" id="note-L5F1">
									<use xlink:href="#E0A4" x="1337" y="2610" height="720px" width="720px" />
									<g class="dots" id="dots-0000001259240271">
										<ellipse cx="1653" cy="2610" rx="36" ry="36" />
									</g>
									<g class="stem">
										<rect x="1337" y="2632" height="635" width="18" />
									</g>
									<g class="accid" id="accid-0000000602101045" />
								</g>
								<g class="note" id="note-L7F1">
									<use xlink:href="#E0A4" x="2132" y="2340" height="720px" width="720px" />
									<g class="stem">
										<rect x="2132" y="2362" height="825" width="18" />
									</g>
									<g class="accid" id="accid-0000001498919972" />
								</g>
							</g>
							<g class="beam" id="beam-L8F1-L10F1">
								<polygon points="2459,3105 3133,3039 3133,2949 2459,3015 " />
								<polygon points="2459,2970 2796,2937 2796,2847 2459,2880 " />
								<g class="note" id="note-L8F1">
									<use xlink:href="#E0A4" x="2459" y="2430" height="720px" width="720px" />
									<g class="stem">
										<rect x="2459" y="2452" height="635" width="18" />
									</g>
									<g class="accid" id="accid-0000000832429480" />
								</g>
								<g class="note" id="note-L9F1">
									<use xlink:href="#E0A4" x="2787" y="2340" height="720px" width="720px" />
									<g class="stem">
										<rect x="2787" y="2362" height="692" width="18" />
									</g>
									<g class="accid" id="accid-0000001254916516" />
								</g>
								<g class="note" id="note-L10F1">
									<use xlink:href="#E0A4" x="3115" y="2250" height="720px" width="720px" />
									<g class="stem">
										<rect x="3115" y="2272" height="749" width="18" />
									</g>
									<g class="accid" id="accid-0000001758721010" />
								</g>
							</g>
						</g>
					</g>
					<g class="tie" id="tie-L11F2-L13F2">
						<path d="M3691,1485 C3759,1583 3895,1583 3963,1485 C3895,1627 3759,1627 3691,1485" stroke="#000000" stroke-linecap="round" stroke-linejoin="round" stroke-width="9" />
					</g>
					<g class="tie" id="tie-L10F1-L13F1">
						<path d="M3363,2205 C3513,2063 3813,2063 3963,2205 C3813,2107 3513,2107 3363,2205" stroke="#000000" stroke-linecap="round" stroke-linejoin="round" stroke-width="9" />
					</g>
					<g class="mNum autogenerated" id="mnum-0000001907340855" />
					<g class="barLineAttr" id="bline-0000000716343326">
						<path d="M3785 2880 L3785 720" stroke="#000000" stroke-width="27" />
					</g>
				</g>
				<g class="measure" id="measure-L12">
					<g class="staff" id="staff-L12F2N1">
						<path d="M3798 720 L6446 720" stroke="#000000" stroke-width="13" />
						<path d="M3798 900 L6446 900" stroke="#000000" stroke-width="13" />
						<path d="M3798 1080 L6446 1080" stroke="#000000" stroke-width="13" />
						<path d="M3798 1260 L6446 1260" stroke="#000000" stroke-width="13" />
						<path d="M3798 1440 L6446 1440" stroke="#000000" stroke-width="13" />
						<g class="layer" id="layer-L12F2N1">
							<g class="beam" id="beam-L13F2-L16F2">
								<polygon points="4193,415 5195,316 5195,406 4193,505 " />
								<polygon points="4193,550 5195,451 5195,541 4193,640 " />
								<g class="note" id="note-L13F2">
									<use xlink:href="#E0A4" x="3985" y="1440" height="720px" width="720px" />
									<g class="stem">
										<rect x="4193" y="433" height="985" width="18" />
									</g>
									<g class="accid" id="accid-0000000042117257" />
								</g>
								<g class="note" id="note-L14F2">
									<use xlink:href="#E0A4" x="4313" y="1260" height="720px" width="720px" />
									<g class="stem">
										<rect x="4521" y="400" height="838" width="18" />
									</g>
									<g class="accid" id="accid-0000001779055523" />
								</g>
								<g class="note" id="note-L15F2">
									<use xlink:href="#E0A4" x="4641" y="1080" height="720px" width="720px" />
									<g class="stem">
										<rect x="4849" y="367" height="691" width="18" />
									</g>
									<g class="accid" id="accid-0000001029297111" />
								</g>
								<g class="note" id="note-L16F2">
									<use xlink:href="#E0A4" x="4969" y="990" height="720px" width="720px" />
									<g class="stem">
										<rect x="5177" y="334" height="634" width="18" />
									</g>
									<g class="accid" id="accid-0000000693832784" />
								</g>
							</g>
							<g class="beam" id="beam-L17F2-L19F2">
								<polygon points="5504,406 6317,486 6317,576 5504,496 " />
								<polygon points="5504,541 5662,556 5662,646 5504,631 " />
								<polygon points="6159,606 6317,621 6317,711 6159,696 " />
								<g class="note" id="note-L17F2">
									<use xlink:href="#E0A4" x="5296" y="1080" height="720px" width="720px" />
									<g class="stem">
										<rect x="5504" y="424" height="634" width="18" />
									</g>
									<g class="accid" id="accid-0000000652398864" />
								</g>
								<g class="note" id="note-L18F2">
									<use xlink:href="#E0A4" x="5624" y="1440" height="720px" width="720px" />
									<g class="stem">
										<rect x="5832" y="457" height="961" width="18" />
									</g>
									<g class="accid" id="accid-0000001197596495" />
								</g>
								<g class="note" id="note-L19F2">
									<use xlink:href="#E0A4" x="6091" y="1260" height="720px" width="720px" />
									<g class="stem">
										<rect x="6299" y="504" height="734" width="18" />
									</g>
									<g class="accid" id="accid-0000000086561737" />
								</g>
							</g>
						</g>
					</g>
					<g class="staff" id="staff-L12F1N1">
						<path d="M3798 2160 L6446 2160" stroke="#000000" stroke-width="13" />
						<path d="M3798 2340 L6446 2340" stroke="#000000" stroke-width="13" />
						<path d="M3798 2520 L6446 2520" stroke="#000000" stroke-width="13" />
						<path d="M3798 2700 L6446 2700" stroke="#000000" stroke-width="13" />
						<path d="M3798 2880 L6446 2880" stroke="#000000" stroke-width="13" />
						<g class="ledgerLines above">
							<path d="M4282 1980 L4561 1980" stroke="#000000" stroke-width="22" />
						</g>
						<g class="layer" id="layer-L12F1N1">
							<g class="beam" id="beam-L13F1-L16F1">
								<polygon points="3985,3006 4987,3105 4987,3015 3985,2916 " />
								<polygon points="3985,2871 4987,2970 4987,2880 3985,2781 " />
								<g class="note" id="note-L13F1">
									<use xlink:href="#E0A4" x="3985" y="2250" height="720px" width="720px" />
									<g class="stem">
										<rect x="3985" y="2272" height="716" width="18" />
									</g>
									<g class="accid" id="accid-0000001046015131" />
								</g>
								<g class="note" id="note-L14F1">
									<use xlink:href="#E0A4" x="4313" y="1980" height="720px" width="720px" />
									<g class="stem">
										<rect x="4313" y="2002" height="1019" width="18" />
									</g>
									<g class="accid" id="accid-0000001494700767" />
								</g>
								<g class="note" id="note-L15F1">
									<use xlink:href="#E0A4" x="4641" y="2250" height="720px" width="720px" />
									<g class="stem">
										<rect x="4641" y="2272" height="782" width="18" />
									</g>
									<g class="accid" id="accid-0000001776128079" />
								</g>
								<g class="note" id="note-L16F1">
									<use xlink:href="#E0A4" x="4969" y="2430" height="720px" width="720px" />
									<g class="stem">
										<rect x="4969" y="2452" height="635" width="18" />
									</g>
									<g class="accid" id="accid-0000002084413845" />
								</g>
							</g>
							<g class="beam" id="beam-L17F1-L19F1">
								<polygon points="5296,3205 6109,3285 6109,3195 5296,3115 " />
								<polygon points="5951,3135 6109,3150 6109,3060 5951,3045 " />
								<g class="note" id="note-L17F1">
									<use xlink:href="#E0A4" x="5296" y="2250" height="720px" width="720px" />
									<g class="dots" id="dots-0000000616133813">
										<ellipse cx="5612" cy="2250" rx="36" ry="36" />
									</g>
									<g class="stem">
										<rect x="5296" y="2272" height="915" width="18" />
									</g>
									<g class="accid" id="accid-0000002016515167" />
								</g>
								<g class="note" id="note-L19F1">
									<use xlink:href="#E0A4" x="6091" y="2610" height="720px" width="720px" />
									<g class="stem">
										<rect x="6091" y="2632" height="635" width="18" />
									</g>
									<g class="accid" id="accid-0000001770229815" />
								</g>
							</g>
						</g>
					</g>
					<g class="mNum autogenerated" id="mnum-0000000648101036" />
					<g class="barLineAttr" id="bline-0000000128986233">
						<path d="M6433 2880 L6433 720" stroke="#000000" stroke-width="27" />
					</g>
				</g>
				<g class="measure" id="measure-L20">
					<g class="staff" id="staff-L20F2N1">
						<path d="M6446 720 L9565 720" stroke="#000000" stroke-width="13" />
						<path d="M6446 900 L9565 900" stroke="#000000" stroke-width="13" />
						<path d="M6446 1080 L9565 1080" stroke="#000000" stroke-width="13" />
						<path d="M6446 1260 L9565 1260" stroke="#000000" stroke-width="13" />
						<path d="M6446 1440 L9565 1440" stroke="#000000" stroke-width="13" />
						<g class="layer" id="layer-L20F2N1">
							<g class="beam" id="beam-L21F2-L23F2">
								<polygon points="7045,582 7921,496 7921,586 7045,672 " />
								<polygon points="7045,717 7203,702 7203,792 7045,807 " />
								<polygon points="7763,646 7921,631 7921,721 7763,736 " />
								<g class="note" id="note-L21F2">
									<use xlink:href="#E0A4" x="6837" y="1440" height="720px" width="720px" />
									<g class="stem">
										<rect x="7045" y="600" height="818" width="18" />
									</g>
									<g class="accid" id="accid-0000001767781970">
										<use xlink:href="#E260" x="6641" y="1440" height="720px" width="720px" />
									</g>
								</g>
								<g class="note" id="note-L22F2">
									<use xlink:href="#E0A4" x="7164" y="1260" height="720px" width="720px" />
									<g class="stem">
										<rect x="7372" y="567" height="671" width="18" />
									</g>
									<g class="accid" id="accid-0000000543676420" />
								</g>
								<g class="note" id="note-L23F2">
									<use xlink:href="#E0A4" x="7695" y="1170" height="720px" width="720px" />
									<g class="stem">
										<rect x="7903" y="514" height="634" width="18" />
									</g>
									<g class="accid" id="accid-0000001615756109">
										<use xlink:href="#E260" x="7499" y="1170" height="720px" width="720px" />
									</g>
								</g>
							</g>
							<g class="beam" id="beam-L24F2-L27F2">
								<polygon points="8434,283 9436,382 9436,472 8434,373 " />
								<polygon points="8434,418 9436,517 9436,607 8434,508 " />
								<g class="note" id="note-L24F2">
									<use xlink:href="#E0A4" x="8226" y="1080" height="720px" width="720px" />
									<g class="stem">
										<rect x="8434" y="301" height="757" width="18" />
									</g>
									<g class="accid" id="accid-0000000707677952">
										<use xlink:href="#E260" x="8030" y="1080" height="720px" width="720px" />
									</g>
								</g>
								<g class="note" id="note-L25F2">
									<use xlink:href="#E0A4" x="8554" y="990" height="720px" width="720px" />
									<g class="stem">
										<rect x="8762" y="334" height="634" width="18" />
									</g>
									<g class="accid" id="accid-0000001124778424" />
								</g>
								<g class="note" id="note-L26F2">
									<use xlink:href="#E0A4" x="8882" y="1080" height="720px" width="720px" />
									<g class="stem">
										<rect x="9090" y="367" height="691" width="18" />
									</g>
									<g class="accid" id="accid-0000000094739274" />
								</g>
								<g class="note" id="note-L27F2">
									<use xlink:href="#E0A4" x="9210" y="1440" height="720px" width="720px" />
									<g class="stem">
										<rect x="9418" y="400" height="1018" width="18" />
									</g>
									<g class="accid" id="accid-0000001185946508" />
								</g>
							</g>
						</g>
					</g>
					<g class="staff" id="staff-L20F1N1">
						<path d="M6446 2160 L9565 2160" stroke="#000000" stroke-width="13" />
						<path d="M6446 2340 L9565 2340" stroke="#000000" stroke-width="13" />
						<path d="M6446 2520 L9565 2520" stroke="#000000" stroke-width="13" />
						<path d="M6446 2700 L9565 2700" stroke="#000000" stroke-width="13" />
						<path d="M6446 2880 L9565 2880" stroke="#000000" stroke-width="13" />
						<g class="layer" id="layer-L20F1N1">
							<g class="beam" id="beam-L21F1-L23F1">
								<polygon points="6837,3285 7713,3199 7713,3109 6837,3195 " />
								<polygon points="7555,3079 7713,3064 7713,2974 7555,2989 " />
								<g class="note" id="note-L21F1">
									<use xlink:href="#E0A4" x="6837" y="2610" height="720px" width="720px" />
									<g class="dots" id="dots-0000002061658058">
										<ellipse cx="7153" cy="2610" rx="36" ry="36" />
									</g>
									<g class="stem">
										<rect x="6837" y="2632" height="635" width="18" />
									</g>
									<g class="accid" id="accid-0000001687426172" />
								</g>
								<g class="note" id="note-L23F1">
									<use xlink:href="#E0A4" x="7695" y="2340" height="720px" width="720px" />
									<g class="stem">
										<rect x="7695" y="2362" height="819" width="18" />
									</g>
									<g class="accid" id="accid-0000000686700846" />
								</g>
							</g>
							<g class="beam" id="beam-L24F1-L26F1">
								<polygon points="8226,3105 8900,3039 8900,2949 8226,3015 " />
								<polygon points="8226,2970 8563,2937 8563,2847 8226,2880 " />
								<g class="note" id="note-L24F1">
									<use xlink:href="#E0A4" x="8226" y="2430" height="720px" width="720px" />
									<g class="stem">
										<rect x="8226" y="2452" height="635" width="18" />
									</g>
									<g class="accid" id="accid-0000002133378747">
										<use xlink:href="#E260" x="8030" y="2430" height="720px" width="720px" />
									</g>
								</g>
								<g class="note" id="note-L25F1">
									<use xlink:href="#E0A4" x="8554" y="2340" height="720px" width="720px" />
									<g class="stem">
										<rect x="8554" y="2362" height="692" width="18" />
									</g>
									<g class="accid" id="accid-0000001400201116" />
								</g>
								<g class="note" id="note-L26F1">
									<use xlink:href="#E0A4" x="8882" y="2250" height="720px" width="720px" />
									<g class="stem">
										<rect x="8882" y="2272" height="749" width="18" />
									</g>
									<g class="accid" id="accid-0000001619702905" />
								</g>
							</g>
						</g>
					</g>
					<g class="tie" id="tie-L27F2-L29F2">
						<path d="M9458,1485 C9526,1583 9662,1583 9730,1485 C9662,1627 9526,1627 9458,1485" stroke="#000000" stroke-linecap="round" stroke-linejoin="round" stroke-width="9" />
					</g>
					<g class="tie" id="tie-L26F1-L29F1">
						<path d="M9130,2205 C9280,2063 9580,2063 9730,2205 C9580,2107 9280,2107 9130,2205" stroke="#000000" stroke-linecap="round" stroke-linejoin="round" stroke-width="9" />
					</g>
					<g class="mNum autogenerated" id="mnum-0000001650844892" />
					<g class="barLineAttr" id="bline-0000001791668995">
						<path d="M9552 2880 L9552 720" stroke="#000000" stroke-width="27" />
					</g>
				</g>
				<g class="measure" id="measure-L28">
					<g class="staff" id="staff-L28F2N1">
						<path d="M9565 720 L12823 720" stroke="#000000" stroke-width="13" />
						<path d="M9565 900 L12823 900" stroke="#000000" stroke-width="13" />
						<path d="M9565 1080 L12823 1080" stroke="#000000" stroke-width="13" />
						<path d="M9565 1260 L12823 1260" stroke="#000000" stroke-width="13" />
						<path d="M9565 1440 L12823 1440" stroke="#000000" stroke-width="13" />
						<g class="layer" id="layer-L28F2N1">
							<g class="beam" id="beam-L29F2-L32F2">
								<polygon points="9960,455 11368,316 11368,406 9960,545 " />
								<polygon points="9960,590 11368,451 11368,541 9960,680 " />
								<g class="note" id="note-L29F2">
									<use xlink:href="#E0A4" x="9752" y="1440" height="720px" width="720px" />
									<g class="stem">
										<rect x="9960" y="473" height="945" width="18" />
									</g>
									<g class="accid" id="accid-0000001984327388" />
								</g>
								<g class="note" id="note-L30F2">
									<use xlink:href="#E0A4" x="10080" y="1260" height="720px" width="720px" />
									<g class="stem">
										<rect x="10288" y="440" height="798" width="18" />
									</g>
									<g class="accid" id="accid-0000001222833967" />
								</g>
								<g class="note" id="note-L31F2">
									<use xlink:href="#E0A4" x="10611" y="1080" height="720px" width="720px" />
									<g class="stem">
										<rect x="10819" y="387" height="671" width="18" />
									</g>
									<g class="accid" id="accid-0000000613135658">
										<use xlink:href="#E260" x="10415" y="1080" height="720px" width="720px" />
									</g>
								</g>
								<g class="note" id="note-L32F2">
									<use xlink:href="#E0A4" x="11142" y="990" height="720px" width="720px" />
									<g class="stem">
										<rect x="11350" y="334" height="634" width="18" />
									</g>
									<g class="accid" id="accid-0000000612086166" />
								</g>
							</g>
							<g class="beam" id="beam-L33F2-L35F2">
								<polygon points="11678,406 12694,506 12694,596 11678,496 " />
								<polygon points="11678,541 11836,556 11836,646 11678,631 " />
								<polygon points="12536,626 12694,641 12694,731 12536,716 " />
								<g class="note" id="note-L33F2">
									<use xlink:href="#E0A4" x="11470" y="1080" height="720px" width="720px" />
									<g class="stem">
										<rect x="11678" y="424" height="634" width="18" />
									</g>
									<g class="accid" id="accid-0000001442148210" />
								</g>
								<g class="note" id="note-L34F2">
									<use xlink:href="#E0A4" x="12001" y="1440" height="720px" width="720px" />
									<g class="stem">
										<rect x="12209" y="477" height="941" width="18" />
									</g>
									<g class="accid" id="accid-L34F2">
										<use xlink:href="#E260" x="11805" y="1440" height="720px" width="720px" />
									</g>
								</g>
								<g class="note" id="note-L35F2">
									<use xlink:href="#E0A4" x="12468" y="1260" height="720px" width="720px" />
									<g class="stem">
										<rect x="12676" y="524" height="714" width="18" />
									</g>
									<g class="accid" id="accid-0000001652845678" />
								</g>
							</g>
						</g>
					</g>
					<g class="staff" id="staff-L28F1N1">
						<path d="M9565 2160 L12823 2160" stroke="#000000" stroke-width="13" />
						<path d="M9565 2340 L12823 2340" stroke="#000000" stroke-width="13" />
						<path d="M9565 2520 L12823 2520" stroke="#000000" stroke-width="13" />
						<path d="M9565 2700 L12823 2700" stroke="#000000" stroke-width="13" />
						<path d="M9565 2880 L12823 2880" stroke="#000000" stroke-width="13" />
						<g class="ledgerLines above">
							<path d="M10049 1980 L10328 1980" stroke="#000000" stroke-width="22" />
						</g>
						<g class="layer" id="layer-L28F1N1">
							<g class="beam" id="beam-L29F1-L32F1">
								<polygon points="9752,2966 11160,3105 11160,3015 9752,2876 " />
								<polygon points="9752,2831 11160,2970 11160,2880 9752,2741 " />
								<g class="note" id="note-L29F1">
									<use xlink:href="#E0A4" x="9752" y="2250" height="720px" width="720px" />
									<g class="stem">
										<rect x="9752" y="2272" height="676" width="18" />
									</g>
									<g class="accid" id="accid-0000001582059365" />
								</g>
								<g class="note" id="note-L30F1">
									<use xlink:href="#E0A4" x="10080" y="1980" height="720px" width="720px" />
									<g class="stem">
										<rect x="10080" y="2002" height="979" width="18" />
									</g>
									<g class="accid" id="accid-0000001252588802" />
								</g>
								<g class="note" id="note-L31F1">
									<use xlink:href="#E0A4" x="10611" y="2250" height="720px" width="720px" />
									<g class="stem">
										<rect x="10611" y="2272" height="762" width="18" />
									</g>
									<g class="accid" id="accid-0000001004975978" />
								</g>
								<g class="note" id="note-L32F1">
									<use xlink:href="#E0A4" x="11142" y="2430" height="720px" width="720px" />
									<g class="stem">
										<rect x="11142" y="2452" height="635" width="18" />
									</g>
									<g class="accid" id="accid-0000000608028423">
										<use xlink:href="#E260" x="10946" y="2430" height="720px" width="720px" />
									</g>
								</g>
							</g>
							<g class="beam" id="beam-L33F1-L35F1">
								<polygon points="11470,3185 12486,3285 12486,3195 11470,3095 " />
								<polygon points="12328,3135 12486,3150 12486,3060 12328,3045 " />
								<g class="note" id="note-L33F1">
									<use xlink:href="#E0A4" x="11470" y="2250" height="720px" width="720px" />
									<g class="dots" id="dots-0000001727829821">
										<ellipse cx="11786" cy="2250" rx="36" ry="36" />
									</g>
									<g class="stem">
										<rect x="11470" y="2272" height="895" width="18" />
									</g>
									<g class="accid" id="accid-0000000997834615" />
								</g>
								<g class="note" id="note-L35F1">
									<use xlink:href="#E0A4" x="12468" y="2610" height="720px" width="720px" />
									<g class="stem">
										<rect x="12468" y="2632" height="635" width="18" />
									</g>
									<g class="accid" id="accid-0000000407566309" />
								</g>
							</g>
						</g>
					</g>
					<g class="mNum autogenerated" id="mnum-0000001419753313" />
					<g class="barLineAttr" id="bline-0000002112824284">
						<path d="M12810 2880 L12810 720" stroke="#000000" stroke-width="27" />
					</g>
				</g>
				<g class="measure" id="measure-L36">
					<g class="staff" id="staff-L36F2N1">
						<path d="M12823 720 L16546 720" stroke="#000000" stroke-width="13" />
						<path d="M12823 900 L16546 900" stroke="#000000" stroke-width="13" />
						<path d="M12823 1080 L16546 1080" stroke="#000000" stroke-width="13" />
						<path d="M12823 1260 L16546 1260" stroke="#000000" stroke-width="13" />
						<path d="M12823 1440 L16546 1440" stroke="#000000" stroke-width="13" />
						<g class="layer" id="layer-L36F2N1">
							<g class="beam" id="beam-L37F2-L39F2">
								<polygon points="13420,422 14499,316 14499,406 13420,512 " />
								<polygon points="13420,557 13578,542 13578,632 13420,647 " />
								<polygon points="14341,466 14499,451 14499,541 14341,556 " />
								<g class="note" id="note-L37F2">
									<use xlink:href="#E0A4" x="13212" y="1260" height="720px" width="720px" />
									<g class="stem">
										<rect x="13420" y="440" height="798" width="18" />
									</g>
									<g class="accid" id="accid-0000001035124709">
										<use xlink:href="#E262" x="13017" y="1260" height="720px" width="720px" />
									</g>
								</g>
								<g class="note" id="note-L38F2">
									<use xlink:href="#E0A4" x="13742" y="1350" height="720px" width="720px" />
									<g class="stem">
										<rect x="13950" y="387" height="941" width="18" />
									</g>
									<g class="accid" id="accid-0000001447830483">
										<use xlink:href="#E262" x="13547" y="1350" height="720px" width="720px" />
									</g>
								</g>
								<g class="note" id="note-L39F2">
									<use xlink:href="#E0A4" x="14273" y="990" height="720px" width="720px" />
									<g class="stem">
										<rect x="14481" y="334" height="634" width="18" />
									</g>
									<g class="accid" id="accid-0000000730299174">
										<use xlink:href="#E262" x="14078" y="990" height="720px" width="720px" />
									</g>
								</g>
							</g>
							<g class="beam" id="beam-L40F2-L43F2">
								<polygon points="15011,314 16416,434 16416,524 15011,404 " />
								<polygon points="15011,449 16416,569 16416,659 15011,539 " />
								<g class="note" id="note-L40F2">
									<use xlink:href="#E0A4" x="14803" y="1080" height="720px" width="720px" />
									<g class="stem">
										<rect x="15011" y="332" height="726" width="18" />
									</g>
									<g class="accid" id="accid-0000001436745228" />
								</g>
								<g class="note" id="note-L41F2">
									<use xlink:href="#E0A4" x="15333" y="1170" height="720px" width="720px" />
									<g class="stem">
										<rect x="15541" y="378" height="770" width="18" />
									</g>
									<g class="accid" id="accid-0000000894145789">
										<use xlink:href="#E262" x="15138" y="1170" height="720px" width="720px" />
									</g>
								</g>
								<g class="note" id="note-L42F2">
									<use xlink:href="#E0A4" x="15863" y="1080" height="720px" width="720px" />
									<g class="stem">
										<rect x="16071" y="424" height="634" width="18" />
									</g>
									<g class="accid" id="accid-0000000778647988" />
								</g>
								<g class="note" id="note-L43F2">
									<use xlink:href="#E0A4" x="16190" y="1260" height="720px" width="720px" />
									<g class="stem">
										<rect x="16398" y="452" height="786" width="18" />
									</g>
									<g class="accid" id="accid-0000000179629814" />
								</g>
							</g>
						</g>
					</g>
					<g class="staff" id="staff-L36F1N1">
						<path d="M12823 2160 L16546 2160" stroke="#000000" stroke-width="13" />
						<path d="M12823 2340 L16546 2340" stroke="#000000" stroke-width="13" />
						<path d="M12823 2520 L16546 2520" stroke="#000000" stroke-width="13" />
						<path d="M12823 2700 L16546 2700" stroke="#000000" stroke-width="13" />
						<path d="M12823 2880 L16546 2880" stroke="#000000" stroke-width="13" />
						<g class="layer" id="layer-L36F1N1">
							<g class="beam" id="beam-L37F1-L39F1">
								<polygon points="13420,1862 14499,1756 14499,1846 13420,1952 " />
								<polygon points="14341,1906 14499,1891 14499,1981 14341,1996 " />
								<g class="note" id="note-L37F1">
									<use xlink:href="#E0A4" x="13212" y="2700" height="720px" width="720px" />
									<g class="dots" id="dots-0000000179125516">
										<ellipse cx="13528" cy="2610" rx="36" ry="36" />
									</g>
									<g class="stem">
										<rect x="13420" y="1880" height="798" width="18" />
									</g>
									<g class="accid" id="accid-0000001635613307" />
								</g>
								<g class="note" id="note-L39F1">
									<use xlink:href="#E0A4" x="14273" y="2430" height="720px" width="720px" />
									<g class="stem">
										<rect x="14481" y="1774" height="634" width="18" />
									</g>
									<g class="accid" id="accid-0000001418003911">
										<use xlink:href="#E262" x="14078" y="2430" height="720px" width="720px" />
									</g>
								</g>
							</g>
							<g class="beam" id="beam-L40F1-L42F1">
								<polygon points="14803,3195 15881,3089 15881,2999 14803,3105 " />
								<polygon points="14803,3060 15342,3007 15342,2917 14803,2970 " />
								<g class="note" id="note-L40F1">
									<use xlink:href="#E0A4" x="14803" y="2520" height="720px" width="720px" />
									<g class="stem">
										<rect x="14803" y="2542" height="635" width="18" />
									</g>
									<g class="accid" id="accid-0000000096577109">
										<use xlink:href="#E262" x="14608" y="2520" height="720px" width="720px" />
									</g>
								</g>
								<g class="note" id="note-L41F1">
									<use xlink:href="#E0A4" x="15333" y="2430" height="720px" width="720px" />
									<g class="stem">
										<rect x="15333" y="2452" height="672" width="18" />
									</g>
									<g class="accid" id="accid-0000000650948408" />
								</g>
								<g class="note" id="note-L42F1">
									<use xlink:href="#E0A4" x="15863" y="2340" height="720px" width="720px" />
									<g class="stem">
										<rect x="15863" y="2362" height="709" width="18" />
									</g>
									<g class="accid" id="accid-0000001682844081">
										<use xlink:href="#E262" x="15668" y="2340" height="720px" width="720px" />
									</g>
								</g>
							</g>
						</g>
					</g>
					<g class="tie" id="tie-L43F2-L45F2">
						<path d="M16438,1305 C16506,1403 16642,1403 16711,1305 C16642,1447 16506,1447 16438,1305" stroke="#000000" stroke-linecap="round" stroke-linejoin="round" stroke-width="9" />
					</g>
					<g class="tie" id="tie-L42F1-L45F1">
						<path d="M16111,2295 C16261,2153 16561,2153 16711,2295 C16561,2197 16261,2197 16111,2295" stroke="#000000" stroke-linecap="round" stroke-linejoin="round" stroke-width="9" />
					</g>
					<g class="mNum autogenerated" id="mnum-0000001075787067" />
					<g class="barLineAttr" id="bline-0000001812033991">
						<path d="M16533 2880 L16533 720" stroke="#000000" stroke-width="27" />
					</g>
				</g>
				<g class="measure" id="measure-L44">
					<g class="staff" id="staff-L44F2N1">
						<path d="M16546 720 L20003 720" stroke="#000000" stroke-width="13" />
						<path d="M16546 900 L20003 900" stroke="#000000" stroke-width="13" />
						<path d="M16546 1080 L20003 1080" stroke="#000000" stroke-width="13" />
						<path d="M16546 1260 L20003 1260" stroke="#000000" stroke-width="13" />
						<path d="M16546 1440 L20003 1440" stroke="#000000" stroke-width="13" />
						<g class="layer" id="layer-L44F2N1">
							<g class="beam" id="beam-L45F2-L48F2">
								<polygon points="16941,512 18549,353 18549,443 16941,602 " />
								<polygon points="16941,647 18549,488 18549,578 16941,737 " />
								<g class="note" id="note-L45F2">
									<use xlink:href="#E0A4" x="16733" y="1260" height="720px" width="720px" />
									<g class="stem">
										<rect x="16941" y="530" height="708" width="18" />
									</g>
									<g class="accid" id="accid-0000000125915498" />
								</g>
								<g class="note" id="note-L46F2">
									<use xlink:href="#E0A4" x="17263" y="1350" height="720px" width="720px" />
									<g class="stem">
										<rect x="17471" y="477" height="851" width="18" />
									</g>
									<g class="accid" id="accid-0000000214459040">
										<use xlink:href="#E262" x="17068" y="1350" height="720px" width="720px" />
									</g>
								</g>
								<g class="note" id="note-L47F2">
									<use xlink:href="#E0A4" x="17793" y="1080" height="720px" width="720px" />
									<g class="stem">
										<rect x="18001" y="424" height="634" width="18" />
									</g>
									<g class="accid" id="accid-0000001651214811" />
								</g>
								<g class="note" id="note-L48F2">
									<use xlink:href="#E0A4" x="18323" y="1170" height="720px" width="720px" />
									<g class="stem">
										<rect x="18531" y="371" height="777" width="18" />
									</g>
									<g class="accid" id="accid-0000002122092418">
										<use xlink:href="#E262" x="18128" y="1170" height="720px" width="720px" />
									</g>
								</g>
							</g>
							<g class="beam" id="beam-L49F2-L51F2">
								<polygon points="18859,406 19874,506 19874,596 18859,496 " />
								<polygon points="18859,541 19017,556 19017,646 18859,631 " />
								<polygon points="19716,626 19874,641 19874,731 19716,716 " />
								<g class="note" id="note-L49F2">
									<use xlink:href="#E0A4" x="18651" y="1080" height="720px" width="720px" />
									<g class="stem">
										<rect x="18859" y="424" height="634" width="18" />
									</g>
									<g class="accid" id="accid-0000000495053239" />
								</g>
								<g class="note" id="note-L50F2">
									<use xlink:href="#E0A4" x="19181" y="1260" height="720px" width="720px" />
									<g class="stem">
										<rect x="19389" y="477" height="761" width="18" />
									</g>
									<g class="accid" id="accid-L50F2">
										<use xlink:href="#E262" x="18986" y="1260" height="720px" width="720px" />
									</g>
								</g>
								<g class="note" id="note-L51F2">
									<use xlink:href="#E0A4" x="19648" y="1350" height="720px" width="720px" />
									<g class="stem">
										<rect x="19856" y="524" height="804" width="18" />
									</g>
									<g class="accid" id="accid-0000000808486511" />
								</g>
							</g>
						</g>
					</g>
					<g class="staff" id="staff-L44F1N1">
						<path d="M16546 2160 L20003 2160" stroke="#000000" stroke-width="13" />
						<path d="M16546 2340 L20003 2340" stroke="#000000" stroke-width="13" />
						<path d="M16546 2520 L20003 2520" stroke="#000000" stroke-width="13" />
						<path d="M16546 2700 L20003 2700" stroke="#000000" stroke-width="13" />
						<path d="M16546 2880 L20003 2880" stroke="#000000" stroke-width="13" />
						<g class="layer" id="layer-L44F1N1">
							<g class="beam" id="beam-L45F1-L48F1">
								<polygon points="16733,3036 18341,3195 18341,3105 16733,2946 " />
								<polygon points="16733,2901 18341,3060 18341,2970 16733,2811 " />
								<g class="note" id="note-L45F1">
									<use xlink:href="#E0A4" x="16733" y="2340" height="720px" width="720px" />
									<g class="stem">
										<rect x="16733" y="2362" height="656" width="18" />
									</g>
									<g class="accid" id="accid-0000002041126002" />
								</g>
								<g class="note" id="note-L46F1">
									<use xlink:href="#E0A4" x="17263" y="2070" height="720px" width="720px" />
									<g class="stem">
										<rect x="17263" y="2092" height="979" width="18" />
									</g>
									<g class="accid" id="accid-0000001341283745" />
								</g>
								<g class="note" id="note-L47F1">
									<use xlink:href="#E0A4" x="17793" y="2340" height="720px" width="720px" />
									<g class="stem">
										<rect x="17793" y="2362" height="762" width="18" />
									</g>
									<g class="accid" id="accid-L47F1">
										<use xlink:href="#E262" x="17598" y="2340" height="720px" width="720px" />
									</g>
								</g>
								<g class="note" id="note-L48F1">
									<use xlink:href="#E0A4" x="18323" y="2520" height="720px" width="720px" />
									<g class="stem">
										<rect x="18323" y="2542" height="635" width="18" />
									</g>
									<g class="accid" id="accid-0000001269223208">
										<use xlink:href="#E262" x="18128" y="2520" height="720px" width="720px" />
									</g>
								</g>
							</g>
							<g class="beam" id="beam-L49F1-L51F1">
								<polygon points="18651,3275 19666,3375 19666,3285 18651,3185 " />
								<polygon points="19508,3225 19666,3240 19666,3150 19508,3135 " />
								<g class="note" id="note-L49F1">
									<use xlink:href="#E0A4" x="18651" y="2340" height="720px" width="720px" />
									<g class="dots" id="dots-0000001580372319">
										<ellipse cx="18967" cy="2250" rx="36" ry="36" />
									</g>
									<g class="stem">
										<rect x="18651" y="2362" height="895" width="18" />
									</g>
									<g class="accid" id="accid-0000000039199467" />
								</g>
								<g class="note" id="note-L51F1">
									<use xlink:href="#E0A4" x="19648" y="2700" height="720px" width="720px" />
									<g class="stem">
										<rect x="19648" y="2722" height="635" width="18" />
									</g>
									<g class="accid" id="accid-0000000398510766" />
								</g>
							</g>
						</g>
					</g>
					<g class="mNum autogenerated" id="mnum-0000000657568486" />
					<g class="barLineAttr" id="bline-0000000332888593">
						<path d="M19990 2880 L19990 720" stroke="#000000" stroke-width="27" />
					</g>
				</g>
			</g>
		</g>
	</svg>
</svg>
