<?xml version="1.0" encoding="UTF-8" standalone="no"?>
<svg width="2100.00px" height="450.00px" version="1.1" xmlns="http://www.w3.org/2000/svg" xmlns:xlink="http://www.w3.org/1999/xlink" overflow="visible">
	<desc>Engraved by Verovio 2.0.0-dev-0f0381c</desc>
	<defs>
		<symbol id="E050" viewBox="0 0 1000 1000" overflow="inherit">
			<path transform="scale(1,-1)" d="M441 -245c-23 -4 -48 -6 -76 -6c-59 0 -102 7 -130 20c-88 42 -150 93 -187 154c-26 44 -43 103 -48 176c-4 60 11 123 44 189c29 57 65 106 110 148s96 85 153 127c-3 16 -8 46 -13 92c-4 43 -5 73 -5 89c0 117 16 172 69 257c34 54 64 82 89 82c21 0 43 -30 69 -92 s39 -115 41 -159c2 -120 -19 -173 -67 -256c-13 -20 -63 -90 -98 -118c-13 -9 -25 -19 -37 -29l31 -181c8 1 18 2 28 2c58 0 102 -12 133 -35c59 -43 92 -104 98 -184c11 -135 -80 -229 -180 -270c8 -57 17 -110 25 -162c5 -31 6 -58 6 -80c0 -30 -5 -53 -14 -70 c-35 -64 -88 -99 -158 -103c-42 -3 -83 6 -124 26c-50 24 -77 59 -80 105c-2 34 5 63 20 87c18 28 45 42 79 44c51 4 99 -40 103 -87c4 -56 -30 -94 -105 -115c17 -24 51 -36 102 -36c62 0 116 43 140 85c9 16 13 41 13 74c0 20 -1 42 -5 67c-8 53 -18 106 -26 159zM461 939 c-95 0 -135 -175 -135 -286c0 -24 2 -48 5 -71c50 39 92 82 127 128c43 57 63 106 60 148c-4 54 -23 82 -57 81zM406 119l54 -326c80 27 116 88 109 184c-7 99 -62 146 -163 142zM382 117c-74 -2 -132 -50 -128 -127c2 -46 43 -99 75 -115c-3 -2 -7 -5 -10 -10 c-70 33 -116 88 -123 172c-5 73 42 135 88 170c23 17 49 29 78 36l-29 170c-21 -13 -52 -37 -92 -73c-50 -44 -86 -84 -109 -119c-49 -75 -71 -140 -67 -195c5 -68 35 -127 93 -176s125 -73 203 -73c25 0 50 3 75 9c-19 111 -36 221 -54 331z" />
		</symbol>
		<symbol id="E082" viewBox="0 0 1000 1000" overflow="inherit">
			<path transform="scale(1,-1)" d="M104 -185c-18 0 -55 -14 -65 -65h-36l-3 29c0 25 6 46 18 64c11 19 22 30 39 43l121 82l37 29c15 11 27 29 38 54c12 24 18 47 18 70c0 40 -19 88 -94 88c-25 0 -32 0 -50 -8c-14 -5 -23 -12 -26 -22c3 -9 7 -15 10 -18l24 -17c12 -7 17 -11 27 -21c5 -7 7 -16 7 -27 c0 -12 0 -57 -79 -74c-30 0 -76 26 -76 94c0 66 80 135 196 135c72 0 182 -32 182 -150c0 -53 -32 -95 -113 -133l-91 -41c-26 -11 -45 -23 -57 -37l49 7c84 0 115 -41 148 -41c20 0 33 20 39 61h35c0 -152 -68 -168 -114 -168c-17 0 -55 0 -69 7v0l-28 17 c-49 37 -69 40 -87 42z" />
		</symbol>
		<symbol id="E084" viewBox="0 0 1000 1000" overflow="inherit">
			<path transform="scale(1,-1)" d="M0 -78c84 97 114 180 134 329h170c-13 -32 -82 -132 -99 -151l-84 -97c-33 -36 -59 -63 -80 -81h162v102l127 123v-225h57v-39h-57v-34c0 -43 19 -65 57 -65v-34h-244v36c48 0 60 26 60 70v27h-203v39z" />
		</symbol>
		<symbol id="E4E7" viewBox="0 0 1000 1000" overflow="inherit">
			<path transform="scale(1,-1)" d="M133 -111c-16 38 -21 43 -64 51c-37 -4 -60 -25 -68 -60c0 -32 18 -52 55 -58c8 -6 22 -10 43 -10c31 0 62 7 82 20l-108 -324h37c72 220 143 439 215 659h-4l-10 -2l-7 -1c-15 -35 -27 -52 -59 -71c-26 -15 -56 -27 -88 -29c-11 0 -20 2 -26 6c29 3 56 25 51 56 c-15 35 -19 42 -64 48c-38 -4 -60 -23 -68 -58c0 -32 18 -52 55 -59c7 -5 22 -8 45 -8c48 0 76 7 112 25l-66 -197c-21 -23 -50 -47 -90 -47c-7 0 -15 1 -25 4c31 5 52 22 52 55z" />
		</symbol>
		<symbol id="E0A4" viewBox="0 0 1000 1000" overflow="inherit">
			<path transform="scale(1,-1)" d="M0 -39c0 68 73 172 200 172c66 0 114 -37 114 -95c0 -84 -106 -171 -218 -171c-64 0 -96 30 -96 94z" />
		</symbol>
		<symbol id="E062" viewBox="0 0 1000 1000" overflow="inherit">
			<path transform="scale(1,-1)" d="M158 96c51 0 73 -14 88 -49l16 -39c0 -17 -2 -30 -7 -40c-3 -11 -10 -21 -19 -31c-17 -18 -49 -43 -84 -43c-55 0 -77 13 -112 44c-24 21 -35 55 -35 100c0 46 14 81 32 112c30 52 71 79 137 93l36 6l26 2c154 0 235 -68 274 -182c11 -32 18 -68 18 -107 c0 -103 -26 -182 -68 -250c-89 -145 -234 -230 -412 -288l-30 -5c-9 0 -14 3 -14 8c3 10 5 11 10 16c35 15 70 30 96 44l78 43c96 57 162 136 197 258c9 33 17 60 22 100c3 22 5 35 6 39c-7 69 -16 115 -23 140s-4 22 -16 40c-8 12 -19 23 -31 34c-24 21 -62 44 -118 44 c-48 0 -84 -8 -113 -28c-28 -19 -42 -44 -42 -73v-16c2 -5 3 -9 4 -11c24 22 52 39 84 39zM585 -118c0 32 23 58 57 58c18 0 33 -6 40 -18c9 -15 16 -18 16 -40c0 -9 -2 -16 -5 -21c-6 -19 -27 -37 -51 -37c-34 0 -57 26 -57 58zM642 177c31 0 56 -27 56 -58 c0 -30 -25 -58 -56 -58l-23 3c-19 7 -34 32 -34 55l3 23c9 20 28 35 54 35z" />
		</symbol>
		<symbol id="E260" viewBox="0 0 1000 1000" overflow="inherit">
			<path transform="scale(1,-1)" d="M20 110c32 16 54 27 93 27c26 0 35 -3 54 -13c13 -7 24 -20 27 -38l4 -25c0 -28 -16 -57 -45 -89c-23 -25 -39 -44 -65 -68l-88 -79v644h20v-359zM90 106c-32 0 -48 -10 -70 -29v-194c31 31 54 59 71 84c21 32 32 59 32 84c0 9 1 16 1 20c0 14 -3 21 -11 30l-8 3z" />
		</symbol>
	</defs>
	<style type="text/css">g.page-margin{font-family:Times;} g.tempo{font-weight:bold;} g.dir, g.dynam, g.mNum{font-style:italic;} g.label{font-weight:normal;}</style>
	<svg class="definition-scale" viewBox="0 0 21000 4500">
		<g class="page-margin" transform="translate(500, 500)">
			<g class="system" id="system-0000001399240845">
				<path d="M13 720 L13 2880" stroke="#000000" stroke-width="27" />
				<path d="M-32,2862 C-392,2322 58,1980 -212,1800 C121,1980 -329,2322 -32,2862" stroke="#000000" stroke-linecap="round" stroke-linejoin="round" stroke-width="18" />
				<path d="M-32,738 C-329,1278 121,1620 -212,1800 C58,1620 -392,1278 -32,738" stroke="#000000" stroke-linecap="round" stroke-linejoin="round" stroke-width="18" />
				<g class="section boundaryStart" id="section-L1F1" />
				<g class="measure" id="measure-L4">
					<g class="staff" id="staff-L4F2N1">
						<path d="M0 720 L4335 720" stroke="#000000" stroke-width="13" />
						<path d="M0 900 L4335 900" stroke="#000000" stroke-width="13" />
						<path d="M0 1080 L4335 1080" stroke="#000000" stroke-width="13" />
						<path d="M0 1260 L4335 1260" stroke="#000000" stroke-width="13" />
						<path d="M0 1440 L4335 1440" stroke="#000000" stroke-width="13" />
						<g class="clef" id="clef-0000002101081840">
							<use xlink:href="#E050" x="90" y="1260" height="720px" width="720px" />
						</g>
						<g class="meterSig" id="msig-0000001808877259">
							<use xlink:href="#E082" x="771" y="900" height="720px" width="720px" />
							<use xlink:href="#E084" x="777" y="1260" height="720px" width="720px" />
						</g>
						<g class="layer" id="layer-L4F2N1">
							<g class="beam" id="beam-L5F2-L8F2">
								<polygon points="1568,514 2695,487 2695,577 1568,604 " />
								<polygon points="1568,649 2695,622 2695,712 1568,739 " />
								<g class="rest" id="rest-L5F2">
									<use xlink:href="#E4E7" x="1360" y="1080" height="720px" width="720px" />
								</g>
								<g class="note" id="note-L6F2">
									<use xlink:href="#E0A4" x="1735" y="1260" height="720px" width="720px" />
									<g class="stem">
										<rect x="1943" y="523" height="715" width="18" />
									</g>
									<g class="accid" id="accid-0000001854563650" />
								</g>
								<g class="note" id="note-L7F2">
									<use xlink:href="#E0A4" x="2102" y="1170" height="720px" width="720px" />
									<g class="stem">
										<rect x="2310" y="514" height="634" width="18" />
									</g>
									<g class="accid" id="accid-0000001055954450" />
								</g>
								<g class="note" id="note-L8F2">
									<use xlink:href="#E0A4" x="2469" y="1260" height="720px" width="720px" />
									<g class="stem">
										<rect x="2677" y="505" height="733" width="18" />
									</g>
									<g class="accid" id="accid-0000001573962986" />
								</g>
							</g>
							<g class="beam" id="beam-L9F2-L12F2">
								<polygon points="3045,279 4164,389 4164,479 3045,369 " />
								<polygon points="3045,414 4164,524 4164,614 3045,504 " />
								<g class="note" id="note-L9F2">
									<use xlink:href="#E0A4" x="2837" y="1260" height="720px" width="720px" />
									<g class="stem">
										<rect x="3045" y="297" height="941" width="18" />
									</g>
									<g class="accid" id="accid-0000000342709555" />
								</g>
								<g class="note" id="note-L10F2">
									<use xlink:href="#E0A4" x="3204" y="990" height="720px" width="720px" />
									<g class="stem">
										<rect x="3412" y="334" height="634" width="18" />
									</g>
									<g class="accid" id="accid-0000001804377563" />
								</g>
								<g class="note" id="note-L11F2">
									<use xlink:href="#E0A4" x="3571" y="1260" height="720px" width="720px" />
									<g class="stem">
										<rect x="3779" y="371" height="867" width="18" />
									</g>
									<g class="accid" id="accid-0000001314639236" />
								</g>
								<g class="note" id="note-L12F2">
									<use xlink:href="#E0A4" x="3938" y="1350" height="720px" width="720px" />
									<g class="stem">
										<rect x="4146" y="407" height="921" width="18" />
									</g>
									<g class="accid" id="accid-0000000664993925" />
								</g>
							</g>
						</g>
					</g>
					<g class="staff" id="staff-L4F1N1">
						<path d="M0 2160 L4335 2160" stroke="#000000" stroke-width="13" />
						<path d="M0 2340 L4335 2340" stroke="#000000" stroke-width="13" />
						<path d="M0 2520 L4335 2520" stroke="#000000" stroke-width="13" />
						<path d="M0 2700 L4335 2700" stroke="#000000" stroke-width="13" />
						<path d="M0 2880 L4335 2880" stroke="#000000" stroke-width="13" />
						<g class="clef" id="clef-0000002021585081">
							<use xlink:href="#E062" x="90" y="2340" height="720px" width="720px" />
						</g>
						<g class="meterSig" id="msig-0000001441677180">
							<use xlink:href="#E082" x="771" y="2340" height="720px" width="720px" />
							<use xlink:href="#E084" x="777" y="2700" height="720px" width="720px" />
						</g>
						<g class="layer" id="layer-L4F1N1">
							<g class="beam" id="beam-L5F1-L8F1">
								<polygon points="1568,1867 2695,1756 2695,1846 1568,1957 " />
								<polygon points="1568,2002 2695,1891 2695,1981 1568,2092 " />
								<g class="note" id="note-L5F1">
									<use xlink:href="#E0A4" x="1360" y="2610" height="720px" width="720px" />
									<g class="stem">
										<rect x="1568" y="1885" height="703" width="18" />
									</g>
									<g class="accid" id="accid-0000000683168778" />
								</g>
								<g class="note" id="note-L6F1">
									<use xlink:href="#E0A4" x="1735" y="2520" height="720px" width="720px" />
									<g class="stem">
										<rect x="1943" y="1847" height="651" width="18" />
									</g>
									<g class="accid" id="accid-0000002118685399" />
								</g>
								<g class="note" id="note-L7F1">
									<use xlink:href="#E0A4" x="2102" y="2610" height="720px" width="720px" />
									<g class="stem">
										<rect x="2310" y="1811" height="777" width="18" />
									</g>
									<g class="accid" id="accid-0000000334323774" />
								</g>
								<g class="note" id="note-L8F1">
									<use xlink:href="#E0A4" x="2469" y="2430" height="720px" width="720px" />
									<g class="stem">
										<rect x="2677" y="1774" height="634" width="18" />
									</g>
									<g class="accid" id="accid-0000001622715503" />
								</g>
							</g>
							<g class="beam" id="beam-L9F1-L10F1">
								<polygon points="2837,3068 3222,3105 3222,3015 2837,2978 " />
								<polygon points="2837,2933 2995,2948 2995,2858 2837,2843 " />
								<g class="note" id="note-L9F1">
									<use xlink:href="#E0A4" x="2837" y="2340" height="720px" width="720px" />
									<g class="stem">
										<rect x="2837" y="2362" height="688" width="18" />
									</g>
									<g class="accid" id="accid-0000001020463629" />
								</g>
								<g class="note" id="note-L10F1">
									<use xlink:href="#E0A4" x="3204" y="2430" height="720px" width="720px" />
									<g class="dots" id="dots-0000000002989541">
										<ellipse cx="3520" cy="2430" rx="36" ry="36" />
									</g>
									<g class="stem">
										<rect x="3204" y="2452" height="635" width="18" />
									</g>
									<g class="accid" id="accid-0000001372690005" />
								</g>
							</g>
						</g>
					</g>
					<g class="tie" id="tie-L8F2-L9F2">
						<path d="M2582,1395 C2674,1493 2858,1493 2950,1395 C2858,1537 2674,1537 2582,1395" stroke="#000000" stroke-linecap="round" stroke-linejoin="round" stroke-width="9" />
					</g>
					<g class="tie" id="tie-L12F2-L14F2">
						<path d="M4186,1395 C4270,1493 4438,1493 4523,1395 C4438,1537 4270,1537 4186,1395" stroke="#000000" stroke-linecap="round" stroke-linejoin="round" stroke-width="9" />
					</g>
					<g class="mNum autogenerated" id="mnum-0000002027321609" />
					<g class="barLineAttr" id="bline-0000000723469490">
						<path d="M4322 2880 L4322 720" stroke="#000000" stroke-width="27" />
					</g>
				</g>
				<g class="measure" id="measure-L13">
					<g class="staff" id="staff-L13F2N1">
						<path d="M4335 720 L7512 720" stroke="#000000" stroke-width="13" />
						<path d="M4335 900 L7512 900" stroke="#000000" stroke-width="13" />
						<path d="M4335 1080 L7512 1080" stroke="#000000" stroke-width="13" />
						<path d="M4335 1260 L7512 1260" stroke="#000000" stroke-width="13" />
						<path d="M4335 1440 L7512 1440" stroke="#000000" stroke-width="13" />
						<g class="layer" id="layer-L13F2N1">
							<g class="beam" id="beam-L14F2-L17F2">
								<polygon points="4753,568 5872,460 5872,550 4753,658 " />
								<polygon points="4753,703 5872,595 5872,685 4753,793 " />
								<g class="note" id="note-L14F2">
									<use xlink:href="#E0A4" x="4545" y="1350" height="720px" width="720px" />
									<g class="stem">
										<rect x="4753" y="586" height="742" width="18" />
									</g>
									<g class="accid" id="accid-0000000081057348" />
								</g>
								<g class="note" id="note-L15F2">
									<use xlink:href="#E0A4" x="4912" y="1260" height="720px" width="720px" />
									<g class="stem">
										<rect x="5120" y="550" height="688" width="18" />
									</g>
									<g class="accid" id="accid-0000000576966364" />
								</g>
								<g class="note" id="note-L16F2">
									<use xlink:href="#E0A4" x="5279" y="1170" height="720px" width="720px" />
									<g class="stem">
										<rect x="5487" y="514" height="634" width="18" />
									</g>
									<g class="accid" id="accid-0000000759274923" />
								</g>
								<g class="note" id="note-L17F2">
									<use xlink:href="#E0A4" x="5646" y="1260" height="720px" width="720px" />
									<g class="stem">
										<rect x="5854" y="478" height="760" width="18" />
									</g>
									<g class="accid" id="accid-0000002070158906" />
								</g>
							</g>
							<g class="beam" id="beam-L18F2-L21F2">
								<polygon points="6222,279 7341,389 7341,479 6222,369 " />
								<polygon points="6222,414 7341,524 7341,614 6222,504 " />
								<g class="note" id="note-L18F2">
									<use xlink:href="#E0A4" x="6014" y="1260" height="720px" width="720px" />
									<g class="stem">
										<rect x="6222" y="297" height="941" width="18" />
									</g>
									<g class="accid" id="accid-0000000350141849" />
								</g>
								<g class="note" id="note-L19F2">
									<use xlink:href="#E0A4" x="6381" y="990" height="720px" width="720px" />
									<g class="stem">
										<rect x="6589" y="334" height="634" width="18" />
									</g>
									<g class="accid" id="accid-0000000759819453" />
								</g>
								<g class="note" id="note-L20F2">
									<use xlink:href="#E0A4" x="6748" y="1260" height="720px" width="720px" />
									<g class="stem">
										<rect x="6956" y="371" height="867" width="18" />
									</g>
									<g class="accid" id="accid-0000000506313207" />
								</g>
								<g class="note" id="note-L21F2">
									<use xlink:href="#E0A4" x="7115" y="1350" height="720px" width="720px" />
									<g class="stem">
										<rect x="7323" y="407" height="921" width="18" />
									</g>
									<g class="accid" id="accid-0000000765477150" />
								</g>
							</g>
						</g>
					</g>
					<g class="staff" id="staff-L13F1N1">
						<path d="M4335 2160 L7512 2160" stroke="#000000" stroke-width="13" />
						<path d="M4335 2340 L7512 2340" stroke="#000000" stroke-width="13" />
						<path d="M4335 2520 L7512 2520" stroke="#000000" stroke-width="13" />
						<path d="M4335 2700 L7512 2700" stroke="#000000" stroke-width="13" />
						<path d="M4335 2880 L7512 2880" stroke="#000000" stroke-width="13" />
						<g class="layer" id="layer-L13F1N1">
							<g class="beam" id="beam-L14F1-L17F1">
								<polygon points="4753,1866 5872,1756 5872,1846 4753,1956 " />
								<polygon points="4753,2001 5872,1891 5872,1981 4753,2091 " />
								<g class="note" id="note-L14F1">
									<use xlink:href="#E0A4" x="4545" y="2610" height="720px" width="720px" />
									<g class="stem">
										<rect x="4753" y="1884" height="704" width="18" />
									</g>
									<g class="accid" id="accid-0000001090150038" />
								</g>
								<g class="note" id="note-L15F1">
									<use xlink:href="#E0A4" x="4912" y="2520" height="720px" width="720px" />
									<g class="stem">
										<rect x="5120" y="1847" height="651" width="18" />
									</g>
									<g class="accid" id="accid-0000001594954634" />
								</g>
								<g class="note" id="note-L16F1">
									<use xlink:href="#E0A4" x="5279" y="2610" height="720px" width="720px" />
									<g class="stem">
										<rect x="5487" y="1810" height="778" width="18" />
									</g>
									<g class="accid" id="accid-0000001599989678" />
								</g>
								<g class="note" id="note-L17F1">
									<use xlink:href="#E0A4" x="5646" y="2430" height="720px" width="720px" />
									<g class="stem">
										<rect x="5854" y="1774" height="634" width="18" />
									</g>
									<g class="accid" id="accid-0000000635691181" />
								</g>
							</g>
							<g class="beam" id="beam-L18F1-L19F1">
								<polygon points="6014,3068 6399,3105 6399,3015 6014,2978 " />
								<polygon points="6014,2933 6172,2948 6172,2858 6014,2843 " />
								<g class="note" id="note-L18F1">
									<use xlink:href="#E0A4" x="6014" y="2340" height="720px" width="720px" />
									<g class="stem">
										<rect x="6014" y="2362" height="688" width="18" />
									</g>
									<g class="accid" id="accid-0000001365898780" />
								</g>
								<g class="note" id="note-L19F1">
									<use xlink:href="#E0A4" x="6381" y="2430" height="720px" width="720px" />
									<g class="dots" id="dots-0000001610382192">
										<ellipse cx="6697" cy="2430" rx="36" ry="36" />
									</g>
									<g class="stem">
										<rect x="6381" y="2452" height="635" width="18" />
									</g>
									<g class="accid" id="accid-0000000748718532" />
								</g>
							</g>
						</g>
					</g>
					<g class="tie" id="tie-L17F2-L18F2">
						<path d="M5759,1395 C5851,1493 6035,1493 6127,1395 C6035,1537 5851,1537 5759,1395" stroke="#000000" stroke-linecap="round" stroke-linejoin="round" stroke-width="9" />
					</g>
					<g class="tie" id="tie-L21F2-L23F2">
						<path d="M7363,1395 C7504,1493 7786,1493 7927,1395 C7786,1537 7504,1537 7363,1395" stroke="#000000" stroke-linecap="round" stroke-linejoin="round" stroke-width="9" />
					</g>
					<g class="mNum autogenerated" id="mnum-0000000650053841" />
					<g class="barLineAttr" id="bline-0000001432512404">
						<path d="M7499 2880 L7499 720" stroke="#000000" stroke-width="27" />
					</g>
				</g>
				<g class="measure" id="measure-L22">
					<g class="staff" id="staff-L22F2N1">
						<path d="M7512 720 L11600 720" stroke="#000000" stroke-width="13" />
						<path d="M7512 900 L11600 900" stroke="#000000" stroke-width="13" />
						<path d="M7512 1080 L11600 1080" stroke="#000000" stroke-width="13" />
						<path d="M7512 1260 L11600 1260" stroke="#000000" stroke-width="13" />
						<path d="M7512 1440 L11600 1440" stroke="#000000" stroke-width="13" />
						<g class="layer" id="layer-L22F2N1">
							<g class="beam" id="beam-L23F2-L26F2">
								<polygon points="8157,466 9733,310 9733,400 8157,556 " />
								<polygon points="8157,601 9733,445 9733,535 8157,691 " />
								<g class="note" id="note-L23F2">
									<use xlink:href="#E0A4" x="7949" y="1350" height="720px" width="720px" />
									<g class="stem">
										<rect x="8157" y="484" height="844" width="18" />
									</g>
									<g class="accid" id="accid-0000000330753499" />
								</g>
								<g class="note" id="note-L24F2">
									<use xlink:href="#E0A4" x="8544" y="1080" height="720px" width="720px" />
									<g class="stem">
										<rect x="8752" y="424" height="634" width="18" />
									</g>
									<g class="accid" id="accid-0000001458298050">
										<use xlink:href="#E260" x="8348" y="1080" height="720px" width="720px" />
									</g>
								</g>
								<g class="note" id="note-L25F2">
									<use xlink:href="#E0A4" x="8912" y="1350" height="720px" width="720px" />
									<g class="stem">
										<rect x="9120" y="387" height="941" width="18" />
									</g>
									<g class="accid" id="accid-0000002041166997" />
								</g>
								<g class="note" id="note-L26F2">
									<use xlink:href="#E0A4" x="9507" y="1080" height="720px" width="720px" />
									<g class="stem">
										<rect x="9715" y="328" height="730" width="18" />
									</g>
									<g class="accid" id="accid-0000000034808229" />
								</g>
							</g>
							<g class="beam" id="beam-L27F2-L30F2">
								<polygon points="10082,389 11429,419 11429,509 10082,479 " />
								<polygon points="10082,524 11429,554 11429,644 10082,614 " />
								<g class="note" id="note-L27F2">
									<use xlink:href="#E0A4" x="9874" y="1080" height="720px" width="720px" />
									<g class="stem">
										<rect x="10082" y="407" height="651" width="18" />
									</g>
									<g class="accid" id="accid-0000000190231616" />
								</g>
								<g class="note" id="note-L28F2">
									<use xlink:href="#E0A4" x="10241" y="1260" height="720px" width="720px" />
									<g class="stem">
										<rect x="10449" y="416" height="822" width="18" />
									</g>
									<g class="accid" id="accid-0000000007602422" />
								</g>
								<g class="note" id="note-L29F2">
									<use xlink:href="#E0A4" x="10608" y="1080" height="720px" width="720px" />
									<g class="stem">
										<rect x="10816" y="424" height="634" width="18" />
									</g>
									<g class="accid" id="accid-0000001663034843" />
								</g>
								<g class="note" id="note-L30F2">
									<use xlink:href="#E0A4" x="11203" y="1170" height="720px" width="720px" />
									<g class="stem">
										<rect x="11411" y="437" height="711" width="18" />
									</g>
									<g class="accid" id="accid-0000001832314079">
										<use xlink:href="#E260" x="11007" y="1170" height="720px" width="720px" />
									</g>
								</g>
							</g>
						</g>
					</g>
					<g class="staff" id="staff-L22F1N1">
						<path d="M7512 2160 L11600 2160" stroke="#000000" stroke-width="13" />
						<path d="M7512 2340 L11600 2340" stroke="#000000" stroke-width="13" />
						<path d="M7512 2520 L11600 2520" stroke="#000000" stroke-width="13" />
						<path d="M7512 2700 L11600 2700" stroke="#000000" stroke-width="13" />
						<path d="M7512 2880 L11600 2880" stroke="#000000" stroke-width="13" />
						<g class="layer" id="layer-L22F1N1">
							<g class="beam" id="beam-L23F1-L26F1">
								<polygon points="8157,1906 9733,1750 9733,1840 8157,1996 " />
								<polygon points="8157,2041 9733,1885 9733,1975 8157,2131 " />
								<g class="note" id="note-L23F1">
									<use xlink:href="#E0A4" x="7949" y="2700" height="720px" width="720px" />
									<g class="stem">
										<rect x="8157" y="1924" height="754" width="18" />
									</g>
									<g class="accid" id="accid-0000002019178347">
										<use xlink:href="#E260" x="7753" y="2700" height="720px" width="720px" />
									</g>
								</g>
								<g class="note" id="note-L24F1">
									<use xlink:href="#E0A4" x="8544" y="2520" height="720px" width="720px" />
									<g class="stem">
										<rect x="8752" y="1864" height="634" width="18" />
									</g>
									<g class="accid" id="accid-0000001354964712" />
								</g>
								<g class="note" id="note-L25F1">
									<use xlink:href="#E0A4" x="8912" y="2700" height="720px" width="720px" />
									<g class="stem">
										<rect x="9120" y="1827" height="851" width="18" />
									</g>
									<g class="accid" id="accid-0000000490747821" />
								</g>
								<g class="note" id="note-L26F1">
									<use xlink:href="#E0A4" x="9507" y="2430" height="720px" width="720px" />
									<g class="stem">
										<rect x="9715" y="1768" height="640" width="18" />
									</g>
									<g class="accid" id="accid-0000001955108775">
										<use xlink:href="#E260" x="9311" y="2430" height="720px" width="720px" />
									</g>
								</g>
							</g>
							<g class="beam" id="beam-L27F1-L28F1">
								<polygon points="9874,3068 10259,3105 10259,3015 9874,2978 " />
								<polygon points="9874,2933 10032,2948 10032,2858 9874,2843 " />
								<g class="note" id="note-L27F1">
									<use xlink:href="#E0A4" x="9874" y="2340" height="720px" width="720px" />
									<g class="stem">
										<rect x="9874" y="2362" height="688" width="18" />
									</g>
									<g class="accid" id="accid-0000001847290610" />
								</g>
								<g class="note" id="note-L28F1">
									<use xlink:href="#E0A4" x="10241" y="2430" height="720px" width="720px" />
									<g class="dots" id="dots-0000000066371249">
										<ellipse cx="10557" cy="2430" rx="36" ry="36" />
									</g>
									<g class="stem">
										<rect x="10241" y="2452" height="635" width="18" />
									</g>
									<g class="accid" id="accid-0000001926379450" />
								</g>
							</g>
						</g>
					</g>
					<g class="tie" id="tie-L26F2-L27F2">
						<path d="M9620,1215 C9711,1313 9893,1313 9987,1215 C9893,1357 9711,1357 9620,1215" stroke="#000000" stroke-linecap="round" stroke-linejoin="round" stroke-width="9" />
					</g>
					<g class="tie" id="tie-L30F2-L32F2">
						<path d="M11451,1215 C11592,1313 11874,1313 12015,1215 C11874,1357 11592,1357 11451,1215" stroke="#000000" stroke-linecap="round" stroke-linejoin="round" stroke-width="9" />
					</g>
					<g class="mNum autogenerated" id="mnum-0000000900030741" />
					<g class="barLineAttr" id="bline-0000001024688616">
						<path d="M11587 2880 L11587 720" stroke="#000000" stroke-width="27" />
					</g>
				</g>
				<g class="measure" id="measure-L31">
					<g class="staff" id="staff-L31F2N1">
						<path d="M11600 720 L15688 720" stroke="#000000" stroke-width="13" />
						<path d="M11600 900 L15688 900" stroke="#000000" stroke-width="13" />
						<path d="M11600 1080 L15688 1080" stroke="#000000" stroke-width="13" />
						<path d="M11600 1260 L15688 1260" stroke="#000000" stroke-width="13" />
						<path d="M11600 1440 L15688 1440" stroke="#000000" stroke-width="13" />
						<g class="layer" id="layer-L31F2N1">
							<g class="beam" id="beam-L32F2-L35F2">
								<polygon points="12245,415 13821,390 13821,480 12245,505 " />
								<polygon points="12245,550 13821,525 13821,615 12245,640 " />
								<g class="note" id="note-L32F2">
									<use xlink:href="#E0A4" x="12037" y="1170" height="720px" width="720px" />
									<g class="stem">
										<rect x="12245" y="433" height="715" width="18" />
									</g>
									<g class="accid" id="accid-0000000218794501" />
								</g>
								<g class="note" id="note-L33F2">
									<use xlink:href="#E0A4" x="12632" y="1080" height="720px" width="720px" />
									<g class="stem">
										<rect x="12840" y="424" height="634" width="18" />
									</g>
									<g class="accid" id="accid-0000001544959381">
										<use xlink:href="#E260" x="12436" y="1080" height="720px" width="720px" />
									</g>
								</g>
								<g class="note" id="note-L34F2">
									<use xlink:href="#E0A4" x="13000" y="1350" height="720px" width="720px" />
									<g class="stem">
										<rect x="13208" y="418" height="910" width="18" />
									</g>
									<g class="accid" id="accid-0000001605835136" />
								</g>
								<g class="note" id="note-L35F2">
									<use xlink:href="#E0A4" x="13595" y="1080" height="720px" width="720px" />
									<g class="stem">
										<rect x="13803" y="408" height="650" width="18" />
									</g>
									<g class="accid" id="accid-0000001958549217" />
								</g>
							</g>
							<g class="beam" id="beam-L36F2-L39F2">
								<polygon points="14170,389 15517,419 15517,509 14170,479 " />
								<polygon points="14170,524 15517,554 15517,644 14170,614 " />
								<g class="note" id="note-L36F2">
									<use xlink:href="#E0A4" x="13962" y="1080" height="720px" width="720px" />
									<g class="stem">
										<rect x="14170" y="407" height="651" width="18" />
									</g>
									<g class="accid" id="accid-0000000313779677" />
								</g>
								<g class="note" id="note-L37F2">
									<use xlink:href="#E0A4" x="14329" y="1260" height="720px" width="720px" />
									<g class="stem">
										<rect x="14537" y="416" height="822" width="18" />
									</g>
									<g class="accid" id="accid-0000001453539625" />
								</g>
								<g class="note" id="note-L38F2">
									<use xlink:href="#E0A4" x="14696" y="1080" height="720px" width="720px" />
									<g class="stem">
										<rect x="14904" y="424" height="634" width="18" />
									</g>
									<g class="accid" id="accid-0000000538905236" />
								</g>
								<g class="note" id="note-L39F2">
									<use xlink:href="#E0A4" x="15291" y="1170" height="720px" width="720px" />
									<g class="stem">
										<rect x="15499" y="437" height="711" width="18" />
									</g>
									<g class="accid" id="accid-L39F2">
										<use xlink:href="#E260" x="15095" y="1170" height="720px" width="720px" />
									</g>
								</g>
							</g>
						</g>
					</g>
					<g class="staff" id="staff-L31F1N1">
						<path d="M11600 2160 L15688 2160" stroke="#000000" stroke-width="13" />
						<path d="M11600 2340 L15688 2340" stroke="#000000" stroke-width="13" />
						<path d="M11600 2520 L15688 2520" stroke="#000000" stroke-width="13" />
						<path d="M11600 2700 L15688 2700" stroke="#000000" stroke-width="13" />
						<path d="M11600 2880 L15688 2880" stroke="#000000" stroke-width="13" />
						<g class="layer" id="layer-L31F1N1">
							<g class="beam" id="beam-L32F1-L35F1">
								<polygon points="12245,1906 13821,1750 13821,1840 12245,1996 " />
								<polygon points="12245,2041 13821,1885 13821,1975 12245,2131 " />
								<g class="note" id="note-L32F1">
									<use xlink:href="#E0A4" x="12037" y="2700" height="720px" width="720px" />
									<g class="stem">
										<rect x="12245" y="1924" height="754" width="18" />
									</g>
									<g class="accid" id="accid-0000000007724654">
										<use xlink:href="#E260" x="11841" y="2700" height="720px" width="720px" />
									</g>
								</g>
								<g class="note" id="note-L33F1">
									<use xlink:href="#E0A4" x="12632" y="2520" height="720px" width="720px" />
									<g class="stem">
										<rect x="12840" y="1864" height="634" width="18" />
									</g>
									<g class="accid" id="accid-0000001935594145" />
								</g>
								<g class="note" id="note-L34F1">
									<use xlink:href="#E0A4" x="13000" y="2700" height="720px" width="720px" />
									<g class="stem">
										<rect x="13208" y="1827" height="851" width="18" />
									</g>
									<g class="accid" id="accid-0000001237300621" />
								</g>
								<g class="note" id="note-L35F1">
									<use xlink:href="#E0A4" x="13595" y="2430" height="720px" width="720px" />
									<g class="stem">
										<rect x="13803" y="1768" height="640" width="18" />
									</g>
									<g class="accid" id="accid-0000002049786087">
										<use xlink:href="#E260" x="13399" y="2430" height="720px" width="720px" />
									</g>
								</g>
							</g>
							<g class="beam" id="beam-L36F1-L37F1">
								<polygon points="13962,3068 14347,3105 14347,3015 13962,2978 " />
								<polygon points="13962,2933 14120,2948 14120,2858 13962,2843 " />
								<g class="note" id="note-L36F1">
									<use xlink:href="#E0A4" x="13962" y="2340" height="720px" width="720px" />
									<g class="stem">
										<rect x="13962" y="2362" height="688" width="18" />
									</g>
									<g class="accid" id="accid-0000001500084779" />
								</g>
								<g class="note" id="note-L37F1">
									<use xlink:href="#E0A4" x="14329" y="2430" height="720px" width="720px" />
									<g class="dots" id="dots-0000001055460958">
										<ellipse cx="14645" cy="2430" rx="36" ry="36" />
									</g>
									<g class="stem">
										<rect x="14329" y="2452" height="635" width="18" />
									</g>
									<g class="accid" id="accid-0000001840158020" />
								</g>
							</g>
						</g>
					</g>
					<g class="tie" id="tie-L35F2-L36F2">
						<path d="M13708,1215 C13799,1313 13981,1313 14075,1215 C13981,1357 13799,1357 13708,1215" stroke="#000000" stroke-linecap="round" stroke-linejoin="round" stroke-width="9" />
					</g>
					<g class="tie" id="tie-L39F2-L41F2">
						<path d="M15539,1215 C15680,1313 15962,1313 16103,1215 C15962,1357 15680,1357 15539,1215" stroke="#000000" stroke-linecap="round" stroke-linejoin="round" stroke-width="9" />
					</g>
					<g class="mNum autogenerated" id="mnum-0000002001443865" />
					<g class="barLineAttr" id="bline-0000000233587913">
						<path d="M15675 2880 L15675 720" stroke="#000000" stroke-width="27" />
					</g>
				</g>
				<g class="measure" id="measure-L40">
					<g class="staff" id="staff-L40F2N1">
						<path d="M15688 720 L20004 720" stroke="#000000" stroke-width="13" />
						<path d="M15688 900 L20004 900" stroke="#000000" stroke-width="13" />
						<path d="M15688 1080 L20004 1080" stroke="#000000" stroke-width="13" />
						<path d="M15688 1260 L20004 1260" stroke="#000000" stroke-width="13" />
						<path d="M15688 1440 L20004 1440" stroke="#000000" stroke-width="13" />
						<g class="layer" id="layer-L40F2N1">
							<g class="beam" id="beam-L41F2-L44F2">
								<polygon points="16333,415 17909,390 17909,480 16333,505 " />
								<polygon points="16333,550 17909,525 17909,615 16333,640 " />
								<g class="note" id="note-L41F2">
									<use xlink:href="#E0A4" x="16125" y="1170" height="720px" width="720px" />
									<g class="stem">
										<rect x="16333" y="433" height="715" width="18" />
									</g>
									<g class="accid" id="accid-0000002064268534" />
								</g>
								<g class="note" id="note-L42F2">
									<use xlink:href="#E0A4" x="16720" y="1080" height="720px" width="720px" />
									<g class="stem">
										<rect x="16928" y="424" height="634" width="18" />
									</g>
									<g class="accid" id="accid-0000000205935867">
										<use xlink:href="#E260" x="16524" y="1080" height="720px" width="720px" />
									</g>
								</g>
								<g class="note" id="note-L43F2">
									<use xlink:href="#E0A4" x="17088" y="1350" height="720px" width="720px" />
									<g class="stem">
										<rect x="17296" y="418" height="910" width="18" />
									</g>
									<g class="accid" id="accid-0000000954610727" />
								</g>
								<g class="note" id="note-L44F2">
									<use xlink:href="#E0A4" x="17683" y="1080" height="720px" width="720px" />
									<g class="stem">
										<rect x="17891" y="408" height="650" width="18" />
									</g>
									<g class="accid" id="accid-0000001218310222" />
								</g>
							</g>
							<g class="beam" id="beam-L45F2-L48F2">
								<polygon points="18258,378 19833,423 19833,513 18258,468 " />
								<polygon points="18258,513 19833,558 19833,648 18258,603 " />
								<g class="note" id="note-L45F2">
									<use xlink:href="#E0A4" x="18050" y="1080" height="720px" width="720px" />
									<g class="stem">
										<rect x="18258" y="396" height="662" width="18" />
									</g>
									<g class="accid" id="accid-0000001777713717" />
								</g>
								<g class="note" id="note-L46F2">
									<use xlink:href="#E0A4" x="18645" y="1260" height="720px" width="720px" />
									<g class="stem">
										<rect x="18853" y="413" height="825" width="18" />
									</g>
									<g class="accid" id="accid-0000000614065623">
										<use xlink:href="#E260" x="18449" y="1260" height="720px" width="720px" />
									</g>
								</g>
								<g class="note" id="note-L47F2">
									<use xlink:href="#E0A4" x="19012" y="1080" height="720px" width="720px" />
									<g class="stem">
										<rect x="19220" y="424" height="634" width="18" />
									</g>
									<g class="accid" id="accid-0000001769903176" />
								</g>
								<g class="note" id="note-L48F2">
									<use xlink:href="#E0A4" x="19607" y="1170" height="720px" width="720px" />
									<g class="stem">
										<rect x="19815" y="441" height="707" width="18" />
									</g>
									<g class="accid" id="accid-L48F2">
										<use xlink:href="#E260" x="19411" y="1170" height="720px" width="720px" />
									</g>
								</g>
							</g>
						</g>
					</g>
					<g class="staff" id="staff-L40F1N1">
						<path d="M15688 2160 L20004 2160" stroke="#000000" stroke-width="13" />
						<path d="M15688 2340 L20004 2340" stroke="#000000" stroke-width="13" />
						<path d="M15688 2520 L20004 2520" stroke="#000000" stroke-width="13" />
						<path d="M15688 2700 L20004 2700" stroke="#000000" stroke-width="13" />
						<path d="M15688 2880 L20004 2880" stroke="#000000" stroke-width="13" />
						<g class="layer" id="layer-L40F1N1">
							<g class="beam" id="beam-L41F1-L44F1">
								<polygon points="16333,1798 17909,1688 17909,1778 16333,1888 " />
								<polygon points="16333,1933 17909,1823 17909,1913 16333,2023 " />
								<g class="note" id="note-L41F1">
									<use xlink:href="#E0A4" x="16125" y="2700" height="720px" width="720px" />
									<g class="stem">
										<rect x="16333" y="1816" height="862" width="18" />
									</g>
									<g class="accid" id="accid-0000001399558239">
										<use xlink:href="#E260" x="15929" y="2700" height="720px" width="720px" />
									</g>
								</g>
								<g class="note" id="note-L42F1">
									<use xlink:href="#E0A4" x="16720" y="2430" height="720px" width="720px" />
									<g class="stem">
										<rect x="16928" y="1774" height="634" width="18" />
									</g>
									<g class="accid" id="accid-0000000291209146">
										<use xlink:href="#E260" x="16524" y="2430" height="720px" width="720px" />
									</g>
								</g>
								<g class="note" id="note-L43F1">
									<use xlink:href="#E0A4" x="17088" y="2700" height="720px" width="720px" />
									<g class="stem">
										<rect x="17296" y="1748" height="930" width="18" />
									</g>
									<g class="accid" id="accid-0000002044190472" />
								</g>
								<g class="note" id="note-L44F1">
									<use xlink:href="#E0A4" x="17683" y="2520" height="720px" width="720px" />
									<g class="stem">
										<rect x="17891" y="1706" height="792" width="18" />
									</g>
									<g class="accid" id="accid-0000000494382957">
										<use xlink:href="#E260" x="17487" y="2520" height="720px" width="720px" />
									</g>
								</g>
							</g>
							<g class="beam" id="beam-L45F1-L46F1">
								<polygon points="18050,3135 18663,3195 18663,3105 18050,3045 " />
								<polygon points="18050,3000 18208,3015 18208,2925 18050,2910 " />
								<g class="note" id="note-L45F1">
									<use xlink:href="#E0A4" x="18050" y="2340" height="720px" width="720px" />
									<g class="stem">
										<rect x="18050" y="2362" height="755" width="18" />
									</g>
									<g class="accid" id="accid-0000001098906590" />
								</g>
								<g class="note" id="note-L46F1">
									<use xlink:href="#E0A4" x="18645" y="2520" height="720px" width="720px" />
									<g class="dots" id="dots-0000001160373350">
										<ellipse cx="18961" cy="2430" rx="36" ry="36" />
									</g>
									<g class="stem">
										<rect x="18645" y="2542" height="635" width="18" />
									</g>
									<g class="accid" id="accid-0000000482215836" />
								</g>
							</g>
						</g>
					</g>
					<g class="tie" id="tie-L44F2-L45F2">
						<path d="M17796,1215 C17887,1313 18069,1313 18163,1215 C18069,1357 17887,1357 17796,1215" stroke="#000000" stroke-linecap="round" stroke-linejoin="round" stroke-width="9" />
					</g>
					<g class="tie" id="tie-L48F2-L50F2">
						<path d="M19720,1305 C19787,1403 19921,1403 19991,1305 C19921,1447 19787,1447 19720,1305" stroke="#000000" stroke-linecap="round" stroke-linejoin="round" stroke-width="9" />
					</g>
					<g class="mNum autogenerated" id="mnum-0000000203602532" />
					<g class="barLineAttr" id="bline-0000001244738119">
						<path d="M19991 2880 L19991 720" stroke="#000000" stroke-width="27" />
					</g>
				</g>
			</g>
		</g>
	</svg>
</svg>
