<?xml version="1.0" encoding="UTF-8" standalone="no"?>
<svg width="2100.00px" height="450.00px" version="1.1" xmlns="http://www.w3.org/2000/svg" xmlns:xlink="http://www.w3.org/1999/xlink" overflow="visible">
	<desc>Engraved by Verovio 2.0.0-dev-0f0381c</desc>
	<defs>
		<symbol id="E050" viewBox="0 0 1000 1000" overflow="inherit">
			<path transform="scale(1,-1)" d="M441 -245c-23 -4 -48 -6 -76 -6c-59 0 -102 7 -130 20c-88 42 -150 93 -187 154c-26 44 -43 103 -48 176c-4 60 11 123 44 189c29 57 65 106 110 148s96 85 153 127c-3 16 -8 46 -13 92c-4 43 -5 73 -5 89c0 117 16 172 69 257c34 54 64 82 89 82c21 0 43 -30 69 -92 s39 -115 41 -159c2 -120 -19 -173 -67 -256c-13 -20 -63 -90 -98 -118c-13 -9 -25 -19 -37 -29l31 -181c8 1 18 2 28 2c58 0 102 -12 133 -35c59 -43 92 -104 98 -184c11 -135 -80 -229 -180 -270c8 -57 17 -110 25 -162c5 -31 6 -58 6 -80c0 -30 -5 -53 -14 -70 c-35 -64 -88 -99 -158 -103c-42 -3 -83 6 -124 26c-50 24 -77 59 -80 105c-2 34 5 63 20 87c18 28 45 42 79 44c51 4 99 -40 103 -87c4 -56 -30 -94 -105 -115c17 -24 51 -36 102 -36c62 0 116 43 140 85c9 16 13 41 13 74c0 20 -1 42 -5 67c-8 53 -18 106 -26 159zM461 939 c-95 0 -135 -175 -135 -286c0 -24 2 -48 5 -71c50 39 92 82 127 128c43 57 63 106 60 148c-4 54 -23 82 -57 81zM406 119l54 -326c80 27 116 88 109 184c-7 99 -62 146 -163 142zM382 117c-74 -2 -132 -50 -128 -127c2 -46 43 -99 75 -115c-3 -2 -7 -5 -10 -10 c-70 33 -116 88 -123 172c-5 73 42 135 88 170c23 17 49 29 78 36l-29 170c-21 -13 -52 -37 -92 -73c-50 -44 -86 -84 -109 -119c-49 -75 -71 -140 -67 -195c5 -68 35 -127 93 -176s125 -73 203 -73c25 0 50 3 75 9c-19 111 -36 221 -54 331z" />
		</symbol>
		<symbol id="E082" viewBox="0 0 1000 1000" overflow="inherit">
			<path transform="scale(1,-1)" d="M104 -185c-18 0 -55 -14 -65 -65h-36l-3 29c0 25 6 46 18 64c11 19 22 30 39 43l121 82l37 29c15 11 27 29 38 54c12 24 18 47 18 70c0 40 -19 88 -94 88c-25 0 -32 0 -50 -8c-14 -5 -23 -12 -26 -22c3 -9 7 -15 10 -18l24 -17c12 -7 17 -11 27 -21c5 -7 7 -16 7 -27 c0 -12 0 -57 -79 -74c-30 0 -76 26 -76 94c0 66 80 135 196 135c72 0 182 -32 182 -150c0 -53 -32 -95 -113 -133l-91 -41c-26 -11 -45 -23 -57 -37l49 7c84 0 115 -41 148 -41c20 0 33 20 39 61h35c0 -152 -68 -168 -114 -168c-17 0 -55 0 -69 7v0l-28 17 c-49 37 -69 40 -87 42z" />
		</symbol>
		<symbol id="E084" viewBox="0 0 1000 1000" overflow="inherit">
			<path transform="scale(1,-1)" d="M0 -78c84 97 114 180 134 329h170c-13 -32 -82 -132 -99 -151l-84 -97c-33 -36 -59 -63 -80 -81h162v102l127 123v-225h57v-39h-57v-34c0 -43 19 -65 57 -65v-34h-244v36c48 0 60 26 60 70v27h-203v39z" />
		</symbol>
		<symbol id="E0A4" viewBox="0 0 1000 1000" overflow="inherit">
			<path transform="scale(1,-1)" d="M0 -39c0 68 73 172 200 172c66 0 114 -37 114 -95c0 -84 -106 -171 -218 -171c-64 0 -96 30 -96 94z" />
		</symbol>
		<symbol id="E062" viewBox="0 0 1000 1000" overflow="inherit">
			<path transform="scale(1,-1)" d="M158 96c51 0 73 -14 88 -49l16 -39c0 -17 -2 -30 -7 -40c-3 -11 -10 -21 -19 -31c-17 -18 -49 -43 -84 -43c-55 0 -77 13 -112 44c-24 21 -35 55 -35 100c0 46 14 81 32 112c30 52 71 79 137 93l36 6l26 2c154 0 235 -68 274 -182c11 -32 18 -68 18 -107 c0 -103 -26 -182 -68 -250c-89 -145 -234 -230 -412 -288l-30 -5c-9 0 -14 3 -14 8c3 10 5 11 10 16c35 15 70 30 96 44l78 43c96 57 162 136 197 258c9 33 17 60 22 100c3 22 5 35 6 39c-7 69 -16 115 -23 140s-4 22 -16 40c-8 12 -19 23 -31 34c-24 21 -62 44 -118 44 c-48 0 -84 -8 -113 -28c-28 -19 -42 -44 -42 -73v-16c2 -5 3 -9 4 -11c24 22 52 39 84 39zM585 -118c0 32 23 58 57 58c18 0 33 -6 40 -18c9 -15 16 -18 16 -40c0 -9 -2 -16 -5 -21c-6 -19 -27 -37 -51 -37c-34 0 -57 26 -57 58zM642 177c31 0 56 -27 56 -58 c0 -30 -25 -58 -56 -58l-23 3c-19 7 -34 32 -34 55l3 23c9 20 28 35 54 35z" />
		</symbol>
		<symbol id="E260" viewBox="0 0 1000 1000" overflow="inherit">
			<path transform="scale(1,-1)" d="M20 110c32 16 54 27 93 27c26 0 35 -3 54 -13c13 -7 24 -20 27 -38l4 -25c0 -28 -16 -57 -45 -89c-23 -25 -39 -44 -65 -68l-88 -79v644h20v-359zM90 106c-32 0 -48 -10 -70 -29v-194c31 31 54 59 71 84c21 32 32 59 32 84c0 9 1 16 1 20c0 14 -3 21 -11 30l-8 3z" />
		</symbol>
		<symbol id="E262" viewBox="0 0 1000 1000" overflow="inherit">
			<path transform="scale(1,-1)" d="M136 186v169h17v-164l44 14v-91l-44 -14v-165l44 12v-91l-44 -13v-155h-17v150l-76 -22v-155h-17v149l-43 -13v90l43 14v167l-43 -14v92l43 13v169h17v-163zM60 73v-167l76 22v168z" />
		</symbol>
	</defs>
	<style type="text/css">g.page-margin{font-family:Times;} g.tempo{font-weight:bold;} g.dir, g.dynam, g.mNum{font-style:italic;} g.label{font-weight:normal;}</style>
	<svg class="definition-scale" viewBox="0 0 21000 4500">
		<g class="page-margin" transform="translate(500, 500)">
			<g class="system" id="system-0000000331665516">
				<path d="M13 720 L13 2897" stroke="#000000" stroke-width="27" />
				<path d="M-32,2879 C-392,2339 58,1989 -212,1809 C121,1989 -329,2339 -32,2879" stroke="#000000" stroke-linecap="round" stroke-linejoin="round" stroke-width="18" />
				<path d="M-32,738 C-329,1278 121,1629 -212,1809 C58,1629 -392,1278 -32,738" stroke="#000000" stroke-linecap="round" stroke-linejoin="round" stroke-width="18" />
				<g class="section boundaryStart" id="section-L1F1" />
				<g class="measure" id="measure-L4">
					<g class="staff" id="staff-L4F2N1">
						<path d="M0 720 L4488 720" stroke="#000000" stroke-width="13" />
						<path d="M0 900 L4488 900" stroke="#000000" stroke-width="13" />
						<path d="M0 1080 L4488 1080" stroke="#000000" stroke-width="13" />
						<path d="M0 1260 L4488 1260" stroke="#000000" stroke-width="13" />
						<path d="M0 1440 L4488 1440" stroke="#000000" stroke-width="13" />
						<g class="clef" id="clef-0000000483317918">
							<use xlink:href="#E050" x="90" y="1260" height="720px" width="720px" />
						</g>
						<g class="meterSig" id="msig-0000001341094872">
							<use xlink:href="#E082" x="771" y="900" height="720px" width="720px" />
							<use xlink:href="#E084" x="777" y="1260" height="720px" width="720px" />
						</g>
						<g class="layer" id="layer-L4F2N1">
							<g class="beam" id="beam-L5F2-L8F2">
								<polygon points="1580,400 2743,419 2743,509 1580,490 " />
								<polygon points="1580,535 1738,537 1738,627 1580,625 " />
								<polygon points="2585,551 2743,554 2743,644 2585,641 " />
								<g class="note" id="note-L5F2">
									<use xlink:href="#E0A4" x="1372" y="1170" height="720px" width="720px" />
									<g class="stem">
										<rect x="1580" y="418" height="730" width="18" />
									</g>
									<g class="accid" id="accid-0000000604259491" />
								</g>
								<g class="note" id="note-L6F2">
									<use xlink:href="#E0A4" x="1760" y="1080" height="720px" width="720px" />
									<g class="stem">
										<rect x="1968" y="424" height="634" width="18" />
									</g>
									<g class="accid" id="accid-0000001955617727" />
								</g>
								<g class="note" id="note-L8F2">
									<use xlink:href="#E0A4" x="2517" y="1170" height="720px" width="720px" />
									<g class="stem">
										<rect x="2725" y="437" height="711" width="18" />
									</g>
									<g class="accid" id="accid-0000000565102413" />
								</g>
							</g>
							<g class="beam" id="beam-L9F2-L12F2">
								<polygon points="3113,475 4295,367 4295,457 3113,565 " />
								<polygon points="3113,610 4295,502 4295,592 3113,700 " />
								<g class="note" id="note-L9F2">
									<use xlink:href="#E0A4" x="2905" y="1170" height="720px" width="720px" />
									<g class="stem">
										<rect x="3113" y="493" height="655" width="18" />
									</g>
									<g class="accid" id="accid-0000001821185819" />
								</g>
								<g class="note" id="note-L10F2">
									<use xlink:href="#E0A4" x="3293" y="1260" height="720px" width="720px" />
									<g class="stem">
										<rect x="3501" y="457" height="781" width="18" />
									</g>
									<g class="accid" id="accid-0000000921186093" />
								</g>
								<g class="note" id="note-L11F2">
									<use xlink:href="#E0A4" x="3681" y="1170" height="720px" width="720px" />
									<g class="stem">
										<rect x="3889" y="421" height="727" width="18" />
									</g>
									<g class="accid" id="accid-0000000303793850" />
								</g>
								<g class="note" id="note-L12F2">
									<use xlink:href="#E0A4" x="4069" y="1080" height="720px" width="720px" />
									<g class="stem">
										<rect x="4277" y="385" height="673" width="18" />
									</g>
									<g class="accid" id="accid-0000000172865613" />
								</g>
							</g>
						</g>
					</g>
					<g class="staff" id="staff-L4F1N1">
						<path d="M0 2177 L4488 2177" stroke="#000000" stroke-width="13" />
						<path d="M0 2357 L4488 2357" stroke="#000000" stroke-width="13" />
						<path d="M0 2537 L4488 2537" stroke="#000000" stroke-width="13" />
						<path d="M0 2717 L4488 2717" stroke="#000000" stroke-width="13" />
						<path d="M0 2897 L4488 2897" stroke="#000000" stroke-width="13" />
						<g class="clef" id="clef-0000001940638439">
							<use xlink:href="#E062" x="90" y="2357" height="720px" width="720px" />
						</g>
						<g class="meterSig" id="msig-0000000328613637">
							<use xlink:href="#E082" x="771" y="2357" height="720px" width="720px" />
							<use xlink:href="#E084" x="777" y="2717" height="720px" width="720px" />
						</g>
						<g class="layer" id="layer-L4F1N1">
							<g class="beam" id="beam-L5F1-L8F1">
								<polygon points="1580,1875 2743,1856 2743,1946 1580,1965 " />
								<polygon points="2345,1998 2743,1991 2743,2081 2345,2088 " />
								<g class="note" id="note-L5F1">
									<use xlink:href="#E0A4" x="1372" y="2627" height="720px" width="720px" />
									<g class="stem">
										<rect x="1580" y="1893" height="712" width="18" />
									</g>
									<g class="accid" id="accid-0000000175172745" />
								</g>
								<g class="note" id="note-L7F1">
									<use xlink:href="#E0A4" x="2128" y="2537" height="720px" width="720px" />
									<g class="stem">
										<rect x="2336" y="1881" height="634" width="18" />
									</g>
									<g class="accid" id="accid-0000000902516260" />
								</g>
								<g class="note" id="note-L8F1">
									<use xlink:href="#E0A4" x="2517" y="2627" height="720px" width="720px" />
									<g class="stem">
										<rect x="2725" y="1874" height="731" width="18" />
									</g>
									<g class="accid" id="accid-0000001296312916" />
								</g>
							</g>
							<g class="beam" id="beam-L9F1-L11F1">
								<polygon points="2905,3134 3699,3212 3699,3122 2905,3044 " />
								<polygon points="2905,2999 3302,3038 3302,2948 2905,2909 " />
								<g class="note" id="note-L9F1">
									<use xlink:href="#E0A4" x="2905" y="2267" height="720px" width="720px" />
									<g class="stem">
										<rect x="2905" y="2289" height="827" width="18" />
									</g>
									<g class="accid" id="accid-0000001202081982" />
								</g>
								<g class="note" id="note-L10F1">
									<use xlink:href="#E0A4" x="3293" y="2447" height="720px" width="720px" />
									<g class="stem">
										<rect x="3293" y="2469" height="686" width="18" />
									</g>
									<g class="accid" id="accid-0000000169722883" />
								</g>
								<g class="note" id="note-L11F1">
									<use xlink:href="#E0A4" x="3681" y="2537" height="720px" width="720px" />
									<g class="stem">
										<rect x="3681" y="2559" height="635" width="18" />
									</g>
									<g class="accid" id="accid-0000001346689983" />
								</g>
							</g>
						</g>
					</g>
					<g class="tie" id="tie-L8F2-L9F2">
						<path d="M2630,1305 C2727,1403 2921,1403 3018,1305 C2921,1447 2727,1447 2630,1305" stroke="#000000" stroke-linecap="round" stroke-linejoin="round" stroke-width="9" />
					</g>
					<g class="mNum autogenerated" id="mnum-0000000509706176" />
					<g class="barLineAttr" id="bline-0000001011846280">
						<path d="M4475 2897 L4475 720" stroke="#000000" stroke-width="27" />
					</g>
				</g>
				<g class="measure" id="measure-L13">
					<g class="staff" id="staff-L13F2N1">
						<path d="M4488 720 L7826 720" stroke="#000000" stroke-width="13" />
						<path d="M4488 900 L7826 900" stroke="#000000" stroke-width="13" />
						<path d="M4488 1080 L7826 1080" stroke="#000000" stroke-width="13" />
						<path d="M4488 1260 L7826 1260" stroke="#000000" stroke-width="13" />
						<path d="M4488 1440 L7826 1440" stroke="#000000" stroke-width="13" />
						<g class="layer" id="layer-L13F2N1">
							<g class="beam" id="beam-L14F2-L17F2">
								<polygon points="4918,400 6081,419 6081,509 4918,490 " />
								<polygon points="4918,535 5076,537 5076,627 4918,625 " />
								<polygon points="5923,551 6081,554 6081,644 5923,641 " />
								<g class="note" id="note-L14F2">
									<use xlink:href="#E0A4" x="4710" y="1170" height="720px" width="720px" />
									<g class="stem">
										<rect x="4918" y="418" height="730" width="18" />
									</g>
									<g class="accid" id="accid-0000000835937765" />
								</g>
								<g class="note" id="note-L15F2">
									<use xlink:href="#E0A4" x="5098" y="1080" height="720px" width="720px" />
									<g class="stem">
										<rect x="5306" y="424" height="634" width="18" />
									</g>
									<g class="accid" id="accid-0000001360306097" />
								</g>
								<g class="note" id="note-L17F2">
									<use xlink:href="#E0A4" x="5855" y="1170" height="720px" width="720px" />
									<g class="stem">
										<rect x="6063" y="437" height="711" width="18" />
									</g>
									<g class="accid" id="accid-0000000423147368" />
								</g>
							</g>
							<g class="beam" id="beam-L18F2-L21F2">
								<polygon points="6451,475 7633,367 7633,457 6451,565 " />
								<polygon points="6451,610 7633,502 7633,592 6451,700 " />
								<g class="note" id="note-L18F2">
									<use xlink:href="#E0A4" x="6243" y="1170" height="720px" width="720px" />
									<g class="stem">
										<rect x="6451" y="493" height="655" width="18" />
									</g>
									<g class="accid" id="accid-0000000716444123" />
								</g>
								<g class="note" id="note-L19F2">
									<use xlink:href="#E0A4" x="6631" y="1260" height="720px" width="720px" />
									<g class="stem">
										<rect x="6839" y="457" height="781" width="18" />
									</g>
									<g class="accid" id="accid-0000000574646302" />
								</g>
								<g class="note" id="note-L20F2">
									<use xlink:href="#E0A4" x="7019" y="1170" height="720px" width="720px" />
									<g class="stem">
										<rect x="7227" y="421" height="727" width="18" />
									</g>
									<g class="accid" id="accid-0000001137586357" />
								</g>
								<g class="note" id="note-L21F2">
									<use xlink:href="#E0A4" x="7407" y="1080" height="720px" width="720px" />
									<g class="stem">
										<rect x="7615" y="385" height="673" width="18" />
									</g>
									<g class="accid" id="accid-0000000475930222" />
								</g>
							</g>
						</g>
					</g>
					<g class="staff" id="staff-L13F1N1">
						<path d="M4488 2177 L7826 2177" stroke="#000000" stroke-width="13" />
						<path d="M4488 2357 L7826 2357" stroke="#000000" stroke-width="13" />
						<path d="M4488 2537 L7826 2537" stroke="#000000" stroke-width="13" />
						<path d="M4488 2717 L7826 2717" stroke="#000000" stroke-width="13" />
						<path d="M4488 2897 L7826 2897" stroke="#000000" stroke-width="13" />
						<g class="layer" id="layer-L13F1N1">
							<g class="beam" id="beam-L14F1-L17F1">
								<polygon points="4918,1875 6081,1856 6081,1946 4918,1965 " />
								<polygon points="5683,1998 6081,1991 6081,2081 5683,2088 " />
								<g class="note" id="note-L14F1">
									<use xlink:href="#E0A4" x="4710" y="2627" height="720px" width="720px" />
									<g class="stem">
										<rect x="4918" y="1893" height="712" width="18" />
									</g>
									<g class="accid" id="accid-0000001236736697" />
								</g>
								<g class="note" id="note-L16F1">
									<use xlink:href="#E0A4" x="5466" y="2537" height="720px" width="720px" />
									<g class="stem">
										<rect x="5674" y="1881" height="634" width="18" />
									</g>
									<g class="accid" id="accid-0000001371952530" />
								</g>
								<g class="note" id="note-L17F1">
									<use xlink:href="#E0A4" x="5855" y="2627" height="720px" width="720px" />
									<g class="stem">
										<rect x="6063" y="1874" height="731" width="18" />
									</g>
									<g class="accid" id="accid-0000000501697123" />
								</g>
							</g>
							<g class="beam" id="beam-L18F1-L20F1">
								<polygon points="6243,3134 7037,3212 7037,3122 6243,3044 " />
								<polygon points="6243,2999 6640,3038 6640,2948 6243,2909 " />
								<g class="note" id="note-L18F1">
									<use xlink:href="#E0A4" x="6243" y="2267" height="720px" width="720px" />
									<g class="stem">
										<rect x="6243" y="2289" height="827" width="18" />
									</g>
									<g class="accid" id="accid-0000000577106627" />
								</g>
								<g class="note" id="note-L19F1">
									<use xlink:href="#E0A4" x="6631" y="2447" height="720px" width="720px" />
									<g class="stem">
										<rect x="6631" y="2469" height="686" width="18" />
									</g>
									<g class="accid" id="accid-0000000511838260" />
								</g>
								<g class="note" id="note-L20F1">
									<use xlink:href="#E0A4" x="7019" y="2537" height="720px" width="720px" />
									<g class="stem">
										<rect x="7019" y="2559" height="635" width="18" />
									</g>
									<g class="accid" id="accid-0000001304482156" />
								</g>
							</g>
						</g>
					</g>
					<g class="tie" id="tie-L17F2-L18F2">
						<path d="M5968,1305 C6065,1403 6259,1403 6356,1305 C6259,1447 6065,1447 5968,1305" stroke="#000000" stroke-linecap="round" stroke-linejoin="round" stroke-width="9" />
					</g>
					<g class="mNum autogenerated" id="mnum-0000002134494390" />
					<g class="barLineAttr" id="bline-0000000310899627">
						<path d="M7813 2897 L7813 720" stroke="#000000" stroke-width="27" />
					</g>
				</g>
				<g class="measure" id="measure-L22">
					<g class="staff" id="staff-L22F2N1">
						<path d="M7826 720 L11886 720" stroke="#000000" stroke-width="13" />
						<path d="M7826 900 L11886 900" stroke="#000000" stroke-width="13" />
						<path d="M7826 1080 L11886 1080" stroke="#000000" stroke-width="13" />
						<path d="M7826 1260 L11886 1260" stroke="#000000" stroke-width="13" />
						<path d="M7826 1440 L11886 1440" stroke="#000000" stroke-width="13" />
						<g class="layer" id="layer-L22F2N1">
							<g class="beam" id="beam-L23F2-L26F2">
								<polygon points="8288,1846 9451,1902 9451,1812 8288,1756 " />
								<polygon points="8288,1711 8446,1718 8446,1628 8288,1621 " />
								<polygon points="9293,1759 9451,1767 9451,1677 9293,1669 " />
								<g class="note" id="note-L23F2">
									<use xlink:href="#E0A4" x="8288" y="1170" height="720px" width="720px" />
									<g class="stem">
										<rect x="8288" y="1192" height="636" width="18" />
									</g>
									<g class="accid" id="accid-0000002031879016">
										<use xlink:href="#E260" x="8092" y="1170" height="720px" width="720px" />
									</g>
								</g>
								<g class="note" id="note-L24F2">
									<use xlink:href="#E0A4" x="8677" y="900" height="720px" width="720px" />
									<g class="stem">
										<rect x="8677" y="922" height="925" width="18" />
									</g>
									<g class="accid" id="accid-0000001157822447" />
								</g>
								<g class="note" id="note-L26F2">
									<use xlink:href="#E0A4" x="9433" y="1170" height="720px" width="720px" />
									<g class="stem">
										<rect x="9433" y="1192" height="692" width="18" />
									</g>
									<g class="accid" id="accid-0000001591045562" />
								</g>
							</g>
							<g class="beam" id="beam-L27F2-L30F2">
								<polygon points="10062,1947 11486,1806 11486,1716 10062,1857 " />
								<polygon points="10062,1812 11486,1671 11486,1581 10062,1722 " />
								<g class="note" id="note-L27F2">
									<use xlink:href="#E0A4" x="10062" y="1170" height="720px" width="720px" />
									<g class="stem">
										<rect x="10062" y="1192" height="737" width="18" />
									</g>
									<g class="accid" id="accid-0000001078010408" />
								</g>
								<g class="note" id="note-L28F2">
									<use xlink:href="#E0A4" x="10691" y="1080" height="720px" width="720px" />
									<g class="stem">
										<rect x="10691" y="1102" height="764" width="18" />
									</g>
									<g class="accid" id="accid-0000001425139304">
										<use xlink:href="#E260" x="10495" y="1080" height="720px" width="720px" />
									</g>
								</g>
								<g class="note" id="note-L29F2">
									<use xlink:href="#E0A4" x="11080" y="1170" height="720px" width="720px" />
									<g class="stem">
										<rect x="11080" y="1192" height="635" width="18" />
									</g>
									<g class="accid" id="accid-0000001812586559" />
								</g>
								<g class="note" id="note-L30F2">
									<use xlink:href="#E0A4" x="11468" y="900" height="720px" width="720px" />
									<g class="stem">
										<rect x="11468" y="922" height="866" width="18" />
									</g>
									<g class="accid" id="accid-0000001694134169" />
								</g>
							</g>
						</g>
					</g>
					<g class="staff" id="staff-L22F1N1">
						<path d="M7826 2177 L11886 2177" stroke="#000000" stroke-width="13" />
						<path d="M7826 2357 L11886 2357" stroke="#000000" stroke-width="13" />
						<path d="M7826 2537 L11886 2537" stroke="#000000" stroke-width="13" />
						<path d="M7826 2717 L11886 2717" stroke="#000000" stroke-width="13" />
						<path d="M7826 2897 L11886 2897" stroke="#000000" stroke-width="13" />
						<g class="layer" id="layer-L22F1N1">
							<g class="beam" id="beam-L23F1-L26F1">
								<polygon points="8288,3277 9451,3314 9451,3224 8288,3187 " />
								<polygon points="9054,3167 9451,3179 9451,3089 9054,3077 " />
								<g class="note" id="note-L23F1">
									<use xlink:href="#E0A4" x="8288" y="2447" height="720px" width="720px" />
									<g class="stem">
										<rect x="8288" y="2469" height="790" width="18" />
									</g>
									<g class="accid" id="accid-0000000050876063">
										<use xlink:href="#E260" x="8092" y="2447" height="720px" width="720px" />
									</g>
								</g>
								<g class="note" id="note-L25F1">
									<use xlink:href="#E0A4" x="9045" y="2627" height="720px" width="720px" />
									<g class="stem">
										<rect x="9045" y="2649" height="635" width="18" />
									</g>
									<g class="accid" id="accid-0000001710368459" />
								</g>
								<g class="note" id="note-L26F1">
									<use xlink:href="#E0A4" x="9433" y="2447" height="720px" width="720px" />
									<g class="stem">
										<rect x="9433" y="2469" height="827" width="18" />
									</g>
									<g class="accid" id="accid-0000000014378943" />
								</g>
							</g>
							<g class="beam" id="beam-L27F1-L29F1">
								<polygon points="10062,3200 11098,3302 11098,3212 10062,3110 " />
								<polygon points="10062,3065 10700,3128 10700,3038 10062,2975 " />
								<g class="note" id="note-L27F1">
									<use xlink:href="#E0A4" x="10062" y="2087" height="720px" width="720px" />
									<g class="stem">
										<rect x="10062" y="2109" height="1073" width="18" />
									</g>
									<g class="accid" id="accid-0000001843269004">
										<use xlink:href="#E260" x="9866" y="2087" height="720px" width="720px" />
									</g>
								</g>
								<g class="note" id="note-L28F1">
									<use xlink:href="#E0A4" x="10691" y="2267" height="720px" width="720px" />
									<g class="stem">
										<rect x="10691" y="2289" height="956" width="18" />
									</g>
									<g class="accid" id="accid-0000001587027027" />
								</g>
								<g class="note" id="note-L29F1">
									<use xlink:href="#E0A4" x="11080" y="2627" height="720px" width="720px" />
									<g class="stem">
										<rect x="11080" y="2649" height="635" width="18" />
									</g>
									<g class="accid" id="accid-0000001836109195" />
								</g>
							</g>
						</g>
					</g>
					<g class="tie" id="tie-L26F2-L27F2">
						<path d="M9681,1125 C9770,983 9948,983 10040,1125 C9948,1027 9770,1027 9681,1125" stroke="#000000" stroke-linecap="round" stroke-linejoin="round" stroke-width="9" />
					</g>
					<g class="mNum autogenerated" id="mnum-0000001856707620" />
					<g class="barLineAttr" id="bline-0000000203526616">
						<path d="M11873 2897 L11873 720" stroke="#000000" stroke-width="27" />
					</g>
				</g>
				<g class="measure" id="measure-L31">
					<g class="staff" id="staff-L31F2N1">
						<path d="M11886 720 L15946 720" stroke="#000000" stroke-width="13" />
						<path d="M11886 900 L15946 900" stroke="#000000" stroke-width="13" />
						<path d="M11886 1080 L15946 1080" stroke="#000000" stroke-width="13" />
						<path d="M11886 1260 L15946 1260" stroke="#000000" stroke-width="13" />
						<path d="M11886 1440 L15946 1440" stroke="#000000" stroke-width="13" />
						<g class="layer" id="layer-L31F2N1">
							<g class="beam" id="beam-L32F2-L35F2">
								<polygon points="12348,1846 13511,1902 13511,1812 12348,1756 " />
								<polygon points="12348,1711 12506,1718 12506,1628 12348,1621 " />
								<polygon points="13353,1759 13511,1767 13511,1677 13353,1669 " />
								<g class="note" id="note-L32F2">
									<use xlink:href="#E0A4" x="12348" y="1170" height="720px" width="720px" />
									<g class="stem">
										<rect x="12348" y="1192" height="636" width="18" />
									</g>
									<g class="accid" id="accid-0000001470998312">
										<use xlink:href="#E260" x="12152" y="1170" height="720px" width="720px" />
									</g>
								</g>
								<g class="note" id="note-L33F2">
									<use xlink:href="#E0A4" x="12737" y="900" height="720px" width="720px" />
									<g class="stem">
										<rect x="12737" y="922" height="925" width="18" />
									</g>
									<g class="accid" id="accid-0000000693231680" />
								</g>
								<g class="note" id="note-L35F2">
									<use xlink:href="#E0A4" x="13493" y="1170" height="720px" width="720px" />
									<g class="stem">
										<rect x="13493" y="1192" height="692" width="18" />
									</g>
									<g class="accid" id="accid-0000001842479153" />
								</g>
							</g>
							<g class="beam" id="beam-L36F2-L39F2">
								<polygon points="14122,1947 15546,1806 15546,1716 14122,1857 " />
								<polygon points="14122,1812 15546,1671 15546,1581 14122,1722 " />
								<g class="note" id="note-L36F2">
									<use xlink:href="#E0A4" x="14122" y="1170" height="720px" width="720px" />
									<g class="stem">
										<rect x="14122" y="1192" height="737" width="18" />
									</g>
									<g class="accid" id="accid-0000000086322231" />
								</g>
								<g class="note" id="note-L37F2">
									<use xlink:href="#E0A4" x="14751" y="1080" height="720px" width="720px" />
									<g class="stem">
										<rect x="14751" y="1102" height="764" width="18" />
									</g>
									<g class="accid" id="accid-0000000715806674">
										<use xlink:href="#E260" x="14555" y="1080" height="720px" width="720px" />
									</g>
								</g>
								<g class="note" id="note-L38F2">
									<use xlink:href="#E0A4" x="15140" y="1170" height="720px" width="720px" />
									<g class="stem">
										<rect x="15140" y="1192" height="635" width="18" />
									</g>
									<g class="accid" id="accid-0000001365963804" />
								</g>
								<g class="note" id="note-L39F2">
									<use xlink:href="#E0A4" x="15528" y="900" height="720px" width="720px" />
									<g class="stem">
										<rect x="15528" y="922" height="866" width="18" />
									</g>
									<g class="accid" id="accid-0000000991676717" />
								</g>
							</g>
						</g>
					</g>
					<g class="staff" id="staff-L31F1N1">
						<path d="M11886 2177 L15946 2177" stroke="#000000" stroke-width="13" />
						<path d="M11886 2357 L15946 2357" stroke="#000000" stroke-width="13" />
						<path d="M11886 2537 L15946 2537" stroke="#000000" stroke-width="13" />
						<path d="M11886 2717 L15946 2717" stroke="#000000" stroke-width="13" />
						<path d="M11886 2897 L15946 2897" stroke="#000000" stroke-width="13" />
						<g class="layer" id="layer-L31F1N1">
							<g class="beam" id="beam-L32F1-L35F1">
								<polygon points="12348,3277 13511,3314 13511,3224 12348,3187 " />
								<polygon points="13114,3167 13511,3179 13511,3089 13114,3077 " />
								<g class="note" id="note-L32F1">
									<use xlink:href="#E0A4" x="12348" y="2447" height="720px" width="720px" />
									<g class="stem">
										<rect x="12348" y="2469" height="790" width="18" />
									</g>
									<g class="accid" id="accid-0000001980107802">
										<use xlink:href="#E260" x="12152" y="2447" height="720px" width="720px" />
									</g>
								</g>
								<g class="note" id="note-L34F1">
									<use xlink:href="#E0A4" x="13105" y="2627" height="720px" width="720px" />
									<g class="stem">
										<rect x="13105" y="2649" height="635" width="18" />
									</g>
									<g class="accid" id="accid-0000001202819698" />
								</g>
								<g class="note" id="note-L35F1">
									<use xlink:href="#E0A4" x="13493" y="2447" height="720px" width="720px" />
									<g class="stem">
										<rect x="13493" y="2469" height="827" width="18" />
									</g>
									<g class="accid" id="accid-0000001309860228" />
								</g>
							</g>
							<g class="beam" id="beam-L36F1-L38F1">
								<polygon points="14122,3200 15158,3302 15158,3212 14122,3110 " />
								<polygon points="14122,3065 14760,3128 14760,3038 14122,2975 " />
								<g class="note" id="note-L36F1">
									<use xlink:href="#E0A4" x="14122" y="2087" height="720px" width="720px" />
									<g class="stem">
										<rect x="14122" y="2109" height="1073" width="18" />
									</g>
									<g class="accid" id="accid-0000001306528371">
										<use xlink:href="#E260" x="13926" y="2087" height="720px" width="720px" />
									</g>
								</g>
								<g class="note" id="note-L37F1">
									<use xlink:href="#E0A4" x="14751" y="2267" height="720px" width="720px" />
									<g class="stem">
										<rect x="14751" y="2289" height="956" width="18" />
									</g>
									<g class="accid" id="accid-0000000145243135" />
								</g>
								<g class="note" id="note-L38F1">
									<use xlink:href="#E0A4" x="15140" y="2627" height="720px" width="720px" />
									<g class="stem">
										<rect x="15140" y="2649" height="635" width="18" />
									</g>
									<g class="accid" id="accid-0000001548076495" />
								</g>
							</g>
						</g>
					</g>
					<g class="tie" id="tie-L35F2-L36F2">
						<path d="M13741,1125 C13830,983 14008,983 14100,1125 C14008,1027 13830,1027 13741,1125" stroke="#000000" stroke-linecap="round" stroke-linejoin="round" stroke-width="9" />
					</g>
					<g class="mNum autogenerated" id="mnum-0000001209811569" />
					<g class="barLineAttr" id="bline-0000001585125915">
						<path d="M15933 2897 L15933 720" stroke="#000000" stroke-width="27" />
					</g>
				</g>
				<g class="measure" id="measure-L40">
					<g class="staff" id="staff-L40F2N1">
						<path d="M15946 720 L20002 720" stroke="#000000" stroke-width="13" />
						<path d="M15946 900 L20002 900" stroke="#000000" stroke-width="13" />
						<path d="M15946 1080 L20002 1080" stroke="#000000" stroke-width="13" />
						<path d="M15946 1260 L20002 1260" stroke="#000000" stroke-width="13" />
						<path d="M15946 1440 L20002 1440" stroke="#000000" stroke-width="13" />
						<g class="layer" id="layer-L40F2N1">
							<g class="beam" id="beam-L41F2-L44F2">
								<polygon points="16615,394 17778,431 17778,521 16615,484 " />
								<polygon points="16615,529 16773,533 16773,623 16615,619 " />
								<polygon points="17620,561 17778,566 17778,656 17620,651 " />
								<g class="note" id="note-L41F2">
									<use xlink:href="#E0A4" x="16407" y="1260" height="720px" width="720px" />
									<g class="stem">
										<rect x="16615" y="412" height="826" width="18" />
									</g>
									<g class="accid" id="accid-0000001281398665">
										<use xlink:href="#E262" x="16212" y="1260" height="720px" width="720px" />
									</g>
								</g>
								<g class="note" id="note-L42F2">
									<use xlink:href="#E0A4" x="16795" y="1080" height="720px" width="720px" />
									<g class="stem">
										<rect x="17003" y="424" height="634" width="18" />
									</g>
									<g class="accid" id="accid-0000000265656723" />
								</g>
								<g class="note" id="note-L44F2">
									<use xlink:href="#E0A4" x="17552" y="1260" height="720px" width="720px" />
									<g class="stem">
										<rect x="17760" y="449" height="789" width="18" />
									</g>
									<g class="accid" id="accid-0000001607996668" />
								</g>
							</g>
							<g class="beam" id="beam-L45F2-L48F2">
								<polygon points="18388,547 19810,406 19810,496 18388,637 " />
								<polygon points="18388,682 19810,541 19810,631 18388,772 " />
								<g class="note" id="note-L45F2">
									<use xlink:href="#E0A4" x="18180" y="1260" height="720px" width="720px" />
									<g class="stem">
										<rect x="18388" y="565" height="673" width="18" />
									</g>
									<g class="accid" id="accid-0000000886223284" />
								</g>
								<g class="note" id="note-L46F2">
									<use xlink:href="#E0A4" x="18808" y="1350" height="720px" width="720px" />
									<g class="stem">
										<rect x="19016" y="502" height="826" width="18" />
									</g>
									<g class="accid" id="accid-0000001241960766">
										<use xlink:href="#E262" x="18613" y="1350" height="720px" width="720px" />
									</g>
								</g>
								<g class="note" id="note-L47F2">
									<use xlink:href="#E0A4" x="19196" y="1260" height="720px" width="720px" />
									<g class="stem">
										<rect x="19404" y="463" height="775" width="18" />
									</g>
									<g class="accid" id="accid-0000000258197250" />
								</g>
								<g class="note" id="note-L48F2">
									<use xlink:href="#E0A4" x="19584" y="1080" height="720px" width="720px" />
									<g class="stem">
										<rect x="19792" y="424" height="634" width="18" />
									</g>
									<g class="accid" id="accid-0000000364316585" />
								</g>
							</g>
						</g>
					</g>
					<g class="staff" id="staff-L40F1N1">
						<path d="M15946 2177 L20002 2177" stroke="#000000" stroke-width="13" />
						<path d="M15946 2357 L20002 2357" stroke="#000000" stroke-width="13" />
						<path d="M15946 2537 L20002 2537" stroke="#000000" stroke-width="13" />
						<path d="M15946 2717 L20002 2717" stroke="#000000" stroke-width="13" />
						<path d="M15946 2897 L20002 2897" stroke="#000000" stroke-width="13" />
						<g class="layer" id="layer-L40F1N1">
							<g class="beam" id="beam-L41F1-L44F1">
								<polygon points="16615,1875 17778,1856 17778,1946 16615,1965 " />
								<polygon points="17381,1998 17778,1991 17778,2081 17381,2088 " />
								<g class="note" id="note-L41F1">
									<use xlink:href="#E0A4" x="16407" y="2627" height="720px" width="720px" />
									<g class="stem">
										<rect x="16615" y="1893" height="712" width="18" />
									</g>
									<g class="accid" id="accid-0000001146510870">
										<use xlink:href="#E262" x="16212" y="2627" height="720px" width="720px" />
									</g>
								</g>
								<g class="note" id="note-L43F1">
									<use xlink:href="#E0A4" x="17164" y="2537" height="720px" width="720px" />
									<g class="stem">
										<rect x="17372" y="1881" height="634" width="18" />
									</g>
									<g class="accid" id="accid-0000001979759189">
										<use xlink:href="#E262" x="16969" y="2537" height="720px" width="720px" />
									</g>
								</g>
								<g class="note" id="note-L44F1">
									<use xlink:href="#E0A4" x="17552" y="2627" height="720px" width="720px" />
									<g class="stem">
										<rect x="17760" y="1874" height="731" width="18" />
									</g>
									<g class="accid" id="accid-0000001668956893" />
								</g>
							</g>
							<g class="beam" id="beam-L45F1-L47F1">
								<polygon points="18180,3110 19214,3212 19214,3122 18180,3020 " />
								<polygon points="18180,2975 18817,3038 18817,2948 18180,2885 " />
								<g class="note" id="note-L45F1">
									<use xlink:href="#E0A4" x="18180" y="2357" height="720px" width="720px" />
									<g class="stem">
										<rect x="18180" y="2379" height="713" width="18" />
									</g>
									<g class="accid" id="accid-0000001857329819">
										<use xlink:href="#E262" x="17985" y="2357" height="720px" width="720px" />
									</g>
								</g>
								<g class="note" id="note-L46F1">
									<use xlink:href="#E0A4" x="18808" y="2177" height="720px" width="720px" />
									<g class="stem">
										<rect x="18808" y="2199" height="956" width="18" />
									</g>
									<g class="accid" id="accid-0000000523142699">
										<use xlink:href="#E262" x="18613" y="2177" height="720px" width="720px" />
									</g>
								</g>
								<g class="note" id="note-L47F1">
									<use xlink:href="#E0A4" x="19196" y="2537" height="720px" width="720px" />
									<g class="stem">
										<rect x="19196" y="2559" height="635" width="18" />
									</g>
									<g class="accid" id="accid-0000001094585700" />
								</g>
							</g>
						</g>
					</g>
					<g class="tie" id="tie-L44F2-L45F2">
						<path d="M17800,1305 C17889,1403 18067,1403 18158,1305 C18067,1447 17889,1447 17800,1305" stroke="#000000" stroke-linecap="round" stroke-linejoin="round" stroke-width="9" />
					</g>
					<g class="mNum autogenerated" id="mnum-0000001838833442" />
					<g class="barLineAttr" id="bline-0000000535745961">
						<path d="M19989 2897 L19989 720" stroke="#000000" stroke-width="27" />
					</g>
				</g>
			</g>
		</g>
	</svg>
</svg>
