<?xml version="1.0" encoding="UTF-8" standalone="no"?>
<svg width="2100.00px" height="450.00px" version="1.1" xmlns="http://www.w3.org/2000/svg" xmlns:xlink="http://www.w3.org/1999/xlink" overflow="visible">
	<desc>Engraved by Verovio 2.0.0-dev-0f0381c</desc>
	<defs>
		<symbol id="E050" viewBox="0 0 1000 1000" overflow="inherit">
			<path transform="scale(1,-1)" d="M441 -245c-23 -4 -48 -6 -76 -6c-59 0 -102 7 -130 20c-88 42 -150 93 -187 154c-26 44 -43 103 -48 176c-4 60 11 123 44 189c29 57 65 106 110 148s96 85 153 127c-3 16 -8 46 -13 92c-4 43 -5 73 -5 89c0 117 16 172 69 257c34 54 64 82 89 82c21 0 43 -30 69 -92 s39 -115 41 -159c2 -120 -19 -173 -67 -256c-13 -20 -63 -90 -98 -118c-13 -9 -25 -19 -37 -29l31 -181c8 1 18 2 28 2c58 0 102 -12 133 -35c59 -43 92 -104 98 -184c11 -135 -80 -229 -180 -270c8 -57 17 -110 25 -162c5 -31 6 -58 6 -80c0 -30 -5 -53 -14 -70 c-35 -64 -88 -99 -158 -103c-42 -3 -83 6 -124 26c-50 24 -77 59 -80 105c-2 34 5 63 20 87c18 28 45 42 79 44c51 4 99 -40 103 -87c4 -56 -30 -94 -105 -115c17 -24 51 -36 102 -36c62 0 116 43 140 85c9 16 13 41 13 74c0 20 -1 42 -5 67c-8 53 -18 106 -26 159zM461 939 c-95 0 -135 -175 -135 -286c0 -24 2 -48 5 -71c50 39 92 82 127 128c43 57 63 106 60 148c-4 54 -23 82 -57 81zM406 119l54 -326c80 27 116 88 109 184c-7 99 -62 146 -163 142zM382 117c-74 -2 -132 -50 -128 -127c2 -46 43 -99 75 -115c-3 -2 -7 -5 -10 -10 c-70 33 -116 88 -123 172c-5 73 42 135 88 170c23 17 49 29 78 36l-29 170c-21 -13 -52 -37 -92 -73c-50 -44 -86 -84 -109 -119c-49 -75 -71 -140 -67 -195c5 -68 35 -127 93 -176s125 -73 203 -73c25 0 50 3 75 9c-19 111 -36 221 -54 331z" />
		</symbol>
		<symbol id="E082" viewBox="0 0 1000 1000" overflow="inherit">
			<path transform="scale(1,-1)" d="M104 -185c-18 0 -55 -14 -65 -65h-36l-3 29c0 25 6 46 18 64c11 19 22 30 39 43l121 82l37 29c15 11 27 29 38 54c12 24 18 47 18 70c0 40 -19 88 -94 88c-25 0 -32 0 -50 -8c-14 -5 -23 -12 -26 -22c3 -9 7 -15 10 -18l24 -17c12 -7 17 -11 27 -21c5 -7 7 -16 7 -27 c0 -12 0 -57 -79 -74c-30 0 -76 26 -76 94c0 66 80 135 196 135c72 0 182 -32 182 -150c0 -53 -32 -95 -113 -133l-91 -41c-26 -11 -45 -23 -57 -37l49 7c84 0 115 -41 148 -41c20 0 33 20 39 61h35c0 -152 -68 -168 -114 -168c-17 0 -55 0 -69 7v0l-28 17 c-49 37 -69 40 -87 42z" />
		</symbol>
		<symbol id="E084" viewBox="0 0 1000 1000" overflow="inherit">
			<path transform="scale(1,-1)" d="M0 -78c84 97 114 180 134 329h170c-13 -32 -82 -132 -99 -151l-84 -97c-33 -36 -59 -63 -80 -81h162v102l127 123v-225h57v-39h-57v-34c0 -43 19 -65 57 -65v-34h-244v36c48 0 60 26 60 70v27h-203v39z" />
		</symbol>
		<symbol id="E4E5" viewBox="0 0 1000 1000" overflow="inherit">
			<path transform="scale(1,-1)" d="M107 292c-13 24 -30 49 -52 71c-1 1 0 2 0 3l-2 2c3 3 4 4 6 4c12 0 26 -7 40 -20s44 -40 89 -81c26 -24 28 -29 46 -47c4 -4 8 -9 10 -14c6 -8 8 -16 8 -27c0 -19 -12 -40 -36 -61c-28 -23 -49 -38 -61 -73c-4 -11 -7 -27 -10 -50c13 -43 34 -83 59 -121 c31 -47 59 -79 101 -129c-8 0 -26 7 -54 20l-62 29l-21 6l-23 1c-25 0 -45 -10 -60 -30l-4 -14l-1 -12c0 -33 20 -56 39 -78c8 -9 17 -18 26 -26c17 -15 27 -24 28 -30l-3 -3c-11 5 -19 10 -25 15c-9 3 -37 21 -45 26c-24 14 -45 32 -63 51c-19 21 -37 44 -37 71 c0 63 27 95 80 95c41 0 86 -18 136 -52c-19 26 -37 48 -55 66c-23 23 -48 44 -73 65c-28 23 -47 40 -58 53s-17 26 -18 39c75 64 113 125 113 183c0 27 -7 48 -18 68z" />
		</symbol>
		<symbol id="E0A4" viewBox="0 0 1000 1000" overflow="inherit">
			<path transform="scale(1,-1)" d="M0 -39c0 68 73 172 200 172c66 0 114 -37 114 -95c0 -84 -106 -171 -218 -171c-64 0 -96 30 -96 94z" />
		</symbol>
		<symbol id="E062" viewBox="0 0 1000 1000" overflow="inherit">
			<path transform="scale(1,-1)" d="M158 96c51 0 73 -14 88 -49l16 -39c0 -17 -2 -30 -7 -40c-3 -11 -10 -21 -19 -31c-17 -18 -49 -43 -84 -43c-55 0 -77 13 -112 44c-24 21 -35 55 -35 100c0 46 14 81 32 112c30 52 71 79 137 93l36 6l26 2c154 0 235 -68 274 -182c11 -32 18 -68 18 -107 c0 -103 -26 -182 -68 -250c-89 -145 -234 -230 -412 -288l-30 -5c-9 0 -14 3 -14 8c3 10 5 11 10 16c35 15 70 30 96 44l78 43c96 57 162 136 197 258c9 33 17 60 22 100c3 22 5 35 6 39c-7 69 -16 115 -23 140s-4 22 -16 40c-8 12 -19 23 -31 34c-24 21 -62 44 -118 44 c-48 0 -84 -8 -113 -28c-28 -19 -42 -44 -42 -73v-16c2 -5 3 -9 4 -11c24 22 52 39 84 39zM585 -118c0 32 23 58 57 58c18 0 33 -6 40 -18c9 -15 16 -18 16 -40c0 -9 -2 -16 -5 -21c-6 -19 -27 -37 -51 -37c-34 0 -57 26 -57 58zM642 177c31 0 56 -27 56 -58 c0 -30 -25 -58 -56 -58l-23 3c-19 7 -34 32 -34 55l3 23c9 20 28 35 54 35z" />
		</symbol>
		<symbol id="E260" viewBox="0 0 1000 1000" overflow="inherit">
			<path transform="scale(1,-1)" d="M20 110c32 16 54 27 93 27c26 0 35 -3 54 -13c13 -7 24 -20 27 -38l4 -25c0 -28 -16 -57 -45 -89c-23 -25 -39 -44 -65 -68l-88 -79v644h20v-359zM90 106c-32 0 -48 -10 -70 -29v-194c31 31 54 59 71 84c21 32 32 59 32 84c0 9 1 16 1 20c0 14 -3 21 -11 30l-8 3z" />
		</symbol>
		<symbol id="E262" viewBox="0 0 1000 1000" overflow="inherit">
			<path transform="scale(1,-1)" d="M136 186v169h17v-164l44 14v-91l-44 -14v-165l44 12v-91l-44 -13v-155h-17v150l-76 -22v-155h-17v149l-43 -13v90l43 14v167l-43 -14v92l43 13v169h17v-163zM60 73v-167l76 22v168z" />
		</symbol>
	</defs>
	<style type="text/css">g.page-margin{font-family:Times;} g.tempo{font-weight:bold;} g.dir, g.dynam, g.mNum{font-style:italic;} g.label{font-weight:normal;}</style>
	<svg class="definition-scale" viewBox="0 0 21000 4500">
		<g class="page-margin" transform="translate(500, 500)">
			<g class="system" id="system-0000001878834203">
				<path d="M13 720 L13 2900" stroke="#000000" stroke-width="27" />
				<path d="M-32,2882 C-392,2342 58,1990 -212,1810 C121,1990 -329,2342 -32,2882" stroke="#000000" stroke-linecap="round" stroke-linejoin="round" stroke-width="18" />
				<path d="M-32,738 C-329,1278 121,1630 -212,1810 C58,1630 -392,1278 -32,738" stroke="#000000" stroke-linecap="round" stroke-linejoin="round" stroke-width="18" />
				<g class="section boundaryStart" id="section-L1F1" />
				<g class="measure" id="measure-L4">
					<g class="staff" id="staff-L4F2N1">
						<path d="M0 720 L4383 720" stroke="#000000" stroke-width="13" />
						<path d="M0 900 L4383 900" stroke="#000000" stroke-width="13" />
						<path d="M0 1080 L4383 1080" stroke="#000000" stroke-width="13" />
						<path d="M0 1260 L4383 1260" stroke="#000000" stroke-width="13" />
						<path d="M0 1440 L4383 1440" stroke="#000000" stroke-width="13" />
						<g class="clef" id="clef-0000000220195021">
							<use xlink:href="#E050" x="90" y="1260" height="720px" width="720px" />
						</g>
						<g class="meterSig" id="msig-0000000703394166">
							<use xlink:href="#E082" x="771" y="900" height="720px" width="720px" />
							<use xlink:href="#E084" x="777" y="1260" height="720px" width="720px" />
						</g>
						<g class="layer" id="layer-L4F2N1">
							<g class="rest" id="rest-L5F2">
								<use xlink:href="#E4E5" x="1379" y="1080" height="720px" width="720px" />
							</g>
							<g class="beam" id="beam-L9F2-L11F2">
								<polygon points="3189,586 4178,683 4178,773 3189,676 " />
								<polygon points="3769,778 4178,818 4178,908 3769,868 " />
								<g class="note" id="note-L9F2">
									<use xlink:href="#E0A4" x="2981" y="1260" height="720px" width="720px" />
									<g class="stem">
										<rect x="3189" y="604" height="634" width="18" />
									</g>
									<g class="accid" id="accid-0000001082831161" />
								</g>
								<g class="note" id="note-L10F2">
									<use xlink:href="#E0A4" x="3552" y="1350" height="720px" width="720px" />
									<g class="stem">
										<rect x="3760" y="661" height="667" width="18" />
									</g>
									<g class="accid" id="accid-0000001826298984" />
								</g>
								<g class="note" id="note-L11F2">
									<use xlink:href="#E0A4" x="3952" y="1440" height="720px" width="720px" />
									<g class="stem">
										<rect x="4160" y="701" height="717" width="18" />
									</g>
									<g class="accid" id="accid-0000001811341800" />
								</g>
							</g>
						</g>
					</g>
					<g class="staff" id="staff-L4F1N1">
						<path d="M0 2180 L4383 2180" stroke="#000000" stroke-width="13" />
						<path d="M0 2360 L4383 2360" stroke="#000000" stroke-width="13" />
						<path d="M0 2540 L4383 2540" stroke="#000000" stroke-width="13" />
						<path d="M0 2720 L4383 2720" stroke="#000000" stroke-width="13" />
						<path d="M0 2900 L4383 2900" stroke="#000000" stroke-width="13" />
						<g class="clef" id="clef-0000000048271227">
							<use xlink:href="#E062" x="90" y="2360" height="720px" width="720px" />
						</g>
						<g class="meterSig" id="msig-0000001693177270">
							<use xlink:href="#E082" x="771" y="2360" height="720px" width="720px" />
							<use xlink:href="#E084" x="777" y="2720" height="720px" width="720px" />
						</g>
						<g class="layer" id="layer-L4F1N1">
							<g class="beam" id="beam-L5F1-L8F1">
								<polygon points="1587,1896 2806,1776 2806,1866 1587,1986 " />
								<polygon points="1587,2031 2806,1911 2806,2001 1587,2121 " />
								<g class="note" id="note-L5F1">
									<use xlink:href="#E0A4" x="1379" y="2630" height="720px" width="720px" />
									<g class="stem">
										<rect x="1587" y="1914" height="694" width="18" />
									</g>
									<g class="accid" id="accid-0000001707648798" />
								</g>
								<g class="note" id="note-L6F1">
									<use xlink:href="#E0A4" x="1779" y="2540" height="720px" width="720px" />
									<g class="stem">
										<rect x="1987" y="1874" height="644" width="18" />
									</g>
									<g class="accid" id="accid-0000001748602487" />
								</g>
								<g class="note" id="note-L7F1">
									<use xlink:href="#E0A4" x="2180" y="2630" height="720px" width="720px" />
									<g class="stem">
										<rect x="2388" y="1834" height="774" width="18" />
									</g>
									<g class="accid" id="accid-0000001034270222" />
								</g>
								<g class="note" id="note-L8F1">
									<use xlink:href="#E0A4" x="2580" y="2450" height="720px" width="720px" />
									<g class="stem">
										<rect x="2788" y="1794" height="634" width="18" />
									</g>
									<g class="accid" id="accid-0000000739210079" />
								</g>
							</g>
							<g class="beam" id="beam-L9F1-L11F1">
								<polygon points="3189,1769 4178,1866 4178,1956 3189,1859 " />
								<polygon points="3769,1961 4178,2001 4178,2091 3769,2051 " />
								<g class="note" id="note-L9F1">
									<use xlink:href="#E0A4" x="2981" y="2450" height="720px" width="720px" />
									<g class="stem">
										<rect x="3189" y="1787" height="641" width="18" />
									</g>
									<g class="accid" id="accid-0000001959817124" />
								</g>
								<g class="note" id="note-L10F1">
									<use xlink:href="#E0A4" x="3552" y="2720" height="720px" width="720px" />
									<g class="stem">
										<rect x="3760" y="1844" height="854" width="18" />
									</g>
									<g class="accid" id="accid-0000001408881053" />
								</g>
								<g class="note" id="note-L11F1">
									<use xlink:href="#E0A4" x="3952" y="2540" height="720px" width="720px" />
									<g class="stem">
										<rect x="4160" y="1884" height="634" width="18" />
									</g>
									<g class="accid" id="accid-0000001005956438" />
								</g>
							</g>
						</g>
					</g>
					<g class="tie" id="tie-L8F1-L9F1">
						<path d="M2693,2585 C2793,2683 2993,2683 3094,2585 C2993,2727 2793,2727 2693,2585" stroke="#000000" stroke-linecap="round" stroke-linejoin="round" stroke-width="9" />
					</g>
					<g class="mNum autogenerated" id="mnum-0000000246590835" />
					<g class="barLineAttr" id="bline-0000000659538373">
						<path d="M4370 2900 L4370 720" stroke="#000000" stroke-width="27" />
					</g>
				</g>
				<g class="measure" id="measure-L12">
					<g class="staff" id="staff-L12F2N1">
						<path d="M4383 720 L7847 720" stroke="#000000" stroke-width="13" />
						<path d="M4383 900 L7847 900" stroke="#000000" stroke-width="13" />
						<path d="M4383 1080 L7847 1080" stroke="#000000" stroke-width="13" />
						<path d="M4383 1260 L7847 1260" stroke="#000000" stroke-width="13" />
						<path d="M4383 1440 L7847 1440" stroke="#000000" stroke-width="13" />
						<g class="ledgerLines below">
							<path d="M4581 1620 L4860 1620" stroke="#000000" stroke-width="22" />
						</g>
						<g class="layer" id="layer-L12F2N1">
							<g class="beam" id="beam-L13F2-L16F2">
								<polygon points="4820,436 6039,316 6039,406 4820,526 " />
								<polygon points="4820,571 6039,451 6039,541 4820,661 " />
								<g class="note" id="note-L13F2">
									<use xlink:href="#E0A4" x="4612" y="1620" height="720px" width="720px" />
									<g class="stem">
										<rect x="4820" y="454" height="1144" width="18" />
									</g>
									<g class="accid" id="accid-0000002059536781" />
								</g>
								<g class="note" id="note-L14F2">
									<use xlink:href="#E0A4" x="5012" y="1440" height="720px" width="720px" />
									<g class="stem">
										<rect x="5220" y="414" height="1004" width="18" />
									</g>
									<g class="accid" id="accid-0000001658365405" />
								</g>
								<g class="note" id="note-L15F2">
									<use xlink:href="#E0A4" x="5413" y="1350" height="720px" width="720px" />
									<g class="stem">
										<rect x="5621" y="374" height="954" width="18" />
									</g>
									<g class="accid" id="accid-0000000658946946" />
								</g>
								<g class="note" id="note-L16F2">
									<use xlink:href="#E0A4" x="5813" y="990" height="720px" width="720px" />
									<g class="stem">
										<rect x="6021" y="334" height="634" width="18" />
									</g>
									<g class="accid" id="accid-0000001676184873" />
								</g>
							</g>
							<g class="beam" id="beam-L17F2-L20F2">
								<polygon points="6422,276 7642,396 7642,486 6422,366 " />
								<polygon points="6422,411 7642,531 7642,621 6422,501 " />
								<g class="note" id="note-L17F2">
									<use xlink:href="#E0A4" x="6214" y="1080" height="720px" width="720px" />
									<g class="stem">
										<rect x="6422" y="294" height="764" width="18" />
									</g>
									<g class="accid" id="accid-0000000046398212" />
								</g>
								<g class="note" id="note-L18F2">
									<use xlink:href="#E0A4" x="6615" y="990" height="720px" width="720px" />
									<g class="stem">
										<rect x="6823" y="334" height="634" width="18" />
									</g>
									<g class="accid" id="accid-0000000387143442" />
								</g>
								<g class="note" id="note-L19F2">
									<use xlink:href="#E0A4" x="7015" y="1260" height="720px" width="720px" />
									<g class="stem">
										<rect x="7223" y="374" height="864" width="18" />
									</g>
									<g class="accid" id="accid-0000000117708234" />
								</g>
								<g class="note" id="note-L20F2">
									<use xlink:href="#E0A4" x="7416" y="1350" height="720px" width="720px" />
									<g class="stem">
										<rect x="7624" y="414" height="914" width="18" />
									</g>
									<g class="accid" id="accid-0000001603307506" />
								</g>
							</g>
						</g>
					</g>
					<g class="staff" id="staff-L12F1N1">
						<path d="M4383 2180 L7847 2180" stroke="#000000" stroke-width="13" />
						<path d="M4383 2360 L7847 2360" stroke="#000000" stroke-width="13" />
						<path d="M4383 2540 L7847 2540" stroke="#000000" stroke-width="13" />
						<path d="M4383 2720 L7847 2720" stroke="#000000" stroke-width="13" />
						<path d="M4383 2900 L7847 2900" stroke="#000000" stroke-width="13" />
						<g class="layer" id="layer-L12F1N1">
							<g class="beam" id="beam-L13F1-L14F1">
								<polygon points="4612,3395 5030,3355 5030,3265 4612,3305 " />
								<polygon points="4612,3260 4770,3245 4770,3155 4612,3170 " />
								<g class="note" id="note-L13F1">
									<use xlink:href="#E0A4" x="4612" y="2720" height="720px" width="720px" />
									<g class="stem">
										<rect x="4612" y="2742" height="635" width="18" />
									</g>
									<g class="accid" id="accid-0000001489956210" />
								</g>
								<g class="note" id="note-L14F1">
									<use xlink:href="#E0A4" x="5012" y="2270" height="720px" width="720px" />
									<g class="dots" id="dots-0000000328350433">
										<ellipse cx="5328" cy="2270" rx="36" ry="36" />
									</g>
									<g class="stem">
										<rect x="5012" y="2292" height="1045" width="18" />
									</g>
									<g class="accid" id="accid-0000000630447322" />
								</g>
							</g>
							<g class="beam" id="beam-L17F1-L20F1">
								<polygon points="6214,3386 7434,3265 7434,3175 6214,3296 " />
								<polygon points="6214,3251 7434,3130 7434,3040 6214,3161 " />
								<g class="note" id="note-L17F1">
									<use xlink:href="#E0A4" x="6214" y="2630" height="720px" width="720px" />
									<g class="stem">
										<rect x="6214" y="2652" height="716" width="18" />
									</g>
									<g class="accid" id="accid-0000001861451409" />
								</g>
								<g class="note" id="note-L18F1">
									<use xlink:href="#E0A4" x="6615" y="2540" height="720px" width="720px" />
									<g class="stem">
										<rect x="6615" y="2562" height="765" width="18" />
									</g>
									<g class="accid" id="accid-0000000162865794" />
								</g>
								<g class="note" id="note-L19F1">
									<use xlink:href="#E0A4" x="7015" y="2630" height="720px" width="720px" />
									<g class="stem">
										<rect x="7015" y="2652" height="635" width="18" />
									</g>
									<g class="accid" id="accid-0000000659149824" />
								</g>
								<g class="note" id="note-L20F1">
									<use xlink:href="#E0A4" x="7416" y="2270" height="720px" width="720px" />
									<g class="stem">
										<rect x="7416" y="2292" height="955" width="18" />
									</g>
									<g class="accid" id="accid-0000001941147653" />
								</g>
							</g>
						</g>
					</g>
					<g class="tie" id="tie-L20F1-L22F1">
						<path d="M7664,2225 C7761,2083 7955,2083 8054,2225 C7955,2127 7761,2127 7664,2225" stroke="#000000" stroke-linecap="round" stroke-linejoin="round" stroke-width="9" />
					</g>
					<g class="mNum autogenerated" id="mnum-0000000026363504" />
					<g class="barLineAttr" id="bline-0000000482195150">
						<path d="M7834 2900 L7834 720" stroke="#000000" stroke-width="27" />
					</g>
				</g>
				<g class="measure" id="measure-L21">
					<g class="staff" id="staff-L21F2N1">
						<path d="M7847 720 L11557 720" stroke="#000000" stroke-width="13" />
						<path d="M7847 900 L11557 900" stroke="#000000" stroke-width="13" />
						<path d="M7847 1080 L11557 1080" stroke="#000000" stroke-width="13" />
						<path d="M7847 1260 L11557 1260" stroke="#000000" stroke-width="13" />
						<path d="M7847 1440 L11557 1440" stroke="#000000" stroke-width="13" />
						<g class="layer" id="layer-L21F2N1">
							<g class="rest" id="rest-L22F2">
								<use xlink:href="#E4E5" x="8076" y="1080" height="720px" width="720px" />
							</g>
							<g class="beam" id="beam-L25F2-L28F2">
								<polygon points="9904,586 11352,729 11352,819 9904,676 " />
								<polygon points="10694,799 11352,864 11352,954 10694,889 " />
								<g class="note" id="note-L25F2">
									<use xlink:href="#E0A4" x="9696" y="1260" height="720px" width="720px" />
									<g class="stem">
										<rect x="9904" y="604" height="634" width="18" />
									</g>
									<g class="accid" id="accid-0000000185106770" />
								</g>
								<g class="note" id="note-L27F2">
									<use xlink:href="#E0A4" x="10477" y="1350" height="720px" width="720px" />
									<g class="stem">
										<rect x="10685" y="682" height="646" width="18" />
									</g>
									<g class="accid" id="accid-0000000206428585" />
								</g>
								<g class="note" id="note-L28F2">
									<use xlink:href="#E0A4" x="11126" y="1440" height="720px" width="720px" />
									<g class="stem">
										<rect x="11334" y="747" height="671" width="18" />
									</g>
									<g class="accid" id="accid-0000001031701792">
										<use xlink:href="#E260" x="10930" y="1440" height="720px" width="720px" />
									</g>
								</g>
							</g>
						</g>
					</g>
					<g class="staff" id="staff-L21F1N1">
						<path d="M7847 2180 L11557 2180" stroke="#000000" stroke-width="13" />
						<path d="M7847 2360 L11557 2360" stroke="#000000" stroke-width="13" />
						<path d="M7847 2540 L11557 2540" stroke="#000000" stroke-width="13" />
						<path d="M7847 2720 L11557 2720" stroke="#000000" stroke-width="13" />
						<path d="M7847 2900 L11557 2900" stroke="#000000" stroke-width="13" />
						<g class="layer" id="layer-L21F1N1">
							<g class="beam" id="beam-L22F1-L24F1">
								<polygon points="8076,3248 9313,3370 9313,3280 8076,3158 " />
								<polygon points="8655,3170 9313,3235 9313,3145 8655,3080 " />
								<g class="note" id="note-L22F1">
									<use xlink:href="#E0A4" x="8076" y="2270" height="720px" width="720px" />
									<g class="stem">
										<rect x="8076" y="2292" height="938" width="18" />
									</g>
									<g class="accid" id="accid-0000001196200849" />
								</g>
								<g class="note" id="note-L23F1">
									<use xlink:href="#E0A4" x="8646" y="2630" height="720px" width="720px" />
									<g class="stem">
										<rect x="8646" y="2652" height="635" width="18" />
									</g>
									<g class="accid" id="accid-0000001830595790" />
								</g>
								<g class="note" id="note-L24F1">
									<use xlink:href="#E0A4" x="9295" y="2450" height="720px" width="720px" />
									<g class="stem">
										<rect x="9295" y="2472" height="880" width="18" />
									</g>
									<g class="accid" id="accid-0000000431197623">
										<use xlink:href="#E260" x="9099" y="2450" height="720px" width="720px" />
									</g>
								</g>
							</g>
							<g class="beam" id="beam-L25F1-L26F1">
								<polygon points="9904,1906 10322,1866 10322,1956 9904,1996 " />
								<polygon points="9904,2041 10062,2026 10062,2116 9904,2131 " />
								<g class="note" id="note-L25F1">
									<use xlink:href="#E0A4" x="9696" y="2630" height="720px" width="720px" />
									<g class="stem">
										<rect x="9904" y="1924" height="684" width="18" />
									</g>
									<g class="accid" id="accid-0000001839636433" />
								</g>
								<g class="note" id="note-L26F1">
									<use xlink:href="#E0A4" x="10096" y="2540" height="720px" width="720px" />
									<g class="dots" id="dots-0000000438065379">
										<ellipse cx="10412" cy="2450" rx="36" ry="36" />
									</g>
									<g class="stem">
										<rect x="10304" y="1884" height="634" width="18" />
									</g>
									<g class="accid" id="accid-0000000825501388" />
								</g>
							</g>
						</g>
					</g>
					<g class="mNum autogenerated" id="mnum-0000000008296837" />
					<g class="barLineAttr" id="bline-0000000496736090">
						<path d="M11544 2900 L11544 720" stroke="#000000" stroke-width="27" />
					</g>
				</g>
				<g class="measure" id="measure-L29">
					<g class="staff" id="staff-L29F2N1">
						<path d="M11557 720 L16015 720" stroke="#000000" stroke-width="13" />
						<path d="M11557 900 L16015 900" stroke="#000000" stroke-width="13" />
						<path d="M11557 1080 L16015 1080" stroke="#000000" stroke-width="13" />
						<path d="M11557 1260 L16015 1260" stroke="#000000" stroke-width="13" />
						<path d="M11557 1440 L16015 1440" stroke="#000000" stroke-width="13" />
						<g class="ledgerLines below">
							<path d="M12003 1620 L12282 1620" stroke="#000000" stroke-width="22" />
						</g>
						<g class="layer" id="layer-L29F2N1">
							<g class="beam" id="beam-L30F2-L33F2">
								<polygon points="12242,486 13959,316 13959,406 12242,576 " />
								<polygon points="12242,621 13959,451 13959,541 12242,711 " />
								<g class="note" id="note-L30F2">
									<use xlink:href="#E0A4" x="12034" y="1620" height="720px" width="720px" />
									<g class="stem">
										<rect x="12242" y="504" height="1094" width="18" />
									</g>
									<g class="accid" id="accid-0000000486424021" />
								</g>
								<g class="note" id="note-L31F2">
									<use xlink:href="#E0A4" x="12683" y="1440" height="720px" width="720px" />
									<g class="stem">
										<rect x="12891" y="439" height="979" width="18" />
									</g>
									<g class="accid" id="accid-0000001765328296">
										<use xlink:href="#E260" x="12487" y="1440" height="720px" width="720px" />
									</g>
								</g>
								<g class="note" id="note-L32F2">
									<use xlink:href="#E0A4" x="13084" y="1350" height="720px" width="720px" />
									<g class="stem">
										<rect x="13292" y="399" height="929" width="18" />
									</g>
									<g class="accid" id="accid-0000000864114491" />
								</g>
								<g class="note" id="note-L33F2">
									<use xlink:href="#E0A4" x="13733" y="990" height="720px" width="720px" />
									<g class="stem">
										<rect x="13941" y="334" height="634" width="18" />
									</g>
									<g class="accid" id="accid-0000001822350183" />
								</g>
							</g>
							<g class="beam" id="beam-L34F2-L37F2">
								<polygon points="14590,276 15810,396 15810,486 14590,366 " />
								<polygon points="14590,411 15810,531 15810,621 14590,501 " />
								<g class="note" id="note-L34F2">
									<use xlink:href="#E0A4" x="14382" y="1080" height="720px" width="720px" />
									<g class="stem">
										<rect x="14590" y="294" height="764" width="18" />
									</g>
									<g class="accid" id="accid-0000000382021800">
										<use xlink:href="#E260" x="14186" y="1080" height="720px" width="720px" />
									</g>
								</g>
								<g class="note" id="note-L35F2">
									<use xlink:href="#E0A4" x="14783" y="990" height="720px" width="720px" />
									<g class="stem">
										<rect x="14991" y="334" height="634" width="18" />
									</g>
									<g class="accid" id="accid-0000001276616806" />
								</g>
								<g class="note" id="note-L36F2">
									<use xlink:href="#E0A4" x="15183" y="1260" height="720px" width="720px" />
									<g class="stem">
										<rect x="15391" y="374" height="864" width="18" />
									</g>
									<g class="accid" id="accid-0000002077977244" />
								</g>
								<g class="note" id="note-L37F2">
									<use xlink:href="#E0A4" x="15584" y="1350" height="720px" width="720px" />
									<g class="stem">
										<rect x="15792" y="414" height="914" width="18" />
									</g>
									<g class="accid" id="accid-0000001047096846" />
								</g>
							</g>
						</g>
					</g>
					<g class="staff" id="staff-L29F1N1">
						<path d="M11557 2180 L16015 2180" stroke="#000000" stroke-width="13" />
						<path d="M11557 2360 L16015 2360" stroke="#000000" stroke-width="13" />
						<path d="M11557 2540 L16015 2540" stroke="#000000" stroke-width="13" />
						<path d="M11557 2720 L16015 2720" stroke="#000000" stroke-width="13" />
						<path d="M11557 2900 L16015 2900" stroke="#000000" stroke-width="13" />
						<g class="layer" id="layer-L29F1N1">
							<g class="beam" id="beam-L30F1-L33F1">
								<polygon points="12242,1931 13959,1761 13959,1851 12242,2021 " />
								<polygon points="12242,2066 13959,1896 13959,1986 12242,2156 " />
								<g class="note" id="note-L30F1">
									<use xlink:href="#E0A4" x="12034" y="2720" height="720px" width="720px" />
									<g class="stem">
										<rect x="12242" y="1949" height="749" width="18" />
									</g>
									<g class="accid" id="accid-0000002032412009">
										<use xlink:href="#E260" x="11838" y="2720" height="720px" width="720px" />
									</g>
								</g>
								<g class="note" id="note-L31F1">
									<use xlink:href="#E0A4" x="12683" y="2540" height="720px" width="720px" />
									<g class="stem">
										<rect x="12891" y="1884" height="634" width="18" />
									</g>
									<g class="accid" id="accid-0000000557205181" />
								</g>
								<g class="note" id="note-L32F1">
									<use xlink:href="#E0A4" x="13084" y="2720" height="720px" width="720px" />
									<g class="stem">
										<rect x="13292" y="1844" height="854" width="18" />
									</g>
									<g class="accid" id="accid-0000000108775630" />
								</g>
								<g class="note" id="note-L33F1">
									<use xlink:href="#E0A4" x="13733" y="2450" height="720px" width="720px" />
									<g class="stem">
										<rect x="13941" y="1779" height="649" width="18" />
									</g>
									<g class="accid" id="accid-0000001662322935">
										<use xlink:href="#E260" x="13537" y="2450" height="720px" width="720px" />
									</g>
								</g>
							</g>
							<g class="beam" id="beam-L34F1-L37F1">
								<polygon points="14590,1746 15810,1866 15810,1956 14590,1836 " />
								<polygon points="15400,1961 15810,2001 15810,2091 15400,2051 " />
								<g class="note" id="note-L34F1">
									<use xlink:href="#E0A4" x="14382" y="2450" height="720px" width="720px" />
									<g class="stem">
										<rect x="14590" y="1764" height="664" width="18" />
									</g>
									<g class="accid" id="accid-0000001917420023" />
								</g>
								<g class="note" id="note-L36F1">
									<use xlink:href="#E0A4" x="15183" y="2720" height="720px" width="720px" />
									<g class="stem">
										<rect x="15391" y="1844" height="854" width="18" />
									</g>
									<g class="accid" id="accid-0000001646774091" />
								</g>
								<g class="note" id="note-L37F1">
									<use xlink:href="#E0A4" x="15584" y="2540" height="720px" width="720px" />
									<g class="stem">
										<rect x="15792" y="1884" height="634" width="18" />
									</g>
									<g class="accid" id="accid-0000001077206072" />
								</g>
							</g>
						</g>
					</g>
					<g class="tie" id="tie-L33F1-L34F1">
						<path d="M13981,2495 C14075,2593 14263,2593 14360,2495 C14263,2637 14075,2637 13981,2495" stroke="#000000" stroke-linecap="round" stroke-linejoin="round" stroke-width="9" />
					</g>
					<g class="mNum autogenerated" id="mnum-0000001261784904" />
					<g class="barLineAttr" id="bline-0000001893081249">
						<path d="M16002 2900 L16002 720" stroke="#000000" stroke-width="27" />
					</g>
				</g>
				<g class="measure" id="measure-L38">
					<g class="staff" id="staff-L38F2N1">
						<path d="M16015 720 L20002 720" stroke="#000000" stroke-width="13" />
						<path d="M16015 900 L20002 900" stroke="#000000" stroke-width="13" />
						<path d="M16015 1080 L20002 1080" stroke="#000000" stroke-width="13" />
						<path d="M16015 1260 L20002 1260" stroke="#000000" stroke-width="13" />
						<path d="M16015 1440 L20002 1440" stroke="#000000" stroke-width="13" />
						<g class="layer" id="layer-L38F2N1">
							<g class="rest" id="rest-L39F2">
								<use xlink:href="#E4E5" x="16491" y="1080" height="720px" width="720px" />
							</g>
							<g class="beam" id="beam-L41F2-L44F2">
								<polygon points="18082,661 19796,831 19796,921 18082,751 " />
								<polygon points="19139,901 19796,966 19796,1056 19139,991 " />
								<g class="note" id="note-L41F2">
									<use xlink:href="#E0A4" x="17874" y="1350" height="720px" width="720px" />
									<g class="stem">
										<rect x="18082" y="679" height="649" width="18" />
									</g>
									<g class="accid" id="accid-0000001288943408">
										<use xlink:href="#E262" x="17679" y="1350" height="720px" width="720px" />
									</g>
								</g>
								<g class="note" id="note-L43F2">
									<use xlink:href="#E0A4" x="18922" y="1440" height="720px" width="720px" />
									<g class="stem">
										<rect x="19130" y="784" height="634" width="18" />
									</g>
									<g class="accid" id="accid-0000001997234284">
										<use xlink:href="#E262" x="18727" y="1440" height="720px" width="720px" />
									</g>
								</g>
								<g class="note" id="note-L44F2">
									<use xlink:href="#E0A4" x="19570" y="1530" height="720px" width="720px" />
									<g class="stem">
										<rect x="19778" y="849" height="659" width="18" />
									</g>
									<g class="accid" id="accid-0000000259975056">
										<use xlink:href="#E262" x="19375" y="1530" height="720px" width="720px" />
									</g>
								</g>
							</g>
						</g>
					</g>
					<g class="staff" id="staff-L38F1N1">
						<path d="M16015 2180 L20002 2180" stroke="#000000" stroke-width="13" />
						<path d="M16015 2360 L20002 2360" stroke="#000000" stroke-width="13" />
						<path d="M16015 2540 L20002 2540" stroke="#000000" stroke-width="13" />
						<path d="M16015 2720 L20002 2720" stroke="#000000" stroke-width="13" />
						<path d="M16015 2900 L20002 2900" stroke="#000000" stroke-width="13" />
						<g class="layer" id="layer-L38F1N1">
							<g class="beam" id="beam-L39F1-L40F1">
								<polygon points="16699,1931 17365,1866 17365,1956 16699,2021 " />
								<polygon points="16699,2066 16857,2051 16857,2141 16699,2156 " />
								<g class="note" id="note-L39F1">
									<use xlink:href="#E0A4" x="16491" y="2810" height="720px" width="720px" />
									<g class="stem">
										<rect x="16699" y="1949" height="839" width="18" />
									</g>
									<g class="accid" id="accid-0000000818607856">
										<use xlink:href="#E262" x="16296" y="2810" height="720px" width="720px" />
									</g>
								</g>
								<g class="note" id="note-L40F1">
									<use xlink:href="#E0A4" x="17139" y="2540" height="720px" width="720px" />
									<g class="dots" id="dots-0000001348713140">
										<ellipse cx="17455" cy="2450" rx="36" ry="36" />
									</g>
									<g class="stem">
										<rect x="17347" y="1884" height="634" width="18" />
									</g>
									<g class="accid" id="accid-0000001578098842">
										<use xlink:href="#E262" x="16944" y="2540" height="720px" width="720px" />
									</g>
								</g>
							</g>
							<g class="beam" id="beam-L41F1-L44F1">
								<polygon points="18082,2006 19796,1876 19796,1966 18082,2096 " />
								<polygon points="18082,2141 19796,2011 19796,2101 18082,2231 " />
								<g class="note" id="note-L41F1">
									<use xlink:href="#E0A4" x="17874" y="2810" height="720px" width="720px" />
									<g class="stem">
										<rect x="18082" y="2024" height="764" width="18" />
									</g>
									<g class="accid" id="accid-0000002072362165" />
								</g>
								<g class="note" id="note-L42F1">
									<use xlink:href="#E0A4" x="18522" y="2630" height="720px" width="720px" />
									<g class="stem">
										<rect x="18730" y="1974" height="634" width="18" />
									</g>
									<g class="accid" id="accid-0000000892673140">
										<use xlink:href="#E262" x="18327" y="2630" height="720px" width="720px" />
									</g>
								</g>
								<g class="note" id="note-L43F1">
									<use xlink:href="#E0A4" x="18922" y="2810" height="720px" width="720px" />
									<g class="stem">
										<rect x="19130" y="1943" height="845" width="18" />
									</g>
									<g class="accid" id="accid-0000000795460110" />
								</g>
								<g class="note" id="note-L44F1">
									<use xlink:href="#E0A4" x="19570" y="2630" height="720px" width="720px" />
									<g class="stem">
										<rect x="19778" y="1894" height="714" width="18" />
									</g>
									<g class="accid" id="accid-0000000913796629" />
								</g>
							</g>
						</g>
					</g>
					<g class="tie" id="tie-L44F1-L46F1">
						<path d="M19683,2765 C19759,2863 19911,2863 19989,2765 C19911,2907 19759,2907 19683,2765" stroke="#000000" stroke-linecap="round" stroke-linejoin="round" stroke-width="9" />
					</g>
					<g class="mNum autogenerated" id="mnum-0000000825916531" />
					<g class="barLineAttr" id="bline-0000002067433334">
						<path d="M19989 2900 L19989 720" stroke="#000000" stroke-width="27" />
					</g>
				</g>
			</g>
		</g>
	</svg>
</svg>
