<?xml version="1.0" encoding="UTF-8" standalone="no"?>
<svg width="2100.00px" height="450.00px" version="1.1" xmlns="http://www.w3.org/2000/svg" xmlns:xlink="http://www.w3.org/1999/xlink" overflow="visible">
	<desc>Engraved by Verovio 2.0.0-dev-0f0381c</desc>
	<defs>
		<symbol id="E050" viewBox="0 0 1000 1000" overflow="inherit">
			<path transform="scale(1,-1)" d="M441 -245c-23 -4 -48 -6 -76 -6c-59 0 -102 7 -130 20c-88 42 -150 93 -187 154c-26 44 -43 103 -48 176c-4 60 11 123 44 189c29 57 65 106 110 148s96 85 153 127c-3 16 -8 46 -13 92c-4 43 -5 73 -5 89c0 117 16 172 69 257c34 54 64 82 89 82c21 0 43 -30 69 -92 s39 -115 41 -159c2 -120 -19 -173 -67 -256c-13 -20 -63 -90 -98 -118c-13 -9 -25 -19 -37 -29l31 -181c8 1 18 2 28 2c58 0 102 -12 133 -35c59 -43 92 -104 98 -184c11 -135 -80 -229 -180 -270c8 -57 17 -110 25 -162c5 -31 6 -58 6 -80c0 -30 -5 -53 -14 -70 c-35 -64 -88 -99 -158 -103c-42 -3 -83 6 -124 26c-50 24 -77 59 -80 105c-2 34 5 63 20 87c18 28 45 42 79 44c51 4 99 -40 103 -87c4 -56 -30 -94 -105 -115c17 -24 51 -36 102 -36c62 0 116 43 140 85c9 16 13 41 13 74c0 20 -1 42 -5 67c-8 53 -18 106 -26 159zM461 939 c-95 0 -135 -175 -135 -286c0 -24 2 -48 5 -71c50 39 92 82 127 128c43 57 63 106 60 148c-4 54 -23 82 -57 81zM406 119l54 -326c80 27 116 88 109 184c-7 99 -62 146 -163 142zM382 117c-74 -2 -132 -50 -128 -127c2 -46 43 -99 75 -115c-3 -2 -7 -5 -10 -10 c-70 33 -116 88 -123 172c-5 73 42 135 88 170c23 17 49 29 78 36l-29 170c-21 -13 -52 -37 -92 -73c-50 -44 -86 -84 -109 -119c-49 -75 -71 -140 -67 -195c5 -68 35 -127 93 -176s125 -73 203 -73c25 0 50 3 75 9c-19 111 -36 221 -54 331z" />
		</symbol>
		<symbol id="E082" viewBox="0 0 1000 1000" overflow="inherit">
			<path transform="scale(1,-1)" d="M104 -185c-18 0 -55 -14 -65 -65h-36l-3 29c0 25 6 46 18 64c11 19 22 30 39 43l121 82l37 29c15 11 27 29 38 54c12 24 18 47 18 70c0 40 -19 88 -94 88c-25 0 -32 0 -50 -8c-14 -5 -23 -12 -26 -22c3 -9 7 -15 10 -18l24 -17c12 -7 17 -11 27 -21c5 -7 7 -16 7 -27 c0 -12 0 -57 -79 -74c-30 0 -76 26 -76 94c0 66 80 135 196 135c72 0 182 -32 182 -150c0 -53 -32 -95 -113 -133l-91 -41c-26 -11 -45 -23 -57 -37l49 7c84 0 115 -41 148 -41c20 0 33 20 39 61h35c0 -152 -68 -168 -114 -168c-17 0 -55 0 -69 7v0l-28 17 c-49 37 -69 40 -87 42z" />
		</symbol>
		<symbol id="E084" viewBox="0 0 1000 1000" overflow="inherit">
			<path transform="scale(1,-1)" d="M0 -78c84 97 114 180 134 329h170c-13 -32 -82 -132 -99 -151l-84 -97c-33 -36 -59 -63 -80 -81h162v102l127 123v-225h57v-39h-57v-34c0 -43 19 -65 57 -65v-34h-244v36c48 0 60 26 60 70v27h-203v39z" />
		</symbol>
		<symbol id="E4E5" viewBox="0 0 1000 1000" overflow="inherit">
			<path transform="scale(1,-1)" d="M107 292c-13 24 -30 49 -52 71c-1 1 0 2 0 3l-2 2c3 3 4 4 6 4c12 0 26 -7 40 -20s44 -40 89 -81c26 -24 28 -29 46 -47c4 -4 8 -9 10 -14c6 -8 8 -16 8 -27c0 -19 -12 -40 -36 -61c-28 -23 -49 -38 -61 -73c-4 -11 -7 -27 -10 -50c13 -43 34 -83 59 -121 c31 -47 59 -79 101 -129c-8 0 -26 7 -54 20l-62 29l-21 6l-23 1c-25 0 -45 -10 -60 -30l-4 -14l-1 -12c0 -33 20 -56 39 -78c8 -9 17 -18 26 -26c17 -15 27 -24 28 -30l-3 -3c-11 5 -19 10 -25 15c-9 3 -37 21 -45 26c-24 14 -45 32 -63 51c-19 21 -37 44 -37 71 c0 63 27 95 80 95c41 0 86 -18 136 -52c-19 26 -37 48 -55 66c-23 23 -48 44 -73 65c-28 23 -47 40 -58 53s-17 26 -18 39c75 64 113 125 113 183c0 27 -7 48 -18 68z" />
		</symbol>
		<symbol id="E0A4" viewBox="0 0 1000 1000" overflow="inherit">
			<path transform="scale(1,-1)" d="M0 -39c0 68 73 172 200 172c66 0 114 -37 114 -95c0 -84 -106 -171 -218 -171c-64 0 -96 30 -96 94z" />
		</symbol>
		<symbol id="E062" viewBox="0 0 1000 1000" overflow="inherit">
			<path transform="scale(1,-1)" d="M158 96c51 0 73 -14 88 -49l16 -39c0 -17 -2 -30 -7 -40c-3 -11 -10 -21 -19 -31c-17 -18 -49 -43 -84 -43c-55 0 -77 13 -112 44c-24 21 -35 55 -35 100c0 46 14 81 32 112c30 52 71 79 137 93l36 6l26 2c154 0 235 -68 274 -182c11 -32 18 -68 18 -107 c0 -103 -26 -182 -68 -250c-89 -145 -234 -230 -412 -288l-30 -5c-9 0 -14 3 -14 8c3 10 5 11 10 16c35 15 70 30 96 44l78 43c96 57 162 136 197 258c9 33 17 60 22 100c3 22 5 35 6 39c-7 69 -16 115 -23 140s-4 22 -16 40c-8 12 -19 23 -31 34c-24 21 -62 44 -118 44 c-48 0 -84 -8 -113 -28c-28 -19 -42 -44 -42 -73v-16c2 -5 3 -9 4 -11c24 22 52 39 84 39zM585 -118c0 32 23 58 57 58c18 0 33 -6 40 -18c9 -15 16 -18 16 -40c0 -9 -2 -16 -5 -21c-6 -19 -27 -37 -51 -37c-34 0 -57 26 -57 58zM642 177c31 0 56 -27 56 -58 c0 -30 -25 -58 -56 -58l-23 3c-19 7 -34 32 -34 55l3 23c9 20 28 35 54 35z" />
		</symbol>
		<symbol id="E260" viewBox="0 0 1000 1000" overflow="inherit">
			<path transform="scale(1,-1)" d="M20 110c32 16 54 27 93 27c26 0 35 -3 54 -13c13 -7 24 -20 27 -38l4 -25c0 -28 -16 -57 -45 -89c-23 -25 -39 -44 -65 -68l-88 -79v644h20v-359zM90 106c-32 0 -48 -10 -70 -29v-194c31 31 54 59 71 84c21 32 32 59 32 84c0 9 1 16 1 20c0 14 -3 21 -11 30l-8 3z" />
		</symbol>
		<symbol id="E262" viewBox="0 0 1000 1000" overflow="inherit">
			<path transform="scale(1,-1)" d="M136 186v169h17v-164l44 14v-91l-44 -14v-165l44 12v-91l-44 -13v-155h-17v150l-76 -22v-155h-17v149l-43 -13v90l43 14v167l-43 -14v92l43 13v169h17v-163zM60 73v-167l76 22v168z" />
		</symbol>
	</defs>
	<style type="text/css">g.page-margin{font-family:Times;} g.tempo{font-weight:bold;} g.dir, g.dynam, g.mNum{font-style:italic;} g.label{font-weight:normal;}</style>
	<svg class="definition-scale" viewBox="0 0 21000 4500">
		<g class="page-margin" transform="translate(500, 500)">
			<g class="system" id="system-0000000849503979">
				<path d="M13 720 L13 2880" stroke="#000000" stroke-width="27" />
				<path d="M-32,2862 C-392,2322 58,1980 -212,1800 C121,1980 -329,2322 -32,2862" stroke="#000000" stroke-linecap="round" stroke-linejoin="round" stroke-width="18" />
				<path d="M-32,738 C-329,1278 121,1620 -212,1800 C58,1620 -392,1278 -32,738" stroke="#000000" stroke-linecap="round" stroke-linejoin="round" stroke-width="18" />
				<g class="section boundaryStart" id="section-L1F1" />
				<g class="measure" id="measure-L4">
					<g class="staff" id="staff-L4F2N1">
						<path d="M0 720 L4441 720" stroke="#000000" stroke-width="13" />
						<path d="M0 900 L4441 900" stroke="#000000" stroke-width="13" />
						<path d="M0 1080 L4441 1080" stroke="#000000" stroke-width="13" />
						<path d="M0 1260 L4441 1260" stroke="#000000" stroke-width="13" />
						<path d="M0 1440 L4441 1440" stroke="#000000" stroke-width="13" />
						<g class="clef" id="clef-0000001509476204">
							<use xlink:href="#E050" x="90" y="1260" height="720px" width="720px" />
						</g>
						<g class="meterSig" id="msig-0000001542238617">
							<use xlink:href="#E082" x="771" y="900" height="720px" width="720px" />
							<use xlink:href="#E084" x="777" y="1260" height="720px" width="720px" />
						</g>
						<g class="layer" id="layer-L4F2N1">
							<g class="rest" id="rest-L5F2">
								<use xlink:href="#E4E5" x="1383" y="1080" height="720px" width="720px" />
							</g>
							<g class="beam" id="beam-L9F2-L11F2">
								<polygon points="3222,316 4229,415 4229,505 3222,406 " />
								<polygon points="3812,509 4229,550 4229,640 3812,599 " />
								<g class="note" id="note-L9F2">
									<use xlink:href="#E0A4" x="3014" y="990" height="720px" width="720px" />
									<g class="stem">
										<rect x="3222" y="334" height="634" width="18" />
									</g>
									<g class="accid" id="accid-0000001746476316" />
								</g>
								<g class="note" id="note-L10F2">
									<use xlink:href="#E0A4" x="3595" y="1080" height="720px" width="720px" />
									<g class="stem">
										<rect x="3803" y="392" height="666" width="18" />
									</g>
									<g class="accid" id="accid-0000001398152427" />
								</g>
								<g class="note" id="note-L11F2">
									<use xlink:href="#E0A4" x="4003" y="1440" height="720px" width="720px" />
									<g class="stem">
										<rect x="4211" y="433" height="985" width="18" />
									</g>
									<g class="accid" id="accid-0000001577497904" />
								</g>
							</g>
						</g>
					</g>
					<g class="staff" id="staff-L4F1N1">
						<path d="M0 2160 L4441 2160" stroke="#000000" stroke-width="13" />
						<path d="M0 2340 L4441 2340" stroke="#000000" stroke-width="13" />
						<path d="M0 2520 L4441 2520" stroke="#000000" stroke-width="13" />
						<path d="M0 2700 L4441 2700" stroke="#000000" stroke-width="13" />
						<path d="M0 2880 L4441 2880" stroke="#000000" stroke-width="13" />
						<g class="clef" id="clef-0000000276816629">
							<use xlink:href="#E062" x="90" y="2340" height="720px" width="720px" />
						</g>
						<g class="meterSig" id="msig-0000001007504201">
							<use xlink:href="#E082" x="771" y="2340" height="720px" width="720px" />
							<use xlink:href="#E084" x="777" y="2700" height="720px" width="720px" />
						</g>
						<g class="layer" id="layer-L4F1N1">
							<g class="beam" id="beam-L5F1-L8F1">
								<polygon points="1591,1879 2832,1756 2832,1846 1591,1969 " />
								<polygon points="1591,2014 2832,1891 2832,1981 1591,2104 " />
								<g class="note" id="note-L5F1">
									<use xlink:href="#E0A4" x="1383" y="2610" height="720px" width="720px" />
									<g class="stem">
										<rect x="1591" y="1897" height="691" width="18" />
									</g>
									<g class="accid" id="accid-0000000724920320" />
								</g>
								<g class="note" id="note-L6F1">
									<use xlink:href="#E0A4" x="1791" y="2520" height="720px" width="720px" />
									<g class="stem">
										<rect x="1999" y="1856" height="642" width="18" />
									</g>
									<g class="accid" id="accid-0000001015408175" />
								</g>
								<g class="note" id="note-L7F1">
									<use xlink:href="#E0A4" x="2198" y="2610" height="720px" width="720px" />
									<g class="stem">
										<rect x="2406" y="1815" height="773" width="18" />
									</g>
									<g class="accid" id="accid-0000000863264960" />
								</g>
								<g class="note" id="note-L8F1">
									<use xlink:href="#E0A4" x="2606" y="2430" height="720px" width="720px" />
									<g class="stem">
										<rect x="2814" y="1774" height="634" width="18" />
									</g>
									<g class="accid" id="accid-0000000901725979" />
								</g>
							</g>
							<g class="beam" id="beam-L9F1-L11F1">
								<polygon points="3014,3226 4021,3325 4021,3235 3014,3136 " />
								<polygon points="3604,3150 4021,3190 4021,3100 3604,3060 " />
								<g class="note" id="note-L9F1">
									<use xlink:href="#E0A4" x="3014" y="2430" height="720px" width="720px" />
									<g class="stem">
										<rect x="3014" y="2452" height="756" width="18" />
									</g>
									<g class="accid" id="accid-0000001919693111" />
								</g>
								<g class="note" id="note-L10F1">
									<use xlink:href="#E0A4" x="3595" y="2610" height="720px" width="720px" />
									<g class="stem">
										<rect x="3595" y="2632" height="635" width="18" />
									</g>
									<g class="accid" id="accid-0000001577570944" />
								</g>
								<g class="note" id="note-L11F1">
									<use xlink:href="#E0A4" x="4003" y="2520" height="720px" width="720px" />
									<g class="stem">
										<rect x="4003" y="2542" height="765" width="18" />
									</g>
									<g class="accid" id="accid-0000001315734832" />
								</g>
							</g>
						</g>
					</g>
					<g class="tie" id="tie-L8F1-L9F1">
						<path d="M2719,2565 C2821,2663 3025,2663 3127,2565 C3025,2707 2821,2707 2719,2565" stroke="#000000" stroke-linecap="round" stroke-linejoin="round" stroke-width="9" />
					</g>
					<g class="mNum autogenerated" id="mnum-0000001679880420" />
					<g class="barLineAttr" id="bline-0000001557407892">
						<path d="M4428 2880 L4428 720" stroke="#000000" stroke-width="27" />
					</g>
				</g>
				<g class="measure" id="measure-L12">
					<g class="staff" id="staff-L12F2N1">
						<path d="M4441 720 L7967 720" stroke="#000000" stroke-width="13" />
						<path d="M4441 900 L7967 900" stroke="#000000" stroke-width="13" />
						<path d="M4441 1080 L7967 1080" stroke="#000000" stroke-width="13" />
						<path d="M4441 1260 L7967 1260" stroke="#000000" stroke-width="13" />
						<path d="M4441 1440 L7967 1440" stroke="#000000" stroke-width="13" />
						<g class="layer" id="layer-L12F2N1">
							<g class="beam" id="beam-L13F2-L16F2">
								<polygon points="4882,537 6123,414 6123,504 4882,627 " />
								<polygon points="4882,672 6123,549 6123,639 4882,762 " />
								<g class="note" id="note-L13F2">
									<use xlink:href="#E0A4" x="4674" y="1530" height="720px" width="720px" />
									<g class="stem">
										<rect x="4882" y="555" height="953" width="18" />
									</g>
									<g class="accid" id="accid-0000000867054439" />
								</g>
								<g class="note" id="note-L14F2">
									<use xlink:href="#E0A4" x="5082" y="1170" height="720px" width="720px" />
									<g class="stem">
										<rect x="5290" y="514" height="634" width="18" />
									</g>
									<g class="accid" id="accid-0000000227147630" />
								</g>
								<g class="note" id="note-L15F2">
									<use xlink:href="#E0A4" x="5489" y="1350" height="720px" width="720px" />
									<g class="stem">
										<rect x="5697" y="473" height="855" width="18" />
									</g>
									<g class="accid" id="accid-0000001787054958" />
								</g>
								<g class="note" id="note-L16F2">
									<use xlink:href="#E0A4" x="5897" y="1260" height="720px" width="720px" />
									<g class="stem">
										<rect x="6105" y="432" height="806" width="18" />
									</g>
									<g class="accid" id="accid-0000000999865910" />
								</g>
							</g>
							<g class="beam" id="beam-L17F2-L20F2">
								<polygon points="6513,275 7754,398 7754,488 6513,365 " />
								<polygon points="6513,410 7754,533 7754,623 6513,500 " />
								<g class="note" id="note-L17F2">
									<use xlink:href="#E0A4" x="6305" y="1080" height="720px" width="720px" />
									<g class="stem">
										<rect x="6513" y="293" height="765" width="18" />
									</g>
									<g class="accid" id="accid-0000000166172489" />
								</g>
								<g class="note" id="note-L18F2">
									<use xlink:href="#E0A4" x="6713" y="990" height="720px" width="720px" />
									<g class="stem">
										<rect x="6921" y="334" height="634" width="18" />
									</g>
									<g class="accid" id="accid-0000001402960994" />
								</g>
								<g class="note" id="note-L19F2">
									<use xlink:href="#E0A4" x="7121" y="1080" height="720px" width="720px" />
									<g class="stem">
										<rect x="7329" y="375" height="683" width="18" />
									</g>
									<g class="accid" id="accid-0000000004075764" />
								</g>
								<g class="note" id="note-L20F2">
									<use xlink:href="#E0A4" x="7528" y="1260" height="720px" width="720px" />
									<g class="stem">
										<rect x="7736" y="416" height="822" width="18" />
									</g>
									<g class="accid" id="accid-0000002107870184" />
								</g>
							</g>
						</g>
					</g>
					<g class="staff" id="staff-L12F1N1">
						<path d="M4441 2160 L7967 2160" stroke="#000000" stroke-width="13" />
						<path d="M4441 2340 L7967 2340" stroke="#000000" stroke-width="13" />
						<path d="M4441 2520 L7967 2520" stroke="#000000" stroke-width="13" />
						<path d="M4441 2700 L7967 2700" stroke="#000000" stroke-width="13" />
						<path d="M4441 2880 L7967 2880" stroke="#000000" stroke-width="13" />
						<g class="layer" id="layer-L12F1N1">
							<g class="beam" id="beam-L13F1-L14F1">
								<polygon points="4674,3285 5100,3244 5100,3154 4674,3195 " />
								<polygon points="4674,3150 4832,3135 4832,3045 4674,3060 " />
								<g class="note" id="note-L13F1">
									<use xlink:href="#E0A4" x="4674" y="2610" height="720px" width="720px" />
									<g class="stem">
										<rect x="4674" y="2632" height="635" width="18" />
									</g>
									<g class="accid" id="accid-0000001617400542" />
								</g>
								<g class="note" id="note-L14F1">
									<use xlink:href="#E0A4" x="5082" y="2430" height="720px" width="720px" />
									<g class="dots" id="dots-0000000093212274">
										<ellipse cx="5398" cy="2430" rx="36" ry="36" />
									</g>
									<g class="stem">
										<rect x="5082" y="2452" height="774" width="18" />
									</g>
									<g class="accid" id="accid-0000001795807975" />
								</g>
							</g>
							<g class="beam" id="beam-L17F1-L20F1">
								<polygon points="6513,1879 7754,1756 7754,1846 6513,1969 " />
								<polygon points="6513,2014 7754,1891 7754,1981 6513,2104 " />
								<g class="note" id="note-L17F1">
									<use xlink:href="#E0A4" x="6305" y="2610" height="720px" width="720px" />
									<g class="stem">
										<rect x="6513" y="1897" height="691" width="18" />
									</g>
									<g class="accid" id="accid-0000001181728414" />
								</g>
								<g class="note" id="note-L18F1">
									<use xlink:href="#E0A4" x="6713" y="2520" height="720px" width="720px" />
									<g class="stem">
										<rect x="6921" y="1856" height="642" width="18" />
									</g>
									<g class="accid" id="accid-0000001639586259" />
								</g>
								<g class="note" id="note-L19F1">
									<use xlink:href="#E0A4" x="7121" y="2610" height="720px" width="720px" />
									<g class="stem">
										<rect x="7329" y="1815" height="773" width="18" />
									</g>
									<g class="accid" id="accid-0000002101932288" />
								</g>
								<g class="note" id="note-L20F1">
									<use xlink:href="#E0A4" x="7528" y="2430" height="720px" width="720px" />
									<g class="stem">
										<rect x="7736" y="1774" height="634" width="18" />
									</g>
									<g class="accid" id="accid-0000002126491331" />
								</g>
							</g>
						</g>
					</g>
					<g class="mNum autogenerated" id="mnum-0000001700405742" />
					<g class="barLineAttr" id="bline-0000000885403888">
						<path d="M7954 2880 L7954 720" stroke="#000000" stroke-width="27" />
					</g>
				</g>
				<g class="measure" id="measure-L21">
					<g class="staff" id="staff-L21F2N1">
						<path d="M7967 720 L11844 720" stroke="#000000" stroke-width="13" />
						<path d="M7967 900 L11844 900" stroke="#000000" stroke-width="13" />
						<path d="M7967 1080 L11844 1080" stroke="#000000" stroke-width="13" />
						<path d="M7967 1260 L11844 1260" stroke="#000000" stroke-width="13" />
						<path d="M7967 1440 L11844 1440" stroke="#000000" stroke-width="13" />
						<g class="layer" id="layer-L21F2N1">
							<g class="rest" id="rest-L22F2">
								<use xlink:href="#E4E5" x="8200" y="1080" height="720px" width="720px" />
							</g>
							<g class="beam" id="beam-L26F2-L28F2">
								<polygon points="10292,316 11631,448 11631,538 10292,406 " />
								<polygon points="10962,517 11631,583 11631,673 10962,607 " />
								<g class="note" id="note-L26F2">
									<use xlink:href="#E0A4" x="10084" y="990" height="720px" width="720px" />
									<g class="stem">
										<rect x="10292" y="334" height="634" width="18" />
									</g>
									<g class="accid" id="accid-0000000994861856" />
								</g>
								<g class="note" id="note-L27F2">
									<use xlink:href="#E0A4" x="10745" y="1080" height="720px" width="720px" />
									<g class="stem">
										<rect x="10953" y="400" height="658" width="18" />
									</g>
									<g class="accid" id="accid-0000000099310728">
										<use xlink:href="#E260" x="10549" y="1080" height="720px" width="720px" />
									</g>
								</g>
								<g class="note" id="note-L28F2">
									<use xlink:href="#E0A4" x="11405" y="1440" height="720px" width="720px" />
									<g class="stem">
										<rect x="11613" y="466" height="952" width="18" />
									</g>
									<g class="accid" id="accid-0000001073758161">
										<use xlink:href="#E260" x="11209" y="1440" height="720px" width="720px" />
									</g>
								</g>
							</g>
						</g>
					</g>
					<g class="staff" id="staff-L21F1N1">
						<path d="M7967 2160 L11844 2160" stroke="#000000" stroke-width="13" />
						<path d="M7967 2340 L11844 2340" stroke="#000000" stroke-width="13" />
						<path d="M7967 2520 L11844 2520" stroke="#000000" stroke-width="13" />
						<path d="M7967 2700 L11844 2700" stroke="#000000" stroke-width="13" />
						<path d="M7967 2880 L11844 2880" stroke="#000000" stroke-width="13" />
						<g class="layer" id="layer-L21F1N1">
							<g class="beam" id="beam-L22F1-L25F1">
								<polygon points="8408,1887 9902,1739 9902,1829 8408,1977 " />
								<polygon points="8408,2022 9902,1874 9902,1964 8408,2112 " />
								<g class="note" id="note-L22F1">
									<use xlink:href="#E0A4" x="8200" y="2610" height="720px" width="720px" />
									<g class="stem">
										<rect x="8408" y="1905" height="683" width="18" />
									</g>
									<g class="accid" id="accid-0000000181980387" />
								</g>
								<g class="note" id="note-L23F1">
									<use xlink:href="#E0A4" x="8608" y="2520" height="720px" width="720px" />
									<g class="stem">
										<rect x="8816" y="1864" height="634" width="18" />
									</g>
									<g class="accid" id="accid-0000001270059204" />
								</g>
								<g class="note" id="note-L24F1">
									<use xlink:href="#E0A4" x="9015" y="2610" height="720px" width="720px" />
									<g class="stem">
										<rect x="9223" y="1823" height="765" width="18" />
									</g>
									<g class="accid" id="accid-0000001084544430" />
								</g>
								<g class="note" id="note-L25F1">
									<use xlink:href="#E0A4" x="9676" y="2430" height="720px" width="720px" />
									<g class="stem">
										<rect x="9884" y="1757" height="651" width="18" />
									</g>
									<g class="accid" id="accid-0000000998990045">
										<use xlink:href="#E260" x="9480" y="2430" height="720px" width="720px" />
									</g>
								</g>
							</g>
							<g class="beam" id="beam-L26F1-L28F1">
								<polygon points="10084,3240 11423,3330 11423,3240 10084,3150 " />
								<polygon points="10754,3150 11423,3195 11423,3105 10754,3060 " />
								<g class="note" id="note-L26F1">
									<use xlink:href="#E0A4" x="10084" y="2430" height="720px" width="720px" />
									<g class="stem">
										<rect x="10084" y="2452" height="770" width="18" />
									</g>
									<g class="accid" id="accid-0000001764921767" />
								</g>
								<g class="note" id="note-L27F1">
									<use xlink:href="#E0A4" x="10745" y="2610" height="720px" width="720px" />
									<g class="stem">
										<rect x="10745" y="2632" height="635" width="18" />
									</g>
									<g class="accid" id="accid-0000001024153448" />
								</g>
								<g class="note" id="note-L28F1">
									<use xlink:href="#E0A4" x="11405" y="2520" height="720px" width="720px" />
									<g class="stem">
										<rect x="11405" y="2542" height="770" width="18" />
									</g>
									<g class="accid" id="accid-0000000577924839" />
								</g>
							</g>
						</g>
					</g>
					<g class="tie" id="tie-L25F1-L26F1">
						<path d="M9789,2565 C9891,2663 10095,2663 10197,2565 C10095,2707 9891,2707 9789,2565" stroke="#000000" stroke-linecap="round" stroke-linejoin="round" stroke-width="9" />
					</g>
					<g class="mNum autogenerated" id="mnum-0000000533906088" />
					<g class="barLineAttr" id="bline-0000000410198567">
						<path d="M11831 2880 L11831 720" stroke="#000000" stroke-width="27" />
					</g>
				</g>
				<g class="measure" id="measure-L29">
					<g class="staff" id="staff-L29F2N1">
						<path d="M11844 720 L15876 720" stroke="#000000" stroke-width="13" />
						<path d="M11844 900 L15876 900" stroke="#000000" stroke-width="13" />
						<path d="M11844 1080 L15876 1080" stroke="#000000" stroke-width="13" />
						<path d="M11844 1260 L15876 1260" stroke="#000000" stroke-width="13" />
						<path d="M11844 1440 L15876 1440" stroke="#000000" stroke-width="13" />
						<g class="layer" id="layer-L29F2N1">
							<g class="beam" id="beam-L30F2-L33F2">
								<polygon points="12285,562 13779,414 13779,504 12285,652 " />
								<polygon points="12285,697 13779,549 13779,639 12285,787 " />
								<g class="note" id="note-L30F2">
									<use xlink:href="#E0A4" x="12077" y="1530" height="720px" width="720px" />
									<g class="stem">
										<rect x="12285" y="580" height="928" width="18" />
									</g>
									<g class="accid" id="accid-0000001773357611" />
								</g>
								<g class="note" id="note-L31F2">
									<use xlink:href="#E0A4" x="12738" y="1170" height="720px" width="720px" />
									<g class="stem">
										<rect x="12946" y="514" height="634" width="18" />
									</g>
									<g class="accid" id="accid-0000001584390700">
										<use xlink:href="#E260" x="12542" y="1170" height="720px" width="720px" />
									</g>
								</g>
								<g class="note" id="note-L32F2">
									<use xlink:href="#E0A4" x="13145" y="1350" height="720px" width="720px" />
									<g class="stem">
										<rect x="13353" y="473" height="855" width="18" />
									</g>
									<g class="accid" id="accid-0000000499510844" />
								</g>
								<g class="note" id="note-L33F2">
									<use xlink:href="#E0A4" x="13553" y="1260" height="720px" width="720px" />
									<g class="stem">
										<rect x="13761" y="432" height="806" width="18" />
									</g>
									<g class="accid" id="accid-0000001231122659" />
								</g>
							</g>
							<g class="beam" id="beam-L34F2-L37F2">
								<polygon points="14422,275 15663,398 15663,488 14422,365 " />
								<polygon points="14422,410 15663,533 15663,623 14422,500 " />
								<g class="note" id="note-L34F2">
									<use xlink:href="#E0A4" x="14214" y="1080" height="720px" width="720px" />
									<g class="stem">
										<rect x="14422" y="293" height="765" width="18" />
									</g>
									<g class="accid" id="accid-0000000891852156">
										<use xlink:href="#E260" x="14018" y="1080" height="720px" width="720px" />
									</g>
								</g>
								<g class="note" id="note-L35F2">
									<use xlink:href="#E0A4" x="14622" y="990" height="720px" width="720px" />
									<g class="stem">
										<rect x="14830" y="334" height="634" width="18" />
									</g>
									<g class="accid" id="accid-0000002042158271" />
								</g>
								<g class="note" id="note-L36F2">
									<use xlink:href="#E0A4" x="15030" y="1080" height="720px" width="720px" />
									<g class="stem">
										<rect x="15238" y="375" height="683" width="18" />
									</g>
									<g class="accid" id="accid-0000000012053125" />
								</g>
								<g class="note" id="note-L37F2">
									<use xlink:href="#E0A4" x="15437" y="1260" height="720px" width="720px" />
									<g class="stem">
										<rect x="15645" y="416" height="822" width="18" />
									</g>
									<g class="accid" id="accid-0000000864819798" />
								</g>
							</g>
						</g>
					</g>
					<g class="staff" id="staff-L29F1N1">
						<path d="M11844 2160 L15876 2160" stroke="#000000" stroke-width="13" />
						<path d="M11844 2340 L15876 2340" stroke="#000000" stroke-width="13" />
						<path d="M11844 2520 L15876 2520" stroke="#000000" stroke-width="13" />
						<path d="M11844 2700 L15876 2700" stroke="#000000" stroke-width="13" />
						<path d="M11844 2880 L15876 2880" stroke="#000000" stroke-width="13" />
						<g class="layer" id="layer-L29F1N1">
							<g class="beam" id="beam-L30F1-L31F1">
								<polygon points="12077,3285 12756,3218 12756,3128 12077,3195 " />
								<polygon points="12077,3150 12235,3135 12235,3045 12077,3060 " />
								<g class="note" id="note-L30F1">
									<use xlink:href="#E0A4" x="12077" y="2610" height="720px" width="720px" />
									<g class="stem">
										<rect x="12077" y="2632" height="635" width="18" />
									</g>
									<g class="accid" id="accid-0000001373982002" />
								</g>
								<g class="note" id="note-L31F1">
									<use xlink:href="#E0A4" x="12738" y="2430" height="720px" width="720px" />
									<g class="dots" id="dots-0000000102677860">
										<ellipse cx="13054" cy="2430" rx="36" ry="36" />
									</g>
									<g class="stem">
										<rect x="12738" y="2452" height="748" width="18" />
									</g>
									<g class="accid" id="accid-0000001055701707">
										<use xlink:href="#E260" x="12542" y="2430" height="720px" width="720px" />
									</g>
								</g>
							</g>
							<g class="beam" id="beam-L34F1-L37F1">
								<polygon points="14422,1879 15663,1756 15663,1846 14422,1969 " />
								<polygon points="14422,2014 15663,1891 15663,1981 14422,2104 " />
								<g class="note" id="note-L34F1">
									<use xlink:href="#E0A4" x="14214" y="2610" height="720px" width="720px" />
									<g class="stem">
										<rect x="14422" y="1897" height="691" width="18" />
									</g>
									<g class="accid" id="accid-0000000986943895" />
								</g>
								<g class="note" id="note-L35F1">
									<use xlink:href="#E0A4" x="14622" y="2520" height="720px" width="720px" />
									<g class="stem">
										<rect x="14830" y="1856" height="642" width="18" />
									</g>
									<g class="accid" id="accid-0000002082417703" />
								</g>
								<g class="note" id="note-L36F1">
									<use xlink:href="#E0A4" x="15030" y="2610" height="720px" width="720px" />
									<g class="stem">
										<rect x="15238" y="1815" height="773" width="18" />
									</g>
									<g class="accid" id="accid-0000001380387201" />
								</g>
								<g class="note" id="note-L37F1">
									<use xlink:href="#E0A4" x="15437" y="2430" height="720px" width="720px" />
									<g class="stem">
										<rect x="15645" y="1774" height="634" width="18" />
									</g>
									<g class="accid" id="accid-0000000430948936" />
								</g>
							</g>
						</g>
					</g>
					<g class="mNum autogenerated" id="mnum-0000001914891137" />
					<g class="barLineAttr" id="bline-0000000861240924">
						<path d="M15863 2880 L15863 720" stroke="#000000" stroke-width="27" />
					</g>
				</g>
				<g class="measure" id="measure-L38">
					<g class="staff" id="staff-L38F2N1">
						<path d="M15876 720 L20001 720" stroke="#000000" stroke-width="13" />
						<path d="M15876 900 L20001 900" stroke="#000000" stroke-width="13" />
						<path d="M15876 1080 L20001 1080" stroke="#000000" stroke-width="13" />
						<path d="M15876 1260 L20001 1260" stroke="#000000" stroke-width="13" />
						<path d="M15876 1440 L20001 1440" stroke="#000000" stroke-width="13" />
						<g class="layer" id="layer-L38F2N1">
							<g class="rest" id="rest-L39F2">
								<use xlink:href="#E4E5" x="16109" y="1080" height="720px" width="720px" />
							</g>
							<g class="beam" id="beam-L43F2-L45F2">
								<polygon points="18451,406 19788,538 19788,628 18451,496 " />
								<polygon points="19120,607 19788,673 19788,763 19120,697 " />
								<g class="note" id="note-L43F2">
									<use xlink:href="#E0A4" x="18243" y="1080" height="720px" width="720px" />
									<g class="stem">
										<rect x="18451" y="424" height="634" width="18" />
									</g>
									<g class="accid" id="accid-0000001587545434" />
								</g>
								<g class="note" id="note-L44F2">
									<use xlink:href="#E0A4" x="18903" y="1170" height="720px" width="720px" />
									<g class="stem">
										<rect x="19111" y="490" height="658" width="18" />
									</g>
									<g class="accid" id="accid-0000002072628608">
										<use xlink:href="#E262" x="18708" y="1170" height="720px" width="720px" />
									</g>
								</g>
								<g class="note" id="note-L45F2">
									<use xlink:href="#E0A4" x="19562" y="1530" height="720px" width="720px" />
									<g class="stem">
										<rect x="19770" y="556" height="952" width="18" />
									</g>
									<g class="accid" id="accid-0000001586066038">
										<use xlink:href="#E262" x="19367" y="1530" height="720px" width="720px" />
									</g>
								</g>
							</g>
						</g>
					</g>
					<g class="staff" id="staff-L38F1N1">
						<path d="M15876 2160 L20001 2160" stroke="#000000" stroke-width="13" />
						<path d="M15876 2340 L20001 2340" stroke="#000000" stroke-width="13" />
						<path d="M15876 2520 L20001 2520" stroke="#000000" stroke-width="13" />
						<path d="M15876 2700 L20001 2700" stroke="#000000" stroke-width="13" />
						<path d="M15876 2880 L20001 2880" stroke="#000000" stroke-width="13" />
						<g class="layer" id="layer-L38F1N1">
							<g class="beam" id="beam-L39F1-L42F1">
								<polygon points="16317,1994 18062,1843 18062,1933 16317,2084 " />
								<polygon points="16317,2129 18062,1978 18062,2068 16317,2219 " />
								<g class="note" id="note-L39F1">
									<use xlink:href="#E0A4" x="16109" y="2700" height="720px" width="720px" />
									<g class="stem">
										<rect x="16317" y="2012" height="666" width="18" />
									</g>
									<g class="accid" id="accid-0000000898774753" />
								</g>
								<g class="note" id="note-L40F1">
									<use xlink:href="#E0A4" x="16768" y="2610" height="720px" width="720px" />
									<g class="stem">
										<rect x="16976" y="1954" height="634" width="18" />
									</g>
									<g class="accid" id="accid-0000000104240076">
										<use xlink:href="#E262" x="16573" y="2610" height="720px" width="720px" />
									</g>
								</g>
								<g class="note" id="note-L41F1">
									<use xlink:href="#E0A4" x="17176" y="2700" height="720px" width="720px" />
									<g class="stem">
										<rect x="17384" y="1919" height="759" width="18" />
									</g>
									<g class="accid" id="accid-0000000070685601" />
								</g>
								<g class="note" id="note-L42F1">
									<use xlink:href="#E0A4" x="17836" y="2520" height="720px" width="720px" />
									<g class="stem">
										<rect x="18044" y="1861" height="637" width="18" />
									</g>
									<g class="accid" id="accid-0000001308054580">
										<use xlink:href="#E262" x="17641" y="2520" height="720px" width="720px" />
									</g>
								</g>
							</g>
							<g class="beam" id="beam-L43F1-L45F1">
								<polygon points="18451,1846 19788,1936 19788,2026 18451,1936 " />
								<polygon points="19120,2026 19788,2071 19788,2161 19120,2116 " />
								<g class="note" id="note-L43F1">
									<use xlink:href="#E0A4" x="18243" y="2520" height="720px" width="720px" />
									<g class="stem">
										<rect x="18451" y="1864" height="634" width="18" />
									</g>
									<g class="accid" id="accid-0000000793686046" />
								</g>
								<g class="note" id="note-L44F1">
									<use xlink:href="#E0A4" x="18903" y="2700" height="720px" width="720px" />
									<g class="stem">
										<rect x="19111" y="1909" height="769" width="18" />
									</g>
									<g class="accid" id="accid-0000002085067672" />
								</g>
								<g class="note" id="note-L45F1">
									<use xlink:href="#E0A4" x="19562" y="2610" height="720px" width="720px" />
									<g class="stem">
										<rect x="19770" y="1954" height="634" width="18" />
									</g>
									<g class="accid" id="accid-0000001511186045" />
								</g>
							</g>
						</g>
					</g>
					<g class="tie" id="tie-L42F1-L43F1">
						<path d="M17949,2655 C18050,2753 18252,2753 18356,2655 C18252,2797 18050,2797 17949,2655" stroke="#000000" stroke-linecap="round" stroke-linejoin="round" stroke-width="9" />
					</g>
					<g class="mNum autogenerated" id="mnum-0000001494504145" />
					<g class="barLineAttr" id="bline-0000000695596167">
						<path d="M19988 2880 L19988 720" stroke="#000000" stroke-width="27" />
					</g>
				</g>
			</g>
		</g>
	</svg>
</svg>
