<?xml version="1.0" encoding="UTF-8" standalone="no"?>
<svg width="2100.00px" height="450.00px" version="1.1" xmlns="http://www.w3.org/2000/svg" xmlns:xlink="http://www.w3.org/1999/xlink" overflow="visible">
	<desc>Engraved by Verovio 2.0.0-dev-0f0381c</desc>
	<defs>
		<symbol id="E050" viewBox="0 0 1000 1000" overflow="inherit">
			<path transform="scale(1,-1)" d="M441 -245c-23 -4 -48 -6 -76 -6c-59 0 -102 7 -130 20c-88 42 -150 93 -187 154c-26 44 -43 103 -48 176c-4 60 11 123 44 189c29 57 65 106 110 148s96 85 153 127c-3 16 -8 46 -13 92c-4 43 -5 73 -5 89c0 117 16 172 69 257c34 54 64 82 89 82c21 0 43 -30 69 -92 s39 -115 41 -159c2 -120 -19 -173 -67 -256c-13 -20 -63 -90 -98 -118c-13 -9 -25 -19 -37 -29l31 -181c8 1 18 2 28 2c58 0 102 -12 133 -35c59 -43 92 -104 98 -184c11 -135 -80 -229 -180 -270c8 -57 17 -110 25 -162c5 -31 6 -58 6 -80c0 -30 -5 -53 -14 -70 c-35 -64 -88 -99 -158 -103c-42 -3 -83 6 -124 26c-50 24 -77 59 -80 105c-2 34 5 63 20 87c18 28 45 42 79 44c51 4 99 -40 103 -87c4 -56 -30 -94 -105 -115c17 -24 51 -36 102 -36c62 0 116 43 140 85c9 16 13 41 13 74c0 20 -1 42 -5 67c-8 53 -18 106 -26 159zM461 939 c-95 0 -135 -175 -135 -286c0 -24 2 -48 5 -71c50 39 92 82 127 128c43 57 63 106 60 148c-4 54 -23 82 -57 81zM406 119l54 -326c80 27 116 88 109 184c-7 99 -62 146 -163 142zM382 117c-74 -2 -132 -50 -128 -127c2 -46 43 -99 75 -115c-3 -2 -7 -5 -10 -10 c-70 33 -116 88 -123 172c-5 73 42 135 88 170c23 17 49 29 78 36l-29 170c-21 -13 -52 -37 -92 -73c-50 -44 -86 -84 -109 -119c-49 -75 -71 -140 -67 -195c5 -68 35 -127 93 -176s125 -73 203 -73c25 0 50 3 75 9c-19 111 -36 221 -54 331z" />
		</symbol>
		<symbol id="E082" viewBox="0 0 1000 1000" overflow="inherit">
			<path transform="scale(1,-1)" d="M104 -185c-18 0 -55 -14 -65 -65h-36l-3 29c0 25 6 46 18 64c11 19 22 30 39 43l121 82l37 29c15 11 27 29 38 54c12 24 18 47 18 70c0 40 -19 88 -94 88c-25 0 -32 0 -50 -8c-14 -5 -23 -12 -26 -22c3 -9 7 -15 10 -18l24 -17c12 -7 17 -11 27 -21c5 -7 7 -16 7 -27 c0 -12 0 -57 -79 -74c-30 0 -76 26 -76 94c0 66 80 135 196 135c72 0 182 -32 182 -150c0 -53 -32 -95 -113 -133l-91 -41c-26 -11 -45 -23 -57 -37l49 7c84 0 115 -41 148 -41c20 0 33 20 39 61h35c0 -152 -68 -168 -114 -168c-17 0 -55 0 -69 7v0l-28 17 c-49 37 -69 40 -87 42z" />
		</symbol>
		<symbol id="E084" viewBox="0 0 1000 1000" overflow="inherit">
			<path transform="scale(1,-1)" d="M0 -78c84 97 114 180 134 329h170c-13 -32 -82 -132 -99 -151l-84 -97c-33 -36 -59 -63 -80 -81h162v102l127 123v-225h57v-39h-57v-34c0 -43 19 -65 57 -65v-34h-244v36c48 0 60 26 60 70v27h-203v39z" />
		</symbol>
		<symbol id="E4E5" viewBox="0 0 1000 1000" overflow="inherit">
			<path transform="scale(1,-1)" d="M107 292c-13 24 -30 49 -52 71c-1 1 0 2 0 3l-2 2c3 3 4 4 6 4c12 0 26 -7 40 -20s44 -40 89 -81c26 -24 28 -29 46 -47c4 -4 8 -9 10 -14c6 -8 8 -16 8 -27c0 -19 -12 -40 -36 -61c-28 -23 -49 -38 -61 -73c-4 -11 -7 -27 -10 -50c13 -43 34 -83 59 -121 c31 -47 59 -79 101 -129c-8 0 -26 7 -54 20l-62 29l-21 6l-23 1c-25 0 -45 -10 -60 -30l-4 -14l-1 -12c0 -33 20 -56 39 -78c8 -9 17 -18 26 -26c17 -15 27 -24 28 -30l-3 -3c-11 5 -19 10 -25 15c-9 3 -37 21 -45 26c-24 14 -45 32 -63 51c-19 21 -37 44 -37 71 c0 63 27 95 80 95c41 0 86 -18 136 -52c-19 26 -37 48 -55 66c-23 23 -48 44 -73 65c-28 23 -47 40 -58 53s-17 26 -18 39c75 64 113 125 113 183c0 27 -7 48 -18 68z" />
		</symbol>
		<symbol id="E0A4" viewBox="0 0 1000 1000" overflow="inherit">
			<path transform="scale(1,-1)" d="M0 -39c0 68 73 172 200 172c66 0 114 -37 114 -95c0 -84 -106 -171 -218 -171c-64 0 -96 30 -96 94z" />
		</symbol>
		<symbol id="E062" viewBox="0 0 1000 1000" overflow="inherit">
			<path transform="scale(1,-1)" d="M158 96c51 0 73 -14 88 -49l16 -39c0 -17 -2 -30 -7 -40c-3 -11 -10 -21 -19 -31c-17 -18 -49 -43 -84 -43c-55 0 -77 13 -112 44c-24 21 -35 55 -35 100c0 46 14 81 32 112c30 52 71 79 137 93l36 6l26 2c154 0 235 -68 274 -182c11 -32 18 -68 18 -107 c0 -103 -26 -182 -68 -250c-89 -145 -234 -230 -412 -288l-30 -5c-9 0 -14 3 -14 8c3 10 5 11 10 16c35 15 70 30 96 44l78 43c96 57 162 136 197 258c9 33 17 60 22 100c3 22 5 35 6 39c-7 69 -16 115 -23 140s-4 22 -16 40c-8 12 -19 23 -31 34c-24 21 -62 44 -118 44 c-48 0 -84 -8 -113 -28c-28 -19 -42 -44 -42 -73v-16c2 -5 3 -9 4 -11c24 22 52 39 84 39zM585 -118c0 32 23 58 57 58c18 0 33 -6 40 -18c9 -15 16 -18 16 -40c0 -9 -2 -16 -5 -21c-6 -19 -27 -37 -51 -37c-34 0 -57 26 -57 58zM642 177c31 0 56 -27 56 -58 c0 -30 -25 -58 -56 -58l-23 3c-19 7 -34 32 -34 55l3 23c9 20 28 35 54 35z" />
		</symbol>
		<symbol id="E262" viewBox="0 0 1000 1000" overflow="inherit">
			<path transform="scale(1,-1)" d="M136 186v169h17v-164l44 14v-91l-44 -14v-165l44 12v-91l-44 -13v-155h-17v150l-76 -22v-155h-17v149l-43 -13v90l43 14v167l-43 -14v92l43 13v169h17v-163zM60 73v-167l76 22v168z" />
		</symbol>
		<symbol id="E260" viewBox="0 0 1000 1000" overflow="inherit">
			<path transform="scale(1,-1)" d="M20 110c32 16 54 27 93 27c26 0 35 -3 54 -13c13 -7 24 -20 27 -38l4 -25c0 -28 -16 -57 -45 -89c-23 -25 -39 -44 -65 -68l-88 -79v644h20v-359zM90 106c-32 0 -48 -10 -70 -29v-194c31 31 54 59 71 84c21 32 32 59 32 84c0 9 1 16 1 20c0 14 -3 21 -11 30l-8 3z" />
		</symbol>
		<symbol id="E261" viewBox="0 0 1000 1000" overflow="inherit">
			<path transform="scale(1,-1)" d="M0 -188v539h18v-191l139 22v-533h-17v186zM18 -100l122 17v176l-122 -19v-174z" />
		</symbol>
	</defs>
	<style type="text/css">g.page-margin{font-family:Times;} g.tempo{font-weight:bold;} g.dir, g.dynam, g.mNum{font-style:italic;} g.label{font-weight:normal;}</style>
	<svg class="definition-scale" viewBox="0 0 21000 4500">
		<g class="page-margin" transform="translate(500, 500)">
			<g class="system" id="system-0000000463649180">
				<path d="M13 720 L13 2880" stroke="#000000" stroke-width="27" />
				<path d="M-32,2862 C-392,2322 58,1980 -212,1800 C121,1980 -329,2322 -32,2862" stroke="#000000" stroke-linecap="round" stroke-linejoin="round" stroke-width="18" />
				<path d="M-32,738 C-329,1278 121,1620 -212,1800 C58,1620 -392,1278 -32,738" stroke="#000000" stroke-linecap="round" stroke-linejoin="round" stroke-width="18" />
				<g class="section boundaryStart" id="section-L1F1" />
				<g class="measure" id="measure-L4">
					<g class="staff" id="staff-L4F2N1">
						<path d="M0 720 L4085 720" stroke="#000000" stroke-width="13" />
						<path d="M0 900 L4085 900" stroke="#000000" stroke-width="13" />
						<path d="M0 1080 L4085 1080" stroke="#000000" stroke-width="13" />
						<path d="M0 1260 L4085 1260" stroke="#000000" stroke-width="13" />
						<path d="M0 1440 L4085 1440" stroke="#000000" stroke-width="13" />
						<g class="clef" id="clef-0000000472736907">
							<use xlink:href="#E050" x="90" y="1260" height="720px" width="720px" />
						</g>
						<g class="meterSig" id="msig-0000001747185696">
							<use xlink:href="#E082" x="771" y="900" height="720px" width="720px" />
							<use xlink:href="#E084" x="777" y="1260" height="720px" width="720px" />
						</g>
						<g class="layer" id="layer-L4F2N1">
							<g class="rest" id="rest-L5F2">
								<use xlink:href="#E4E5" x="1343" y="1080" height="720px" width="720px" />
							</g>
							<g class="beam" id="beam-L9F2-L11F2">
								<polygon points="3109,406 3945,488 3945,578 3109,496 " />
								<polygon points="3599,589 3945,623 3945,713 3599,679 " />
								<g class="note" id="note-L9F2">
									<use xlink:href="#E0A4" x="2901" y="1080" height="720px" width="720px" />
									<g class="stem">
										<rect x="3109" y="424" height="634" width="18" />
									</g>
									<g class="accid" id="accid-0000001735862262" />
								</g>
								<g class="note" id="note-L10F2">
									<use xlink:href="#E0A4" x="3382" y="1170" height="720px" width="720px" />
									<g class="stem">
										<rect x="3590" y="472" height="676" width="18" />
									</g>
									<g class="accid" id="accid-0000000997878384" />
								</g>
								<g class="note" id="note-L11F2">
									<use xlink:href="#E0A4" x="3719" y="1530" height="720px" width="720px" />
									<g class="stem">
										<rect x="3927" y="506" height="1002" width="18" />
									</g>
									<g class="accid" id="accid-0000001003384011" />
								</g>
							</g>
						</g>
					</g>
					<g class="staff" id="staff-L4F1N1">
						<path d="M0 2160 L4085 2160" stroke="#000000" stroke-width="13" />
						<path d="M0 2340 L4085 2340" stroke="#000000" stroke-width="13" />
						<path d="M0 2520 L4085 2520" stroke="#000000" stroke-width="13" />
						<path d="M0 2700 L4085 2700" stroke="#000000" stroke-width="13" />
						<path d="M0 2880 L4085 2880" stroke="#000000" stroke-width="13" />
						<g class="clef" id="clef-0000000258603594">
							<use xlink:href="#E062" x="90" y="2340" height="720px" width="720px" />
						</g>
						<g class="meterSig" id="msig-0000001991186477">
							<use xlink:href="#E082" x="771" y="2340" height="720px" width="720px" />
							<use xlink:href="#E084" x="777" y="2700" height="720px" width="720px" />
						</g>
						<g class="layer" id="layer-L4F1N1">
							<g class="beam" id="beam-L5F1-L8F1">
								<polygon points="1343,3142 2582,3216 2582,3126 1343,3052 " />
								<polygon points="1343,3007 2582,3081 2582,2991 1343,2917 " />
								<g class="note" id="note-L5F1">
									<use xlink:href="#E0A4" x="1343" y="2250" height="720px" width="720px" />
									<g class="stem">
										<rect x="1343" y="2272" height="852" width="18" />
									</g>
									<g class="accid" id="accid-0000001297105061" />
								</g>
								<g class="note" id="note-L6F1">
									<use xlink:href="#E0A4" x="1889" y="2340" height="720px" width="720px" />
									<g class="stem">
										<rect x="1889" y="2362" height="795" width="18" />
									</g>
									<g class="accid" id="accid-0000001531685679">
										<use xlink:href="#E262" x="1694" y="2340" height="720px" width="720px" />
									</g>
								</g>
								<g class="note" id="note-L7F1">
									<use xlink:href="#E0A4" x="2226" y="2520" height="720px" width="720px" />
									<g class="stem">
										<rect x="2226" y="2542" height="635" width="18" />
									</g>
									<g class="accid" id="accid-0000000743509809" />
								</g>
								<g class="note" id="note-L8F1">
									<use xlink:href="#E0A4" x="2564" y="2250" height="720px" width="720px" />
									<g class="stem">
										<rect x="2564" y="2272" height="926" width="18" />
									</g>
									<g class="accid" id="accid-0000001586148596" />
								</g>
							</g>
							<g class="beam" id="beam-L9F1-L11F1">
								<polygon points="2901,3009 3737,3019 3737,2929 2901,2919 " />
								<polygon points="3391,2880 3737,2884 3737,2794 3391,2790 " />
								<g class="note" id="note-L9F1">
									<use xlink:href="#E0A4" x="2901" y="2250" height="720px" width="720px" />
									<g class="stem">
										<rect x="2901" y="2272" height="719" width="18" />
									</g>
									<g class="accid" id="accid-0000001996686468" />
								</g>
								<g class="note" id="note-L10F1">
									<use xlink:href="#E0A4" x="3382" y="2340" height="720px" width="720px" />
									<g class="stem">
										<rect x="3382" y="2362" height="635" width="18" />
									</g>
									<g class="accid" id="accid-0000001323088045" />
								</g>
								<g class="note" id="note-L11F1">
									<use xlink:href="#E0A4" x="3719" y="2250" height="720px" width="720px" />
									<g class="stem">
										<rect x="3719" y="2272" height="729" width="18" />
									</g>
									<g class="accid" id="accid-0000002057216327" />
								</g>
							</g>
						</g>
					</g>
					<g class="tie" id="tie-L8F1-L9F1">
						<path d="M2677,2115 C2761,1973 2929,1973 3014,2115 C2929,2017 2761,2017 2677,2115" stroke="#000000" stroke-linecap="round" stroke-linejoin="round" stroke-width="9" />
					</g>
					<g class="mNum autogenerated" id="mnum-0000001987380988" />
					<g class="barLineAttr" id="bline-0000000731353644">
						<path d="M4072 2880 L4072 720" stroke="#000000" stroke-width="27" />
					</g>
				</g>
				<g class="measure" id="measure-L12">
					<g class="staff" id="staff-L12F2N1">
						<path d="M4085 720 L7214 720" stroke="#000000" stroke-width="13" />
						<path d="M4085 900 L7214 900" stroke="#000000" stroke-width="13" />
						<path d="M4085 1080 L7214 1080" stroke="#000000" stroke-width="13" />
						<path d="M4085 1260 L7214 1260" stroke="#000000" stroke-width="13" />
						<path d="M4085 1440 L7214 1440" stroke="#000000" stroke-width="13" />
						<g class="ledgerLines below">
							<path d="M4247 1620 L4526 1620" stroke="#000000" stroke-width="22" />
						</g>
						<g class="layer" id="layer-L12F2N1">
							<g class="beam" id="beam-L13F2-L16F2">
								<polygon points="4486,641 5725,519 5725,609 4486,731 " />
								<polygon points="4486,776 5725,654 5725,744 4486,866 " />
								<g class="note" id="note-L13F2">
									<use xlink:href="#E0A4" x="4278" y="1620" height="720px" width="720px" />
									<g class="stem">
										<rect x="4486" y="659" height="939" width="18" />
									</g>
									<g class="accid" id="accid-0000001034469993" />
								</g>
								<g class="note" id="note-L14F2">
									<use xlink:href="#E0A4" x="4824" y="1260" height="720px" width="720px" />
									<g class="stem">
										<rect x="5032" y="604" height="634" width="18" />
									</g>
									<g class="accid" id="accid-0000001674385839" />
								</g>
								<g class="note" id="note-L15F2">
									<use xlink:href="#E0A4" x="5161" y="1440" height="720px" width="720px" />
									<g class="stem">
										<rect x="5369" y="570" height="848" width="18" />
									</g>
									<g class="accid" id="accid-0000001632731088" />
								</g>
								<g class="note" id="note-L16F2">
									<use xlink:href="#E0A4" x="5499" y="1260" height="720px" width="720px" />
									<g class="stem">
										<rect x="5707" y="537" height="701" width="18" />
									</g>
									<g class="accid" id="accid-0000002036040667" />
								</g>
							</g>
							<g class="beam" id="beam-L17F2-L20F2">
								<polygon points="6044,282 7075,384 7075,474 6044,372 " />
								<polygon points="6044,417 7075,519 7075,609 6044,507 " />
								<g class="note" id="note-L17F2">
									<use xlink:href="#E0A4" x="5836" y="1080" height="720px" width="720px" />
									<g class="stem">
										<rect x="6044" y="300" height="758" width="18" />
									</g>
									<g class="accid" id="accid-0000000409579583" />
								</g>
								<g class="note" id="note-L18F2">
									<use xlink:href="#E0A4" x="6174" y="990" height="720px" width="720px" />
									<g class="stem">
										<rect x="6382" y="334" height="634" width="18" />
									</g>
									<g class="accid" id="accid-0000000894255943" />
								</g>
								<g class="note" id="note-L19F2">
									<use xlink:href="#E0A4" x="6511" y="1080" height="720px" width="720px" />
									<g class="stem">
										<rect x="6719" y="368" height="690" width="18" />
									</g>
									<g class="accid" id="accid-0000001666664951" />
								</g>
								<g class="note" id="note-L20F2">
									<use xlink:href="#E0A4" x="6849" y="1260" height="720px" width="720px" />
									<g class="stem">
										<rect x="7057" y="402" height="836" width="18" />
									</g>
									<g class="accid" id="accid-0000000494519412" />
								</g>
							</g>
						</g>
					</g>
					<g class="staff" id="staff-L12F1N1">
						<path d="M4085 2160 L7214 2160" stroke="#000000" stroke-width="13" />
						<path d="M4085 2340 L7214 2340" stroke="#000000" stroke-width="13" />
						<path d="M4085 2520 L7214 2520" stroke="#000000" stroke-width="13" />
						<path d="M4085 2700 L7214 2700" stroke="#000000" stroke-width="13" />
						<path d="M4085 2880 L7214 2880" stroke="#000000" stroke-width="13" />
						<g class="layer" id="layer-L12F1N1">
							<g class="beam" id="beam-L13F1-L14F1">
								<polygon points="4278,3195 4842,3140 4842,3050 4278,3105 " />
								<polygon points="4278,3060 4436,3045 4436,2955 4278,2970 " />
								<g class="note" id="note-L13F1">
									<use xlink:href="#E0A4" x="4278" y="2520" height="720px" width="720px" />
									<g class="stem">
										<rect x="4278" y="2542" height="635" width="18" />
									</g>
									<g class="accid" id="accid-0000002100089380" />
								</g>
								<g class="note" id="note-L14F1">
									<use xlink:href="#E0A4" x="4824" y="2340" height="720px" width="720px" />
									<g class="dots" id="dots-0000000114205925">
										<ellipse cx="5140" cy="2250" rx="36" ry="36" />
									</g>
									<g class="stem">
										<rect x="4824" y="2362" height="760" width="18" />
									</g>
									<g class="accid" id="accid-0000002036143803">
										<use xlink:href="#E262" x="4629" y="2340" height="720px" width="720px" />
									</g>
								</g>
							</g>
							<g class="beam" id="beam-L17F1-L20F1">
								<polygon points="5836,3141 6867,3222 6867,3132 5836,3051 " />
								<polygon points="5836,3006 6867,3087 6867,2997 5836,2916 " />
								<g class="note" id="note-L17F1">
									<use xlink:href="#E0A4" x="5836" y="2340" height="720px" width="720px" />
									<g class="stem">
										<rect x="5836" y="2362" height="761" width="18" />
									</g>
									<g class="accid" id="accid-0000000646897801" />
								</g>
								<g class="note" id="note-L18F1">
									<use xlink:href="#E0A4" x="6174" y="2250" height="720px" width="720px" />
									<g class="stem">
										<rect x="6174" y="2272" height="878" width="18" />
									</g>
									<g class="accid" id="accid-0000001928908714" />
								</g>
								<g class="note" id="note-L19F1">
									<use xlink:href="#E0A4" x="6511" y="2520" height="720px" width="720px" />
									<g class="stem">
										<rect x="6511" y="2542" height="635" width="18" />
									</g>
									<g class="accid" id="accid-0000001652787691" />
								</g>
								<g class="note" id="note-L20F1">
									<use xlink:href="#E0A4" x="6849" y="2340" height="720px" width="720px" />
									<g class="stem">
										<rect x="6849" y="2362" height="842" width="18" />
									</g>
									<g class="accid" id="accid-0000000310077120" />
								</g>
							</g>
						</g>
					</g>
					<g class="tie" id="tie-L20F1-L22F1">
						<path d="M7097,2295 C7169,2153 7313,2153 7385,2295 C7313,2197 7169,2197 7097,2295" stroke="#000000" stroke-linecap="round" stroke-linejoin="round" stroke-width="9" />
					</g>
					<g class="mNum autogenerated" id="mnum-0000000771591759" />
					<g class="barLineAttr" id="bline-0000000559167401">
						<path d="M7201 2880 L7201 720" stroke="#000000" stroke-width="27" />
					</g>
				</g>
				<g class="measure" id="measure-L21">
					<g class="staff" id="staff-L21F2N1">
						<path d="M7214 720 L9959 720" stroke="#000000" stroke-width="13" />
						<path d="M7214 900 L9959 900" stroke="#000000" stroke-width="13" />
						<path d="M7214 1080 L9959 1080" stroke="#000000" stroke-width="13" />
						<path d="M7214 1260 L9959 1260" stroke="#000000" stroke-width="13" />
						<path d="M7214 1440 L9959 1440" stroke="#000000" stroke-width="13" />
						<g class="layer" id="layer-L21F2N1">
							<g class="rest" id="rest-L22F2">
								<use xlink:href="#E4E5" x="7407" y="1080" height="720px" width="720px" />
							</g>
							<g class="beam" id="beam-L25F2-L28F2">
								<polygon points="8806,406 9819,506 9819,596 8806,496 " />
								<polygon points="9473,607 9819,641 9819,731 9473,697 " />
								<g class="note" id="note-L25F2">
									<use xlink:href="#E0A4" x="8598" y="1080" height="720px" width="720px" />
									<g class="stem">
										<rect x="8806" y="424" height="634" width="18" />
									</g>
									<g class="accid" id="accid-0000000886503590">
										<use xlink:href="#E260" x="8402" y="1080" height="720px" width="720px" />
									</g>
								</g>
								<g class="note" id="note-L27F2">
									<use xlink:href="#E0A4" x="9256" y="1170" height="720px" width="720px" />
									<g class="stem">
										<rect x="9464" y="490" height="658" width="18" />
									</g>
									<g class="accid" id="accid-0000000879558423" />
								</g>
								<g class="note" id="note-L28F2">
									<use xlink:href="#E0A4" x="9593" y="1530" height="720px" width="720px" />
									<g class="stem">
										<rect x="9801" y="524" height="984" width="18" />
									</g>
									<g class="accid" id="accid-0000001082570984" />
								</g>
							</g>
						</g>
					</g>
					<g class="staff" id="staff-L21F1N1">
						<path d="M7214 2160 L9959 2160" stroke="#000000" stroke-width="13" />
						<path d="M7214 2340 L9959 2340" stroke="#000000" stroke-width="13" />
						<path d="M7214 2520 L9959 2520" stroke="#000000" stroke-width="13" />
						<path d="M7214 2700 L9959 2700" stroke="#000000" stroke-width="13" />
						<path d="M7214 2880 L9959 2880" stroke="#000000" stroke-width="13" />
						<g class="layer" id="layer-L21F1N1">
							<g class="beam" id="beam-L22F1-L24F1">
								<polygon points="7407,3065 8278,2982 8278,2892 7407,2975 " />
								<polygon points="7932,2880 8278,2847 8278,2757 7932,2790 " />
								<g class="note" id="note-L22F1">
									<use xlink:href="#E0A4" x="7407" y="2340" height="720px" width="720px" />
									<g class="stem">
										<rect x="7407" y="2362" height="685" width="18" />
									</g>
									<g class="accid" id="accid-0000000962617376" />
								</g>
								<g class="note" id="note-L23F1">
									<use xlink:href="#E0A4" x="7923" y="2340" height="720px" width="720px" />
									<g class="stem">
										<rect x="7923" y="2362" height="635" width="18" />
									</g>
									<g class="accid" id="accid-L23F1">
										<use xlink:href="#E261" x="7756" y="2340" height="720px" width="720px" />
									</g>
								</g>
								<g class="note" id="note-L24F1">
									<use xlink:href="#E0A4" x="8260" y="2250" height="720px" width="720px" />
									<g class="stem">
										<rect x="8260" y="2272" height="692" width="18" />
									</g>
									<g class="accid" id="accid-0000001061296266" />
								</g>
							</g>
							<g class="beam" id="beam-L25F1-L26F1">
								<polygon points="8598,3195 8953,3161 8953,3071 8598,3105 " />
								<polygon points="8598,3060 8756,3045 8756,2955 8598,2970 " />
								<g class="note" id="note-L25F1">
									<use xlink:href="#E0A4" x="8598" y="2520" height="720px" width="720px" />
									<g class="stem">
										<rect x="8598" y="2542" height="635" width="18" />
									</g>
									<g class="accid" id="accid-0000000032890189" />
								</g>
								<g class="note" id="note-L26F1">
									<use xlink:href="#E0A4" x="8935" y="2340" height="720px" width="720px" />
									<g class="dots" id="dots-0000002138266345">
										<ellipse cx="9251" cy="2250" rx="36" ry="36" />
									</g>
									<g class="stem">
										<rect x="8935" y="2362" height="781" width="18" />
									</g>
									<g class="accid" id="accid-0000001530448667" />
								</g>
							</g>
						</g>
					</g>
					<g class="mNum autogenerated" id="mnum-0000000705136960" />
					<g class="barLineAttr" id="bline-0000000553603073">
						<path d="M9946 2880 L9946 720" stroke="#000000" stroke-width="27" />
					</g>
				</g>
				<g class="measure" id="measure-L29">
					<g class="staff" id="staff-L29F2N1">
						<path d="M9959 720 L13299 720" stroke="#000000" stroke-width="13" />
						<path d="M9959 900 L13299 900" stroke="#000000" stroke-width="13" />
						<path d="M9959 1080 L13299 1080" stroke="#000000" stroke-width="13" />
						<path d="M9959 1260 L13299 1260" stroke="#000000" stroke-width="13" />
						<path d="M9959 1440 L13299 1440" stroke="#000000" stroke-width="13" />
						<g class="ledgerLines below">
							<path d="M10121 1620 L10400 1620" stroke="#000000" stroke-width="22" />
						</g>
						<g class="layer" id="layer-L29F2N1">
							<g class="beam" id="beam-L30F2-L33F2">
								<polygon points="10360,620 11600,498 11600,588 10360,710 " />
								<polygon points="10360,755 11600,633 11600,723 10360,845 " />
								<g class="note" id="note-L30F2">
									<use xlink:href="#E0A4" x="10152" y="1620" height="720px" width="720px" />
									<g class="stem">
										<rect x="10360" y="638" height="960" width="18" />
									</g>
									<g class="accid" id="accid-0000001013891534" />
								</g>
								<g class="note" id="note-L31F2">
									<use xlink:href="#E0A4" x="10489" y="1260" height="720px" width="720px" />
									<g class="stem">
										<rect x="10697" y="604" height="634" width="18" />
									</g>
									<g class="accid" id="accid-0000001716788263" />
								</g>
								<g class="note" id="note-L32F2">
									<use xlink:href="#E0A4" x="11036" y="1440" height="720px" width="720px" />
									<g class="stem">
										<rect x="11244" y="549" height="869" width="18" />
									</g>
									<g class="accid" id="accid-0000001772035577">
										<use xlink:href="#E260" x="10840" y="1440" height="720px" width="720px" />
									</g>
								</g>
								<g class="note" id="note-L33F2">
									<use xlink:href="#E0A4" x="11374" y="1260" height="720px" width="720px" />
									<g class="stem">
										<rect x="11582" y="516" height="722" width="18" />
									</g>
									<g class="accid" id="accid-0000000664816593" />
								</g>
							</g>
							<g class="beam" id="beam-L34F2-L37F2">
								<polygon points="12129,282 13159,383 13159,473 12129,372 " />
								<polygon points="12129,417 13159,518 13159,608 12129,507 " />
								<g class="note" id="note-L34F2">
									<use xlink:href="#E0A4" x="11921" y="1080" height="720px" width="720px" />
									<g class="stem">
										<rect x="12129" y="300" height="758" width="18" />
									</g>
									<g class="accid" id="accid-0000002049492404">
										<use xlink:href="#E260" x="11725" y="1080" height="720px" width="720px" />
									</g>
								</g>
								<g class="note" id="note-L35F2">
									<use xlink:href="#E0A4" x="12258" y="990" height="720px" width="720px" />
									<g class="stem">
										<rect x="12466" y="334" height="634" width="18" />
									</g>
									<g class="accid" id="accid-0000001370911637" />
								</g>
								<g class="note" id="note-L36F2">
									<use xlink:href="#E0A4" x="12596" y="1080" height="720px" width="720px" />
									<g class="stem">
										<rect x="12804" y="368" height="690" width="18" />
									</g>
									<g class="accid" id="accid-0000001010836065" />
								</g>
								<g class="note" id="note-L37F2">
									<use xlink:href="#E0A4" x="12933" y="1260" height="720px" width="720px" />
									<g class="stem">
										<rect x="13141" y="401" height="837" width="18" />
									</g>
									<g class="accid" id="accid-0000000355283605" />
								</g>
							</g>
						</g>
					</g>
					<g class="staff" id="staff-L29F1N1">
						<path d="M9959 2160 L13299 2160" stroke="#000000" stroke-width="13" />
						<path d="M9959 2340 L13299 2340" stroke="#000000" stroke-width="13" />
						<path d="M9959 2520 L13299 2520" stroke="#000000" stroke-width="13" />
						<path d="M9959 2700 L13299 2700" stroke="#000000" stroke-width="13" />
						<path d="M9959 2880 L13299 2880" stroke="#000000" stroke-width="13" />
						<g class="layer" id="layer-L29F1N1">
							<g class="beam" id="beam-L30F1-L33F1">
								<polygon points="10152,3106 11392,3229 11392,3139 10152,3016 " />
								<polygon points="10152,2971 11392,3094 11392,3004 10152,2881 " />
								<g class="note" id="note-L30F1">
									<use xlink:href="#E0A4" x="10152" y="2340" height="720px" width="720px" />
									<g class="stem">
										<rect x="10152" y="2362" height="726" width="18" />
									</g>
									<g class="accid" id="accid-0000001575579442" />
								</g>
								<g class="note" id="note-L31F1">
									<use xlink:href="#E0A4" x="10489" y="2160" height="720px" width="720px" />
									<g class="stem">
										<rect x="10489" y="2182" height="940" width="18" />
									</g>
									<g class="accid" id="accid-0000001813601660" />
								</g>
								<g class="note" id="note-L32F1">
									<use xlink:href="#E0A4" x="11036" y="2520" height="720px" width="720px" />
									<g class="stem">
										<rect x="11036" y="2542" height="635" width="18" />
									</g>
									<g class="accid" id="accid-0000001995387290" />
								</g>
								<g class="note" id="note-L33F1">
									<use xlink:href="#E0A4" x="11374" y="2340" height="720px" width="720px" />
									<g class="stem">
										<rect x="11374" y="2362" height="849" width="18" />
									</g>
									<g class="accid" id="accid-0000001321962200" />
								</g>
							</g>
							<g class="beam" id="beam-L34F1-L37F1">
								<polygon points="11921,3083 12951,2981 12951,2891 11921,2993 " />
								<polygon points="12605,2880 12951,2846 12951,2756 12605,2790 " />
								<g class="note" id="note-L34F1">
									<use xlink:href="#E0A4" x="11921" y="2340" height="720px" width="720px" />
									<g class="stem">
										<rect x="11921" y="2362" height="703" width="18" />
									</g>
									<g class="accid" id="accid-0000000130255522" />
								</g>
								<g class="note" id="note-L36F1">
									<use xlink:href="#E0A4" x="12596" y="2340" height="720px" width="720px" />
									<g class="stem">
										<rect x="12596" y="2362" height="635" width="18" />
									</g>
									<g class="accid" id="accid-0000000552576597" />
								</g>
								<g class="note" id="note-L37F1">
									<use xlink:href="#E0A4" x="12933" y="2160" height="720px" width="720px" />
									<g class="stem">
										<rect x="12933" y="2182" height="781" width="18" />
									</g>
									<g class="accid" id="accid-0000000749595812" />
								</g>
							</g>
						</g>
					</g>
					<g class="tie" id="tie-L33F1-L34F1">
						<path d="M11622,2295 C11691,2153 11829,2153 11899,2295 C11829,2197 11691,2197 11622,2295" stroke="#000000" stroke-linecap="round" stroke-linejoin="round" stroke-width="9" />
					</g>
					<g class="mNum autogenerated" id="mnum-0000000121110108" />
					<g class="barLineAttr" id="bline-0000001740608775">
						<path d="M13286 2880 L13286 720" stroke="#000000" stroke-width="27" />
					</g>
				</g>
				<g class="measure" id="measure-L38">
					<g class="staff" id="staff-L38F2N1">
						<path d="M13299 720 L16246 720" stroke="#000000" stroke-width="13" />
						<path d="M13299 900 L16246 900" stroke="#000000" stroke-width="13" />
						<path d="M13299 1080 L16246 1080" stroke="#000000" stroke-width="13" />
						<path d="M13299 1260 L16246 1260" stroke="#000000" stroke-width="13" />
						<path d="M13299 1440 L16246 1440" stroke="#000000" stroke-width="13" />
						<g class="layer" id="layer-L38F2N1">
							<g class="rest" id="rest-L39F2">
								<use xlink:href="#E4E5" x="13492" y="1080" height="720px" width="720px" />
							</g>
							<g class="beam" id="beam-L41F2-L44F2">
								<polygon points="14866,406 16106,528 16106,618 14866,496 " />
								<polygon points="15550,609 16106,663 16106,753 15550,699 " />
								<g class="note" id="note-L41F2">
									<use xlink:href="#E0A4" x="14658" y="1080" height="720px" width="720px" />
									<g class="stem">
										<rect x="14866" y="424" height="634" width="18" />
									</g>
									<g class="accid" id="accid-0000001158842674">
										<use xlink:href="#E260" x="14462" y="1080" height="720px" width="720px" />
									</g>
								</g>
								<g class="note" id="note-L43F2">
									<use xlink:href="#E0A4" x="15333" y="1170" height="720px" width="720px" />
									<g class="stem">
										<rect x="15541" y="492" height="656" width="18" />
									</g>
									<g class="accid" id="accid-0000000308963332">
										<use xlink:href="#E260" x="15137" y="1170" height="720px" width="720px" />
									</g>
								</g>
								<g class="note" id="note-L44F2">
									<use xlink:href="#E0A4" x="15880" y="1530" height="720px" width="720px" />
									<g class="stem">
										<rect x="16088" y="546" height="962" width="18" />
									</g>
									<g class="accid" id="accid-0000000662762277">
										<use xlink:href="#E260" x="15684" y="1530" height="720px" width="720px" />
									</g>
								</g>
							</g>
						</g>
					</g>
					<g class="staff" id="staff-L38F1N1">
						<path d="M13299 2160 L16246 2160" stroke="#000000" stroke-width="13" />
						<path d="M13299 2340 L16246 2340" stroke="#000000" stroke-width="13" />
						<path d="M13299 2520 L16246 2520" stroke="#000000" stroke-width="13" />
						<path d="M13299 2700 L16246 2700" stroke="#000000" stroke-width="13" />
						<path d="M13299 2880 L16246 2880" stroke="#000000" stroke-width="13" />
						<g class="layer" id="layer-L38F1N1">
							<g class="beam" id="beam-L39F1-L40F1">
								<polygon points="13492,3015 14057,2960 14057,2870 13492,2925 " />
								<polygon points="13492,2880 13650,2865 13650,2775 13492,2790 " />
								<g class="note" id="note-L39F1">
									<use xlink:href="#E0A4" x="13492" y="2340" height="720px" width="720px" />
									<g class="stem">
										<rect x="13492" y="2362" height="635" width="18" />
									</g>
									<g class="accid" id="accid-0000000812369141" />
								</g>
								<g class="note" id="note-L40F1">
									<use xlink:href="#E0A4" x="14039" y="2160" height="720px" width="720px" />
									<g class="dots" id="dots-0000001487471959">
										<ellipse cx="14355" cy="2070" rx="36" ry="36" />
									</g>
									<g class="stem">
										<rect x="14039" y="2182" height="760" width="18" />
									</g>
									<g class="accid" id="accid-0000002067820476">
										<use xlink:href="#E260" x="13843" y="2160" height="720px" width="720px" />
									</g>
								</g>
							</g>
							<g class="beam" id="beam-L41F1-L44F1">
								<polygon points="14658,3081 15898,2961 15898,2871 14658,2991 " />
								<polygon points="14658,2946 15898,2826 15898,2736 14658,2856 " />
								<g class="note" id="note-L41F1">
									<use xlink:href="#E0A4" x="14658" y="2340" height="720px" width="720px" />
									<g class="stem">
										<rect x="14658" y="2362" height="701" width="18" />
									</g>
									<g class="accid" id="accid-0000000020330169" />
								</g>
								<g class="note" id="note-L42F1">
									<use xlink:href="#E0A4" x="14996" y="2160" height="720px" width="720px" />
									<g class="stem">
										<rect x="14996" y="2182" height="848" width="18" />
									</g>
									<g class="accid" id="accid-0000000993934386" />
								</g>
								<g class="note" id="note-L43F1">
									<use xlink:href="#E0A4" x="15333" y="2340" height="720px" width="720px" />
									<g class="stem">
										<rect x="15333" y="2362" height="635" width="18" />
									</g>
									<g class="accid" id="accid-0000001490087404" />
								</g>
								<g class="note" id="note-L44F1">
									<use xlink:href="#E0A4" x="15880" y="2160" height="720px" width="720px" />
									<g class="stem">
										<rect x="15880" y="2182" height="761" width="18" />
									</g>
									<g class="accid" id="accid-0000000562968349" />
								</g>
							</g>
						</g>
					</g>
					<g class="tie" id="tie-L44F1-L46F1">
						<path d="M16128,2115 C16200,1973 16344,1973 16417,2115 C16344,2017 16200,2017 16128,2115" stroke="#000000" stroke-linecap="round" stroke-linejoin="round" stroke-width="9" />
					</g>
					<g class="mNum autogenerated" id="mnum-0000001563582807" />
					<g class="barLineAttr" id="bline-0000000651538348">
						<path d="M16233 2880 L16233 720" stroke="#000000" stroke-width="27" />
					</g>
				</g>
				<g class="measure" id="measure-L45">
					<g class="staff" id="staff-L45F2N1">
						<path d="M16246 720 L20004 720" stroke="#000000" stroke-width="13" />
						<path d="M16246 900 L20004 900" stroke="#000000" stroke-width="13" />
						<path d="M16246 1080 L20004 1080" stroke="#000000" stroke-width="13" />
						<path d="M16246 1260 L20004 1260" stroke="#000000" stroke-width="13" />
						<path d="M16246 1440 L20004 1440" stroke="#000000" stroke-width="13" />
						<g class="ledgerLines below">
							<path d="M16408 1620 L16687 1620" stroke="#000000" stroke-width="22" />
						</g>
						<g class="layer" id="layer-L45F2N1">
							<g class="beam" id="beam-L46F2-L49F2">
								<polygon points="16647,641 18305,477 18305,567 16647,731 " />
								<polygon points="16647,776 18305,612 18305,702 16647,866 " />
								<g class="note" id="note-L46F2">
									<use xlink:href="#E0A4" x="16439" y="1620" height="720px" width="720px" />
									<g class="stem">
										<rect x="16647" y="659" height="939" width="18" />
									</g>
									<g class="accid" id="accid-0000000893045887" />
								</g>
								<g class="note" id="note-L47F2">
									<use xlink:href="#E0A4" x="16986" y="1260" height="720px" width="720px" />
									<g class="stem">
										<rect x="17194" y="604" height="634" width="18" />
									</g>
									<g class="accid" id="accid-0000001473886703">
										<use xlink:href="#E260" x="16790" y="1260" height="720px" width="720px" />
									</g>
								</g>
								<g class="note" id="note-L48F2">
									<use xlink:href="#E0A4" x="17533" y="1440" height="720px" width="720px" />
									<g class="stem">
										<rect x="17741" y="549" height="869" width="18" />
									</g>
									<g class="accid" id="accid-0000001903194035">
										<use xlink:href="#E260" x="17337" y="1440" height="720px" width="720px" />
									</g>
								</g>
								<g class="note" id="note-L49F2">
									<use xlink:href="#E0A4" x="18079" y="1260" height="720px" width="720px" />
									<g class="stem">
										<rect x="18287" y="495" height="743" width="18" />
									</g>
									<g class="accid" id="accid-0000001656070064" />
								</g>
							</g>
							<g class="beam" id="beam-L50F2-L53F2">
								<polygon points="18834,282 19865,384 19865,474 18834,372 " />
								<polygon points="18834,417 19865,519 19865,609 18834,507 " />
								<g class="note" id="note-L50F2">
									<use xlink:href="#E0A4" x="18626" y="1080" height="720px" width="720px" />
									<g class="stem">
										<rect x="18834" y="300" height="758" width="18" />
									</g>
									<g class="accid" id="accid-0000000614758634">
										<use xlink:href="#E260" x="18430" y="1080" height="720px" width="720px" />
									</g>
								</g>
								<g class="note" id="note-L51F2">
									<use xlink:href="#E0A4" x="18964" y="990" height="720px" width="720px" />
									<g class="stem">
										<rect x="19172" y="334" height="634" width="18" />
									</g>
									<g class="accid" id="accid-0000002057878336" />
								</g>
								<g class="note" id="note-L52F2">
									<use xlink:href="#E0A4" x="19301" y="1080" height="720px" width="720px" />
									<g class="stem">
										<rect x="19509" y="368" height="690" width="18" />
									</g>
									<g class="accid" id="accid-0000001256663356" />
								</g>
								<g class="note" id="note-L53F2">
									<use xlink:href="#E0A4" x="19639" y="1260" height="720px" width="720px" />
									<g class="stem">
										<rect x="19847" y="402" height="836" width="18" />
									</g>
									<g class="accid" id="accid-0000000620211098" />
								</g>
							</g>
						</g>
					</g>
					<g class="staff" id="staff-L45F1N1">
						<path d="M16246 2160 L20004 2160" stroke="#000000" stroke-width="13" />
						<path d="M16246 2340 L20004 2340" stroke="#000000" stroke-width="13" />
						<path d="M16246 2520 L20004 2520" stroke="#000000" stroke-width="13" />
						<path d="M16246 2700 L20004 2700" stroke="#000000" stroke-width="13" />
						<path d="M16246 2880 L20004 2880" stroke="#000000" stroke-width="13" />
						<g class="layer" id="layer-L45F1N1">
							<g class="beam" id="beam-L46F1-L49F1">
								<polygon points="16439,2989 18097,3027 18097,2937 16439,2899 " />
								<polygon points="17542,2880 18097,2892 18097,2802 17542,2790 " />
								<g class="note" id="note-L46F1">
									<use xlink:href="#E0A4" x="16439" y="2160" height="720px" width="720px" />
									<g class="stem">
										<rect x="16439" y="2182" height="789" width="18" />
									</g>
									<g class="accid" id="accid-0000000630991149" />
								</g>
								<g class="note" id="note-L48F1">
									<use xlink:href="#E0A4" x="17533" y="2340" height="720px" width="720px" />
									<g class="stem">
										<rect x="17533" y="2362" height="635" width="18" />
									</g>
									<g class="accid" id="accid-0000000166161641" />
								</g>
								<g class="note" id="note-L49F1">
									<use xlink:href="#E0A4" x="18079" y="2160" height="720px" width="720px" />
									<g class="stem">
										<rect x="18079" y="2182" height="827" width="18" />
									</g>
									<g class="accid" id="accid-L49F1">
										<use xlink:href="#E260" x="17883" y="2160" height="720px" width="720px" />
									</g>
								</g>
							</g>
							<g class="beam" id="beam-L50F1-L51F1">
								<polygon points="18626,3015 18982,2981 18982,2891 18626,2925 " />
								<polygon points="18626,2880 18784,2865 18784,2775 18626,2790 " />
								<g class="note" id="note-L50F1">
									<use xlink:href="#E0A4" x="18626" y="2340" height="720px" width="720px" />
									<g class="stem">
										<rect x="18626" y="2362" height="635" width="18" />
									</g>
									<g class="accid" id="accid-0000000943695864" />
								</g>
								<g class="note" id="note-L51F1">
									<use xlink:href="#E0A4" x="18964" y="2160" height="720px" width="720px" />
									<g class="dots" id="dots-0000000266808219">
										<ellipse cx="19280" cy="2070" rx="36" ry="36" />
									</g>
									<g class="stem">
										<rect x="18964" y="2182" height="781" width="18" />
									</g>
									<g class="accid" id="accid-0000001353804234" />
								</g>
							</g>
						</g>
					</g>
					<g class="mNum autogenerated" id="mnum-0000000024617015" />
					<g class="barLineAttr" id="bline-0000000966016589">
						<path d="M19991 2880 L19991 720" stroke="#000000" stroke-width="27" />
					</g>
				</g>
			</g>
		</g>
	</svg>
</svg>
