<?xml version="1.0" encoding="UTF-8" standalone="no"?>
<svg width="2100.00px" height="450.00px" version="1.1" xmlns="http://www.w3.org/2000/svg" xmlns:xlink="http://www.w3.org/1999/xlink" overflow="visible">
	<desc>Engraved by Verovio 2.0.0-dev-0f0381c</desc>
	<defs>
		<symbol id="E050" viewBox="0 0 1000 1000" overflow="inherit">
			<path transform="scale(1,-1)" d="M441 -245c-23 -4 -48 -6 -76 -6c-59 0 -102 7 -130 20c-88 42 -150 93 -187 154c-26 44 -43 103 -48 176c-4 60 11 123 44 189c29 57 65 106 110 148s96 85 153 127c-3 16 -8 46 -13 92c-4 43 -5 73 -5 89c0 117 16 172 69 257c34 54 64 82 89 82c21 0 43 -30 69 -92 s39 -115 41 -159c2 -120 -19 -173 -67 -256c-13 -20 -63 -90 -98 -118c-13 -9 -25 -19 -37 -29l31 -181c8 1 18 2 28 2c58 0 102 -12 133 -35c59 -43 92 -104 98 -184c11 -135 -80 -229 -180 -270c8 -57 17 -110 25 -162c5 -31 6 -58 6 -80c0 -30 -5 -53 -14 -70 c-35 -64 -88 -99 -158 -103c-42 -3 -83 6 -124 26c-50 24 -77 59 -80 105c-2 34 5 63 20 87c18 28 45 42 79 44c51 4 99 -40 103 -87c4 -56 -30 -94 -105 -115c17 -24 51 -36 102 -36c62 0 116 43 140 85c9 16 13 41 13 74c0 20 -1 42 -5 67c-8 53 -18 106 -26 159zM461 939 c-95 0 -135 -175 -135 -286c0 -24 2 -48 5 -71c50 39 92 82 127 128c43 57 63 106 60 148c-4 54 -23 82 -57 81zM406 119l54 -326c80 27 116 88 109 184c-7 99 -62 146 -163 142zM382 117c-74 -2 -132 -50 -128 -127c2 -46 43 -99 75 -115c-3 -2 -7 -5 -10 -10 c-70 33 -116 88 -123 172c-5 73 42 135 88 170c23 17 49 29 78 36l-29 170c-21 -13 -52 -37 -92 -73c-50 -44 -86 -84 -109 -119c-49 -75 -71 -140 -67 -195c5 -68 35 -127 93 -176s125 -73 203 -73c25 0 50 3 75 9c-19 111 -36 221 -54 331z" />
		</symbol>
		<symbol id="E082" viewBox="0 0 1000 1000" overflow="inherit">
			<path transform="scale(1,-1)" d="M104 -185c-18 0 -55 -14 -65 -65h-36l-3 29c0 25 6 46 18 64c11 19 22 30 39 43l121 82l37 29c15 11 27 29 38 54c12 24 18 47 18 70c0 40 -19 88 -94 88c-25 0 -32 0 -50 -8c-14 -5 -23 -12 -26 -22c3 -9 7 -15 10 -18l24 -17c12 -7 17 -11 27 -21c5 -7 7 -16 7 -27 c0 -12 0 -57 -79 -74c-30 0 -76 26 -76 94c0 66 80 135 196 135c72 0 182 -32 182 -150c0 -53 -32 -95 -113 -133l-91 -41c-26 -11 -45 -23 -57 -37l49 7c84 0 115 -41 148 -41c20 0 33 20 39 61h35c0 -152 -68 -168 -114 -168c-17 0 -55 0 -69 7v0l-28 17 c-49 37 -69 40 -87 42z" />
		</symbol>
		<symbol id="E084" viewBox="0 0 1000 1000" overflow="inherit">
			<path transform="scale(1,-1)" d="M0 -78c84 97 114 180 134 329h170c-13 -32 -82 -132 -99 -151l-84 -97c-33 -36 -59 -63 -80 -81h162v102l127 123v-225h57v-39h-57v-34c0 -43 19 -65 57 -65v-34h-244v36c48 0 60 26 60 70v27h-203v39z" />
		</symbol>
		<symbol id="E0A4" viewBox="0 0 1000 1000" overflow="inherit">
			<path transform="scale(1,-1)" d="M0 -39c0 68 73 172 200 172c66 0 114 -37 114 -95c0 -84 -106 -171 -218 -171c-64 0 -96 30 -96 94z" />
		</symbol>
		<symbol id="E260" viewBox="0 0 1000 1000" overflow="inherit">
			<path transform="scale(1,-1)" d="M20 110c32 16 54 27 93 27c26 0 35 -3 54 -13c13 -7 24 -20 27 -38l4 -25c0 -28 -16 -57 -45 -89c-23 -25 -39 -44 -65 -68l-88 -79v644h20v-359zM90 106c-32 0 -48 -10 -70 -29v-194c31 31 54 59 71 84c21 32 32 59 32 84c0 9 1 16 1 20c0 14 -3 21 -11 30l-8 3z" />
		</symbol>
		<symbol id="E062" viewBox="0 0 1000 1000" overflow="inherit">
			<path transform="scale(1,-1)" d="M158 96c51 0 73 -14 88 -49l16 -39c0 -17 -2 -30 -7 -40c-3 -11 -10 -21 -19 -31c-17 -18 -49 -43 -84 -43c-55 0 -77 13 -112 44c-24 21 -35 55 -35 100c0 46 14 81 32 112c30 52 71 79 137 93l36 6l26 2c154 0 235 -68 274 -182c11 -32 18 -68 18 -107 c0 -103 -26 -182 -68 -250c-89 -145 -234 -230 -412 -288l-30 -5c-9 0 -14 3 -14 8c3 10 5 11 10 16c35 15 70 30 96 44l78 43c96 57 162 136 197 258c9 33 17 60 22 100c3 22 5 35 6 39c-7 69 -16 115 -23 140s-4 22 -16 40c-8 12 -19 23 -31 34c-24 21 -62 44 -118 44 c-48 0 -84 -8 -113 -28c-28 -19 -42 -44 -42 -73v-16c2 -5 3 -9 4 -11c24 22 52 39 84 39zM585 -118c0 32 23 58 57 58c18 0 33 -6 40 -18c9 -15 16 -18 16 -40c0 -9 -2 -16 -5 -21c-6 -19 -27 -37 -51 -37c-34 0 -57 26 -57 58zM642 177c31 0 56 -27 56 -58 c0 -30 -25 -58 -56 -58l-23 3c-19 7 -34 32 -34 55l3 23c9 20 28 35 54 35z" />
		</symbol>
		<symbol id="E262" viewBox="0 0 1000 1000" overflow="inherit">
			<path transform="scale(1,-1)" d="M136 186v169h17v-164l44 14v-91l-44 -14v-165l44 12v-91l-44 -13v-155h-17v150l-76 -22v-155h-17v149l-43 -13v90l43 14v167l-43 -14v92l43 13v169h17v-163zM60 73v-167l76 22v168z" />
		</symbol>
	</defs>
	<style type="text/css">g.page-margin{font-family:Times;} g.tempo{font-weight:bold;} g.dir, g.dynam, g.mNum{font-style:italic;} g.label{font-weight:normal;}</style>
	<svg class="definition-scale" viewBox="0 0 21000 4500">
		<g class="page-margin" transform="translate(500, 500)">
			<g class="system" id="system-0000000601501287">
				<path d="M13 720 L13 2880" stroke="#000000" stroke-width="27" />
				<path d="M-32,2862 C-392,2322 58,1980 -212,1800 C121,1980 -329,2322 -32,2862" stroke="#000000" stroke-linecap="round" stroke-linejoin="round" stroke-width="18" />
				<path d="M-32,738 C-329,1278 121,1620 -212,1800 C58,1620 -392,1278 -32,738" stroke="#000000" stroke-linecap="round" stroke-linejoin="round" stroke-width="18" />
				<g class="section boundaryStart" id="section-L1F1" />
				<g class="measure" id="measure-L4">
					<g class="staff" id="staff-L4F2N1">
						<path d="M0 720 L4879 720" stroke="#000000" stroke-width="13" />
						<path d="M0 900 L4879 900" stroke="#000000" stroke-width="13" />
						<path d="M0 1080 L4879 1080" stroke="#000000" stroke-width="13" />
						<path d="M0 1260 L4879 1260" stroke="#000000" stroke-width="13" />
						<path d="M0 1440 L4879 1440" stroke="#000000" stroke-width="13" />
						<g class="clef" id="clef-0000001767389531">
							<use xlink:href="#E050" x="90" y="1260" height="720px" width="720px" />
						</g>
						<g class="meterSig" id="msig-0000000522042213">
							<use xlink:href="#E082" x="771" y="900" height="720px" width="720px" />
							<use xlink:href="#E084" x="777" y="1260" height="720px" width="720px" />
						</g>
						<g class="layer" id="layer-L4F2N1">
							<g class="beam" id="beam-L5F2-L7F2">
								<polygon points="1783,474 2734,380 2734,470 1783,564 " />
								<polygon points="1783,609 2148,573 2148,663 1783,699 " />
								<g class="note" id="note-L5F2">
									<use xlink:href="#E0A4" x="1575" y="1170" height="720px" width="720px" />
									<g class="stem">
										<rect x="1783" y="492" height="656" width="18" />
									</g>
									<g class="accid" id="accid-0000000981757715">
										<use xlink:href="#E260" x="1379" y="1170" height="720px" width="720px" />
									</g>
								</g>
								<g class="note" id="note-L6F2">
									<use xlink:href="#E0A4" x="1931" y="1260" height="720px" width="720px" />
									<g class="stem">
										<rect x="2139" y="456" height="782" width="18" />
									</g>
									<g class="accid" id="accid-0000000694902049" />
								</g>
								<g class="note" id="note-L7F2">
									<use xlink:href="#E0A4" x="2508" y="1080" height="720px" width="720px" />
									<g class="stem">
										<rect x="2716" y="398" height="660" width="18" />
									</g>
									<g class="accid" id="accid-0000001077208135">
										<use xlink:href="#E260" x="2312" y="1080" height="720px" width="720px" />
									</g>
								</g>
							</g>
							<g class="beam" id="beam-L9F2-L12F2">
								<polygon points="3411,568 4720,461 4720,551 3411,658 " />
								<polygon points="3411,703 4720,596 4720,686 3411,793 " />
								<g class="note" id="note-L9F2">
									<use xlink:href="#E0A4" x="3203" y="1260" height="720px" width="720px" />
									<g class="stem">
										<rect x="3411" y="586" height="652" width="18" />
									</g>
									<g class="accid" id="accid-0000001970930102" />
								</g>
								<g class="note" id="note-L10F2">
									<use xlink:href="#E0A4" x="3781" y="1440" height="720px" width="720px" />
									<g class="stem">
										<rect x="3989" y="538" height="880" width="18" />
									</g>
									<g class="accid" id="accid-0000000433501856">
										<use xlink:href="#E260" x="3585" y="1440" height="720px" width="720px" />
									</g>
								</g>
								<g class="note" id="note-L11F2">
									<use xlink:href="#E0A4" x="4137" y="1260" height="720px" width="720px" />
									<g class="stem">
										<rect x="4345" y="508" height="730" width="18" />
									</g>
									<g class="accid" id="accid-0000000631784019" />
								</g>
								<g class="note" id="note-L12F2">
									<use xlink:href="#E0A4" x="4494" y="1170" height="720px" width="720px" />
									<g class="stem">
										<rect x="4702" y="479" height="669" width="18" />
									</g>
									<g class="accid" id="accid-0000000952323347" />
								</g>
							</g>
						</g>
					</g>
					<g class="staff" id="staff-L4F1N1">
						<path d="M0 2160 L4879 2160" stroke="#000000" stroke-width="13" />
						<path d="M0 2340 L4879 2340" stroke="#000000" stroke-width="13" />
						<path d="M0 2520 L4879 2520" stroke="#000000" stroke-width="13" />
						<path d="M0 2700 L4879 2700" stroke="#000000" stroke-width="13" />
						<path d="M0 2880 L4879 2880" stroke="#000000" stroke-width="13" />
						<g class="clef" id="clef-0000001492775896">
							<use xlink:href="#E062" x="90" y="2340" height="720px" width="720px" />
						</g>
						<g class="meterSig" id="msig-0000000033036171">
							<use xlink:href="#E082" x="771" y="2340" height="720px" width="720px" />
							<use xlink:href="#E084" x="777" y="2700" height="720px" width="720px" />
						</g>
						<g class="layer" id="layer-L4F1N1">
							<g class="beam" id="beam-L5F1-L8F1">
								<polygon points="1575,3285 2865,3157 2865,3067 1575,3195 " />
								<polygon points="2707,3037 2865,3022 2865,2932 2707,2947 " />
								<g class="note" id="note-L5F1">
									<use xlink:href="#E0A4" x="1575" y="2610" height="720px" width="720px" />
									<g class="dots" id="dots-0000000657771081">
										<ellipse cx="1891" cy="2610" rx="36" ry="36" />
									</g>
									<g class="stem">
										<rect x="1575" y="2632" height="635" width="18" />
									</g>
									<g class="accid" id="accid-0000001512474044" />
								</g>
								<g class="note" id="note-L8F1">
									<use xlink:href="#E0A4" x="2847" y="2250" height="720px" width="720px" />
									<g class="stem">
										<rect x="2847" y="2272" height="867" width="18" />
									</g>
									<g class="accid" id="accid-0000000798240926" />
								</g>
							</g>
							<g class="beam" id="beam-L9F1-L11F1">
								<polygon points="3411,1832 4363,1846 4363,1936 3411,1922 " />
								<polygon points="3411,1967 3998,1975 3998,2065 3411,2057 " />
								<g class="note" id="note-L9F1">
									<use xlink:href="#E0A4" x="3203" y="2520" height="720px" width="720px" />
									<g class="stem">
										<rect x="3411" y="1850" height="648" width="18" />
									</g>
									<g class="accid" id="accid-0000000170707074" />
								</g>
								<g class="note" id="note-L10F1">
									<use xlink:href="#E0A4" x="3781" y="2610" height="720px" width="720px" />
									<g class="stem">
										<rect x="3989" y="1858" height="730" width="18" />
									</g>
									<g class="accid" id="accid-0000002006505216" />
								</g>
								<g class="note" id="note-L11F1">
									<use xlink:href="#E0A4" x="4137" y="2520" height="720px" width="720px" />
									<g class="stem">
										<rect x="4345" y="1864" height="634" width="18" />
									</g>
									<g class="accid" id="accid-0000000022260858" />
								</g>
							</g>
						</g>
					</g>
					<g class="tie" id="tie-L11F1-L14F1">
						<path d="M4385,2565 C4554,2663 4892,2663 5061,2565 C4892,2707 4554,2707 4385,2565" stroke="#000000" stroke-linecap="round" stroke-linejoin="round" stroke-width="9" />
					</g>
					<g class="mNum autogenerated" id="mnum-0000000546852746" />
					<g class="barLineAttr" id="bline-0000001169594265">
						<path d="M4866 2880 L4866 720" stroke="#000000" stroke-width="27" />
					</g>
				</g>
				<g class="measure" id="measure-L13">
					<g class="staff" id="staff-L13F2N1">
						<path d="M4879 720 L8387 720" stroke="#000000" stroke-width="13" />
						<path d="M4879 900 L8387 900" stroke="#000000" stroke-width="13" />
						<path d="M4879 1080 L8387 1080" stroke="#000000" stroke-width="13" />
						<path d="M4879 1260 L8387 1260" stroke="#000000" stroke-width="13" />
						<path d="M4879 1440 L8387 1440" stroke="#000000" stroke-width="13" />
						<g class="ledgerLines below">
							<path d="M7632 1620 L7911 1620" stroke="#000000" stroke-width="22" />
						</g>
						<g class="layer" id="layer-L13F2N1">
							<g class="beam" id="beam-L14F2-L17F2">
								<polygon points="5291,582 6820,733 6820,823 5291,672 " />
								<polygon points="6233,811 6820,868 6820,958 6233,901 " />
								<g class="note" id="note-L14F2">
									<use xlink:href="#E0A4" x="5083" y="1260" height="720px" width="720px" />
									<g class="stem">
										<rect x="5291" y="600" height="638" width="18" />
									</g>
									<g class="accid" id="accid-0000001860094499" />
								</g>
								<g class="note" id="note-L16F2">
									<use xlink:href="#E0A4" x="6016" y="1350" height="720px" width="720px" />
									<g class="stem">
										<rect x="6224" y="694" height="634" width="18" />
									</g>
									<g class="accid" id="accid-0000000291479999" />
								</g>
								<g class="note" id="note-L17F2">
									<use xlink:href="#E0A4" x="6594" y="1440" height="720px" width="720px" />
									<g class="stem">
										<rect x="6802" y="751" height="667" width="18" />
									</g>
									<g class="accid" id="accid-0000000765432553">
										<use xlink:href="#E260" x="6398" y="1440" height="720px" width="720px" />
									</g>
								</g>
							</g>
							<g class="beam" id="beam-L18F2-L20F2">
								<polygon points="7158,730 7889,802 7889,892 7158,820 " />
								<polygon points="7158,865 7524,901 7524,991 7158,955 " />
								<g class="note" id="note-L18F2">
									<use xlink:href="#E0A4" x="6950" y="1530" height="720px" width="720px" />
									<g class="stem">
										<rect x="7158" y="748" height="760" width="18" />
									</g>
									<g class="accid" id="accid-0000001778399599" />
								</g>
								<g class="note" id="note-L19F2">
									<use xlink:href="#E0A4" x="7307" y="1440" height="720px" width="720px" />
									<g class="stem">
										<rect x="7515" y="784" height="634" width="18" />
									</g>
									<g class="accid" id="accid-0000001475651548" />
								</g>
								<g class="note" id="note-L20F2">
									<use xlink:href="#E0A4" x="7663" y="1620" height="720px" width="720px" />
									<g class="stem">
										<rect x="7871" y="820" height="778" width="18" />
									</g>
									<g class="accid" id="accid-0000001490266272" />
								</g>
							</g>
						</g>
					</g>
					<g class="staff" id="staff-L13F1N1">
						<path d="M4879 2160 L8387 2160" stroke="#000000" stroke-width="13" />
						<path d="M4879 2340 L8387 2340" stroke="#000000" stroke-width="13" />
						<path d="M4879 2520 L8387 2520" stroke="#000000" stroke-width="13" />
						<path d="M4879 2700 L8387 2700" stroke="#000000" stroke-width="13" />
						<path d="M4879 2880 L8387 2880" stroke="#000000" stroke-width="13" />
						<g class="ledgerLines above">
							<path d="M5985 1980 L6264 1980" stroke="#000000" stroke-width="22" />
						</g>
						<g class="layer" id="layer-L13F1N1">
							<g class="beam" id="beam-L14F1-L17F1">
								<polygon points="5083,3195 6612,3043 6612,2953 5083,3105 " />
								<polygon points="5083,3060 6612,2908 6612,2818 5083,2970 " />
								<g class="note" id="note-L14F1">
									<use xlink:href="#E0A4" x="5083" y="2520" height="720px" width="720px" />
									<g class="stem">
										<rect x="5083" y="2542" height="635" width="18" />
									</g>
									<g class="accid" id="accid-0000001593373492" />
								</g>
								<g class="note" id="note-L15F1">
									<use xlink:href="#E0A4" x="5660" y="2160" height="720px" width="720px" />
									<g class="stem">
										<rect x="5660" y="2182" height="937" width="18" />
									</g>
									<g class="accid" id="accid-0000001768738380">
										<use xlink:href="#E260" x="5464" y="2160" height="720px" width="720px" />
									</g>
								</g>
								<g class="note" id="note-L16F1">
									<use xlink:href="#E0A4" x="6016" y="1980" height="720px" width="720px" />
									<g class="stem">
										<rect x="6016" y="2002" height="1081" width="18" />
									</g>
									<g class="accid" id="accid-0000000663845322" />
								</g>
								<g class="note" id="note-L17F1">
									<use xlink:href="#E0A4" x="6594" y="2160" height="720px" width="720px" />
									<g class="stem">
										<rect x="6594" y="2182" height="843" width="18" />
									</g>
									<g class="accid" id="accid-0000000698078163" />
								</g>
							</g>
							<g class="beam" id="beam-L18F1-L21F1">
								<polygon points="6950,2999 8019,3105 8019,3015 6950,2909 " />
								<polygon points="7861,2955 8019,2970 8019,2880 7861,2865 " />
								<g class="note" id="note-L18F1">
									<use xlink:href="#E0A4" x="6950" y="2250" height="720px" width="720px" />
									<g class="dots" id="dots-0000001666401947">
										<ellipse cx="7266" cy="2250" rx="36" ry="36" />
									</g>
									<g class="stem">
										<rect x="6950" y="2272" height="709" width="18" />
									</g>
									<g class="accid" id="accid-0000000581821874" />
								</g>
								<g class="note" id="note-L21F1">
									<use xlink:href="#E0A4" x="8001" y="2430" height="720px" width="720px" />
									<g class="stem">
										<rect x="8001" y="2452" height="635" width="18" />
									</g>
									<g class="accid" id="accid-0000000857430012">
										<use xlink:href="#E260" x="7805" y="2430" height="720px" width="720px" />
									</g>
								</g>
							</g>
						</g>
					</g>
					<g class="mNum autogenerated" id="mnum-0000001393409154" />
					<g class="barLineAttr" id="bline-0000001782728267">
						<path d="M8374 2880 L8374 720" stroke="#000000" stroke-width="27" />
					</g>
				</g>
				<g class="measure" id="measure-L22">
					<g class="staff" id="staff-L22F2N1">
						<path d="M8387 720 L12552 720" stroke="#000000" stroke-width="13" />
						<path d="M8387 900 L12552 900" stroke="#000000" stroke-width="13" />
						<path d="M8387 1080 L12552 1080" stroke="#000000" stroke-width="13" />
						<path d="M8387 1260 L12552 1260" stroke="#000000" stroke-width="13" />
						<path d="M8387 1440 L12552 1440" stroke="#000000" stroke-width="13" />
						<g class="layer" id="layer-L22F2N1">
							<g class="beam" id="beam-L23F2-L25F2">
								<polygon points="9018,612 10189,496 10189,586 9018,702 " />
								<polygon points="9018,747 9604,689 9604,779 9018,837 " />
								<g class="note" id="note-L23F2">
									<use xlink:href="#E0A4" x="8810" y="1350" height="720px" width="720px" />
									<g class="stem">
										<rect x="9018" y="630" height="698" width="18" />
									</g>
									<g class="accid" id="accid-0000000310153749">
										<use xlink:href="#E262" x="8615" y="1350" height="720px" width="720px" />
									</g>
								</g>
								<g class="note" id="note-L24F2">
									<use xlink:href="#E0A4" x="9387" y="1440" height="720px" width="720px" />
									<g class="stem">
										<rect x="9595" y="572" height="846" width="18" />
									</g>
									<g class="accid" id="accid-0000000274385615">
										<use xlink:href="#E262" x="9192" y="1440" height="720px" width="720px" />
									</g>
								</g>
								<g class="note" id="note-L25F2">
									<use xlink:href="#E0A4" x="9963" y="1170" height="720px" width="720px" />
									<g class="stem">
										<rect x="10171" y="514" height="634" width="18" />
									</g>
									<g class="accid" id="accid-0000001922861963">
										<use xlink:href="#E262" x="9768" y="1170" height="720px" width="720px" />
									</g>
								</g>
							</g>
							<g class="beam" id="beam-L27F2-L30F2">
								<polygon points="11086,750 12393,659 12393,749 11086,840 " />
								<polygon points="11086,885 12393,794 12393,884 11086,975 " />
								<g class="note" id="note-L27F2">
									<use xlink:href="#E0A4" x="10878" y="1440" height="720px" width="720px" />
									<g class="stem">
										<rect x="11086" y="768" height="650" width="18" />
									</g>
									<g class="accid" id="accid-0000000191532048" />
								</g>
								<g class="note" id="note-L28F2">
									<use xlink:href="#E0A4" x="11454" y="1530" height="720px" width="720px" />
									<g class="stem">
										<rect x="11662" y="727" height="781" width="18" />
									</g>
									<g class="accid" id="accid-0000002045372405">
										<use xlink:href="#E262" x="11259" y="1530" height="720px" width="720px" />
									</g>
								</g>
								<g class="note" id="note-L29F2">
									<use xlink:href="#E0A4" x="11811" y="1440" height="720px" width="720px" />
									<g class="stem">
										<rect x="12019" y="702" height="716" width="18" />
									</g>
									<g class="accid" id="accid-0000000177743831" />
								</g>
								<g class="note" id="note-L30F2">
									<use xlink:href="#E0A4" x="12167" y="1350" height="720px" width="720px" />
									<g class="stem">
										<rect x="12375" y="677" height="651" width="18" />
									</g>
									<g class="accid" id="accid-0000000828569509" />
								</g>
							</g>
						</g>
					</g>
					<g class="staff" id="staff-L22F1N1">
						<path d="M8387 2160 L12552 2160" stroke="#000000" stroke-width="13" />
						<path d="M8387 2340 L12552 2340" stroke="#000000" stroke-width="13" />
						<path d="M8387 2520 L12552 2520" stroke="#000000" stroke-width="13" />
						<path d="M8387 2700 L12552 2700" stroke="#000000" stroke-width="13" />
						<path d="M8387 2880 L12552 2880" stroke="#000000" stroke-width="13" />
						<g class="layer" id="layer-L22F1N1">
							<g class="beam" id="beam-L23F1-L26F1">
								<polygon points="8810,3375 10320,3225 10320,3135 8810,3285 " />
								<polygon points="10162,3105 10320,3090 10320,3000 10162,3015 " />
								<g class="note" id="note-L23F1">
									<use xlink:href="#E0A4" x="8810" y="2700" height="720px" width="720px" />
									<g class="dots" id="dots-0000001380538956">
										<ellipse cx="9126" cy="2610" rx="36" ry="36" />
									</g>
									<g class="stem">
										<rect x="8810" y="2722" height="635" width="18" />
									</g>
									<g class="accid" id="accid-0000000674068234" />
								</g>
								<g class="note" id="note-L26F1">
									<use xlink:href="#E0A4" x="10302" y="2340" height="720px" width="720px" />
									<g class="stem">
										<rect x="10302" y="2362" height="845" width="18" />
									</g>
									<g class="accid" id="accid-0000001198145998">
										<use xlink:href="#E262" x="10107" y="2340" height="720px" width="720px" />
									</g>
								</g>
							</g>
							<g class="beam" id="beam-L27F1-L29F1">
								<polygon points="11086,1922 12037,1936 12037,2026 11086,2012 " />
								<polygon points="11086,2057 11671,2065 11671,2155 11086,2147 " />
								<g class="note" id="note-L27F1">
									<use xlink:href="#E0A4" x="10878" y="2610" height="720px" width="720px" />
									<g class="stem">
										<rect x="11086" y="1940" height="648" width="18" />
									</g>
									<g class="accid" id="accid-0000001837128530">
										<use xlink:href="#E262" x="10683" y="2610" height="720px" width="720px" />
									</g>
								</g>
								<g class="note" id="note-L28F1">
									<use xlink:href="#E0A4" x="11454" y="2700" height="720px" width="720px" />
									<g class="stem">
										<rect x="11662" y="1948" height="730" width="18" />
									</g>
									<g class="accid" id="accid-0000000796515489" />
								</g>
								<g class="note" id="note-L29F1">
									<use xlink:href="#E0A4" x="11811" y="2610" height="720px" width="720px" />
									<g class="stem">
										<rect x="12019" y="1954" height="634" width="18" />
									</g>
									<g class="accid" id="accid-0000001384767166" />
								</g>
							</g>
						</g>
					</g>
					<g class="tie" id="tie-L29F1-L32F1">
						<path d="M12059,2655 C12282,2753 12728,2753 12953,2655 C12728,2797 12282,2797 12059,2655" stroke="#000000" stroke-linecap="round" stroke-linejoin="round" stroke-width="9" />
					</g>
					<g class="mNum autogenerated" id="mnum-0000000205300520" />
					<g class="barLineAttr" id="bline-0000000876266201">
						<path d="M12539 2880 L12539 720" stroke="#000000" stroke-width="27" />
					</g>
				</g>
				<g class="measure" id="measure-L31">
					<g class="staff" id="staff-L31F2N1">
						<path d="M12552 720 L16497 720" stroke="#000000" stroke-width="13" />
						<path d="M12552 900 L16497 900" stroke="#000000" stroke-width="13" />
						<path d="M12552 1080 L16497 1080" stroke="#000000" stroke-width="13" />
						<path d="M12552 1260 L16497 1260" stroke="#000000" stroke-width="13" />
						<path d="M12552 1440 L16497 1440" stroke="#000000" stroke-width="13" />
						<g class="ledgerLines below">
							<path d="M15030 1620 L15309 1620" stroke="#000000" stroke-width="22" />
							<path d="M15743 1620 L16022 1620" stroke="#000000" stroke-width="22" />
						</g>
						<g class="layer" id="layer-L31F2N1">
							<g class="beam" id="beam-L32F2-L35F2">
								<polygon points="13183,553 14711,607 14711,697 13183,643 " />
								<polygon points="14125,721 14711,742 14711,832 14125,811 " />
								<g class="note" id="note-L32F2">
									<use xlink:href="#E0A4" x="12975" y="1440" height="720px" width="720px" />
									<g class="stem">
										<rect x="13183" y="571" height="847" width="18" />
									</g>
									<g class="accid" id="accid-0000001826077190">
										<use xlink:href="#E262" x="12780" y="1440" height="720px" width="720px" />
									</g>
								</g>
								<g class="note" id="note-L34F2">
									<use xlink:href="#E0A4" x="13908" y="1260" height="720px" width="720px" />
									<g class="stem">
										<rect x="14116" y="604" height="634" width="18" />
									</g>
									<g class="accid" id="accid-0000001183882672">
										<use xlink:href="#E262" x="13713" y="1260" height="720px" width="720px" />
									</g>
								</g>
								<g class="note" id="note-L35F2">
									<use xlink:href="#E0A4" x="14485" y="1530" height="720px" width="720px" />
									<g class="stem">
										<rect x="14693" y="625" height="883" width="18" />
									</g>
									<g class="accid" id="accid-0000000205947052">
										<use xlink:href="#E262" x="14290" y="1530" height="720px" width="720px" />
									</g>
								</g>
							</g>
							<g class="beam" id="beam-L36F2-L38F2">
								<polygon points="15269,820 16000,892 16000,982 15269,910 " />
								<polygon points="15269,955 15634,991 15634,1081 15269,1045 " />
								<g class="note" id="note-L36F2">
									<use xlink:href="#E0A4" x="15061" y="1620" height="720px" width="720px" />
									<g class="stem">
										<rect x="15269" y="838" height="760" width="18" />
									</g>
									<g class="accid" id="accid-0000001248927660">
										<use xlink:href="#E262" x="14866" y="1620" height="720px" width="720px" />
									</g>
								</g>
								<g class="note" id="note-L37F2">
									<use xlink:href="#E0A4" x="15417" y="1530" height="720px" width="720px" />
									<g class="stem">
										<rect x="15625" y="874" height="634" width="18" />
									</g>
									<g class="accid" id="accid-0000002034140233" />
								</g>
								<g class="note" id="note-L38F2">
									<use xlink:href="#E0A4" x="15774" y="1710" height="720px" width="720px" />
									<g class="stem">
										<rect x="15982" y="910" height="778" width="18" />
									</g>
									<g class="accid" id="accid-0000000046911388" />
								</g>
							</g>
						</g>
					</g>
					<g class="staff" id="staff-L31F1N1">
						<path d="M12552 2160 L16497 2160" stroke="#000000" stroke-width="13" />
						<path d="M12552 2340 L16497 2340" stroke="#000000" stroke-width="13" />
						<path d="M12552 2520 L16497 2520" stroke="#000000" stroke-width="13" />
						<path d="M12552 2700 L16497 2700" stroke="#000000" stroke-width="13" />
						<path d="M12552 2880 L16497 2880" stroke="#000000" stroke-width="13" />
						<g class="layer" id="layer-L31F1N1">
							<g class="beam" id="beam-L32F1-L35F1">
								<polygon points="12975,3285 14503,3134 14503,3044 12975,3195 " />
								<polygon points="12975,3150 14503,2999 14503,2909 12975,3060 " />
								<g class="note" id="note-L32F1">
									<use xlink:href="#E0A4" x="12975" y="2610" height="720px" width="720px" />
									<g class="stem">
										<rect x="12975" y="2632" height="635" width="18" />
									</g>
									<g class="accid" id="accid-0000001262570890" />
								</g>
								<g class="note" id="note-L33F1">
									<use xlink:href="#E0A4" x="13552" y="2250" height="720px" width="720px" />
									<g class="stem">
										<rect x="13552" y="2272" height="937" width="18" />
									</g>
									<g class="accid" id="accid-0000000525164656">
										<use xlink:href="#E262" x="13357" y="2250" height="720px" width="720px" />
									</g>
								</g>
								<g class="note" id="note-L34F1">
									<use xlink:href="#E0A4" x="13908" y="2070" height="720px" width="720px" />
									<g class="stem">
										<rect x="13908" y="2092" height="1081" width="18" />
									</g>
									<g class="accid" id="accid-0000000560937285" />
								</g>
								<g class="note" id="note-L35F1">
									<use xlink:href="#E0A4" x="14485" y="2250" height="720px" width="720px" />
									<g class="stem">
										<rect x="14485" y="2272" height="844" width="18" />
									</g>
									<g class="accid" id="accid-0000001623353462" />
								</g>
							</g>
							<g class="beam" id="beam-L36F1-L39F1">
								<polygon points="15061,3089 16130,3195 16130,3105 15061,2999 " />
								<polygon points="15972,3045 16130,3060 16130,2970 15972,2955 " />
								<g class="note" id="note-L36F1">
									<use xlink:href="#E0A4" x="15061" y="2340" height="720px" width="720px" />
									<g class="dots" id="dots-0000001932570971">
										<ellipse cx="15377" cy="2250" rx="36" ry="36" />
									</g>
									<g class="stem">
										<rect x="15061" y="2362" height="709" width="18" />
									</g>
									<g class="accid" id="accid-0000001483766521">
										<use xlink:href="#E262" x="14866" y="2340" height="720px" width="720px" />
									</g>
								</g>
								<g class="note" id="note-L39F1">
									<use xlink:href="#E0A4" x="16112" y="2520" height="720px" width="720px" />
									<g class="stem">
										<rect x="16112" y="2542" height="635" width="18" />
									</g>
									<g class="accid" id="accid-0000000629686927">
										<use xlink:href="#E262" x="15917" y="2520" height="720px" width="720px" />
									</g>
								</g>
							</g>
						</g>
					</g>
					<g class="mNum autogenerated" id="mnum-0000000655931408" />
					<g class="barLineAttr" id="bline-0000001271981990">
						<path d="M16484 2880 L16484 720" stroke="#000000" stroke-width="27" />
					</g>
				</g>
				<g class="measure" id="measure-L40">
					<g class="staff" id="staff-L40F2N1">
						<path d="M16497 720 L20002 720" stroke="#000000" stroke-width="13" />
						<path d="M16497 900 L20002 900" stroke="#000000" stroke-width="13" />
						<path d="M16497 1080 L20002 1080" stroke="#000000" stroke-width="13" />
						<path d="M16497 1260 L20002 1260" stroke="#000000" stroke-width="13" />
						<path d="M16497 1440 L20002 1440" stroke="#000000" stroke-width="13" />
						<g class="layer" id="layer-L40F2N1">
							<g class="beam" id="beam-L41F2-L43F2">
								<polygon points="16909,589 17859,496 17859,586 16909,679 " />
								<polygon points="16909,724 17494,666 17494,756 16909,814 " />
								<g class="note" id="note-L41F2">
									<use xlink:href="#E0A4" x="16701" y="1530" height="720px" width="720px" />
									<g class="stem">
										<rect x="16909" y="607" height="901" width="18" />
									</g>
									<g class="accid" id="accid-0000000081478852" />
								</g>
								<g class="note" id="note-L42F2">
									<use xlink:href="#E0A4" x="17277" y="1350" height="720px" width="720px" />
									<g class="stem">
										<rect x="17485" y="549" height="779" width="18" />
									</g>
									<g class="accid" id="accid-0000002088480239">
										<use xlink:href="#E262" x="17082" y="1350" height="720px" width="720px" />
									</g>
								</g>
								<g class="note" id="note-L43F2">
									<use xlink:href="#E0A4" x="17633" y="1170" height="720px" width="720px" />
									<g class="stem">
										<rect x="17841" y="514" height="634" width="18" />
									</g>
									<g class="accid" id="accid-0000000469807574" />
								</g>
							</g>
							<g class="beam" id="beam-L45F2-L48F2">
								<polygon points="18756,604 19843,711 19843,801 18756,694 " />
								<polygon points="18756,739 19843,846 19843,936 18756,829 " />
								<g class="note" id="note-L45F2">
									<use xlink:href="#E0A4" x="18548" y="1350" height="720px" width="720px" />
									<g class="stem">
										<rect x="18756" y="622" height="706" width="18" />
									</g>
									<g class="accid" id="accid-0000000691354261" />
								</g>
								<g class="note" id="note-L46F2">
									<use xlink:href="#E0A4" x="18904" y="1440" height="720px" width="720px" />
									<g class="stem">
										<rect x="19112" y="658" height="760" width="18" />
									</g>
									<g class="accid" id="accid-0000000677087119" />
								</g>
								<g class="note" id="note-L47F2">
									<use xlink:href="#E0A4" x="19261" y="1350" height="720px" width="720px" />
									<g class="stem">
										<rect x="19469" y="694" height="634" width="18" />
									</g>
									<g class="accid" id="accid-0000000028966957" />
								</g>
								<g class="note" id="note-L48F2">
									<use xlink:href="#E0A4" x="19617" y="1530" height="720px" width="720px" />
									<g class="stem">
										<rect x="19825" y="729" height="779" width="18" />
									</g>
									<g class="accid" id="accid-0000000972849190" />
								</g>
							</g>
						</g>
					</g>
					<g class="staff" id="staff-L40F1N1">
						<path d="M16497 2160 L20002 2160" stroke="#000000" stroke-width="13" />
						<path d="M16497 2340 L20002 2340" stroke="#000000" stroke-width="13" />
						<path d="M16497 2520 L20002 2520" stroke="#000000" stroke-width="13" />
						<path d="M16497 2700 L20002 2700" stroke="#000000" stroke-width="13" />
						<path d="M16497 2880 L20002 2880" stroke="#000000" stroke-width="13" />
						<g class="layer" id="layer-L40F1N1">
							<g class="beam" id="beam-L41F1-L44F1">
								<polygon points="16701,3375 17990,3247 17990,3157 16701,3285 " />
								<polygon points="17832,3127 17990,3112 17990,3022 17832,3037 " />
								<g class="note" id="note-L41F1">
									<use xlink:href="#E0A4" x="16701" y="2700" height="720px" width="720px" />
									<g class="dots" id="dots-0000001063363460">
										<ellipse cx="17017" cy="2610" rx="36" ry="36" />
									</g>
									<g class="stem">
										<rect x="16701" y="2722" height="635" width="18" />
									</g>
									<g class="accid" id="accid-0000000805234475" />
								</g>
								<g class="note" id="note-L44F1">
									<use xlink:href="#E0A4" x="17972" y="2340" height="720px" width="720px" />
									<g class="stem">
										<rect x="17972" y="2362" height="867" width="18" />
									</g>
									<g class="accid" id="accid-0000001671007908">
										<use xlink:href="#E262" x="17777" y="2340" height="720px" width="720px" />
									</g>
								</g>
							</g>
							<g class="beam" id="beam-L45F1-L47F1">
								<polygon points="18756,1935 19487,1935 19487,2025 18756,2025 " />
								<polygon points="18756,2070 19121,2070 19121,2160 18756,2160 " />
								<g class="note" id="note-L45F1">
									<use xlink:href="#E0A4" x="18548" y="2610" height="720px" width="720px" />
									<g class="stem">
										<rect x="18756" y="1953" height="635" width="18" />
									</g>
									<g class="accid" id="accid-0000001534996488">
										<use xlink:href="#E262" x="18353" y="2610" height="720px" width="720px" />
									</g>
								</g>
								<g class="note" id="note-L46F1">
									<use xlink:href="#E0A4" x="18904" y="2700" height="720px" width="720px" />
									<g class="stem">
										<rect x="19112" y="1953" height="725" width="18" />
									</g>
									<g class="accid" id="accid-0000001801842338" />
								</g>
								<g class="note" id="note-L47F1">
									<use xlink:href="#E0A4" x="19261" y="2610" height="720px" width="720px" />
									<g class="stem">
										<rect x="19469" y="1953" height="635" width="18" />
									</g>
									<g class="accid" id="accid-0000001553127477" />
								</g>
							</g>
						</g>
					</g>
					<g class="tie" id="tie-L47F1-L50F1">
						<path d="M19509,2655 C19629,2753 19869,2753 19989,2655 C19869,2797 19629,2797 19509,2655" stroke="#000000" stroke-linecap="round" stroke-linejoin="round" stroke-width="9" />
					</g>
					<g class="mNum autogenerated" id="mnum-0000001249733990" />
					<g class="barLineAttr" id="bline-0000000673023919">
						<path d="M19989 2880 L19989 720" stroke="#000000" stroke-width="27" />
					</g>
				</g>
			</g>
		</g>
	</svg>
</svg>
