<?xml version="1.0" encoding="UTF-8" standalone="no"?>
<svg width="2100.00px" height="450.00px" version="1.1" xmlns="http://www.w3.org/2000/svg" xmlns:xlink="http://www.w3.org/1999/xlink" overflow="visible">
	<desc>Engraved by Verovio 2.0.0-dev-0f0381c</desc>
	<defs>
		<symbol id="E050" viewBox="0 0 1000 1000" overflow="inherit">
			<path transform="scale(1,-1)" d="M441 -245c-23 -4 -48 -6 -76 -6c-59 0 -102 7 -130 20c-88 42 -150 93 -187 154c-26 44 -43 103 -48 176c-4 60 11 123 44 189c29 57 65 106 110 148s96 85 153 127c-3 16 -8 46 -13 92c-4 43 -5 73 -5 89c0 117 16 172 69 257c34 54 64 82 89 82c21 0 43 -30 69 -92 s39 -115 41 -159c2 -120 -19 -173 -67 -256c-13 -20 -63 -90 -98 -118c-13 -9 -25 -19 -37 -29l31 -181c8 1 18 2 28 2c58 0 102 -12 133 -35c59 -43 92 -104 98 -184c11 -135 -80 -229 -180 -270c8 -57 17 -110 25 -162c5 -31 6 -58 6 -80c0 -30 -5 -53 -14 -70 c-35 -64 -88 -99 -158 -103c-42 -3 -83 6 -124 26c-50 24 -77 59 -80 105c-2 34 5 63 20 87c18 28 45 42 79 44c51 4 99 -40 103 -87c4 -56 -30 -94 -105 -115c17 -24 51 -36 102 -36c62 0 116 43 140 85c9 16 13 41 13 74c0 20 -1 42 -5 67c-8 53 -18 106 -26 159zM461 939 c-95 0 -135 -175 -135 -286c0 -24 2 -48 5 -71c50 39 92 82 127 128c43 57 63 106 60 148c-4 54 -23 82 -57 81zM406 119l54 -326c80 27 116 88 109 184c-7 99 -62 146 -163 142zM382 117c-74 -2 -132 -50 -128 -127c2 -46 43 -99 75 -115c-3 -2 -7 -5 -10 -10 c-70 33 -116 88 -123 172c-5 73 42 135 88 170c23 17 49 29 78 36l-29 170c-21 -13 -52 -37 -92 -73c-50 -44 -86 -84 -109 -119c-49 -75 -71 -140 -67 -195c5 -68 35 -127 93 -176s125 -73 203 -73c25 0 50 3 75 9c-19 111 -36 221 -54 331z" />
		</symbol>
		<symbol id="E082" viewBox="0 0 1000 1000" overflow="inherit">
			<path transform="scale(1,-1)" d="M104 -185c-18 0 -55 -14 -65 -65h-36l-3 29c0 25 6 46 18 64c11 19 22 30 39 43l121 82l37 29c15 11 27 29 38 54c12 24 18 47 18 70c0 40 -19 88 -94 88c-25 0 -32 0 -50 -8c-14 -5 -23 -12 -26 -22c3 -9 7 -15 10 -18l24 -17c12 -7 17 -11 27 -21c5 -7 7 -16 7 -27 c0 -12 0 -57 -79 -74c-30 0 -76 26 -76 94c0 66 80 135 196 135c72 0 182 -32 182 -150c0 -53 -32 -95 -113 -133l-91 -41c-26 -11 -45 -23 -57 -37l49 7c84 0 115 -41 148 -41c20 0 33 20 39 61h35c0 -152 -68 -168 -114 -168c-17 0 -55 0 -69 7v0l-28 17 c-49 37 -69 40 -87 42z" />
		</symbol>
		<symbol id="E084" viewBox="0 0 1000 1000" overflow="inherit">
			<path transform="scale(1,-1)" d="M0 -78c84 97 114 180 134 329h170c-13 -32 -82 -132 -99 -151l-84 -97c-33 -36 -59 -63 -80 -81h162v102l127 123v-225h57v-39h-57v-34c0 -43 19 -65 57 -65v-34h-244v36c48 0 60 26 60 70v27h-203v39z" />
		</symbol>
		<symbol id="E0A4" viewBox="0 0 1000 1000" overflow="inherit">
			<path transform="scale(1,-1)" d="M0 -39c0 68 73 172 200 172c66 0 114 -37 114 -95c0 -84 -106 -171 -218 -171c-64 0 -96 30 -96 94z" />
		</symbol>
		<symbol id="E062" viewBox="0 0 1000 1000" overflow="inherit">
			<path transform="scale(1,-1)" d="M158 96c51 0 73 -14 88 -49l16 -39c0 -17 -2 -30 -7 -40c-3 -11 -10 -21 -19 -31c-17 -18 -49 -43 -84 -43c-55 0 -77 13 -112 44c-24 21 -35 55 -35 100c0 46 14 81 32 112c30 52 71 79 137 93l36 6l26 2c154 0 235 -68 274 -182c11 -32 18 -68 18 -107 c0 -103 -26 -182 -68 -250c-89 -145 -234 -230 -412 -288l-30 -5c-9 0 -14 3 -14 8c3 10 5 11 10 16c35 15 70 30 96 44l78 43c96 57 162 136 197 258c9 33 17 60 22 100c3 22 5 35 6 39c-7 69 -16 115 -23 140s-4 22 -16 40c-8 12 -19 23 -31 34c-24 21 -62 44 -118 44 c-48 0 -84 -8 -113 -28c-28 -19 -42 -44 -42 -73v-16c2 -5 3 -9 4 -11c24 22 52 39 84 39zM585 -118c0 32 23 58 57 58c18 0 33 -6 40 -18c9 -15 16 -18 16 -40c0 -9 -2 -16 -5 -21c-6 -19 -27 -37 -51 -37c-34 0 -57 26 -57 58zM642 177c31 0 56 -27 56 -58 c0 -30 -25 -58 -56 -58l-23 3c-19 7 -34 32 -34 55l3 23c9 20 28 35 54 35z" />
		</symbol>
		<symbol id="E260" viewBox="0 0 1000 1000" overflow="inherit">
			<path transform="scale(1,-1)" d="M20 110c32 16 54 27 93 27c26 0 35 -3 54 -13c13 -7 24 -20 27 -38l4 -25c0 -28 -16 -57 -45 -89c-23 -25 -39 -44 -65 -68l-88 -79v644h20v-359zM90 106c-32 0 -48 -10 -70 -29v-194c31 31 54 59 71 84c21 32 32 59 32 84c0 9 1 16 1 20c0 14 -3 21 -11 30l-8 3z" />
		</symbol>
		<symbol id="E262" viewBox="0 0 1000 1000" overflow="inherit">
			<path transform="scale(1,-1)" d="M136 186v169h17v-164l44 14v-91l-44 -14v-165l44 12v-91l-44 -13v-155h-17v150l-76 -22v-155h-17v149l-43 -13v90l43 14v167l-43 -14v92l43 13v169h17v-163zM60 73v-167l76 22v168z" />
		</symbol>
	</defs>
	<style type="text/css">g.page-margin{font-family:Times;} g.tempo{font-weight:bold;} g.dir, g.dynam, g.mNum{font-style:italic;} g.label{font-weight:normal;}</style>
	<svg class="definition-scale" viewBox="0 0 21000 4500">
		<g class="page-margin" transform="translate(500, 500)">
			<g class="system" id="system-0000001286172332">
				<path d="M13 720 L13 2896" stroke="#000000" stroke-width="27" />
				<path d="M-32,2878 C-392,2338 58,1988 -212,1808 C121,1988 -329,2338 -32,2878" stroke="#000000" stroke-linecap="round" stroke-linejoin="round" stroke-width="18" />
				<path d="M-32,738 C-329,1278 121,1628 -212,1808 C58,1628 -392,1278 -32,738" stroke="#000000" stroke-linecap="round" stroke-linejoin="round" stroke-width="18" />
				<g class="section boundaryStart" id="section-L1F1" />
				<g class="measure" id="measure-L4">
					<g class="staff" id="staff-L4F2N1">
						<path d="M0 720 L3905 720" stroke="#000000" stroke-width="13" />
						<path d="M0 900 L3905 900" stroke="#000000" stroke-width="13" />
						<path d="M0 1080 L3905 1080" stroke="#000000" stroke-width="13" />
						<path d="M0 1260 L3905 1260" stroke="#000000" stroke-width="13" />
						<path d="M0 1440 L3905 1440" stroke="#000000" stroke-width="13" />
						<g class="clef" id="clef-0000001475484347">
							<use xlink:href="#E050" x="90" y="1260" height="720px" width="720px" />
						</g>
						<g class="meterSig" id="msig-0000001471748120">
							<use xlink:href="#E082" x="771" y="900" height="720px" width="720px" />
							<use xlink:href="#E084" x="777" y="1260" height="720px" width="720px" />
						</g>
						<g class="layer" id="layer-L4F2N1">
							<g class="beam" id="beam-L5F2-L8F2">
								<polygon points="1553,384 2594,281 2594,371 1553,474 " />
								<polygon points="1553,519 2594,416 2594,506 1553,609 " />
								<g class="note" id="note-L5F2">
									<use xlink:href="#E0A4" x="1345" y="1440" height="720px" width="720px" />
									<g class="stem">
										<rect x="1553" y="402" height="1016" width="18" />
									</g>
									<g class="accid" id="accid-0000000331491308" />
								</g>
								<g class="note" id="note-L6F2">
									<use xlink:href="#E0A4" x="1686" y="1260" height="720px" width="720px" />
									<g class="stem">
										<rect x="1894" y="368" height="870" width="18" />
									</g>
									<g class="accid" id="accid-0000000951346141" />
								</g>
								<g class="note" id="note-L7F2">
									<use xlink:href="#E0A4" x="2027" y="990" height="720px" width="720px" />
									<g class="stem">
										<rect x="2235" y="334" height="634" width="18" />
									</g>
									<g class="accid" id="accid-0000000312838460" />
								</g>
								<g class="note" id="note-L8F2">
									<use xlink:href="#E0A4" x="2368" y="1260" height="720px" width="720px" />
									<g class="stem">
										<rect x="2576" y="299" height="939" width="18" />
									</g>
									<g class="accid" id="accid-0000000160018427" />
								</g>
							</g>
							<g class="beam" id="beam-L9F2-L11F2">
								<polygon points="2917,559 3761,496 3761,586 2917,649 " />
								<polygon points="3411,657 3761,631 3761,721 3411,747 " />
								<g class="note" id="note-L9F2">
									<use xlink:href="#E0A4" x="2709" y="1260" height="720px" width="720px" />
									<g class="stem">
										<rect x="2917" y="577" height="661" width="18" />
									</g>
									<g class="accid" id="accid-0000000194298746" />
								</g>
								<g class="note" id="note-L10F2">
									<use xlink:href="#E0A4" x="3194" y="1440" height="720px" width="720px" />
									<g class="stem">
										<rect x="3402" y="540" height="878" width="18" />
									</g>
									<g class="accid" id="accid-0000000618112085" />
								</g>
								<g class="note" id="note-L11F2">
									<use xlink:href="#E0A4" x="3535" y="1170" height="720px" width="720px" />
									<g class="stem">
										<rect x="3743" y="514" height="634" width="18" />
									</g>
									<g class="accid" id="accid-0000001042519053" />
								</g>
							</g>
						</g>
					</g>
					<g class="staff" id="staff-L4F1N1">
						<path d="M0 2176 L3905 2176" stroke="#000000" stroke-width="13" />
						<path d="M0 2356 L3905 2356" stroke="#000000" stroke-width="13" />
						<path d="M0 2536 L3905 2536" stroke="#000000" stroke-width="13" />
						<path d="M0 2716 L3905 2716" stroke="#000000" stroke-width="13" />
						<path d="M0 2896 L3905 2896" stroke="#000000" stroke-width="13" />
						<g class="clef" id="clef-0000000954006694">
							<use xlink:href="#E062" x="90" y="2356" height="720px" width="720px" />
						</g>
						<g class="meterSig" id="msig-0000000877597556">
							<use xlink:href="#E082" x="771" y="2356" height="720px" width="720px" />
							<use xlink:href="#E084" x="777" y="2716" height="720px" width="720px" />
						</g>
						<g class="layer" id="layer-L4F1N1">
							<g class="beam" id="beam-L5F1-L8F1">
								<polygon points="1345,3301 2386,3198 2386,3108 1345,3211 " />
								<polygon points="1345,3166 1503,3151 1503,3061 1345,3076 " />
								<polygon points="2228,3078 2386,3063 2386,2973 2228,2988 " />
								<g class="note" id="note-L5F1">
									<use xlink:href="#E0A4" x="1345" y="2626" height="720px" width="720px" />
									<g class="stem">
										<rect x="1345" y="2648" height="635" width="18" />
									</g>
									<g class="accid" id="accid-0000001753121525" />
								</g>
								<g class="note" id="note-L6F1">
									<use xlink:href="#E0A4" x="1686" y="2536" height="720px" width="720px" />
									<g class="stem">
										<rect x="1686" y="2558" height="690" width="18" />
									</g>
									<g class="accid" id="accid-0000001599176356" />
								</g>
								<g class="note" id="note-L8F1">
									<use xlink:href="#E0A4" x="2368" y="2446" height="720px" width="720px" />
									<g class="stem">
										<rect x="2368" y="2468" height="712" width="18" />
									</g>
									<g class="accid" id="accid-0000001544231004" />
								</g>
							</g>
							<g class="beam" id="beam-L9F1-L11F1">
								<polygon points="2709,3344 3553,3270 3553,3180 2709,3254 " />
								<polygon points="3203,3166 3553,3135 3553,3045 3203,3076 " />
								<g class="note" id="note-L9F1">
									<use xlink:href="#E0A4" x="2709" y="2536" height="720px" width="720px" />
									<g class="stem">
										<rect x="2709" y="2558" height="768" width="18" />
									</g>
									<g class="accid" id="accid-0000000689298537" />
								</g>
								<g class="note" id="note-L10F1">
									<use xlink:href="#E0A4" x="3194" y="2626" height="720px" width="720px" />
									<g class="stem">
										<rect x="3194" y="2648" height="635" width="18" />
									</g>
									<g class="accid" id="accid-0000001991362525" />
								</g>
								<g class="note" id="note-L11F1">
									<use xlink:href="#E0A4" x="3535" y="2446" height="720px" width="720px" />
									<g class="stem">
										<rect x="3535" y="2468" height="784" width="18" />
									</g>
									<g class="accid" id="accid-0000001996495338" />
								</g>
							</g>
						</g>
					</g>
					<g class="tie" id="tie-L8F2-L9F2">
						<path d="M2481,1395 C2566,1493 2736,1493 2822,1395 C2736,1537 2566,1537 2481,1395" stroke="#000000" stroke-linecap="round" stroke-linejoin="round" stroke-width="9" />
					</g>
					<g class="mNum autogenerated" id="mnum-0000001968089437" />
					<g class="barLineAttr" id="bline-0000000807538726">
						<path d="M3892 2896 L3892 720" stroke="#000000" stroke-width="27" />
					</g>
				</g>
				<g class="measure" id="measure-L12">
					<g class="staff" id="staff-L12F2N1">
						<path d="M3905 720 L6660 720" stroke="#000000" stroke-width="13" />
						<path d="M3905 900 L6660 900" stroke="#000000" stroke-width="13" />
						<path d="M3905 1080 L6660 1080" stroke="#000000" stroke-width="13" />
						<path d="M3905 1260 L6660 1260" stroke="#000000" stroke-width="13" />
						<path d="M3905 1440 L6660 1440" stroke="#000000" stroke-width="13" />
						<g class="layer" id="layer-L12F2N1">
							<g class="beam" id="beam-L13F2-L16F2">
								<polygon points="4100,1935 5141,1832 5141,1742 4100,1845 " />
								<polygon points="4100,1800 5141,1697 5141,1607 4100,1710 " />
								<g class="note" id="note-L13F2">
									<use xlink:href="#E0A4" x="4100" y="1260" height="720px" width="720px" />
									<g class="stem">
										<rect x="4100" y="1282" height="635" width="18" />
									</g>
									<g class="accid" id="accid-0000000275419071" />
								</g>
								<g class="note" id="note-L14F2">
									<use xlink:href="#E0A4" x="4441" y="990" height="720px" width="720px" />
									<g class="stem">
										<rect x="4441" y="1012" height="870" width="18" />
									</g>
									<g class="accid" id="accid-0000000884302974" />
								</g>
								<g class="note" id="note-L15F2">
									<use xlink:href="#E0A4" x="4782" y="1080" height="720px" width="720px" />
									<g class="stem">
										<rect x="4782" y="1102" height="746" width="18" />
									</g>
									<g class="accid" id="accid-0000000533400247" />
								</g>
								<g class="note" id="note-L16F2">
									<use xlink:href="#E0A4" x="5123" y="990" height="720px" width="720px" />
									<g class="stem">
										<rect x="5123" y="1012" height="802" width="18" />
									</g>
									<g class="accid" id="accid-0000001471882167" />
								</g>
							</g>
							<g class="beam" id="beam-L17F2-L19F2">
								<polygon points="5672,316 6516,399 6516,489 5672,406 " />
								<polygon points="6166,500 6516,534 6516,624 6166,590 " />
								<g class="note" id="note-L17F2">
									<use xlink:href="#E0A4" x="5464" y="990" height="720px" width="720px" />
									<g class="stem">
										<rect x="5672" y="334" height="634" width="18" />
									</g>
									<g class="accid" id="accid-0000000062617838" />
								</g>
								<g class="note" id="note-L18F2">
									<use xlink:href="#E0A4" x="5949" y="1260" height="720px" width="720px" />
									<g class="stem">
										<rect x="6157" y="383" height="855" width="18" />
									</g>
									<g class="accid" id="accid-0000001951691345" />
								</g>
								<g class="note" id="note-L19F2">
									<use xlink:href="#E0A4" x="6290" y="1350" height="720px" width="720px" />
									<g class="stem">
										<rect x="6498" y="417" height="911" width="18" />
									</g>
									<g class="accid" id="accid-0000001416182091" />
								</g>
							</g>
						</g>
					</g>
					<g class="staff" id="staff-L12F1N1">
						<path d="M3905 2176 L6660 2176" stroke="#000000" stroke-width="13" />
						<path d="M3905 2356 L6660 2356" stroke="#000000" stroke-width="13" />
						<path d="M3905 2536 L6660 2536" stroke="#000000" stroke-width="13" />
						<path d="M3905 2716 L6660 2716" stroke="#000000" stroke-width="13" />
						<path d="M3905 2896 L6660 2896" stroke="#000000" stroke-width="13" />
						<g class="layer" id="layer-L12F1N1">
							<g class="beam" id="beam-L13F1-L16F1">
								<polygon points="4100,3301 5141,3198 5141,3108 4100,3211 " />
								<polygon points="4100,3166 4258,3151 4258,3061 4100,3076 " />
								<polygon points="4983,3078 5141,3063 5141,2973 4983,2988 " />
								<g class="note" id="note-L13F1">
									<use xlink:href="#E0A4" x="4100" y="2626" height="720px" width="720px" />
									<g class="stem">
										<rect x="4100" y="2648" height="635" width="18" />
									</g>
									<g class="accid" id="accid-0000000632775890" />
								</g>
								<g class="note" id="note-L14F1">
									<use xlink:href="#E0A4" x="4441" y="2266" height="720px" width="720px" />
									<g class="stem">
										<rect x="4441" y="2288" height="960" width="18" />
									</g>
									<g class="accid" id="accid-0000002063567430" />
								</g>
								<g class="note" id="note-L16F1">
									<use xlink:href="#E0A4" x="5123" y="2446" height="720px" width="720px" />
									<g class="stem">
										<rect x="5123" y="2468" height="712" width="18" />
									</g>
									<g class="accid" id="accid-0000000915854605" />
								</g>
							</g>
							<g class="beam" id="beam-L17F1-L19F1">
								<polygon points="5464,3227 6308,3301 6308,3211 5464,3137 " />
								<polygon points="5958,3135 6308,3166 6308,3076 5958,3045 " />
								<g class="note" id="note-L17F1">
									<use xlink:href="#E0A4" x="5464" y="2536" height="720px" width="720px" />
									<g class="stem">
										<rect x="5464" y="2558" height="651" width="18" />
									</g>
									<g class="accid" id="accid-0000001921632554" />
								</g>
								<g class="note" id="note-L18F1">
									<use xlink:href="#E0A4" x="5949" y="2446" height="720px" width="720px" />
									<g class="stem">
										<rect x="5949" y="2468" height="784" width="18" />
									</g>
									<g class="accid" id="accid-0000001668731081" />
								</g>
								<g class="note" id="note-L19F1">
									<use xlink:href="#E0A4" x="6290" y="2626" height="720px" width="720px" />
									<g class="stem">
										<rect x="6290" y="2648" height="635" width="18" />
									</g>
									<g class="accid" id="accid-0000000860056004" />
								</g>
							</g>
						</g>
					</g>
					<g class="tie" id="tie-L16F2-L17F2">
						<path d="M5236,855 C5321,713 5491,713 5577,855 C5491,757 5321,757 5236,855" stroke="#000000" stroke-linecap="round" stroke-linejoin="round" stroke-width="9" />
					</g>
					<g class="mNum autogenerated" id="mnum-0000000882421056" />
					<g class="barLineAttr" id="bline-0000000445777819">
						<path d="M6647 2896 L6647 720" stroke="#000000" stroke-width="27" />
					</g>
				</g>
				<g class="measure" id="measure-L20">
					<g class="staff" id="staff-L20F2N1">
						<path d="M6660 720 L9838 720" stroke="#000000" stroke-width="13" />
						<path d="M6660 900 L9838 900" stroke="#000000" stroke-width="13" />
						<path d="M6660 1080 L9838 1080" stroke="#000000" stroke-width="13" />
						<path d="M6660 1260 L9838 1260" stroke="#000000" stroke-width="13" />
						<path d="M6660 1440 L9838 1440" stroke="#000000" stroke-width="13" />
						<g class="layer" id="layer-L20F2N1">
							<g class="beam" id="beam-L21F2-L24F2">
								<polygon points="7274,384 8315,281 8315,371 7274,474 " />
								<polygon points="7274,519 8315,416 8315,506 7274,609 " />
								<g class="note" id="note-L21F2">
									<use xlink:href="#E0A4" x="7066" y="1440" height="720px" width="720px" />
									<g class="stem">
										<rect x="7274" y="402" height="1016" width="18" />
									</g>
									<g class="accid" id="accid-0000000437443948">
										<use xlink:href="#E260" x="6870" y="1440" height="720px" width="720px" />
									</g>
								</g>
								<g class="note" id="note-L22F2">
									<use xlink:href="#E0A4" x="7407" y="1260" height="720px" width="720px" />
									<g class="stem">
										<rect x="7615" y="368" height="870" width="18" />
									</g>
									<g class="accid" id="accid-0000000765651429" />
								</g>
								<g class="note" id="note-L23F2">
									<use xlink:href="#E0A4" x="7748" y="990" height="720px" width="720px" />
									<g class="stem">
										<rect x="7956" y="334" height="634" width="18" />
									</g>
									<g class="accid" id="accid-0000000986370356" />
								</g>
								<g class="note" id="note-L24F2">
									<use xlink:href="#E0A4" x="8089" y="1260" height="720px" width="720px" />
									<g class="stem">
										<rect x="8297" y="299" height="939" width="18" />
									</g>
									<g class="accid" id="accid-0000001971878466" />
								</g>
							</g>
							<g class="beam" id="beam-L25F2-L27F2">
								<polygon points="8638,565 9694,465 9694,555 8638,655 " />
								<polygon points="9133,653 9694,600 9694,690 9133,743 " />
								<g class="note" id="note-L25F2">
									<use xlink:href="#E0A4" x="8430" y="1260" height="720px" width="720px" />
									<g class="stem">
										<rect x="8638" y="583" height="655" width="18" />
									</g>
									<g class="accid" id="accid-0000001355873657" />
								</g>
								<g class="note" id="note-L26F2">
									<use xlink:href="#E0A4" x="8916" y="1440" height="720px" width="720px" />
									<g class="stem">
										<rect x="9124" y="536" height="882" width="18" />
									</g>
									<g class="accid" id="accid-0000001811114806" />
								</g>
								<g class="note" id="note-L27F2">
									<use xlink:href="#E0A4" x="9468" y="1170" height="720px" width="720px" />
									<g class="stem">
										<rect x="9676" y="483" height="665" width="18" />
									</g>
									<g class="accid" id="accid-0000001405699049">
										<use xlink:href="#E260" x="9272" y="1170" height="720px" width="720px" />
									</g>
								</g>
							</g>
						</g>
					</g>
					<g class="staff" id="staff-L20F1N1">
						<path d="M6660 2176 L9838 2176" stroke="#000000" stroke-width="13" />
						<path d="M6660 2356 L9838 2356" stroke="#000000" stroke-width="13" />
						<path d="M6660 2536 L9838 2536" stroke="#000000" stroke-width="13" />
						<path d="M6660 2716 L9838 2716" stroke="#000000" stroke-width="13" />
						<path d="M6660 2896 L9838 2896" stroke="#000000" stroke-width="13" />
						<g class="layer" id="layer-L20F1N1">
							<g class="beam" id="beam-L21F1-L24F1">
								<polygon points="7066,3301 8107,3198 8107,3108 7066,3211 " />
								<polygon points="7066,3166 7224,3151 7224,3061 7066,3076 " />
								<polygon points="7949,3078 8107,3063 8107,2973 7949,2988 " />
								<g class="note" id="note-L21F1">
									<use xlink:href="#E0A4" x="7066" y="2626" height="720px" width="720px" />
									<g class="stem">
										<rect x="7066" y="2648" height="635" width="18" />
									</g>
									<g class="accid" id="accid-0000002080146064" />
								</g>
								<g class="note" id="note-L22F1">
									<use xlink:href="#E0A4" x="7407" y="2536" height="720px" width="720px" />
									<g class="stem">
										<rect x="7407" y="2558" height="690" width="18" />
									</g>
									<g class="accid" id="accid-0000000586849572" />
								</g>
								<g class="note" id="note-L24F1">
									<use xlink:href="#E0A4" x="8089" y="2446" height="720px" width="720px" />
									<g class="stem">
										<rect x="8089" y="2468" height="712" width="18" />
									</g>
									<g class="accid" id="accid-0000001446639010">
										<use xlink:href="#E260" x="7893" y="2446" height="720px" width="720px" />
									</g>
								</g>
							</g>
							<g class="beam" id="beam-L25F1-L27F1">
								<polygon points="8430,3346 9486,3250 9486,3160 8430,3256 " />
								<polygon points="8925,3166 9486,3115 9486,3025 8925,3076 " />
								<g class="note" id="note-L25F1">
									<use xlink:href="#E0A4" x="8430" y="2536" height="720px" width="720px" />
									<g class="stem">
										<rect x="8430" y="2558" height="770" width="18" />
									</g>
									<g class="accid" id="accid-0000000538919385" />
								</g>
								<g class="note" id="note-L26F1">
									<use xlink:href="#E0A4" x="8916" y="2626" height="720px" width="720px" />
									<g class="stem">
										<rect x="8916" y="2648" height="635" width="18" />
									</g>
									<g class="accid" id="accid-0000001912066704" />
								</g>
								<g class="note" id="note-L27F1">
									<use xlink:href="#E0A4" x="9468" y="2446" height="720px" width="720px" />
									<g class="stem">
										<rect x="9468" y="2468" height="764" width="18" />
									</g>
									<g class="accid" id="accid-0000000056595121" />
								</g>
							</g>
						</g>
					</g>
					<g class="tie" id="tie-L24F2-L25F2">
						<path d="M8202,1395 C8287,1493 8457,1493 8543,1395 C8457,1537 8287,1537 8202,1395" stroke="#000000" stroke-linecap="round" stroke-linejoin="round" stroke-width="9" />
					</g>
					<g class="mNum autogenerated" id="mnum-0000001969665633" />
					<g class="barLineAttr" id="bline-0000000107494497">
						<path d="M9825 2896 L9825 720" stroke="#000000" stroke-width="27" />
					</g>
				</g>
				<g class="measure" id="measure-L28">
					<g class="staff" id="staff-L28F2N1">
						<path d="M9838 720 L12804 720" stroke="#000000" stroke-width="13" />
						<path d="M9838 900 L12804 900" stroke="#000000" stroke-width="13" />
						<path d="M9838 1080 L12804 1080" stroke="#000000" stroke-width="13" />
						<path d="M9838 1260 L12804 1260" stroke="#000000" stroke-width="13" />
						<path d="M9838 1440 L12804 1440" stroke="#000000" stroke-width="13" />
						<g class="layer" id="layer-L28F2N1">
							<g class="beam" id="beam-L29F2-L32F2">
								<polygon points="10033,1935 11285,1811 11285,1721 10033,1845 " />
								<polygon points="10033,1800 11285,1676 11285,1586 10033,1710 " />
								<g class="note" id="note-L29F2">
									<use xlink:href="#E0A4" x="10033" y="1260" height="720px" width="720px" />
									<g class="stem">
										<rect x="10033" y="1282" height="635" width="18" />
									</g>
									<g class="accid" id="accid-0000001512263878" />
								</g>
								<g class="note" id="note-L30F2">
									<use xlink:href="#E0A4" x="10374" y="990" height="720px" width="720px" />
									<g class="stem">
										<rect x="10374" y="1012" height="870" width="18" />
									</g>
									<g class="accid" id="accid-0000001290480907" />
								</g>
								<g class="note" id="note-L31F2">
									<use xlink:href="#E0A4" x="10926" y="1080" height="720px" width="720px" />
									<g class="stem">
										<rect x="10926" y="1102" height="725" width="18" />
									</g>
									<g class="accid" id="accid-0000000317327255">
										<use xlink:href="#E260" x="10730" y="1080" height="720px" width="720px" />
									</g>
								</g>
								<g class="note" id="note-L32F2">
									<use xlink:href="#E0A4" x="11267" y="990" height="720px" width="720px" />
									<g class="stem">
										<rect x="11267" y="1012" height="781" width="18" />
									</g>
									<g class="accid" id="accid-0000000515916820" />
								</g>
							</g>
							<g class="beam" id="beam-L33F2-L35F2">
								<polygon points="11816,316 12661,399 12661,489 11816,406 " />
								<polygon points="12311,500 12661,534 12661,624 12311,590 " />
								<g class="note" id="note-L33F2">
									<use xlink:href="#E0A4" x="11608" y="990" height="720px" width="720px" />
									<g class="stem">
										<rect x="11816" y="334" height="634" width="18" />
									</g>
									<g class="accid" id="accid-0000000004159595" />
								</g>
								<g class="note" id="note-L34F2">
									<use xlink:href="#E0A4" x="12094" y="1260" height="720px" width="720px" />
									<g class="stem">
										<rect x="12302" y="383" height="855" width="18" />
									</g>
									<g class="accid" id="accid-0000001988293634" />
								</g>
								<g class="note" id="note-L35F2">
									<use xlink:href="#E0A4" x="12435" y="1350" height="720px" width="720px" />
									<g class="stem">
										<rect x="12643" y="417" height="911" width="18" />
									</g>
									<g class="accid" id="accid-0000001708319204" />
								</g>
							</g>
						</g>
					</g>
					<g class="staff" id="staff-L28F1N1">
						<path d="M9838 2176 L12804 2176" stroke="#000000" stroke-width="13" />
						<path d="M9838 2356 L12804 2356" stroke="#000000" stroke-width="13" />
						<path d="M9838 2536 L12804 2536" stroke="#000000" stroke-width="13" />
						<path d="M9838 2716 L12804 2716" stroke="#000000" stroke-width="13" />
						<path d="M9838 2896 L12804 2896" stroke="#000000" stroke-width="13" />
						<g class="layer" id="layer-L28F1N1">
							<g class="beam" id="beam-L29F1-L32F1">
								<polygon points="10033,3301 11285,3208 11285,3118 10033,3211 " />
								<polygon points="10033,3166 10191,3155 10191,3065 10033,3076 " />
								<polygon points="11127,3084 11285,3073 11285,2983 11127,2994 " />
								<g class="note" id="note-L29F1">
									<use xlink:href="#E0A4" x="10033" y="2626" height="720px" width="720px" />
									<g class="stem">
										<rect x="10033" y="2648" height="635" width="18" />
									</g>
									<g class="accid" id="accid-0000002004108926" />
								</g>
								<g class="note" id="note-L30F1">
									<use xlink:href="#E0A4" x="10374" y="2266" height="720px" width="720px" />
									<g class="stem">
										<rect x="10374" y="2288" height="969" width="18" />
									</g>
									<g class="accid" id="accid-0000000695819989" />
								</g>
								<g class="note" id="note-L32F1">
									<use xlink:href="#E0A4" x="11267" y="2446" height="720px" width="720px" />
									<g class="stem">
										<rect x="11267" y="2468" height="722" width="18" />
									</g>
									<g class="accid" id="accid-0000000641801827">
										<use xlink:href="#E260" x="11071" y="2446" height="720px" width="720px" />
									</g>
								</g>
							</g>
							<g class="beam" id="beam-L33F1-L35F1">
								<polygon points="11608,3227 12453,3301 12453,3211 11608,3137 " />
								<polygon points="12103,3135 12453,3166 12453,3076 12103,3045 " />
								<g class="note" id="note-L33F1">
									<use xlink:href="#E0A4" x="11608" y="2536" height="720px" width="720px" />
									<g class="stem">
										<rect x="11608" y="2558" height="651" width="18" />
									</g>
									<g class="accid" id="accid-0000000592052599" />
								</g>
								<g class="note" id="note-L34F1">
									<use xlink:href="#E0A4" x="12094" y="2446" height="720px" width="720px" />
									<g class="stem">
										<rect x="12094" y="2468" height="784" width="18" />
									</g>
									<g class="accid" id="accid-0000000723429168" />
								</g>
								<g class="note" id="note-L35F1">
									<use xlink:href="#E0A4" x="12435" y="2626" height="720px" width="720px" />
									<g class="stem">
										<rect x="12435" y="2648" height="635" width="18" />
									</g>
									<g class="accid" id="accid-0000001367884848" />
								</g>
							</g>
						</g>
					</g>
					<g class="tie" id="tie-L32F2-L33F2">
						<path d="M11380,855 C11465,713 11635,713 11721,855 C11635,757 11465,757 11380,855" stroke="#000000" stroke-linecap="round" stroke-linejoin="round" stroke-width="9" />
					</g>
					<g class="mNum autogenerated" id="mnum-0000001602944997" />
					<g class="barLineAttr" id="bline-0000001167396910">
						<path d="M12791 2896 L12791 720" stroke="#000000" stroke-width="27" />
					</g>
				</g>
				<g class="measure" id="measure-L36">
					<g class="staff" id="staff-L36F2N1">
						<path d="M12804 720 L16405 720" stroke="#000000" stroke-width="13" />
						<path d="M12804 900 L16405 900" stroke="#000000" stroke-width="13" />
						<path d="M12804 1080 L16405 1080" stroke="#000000" stroke-width="13" />
						<path d="M12804 1260 L16405 1260" stroke="#000000" stroke-width="13" />
						<path d="M12804 1440 L16405 1440" stroke="#000000" stroke-width="13" />
						<g class="ledgerLines below">
							<path d="M14284 1620 L14563 1620" stroke="#000000" stroke-width="22" />
						</g>
						<g class="layer" id="layer-L36F2N1">
							<g class="beam" id="beam-L37F2-L40F2">
								<polygon points="13418,524 14882,451 14882,541 13418,614 " />
								<polygon points="13418,659 14882,586 14882,676 13418,749 " />
								<g class="note" id="note-L37F2">
									<use xlink:href="#E0A4" x="13210" y="1440" height="720px" width="720px" />
									<g class="stem">
										<rect x="13418" y="542" height="876" width="18" />
									</g>
									<g class="accid" id="accid-0000001131105056">
										<use xlink:href="#E260" x="13014" y="1440" height="720px" width="720px" />
									</g>
								</g>
								<g class="note" id="note-L38F2">
									<use xlink:href="#E0A4" x="13763" y="1170" height="720px" width="720px" />
									<g class="stem">
										<rect x="13971" y="514" height="634" width="18" />
									</g>
									<g class="accid" id="accid-0000000480590065">
										<use xlink:href="#E260" x="13567" y="1170" height="720px" width="720px" />
									</g>
								</g>
								<g class="note" id="note-L39F2">
									<use xlink:href="#E0A4" x="14315" y="1620" height="720px" width="720px" />
									<g class="stem">
										<rect x="14523" y="486" height="1112" width="18" />
									</g>
									<g class="accid" id="accid-0000000330026347">
										<use xlink:href="#E260" x="14119" y="1620" height="720px" width="720px" />
									</g>
								</g>
								<g class="note" id="note-L40F2">
									<use xlink:href="#E0A4" x="14656" y="1170" height="720px" width="720px" />
									<g class="stem">
										<rect x="14864" y="469" height="679" width="18" />
									</g>
									<g class="accid" id="accid-0000001531905458" />
								</g>
							</g>
							<g class="beam" id="beam-L41F2-L43F2">
								<polygon points="15205,474 16262,371 16262,461 15205,564 " />
								<polygon points="15700,561 16262,506 16262,596 15700,651 " />
								<g class="note" id="note-L41F2">
									<use xlink:href="#E0A4" x="14997" y="1170" height="720px" width="720px" />
									<g class="stem">
										<rect x="15205" y="492" height="656" width="18" />
									</g>
									<g class="accid" id="accid-0000000353089135" />
								</g>
								<g class="note" id="note-L42F2">
									<use xlink:href="#E0A4" x="15483" y="1440" height="720px" width="720px" />
									<g class="stem">
										<rect x="15691" y="444" height="974" width="18" />
									</g>
									<g class="accid" id="accid-0000001793758354" />
								</g>
								<g class="note" id="note-L43F2">
									<use xlink:href="#E0A4" x="16036" y="1080" height="720px" width="720px" />
									<g class="stem">
										<rect x="16244" y="389" height="669" width="18" />
									</g>
									<g class="accid" id="accid-0000000748369264">
										<use xlink:href="#E260" x="15840" y="1080" height="720px" width="720px" />
									</g>
								</g>
							</g>
						</g>
					</g>
					<g class="staff" id="staff-L36F1N1">
						<path d="M12804 2176 L16405 2176" stroke="#000000" stroke-width="13" />
						<path d="M12804 2356 L16405 2356" stroke="#000000" stroke-width="13" />
						<path d="M12804 2536 L16405 2536" stroke="#000000" stroke-width="13" />
						<path d="M12804 2716 L16405 2716" stroke="#000000" stroke-width="13" />
						<path d="M12804 2896 L16405 2896" stroke="#000000" stroke-width="13" />
						<g class="layer" id="layer-L36F1N1">
							<g class="beam" id="beam-L37F1-L40F1">
								<polygon points="13418,2007 14882,1862 14882,1952 13418,2097 " />
								<polygon points="13418,2142 13576,2127 13576,2217 13418,2232 " />
								<polygon points="14724,2012 14882,1997 14882,2087 14724,2102 " />
								<g class="note" id="note-L37F1">
									<use xlink:href="#E0A4" x="13210" y="2716" height="720px" width="720px" />
									<g class="stem">
										<rect x="13418" y="2025" height="669" width="18" />
									</g>
									<g class="accid" id="accid-0000000741866145" />
								</g>
								<g class="note" id="note-L38F1">
									<use xlink:href="#E0A4" x="13763" y="2626" height="720px" width="720px" />
									<g class="stem">
										<rect x="13971" y="1969" height="635" width="18" />
									</g>
									<g class="accid" id="accid-0000001742892248">
										<use xlink:href="#E262" x="13568" y="2626" height="720px" width="720px" />
									</g>
								</g>
								<g class="note" id="note-L40F1">
									<use xlink:href="#E0A4" x="14656" y="2536" height="720px" width="720px" />
									<g class="stem">
										<rect x="14864" y="1880" height="634" width="18" />
									</g>
									<g class="accid" id="accid-0000000587961175">
										<use xlink:href="#E262" x="14461" y="2536" height="720px" width="720px" />
									</g>
								</g>
							</g>
							<g class="beam" id="beam-L41F1-L43F1">
								<polygon points="15205,1932 16262,1836 16262,1926 15205,2022 " />
								<polygon points="15700,2022 16262,1971 16262,2061 15700,2112 " />
								<g class="note" id="note-L41F1">
									<use xlink:href="#E0A4" x="14997" y="2626" height="720px" width="720px" />
									<g class="stem">
										<rect x="15205" y="1950" height="654" width="18" />
									</g>
									<g class="accid" id="accid-0000000159011104" />
								</g>
								<g class="note" id="note-L42F1">
									<use xlink:href="#E0A4" x="15483" y="2716" height="720px" width="720px" />
									<g class="stem">
										<rect x="15691" y="1905" height="789" width="18" />
									</g>
									<g class="accid" id="accid-0000001954989600" />
								</g>
								<g class="note" id="note-L43F1">
									<use xlink:href="#E0A4" x="16036" y="2536" height="720px" width="720px" />
									<g class="stem">
										<rect x="16244" y="1854" height="660" width="18" />
									</g>
									<g class="accid" id="accid-0000001775739871" />
								</g>
							</g>
						</g>
					</g>
					<g class="tie" id="tie-L40F2-L41F2">
						<path d="M14769,1305 C14854,1403 15024,1403 15110,1305 C15024,1447 14854,1447 14769,1305" stroke="#000000" stroke-linecap="round" stroke-linejoin="round" stroke-width="9" />
					</g>
					<g class="mNum autogenerated" id="mnum-0000000903090420" />
					<g class="barLineAttr" id="bline-0000001912761129">
						<path d="M16392 2896 L16392 720" stroke="#000000" stroke-width="27" />
					</g>
				</g>
				<g class="measure" id="measure-L44">
					<g class="staff" id="staff-L44F2N1">
						<path d="M16405 720 L20005 720" stroke="#000000" stroke-width="13" />
						<path d="M16405 900 L20005 900" stroke="#000000" stroke-width="13" />
						<path d="M16405 1080 L20005 1080" stroke="#000000" stroke-width="13" />
						<path d="M16405 1260 L20005 1260" stroke="#000000" stroke-width="13" />
						<path d="M16405 1440 L20005 1440" stroke="#000000" stroke-width="13" />
						<g class="ledgerLines below">
							<path d="M17333 1620 L17612 1620" stroke="#000000" stroke-width="22" />
							<path d="M18015 1620 L18294 1620" stroke="#000000" stroke-width="22" />
							<path d="M18566 1620 L18845 1620" stroke="#000000" stroke-width="22" />
						</g>
						<g class="layer" id="layer-L44F2N1">
							<g class="beam" id="beam-L45F2-L48F2">
								<polygon points="17019,496 18272,620 18272,710 17019,586 " />
								<polygon points="17019,631 18272,755 18272,845 17019,721 " />
								<g class="note" id="note-L45F2">
									<use xlink:href="#E0A4" x="16811" y="1170" height="720px" width="720px" />
									<g class="stem">
										<rect x="17019" y="514" height="634" width="18" />
									</g>
									<g class="accid" id="accid-0000001970132145">
										<use xlink:href="#E260" x="16615" y="1170" height="720px" width="720px" />
									</g>
								</g>
								<g class="note" id="note-L46F2">
									<use xlink:href="#E0A4" x="17364" y="1620" height="720px" width="720px" />
									<g class="stem">
										<rect x="17572" y="570" height="1028" width="18" />
									</g>
									<g class="accid" id="accid-0000001509791977">
										<use xlink:href="#E260" x="17168" y="1620" height="720px" width="720px" />
									</g>
								</g>
								<g class="note" id="note-L47F2">
									<use xlink:href="#E0A4" x="17705" y="1350" height="720px" width="720px" />
									<g class="stem">
										<rect x="17913" y="604" height="724" width="18" />
									</g>
									<g class="accid" id="accid-0000000452857314" />
								</g>
								<g class="note" id="note-L48F2">
									<use xlink:href="#E0A4" x="18046" y="1620" height="720px" width="720px" />
									<g class="stem">
										<rect x="18254" y="638" height="960" width="18" />
									</g>
									<g class="accid" id="accid-0000000919155883" />
								</g>
							</g>
							<g class="beam" id="beam-L49F2-L51F2">
								<polygon points="18805,545 19861,441 19861,531 18805,635 " />
								<polygon points="19300,631 19861,576 19861,666 19300,721 " />
								<g class="note" id="note-L49F2">
									<use xlink:href="#E0A4" x="18597" y="1620" height="720px" width="720px" />
									<g class="stem">
										<rect x="18805" y="563" height="1035" width="18" />
									</g>
									<g class="accid" id="accid-0000000261295640" />
								</g>
								<g class="note" id="note-L50F2">
									<use xlink:href="#E0A4" x="19083" y="1170" height="720px" width="720px" />
									<g class="stem">
										<rect x="19291" y="514" height="634" width="18" />
									</g>
									<g class="accid" id="accid-0000001153312610" />
								</g>
								<g class="note" id="note-L51F2">
									<use xlink:href="#E0A4" x="19635" y="1260" height="720px" width="720px" />
									<g class="stem">
										<rect x="19843" y="459" height="779" width="18" />
									</g>
									<g class="accid" id="accid-0000001625692607">
										<use xlink:href="#E260" x="19439" y="1260" height="720px" width="720px" />
									</g>
								</g>
							</g>
						</g>
					</g>
					<g class="staff" id="staff-L44F1N1">
						<path d="M16405 2176 L20005 2176" stroke="#000000" stroke-width="13" />
						<path d="M16405 2356 L20005 2356" stroke="#000000" stroke-width="13" />
						<path d="M16405 2536 L20005 2536" stroke="#000000" stroke-width="13" />
						<path d="M16405 2716 L20005 2716" stroke="#000000" stroke-width="13" />
						<path d="M16405 2896 L20005 2896" stroke="#000000" stroke-width="13" />
						<g class="layer" id="layer-L44F1N1">
							<g class="beam" id="beam-L45F1-L48F1">
								<polygon points="16811,3391 18064,3267 18064,3177 16811,3301 " />
								<polygon points="16811,3256 16969,3241 16969,3151 16811,3166 " />
								<polygon points="17906,3147 18064,3132 18064,3042 17906,3057 " />
								<g class="note" id="note-L45F1">
									<use xlink:href="#E0A4" x="16811" y="2716" height="720px" width="720px" />
									<g class="stem">
										<rect x="16811" y="2738" height="635" width="18" />
									</g>
									<g class="accid" id="accid-0000000242187437" />
								</g>
								<g class="note" id="note-L46F1">
									<use xlink:href="#E0A4" x="17364" y="2356" height="720px" width="720px" />
									<g class="stem">
										<rect x="17364" y="2378" height="939" width="18" />
									</g>
									<g class="accid" id="accid-0000001672980860">
										<use xlink:href="#E262" x="17169" y="2356" height="720px" width="720px" />
									</g>
								</g>
								<g class="note" id="note-L48F1">
									<use xlink:href="#E0A4" x="18046" y="2536" height="720px" width="720px" />
									<g class="stem">
										<rect x="18046" y="2558" height="691" width="18" />
									</g>
									<g class="accid" id="accid-0000001997701093">
										<use xlink:href="#E262" x="17851" y="2536" height="720px" width="720px" />
									</g>
								</g>
							</g>
							<g class="beam" id="beam-L49F1-L51F1">
								<polygon points="18805,1817 19861,1913 19861,2003 18805,1907 " />
								<polygon points="19300,1997 19861,2048 19861,2138 19300,2087 " />
								<g class="note" id="note-L49F1">
									<use xlink:href="#E0A4" x="18597" y="2626" height="720px" width="720px" />
									<g class="stem">
										<rect x="18805" y="1835" height="769" width="18" />
									</g>
									<g class="accid" id="accid-0000000055050823">
										<use xlink:href="#E262" x="18402" y="2626" height="720px" width="720px" />
									</g>
								</g>
								<g class="note" id="note-L50F1">
									<use xlink:href="#E0A4" x="19083" y="2536" height="720px" width="720px" />
									<g class="stem">
										<rect x="19291" y="1880" height="634" width="18" />
									</g>
									<g class="accid" id="accid-0000001058453766" />
								</g>
								<g class="note" id="note-L51F1">
									<use xlink:href="#E0A4" x="19635" y="2716" height="720px" width="720px" />
									<g class="stem">
										<rect x="19843" y="1931" height="763" width="18" />
									</g>
									<g class="accid" id="accid-0000000497023185" />
								</g>
							</g>
						</g>
					</g>
					<g class="tie" id="tie-L48F2-L49F2">
						<path d="M18294,1665 C18364,1763 18504,1763 18575,1665 C18504,1807 18364,1807 18294,1665" stroke="#000000" stroke-linecap="round" stroke-linejoin="round" stroke-width="9" />
					</g>
					<g class="mNum autogenerated" id="mnum-0000000730322728" />
					<g class="barLineAttr" id="bline-0000000993386565">
						<path d="M19992 2896 L19992 720" stroke="#000000" stroke-width="27" />
					</g>
				</g>
			</g>
		</g>
	</svg>
</svg>
