<?xml version="1.0" encoding="UTF-8" standalone="no"?>
<svg width="2100.00px" height="450.00px" version="1.1" xmlns="http://www.w3.org/2000/svg" xmlns:xlink="http://www.w3.org/1999/xlink" overflow="visible">
	<desc>Engraved by Verovio 2.0.0-dev-0f0381c</desc>
	<defs>
		<symbol id="E050" viewBox="0 0 1000 1000" overflow="inherit">
			<path transform="scale(1,-1)" d="M441 -245c-23 -4 -48 -6 -76 -6c-59 0 -102 7 -130 20c-88 42 -150 93 -187 154c-26 44 -43 103 -48 176c-4 60 11 123 44 189c29 57 65 106 110 148s96 85 153 127c-3 16 -8 46 -13 92c-4 43 -5 73 -5 89c0 117 16 172 69 257c34 54 64 82 89 82c21 0 43 -30 69 -92 s39 -115 41 -159c2 -120 -19 -173 -67 -256c-13 -20 -63 -90 -98 -118c-13 -9 -25 -19 -37 -29l31 -181c8 1 18 2 28 2c58 0 102 -12 133 -35c59 -43 92 -104 98 -184c11 -135 -80 -229 -180 -270c8 -57 17 -110 25 -162c5 -31 6 -58 6 -80c0 -30 -5 -53 -14 -70 c-35 -64 -88 -99 -158 -103c-42 -3 -83 6 -124 26c-50 24 -77 59 -80 105c-2 34 5 63 20 87c18 28 45 42 79 44c51 4 99 -40 103 -87c4 -56 -30 -94 -105 -115c17 -24 51 -36 102 -36c62 0 116 43 140 85c9 16 13 41 13 74c0 20 -1 42 -5 67c-8 53 -18 106 -26 159zM461 939 c-95 0 -135 -175 -135 -286c0 -24 2 -48 5 -71c50 39 92 82 127 128c43 57 63 106 60 148c-4 54 -23 82 -57 81zM406 119l54 -326c80 27 116 88 109 184c-7 99 -62 146 -163 142zM382 117c-74 -2 -132 -50 -128 -127c2 -46 43 -99 75 -115c-3 -2 -7 -5 -10 -10 c-70 33 -116 88 -123 172c-5 73 42 135 88 170c23 17 49 29 78 36l-29 170c-21 -13 -52 -37 -92 -73c-50 -44 -86 -84 -109 -119c-49 -75 -71 -140 -67 -195c5 -68 35 -127 93 -176s125 -73 203 -73c25 0 50 3 75 9c-19 111 -36 221 -54 331z" />
		</symbol>
		<symbol id="E082" viewBox="0 0 1000 1000" overflow="inherit">
			<path transform="scale(1,-1)" d="M104 -185c-18 0 -55 -14 -65 -65h-36l-3 29c0 25 6 46 18 64c11 19 22 30 39 43l121 82l37 29c15 11 27 29 38 54c12 24 18 47 18 70c0 40 -19 88 -94 88c-25 0 -32 0 -50 -8c-14 -5 -23 -12 -26 -22c3 -9 7 -15 10 -18l24 -17c12 -7 17 -11 27 -21c5 -7 7 -16 7 -27 c0 -12 0 -57 -79 -74c-30 0 -76 26 -76 94c0 66 80 135 196 135c72 0 182 -32 182 -150c0 -53 -32 -95 -113 -133l-91 -41c-26 -11 -45 -23 -57 -37l49 7c84 0 115 -41 148 -41c20 0 33 20 39 61h35c0 -152 -68 -168 -114 -168c-17 0 -55 0 -69 7v0l-28 17 c-49 37 -69 40 -87 42z" />
		</symbol>
		<symbol id="E084" viewBox="0 0 1000 1000" overflow="inherit">
			<path transform="scale(1,-1)" d="M0 -78c84 97 114 180 134 329h170c-13 -32 -82 -132 -99 -151l-84 -97c-33 -36 -59 -63 -80 -81h162v102l127 123v-225h57v-39h-57v-34c0 -43 19 -65 57 -65v-34h-244v36c48 0 60 26 60 70v27h-203v39z" />
		</symbol>
		<symbol id="E0A4" viewBox="0 0 1000 1000" overflow="inherit">
			<path transform="scale(1,-1)" d="M0 -39c0 68 73 172 200 172c66 0 114 -37 114 -95c0 -84 -106 -171 -218 -171c-64 0 -96 30 -96 94z" />
		</symbol>
		<symbol id="E062" viewBox="0 0 1000 1000" overflow="inherit">
			<path transform="scale(1,-1)" d="M158 96c51 0 73 -14 88 -49l16 -39c0 -17 -2 -30 -7 -40c-3 -11 -10 -21 -19 -31c-17 -18 -49 -43 -84 -43c-55 0 -77 13 -112 44c-24 21 -35 55 -35 100c0 46 14 81 32 112c30 52 71 79 137 93l36 6l26 2c154 0 235 -68 274 -182c11 -32 18 -68 18 -107 c0 -103 -26 -182 -68 -250c-89 -145 -234 -230 -412 -288l-30 -5c-9 0 -14 3 -14 8c3 10 5 11 10 16c35 15 70 30 96 44l78 43c96 57 162 136 197 258c9 33 17 60 22 100c3 22 5 35 6 39c-7 69 -16 115 -23 140s-4 22 -16 40c-8 12 -19 23 -31 34c-24 21 -62 44 -118 44 c-48 0 -84 -8 -113 -28c-28 -19 -42 -44 -42 -73v-16c2 -5 3 -9 4 -11c24 22 52 39 84 39zM585 -118c0 32 23 58 57 58c18 0 33 -6 40 -18c9 -15 16 -18 16 -40c0 -9 -2 -16 -5 -21c-6 -19 -27 -37 -51 -37c-34 0 -57 26 -57 58zM642 177c31 0 56 -27 56 -58 c0 -30 -25 -58 -56 -58l-23 3c-19 7 -34 32 -34 55l3 23c9 20 28 35 54 35z" />
		</symbol>
		<symbol id="E260" viewBox="0 0 1000 1000" overflow="inherit">
			<path transform="scale(1,-1)" d="M20 110c32 16 54 27 93 27c26 0 35 -3 54 -13c13 -7 24 -20 27 -38l4 -25c0 -28 -16 -57 -45 -89c-23 -25 -39 -44 -65 -68l-88 -79v644h20v-359zM90 106c-32 0 -48 -10 -70 -29v-194c31 31 54 59 71 84c21 32 32 59 32 84c0 9 1 16 1 20c0 14 -3 21 -11 30l-8 3z" />
		</symbol>
		<symbol id="E262" viewBox="0 0 1000 1000" overflow="inherit">
			<path transform="scale(1,-1)" d="M136 186v169h17v-164l44 14v-91l-44 -14v-165l44 12v-91l-44 -13v-155h-17v150l-76 -22v-155h-17v149l-43 -13v90l43 14v167l-43 -14v92l43 13v169h17v-163zM60 73v-167l76 22v168z" />
		</symbol>
	</defs>
	<style type="text/css">g.page-margin{font-family:Times;} g.tempo{font-weight:bold;} g.dir, g.dynam, g.mNum{font-style:italic;} g.label{font-weight:normal;}</style>
	<svg class="definition-scale" viewBox="0 0 21000 4500">
		<g class="page-margin" transform="translate(500, 500)">
			<g class="system" id="system-0000001692519982">
				<path d="M13 720 L13 2880" stroke="#000000" stroke-width="27" />
				<path d="M-32,2862 C-392,2322 58,1980 -212,1800 C121,1980 -329,2322 -32,2862" stroke="#000000" stroke-linecap="round" stroke-linejoin="round" stroke-width="18" />
				<path d="M-32,738 C-329,1278 121,1620 -212,1800 C58,1620 -392,1278 -32,738" stroke="#000000" stroke-linecap="round" stroke-linejoin="round" stroke-width="18" />
				<g class="section boundaryStart" id="section-L1F1" />
				<g class="measure" id="measure-L4">
					<g class="staff" id="staff-L4F2N1">
						<path d="M0 720 L4365 720" stroke="#000000" stroke-width="13" />
						<path d="M0 900 L4365 900" stroke="#000000" stroke-width="13" />
						<path d="M0 1080 L4365 1080" stroke="#000000" stroke-width="13" />
						<path d="M0 1260 L4365 1260" stroke="#000000" stroke-width="13" />
						<path d="M0 1440 L4365 1440" stroke="#000000" stroke-width="13" />
						<g class="clef" id="clef-0000000923877111">
							<use xlink:href="#E050" x="90" y="1260" height="720px" width="720px" />
						</g>
						<g class="meterSig" id="msig-0000001295836767">
							<use xlink:href="#E082" x="771" y="900" height="720px" width="720px" />
							<use xlink:href="#E084" x="777" y="1260" height="720px" width="720px" />
						</g>
						<g class="layer" id="layer-L4F2N1">
							<g class="beam" id="beam-L5F2-L8F2">
								<polygon points="1571,427 2692,316 2692,406 1571,517 " />
								<polygon points="2309,489 2692,451 2692,541 2309,579 " />
								<g class="note" id="note-L5F2">
									<use xlink:href="#E0A4" x="1363" y="1440" height="720px" width="720px" />
									<g class="stem">
										<rect x="1571" y="445" height="973" width="18" />
									</g>
									<g class="accid" id="accid-0000001286749602" />
								</g>
								<g class="note" id="note-L7F2">
									<use xlink:href="#E0A4" x="2092" y="1170" height="720px" width="720px" />
									<g class="stem">
										<rect x="2300" y="372" height="776" width="18" />
									</g>
									<g class="accid" id="accid-0000001162174086" />
								</g>
								<g class="note" id="note-L8F2">
									<use xlink:href="#E0A4" x="2466" y="990" height="720px" width="720px" />
									<g class="stem">
										<rect x="2674" y="334" height="634" width="18" />
									</g>
									<g class="accid" id="accid-0000001524167638" />
								</g>
							</g>
							<g class="beam" id="beam-L9F2-L11F2">
								<polygon points="2840,1845 3605,1770 3605,1680 2840,1755 " />
								<polygon points="2840,1710 3223,1672 3223,1582 2840,1620 " />
								<g class="note" id="note-L9F2">
									<use xlink:href="#E0A4" x="2840" y="1170" height="720px" width="720px" />
									<g class="stem">
										<rect x="2840" y="1192" height="635" width="18" />
									</g>
									<g class="accid" id="accid-0000000408521761" />
								</g>
								<g class="note" id="note-L10F2">
									<use xlink:href="#E0A4" x="3214" y="1080" height="720px" width="720px" />
									<g class="stem">
										<rect x="3214" y="1102" height="687" width="18" />
									</g>
									<g class="accid" id="accid-0000001825986433" />
								</g>
								<g class="note" id="note-L11F2">
									<use xlink:href="#E0A4" x="3587" y="990" height="720px" width="720px" />
									<g class="stem">
										<rect x="3587" y="1012" height="740" width="18" />
									</g>
									<g class="accid" id="accid-0000001237487065" />
								</g>
							</g>
						</g>
					</g>
					<g class="staff" id="staff-L4F1N1">
						<path d="M0 2160 L4365 2160" stroke="#000000" stroke-width="13" />
						<path d="M0 2340 L4365 2340" stroke="#000000" stroke-width="13" />
						<path d="M0 2520 L4365 2520" stroke="#000000" stroke-width="13" />
						<path d="M0 2700 L4365 2700" stroke="#000000" stroke-width="13" />
						<path d="M0 2880 L4365 2880" stroke="#000000" stroke-width="13" />
						<g class="clef" id="clef-0000001496878742">
							<use xlink:href="#E062" x="90" y="2340" height="720px" width="720px" />
						</g>
						<g class="meterSig" id="msig-0000000270092189">
							<use xlink:href="#E082" x="771" y="2340" height="720px" width="720px" />
							<use xlink:href="#E084" x="777" y="2700" height="720px" width="720px" />
						</g>
						<g class="layer" id="layer-L4F1N1">
							<g class="beam" id="beam-L5F1-L8F1">
								<polygon points="1363,3285 2484,3174 2484,3084 1363,3195 " />
								<polygon points="1363,3150 1521,3135 1521,3045 1363,3060 " />
								<polygon points="2326,3054 2484,3039 2484,2949 2326,2964 " />
								<g class="note" id="note-L5F1">
									<use xlink:href="#E0A4" x="1363" y="2610" height="720px" width="720px" />
									<g class="stem">
										<rect x="1363" y="2632" height="635" width="18" />
									</g>
									<g class="accid" id="accid-0000002047289542" />
								</g>
								<g class="note" id="note-L6F1">
									<use xlink:href="#E0A4" x="1737" y="2520" height="720px" width="720px" />
									<g class="stem">
										<rect x="1737" y="2542" height="687" width="18" />
									</g>
									<g class="accid" id="accid-0000000093020072" />
								</g>
								<g class="note" id="note-L8F1">
									<use xlink:href="#E0A4" x="2466" y="2430" height="720px" width="720px" />
									<g class="stem">
										<rect x="2466" y="2452" height="704" width="18" />
									</g>
									<g class="accid" id="accid-0000001124847790" />
								</g>
							</g>
							<g class="beam" id="beam-L9F1-L12F1">
								<polygon points="2840,3015 3979,2902 3979,2812 2840,2925 " />
								<polygon points="3596,2805 3979,2767 3979,2677 3596,2715 " />
								<g class="note" id="note-L9F1">
									<use xlink:href="#E0A4" x="2840" y="2340" height="720px" width="720px" />
									<g class="stem">
										<rect x="2840" y="2362" height="635" width="18" />
									</g>
									<g class="accid" id="accid-0000001682169198" />
								</g>
								<g class="note" id="note-L11F1">
									<use xlink:href="#E0A4" x="3587" y="2250" height="720px" width="720px" />
									<g class="stem">
										<rect x="3587" y="2272" height="650" width="18" />
									</g>
									<g class="accid" id="accid-0000001261611997" />
								</g>
								<g class="note" id="note-L12F1">
									<use xlink:href="#E0A4" x="3961" y="2070" height="720px" width="720px" />
									<g class="stem">
										<rect x="3961" y="2092" height="792" width="18" />
									</g>
									<g class="accid" id="accid-0000001246105056" />
								</g>
							</g>
						</g>
					</g>
					<g class="tie" id="tie-L12F1-L14F1">
						<path d="M4209,2025 C4295,1883 4467,1883 4556,2025 C4467,1927 4295,1927 4209,2025" stroke="#000000" stroke-linecap="round" stroke-linejoin="round" stroke-width="9" />
					</g>
					<g class="mNum autogenerated" id="mnum-0000000540074279" />
					<g class="barLineAttr" id="bline-0000000303336698">
						<path d="M4352 2880 L4352 720" stroke="#000000" stroke-width="27" />
					</g>
				</g>
				<g class="measure" id="measure-L13">
					<g class="staff" id="staff-L13F2N1">
						<path d="M4365 720 L7580 720" stroke="#000000" stroke-width="13" />
						<path d="M4365 900 L7580 900" stroke="#000000" stroke-width="13" />
						<path d="M4365 1080 L7580 1080" stroke="#000000" stroke-width="13" />
						<path d="M4365 1260 L7580 1260" stroke="#000000" stroke-width="13" />
						<path d="M4365 1440 L7580 1440" stroke="#000000" stroke-width="13" />
						<g class="layer" id="layer-L13F2N1">
							<g class="beam" id="beam-L14F2-L17F2">
								<polygon points="4786,490 5926,463 5926,553 4786,580 " />
								<polygon points="4786,625 5926,598 5926,688 4786,715 " />
								<g class="note" id="note-L14F2">
									<use xlink:href="#E0A4" x="4578" y="1170" height="720px" width="720px" />
									<g class="stem">
										<rect x="4786" y="508" height="640" width="18" />
									</g>
									<g class="accid" id="accid-0000001569831261" />
								</g>
								<g class="note" id="note-L15F2">
									<use xlink:href="#E0A4" x="4952" y="1350" height="720px" width="720px" />
									<g class="stem">
										<rect x="5160" y="499" height="829" width="18" />
									</g>
									<g class="accid" id="accid-0000001782277232" />
								</g>
								<g class="note" id="note-L16F2">
									<use xlink:href="#E0A4" x="5326" y="1260" height="720px" width="720px" />
									<g class="stem">
										<rect x="5534" y="490" height="748" width="18" />
									</g>
									<g class="accid" id="accid-0000002051286580" />
								</g>
								<g class="note" id="note-L17F2">
									<use xlink:href="#E0A4" x="5700" y="1170" height="720px" width="720px" />
									<g class="stem">
										<rect x="5908" y="481" height="667" width="18" />
									</g>
									<g class="accid" id="accid-0000001247602167" />
								</g>
							</g>
							<g class="beam" id="beam-L18F2-L21F2">
								<polygon points="6282,331 7402,406 7402,496 6282,421 " />
								<polygon points="7019,515 7402,541 7402,631 7019,605 " />
								<g class="note" id="note-L18F2">
									<use xlink:href="#E0A4" x="6074" y="1080" height="720px" width="720px" />
									<g class="stem">
										<rect x="6282" y="349" height="709" width="18" />
									</g>
									<g class="accid" id="accid-0000000788677652" />
								</g>
								<g class="note" id="note-L20F2">
									<use xlink:href="#E0A4" x="6802" y="1440" height="720px" width="720px" />
									<g class="stem">
										<rect x="7010" y="398" height="1020" width="18" />
									</g>
									<g class="accid" id="accid-0000001937085637" />
								</g>
								<g class="note" id="note-L21F2">
									<use xlink:href="#E0A4" x="7176" y="1080" height="720px" width="720px" />
									<g class="stem">
										<rect x="7384" y="424" height="634" width="18" />
									</g>
									<g class="accid" id="accid-0000000289644493" />
								</g>
							</g>
						</g>
					</g>
					<g class="staff" id="staff-L13F1N1">
						<path d="M4365 2160 L7580 2160" stroke="#000000" stroke-width="13" />
						<path d="M4365 2340 L7580 2340" stroke="#000000" stroke-width="13" />
						<path d="M4365 2520 L7580 2520" stroke="#000000" stroke-width="13" />
						<path d="M4365 2700 L7580 2700" stroke="#000000" stroke-width="13" />
						<path d="M4365 2880 L7580 2880" stroke="#000000" stroke-width="13" />
						<g class="layer" id="layer-L13F1N1">
							<g class="beam" id="beam-L14F1-L16F1">
								<polygon points="4578,2835 5344,2835 5344,2745 4578,2745 " />
								<polygon points="4578,2700 4961,2700 4961,2610 4578,2610 " />
								<g class="note" id="note-L14F1">
									<use xlink:href="#E0A4" x="4578" y="2070" height="720px" width="720px" />
									<g class="stem">
										<rect x="4578" y="2092" height="725" width="18" />
									</g>
									<g class="accid" id="accid-0000000788681378" />
								</g>
								<g class="note" id="note-L15F1">
									<use xlink:href="#E0A4" x="4952" y="2160" height="720px" width="720px" />
									<g class="stem">
										<rect x="4952" y="2182" height="635" width="18" />
									</g>
									<g class="accid" id="accid-0000000025392734" />
								</g>
								<g class="note" id="note-L16F1">
									<use xlink:href="#E0A4" x="5326" y="2070" height="720px" width="720px" />
									<g class="stem">
										<rect x="5326" y="2092" height="725" width="18" />
									</g>
									<g class="accid" id="accid-0000000140161478" />
								</g>
							</g>
							<g class="beam" id="beam-L18F1-L21F1">
								<polygon points="6074,3105 7194,2994 7194,2904 6074,3015 " />
								<polygon points="6074,2970 6232,2955 6232,2865 6074,2880 " />
								<polygon points="7036,2874 7194,2859 7194,2769 7036,2784 " />
								<g class="note" id="note-L18F1">
									<use xlink:href="#E0A4" x="6074" y="2430" height="720px" width="720px" />
									<g class="stem">
										<rect x="6074" y="2452" height="635" width="18" />
									</g>
									<g class="accid" id="accid-0000001596701468" />
								</g>
								<g class="note" id="note-L19F1">
									<use xlink:href="#E0A4" x="6448" y="2340" height="720px" width="720px" />
									<g class="stem">
										<rect x="6448" y="2362" height="687" width="18" />
									</g>
									<g class="accid" id="accid-0000000914111919" />
								</g>
								<g class="note" id="note-L21F1">
									<use xlink:href="#E0A4" x="7176" y="2250" height="720px" width="720px" />
									<g class="stem">
										<rect x="7176" y="2272" height="704" width="18" />
									</g>
									<g class="accid" id="accid-0000002019848258" />
								</g>
							</g>
						</g>
					</g>
					<g class="mNum autogenerated" id="mnum-0000000199018599" />
					<g class="barLineAttr" id="bline-0000000943061383">
						<path d="M7567 2880 L7567 720" stroke="#000000" stroke-width="27" />
					</g>
				</g>
				<g class="measure" id="measure-L22">
					<g class="staff" id="staff-L22F2N1">
						<path d="M7580 720 L11258 720" stroke="#000000" stroke-width="13" />
						<path d="M7580 900 L11258 900" stroke="#000000" stroke-width="13" />
						<path d="M7580 1080 L11258 1080" stroke="#000000" stroke-width="13" />
						<path d="M7580 1260 L11258 1260" stroke="#000000" stroke-width="13" />
						<path d="M7580 1440 L11258 1440" stroke="#000000" stroke-width="13" />
						<g class="layer" id="layer-L22F2N1">
							<g class="beam" id="beam-L23F2-L26F2">
								<polygon points="8001,427 9122,316 9122,406 8001,517 " />
								<polygon points="8739,489 9122,451 9122,541 8739,579 " />
								<g class="note" id="note-L23F2">
									<use xlink:href="#E0A4" x="7793" y="1260" height="720px" width="720px" />
									<g class="stem">
										<rect x="8001" y="445" height="793" width="18" />
									</g>
									<g class="accid" id="accid-0000000481630037" />
								</g>
								<g class="note" id="note-L25F2">
									<use xlink:href="#E0A4" x="8522" y="1170" height="720px" width="720px" />
									<g class="stem">
										<rect x="8730" y="372" height="776" width="18" />
									</g>
									<g class="accid" id="accid-0000001654188010">
										<use xlink:href="#E260" x="8326" y="1170" height="720px" width="720px" />
									</g>
								</g>
								<g class="note" id="note-L26F2">
									<use xlink:href="#E0A4" x="8896" y="990" height="720px" width="720px" />
									<g class="stem">
										<rect x="9104" y="334" height="634" width="18" />
									</g>
									<g class="accid" id="accid-0000000017922386" />
								</g>
							</g>
							<g class="beam" id="beam-L27F2-L29F2">
								<polygon points="9270,1845 10267,1747 10267,1657 9270,1755 " />
								<polygon points="9270,1710 9885,1649 9885,1559 9270,1620 " />
								<g class="note" id="note-L27F2">
									<use xlink:href="#E0A4" x="9270" y="1170" height="720px" width="720px" />
									<g class="stem">
										<rect x="9270" y="1192" height="635" width="18" />
									</g>
									<g class="accid" id="accid-0000000532648428" />
								</g>
								<g class="note" id="note-L28F2">
									<use xlink:href="#E0A4" x="9876" y="1080" height="720px" width="720px" />
									<g class="stem">
										<rect x="9876" y="1102" height="664" width="18" />
									</g>
									<g class="accid" id="accid-0000000165473360">
										<use xlink:href="#E260" x="9680" y="1080" height="720px" width="720px" />
									</g>
								</g>
								<g class="note" id="note-L29F2">
									<use xlink:href="#E0A4" x="10249" y="990" height="720px" width="720px" />
									<g class="stem">
										<rect x="10249" y="1012" height="717" width="18" />
									</g>
									<g class="accid" id="accid-0000001655748287" />
								</g>
							</g>
						</g>
					</g>
					<g class="staff" id="staff-L22F1N1">
						<path d="M7580 2160 L11258 2160" stroke="#000000" stroke-width="13" />
						<path d="M7580 2340 L11258 2340" stroke="#000000" stroke-width="13" />
						<path d="M7580 2520 L11258 2520" stroke="#000000" stroke-width="13" />
						<path d="M7580 2700 L11258 2700" stroke="#000000" stroke-width="13" />
						<path d="M7580 2880 L11258 2880" stroke="#000000" stroke-width="13" />
						<g class="layer" id="layer-L22F1N1">
							<g class="beam" id="beam-L23F1-L26F1">
								<polygon points="7793,3285 8914,3174 8914,3084 7793,3195 " />
								<polygon points="7793,3150 7951,3135 7951,3045 7793,3060 " />
								<polygon points="8756,3054 8914,3039 8914,2949 8756,2964 " />
								<g class="note" id="note-L23F1">
									<use xlink:href="#E0A4" x="7793" y="2610" height="720px" width="720px" />
									<g class="stem">
										<rect x="7793" y="2632" height="635" width="18" />
									</g>
									<g class="accid" id="accid-0000001535282230" />
								</g>
								<g class="note" id="note-L24F1">
									<use xlink:href="#E0A4" x="8167" y="2520" height="720px" width="720px" />
									<g class="stem">
										<rect x="8167" y="2542" height="687" width="18" />
									</g>
									<g class="accid" id="accid-0000001524085954" />
								</g>
								<g class="note" id="note-L26F1">
									<use xlink:href="#E0A4" x="8896" y="2430" height="720px" width="720px" />
									<g class="stem">
										<rect x="8896" y="2452" height="704" width="18" />
									</g>
									<g class="accid" id="accid-0000000707010481">
										<use xlink:href="#E260" x="8700" y="2430" height="720px" width="720px" />
									</g>
								</g>
							</g>
							<g class="beam" id="beam-L27F1-L30F1">
								<polygon points="9270,3023 10873,2864 10873,2774 9270,2933 " />
								<polygon points="10258,2790 10873,2729 10873,2639 10258,2700 " />
								<g class="note" id="note-L27F1">
									<use xlink:href="#E0A4" x="9270" y="2340" height="720px" width="720px" />
									<g class="stem">
										<rect x="9270" y="2362" height="643" width="18" />
									</g>
									<g class="accid" id="accid-0000000625498459" />
								</g>
								<g class="note" id="note-L29F1">
									<use xlink:href="#E0A4" x="10249" y="2250" height="720px" width="720px" />
									<g class="stem">
										<rect x="10249" y="2272" height="635" width="18" />
									</g>
									<g class="accid" id="accid-0000001683238390" />
								</g>
								<g class="note" id="note-L30F1">
									<use xlink:href="#E0A4" x="10855" y="2070" height="720px" width="720px" />
									<g class="stem">
										<rect x="10855" y="2092" height="754" width="18" />
									</g>
									<g class="accid" id="accid-0000001585410372">
										<use xlink:href="#E260" x="10659" y="2070" height="720px" width="720px" />
									</g>
								</g>
							</g>
						</g>
					</g>
					<g class="tie" id="tie-L30F1-L32F1">
						<path d="M11103,2025 C11247,1883 11535,1883 11681,2025 C11535,1927 11247,1927 11103,2025" stroke="#000000" stroke-linecap="round" stroke-linejoin="round" stroke-width="9" />
					</g>
					<g class="mNum autogenerated" id="mnum-0000000669610649" />
					<g class="barLineAttr" id="bline-0000002136192467">
						<path d="M11245 2880 L11245 720" stroke="#000000" stroke-width="27" />
					</g>
				</g>
				<g class="measure" id="measure-L31">
					<g class="staff" id="staff-L31F2N1">
						<path d="M11258 720 L15400 720" stroke="#000000" stroke-width="13" />
						<path d="M11258 900 L15400 900" stroke="#000000" stroke-width="13" />
						<path d="M11258 1080 L15400 1080" stroke="#000000" stroke-width="13" />
						<path d="M11258 1260 L15400 1260" stroke="#000000" stroke-width="13" />
						<path d="M11258 1440 L15400 1440" stroke="#000000" stroke-width="13" />
						<g class="layer" id="layer-L31F2N1">
							<g class="beam" id="beam-L32F2-L35F2">
								<polygon points="11911,495 13515,494 13515,584 11911,585 " />
								<polygon points="11911,630 13515,629 13515,719 11911,720 " />
								<g class="note" id="note-L32F2">
									<use xlink:href="#E0A4" x="11703" y="1170" height="720px" width="720px" />
									<g class="stem">
										<rect x="11911" y="513" height="635" width="18" />
									</g>
									<g class="accid" id="accid-0000001511117554">
										<use xlink:href="#E260" x="11507" y="1170" height="720px" width="720px" />
									</g>
								</g>
								<g class="note" id="note-L33F2">
									<use xlink:href="#E0A4" x="12309" y="1440" height="720px" width="720px" />
									<g class="stem">
										<rect x="12517" y="513" height="905" width="18" />
									</g>
									<g class="accid" id="accid-0000001454859126">
										<use xlink:href="#E260" x="12113" y="1440" height="720px" width="720px" />
									</g>
								</g>
								<g class="note" id="note-L34F2">
									<use xlink:href="#E0A4" x="12915" y="1350" height="720px" width="720px" />
									<g class="stem">
										<rect x="13123" y="512" height="816" width="18" />
									</g>
									<g class="accid" id="accid-0000001060728077" />
								</g>
								<g class="note" id="note-L35F2">
									<use xlink:href="#E0A4" x="13289" y="1170" height="720px" width="720px" />
									<g class="stem">
										<rect x="13497" y="512" height="636" width="18" />
									</g>
									<g class="accid" id="accid-0000000150182398" />
								</g>
							</g>
							<g class="beam" id="beam-L36F2-L39F2">
								<polygon points="14102,369 15223,406 15223,496 14102,459 " />
								<polygon points="14840,529 15223,541 15223,631 14840,619 " />
								<g class="note" id="note-L36F2">
									<use xlink:href="#E0A4" x="13894" y="1080" height="720px" width="720px" />
									<g class="stem">
										<rect x="14102" y="387" height="671" width="18" />
									</g>
									<g class="accid" id="accid-0000000491371561">
										<use xlink:href="#E260" x="13698" y="1080" height="720px" width="720px" />
									</g>
								</g>
								<g class="note" id="note-L38F2">
									<use xlink:href="#E0A4" x="14623" y="1260" height="720px" width="720px" />
									<g class="stem">
										<rect x="14831" y="412" height="826" width="18" />
									</g>
									<g class="accid" id="accid-0000000623618273" />
								</g>
								<g class="note" id="note-L39F2">
									<use xlink:href="#E0A4" x="14997" y="1080" height="720px" width="720px" />
									<g class="stem">
										<rect x="15205" y="424" height="634" width="18" />
									</g>
									<g class="accid" id="accid-0000000592879881" />
								</g>
							</g>
						</g>
					</g>
					<g class="staff" id="staff-L31F1N1">
						<path d="M11258 2160 L15400 2160" stroke="#000000" stroke-width="13" />
						<path d="M11258 2340 L15400 2340" stroke="#000000" stroke-width="13" />
						<path d="M11258 2520 L15400 2520" stroke="#000000" stroke-width="13" />
						<path d="M11258 2700 L15400 2700" stroke="#000000" stroke-width="13" />
						<path d="M11258 2880 L15400 2880" stroke="#000000" stroke-width="13" />
						<g class="layer" id="layer-L31F1N1">
							<g class="beam" id="beam-L32F1-L34F1">
								<polygon points="11703,2835 12933,2835 12933,2745 11703,2745 " />
								<polygon points="11703,2700 12318,2700 12318,2610 11703,2610 " />
								<g class="note" id="note-L32F1">
									<use xlink:href="#E0A4" x="11703" y="2070" height="720px" width="720px" />
									<g class="stem">
										<rect x="11703" y="2092" height="725" width="18" />
									</g>
									<g class="accid" id="accid-0000000682095858" />
								</g>
								<g class="note" id="note-L33F1">
									<use xlink:href="#E0A4" x="12309" y="2160" height="720px" width="720px" />
									<g class="stem">
										<rect x="12309" y="2182" height="635" width="18" />
									</g>
									<g class="accid" id="accid-0000000994145782">
										<use xlink:href="#E260" x="12113" y="2160" height="720px" width="720px" />
									</g>
								</g>
								<g class="note" id="note-L34F1">
									<use xlink:href="#E0A4" x="12915" y="2070" height="720px" width="720px" />
									<g class="stem">
										<rect x="12915" y="2092" height="725" width="18" />
									</g>
									<g class="accid" id="accid-L34F1">
										<use xlink:href="#E260" x="12719" y="2070" height="720px" width="720px" />
									</g>
								</g>
							</g>
							<g class="beam" id="beam-L36F1-L39F1">
								<polygon points="13894,3105 15015,2994 15015,2904 13894,3015 " />
								<polygon points="13894,2970 14052,2955 14052,2865 13894,2880 " />
								<polygon points="14857,2874 15015,2859 15015,2769 14857,2784 " />
								<g class="note" id="note-L36F1">
									<use xlink:href="#E0A4" x="13894" y="2430" height="720px" width="720px" />
									<g class="stem">
										<rect x="13894" y="2452" height="635" width="18" />
									</g>
									<g class="accid" id="accid-0000001849199513">
										<use xlink:href="#E260" x="13698" y="2430" height="720px" width="720px" />
									</g>
								</g>
								<g class="note" id="note-L37F1">
									<use xlink:href="#E0A4" x="14268" y="2340" height="720px" width="720px" />
									<g class="stem">
										<rect x="14268" y="2362" height="687" width="18" />
									</g>
									<g class="accid" id="accid-0000001665245126" />
								</g>
								<g class="note" id="note-L39F1">
									<use xlink:href="#E0A4" x="14997" y="2250" height="720px" width="720px" />
									<g class="stem">
										<rect x="14997" y="2272" height="704" width="18" />
									</g>
									<g class="accid" id="accid-0000001267505354" />
								</g>
							</g>
						</g>
					</g>
					<g class="mNum autogenerated" id="mnum-0000001474397960" />
					<g class="barLineAttr" id="bline-0000001845343031">
						<path d="M15387 2880 L15387 720" stroke="#000000" stroke-width="27" />
					</g>
				</g>
				<g class="measure" id="measure-L40">
					<g class="staff" id="staff-L40F2N1">
						<path d="M15400 720 L20002 720" stroke="#000000" stroke-width="13" />
						<path d="M15400 900 L20002 900" stroke="#000000" stroke-width="13" />
						<path d="M15400 1080 L20002 1080" stroke="#000000" stroke-width="13" />
						<path d="M15400 1260 L20002 1260" stroke="#000000" stroke-width="13" />
						<path d="M15400 1440 L20002 1440" stroke="#000000" stroke-width="13" />
						<g class="ledgerLines below">
							<path d="M17379 1620 L17658 1620" stroke="#000000" stroke-width="22" />
							<path d="M18963 1620 L19242 1620" stroke="#000000" stroke-width="22" />
						</g>
						<g class="layer" id="layer-L40F2N1">
							<g class="beam" id="beam-L41F2-L44F2">
								<polygon points="16053,400 17636,557 17636,647 16053,490 " />
								<polygon points="17022,631 17636,692 17636,782 17022,721 " />
								<g class="note" id="note-L41F2">
									<use xlink:href="#E0A4" x="15845" y="1260" height="720px" width="720px" />
									<g class="stem">
										<rect x="16053" y="418" height="820" width="18" />
									</g>
									<g class="accid" id="accid-0000000413685123">
										<use xlink:href="#E260" x="15649" y="1260" height="720px" width="720px" />
									</g>
								</g>
								<g class="note" id="note-L43F2">
									<use xlink:href="#E0A4" x="16805" y="1170" height="720px" width="720px" />
									<g class="stem">
										<rect x="17013" y="514" height="634" width="18" />
									</g>
									<g class="accid" id="accid-0000000144211405">
										<use xlink:href="#E260" x="16609" y="1170" height="720px" width="720px" />
									</g>
								</g>
								<g class="note" id="note-L44F2">
									<use xlink:href="#E0A4" x="17410" y="1620" height="720px" width="720px" />
									<g class="stem">
										<rect x="17618" y="575" height="1023" width="18" />
									</g>
									<g class="accid" id="accid-0000000512643742">
										<use xlink:href="#E260" x="17214" y="1620" height="720px" width="720px" />
									</g>
								</g>
							</g>
							<g class="beam" id="beam-L45F2-L47F2">
								<polygon points="18223,345 19220,443 19220,533 18223,435 " />
								<polygon points="18223,480 18838,541 18838,631 18223,570 " />
								<g class="note" id="note-L45F2">
									<use xlink:href="#E0A4" x="18015" y="1170" height="720px" width="720px" />
									<g class="stem">
										<rect x="18223" y="363" height="785" width="18" />
									</g>
									<g class="accid" id="accid-0000001815004833" />
								</g>
								<g class="note" id="note-L46F2">
									<use xlink:href="#E0A4" x="18621" y="1080" height="720px" width="720px" />
									<g class="stem">
										<rect x="18829" y="424" height="634" width="18" />
									</g>
									<g class="accid" id="accid-0000000433741930">
										<use xlink:href="#E260" x="18425" y="1080" height="720px" width="720px" />
									</g>
								</g>
								<g class="note" id="note-L47F2">
									<use xlink:href="#E0A4" x="18994" y="1620" height="720px" width="720px" />
									<g class="stem">
										<rect x="19202" y="461" height="1137" width="18" />
									</g>
									<g class="accid" id="accid-0000000208623832" />
								</g>
							</g>
						</g>
					</g>
					<g class="staff" id="staff-L40F1N1">
						<path d="M15400 2160 L20002 2160" stroke="#000000" stroke-width="13" />
						<path d="M15400 2340 L20002 2340" stroke="#000000" stroke-width="13" />
						<path d="M15400 2520 L20002 2520" stroke="#000000" stroke-width="13" />
						<path d="M15400 2700 L20002 2700" stroke="#000000" stroke-width="13" />
						<path d="M15400 2880 L20002 2880" stroke="#000000" stroke-width="13" />
						<g class="layer" id="layer-L40F1N1">
							<g class="beam" id="beam-L41F1-L44F1">
								<polygon points="16053,1997 17636,1840 17636,1930 16053,2087 " />
								<polygon points="16053,2132 16211,2117 16211,2207 16053,2222 " />
								<polygon points="17478,1990 17636,1975 17636,2065 17478,2080 " />
								<g class="note" id="note-L41F1">
									<use xlink:href="#E0A4" x="15845" y="2700" height="720px" width="720px" />
									<g class="stem">
										<rect x="16053" y="2015" height="663" width="18" />
									</g>
									<g class="accid" id="accid-0000001359315286" />
								</g>
								<g class="note" id="note-L42F1">
									<use xlink:href="#E0A4" x="16450" y="2610" height="720px" width="720px" />
									<g class="stem">
										<rect x="16658" y="1954" height="634" width="18" />
									</g>
									<g class="accid" id="accid-0000000235440292">
										<use xlink:href="#E262" x="16255" y="2610" height="720px" width="720px" />
									</g>
								</g>
								<g class="note" id="note-L44F1">
									<use xlink:href="#E0A4" x="17410" y="2520" height="720px" width="720px" />
									<g class="stem">
										<rect x="17618" y="1858" height="640" width="18" />
									</g>
									<g class="accid" id="accid-0000000535713843">
										<use xlink:href="#E262" x="17215" y="2520" height="720px" width="720px" />
									</g>
								</g>
							</g>
							<g class="beam" id="beam-L45F1-L48F1">
								<polygon points="18015,3113 19617,2954 19617,2864 18015,3023 " />
								<polygon points="19003,2880 19617,2819 19617,2729 19003,2790 " />
								<g class="note" id="note-L45F1">
									<use xlink:href="#E0A4" x="18015" y="2430" height="720px" width="720px" />
									<g class="stem">
										<rect x="18015" y="2452" height="643" width="18" />
									</g>
									<g class="accid" id="accid-0000002027985729">
										<use xlink:href="#E262" x="17820" y="2430" height="720px" width="720px" />
									</g>
								</g>
								<g class="note" id="note-L47F1">
									<use xlink:href="#E0A4" x="18994" y="2340" height="720px" width="720px" />
									<g class="stem">
										<rect x="18994" y="2362" height="635" width="18" />
									</g>
									<g class="accid" id="accid-0000000383468742">
										<use xlink:href="#E262" x="18799" y="2340" height="720px" width="720px" />
									</g>
								</g>
								<g class="note" id="note-L48F1">
									<use xlink:href="#E0A4" x="19599" y="2160" height="720px" width="720px" />
									<g class="stem">
										<rect x="19599" y="2182" height="754" width="18" />
									</g>
									<g class="accid" id="accid-0000000310789148">
										<use xlink:href="#E262" x="19404" y="2160" height="720px" width="720px" />
									</g>
								</g>
							</g>
						</g>
					</g>
					<g class="tie" id="tie-L48F1-L50F1">
						<path d="M19712,2025 C19781,1883 19919,1883 19989,2025 C19919,1927 19781,1927 19712,2025" stroke="#000000" stroke-linecap="round" stroke-linejoin="round" stroke-width="9" />
					</g>
					<g class="mNum autogenerated" id="mnum-0000001076311278" />
					<g class="barLineAttr" id="bline-0000000753472085">
						<path d="M19989 2880 L19989 720" stroke="#000000" stroke-width="27" />
					</g>
				</g>
			</g>
		</g>
	</svg>
</svg>
