<?xml version="1.0" encoding="UTF-8" standalone="no"?>
<svg width="2100.00px" height="450.00px" version="1.1" xmlns="http://www.w3.org/2000/svg" xmlns:xlink="http://www.w3.org/1999/xlink" overflow="visible">
	<desc>Engraved by Verovio 2.0.0-dev-0f0381c</desc>
	<defs>
		<symbol id="E050" viewBox="0 0 1000 1000" overflow="inherit">
			<path transform="scale(1,-1)" d="M441 -245c-23 -4 -48 -6 -76 -6c-59 0 -102 7 -130 20c-88 42 -150 93 -187 154c-26 44 -43 103 -48 176c-4 60 11 123 44 189c29 57 65 106 110 148s96 85 153 127c-3 16 -8 46 -13 92c-4 43 -5 73 -5 89c0 117 16 172 69 257c34 54 64 82 89 82c21 0 43 -30 69 -92 s39 -115 41 -159c2 -120 -19 -173 -67 -256c-13 -20 -63 -90 -98 -118c-13 -9 -25 -19 -37 -29l31 -181c8 1 18 2 28 2c58 0 102 -12 133 -35c59 -43 92 -104 98 -184c11 -135 -80 -229 -180 -270c8 -57 17 -110 25 -162c5 -31 6 -58 6 -80c0 -30 -5 -53 -14 -70 c-35 -64 -88 -99 -158 -103c-42 -3 -83 6 -124 26c-50 24 -77 59 -80 105c-2 34 5 63 20 87c18 28 45 42 79 44c51 4 99 -40 103 -87c4 -56 -30 -94 -105 -115c17 -24 51 -36 102 -36c62 0 116 43 140 85c9 16 13 41 13 74c0 20 -1 42 -5 67c-8 53 -18 106 -26 159zM461 939 c-95 0 -135 -175 -135 -286c0 -24 2 -48 5 -71c50 39 92 82 127 128c43 57 63 106 60 148c-4 54 -23 82 -57 81zM406 119l54 -326c80 27 116 88 109 184c-7 99 -62 146 -163 142zM382 117c-74 -2 -132 -50 -128 -127c2 -46 43 -99 75 -115c-3 -2 -7 -5 -10 -10 c-70 33 -116 88 -123 172c-5 73 42 135 88 170c23 17 49 29 78 36l-29 170c-21 -13 -52 -37 -92 -73c-50 -44 -86 -84 -109 -119c-49 -75 -71 -140 -67 -195c5 -68 35 -127 93 -176s125 -73 203 -73c25 0 50 3 75 9c-19 111 -36 221 -54 331z" />
		</symbol>
		<symbol id="E082" viewBox="0 0 1000 1000" overflow="inherit">
			<path transform="scale(1,-1)" d="M104 -185c-18 0 -55 -14 -65 -65h-36l-3 29c0 25 6 46 18 64c11 19 22 30 39 43l121 82l37 29c15 11 27 29 38 54c12 24 18 47 18 70c0 40 -19 88 -94 88c-25 0 -32 0 -50 -8c-14 -5 -23 -12 -26 -22c3 -9 7 -15 10 -18l24 -17c12 -7 17 -11 27 -21c5 -7 7 -16 7 -27 c0 -12 0 -57 -79 -74c-30 0 -76 26 -76 94c0 66 80 135 196 135c72 0 182 -32 182 -150c0 -53 -32 -95 -113 -133l-91 -41c-26 -11 -45 -23 -57 -37l49 7c84 0 115 -41 148 -41c20 0 33 20 39 61h35c0 -152 -68 -168 -114 -168c-17 0 -55 0 -69 7v0l-28 17 c-49 37 -69 40 -87 42z" />
		</symbol>
		<symbol id="E084" viewBox="0 0 1000 1000" overflow="inherit">
			<path transform="scale(1,-1)" d="M0 -78c84 97 114 180 134 329h170c-13 -32 -82 -132 -99 -151l-84 -97c-33 -36 -59 -63 -80 -81h162v102l127 123v-225h57v-39h-57v-34c0 -43 19 -65 57 -65v-34h-244v36c48 0 60 26 60 70v27h-203v39z" />
		</symbol>
		<symbol id="E0A4" viewBox="0 0 1000 1000" overflow="inherit">
			<path transform="scale(1,-1)" d="M0 -39c0 68 73 172 200 172c66 0 114 -37 114 -95c0 -84 -106 -171 -218 -171c-64 0 -96 30 -96 94z" />
		</symbol>
		<symbol id="E260" viewBox="0 0 1000 1000" overflow="inherit">
			<path transform="scale(1,-1)" d="M20 110c32 16 54 27 93 27c26 0 35 -3 54 -13c13 -7 24 -20 27 -38l4 -25c0 -28 -16 -57 -45 -89c-23 -25 -39 -44 -65 -68l-88 -79v644h20v-359zM90 106c-32 0 -48 -10 -70 -29v-194c31 31 54 59 71 84c21 32 32 59 32 84c0 9 1 16 1 20c0 14 -3 21 -11 30l-8 3z" />
		</symbol>
		<symbol id="E062" viewBox="0 0 1000 1000" overflow="inherit">
			<path transform="scale(1,-1)" d="M158 96c51 0 73 -14 88 -49l16 -39c0 -17 -2 -30 -7 -40c-3 -11 -10 -21 -19 -31c-17 -18 -49 -43 -84 -43c-55 0 -77 13 -112 44c-24 21 -35 55 -35 100c0 46 14 81 32 112c30 52 71 79 137 93l36 6l26 2c154 0 235 -68 274 -182c11 -32 18 -68 18 -107 c0 -103 -26 -182 -68 -250c-89 -145 -234 -230 -412 -288l-30 -5c-9 0 -14 3 -14 8c3 10 5 11 10 16c35 15 70 30 96 44l78 43c96 57 162 136 197 258c9 33 17 60 22 100c3 22 5 35 6 39c-7 69 -16 115 -23 140s-4 22 -16 40c-8 12 -19 23 -31 34c-24 21 -62 44 -118 44 c-48 0 -84 -8 -113 -28c-28 -19 -42 -44 -42 -73v-16c2 -5 3 -9 4 -11c24 22 52 39 84 39zM585 -118c0 32 23 58 57 58c18 0 33 -6 40 -18c9 -15 16 -18 16 -40c0 -9 -2 -16 -5 -21c-6 -19 -27 -37 -51 -37c-34 0 -57 26 -57 58zM642 177c31 0 56 -27 56 -58 c0 -30 -25 -58 -56 -58l-23 3c-19 7 -34 32 -34 55l3 23c9 20 28 35 54 35z" />
		</symbol>
		<symbol id="E262" viewBox="0 0 1000 1000" overflow="inherit">
			<path transform="scale(1,-1)" d="M136 186v169h17v-164l44 14v-91l-44 -14v-165l44 12v-91l-44 -13v-155h-17v150l-76 -22v-155h-17v149l-43 -13v90l43 14v167l-43 -14v92l43 13v169h17v-163zM60 73v-167l76 22v168z" />
		</symbol>
	</defs>
	<style type="text/css">g.page-margin{font-family:Times;} g.tempo{font-weight:bold;} g.dir, g.dynam, g.mNum{font-style:italic;} g.label{font-weight:normal;}</style>
	<svg class="definition-scale" viewBox="0 0 21000 4500">
		<g class="page-margin" transform="translate(500, 500)">
			<g class="system" id="system-0000001014036862">
				<path d="M13 720 L13 2884" stroke="#000000" stroke-width="27" />
				<path d="M-32,2866 C-392,2326 58,1982 -212,1802 C121,1982 -329,2326 -32,2866" stroke="#000000" stroke-linecap="round" stroke-linejoin="round" stroke-width="18" />
				<path d="M-32,738 C-329,1278 121,1622 -212,1802 C58,1622 -392,1278 -32,738" stroke="#000000" stroke-linecap="round" stroke-linejoin="round" stroke-width="18" />
				<g class="section boundaryStart" id="section-L1F1" />
				<g class="measure" id="measure-L4">
					<g class="staff" id="staff-L4F2N1">
						<path d="M0 720 L4753 720" stroke="#000000" stroke-width="13" />
						<path d="M0 900 L4753 900" stroke="#000000" stroke-width="13" />
						<path d="M0 1080 L4753 1080" stroke="#000000" stroke-width="13" />
						<path d="M0 1260 L4753 1260" stroke="#000000" stroke-width="13" />
						<path d="M0 1440 L4753 1440" stroke="#000000" stroke-width="13" />
						<g class="clef" id="clef-0000001247704896">
							<use xlink:href="#E050" x="90" y="1260" height="720px" width="720px" />
						</g>
						<g class="meterSig" id="msig-0000002145857764">
							<use xlink:href="#E082" x="771" y="900" height="720px" width="720px" />
							<use xlink:href="#E084" x="777" y="1260" height="720px" width="720px" />
						</g>
						<g class="layer" id="layer-L4F2N1">
							<g class="beam" id="beam-L5F2-L6F2">
								<polygon points="1766,462 2339,406 2339,496 1766,552 " />
								<polygon points="1766,597 1924,582 1924,672 1766,687 " />
								<g class="note" id="note-L5F2">
									<use xlink:href="#E0A4" x="1558" y="1170" height="720px" width="720px" />
									<g class="stem">
										<rect x="1766" y="480" height="668" width="18" />
									</g>
									<g class="accid" id="accid-0000000872764940">
										<use xlink:href="#E260" x="1362" y="1170" height="720px" width="720px" />
									</g>
								</g>
								<g class="note" id="note-L6F2">
									<use xlink:href="#E0A4" x="2113" y="1080" height="720px" width="720px" />
									<g class="dots" id="dots-0000000387300777">
										<ellipse cx="2429" cy="990" rx="36" ry="36" />
									</g>
									<g class="stem">
										<rect x="2321" y="424" height="634" width="18" />
									</g>
									<g class="accid" id="accid-0000001667527917">
										<use xlink:href="#E260" x="1917" y="1080" height="720px" width="720px" />
									</g>
								</g>
							</g>
							<g class="beam" id="beam-L9F2-L12F2">
								<polygon points="3562,641 4608,744 4608,834 3562,731 " />
								<polygon points="3562,776 4608,879 4608,969 3562,866 " />
								<g class="note" id="note-L9F2">
									<use xlink:href="#E0A4" x="3354" y="1440" height="720px" width="720px" />
									<g class="stem">
										<rect x="3562" y="659" height="759" width="18" />
									</g>
									<g class="accid" id="accid-0000002134593645">
										<use xlink:href="#E260" x="3158" y="1440" height="720px" width="720px" />
									</g>
								</g>
								<g class="note" id="note-L10F2">
									<use xlink:href="#E0A4" x="3697" y="1350" height="720px" width="720px" />
									<g class="stem">
										<rect x="3905" y="694" height="634" width="18" />
									</g>
									<g class="accid" id="accid-0000001391051883" />
								</g>
								<g class="note" id="note-L11F2">
									<use xlink:href="#E0A4" x="4039" y="1440" height="720px" width="720px" />
									<g class="stem">
										<rect x="4247" y="728" height="690" width="18" />
									</g>
									<g class="accid" id="accid-0000001894523978" />
								</g>
								<g class="note" id="note-L12F2">
									<use xlink:href="#E0A4" x="4382" y="1530" height="720px" width="720px" />
									<g class="stem">
										<rect x="4590" y="762" height="746" width="18" />
									</g>
									<g class="accid" id="accid-0000001396535551" />
								</g>
							</g>
						</g>
					</g>
					<g class="staff" id="staff-L4F1N1">
						<path d="M0 2164 L4753 2164" stroke="#000000" stroke-width="13" />
						<path d="M0 2344 L4753 2344" stroke="#000000" stroke-width="13" />
						<path d="M0 2524 L4753 2524" stroke="#000000" stroke-width="13" />
						<path d="M0 2704 L4753 2704" stroke="#000000" stroke-width="13" />
						<path d="M0 2884 L4753 2884" stroke="#000000" stroke-width="13" />
						<g class="clef" id="clef-0000000591071830">
							<use xlink:href="#E062" x="90" y="2344" height="720px" width="720px" />
						</g>
						<g class="meterSig" id="msig-0000002032379435">
							<use xlink:href="#E082" x="771" y="2344" height="720px" width="720px" />
							<use xlink:href="#E084" x="777" y="2704" height="720px" width="720px" />
						</g>
						<g class="layer" id="layer-L4F1N1">
							<g class="beam" id="beam-L5F1-L8F1">
								<polygon points="1558,3290 3029,3315 3029,3225 1558,3200 " />
								<polygon points="1558,3155 3029,3180 3029,3090 1558,3065 " />
								<g class="note" id="note-L5F1">
									<use xlink:href="#E0A4" x="1558" y="2614" height="720px" width="720px" />
									<g class="stem">
										<rect x="1558" y="2636" height="636" width="18" />
									</g>
									<g class="accid" id="accid-0000000975283041" />
								</g>
								<g class="note" id="note-L6F1">
									<use xlink:href="#E0A4" x="2113" y="2254" height="720px" width="720px" />
									<g class="stem">
										<rect x="2113" y="2276" height="1005" width="18" />
									</g>
									<g class="accid" id="accid-0000000057296831" />
								</g>
								<g class="note" id="note-L7F1">
									<use xlink:href="#E0A4" x="2669" y="2434" height="720px" width="720px" />
									<g class="stem">
										<rect x="2669" y="2456" height="835" width="18" />
									</g>
									<g class="accid" id="accid-0000000896258313">
										<use xlink:href="#E260" x="2473" y="2434" height="720px" width="720px" />
									</g>
								</g>
								<g class="note" id="note-L8F1">
									<use xlink:href="#E0A4" x="3011" y="2614" height="720px" width="720px" />
									<g class="stem">
										<rect x="3011" y="2636" height="661" width="18" />
									</g>
									<g class="accid" id="accid-0000000208189045" />
								</g>
							</g>
							<g class="beam" id="beam-L9F1-L12F1">
								<polygon points="3354,3289 4400,3186 4400,3096 3354,3199 " />
								<polygon points="3354,3154 3512,3139 3512,3049 3354,3064 " />
								<polygon points="4242,3066 4400,3051 4400,2961 4242,2976 " />
								<g class="note" id="note-L9F1">
									<use xlink:href="#E0A4" x="3354" y="2614" height="720px" width="720px" />
									<g class="stem">
										<rect x="3354" y="2636" height="635" width="18" />
									</g>
									<g class="accid" id="accid-0000000912039035" />
								</g>
								<g class="note" id="note-L10F1">
									<use xlink:href="#E0A4" x="3697" y="2524" height="720px" width="720px" />
									<g class="stem">
										<rect x="3697" y="2546" height="690" width="18" />
									</g>
									<g class="accid" id="accid-0000000781958456" />
								</g>
								<g class="note" id="note-L12F1">
									<use xlink:href="#E0A4" x="4382" y="2254" height="720px" width="720px" />
									<g class="stem">
										<rect x="4382" y="2276" height="892" width="18" />
									</g>
									<g class="accid" id="accid-0000001550666549" />
								</g>
							</g>
						</g>
					</g>
					<g class="tie" id="tie-L8F1-L9F1">
						<path d="M3124,2479 C3209,2337 3379,2337 3467,2479 C3379,2381 3209,2381 3124,2479" stroke="#000000" stroke-linecap="round" stroke-linejoin="round" stroke-width="9" />
					</g>
					<g class="mNum autogenerated" id="mnum-0000001596902449" />
					<g class="barLineAttr" id="bline-0000000133930177">
						<path d="M4740 2884 L4740 720" stroke="#000000" stroke-width="27" />
					</g>
				</g>
				<g class="measure" id="measure-L13">
					<g class="staff" id="staff-L13F2N1">
						<path d="M4753 720 L8569 720" stroke="#000000" stroke-width="13" />
						<path d="M4753 900 L8569 900" stroke="#000000" stroke-width="13" />
						<path d="M4753 1080 L8569 1080" stroke="#000000" stroke-width="13" />
						<path d="M4753 1260 L8569 1260" stroke="#000000" stroke-width="13" />
						<path d="M4753 1440 L8569 1440" stroke="#000000" stroke-width="13" />
						<g class="layer" id="layer-L13F2N1">
							<g class="beam" id="beam-L14F2-L15F2">
								<polygon points="5369,586 5942,642 5942,732 5369,676 " />
								<polygon points="5369,721 5527,736 5527,826 5369,811 " />
								<g class="note" id="note-L14F2">
									<use xlink:href="#E0A4" x="5161" y="1260" height="720px" width="720px" />
									<g class="stem">
										<rect x="5369" y="604" height="634" width="18" />
									</g>
									<g class="accid" id="accid-0000000254243520" />
								</g>
								<g class="note" id="note-L15F2">
									<use xlink:href="#E0A4" x="5716" y="1440" height="720px" width="720px" />
									<g class="dots" id="dots-0000000579424799">
										<ellipse cx="6032" cy="1350" rx="36" ry="36" />
									</g>
									<g class="stem">
										<rect x="5924" y="660" height="758" width="18" />
									</g>
									<g class="accid" id="accid-0000000580964870">
										<use xlink:href="#E260" x="5520" y="1440" height="720px" width="720px" />
									</g>
								</g>
							</g>
							<g class="beam" id="beam-L18F2-L21F2">
								<polygon points="7165,358 8424,300 8424,390 7165,448 " />
								<polygon points="7165,493 8424,435 8424,525 7165,583 " />
								<g class="note" id="note-L18F2">
									<use xlink:href="#E0A4" x="6957" y="1260" height="720px" width="720px" />
									<g class="stem">
										<rect x="7165" y="376" height="862" width="18" />
									</g>
									<g class="accid" id="accid-0000001675779401" />
								</g>
								<g class="note" id="note-L19F2">
									<use xlink:href="#E0A4" x="7512" y="1080" height="720px" width="720px" />
									<g class="stem">
										<rect x="7720" y="350" height="708" width="18" />
									</g>
									<g class="accid" id="accid-0000001768281044">
										<use xlink:href="#E260" x="7316" y="1080" height="720px" width="720px" />
									</g>
								</g>
								<g class="note" id="note-L20F2">
									<use xlink:href="#E0A4" x="7855" y="990" height="720px" width="720px" />
									<g class="stem">
										<rect x="8063" y="334" height="634" width="18" />
									</g>
									<g class="accid" id="accid-0000000737121237" />
								</g>
								<g class="note" id="note-L21F2">
									<use xlink:href="#E0A4" x="8198" y="1260" height="720px" width="720px" />
									<g class="stem">
										<rect x="8406" y="318" height="920" width="18" />
									</g>
									<g class="accid" id="accid-0000000232646854" />
								</g>
							</g>
						</g>
					</g>
					<g class="staff" id="staff-L13F1N1">
						<path d="M4753 2164 L8569 2164" stroke="#000000" stroke-width="13" />
						<path d="M4753 2344 L8569 2344" stroke="#000000" stroke-width="13" />
						<path d="M4753 2524 L8569 2524" stroke="#000000" stroke-width="13" />
						<path d="M4753 2704 L8569 2704" stroke="#000000" stroke-width="13" />
						<path d="M4753 2884 L8569 2884" stroke="#000000" stroke-width="13" />
						<g class="ledgerLines above">
							<path d="M5685 1984 L5964 1984" stroke="#000000" stroke-width="22" />
						</g>
						<g class="layer" id="layer-L13F1N1">
							<g class="beam" id="beam-L14F1-L17F1">
								<polygon points="5161,2750 6632,2856 6632,2766 5161,2660 " />
								<polygon points="5161,2615 6632,2721 6632,2631 5161,2525 " />
								<g class="note" id="note-L14F1">
									<use xlink:href="#E0A4" x="5161" y="2074" height="720px" width="720px" />
									<g class="stem">
										<rect x="5161" y="2096" height="636" width="18" />
									</g>
									<g class="accid" id="accid-0000001499399433">
										<use xlink:href="#E260" x="4965" y="2074" height="720px" width="720px" />
									</g>
								</g>
								<g class="note" id="note-L15F1">
									<use xlink:href="#E0A4" x="5716" y="1984" height="720px" width="720px" />
									<g class="stem">
										<rect x="5716" y="2006" height="766" width="18" />
									</g>
									<g class="accid" id="accid-0000002061450269" />
								</g>
								<g class="note" id="note-L16F1">
									<use xlink:href="#E0A4" x="6059" y="2074" height="720px" width="720px" />
									<g class="stem">
										<rect x="6059" y="2096" height="701" width="18" />
									</g>
									<g class="accid" id="accid-0000001613608605" />
								</g>
								<g class="note" id="note-L17F1">
									<use xlink:href="#E0A4" x="6614" y="2164" height="720px" width="720px" />
									<g class="stem">
										<rect x="6614" y="2186" height="652" width="18" />
									</g>
									<g class="accid" id="accid-0000001783442263">
										<use xlink:href="#E260" x="6418" y="2164" height="720px" width="720px" />
									</g>
								</g>
							</g>
							<g class="beam" id="beam-L18F1-L21F1">
								<polygon points="6957,2974 8216,2875 8216,2785 6957,2884 " />
								<polygon points="6957,2839 7115,2827 7115,2737 6957,2749 " />
								<polygon points="8058,2752 8216,2740 8216,2650 8058,2662 " />
								<g class="note" id="note-L18F1">
									<use xlink:href="#E0A4" x="6957" y="2164" height="720px" width="720px" />
									<g class="stem">
										<rect x="6957" y="2186" height="770" width="18" />
									</g>
									<g class="accid" id="accid-0000001611373344" />
								</g>
								<g class="note" id="note-L19F1">
									<use xlink:href="#E0A4" x="7512" y="2254" height="720px" width="720px" />
									<g class="stem">
										<rect x="7512" y="2276" height="635" width="18" />
									</g>
									<g class="accid" id="accid-0000001165261861" />
								</g>
								<g class="note" id="note-L21F1">
									<use xlink:href="#E0A4" x="8198" y="2074" height="720px" width="720px" />
									<g class="stem">
										<rect x="8198" y="2096" height="761" width="18" />
									</g>
									<g class="accid" id="accid-0000001725566740" />
								</g>
							</g>
						</g>
					</g>
					<g class="tie" id="tie-L17F1-L18F1">
						<path d="M6727,2029 C6812,1887 6982,1887 7070,2029 C6982,1931 6812,1931 6727,2029" stroke="#000000" stroke-linecap="round" stroke-linejoin="round" stroke-width="9" />
					</g>
					<g class="mNum autogenerated" id="mnum-0000000046955449" />
					<g class="barLineAttr" id="bline-0000000694451712">
						<path d="M8556 2884 L8556 720" stroke="#000000" stroke-width="27" />
					</g>
				</g>
				<g class="measure" id="measure-L22">
					<g class="staff" id="staff-L22F2N1">
						<path d="M8569 720 L12592 720" stroke="#000000" stroke-width="13" />
						<path d="M8569 900 L12592 900" stroke="#000000" stroke-width="13" />
						<path d="M8569 1080 L12592 1080" stroke="#000000" stroke-width="13" />
						<path d="M8569 1260 L12592 1260" stroke="#000000" stroke-width="13" />
						<path d="M8569 1440 L12592 1440" stroke="#000000" stroke-width="13" />
						<g class="ledgerLines below">
							<path d="M12190 1620 L12469 1620" stroke="#000000" stroke-width="22" />
						</g>
						<g class="layer" id="layer-L22F2N1">
							<g class="beam" id="beam-L23F2-L24F2">
								<polygon points="9184,552 9756,496 9756,586 9184,642 " />
								<polygon points="9184,687 9342,672 9342,762 9184,777 " />
								<g class="note" id="note-L23F2">
									<use xlink:href="#E0A4" x="8976" y="1260" height="720px" width="720px" />
									<g class="stem">
										<rect x="9184" y="570" height="668" width="18" />
									</g>
									<g class="accid" id="accid-0000000641777887">
										<use xlink:href="#E262" x="8781" y="1260" height="720px" width="720px" />
									</g>
								</g>
								<g class="note" id="note-L24F2">
									<use xlink:href="#E0A4" x="9530" y="1170" height="720px" width="720px" />
									<g class="dots" id="dots-0000000415280672">
										<ellipse cx="9846" cy="1170" rx="36" ry="36" />
									</g>
									<g class="stem">
										<rect x="9738" y="514" height="634" width="18" />
									</g>
									<g class="accid" id="accid-0000001578776042">
										<use xlink:href="#E262" x="9335" y="1170" height="720px" width="720px" />
									</g>
								</g>
							</g>
							<g class="beam" id="beam-L27F2-L30F2">
								<polygon points="10978,586 12447,731 12447,821 10978,676 " />
								<polygon points="10978,721 12447,866 12447,956 10978,811 " />
								<g class="note" id="note-L27F2">
									<use xlink:href="#E0A4" x="10770" y="1350" height="720px" width="720px" />
									<g class="stem">
										<rect x="10978" y="604" height="724" width="18" />
									</g>
									<g class="accid" id="accid-0000001909562453">
										<use xlink:href="#E262" x="10575" y="1350" height="720px" width="720px" />
									</g>
								</g>
								<g class="note" id="note-L28F2">
									<use xlink:href="#E0A4" x="11324" y="1530" height="720px" width="720px" />
									<g class="stem">
										<rect x="11532" y="660" height="848" width="18" />
									</g>
									<g class="accid" id="accid-0000000835068010">
										<use xlink:href="#E262" x="11129" y="1530" height="720px" width="720px" />
									</g>
								</g>
								<g class="note" id="note-L29F2">
									<use xlink:href="#E0A4" x="11667" y="1350" height="720px" width="720px" />
									<g class="stem">
										<rect x="11875" y="694" height="634" width="18" />
									</g>
									<g class="accid" id="accid-0000002114230784" />
								</g>
								<g class="note" id="note-L30F2">
									<use xlink:href="#E0A4" x="12221" y="1620" height="720px" width="720px" />
									<g class="stem">
										<rect x="12429" y="749" height="849" width="18" />
									</g>
									<g class="accid" id="accid-0000002043442936">
										<use xlink:href="#E262" x="12026" y="1620" height="720px" width="720px" />
									</g>
								</g>
							</g>
						</g>
					</g>
					<g class="staff" id="staff-L22F1N1">
						<path d="M8569 2164 L12592 2164" stroke="#000000" stroke-width="13" />
						<path d="M8569 2344 L12592 2344" stroke="#000000" stroke-width="13" />
						<path d="M8569 2524 L12592 2524" stroke="#000000" stroke-width="13" />
						<path d="M8569 2704 L12592 2704" stroke="#000000" stroke-width="13" />
						<path d="M8569 2884 L12592 2884" stroke="#000000" stroke-width="13" />
						<g class="layer" id="layer-L22F1N1">
							<g class="beam" id="beam-L23F1-L26F1">
								<polygon points="8976,3225 10445,3309 10445,3219 8976,3135 " />
								<polygon points="8976,3090 10445,3174 10445,3084 8976,3000 " />
								<g class="note" id="note-L23F1">
									<use xlink:href="#E0A4" x="8976" y="2524" height="720px" width="720px" />
									<g class="stem">
										<rect x="8976" y="2546" height="661" width="18" />
									</g>
									<g class="accid" id="accid-0000001765515271">
										<use xlink:href="#E262" x="8781" y="2524" height="720px" width="720px" />
									</g>
								</g>
								<g class="note" id="note-L24F1">
									<use xlink:href="#E0A4" x="9530" y="2344" height="720px" width="720px" />
									<g class="stem">
										<rect x="9530" y="2366" height="873" width="18" />
									</g>
									<g class="accid" id="accid-0000001460981948">
										<use xlink:href="#E262" x="9335" y="2344" height="720px" width="720px" />
									</g>
								</g>
								<g class="note" id="note-L25F1">
									<use xlink:href="#E0A4" x="10084" y="2614" height="720px" width="720px" />
									<g class="stem">
										<rect x="10084" y="2636" height="635" width="18" />
									</g>
									<g class="accid" id="accid-0000002055172601">
										<use xlink:href="#E262" x="9889" y="2614" height="720px" width="720px" />
									</g>
								</g>
								<g class="note" id="note-L26F1">
									<use xlink:href="#E0A4" x="10427" y="2524" height="720px" width="720px" />
									<g class="stem">
										<rect x="10427" y="2546" height="745" width="18" />
									</g>
									<g class="accid" id="accid-0000000403679523" />
								</g>
							</g>
							<g class="beam" id="beam-L27F1-L30F1">
								<polygon points="10770,3435 12239,3289 12239,3199 10770,3345 " />
								<polygon points="10770,3300 10928,3285 10928,3195 10770,3210 " />
								<polygon points="12081,3169 12239,3154 12239,3064 12081,3079 " />
								<g class="note" id="note-L27F1">
									<use xlink:href="#E0A4" x="10770" y="2524" height="720px" width="720px" />
									<g class="stem">
										<rect x="10770" y="2546" height="871" width="18" />
									</g>
									<g class="accid" id="accid-0000000085796967" />
								</g>
								<g class="note" id="note-L28F1">
									<use xlink:href="#E0A4" x="11324" y="2704" height="720px" width="720px" />
									<g class="stem">
										<rect x="11324" y="2726" height="635" width="18" />
									</g>
									<g class="accid" id="accid-0000000576754462" />
								</g>
								<g class="note" id="note-L30F1">
									<use xlink:href="#E0A4" x="12221" y="2344" height="720px" width="720px" />
									<g class="stem">
										<rect x="12221" y="2366" height="905" width="18" />
									</g>
									<g class="accid" id="accid-0000000500754156" />
								</g>
							</g>
						</g>
					</g>
					<g class="tie" id="tie-L26F1-L27F1">
						<path d="M10540,2389 C10625,2247 10795,2247 10883,2389 C10795,2291 10625,2291 10540,2389" stroke="#000000" stroke-linecap="round" stroke-linejoin="round" stroke-width="9" />
					</g>
					<g class="mNum autogenerated" id="mnum-0000001938596296" />
					<g class="barLineAttr" id="bline-0000000751132129">
						<path d="M12579 2884 L12579 720" stroke="#000000" stroke-width="27" />
					</g>
				</g>
				<g class="measure" id="measure-L31">
					<g class="staff" id="staff-L31F2N1">
						<path d="M12592 720 L16403 720" stroke="#000000" stroke-width="13" />
						<path d="M12592 900 L16403 900" stroke="#000000" stroke-width="13" />
						<path d="M12592 1080 L16403 1080" stroke="#000000" stroke-width="13" />
						<path d="M12592 1260 L16403 1260" stroke="#000000" stroke-width="13" />
						<path d="M12592 1440 L16403 1440" stroke="#000000" stroke-width="13" />
						<g class="layer" id="layer-L31F2N1">
							<g class="beam" id="beam-L32F2-L33F2">
								<polygon points="13207,732 13779,676 13779,766 13207,822 " />
								<polygon points="13207,867 13365,852 13365,942 13207,957 " />
								<g class="note" id="note-L32F2">
									<use xlink:href="#E0A4" x="12999" y="1440" height="720px" width="720px" />
									<g class="stem">
										<rect x="13207" y="750" height="668" width="18" />
									</g>
									<g class="accid" id="accid-0000002008114627">
										<use xlink:href="#E262" x="12804" y="1440" height="720px" width="720px" />
									</g>
								</g>
								<g class="note" id="note-L33F2">
									<use xlink:href="#E0A4" x="13553" y="1350" height="720px" width="720px" />
									<g class="dots" id="dots-0000000627714761">
										<ellipse cx="13869" cy="1350" rx="36" ry="36" />
									</g>
									<g class="stem">
										<rect x="13761" y="694" height="634" width="18" />
									</g>
									<g class="accid" id="accid-0000000802126591">
										<use xlink:href="#E262" x="13358" y="1350" height="720px" width="720px" />
									</g>
								</g>
							</g>
							<g class="beam" id="beam-L36F2-L39F2">
								<polygon points="15001,458 16258,386 16258,476 15001,548 " />
								<polygon points="15001,593 16258,521 16258,611 15001,683 " />
								<g class="note" id="note-L36F2">
									<use xlink:href="#E0A4" x="14793" y="1440" height="720px" width="720px" />
									<g class="stem">
										<rect x="15001" y="476" height="942" width="18" />
									</g>
									<g class="accid" id="accid-0000000501992856" />
								</g>
								<g class="note" id="note-L37F2">
									<use xlink:href="#E0A4" x="15347" y="1170" height="720px" width="720px" />
									<g class="stem">
										<rect x="15555" y="444" height="704" width="18" />
									</g>
									<g class="accid" id="accid-0000002022738381">
										<use xlink:href="#E262" x="15152" y="1170" height="720px" width="720px" />
									</g>
								</g>
								<g class="note" id="note-L38F2">
									<use xlink:href="#E0A4" x="15690" y="1080" height="720px" width="720px" />
									<g class="stem">
										<rect x="15898" y="424" height="634" width="18" />
									</g>
									<g class="accid" id="accid-0000001350829665" />
								</g>
								<g class="note" id="note-L39F2">
									<use xlink:href="#E0A4" x="16032" y="1440" height="720px" width="720px" />
									<g class="stem">
										<rect x="16240" y="404" height="1014" width="18" />
									</g>
									<g class="accid" id="accid-0000000627654123" />
								</g>
							</g>
						</g>
					</g>
					<g class="staff" id="staff-L31F1N1">
						<path d="M12592 2164 L16403 2164" stroke="#000000" stroke-width="13" />
						<path d="M12592 2344 L16403 2344" stroke="#000000" stroke-width="13" />
						<path d="M12592 2524 L16403 2524" stroke="#000000" stroke-width="13" />
						<path d="M12592 2704 L16403 2704" stroke="#000000" stroke-width="13" />
						<path d="M12592 2884 L16403 2884" stroke="#000000" stroke-width="13" />
						<g class="ledgerLines above">
							<path d="M13522 1984 L13801 1984" stroke="#000000" stroke-width="22" />
						</g>
						<g class="layer" id="layer-L31F1N1">
							<g class="beam" id="beam-L32F1-L35F1">
								<polygon points="12999,2840 14468,2986 14468,2896 12999,2750 " />
								<polygon points="12999,2705 14468,2851 14468,2761 12999,2615 " />
								<g class="note" id="note-L32F1">
									<use xlink:href="#E0A4" x="12999" y="2164" height="720px" width="720px" />
									<g class="stem">
										<rect x="12999" y="2186" height="636" width="18" />
									</g>
									<g class="accid" id="accid-0000000345890599">
										<use xlink:href="#E262" x="12804" y="2164" height="720px" width="720px" />
									</g>
								</g>
								<g class="note" id="note-L33F1">
									<use xlink:href="#E0A4" x="13553" y="1894" height="720px" width="720px" />
									<g class="stem">
										<rect x="13553" y="1916" height="962" width="18" />
									</g>
									<g class="accid" id="accid-0000000712910603">
										<use xlink:href="#E262" x="13358" y="1894" height="720px" width="720px" />
									</g>
								</g>
								<g class="note" id="note-L34F1">
									<use xlink:href="#E0A4" x="13896" y="2164" height="720px" width="720px" />
									<g class="stem">
										<rect x="13896" y="2186" height="726" width="18" />
									</g>
									<g class="accid" id="accid-0000001852056246" />
								</g>
								<g class="note" id="note-L35F1">
									<use xlink:href="#E0A4" x="14450" y="2254" height="720px" width="720px" />
									<g class="stem">
										<rect x="14450" y="2276" height="692" width="18" />
									</g>
									<g class="accid" id="accid-0000000248197100">
										<use xlink:href="#E262" x="14255" y="2254" height="720px" width="720px" />
									</g>
								</g>
							</g>
							<g class="beam" id="beam-L36F1-L39F1">
								<polygon points="14793,3064 16050,2965 16050,2875 14793,2974 " />
								<polygon points="14793,2929 14951,2917 14951,2827 14793,2839 " />
								<polygon points="15892,2842 16050,2830 16050,2740 15892,2752 " />
								<g class="note" id="note-L36F1">
									<use xlink:href="#E0A4" x="14793" y="2254" height="720px" width="720px" />
									<g class="stem">
										<rect x="14793" y="2276" height="770" width="18" />
									</g>
									<g class="accid" id="accid-0000001531956597" />
								</g>
								<g class="note" id="note-L37F1">
									<use xlink:href="#E0A4" x="15347" y="2344" height="720px" width="720px" />
									<g class="stem">
										<rect x="15347" y="2366" height="635" width="18" />
									</g>
									<g class="accid" id="accid-0000000645773899">
										<use xlink:href="#E262" x="15152" y="2344" height="720px" width="720px" />
									</g>
								</g>
								<g class="note" id="note-L39F1">
									<use xlink:href="#E0A4" x="16032" y="2164" height="720px" width="720px" />
									<g class="stem">
										<rect x="16032" y="2186" height="761" width="18" />
									</g>
									<g class="accid" id="accid-0000000676561361" />
								</g>
							</g>
						</g>
					</g>
					<g class="tie" id="tie-L35F1-L36F1">
						<path d="M14563,2119 C14648,1977 14818,1977 14906,2119 C14818,2021 14648,2021 14563,2119" stroke="#000000" stroke-linecap="round" stroke-linejoin="round" stroke-width="9" />
					</g>
					<g class="mNum autogenerated" id="mnum-0000001886295508" />
					<g class="barLineAttr" id="bline-0000000485427860">
						<path d="M16390 2884 L16390 720" stroke="#000000" stroke-width="27" />
					</g>
				</g>
				<g class="measure" id="measure-L40">
					<g class="staff" id="staff-L40F2N1">
						<path d="M16403 720 L20003 720" stroke="#000000" stroke-width="13" />
						<path d="M16403 900 L20003 900" stroke="#000000" stroke-width="13" />
						<path d="M16403 1080 L20003 1080" stroke="#000000" stroke-width="13" />
						<path d="M16403 1260 L20003 1260" stroke="#000000" stroke-width="13" />
						<path d="M16403 1440 L20003 1440" stroke="#000000" stroke-width="13" />
						<g class="ledgerLines below">
							<path d="M19601 1620 L19880 1620" stroke="#000000" stroke-width="22" />
						</g>
						<g class="layer" id="layer-L40F2N1">
							<g class="beam" id="beam-L41F2-L42F2">
								<polygon points="16807,462 17379,406 17379,496 16807,552 " />
								<polygon points="16807,597 16965,582 16965,672 16807,687 " />
								<g class="note" id="note-L41F2">
									<use xlink:href="#E0A4" x="16599" y="1170" height="720px" width="720px" />
									<g class="stem">
										<rect x="16807" y="480" height="668" width="18" />
									</g>
									<g class="accid" id="accid-0000001217643135" />
								</g>
								<g class="note" id="note-L42F2">
									<use xlink:href="#E0A4" x="17153" y="1080" height="720px" width="720px" />
									<g class="dots" id="dots-0000000208329634">
										<ellipse cx="17469" cy="990" rx="36" ry="36" />
									</g>
									<g class="stem">
										<rect x="17361" y="424" height="634" width="18" />
									</g>
									<g class="accid" id="accid-0000001558237267" />
								</g>
							</g>
							<g class="beam" id="beam-L45F2-L48F2">
								<polygon points="18600,607 19858,731 19858,821 18600,697 " />
								<polygon points="18600,742 19858,866 19858,956 18600,832 " />
								<g class="note" id="note-L45F2">
									<use xlink:href="#E0A4" x="18392" y="1350" height="720px" width="720px" />
									<g class="stem">
										<rect x="18600" y="625" height="703" width="18" />
									</g>
									<g class="accid" id="accid-0000000403389807">
										<use xlink:href="#E262" x="18197" y="1350" height="720px" width="720px" />
									</g>
								</g>
								<g class="note" id="note-L46F2">
									<use xlink:href="#E0A4" x="18735" y="1530" height="720px" width="720px" />
									<g class="stem">
										<rect x="18943" y="660" height="848" width="18" />
									</g>
									<g class="accid" id="accid-0000002087952649" />
								</g>
								<g class="note" id="note-L47F2">
									<use xlink:href="#E0A4" x="19078" y="1350" height="720px" width="720px" />
									<g class="stem">
										<rect x="19286" y="694" height="634" width="18" />
									</g>
									<g class="accid" id="accid-0000000423322170" />
								</g>
								<g class="note" id="note-L48F2">
									<use xlink:href="#E0A4" x="19632" y="1620" height="720px" width="720px" />
									<g class="stem">
										<rect x="19840" y="749" height="849" width="18" />
									</g>
									<g class="accid" id="accid-0000001962296263">
										<use xlink:href="#E262" x="19437" y="1620" height="720px" width="720px" />
									</g>
								</g>
							</g>
						</g>
					</g>
					<g class="staff" id="staff-L40F1N1">
						<path d="M16403 2164 L20003 2164" stroke="#000000" stroke-width="13" />
						<path d="M16403 2344 L20003 2344" stroke="#000000" stroke-width="13" />
						<path d="M16403 2524 L20003 2524" stroke="#000000" stroke-width="13" />
						<path d="M16403 2704 L20003 2704" stroke="#000000" stroke-width="13" />
						<path d="M16403 2884 L20003 2884" stroke="#000000" stroke-width="13" />
						<g class="layer" id="layer-L40F1N1">
							<g class="beam" id="beam-L41F1-L44F1">
								<polygon points="16599,3225 18068,3309 18068,3219 16599,3135 " />
								<polygon points="16599,3090 18068,3174 18068,3084 16599,3000 " />
								<g class="note" id="note-L41F1">
									<use xlink:href="#E0A4" x="16599" y="2524" height="720px" width="720px" />
									<g class="stem">
										<rect x="16599" y="2546" height="661" width="18" />
									</g>
									<g class="accid" id="accid-0000000048819717" />
								</g>
								<g class="note" id="note-L42F1">
									<use xlink:href="#E0A4" x="17153" y="2344" height="720px" width="720px" />
									<g class="stem">
										<rect x="17153" y="2366" height="873" width="18" />
									</g>
									<g class="accid" id="accid-0000001271214394">
										<use xlink:href="#E262" x="16958" y="2344" height="720px" width="720px" />
									</g>
								</g>
								<g class="note" id="note-L43F1">
									<use xlink:href="#E0A4" x="17707" y="2614" height="720px" width="720px" />
									<g class="stem">
										<rect x="17707" y="2636" height="635" width="18" />
									</g>
									<g class="accid" id="accid-0000001379791443">
										<use xlink:href="#E262" x="17512" y="2614" height="720px" width="720px" />
									</g>
								</g>
								<g class="note" id="note-L44F1">
									<use xlink:href="#E0A4" x="18050" y="2524" height="720px" width="720px" />
									<g class="stem">
										<rect x="18050" y="2546" height="745" width="18" />
									</g>
									<g class="accid" id="accid-0000001097552349" />
								</g>
							</g>
							<g class="beam" id="beam-L45F1-L48F1">
								<polygon points="18392,3414 19650,3290 19650,3200 18392,3324 " />
								<polygon points="18392,3279 18550,3264 18550,3174 18392,3189 " />
								<polygon points="19492,3169 19650,3155 19650,3065 19492,3079 " />
								<g class="note" id="note-L45F1">
									<use xlink:href="#E0A4" x="18392" y="2524" height="720px" width="720px" />
									<g class="stem">
										<rect x="18392" y="2546" height="850" width="18" />
									</g>
									<g class="accid" id="accid-0000000627195265" />
								</g>
								<g class="note" id="note-L46F1">
									<use xlink:href="#E0A4" x="18735" y="2704" height="720px" width="720px" />
									<g class="stem">
										<rect x="18735" y="2726" height="635" width="18" />
									</g>
									<g class="accid" id="accid-0000001915484566" />
								</g>
								<g class="note" id="note-L48F1">
									<use xlink:href="#E0A4" x="19632" y="2344" height="720px" width="720px" />
									<g class="stem">
										<rect x="19632" y="2366" height="906" width="18" />
									</g>
									<g class="accid" id="accid-0000000073041793" />
								</g>
							</g>
						</g>
					</g>
					<g class="tie" id="tie-L44F1-L45F1">
						<path d="M18163,2389 C18248,2247 18418,2247 18505,2389 C18418,2291 18248,2291 18163,2389" stroke="#000000" stroke-linecap="round" stroke-linejoin="round" stroke-width="9" />
					</g>
					<g class="mNum autogenerated" id="mnum-0000001947145206" />
					<g class="barLineAttr" id="bline-0000001706729190">
						<path d="M19990 2884 L19990 720" stroke="#000000" stroke-width="27" />
					</g>
				</g>
			</g>
		</g>
	</svg>
</svg>
