<?xml version="1.0" encoding="UTF-8" standalone="no"?>
<svg width="2100.00px" height="450.00px" version="1.1" xmlns="http://www.w3.org/2000/svg" xmlns:xlink="http://www.w3.org/1999/xlink" overflow="visible">
	<desc>Engraved by Verovio 2.0.0-dev-0f0381c</desc>
	<defs>
		<symbol id="E050" viewBox="0 0 1000 1000" overflow="inherit">
			<path transform="scale(1,-1)" d="M441 -245c-23 -4 -48 -6 -76 -6c-59 0 -102 7 -130 20c-88 42 -150 93 -187 154c-26 44 -43 103 -48 176c-4 60 11 123 44 189c29 57 65 106 110 148s96 85 153 127c-3 16 -8 46 -13 92c-4 43 -5 73 -5 89c0 117 16 172 69 257c34 54 64 82 89 82c21 0 43 -30 69 -92 s39 -115 41 -159c2 -120 -19 -173 -67 -256c-13 -20 -63 -90 -98 -118c-13 -9 -25 -19 -37 -29l31 -181c8 1 18 2 28 2c58 0 102 -12 133 -35c59 -43 92 -104 98 -184c11 -135 -80 -229 -180 -270c8 -57 17 -110 25 -162c5 -31 6 -58 6 -80c0 -30 -5 -53 -14 -70 c-35 -64 -88 -99 -158 -103c-42 -3 -83 6 -124 26c-50 24 -77 59 -80 105c-2 34 5 63 20 87c18 28 45 42 79 44c51 4 99 -40 103 -87c4 -56 -30 -94 -105 -115c17 -24 51 -36 102 -36c62 0 116 43 140 85c9 16 13 41 13 74c0 20 -1 42 -5 67c-8 53 -18 106 -26 159zM461 939 c-95 0 -135 -175 -135 -286c0 -24 2 -48 5 -71c50 39 92 82 127 128c43 57 63 106 60 148c-4 54 -23 82 -57 81zM406 119l54 -326c80 27 116 88 109 184c-7 99 -62 146 -163 142zM382 117c-74 -2 -132 -50 -128 -127c2 -46 43 -99 75 -115c-3 -2 -7 -5 -10 -10 c-70 33 -116 88 -123 172c-5 73 42 135 88 170c23 17 49 29 78 36l-29 170c-21 -13 -52 -37 -92 -73c-50 -44 -86 -84 -109 -119c-49 -75 -71 -140 -67 -195c5 -68 35 -127 93 -176s125 -73 203 -73c25 0 50 3 75 9c-19 111 -36 221 -54 331z" />
		</symbol>
		<symbol id="E082" viewBox="0 0 1000 1000" overflow="inherit">
			<path transform="scale(1,-1)" d="M104 -185c-18 0 -55 -14 -65 -65h-36l-3 29c0 25 6 46 18 64c11 19 22 30 39 43l121 82l37 29c15 11 27 29 38 54c12 24 18 47 18 70c0 40 -19 88 -94 88c-25 0 -32 0 -50 -8c-14 -5 -23 -12 -26 -22c3 -9 7 -15 10 -18l24 -17c12 -7 17 -11 27 -21c5 -7 7 -16 7 -27 c0 -12 0 -57 -79 -74c-30 0 -76 26 -76 94c0 66 80 135 196 135c72 0 182 -32 182 -150c0 -53 -32 -95 -113 -133l-91 -41c-26 -11 -45 -23 -57 -37l49 7c84 0 115 -41 148 -41c20 0 33 20 39 61h35c0 -152 -68 -168 -114 -168c-17 0 -55 0 -69 7v0l-28 17 c-49 37 -69 40 -87 42z" />
		</symbol>
		<symbol id="E084" viewBox="0 0 1000 1000" overflow="inherit">
			<path transform="scale(1,-1)" d="M0 -78c84 97 114 180 134 329h170c-13 -32 -82 -132 -99 -151l-84 -97c-33 -36 -59 -63 -80 -81h162v102l127 123v-225h57v-39h-57v-34c0 -43 19 -65 57 -65v-34h-244v36c48 0 60 26 60 70v27h-203v39z" />
		</symbol>
		<symbol id="E4E5" viewBox="0 0 1000 1000" overflow="inherit">
			<path transform="scale(1,-1)" d="M107 292c-13 24 -30 49 -52 71c-1 1 0 2 0 3l-2 2c3 3 4 4 6 4c12 0 26 -7 40 -20s44 -40 89 -81c26 -24 28 -29 46 -47c4 -4 8 -9 10 -14c6 -8 8 -16 8 -27c0 -19 -12 -40 -36 -61c-28 -23 -49 -38 -61 -73c-4 -11 -7 -27 -10 -50c13 -43 34 -83 59 -121 c31 -47 59 -79 101 -129c-8 0 -26 7 -54 20l-62 29l-21 6l-23 1c-25 0 -45 -10 -60 -30l-4 -14l-1 -12c0 -33 20 -56 39 -78c8 -9 17 -18 26 -26c17 -15 27 -24 28 -30l-3 -3c-11 5 -19 10 -25 15c-9 3 -37 21 -45 26c-24 14 -45 32 -63 51c-19 21 -37 44 -37 71 c0 63 27 95 80 95c41 0 86 -18 136 -52c-19 26 -37 48 -55 66c-23 23 -48 44 -73 65c-28 23 -47 40 -58 53s-17 26 -18 39c75 64 113 125 113 183c0 27 -7 48 -18 68z" />
		</symbol>
		<symbol id="E0A4" viewBox="0 0 1000 1000" overflow="inherit">
			<path transform="scale(1,-1)" d="M0 -39c0 68 73 172 200 172c66 0 114 -37 114 -95c0 -84 -106 -171 -218 -171c-64 0 -96 30 -96 94z" />
		</symbol>
		<symbol id="E062" viewBox="0 0 1000 1000" overflow="inherit">
			<path transform="scale(1,-1)" d="M158 96c51 0 73 -14 88 -49l16 -39c0 -17 -2 -30 -7 -40c-3 -11 -10 -21 -19 -31c-17 -18 -49 -43 -84 -43c-55 0 -77 13 -112 44c-24 21 -35 55 -35 100c0 46 14 81 32 112c30 52 71 79 137 93l36 6l26 2c154 0 235 -68 274 -182c11 -32 18 -68 18 -107 c0 -103 -26 -182 -68 -250c-89 -145 -234 -230 -412 -288l-30 -5c-9 0 -14 3 -14 8c3 10 5 11 10 16c35 15 70 30 96 44l78 43c96 57 162 136 197 258c9 33 17 60 22 100c3 22 5 35 6 39c-7 69 -16 115 -23 140s-4 22 -16 40c-8 12 -19 23 -31 34c-24 21 -62 44 -118 44 c-48 0 -84 -8 -113 -28c-28 -19 -42 -44 -42 -73v-16c2 -5 3 -9 4 -11c24 22 52 39 84 39zM585 -118c0 32 23 58 57 58c18 0 33 -6 40 -18c9 -15 16 -18 16 -40c0 -9 -2 -16 -5 -21c-6 -19 -27 -37 -51 -37c-34 0 -57 26 -57 58zM642 177c31 0 56 -27 56 -58 c0 -30 -25 -58 -56 -58l-23 3c-19 7 -34 32 -34 55l3 23c9 20 28 35 54 35z" />
		</symbol>
		<symbol id="E260" viewBox="0 0 1000 1000" overflow="inherit">
			<path transform="scale(1,-1)" d="M20 110c32 16 54 27 93 27c26 0 35 -3 54 -13c13 -7 24 -20 27 -38l4 -25c0 -28 -16 -57 -45 -89c-23 -25 -39 -44 -65 -68l-88 -79v644h20v-359zM90 106c-32 0 -48 -10 -70 -29v-194c31 31 54 59 71 84c21 32 32 59 32 84c0 9 1 16 1 20c0 14 -3 21 -11 30l-8 3z" />
		</symbol>
		<symbol id="E262" viewBox="0 0 1000 1000" overflow="inherit">
			<path transform="scale(1,-1)" d="M136 186v169h17v-164l44 14v-91l-44 -14v-165l44 12v-91l-44 -13v-155h-17v150l-76 -22v-155h-17v149l-43 -13v90l43 14v167l-43 -14v92l43 13v169h17v-163zM60 73v-167l76 22v168z" />
		</symbol>
	</defs>
	<style type="text/css">g.page-margin{font-family:Times;} g.tempo{font-weight:bold;} g.dir, g.dynam, g.mNum{font-style:italic;} g.label{font-weight:normal;}</style>
	<svg class="definition-scale" viewBox="0 0 21000 4500">
		<g class="page-margin" transform="translate(500, 500)">
			<g class="system" id="system-0000001327999916">
				<path d="M13 720 L13 2959" stroke="#000000" stroke-width="27" />
				<path d="M-32,2941 C-392,2401 58,2020 -212,1840 C121,2020 -329,2401 -32,2941" stroke="#000000" stroke-linecap="round" stroke-linejoin="round" stroke-width="18" />
				<path d="M-32,738 C-329,1278 121,1660 -212,1840 C58,1660 -392,1278 -32,738" stroke="#000000" stroke-linecap="round" stroke-linejoin="round" stroke-width="18" />
				<g class="section boundaryStart" id="section-L1F1" />
				<g class="measure" id="measure-L4">
					<g class="staff" id="staff-L4F2N1">
						<path d="M0 720 L4398 720" stroke="#000000" stroke-width="13" />
						<path d="M0 900 L4398 900" stroke="#000000" stroke-width="13" />
						<path d="M0 1080 L4398 1080" stroke="#000000" stroke-width="13" />
						<path d="M0 1260 L4398 1260" stroke="#000000" stroke-width="13" />
						<path d="M0 1440 L4398 1440" stroke="#000000" stroke-width="13" />
						<g class="clef" id="clef-0000001633805935">
							<use xlink:href="#E050" x="90" y="1260" height="720px" width="720px" />
						</g>
						<g class="meterSig" id="msig-0000001650439003">
							<use xlink:href="#E082" x="771" y="900" height="720px" width="720px" />
							<use xlink:href="#E084" x="777" y="1260" height="720px" width="720px" />
						</g>
						<g class="layer" id="layer-L4F2N1">
							<g class="rest" id="rest-L5F2">
								<use xlink:href="#E4E5" x="1380" y="1080" height="720px" width="720px" />
							</g>
							<g class="beam" id="beam-L9F2-L11F2">
								<polygon points="3197,586 4191,684 4191,774 3197,676 " />
								<polygon points="3779,779 4191,819 4191,909 3779,869 " />
								<g class="note" id="note-L9F2">
									<use xlink:href="#E0A4" x="2989" y="1260" height="720px" width="720px" />
									<g class="stem">
										<rect x="3197" y="604" height="634" width="18" />
									</g>
									<g class="accid" id="accid-0000001106010567" />
								</g>
								<g class="note" id="note-L10F2">
									<use xlink:href="#E0A4" x="3562" y="1350" height="720px" width="720px" />
									<g class="stem">
										<rect x="3770" y="662" height="666" width="18" />
									</g>
									<g class="accid" id="accid-0000001387594782" />
								</g>
								<g class="note" id="note-L11F2">
									<use xlink:href="#E0A4" x="3965" y="1440" height="720px" width="720px" />
									<g class="stem">
										<rect x="4173" y="702" height="716" width="18" />
									</g>
									<g class="accid" id="accid-0000000994883962" />
								</g>
							</g>
						</g>
					</g>
					<g class="staff" id="staff-L4F1N1">
						<path d="M0 2239 L4398 2239" stroke="#000000" stroke-width="13" />
						<path d="M0 2419 L4398 2419" stroke="#000000" stroke-width="13" />
						<path d="M0 2599 L4398 2599" stroke="#000000" stroke-width="13" />
						<path d="M0 2779 L4398 2779" stroke="#000000" stroke-width="13" />
						<path d="M0 2959 L4398 2959" stroke="#000000" stroke-width="13" />
						<g class="clef" id="clef-0000002029538769">
							<use xlink:href="#E062" x="90" y="2419" height="720px" width="720px" />
						</g>
						<g class="meterSig" id="msig-0000001975325282">
							<use xlink:href="#E082" x="771" y="2419" height="720px" width="720px" />
							<use xlink:href="#E084" x="777" y="2779" height="720px" width="720px" />
						</g>
						<g class="layer" id="layer-L4F1N1">
							<g class="beam" id="beam-L5F1-L8F1">
								<polygon points="1588,1956 2813,1835 2813,1925 1588,2046 " />
								<polygon points="1588,2091 2813,1970 2813,2060 1588,2181 " />
								<g class="note" id="note-L5F1">
									<use xlink:href="#E0A4" x="1380" y="2689" height="720px" width="720px" />
									<g class="stem">
										<rect x="1588" y="1974" height="693" width="18" />
									</g>
									<g class="accid" id="accid-0000002105422047" />
								</g>
								<g class="note" id="note-L6F1">
									<use xlink:href="#E0A4" x="1782" y="2599" height="720px" width="720px" />
									<g class="stem">
										<rect x="1990" y="1934" height="643" width="18" />
									</g>
									<g class="accid" id="accid-0000000365582030" />
								</g>
								<g class="note" id="note-L7F1">
									<use xlink:href="#E0A4" x="2184" y="2689" height="720px" width="720px" />
									<g class="stem">
										<rect x="2392" y="1893" height="774" width="18" />
									</g>
									<g class="accid" id="accid-0000001312302873" />
								</g>
								<g class="note" id="note-L8F1">
									<use xlink:href="#E0A4" x="2587" y="2509" height="720px" width="720px" />
									<g class="stem">
										<rect x="2795" y="1853" height="634" width="18" />
									</g>
									<g class="accid" id="accid-0000000619210578" />
								</g>
							</g>
							<g class="beam" id="beam-L9F1-L11F1">
								<polygon points="3197,1827 4191,1925 4191,2015 3197,1917 " />
								<polygon points="3779,2020 4191,2060 4191,2150 3779,2110 " />
								<g class="note" id="note-L9F1">
									<use xlink:href="#E0A4" x="2989" y="2509" height="720px" width="720px" />
									<g class="stem">
										<rect x="3197" y="1845" height="642" width="18" />
									</g>
									<g class="accid" id="accid-0000000636219418" />
								</g>
								<g class="note" id="note-L10F1">
									<use xlink:href="#E0A4" x="3562" y="2779" height="720px" width="720px" />
									<g class="stem">
										<rect x="3770" y="1903" height="854" width="18" />
									</g>
									<g class="accid" id="accid-0000000037479017" />
								</g>
								<g class="note" id="note-L11F1">
									<use xlink:href="#E0A4" x="3965" y="2599" height="720px" width="720px" />
									<g class="stem">
										<rect x="4173" y="1943" height="634" width="18" />
									</g>
									<g class="accid" id="accid-0000002143103051" />
								</g>
							</g>
						</g>
					</g>
					<g class="tie" id="tie-L8F1-L9F1">
						<path d="M2700,2644 C2800,2742 3000,2742 3102,2644 C3000,2786 2800,2786 2700,2644" stroke="#000000" stroke-linecap="round" stroke-linejoin="round" stroke-width="9" />
					</g>
					<g class="mNum autogenerated" id="mnum-0000000936947932" />
					<g class="barLineAttr" id="bline-0000000023403848">
						<path d="M4385 2959 L4385 720" stroke="#000000" stroke-width="27" />
					</g>
				</g>
				<g class="measure" id="measure-L12">
					<g class="staff" id="staff-L12F2N1">
						<path d="M4398 720 L7878 720" stroke="#000000" stroke-width="13" />
						<path d="M4398 900 L7878 900" stroke="#000000" stroke-width="13" />
						<path d="M4398 1080 L7878 1080" stroke="#000000" stroke-width="13" />
						<path d="M4398 1260 L7878 1260" stroke="#000000" stroke-width="13" />
						<path d="M4398 1440 L7878 1440" stroke="#000000" stroke-width="13" />
						<g class="ledgerLines below">
							<path d="M4597 1620 L4876 1620" stroke="#000000" stroke-width="22" />
						</g>
						<g class="layer" id="layer-L12F2N1">
							<g class="beam" id="beam-L13F2-L16F2">
								<polygon points="4836,437 6061,316 6061,406 4836,527 " />
								<polygon points="4836,572 6061,451 6061,541 4836,662 " />
								<g class="note" id="note-L13F2">
									<use xlink:href="#E0A4" x="4628" y="1620" height="720px" width="720px" />
									<g class="stem">
										<rect x="4836" y="455" height="1143" width="18" />
									</g>
									<g class="accid" id="accid-0000000376605266" />
								</g>
								<g class="note" id="note-L14F2">
									<use xlink:href="#E0A4" x="5030" y="1440" height="720px" width="720px" />
									<g class="stem">
										<rect x="5238" y="415" height="1003" width="18" />
									</g>
									<g class="accid" id="accid-0000001487580753" />
								</g>
								<g class="note" id="note-L15F2">
									<use xlink:href="#E0A4" x="5432" y="1350" height="720px" width="720px" />
									<g class="stem">
										<rect x="5640" y="374" height="954" width="18" />
									</g>
									<g class="accid" id="accid-0000002005676090" />
								</g>
								<g class="note" id="note-L16F2">
									<use xlink:href="#E0A4" x="5835" y="990" height="720px" width="720px" />
									<g class="stem">
										<rect x="6043" y="334" height="634" width="18" />
									</g>
									<g class="accid" id="accid-0000001310467598" />
								</g>
							</g>
							<g class="beam" id="beam-L17F2-L20F2">
								<polygon points="6445,275 7670,396 7670,486 6445,365 " />
								<polygon points="6445,410 7670,531 7670,621 6445,500 " />
								<g class="note" id="note-L17F2">
									<use xlink:href="#E0A4" x="6237" y="1080" height="720px" width="720px" />
									<g class="stem">
										<rect x="6445" y="293" height="765" width="18" />
									</g>
									<g class="accid" id="accid-0000001316281377" />
								</g>
								<g class="note" id="note-L18F2">
									<use xlink:href="#E0A4" x="6640" y="990" height="720px" width="720px" />
									<g class="stem">
										<rect x="6848" y="334" height="634" width="18" />
									</g>
									<g class="accid" id="accid-0000001942659093" />
								</g>
								<g class="note" id="note-L19F2">
									<use xlink:href="#E0A4" x="7042" y="1260" height="720px" width="720px" />
									<g class="stem">
										<rect x="7250" y="374" height="864" width="18" />
									</g>
									<g class="accid" id="accid-0000000449746397" />
								</g>
								<g class="note" id="note-L20F2">
									<use xlink:href="#E0A4" x="7444" y="1350" height="720px" width="720px" />
									<g class="stem">
										<rect x="7652" y="414" height="914" width="18" />
									</g>
									<g class="accid" id="accid-0000000615765891" />
								</g>
							</g>
						</g>
					</g>
					<g class="staff" id="staff-L12F1N1">
						<path d="M4398 2239 L7878 2239" stroke="#000000" stroke-width="13" />
						<path d="M4398 2419 L7878 2419" stroke="#000000" stroke-width="13" />
						<path d="M4398 2599 L7878 2599" stroke="#000000" stroke-width="13" />
						<path d="M4398 2779 L7878 2779" stroke="#000000" stroke-width="13" />
						<path d="M4398 2959 L7878 2959" stroke="#000000" stroke-width="13" />
						<g class="layer" id="layer-L12F1N1">
							<g class="beam" id="beam-L13F1-L14F1">
								<polygon points="4628,3454 5048,3413 5048,3323 4628,3364 " />
								<polygon points="4628,3319 4786,3304 4786,3214 4628,3229 " />
								<g class="note" id="note-L13F1">
									<use xlink:href="#E0A4" x="4628" y="2779" height="720px" width="720px" />
									<g class="stem">
										<rect x="4628" y="2801" height="635" width="18" />
									</g>
									<g class="accid" id="accid-0000001375920506" />
								</g>
								<g class="note" id="note-L14F1">
									<use xlink:href="#E0A4" x="5030" y="2329" height="720px" width="720px" />
									<g class="dots" id="dots-0000000583785113">
										<ellipse cx="5346" cy="2329" rx="36" ry="36" />
									</g>
									<g class="stem">
										<rect x="5030" y="2351" height="1044" width="18" />
									</g>
									<g class="accid" id="accid-0000000043091614" />
								</g>
							</g>
							<g class="beam" id="beam-L17F1-L20F1">
								<polygon points="6237,3445 7462,3324 7462,3234 6237,3355 " />
								<polygon points="6237,3310 7462,3189 7462,3099 6237,3220 " />
								<g class="note" id="note-L17F1">
									<use xlink:href="#E0A4" x="6237" y="2689" height="720px" width="720px" />
									<g class="stem">
										<rect x="6237" y="2711" height="716" width="18" />
									</g>
									<g class="accid" id="accid-0000001890588778" />
								</g>
								<g class="note" id="note-L18F1">
									<use xlink:href="#E0A4" x="6640" y="2599" height="720px" width="720px" />
									<g class="stem">
										<rect x="6640" y="2621" height="765" width="18" />
									</g>
									<g class="accid" id="accid-0000000314416420" />
								</g>
								<g class="note" id="note-L19F1">
									<use xlink:href="#E0A4" x="7042" y="2689" height="720px" width="720px" />
									<g class="stem">
										<rect x="7042" y="2711" height="635" width="18" />
									</g>
									<g class="accid" id="accid-0000000950675500" />
								</g>
								<g class="note" id="note-L20F1">
									<use xlink:href="#E0A4" x="7444" y="2329" height="720px" width="720px" />
									<g class="stem">
										<rect x="7444" y="2351" height="955" width="18" />
									</g>
									<g class="accid" id="accid-0000001099293956" />
								</g>
							</g>
						</g>
					</g>
					<g class="mNum autogenerated" id="mnum-0000001246815542" />
					<g class="barLineAttr" id="bline-0000000083350700">
						<path d="M7865 2959 L7865 720" stroke="#000000" stroke-width="27" />
					</g>
				</g>
				<g class="measure" id="measure-L21">
					<g class="staff" id="staff-L21F2N1">
						<path d="M7878 720 L11704 720" stroke="#000000" stroke-width="13" />
						<path d="M7878 900 L11704 900" stroke="#000000" stroke-width="13" />
						<path d="M7878 1080 L11704 1080" stroke="#000000" stroke-width="13" />
						<path d="M7878 1260 L11704 1260" stroke="#000000" stroke-width="13" />
						<path d="M7878 1440 L11704 1440" stroke="#000000" stroke-width="13" />
						<g class="layer" id="layer-L21F2N1">
							<g class="rest" id="rest-L22F2">
								<use xlink:href="#E4E5" x="8108" y="1080" height="720px" width="720px" />
							</g>
							<g class="beam" id="beam-L26F2-L28F2">
								<polygon points="10175,586 11497,717 11497,807 10175,676 " />
								<polygon points="10836,786 11497,852 11497,942 10836,876 " />
								<g class="note" id="note-L26F2">
									<use xlink:href="#E0A4" x="9967" y="1260" height="720px" width="720px" />
									<g class="stem">
										<rect x="10175" y="604" height="634" width="18" />
									</g>
									<g class="accid" id="accid-0000000606286928" />
								</g>
								<g class="note" id="note-L27F2">
									<use xlink:href="#E0A4" x="10619" y="1350" height="720px" width="720px" />
									<g class="stem">
										<rect x="10827" y="669" height="659" width="18" />
									</g>
									<g class="accid" id="accid-0000001050624345" />
								</g>
								<g class="note" id="note-L28F2">
									<use xlink:href="#E0A4" x="11271" y="1440" height="720px" width="720px" />
									<g class="stem">
										<rect x="11479" y="735" height="683" width="18" />
									</g>
									<g class="accid" id="accid-0000001096640011">
										<use xlink:href="#E260" x="11075" y="1440" height="720px" width="720px" />
									</g>
								</g>
							</g>
						</g>
					</g>
					<g class="staff" id="staff-L21F1N1">
						<path d="M7878 2239 L11704 2239" stroke="#000000" stroke-width="13" />
						<path d="M7878 2419 L11704 2419" stroke="#000000" stroke-width="13" />
						<path d="M7878 2599 L11704 2599" stroke="#000000" stroke-width="13" />
						<path d="M7878 2779 L11704 2779" stroke="#000000" stroke-width="13" />
						<path d="M7878 2959 L11704 2959" stroke="#000000" stroke-width="13" />
						<g class="layer" id="layer-L21F1N1">
							<g class="beam" id="beam-L22F1-L25F1">
								<polygon points="8316,1965 9790,1819 9790,1909 8316,2055 " />
								<polygon points="8316,2100 9790,1954 9790,2044 8316,2190 " />
								<g class="note" id="note-L22F1">
									<use xlink:href="#E0A4" x="8108" y="2689" height="720px" width="720px" />
									<g class="stem">
										<rect x="8316" y="1983" height="684" width="18" />
									</g>
									<g class="accid" id="accid-0000000206417987" />
								</g>
								<g class="note" id="note-L23F1">
									<use xlink:href="#E0A4" x="8510" y="2599" height="720px" width="720px" />
									<g class="stem">
										<rect x="8718" y="1943" height="634" width="18" />
									</g>
									<g class="accid" id="accid-0000000951216808" />
								</g>
								<g class="note" id="note-L24F1">
									<use xlink:href="#E0A4" x="8912" y="2689" height="720px" width="720px" />
									<g class="stem">
										<rect x="9120" y="1902" height="765" width="18" />
									</g>
									<g class="accid" id="accid-0000002080745954" />
								</g>
								<g class="note" id="note-L25F1">
									<use xlink:href="#E0A4" x="9564" y="2509" height="720px" width="720px" />
									<g class="stem">
										<rect x="9772" y="1837" height="650" width="18" />
									</g>
									<g class="accid" id="accid-0000001024354706">
										<use xlink:href="#E260" x="9368" y="2509" height="720px" width="720px" />
									</g>
								</g>
							</g>
							<g class="beam" id="beam-L26F1-L28F1">
								<polygon points="9967,3499 11289,3409 11289,3319 9967,3409 " />
								<polygon points="10628,3319 11289,3274 11289,3184 10628,3229 " />
								<g class="note" id="note-L26F1">
									<use xlink:href="#E0A4" x="9967" y="2509" height="720px" width="720px" />
									<g class="stem">
										<rect x="9967" y="2531" height="950" width="18" />
									</g>
									<g class="accid" id="accid-0000001436942589" />
								</g>
								<g class="note" id="note-L27F1">
									<use xlink:href="#E0A4" x="10619" y="2779" height="720px" width="720px" />
									<g class="stem">
										<rect x="10619" y="2801" height="635" width="18" />
									</g>
									<g class="accid" id="accid-0000001816287558">
										<use xlink:href="#E260" x="10423" y="2779" height="720px" width="720px" />
									</g>
								</g>
								<g class="note" id="note-L28F1">
									<use xlink:href="#E0A4" x="11271" y="2419" height="720px" width="720px" />
									<g class="stem">
										<rect x="11271" y="2441" height="950" width="18" />
									</g>
									<g class="accid" id="accid-0000000024208086" />
								</g>
							</g>
						</g>
					</g>
					<g class="tie" id="tie-L25F1-L26F1">
						<path d="M9677,2644 C9777,2742 9977,2742 10080,2644 C9977,2786 9777,2786 9677,2644" stroke="#000000" stroke-linecap="round" stroke-linejoin="round" stroke-width="9" />
					</g>
					<g class="mNum autogenerated" id="mnum-0000001325433332" />
					<g class="barLineAttr" id="bline-0000000577052237">
						<path d="M11691 2959 L11691 720" stroke="#000000" stroke-width="27" />
					</g>
				</g>
				<g class="measure" id="measure-L29">
					<g class="staff" id="staff-L29F2N1">
						<path d="M11704 720 L15932 720" stroke="#000000" stroke-width="13" />
						<path d="M11704 900 L15932 900" stroke="#000000" stroke-width="13" />
						<path d="M11704 1080 L15932 1080" stroke="#000000" stroke-width="13" />
						<path d="M11704 1260 L15932 1260" stroke="#000000" stroke-width="13" />
						<path d="M11704 1440 L15932 1440" stroke="#000000" stroke-width="13" />
						<g class="ledgerLines below">
							<path d="M12152 1620 L12431 1620" stroke="#000000" stroke-width="22" />
						</g>
						<g class="layer" id="layer-L29F2N1">
							<g class="beam" id="beam-L30F2-L33F2">
								<polygon points="12391,462 13866,316 13866,406 12391,552 " />
								<polygon points="12391,597 13866,451 13866,541 12391,687 " />
								<g class="note" id="note-L30F2">
									<use xlink:href="#E0A4" x="12183" y="1620" height="720px" width="720px" />
									<g class="stem">
										<rect x="12391" y="480" height="1118" width="18" />
									</g>
									<g class="accid" id="accid-0000001844384541" />
								</g>
								<g class="note" id="note-L31F2">
									<use xlink:href="#E0A4" x="12835" y="1440" height="720px" width="720px" />
									<g class="stem">
										<rect x="13043" y="415" height="1003" width="18" />
									</g>
									<g class="accid" id="accid-0000000018444548">
										<use xlink:href="#E260" x="12639" y="1440" height="720px" width="720px" />
									</g>
								</g>
								<g class="note" id="note-L32F2">
									<use xlink:href="#E0A4" x="13238" y="1350" height="720px" width="720px" />
									<g class="stem">
										<rect x="13446" y="374" height="954" width="18" />
									</g>
									<g class="accid" id="accid-0000000101405167" />
								</g>
								<g class="note" id="note-L33F2">
									<use xlink:href="#E0A4" x="13640" y="990" height="720px" width="720px" />
									<g class="stem">
										<rect x="13848" y="334" height="634" width="18" />
									</g>
									<g class="accid" id="accid-0000000802017266" />
								</g>
							</g>
							<g class="beam" id="beam-L34F2-L37F2">
								<polygon points="14500,276 15725,397 15725,487 14500,366 " />
								<polygon points="14500,411 15725,532 15725,622 14500,501 " />
								<g class="note" id="note-L34F2">
									<use xlink:href="#E0A4" x="14292" y="1080" height="720px" width="720px" />
									<g class="stem">
										<rect x="14500" y="294" height="764" width="18" />
									</g>
									<g class="accid" id="accid-0000001464389860">
										<use xlink:href="#E260" x="14096" y="1080" height="720px" width="720px" />
									</g>
								</g>
								<g class="note" id="note-L35F2">
									<use xlink:href="#E0A4" x="14694" y="990" height="720px" width="720px" />
									<g class="stem">
										<rect x="14902" y="334" height="634" width="18" />
									</g>
									<g class="accid" id="accid-0000000351501999" />
								</g>
								<g class="note" id="note-L36F2">
									<use xlink:href="#E0A4" x="15097" y="1260" height="720px" width="720px" />
									<g class="stem">
										<rect x="15305" y="375" height="863" width="18" />
									</g>
									<g class="accid" id="accid-0000001022978386" />
								</g>
								<g class="note" id="note-L37F2">
									<use xlink:href="#E0A4" x="15499" y="1350" height="720px" width="720px" />
									<g class="stem">
										<rect x="15707" y="415" height="913" width="18" />
									</g>
									<g class="accid" id="accid-0000000456782956" />
								</g>
							</g>
						</g>
					</g>
					<g class="staff" id="staff-L29F1N1">
						<path d="M11704 2239 L15932 2239" stroke="#000000" stroke-width="13" />
						<path d="M11704 2419 L15932 2419" stroke="#000000" stroke-width="13" />
						<path d="M11704 2599 L15932 2599" stroke="#000000" stroke-width="13" />
						<path d="M11704 2779 L15932 2779" stroke="#000000" stroke-width="13" />
						<path d="M11704 2959 L15932 2959" stroke="#000000" stroke-width="13" />
						<g class="layer" id="layer-L29F1N1">
							<g class="beam" id="beam-L30F1-L31F1">
								<polygon points="12391,1990 13061,1925 13061,2015 12391,2080 " />
								<polygon points="12391,2125 12549,2110 12549,2200 12391,2215 " />
								<g class="note" id="note-L30F1">
									<use xlink:href="#E0A4" x="12183" y="2779" height="720px" width="720px" />
									<g class="stem">
										<rect x="12391" y="2008" height="749" width="18" />
									</g>
									<g class="accid" id="accid-0000001213509609">
										<use xlink:href="#E260" x="11987" y="2779" height="720px" width="720px" />
									</g>
								</g>
								<g class="note" id="note-L31F1">
									<use xlink:href="#E0A4" x="12835" y="2599" height="720px" width="720px" />
									<g class="dots" id="dots-0000001701678729">
										<ellipse cx="13151" cy="2509" rx="36" ry="36" />
									</g>
									<g class="stem">
										<rect x="13043" y="1943" height="634" width="18" />
									</g>
									<g class="accid" id="accid-0000001843267898" />
								</g>
							</g>
							<g class="beam" id="beam-L34F1-L37F1">
								<polygon points="14292,3445 15517,3324 15517,3234 14292,3355 " />
								<polygon points="14292,3310 15517,3189 15517,3099 14292,3220 " />
								<g class="note" id="note-L34F1">
									<use xlink:href="#E0A4" x="14292" y="2689" height="720px" width="720px" />
									<g class="stem">
										<rect x="14292" y="2711" height="716" width="18" />
									</g>
									<g class="accid" id="accid-0000002061695203" />
								</g>
								<g class="note" id="note-L35F1">
									<use xlink:href="#E0A4" x="14694" y="2599" height="720px" width="720px" />
									<g class="stem">
										<rect x="14694" y="2621" height="765" width="18" />
									</g>
									<g class="accid" id="accid-0000001778108125" />
								</g>
								<g class="note" id="note-L36F1">
									<use xlink:href="#E0A4" x="15097" y="2689" height="720px" width="720px" />
									<g class="stem">
										<rect x="15097" y="2711" height="635" width="18" />
									</g>
									<g class="accid" id="accid-0000001807950502" />
								</g>
								<g class="note" id="note-L37F1">
									<use xlink:href="#E0A4" x="15499" y="2329" height="720px" width="720px" />
									<g class="stem">
										<rect x="15499" y="2351" height="955" width="18" />
									</g>
									<g class="accid" id="accid-0000000226359928" />
								</g>
							</g>
						</g>
					</g>
					<g class="mNum autogenerated" id="mnum-0000001766320172" />
					<g class="barLineAttr" id="bline-0000000018306452">
						<path d="M15919 2959 L15919 720" stroke="#000000" stroke-width="27" />
					</g>
				</g>
				<g class="measure" id="measure-L38">
					<g class="staff" id="staff-L38F2N1">
						<path d="M15932 720 L20003 720" stroke="#000000" stroke-width="13" />
						<path d="M15932 900 L20003 900" stroke="#000000" stroke-width="13" />
						<path d="M15932 1080 L20003 1080" stroke="#000000" stroke-width="13" />
						<path d="M15932 1260 L20003 1260" stroke="#000000" stroke-width="13" />
						<path d="M15932 1440 L20003 1440" stroke="#000000" stroke-width="13" />
						<g class="layer" id="layer-L38F2N1">
							<g class="rest" id="rest-L39F2">
								<use xlink:href="#E4E5" x="16410" y="1080" height="720px" width="720px" />
							</g>
							<g class="beam" id="beam-L43F2-L45F2">
								<polygon points="18476,676 19795,806 19795,896 18476,766 " />
								<polygon points="19136,876 19795,941 19795,1031 19136,966 " />
								<g class="note" id="note-L43F2">
									<use xlink:href="#E0A4" x="18268" y="1350" height="720px" width="720px" />
									<g class="stem">
										<rect x="18476" y="694" height="634" width="18" />
									</g>
									<g class="accid" id="accid-0000001845635499">
										<use xlink:href="#E262" x="18073" y="1350" height="720px" width="720px" />
									</g>
								</g>
								<g class="note" id="note-L44F2">
									<use xlink:href="#E0A4" x="18919" y="1440" height="720px" width="720px" />
									<g class="stem">
										<rect x="19127" y="759" height="659" width="18" />
									</g>
									<g class="accid" id="accid-0000000551836534">
										<use xlink:href="#E262" x="18724" y="1440" height="720px" width="720px" />
									</g>
								</g>
								<g class="note" id="note-L45F2">
									<use xlink:href="#E0A4" x="19569" y="1530" height="720px" width="720px" />
									<g class="stem">
										<rect x="19777" y="824" height="684" width="18" />
									</g>
									<g class="accid" id="accid-0000000212495987">
										<use xlink:href="#E262" x="19374" y="1530" height="720px" width="720px" />
									</g>
								</g>
							</g>
						</g>
					</g>
					<g class="staff" id="staff-L38F1N1">
						<path d="M15932 2239 L20003 2239" stroke="#000000" stroke-width="13" />
						<path d="M15932 2419 L20003 2419" stroke="#000000" stroke-width="13" />
						<path d="M15932 2599 L20003 2599" stroke="#000000" stroke-width="13" />
						<path d="M15932 2779 L20003 2779" stroke="#000000" stroke-width="13" />
						<path d="M15932 2959 L20003 2959" stroke="#000000" stroke-width="13" />
						<g class="layer" id="layer-L38F1N1">
							<g class="beam" id="beam-L39F1-L42F1">
								<polygon points="16618,1997 18092,1877 18092,1967 16618,2087 " />
								<polygon points="16618,2132 18092,2012 18092,2102 16618,2222 " />
								<g class="note" id="note-L39F1">
									<use xlink:href="#E0A4" x="16410" y="2689" height="720px" width="720px" />
									<g class="stem">
										<rect x="16618" y="2015" height="652" width="18" />
									</g>
									<g class="accid" id="accid-0000002051195257">
										<use xlink:href="#E262" x="16215" y="2689" height="720px" width="720px" />
									</g>
								</g>
								<g class="note" id="note-L40F1">
									<use xlink:href="#E0A4" x="16812" y="2779" height="720px" width="720px" />
									<g class="stem">
										<rect x="17020" y="1982" height="775" width="18" />
									</g>
									<g class="accid" id="accid-0000000334005504" />
								</g>
								<g class="note" id="note-L41F1">
									<use xlink:href="#E0A4" x="17215" y="2689" height="720px" width="720px" />
									<g class="stem">
										<rect x="17423" y="1949" height="718" width="18" />
									</g>
									<g class="accid" id="accid-0000000480614281" />
								</g>
								<g class="note" id="note-L42F1">
									<use xlink:href="#E0A4" x="17866" y="2599" height="720px" width="720px" />
									<g class="stem">
										<rect x="18074" y="1895" height="682" width="18" />
									</g>
									<g class="accid" id="accid-0000001015240436">
										<use xlink:href="#E262" x="17671" y="2599" height="720px" width="720px" />
									</g>
								</g>
							</g>
							<g class="beam" id="beam-L43F1-L45F1">
								<polygon points="18476,1910 19795,1820 19795,1910 18476,2000 " />
								<polygon points="19136,2000 19795,1955 19795,2045 19136,2090 " />
								<g class="note" id="note-L43F1">
									<use xlink:href="#E0A4" x="18268" y="2599" height="720px" width="720px" />
									<g class="stem">
										<rect x="18476" y="1928" height="649" width="18" />
									</g>
									<g class="accid" id="accid-0000001608907656" />
								</g>
								<g class="note" id="note-L44F1">
									<use xlink:href="#E0A4" x="18919" y="2869" height="720px" width="720px" />
									<g class="stem">
										<rect x="19127" y="1883" height="964" width="18" />
									</g>
									<g class="accid" id="accid-0000000852220706">
										<use xlink:href="#E262" x="18724" y="2869" height="720px" width="720px" />
									</g>
								</g>
								<g class="note" id="note-L45F1">
									<use xlink:href="#E0A4" x="19569" y="2509" height="720px" width="720px" />
									<g class="stem">
										<rect x="19777" y="1838" height="649" width="18" />
									</g>
									<g class="accid" id="accid-0000001453948572">
										<use xlink:href="#E262" x="19374" y="2509" height="720px" width="720px" />
									</g>
								</g>
							</g>
						</g>
					</g>
					<g class="tie" id="tie-L42F1-L43F1">
						<path d="M17979,2734 C18079,2832 18279,2832 18381,2734 C18279,2876 18079,2876 17979,2734" stroke="#000000" stroke-linecap="round" stroke-linejoin="round" stroke-width="9" />
					</g>
					<g class="mNum autogenerated" id="mnum-0000001240251172" />
					<g class="barLineAttr" id="bline-0000001107745749">
						<path d="M19990 2959 L19990 720" stroke="#000000" stroke-width="27" />
					</g>
				</g>
			</g>
		</g>
	</svg>
</svg>
