<?xml version="1.0" encoding="UTF-8" standalone="no"?>
<svg width="2100.00px" height="450.00px" version="1.1" xmlns="http://www.w3.org/2000/svg" xmlns:xlink="http://www.w3.org/1999/xlink" overflow="visible">
	<desc>Engraved by Verovio 2.0.0-dev-0f0381c</desc>
	<defs>
		<symbol id="E050" viewBox="0 0 1000 1000" overflow="inherit">
			<path transform="scale(1,-1)" d="M441 -245c-23 -4 -48 -6 -76 -6c-59 0 -102 7 -130 20c-88 42 -150 93 -187 154c-26 44 -43 103 -48 176c-4 60 11 123 44 189c29 57 65 106 110 148s96 85 153 127c-3 16 -8 46 -13 92c-4 43 -5 73 -5 89c0 117 16 172 69 257c34 54 64 82 89 82c21 0 43 -30 69 -92 s39 -115 41 -159c2 -120 -19 -173 -67 -256c-13 -20 -63 -90 -98 -118c-13 -9 -25 -19 -37 -29l31 -181c8 1 18 2 28 2c58 0 102 -12 133 -35c59 -43 92 -104 98 -184c11 -135 -80 -229 -180 -270c8 -57 17 -110 25 -162c5 -31 6 -58 6 -80c0 -30 -5 -53 -14 -70 c-35 -64 -88 -99 -158 -103c-42 -3 -83 6 -124 26c-50 24 -77 59 -80 105c-2 34 5 63 20 87c18 28 45 42 79 44c51 4 99 -40 103 -87c4 -56 -30 -94 -105 -115c17 -24 51 -36 102 -36c62 0 116 43 140 85c9 16 13 41 13 74c0 20 -1 42 -5 67c-8 53 -18 106 -26 159zM461 939 c-95 0 -135 -175 -135 -286c0 -24 2 -48 5 -71c50 39 92 82 127 128c43 57 63 106 60 148c-4 54 -23 82 -57 81zM406 119l54 -326c80 27 116 88 109 184c-7 99 -62 146 -163 142zM382 117c-74 -2 -132 -50 -128 -127c2 -46 43 -99 75 -115c-3 -2 -7 -5 -10 -10 c-70 33 -116 88 -123 172c-5 73 42 135 88 170c23 17 49 29 78 36l-29 170c-21 -13 -52 -37 -92 -73c-50 -44 -86 -84 -109 -119c-49 -75 -71 -140 -67 -195c5 -68 35 -127 93 -176s125 -73 203 -73c25 0 50 3 75 9c-19 111 -36 221 -54 331z" />
		</symbol>
		<symbol id="E082" viewBox="0 0 1000 1000" overflow="inherit">
			<path transform="scale(1,-1)" d="M104 -185c-18 0 -55 -14 -65 -65h-36l-3 29c0 25 6 46 18 64c11 19 22 30 39 43l121 82l37 29c15 11 27 29 38 54c12 24 18 47 18 70c0 40 -19 88 -94 88c-25 0 -32 0 -50 -8c-14 -5 -23 -12 -26 -22c3 -9 7 -15 10 -18l24 -17c12 -7 17 -11 27 -21c5 -7 7 -16 7 -27 c0 -12 0 -57 -79 -74c-30 0 -76 26 -76 94c0 66 80 135 196 135c72 0 182 -32 182 -150c0 -53 -32 -95 -113 -133l-91 -41c-26 -11 -45 -23 -57 -37l49 7c84 0 115 -41 148 -41c20 0 33 20 39 61h35c0 -152 -68 -168 -114 -168c-17 0 -55 0 -69 7v0l-28 17 c-49 37 -69 40 -87 42z" />
		</symbol>
		<symbol id="E084" viewBox="0 0 1000 1000" overflow="inherit">
			<path transform="scale(1,-1)" d="M0 -78c84 97 114 180 134 329h170c-13 -32 -82 -132 -99 -151l-84 -97c-33 -36 -59 -63 -80 -81h162v102l127 123v-225h57v-39h-57v-34c0 -43 19 -65 57 -65v-34h-244v36c48 0 60 26 60 70v27h-203v39z" />
		</symbol>
		<symbol id="E0A4" viewBox="0 0 1000 1000" overflow="inherit">
			<path transform="scale(1,-1)" d="M0 -39c0 68 73 172 200 172c66 0 114 -37 114 -95c0 -84 -106 -171 -218 -171c-64 0 -96 30 -96 94z" />
		</symbol>
		<symbol id="E062" viewBox="0 0 1000 1000" overflow="inherit">
			<path transform="scale(1,-1)" d="M158 96c51 0 73 -14 88 -49l16 -39c0 -17 -2 -30 -7 -40c-3 -11 -10 -21 -19 -31c-17 -18 -49 -43 -84 -43c-55 0 -77 13 -112 44c-24 21 -35 55 -35 100c0 46 14 81 32 112c30 52 71 79 137 93l36 6l26 2c154 0 235 -68 274 -182c11 -32 18 -68 18 -107 c0 -103 -26 -182 -68 -250c-89 -145 -234 -230 -412 -288l-30 -5c-9 0 -14 3 -14 8c3 10 5 11 10 16c35 15 70 30 96 44l78 43c96 57 162 136 197 258c9 33 17 60 22 100c3 22 5 35 6 39c-7 69 -16 115 -23 140s-4 22 -16 40c-8 12 -19 23 -31 34c-24 21 -62 44 -118 44 c-48 0 -84 -8 -113 -28c-28 -19 -42 -44 -42 -73v-16c2 -5 3 -9 4 -11c24 22 52 39 84 39zM585 -118c0 32 23 58 57 58c18 0 33 -6 40 -18c9 -15 16 -18 16 -40c0 -9 -2 -16 -5 -21c-6 -19 -27 -37 -51 -37c-34 0 -57 26 -57 58zM642 177c31 0 56 -27 56 -58 c0 -30 -25 -58 -56 -58l-23 3c-19 7 -34 32 -34 55l3 23c9 20 28 35 54 35z" />
		</symbol>
		<symbol id="E260" viewBox="0 0 1000 1000" overflow="inherit">
			<path transform="scale(1,-1)" d="M20 110c32 16 54 27 93 27c26 0 35 -3 54 -13c13 -7 24 -20 27 -38l4 -25c0 -28 -16 -57 -45 -89c-23 -25 -39 -44 -65 -68l-88 -79v644h20v-359zM90 106c-32 0 -48 -10 -70 -29v-194c31 31 54 59 71 84c21 32 32 59 32 84c0 9 1 16 1 20c0 14 -3 21 -11 30l-8 3z" />
		</symbol>
		<symbol id="E262" viewBox="0 0 1000 1000" overflow="inherit">
			<path transform="scale(1,-1)" d="M136 186v169h17v-164l44 14v-91l-44 -14v-165l44 12v-91l-44 -13v-155h-17v150l-76 -22v-155h-17v149l-43 -13v90l43 14v167l-43 -14v92l43 13v169h17v-163zM60 73v-167l76 22v168z" />
		</symbol>
	</defs>
	<style type="text/css">g.page-margin{font-family:Times;} g.tempo{font-weight:bold;} g.dir, g.dynam, g.mNum{font-style:italic;} g.label{font-weight:normal;}</style>
	<svg class="definition-scale" viewBox="0 0 21000 4500">
		<g class="page-margin" transform="translate(500, 500)">
			<g class="system" id="system-0000001338452137">
				<path d="M13 720 L13 2880" stroke="#000000" stroke-width="27" />
				<path d="M-32,2862 C-392,2322 58,1980 -212,1800 C121,1980 -329,2322 -32,2862" stroke="#000000" stroke-linecap="round" stroke-linejoin="round" stroke-width="18" />
				<path d="M-32,738 C-329,1278 121,1620 -212,1800 C58,1620 -392,1278 -32,738" stroke="#000000" stroke-linecap="round" stroke-linejoin="round" stroke-width="18" />
				<g class="section boundaryStart" id="section-L1F1" />
				<g class="measure" id="measure-L4">
					<g class="staff" id="staff-L4F2N1">
						<path d="M0 720 L4428 720" stroke="#000000" stroke-width="13" />
						<path d="M0 900 L4428 900" stroke="#000000" stroke-width="13" />
						<path d="M0 1080 L4428 1080" stroke="#000000" stroke-width="13" />
						<path d="M0 1260 L4428 1260" stroke="#000000" stroke-width="13" />
						<path d="M0 1440 L4428 1440" stroke="#000000" stroke-width="13" />
						<g class="clef" id="clef-0000001514086094">
							<use xlink:href="#E050" x="90" y="1260" height="720px" width="720px" />
						</g>
						<g class="meterSig" id="msig-0000001711248555">
							<use xlink:href="#E082" x="771" y="900" height="720px" width="720px" />
							<use xlink:href="#E084" x="777" y="1260" height="720px" width="720px" />
						</g>
						<g class="layer" id="layer-L4F2N1">
							<g class="beam" id="beam-L5F2-L8F2">
								<polygon points="1574,392 2729,278 2729,368 1574,482 " />
								<polygon points="1574,527 2729,413 2729,503 1574,617 " />
								<g class="note" id="note-L5F2">
									<use xlink:href="#E0A4" x="1366" y="1440" height="720px" width="720px" />
									<g class="stem">
										<rect x="1574" y="410" height="1008" width="18" />
									</g>
									<g class="accid" id="accid-0000001434763202" />
								</g>
								<g class="note" id="note-L6F2">
									<use xlink:href="#E0A4" x="1745" y="1260" height="720px" width="720px" />
									<g class="stem">
										<rect x="1953" y="372" height="866" width="18" />
									</g>
									<g class="accid" id="accid-0000000215364332" />
								</g>
								<g class="note" id="note-L7F2">
									<use xlink:href="#E0A4" x="2124" y="990" height="720px" width="720px" />
									<g class="stem">
										<rect x="2332" y="334" height="634" width="18" />
									</g>
									<g class="accid" id="accid-0000001881647759" />
								</g>
								<g class="note" id="note-L8F2">
									<use xlink:href="#E0A4" x="2503" y="1080" height="720px" width="720px" />
									<g class="stem">
										<rect x="2711" y="296" height="762" width="18" />
									</g>
									<g class="accid" id="accid-0000000608608743" />
								</g>
							</g>
							<g class="beam" id="beam-L9F2-L12F2">
								<polygon points="3090,240 4245,354 4245,444 3090,330 " />
								<polygon points="3090,375 4245,489 4245,579 3090,465 " />
								<g class="note" id="note-L9F2">
									<use xlink:href="#E0A4" x="2882" y="990" height="720px" width="720px" />
									<g class="stem">
										<rect x="3090" y="258" height="710" width="18" />
									</g>
									<g class="accid" id="accid-0000000741374004" />
								</g>
								<g class="note" id="note-L10F2">
									<use xlink:href="#E0A4" x="3261" y="1170" height="720px" width="720px" />
									<g class="stem">
										<rect x="3469" y="296" height="852" width="18" />
									</g>
									<g class="accid" id="accid-0000001445262684" />
								</g>
								<g class="note" id="note-L11F2">
									<use xlink:href="#E0A4" x="3640" y="990" height="720px" width="720px" />
									<g class="stem">
										<rect x="3848" y="334" height="634" width="18" />
									</g>
									<g class="accid" id="accid-0000001587453884" />
								</g>
								<g class="note" id="note-L12F2">
									<use xlink:href="#E0A4" x="4019" y="1260" height="720px" width="720px" />
									<g class="stem">
										<rect x="4227" y="372" height="866" width="18" />
									</g>
									<g class="accid" id="accid-0000001461659832" />
								</g>
							</g>
						</g>
					</g>
					<g class="staff" id="staff-L4F1N1">
						<path d="M0 2160 L4428 2160" stroke="#000000" stroke-width="13" />
						<path d="M0 2340 L4428 2340" stroke="#000000" stroke-width="13" />
						<path d="M0 2520 L4428 2520" stroke="#000000" stroke-width="13" />
						<path d="M0 2700 L4428 2700" stroke="#000000" stroke-width="13" />
						<path d="M0 2880 L4428 2880" stroke="#000000" stroke-width="13" />
						<g class="clef" id="clef-0000001853463261">
							<use xlink:href="#E062" x="90" y="2340" height="720px" width="720px" />
						</g>
						<g class="meterSig" id="msig-0000001906727892">
							<use xlink:href="#E082" x="771" y="2340" height="720px" width="720px" />
							<use xlink:href="#E084" x="777" y="2700" height="720px" width="720px" />
						</g>
						<g class="layer" id="layer-L4F1N1">
							<g class="beam" id="beam-L5F1-L7F1">
								<polygon points="1366,3285 2142,3209 2142,3119 1366,3195 " />
								<polygon points="1366,3150 1754,3112 1754,3022 1366,3060 " />
								<g class="note" id="note-L5F1">
									<use xlink:href="#E0A4" x="1366" y="2610" height="720px" width="720px" />
									<g class="stem">
										<rect x="1366" y="2632" height="635" width="18" />
									</g>
									<g class="accid" id="accid-0000001569757670" />
								</g>
								<g class="note" id="note-L6F1">
									<use xlink:href="#E0A4" x="1745" y="2520" height="720px" width="720px" />
									<g class="stem">
										<rect x="1745" y="2542" height="687" width="18" />
									</g>
									<g class="accid" id="accid-0000001787931033" />
								</g>
								<g class="note" id="note-L7F1">
									<use xlink:href="#E0A4" x="2124" y="2430" height="720px" width="720px" />
									<g class="stem">
										<rect x="2124" y="2452" height="739" width="18" />
									</g>
									<g class="accid" id="accid-0000000930604246" />
								</g>
							</g>
							<g class="beam" id="beam-L9F1-L11F1">
								<polygon points="2882,3105 3658,3029 3658,2939 2882,3015 " />
								<polygon points="2882,2970 3270,2932 3270,2842 2882,2880 " />
								<g class="note" id="note-L9F1">
									<use xlink:href="#E0A4" x="2882" y="2430" height="720px" width="720px" />
									<g class="stem">
										<rect x="2882" y="2452" height="635" width="18" />
									</g>
									<g class="accid" id="accid-0000000289686871" />
								</g>
								<g class="note" id="note-L10F1">
									<use xlink:href="#E0A4" x="3261" y="2340" height="720px" width="720px" />
									<g class="stem">
										<rect x="3261" y="2362" height="687" width="18" />
									</g>
									<g class="accid" id="accid-0000000570059689" />
								</g>
								<g class="note" id="note-L11F1">
									<use xlink:href="#E0A4" x="3640" y="2160" height="720px" width="720px" />
									<g class="stem">
										<rect x="3640" y="2182" height="829" width="18" />
									</g>
									<g class="accid" id="accid-0000001289867231" />
								</g>
							</g>
						</g>
					</g>
					<g class="tie" id="tie-L7F1-L9F1">
						<path d="M2372,2385 C2494,2243 2738,2243 2860,2385 C2738,2287 2494,2287 2372,2385" stroke="#000000" stroke-linecap="round" stroke-linejoin="round" stroke-width="9" />
					</g>
					<g class="tie" id="tie-L12F2-L14F2">
						<path d="M4267,1305 C4414,1403 4708,1403 4857,1305 C4708,1447 4414,1447 4267,1305" stroke="#000000" stroke-linecap="round" stroke-linejoin="round" stroke-width="9" />
					</g>
					<g class="mNum autogenerated" id="mnum-0000001894627096" />
					<g class="barLineAttr" id="bline-0000001272884868">
						<path d="M4415 2880 L4415 720" stroke="#000000" stroke-width="27" />
					</g>
				</g>
				<g class="measure" id="measure-L13">
					<g class="staff" id="staff-L13F2N1">
						<path d="M4428 720 L8353 720" stroke="#000000" stroke-width="13" />
						<path d="M4428 900 L8353 900" stroke="#000000" stroke-width="13" />
						<path d="M4428 1080 L8353 1080" stroke="#000000" stroke-width="13" />
						<path d="M4428 1260 L8353 1260" stroke="#000000" stroke-width="13" />
						<path d="M4428 1440 L8353 1440" stroke="#000000" stroke-width="13" />
						<g class="layer" id="layer-L13F2N1">
							<g class="beam" id="beam-L14F2-L17F2">
								<polygon points="5087,542 6458,406 6458,496 5087,632 " />
								<polygon points="6300,556 6458,541 6458,631 6300,646 " />
								<g class="note" id="note-L14F2">
									<use xlink:href="#E0A4" x="4879" y="1260" height="720px" width="720px" />
									<g class="dots" id="dots-0000001479718491">
										<ellipse cx="5195" cy="1170" rx="36" ry="36" />
									</g>
									<g class="stem">
										<rect x="5087" y="560" height="678" width="18" />
									</g>
									<g class="accid" id="accid-0000001368786306" />
								</g>
								<g class="note" id="note-L17F2">
									<use xlink:href="#E0A4" x="6232" y="1080" height="720px" width="720px" />
									<g class="stem">
										<rect x="6440" y="424" height="634" width="18" />
									</g>
									<g class="accid" id="accid-0000000283242613">
										<use xlink:href="#E260" x="6036" y="1080" height="720px" width="720px" />
									</g>
								</g>
							</g>
							<g class="beam" id="beam-L18F2-L20F2">
								<polygon points="7054,541 7811,615 7811,705 7054,631 " />
								<g class="note" id="note-L18F2">
									<use xlink:href="#E0A4" x="6846" y="1170" height="720px" width="720px" />
									<g class="stem">
										<rect x="7054" y="559" height="589" width="18" />
									</g>
									<g class="accid" id="accid-0000001836588374">
										<use xlink:href="#E260" x="6650" y="1170" height="720px" width="720px" />
									</g>
								</g>
								<g class="note" id="note-L20F2">
									<use xlink:href="#E0A4" x="7585" y="1260" height="720px" width="720px" />
									<g class="stem">
										<rect x="7793" y="633" height="605" width="18" />
									</g>
									<g class="accid" id="accid-0000000956519642" />
								</g>
							</g>
						</g>
					</g>
					<g class="staff" id="staff-L13F1N1">
						<path d="M4428 2160 L8353 2160" stroke="#000000" stroke-width="13" />
						<path d="M4428 2340 L8353 2340" stroke="#000000" stroke-width="13" />
						<path d="M4428 2520 L8353 2520" stroke="#000000" stroke-width="13" />
						<path d="M4428 2700 L8353 2700" stroke="#000000" stroke-width="13" />
						<path d="M4428 2880 L8353 2880" stroke="#000000" stroke-width="13" />
						<g class="layer" id="layer-L13F1N1">
							<g class="beam" id="beam-L14F1-L16F1">
								<polygon points="4879,3115 5890,3015 5890,2925 4879,3025 " />
								<polygon points="4879,2980 5502,2918 5502,2828 4879,2890 " />
								<g class="note" id="note-L14F1">
									<use xlink:href="#E0A4" x="4879" y="2430" height="720px" width="720px" />
									<g class="stem">
										<rect x="4879" y="2452" height="645" width="18" />
									</g>
									<g class="accid" id="accid-0000000426956491">
										<use xlink:href="#E260" x="4683" y="2430" height="720px" width="720px" />
									</g>
								</g>
								<g class="note" id="note-L15F1">
									<use xlink:href="#E0A4" x="5493" y="2160" height="720px" width="720px" />
									<g class="stem">
										<rect x="5493" y="2182" height="853" width="18" />
									</g>
									<g class="accid" id="accid-0000000986785195">
										<use xlink:href="#E260" x="5297" y="2160" height="720px" width="720px" />
									</g>
								</g>
								<g class="note" id="note-L16F1">
									<use xlink:href="#E0A4" x="5872" y="2340" height="720px" width="720px" />
									<g class="stem">
										<rect x="5872" y="2362" height="635" width="18" />
									</g>
									<g class="accid" id="accid-0000001981532528" />
								</g>
							</g>
							<g class="beam" id="beam-L18F1-L21F1">
								<polygon points="6846,3285 7962,3175 7962,3085 6846,3195 " />
								<polygon points="6846,3150 7004,3135 7004,3045 6846,3060 " />
								<polygon points="7804,3055 7962,3040 7962,2950 7804,2965 " />
								<g class="note" id="note-L18F1">
									<use xlink:href="#E0A4" x="6846" y="2610" height="720px" width="720px" />
									<g class="stem">
										<rect x="6846" y="2632" height="635" width="18" />
									</g>
									<g class="accid" id="accid-0000000557011516" />
								</g>
								<g class="note" id="note-L19F1">
									<use xlink:href="#E0A4" x="7225" y="2430" height="720px" width="720px" />
									<g class="stem">
										<rect x="7225" y="2452" height="777" width="18" />
									</g>
									<g class="accid" id="accid-0000001685585370" />
								</g>
								<g class="note" id="note-L21F1">
									<use xlink:href="#E0A4" x="7944" y="2070" height="720px" width="720px" />
									<g class="stem">
										<rect x="7944" y="2092" height="1065" width="18" />
									</g>
									<g class="accid" id="accid-0000000636257493">
										<use xlink:href="#E260" x="7748" y="2070" height="720px" width="720px" />
									</g>
								</g>
							</g>
						</g>
					</g>
					<g class="mNum autogenerated" id="mnum-0000001211074025" />
					<g class="barLineAttr" id="bline-0000001663424626">
						<path d="M8340 2880 L8340 720" stroke="#000000" stroke-width="27" />
					</g>
				</g>
				<g class="measure" id="measure-L22">
					<g class="staff" id="staff-L22F2N1">
						<path d="M8353 720 L12803 720" stroke="#000000" stroke-width="13" />
						<path d="M8353 900 L12803 900" stroke="#000000" stroke-width="13" />
						<path d="M8353 1080 L12803 1080" stroke="#000000" stroke-width="13" />
						<path d="M8353 1260 L12803 1260" stroke="#000000" stroke-width="13" />
						<path d="M8353 1440 L12803 1440" stroke="#000000" stroke-width="13" />
						<g class="layer" id="layer-L22F2N1">
							<g class="beam" id="beam-L23F2-L26F2">
								<polygon points="9012,439 10636,278 10636,368 9012,529 " />
								<polygon points="9012,574 10636,413 10636,503 9012,664 " />
								<g class="note" id="note-L23F2">
									<use xlink:href="#E0A4" x="8804" y="1170" height="720px" width="720px" />
									<g class="stem">
										<rect x="9012" y="457" height="691" width="18" />
									</g>
									<g class="accid" id="accid-0000000798695398">
										<use xlink:href="#E262" x="8609" y="1170" height="720px" width="720px" />
									</g>
								</g>
								<g class="note" id="note-L24F2">
									<use xlink:href="#E0A4" x="9418" y="1350" height="720px" width="720px" />
									<g class="stem">
										<rect x="9626" y="395" height="933" width="18" />
									</g>
									<g class="accid" id="accid-0000000113915080">
										<use xlink:href="#E262" x="9223" y="1350" height="720px" width="720px" />
									</g>
								</g>
								<g class="note" id="note-L25F2">
									<use xlink:href="#E0A4" x="10031" y="990" height="720px" width="720px" />
									<g class="stem">
										<rect x="10239" y="334" height="634" width="18" />
									</g>
									<g class="accid" id="accid-0000001415947281">
										<use xlink:href="#E262" x="9836" y="990" height="720px" width="720px" />
									</g>
								</g>
								<g class="note" id="note-L26F2">
									<use xlink:href="#E0A4" x="10410" y="1080" height="720px" width="720px" />
									<g class="stem">
										<rect x="10618" y="296" height="762" width="18" />
									</g>
									<g class="accid" id="accid-0000001009468238" />
								</g>
							</g>
							<g class="beam" id="beam-L27F2-L30F2">
								<polygon points="10997,193 12621,354 12621,444 10997,283 " />
								<polygon points="10997,328 12621,489 12621,579 10997,418 " />
								<g class="note" id="note-L27F2">
									<use xlink:href="#E0A4" x="10789" y="990" height="720px" width="720px" />
									<g class="stem">
										<rect x="10997" y="211" height="757" width="18" />
									</g>
									<g class="accid" id="accid-0000000471678643" />
								</g>
								<g class="note" id="note-L28F2">
									<use xlink:href="#E0A4" x="11402" y="1260" height="720px" width="720px" />
									<g class="stem">
										<rect x="11610" y="273" height="965" width="18" />
									</g>
									<g class="accid" id="accid-0000000890325552">
										<use xlink:href="#E262" x="11207" y="1260" height="720px" width="720px" />
									</g>
								</g>
								<g class="note" id="note-L29F2">
									<use xlink:href="#E0A4" x="12016" y="990" height="720px" width="720px" />
									<g class="stem">
										<rect x="12224" y="334" height="634" width="18" />
									</g>
									<g class="accid" id="accid-0000001798353357" />
								</g>
								<g class="note" id="note-L30F2">
									<use xlink:href="#E0A4" x="12395" y="1350" height="720px" width="720px" />
									<g class="stem">
										<rect x="12603" y="372" height="956" width="18" />
									</g>
									<g class="accid" id="accid-0000001888964859" />
								</g>
							</g>
						</g>
					</g>
					<g class="staff" id="staff-L22F1N1">
						<path d="M8353 2160 L12803 2160" stroke="#000000" stroke-width="13" />
						<path d="M8353 2340 L12803 2340" stroke="#000000" stroke-width="13" />
						<path d="M8353 2520 L12803 2520" stroke="#000000" stroke-width="13" />
						<path d="M8353 2700 L12803 2700" stroke="#000000" stroke-width="13" />
						<path d="M8353 2880 L12803 2880" stroke="#000000" stroke-width="13" />
						<g class="layer" id="layer-L22F1N1">
							<g class="beam" id="beam-L23F1-L25F1">
								<polygon points="9012,1756 10257,1756 10257,1846 9012,1846 " />
								<polygon points="9012,1891 9635,1891 9635,1981 9012,1981 " />
								<g class="note" id="note-L23F1">
									<use xlink:href="#E0A4" x="8804" y="2880" height="720px" width="720px" />
									<g class="stem">
										<rect x="9012" y="1774" height="1084" width="18" />
									</g>
									<g class="accid" id="accid-0000001069656787">
										<use xlink:href="#E260" x="8608" y="2880" height="720px" width="720px" />
									</g>
								</g>
								<g class="note" id="note-L24F1">
									<use xlink:href="#E0A4" x="9418" y="2430" height="720px" width="720px" />
									<g class="stem">
										<rect x="9626" y="1774" height="634" width="18" />
									</g>
									<g class="accid" id="accid-0000001791658274">
										<use xlink:href="#E260" x="9222" y="2430" height="720px" width="720px" />
									</g>
								</g>
								<g class="note" id="note-L25F1">
									<use xlink:href="#E0A4" x="10031" y="2880" height="720px" width="720px" />
									<g class="stem">
										<rect x="10239" y="1774" height="1084" width="18" />
									</g>
									<g class="accid" id="accid-0000001010096624" />
								</g>
							</g>
							<g class="beam" id="beam-L27F1-L29F1">
								<polygon points="10789,3555 12034,3432 12034,3342 10789,3465 " />
								<polygon points="10789,3420 11411,3358 11411,3268 10789,3330 " />
								<g class="note" id="note-L27F1">
									<use xlink:href="#E0A4" x="10789" y="2880" height="720px" width="720px" />
									<g class="stem">
										<rect x="10789" y="2902" height="635" width="18" />
									</g>
									<g class="accid" id="accid-0000000055051457" />
								</g>
								<g class="note" id="note-L28F1">
									<use xlink:href="#E0A4" x="11402" y="2340" height="720px" width="720px" />
									<g class="stem">
										<rect x="11402" y="2362" height="1113" width="18" />
									</g>
									<g class="accid" id="accid-0000001906618931" />
								</g>
								<g class="note" id="note-L29F1">
									<use xlink:href="#E0A4" x="12016" y="2160" height="720px" width="720px" />
									<g class="stem">
										<rect x="12016" y="2182" height="1232" width="18" />
									</g>
									<g class="accid" id="accid-0000000033561080">
										<use xlink:href="#E260" x="11820" y="2160" height="720px" width="720px" />
									</g>
								</g>
							</g>
						</g>
					</g>
					<g class="tie" id="tie-L25F1-L27F1">
						<path d="M10279,2925 C10401,3023 10645,3023 10767,2925 C10645,3067 10401,3067 10279,2925" stroke="#000000" stroke-linecap="round" stroke-linejoin="round" stroke-width="9" />
					</g>
					<g class="tie" id="tie-L30F2-L32F2">
						<path d="M12643,1395 C12731,1493 12907,1493 12997,1395 C12907,1537 12731,1537 12643,1395" stroke="#000000" stroke-linecap="round" stroke-linejoin="round" stroke-width="9" />
					</g>
					<g class="mNum autogenerated" id="mnum-0000001129880519" />
					<g class="barLineAttr" id="bline-0000000389797123">
						<path d="M12790 2880 L12790 720" stroke="#000000" stroke-width="27" />
					</g>
				</g>
				<g class="measure" id="measure-L31">
					<g class="staff" id="staff-L31F2N1">
						<path d="M12803 720 L16725 720" stroke="#000000" stroke-width="13" />
						<path d="M12803 900 L16725 900" stroke="#000000" stroke-width="13" />
						<path d="M12803 1080 L16725 1080" stroke="#000000" stroke-width="13" />
						<path d="M12803 1260 L16725 1260" stroke="#000000" stroke-width="13" />
						<path d="M12803 1440 L16725 1440" stroke="#000000" stroke-width="13" />
						<g class="layer" id="layer-L31F2N1">
							<g class="beam" id="beam-L32F2-L35F2">
								<polygon points="13227,451 14597,316 14597,406 13227,541 " />
								<polygon points="14439,465 14597,451 14597,541 14439,555 " />
								<g class="note" id="note-L32F2">
									<use xlink:href="#E0A4" x="13019" y="1350" height="720px" width="720px" />
									<g class="dots" id="dots-0000000767742242">
										<ellipse cx="13335" cy="1350" rx="36" ry="36" />
									</g>
									<g class="stem">
										<rect x="13227" y="469" height="859" width="18" />
									</g>
									<g class="accid" id="accid-0000001212333670" />
								</g>
								<g class="note" id="note-L35F2">
									<use xlink:href="#E0A4" x="14371" y="990" height="720px" width="720px" />
									<g class="stem">
										<rect x="14579" y="334" height="634" width="18" />
									</g>
									<g class="accid" id="accid-0000000951952047">
										<use xlink:href="#E262" x="14176" y="990" height="720px" width="720px" />
									</g>
								</g>
							</g>
							<g class="beam" id="beam-L36F2-L38F2">
								<polygon points="15192,610 16182,520 16182,610 15192,700 " />
								<g class="note" id="note-L36F2">
									<use xlink:href="#E0A4" x="14984" y="1260" height="720px" width="720px" />
									<g class="stem">
										<rect x="15192" y="628" height="610" width="18" />
									</g>
									<g class="accid" id="accid-0000000402989080">
										<use xlink:href="#E262" x="14789" y="1260" height="720px" width="720px" />
									</g>
								</g>
								<g class="note" id="note-L38F2">
									<use xlink:href="#E0A4" x="15956" y="1170" height="720px" width="720px" />
									<g class="stem">
										<rect x="16164" y="538" height="610" width="18" />
									</g>
									<g class="accid" id="accid-0000000491879996" />
								</g>
							</g>
						</g>
					</g>
					<g class="staff" id="staff-L31F1N1">
						<path d="M12803 2160 L16725 2160" stroke="#000000" stroke-width="13" />
						<path d="M12803 2340 L16725 2340" stroke="#000000" stroke-width="13" />
						<path d="M12803 2520 L16725 2520" stroke="#000000" stroke-width="13" />
						<path d="M12803 2700 L16725 2700" stroke="#000000" stroke-width="13" />
						<path d="M12803 2880 L16725 2880" stroke="#000000" stroke-width="13" />
						<g class="layer" id="layer-L31F1N1">
							<g class="beam" id="beam-L32F1-L34F1">
								<polygon points="13019,3465 14029,3365 14029,3275 13019,3375 " />
								<polygon points="13019,3330 13641,3268 13641,3178 13019,3240 " />
								<g class="note" id="note-L32F1">
									<use xlink:href="#E0A4" x="13019" y="2790" height="720px" width="720px" />
									<g class="stem">
										<rect x="13019" y="2812" height="635" width="18" />
									</g>
									<g class="accid" id="accid-0000001304014018" />
								</g>
								<g class="note" id="note-L33F1">
									<use xlink:href="#E0A4" x="13632" y="2250" height="720px" width="720px" />
									<g class="stem">
										<rect x="13632" y="2272" height="1113" width="18" />
									</g>
									<g class="accid" id="accid-0000001364517489">
										<use xlink:href="#E262" x="13437" y="2250" height="720px" width="720px" />
									</g>
								</g>
								<g class="note" id="note-L34F1">
									<use xlink:href="#E0A4" x="14011" y="2520" height="720px" width="720px" />
									<g class="stem">
										<rect x="14011" y="2542" height="805" width="18" />
									</g>
									<g class="accid" id="accid-0000000828342797" />
								</g>
							</g>
							<g class="beam" id="beam-L36F1-L39F1">
								<polygon points="15192,1889 16542,1756 16542,1846 15192,1979 " />
								<polygon points="15192,2024 15350,2009 15350,2099 15192,2114 " />
								<polygon points="16384,1905 16542,1891 16542,1981 16384,1995 " />
								<g class="note" id="note-L36F1">
									<use xlink:href="#E0A4" x="14984" y="2700" height="720px" width="720px" />
									<g class="stem">
										<rect x="15192" y="1907" height="771" width="18" />
									</g>
									<g class="accid" id="accid-0000000032469959" />
								</g>
								<g class="note" id="note-L37F1">
									<use xlink:href="#E0A4" x="15596" y="2610" height="720px" width="720px" />
									<g class="stem">
										<rect x="15804" y="1846" height="742" width="18" />
									</g>
									<g class="accid" id="accid-0000001262632969">
										<use xlink:href="#E262" x="15401" y="2610" height="720px" width="720px" />
									</g>
								</g>
								<g class="note" id="note-L39F1">
									<use xlink:href="#E0A4" x="16316" y="2430" height="720px" width="720px" />
									<g class="stem">
										<rect x="16524" y="1774" height="634" width="18" />
									</g>
									<g class="accid" id="accid-0000002102169572" />
								</g>
							</g>
						</g>
					</g>
					<g class="mNum autogenerated" id="mnum-0000000720078583" />
					<g class="barLineAttr" id="bline-0000001938755479">
						<path d="M16712 2880 L16712 720" stroke="#000000" stroke-width="27" />
					</g>
				</g>
				<g class="measure" id="measure-L40">
					<g class="staff" id="staff-L40F2N1">
						<path d="M16725 720 L20003 720" stroke="#000000" stroke-width="13" />
						<path d="M16725 900 L20003 900" stroke="#000000" stroke-width="13" />
						<path d="M16725 1080 L20003 1080" stroke="#000000" stroke-width="13" />
						<path d="M16725 1260 L20003 1260" stroke="#000000" stroke-width="13" />
						<path d="M16725 1440 L20003 1440" stroke="#000000" stroke-width="13" />
						<g class="layer" id="layer-L40F2N1">
							<g class="beam" id="beam-L41F2-L44F2">
								<polygon points="17149,392 18304,278 18304,368 17149,482 " />
								<polygon points="17149,527 18304,413 18304,503 17149,617 " />
								<g class="note" id="note-L41F2">
									<use xlink:href="#E0A4" x="16941" y="1440" height="720px" width="720px" />
									<g class="stem">
										<rect x="17149" y="410" height="1008" width="18" />
									</g>
									<g class="accid" id="accid-0000001697908638" />
								</g>
								<g class="note" id="note-L42F2">
									<use xlink:href="#E0A4" x="17320" y="1260" height="720px" width="720px" />
									<g class="stem">
										<rect x="17528" y="372" height="866" width="18" />
									</g>
									<g class="accid" id="accid-0000001528355400" />
								</g>
								<g class="note" id="note-L43F2">
									<use xlink:href="#E0A4" x="17699" y="990" height="720px" width="720px" />
									<g class="stem">
										<rect x="17907" y="334" height="634" width="18" />
									</g>
									<g class="accid" id="accid-0000001745182864" />
								</g>
								<g class="note" id="note-L44F2">
									<use xlink:href="#E0A4" x="18078" y="1080" height="720px" width="720px" />
									<g class="stem">
										<rect x="18286" y="296" height="762" width="18" />
									</g>
									<g class="accid" id="accid-0000001795116165" />
								</g>
							</g>
							<g class="beam" id="beam-L45F2-L48F2">
								<polygon points="18665,240 19820,354 19820,444 18665,330 " />
								<polygon points="18665,375 19820,489 19820,579 18665,465 " />
								<g class="note" id="note-L45F2">
									<use xlink:href="#E0A4" x="18457" y="990" height="720px" width="720px" />
									<g class="stem">
										<rect x="18665" y="258" height="710" width="18" />
									</g>
									<g class="accid" id="accid-0000000498940829" />
								</g>
								<g class="note" id="note-L46F2">
									<use xlink:href="#E0A4" x="18836" y="1170" height="720px" width="720px" />
									<g class="stem">
										<rect x="19044" y="296" height="852" width="18" />
									</g>
									<g class="accid" id="accid-0000000130948690" />
								</g>
								<g class="note" id="note-L47F2">
									<use xlink:href="#E0A4" x="19215" y="990" height="720px" width="720px" />
									<g class="stem">
										<rect x="19423" y="334" height="634" width="18" />
									</g>
									<g class="accid" id="accid-0000000092009263" />
								</g>
								<g class="note" id="note-L48F2">
									<use xlink:href="#E0A4" x="19594" y="1260" height="720px" width="720px" />
									<g class="stem">
										<rect x="19802" y="372" height="866" width="18" />
									</g>
									<g class="accid" id="accid-0000002026586469" />
								</g>
							</g>
						</g>
					</g>
					<g class="staff" id="staff-L40F1N1">
						<path d="M16725 2160 L20003 2160" stroke="#000000" stroke-width="13" />
						<path d="M16725 2340 L20003 2340" stroke="#000000" stroke-width="13" />
						<path d="M16725 2520 L20003 2520" stroke="#000000" stroke-width="13" />
						<path d="M16725 2700 L20003 2700" stroke="#000000" stroke-width="13" />
						<path d="M16725 2880 L20003 2880" stroke="#000000" stroke-width="13" />
						<g class="layer" id="layer-L40F1N1">
							<g class="beam" id="beam-L41F1-L43F1">
								<polygon points="16941,3285 17717,3209 17717,3119 16941,3195 " />
								<polygon points="16941,3150 17329,3112 17329,3022 16941,3060 " />
								<g class="note" id="note-L41F1">
									<use xlink:href="#E0A4" x="16941" y="2610" height="720px" width="720px" />
									<g class="stem">
										<rect x="16941" y="2632" height="635" width="18" />
									</g>
									<g class="accid" id="accid-0000001000754692" />
								</g>
								<g class="note" id="note-L42F1">
									<use xlink:href="#E0A4" x="17320" y="2520" height="720px" width="720px" />
									<g class="stem">
										<rect x="17320" y="2542" height="687" width="18" />
									</g>
									<g class="accid" id="accid-0000001416427782" />
								</g>
								<g class="note" id="note-L43F1">
									<use xlink:href="#E0A4" x="17699" y="2430" height="720px" width="720px" />
									<g class="stem">
										<rect x="17699" y="2452" height="739" width="18" />
									</g>
									<g class="accid" id="accid-0000001092662999" />
								</g>
							</g>
							<g class="beam" id="beam-L45F1-L47F1">
								<polygon points="18457,3105 19233,3029 19233,2939 18457,3015 " />
								<polygon points="18457,2970 18845,2932 18845,2842 18457,2880 " />
								<g class="note" id="note-L45F1">
									<use xlink:href="#E0A4" x="18457" y="2430" height="720px" width="720px" />
									<g class="stem">
										<rect x="18457" y="2452" height="635" width="18" />
									</g>
									<g class="accid" id="accid-0000000880438808" />
								</g>
								<g class="note" id="note-L46F1">
									<use xlink:href="#E0A4" x="18836" y="2340" height="720px" width="720px" />
									<g class="stem">
										<rect x="18836" y="2362" height="687" width="18" />
									</g>
									<g class="accid" id="accid-0000000858404661" />
								</g>
								<g class="note" id="note-L47F1">
									<use xlink:href="#E0A4" x="19215" y="2160" height="720px" width="720px" />
									<g class="stem">
										<rect x="19215" y="2182" height="829" width="18" />
									</g>
									<g class="accid" id="accid-0000000944301039" />
								</g>
							</g>
						</g>
					</g>
					<g class="tie" id="tie-L43F1-L45F1">
						<path d="M17947,2385 C18069,2243 18313,2243 18435,2385 C18313,2287 18069,2287 17947,2385" stroke="#000000" stroke-linecap="round" stroke-linejoin="round" stroke-width="9" />
					</g>
					<g class="tie" id="tie-L48F2-L50F2">
						<path d="M19707,1395 C19777,1493 19917,1493 19990,1395 C19917,1537 19777,1537 19707,1395" stroke="#000000" stroke-linecap="round" stroke-linejoin="round" stroke-width="9" />
					</g>
					<g class="mNum autogenerated" id="mnum-0000000208489199" />
					<g class="barLineAttr" id="bline-0000001543373558">
						<path d="M19990 2880 L19990 720" stroke="#000000" stroke-width="27" />
					</g>
				</g>
			</g>
		</g>
	</svg>
</svg>
