<?xml version="1.0" encoding="UTF-8" standalone="no"?>
<svg width="2100.00px" height="450.00px" version="1.1" xmlns="http://www.w3.org/2000/svg" xmlns:xlink="http://www.w3.org/1999/xlink" overflow="visible">
	<desc>Engraved by Verovio 2.0.0-dev-0f0381c</desc>
	<defs>
		<symbol id="E050" viewBox="0 0 1000 1000" overflow="inherit">
			<path transform="scale(1,-1)" d="M441 -245c-23 -4 -48 -6 -76 -6c-59 0 -102 7 -130 20c-88 42 -150 93 -187 154c-26 44 -43 103 -48 176c-4 60 11 123 44 189c29 57 65 106 110 148s96 85 153 127c-3 16 -8 46 -13 92c-4 43 -5 73 -5 89c0 117 16 172 69 257c34 54 64 82 89 82c21 0 43 -30 69 -92 s39 -115 41 -159c2 -120 -19 -173 -67 -256c-13 -20 -63 -90 -98 -118c-13 -9 -25 -19 -37 -29l31 -181c8 1 18 2 28 2c58 0 102 -12 133 -35c59 -43 92 -104 98 -184c11 -135 -80 -229 -180 -270c8 -57 17 -110 25 -162c5 -31 6 -58 6 -80c0 -30 -5 -53 -14 -70 c-35 -64 -88 -99 -158 -103c-42 -3 -83 6 -124 26c-50 24 -77 59 -80 105c-2 34 5 63 20 87c18 28 45 42 79 44c51 4 99 -40 103 -87c4 -56 -30 -94 -105 -115c17 -24 51 -36 102 -36c62 0 116 43 140 85c9 16 13 41 13 74c0 20 -1 42 -5 67c-8 53 -18 106 -26 159zM461 939 c-95 0 -135 -175 -135 -286c0 -24 2 -48 5 -71c50 39 92 82 127 128c43 57 63 106 60 148c-4 54 -23 82 -57 81zM406 119l54 -326c80 27 116 88 109 184c-7 99 -62 146 -163 142zM382 117c-74 -2 -132 -50 -128 -127c2 -46 43 -99 75 -115c-3 -2 -7 -5 -10 -10 c-70 33 -116 88 -123 172c-5 73 42 135 88 170c23 17 49 29 78 36l-29 170c-21 -13 -52 -37 -92 -73c-50 -44 -86 -84 -109 -119c-49 -75 -71 -140 -67 -195c5 -68 35 -127 93 -176s125 -73 203 -73c25 0 50 3 75 9c-19 111 -36 221 -54 331z" />
		</symbol>
		<symbol id="E082" viewBox="0 0 1000 1000" overflow="inherit">
			<path transform="scale(1,-1)" d="M104 -185c-18 0 -55 -14 -65 -65h-36l-3 29c0 25 6 46 18 64c11 19 22 30 39 43l121 82l37 29c15 11 27 29 38 54c12 24 18 47 18 70c0 40 -19 88 -94 88c-25 0 -32 0 -50 -8c-14 -5 -23 -12 -26 -22c3 -9 7 -15 10 -18l24 -17c12 -7 17 -11 27 -21c5 -7 7 -16 7 -27 c0 -12 0 -57 -79 -74c-30 0 -76 26 -76 94c0 66 80 135 196 135c72 0 182 -32 182 -150c0 -53 -32 -95 -113 -133l-91 -41c-26 -11 -45 -23 -57 -37l49 7c84 0 115 -41 148 -41c20 0 33 20 39 61h35c0 -152 -68 -168 -114 -168c-17 0 -55 0 -69 7v0l-28 17 c-49 37 -69 40 -87 42z" />
		</symbol>
		<symbol id="E084" viewBox="0 0 1000 1000" overflow="inherit">
			<path transform="scale(1,-1)" d="M0 -78c84 97 114 180 134 329h170c-13 -32 -82 -132 -99 -151l-84 -97c-33 -36 -59 -63 -80 -81h162v102l127 123v-225h57v-39h-57v-34c0 -43 19 -65 57 -65v-34h-244v36c48 0 60 26 60 70v27h-203v39z" />
		</symbol>
		<symbol id="E0A4" viewBox="0 0 1000 1000" overflow="inherit">
			<path transform="scale(1,-1)" d="M0 -39c0 68 73 172 200 172c66 0 114 -37 114 -95c0 -84 -106 -171 -218 -171c-64 0 -96 30 -96 94z" />
		</symbol>
		<symbol id="E062" viewBox="0 0 1000 1000" overflow="inherit">
			<path transform="scale(1,-1)" d="M158 96c51 0 73 -14 88 -49l16 -39c0 -17 -2 -30 -7 -40c-3 -11 -10 -21 -19 -31c-17 -18 -49 -43 -84 -43c-55 0 -77 13 -112 44c-24 21 -35 55 -35 100c0 46 14 81 32 112c30 52 71 79 137 93l36 6l26 2c154 0 235 -68 274 -182c11 -32 18 -68 18 -107 c0 -103 -26 -182 -68 -250c-89 -145 -234 -230 -412 -288l-30 -5c-9 0 -14 3 -14 8c3 10 5 11 10 16c35 15 70 30 96 44l78 43c96 57 162 136 197 258c9 33 17 60 22 100c3 22 5 35 6 39c-7 69 -16 115 -23 140s-4 22 -16 40c-8 12 -19 23 -31 34c-24 21 -62 44 -118 44 c-48 0 -84 -8 -113 -28c-28 -19 -42 -44 -42 -73v-16c2 -5 3 -9 4 -11c24 22 52 39 84 39zM585 -118c0 32 23 58 57 58c18 0 33 -6 40 -18c9 -15 16 -18 16 -40c0 -9 -2 -16 -5 -21c-6 -19 -27 -37 -51 -37c-34 0 -57 26 -57 58zM642 177c31 0 56 -27 56 -58 c0 -30 -25 -58 -56 -58l-23 3c-19 7 -34 32 -34 55l3 23c9 20 28 35 54 35z" />
		</symbol>
		<symbol id="E260" viewBox="0 0 1000 1000" overflow="inherit">
			<path transform="scale(1,-1)" d="M20 110c32 16 54 27 93 27c26 0 35 -3 54 -13c13 -7 24 -20 27 -38l4 -25c0 -28 -16 -57 -45 -89c-23 -25 -39 -44 -65 -68l-88 -79v644h20v-359zM90 106c-32 0 -48 -10 -70 -29v-194c31 31 54 59 71 84c21 32 32 59 32 84c0 9 1 16 1 20c0 14 -3 21 -11 30l-8 3z" />
		</symbol>
		<symbol id="E262" viewBox="0 0 1000 1000" overflow="inherit">
			<path transform="scale(1,-1)" d="M136 186v169h17v-164l44 14v-91l-44 -14v-165l44 12v-91l-44 -13v-155h-17v150l-76 -22v-155h-17v149l-43 -13v90l43 14v167l-43 -14v92l43 13v169h17v-163zM60 73v-167l76 22v168z" />
		</symbol>
	</defs>
	<style type="text/css">g.page-margin{font-family:Times;} g.tempo{font-weight:bold;} g.dir, g.dynam, g.mNum{font-style:italic;} g.label{font-weight:normal;}</style>
	<svg class="definition-scale" viewBox="0 0 21000 4500">
		<g class="page-margin" transform="translate(500, 500)">
			<g class="system" id="system-0000000046390451">
				<path d="M13 720 L13 2880" stroke="#000000" stroke-width="27" />
				<path d="M-32,2862 C-392,2322 58,1980 -212,1800 C121,1980 -329,2322 -32,2862" stroke="#000000" stroke-linecap="round" stroke-linejoin="round" stroke-width="18" />
				<path d="M-32,738 C-329,1278 121,1620 -212,1800 C58,1620 -392,1278 -32,738" stroke="#000000" stroke-linecap="round" stroke-linejoin="round" stroke-width="18" />
				<g class="section boundaryStart" id="section-L1F1" />
				<g class="measure" id="measure-L4">
					<g class="staff" id="staff-L4F2N1">
						<path d="M0 720 L4356 720" stroke="#000000" stroke-width="13" />
						<path d="M0 900 L4356 900" stroke="#000000" stroke-width="13" />
						<path d="M0 1080 L4356 1080" stroke="#000000" stroke-width="13" />
						<path d="M0 1260 L4356 1260" stroke="#000000" stroke-width="13" />
						<path d="M0 1440 L4356 1440" stroke="#000000" stroke-width="13" />
						<g class="clef" id="clef-0000001138579783">
							<use xlink:href="#E050" x="90" y="1260" height="720px" width="720px" />
						</g>
						<g class="meterSig" id="msig-0000002031118111">
							<use xlink:href="#E082" x="771" y="900" height="720px" width="720px" />
							<use xlink:href="#E084" x="777" y="1260" height="720px" width="720px" />
						</g>
						<g class="layer" id="layer-L4F2N1">
							<g class="beam" id="beam-L5F2-L8F2">
								<polygon points="1585,435 2794,316 2794,406 1585,525 " />
								<polygon points="1585,570 2794,451 2794,541 1585,660 " />
								<g class="note" id="note-L5F2">
									<use xlink:href="#E0A4" x="1377" y="1260" height="720px" width="720px" />
									<g class="stem">
										<rect x="1585" y="453" height="785" width="18" />
									</g>
									<g class="accid" id="accid-0000001411925097" />
								</g>
								<g class="note" id="note-L6F2">
									<use xlink:href="#E0A4" x="1774" y="1170" height="720px" width="720px" />
									<g class="stem">
										<rect x="1982" y="413" height="735" width="18" />
									</g>
									<g class="accid" id="accid-0000000608179065" />
								</g>
								<g class="note" id="note-L7F2">
									<use xlink:href="#E0A4" x="2171" y="1260" height="720px" width="720px" />
									<g class="stem">
										<rect x="2379" y="373" height="865" width="18" />
									</g>
									<g class="accid" id="accid-0000000010906922" />
								</g>
								<g class="note" id="note-L8F2">
									<use xlink:href="#E0A4" x="2568" y="990" height="720px" width="720px" />
									<g class="stem">
										<rect x="2776" y="334" height="634" width="18" />
									</g>
									<g class="accid" id="accid-0000000848964794" />
								</g>
							</g>
							<g class="beam" id="beam-L9F2-L11F2">
								<polygon points="3173,413 4154,316 4154,406 3173,503 " />
								<polygon points="3748,491 4154,451 4154,541 3748,581 " />
								<g class="note" id="note-L9F2">
									<use xlink:href="#E0A4" x="2965" y="1260" height="720px" width="720px" />
									<g class="stem">
										<rect x="3173" y="431" height="807" width="18" />
									</g>
									<g class="accid" id="accid-0000001508843510" />
								</g>
								<g class="note" id="note-L10F2">
									<use xlink:href="#E0A4" x="3531" y="1080" height="720px" width="720px" />
									<g class="stem">
										<rect x="3739" y="374" height="684" width="18" />
									</g>
									<g class="accid" id="accid-0000002060663751" />
								</g>
								<g class="note" id="note-L11F2">
									<use xlink:href="#E0A4" x="3928" y="990" height="720px" width="720px" />
									<g class="stem">
										<rect x="4136" y="334" height="634" width="18" />
									</g>
									<g class="accid" id="accid-0000001961383302" />
								</g>
							</g>
						</g>
					</g>
					<g class="staff" id="staff-L4F1N1">
						<path d="M0 2160 L4356 2160" stroke="#000000" stroke-width="13" />
						<path d="M0 2340 L4356 2340" stroke="#000000" stroke-width="13" />
						<path d="M0 2520 L4356 2520" stroke="#000000" stroke-width="13" />
						<path d="M0 2700 L4356 2700" stroke="#000000" stroke-width="13" />
						<path d="M0 2880 L4356 2880" stroke="#000000" stroke-width="13" />
						<g class="clef" id="clef-0000000602038865">
							<use xlink:href="#E062" x="90" y="2340" height="720px" width="720px" />
						</g>
						<g class="meterSig" id="msig-0000001671743038">
							<use xlink:href="#E082" x="771" y="2340" height="720px" width="720px" />
							<use xlink:href="#E084" x="777" y="2700" height="720px" width="720px" />
						</g>
						<g class="layer" id="layer-L4F1N1">
							<g class="beam" id="beam-L5F1-L8F1">
								<polygon points="1585,1875 2794,1756 2794,1846 1585,1965 " />
								<polygon points="1585,2010 2794,1891 2794,1981 1585,2100 " />
								<g class="note" id="note-L5F1">
									<use xlink:href="#E0A4" x="1377" y="2610" height="720px" width="720px" />
									<g class="stem">
										<rect x="1585" y="1893" height="695" width="18" />
									</g>
									<g class="accid" id="accid-0000000671944199" />
								</g>
								<g class="note" id="note-L6F1">
									<use xlink:href="#E0A4" x="1774" y="2520" height="720px" width="720px" />
									<g class="stem">
										<rect x="1982" y="1853" height="645" width="18" />
									</g>
									<g class="accid" id="accid-0000001486255260" />
								</g>
								<g class="note" id="note-L7F1">
									<use xlink:href="#E0A4" x="2171" y="2610" height="720px" width="720px" />
									<g class="stem">
										<rect x="2379" y="1813" height="775" width="18" />
									</g>
									<g class="accid" id="accid-0000001109275077" />
								</g>
								<g class="note" id="note-L8F1">
									<use xlink:href="#E0A4" x="2568" y="2430" height="720px" width="720px" />
									<g class="stem">
										<rect x="2776" y="1774" height="634" width="18" />
									</g>
									<g class="accid" id="accid-0000000152300443" />
								</g>
							</g>
							<g class="beam" id="beam-L9F1-L11F1">
								<polygon points="2965,3112 3946,3015 3946,2925 2965,3022 " />
								<polygon points="3540,2920 3946,2880 3946,2790 3540,2830 " />
								<g class="note" id="note-L9F1">
									<use xlink:href="#E0A4" x="2965" y="2430" height="720px" width="720px" />
									<g class="stem">
										<rect x="2965" y="2452" height="642" width="18" />
									</g>
									<g class="accid" id="accid-0000000651678164" />
								</g>
								<g class="note" id="note-L10F1">
									<use xlink:href="#E0A4" x="3531" y="2250" height="720px" width="720px" />
									<g class="stem">
										<rect x="3531" y="2272" height="765" width="18" />
									</g>
									<g class="accid" id="accid-0000000587894148" />
								</g>
								<g class="note" id="note-L11F1">
									<use xlink:href="#E0A4" x="3928" y="2340" height="720px" width="720px" />
									<g class="stem">
										<rect x="3928" y="2362" height="635" width="18" />
									</g>
									<g class="accid" id="accid-0000001911756987" />
								</g>
							</g>
						</g>
					</g>
					<g class="tie" id="tie-L8F1-L9F1">
						<path d="M2681,2565 C2780,2663 2978,2663 3078,2565 C2978,2707 2780,2707 2681,2565" stroke="#000000" stroke-linecap="round" stroke-linejoin="round" stroke-width="9" />
					</g>
					<g class="mNum autogenerated" id="mnum-0000001546503877" />
					<g class="barLineAttr" id="bline-0000000652690228">
						<path d="M4343 2880 L4343 720" stroke="#000000" stroke-width="27" />
					</g>
				</g>
				<g class="measure" id="measure-L12">
					<g class="staff" id="staff-L12F2N1">
						<path d="M4356 720 L7790 720" stroke="#000000" stroke-width="13" />
						<path d="M4356 900 L7790 900" stroke="#000000" stroke-width="13" />
						<path d="M4356 1080 L7790 1080" stroke="#000000" stroke-width="13" />
						<path d="M4356 1260 L7790 1260" stroke="#000000" stroke-width="13" />
						<path d="M4356 1440 L7790 1440" stroke="#000000" stroke-width="13" />
						<g class="layer" id="layer-L12F2N1">
							<g class="beam" id="beam-L13F2-L16F2">
								<polygon points="4791,379 6000,406 6000,496 4791,469 " />
								<polygon points="4791,514 6000,541 6000,631 4791,604 " />
								<g class="note" id="note-L13F2">
									<use xlink:href="#E0A4" x="4583" y="1080" height="720px" width="720px" />
									<g class="stem">
										<rect x="4791" y="397" height="661" width="18" />
									</g>
									<g class="accid" id="accid-0000000714715031" />
								</g>
								<g class="note" id="note-L14F2">
									<use xlink:href="#E0A4" x="4980" y="1170" height="720px" width="720px" />
									<g class="stem">
										<rect x="5188" y="406" height="742" width="18" />
									</g>
									<g class="accid" id="accid-0000000709559721" />
								</g>
								<g class="note" id="note-L15F2">
									<use xlink:href="#E0A4" x="5377" y="1260" height="720px" width="720px" />
									<g class="stem">
										<rect x="5585" y="415" height="823" width="18" />
									</g>
									<g class="accid" id="accid-0000000549373877" />
								</g>
								<g class="note" id="note-L16F2">
									<use xlink:href="#E0A4" x="5774" y="1080" height="720px" width="720px" />
									<g class="stem">
										<rect x="5982" y="424" height="634" width="18" />
									</g>
									<g class="accid" id="accid-0000001383443045" />
								</g>
							</g>
							<g class="beam" id="beam-L17F2-L20F2">
								<polygon points="6379,316 7589,435 7589,525 6379,406 " />
								<polygon points="7183,531 7589,570 7589,660 7183,621 " />
								<g class="note" id="note-L17F2">
									<use xlink:href="#E0A4" x="6171" y="990" height="720px" width="720px" />
									<g class="stem">
										<rect x="6379" y="334" height="634" width="18" />
									</g>
									<g class="accid" id="accid-0000001622859516" />
								</g>
								<g class="note" id="note-L19F2">
									<use xlink:href="#E0A4" x="6966" y="1170" height="720px" width="720px" />
									<g class="stem">
										<rect x="7174" y="414" height="734" width="18" />
									</g>
									<g class="accid" id="accid-0000000433210387" />
								</g>
								<g class="note" id="note-L20F2">
									<use xlink:href="#E0A4" x="7363" y="1260" height="720px" width="720px" />
									<g class="stem">
										<rect x="7571" y="453" height="785" width="18" />
									</g>
									<g class="accid" id="accid-0000000228975571" />
								</g>
							</g>
						</g>
					</g>
					<g class="staff" id="staff-L12F1N1">
						<path d="M4356 2160 L7790 2160" stroke="#000000" stroke-width="13" />
						<path d="M4356 2340 L7790 2340" stroke="#000000" stroke-width="13" />
						<path d="M4356 2520 L7790 2520" stroke="#000000" stroke-width="13" />
						<path d="M4356 2700 L7790 2700" stroke="#000000" stroke-width="13" />
						<path d="M4356 2880 L7790 2880" stroke="#000000" stroke-width="13" />
						<g class="layer" id="layer-L12F1N1">
							<g class="beam" id="beam-L13F1-L14F1">
								<polygon points="4583,3065 4998,3105 4998,3015 4583,2975 " />
								<polygon points="4583,2930 4741,2945 4741,2855 4583,2840 " />
								<g class="note" id="note-L13F1">
									<use xlink:href="#E0A4" x="4583" y="2250" height="720px" width="720px" />
									<g class="stem">
										<rect x="4583" y="2272" height="775" width="18" />
									</g>
									<g class="accid" id="accid-0000000851571776" />
								</g>
								<g class="note" id="note-L14F1">
									<use xlink:href="#E0A4" x="4980" y="2430" height="720px" width="720px" />
									<g class="dots" id="dots-0000000789125935">
										<ellipse cx="5296" cy="2430" rx="36" ry="36" />
									</g>
									<g class="stem">
										<rect x="4980" y="2452" height="635" width="18" />
									</g>
									<g class="accid" id="accid-0000001847239275" />
								</g>
							</g>
							<g class="beam" id="beam-L17F1-L20F1">
								<polygon points="6171,3165 7381,3285 7381,3195 6171,3075 " />
								<polygon points="6171,3030 7381,3150 7381,3060 6171,2940 " />
								<g class="note" id="note-L17F1">
									<use xlink:href="#E0A4" x="6171" y="2340" height="720px" width="720px" />
									<g class="stem">
										<rect x="6171" y="2362" height="785" width="18" />
									</g>
									<g class="accid" id="accid-0000001197640006" />
								</g>
								<g class="note" id="note-L18F1">
									<use xlink:href="#E0A4" x="6568" y="2430" height="720px" width="720px" />
									<g class="stem">
										<rect x="6568" y="2452" height="735" width="18" />
									</g>
									<g class="accid" id="accid-0000000818209195" />
								</g>
								<g class="note" id="note-L19F1">
									<use xlink:href="#E0A4" x="6966" y="2520" height="720px" width="720px" />
									<g class="stem">
										<rect x="6966" y="2542" height="685" width="18" />
									</g>
									<g class="accid" id="accid-0000001607822286" />
								</g>
								<g class="note" id="note-L20F1">
									<use xlink:href="#E0A4" x="7363" y="2610" height="720px" width="720px" />
									<g class="stem">
										<rect x="7363" y="2632" height="635" width="18" />
									</g>
									<g class="accid" id="accid-0000000489044825" />
								</g>
							</g>
						</g>
					</g>
					<g class="mNum autogenerated" id="mnum-0000000720290120" />
					<g class="barLineAttr" id="bline-0000001104109705">
						<path d="M7777 2880 L7777 720" stroke="#000000" stroke-width="27" />
					</g>
				</g>
				<g class="measure" id="measure-L21">
					<g class="staff" id="staff-L21F2N1">
						<path d="M7790 720 L11566 720" stroke="#000000" stroke-width="13" />
						<path d="M7790 900 L11566 900" stroke="#000000" stroke-width="13" />
						<path d="M7790 1080 L11566 1080" stroke="#000000" stroke-width="13" />
						<path d="M7790 1260 L11566 1260" stroke="#000000" stroke-width="13" />
						<path d="M7790 1440 L11566 1440" stroke="#000000" stroke-width="13" />
						<g class="layer" id="layer-L21F2N1">
							<g class="beam" id="beam-L22F2-L25F2">
								<polygon points="8471,460 9927,316 9927,406 8471,550 " />
								<polygon points="8471,595 9927,451 9927,541 8471,685 " />
								<g class="note" id="note-L22F2">
									<use xlink:href="#E0A4" x="8263" y="1170" height="720px" width="720px" />
									<g class="stem">
										<rect x="8471" y="478" height="670" width="18" />
									</g>
									<g class="accid" id="accid-0000001595114433">
										<use xlink:href="#E260" x="8067" y="1170" height="720px" width="720px" />
									</g>
								</g>
								<g class="note" id="note-L23F2">
									<use xlink:href="#E0A4" x="8660" y="1260" height="720px" width="720px" />
									<g class="stem">
										<rect x="8868" y="438" height="800" width="18" />
									</g>
									<g class="accid" id="accid-0000000756044689" />
								</g>
								<g class="note" id="note-L24F2">
									<use xlink:href="#E0A4" x="9057" y="1170" height="720px" width="720px" />
									<g class="stem">
										<rect x="9265" y="398" height="750" width="18" />
									</g>
									<g class="accid" id="accid-0000000275839999" />
								</g>
								<g class="note" id="note-L25F2">
									<use xlink:href="#E0A4" x="9701" y="990" height="720px" width="720px" />
									<g class="stem">
										<rect x="9909" y="334" height="634" width="18" />
									</g>
									<g class="accid" id="accid-0000000751346950" />
								</g>
							</g>
							<g class="beam" id="beam-L26F2-L28F2">
								<polygon points="10098,1845 11157,1740 11157,1650 10098,1755 " />
								<polygon points="10750,1645 11157,1605 11157,1515 10750,1555 " />
								<g class="note" id="note-L26F2">
									<use xlink:href="#E0A4" x="10098" y="1170" height="720px" width="720px" />
									<g class="stem">
										<rect x="10098" y="1192" height="635" width="18" />
									</g>
									<g class="accid" id="accid-0000000504670512" />
								</g>
								<g class="note" id="note-L27F2">
									<use xlink:href="#E0A4" x="10741" y="1080" height="720px" width="720px" />
									<g class="stem">
										<rect x="10741" y="1102" height="660" width="18" />
									</g>
									<g class="accid" id="accid-0000001910313914">
										<use xlink:href="#E260" x="10545" y="1080" height="720px" width="720px" />
									</g>
								</g>
								<g class="note" id="note-L28F2">
									<use xlink:href="#E0A4" x="11139" y="990" height="720px" width="720px" />
									<g class="stem">
										<rect x="11139" y="1012" height="710" width="18" />
									</g>
									<g class="accid" id="accid-0000001947069084" />
								</g>
							</g>
						</g>
					</g>
					<g class="staff" id="staff-L21F1N1">
						<path d="M7790 2160 L11566 2160" stroke="#000000" stroke-width="13" />
						<path d="M7790 2340 L11566 2340" stroke="#000000" stroke-width="13" />
						<path d="M7790 2520 L11566 2520" stroke="#000000" stroke-width="13" />
						<path d="M7790 2700 L11566 2700" stroke="#000000" stroke-width="13" />
						<path d="M7790 2880 L11566 2880" stroke="#000000" stroke-width="13" />
						<g class="layer" id="layer-L21F1N1">
							<g class="beam" id="beam-L22F1-L25F1">
								<polygon points="8471,1886 9927,1742 9927,1832 8471,1976 " />
								<polygon points="8471,2021 9927,1877 9927,1967 8471,2111 " />
								<g class="note" id="note-L22F1">
									<use xlink:href="#E0A4" x="8263" y="2610" height="720px" width="720px" />
									<g class="stem">
										<rect x="8471" y="1904" height="684" width="18" />
									</g>
									<g class="accid" id="accid-0000002004295568" />
								</g>
								<g class="note" id="note-L23F1">
									<use xlink:href="#E0A4" x="8660" y="2520" height="720px" width="720px" />
									<g class="stem">
										<rect x="8868" y="1864" height="634" width="18" />
									</g>
									<g class="accid" id="accid-0000001717709997" />
								</g>
								<g class="note" id="note-L24F1">
									<use xlink:href="#E0A4" x="9057" y="2610" height="720px" width="720px" />
									<g class="stem">
										<rect x="9265" y="1824" height="764" width="18" />
									</g>
									<g class="accid" id="accid-0000001453384122" />
								</g>
								<g class="note" id="note-L25F1">
									<use xlink:href="#E0A4" x="9701" y="2430" height="720px" width="720px" />
									<g class="stem">
										<rect x="9909" y="1760" height="648" width="18" />
									</g>
									<g class="accid" id="accid-0000001568259374">
										<use xlink:href="#E260" x="9505" y="2430" height="720px" width="720px" />
									</g>
								</g>
							</g>
							<g class="beam" id="beam-L26F1-L28F1">
								<polygon points="10098,3120 11157,3015 11157,2925 10098,3030 " />
								<polygon points="10750,2920 11157,2880 11157,2790 10750,2830 " />
								<g class="note" id="note-L26F1">
									<use xlink:href="#E0A4" x="10098" y="2430" height="720px" width="720px" />
									<g class="stem">
										<rect x="10098" y="2452" height="650" width="18" />
									</g>
									<g class="accid" id="accid-0000001238348839" />
								</g>
								<g class="note" id="note-L27F1">
									<use xlink:href="#E0A4" x="10741" y="2250" height="720px" width="720px" />
									<g class="stem">
										<rect x="10741" y="2272" height="765" width="18" />
									</g>
									<g class="accid" id="accid-0000000497610362" />
								</g>
								<g class="note" id="note-L28F1">
									<use xlink:href="#E0A4" x="11139" y="2340" height="720px" width="720px" />
									<g class="stem">
										<rect x="11139" y="2362" height="635" width="18" />
									</g>
									<g class="accid" id="accid-0000000804447936" />
								</g>
							</g>
						</g>
					</g>
					<g class="tie" id="tie-L25F1-L26F1">
						<path d="M9814,2565 C9913,2663 10111,2663 10211,2565 C10111,2707 9913,2707 9814,2565" stroke="#000000" stroke-linecap="round" stroke-linejoin="round" stroke-width="9" />
					</g>
					<g class="mNum autogenerated" id="mnum-0000000442759137" />
					<g class="barLineAttr" id="bline-0000001966010498">
						<path d="M11553 2880 L11553 720" stroke="#000000" stroke-width="27" />
					</g>
				</g>
				<g class="measure" id="measure-L29">
					<g class="staff" id="staff-L29F2N1">
						<path d="M11566 720 L15739 720" stroke="#000000" stroke-width="13" />
						<path d="M11566 900 L15739 900" stroke="#000000" stroke-width="13" />
						<path d="M11566 1080 L15739 1080" stroke="#000000" stroke-width="13" />
						<path d="M11566 1260 L15739 1260" stroke="#000000" stroke-width="13" />
						<path d="M11566 1440 L15739 1440" stroke="#000000" stroke-width="13" />
						<g class="layer" id="layer-L29F2N1">
							<g class="beam" id="beam-L30F2-L33F2">
								<polygon points="12247,404 13949,391 13949,481 12247,494 " />
								<polygon points="12247,539 13949,526 13949,616 12247,629 " />
								<g class="note" id="note-L30F2">
									<use xlink:href="#E0A4" x="12039" y="1080" height="720px" width="720px" />
									<g class="stem">
										<rect x="12247" y="422" height="636" width="18" />
									</g>
									<g class="accid" id="accid-0000002076087485">
										<use xlink:href="#E260" x="11843" y="1080" height="720px" width="720px" />
									</g>
								</g>
								<g class="note" id="note-L31F2">
									<use xlink:href="#E0A4" x="12683" y="1260" height="720px" width="720px" />
									<g class="stem">
										<rect x="12891" y="417" height="821" width="18" />
									</g>
									<g class="accid" id="accid-0000001650574880" />
								</g>
								<g class="note" id="note-L32F2">
									<use xlink:href="#E0A4" x="13326" y="1170" height="720px" width="720px" />
									<g class="stem">
										<rect x="13534" y="412" height="736" width="18" />
									</g>
									<g class="accid" id="accid-0000001889510824">
										<use xlink:href="#E260" x="13130" y="1170" height="720px" width="720px" />
									</g>
								</g>
								<g class="note" id="note-L33F2">
									<use xlink:href="#E0A4" x="13723" y="1080" height="720px" width="720px" />
									<g class="stem">
										<rect x="13931" y="409" height="649" width="18" />
									</g>
									<g class="accid" id="accid-0000000991131298" />
								</g>
							</g>
							<g class="beam" id="beam-L34F2-L37F2">
								<polygon points="14328,316 15538,435 15538,525 14328,406 " />
								<polygon points="15132,531 15538,570 15538,660 15132,621 " />
								<g class="note" id="note-L34F2">
									<use xlink:href="#E0A4" x="14120" y="990" height="720px" width="720px" />
									<g class="stem">
										<rect x="14328" y="334" height="634" width="18" />
									</g>
									<g class="accid" id="accid-0000001638254053" />
								</g>
								<g class="note" id="note-L36F2">
									<use xlink:href="#E0A4" x="14915" y="1260" height="720px" width="720px" />
									<g class="stem">
										<rect x="15123" y="414" height="824" width="18" />
									</g>
									<g class="accid" id="accid-0000001177245039" />
								</g>
								<g class="note" id="note-L37F2">
									<use xlink:href="#E0A4" x="15312" y="1170" height="720px" width="720px" />
									<g class="stem">
										<rect x="15520" y="453" height="695" width="18" />
									</g>
									<g class="accid" id="accid-0000001143697135" />
								</g>
							</g>
						</g>
					</g>
					<g class="staff" id="staff-L29F1N1">
						<path d="M11566 2160 L15739 2160" stroke="#000000" stroke-width="13" />
						<path d="M11566 2340 L15739 2340" stroke="#000000" stroke-width="13" />
						<path d="M11566 2520 L15739 2520" stroke="#000000" stroke-width="13" />
						<path d="M11566 2700 L15739 2700" stroke="#000000" stroke-width="13" />
						<path d="M11566 2880 L15739 2880" stroke="#000000" stroke-width="13" />
						<g class="layer" id="layer-L29F1N1">
							<g class="beam" id="beam-L30F1-L31F1">
								<polygon points="12039,3040 12701,3105 12701,3015 12039,2950 " />
								<polygon points="12039,2905 12197,2920 12197,2830 12039,2815 " />
								<g class="note" id="note-L30F1">
									<use xlink:href="#E0A4" x="12039" y="2250" height="720px" width="720px" />
									<g class="stem">
										<rect x="12039" y="2272" height="750" width="18" />
									</g>
									<g class="accid" id="accid-0000000107723689" />
								</g>
								<g class="note" id="note-L31F1">
									<use xlink:href="#E0A4" x="12683" y="2430" height="720px" width="720px" />
									<g class="dots" id="dots-0000001156019366">
										<ellipse cx="12999" cy="2430" rx="36" ry="36" />
									</g>
									<g class="stem">
										<rect x="12683" y="2452" height="635" width="18" />
									</g>
									<g class="accid" id="accid-0000001678650016">
										<use xlink:href="#E260" x="12487" y="2430" height="720px" width="720px" />
									</g>
								</g>
							</g>
							<g class="beam" id="beam-L34F1-L37F1">
								<polygon points="14120,3165 15330,3285 15330,3195 14120,3075 " />
								<polygon points="14120,3030 15330,3150 15330,3060 14120,2940 " />
								<g class="note" id="note-L34F1">
									<use xlink:href="#E0A4" x="14120" y="2340" height="720px" width="720px" />
									<g class="stem">
										<rect x="14120" y="2362" height="785" width="18" />
									</g>
									<g class="accid" id="accid-0000000413127926" />
								</g>
								<g class="note" id="note-L35F1">
									<use xlink:href="#E0A4" x="14517" y="2430" height="720px" width="720px" />
									<g class="stem">
										<rect x="14517" y="2452" height="735" width="18" />
									</g>
									<g class="accid" id="accid-0000001301833923" />
								</g>
								<g class="note" id="note-L36F1">
									<use xlink:href="#E0A4" x="14915" y="2520" height="720px" width="720px" />
									<g class="stem">
										<rect x="14915" y="2542" height="685" width="18" />
									</g>
									<g class="accid" id="accid-0000001634580789" />
								</g>
								<g class="note" id="note-L37F1">
									<use xlink:href="#E0A4" x="15312" y="2610" height="720px" width="720px" />
									<g class="stem">
										<rect x="15312" y="2632" height="635" width="18" />
									</g>
									<g class="accid" id="accid-0000001130374234" />
								</g>
							</g>
						</g>
					</g>
					<g class="mNum autogenerated" id="mnum-0000001205075734" />
					<g class="barLineAttr" id="bline-0000002004593434">
						<path d="M15726 2880 L15726 720" stroke="#000000" stroke-width="27" />
					</g>
				</g>
				<g class="measure" id="measure-L38">
					<g class="staff" id="staff-L38F2N1">
						<path d="M15739 720 L20002 720" stroke="#000000" stroke-width="13" />
						<path d="M15739 900 L20002 900" stroke="#000000" stroke-width="13" />
						<path d="M15739 1080 L20002 1080" stroke="#000000" stroke-width="13" />
						<path d="M15739 1260 L20002 1260" stroke="#000000" stroke-width="13" />
						<path d="M15739 1440 L20002 1440" stroke="#000000" stroke-width="13" />
						<g class="layer" id="layer-L38F2N1">
							<g class="beam" id="beam-L39F2-L42F2">
								<polygon points="16419,572 18118,467 18118,557 16419,662 " />
								<polygon points="16419,707 18118,602 18118,692 16419,797 " />
								<g class="note" id="note-L39F2">
									<use xlink:href="#E0A4" x="16211" y="1260" height="720px" width="720px" />
									<g class="stem">
										<rect x="16419" y="590" height="648" width="18" />
									</g>
									<g class="accid" id="accid-0000002051367794">
										<use xlink:href="#E262" x="16016" y="1260" height="720px" width="720px" />
									</g>
								</g>
								<g class="note" id="note-L40F2">
									<use xlink:href="#E0A4" x="16853" y="1350" height="720px" width="720px" />
									<g class="stem">
										<rect x="17061" y="550" height="778" width="18" />
									</g>
									<g class="accid" id="accid-0000000624673552">
										<use xlink:href="#E262" x="16658" y="1350" height="720px" width="720px" />
									</g>
								</g>
								<g class="note" id="note-L41F2">
									<use xlink:href="#E0A4" x="17250" y="1260" height="720px" width="720px" />
									<g class="stem">
										<rect x="17458" y="525" height="713" width="18" />
									</g>
									<g class="accid" id="accid-0000000733612929" />
								</g>
								<g class="note" id="note-L42F2">
									<use xlink:href="#E0A4" x="17892" y="1170" height="720px" width="720px" />
									<g class="stem">
										<rect x="18100" y="485" height="663" width="18" />
									</g>
									<g class="accid" id="accid-0000000072777487">
										<use xlink:href="#E262" x="17697" y="1170" height="720px" width="720px" />
									</g>
								</g>
							</g>
							<g class="beam" id="beam-L43F2-L45F2">
								<polygon points="18497,451 19800,361 19800,451 18497,541 " />
								<polygon points="19149,541 19800,496 19800,586 19149,631 " />
								<g class="note" id="note-L43F2">
									<use xlink:href="#E0A4" x="18289" y="1260" height="720px" width="720px" />
									<g class="stem">
										<rect x="18497" y="469" height="769" width="18" />
									</g>
									<g class="accid" id="accid-0000001102045319" />
								</g>
								<g class="note" id="note-L44F2">
									<use xlink:href="#E0A4" x="18932" y="1080" height="720px" width="720px" />
									<g class="stem">
										<rect x="19140" y="424" height="634" width="18" />
									</g>
									<g class="accid" id="accid-0000001492050290" />
								</g>
								<g class="note" id="note-L45F2">
									<use xlink:href="#E0A4" x="19574" y="1170" height="720px" width="720px" />
									<g class="stem">
										<rect x="19782" y="379" height="769" width="18" />
									</g>
									<g class="accid" id="accid-0000002029307092" />
								</g>
							</g>
						</g>
					</g>
					<g class="staff" id="staff-L38F1N1">
						<path d="M15739 2160 L20002 2160" stroke="#000000" stroke-width="13" />
						<path d="M15739 2340 L20002 2340" stroke="#000000" stroke-width="13" />
						<path d="M15739 2520 L20002 2520" stroke="#000000" stroke-width="13" />
						<path d="M15739 2700 L20002 2700" stroke="#000000" stroke-width="13" />
						<path d="M15739 2880 L20002 2880" stroke="#000000" stroke-width="13" />
						<g class="layer" id="layer-L38F1N1">
							<g class="beam" id="beam-L39F1-L42F1">
								<polygon points="16419,1993 18118,1843 18118,1933 16419,2083 " />
								<polygon points="16419,2128 18118,1978 18118,2068 16419,2218 " />
								<g class="note" id="note-L39F1">
									<use xlink:href="#E0A4" x="16211" y="2700" height="720px" width="720px" />
									<g class="stem">
										<rect x="16419" y="2011" height="667" width="18" />
									</g>
									<g class="accid" id="accid-0000000570721109" />
								</g>
								<g class="note" id="note-L40F1">
									<use xlink:href="#E0A4" x="16853" y="2610" height="720px" width="720px" />
									<g class="stem">
										<rect x="17061" y="1954" height="634" width="18" />
									</g>
									<g class="accid" id="accid-0000000696804517">
										<use xlink:href="#E262" x="16658" y="2610" height="720px" width="720px" />
									</g>
								</g>
								<g class="note" id="note-L41F1">
									<use xlink:href="#E0A4" x="17250" y="2700" height="720px" width="720px" />
									<g class="stem">
										<rect x="17458" y="1918" height="760" width="18" />
									</g>
									<g class="accid" id="accid-0000002006495505" />
								</g>
								<g class="note" id="note-L42F1">
									<use xlink:href="#E0A4" x="17892" y="2520" height="720px" width="720px" />
									<g class="stem">
										<rect x="18100" y="1861" height="637" width="18" />
									</g>
									<g class="accid" id="accid-0000001389218685">
										<use xlink:href="#E262" x="17697" y="2520" height="720px" width="720px" />
									</g>
								</g>
							</g>
							<g class="beam" id="beam-L43F1-L45F1">
								<polygon points="18289,3195 19592,3105 19592,3015 18289,3105 " />
								<polygon points="18941,3015 19592,2970 19592,2880 18941,2925 " />
								<g class="note" id="note-L43F1">
									<use xlink:href="#E0A4" x="18289" y="2520" height="720px" width="720px" />
									<g class="stem">
										<rect x="18289" y="2542" height="635" width="18" />
									</g>
									<g class="accid" id="accid-0000000169190301" />
								</g>
								<g class="note" id="note-L44F1">
									<use xlink:href="#E0A4" x="18932" y="2340" height="720px" width="720px" />
									<g class="stem">
										<rect x="18932" y="2362" height="770" width="18" />
									</g>
									<g class="accid" id="accid-0000002080517650">
										<use xlink:href="#E262" x="18737" y="2340" height="720px" width="720px" />
									</g>
								</g>
								<g class="note" id="note-L45F1">
									<use xlink:href="#E0A4" x="19574" y="2430" height="720px" width="720px" />
									<g class="stem">
										<rect x="19574" y="2452" height="635" width="18" />
									</g>
									<g class="accid" id="accid-0000001876510067">
										<use xlink:href="#E262" x="19379" y="2430" height="720px" width="720px" />
									</g>
								</g>
							</g>
						</g>
					</g>
					<g class="tie" id="tie-L42F1-L43F1">
						<path d="M18005,2655 C18104,2753 18302,2753 18402,2655 C18302,2797 18104,2797 18005,2655" stroke="#000000" stroke-linecap="round" stroke-linejoin="round" stroke-width="9" />
					</g>
					<g class="mNum autogenerated" id="mnum-0000001278531354" />
					<g class="barLineAttr" id="bline-0000000872981344">
						<path d="M19989 2880 L19989 720" stroke="#000000" stroke-width="27" />
					</g>
				</g>
			</g>
		</g>
	</svg>
</svg>
