<?xml version="1.0" encoding="UTF-8" standalone="no"?>
<svg width="2100.00px" height="450.00px" version="1.1" xmlns="http://www.w3.org/2000/svg" xmlns:xlink="http://www.w3.org/1999/xlink" overflow="visible">
	<desc>Engraved by Verovio 2.0.0-dev-0f0381c</desc>
	<defs>
		<symbol id="E050" viewBox="0 0 1000 1000" overflow="inherit">
			<path transform="scale(1,-1)" d="M441 -245c-23 -4 -48 -6 -76 -6c-59 0 -102 7 -130 20c-88 42 -150 93 -187 154c-26 44 -43 103 -48 176c-4 60 11 123 44 189c29 57 65 106 110 148s96 85 153 127c-3 16 -8 46 -13 92c-4 43 -5 73 -5 89c0 117 16 172 69 257c34 54 64 82 89 82c21 0 43 -30 69 -92 s39 -115 41 -159c2 -120 -19 -173 -67 -256c-13 -20 -63 -90 -98 -118c-13 -9 -25 -19 -37 -29l31 -181c8 1 18 2 28 2c58 0 102 -12 133 -35c59 -43 92 -104 98 -184c11 -135 -80 -229 -180 -270c8 -57 17 -110 25 -162c5 -31 6 -58 6 -80c0 -30 -5 -53 -14 -70 c-35 -64 -88 -99 -158 -103c-42 -3 -83 6 -124 26c-50 24 -77 59 -80 105c-2 34 5 63 20 87c18 28 45 42 79 44c51 4 99 -40 103 -87c4 -56 -30 -94 -105 -115c17 -24 51 -36 102 -36c62 0 116 43 140 85c9 16 13 41 13 74c0 20 -1 42 -5 67c-8 53 -18 106 -26 159zM461 939 c-95 0 -135 -175 -135 -286c0 -24 2 -48 5 -71c50 39 92 82 127 128c43 57 63 106 60 148c-4 54 -23 82 -57 81zM406 119l54 -326c80 27 116 88 109 184c-7 99 -62 146 -163 142zM382 117c-74 -2 -132 -50 -128 -127c2 -46 43 -99 75 -115c-3 -2 -7 -5 -10 -10 c-70 33 -116 88 -123 172c-5 73 42 135 88 170c23 17 49 29 78 36l-29 170c-21 -13 -52 -37 -92 -73c-50 -44 -86 -84 -109 -119c-49 -75 -71 -140 -67 -195c5 -68 35 -127 93 -176s125 -73 203 -73c25 0 50 3 75 9c-19 111 -36 221 -54 331z" />
		</symbol>
		<symbol id="E082" viewBox="0 0 1000 1000" overflow="inherit">
			<path transform="scale(1,-1)" d="M104 -185c-18 0 -55 -14 -65 -65h-36l-3 29c0 25 6 46 18 64c11 19 22 30 39 43l121 82l37 29c15 11 27 29 38 54c12 24 18 47 18 70c0 40 -19 88 -94 88c-25 0 -32 0 -50 -8c-14 -5 -23 -12 -26 -22c3 -9 7 -15 10 -18l24 -17c12 -7 17 -11 27 -21c5 -7 7 -16 7 -27 c0 -12 0 -57 -79 -74c-30 0 -76 26 -76 94c0 66 80 135 196 135c72 0 182 -32 182 -150c0 -53 -32 -95 -113 -133l-91 -41c-26 -11 -45 -23 -57 -37l49 7c84 0 115 -41 148 -41c20 0 33 20 39 61h35c0 -152 -68 -168 -114 -168c-17 0 -55 0 -69 7v0l-28 17 c-49 37 -69 40 -87 42z" />
		</symbol>
		<symbol id="E084" viewBox="0 0 1000 1000" overflow="inherit">
			<path transform="scale(1,-1)" d="M0 -78c84 97 114 180 134 329h170c-13 -32 -82 -132 -99 -151l-84 -97c-33 -36 -59 -63 -80 -81h162v102l127 123v-225h57v-39h-57v-34c0 -43 19 -65 57 -65v-34h-244v36c48 0 60 26 60 70v27h-203v39z" />
		</symbol>
		<symbol id="E0A4" viewBox="0 0 1000 1000" overflow="inherit">
			<path transform="scale(1,-1)" d="M0 -39c0 68 73 172 200 172c66 0 114 -37 114 -95c0 -84 -106 -171 -218 -171c-64 0 -96 30 -96 94z" />
		</symbol>
		<symbol id="E062" viewBox="0 0 1000 1000" overflow="inherit">
			<path transform="scale(1,-1)" d="M158 96c51 0 73 -14 88 -49l16 -39c0 -17 -2 -30 -7 -40c-3 -11 -10 -21 -19 -31c-17 -18 -49 -43 -84 -43c-55 0 -77 13 -112 44c-24 21 -35 55 -35 100c0 46 14 81 32 112c30 52 71 79 137 93l36 6l26 2c154 0 235 -68 274 -182c11 -32 18 -68 18 -107 c0 -103 -26 -182 -68 -250c-89 -145 -234 -230 -412 -288l-30 -5c-9 0 -14 3 -14 8c3 10 5 11 10 16c35 15 70 30 96 44l78 43c96 57 162 136 197 258c9 33 17 60 22 100c3 22 5 35 6 39c-7 69 -16 115 -23 140s-4 22 -16 40c-8 12 -19 23 -31 34c-24 21 -62 44 -118 44 c-48 0 -84 -8 -113 -28c-28 -19 -42 -44 -42 -73v-16c2 -5 3 -9 4 -11c24 22 52 39 84 39zM585 -118c0 32 23 58 57 58c18 0 33 -6 40 -18c9 -15 16 -18 16 -40c0 -9 -2 -16 -5 -21c-6 -19 -27 -37 -51 -37c-34 0 -57 26 -57 58zM642 177c31 0 56 -27 56 -58 c0 -30 -25 -58 -56 -58l-23 3c-19 7 -34 32 -34 55l3 23c9 20 28 35 54 35z" />
		</symbol>
		<symbol id="E260" viewBox="0 0 1000 1000" overflow="inherit">
			<path transform="scale(1,-1)" d="M20 110c32 16 54 27 93 27c26 0 35 -3 54 -13c13 -7 24 -20 27 -38l4 -25c0 -28 -16 -57 -45 -89c-23 -25 -39 -44 -65 -68l-88 -79v644h20v-359zM90 106c-32 0 -48 -10 -70 -29v-194c31 31 54 59 71 84c21 32 32 59 32 84c0 9 1 16 1 20c0 14 -3 21 -11 30l-8 3z" />
		</symbol>
		<symbol id="E262" viewBox="0 0 1000 1000" overflow="inherit">
			<path transform="scale(1,-1)" d="M136 186v169h17v-164l44 14v-91l-44 -14v-165l44 12v-91l-44 -13v-155h-17v150l-76 -22v-155h-17v149l-43 -13v90l43 14v167l-43 -14v92l43 13v169h17v-163zM60 73v-167l76 22v168z" />
		</symbol>
	</defs>
	<style type="text/css">g.page-margin{font-family:Times;} g.tempo{font-weight:bold;} g.dir, g.dynam, g.mNum{font-style:italic;} g.label{font-weight:normal;}</style>
	<svg class="definition-scale" viewBox="0 0 21000 4500">
		<g class="page-margin" transform="translate(500, 500)">
			<g class="system" id="system-0000000717689491">
				<path d="M13 720 L13 3124" stroke="#000000" stroke-width="27" />
				<path d="M-32,3106 C-392,2566 58,2102 -212,1922 C121,2102 -329,2566 -32,3106" stroke="#000000" stroke-linecap="round" stroke-linejoin="round" stroke-width="18" />
				<path d="M-32,738 C-329,1278 121,1742 -212,1922 C58,1742 -392,1278 -32,738" stroke="#000000" stroke-linecap="round" stroke-linejoin="round" stroke-width="18" />
				<g class="section boundaryStart" id="section-L1F1" />
				<g class="measure" id="measure-L4">
					<g class="staff" id="staff-L4F2N1">
						<path d="M0 720 L4531 720" stroke="#000000" stroke-width="13" />
						<path d="M0 900 L4531 900" stroke="#000000" stroke-width="13" />
						<path d="M0 1080 L4531 1080" stroke="#000000" stroke-width="13" />
						<path d="M0 1260 L4531 1260" stroke="#000000" stroke-width="13" />
						<path d="M0 1440 L4531 1440" stroke="#000000" stroke-width="13" />
						<g class="clef" id="clef-0000000030813028">
							<use xlink:href="#E050" x="90" y="1260" height="720px" width="720px" />
						</g>
						<g class="meterSig" id="msig-0000000331002669">
							<use xlink:href="#E082" x="771" y="900" height="720px" width="720px" />
							<use xlink:href="#E084" x="777" y="1260" height="720px" width="720px" />
						</g>
						<g class="layer" id="layer-L4F2N1">
							<g class="beam" id="beam-L5F2-L7F2">
								<polygon points="1583,446 2387,367 2387,457 1583,536 " />
								<polygon points="1583,581 1985,541 1985,631 1583,671 " />
								<g class="note" id="note-L5F2">
									<use xlink:href="#E0A4" x="1375" y="1440" height="720px" width="720px" />
									<g class="stem">
										<rect x="1583" y="464" height="954" width="18" />
									</g>
									<g class="accid" id="accid-0000001112244802" />
								</g>
								<g class="note" id="note-L6F2">
									<use xlink:href="#E0A4" x="1768" y="1080" height="720px" width="720px" />
									<g class="stem">
										<rect x="1976" y="424" height="634" width="18" />
									</g>
									<g class="accid" id="accid-0000000276625711" />
								</g>
								<g class="note" id="note-L7F2">
									<use xlink:href="#E0A4" x="2161" y="1170" height="720px" width="720px" />
									<g class="stem">
										<rect x="2369" y="385" height="763" width="18" />
									</g>
									<g class="accid" id="accid-0000000361788141" />
								</g>
							</g>
							<g class="beam" id="beam-L9F2-L11F2">
								<polygon points="3136,585 3940,585 3940,675 3136,675 " />
								<polygon points="3136,720 3538,720 3538,810 3136,810 " />
								<g class="note" id="note-L9F2">
									<use xlink:href="#E0A4" x="2928" y="1260" height="720px" width="720px" />
									<g class="stem">
										<rect x="3136" y="603" height="635" width="18" />
									</g>
									<g class="accid" id="accid-0000001818160825" />
								</g>
								<g class="note" id="note-L10F2">
									<use xlink:href="#E0A4" x="3321" y="1350" height="720px" width="720px" />
									<g class="stem">
										<rect x="3529" y="603" height="725" width="18" />
									</g>
									<g class="accid" id="accid-0000000878437534" />
								</g>
								<g class="note" id="note-L11F2">
									<use xlink:href="#E0A4" x="3714" y="1260" height="720px" width="720px" />
									<g class="stem">
										<rect x="3922" y="603" height="635" width="18" />
									</g>
									<g class="accid" id="accid-0000000524624656" />
								</g>
							</g>
						</g>
					</g>
					<g class="staff" id="staff-L4F1N1">
						<path d="M0 2404 L4531 2404" stroke="#000000" stroke-width="13" />
						<path d="M0 2584 L4531 2584" stroke="#000000" stroke-width="13" />
						<path d="M0 2764 L4531 2764" stroke="#000000" stroke-width="13" />
						<path d="M0 2944 L4531 2944" stroke="#000000" stroke-width="13" />
						<path d="M0 3124 L4531 3124" stroke="#000000" stroke-width="13" />
						<g class="clef" id="clef-0000001179212153">
							<use xlink:href="#E062" x="90" y="2584" height="720px" width="720px" />
						</g>
						<g class="meterSig" id="msig-0000002039560955">
							<use xlink:href="#E082" x="771" y="2584" height="720px" width="720px" />
							<use xlink:href="#E084" x="777" y="2944" height="720px" width="720px" />
						</g>
						<g class="layer" id="layer-L4F1N1">
							<g class="beam" id="beam-L5F1-L8F1">
								<polygon points="1375,3529 2552,3413 2552,3323 1375,3439 " />
								<polygon points="1375,3394 1533,3379 1533,3289 1375,3304 " />
								<polygon points="2394,3293 2552,3278 2552,3188 2394,3203 " />
								<g class="note" id="note-L5F1">
									<use xlink:href="#E0A4" x="1375" y="2854" height="720px" width="720px" />
									<g class="stem">
										<rect x="1375" y="2876" height="635" width="18" />
									</g>
									<g class="accid" id="accid-0000001407524364" />
								</g>
								<g class="note" id="note-L6F1">
									<use xlink:href="#E0A4" x="1768" y="2674" height="720px" width="720px" />
									<g class="stem">
										<rect x="1768" y="2696" height="775" width="18" />
									</g>
									<g class="accid" id="accid-0000001284574909" />
								</g>
								<g class="note" id="note-L8F1">
									<use xlink:href="#E0A4" x="2534" y="2494" height="720px" width="720px" />
									<g class="stem">
										<rect x="2534" y="2516" height="879" width="18" />
									</g>
									<g class="accid" id="accid-0000000502659467" />
								</g>
							</g>
							<g class="beam" id="beam-L9F1-L12F1">
								<polygon points="2928,3458 4126,3439 4126,3349 2928,3368 " />
								<polygon points="3723,3311 4126,3304 4126,3214 3723,3221 " />
								<g class="note" id="note-L9F1">
									<use xlink:href="#E0A4" x="2928" y="2764" height="720px" width="720px" />
									<g class="stem">
										<rect x="2928" y="2786" height="654" width="18" />
									</g>
									<g class="accid" id="accid-0000001110074395" />
								</g>
								<g class="note" id="note-L11F1">
									<use xlink:href="#E0A4" x="3714" y="2674" height="720px" width="720px" />
									<g class="stem">
										<rect x="3714" y="2696" height="732" width="18" />
									</g>
									<g class="accid" id="accid-0000001272735045" />
								</g>
								<g class="note" id="note-L12F1">
									<use xlink:href="#E0A4" x="4108" y="2764" height="720px" width="720px" />
									<g class="stem">
										<rect x="4108" y="2786" height="635" width="18" />
									</g>
									<g class="accid" id="accid-0000001528134661" />
								</g>
							</g>
						</g>
					</g>
					<g class="mNum autogenerated" id="mnum-0000000991767489" />
					<g class="barLineAttr" id="bline-0000001427644065">
						<path d="M4518 3124 L4518 720" stroke="#000000" stroke-width="27" />
					</g>
				</g>
				<g class="measure" id="measure-L13">
					<g class="staff" id="staff-L13F2N1">
						<path d="M4531 720 L7912 720" stroke="#000000" stroke-width="13" />
						<path d="M4531 900 L7912 900" stroke="#000000" stroke-width="13" />
						<path d="M4531 1080 L7912 1080" stroke="#000000" stroke-width="13" />
						<path d="M4531 1260 L7912 1260" stroke="#000000" stroke-width="13" />
						<path d="M4531 1440 L7912 1440" stroke="#000000" stroke-width="13" />
						<g class="layer" id="layer-L13F2N1">
							<g class="beam" id="beam-L14F2-L16F2">
								<polygon points="4964,446 5768,367 5768,457 4964,536 " />
								<polygon points="4964,581 5366,541 5366,631 4964,671 " />
								<g class="note" id="note-L14F2">
									<use xlink:href="#E0A4" x="4756" y="1440" height="720px" width="720px" />
									<g class="stem">
										<rect x="4964" y="464" height="954" width="18" />
									</g>
									<g class="accid" id="accid-0000000861005282" />
								</g>
								<g class="note" id="note-L15F2">
									<use xlink:href="#E0A4" x="5149" y="1080" height="720px" width="720px" />
									<g class="stem">
										<rect x="5357" y="424" height="634" width="18" />
									</g>
									<g class="accid" id="accid-0000000802864908" />
								</g>
								<g class="note" id="note-L16F2">
									<use xlink:href="#E0A4" x="5542" y="1170" height="720px" width="720px" />
									<g class="stem">
										<rect x="5750" y="385" height="763" width="18" />
									</g>
									<g class="accid" id="accid-0000000378143214" />
								</g>
							</g>
							<g class="beam" id="beam-L18F2-L20F2">
								<polygon points="6517,585 7321,585 7321,675 6517,675 " />
								<polygon points="6517,720 6919,720 6919,810 6517,810 " />
								<g class="note" id="note-L18F2">
									<use xlink:href="#E0A4" x="6309" y="1260" height="720px" width="720px" />
									<g class="stem">
										<rect x="6517" y="603" height="635" width="18" />
									</g>
									<g class="accid" id="accid-0000000108094447" />
								</g>
								<g class="note" id="note-L19F2">
									<use xlink:href="#E0A4" x="6702" y="1350" height="720px" width="720px" />
									<g class="stem">
										<rect x="6910" y="603" height="725" width="18" />
									</g>
									<g class="accid" id="accid-0000001007038215" />
								</g>
								<g class="note" id="note-L20F2">
									<use xlink:href="#E0A4" x="7095" y="1260" height="720px" width="720px" />
									<g class="stem">
										<rect x="7303" y="603" height="635" width="18" />
									</g>
									<g class="accid" id="accid-0000000809047922" />
								</g>
							</g>
						</g>
					</g>
					<g class="staff" id="staff-L13F1N1">
						<path d="M4531 2404 L7912 2404" stroke="#000000" stroke-width="13" />
						<path d="M4531 2584 L7912 2584" stroke="#000000" stroke-width="13" />
						<path d="M4531 2764 L7912 2764" stroke="#000000" stroke-width="13" />
						<path d="M4531 2944 L7912 2944" stroke="#000000" stroke-width="13" />
						<path d="M4531 3124 L7912 3124" stroke="#000000" stroke-width="13" />
						<g class="layer" id="layer-L13F1N1">
							<g class="beam" id="beam-L14F1-L17F1">
								<polygon points="4756,3529 5933,3413 5933,3323 4756,3439 " />
								<polygon points="4756,3394 4914,3379 4914,3289 4756,3304 " />
								<polygon points="5775,3293 5933,3278 5933,3188 5775,3203 " />
								<g class="note" id="note-L14F1">
									<use xlink:href="#E0A4" x="4756" y="2854" height="720px" width="720px" />
									<g class="stem">
										<rect x="4756" y="2876" height="635" width="18" />
									</g>
									<g class="accid" id="accid-0000000725841238" />
								</g>
								<g class="note" id="note-L15F1">
									<use xlink:href="#E0A4" x="5149" y="2674" height="720px" width="720px" />
									<g class="stem">
										<rect x="5149" y="2696" height="775" width="18" />
									</g>
									<g class="accid" id="accid-0000002125187412" />
								</g>
								<g class="note" id="note-L17F1">
									<use xlink:href="#E0A4" x="5915" y="2494" height="720px" width="720px" />
									<g class="stem">
										<rect x="5915" y="2516" height="879" width="18" />
									</g>
									<g class="accid" id="accid-0000001211566791" />
								</g>
							</g>
							<g class="beam" id="beam-L18F1-L21F1">
								<polygon points="6309,3458 7507,3439 7507,3349 6309,3368 " />
								<polygon points="7104,3311 7507,3304 7507,3214 7104,3221 " />
								<g class="note" id="note-L18F1">
									<use xlink:href="#E0A4" x="6309" y="2764" height="720px" width="720px" />
									<g class="stem">
										<rect x="6309" y="2786" height="654" width="18" />
									</g>
									<g class="accid" id="accid-0000001018674938" />
								</g>
								<g class="note" id="note-L20F1">
									<use xlink:href="#E0A4" x="7095" y="2674" height="720px" width="720px" />
									<g class="stem">
										<rect x="7095" y="2696" height="732" width="18" />
									</g>
									<g class="accid" id="accid-0000000389547106" />
								</g>
								<g class="note" id="note-L21F1">
									<use xlink:href="#E0A4" x="7489" y="2764" height="720px" width="720px" />
									<g class="stem">
										<rect x="7489" y="2786" height="635" width="18" />
									</g>
									<g class="accid" id="accid-0000001504981286" />
								</g>
							</g>
						</g>
					</g>
					<g class="mNum autogenerated" id="mnum-0000001836875814" />
					<g class="barLineAttr" id="bline-0000001828903949">
						<path d="M7899 3124 L7899 720" stroke="#000000" stroke-width="27" />
					</g>
				</g>
				<g class="measure" id="measure-L22">
					<g class="staff" id="staff-L22F2N1">
						<path d="M7912 720 L11781 720" stroke="#000000" stroke-width="13" />
						<path d="M7912 900 L11781 900" stroke="#000000" stroke-width="13" />
						<path d="M7912 1080 L11781 1080" stroke="#000000" stroke-width="13" />
						<path d="M7912 1260 L11781 1260" stroke="#000000" stroke-width="13" />
						<path d="M7912 1440 L11781 1440" stroke="#000000" stroke-width="13" />
						<g class="layer" id="layer-L22F2N1">
							<g class="beam" id="beam-L23F2-L25F2">
								<polygon points="8588,419 9637,316 9637,406 8588,509 " />
								<polygon points="8588,554 9235,490 9235,580 8588,644 " />
								<g class="note" id="note-L23F2">
									<use xlink:href="#E0A4" x="8380" y="1440" height="720px" width="720px" />
									<g class="stem">
										<rect x="8588" y="437" height="981" width="18" />
									</g>
									<g class="accid" id="accid-0000000775999799">
										<use xlink:href="#E260" x="8184" y="1440" height="720px" width="720px" />
									</g>
								</g>
								<g class="note" id="note-L24F2">
									<use xlink:href="#E0A4" x="9018" y="1170" height="720px" width="720px" />
									<g class="stem">
										<rect x="9226" y="373" height="775" width="18" />
									</g>
									<g class="accid" id="accid-0000000343600792">
										<use xlink:href="#E260" x="8822" y="1170" height="720px" width="720px" />
									</g>
								</g>
								<g class="note" id="note-L25F2">
									<use xlink:href="#E0A4" x="9411" y="990" height="720px" width="720px" />
									<g class="stem">
										<rect x="9619" y="334" height="634" width="18" />
									</g>
									<g class="accid" id="accid-0000000394965472" />
								</g>
							</g>
							<g class="beam" id="beam-L27F2-L29F2">
								<polygon points="10386,585 11190,585 11190,675 10386,675 " />
								<polygon points="10386,720 10788,720 10788,810 10386,810 " />
								<g class="note" id="note-L27F2">
									<use xlink:href="#E0A4" x="10178" y="1260" height="720px" width="720px" />
									<g class="stem">
										<rect x="10386" y="603" height="635" width="18" />
									</g>
									<g class="accid" id="accid-0000001560089692" />
								</g>
								<g class="note" id="note-L28F2">
									<use xlink:href="#E0A4" x="10571" y="1350" height="720px" width="720px" />
									<g class="stem">
										<rect x="10779" y="603" height="725" width="18" />
									</g>
									<g class="accid" id="accid-0000000838878999" />
								</g>
								<g class="note" id="note-L29F2">
									<use xlink:href="#E0A4" x="10964" y="1260" height="720px" width="720px" />
									<g class="stem">
										<rect x="11172" y="603" height="635" width="18" />
									</g>
									<g class="accid" id="accid-0000000103537415" />
								</g>
							</g>
						</g>
					</g>
					<g class="staff" id="staff-L22F1N1">
						<path d="M7912 2404 L11781 2404" stroke="#000000" stroke-width="13" />
						<path d="M7912 2584 L11781 2584" stroke="#000000" stroke-width="13" />
						<path d="M7912 2764 L11781 2764" stroke="#000000" stroke-width="13" />
						<path d="M7912 2944 L11781 2944" stroke="#000000" stroke-width="13" />
						<path d="M7912 3124 L11781 3124" stroke="#000000" stroke-width="13" />
						<g class="layer" id="layer-L22F1N1">
							<g class="beam" id="beam-L23F1-L26F1">
								<polygon points="8380,3619 9802,3478 9802,3388 8380,3529 " />
								<polygon points="8380,3484 8538,3469 8538,3379 8380,3394 " />
								<polygon points="9644,3358 9802,3343 9802,3253 9644,3268 " />
								<g class="note" id="note-L23F1">
									<use xlink:href="#E0A4" x="8380" y="2944" height="720px" width="720px" />
									<g class="stem">
										<rect x="8380" y="2966" height="635" width="18" />
									</g>
									<g class="accid" id="accid-0000001199041676">
										<use xlink:href="#E260" x="8184" y="2944" height="720px" width="720px" />
									</g>
								</g>
								<g class="note" id="note-L24F1">
									<use xlink:href="#E0A4" x="9018" y="2674" height="720px" width="720px" />
									<g class="stem">
										<rect x="9018" y="2696" height="841" width="18" />
									</g>
									<g class="accid" id="accid-0000002045510341">
										<use xlink:href="#E260" x="8822" y="2674" height="720px" width="720px" />
									</g>
								</g>
								<g class="note" id="note-L26F1">
									<use xlink:href="#E0A4" x="9784" y="2494" height="720px" width="720px" />
									<g class="stem">
										<rect x="9784" y="2516" height="944" width="18" />
									</g>
									<g class="accid" id="accid-0000001887882374" />
								</g>
							</g>
							<g class="beam" id="beam-L27F1-L30F1">
								<polygon points="10178,3458 11375,3439 11375,3349 10178,3368 " />
								<polygon points="10973,3310 11375,3304 11375,3214 10973,3220 " />
								<g class="note" id="note-L27F1">
									<use xlink:href="#E0A4" x="10178" y="2764" height="720px" width="720px" />
									<g class="stem">
										<rect x="10178" y="2786" height="654" width="18" />
									</g>
									<g class="accid" id="accid-0000001014888359" />
								</g>
								<g class="note" id="note-L29F1">
									<use xlink:href="#E0A4" x="10964" y="2674" height="720px" width="720px" />
									<g class="stem">
										<rect x="10964" y="2696" height="731" width="18" />
									</g>
									<g class="accid" id="accid-0000002051078048" />
								</g>
								<g class="note" id="note-L30F1">
									<use xlink:href="#E0A4" x="11357" y="2764" height="720px" width="720px" />
									<g class="stem">
										<rect x="11357" y="2786" height="635" width="18" />
									</g>
									<g class="accid" id="accid-0000001595414909" />
								</g>
							</g>
						</g>
					</g>
					<g class="mNum autogenerated" id="mnum-0000001432882779" />
					<g class="barLineAttr" id="bline-0000000925914412">
						<path d="M11768 3124 L11768 720" stroke="#000000" stroke-width="27" />
					</g>
				</g>
				<g class="measure" id="measure-L31">
					<g class="staff" id="staff-L31F2N1">
						<path d="M11781 720 L15650 720" stroke="#000000" stroke-width="13" />
						<path d="M11781 900 L15650 900" stroke="#000000" stroke-width="13" />
						<path d="M11781 1080 L15650 1080" stroke="#000000" stroke-width="13" />
						<path d="M11781 1260 L15650 1260" stroke="#000000" stroke-width="13" />
						<path d="M11781 1440 L15650 1440" stroke="#000000" stroke-width="13" />
						<g class="layer" id="layer-L31F2N1">
							<g class="beam" id="beam-L32F2-L34F2">
								<polygon points="12457,419 13506,316 13506,406 12457,509 " />
								<polygon points="12457,554 13104,490 13104,580 12457,644 " />
								<g class="note" id="note-L32F2">
									<use xlink:href="#E0A4" x="12249" y="1440" height="720px" width="720px" />
									<g class="stem">
										<rect x="12457" y="437" height="981" width="18" />
									</g>
									<g class="accid" id="accid-0000001226444758">
										<use xlink:href="#E260" x="12053" y="1440" height="720px" width="720px" />
									</g>
								</g>
								<g class="note" id="note-L33F2">
									<use xlink:href="#E0A4" x="12887" y="1170" height="720px" width="720px" />
									<g class="stem">
										<rect x="13095" y="373" height="775" width="18" />
									</g>
									<g class="accid" id="accid-0000001604386732">
										<use xlink:href="#E260" x="12691" y="1170" height="720px" width="720px" />
									</g>
								</g>
								<g class="note" id="note-L34F2">
									<use xlink:href="#E0A4" x="13280" y="990" height="720px" width="720px" />
									<g class="stem">
										<rect x="13488" y="334" height="634" width="18" />
									</g>
									<g class="accid" id="accid-0000000114939414" />
								</g>
							</g>
							<g class="beam" id="beam-L36F2-L38F2">
								<polygon points="14255,585 15059,585 15059,675 14255,675 " />
								<polygon points="14255,720 14657,720 14657,810 14255,810 " />
								<g class="note" id="note-L36F2">
									<use xlink:href="#E0A4" x="14047" y="1260" height="720px" width="720px" />
									<g class="stem">
										<rect x="14255" y="603" height="635" width="18" />
									</g>
									<g class="accid" id="accid-0000002036626918" />
								</g>
								<g class="note" id="note-L37F2">
									<use xlink:href="#E0A4" x="14440" y="1350" height="720px" width="720px" />
									<g class="stem">
										<rect x="14648" y="603" height="725" width="18" />
									</g>
									<g class="accid" id="accid-0000000142922782" />
								</g>
								<g class="note" id="note-L38F2">
									<use xlink:href="#E0A4" x="14833" y="1260" height="720px" width="720px" />
									<g class="stem">
										<rect x="15041" y="603" height="635" width="18" />
									</g>
									<g class="accid" id="accid-0000001330469056" />
								</g>
							</g>
						</g>
					</g>
					<g class="staff" id="staff-L31F1N1">
						<path d="M11781 2404 L15650 2404" stroke="#000000" stroke-width="13" />
						<path d="M11781 2584 L15650 2584" stroke="#000000" stroke-width="13" />
						<path d="M11781 2764 L15650 2764" stroke="#000000" stroke-width="13" />
						<path d="M11781 2944 L15650 2944" stroke="#000000" stroke-width="13" />
						<path d="M11781 3124 L15650 3124" stroke="#000000" stroke-width="13" />
						<g class="layer" id="layer-L31F1N1">
							<g class="beam" id="beam-L32F1-L35F1">
								<polygon points="12249,3619 13671,3478 13671,3388 12249,3529 " />
								<polygon points="12249,3484 12407,3469 12407,3379 12249,3394 " />
								<polygon points="13513,3358 13671,3343 13671,3253 13513,3268 " />
								<g class="note" id="note-L32F1">
									<use xlink:href="#E0A4" x="12249" y="2944" height="720px" width="720px" />
									<g class="stem">
										<rect x="12249" y="2966" height="635" width="18" />
									</g>
									<g class="accid" id="accid-0000000918042099">
										<use xlink:href="#E260" x="12053" y="2944" height="720px" width="720px" />
									</g>
								</g>
								<g class="note" id="note-L33F1">
									<use xlink:href="#E0A4" x="12887" y="2674" height="720px" width="720px" />
									<g class="stem">
										<rect x="12887" y="2696" height="841" width="18" />
									</g>
									<g class="accid" id="accid-0000000267940782">
										<use xlink:href="#E260" x="12691" y="2674" height="720px" width="720px" />
									</g>
								</g>
								<g class="note" id="note-L35F1">
									<use xlink:href="#E0A4" x="13653" y="2494" height="720px" width="720px" />
									<g class="stem">
										<rect x="13653" y="2516" height="944" width="18" />
									</g>
									<g class="accid" id="accid-0000001755847679" />
								</g>
							</g>
							<g class="beam" id="beam-L36F1-L39F1">
								<polygon points="14047,3458 15244,3439 15244,3349 14047,3368 " />
								<polygon points="14842,3310 15244,3304 15244,3214 14842,3220 " />
								<g class="note" id="note-L36F1">
									<use xlink:href="#E0A4" x="14047" y="2764" height="720px" width="720px" />
									<g class="stem">
										<rect x="14047" y="2786" height="654" width="18" />
									</g>
									<g class="accid" id="accid-0000000464277970" />
								</g>
								<g class="note" id="note-L38F1">
									<use xlink:href="#E0A4" x="14833" y="2674" height="720px" width="720px" />
									<g class="stem">
										<rect x="14833" y="2696" height="731" width="18" />
									</g>
									<g class="accid" id="accid-0000000552760771" />
								</g>
								<g class="note" id="note-L39F1">
									<use xlink:href="#E0A4" x="15226" y="2764" height="720px" width="720px" />
									<g class="stem">
										<rect x="15226" y="2786" height="635" width="18" />
									</g>
									<g class="accid" id="accid-0000000407272916" />
								</g>
							</g>
						</g>
					</g>
					<g class="mNum autogenerated" id="mnum-0000000897848514" />
					<g class="barLineAttr" id="bline-0000001077705396">
						<path d="M15637 3124 L15637 720" stroke="#000000" stroke-width="27" />
					</g>
				</g>
				<g class="measure" id="measure-L40">
					<g class="staff" id="staff-L40F2N1">
						<path d="M15650 720 L20002 720" stroke="#000000" stroke-width="13" />
						<path d="M15650 900 L20002 900" stroke="#000000" stroke-width="13" />
						<path d="M15650 1080 L20002 1080" stroke="#000000" stroke-width="13" />
						<path d="M15650 1260 L20002 1260" stroke="#000000" stroke-width="13" />
						<path d="M15650 1440 L20002 1440" stroke="#000000" stroke-width="13" />
						<g class="ledgerLines below">
							<path d="M16086 1620 L16365 1620" stroke="#000000" stroke-width="22" />
						</g>
						<g class="layer" id="layer-L40F2N1">
							<g class="beam" id="beam-L41F2-L43F2">
								<polygon points="16325,509 17372,406 17372,496 16325,599 " />
								<polygon points="16325,644 16970,580 16970,670 16325,734 " />
								<g class="note" id="note-L41F2">
									<use xlink:href="#E0A4" x="16117" y="1620" height="720px" width="720px" />
									<g class="stem">
										<rect x="16325" y="527" height="1071" width="18" />
									</g>
									<g class="accid" id="accid-0000000572934724">
										<use xlink:href="#E262" x="15922" y="1620" height="720px" width="720px" />
									</g>
								</g>
								<g class="note" id="note-L42F2">
									<use xlink:href="#E0A4" x="16753" y="1260" height="720px" width="720px" />
									<g class="stem">
										<rect x="16961" y="463" height="775" width="18" />
									</g>
									<g class="accid" id="accid-0000000741688074">
										<use xlink:href="#E262" x="16558" y="1260" height="720px" width="720px" />
									</g>
								</g>
								<g class="note" id="note-L43F2">
									<use xlink:href="#E0A4" x="17146" y="1080" height="720px" width="720px" />
									<g class="stem">
										<rect x="17354" y="424" height="634" width="18" />
									</g>
									<g class="accid" id="accid-0000001602291250" />
								</g>
							</g>
							<g class="beam" id="beam-L45F2-L47F2">
								<polygon points="18364,662 19411,676 19411,766 18364,752 " />
								<polygon points="18364,797 19009,806 19009,896 18364,887 " />
								<g class="note" id="note-L45F2">
									<use xlink:href="#E0A4" x="18156" y="1350" height="720px" width="720px" />
									<g class="stem">
										<rect x="18364" y="680" height="648" width="18" />
									</g>
									<g class="accid" id="accid-0000000443525238">
										<use xlink:href="#E262" x="17961" y="1350" height="720px" width="720px" />
									</g>
								</g>
								<g class="note" id="note-L46F2">
									<use xlink:href="#E0A4" x="18792" y="1440" height="720px" width="720px" />
									<g class="stem">
										<rect x="19000" y="689" height="729" width="18" />
									</g>
									<g class="accid" id="accid-0000001701218046">
										<use xlink:href="#E262" x="18597" y="1440" height="720px" width="720px" />
									</g>
								</g>
								<g class="note" id="note-L47F2">
									<use xlink:href="#E0A4" x="19185" y="1350" height="720px" width="720px" />
									<g class="stem">
										<rect x="19393" y="694" height="634" width="18" />
									</g>
									<g class="accid" id="accid-0000001975855128" />
								</g>
							</g>
						</g>
					</g>
					<g class="staff" id="staff-L40F1N1">
						<path d="M15650 2404 L20002 2404" stroke="#000000" stroke-width="13" />
						<path d="M15650 2584 L20002 2584" stroke="#000000" stroke-width="13" />
						<path d="M15650 2764 L20002 2764" stroke="#000000" stroke-width="13" />
						<path d="M15650 2944 L20002 2944" stroke="#000000" stroke-width="13" />
						<path d="M15650 3124 L20002 3124" stroke="#000000" stroke-width="13" />
						<g class="layer" id="layer-L40F1N1">
							<g class="beam" id="beam-L41F1-L44F1">
								<polygon points="16325,2051 17746,1910 17746,2000 16325,2141 " />
								<polygon points="16325,2186 16483,2171 16483,2261 16325,2276 " />
								<polygon points="17588,2060 17746,2045 17746,2135 17588,2150 " />
								<g class="note" id="note-L41F1">
									<use xlink:href="#E0A4" x="16117" y="3034" height="720px" width="720px" />
									<g class="stem">
										<rect x="16325" y="2069" height="943" width="18" />
									</g>
									<g class="accid" id="accid-0000000152960974">
										<use xlink:href="#E262" x="15922" y="3034" height="720px" width="720px" />
									</g>
								</g>
								<g class="note" id="note-L42F1">
									<use xlink:href="#E0A4" x="16753" y="2854" height="720px" width="720px" />
									<g class="stem">
										<rect x="16961" y="2005" height="827" width="18" />
									</g>
									<g class="accid" id="accid-0000000412712770">
										<use xlink:href="#E262" x="16558" y="2854" height="720px" width="720px" />
									</g>
								</g>
								<g class="note" id="note-L44F1">
									<use xlink:href="#E0A4" x="17520" y="2584" height="720px" width="720px" />
									<g class="stem">
										<rect x="17728" y="1928" height="634" width="18" />
									</g>
									<g class="accid" id="accid-0000001941839102">
										<use xlink:href="#E262" x="17325" y="2584" height="720px" width="720px" />
									</g>
								</g>
							</g>
							<g class="beam" id="beam-L45F1-L48F1">
								<polygon points="18364,2065 19804,2090 19804,2180 18364,2155 " />
								<polygon points="19402,2219 19804,2225 19804,2315 19402,2309 " />
								<g class="note" id="note-L45F1">
									<use xlink:href="#E0A4" x="18156" y="2764" height="720px" width="720px" />
									<g class="stem">
										<rect x="18364" y="2083" height="659" width="18" />
									</g>
									<g class="accid" id="accid-0000000682092326">
										<use xlink:href="#E262" x="17961" y="2764" height="720px" width="720px" />
									</g>
								</g>
								<g class="note" id="note-L47F1">
									<use xlink:href="#E0A4" x="19185" y="2854" height="720px" width="720px" />
									<g class="stem">
										<rect x="19393" y="2102" height="730" width="18" />
									</g>
									<g class="accid" id="accid-0000001871462169" />
								</g>
								<g class="note" id="note-L48F1">
									<use xlink:href="#E0A4" x="19578" y="2764" height="720px" width="720px" />
									<g class="stem">
										<rect x="19786" y="2108" height="634" width="18" />
									</g>
									<g class="accid" id="accid-0000000652560963" />
								</g>
							</g>
						</g>
					</g>
					<g class="mNum autogenerated" id="mnum-0000001329697457" />
					<g class="barLineAttr" id="bline-0000000071718352">
						<path d="M19989 3124 L19989 720" stroke="#000000" stroke-width="27" />
					</g>
				</g>
			</g>
		</g>
	</svg>
</svg>
