<?xml version="1.0" encoding="UTF-8" standalone="no"?>
<svg width="2100.00px" height="450.00px" version="1.1" xmlns="http://www.w3.org/2000/svg" xmlns:xlink="http://www.w3.org/1999/xlink" overflow="visible">
	<desc>Engraved by Verovio 2.0.0-dev-0f0381c</desc>
	<defs>
		<symbol id="E050" viewBox="0 0 1000 1000" overflow="inherit">
			<path transform="scale(1,-1)" d="M441 -245c-23 -4 -48 -6 -76 -6c-59 0 -102 7 -130 20c-88 42 -150 93 -187 154c-26 44 -43 103 -48 176c-4 60 11 123 44 189c29 57 65 106 110 148s96 85 153 127c-3 16 -8 46 -13 92c-4 43 -5 73 -5 89c0 117 16 172 69 257c34 54 64 82 89 82c21 0 43 -30 69 -92 s39 -115 41 -159c2 -120 -19 -173 -67 -256c-13 -20 -63 -90 -98 -118c-13 -9 -25 -19 -37 -29l31 -181c8 1 18 2 28 2c58 0 102 -12 133 -35c59 -43 92 -104 98 -184c11 -135 -80 -229 -180 -270c8 -57 17 -110 25 -162c5 -31 6 -58 6 -80c0 -30 -5 -53 -14 -70 c-35 -64 -88 -99 -158 -103c-42 -3 -83 6 -124 26c-50 24 -77 59 -80 105c-2 34 5 63 20 87c18 28 45 42 79 44c51 4 99 -40 103 -87c4 -56 -30 -94 -105 -115c17 -24 51 -36 102 -36c62 0 116 43 140 85c9 16 13 41 13 74c0 20 -1 42 -5 67c-8 53 -18 106 -26 159zM461 939 c-95 0 -135 -175 -135 -286c0 -24 2 -48 5 -71c50 39 92 82 127 128c43 57 63 106 60 148c-4 54 -23 82 -57 81zM406 119l54 -326c80 27 116 88 109 184c-7 99 -62 146 -163 142zM382 117c-74 -2 -132 -50 -128 -127c2 -46 43 -99 75 -115c-3 -2 -7 -5 -10 -10 c-70 33 -116 88 -123 172c-5 73 42 135 88 170c23 17 49 29 78 36l-29 170c-21 -13 -52 -37 -92 -73c-50 -44 -86 -84 -109 -119c-49 -75 -71 -140 -67 -195c5 -68 35 -127 93 -176s125 -73 203 -73c25 0 50 3 75 9c-19 111 -36 221 -54 331z" />
		</symbol>
		<symbol id="E082" viewBox="0 0 1000 1000" overflow="inherit">
			<path transform="scale(1,-1)" d="M104 -185c-18 0 -55 -14 -65 -65h-36l-3 29c0 25 6 46 18 64c11 19 22 30 39 43l121 82l37 29c15 11 27 29 38 54c12 24 18 47 18 70c0 40 -19 88 -94 88c-25 0 -32 0 -50 -8c-14 -5 -23 -12 -26 -22c3 -9 7 -15 10 -18l24 -17c12 -7 17 -11 27 -21c5 -7 7 -16 7 -27 c0 -12 0 -57 -79 -74c-30 0 -76 26 -76 94c0 66 80 135 196 135c72 0 182 -32 182 -150c0 -53 -32 -95 -113 -133l-91 -41c-26 -11 -45 -23 -57 -37l49 7c84 0 115 -41 148 -41c20 0 33 20 39 61h35c0 -152 -68 -168 -114 -168c-17 0 -55 0 -69 7v0l-28 17 c-49 37 -69 40 -87 42z" />
		</symbol>
		<symbol id="E084" viewBox="0 0 1000 1000" overflow="inherit">
			<path transform="scale(1,-1)" d="M0 -78c84 97 114 180 134 329h170c-13 -32 -82 -132 -99 -151l-84 -97c-33 -36 -59 -63 -80 -81h162v102l127 123v-225h57v-39h-57v-34c0 -43 19 -65 57 -65v-34h-244v36c48 0 60 26 60 70v27h-203v39z" />
		</symbol>
		<symbol id="E4E6" viewBox="0 0 1000 1000" overflow="inherit">
			<path transform="scale(1,-1)" d="M0 123c7 34 33 56 69 60c29 -3 43 -9 53 -29c4 -8 7 -15 10 -22c0 -21 -1 -25 -11 -35c-5 -8 -18 -14 -40 -20l12 -3l15 -1c44 0 97 26 122 56c10 11 18 26 24 42c7 1 15 2 22 3l-140 -424h-36l111 330c-10 -6 -27 -12 -53 -16l-52 -8h-10l-20 1c-1 0 -8 3 -21 6 c-37 9 -55 28 -55 60z" />
		</symbol>
		<symbol id="E0A4" viewBox="0 0 1000 1000" overflow="inherit">
			<path transform="scale(1,-1)" d="M0 -39c0 68 73 172 200 172c66 0 114 -37 114 -95c0 -84 -106 -171 -218 -171c-64 0 -96 30 -96 94z" />
		</symbol>
		<symbol id="E062" viewBox="0 0 1000 1000" overflow="inherit">
			<path transform="scale(1,-1)" d="M158 96c51 0 73 -14 88 -49l16 -39c0 -17 -2 -30 -7 -40c-3 -11 -10 -21 -19 -31c-17 -18 -49 -43 -84 -43c-55 0 -77 13 -112 44c-24 21 -35 55 -35 100c0 46 14 81 32 112c30 52 71 79 137 93l36 6l26 2c154 0 235 -68 274 -182c11 -32 18 -68 18 -107 c0 -103 -26 -182 -68 -250c-89 -145 -234 -230 -412 -288l-30 -5c-9 0 -14 3 -14 8c3 10 5 11 10 16c35 15 70 30 96 44l78 43c96 57 162 136 197 258c9 33 17 60 22 100c3 22 5 35 6 39c-7 69 -16 115 -23 140s-4 22 -16 40c-8 12 -19 23 -31 34c-24 21 -62 44 -118 44 c-48 0 -84 -8 -113 -28c-28 -19 -42 -44 -42 -73v-16c2 -5 3 -9 4 -11c24 22 52 39 84 39zM585 -118c0 32 23 58 57 58c18 0 33 -6 40 -18c9 -15 16 -18 16 -40c0 -9 -2 -16 -5 -21c-6 -19 -27 -37 -51 -37c-34 0 -57 26 -57 58zM642 177c31 0 56 -27 56 -58 c0 -30 -25 -58 -56 -58l-23 3c-19 7 -34 32 -34 55l3 23c9 20 28 35 54 35z" />
		</symbol>
		<symbol id="E260" viewBox="0 0 1000 1000" overflow="inherit">
			<path transform="scale(1,-1)" d="M20 110c32 16 54 27 93 27c26 0 35 -3 54 -13c13 -7 24 -20 27 -38l4 -25c0 -28 -16 -57 -45 -89c-23 -25 -39 -44 -65 -68l-88 -79v644h20v-359zM90 106c-32 0 -48 -10 -70 -29v-194c31 31 54 59 71 84c21 32 32 59 32 84c0 9 1 16 1 20c0 14 -3 21 -11 30l-8 3z" />
		</symbol>
		<symbol id="E262" viewBox="0 0 1000 1000" overflow="inherit">
			<path transform="scale(1,-1)" d="M136 186v169h17v-164l44 14v-91l-44 -14v-165l44 12v-91l-44 -13v-155h-17v150l-76 -22v-155h-17v149l-43 -13v90l43 14v167l-43 -14v92l43 13v169h17v-163zM60 73v-167l76 22v168z" />
		</symbol>
	</defs>
	<style type="text/css">g.page-margin{font-family:Times;} g.tempo{font-weight:bold;} g.dir, g.dynam, g.mNum{font-style:italic;} g.label{font-weight:normal;}</style>
	<svg class="definition-scale" viewBox="0 0 21000 4500">
		<g class="page-margin" transform="translate(500, 500)">
			<g class="system" id="system-0000001173882833">
				<path d="M13 720 L13 2975" stroke="#000000" stroke-width="27" />
				<path d="M-32,2957 C-392,2417 58,2028 -212,1848 C121,2028 -329,2417 -32,2957" stroke="#000000" stroke-linecap="round" stroke-linejoin="round" stroke-width="18" />
				<path d="M-32,738 C-329,1278 121,1668 -212,1848 C58,1668 -392,1278 -32,738" stroke="#000000" stroke-linecap="round" stroke-linejoin="round" stroke-width="18" />
				<g class="section boundaryStart" id="section-L1F1" />
				<g class="measure" id="measure-L4">
					<g class="staff" id="staff-L4F2N1">
						<path d="M0 720 L3949 720" stroke="#000000" stroke-width="13" />
						<path d="M0 900 L3949 900" stroke="#000000" stroke-width="13" />
						<path d="M0 1080 L3949 1080" stroke="#000000" stroke-width="13" />
						<path d="M0 1260 L3949 1260" stroke="#000000" stroke-width="13" />
						<path d="M0 1440 L3949 1440" stroke="#000000" stroke-width="13" />
						<g class="clef" id="clef-0000002029106496">
							<use xlink:href="#E050" x="90" y="1260" height="720px" width="720px" />
						</g>
						<g class="meterSig" id="msig-0000001152563912">
							<use xlink:href="#E082" x="771" y="900" height="720px" width="720px" />
							<use xlink:href="#E084" x="777" y="1260" height="720px" width="720px" />
						</g>
						<g class="layer" id="layer-L4F2N1">
							<g class="beam" id="beam-L5F2-L8F2">
								<polygon points="1336,1935 2329,1837 2329,1747 1336,1845 " />
								<polygon points="2171,1717 2329,1702 2329,1612 2171,1627 " />
								<g class="rest" id="rest-L5F2">
									<use xlink:href="#E4E6" x="1336" y="1080" height="720px" width="720px" />
									<g class="dots" id="dots-0000001696317861">
										<ellipse cx="1624" cy="990" rx="36" ry="36" />
									</g>
								</g>
								<g class="note" id="note-L8F2">
									<use xlink:href="#E0A4" x="2311" y="990" height="720px" width="720px" />
									<g class="stem">
										<rect x="2311" y="1012" height="807" width="18" />
									</g>
									<g class="accid" id="accid-0000001287878735" />
								</g>
							</g>
							<g class="beam" id="beam-L9F2-L11F2">
								<polygon points="2845,316 3513,381 3513,471 2845,406 " />
								<polygon points="2845,451 3179,484 3179,574 2845,541 " />
								<g class="note" id="note-L9F2">
									<use xlink:href="#E0A4" x="2637" y="990" height="720px" width="720px" />
									<g class="stem">
										<rect x="2845" y="334" height="634" width="18" />
									</g>
									<g class="accid" id="accid-0000001090506833" />
								</g>
								<g class="note" id="note-L10F2">
									<use xlink:href="#E0A4" x="2962" y="1350" height="720px" width="720px" />
									<g class="stem">
										<rect x="3170" y="367" height="961" width="18" />
									</g>
									<g class="accid" id="accid-0000001648900585" />
								</g>
								<g class="note" id="note-L11F2">
									<use xlink:href="#E0A4" x="3287" y="1440" height="720px" width="720px" />
									<g class="stem">
										<rect x="3495" y="399" height="1019" width="18" />
									</g>
									<g class="accid" id="accid-0000001758516120" />
								</g>
							</g>
						</g>
					</g>
					<g class="staff" id="staff-L4F1N1">
						<path d="M0 2255 L3949 2255" stroke="#000000" stroke-width="13" />
						<path d="M0 2435 L3949 2435" stroke="#000000" stroke-width="13" />
						<path d="M0 2615 L3949 2615" stroke="#000000" stroke-width="13" />
						<path d="M0 2795 L3949 2795" stroke="#000000" stroke-width="13" />
						<path d="M0 2975 L3949 2975" stroke="#000000" stroke-width="13" />
						<g class="clef" id="clef-0000000839173044">
							<use xlink:href="#E062" x="90" y="2435" height="720px" width="720px" />
						</g>
						<g class="meterSig" id="msig-0000001456240659">
							<use xlink:href="#E082" x="771" y="2435" height="720px" width="720px" />
							<use xlink:href="#E084" x="777" y="2795" height="720px" width="720px" />
						</g>
						<g class="ledgerLines above">
							<path d="M1955 2075 L2234 2075" stroke="#000000" stroke-width="22" />
							<path d="M3565 2075 L3844 2075" stroke="#000000" stroke-width="22" />
						</g>
						<g class="layer" id="layer-L4F1N1">
							<g class="beam" id="beam-L5F1-L8F1">
								<polygon points="1336,3380 2329,3282 2329,3192 1336,3290 " />
								<polygon points="1336,3245 2329,3147 2329,3057 1336,3155 " />
								<g class="note" id="note-L5F1">
									<use xlink:href="#E0A4" x="1336" y="2705" height="720px" width="720px" />
									<g class="stem">
										<rect x="1336" y="2727" height="635" width="18" />
									</g>
									<g class="accid" id="accid-0000000423412175" />
								</g>
								<g class="note" id="note-L6F1">
									<use xlink:href="#E0A4" x="1661" y="2165" height="720px" width="720px" />
									<g class="stem">
										<rect x="1661" y="2187" height="1142" width="18" />
									</g>
									<g class="accid" id="accid-0000002088185675" />
								</g>
								<g class="note" id="note-L7F1">
									<use xlink:href="#E0A4" x="1986" y="2075" height="720px" width="720px" />
									<g class="stem">
										<rect x="1986" y="2097" height="1200" width="18" />
									</g>
									<g class="accid" id="accid-0000001979431447" />
								</g>
								<g class="note" id="note-L8F1">
									<use xlink:href="#E0A4" x="2311" y="2345" height="720px" width="720px" />
									<g class="stem">
										<rect x="2311" y="2367" height="897" width="18" />
									</g>
									<g class="accid" id="accid-0000000685921305" />
								</g>
							</g>
							<g class="beam" id="beam-L9F1-L12F1">
								<polygon points="2637,2840 3614,2750 3614,2660 2637,2750 " />
								<polygon points="3456,2629 3614,2615 3614,2525 3456,2539 " />
								<g class="note" id="note-L9F1">
									<use xlink:href="#E0A4" x="2637" y="2165" height="720px" width="720px" />
									<g class="dots" id="dots-0000002006265758">
										<ellipse cx="2953" cy="2165" rx="36" ry="36" />
									</g>
									<g class="stem">
										<rect x="2637" y="2187" height="635" width="18" />
									</g>
									<g class="accid" id="accid-0000001427996429" />
								</g>
								<g class="note" id="note-L12F1">
									<use xlink:href="#E0A4" x="3596" y="2075" height="720px" width="720px" />
									<g class="stem">
										<rect x="3596" y="2097" height="635" width="18" />
									</g>
									<g class="accid" id="accid-0000001604170144" />
								</g>
							</g>
						</g>
					</g>
					<g class="tie" id="tie-L8F2-L9F2">
						<path d="M2424,855 C2505,713 2667,713 2750,855 C2667,757 2505,757 2424,855" stroke="#000000" stroke-linecap="round" stroke-linejoin="round" stroke-width="9" />
					</g>
					<g class="mNum autogenerated" id="mnum-0000001760898389" />
					<g class="barLineAttr" id="bline-0000000604060628">
						<path d="M3936 2975 L3936 720" stroke="#000000" stroke-width="27" />
					</g>
				</g>
				<g class="measure" id="measure-L13">
					<g class="staff" id="staff-L13F2N1">
						<path d="M3949 720 L7168 720" stroke="#000000" stroke-width="13" />
						<path d="M3949 900 L7168 900" stroke="#000000" stroke-width="13" />
						<path d="M3949 1080 L7168 1080" stroke="#000000" stroke-width="13" />
						<path d="M3949 1260 L7168 1260" stroke="#000000" stroke-width="13" />
						<path d="M3949 1440 L7168 1440" stroke="#000000" stroke-width="13" />
						<g class="ledgerLines below">
							<path d="M4305 1620 L4584 1620" stroke="#000000" stroke-width="22" />
							<path d="M6459 1620 L6738 1620" stroke="#000000" stroke-width="22" />
						</g>
						<g class="layer" id="layer-L13F2N1">
							<g class="beam" id="beam-L14F2-L17F2">
								<polygon points="4544,616 5740,509 5740,599 4544,706 " />
								<polygon points="4544,751 5740,644 5740,734 4544,841 " />
								<g class="note" id="note-L14F2">
									<use xlink:href="#E0A4" x="4336" y="1620" height="720px" width="720px" />
									<g class="stem">
										<rect x="4544" y="634" height="964" width="18" />
									</g>
									<g class="accid" id="accid-0000001691898102" />
								</g>
								<g class="note" id="note-L15F2">
									<use xlink:href="#E0A4" x="4662" y="1260" height="720px" width="720px" />
									<g class="stem">
										<rect x="4870" y="604" height="634" width="18" />
									</g>
									<g class="accid" id="accid-0000000216253900" />
								</g>
								<g class="note" id="note-L16F2">
									<use xlink:href="#E0A4" x="4987" y="1350" height="720px" width="720px" />
									<g class="stem">
										<rect x="5195" y="575" height="753" width="18" />
									</g>
									<g class="accid" id="accid-0000001467447427" />
								</g>
								<g class="note" id="note-L17F2">
									<use xlink:href="#E0A4" x="5514" y="1440" height="720px" width="720px" />
									<g class="stem">
										<rect x="5722" y="527" height="891" width="18" />
									</g>
									<g class="accid" id="accid-0000001640592487">
										<use xlink:href="#E260" x="5318" y="1440" height="720px" width="720px" />
									</g>
								</g>
							</g>
							<g class="beam" id="beam-L18F2-L21F2">
								<polygon points="6047,586 7041,684 7041,774 6047,676 " />
								<polygon points="6047,721 7041,819 7041,909 6047,811 " />
								<g class="note" id="note-L18F2">
									<use xlink:href="#E0A4" x="5839" y="1260" height="720px" width="720px" />
									<g class="stem">
										<rect x="6047" y="604" height="634" width="18" />
									</g>
									<g class="accid" id="accid-0000001568491693" />
								</g>
								<g class="note" id="note-L19F2">
									<use xlink:href="#E0A4" x="6164" y="1530" height="720px" width="720px" />
									<g class="stem">
										<rect x="6372" y="637" height="871" width="18" />
									</g>
									<g class="accid" id="accid-0000000038977141" />
								</g>
								<g class="note" id="note-L20F2">
									<use xlink:href="#E0A4" x="6490" y="1620" height="720px" width="720px" />
									<g class="stem">
										<rect x="6698" y="669" height="929" width="18" />
									</g>
									<g class="accid" id="accid-0000001965558107" />
								</g>
								<g class="note" id="note-L21F2">
									<use xlink:href="#E0A4" x="6815" y="1440" height="720px" width="720px" />
									<g class="stem">
										<rect x="7023" y="702" height="716" width="18" />
									</g>
									<g class="accid" id="accid-0000001850376888" />
								</g>
							</g>
						</g>
					</g>
					<g class="staff" id="staff-L13F1N1">
						<path d="M3949 2255 L7168 2255" stroke="#000000" stroke-width="13" />
						<path d="M3949 2435 L7168 2435" stroke="#000000" stroke-width="13" />
						<path d="M3949 2615 L7168 2615" stroke="#000000" stroke-width="13" />
						<path d="M3949 2795 L7168 2795" stroke="#000000" stroke-width="13" />
						<path d="M3949 2975 L7168 2975" stroke="#000000" stroke-width="13" />
						<g class="ledgerLines above">
							<path d="M5808 2075 L6087 2075" stroke="#000000" stroke-width="22" />
						</g>
						<g class="layer" id="layer-L13F1N1">
							<g class="beam" id="beam-L14F1-L16F1">
								<polygon points="4336,3155 5005,3089 5005,2999 4336,3065 " />
								<g class="note" id="note-L14F1">
									<use xlink:href="#E0A4" x="4336" y="2525" height="720px" width="720px" />
									<g class="stem">
										<rect x="4336" y="2547" height="590" width="18" />
									</g>
									<g class="accid" id="accid-0000001698846086">
										<use xlink:href="#E260" x="4140" y="2525" height="720px" width="720px" />
									</g>
								</g>
								<g class="note" id="note-L16F1">
									<use xlink:href="#E0A4" x="4987" y="2165" height="720px" width="720px" />
									<g class="stem">
										<rect x="4987" y="2187" height="884" width="18" />
									</g>
									<g class="accid" id="accid-0000001177068382">
										<use xlink:href="#E260" x="4791" y="2165" height="720px" width="720px" />
									</g>
								</g>
							</g>
							<g class="beam" id="beam-L18F1-L20F1">
								<polygon points="5839,3044 6508,3110 6508,3020 5839,2954 " />
								<polygon points="5839,2909 6173,2942 6173,2852 5839,2819 " />
								<g class="note" id="note-L18F1">
									<use xlink:href="#E0A4" x="5839" y="2075" height="720px" width="720px" />
									<g class="stem">
										<rect x="5839" y="2097" height="929" width="18" />
									</g>
									<g class="accid" id="accid-0000000057330188" />
								</g>
								<g class="note" id="note-L19F1">
									<use xlink:href="#E0A4" x="6164" y="2345" height="720px" width="720px" />
									<g class="stem">
										<rect x="6164" y="2367" height="692" width="18" />
									</g>
									<g class="accid" id="accid-0000000264896170" />
								</g>
								<g class="note" id="note-L20F1">
									<use xlink:href="#E0A4" x="6490" y="2435" height="720px" width="720px" />
									<g class="stem">
										<rect x="6490" y="2457" height="635" width="18" />
									</g>
									<g class="accid" id="accid-0000000621473498" />
								</g>
							</g>
						</g>
					</g>
					<g class="tie" id="tie-L21F2-L23F2">
						<path d="M7063,1485 C7180,1583 7414,1583 7532,1485 C7414,1627 7180,1627 7063,1485" stroke="#000000" stroke-linecap="round" stroke-linejoin="round" stroke-width="9" />
					</g>
					<g class="mNum autogenerated" id="mnum-0000000502349548" />
					<g class="barLineAttr" id="bline-0000001024724357">
						<path d="M7155 2975 L7155 720" stroke="#000000" stroke-width="27" />
					</g>
				</g>
				<g class="measure" id="measure-L22">
					<g class="staff" id="staff-L22F2N1">
						<path d="M7168 720 L10570 720" stroke="#000000" stroke-width="13" />
						<path d="M7168 900 L10570 900" stroke="#000000" stroke-width="13" />
						<path d="M7168 1080 L10570 1080" stroke="#000000" stroke-width="13" />
						<path d="M7168 1260 L10570 1260" stroke="#000000" stroke-width="13" />
						<path d="M7168 1440 L10570 1440" stroke="#000000" stroke-width="13" />
						<g class="layer" id="layer-L22F2N1">
							<g class="beam" id="beam-L23F2-L26F2">
								<polygon points="7762,524 8957,406 8957,496 7762,614 " />
								<polygon points="8799,556 8957,541 8957,631 8799,646 " />
								<g class="note" id="note-L23F2">
									<use xlink:href="#E0A4" x="7554" y="1440" height="720px" width="720px" />
									<g class="dots" id="dots-0000001920530001">
										<ellipse cx="7870" cy="1350" rx="36" ry="36" />
									</g>
									<g class="stem">
										<rect x="7762" y="542" height="876" width="18" />
									</g>
									<g class="accid" id="accid-0000000729973643" />
								</g>
								<g class="note" id="note-L26F2">
									<use xlink:href="#E0A4" x="8731" y="1080" height="720px" width="720px" />
									<g class="stem">
										<rect x="8939" y="424" height="634" width="18" />
									</g>
									<g class="accid" id="accid-0000000865498761">
										<use xlink:href="#E260" x="8535" y="1080" height="720px" width="720px" />
									</g>
								</g>
							</g>
							<g class="beam" id="beam-L27F2-L29F2">
								<polygon points="9264,406 10134,491 10134,581 9264,496 " />
								<polygon points="9264,541 9598,574 9598,664 9264,631 " />
								<g class="note" id="note-L27F2">
									<use xlink:href="#E0A4" x="9056" y="1080" height="720px" width="720px" />
									<g class="stem">
										<rect x="9264" y="424" height="634" width="18" />
									</g>
									<g class="accid" id="accid-0000000353920463" />
								</g>
								<g class="note" id="note-L28F2">
									<use xlink:href="#E0A4" x="9381" y="1350" height="720px" width="720px" />
									<g class="stem">
										<rect x="9589" y="457" height="871" width="18" />
									</g>
									<g class="accid" id="accid-0000001893275929" />
								</g>
								<g class="note" id="note-L29F2">
									<use xlink:href="#E0A4" x="9908" y="1530" height="720px" width="720px" />
									<g class="stem">
										<rect x="10116" y="509" height="999" width="18" />
									</g>
									<g class="accid" id="accid-0000000097406105">
										<use xlink:href="#E260" x="9712" y="1530" height="720px" width="720px" />
									</g>
								</g>
							</g>
						</g>
					</g>
					<g class="staff" id="staff-L22F1N1">
						<path d="M7168 2255 L10570 2255" stroke="#000000" stroke-width="13" />
						<path d="M7168 2435 L10570 2435" stroke="#000000" stroke-width="13" />
						<path d="M7168 2615 L10570 2615" stroke="#000000" stroke-width="13" />
						<path d="M7168 2795 L10570 2795" stroke="#000000" stroke-width="13" />
						<path d="M7168 2975 L10570 2975" stroke="#000000" stroke-width="13" />
						<g class="layer" id="layer-L22F1N1">
							<g class="beam" id="beam-L23F1-L26F1">
								<polygon points="7554,3111 8749,3144 8749,3054 7554,3021 " />
								<polygon points="7554,2976 8749,3009 8749,2919 7554,2886 " />
								<g class="note" id="note-L23F1">
									<use xlink:href="#E0A4" x="7554" y="2435" height="720px" width="720px" />
									<g class="stem">
										<rect x="7554" y="2457" height="636" width="18" />
									</g>
									<g class="accid" id="accid-0000001004871343">
										<use xlink:href="#E262" x="7359" y="2435" height="720px" width="720px" />
									</g>
								</g>
								<g class="note" id="note-L24F1">
									<use xlink:href="#E0A4" x="7880" y="2165" height="720px" width="720px" />
									<g class="stem">
										<rect x="7880" y="2187" height="915" width="18" />
									</g>
									<g class="accid" id="accid-0000001775266616" />
								</g>
								<g class="note" id="note-L25F1">
									<use xlink:href="#E0A4" x="8406" y="2255" height="720px" width="720px" />
									<g class="stem">
										<rect x="8406" y="2277" height="840" width="18" />
									</g>
									<g class="accid" id="accid-0000000070960716">
										<use xlink:href="#E262" x="8211" y="2255" height="720px" width="720px" />
									</g>
								</g>
								<g class="note" id="note-L26F1">
									<use xlink:href="#E0A4" x="8731" y="2435" height="720px" width="720px" />
									<g class="stem">
										<rect x="8731" y="2457" height="669" width="18" />
									</g>
									<g class="accid" id="accid-0000001347965579" />
								</g>
							</g>
							<g class="beam" id="beam-L27F1-L30F1">
								<polygon points="9056,2841 10235,2931 10235,2841 9056,2751 " />
								<polygon points="10077,2785 10235,2796 10235,2706 10077,2695 " />
								<g class="note" id="note-L27F1">
									<use xlink:href="#E0A4" x="9056" y="2165" height="720px" width="720px" />
									<g class="dots" id="dots-0000000807304753">
										<ellipse cx="9372" cy="2165" rx="36" ry="36" />
									</g>
									<g class="stem">
										<rect x="9056" y="2187" height="636" width="18" />
									</g>
									<g class="accid" id="accid-0000001348854912" />
								</g>
								<g class="note" id="note-L30F1">
									<use xlink:href="#E0A4" x="10217" y="2255" height="720px" width="720px" />
									<g class="stem">
										<rect x="10217" y="2277" height="636" width="18" />
									</g>
									<g class="accid" id="accid-0000001396992111" />
								</g>
							</g>
						</g>
					</g>
					<g class="tie" id="tie-L26F2-L27F2">
						<path d="M8844,1215 C8925,1313 9087,1313 9169,1215 C9087,1357 8925,1357 8844,1215" stroke="#000000" stroke-linecap="round" stroke-linejoin="round" stroke-width="9" />
					</g>
					<g class="mNum autogenerated" id="mnum-0000000899021096" />
					<g class="barLineAttr" id="bline-0000001280106721">
						<path d="M10557 2975 L10557 720" stroke="#000000" stroke-width="27" />
					</g>
				</g>
				<g class="measure" id="measure-L31">
					<g class="staff" id="staff-L31F2N1">
						<path d="M10570 720 L13987 720" stroke="#000000" stroke-width="13" />
						<path d="M10570 900 L13987 900" stroke="#000000" stroke-width="13" />
						<path d="M10570 1080 L13987 1080" stroke="#000000" stroke-width="13" />
						<path d="M10570 1260 L13987 1260" stroke="#000000" stroke-width="13" />
						<path d="M10570 1440 L13987 1440" stroke="#000000" stroke-width="13" />
						<g class="ledgerLines below">
							<path d="M12102 1620 L12381 1620" stroke="#000000" stroke-width="22" />
							<path d="M12752 1620 L13031 1620" stroke="#000000" stroke-width="22" />
							<path d="M13603 1620 L13882 1620" stroke="#000000" stroke-width="22" />
						</g>
						<g class="layer" id="layer-L31F2N1">
							<g class="beam" id="beam-L32F2-L35F2">
								<polygon points="10964,633 12359,703 12359,793 10964,723 " />
								<polygon points="10964,768 12359,838 12359,928 10964,858 " />
								<g class="note" id="note-L32F2">
									<use xlink:href="#E0A4" x="10756" y="1530" height="720px" width="720px" />
									<g class="stem">
										<rect x="10964" y="651" height="857" width="18" />
									</g>
									<g class="accid" id="accid-0000000855477703" />
								</g>
								<g class="note" id="note-L33F2">
									<use xlink:href="#E0A4" x="11081" y="1440" height="720px" width="720px" />
									<g class="stem">
										<rect x="11289" y="667" height="751" width="18" />
									</g>
									<g class="accid" id="accid-0000001843435379" />
								</g>
								<g class="note" id="note-L34F2">
									<use xlink:href="#E0A4" x="11607" y="1350" height="720px" width="720px" />
									<g class="stem">
										<rect x="11815" y="694" height="634" width="18" />
									</g>
									<g class="accid" id="accid-0000000726964807">
										<use xlink:href="#E262" x="11412" y="1350" height="720px" width="720px" />
									</g>
								</g>
								<g class="note" id="note-L35F2">
									<use xlink:href="#E0A4" x="12133" y="1620" height="720px" width="720px" />
									<g class="stem">
										<rect x="12341" y="721" height="877" width="18" />
									</g>
									<g class="accid" id="accid-0000001655073669">
										<use xlink:href="#E262" x="11938" y="1620" height="720px" width="720px" />
									</g>
								</g>
							</g>
							<g class="beam" id="beam-L36F2-L39F2">
								<polygon points="12666,766 13860,849 13860,939 12666,856 " />
								<polygon points="12666,901 13860,984 13860,1074 12666,991 " />
								<g class="note" id="note-L36F2">
									<use xlink:href="#E0A4" x="12458" y="1440" height="720px" width="720px" />
									<g class="stem">
										<rect x="12666" y="784" height="634" width="18" />
									</g>
									<g class="accid" id="accid-0000001978392453" />
								</g>
								<g class="note" id="note-L37F2">
									<use xlink:href="#E0A4" x="12783" y="1710" height="720px" width="720px" />
									<g class="stem">
										<rect x="12991" y="807" height="881" width="18" />
									</g>
									<g class="accid" id="accid-0000000744646348" />
								</g>
								<g class="note" id="note-L38F2">
									<use xlink:href="#E0A4" x="13309" y="1530" height="720px" width="720px" />
									<g class="stem">
										<rect x="13517" y="844" height="664" width="18" />
									</g>
									<g class="accid" id="accid-0000001212912601" />
								</g>
								<g class="note" id="note-L39F2">
									<use xlink:href="#E0A4" x="13634" y="1620" height="720px" width="720px" />
									<g class="stem">
										<rect x="13842" y="867" height="731" width="18" />
									</g>
									<g class="accid" id="accid-0000001603128169" />
								</g>
							</g>
						</g>
					</g>
					<g class="staff" id="staff-L31F1N1">
						<path d="M10570 2255 L13987 2255" stroke="#000000" stroke-width="13" />
						<path d="M10570 2435 L13987 2435" stroke="#000000" stroke-width="13" />
						<path d="M10570 2615 L13987 2615" stroke="#000000" stroke-width="13" />
						<path d="M10570 2795 L13987 2795" stroke="#000000" stroke-width="13" />
						<path d="M10570 2975 L13987 2975" stroke="#000000" stroke-width="13" />
						<g class="layer" id="layer-L31F1N1">
							<g class="beam" id="beam-L32F1-L34F1">
								<polygon points="10756,3515 11625,3429 11625,3339 10756,3425 " />
								<g class="note" id="note-L32F1">
									<use xlink:href="#E0A4" x="10756" y="2885" height="720px" width="720px" />
									<g class="stem">
										<rect x="10756" y="2907" height="590" width="18" />
									</g>
									<g class="accid" id="accid-0000001751829415" />
								</g>
								<g class="note" id="note-L34F1">
									<use xlink:href="#E0A4" x="11607" y="2255" height="720px" width="720px" />
									<g class="stem">
										<rect x="11607" y="2277" height="1134" width="18" />
									</g>
									<g class="accid" id="accid-0000000973318733" />
								</g>
							</g>
							<g class="beam" id="beam-L36F1-L38F1">
								<polygon points="12458,3167 13327,3253 13327,3163 12458,3077 " />
								<polygon points="12458,3032 12792,3065 12792,2975 12458,2942 " />
								<g class="note" id="note-L36F1">
									<use xlink:href="#E0A4" x="12458" y="2165" height="720px" width="720px" />
									<g class="stem">
										<rect x="12458" y="2187" height="962" width="18" />
									</g>
									<g class="accid" id="accid-0000001818760851" />
								</g>
								<g class="note" id="note-L37F1">
									<use xlink:href="#E0A4" x="12783" y="2525" height="720px" width="720px" />
									<g class="stem">
										<rect x="12783" y="2547" height="635" width="18" />
									</g>
									<g class="accid" id="accid-0000001077870886" />
								</g>
								<g class="note" id="note-L38F1">
									<use xlink:href="#E0A4" x="13309" y="2435" height="720px" width="720px" />
									<g class="stem">
										<rect x="13309" y="2457" height="778" width="18" />
									</g>
									<g class="accid" id="accid-0000000533338070">
										<use xlink:href="#E262" x="13114" y="2435" height="720px" width="720px" />
									</g>
								</g>
							</g>
						</g>
					</g>
					<g class="tie" id="tie-L39F2-L41F2">
						<path d="M13747,1755 C13881,1853 14149,1853 14286,1755 C14149,1897 13881,1897 13747,1755" stroke="#000000" stroke-linecap="round" stroke-linejoin="round" stroke-width="9" />
					</g>
					<g class="mNum autogenerated" id="mnum-0000000991890742" />
					<g class="barLineAttr" id="bline-0000001797615852">
						<path d="M13974 2975 L13974 720" stroke="#000000" stroke-width="27" />
					</g>
				</g>
				<g class="measure" id="measure-L40">
					<g class="staff" id="staff-L40F2N1">
						<path d="M13987 720 L16786 720" stroke="#000000" stroke-width="13" />
						<path d="M13987 900 L16786 900" stroke="#000000" stroke-width="13" />
						<path d="M13987 1080 L16786 1080" stroke="#000000" stroke-width="13" />
						<path d="M13987 1260 L16786 1260" stroke="#000000" stroke-width="13" />
						<path d="M13987 1440 L16786 1440" stroke="#000000" stroke-width="13" />
						<g class="ledgerLines below">
							<path d="M14142 1620 L14421 1620" stroke="#000000" stroke-width="22" />
						</g>
						<g class="layer" id="layer-L40F2N1">
							<g class="beam" id="beam-L41F2-L44F2">
								<polygon points="14381,414 15374,316 15374,406 14381,504 " />
								<polygon points="15216,466 15374,451 15374,541 15216,556 " />
								<g class="note" id="note-L41F2">
									<use xlink:href="#E0A4" x="14173" y="1620" height="720px" width="720px" />
									<g class="dots" id="dots-0000001598792258">
										<ellipse cx="14489" cy="1530" rx="36" ry="36" />
									</g>
									<g class="stem">
										<rect x="14381" y="432" height="1166" width="18" />
									</g>
									<g class="accid" id="accid-0000000544798215" />
								</g>
								<g class="note" id="note-L44F2">
									<use xlink:href="#E0A4" x="15148" y="990" height="720px" width="720px" />
									<g class="stem">
										<rect x="15356" y="334" height="634" width="18" />
									</g>
									<g class="accid" id="accid-0000000398240391" />
								</g>
							</g>
							<g class="beam" id="beam-L45F2-L47F2">
								<polygon points="15682,316 16350,381 16350,471 15682,406 " />
								<polygon points="15682,451 16016,484 16016,574 15682,541 " />
								<g class="note" id="note-L45F2">
									<use xlink:href="#E0A4" x="15474" y="990" height="720px" width="720px" />
									<g class="stem">
										<rect x="15682" y="334" height="634" width="18" />
									</g>
									<g class="accid" id="accid-0000002045759517" />
								</g>
								<g class="note" id="note-L46F2">
									<use xlink:href="#E0A4" x="15799" y="1350" height="720px" width="720px" />
									<g class="stem">
										<rect x="16007" y="367" height="961" width="18" />
									</g>
									<g class="accid" id="accid-0000002016513126" />
								</g>
								<g class="note" id="note-L47F2">
									<use xlink:href="#E0A4" x="16124" y="1440" height="720px" width="720px" />
									<g class="stem">
										<rect x="16332" y="399" height="1019" width="18" />
									</g>
									<g class="accid" id="accid-0000000763864002" />
								</g>
							</g>
						</g>
					</g>
					<g class="staff" id="staff-L40F1N1">
						<path d="M13987 2255 L16786 2255" stroke="#000000" stroke-width="13" />
						<path d="M13987 2435 L16786 2435" stroke="#000000" stroke-width="13" />
						<path d="M13987 2615 L16786 2615" stroke="#000000" stroke-width="13" />
						<path d="M13987 2795 L16786 2795" stroke="#000000" stroke-width="13" />
						<path d="M13987 2975 L16786 2975" stroke="#000000" stroke-width="13" />
						<g class="ledgerLines above">
							<path d="M14792 2075 L15071 2075" stroke="#000000" stroke-width="22" />
							<path d="M16402 2075 L16681 2075" stroke="#000000" stroke-width="22" />
						</g>
						<g class="layer" id="layer-L40F1N1">
							<g class="beam" id="beam-L41F1-L44F1">
								<polygon points="14173,3380 15166,3282 15166,3192 14173,3290 " />
								<polygon points="14173,3245 15166,3147 15166,3057 14173,3155 " />
								<g class="note" id="note-L41F1">
									<use xlink:href="#E0A4" x="14173" y="2705" height="720px" width="720px" />
									<g class="stem">
										<rect x="14173" y="2727" height="635" width="18" />
									</g>
									<g class="accid" id="accid-0000000223646902" />
								</g>
								<g class="note" id="note-L42F1">
									<use xlink:href="#E0A4" x="14498" y="2165" height="720px" width="720px" />
									<g class="stem">
										<rect x="14498" y="2187" height="1142" width="18" />
									</g>
									<g class="accid" id="accid-0000001748376952" />
								</g>
								<g class="note" id="note-L43F1">
									<use xlink:href="#E0A4" x="14823" y="2075" height="720px" width="720px" />
									<g class="stem">
										<rect x="14823" y="2097" height="1200" width="18" />
									</g>
									<g class="accid" id="accid-0000000228858909" />
								</g>
								<g class="note" id="note-L44F1">
									<use xlink:href="#E0A4" x="15148" y="2345" height="720px" width="720px" />
									<g class="stem">
										<rect x="15148" y="2367" height="897" width="18" />
									</g>
									<g class="accid" id="accid-0000001474716023" />
								</g>
							</g>
							<g class="beam" id="beam-L45F1-L48F1">
								<polygon points="15474,2840 16451,2750 16451,2660 15474,2750 " />
								<polygon points="16293,2629 16451,2615 16451,2525 16293,2539 " />
								<g class="note" id="note-L45F1">
									<use xlink:href="#E0A4" x="15474" y="2165" height="720px" width="720px" />
									<g class="dots" id="dots-0000001369653967">
										<ellipse cx="15790" cy="2165" rx="36" ry="36" />
									</g>
									<g class="stem">
										<rect x="15474" y="2187" height="635" width="18" />
									</g>
									<g class="accid" id="accid-0000001514175754" />
								</g>
								<g class="note" id="note-L48F1">
									<use xlink:href="#E0A4" x="16433" y="2075" height="720px" width="720px" />
									<g class="stem">
										<rect x="16433" y="2097" height="635" width="18" />
									</g>
									<g class="accid" id="accid-0000001162155883" />
								</g>
							</g>
						</g>
					</g>
					<g class="tie" id="tie-L44F2-L45F2">
						<path d="M15261,1125 C15342,1223 15504,1223 15587,1125 C15504,1267 15342,1267 15261,1125" stroke="#000000" stroke-linecap="round" stroke-linejoin="round" stroke-width="9" />
					</g>
					<g class="mNum autogenerated" id="mnum-0000000606372000" />
					<g class="barLineAttr" id="bline-0000000351740295">
						<path d="M16773 2975 L16773 720" stroke="#000000" stroke-width="27" />
					</g>
				</g>
				<g class="measure" id="measure-L49">
					<g class="staff" id="staff-L49F2N1">
						<path d="M16786 720 L20005 720" stroke="#000000" stroke-width="13" />
						<path d="M16786 900 L20005 900" stroke="#000000" stroke-width="13" />
						<path d="M16786 1080 L20005 1080" stroke="#000000" stroke-width="13" />
						<path d="M16786 1260 L20005 1260" stroke="#000000" stroke-width="13" />
						<path d="M16786 1440 L20005 1440" stroke="#000000" stroke-width="13" />
						<g class="ledgerLines below">
							<path d="M17142 1620 L17421 1620" stroke="#000000" stroke-width="22" />
							<path d="M19296 1620 L19575 1620" stroke="#000000" stroke-width="22" />
						</g>
						<g class="layer" id="layer-L49F2N1">
							<g class="beam" id="beam-L50F2-L53F2">
								<polygon points="17381,616 18577,509 18577,599 17381,706 " />
								<polygon points="17381,751 18577,644 18577,734 17381,841 " />
								<g class="note" id="note-L50F2">
									<use xlink:href="#E0A4" x="17173" y="1620" height="720px" width="720px" />
									<g class="stem">
										<rect x="17381" y="634" height="964" width="18" />
									</g>
									<g class="accid" id="accid-0000001464141330" />
								</g>
								<g class="note" id="note-L51F2">
									<use xlink:href="#E0A4" x="17499" y="1260" height="720px" width="720px" />
									<g class="stem">
										<rect x="17707" y="604" height="634" width="18" />
									</g>
									<g class="accid" id="accid-0000000165772106" />
								</g>
								<g class="note" id="note-L52F2">
									<use xlink:href="#E0A4" x="17824" y="1350" height="720px" width="720px" />
									<g class="stem">
										<rect x="18032" y="575" height="753" width="18" />
									</g>
									<g class="accid" id="accid-0000000341609882" />
								</g>
								<g class="note" id="note-L53F2">
									<use xlink:href="#E0A4" x="18351" y="1440" height="720px" width="720px" />
									<g class="stem">
										<rect x="18559" y="527" height="891" width="18" />
									</g>
									<g class="accid" id="accid-0000000614455242">
										<use xlink:href="#E260" x="18155" y="1440" height="720px" width="720px" />
									</g>
								</g>
							</g>
							<g class="beam" id="beam-L54F2-L57F2">
								<polygon points="18884,586 19878,684 19878,774 18884,676 " />
								<polygon points="18884,721 19878,819 19878,909 18884,811 " />
								<g class="note" id="note-L54F2">
									<use xlink:href="#E0A4" x="18676" y="1260" height="720px" width="720px" />
									<g class="stem">
										<rect x="18884" y="604" height="634" width="18" />
									</g>
									<g class="accid" id="accid-0000000227283469" />
								</g>
								<g class="note" id="note-L55F2">
									<use xlink:href="#E0A4" x="19001" y="1530" height="720px" width="720px" />
									<g class="stem">
										<rect x="19209" y="637" height="871" width="18" />
									</g>
									<g class="accid" id="accid-0000001704599273" />
								</g>
								<g class="note" id="note-L56F2">
									<use xlink:href="#E0A4" x="19327" y="1620" height="720px" width="720px" />
									<g class="stem">
										<rect x="19535" y="669" height="929" width="18" />
									</g>
									<g class="accid" id="accid-0000000087765931" />
								</g>
								<g class="note" id="note-L57F2">
									<use xlink:href="#E0A4" x="19652" y="1440" height="720px" width="720px" />
									<g class="stem">
										<rect x="19860" y="702" height="716" width="18" />
									</g>
									<g class="accid" id="accid-0000000940739027" />
								</g>
							</g>
						</g>
					</g>
					<g class="staff" id="staff-L49F1N1">
						<path d="M16786 2255 L20005 2255" stroke="#000000" stroke-width="13" />
						<path d="M16786 2435 L20005 2435" stroke="#000000" stroke-width="13" />
						<path d="M16786 2615 L20005 2615" stroke="#000000" stroke-width="13" />
						<path d="M16786 2795 L20005 2795" stroke="#000000" stroke-width="13" />
						<path d="M16786 2975 L20005 2975" stroke="#000000" stroke-width="13" />
						<g class="ledgerLines above">
							<path d="M18645 2075 L18924 2075" stroke="#000000" stroke-width="22" />
						</g>
						<g class="layer" id="layer-L49F1N1">
							<g class="beam" id="beam-L50F1-L52F1">
								<polygon points="17173,3155 17842,3089 17842,2999 17173,3065 " />
								<g class="note" id="note-L50F1">
									<use xlink:href="#E0A4" x="17173" y="2525" height="720px" width="720px" />
									<g class="stem">
										<rect x="17173" y="2547" height="590" width="18" />
									</g>
									<g class="accid" id="accid-0000001160934106">
										<use xlink:href="#E260" x="16977" y="2525" height="720px" width="720px" />
									</g>
								</g>
								<g class="note" id="note-L52F1">
									<use xlink:href="#E0A4" x="17824" y="2165" height="720px" width="720px" />
									<g class="stem">
										<rect x="17824" y="2187" height="884" width="18" />
									</g>
									<g class="accid" id="accid-0000001037672906">
										<use xlink:href="#E260" x="17628" y="2165" height="720px" width="720px" />
									</g>
								</g>
							</g>
							<g class="beam" id="beam-L54F1-L56F1">
								<polygon points="18676,3044 19345,3110 19345,3020 18676,2954 " />
								<polygon points="18676,2909 19010,2942 19010,2852 18676,2819 " />
								<g class="note" id="note-L54F1">
									<use xlink:href="#E0A4" x="18676" y="2075" height="720px" width="720px" />
									<g class="stem">
										<rect x="18676" y="2097" height="929" width="18" />
									</g>
									<g class="accid" id="accid-0000001011865148" />
								</g>
								<g class="note" id="note-L55F1">
									<use xlink:href="#E0A4" x="19001" y="2345" height="720px" width="720px" />
									<g class="stem">
										<rect x="19001" y="2367" height="692" width="18" />
									</g>
									<g class="accid" id="accid-0000001003041411" />
								</g>
								<g class="note" id="note-L56F1">
									<use xlink:href="#E0A4" x="19327" y="2435" height="720px" width="720px" />
									<g class="stem">
										<rect x="19327" y="2457" height="635" width="18" />
									</g>
									<g class="accid" id="accid-0000001329164683" />
								</g>
							</g>
						</g>
					</g>
					<g class="tie" id="tie-L57F2-L59F2">
						<path d="M19765,1575 C19821,1673 19933,1673 19992,1575 C19933,1717 19821,1717 19765,1575" stroke="#000000" stroke-linecap="round" stroke-linejoin="round" stroke-width="9" />
					</g>
					<g class="mNum autogenerated" id="mnum-0000001442997343" />
					<g class="barLineAttr" id="bline-0000001752217038">
						<path d="M19992 2975 L19992 720" stroke="#000000" stroke-width="27" />
					</g>
				</g>
			</g>
		</g>
	</svg>
</svg>
