<?xml version="1.0" encoding="UTF-8" standalone="no"?>
<svg width="2100.00px" height="450.00px" version="1.1" xmlns="http://www.w3.org/2000/svg" xmlns:xlink="http://www.w3.org/1999/xlink" overflow="visible">
	<desc>Engraved by Verovio 2.0.0-dev-0f0381c</desc>
	<defs>
		<symbol id="E050" viewBox="0 0 1000 1000" overflow="inherit">
			<path transform="scale(1,-1)" d="M441 -245c-23 -4 -48 -6 -76 -6c-59 0 -102 7 -130 20c-88 42 -150 93 -187 154c-26 44 -43 103 -48 176c-4 60 11 123 44 189c29 57 65 106 110 148s96 85 153 127c-3 16 -8 46 -13 92c-4 43 -5 73 -5 89c0 117 16 172 69 257c34 54 64 82 89 82c21 0 43 -30 69 -92 s39 -115 41 -159c2 -120 -19 -173 -67 -256c-13 -20 -63 -90 -98 -118c-13 -9 -25 -19 -37 -29l31 -181c8 1 18 2 28 2c58 0 102 -12 133 -35c59 -43 92 -104 98 -184c11 -135 -80 -229 -180 -270c8 -57 17 -110 25 -162c5 -31 6 -58 6 -80c0 -30 -5 -53 -14 -70 c-35 -64 -88 -99 -158 -103c-42 -3 -83 6 -124 26c-50 24 -77 59 -80 105c-2 34 5 63 20 87c18 28 45 42 79 44c51 4 99 -40 103 -87c4 -56 -30 -94 -105 -115c17 -24 51 -36 102 -36c62 0 116 43 140 85c9 16 13 41 13 74c0 20 -1 42 -5 67c-8 53 -18 106 -26 159zM461 939 c-95 0 -135 -175 -135 -286c0 -24 2 -48 5 -71c50 39 92 82 127 128c43 57 63 106 60 148c-4 54 -23 82 -57 81zM406 119l54 -326c80 27 116 88 109 184c-7 99 -62 146 -163 142zM382 117c-74 -2 -132 -50 -128 -127c2 -46 43 -99 75 -115c-3 -2 -7 -5 -10 -10 c-70 33 -116 88 -123 172c-5 73 42 135 88 170c23 17 49 29 78 36l-29 170c-21 -13 -52 -37 -92 -73c-50 -44 -86 -84 -109 -119c-49 -75 -71 -140 -67 -195c5 -68 35 -127 93 -176s125 -73 203 -73c25 0 50 3 75 9c-19 111 -36 221 -54 331z" />
		</symbol>
		<symbol id="E082" viewBox="0 0 1000 1000" overflow="inherit">
			<path transform="scale(1,-1)" d="M104 -185c-18 0 -55 -14 -65 -65h-36l-3 29c0 25 6 46 18 64c11 19 22 30 39 43l121 82l37 29c15 11 27 29 38 54c12 24 18 47 18 70c0 40 -19 88 -94 88c-25 0 -32 0 -50 -8c-14 -5 -23 -12 -26 -22c3 -9 7 -15 10 -18l24 -17c12 -7 17 -11 27 -21c5 -7 7 -16 7 -27 c0 -12 0 -57 -79 -74c-30 0 -76 26 -76 94c0 66 80 135 196 135c72 0 182 -32 182 -150c0 -53 -32 -95 -113 -133l-91 -41c-26 -11 -45 -23 -57 -37l49 7c84 0 115 -41 148 -41c20 0 33 20 39 61h35c0 -152 -68 -168 -114 -168c-17 0 -55 0 -69 7v0l-28 17 c-49 37 -69 40 -87 42z" />
		</symbol>
		<symbol id="E084" viewBox="0 0 1000 1000" overflow="inherit">
			<path transform="scale(1,-1)" d="M0 -78c84 97 114 180 134 329h170c-13 -32 -82 -132 -99 -151l-84 -97c-33 -36 -59 -63 -80 -81h162v102l127 123v-225h57v-39h-57v-34c0 -43 19 -65 57 -65v-34h-244v36c48 0 60 26 60 70v27h-203v39z" />
		</symbol>
		<symbol id="E4E7" viewBox="0 0 1000 1000" overflow="inherit">
			<path transform="scale(1,-1)" d="M133 -111c-16 38 -21 43 -64 51c-37 -4 -60 -25 -68 -60c0 -32 18 -52 55 -58c8 -6 22 -10 43 -10c31 0 62 7 82 20l-108 -324h37c72 220 143 439 215 659h-4l-10 -2l-7 -1c-15 -35 -27 -52 -59 -71c-26 -15 -56 -27 -88 -29c-11 0 -20 2 -26 6c29 3 56 25 51 56 c-15 35 -19 42 -64 48c-38 -4 -60 -23 -68 -58c0 -32 18 -52 55 -59c7 -5 22 -8 45 -8c48 0 76 7 112 25l-66 -197c-21 -23 -50 -47 -90 -47c-7 0 -15 1 -25 4c31 5 52 22 52 55z" />
		</symbol>
		<symbol id="E0A4" viewBox="0 0 1000 1000" overflow="inherit">
			<path transform="scale(1,-1)" d="M0 -39c0 68 73 172 200 172c66 0 114 -37 114 -95c0 -84 -106 -171 -218 -171c-64 0 -96 30 -96 94z" />
		</symbol>
		<symbol id="E062" viewBox="0 0 1000 1000" overflow="inherit">
			<path transform="scale(1,-1)" d="M158 96c51 0 73 -14 88 -49l16 -39c0 -17 -2 -30 -7 -40c-3 -11 -10 -21 -19 -31c-17 -18 -49 -43 -84 -43c-55 0 -77 13 -112 44c-24 21 -35 55 -35 100c0 46 14 81 32 112c30 52 71 79 137 93l36 6l26 2c154 0 235 -68 274 -182c11 -32 18 -68 18 -107 c0 -103 -26 -182 -68 -250c-89 -145 -234 -230 -412 -288l-30 -5c-9 0 -14 3 -14 8c3 10 5 11 10 16c35 15 70 30 96 44l78 43c96 57 162 136 197 258c9 33 17 60 22 100c3 22 5 35 6 39c-7 69 -16 115 -23 140s-4 22 -16 40c-8 12 -19 23 -31 34c-24 21 -62 44 -118 44 c-48 0 -84 -8 -113 -28c-28 -19 -42 -44 -42 -73v-16c2 -5 3 -9 4 -11c24 22 52 39 84 39zM585 -118c0 32 23 58 57 58c18 0 33 -6 40 -18c9 -15 16 -18 16 -40c0 -9 -2 -16 -5 -21c-6 -19 -27 -37 -51 -37c-34 0 -57 26 -57 58zM642 177c31 0 56 -27 56 -58 c0 -30 -25 -58 -56 -58l-23 3c-19 7 -34 32 -34 55l3 23c9 20 28 35 54 35z" />
		</symbol>
		<symbol id="E260" viewBox="0 0 1000 1000" overflow="inherit">
			<path transform="scale(1,-1)" d="M20 110c32 16 54 27 93 27c26 0 35 -3 54 -13c13 -7 24 -20 27 -38l4 -25c0 -28 -16 -57 -45 -89c-23 -25 -39 -44 -65 -68l-88 -79v644h20v-359zM90 106c-32 0 -48 -10 -70 -29v-194c31 31 54 59 71 84c21 32 32 59 32 84c0 9 1 16 1 20c0 14 -3 21 -11 30l-8 3z" />
		</symbol>
		<symbol id="E262" viewBox="0 0 1000 1000" overflow="inherit">
			<path transform="scale(1,-1)" d="M136 186v169h17v-164l44 14v-91l-44 -14v-165l44 12v-91l-44 -13v-155h-17v150l-76 -22v-155h-17v149l-43 -13v90l43 14v167l-43 -14v92l43 13v169h17v-163zM60 73v-167l76 22v168z" />
		</symbol>
		<symbol id="E261" viewBox="0 0 1000 1000" overflow="inherit">
			<path transform="scale(1,-1)" d="M0 -188v539h18v-191l139 22v-533h-17v186zM18 -100l122 17v176l-122 -19v-174z" />
		</symbol>
	</defs>
	<style type="text/css">g.page-margin{font-family:Times;} g.tempo{font-weight:bold;} g.dir, g.dynam, g.mNum{font-style:italic;} g.label{font-weight:normal;}</style>
	<svg class="definition-scale" viewBox="0 0 21000 4500">
		<g class="page-margin" transform="translate(500, 500)">
			<g class="system" id="system-0000001455588338">
				<path d="M13 720 L13 2892" stroke="#000000" stroke-width="27" />
				<path d="M-32,2874 C-392,2334 58,1986 -212,1806 C121,1986 -329,2334 -32,2874" stroke="#000000" stroke-linecap="round" stroke-linejoin="round" stroke-width="18" />
				<path d="M-32,738 C-329,1278 121,1626 -212,1806 C58,1626 -392,1278 -32,738" stroke="#000000" stroke-linecap="round" stroke-linejoin="round" stroke-width="18" />
				<g class="section boundaryStart" id="section-L1F1" />
				<g class="measure" id="measure-L4">
					<g class="staff" id="staff-L4F2N1">
						<path d="M0 720 L4446 720" stroke="#000000" stroke-width="13" />
						<path d="M0 900 L4446 900" stroke="#000000" stroke-width="13" />
						<path d="M0 1080 L4446 1080" stroke="#000000" stroke-width="13" />
						<path d="M0 1260 L4446 1260" stroke="#000000" stroke-width="13" />
						<path d="M0 1440 L4446 1440" stroke="#000000" stroke-width="13" />
						<g class="clef" id="clef-0000001406921420">
							<use xlink:href="#E050" x="90" y="1260" height="720px" width="720px" />
						</g>
						<g class="meterSig" id="msig-0000000185868823">
							<use xlink:href="#E082" x="771" y="900" height="720px" width="720px" />
							<use xlink:href="#E084" x="777" y="1260" height="720px" width="720px" />
						</g>
						<g class="ledgerLines below">
							<path d="M3621 1620 L3900 1620" stroke="#000000" stroke-width="22" />
						</g>
						<g class="layer" id="layer-L4F2N1">
							<g class="beam" id="beam-L5F2-L8F2">
								<polygon points="1576,598 2750,714 2750,804 1576,688 " />
								<polygon points="1576,733 2750,849 2750,939 1576,823 " />
								<g class="rest" id="rest-L5F2">
									<use xlink:href="#E4E7" x="1368" y="1080" height="720px" width="720px" />
								</g>
								<g class="note" id="note-L6F2">
									<use xlink:href="#E0A4" x="1759" y="1440" height="720px" width="720px" />
									<g class="stem">
										<rect x="1967" y="655" height="763" width="18" />
									</g>
									<g class="accid" id="accid-0000001105145520" />
								</g>
								<g class="note" id="note-L7F2">
									<use xlink:href="#E0A4" x="2142" y="1350" height="720px" width="720px" />
									<g class="stem">
										<rect x="2350" y="694" height="634" width="18" />
									</g>
									<g class="accid" id="accid-0000000595130621" />
								</g>
								<g class="note" id="note-L8F2">
									<use xlink:href="#E0A4" x="2524" y="1440" height="720px" width="720px" />
									<g class="stem">
										<rect x="2732" y="732" height="686" width="18" />
									</g>
									<g class="accid" id="accid-0000001165243874" />
								</g>
							</g>
							<g class="beam" id="beam-L9F2-L12F2">
								<polygon points="3114,743 4260,856 4260,946 3114,833 " />
								<polygon points="3869,953 4260,991 4260,1081 3869,1043 " />
								<g class="note" id="note-L9F2">
									<use xlink:href="#E0A4" x="2906" y="1440" height="720px" width="720px" />
									<g class="stem">
										<rect x="3114" y="761" height="657" width="18" />
									</g>
									<g class="accid" id="accid-0000001824413418" />
								</g>
								<g class="note" id="note-L11F2">
									<use xlink:href="#E0A4" x="3652" y="1620" height="720px" width="720px" />
									<g class="stem">
										<rect x="3860" y="836" height="762" width="18" />
									</g>
									<g class="accid" id="accid-0000001422565747" />
								</g>
								<g class="note" id="note-L12F2">
									<use xlink:href="#E0A4" x="4034" y="1530" height="720px" width="720px" />
									<g class="stem">
										<rect x="4242" y="874" height="634" width="18" />
									</g>
									<g class="accid" id="accid-0000001822378306" />
								</g>
							</g>
						</g>
					</g>
					<g class="staff" id="staff-L4F1N1">
						<path d="M0 2172 L4446 2172" stroke="#000000" stroke-width="13" />
						<path d="M0 2352 L4446 2352" stroke="#000000" stroke-width="13" />
						<path d="M0 2532 L4446 2532" stroke="#000000" stroke-width="13" />
						<path d="M0 2712 L4446 2712" stroke="#000000" stroke-width="13" />
						<path d="M0 2892 L4446 2892" stroke="#000000" stroke-width="13" />
						<g class="clef" id="clef-0000001456085423">
							<use xlink:href="#E062" x="90" y="2352" height="720px" width="720px" />
						</g>
						<g class="meterSig" id="msig-0000001851546796">
							<use xlink:href="#E082" x="771" y="2352" height="720px" width="720px" />
							<use xlink:href="#E084" x="777" y="2712" height="720px" width="720px" />
						</g>
						<g class="layer" id="layer-L4F1N1">
							<g class="beam" id="beam-L5F1-L7F1">
								<polygon points="1368,3300 2160,3297 2160,3207 1368,3210 " />
								<polygon points="1368,3165 1768,3164 1768,3074 1368,3075 " />
								<g class="note" id="note-L5F1">
									<use xlink:href="#E0A4" x="1368" y="2622" height="720px" width="720px" />
									<g class="stem">
										<rect x="1368" y="2644" height="638" width="18" />
									</g>
									<g class="accid" id="accid-0000001304572195" />
								</g>
								<g class="note" id="note-L6F1">
									<use xlink:href="#E0A4" x="1759" y="2082" height="720px" width="720px" />
									<g class="stem">
										<rect x="1759" y="2104" height="1177" width="18" />
									</g>
									<g class="accid" id="accid-0000000007248528" />
								</g>
								<g class="note" id="note-L7F1">
									<use xlink:href="#E0A4" x="2142" y="2622" height="720px" width="720px" />
									<g class="stem">
										<rect x="2142" y="2644" height="635" width="18" />
									</g>
									<g class="accid" id="accid-0000000731033087" />
								</g>
							</g>
							<g class="beam" id="beam-L9F1-L10F1">
								<polygon points="2906,2847 3307,2808 3307,2718 2906,2757 " />
								<polygon points="2906,2712 3064,2697 3064,2607 2906,2622 " />
								<g class="note" id="note-L9F1">
									<use xlink:href="#E0A4" x="2906" y="2172" height="720px" width="720px" />
									<g class="stem">
										<rect x="2906" y="2194" height="635" width="18" />
									</g>
									<g class="accid" id="accid-0000000510810674" />
								</g>
								<g class="note" id="note-L10F1">
									<use xlink:href="#E0A4" x="3289" y="2082" height="720px" width="720px" />
									<g class="dots" id="dots-0000000362620583">
										<ellipse cx="3605" cy="2082" rx="36" ry="36" />
									</g>
									<g class="stem">
										<rect x="3289" y="2104" height="686" width="18" />
									</g>
									<g class="accid" id="accid-0000000467893644" />
								</g>
							</g>
						</g>
					</g>
					<g class="tie" id="tie-L8F2-L9F2">
						<path d="M2637,1575 C2732,1673 2922,1673 3019,1575 C2922,1717 2732,1717 2637,1575" stroke="#000000" stroke-linecap="round" stroke-linejoin="round" stroke-width="9" />
					</g>
					<g class="tie" id="tie-L12F2-L14F2">
						<path d="M4282,1575 C4431,1673 4729,1673 4879,1575 C4729,1717 4431,1717 4282,1575" stroke="#000000" stroke-linecap="round" stroke-linejoin="round" stroke-width="9" />
					</g>
					<g class="mNum autogenerated" id="mnum-0000000337090629" />
					<g class="barLineAttr" id="bline-0000001508978646">
						<path d="M4433 2892 L4433 720" stroke="#000000" stroke-width="27" />
					</g>
				</g>
				<g class="measure" id="measure-L13">
					<g class="staff" id="staff-L13F2N1">
						<path d="M4446 720 L8465 720" stroke="#000000" stroke-width="13" />
						<path d="M4446 900 L8465 900" stroke="#000000" stroke-width="13" />
						<path d="M4446 1080 L8465 1080" stroke="#000000" stroke-width="13" />
						<path d="M4446 1260 L8465 1260" stroke="#000000" stroke-width="13" />
						<path d="M4446 1440 L8465 1440" stroke="#000000" stroke-width="13" />
						<g class="ledgerLines below">
							<path d="M6492 1620 L6771 1620" stroke="#000000" stroke-width="22" />
							<path d="M8021 1620 L8300 1620" stroke="#000000" stroke-width="22" />
						</g>
						<g class="layer" id="layer-L13F2N1">
							<g class="beam" id="beam-L14F2-L17F2">
								<polygon points="5109,724 6749,833 6749,923 5109,814 " />
								<polygon points="5109,859 5267,869 5267,959 5109,949 " />
								<polygon points="6591,958 6749,968 6749,1058 6591,1048 " />
								<g class="note" id="note-L14F2">
									<use xlink:href="#E0A4" x="4901" y="1530" height="720px" width="720px" />
									<g class="stem">
										<rect x="5109" y="742" height="766" width="18" />
									</g>
									<g class="accid" id="accid-0000001475522541" />
								</g>
								<g class="note" id="note-L15F2">
									<use xlink:href="#E0A4" x="5521" y="1440" height="720px" width="720px" />
									<g class="stem">
										<rect x="5729" y="784" height="634" width="18" />
									</g>
									<g class="accid" id="accid-0000000855824472">
										<use xlink:href="#E260" x="5325" y="1440" height="720px" width="720px" />
									</g>
								</g>
								<g class="note" id="note-L17F2">
									<use xlink:href="#E0A4" x="6523" y="1620" height="720px" width="720px" />
									<g class="stem">
										<rect x="6731" y="851" height="747" width="18" />
									</g>
									<g class="accid" id="accid-0000000183981602" />
								</g>
							</g>
							<g class="beam" id="beam-L18F2-L21F2">
								<polygon points="7113,730 8278,838 8278,928 7113,820 " />
								<polygon points="7113,865 8278,973 8278,1063 7113,955 " />
								<g class="note" id="note-L18F2">
									<use xlink:href="#E0A4" x="6905" y="1530" height="720px" width="720px" />
									<g class="stem">
										<rect x="7113" y="748" height="760" width="18" />
									</g>
									<g class="accid" id="accid-0000001411258327" />
								</g>
								<g class="note" id="note-L19F2">
									<use xlink:href="#E0A4" x="7288" y="1440" height="720px" width="720px" />
									<g class="stem">
										<rect x="7496" y="784" height="634" width="18" />
									</g>
									<g class="accid" id="accid-0000001787147117" />
								</g>
								<g class="note" id="note-L20F2">
									<use xlink:href="#E0A4" x="7670" y="1530" height="720px" width="720px" />
									<g class="stem">
										<rect x="7878" y="820" height="688" width="18" />
									</g>
									<g class="accid" id="accid-0000001839569567" />
								</g>
								<g class="note" id="note-L21F2">
									<use xlink:href="#E0A4" x="8052" y="1620" height="720px" width="720px" />
									<g class="stem">
										<rect x="8260" y="856" height="742" width="18" />
									</g>
									<g class="accid" id="accid-0000002101660766" />
								</g>
							</g>
						</g>
					</g>
					<g class="staff" id="staff-L13F1N1">
						<path d="M4446 2172 L8465 2172" stroke="#000000" stroke-width="13" />
						<path d="M4446 2352 L8465 2352" stroke="#000000" stroke-width="13" />
						<path d="M4446 2532 L8465 2532" stroke="#000000" stroke-width="13" />
						<path d="M4446 2712 L8465 2712" stroke="#000000" stroke-width="13" />
						<path d="M4446 2892 L8465 2892" stroke="#000000" stroke-width="13" />
						<g class="layer" id="layer-L13F1N1">
							<g class="beam" id="beam-L14F1-L17F1">
								<polygon points="4901,3117 6541,3035 6541,2945 4901,3027 " />
								<polygon points="4901,2982 6541,2900 6541,2810 4901,2892 " />
								<g class="note" id="note-L14F1">
									<use xlink:href="#E0A4" x="4901" y="2442" height="720px" width="720px" />
									<g class="stem">
										<rect x="4901" y="2464" height="635" width="18" />
									</g>
									<g class="accid" id="accid-0000000599928380">
										<use xlink:href="#E260" x="4705" y="2442" height="720px" width="720px" />
									</g>
								</g>
								<g class="note" id="note-L15F1">
									<use xlink:href="#E0A4" x="5521" y="2082" height="720px" width="720px" />
									<g class="stem">
										<rect x="5521" y="2104" height="964" width="18" />
									</g>
									<g class="accid" id="accid-0000000321076576">
										<use xlink:href="#E260" x="5325" y="2082" height="720px" width="720px" />
									</g>
								</g>
								<g class="note" id="note-L16F1">
									<use xlink:href="#E0A4" x="6141" y="2172" height="720px" width="720px" />
									<g class="stem">
										<rect x="6141" y="2194" height="842" width="18" />
									</g>
									<g class="accid" id="accid-0000001356396230">
										<use xlink:href="#E260" x="5945" y="2172" height="720px" width="720px" />
									</g>
								</g>
								<g class="note" id="note-L17F1">
									<use xlink:href="#E0A4" x="6523" y="2352" height="720px" width="720px" />
									<g class="stem">
										<rect x="6523" y="2374" height="643" width="18" />
									</g>
									<g class="accid" id="accid-0000002018482997" />
								</g>
							</g>
							<g class="beam" id="beam-L18F1-L21F1">
								<polygon points="6905,3028 8070,3047 8070,2957 6905,2938 " />
								<polygon points="6905,2893 7063,2895 7063,2805 6905,2803 " />
								<polygon points="7912,2909 8070,2912 8070,2822 7912,2819 " />
								<g class="note" id="note-L18F1">
									<use xlink:href="#E0A4" x="6905" y="2352" height="720px" width="720px" />
									<g class="stem">
										<rect x="6905" y="2374" height="636" width="18" />
									</g>
									<g class="accid" id="accid-0000000630031516" />
								</g>
								<g class="note" id="note-L19F1">
									<use xlink:href="#E0A4" x="7288" y="2262" height="720px" width="720px" />
									<g class="stem">
										<rect x="7288" y="2284" height="732" width="18" />
									</g>
									<g class="accid" id="accid-0000000161331540" />
								</g>
								<g class="note" id="note-L21F1">
									<use xlink:href="#E0A4" x="8052" y="2352" height="720px" width="720px" />
									<g class="stem">
										<rect x="8052" y="2374" height="655" width="18" />
									</g>
									<g class="accid" id="accid-0000001995722589" />
								</g>
							</g>
						</g>
					</g>
					<g class="tie" id="tie-L17F1-L18F1">
						<path d="M6636,2217 C6731,2075 6921,2075 7018,2217 C6921,2119 6731,2119 6636,2217" stroke="#000000" stroke-linecap="round" stroke-linejoin="round" stroke-width="9" />
					</g>
					<g class="tie" id="tie-L21F2-L23F2">
						<path d="M8300,1665 C8449,1763 8747,1763 8897,1665 C8747,1807 8449,1807 8300,1665" stroke="#000000" stroke-linecap="round" stroke-linejoin="round" stroke-width="9" />
					</g>
					<g class="mNum autogenerated" id="mnum-0000001594396336" />
					<g class="barLineAttr" id="bline-0000001113042312">
						<path d="M8452 2892 L8452 720" stroke="#000000" stroke-width="27" />
					</g>
				</g>
				<g class="measure" id="measure-L22">
					<g class="staff" id="staff-L22F2N1">
						<path d="M8465 720 L12699 720" stroke="#000000" stroke-width="13" />
						<path d="M8465 900 L12699 900" stroke="#000000" stroke-width="13" />
						<path d="M8465 1080 L12699 1080" stroke="#000000" stroke-width="13" />
						<path d="M8465 1260 L12699 1260" stroke="#000000" stroke-width="13" />
						<path d="M8465 1440 L12699 1440" stroke="#000000" stroke-width="13" />
						<g class="ledgerLines below">
							<path d="M8888 1620 L9167 1620" stroke="#000000" stroke-width="22" />
						</g>
						<g class="layer" id="layer-L22F2N1">
							<g class="beam" id="beam-L23F2-L26F2">
								<polygon points="9127,648 10766,486 10766,576 9127,738 " />
								<polygon points="9127,783 10766,621 10766,711 9127,873 " />
								<g class="note" id="note-L23F2">
									<use xlink:href="#E0A4" x="8919" y="1620" height="720px" width="720px" />
									<g class="stem">
										<rect x="9127" y="666" height="932" width="18" />
									</g>
									<g class="accid" id="accid-0000000508204540" />
								</g>
								<g class="note" id="note-L24F2">
									<use xlink:href="#E0A4" x="9539" y="1260" height="720px" width="720px" />
									<g class="stem">
										<rect x="9747" y="604" height="634" width="18" />
									</g>
									<g class="accid" id="accid-0000000248926113">
										<use xlink:href="#E260" x="9343" y="1260" height="720px" width="720px" />
									</g>
								</g>
								<g class="note" id="note-L25F2">
									<use xlink:href="#E0A4" x="10157" y="1350" height="720px" width="720px" />
									<g class="stem">
										<rect x="10365" y="542" height="786" width="18" />
									</g>
									<g class="accid" id="accid-0000000676663207" />
								</g>
								<g class="note" id="note-L26F2">
									<use xlink:href="#E0A4" x="10540" y="1260" height="720px" width="720px" />
									<g class="stem">
										<rect x="10748" y="504" height="734" width="18" />
									</g>
									<g class="accid" id="accid-0000001216853236" />
								</g>
							</g>
							<g class="beam" id="beam-L27F2-L30F2">
								<polygon points="11130,586 12513,723 12513,813 11130,676 " />
								<polygon points="11884,796 12513,858 12513,948 11884,886 " />
								<g class="note" id="note-L27F2">
									<use xlink:href="#E0A4" x="10922" y="1260" height="720px" width="720px" />
									<g class="stem">
										<rect x="11130" y="604" height="634" width="18" />
									</g>
									<g class="accid" id="accid-0000000970337921" />
								</g>
								<g class="note" id="note-L29F2">
									<use xlink:href="#E0A4" x="11667" y="1530" height="720px" width="720px" />
									<g class="stem">
										<rect x="11875" y="679" height="829" width="18" />
									</g>
									<g class="accid" id="accid-0000001889309688">
										<use xlink:href="#E260" x="11471" y="1530" height="720px" width="720px" />
									</g>
								</g>
								<g class="note" id="note-L30F2">
									<use xlink:href="#E0A4" x="12287" y="1440" height="720px" width="720px" />
									<g class="stem">
										<rect x="12495" y="741" height="677" width="18" />
									</g>
									<g class="accid" id="accid-0000001024297113">
										<use xlink:href="#E260" x="12091" y="1440" height="720px" width="720px" />
									</g>
								</g>
							</g>
						</g>
					</g>
					<g class="staff" id="staff-L22F1N1">
						<path d="M8465 2172 L12699 2172" stroke="#000000" stroke-width="13" />
						<path d="M8465 2352 L12699 2352" stroke="#000000" stroke-width="13" />
						<path d="M8465 2532 L12699 2532" stroke="#000000" stroke-width="13" />
						<path d="M8465 2712 L12699 2712" stroke="#000000" stroke-width="13" />
						<path d="M8465 2892 L12699 2892" stroke="#000000" stroke-width="13" />
						<g class="ledgerLines above">
							<path d="M10126 1992 L10405 1992" stroke="#000000" stroke-width="22" />
						</g>
						<g class="layer" id="layer-L22F1N1">
							<g class="beam" id="beam-L23F1-L25F1">
								<polygon points="8919,3027 10175,2903 10175,2813 8919,2937 " />
								<polygon points="8919,2892 9548,2830 9548,2740 8919,2802 " />
								<g class="note" id="note-L23F1">
									<use xlink:href="#E0A4" x="8919" y="2352" height="720px" width="720px" />
									<g class="stem">
										<rect x="8919" y="2374" height="635" width="18" />
									</g>
									<g class="accid" id="accid-0000000391422969">
										<use xlink:href="#E262" x="8724" y="2352" height="720px" width="720px" />
									</g>
								</g>
								<g class="note" id="note-L24F1">
									<use xlink:href="#E0A4" x="9539" y="2082" height="720px" width="720px" />
									<g class="stem">
										<rect x="9539" y="2104" height="843" width="18" />
									</g>
									<g class="accid" id="accid-0000001225549864" />
								</g>
								<g class="note" id="note-L25F1">
									<use xlink:href="#E0A4" x="10157" y="1992" height="720px" width="720px" />
									<g class="stem">
										<rect x="10157" y="2014" height="871" width="18" />
									</g>
									<g class="accid" id="accid-0000000793963790">
										<use xlink:href="#E262" x="9962" y="1992" height="720px" width="720px" />
									</g>
								</g>
							</g>
							<g class="beam" id="beam-L27F1-L28F1">
								<polygon points="10922,2937 11322,2898 11322,2808 10922,2847 " />
								<polygon points="10922,2802 11080,2787 11080,2697 10922,2712 " />
								<g class="note" id="note-L27F1">
									<use xlink:href="#E0A4" x="10922" y="2262" height="720px" width="720px" />
									<g class="stem">
										<rect x="10922" y="2284" height="635" width="18" />
									</g>
									<g class="accid" id="accid-0000000760509215">
										<use xlink:href="#E262" x="10727" y="2262" height="720px" width="720px" />
									</g>
								</g>
								<g class="note" id="note-L28F1">
									<use xlink:href="#E0A4" x="11304" y="2082" height="720px" width="720px" />
									<g class="dots" id="dots-0000000648620503">
										<ellipse cx="11620" cy="2082" rx="36" ry="36" />
									</g>
									<g class="stem">
										<rect x="11304" y="2104" height="776" width="18" />
									</g>
									<g class="accid" id="accid-0000000007721635" />
								</g>
							</g>
						</g>
					</g>
					<g class="tie" id="tie-L26F2-L27F2">
						<path d="M10653,1395 C10748,1493 10938,1493 11035,1395 C10938,1537 10748,1537 10653,1395" stroke="#000000" stroke-linecap="round" stroke-linejoin="round" stroke-width="9" />
					</g>
					<g class="tie" id="tie-L30F2-L32F2">
						<path d="M12535,1485 C12625,1583 12805,1583 12895,1485 C12805,1627 12625,1627 12535,1485" stroke="#000000" stroke-linecap="round" stroke-linejoin="round" stroke-width="9" />
					</g>
					<g class="mNum autogenerated" id="mnum-0000000990008215" />
					<g class="barLineAttr" id="bline-0000002093669734">
						<path d="M12686 2892 L12686 720" stroke="#000000" stroke-width="27" />
					</g>
				</g>
				<g class="measure" id="measure-L31">
					<g class="staff" id="staff-L31F2N1">
						<path d="M12699 720 L16714 720" stroke="#000000" stroke-width="13" />
						<path d="M12699 900 L16714 900" stroke="#000000" stroke-width="13" />
						<path d="M12699 1080 L16714 1080" stroke="#000000" stroke-width="13" />
						<path d="M12699 1260 L16714 1260" stroke="#000000" stroke-width="13" />
						<path d="M12699 1440 L16714 1440" stroke="#000000" stroke-width="13" />
						<g class="ledgerLines below">
							<path d="M14741 1620 L15020 1620" stroke="#000000" stroke-width="22" />
							<path d="M16271 1620 L16550 1620" stroke="#000000" stroke-width="22" />
						</g>
						<g class="layer" id="layer-L31F2N1">
							<g class="beam" id="beam-L32F2-L35F2">
								<polygon points="13125,704 14998,890 14998,980 13125,794 " />
								<polygon points="13125,839 13283,854 13283,944 13125,929 " />
								<polygon points="14840,1010 14998,1025 14998,1115 14840,1100 " />
								<g class="note" id="note-L32F2">
									<use xlink:href="#E0A4" x="12917" y="1440" height="720px" width="720px" />
									<g class="stem">
										<rect x="13125" y="722" height="696" width="18" />
									</g>
									<g class="accid" id="accid-0000001186191708" />
								</g>
								<g class="note" id="note-L33F2">
									<use xlink:href="#E0A4" x="13536" y="1440" height="720px" width="720px" />
									<g class="stem">
										<rect x="13744" y="784" height="634" width="18" />
									</g>
									<g class="accid" id="accid-L33F2">
										<use xlink:href="#E261" x="13369" y="1440" height="720px" width="720px" />
									</g>
								</g>
								<g class="note" id="note-L35F2">
									<use xlink:href="#E0A4" x="14772" y="1710" height="720px" width="720px" />
									<g class="stem">
										<rect x="14980" y="908" height="780" width="18" />
									</g>
									<g class="accid" id="accid-0000000774600863" />
								</g>
							</g>
							<g class="beam" id="beam-L36F2-L39F2">
								<polygon points="15363,728 16528,843 16528,933 15363,818 " />
								<polygon points="15363,863 16528,978 16528,1068 15363,953 " />
								<g class="note" id="note-L36F2">
									<use xlink:href="#E0A4" x="15155" y="1530" height="720px" width="720px" />
									<g class="stem">
										<rect x="15363" y="746" height="762" width="18" />
									</g>
									<g class="accid" id="accid-0000001416621501" />
								</g>
								<g class="note" id="note-L37F2">
									<use xlink:href="#E0A4" x="15537" y="1440" height="720px" width="720px" />
									<g class="stem">
										<rect x="15745" y="784" height="634" width="18" />
									</g>
									<g class="accid" id="accid-0000001884614823" />
								</g>
								<g class="note" id="note-L38F2">
									<use xlink:href="#E0A4" x="15919" y="1530" height="720px" width="720px" />
									<g class="stem">
										<rect x="16127" y="823" height="685" width="18" />
									</g>
									<g class="accid" id="accid-0000000685572872" />
								</g>
								<g class="note" id="note-L39F2">
									<use xlink:href="#E0A4" x="16302" y="1710" height="720px" width="720px" />
									<g class="stem">
										<rect x="16510" y="861" height="827" width="18" />
									</g>
									<g class="accid" id="accid-0000000416263995" />
								</g>
							</g>
						</g>
					</g>
					<g class="staff" id="staff-L31F1N1">
						<path d="M12699 2172 L16714 2172" stroke="#000000" stroke-width="13" />
						<path d="M12699 2352 L16714 2352" stroke="#000000" stroke-width="13" />
						<path d="M12699 2532 L16714 2532" stroke="#000000" stroke-width="13" />
						<path d="M12699 2712 L16714 2712" stroke="#000000" stroke-width="13" />
						<path d="M12699 2892 L16714 2892" stroke="#000000" stroke-width="13" />
						<g class="ledgerLines above">
							<path d="M13505 1992 L13784 1992" stroke="#000000" stroke-width="22" />
						</g>
						<g class="layer" id="layer-L31F1N1">
							<g class="beam" id="beam-L32F1-L35F1">
								<polygon points="12917,3477 14790,3291 14790,3201 12917,3387 " />
								<polygon points="12917,3342 14790,3156 14790,3066 12917,3252 " />
								<g class="note" id="note-L32F1">
									<use xlink:href="#E0A4" x="12917" y="2802" height="720px" width="720px" />
									<g class="stem">
										<rect x="12917" y="2824" height="635" width="18" />
									</g>
									<g class="accid" id="accid-0000001396515104" />
								</g>
								<g class="note" id="note-L33F1">
									<use xlink:href="#E0A4" x="13536" y="1992" height="720px" width="720px" />
									<g class="stem">
										<rect x="13536" y="2014" height="1383" width="18" />
									</g>
									<g class="accid" id="accid-0000001908433867">
										<use xlink:href="#E262" x="13341" y="1992" height="720px" width="720px" />
									</g>
								</g>
								<g class="note" id="note-L34F1">
									<use xlink:href="#E0A4" x="14154" y="2262" height="720px" width="720px" />
									<g class="stem">
										<rect x="14154" y="2284" height="1051" width="18" />
									</g>
									<g class="accid" id="accid-0000001466064540">
										<use xlink:href="#E262" x="13959" y="2262" height="720px" width="720px" />
									</g>
								</g>
								<g class="note" id="note-L35F1">
									<use xlink:href="#E0A4" x="14772" y="2352" height="720px" width="720px" />
									<g class="stem">
										<rect x="14772" y="2374" height="899" width="18" />
									</g>
									<g class="accid" id="accid-0000001861285218">
										<use xlink:href="#E262" x="14577" y="2352" height="720px" width="720px" />
									</g>
								</g>
							</g>
							<g class="beam" id="beam-L36F1-L39F1">
								<polygon points="15155,3509 16320,3412 16320,3322 15155,3419 " />
								<polygon points="15155,3374 15313,3361 15313,3271 15155,3284 " />
								<polygon points="16162,3290 16320,3277 16320,3187 16162,3200 " />
								<g class="note" id="note-L36F1">
									<use xlink:href="#E0A4" x="15155" y="2352" height="720px" width="720px" />
									<g class="stem">
										<rect x="15155" y="2374" height="1117" width="18" />
									</g>
									<g class="accid" id="accid-0000001811923562" />
								</g>
								<g class="note" id="note-L37F1">
									<use xlink:href="#E0A4" x="15537" y="2802" height="720px" width="720px" />
									<g class="stem">
										<rect x="15537" y="2824" height="635" width="18" />
									</g>
									<g class="accid" id="accid-0000001352844139" />
								</g>
								<g class="note" id="note-L39F1">
									<use xlink:href="#E0A4" x="16302" y="2352" height="720px" width="720px" />
									<g class="stem">
										<rect x="16302" y="2374" height="1020" width="18" />
									</g>
									<g class="accid" id="accid-0000001603109736" />
								</g>
							</g>
						</g>
					</g>
					<g class="tie" id="tie-L35F1-L36F1">
						<path d="M14885,2217 C14980,2075 15170,2075 15268,2217 C15170,2119 14980,2119 14885,2217" stroke="#000000" stroke-linecap="round" stroke-linejoin="round" stroke-width="9" />
					</g>
					<g class="tie" id="tie-L39F2-L41F2">
						<path d="M16550,1755 C16640,1853 16820,1853 16910,1755 C16820,1897 16640,1897 16550,1755" stroke="#000000" stroke-linecap="round" stroke-linejoin="round" stroke-width="9" />
					</g>
					<g class="mNum autogenerated" id="mnum-0000001813902505" />
					<g class="barLineAttr" id="bline-0000000137693239">
						<path d="M16701 2892 L16701 720" stroke="#000000" stroke-width="27" />
					</g>
				</g>
				<g class="measure" id="measure-L40">
					<g class="staff" id="staff-L40F2N1">
						<path d="M16714 720 L20002 720" stroke="#000000" stroke-width="13" />
						<path d="M16714 900 L20002 900" stroke="#000000" stroke-width="13" />
						<path d="M16714 1080 L20002 1080" stroke="#000000" stroke-width="13" />
						<path d="M16714 1260 L20002 1260" stroke="#000000" stroke-width="13" />
						<path d="M16714 1440 L20002 1440" stroke="#000000" stroke-width="13" />
						<g class="ledgerLines below">
							<path d="M16901 1620 L17180 1620" stroke="#000000" stroke-width="22" />
							<path d="M19176 1620 L19455 1620" stroke="#000000" stroke-width="22" />
						</g>
						<g class="layer" id="layer-L40F2N1">
							<g class="beam" id="beam-L41F2-L44F2">
								<polygon points="17140,753 18305,638 18305,728 17140,843 " />
								<polygon points="17140,888 18305,773 18305,863 17140,978 " />
								<g class="note" id="note-L41F2">
									<use xlink:href="#E0A4" x="16932" y="1710" height="720px" width="720px" />
									<g class="stem">
										<rect x="17140" y="771" height="917" width="18" />
									</g>
									<g class="accid" id="accid-0000000207621769" />
								</g>
								<g class="note" id="note-L42F2">
									<use xlink:href="#E0A4" x="17315" y="1440" height="720px" width="720px" />
									<g class="stem">
										<rect x="17523" y="732" height="686" width="18" />
									</g>
									<g class="accid" id="accid-0000000568291605" />
								</g>
								<g class="note" id="note-L43F2">
									<use xlink:href="#E0A4" x="17697" y="1350" height="720px" width="720px" />
									<g class="stem">
										<rect x="17905" y="694" height="634" width="18" />
									</g>
									<g class="accid" id="accid-0000001593497105" />
								</g>
								<g class="note" id="note-L44F2">
									<use xlink:href="#E0A4" x="18079" y="1440" height="720px" width="720px" />
									<g class="stem">
										<rect x="18287" y="656" height="762" width="18" />
									</g>
									<g class="accid" id="accid-0000001297592797" />
								</g>
							</g>
							<g class="beam" id="beam-L45F2-L48F2">
								<polygon points="18670,743 19816,856 19816,946 18670,833 " />
								<polygon points="19424,953 19816,991 19816,1081 19424,1043 " />
								<g class="note" id="note-L45F2">
									<use xlink:href="#E0A4" x="18462" y="1440" height="720px" width="720px" />
									<g class="stem">
										<rect x="18670" y="761" height="657" width="18" />
									</g>
									<g class="accid" id="accid-0000000977404300" />
								</g>
								<g class="note" id="note-L47F2">
									<use xlink:href="#E0A4" x="19207" y="1620" height="720px" width="720px" />
									<g class="stem">
										<rect x="19415" y="836" height="762" width="18" />
									</g>
									<g class="accid" id="accid-0000001596911147" />
								</g>
								<g class="note" id="note-L48F2">
									<use xlink:href="#E0A4" x="19590" y="1530" height="720px" width="720px" />
									<g class="stem">
										<rect x="19798" y="874" height="634" width="18" />
									</g>
									<g class="accid" id="accid-0000000295379083" />
								</g>
							</g>
						</g>
					</g>
					<g class="staff" id="staff-L40F1N1">
						<path d="M16714 2172 L20002 2172" stroke="#000000" stroke-width="13" />
						<path d="M16714 2352 L20002 2352" stroke="#000000" stroke-width="13" />
						<path d="M16714 2532 L20002 2532" stroke="#000000" stroke-width="13" />
						<path d="M16714 2712 L20002 2712" stroke="#000000" stroke-width="13" />
						<path d="M16714 2892 L20002 2892" stroke="#000000" stroke-width="13" />
						<g class="layer" id="layer-L40F1N1">
							<g class="beam" id="beam-L41F1-L43F1">
								<polygon points="16932,3297 17715,3297 17715,3207 16932,3207 " />
								<polygon points="16932,3162 17324,3162 17324,3072 16932,3072 " />
								<g class="note" id="note-L41F1">
									<use xlink:href="#E0A4" x="16932" y="2622" height="720px" width="720px" />
									<g class="stem">
										<rect x="16932" y="2644" height="635" width="18" />
									</g>
									<g class="accid" id="accid-0000000084288384" />
								</g>
								<g class="note" id="note-L42F1">
									<use xlink:href="#E0A4" x="17315" y="2082" height="720px" width="720px" />
									<g class="stem">
										<rect x="17315" y="2104" height="1175" width="18" />
									</g>
									<g class="accid" id="accid-0000001283168387" />
								</g>
								<g class="note" id="note-L43F1">
									<use xlink:href="#E0A4" x="17697" y="2622" height="720px" width="720px" />
									<g class="stem">
										<rect x="17697" y="2644" height="635" width="18" />
									</g>
									<g class="accid" id="accid-0000000947500606" />
								</g>
							</g>
							<g class="beam" id="beam-L45F1-L46F1">
								<polygon points="18462,2847 18862,2808 18862,2718 18462,2757 " />
								<polygon points="18462,2712 18620,2697 18620,2607 18462,2622 " />
								<g class="note" id="note-L45F1">
									<use xlink:href="#E0A4" x="18462" y="2172" height="720px" width="720px" />
									<g class="stem">
										<rect x="18462" y="2194" height="635" width="18" />
									</g>
									<g class="accid" id="accid-0000001453028738" />
								</g>
								<g class="note" id="note-L46F1">
									<use xlink:href="#E0A4" x="18844" y="2082" height="720px" width="720px" />
									<g class="dots" id="dots-0000001506477286">
										<ellipse cx="19160" cy="2082" rx="36" ry="36" />
									</g>
									<g class="stem">
										<rect x="18844" y="2104" height="686" width="18" />
									</g>
									<g class="accid" id="accid-0000000654931420" />
								</g>
							</g>
						</g>
					</g>
					<g class="tie" id="tie-L44F2-L45F2">
						<path d="M18192,1575 C18287,1673 18477,1673 18575,1575 C18477,1717 18287,1717 18192,1575" stroke="#000000" stroke-linecap="round" stroke-linejoin="round" stroke-width="9" />
					</g>
					<g class="tie" id="tie-L48F2-L50F2">
						<path d="M19703,1665 C19774,1763 19916,1763 19989,1665 C19916,1807 19774,1807 19703,1665" stroke="#000000" stroke-linecap="round" stroke-linejoin="round" stroke-width="9" />
					</g>
					<g class="mNum autogenerated" id="mnum-0000000891309964" />
					<g class="barLineAttr" id="bline-0000000429969482">
						<path d="M19989 2892 L19989 720" stroke="#000000" stroke-width="27" />
					</g>
				</g>
			</g>
		</g>
	</svg>
</svg>
