<?xml version="1.0" encoding="UTF-8" standalone="no"?>
<svg width="2100.00px" height="450.00px" version="1.1" xmlns="http://www.w3.org/2000/svg" xmlns:xlink="http://www.w3.org/1999/xlink" overflow="visible">
	<desc>Engraved by Verovio 2.0.0-dev-0f0381c</desc>
	<defs>
		<symbol id="E050" viewBox="0 0 1000 1000" overflow="inherit">
			<path transform="scale(1,-1)" d="M441 -245c-23 -4 -48 -6 -76 -6c-59 0 -102 7 -130 20c-88 42 -150 93 -187 154c-26 44 -43 103 -48 176c-4 60 11 123 44 189c29 57 65 106 110 148s96 85 153 127c-3 16 -8 46 -13 92c-4 43 -5 73 -5 89c0 117 16 172 69 257c34 54 64 82 89 82c21 0 43 -30 69 -92 s39 -115 41 -159c2 -120 -19 -173 -67 -256c-13 -20 -63 -90 -98 -118c-13 -9 -25 -19 -37 -29l31 -181c8 1 18 2 28 2c58 0 102 -12 133 -35c59 -43 92 -104 98 -184c11 -135 -80 -229 -180 -270c8 -57 17 -110 25 -162c5 -31 6 -58 6 -80c0 -30 -5 -53 -14 -70 c-35 -64 -88 -99 -158 -103c-42 -3 -83 6 -124 26c-50 24 -77 59 -80 105c-2 34 5 63 20 87c18 28 45 42 79 44c51 4 99 -40 103 -87c4 -56 -30 -94 -105 -115c17 -24 51 -36 102 -36c62 0 116 43 140 85c9 16 13 41 13 74c0 20 -1 42 -5 67c-8 53 -18 106 -26 159zM461 939 c-95 0 -135 -175 -135 -286c0 -24 2 -48 5 -71c50 39 92 82 127 128c43 57 63 106 60 148c-4 54 -23 82 -57 81zM406 119l54 -326c80 27 116 88 109 184c-7 99 -62 146 -163 142zM382 117c-74 -2 -132 -50 -128 -127c2 -46 43 -99 75 -115c-3 -2 -7 -5 -10 -10 c-70 33 -116 88 -123 172c-5 73 42 135 88 170c23 17 49 29 78 36l-29 170c-21 -13 -52 -37 -92 -73c-50 -44 -86 -84 -109 -119c-49 -75 -71 -140 -67 -195c5 -68 35 -127 93 -176s125 -73 203 -73c25 0 50 3 75 9c-19 111 -36 221 -54 331z" />
		</symbol>
		<symbol id="E082" viewBox="0 0 1000 1000" overflow="inherit">
			<path transform="scale(1,-1)" d="M104 -185c-18 0 -55 -14 -65 -65h-36l-3 29c0 25 6 46 18 64c11 19 22 30 39 43l121 82l37 29c15 11 27 29 38 54c12 24 18 47 18 70c0 40 -19 88 -94 88c-25 0 -32 0 -50 -8c-14 -5 -23 -12 -26 -22c3 -9 7 -15 10 -18l24 -17c12 -7 17 -11 27 -21c5 -7 7 -16 7 -27 c0 -12 0 -57 -79 -74c-30 0 -76 26 -76 94c0 66 80 135 196 135c72 0 182 -32 182 -150c0 -53 -32 -95 -113 -133l-91 -41c-26 -11 -45 -23 -57 -37l49 7c84 0 115 -41 148 -41c20 0 33 20 39 61h35c0 -152 -68 -168 -114 -168c-17 0 -55 0 -69 7v0l-28 17 c-49 37 -69 40 -87 42z" />
		</symbol>
		<symbol id="E084" viewBox="0 0 1000 1000" overflow="inherit">
			<path transform="scale(1,-1)" d="M0 -78c84 97 114 180 134 329h170c-13 -32 -82 -132 -99 -151l-84 -97c-33 -36 -59 -63 -80 -81h162v102l127 123v-225h57v-39h-57v-34c0 -43 19 -65 57 -65v-34h-244v36c48 0 60 26 60 70v27h-203v39z" />
		</symbol>
		<symbol id="E0A4" viewBox="0 0 1000 1000" overflow="inherit">
			<path transform="scale(1,-1)" d="M0 -39c0 68 73 172 200 172c66 0 114 -37 114 -95c0 -84 -106 -171 -218 -171c-64 0 -96 30 -96 94z" />
		</symbol>
		<symbol id="E062" viewBox="0 0 1000 1000" overflow="inherit">
			<path transform="scale(1,-1)" d="M158 96c51 0 73 -14 88 -49l16 -39c0 -17 -2 -30 -7 -40c-3 -11 -10 -21 -19 -31c-17 -18 -49 -43 -84 -43c-55 0 -77 13 -112 44c-24 21 -35 55 -35 100c0 46 14 81 32 112c30 52 71 79 137 93l36 6l26 2c154 0 235 -68 274 -182c11 -32 18 -68 18 -107 c0 -103 -26 -182 -68 -250c-89 -145 -234 -230 -412 -288l-30 -5c-9 0 -14 3 -14 8c3 10 5 11 10 16c35 15 70 30 96 44l78 43c96 57 162 136 197 258c9 33 17 60 22 100c3 22 5 35 6 39c-7 69 -16 115 -23 140s-4 22 -16 40c-8 12 -19 23 -31 34c-24 21 -62 44 -118 44 c-48 0 -84 -8 -113 -28c-28 -19 -42 -44 -42 -73v-16c2 -5 3 -9 4 -11c24 22 52 39 84 39zM585 -118c0 32 23 58 57 58c18 0 33 -6 40 -18c9 -15 16 -18 16 -40c0 -9 -2 -16 -5 -21c-6 -19 -27 -37 -51 -37c-34 0 -57 26 -57 58zM642 177c31 0 56 -27 56 -58 c0 -30 -25 -58 -56 -58l-23 3c-19 7 -34 32 -34 55l3 23c9 20 28 35 54 35z" />
		</symbol>
		<symbol id="E260" viewBox="0 0 1000 1000" overflow="inherit">
			<path transform="scale(1,-1)" d="M20 110c32 16 54 27 93 27c26 0 35 -3 54 -13c13 -7 24 -20 27 -38l4 -25c0 -28 -16 -57 -45 -89c-23 -25 -39 -44 -65 -68l-88 -79v644h20v-359zM90 106c-32 0 -48 -10 -70 -29v-194c31 31 54 59 71 84c21 32 32 59 32 84c0 9 1 16 1 20c0 14 -3 21 -11 30l-8 3z" />
		</symbol>
		<symbol id="E262" viewBox="0 0 1000 1000" overflow="inherit">
			<path transform="scale(1,-1)" d="M136 186v169h17v-164l44 14v-91l-44 -14v-165l44 12v-91l-44 -13v-155h-17v150l-76 -22v-155h-17v149l-43 -13v90l43 14v167l-43 -14v92l43 13v169h17v-163zM60 73v-167l76 22v168z" />
		</symbol>
	</defs>
	<style type="text/css">g.page-margin{font-family:Times;} g.tempo{font-weight:bold;} g.dir, g.dynam, g.mNum{font-style:italic;} g.label{font-weight:normal;}</style>
	<svg class="definition-scale" viewBox="0 0 21000 4500">
		<g class="page-margin" transform="translate(500, 500)">
			<g class="system" id="system-0000001157278989">
				<path d="M13 720 L13 2880" stroke="#000000" stroke-width="27" />
				<path d="M-32,2862 C-392,2322 58,1980 -212,1800 C121,1980 -329,2322 -32,2862" stroke="#000000" stroke-linecap="round" stroke-linejoin="round" stroke-width="18" />
				<path d="M-32,738 C-329,1278 121,1620 -212,1800 C58,1620 -392,1278 -32,738" stroke="#000000" stroke-linecap="round" stroke-linejoin="round" stroke-width="18" />
				<g class="section boundaryStart" id="section-L1F1" />
				<g class="measure" id="measure-L4">
					<g class="staff" id="staff-L4F2N1">
						<path d="M0 720 L3915 720" stroke="#000000" stroke-width="13" />
						<path d="M0 900 L3915 900" stroke="#000000" stroke-width="13" />
						<path d="M0 1080 L3915 1080" stroke="#000000" stroke-width="13" />
						<path d="M0 1260 L3915 1260" stroke="#000000" stroke-width="13" />
						<path d="M0 1440 L3915 1440" stroke="#000000" stroke-width="13" />
						<g class="clef" id="clef-0000001777674515">
							<use xlink:href="#E050" x="90" y="1260" height="720px" width="720px" />
						</g>
						<g class="meterSig" id="msig-0000001583076541">
							<use xlink:href="#E082" x="771" y="900" height="720px" width="720px" />
							<use xlink:href="#E084" x="777" y="1260" height="720px" width="720px" />
						</g>
						<g class="ledgerLines below">
							<path d="M2676 1620 L2955 1620" stroke="#000000" stroke-width="22" />
						</g>
						<g class="layer" id="layer-L4F2N1">
							<g class="beam" id="beam-L5F2-L8F2">
								<polygon points="1555,669 2589,688 2589,778 1555,759 " />
								<polygon points="1555,804 1713,807 1713,897 1555,894 " />
								<polygon points="2431,820 2589,823 2589,913 2431,910 " />
								<g class="note" id="note-L5F2">
									<use xlink:href="#E0A4" x="1347" y="1440" height="720px" width="720px" />
									<g class="stem">
										<rect x="1555" y="687" height="731" width="18" />
									</g>
									<g class="accid" id="accid-0000002055613396" />
								</g>
								<g class="note" id="note-L6F2">
									<use xlink:href="#E0A4" x="1691" y="1350" height="720px" width="720px" />
									<g class="stem">
										<rect x="1899" y="694" height="634" width="18" />
									</g>
									<g class="accid" id="accid-0000000831725771" />
								</g>
								<g class="note" id="note-L8F2">
									<use xlink:href="#E0A4" x="2363" y="1440" height="720px" width="720px" />
									<g class="stem">
										<rect x="2571" y="706" height="712" width="18" />
									</g>
									<g class="accid" id="accid-0000000556218883" />
								</g>
							</g>
							<g class="beam" id="beam-L9F2-L11F2">
								<polygon points="2915,670 3768,586 3768,676 2915,760 " />
								<polygon points="2915,805 3073,790 3073,880 2915,895 " />
								<polygon points="3610,736 3768,721 3768,811 3610,826 " />
								<g class="note" id="note-L9F2">
									<use xlink:href="#E0A4" x="2707" y="1620" height="720px" width="720px" />
									<g class="stem">
										<rect x="2915" y="688" height="910" width="18" />
									</g>
									<g class="accid" id="accid-0000000644624103" />
								</g>
								<g class="note" id="note-L10F2">
									<use xlink:href="#E0A4" x="3052" y="1350" height="720px" width="720px" />
									<g class="stem">
										<rect x="3260" y="653" height="675" width="18" />
									</g>
									<g class="accid" id="accid-0000001486901731" />
								</g>
								<g class="note" id="note-L11F2">
									<use xlink:href="#E0A4" x="3542" y="1260" height="720px" width="720px" />
									<g class="stem">
										<rect x="3750" y="604" height="634" width="18" />
									</g>
									<g class="accid" id="accid-0000001894048711" />
								</g>
							</g>
						</g>
					</g>
					<g class="staff" id="staff-L4F1N1">
						<path d="M0 2160 L3915 2160" stroke="#000000" stroke-width="13" />
						<path d="M0 2340 L3915 2340" stroke="#000000" stroke-width="13" />
						<path d="M0 2520 L3915 2520" stroke="#000000" stroke-width="13" />
						<path d="M0 2700 L3915 2700" stroke="#000000" stroke-width="13" />
						<path d="M0 2880 L3915 2880" stroke="#000000" stroke-width="13" />
						<g class="clef" id="clef-0000001592521904">
							<use xlink:href="#E062" x="90" y="2340" height="720px" width="720px" />
						</g>
						<g class="meterSig" id="msig-0000001426947967">
							<use xlink:href="#E082" x="771" y="2340" height="720px" width="720px" />
							<use xlink:href="#E084" x="777" y="2700" height="720px" width="720px" />
						</g>
						<g class="ledgerLines above">
							<path d="M3021 1980 L3300 1980" stroke="#000000" stroke-width="22" />
						</g>
						<g class="layer" id="layer-L4F1N1">
							<g class="beam" id="beam-L5F1-L8F1">
								<polygon points="1555,1859 2589,1840 2589,1930 1555,1949 " />
								<polygon points="2235,1981 2589,1975 2589,2065 2235,2071 " />
								<g class="note" id="note-L5F1">
									<use xlink:href="#E0A4" x="1347" y="2610" height="720px" width="720px" />
									<g class="stem">
										<rect x="1555" y="1877" height="711" width="18" />
									</g>
									<g class="accid" id="accid-0000000608919177" />
								</g>
								<g class="note" id="note-L7F1">
									<use xlink:href="#E0A4" x="2018" y="2520" height="720px" width="720px" />
									<g class="stem">
										<rect x="2226" y="1864" height="634" width="18" />
									</g>
									<g class="accid" id="accid-0000001504392066" />
								</g>
								<g class="note" id="note-L8F1">
									<use xlink:href="#E0A4" x="2363" y="2610" height="720px" width="720px" />
									<g class="stem">
										<rect x="2571" y="1858" height="730" width="18" />
									</g>
									<g class="accid" id="accid-0000001850633046" />
								</g>
							</g>
							<g class="beam" id="beam-L9F1-L11F1">
								<polygon points="2707,2925 3560,2841 3560,2751 2707,2835 " />
								<polygon points="2707,2790 2865,2775 2865,2685 2707,2700 " />
								<polygon points="3402,2721 3560,2706 3560,2616 3402,2631 " />
								<g class="note" id="note-L9F1">
									<use xlink:href="#E0A4" x="2707" y="2250" height="720px" width="720px" />
									<g class="stem">
										<rect x="2707" y="2272" height="635" width="18" />
									</g>
									<g class="accid" id="accid-0000002120867192" />
								</g>
								<g class="note" id="note-L10F1">
									<use xlink:href="#E0A4" x="3052" y="1980" height="720px" width="720px" />
									<g class="stem">
										<rect x="3052" y="2002" height="870" width="18" />
									</g>
									<g class="accid" id="accid-0000000818379995" />
								</g>
								<g class="note" id="note-L11F1">
									<use xlink:href="#E0A4" x="3542" y="2070" height="720px" width="720px" />
									<g class="stem">
										<rect x="3542" y="2092" height="731" width="18" />
									</g>
									<g class="accid" id="accid-0000000865254337" />
								</g>
							</g>
						</g>
					</g>
					<g class="mNum autogenerated" id="mnum-0000001952134693" />
					<g class="barLineAttr" id="bline-0000000949973004">
						<path d="M3902 2880 L3902 720" stroke="#000000" stroke-width="27" />
					</g>
				</g>
				<g class="measure" id="measure-L12">
					<g class="staff" id="staff-L12F2N1">
						<path d="M3915 720 L6680 720" stroke="#000000" stroke-width="13" />
						<path d="M3915 900 L6680 900" stroke="#000000" stroke-width="13" />
						<path d="M3915 1080 L6680 1080" stroke="#000000" stroke-width="13" />
						<path d="M3915 1260 L6680 1260" stroke="#000000" stroke-width="13" />
						<path d="M3915 1440 L6680 1440" stroke="#000000" stroke-width="13" />
						<g class="layer" id="layer-L12F2N1">
							<g class="beam" id="beam-L13F2-L16F2">
								<polygon points="4112,1756 5146,1858 5146,1768 4112,1666 " />
								<polygon points="4112,1621 4270,1636 4270,1546 4112,1531 " />
								<polygon points="4988,1708 5146,1723 5146,1633 4988,1618 " />
								<g class="note" id="note-L13F2">
									<use xlink:href="#E0A4" x="4112" y="1080" height="720px" width="720px" />
									<g class="stem">
										<rect x="4112" y="1102" height="636" width="18" />
									</g>
									<g class="accid" id="accid-0000001230785958" />
								</g>
								<g class="note" id="note-L14F2">
									<use xlink:href="#E0A4" x="4456" y="990" height="720px" width="720px" />
									<g class="stem">
										<rect x="4456" y="1012" height="761" width="18" />
									</g>
									<g class="accid" id="accid-0000001273431828" />
								</g>
								<g class="note" id="note-L16F2">
									<use xlink:href="#E0A4" x="5128" y="1170" height="720px" width="720px" />
									<g class="stem">
										<rect x="5128" y="1192" height="648" width="18" />
									</g>
									<g class="accid" id="accid-0000000013376490" />
								</g>
							</g>
							<g class="beam" id="beam-L17F2-L19F2">
								<polygon points="5680,316 6533,400 6533,490 5680,406 " />
								<polygon points="5680,451 5838,466 5838,556 5680,541 " />
								<polygon points="6375,520 6533,535 6533,625 6375,610 " />
								<g class="note" id="note-L17F2">
									<use xlink:href="#E0A4" x="5472" y="990" height="720px" width="720px" />
									<g class="stem">
										<rect x="5680" y="334" height="634" width="18" />
									</g>
									<g class="accid" id="accid-0000000077929261" />
								</g>
								<g class="note" id="note-L18F2">
									<use xlink:href="#E0A4" x="5817" y="1260" height="720px" width="720px" />
									<g class="stem">
										<rect x="6025" y="369" height="869" width="18" />
									</g>
									<g class="accid" id="accid-0000001339109615" />
								</g>
								<g class="note" id="note-L19F2">
									<use xlink:href="#E0A4" x="6307" y="1170" height="720px" width="720px" />
									<g class="stem">
										<rect x="6515" y="418" height="730" width="18" />
									</g>
									<g class="accid" id="accid-0000001800336283" />
								</g>
							</g>
						</g>
					</g>
					<g class="staff" id="staff-L12F1N1">
						<path d="M3915 2160 L6680 2160" stroke="#000000" stroke-width="13" />
						<path d="M3915 2340 L6680 2340" stroke="#000000" stroke-width="13" />
						<path d="M3915 2520 L6680 2520" stroke="#000000" stroke-width="13" />
						<path d="M3915 2700 L6680 2700" stroke="#000000" stroke-width="13" />
						<path d="M3915 2880 L6680 2880" stroke="#000000" stroke-width="13" />
						<g class="layer" id="layer-L12F1N1">
							<g class="beam" id="beam-L13F1-L16F1">
								<polygon points="4112,3003 5146,3105 5146,3015 4112,2913 " />
								<polygon points="4792,2936 5146,2970 5146,2880 4792,2846 " />
								<g class="note" id="note-L13F1">
									<use xlink:href="#E0A4" x="4112" y="2250" height="720px" width="720px" />
									<g class="stem">
										<rect x="4112" y="2272" height="713" width="18" />
									</g>
									<g class="accid" id="accid-0000001947345201" />
								</g>
								<g class="note" id="note-L15F1">
									<use xlink:href="#E0A4" x="4783" y="2340" height="720px" width="720px" />
									<g class="stem">
										<rect x="4783" y="2362" height="691" width="18" />
									</g>
									<g class="accid" id="accid-0000001053876489" />
								</g>
								<g class="note" id="note-L16F1">
									<use xlink:href="#E0A4" x="5128" y="2430" height="720px" width="720px" />
									<g class="stem">
										<rect x="5128" y="2452" height="635" width="18" />
									</g>
									<g class="accid" id="accid-0000000728310207" />
								</g>
							</g>
							<g class="beam" id="beam-L17F1-L19F1">
								<polygon points="5472,3164 6325,3238 6325,3148 5472,3074 " />
								<polygon points="5472,3029 5630,3042 5630,2952 5472,2939 " />
								<polygon points="6167,3090 6325,3103 6325,3013 6167,3000 " />
								<g class="note" id="note-L17F1">
									<use xlink:href="#E0A4" x="5472" y="2340" height="720px" width="720px" />
									<g class="stem">
										<rect x="5472" y="2362" height="784" width="18" />
									</g>
									<g class="accid" id="accid-0000001327502115" />
								</g>
								<g class="note" id="note-L18F1">
									<use xlink:href="#E0A4" x="5817" y="2520" height="720px" width="720px" />
									<g class="stem">
										<rect x="5817" y="2542" height="635" width="18" />
									</g>
									<g class="accid" id="accid-0000002066899558" />
								</g>
								<g class="note" id="note-L19F1">
									<use xlink:href="#E0A4" x="6307" y="2430" height="720px" width="720px" />
									<g class="stem">
										<rect x="6307" y="2452" height="768" width="18" />
									</g>
									<g class="accid" id="accid-0000000372390730" />
								</g>
							</g>
						</g>
					</g>
					<g class="mNum autogenerated" id="mnum-0000001449033644" />
					<g class="barLineAttr" id="bline-0000000555426884">
						<path d="M6667 2880 L6667 720" stroke="#000000" stroke-width="27" />
					</g>
				</g>
				<g class="measure" id="measure-L20">
					<g class="staff" id="staff-L20F2N1">
						<path d="M6680 720 L9726 720" stroke="#000000" stroke-width="13" />
						<path d="M6680 900 L9726 900" stroke="#000000" stroke-width="13" />
						<path d="M6680 1080 L9726 1080" stroke="#000000" stroke-width="13" />
						<path d="M6680 1260 L9726 1260" stroke="#000000" stroke-width="13" />
						<path d="M6680 1440 L9726 1440" stroke="#000000" stroke-width="13" />
						<g class="ledgerLines below">
							<path d="M8420 1620 L8699 1620" stroke="#000000" stroke-width="22" />
						</g>
						<g class="layer" id="layer-L20F2N1">
							<g class="beam" id="beam-L21F2-L24F2">
								<polygon points="7298,669 8332,688 8332,778 7298,759 " />
								<polygon points="7298,804 7456,807 7456,897 7298,894 " />
								<polygon points="8174,820 8332,823 8332,913 8174,910 " />
								<g class="note" id="note-L21F2">
									<use xlink:href="#E0A4" x="7090" y="1440" height="720px" width="720px" />
									<g class="stem">
										<rect x="7298" y="687" height="731" width="18" />
									</g>
									<g class="accid" id="accid-0000001024268209">
										<use xlink:href="#E260" x="6894" y="1440" height="720px" width="720px" />
									</g>
								</g>
								<g class="note" id="note-L22F2">
									<use xlink:href="#E0A4" x="7435" y="1350" height="720px" width="720px" />
									<g class="stem">
										<rect x="7643" y="694" height="634" width="18" />
									</g>
									<g class="accid" id="accid-0000001454323863" />
								</g>
								<g class="note" id="note-L24F2">
									<use xlink:href="#E0A4" x="8106" y="1440" height="720px" width="720px" />
									<g class="stem">
										<rect x="8314" y="706" height="712" width="18" />
									</g>
									<g class="accid" id="accid-0000000392656919" />
								</g>
							</g>
							<g class="beam" id="beam-L25F2-L27F2">
								<polygon points="8659,676 9579,586 9579,676 8659,766 " />
								<polygon points="8659,811 8817,796 8817,886 8659,901 " />
								<polygon points="9421,735 9579,721 9579,811 9421,825 " />
								<g class="note" id="note-L25F2">
									<use xlink:href="#E0A4" x="8451" y="1620" height="720px" width="720px" />
									<g class="stem">
										<rect x="8659" y="694" height="904" width="18" />
									</g>
									<g class="accid" id="accid-0000001703178008" />
								</g>
								<g class="note" id="note-L26F2">
									<use xlink:href="#E0A4" x="8795" y="1350" height="720px" width="720px" />
									<g class="stem">
										<rect x="9003" y="659" height="669" width="18" />
									</g>
									<g class="accid" id="accid-0000002118286243" />
								</g>
								<g class="note" id="note-L27F2">
									<use xlink:href="#E0A4" x="9353" y="1260" height="720px" width="720px" />
									<g class="stem">
										<rect x="9561" y="604" height="634" width="18" />
									</g>
									<g class="accid" id="accid-0000000125236018" />
								</g>
							</g>
						</g>
					</g>
					<g class="staff" id="staff-L20F1N1">
						<path d="M6680 2160 L9726 2160" stroke="#000000" stroke-width="13" />
						<path d="M6680 2340 L9726 2340" stroke="#000000" stroke-width="13" />
						<path d="M6680 2520 L9726 2520" stroke="#000000" stroke-width="13" />
						<path d="M6680 2700 L9726 2700" stroke="#000000" stroke-width="13" />
						<path d="M6680 2880 L9726 2880" stroke="#000000" stroke-width="13" />
						<g class="ledgerLines above">
							<path d="M8764 1980 L9043 1980" stroke="#000000" stroke-width="22" />
						</g>
						<g class="layer" id="layer-L20F1N1">
							<g class="beam" id="beam-L21F1-L24F1">
								<polygon points="7298,1859 8332,1840 8332,1930 7298,1949 " />
								<polygon points="7979,1981 8332,1975 8332,2065 7979,2071 " />
								<g class="note" id="note-L21F1">
									<use xlink:href="#E0A4" x="7090" y="2610" height="720px" width="720px" />
									<g class="stem">
										<rect x="7298" y="1877" height="711" width="18" />
									</g>
									<g class="accid" id="accid-0000000718034131" />
								</g>
								<g class="note" id="note-L23F1">
									<use xlink:href="#E0A4" x="7762" y="2520" height="720px" width="720px" />
									<g class="stem">
										<rect x="7970" y="1864" height="634" width="18" />
									</g>
									<g class="accid" id="accid-0000000865522832" />
								</g>
								<g class="note" id="note-L24F1">
									<use xlink:href="#E0A4" x="8106" y="2610" height="720px" width="720px" />
									<g class="stem">
										<rect x="8314" y="1858" height="730" width="18" />
									</g>
									<g class="accid" id="accid-0000001951395342" />
								</g>
							</g>
							<g class="beam" id="beam-L25F1-L27F1">
								<polygon points="8451,2925 9371,2834 9371,2744 8451,2835 " />
								<polygon points="8451,2790 8609,2775 8609,2685 8451,2700 " />
								<polygon points="9213,2714 9371,2699 9371,2609 9213,2624 " />
								<g class="note" id="note-L25F1">
									<use xlink:href="#E0A4" x="8451" y="2250" height="720px" width="720px" />
									<g class="stem">
										<rect x="8451" y="2272" height="635" width="18" />
									</g>
									<g class="accid" id="accid-0000000261557184" />
								</g>
								<g class="note" id="note-L26F1">
									<use xlink:href="#E0A4" x="8795" y="1980" height="720px" width="720px" />
									<g class="stem">
										<rect x="8795" y="2002" height="870" width="18" />
									</g>
									<g class="accid" id="accid-0000000979929325" />
								</g>
								<g class="note" id="note-L27F1">
									<use xlink:href="#E0A4" x="9353" y="2070" height="720px" width="720px" />
									<g class="stem">
										<rect x="9353" y="2092" height="724" width="18" />
									</g>
									<g class="accid" id="accid-0000002033937380">
										<use xlink:href="#E260" x="9157" y="2070" height="720px" width="720px" />
									</g>
								</g>
							</g>
						</g>
					</g>
					<g class="mNum autogenerated" id="mnum-0000001023903396" />
					<g class="barLineAttr" id="bline-0000000978978242">
						<path d="M9713 2880 L9713 720" stroke="#000000" stroke-width="27" />
					</g>
				</g>
				<g class="measure" id="measure-L28">
					<g class="staff" id="staff-L28F2N1">
						<path d="M9726 720 L12918 720" stroke="#000000" stroke-width="13" />
						<path d="M9726 900 L12918 900" stroke="#000000" stroke-width="13" />
						<path d="M9726 1080 L12918 1080" stroke="#000000" stroke-width="13" />
						<path d="M9726 1260 L12918 1260" stroke="#000000" stroke-width="13" />
						<path d="M9726 1440 L12918 1440" stroke="#000000" stroke-width="13" />
						<g class="layer" id="layer-L28F2N1">
							<g class="beam" id="beam-L29F2-L32F2">
								<polygon points="10136,1756 11384,1878 11384,1788 10136,1666 " />
								<polygon points="10136,1621 10294,1636 10294,1546 10136,1531 " />
								<polygon points="11226,1728 11384,1743 11384,1653 11226,1638 " />
								<g class="note" id="note-L29F2">
									<use xlink:href="#E0A4" x="10136" y="1080" height="720px" width="720px" />
									<g class="stem">
										<rect x="10136" y="1102" height="636" width="18" />
									</g>
									<g class="accid" id="accid-0000001948401931">
										<use xlink:href="#E260" x="9940" y="1080" height="720px" width="720px" />
									</g>
								</g>
								<g class="note" id="note-L30F2">
									<use xlink:href="#E0A4" x="10481" y="990" height="720px" width="720px" />
									<g class="stem">
										<rect x="10481" y="1012" height="761" width="18" />
									</g>
									<g class="accid" id="accid-0000000896819259" />
								</g>
								<g class="note" id="note-L32F2">
									<use xlink:href="#E0A4" x="11366" y="1170" height="720px" width="720px" />
									<g class="stem">
										<rect x="11366" y="1192" height="668" width="18" />
									</g>
									<g class="accid" id="accid-0000001488320704">
										<use xlink:href="#E260" x="11170" y="1170" height="720px" width="720px" />
									</g>
								</g>
							</g>
							<g class="beam" id="beam-L33F2-L35F2">
								<polygon points="11919,316 12772,400 12772,490 11919,406 " />
								<polygon points="11919,451 12077,466 12077,556 11919,541 " />
								<polygon points="12614,520 12772,535 12772,625 12614,610 " />
								<g class="note" id="note-L33F2">
									<use xlink:href="#E0A4" x="11711" y="990" height="720px" width="720px" />
									<g class="stem">
										<rect x="11919" y="334" height="634" width="18" />
									</g>
									<g class="accid" id="accid-0000000162046277" />
								</g>
								<g class="note" id="note-L34F2">
									<use xlink:href="#E0A4" x="12055" y="1260" height="720px" width="720px" />
									<g class="stem">
										<rect x="12263" y="369" height="869" width="18" />
									</g>
									<g class="accid" id="accid-0000001832694397" />
								</g>
								<g class="note" id="note-L35F2">
									<use xlink:href="#E0A4" x="12546" y="1170" height="720px" width="720px" />
									<g class="stem">
										<rect x="12754" y="418" height="730" width="18" />
									</g>
									<g class="accid" id="accid-0000000695256004" />
								</g>
							</g>
						</g>
					</g>
					<g class="staff" id="staff-L28F1N1">
						<path d="M9726 2160 L12918 2160" stroke="#000000" stroke-width="13" />
						<path d="M9726 2340 L12918 2340" stroke="#000000" stroke-width="13" />
						<path d="M9726 2520 L12918 2520" stroke="#000000" stroke-width="13" />
						<path d="M9726 2700 L12918 2700" stroke="#000000" stroke-width="13" />
						<path d="M9726 2880 L12918 2880" stroke="#000000" stroke-width="13" />
						<g class="layer" id="layer-L28F1N1">
							<g class="beam" id="beam-L29F1-L32F1">
								<polygon points="10136,2982 11384,3105 11384,3015 10136,2892 " />
								<polygon points="10817,2915 11384,2970 11384,2880 10817,2825 " />
								<g class="note" id="note-L29F1">
									<use xlink:href="#E0A4" x="10136" y="2250" height="720px" width="720px" />
									<g class="stem">
										<rect x="10136" y="2272" height="692" width="18" />
									</g>
									<g class="accid" id="accid-0000001171031580" />
								</g>
								<g class="note" id="note-L31F1">
									<use xlink:href="#E0A4" x="10808" y="2340" height="720px" width="720px" />
									<g class="stem">
										<rect x="10808" y="2362" height="670" width="18" />
									</g>
									<g class="accid" id="accid-0000001887632179" />
								</g>
								<g class="note" id="note-L32F1">
									<use xlink:href="#E0A4" x="11366" y="2430" height="720px" width="720px" />
									<g class="stem">
										<rect x="11366" y="2452" height="635" width="18" />
									</g>
									<g class="accid" id="accid-0000001403434804">
										<use xlink:href="#E260" x="11170" y="2430" height="720px" width="720px" />
									</g>
								</g>
							</g>
							<g class="beam" id="beam-L33F1-L35F1">
								<polygon points="11711,3164 12564,3238 12564,3148 11711,3074 " />
								<polygon points="11711,3029 11869,3042 11869,2952 11711,2939 " />
								<polygon points="12406,3090 12564,3103 12564,3013 12406,3000 " />
								<g class="note" id="note-L33F1">
									<use xlink:href="#E0A4" x="11711" y="2340" height="720px" width="720px" />
									<g class="stem">
										<rect x="11711" y="2362" height="784" width="18" />
									</g>
									<g class="accid" id="accid-0000000550063563" />
								</g>
								<g class="note" id="note-L34F1">
									<use xlink:href="#E0A4" x="12055" y="2520" height="720px" width="720px" />
									<g class="stem">
										<rect x="12055" y="2542" height="635" width="18" />
									</g>
									<g class="accid" id="accid-0000000891569019" />
								</g>
								<g class="note" id="note-L35F1">
									<use xlink:href="#E0A4" x="12546" y="2430" height="720px" width="720px" />
									<g class="stem">
										<rect x="12546" y="2452" height="768" width="18" />
									</g>
									<g class="accid" id="accid-0000001581047379" />
								</g>
							</g>
						</g>
					</g>
					<g class="mNum autogenerated" id="mnum-0000002109079015" />
					<g class="barLineAttr" id="bline-0000001998739643">
						<path d="M12905 2880 L12905 720" stroke="#000000" stroke-width="27" />
					</g>
				</g>
				<g class="measure" id="measure-L36">
					<g class="staff" id="staff-L36F2N1">
						<path d="M12918 720 L16387 720" stroke="#000000" stroke-width="13" />
						<path d="M12918 900 L16387 900" stroke="#000000" stroke-width="13" />
						<path d="M12918 1080 L16387 1080" stroke="#000000" stroke-width="13" />
						<path d="M12918 1260 L16387 1260" stroke="#000000" stroke-width="13" />
						<path d="M12918 1440 L16387 1440" stroke="#000000" stroke-width="13" />
						<g class="ledgerLines below">
							<path d="M15082 1620 L15361 1620" stroke="#000000" stroke-width="22" />
						</g>
						<g class="layer" id="layer-L36F2N1">
							<g class="beam" id="beam-L37F2-L40F2">
								<polygon points="13535,578 14782,595 14782,685 13535,668 " />
								<polygon points="13535,713 13693,716 13693,806 13535,803 " />
								<polygon points="14624,728 14782,730 14782,820 14624,818 " />
								<g class="note" id="note-L37F2">
									<use xlink:href="#E0A4" x="13327" y="1530" height="720px" width="720px" />
									<g class="stem">
										<rect x="13535" y="596" height="912" width="18" />
									</g>
									<g class="accid" id="accid-0000001580421750">
										<use xlink:href="#E262" x="13132" y="1530" height="720px" width="720px" />
									</g>
								</g>
								<g class="note" id="note-L38F2">
									<use xlink:href="#E0A4" x="13884" y="1260" height="720px" width="720px" />
									<g class="stem">
										<rect x="14092" y="604" height="634" width="18" />
									</g>
									<g class="accid" id="accid-0000000705130643">
										<use xlink:href="#E262" x="13689" y="1260" height="720px" width="720px" />
									</g>
								</g>
								<g class="note" id="note-L40F2">
									<use xlink:href="#E0A4" x="14556" y="1530" height="720px" width="720px" />
									<g class="stem">
										<rect x="14764" y="613" height="895" width="18" />
									</g>
									<g class="accid" id="accid-0000000283872832" />
								</g>
							</g>
							<g class="beam" id="beam-L41F2-L43F2">
								<polygon points="15321,621 16240,531 16240,621 15321,711 " />
								<polygon points="15321,756 15479,741 15479,831 15321,846 " />
								<polygon points="16082,681 16240,666 16240,756 16082,771 " />
								<g class="note" id="note-L41F2">
									<use xlink:href="#E0A4" x="15113" y="1620" height="720px" width="720px" />
									<g class="stem">
										<rect x="15321" y="639" height="959" width="18" />
									</g>
									<g class="accid" id="accid-0000001472693902">
										<use xlink:href="#E262" x="14918" y="1620" height="720px" width="720px" />
									</g>
								</g>
								<g class="note" id="note-L42F2">
									<use xlink:href="#E0A4" x="15457" y="1260" height="720px" width="720px" />
									<g class="stem">
										<rect x="15665" y="604" height="634" width="18" />
									</g>
									<g class="accid" id="accid-0000001032958592" />
								</g>
								<g class="note" id="note-L43F2">
									<use xlink:href="#E0A4" x="16014" y="1350" height="720px" width="720px" />
									<g class="stem">
										<rect x="16222" y="549" height="779" width="18" />
									</g>
									<g class="accid" id="accid-0000000934497472">
										<use xlink:href="#E262" x="15819" y="1350" height="720px" width="720px" />
									</g>
								</g>
							</g>
						</g>
					</g>
					<g class="staff" id="staff-L36F1N1">
						<path d="M12918 2160 L16387 2160" stroke="#000000" stroke-width="13" />
						<path d="M12918 2340 L16387 2340" stroke="#000000" stroke-width="13" />
						<path d="M12918 2520 L16387 2520" stroke="#000000" stroke-width="13" />
						<path d="M12918 2700 L16387 2700" stroke="#000000" stroke-width="13" />
						<path d="M12918 2880 L16387 2880" stroke="#000000" stroke-width="13" />
						<g class="layer" id="layer-L36F1N1">
							<g class="beam" id="beam-L37F1-L40F1">
								<polygon points="13535,1954 14782,1929 14782,2019 13535,2044 " />
								<polygon points="14428,2071 14782,2064 14782,2154 14428,2161 " />
								<g class="note" id="note-L37F1">
									<use xlink:href="#E0A4" x="13327" y="2700" height="720px" width="720px" />
									<g class="stem">
										<rect x="13535" y="1972" height="706" width="18" />
									</g>
									<g class="accid" id="accid-0000001129782468" />
								</g>
								<g class="note" id="note-L39F1">
									<use xlink:href="#E0A4" x="14211" y="2610" height="720px" width="720px" />
									<g class="stem">
										<rect x="14419" y="1954" height="634" width="18" />
									</g>
									<g class="accid" id="accid-0000001983517890">
										<use xlink:href="#E262" x="14016" y="2610" height="720px" width="720px" />
									</g>
								</g>
								<g class="note" id="note-L40F1">
									<use xlink:href="#E0A4" x="14556" y="2700" height="720px" width="720px" />
									<g class="stem">
										<rect x="14764" y="1947" height="731" width="18" />
									</g>
									<g class="accid" id="accid-0000002132451525" />
								</g>
							</g>
							<g class="beam" id="beam-L41F1-L43F1">
								<polygon points="15113,3015 16032,2924 16032,2834 15113,2925 " />
								<polygon points="15113,2880 15271,2865 15271,2775 15113,2790 " />
								<polygon points="15874,2804 16032,2789 16032,2699 15874,2714 " />
								<g class="note" id="note-L41F1">
									<use xlink:href="#E0A4" x="15113" y="2340" height="720px" width="720px" />
									<g class="stem">
										<rect x="15113" y="2362" height="635" width="18" />
									</g>
									<g class="accid" id="accid-0000001316224838">
										<use xlink:href="#E262" x="14918" y="2340" height="720px" width="720px" />
									</g>
								</g>
								<g class="note" id="note-L42F1">
									<use xlink:href="#E0A4" x="15457" y="2070" height="720px" width="720px" />
									<g class="stem">
										<rect x="15457" y="2092" height="870" width="18" />
									</g>
									<g class="accid" id="accid-0000001910438621" />
								</g>
								<g class="note" id="note-L43F1">
									<use xlink:href="#E0A4" x="16014" y="2160" height="720px" width="720px" />
									<g class="stem">
										<rect x="16014" y="2182" height="724" width="18" />
									</g>
									<g class="accid" id="accid-0000001266200739">
										<use xlink:href="#E262" x="15819" y="2160" height="720px" width="720px" />
									</g>
								</g>
							</g>
						</g>
					</g>
					<g class="mNum autogenerated" id="mnum-0000001400734299" />
					<g class="barLineAttr" id="bline-0000000025975923">
						<path d="M16374 2880 L16374 720" stroke="#000000" stroke-width="27" />
					</g>
				</g>
				<g class="measure" id="measure-L44">
					<g class="staff" id="staff-L44F2N1">
						<path d="M16387 720 L20002 720" stroke="#000000" stroke-width="13" />
						<path d="M16387 900 L20002 900" stroke="#000000" stroke-width="13" />
						<path d="M16387 1080 L20002 1080" stroke="#000000" stroke-width="13" />
						<path d="M16387 1260 L20002 1260" stroke="#000000" stroke-width="13" />
						<path d="M16387 1440 L20002 1440" stroke="#000000" stroke-width="13" />
						<g class="layer" id="layer-L44F2N1">
							<g class="beam" id="beam-L45F2-L48F2">
								<polygon points="16796,1756 18255,1865 18255,1775 16796,1666 " />
								<polygon points="16796,1621 16954,1632 16954,1542 16796,1531 " />
								<polygon points="18097,1719 18255,1730 18255,1640 18097,1629 " />
								<g class="note" id="note-L45F2">
									<use xlink:href="#E0A4" x="16796" y="1080" height="720px" width="720px" />
									<g class="stem">
										<rect x="16796" y="1102" height="636" width="18" />
									</g>
									<g class="accid" id="accid-0000001929860581" />
								</g>
								<g class="note" id="note-L46F2">
									<use xlink:href="#E0A4" x="17353" y="990" height="720px" width="720px" />
									<g class="stem">
										<rect x="17353" y="1012" height="768" width="18" />
									</g>
									<g class="accid" id="accid-0000000535637645">
										<use xlink:href="#E262" x="17158" y="990" height="720px" width="720px" />
									</g>
								</g>
								<g class="note" id="note-L48F2">
									<use xlink:href="#E0A4" x="18237" y="1170" height="720px" width="720px" />
									<g class="stem">
										<rect x="18237" y="1192" height="655" width="18" />
									</g>
									<g class="accid" id="accid-0000000149281228">
										<use xlink:href="#E262" x="18042" y="1170" height="720px" width="720px" />
									</g>
								</g>
							</g>
							<g class="beam" id="beam-L49F2-L51F2">
								<polygon points="18790,316 19856,421 19856,511 18790,406 " />
								<polygon points="18790,451 18948,466 18948,556 18790,541 " />
								<polygon points="19698,541 19856,556 19856,646 19698,631 " />
								<g class="note" id="note-L49F2">
									<use xlink:href="#E0A4" x="18582" y="990" height="720px" width="720px" />
									<g class="stem">
										<rect x="18790" y="334" height="634" width="18" />
									</g>
									<g class="accid" id="accid-0000000817354214" />
								</g>
								<g class="note" id="note-L50F2">
									<use xlink:href="#E0A4" x="19139" y="1350" height="720px" width="720px" />
									<g class="stem">
										<rect x="19347" y="390" height="938" width="18" />
									</g>
									<g class="accid" id="accid-0000000942865931">
										<use xlink:href="#E262" x="18944" y="1350" height="720px" width="720px" />
									</g>
								</g>
								<g class="note" id="note-L51F2">
									<use xlink:href="#E0A4" x="19630" y="1170" height="720px" width="720px" />
									<g class="stem">
										<rect x="19838" y="439" height="709" width="18" />
									</g>
									<g class="accid" id="accid-0000000170267966" />
								</g>
							</g>
						</g>
					</g>
					<g class="staff" id="staff-L44F1N1">
						<path d="M16387 2160 L20002 2160" stroke="#000000" stroke-width="13" />
						<path d="M16387 2340 L20002 2340" stroke="#000000" stroke-width="13" />
						<path d="M16387 2520 L20002 2520" stroke="#000000" stroke-width="13" />
						<path d="M16387 2700 L20002 2700" stroke="#000000" stroke-width="13" />
						<path d="M16387 2880 L20002 2880" stroke="#000000" stroke-width="13" />
						<g class="layer" id="layer-L44F1N1">
							<g class="beam" id="beam-L45F1-L48F1">
								<polygon points="16796,3050 18255,3195 18255,3105 16796,2960 " />
								<polygon points="17689,3004 18255,3060 18255,2970 17689,2914 " />
								<g class="note" id="note-L45F1">
									<use xlink:href="#E0A4" x="16796" y="2340" height="720px" width="720px" />
									<g class="stem">
										<rect x="16796" y="2362" height="670" width="18" />
									</g>
									<g class="accid" id="accid-0000001858881509">
										<use xlink:href="#E262" x="16601" y="2340" height="720px" width="720px" />
									</g>
								</g>
								<g class="note" id="note-L47F1">
									<use xlink:href="#E0A4" x="17680" y="2430" height="720px" width="720px" />
									<g class="stem">
										<rect x="17680" y="2452" height="669" width="18" />
									</g>
									<g class="accid" id="accid-0000000245008927">
										<use xlink:href="#E262" x="17485" y="2430" height="720px" width="720px" />
									</g>
								</g>
								<g class="note" id="note-L48F1">
									<use xlink:href="#E0A4" x="18237" y="2520" height="720px" width="720px" />
									<g class="stem">
										<rect x="18237" y="2542" height="635" width="18" />
									</g>
									<g class="accid" id="accid-0000000714919819">
										<use xlink:href="#E262" x="18042" y="2520" height="720px" width="720px" />
									</g>
								</g>
							</g>
							<g class="beam" id="beam-L49F1-L51F1">
								<polygon points="18582,3234 19648,3330 19648,3240 18582,3144 " />
								<polygon points="18582,3099 18740,3113 18740,3023 18582,3009 " />
								<polygon points="19490,3181 19648,3195 19648,3105 19490,3091 " />
								<g class="note" id="note-L49F1">
									<use xlink:href="#E0A4" x="18582" y="2430" height="720px" width="720px" />
									<g class="stem">
										<rect x="18582" y="2452" height="764" width="18" />
									</g>
									<g class="accid" id="accid-0000000384635447" />
								</g>
								<g class="note" id="note-L50F1">
									<use xlink:href="#E0A4" x="19139" y="2610" height="720px" width="720px" />
									<g class="stem">
										<rect x="19139" y="2632" height="635" width="18" />
									</g>
									<g class="accid" id="accid-0000002018286838">
										<use xlink:href="#E262" x="18944" y="2610" height="720px" width="720px" />
									</g>
								</g>
								<g class="note" id="note-L51F1">
									<use xlink:href="#E0A4" x="19630" y="2520" height="720px" width="720px" />
									<g class="stem">
										<rect x="19630" y="2542" height="770" width="18" />
									</g>
									<g class="accid" id="accid-0000001093036720" />
								</g>
							</g>
						</g>
					</g>
					<g class="mNum autogenerated" id="mnum-0000001002291774" />
					<g class="barLineAttr" id="bline-0000000151101780">
						<path d="M19989 2880 L19989 720" stroke="#000000" stroke-width="27" />
					</g>
				</g>
			</g>
		</g>
	</svg>
</svg>
