<?xml version="1.0" encoding="UTF-8" standalone="no"?>
<svg width="2100.00px" height="450.00px" version="1.1" xmlns="http://www.w3.org/2000/svg" xmlns:xlink="http://www.w3.org/1999/xlink" overflow="visible">
	<desc>Engraved by Verovio 2.0.0-dev-0f0381c</desc>
	<defs>
		<symbol id="E050" viewBox="0 0 1000 1000" overflow="inherit">
			<path transform="scale(1,-1)" d="M441 -245c-23 -4 -48 -6 -76 -6c-59 0 -102 7 -130 20c-88 42 -150 93 -187 154c-26 44 -43 103 -48 176c-4 60 11 123 44 189c29 57 65 106 110 148s96 85 153 127c-3 16 -8 46 -13 92c-4 43 -5 73 -5 89c0 117 16 172 69 257c34 54 64 82 89 82c21 0 43 -30 69 -92 s39 -115 41 -159c2 -120 -19 -173 -67 -256c-13 -20 -63 -90 -98 -118c-13 -9 -25 -19 -37 -29l31 -181c8 1 18 2 28 2c58 0 102 -12 133 -35c59 -43 92 -104 98 -184c11 -135 -80 -229 -180 -270c8 -57 17 -110 25 -162c5 -31 6 -58 6 -80c0 -30 -5 -53 -14 -70 c-35 -64 -88 -99 -158 -103c-42 -3 -83 6 -124 26c-50 24 -77 59 -80 105c-2 34 5 63 20 87c18 28 45 42 79 44c51 4 99 -40 103 -87c4 -56 -30 -94 -105 -115c17 -24 51 -36 102 -36c62 0 116 43 140 85c9 16 13 41 13 74c0 20 -1 42 -5 67c-8 53 -18 106 -26 159zM461 939 c-95 0 -135 -175 -135 -286c0 -24 2 -48 5 -71c50 39 92 82 127 128c43 57 63 106 60 148c-4 54 -23 82 -57 81zM406 119l54 -326c80 27 116 88 109 184c-7 99 -62 146 -163 142zM382 117c-74 -2 -132 -50 -128 -127c2 -46 43 -99 75 -115c-3 -2 -7 -5 -10 -10 c-70 33 -116 88 -123 172c-5 73 42 135 88 170c23 17 49 29 78 36l-29 170c-21 -13 -52 -37 -92 -73c-50 -44 -86 -84 -109 -119c-49 -75 -71 -140 -67 -195c5 -68 35 -127 93 -176s125 -73 203 -73c25 0 50 3 75 9c-19 111 -36 221 -54 331z" />
		</symbol>
		<symbol id="E082" viewBox="0 0 1000 1000" overflow="inherit">
			<path transform="scale(1,-1)" d="M104 -185c-18 0 -55 -14 -65 -65h-36l-3 29c0 25 6 46 18 64c11 19 22 30 39 43l121 82l37 29c15 11 27 29 38 54c12 24 18 47 18 70c0 40 -19 88 -94 88c-25 0 -32 0 -50 -8c-14 -5 -23 -12 -26 -22c3 -9 7 -15 10 -18l24 -17c12 -7 17 -11 27 -21c5 -7 7 -16 7 -27 c0 -12 0 -57 -79 -74c-30 0 -76 26 -76 94c0 66 80 135 196 135c72 0 182 -32 182 -150c0 -53 -32 -95 -113 -133l-91 -41c-26 -11 -45 -23 -57 -37l49 7c84 0 115 -41 148 -41c20 0 33 20 39 61h35c0 -152 -68 -168 -114 -168c-17 0 -55 0 -69 7v0l-28 17 c-49 37 -69 40 -87 42z" />
		</symbol>
		<symbol id="E084" viewBox="0 0 1000 1000" overflow="inherit">
			<path transform="scale(1,-1)" d="M0 -78c84 97 114 180 134 329h170c-13 -32 -82 -132 -99 -151l-84 -97c-33 -36 -59 -63 -80 -81h162v102l127 123v-225h57v-39h-57v-34c0 -43 19 -65 57 -65v-34h-244v36c48 0 60 26 60 70v27h-203v39z" />
		</symbol>
		<symbol id="E0A4" viewBox="0 0 1000 1000" overflow="inherit">
			<path transform="scale(1,-1)" d="M0 -39c0 68 73 172 200 172c66 0 114 -37 114 -95c0 -84 -106 -171 -218 -171c-64 0 -96 30 -96 94z" />
		</symbol>
		<symbol id="E062" viewBox="0 0 1000 1000" overflow="inherit">
			<path transform="scale(1,-1)" d="M158 96c51 0 73 -14 88 -49l16 -39c0 -17 -2 -30 -7 -40c-3 -11 -10 -21 -19 -31c-17 -18 -49 -43 -84 -43c-55 0 -77 13 -112 44c-24 21 -35 55 -35 100c0 46 14 81 32 112c30 52 71 79 137 93l36 6l26 2c154 0 235 -68 274 -182c11 -32 18 -68 18 -107 c0 -103 -26 -182 -68 -250c-89 -145 -234 -230 -412 -288l-30 -5c-9 0 -14 3 -14 8c3 10 5 11 10 16c35 15 70 30 96 44l78 43c96 57 162 136 197 258c9 33 17 60 22 100c3 22 5 35 6 39c-7 69 -16 115 -23 140s-4 22 -16 40c-8 12 -19 23 -31 34c-24 21 -62 44 -118 44 c-48 0 -84 -8 -113 -28c-28 -19 -42 -44 -42 -73v-16c2 -5 3 -9 4 -11c24 22 52 39 84 39zM585 -118c0 32 23 58 57 58c18 0 33 -6 40 -18c9 -15 16 -18 16 -40c0 -9 -2 -16 -5 -21c-6 -19 -27 -37 -51 -37c-34 0 -57 26 -57 58zM642 177c31 0 56 -27 56 -58 c0 -30 -25 -58 -56 -58l-23 3c-19 7 -34 32 -34 55l3 23c9 20 28 35 54 35z" />
		</symbol>
		<symbol id="E260" viewBox="0 0 1000 1000" overflow="inherit">
			<path transform="scale(1,-1)" d="M20 110c32 16 54 27 93 27c26 0 35 -3 54 -13c13 -7 24 -20 27 -38l4 -25c0 -28 -16 -57 -45 -89c-23 -25 -39 -44 -65 -68l-88 -79v644h20v-359zM90 106c-32 0 -48 -10 -70 -29v-194c31 31 54 59 71 84c21 32 32 59 32 84c0 9 1 16 1 20c0 14 -3 21 -11 30l-8 3z" />
		</symbol>
		<symbol id="E262" viewBox="0 0 1000 1000" overflow="inherit">
			<path transform="scale(1,-1)" d="M136 186v169h17v-164l44 14v-91l-44 -14v-165l44 12v-91l-44 -13v-155h-17v150l-76 -22v-155h-17v149l-43 -13v90l43 14v167l-43 -14v92l43 13v169h17v-163zM60 73v-167l76 22v168z" />
		</symbol>
	</defs>
	<style type="text/css">g.page-margin{font-family:Times;} g.tempo{font-weight:bold;} g.dir, g.dynam, g.mNum{font-style:italic;} g.label{font-weight:normal;}</style>
	<svg class="definition-scale" viewBox="0 0 21000 4500">
		<g class="page-margin" transform="translate(500, 500)">
			<g class="system" id="system-0000000659027183">
				<path d="M13 720 L13 2880" stroke="#000000" stroke-width="27" />
				<path d="M-32,2862 C-392,2322 58,1980 -212,1800 C121,1980 -329,2322 -32,2862" stroke="#000000" stroke-linecap="round" stroke-linejoin="round" stroke-width="18" />
				<path d="M-32,738 C-329,1278 121,1620 -212,1800 C58,1620 -392,1278 -32,738" stroke="#000000" stroke-linecap="round" stroke-linejoin="round" stroke-width="18" />
				<g class="section boundaryStart" id="section-L1F1" />
				<g class="measure" id="measure-L4">
					<g class="staff" id="staff-L4F2N1">
						<path d="M0 720 L4531 720" stroke="#000000" stroke-width="13" />
						<path d="M0 900 L4531 900" stroke="#000000" stroke-width="13" />
						<path d="M0 1080 L4531 1080" stroke="#000000" stroke-width="13" />
						<path d="M0 1260 L4531 1260" stroke="#000000" stroke-width="13" />
						<path d="M0 1440 L4531 1440" stroke="#000000" stroke-width="13" />
						<g class="clef" id="clef-0000000409799824">
							<use xlink:href="#E050" x="90" y="1260" height="720px" width="720px" />
						</g>
						<g class="meterSig" id="msig-0000000525586039">
							<use xlink:href="#E082" x="771" y="900" height="720px" width="720px" />
							<use xlink:href="#E084" x="777" y="1260" height="720px" width="720px" />
						</g>
						<g class="layer" id="layer-L4F2N1">
							<g class="beam" id="beam-L5F2-L8F2">
								<polygon points="1583,496 2760,612 2760,702 1583,586 " />
								<polygon points="1583,631 1741,646 1741,736 1583,721 " />
								<polygon points="2602,732 2760,747 2760,837 2602,822 " />
								<g class="note" id="note-L5F2">
									<use xlink:href="#E0A4" x="1375" y="1170" height="720px" width="720px" />
									<g class="stem">
										<rect x="1583" y="514" height="634" width="18" />
									</g>
									<g class="accid" id="accid-0000001268849040" />
								</g>
								<g class="note" id="note-L6F2">
									<use xlink:href="#E0A4" x="1768" y="1260" height="720px" width="720px" />
									<g class="stem">
										<rect x="1976" y="554" height="684" width="18" />
									</g>
									<g class="accid" id="accid-0000000449210348" />
								</g>
								<g class="note" id="note-L8F2">
									<use xlink:href="#E0A4" x="2534" y="1530" height="720px" width="720px" />
									<g class="stem">
										<rect x="2742" y="630" height="878" width="18" />
									</g>
									<g class="accid" id="accid-0000001260448307" />
								</g>
							</g>
							<g class="beam" id="beam-L9F2-L12F2">
								<polygon points="3136,523 4334,442 4334,532 3136,613 " />
								<polygon points="3136,658 4334,577 4334,667 3136,748 " />
								<g class="note" id="note-L9F2">
									<use xlink:href="#E0A4" x="2928" y="1440" height="720px" width="720px" />
									<g class="stem">
										<rect x="3136" y="541" height="877" width="18" />
									</g>
									<g class="accid" id="accid-0000000259671908" />
								</g>
								<g class="note" id="note-L10F2">
									<use xlink:href="#E0A4" x="3321" y="1170" height="720px" width="720px" />
									<g class="stem">
										<rect x="3529" y="514" height="634" width="18" />
									</g>
									<g class="accid" id="accid-0000000904596896" />
								</g>
								<g class="note" id="note-L11F2">
									<use xlink:href="#E0A4" x="3714" y="1440" height="720px" width="720px" />
									<g class="stem">
										<rect x="3922" y="487" height="931" width="18" />
									</g>
									<g class="accid" id="accid-0000001849013026" />
								</g>
								<g class="note" id="note-L12F2">
									<use xlink:href="#E0A4" x="4108" y="1260" height="720px" width="720px" />
									<g class="stem">
										<rect x="4316" y="460" height="778" width="18" />
									</g>
									<g class="accid" id="accid-0000001477345773" />
								</g>
							</g>
						</g>
					</g>
					<g class="staff" id="staff-L4F1N1">
						<path d="M0 2160 L4531 2160" stroke="#000000" stroke-width="13" />
						<path d="M0 2340 L4531 2340" stroke="#000000" stroke-width="13" />
						<path d="M0 2520 L4531 2520" stroke="#000000" stroke-width="13" />
						<path d="M0 2700 L4531 2700" stroke="#000000" stroke-width="13" />
						<path d="M0 2880 L4531 2880" stroke="#000000" stroke-width="13" />
						<g class="clef" id="clef-0000000924317362">
							<use xlink:href="#E062" x="90" y="2340" height="720px" width="720px" />
						</g>
						<g class="meterSig" id="msig-0000000105200736">
							<use xlink:href="#E082" x="771" y="2340" height="720px" width="720px" />
							<use xlink:href="#E084" x="777" y="2700" height="720px" width="720px" />
						</g>
						<g class="layer" id="layer-L4F1N1">
							<g class="beam" id="beam-L5F1-L8F1">
								<polygon points="1375,3285 2552,3169 2552,3079 1375,3195 " />
								<polygon points="2150,3073 2552,3034 2552,2944 2150,2983 " />
								<g class="note" id="note-L5F1">
									<use xlink:href="#E0A4" x="1375" y="2610" height="720px" width="720px" />
									<g class="stem">
										<rect x="1375" y="2632" height="635" width="18" />
									</g>
									<g class="accid" id="accid-0000000394612268" />
								</g>
								<g class="note" id="note-L7F1">
									<use xlink:href="#E0A4" x="2141" y="2430" height="720px" width="720px" />
									<g class="stem">
										<rect x="2141" y="2452" height="738" width="18" />
									</g>
									<g class="accid" id="accid-0000001947506404" />
								</g>
								<g class="note" id="note-L8F1">
									<use xlink:href="#E0A4" x="2534" y="2160" height="720px" width="720px" />
									<g class="stem">
										<rect x="2534" y="2182" height="969" width="18" />
									</g>
									<g class="accid" id="accid-0000001668190048" />
								</g>
							</g>
							<g class="beam" id="beam-L9F1-L11F1">
								<polygon points="2928,3206 3732,3285 3732,3195 2928,3116 " />
								<polygon points="2928,3071 3330,3111 3330,3021 2928,2981 " />
								<g class="note" id="note-L9F1">
									<use xlink:href="#E0A4" x="2928" y="2160" height="720px" width="720px" />
									<g class="stem">
										<rect x="2928" y="2182" height="1006" width="18" />
									</g>
									<g class="accid" id="accid-0000001506648638" />
								</g>
								<g class="note" id="note-L10F1">
									<use xlink:href="#E0A4" x="3321" y="2430" height="720px" width="720px" />
									<g class="stem">
										<rect x="3321" y="2452" height="776" width="18" />
									</g>
									<g class="accid" id="accid-0000000754698699" />
								</g>
								<g class="note" id="note-L11F1">
									<use xlink:href="#E0A4" x="3714" y="2610" height="720px" width="720px" />
									<g class="stem">
										<rect x="3714" y="2632" height="635" width="18" />
									</g>
									<g class="accid" id="accid-0000001247656192" />
								</g>
							</g>
						</g>
					</g>
					<g class="tie" id="tie-L8F1-L9F1">
						<path d="M2647,2025 C2745,1883 2941,1883 3041,2025 C2941,1927 2745,1927 2647,2025" stroke="#000000" stroke-linecap="round" stroke-linejoin="round" stroke-width="9" />
					</g>
					<g class="tie" id="tie-L12F2-L14F2">
						<path d="M4356,1305 C4450,1403 4638,1403 4734,1305 C4638,1447 4450,1447 4356,1305" stroke="#000000" stroke-linecap="round" stroke-linejoin="round" stroke-width="9" />
					</g>
					<g class="mNum autogenerated" id="mnum-0000001623539244" />
					<g class="barLineAttr" id="bline-0000000705384949">
						<path d="M4518 2880 L4518 720" stroke="#000000" stroke-width="27" />
					</g>
				</g>
				<g class="measure" id="measure-L13">
					<g class="staff" id="staff-L13F2N1">
						<path d="M4531 720 L7912 720" stroke="#000000" stroke-width="13" />
						<path d="M4531 900 L7912 900" stroke="#000000" stroke-width="13" />
						<path d="M4531 1080 L7912 1080" stroke="#000000" stroke-width="13" />
						<path d="M4531 1260 L7912 1260" stroke="#000000" stroke-width="13" />
						<path d="M4531 1440 L7912 1440" stroke="#000000" stroke-width="13" />
						<g class="ledgerLines below">
							<path d="M5511 1620 L5790 1620" stroke="#000000" stroke-width="22" />
							<path d="M6298 1620 L6577 1620" stroke="#000000" stroke-width="22" />
						</g>
						<g class="layer" id="layer-L13F2N1">
							<g class="beam" id="beam-L14F2-L17F2">
								<polygon points="4964,586 6161,704 6161,794 4964,676 " />
								<polygon points="4964,721 6161,839 6161,929 4964,811 " />
								<g class="note" id="note-L14F2">
									<use xlink:href="#E0A4" x="4756" y="1260" height="720px" width="720px" />
									<g class="stem">
										<rect x="4964" y="604" height="634" width="18" />
									</g>
									<g class="accid" id="accid-0000000253859854" />
								</g>
								<g class="note" id="note-L15F2">
									<use xlink:href="#E0A4" x="5149" y="1440" height="720px" width="720px" />
									<g class="stem">
										<rect x="5357" y="644" height="774" width="18" />
									</g>
									<g class="accid" id="accid-0000001489295185" />
								</g>
								<g class="note" id="note-L16F2">
									<use xlink:href="#E0A4" x="5542" y="1620" height="720px" width="720px" />
									<g class="stem">
										<rect x="5750" y="683" height="915" width="18" />
									</g>
									<g class="accid" id="accid-0000001132083747" />
								</g>
								<g class="note" id="note-L17F2">
									<use xlink:href="#E0A4" x="5935" y="1530" height="720px" width="720px" />
									<g class="stem">
										<rect x="6143" y="722" height="786" width="18" />
									</g>
									<g class="accid" id="accid-0000000157212579" />
								</g>
							</g>
							<g class="beam" id="beam-L18F2-L21F2">
								<polygon points="6537,702 7715,586 7715,676 6537,792 " />
								<polygon points="6537,837 6695,822 6695,912 6537,927 " />
								<polygon points="7557,736 7715,721 7715,811 7557,826 " />
								<g class="note" id="note-L18F2">
									<use xlink:href="#E0A4" x="6329" y="1620" height="720px" width="720px" />
									<g class="stem">
										<rect x="6537" y="720" height="878" width="18" />
									</g>
									<g class="accid" id="accid-0000000877047600" />
								</g>
								<g class="note" id="note-L19F2">
									<use xlink:href="#E0A4" x="6722" y="1440" height="720px" width="720px" />
									<g class="stem">
										<rect x="6930" y="680" height="738" width="18" />
									</g>
									<g class="accid" id="accid-0000000859578453" />
								</g>
								<g class="note" id="note-L21F2">
									<use xlink:href="#E0A4" x="7489" y="1260" height="720px" width="720px" />
									<g class="stem">
										<rect x="7697" y="604" height="634" width="18" />
									</g>
									<g class="accid" id="accid-0000000951645741" />
								</g>
							</g>
						</g>
					</g>
					<g class="staff" id="staff-L13F1N1">
						<path d="M4531 2160 L7912 2160" stroke="#000000" stroke-width="13" />
						<path d="M4531 2340 L7912 2340" stroke="#000000" stroke-width="13" />
						<path d="M4531 2520 L7912 2520" stroke="#000000" stroke-width="13" />
						<path d="M4531 2700 L7912 2700" stroke="#000000" stroke-width="13" />
						<path d="M4531 2880 L7912 2880" stroke="#000000" stroke-width="13" />
						<g class="layer" id="layer-L13F1N1">
							<g class="beam" id="beam-L14F1-L17F1">
								<polygon points="4756,3195 5953,3077 5953,2987 4756,3105 " />
								<polygon points="4756,3060 4914,3045 4914,2955 4756,2970 " />
								<polygon points="5795,2957 5953,2942 5953,2852 5795,2867 " />
								<g class="note" id="note-L14F1">
									<use xlink:href="#E0A4" x="4756" y="2520" height="720px" width="720px" />
									<g class="stem">
										<rect x="4756" y="2542" height="635" width="18" />
									</g>
									<g class="accid" id="accid-0000000918321346" />
								</g>
								<g class="note" id="note-L15F1">
									<use xlink:href="#E0A4" x="5149" y="2250" height="720px" width="720px" />
									<g class="stem">
										<rect x="5149" y="2272" height="865" width="18" />
									</g>
									<g class="accid" id="accid-0000001411960328" />
								</g>
								<g class="note" id="note-L17F1">
									<use xlink:href="#E0A4" x="5935" y="2340" height="720px" width="720px" />
									<g class="stem">
										<rect x="5935" y="2362" height="697" width="18" />
									</g>
									<g class="accid" id="accid-0000001054456386" />
								</g>
							</g>
							<g class="beam" id="beam-L18F1-L21F1">
								<polygon points="6329,3208 7507,3324 7507,3234 6329,3118 " />
								<polygon points="7104,3150 7507,3189 7507,3099 7104,3060 " />
								<g class="note" id="note-L18F1">
									<use xlink:href="#E0A4" x="6329" y="2250" height="720px" width="720px" />
									<g class="stem">
										<rect x="6329" y="2272" height="918" width="18" />
									</g>
									<g class="accid" id="accid-0000000610186699" />
								</g>
								<g class="note" id="note-L20F1">
									<use xlink:href="#E0A4" x="7095" y="2610" height="720px" width="720px" />
									<g class="stem">
										<rect x="7095" y="2632" height="635" width="18" />
									</g>
									<g class="accid" id="accid-0000001590941675" />
								</g>
								<g class="note" id="note-L21F1">
									<use xlink:href="#E0A4" x="7489" y="2520" height="720px" width="720px" />
									<g class="stem">
										<rect x="7489" y="2542" height="764" width="18" />
									</g>
									<g class="accid" id="accid-0000002135208719" />
								</g>
							</g>
						</g>
					</g>
					<g class="mNum autogenerated" id="mnum-0000000256384389" />
					<g class="barLineAttr" id="bline-0000001342364053">
						<path d="M7899 2880 L7899 720" stroke="#000000" stroke-width="27" />
					</g>
				</g>
				<g class="measure" id="measure-L22">
					<g class="staff" id="staff-L22F2N1">
						<path d="M7912 720 L12025 720" stroke="#000000" stroke-width="13" />
						<path d="M7912 900 L12025 900" stroke="#000000" stroke-width="13" />
						<path d="M7912 1080 L12025 1080" stroke="#000000" stroke-width="13" />
						<path d="M7912 1260 L12025 1260" stroke="#000000" stroke-width="13" />
						<path d="M7912 1440 L12025 1440" stroke="#000000" stroke-width="13" />
						<g class="ledgerLines below">
							<path d="M9753 1620 L10032 1620" stroke="#000000" stroke-width="22" />
						</g>
						<g class="layer" id="layer-L22F2N1">
							<g class="beam" id="beam-L23F2-L26F2">
								<polygon points="8588,496 10010,637 10010,727 8588,586 " />
								<polygon points="8588,631 8746,646 8746,736 8588,721 " />
								<polygon points="9852,757 10010,772 10010,862 9852,847 " />
								<g class="note" id="note-L23F2">
									<use xlink:href="#E0A4" x="8380" y="1170" height="720px" width="720px" />
									<g class="stem">
										<rect x="8588" y="514" height="634" width="18" />
									</g>
									<g class="accid" id="accid-0000001787710061">
										<use xlink:href="#E260" x="8184" y="1170" height="720px" width="720px" />
									</g>
								</g>
								<g class="note" id="note-L24F2">
									<use xlink:href="#E0A4" x="8774" y="1260" height="720px" width="720px" />
									<g class="stem">
										<rect x="8982" y="554" height="684" width="18" />
									</g>
									<g class="accid" id="accid-0000000569565920" />
								</g>
								<g class="note" id="note-L26F2">
									<use xlink:href="#E0A4" x="9784" y="1620" height="720px" width="720px" />
									<g class="stem">
										<rect x="9992" y="655" height="943" width="18" />
									</g>
									<g class="accid" id="accid-0000000684032753" />
								</g>
							</g>
							<g class="beam" id="beam-L27F2-L30F2">
								<polygon points="10629,524 11827,442 11827,532 10629,614 " />
								<polygon points="10629,659 11827,577 11827,667 10629,749 " />
								<g class="note" id="note-L27F2">
									<use xlink:href="#E0A4" x="10421" y="1440" height="720px" width="720px" />
									<g class="stem">
										<rect x="10629" y="542" height="876" width="18" />
									</g>
									<g class="accid" id="accid-0000001551601133">
										<use xlink:href="#E260" x="10225" y="1440" height="720px" width="720px" />
									</g>
								</g>
								<g class="note" id="note-L28F2">
									<use xlink:href="#E0A4" x="10815" y="1170" height="720px" width="720px" />
									<g class="stem">
										<rect x="11023" y="514" height="634" width="18" />
									</g>
									<g class="accid" id="accid-0000000247499010" />
								</g>
								<g class="note" id="note-L29F2">
									<use xlink:href="#E0A4" x="11208" y="1440" height="720px" width="720px" />
									<g class="stem">
										<rect x="11416" y="487" height="931" width="18" />
									</g>
									<g class="accid" id="accid-0000000736637106" />
								</g>
								<g class="note" id="note-L30F2">
									<use xlink:href="#E0A4" x="11601" y="1260" height="720px" width="720px" />
									<g class="stem">
										<rect x="11809" y="460" height="778" width="18" />
									</g>
									<g class="accid" id="accid-0000001261481489" />
								</g>
							</g>
						</g>
					</g>
					<g class="staff" id="staff-L22F1N1">
						<path d="M7912 2160 L12025 2160" stroke="#000000" stroke-width="13" />
						<path d="M7912 2340 L12025 2340" stroke="#000000" stroke-width="13" />
						<path d="M7912 2520 L12025 2520" stroke="#000000" stroke-width="13" />
						<path d="M7912 2700 L12025 2700" stroke="#000000" stroke-width="13" />
						<path d="M7912 2880 L12025 2880" stroke="#000000" stroke-width="13" />
						<g class="layer" id="layer-L22F1N1">
							<g class="beam" id="beam-L23F1-L26F1">
								<polygon points="8380,3285 9802,3144 9802,3054 8380,3195 " />
								<polygon points="9156,3073 9802,3009 9802,2919 9156,2983 " />
								<g class="note" id="note-L23F1">
									<use xlink:href="#E0A4" x="8380" y="2610" height="720px" width="720px" />
									<g class="stem">
										<rect x="8380" y="2632" height="635" width="18" />
									</g>
									<g class="accid" id="accid-0000002021039241" />
								</g>
								<g class="note" id="note-L25F1">
									<use xlink:href="#E0A4" x="9147" y="2430" height="720px" width="720px" />
									<g class="stem">
										<rect x="9147" y="2452" height="738" width="18" />
									</g>
									<g class="accid" id="accid-0000001098831952">
										<use xlink:href="#E260" x="8951" y="2430" height="720px" width="720px" />
									</g>
								</g>
								<g class="note" id="note-L26F1">
									<use xlink:href="#E0A4" x="9784" y="2160" height="720px" width="720px" />
									<g class="stem">
										<rect x="9784" y="2182" height="944" width="18" />
									</g>
									<g class="accid" id="accid-0000001089027220">
										<use xlink:href="#E260" x="9588" y="2160" height="720px" width="720px" />
									</g>
								</g>
							</g>
							<g class="beam" id="beam-L27F1-L29F1">
								<polygon points="10421,3206 11226,3285 11226,3195 10421,3116 " />
								<polygon points="10421,3071 10824,3111 10824,3021 10421,2981 " />
								<g class="note" id="note-L27F1">
									<use xlink:href="#E0A4" x="10421" y="2160" height="720px" width="720px" />
									<g class="stem">
										<rect x="10421" y="2182" height="1006" width="18" />
									</g>
									<g class="accid" id="accid-0000000960486399" />
								</g>
								<g class="note" id="note-L28F1">
									<use xlink:href="#E0A4" x="10815" y="2430" height="720px" width="720px" />
									<g class="stem">
										<rect x="10815" y="2452" height="776" width="18" />
									</g>
									<g class="accid" id="accid-0000001000844719" />
								</g>
								<g class="note" id="note-L29F1">
									<use xlink:href="#E0A4" x="11208" y="2610" height="720px" width="720px" />
									<g class="stem">
										<rect x="11208" y="2632" height="635" width="18" />
									</g>
									<g class="accid" id="accid-0000001314321731" />
								</g>
							</g>
						</g>
					</g>
					<g class="tie" id="tie-L26F1-L27F1">
						<path d="M10032,2115 C10123,1973 10305,1973 10399,2115 C10305,2017 10123,2017 10032,2115" stroke="#000000" stroke-linecap="round" stroke-linejoin="round" stroke-width="9" />
					</g>
					<g class="tie" id="tie-L30F2-L32F2">
						<path d="M11849,1305 C11943,1403 12131,1403 12228,1305 C12131,1447 11943,1447 11849,1305" stroke="#000000" stroke-linecap="round" stroke-linejoin="round" stroke-width="9" />
					</g>
					<g class="mNum autogenerated" id="mnum-0000000952402816" />
					<g class="barLineAttr" id="bline-0000001133220261">
						<path d="M12012 2880 L12012 720" stroke="#000000" stroke-width="27" />
					</g>
				</g>
				<g class="measure" id="measure-L31">
					<g class="staff" id="staff-L31F2N1">
						<path d="M12025 720 L15650 720" stroke="#000000" stroke-width="13" />
						<path d="M12025 900 L15650 900" stroke="#000000" stroke-width="13" />
						<path d="M12025 1080 L15650 1080" stroke="#000000" stroke-width="13" />
						<path d="M12025 1260 L15650 1260" stroke="#000000" stroke-width="13" />
						<path d="M12025 1440 L15650 1440" stroke="#000000" stroke-width="13" />
						<g class="ledgerLines below">
							<path d="M13642 1620 L13921 1620" stroke="#000000" stroke-width="22" />
						</g>
						<g class="layer" id="layer-L31F2N1">
							<g class="beam" id="beam-L32F2-L35F2">
								<polygon points="12458,586 13899,729 13899,819 12458,676 " />
								<polygon points="12458,721 13899,864 13899,954 12458,811 " />
								<g class="note" id="note-L32F2">
									<use xlink:href="#E0A4" x="12250" y="1260" height="720px" width="720px" />
									<g class="stem">
										<rect x="12458" y="604" height="634" width="18" />
									</g>
									<g class="accid" id="accid-0000000032868368" />
								</g>
								<g class="note" id="note-L33F2">
									<use xlink:href="#E0A4" x="12887" y="1440" height="720px" width="720px" />
									<g class="stem">
										<rect x="13095" y="668" height="750" width="18" />
									</g>
									<g class="accid" id="accid-0000000916107128">
										<use xlink:href="#E260" x="12691" y="1440" height="720px" width="720px" />
									</g>
								</g>
								<g class="note" id="note-L34F2">
									<use xlink:href="#E0A4" x="13280" y="1530" height="720px" width="720px" />
									<g class="stem">
										<rect x="13488" y="707" height="801" width="18" />
									</g>
									<g class="accid" id="accid-0000000685709737" />
								</g>
								<g class="note" id="note-L35F2">
									<use xlink:href="#E0A4" x="13673" y="1620" height="720px" width="720px" />
									<g class="stem">
										<rect x="13881" y="747" height="851" width="18" />
									</g>
									<g class="accid" id="accid-0000000243121439" />
								</g>
							</g>
							<g class="beam" id="beam-L36F2-L39F2">
								<polygon points="14275,702 15452,586 15452,676 14275,792 " />
								<polygon points="14275,837 14433,822 14433,912 14275,927 " />
								<polygon points="15294,736 15452,721 15452,811 15294,826 " />
								<g class="note" id="note-L36F2">
									<use xlink:href="#E0A4" x="14067" y="1530" height="720px" width="720px" />
									<g class="stem">
										<rect x="14275" y="720" height="788" width="18" />
									</g>
									<g class="accid" id="accid-0000000532823156" />
								</g>
								<g class="note" id="note-L37F2">
									<use xlink:href="#E0A4" x="14460" y="1440" height="720px" width="720px" />
									<g class="stem">
										<rect x="14668" y="680" height="738" width="18" />
									</g>
									<g class="accid" id="accid-0000000884121631" />
								</g>
								<g class="note" id="note-L39F2">
									<use xlink:href="#E0A4" x="15226" y="1260" height="720px" width="720px" />
									<g class="stem">
										<rect x="15434" y="604" height="634" width="18" />
									</g>
									<g class="accid" id="accid-0000001699236378" />
								</g>
							</g>
						</g>
					</g>
					<g class="staff" id="staff-L31F1N1">
						<path d="M12025 2160 L15650 2160" stroke="#000000" stroke-width="13" />
						<path d="M12025 2340 L15650 2340" stroke="#000000" stroke-width="13" />
						<path d="M12025 2520 L15650 2520" stroke="#000000" stroke-width="13" />
						<path d="M12025 2700 L15650 2700" stroke="#000000" stroke-width="13" />
						<path d="M12025 2880 L15650 2880" stroke="#000000" stroke-width="13" />
						<g class="layer" id="layer-L31F1N1">
							<g class="beam" id="beam-L32F1-L35F1">
								<polygon points="12250,3195 13691,3052 13691,2962 12250,3105 " />
								<polygon points="12250,3060 12408,3045 12408,2955 12250,2970 " />
								<polygon points="13533,2932 13691,2917 13691,2827 13533,2842 " />
								<g class="note" id="note-L32F1">
									<use xlink:href="#E0A4" x="12250" y="2520" height="720px" width="720px" />
									<g class="stem">
										<rect x="12250" y="2542" height="635" width="18" />
									</g>
									<g class="accid" id="accid-0000001755182450" />
								</g>
								<g class="note" id="note-L33F1">
									<use xlink:href="#E0A4" x="12887" y="2250" height="720px" width="720px" />
									<g class="stem">
										<rect x="12887" y="2272" height="841" width="18" />
									</g>
									<g class="accid" id="accid-0000000559856451" />
								</g>
								<g class="note" id="note-L35F1">
									<use xlink:href="#E0A4" x="13673" y="2340" height="720px" width="720px" />
									<g class="stem">
										<rect x="13673" y="2362" height="672" width="18" />
									</g>
									<g class="accid" id="accid-0000000520169786" />
								</g>
							</g>
							<g class="beam" id="beam-L36F1-L39F1">
								<polygon points="14067,3208 15244,3324 15244,3234 14067,3118 " />
								<polygon points="14842,3150 15244,3189 15244,3099 14842,3060 " />
								<g class="note" id="note-L36F1">
									<use xlink:href="#E0A4" x="14067" y="2250" height="720px" width="720px" />
									<g class="stem">
										<rect x="14067" y="2272" height="918" width="18" />
									</g>
									<g class="accid" id="accid-0000001603421852" />
								</g>
								<g class="note" id="note-L38F1">
									<use xlink:href="#E0A4" x="14833" y="2610" height="720px" width="720px" />
									<g class="stem">
										<rect x="14833" y="2632" height="635" width="18" />
									</g>
									<g class="accid" id="accid-0000001873677887" />
								</g>
								<g class="note" id="note-L39F1">
									<use xlink:href="#E0A4" x="15226" y="2520" height="720px" width="720px" />
									<g class="stem">
										<rect x="15226" y="2542" height="764" width="18" />
									</g>
									<g class="accid" id="accid-0000002037406595" />
								</g>
							</g>
						</g>
					</g>
					<g class="mNum autogenerated" id="mnum-0000001799511711" />
					<g class="barLineAttr" id="bline-0000000705594882">
						<path d="M15637 2880 L15637 720" stroke="#000000" stroke-width="27" />
					</g>
				</g>
				<g class="measure" id="measure-L40">
					<g class="staff" id="staff-L40F2N1">
						<path d="M15650 720 L20002 720" stroke="#000000" stroke-width="13" />
						<path d="M15650 900 L20002 900" stroke="#000000" stroke-width="13" />
						<path d="M15650 1080 L20002 1080" stroke="#000000" stroke-width="13" />
						<path d="M15650 1260 L20002 1260" stroke="#000000" stroke-width="13" />
						<path d="M15650 1440 L20002 1440" stroke="#000000" stroke-width="13" />
						<g class="ledgerLines below">
							<path d="M17731 1620 L18010 1620" stroke="#000000" stroke-width="22" />
						</g>
						<g class="layer" id="layer-L40F2N1">
							<g class="beam" id="beam-L41F2-L44F2">
								<polygon points="16325,586 17988,751 17988,841 16325,676 " />
								<polygon points="16325,721 16483,736 16483,826 16325,811 " />
								<polygon points="17830,871 17988,886 17988,976 17830,961 " />
								<g class="note" id="note-L41F2">
									<use xlink:href="#E0A4" x="16117" y="1260" height="720px" width="720px" />
									<g class="stem">
										<rect x="16325" y="604" height="634" width="18" />
									</g>
									<g class="accid" id="accid-0000002129700075">
										<use xlink:href="#E262" x="15922" y="1260" height="720px" width="720px" />
									</g>
								</g>
								<g class="note" id="note-L42F2">
									<use xlink:href="#E0A4" x="16753" y="1350" height="720px" width="720px" />
									<g class="stem">
										<rect x="16961" y="668" height="660" width="18" />
									</g>
									<g class="accid" id="accid-0000000588056736">
										<use xlink:href="#E262" x="16558" y="1350" height="720px" width="720px" />
									</g>
								</g>
								<g class="note" id="note-L44F2">
									<use xlink:href="#E0A4" x="17762" y="1620" height="720px" width="720px" />
									<g class="stem">
										<rect x="17970" y="769" height="829" width="18" />
									</g>
									<g class="accid" id="accid-0000000764783010">
										<use xlink:href="#E262" x="17567" y="1620" height="720px" width="720px" />
									</g>
								</g>
							</g>
							<g class="beam" id="beam-L45F2-L48F2">
								<polygon points="18606,614 19804,532 19804,622 18606,704 " />
								<polygon points="18606,749 19804,667 19804,757 18606,839 " />
								<g class="note" id="note-L45F2">
									<use xlink:href="#E0A4" x="18398" y="1530" height="720px" width="720px" />
									<g class="stem">
										<rect x="18606" y="632" height="876" width="18" />
									</g>
									<g class="accid" id="accid-0000001461013266">
										<use xlink:href="#E262" x="18203" y="1530" height="720px" width="720px" />
									</g>
								</g>
								<g class="note" id="note-L46F2">
									<use xlink:href="#E0A4" x="18792" y="1260" height="720px" width="720px" />
									<g class="stem">
										<rect x="19000" y="604" height="634" width="18" />
									</g>
									<g class="accid" id="accid-0000000982395143" />
								</g>
								<g class="note" id="note-L47F2">
									<use xlink:href="#E0A4" x="19185" y="1530" height="720px" width="720px" />
									<g class="stem">
										<rect x="19393" y="577" height="931" width="18" />
									</g>
									<g class="accid" id="accid-0000000414055259" />
								</g>
								<g class="note" id="note-L48F2">
									<use xlink:href="#E0A4" x="19578" y="1350" height="720px" width="720px" />
									<g class="stem">
										<rect x="19786" y="550" height="778" width="18" />
									</g>
									<g class="accid" id="accid-0000002014137427" />
								</g>
							</g>
						</g>
					</g>
					<g class="staff" id="staff-L40F1N1">
						<path d="M15650 2160 L20002 2160" stroke="#000000" stroke-width="13" />
						<path d="M15650 2340 L20002 2340" stroke="#000000" stroke-width="13" />
						<path d="M15650 2520 L20002 2520" stroke="#000000" stroke-width="13" />
						<path d="M15650 2700 L20002 2700" stroke="#000000" stroke-width="13" />
						<path d="M15650 2880 L20002 2880" stroke="#000000" stroke-width="13" />
						<g class="layer" id="layer-L40F1N1">
							<g class="beam" id="beam-L41F1-L44F1">
								<polygon points="16117,3375 17780,3210 17780,3120 16117,3285 " />
								<polygon points="17136,3139 17780,3075 17780,2985 17136,3049 " />
								<g class="note" id="note-L41F1">
									<use xlink:href="#E0A4" x="16117" y="2700" height="720px" width="720px" />
									<g class="stem">
										<rect x="16117" y="2722" height="635" width="18" />
									</g>
									<g class="accid" id="accid-0000001613285606" />
								</g>
								<g class="note" id="note-L43F1">
									<use xlink:href="#E0A4" x="17127" y="2520" height="720px" width="720px" />
									<g class="stem">
										<rect x="17127" y="2542" height="714" width="18" />
									</g>
									<g class="accid" id="accid-0000000550716954">
										<use xlink:href="#E262" x="16932" y="2520" height="720px" width="720px" />
									</g>
								</g>
								<g class="note" id="note-L44F1">
									<use xlink:href="#E0A4" x="17762" y="2250" height="720px" width="720px" />
									<g class="stem">
										<rect x="17762" y="2272" height="920" width="18" />
									</g>
									<g class="accid" id="accid-0000000047463316">
										<use xlink:href="#E262" x="17567" y="2250" height="720px" width="720px" />
									</g>
								</g>
							</g>
							<g class="beam" id="beam-L45F1-L47F1">
								<polygon points="18398,3296 19203,3375 19203,3285 18398,3206 " />
								<polygon points="18398,3161 18801,3201 18801,3111 18398,3071 " />
								<g class="note" id="note-L45F1">
									<use xlink:href="#E0A4" x="18398" y="2250" height="720px" width="720px" />
									<g class="stem">
										<rect x="18398" y="2272" height="1006" width="18" />
									</g>
									<g class="accid" id="accid-0000000383593570" />
								</g>
								<g class="note" id="note-L46F1">
									<use xlink:href="#E0A4" x="18792" y="2520" height="720px" width="720px" />
									<g class="stem">
										<rect x="18792" y="2542" height="776" width="18" />
									</g>
									<g class="accid" id="accid-0000001597171227" />
								</g>
								<g class="note" id="note-L47F1">
									<use xlink:href="#E0A4" x="19185" y="2700" height="720px" width="720px" />
									<g class="stem">
										<rect x="19185" y="2722" height="635" width="18" />
									</g>
									<g class="accid" id="accid-0000001042575133" />
								</g>
							</g>
						</g>
					</g>
					<g class="tie" id="tie-L44F1-L45F1">
						<path d="M18010,2205 C18101,2063 18283,2063 18376,2205 C18283,2107 18101,2107 18010,2205" stroke="#000000" stroke-linecap="round" stroke-linejoin="round" stroke-width="9" />
					</g>
					<g class="tie" id="tie-L48F2-L50F2">
						<path d="M19691,1485 C19765,1583 19913,1583 19989,1485 C19913,1627 19765,1627 19691,1485" stroke="#000000" stroke-linecap="round" stroke-linejoin="round" stroke-width="9" />
					</g>
					<g class="mNum autogenerated" id="mnum-0000000435218909" />
					<g class="barLineAttr" id="bline-0000000453785066">
						<path d="M19989 2880 L19989 720" stroke="#000000" stroke-width="27" />
					</g>
				</g>
			</g>
		</g>
	</svg>
</svg>
