<?xml version="1.0" encoding="UTF-8" standalone="no"?>
<svg width="2100.00px" height="450.00px" version="1.1" xmlns="http://www.w3.org/2000/svg" xmlns:xlink="http://www.w3.org/1999/xlink" overflow="visible">
	<desc>Engraved by Verovio 2.0.0-dev-0f0381c</desc>
	<defs>
		<symbol id="E050" viewBox="0 0 1000 1000" overflow="inherit">
			<path transform="scale(1,-1)" d="M441 -245c-23 -4 -48 -6 -76 -6c-59 0 -102 7 -130 20c-88 42 -150 93 -187 154c-26 44 -43 103 -48 176c-4 60 11 123 44 189c29 57 65 106 110 148s96 85 153 127c-3 16 -8 46 -13 92c-4 43 -5 73 -5 89c0 117 16 172 69 257c34 54 64 82 89 82c21 0 43 -30 69 -92 s39 -115 41 -159c2 -120 -19 -173 -67 -256c-13 -20 -63 -90 -98 -118c-13 -9 -25 -19 -37 -29l31 -181c8 1 18 2 28 2c58 0 102 -12 133 -35c59 -43 92 -104 98 -184c11 -135 -80 -229 -180 -270c8 -57 17 -110 25 -162c5 -31 6 -58 6 -80c0 -30 -5 -53 -14 -70 c-35 -64 -88 -99 -158 -103c-42 -3 -83 6 -124 26c-50 24 -77 59 -80 105c-2 34 5 63 20 87c18 28 45 42 79 44c51 4 99 -40 103 -87c4 -56 -30 -94 -105 -115c17 -24 51 -36 102 -36c62 0 116 43 140 85c9 16 13 41 13 74c0 20 -1 42 -5 67c-8 53 -18 106 -26 159zM461 939 c-95 0 -135 -175 -135 -286c0 -24 2 -48 5 -71c50 39 92 82 127 128c43 57 63 106 60 148c-4 54 -23 82 -57 81zM406 119l54 -326c80 27 116 88 109 184c-7 99 -62 146 -163 142zM382 117c-74 -2 -132 -50 -128 -127c2 -46 43 -99 75 -115c-3 -2 -7 -5 -10 -10 c-70 33 -116 88 -123 172c-5 73 42 135 88 170c23 17 49 29 78 36l-29 170c-21 -13 -52 -37 -92 -73c-50 -44 -86 -84 -109 -119c-49 -75 -71 -140 -67 -195c5 -68 35 -127 93 -176s125 -73 203 -73c25 0 50 3 75 9c-19 111 -36 221 -54 331z" />
		</symbol>
		<symbol id="E082" viewBox="0 0 1000 1000" overflow="inherit">
			<path transform="scale(1,-1)" d="M104 -185c-18 0 -55 -14 -65 -65h-36l-3 29c0 25 6 46 18 64c11 19 22 30 39 43l121 82l37 29c15 11 27 29 38 54c12 24 18 47 18 70c0 40 -19 88 -94 88c-25 0 -32 0 -50 -8c-14 -5 -23 -12 -26 -22c3 -9 7 -15 10 -18l24 -17c12 -7 17 -11 27 -21c5 -7 7 -16 7 -27 c0 -12 0 -57 -79 -74c-30 0 -76 26 -76 94c0 66 80 135 196 135c72 0 182 -32 182 -150c0 -53 -32 -95 -113 -133l-91 -41c-26 -11 -45 -23 -57 -37l49 7c84 0 115 -41 148 -41c20 0 33 20 39 61h35c0 -152 -68 -168 -114 -168c-17 0 -55 0 -69 7v0l-28 17 c-49 37 -69 40 -87 42z" />
		</symbol>
		<symbol id="E084" viewBox="0 0 1000 1000" overflow="inherit">
			<path transform="scale(1,-1)" d="M0 -78c84 97 114 180 134 329h170c-13 -32 -82 -132 -99 -151l-84 -97c-33 -36 -59 -63 -80 -81h162v102l127 123v-225h57v-39h-57v-34c0 -43 19 -65 57 -65v-34h-244v36c48 0 60 26 60 70v27h-203v39z" />
		</symbol>
		<symbol id="E4E5" viewBox="0 0 1000 1000" overflow="inherit">
			<path transform="scale(1,-1)" d="M107 292c-13 24 -30 49 -52 71c-1 1 0 2 0 3l-2 2c3 3 4 4 6 4c12 0 26 -7 40 -20s44 -40 89 -81c26 -24 28 -29 46 -47c4 -4 8 -9 10 -14c6 -8 8 -16 8 -27c0 -19 -12 -40 -36 -61c-28 -23 -49 -38 -61 -73c-4 -11 -7 -27 -10 -50c13 -43 34 -83 59 -121 c31 -47 59 -79 101 -129c-8 0 -26 7 -54 20l-62 29l-21 6l-23 1c-25 0 -45 -10 -60 -30l-4 -14l-1 -12c0 -33 20 -56 39 -78c8 -9 17 -18 26 -26c17 -15 27 -24 28 -30l-3 -3c-11 5 -19 10 -25 15c-9 3 -37 21 -45 26c-24 14 -45 32 -63 51c-19 21 -37 44 -37 71 c0 63 27 95 80 95c41 0 86 -18 136 -52c-19 26 -37 48 -55 66c-23 23 -48 44 -73 65c-28 23 -47 40 -58 53s-17 26 -18 39c75 64 113 125 113 183c0 27 -7 48 -18 68z" />
		</symbol>
		<symbol id="E0A4" viewBox="0 0 1000 1000" overflow="inherit">
			<path transform="scale(1,-1)" d="M0 -39c0 68 73 172 200 172c66 0 114 -37 114 -95c0 -84 -106 -171 -218 -171c-64 0 -96 30 -96 94z" />
		</symbol>
		<symbol id="E062" viewBox="0 0 1000 1000" overflow="inherit">
			<path transform="scale(1,-1)" d="M158 96c51 0 73 -14 88 -49l16 -39c0 -17 -2 -30 -7 -40c-3 -11 -10 -21 -19 -31c-17 -18 -49 -43 -84 -43c-55 0 -77 13 -112 44c-24 21 -35 55 -35 100c0 46 14 81 32 112c30 52 71 79 137 93l36 6l26 2c154 0 235 -68 274 -182c11 -32 18 -68 18 -107 c0 -103 -26 -182 -68 -250c-89 -145 -234 -230 -412 -288l-30 -5c-9 0 -14 3 -14 8c3 10 5 11 10 16c35 15 70 30 96 44l78 43c96 57 162 136 197 258c9 33 17 60 22 100c3 22 5 35 6 39c-7 69 -16 115 -23 140s-4 22 -16 40c-8 12 -19 23 -31 34c-24 21 -62 44 -118 44 c-48 0 -84 -8 -113 -28c-28 -19 -42 -44 -42 -73v-16c2 -5 3 -9 4 -11c24 22 52 39 84 39zM585 -118c0 32 23 58 57 58c18 0 33 -6 40 -18c9 -15 16 -18 16 -40c0 -9 -2 -16 -5 -21c-6 -19 -27 -37 -51 -37c-34 0 -57 26 -57 58zM642 177c31 0 56 -27 56 -58 c0 -30 -25 -58 -56 -58l-23 3c-19 7 -34 32 -34 55l3 23c9 20 28 35 54 35z" />
		</symbol>
		<symbol id="E260" viewBox="0 0 1000 1000" overflow="inherit">
			<path transform="scale(1,-1)" d="M20 110c32 16 54 27 93 27c26 0 35 -3 54 -13c13 -7 24 -20 27 -38l4 -25c0 -28 -16 -57 -45 -89c-23 -25 -39 -44 -65 -68l-88 -79v644h20v-359zM90 106c-32 0 -48 -10 -70 -29v-194c31 31 54 59 71 84c21 32 32 59 32 84c0 9 1 16 1 20c0 14 -3 21 -11 30l-8 3z" />
		</symbol>
		<symbol id="E262" viewBox="0 0 1000 1000" overflow="inherit">
			<path transform="scale(1,-1)" d="M136 186v169h17v-164l44 14v-91l-44 -14v-165l44 12v-91l-44 -13v-155h-17v150l-76 -22v-155h-17v149l-43 -13v90l43 14v167l-43 -14v92l43 13v169h17v-163zM60 73v-167l76 22v168z" />
		</symbol>
	</defs>
	<style type="text/css">g.page-margin{font-family:Times;} g.tempo{font-weight:bold;} g.dir, g.dynam, g.mNum{font-style:italic;} g.label{font-weight:normal;}</style>
	<svg class="definition-scale" viewBox="0 0 21000 4500">
		<g class="page-margin" transform="translate(500, 500)">
			<g class="system" id="system-0000001463754856">
				<path d="M13 720 L13 3034" stroke="#000000" stroke-width="27" />
				<path d="M-32,3016 C-392,2476 58,2057 -212,1877 C121,2057 -329,2476 -32,3016" stroke="#000000" stroke-linecap="round" stroke-linejoin="round" stroke-width="18" />
				<path d="M-32,738 C-329,1278 121,1697 -212,1877 C58,1697 -392,1278 -32,738" stroke="#000000" stroke-linecap="round" stroke-linejoin="round" stroke-width="18" />
				<g class="section boundaryStart" id="section-L1F1" />
				<g class="measure" id="measure-L4">
					<g class="staff" id="staff-L4F2N1">
						<path d="M0 720 L3785 720" stroke="#000000" stroke-width="13" />
						<path d="M0 900 L3785 900" stroke="#000000" stroke-width="13" />
						<path d="M0 1080 L3785 1080" stroke="#000000" stroke-width="13" />
						<path d="M0 1260 L3785 1260" stroke="#000000" stroke-width="13" />
						<path d="M0 1440 L3785 1440" stroke="#000000" stroke-width="13" />
						<g class="clef" id="clef-0000000049434971">
							<use xlink:href="#E050" x="90" y="1260" height="720px" width="720px" />
						</g>
						<g class="meterSig" id="msig-0000001924869855">
							<use xlink:href="#E082" x="771" y="900" height="720px" width="720px" />
							<use xlink:href="#E084" x="777" y="1260" height="720px" width="720px" />
						</g>
						<g class="layer" id="layer-L4F2N1">
							<g class="rest" id="rest-L5F2">
								<use xlink:href="#E4E5" x="1336" y="1080" height="720px" width="720px" />
							</g>
							<g class="beam" id="beam-L9F2-L11F2">
								<polygon points="2849,316 3657,395 3657,485 2849,406 " />
								<polygon points="3322,498 3657,530 3657,620 3322,588 " />
								<g class="note" id="note-L9F2">
									<use xlink:href="#E0A4" x="2641" y="990" height="720px" width="720px" />
									<g class="stem">
										<rect x="2849" y="334" height="634" width="18" />
									</g>
									<g class="accid" id="accid-0000001859871199" />
								</g>
								<g class="note" id="note-L10F2">
									<use xlink:href="#E0A4" x="3105" y="1080" height="720px" width="720px" />
									<g class="stem">
										<rect x="3313" y="381" height="677" width="18" />
									</g>
									<g class="accid" id="accid-0000001605541630" />
								</g>
								<g class="note" id="note-L11F2">
									<use xlink:href="#E0A4" x="3431" y="1440" height="720px" width="720px" />
									<g class="stem">
										<rect x="3639" y="413" height="1005" width="18" />
									</g>
									<g class="accid" id="accid-0000001679275952" />
								</g>
							</g>
						</g>
					</g>
					<g class="staff" id="staff-L4F1N1">
						<path d="M0 2314 L3785 2314" stroke="#000000" stroke-width="13" />
						<path d="M0 2494 L3785 2494" stroke="#000000" stroke-width="13" />
						<path d="M0 2674 L3785 2674" stroke="#000000" stroke-width="13" />
						<path d="M0 2854 L3785 2854" stroke="#000000" stroke-width="13" />
						<path d="M0 3034 L3785 3034" stroke="#000000" stroke-width="13" />
						<g class="clef" id="clef-0000001593994577">
							<use xlink:href="#E062" x="90" y="2494" height="720px" width="720px" />
						</g>
						<g class="meterSig" id="msig-0000000408359314">
							<use xlink:href="#E082" x="771" y="2494" height="720px" width="720px" />
							<use xlink:href="#E084" x="777" y="2854" height="720px" width="720px" />
						</g>
						<g class="layer" id="layer-L4F1N1">
							<g class="beam" id="beam-L5F1-L8F1">
								<polygon points="1544,2008 2541,1910 2541,2000 1544,2098 " />
								<polygon points="1544,2143 2541,2045 2541,2135 1544,2233 " />
								<g class="note" id="note-L5F1">
									<use xlink:href="#E0A4" x="1336" y="2764" height="720px" width="720px" />
									<g class="stem">
										<rect x="1544" y="2026" height="716" width="18" />
									</g>
									<g class="accid" id="accid-0000001717408137" />
								</g>
								<g class="note" id="note-L6F1">
									<use xlink:href="#E0A4" x="1662" y="2674" height="720px" width="720px" />
									<g class="stem">
										<rect x="1870" y="1993" height="659" width="18" />
									</g>
									<g class="accid" id="accid-0000001460408764" />
								</g>
								<g class="note" id="note-L7F1">
									<use xlink:href="#E0A4" x="1988" y="2764" height="720px" width="720px" />
									<g class="stem">
										<rect x="2196" y="1961" height="781" width="18" />
									</g>
									<g class="accid" id="accid-0000001291615350" />
								</g>
								<g class="note" id="note-L8F1">
									<use xlink:href="#E0A4" x="2315" y="2584" height="720px" width="720px" />
									<g class="stem">
										<rect x="2523" y="1928" height="634" width="18" />
									</g>
									<g class="accid" id="accid-0000000581455928" />
								</g>
							</g>
							<g class="beam" id="beam-L9F1-L11F1">
								<polygon points="2641,3392 3449,3471 3449,3381 2641,3302 " />
								<polygon points="3114,3304 3449,3336 3449,3246 3114,3214 " />
								<g class="note" id="note-L9F1">
									<use xlink:href="#E0A4" x="2641" y="2584" height="720px" width="720px" />
									<g class="stem">
										<rect x="2641" y="2606" height="768" width="18" />
									</g>
									<g class="accid" id="accid-0000001758041873" />
								</g>
								<g class="note" id="note-L10F1">
									<use xlink:href="#E0A4" x="3105" y="2764" height="720px" width="720px" />
									<g class="stem">
										<rect x="3105" y="2786" height="635" width="18" />
									</g>
									<g class="accid" id="accid-0000000939500844" />
								</g>
								<g class="note" id="note-L11F1">
									<use xlink:href="#E0A4" x="3431" y="2674" height="720px" width="720px" />
									<g class="stem">
										<rect x="3431" y="2696" height="757" width="18" />
									</g>
									<g class="accid" id="accid-0000002101093442" />
								</g>
							</g>
						</g>
					</g>
					<g class="tie" id="tie-L8F1-L9F1">
						<path d="M2428,2719 C2509,2817 2671,2817 2754,2719 C2671,2861 2509,2861 2428,2719" stroke="#000000" stroke-linecap="round" stroke-linejoin="round" stroke-width="9" />
					</g>
					<g class="mNum autogenerated" id="mnum-0000000027816240" />
					<g class="barLineAttr" id="bline-0000000473002159">
						<path d="M3772 3034 L3772 720" stroke="#000000" stroke-width="27" />
					</g>
				</g>
				<g class="measure" id="measure-L12">
					<g class="staff" id="staff-L12F2N1">
						<path d="M3785 720 L6608 720" stroke="#000000" stroke-width="13" />
						<path d="M3785 900 L6608 900" stroke="#000000" stroke-width="13" />
						<path d="M3785 1080 L6608 1080" stroke="#000000" stroke-width="13" />
						<path d="M3785 1260 L6608 1260" stroke="#000000" stroke-width="13" />
						<path d="M3785 1440 L6608 1440" stroke="#000000" stroke-width="13" />
						<g class="layer" id="layer-L12F2N1">
							<g class="beam" id="beam-L13F2-L16F2">
								<polygon points="4179,529 5176,431 5176,521 4179,619 " />
								<polygon points="4179,664 5176,566 5176,656 4179,754 " />
								<g class="note" id="note-L13F2">
									<use xlink:href="#E0A4" x="3971" y="1530" height="720px" width="720px" />
									<g class="stem">
										<rect x="4179" y="547" height="961" width="18" />
									</g>
									<g class="accid" id="accid-0000001697906424" />
								</g>
								<g class="note" id="note-L14F2">
									<use xlink:href="#E0A4" x="4297" y="1170" height="720px" width="720px" />
									<g class="stem">
										<rect x="4505" y="514" height="634" width="18" />
									</g>
									<g class="accid" id="accid-0000001045895391" />
								</g>
								<g class="note" id="note-L15F2">
									<use xlink:href="#E0A4" x="4623" y="1350" height="720px" width="720px" />
									<g class="stem">
										<rect x="4831" y="482" height="846" width="18" />
									</g>
									<g class="accid" id="accid-0000000775825757" />
								</g>
								<g class="note" id="note-L16F2">
									<use xlink:href="#E0A4" x="4950" y="1260" height="720px" width="720px" />
									<g class="stem">
										<rect x="5158" y="449" height="789" width="18" />
									</g>
									<g class="accid" id="accid-0000000129445105" />
								</g>
							</g>
							<g class="beam" id="beam-L17F2-L20F2">
								<polygon points="5484,283 6480,381 6480,471 5484,373 " />
								<polygon points="5484,418 6480,516 6480,606 5484,508 " />
								<g class="note" id="note-L17F2">
									<use xlink:href="#E0A4" x="5276" y="1080" height="720px" width="720px" />
									<g class="stem">
										<rect x="5484" y="301" height="757" width="18" />
									</g>
									<g class="accid" id="accid-0000000580024395" />
								</g>
								<g class="note" id="note-L18F2">
									<use xlink:href="#E0A4" x="5602" y="990" height="720px" width="720px" />
									<g class="stem">
										<rect x="5810" y="334" height="634" width="18" />
									</g>
									<g class="accid" id="accid-0000002120378480" />
								</g>
								<g class="note" id="note-L19F2">
									<use xlink:href="#E0A4" x="5928" y="1080" height="720px" width="720px" />
									<g class="stem">
										<rect x="6136" y="366" height="692" width="18" />
									</g>
									<g class="accid" id="accid-0000000613254455" />
								</g>
								<g class="note" id="note-L20F2">
									<use xlink:href="#E0A4" x="6254" y="1260" height="720px" width="720px" />
									<g class="stem">
										<rect x="6462" y="399" height="839" width="18" />
									</g>
									<g class="accid" id="accid-0000001244773597" />
								</g>
							</g>
						</g>
					</g>
					<g class="staff" id="staff-L12F1N1">
						<path d="M3785 2314 L6608 2314" stroke="#000000" stroke-width="13" />
						<path d="M3785 2494 L6608 2494" stroke="#000000" stroke-width="13" />
						<path d="M3785 2674 L6608 2674" stroke="#000000" stroke-width="13" />
						<path d="M3785 2854 L6608 2854" stroke="#000000" stroke-width="13" />
						<path d="M3785 3034 L6608 3034" stroke="#000000" stroke-width="13" />
						<g class="layer" id="layer-L12F1N1">
							<g class="beam" id="beam-L13F1-L14F1">
								<polygon points="3971,3439 4315,3406 4315,3316 3971,3349 " />
								<polygon points="3971,3304 4129,3289 4129,3199 3971,3214 " />
								<g class="note" id="note-L13F1">
									<use xlink:href="#E0A4" x="3971" y="2764" height="720px" width="720px" />
									<g class="stem">
										<rect x="3971" y="2786" height="635" width="18" />
									</g>
									<g class="accid" id="accid-0000001024991480" />
								</g>
								<g class="note" id="note-L14F1">
									<use xlink:href="#E0A4" x="4297" y="2584" height="720px" width="720px" />
									<g class="dots" id="dots-0000002042677895">
										<ellipse cx="4613" cy="2584" rx="36" ry="36" />
									</g>
									<g class="stem">
										<rect x="4297" y="2606" height="782" width="18" />
									</g>
									<g class="accid" id="accid-0000000310935056" />
								</g>
							</g>
							<g class="beam" id="beam-L17F1-L20F1">
								<polygon points="5484,2008 6480,1910 6480,2000 5484,2098 " />
								<polygon points="5484,2143 6480,2045 6480,2135 5484,2233 " />
								<g class="note" id="note-L17F1">
									<use xlink:href="#E0A4" x="5276" y="2764" height="720px" width="720px" />
									<g class="stem">
										<rect x="5484" y="2026" height="716" width="18" />
									</g>
									<g class="accid" id="accid-0000000366383687" />
								</g>
								<g class="note" id="note-L18F1">
									<use xlink:href="#E0A4" x="5602" y="2674" height="720px" width="720px" />
									<g class="stem">
										<rect x="5810" y="1993" height="659" width="18" />
									</g>
									<g class="accid" id="accid-0000001717381610" />
								</g>
								<g class="note" id="note-L19F1">
									<use xlink:href="#E0A4" x="5928" y="2764" height="720px" width="720px" />
									<g class="stem">
										<rect x="6136" y="1961" height="781" width="18" />
									</g>
									<g class="accid" id="accid-0000000809922924" />
								</g>
								<g class="note" id="note-L20F1">
									<use xlink:href="#E0A4" x="6254" y="2584" height="720px" width="720px" />
									<g class="stem">
										<rect x="6462" y="1928" height="634" width="18" />
									</g>
									<g class="accid" id="accid-0000002124732633" />
								</g>
							</g>
						</g>
					</g>
					<g class="tie" id="tie-L20F1-L22F1">
						<path d="M6502,2629 C6569,2727 6703,2727 6772,2629 C6703,2771 6569,2771 6502,2629" stroke="#000000" stroke-linecap="round" stroke-linejoin="round" stroke-width="9" />
					</g>
					<g class="mNum autogenerated" id="mnum-0000001469006518" />
					<g class="barLineAttr" id="bline-0000002029933267">
						<path d="M6595 3034 L6595 720" stroke="#000000" stroke-width="27" />
					</g>
				</g>
				<g class="measure" id="measure-L21">
					<g class="staff" id="staff-L21F2N1">
						<path d="M6608 720 L9493 720" stroke="#000000" stroke-width="13" />
						<path d="M6608 900 L9493 900" stroke="#000000" stroke-width="13" />
						<path d="M6608 1080 L9493 1080" stroke="#000000" stroke-width="13" />
						<path d="M6608 1260 L9493 1260" stroke="#000000" stroke-width="13" />
						<path d="M6608 1440 L9493 1440" stroke="#000000" stroke-width="13" />
						<g class="layer" id="layer-L21F2N1">
							<g class="rest" id="rest-L22F2">
								<use xlink:href="#E4E5" x="6794" y="1080" height="720px" width="720px" />
							</g>
							<g class="beam" id="beam-L25F2-L28F2">
								<polygon points="8183,316 9365,433 9365,523 8183,406 " />
								<polygon points="8828,515 9365,568 9365,658 8828,605 " />
								<g class="note" id="note-L25F2">
									<use xlink:href="#E0A4" x="7975" y="990" height="720px" width="720px" />
									<g class="stem">
										<rect x="8183" y="334" height="634" width="18" />
									</g>
									<g class="accid" id="accid-0000001042880357" />
								</g>
								<g class="note" id="note-L27F2">
									<use xlink:href="#E0A4" x="8611" y="1080" height="720px" width="720px" />
									<g class="stem">
										<rect x="8819" y="398" height="660" width="18" />
									</g>
									<g class="accid" id="accid-0000000982979668">
										<use xlink:href="#E260" x="8415" y="1080" height="720px" width="720px" />
									</g>
								</g>
								<g class="note" id="note-L28F2">
									<use xlink:href="#E0A4" x="9139" y="1440" height="720px" width="720px" />
									<g class="stem">
										<rect x="9347" y="451" height="967" width="18" />
									</g>
									<g class="accid" id="accid-0000000683810095">
										<use xlink:href="#E260" x="8943" y="1440" height="720px" width="720px" />
									</g>
								</g>
							</g>
						</g>
					</g>
					<g class="staff" id="staff-L21F1N1">
						<path d="M6608 2314 L9493 2314" stroke="#000000" stroke-width="13" />
						<path d="M6608 2494 L9493 2494" stroke="#000000" stroke-width="13" />
						<path d="M6608 2674 L9493 2674" stroke="#000000" stroke-width="13" />
						<path d="M6608 2854 L9493 2854" stroke="#000000" stroke-width="13" />
						<path d="M6608 3034 L9493 3034" stroke="#000000" stroke-width="13" />
						<g class="layer" id="layer-L21F1N1">
							<g class="beam" id="beam-L22F1-L24F1">
								<polygon points="7002,1910 7875,1996 7875,2086 7002,2000 " />
								<polygon points="7540,2098 7875,2131 7875,2221 7540,2188 " />
								<g class="note" id="note-L22F1">
									<use xlink:href="#E0A4" x="6794" y="2584" height="720px" width="720px" />
									<g class="stem">
										<rect x="7002" y="1928" height="634" width="18" />
									</g>
									<g class="accid" id="accid-0000000488988445" />
								</g>
								<g class="note" id="note-L23F1">
									<use xlink:href="#E0A4" x="7323" y="2854" height="720px" width="720px" />
									<g class="stem">
										<rect x="7531" y="1981" height="851" width="18" />
									</g>
									<g class="accid" id="accid-0000001036947479">
										<use xlink:href="#E260" x="7127" y="2854" height="720px" width="720px" />
									</g>
								</g>
								<g class="note" id="note-L24F1">
									<use xlink:href="#E0A4" x="7649" y="2674" height="720px" width="720px" />
									<g class="stem">
										<rect x="7857" y="2014" height="638" width="18" />
									</g>
									<g class="accid" id="accid-0000001735794552" />
								</g>
							</g>
							<g class="beam" id="beam-L25F1-L26F1">
								<polygon points="7975,3529 8319,3496 8319,3406 7975,3439 " />
								<polygon points="7975,3394 8133,3379 8133,3289 7975,3304 " />
								<g class="note" id="note-L25F1">
									<use xlink:href="#E0A4" x="7975" y="2854" height="720px" width="720px" />
									<g class="stem">
										<rect x="7975" y="2876" height="635" width="18" />
									</g>
									<g class="accid" id="accid-0000001564105449" />
								</g>
								<g class="note" id="note-L26F1">
									<use xlink:href="#E0A4" x="8301" y="2494" height="720px" width="720px" />
									<g class="dots" id="dots-0000000031682372">
										<ellipse cx="8617" cy="2404" rx="36" ry="36" />
									</g>
									<g class="stem">
										<rect x="8301" y="2516" height="962" width="18" />
									</g>
									<g class="accid" id="accid-0000000395424564" />
								</g>
							</g>
						</g>
					</g>
					<g class="mNum autogenerated" id="mnum-0000000312704386" />
					<g class="barLineAttr" id="bline-0000001801201238">
						<path d="M9480 3034 L9480 720" stroke="#000000" stroke-width="27" />
					</g>
				</g>
				<g class="measure" id="measure-L29">
					<g class="staff" id="staff-L29F2N1">
						<path d="M9493 720 L12922 720" stroke="#000000" stroke-width="13" />
						<path d="M9493 900 L12922 900" stroke="#000000" stroke-width="13" />
						<path d="M9493 1080 L12922 1080" stroke="#000000" stroke-width="13" />
						<path d="M9493 1260 L12922 1260" stroke="#000000" stroke-width="13" />
						<path d="M9493 1440 L12922 1440" stroke="#000000" stroke-width="13" />
						<g class="layer" id="layer-L29F2N1">
							<g class="beam" id="beam-L30F2-L33F2">
								<polygon points="10090,549 11288,431 11288,521 10090,639 " />
								<polygon points="10090,684 11288,566 11288,656 10090,774 " />
								<g class="note" id="note-L30F2">
									<use xlink:href="#E0A4" x="9882" y="1530" height="720px" width="720px" />
									<g class="stem">
										<rect x="10090" y="567" height="941" width="18" />
									</g>
									<g class="accid" id="accid-0000001571703021" />
								</g>
								<g class="note" id="note-L31F2">
									<use xlink:href="#E0A4" x="10410" y="1170" height="720px" width="720px" />
									<g class="stem">
										<rect x="10618" y="514" height="634" width="18" />
									</g>
									<g class="accid" id="accid-0000000000584896">
										<use xlink:href="#E260" x="10214" y="1170" height="720px" width="720px" />
									</g>
								</g>
								<g class="note" id="note-L32F2">
									<use xlink:href="#E0A4" x="10736" y="1350" height="720px" width="720px" />
									<g class="stem">
										<rect x="10944" y="481" height="847" width="18" />
									</g>
									<g class="accid" id="accid-0000001988857159" />
								</g>
								<g class="note" id="note-L33F2">
									<use xlink:href="#E0A4" x="11062" y="1260" height="720px" width="720px" />
									<g class="stem">
										<rect x="11270" y="449" height="789" width="18" />
									</g>
									<g class="accid" id="accid-0000001347678054" />
								</g>
							</g>
							<g class="beam" id="beam-L34F2-L37F2">
								<polygon points="11799,283 12795,381 12795,471 11799,373 " />
								<polygon points="11799,418 12795,516 12795,606 11799,508 " />
								<g class="note" id="note-L34F2">
									<use xlink:href="#E0A4" x="11591" y="1080" height="720px" width="720px" />
									<g class="stem">
										<rect x="11799" y="301" height="757" width="18" />
									</g>
									<g class="accid" id="accid-0000000446344572">
										<use xlink:href="#E260" x="11395" y="1080" height="720px" width="720px" />
									</g>
								</g>
								<g class="note" id="note-L35F2">
									<use xlink:href="#E0A4" x="11917" y="990" height="720px" width="720px" />
									<g class="stem">
										<rect x="12125" y="334" height="634" width="18" />
									</g>
									<g class="accid" id="accid-0000001611875909" />
								</g>
								<g class="note" id="note-L36F2">
									<use xlink:href="#E0A4" x="12243" y="1080" height="720px" width="720px" />
									<g class="stem">
										<rect x="12451" y="366" height="692" width="18" />
									</g>
									<g class="accid" id="accid-0000001784806964" />
								</g>
								<g class="note" id="note-L37F2">
									<use xlink:href="#E0A4" x="12569" y="1260" height="720px" width="720px" />
									<g class="stem">
										<rect x="12777" y="399" height="839" width="18" />
									</g>
									<g class="accid" id="accid-0000000659448716" />
								</g>
							</g>
						</g>
					</g>
					<g class="staff" id="staff-L29F1N1">
						<path d="M9493 2314 L12922 2314" stroke="#000000" stroke-width="13" />
						<path d="M9493 2494 L12922 2494" stroke="#000000" stroke-width="13" />
						<path d="M9493 2674 L12922 2674" stroke="#000000" stroke-width="13" />
						<path d="M9493 2854 L12922 2854" stroke="#000000" stroke-width="13" />
						<path d="M9493 3034 L12922 3034" stroke="#000000" stroke-width="13" />
						<g class="layer" id="layer-L29F1N1">
							<g class="beam" id="beam-L30F1-L33F1">
								<polygon points="10090,1938 11288,1820 11288,1910 10090,2028 " />
								<polygon points="10090,2073 11288,1955 11288,2045 10090,2163 " />
								<g class="note" id="note-L30F1">
									<use xlink:href="#E0A4" x="9882" y="2854" height="720px" width="720px" />
									<g class="stem">
										<rect x="10090" y="1956" height="876" width="18" />
									</g>
									<g class="accid" id="accid-0000001370786390">
										<use xlink:href="#E260" x="9686" y="2854" height="720px" width="720px" />
									</g>
								</g>
								<g class="note" id="note-L31F1">
									<use xlink:href="#E0A4" x="10410" y="2674" height="720px" width="720px" />
									<g class="stem">
										<rect x="10618" y="1903" height="749" width="18" />
									</g>
									<g class="accid" id="accid-0000001626408887" />
								</g>
								<g class="note" id="note-L32F1">
									<use xlink:href="#E0A4" x="10736" y="2854" height="720px" width="720px" />
									<g class="stem">
										<rect x="10944" y="1870" height="962" width="18" />
									</g>
									<g class="accid" id="accid-0000001315051994" />
								</g>
								<g class="note" id="note-L33F1">
									<use xlink:href="#E0A4" x="11062" y="2494" height="720px" width="720px" />
									<g class="stem">
										<rect x="11270" y="1838" height="634" width="18" />
									</g>
									<g class="accid" id="accid-0000001254174096" />
								</g>
							</g>
							<g class="beam" id="beam-L34F1-L37F1">
								<polygon points="11591,3373 12587,3471 12587,3381 11591,3283 " />
								<polygon points="12252,3304 12587,3336 12587,3246 12252,3214 " />
								<g class="note" id="note-L34F1">
									<use xlink:href="#E0A4" x="11591" y="2494" height="720px" width="720px" />
									<g class="stem">
										<rect x="11591" y="2516" height="839" width="18" />
									</g>
									<g class="accid" id="accid-0000001925744221" />
								</g>
								<g class="note" id="note-L36F1">
									<use xlink:href="#E0A4" x="12243" y="2764" height="720px" width="720px" />
									<g class="stem">
										<rect x="12243" y="2786" height="635" width="18" />
									</g>
									<g class="accid" id="accid-0000000772717684" />
								</g>
								<g class="note" id="note-L37F1">
									<use xlink:href="#E0A4" x="12569" y="2674" height="720px" width="720px" />
									<g class="stem">
										<rect x="12569" y="2696" height="757" width="18" />
									</g>
									<g class="accid" id="accid-0000000026779291" />
								</g>
							</g>
						</g>
					</g>
					<g class="tie" id="tie-L33F1-L34F1">
						<path d="M11175,2629 C11307,2727 11571,2727 11704,2629 C11571,2771 11307,2771 11175,2629" stroke="#000000" stroke-linecap="round" stroke-linejoin="round" stroke-width="9" />
					</g>
					<g class="mNum autogenerated" id="mnum-0000000595082493" />
					<g class="barLineAttr" id="bline-0000000224861777">
						<path d="M12909 3034 L12909 720" stroke="#000000" stroke-width="27" />
					</g>
				</g>
				<g class="measure" id="measure-L38">
					<g class="staff" id="staff-L38F2N1">
						<path d="M12922 720 L16173 720" stroke="#000000" stroke-width="13" />
						<path d="M12922 900 L16173 900" stroke="#000000" stroke-width="13" />
						<path d="M12922 1080 L16173 1080" stroke="#000000" stroke-width="13" />
						<path d="M12922 1260 L16173 1260" stroke="#000000" stroke-width="13" />
						<path d="M12922 1440 L16173 1440" stroke="#000000" stroke-width="13" />
						<g class="layer" id="layer-L38F2N1">
							<g class="rest" id="rest-L39F2">
								<use xlink:href="#E4E5" x="13311" y="1080" height="720px" width="720px" />
							</g>
							<g class="beam" id="beam-L41F2-L44F2">
								<polygon points="14443,390 16045,549 16045,639 14443,480 " />
								<polygon points="15509,631 16045,684 16045,774 15509,721 " />
								<g class="note" id="note-L41F2">
									<use xlink:href="#E0A4" x="14235" y="1080" height="720px" width="720px" />
									<g class="stem">
										<rect x="14443" y="408" height="650" width="18" />
									</g>
									<g class="accid" id="accid-0000001331608608" />
								</g>
								<g class="note" id="note-L43F2">
									<use xlink:href="#E0A4" x="15292" y="1170" height="720px" width="720px" />
									<g class="stem">
										<rect x="15500" y="514" height="634" width="18" />
									</g>
									<g class="accid" id="accid-0000002080311442">
										<use xlink:href="#E262" x="15097" y="1170" height="720px" width="720px" />
									</g>
								</g>
								<g class="note" id="note-L44F2">
									<use xlink:href="#E0A4" x="15819" y="1530" height="720px" width="720px" />
									<g class="stem">
										<rect x="16027" y="567" height="941" width="18" />
									</g>
									<g class="accid" id="accid-0000001566805503">
										<use xlink:href="#E262" x="15624" y="1530" height="720px" width="720px" />
									</g>
								</g>
							</g>
						</g>
					</g>
					<g class="staff" id="staff-L38F1N1">
						<path d="M12922 2314 L16173 2314" stroke="#000000" stroke-width="13" />
						<path d="M12922 2494 L16173 2494" stroke="#000000" stroke-width="13" />
						<path d="M12922 2674 L16173 2674" stroke="#000000" stroke-width="13" />
						<path d="M12922 2854 L16173 2854" stroke="#000000" stroke-width="13" />
						<path d="M12922 3034 L16173 3034" stroke="#000000" stroke-width="13" />
						<g class="ledgerLines below">
							<path d="M15261 3214 L15540 3214" stroke="#000000" stroke-width="22" />
							<path d="M15261 3394 L15540 3394" stroke="#000000" stroke-width="22" />
						</g>
						<g class="layer" id="layer-L38F1N1">
							<g class="beam" id="beam-L39F1-L40F1">
								<polygon points="13311,3529 13655,3496 13655,3406 13311,3439 " />
								<polygon points="13311,3394 13469,3379 13469,3289 13311,3304 " />
								<g class="note" id="note-L39F1">
									<use xlink:href="#E0A4" x="13311" y="2854" height="720px" width="720px" />
									<g class="stem">
										<rect x="13311" y="2876" height="635" width="18" />
									</g>
									<g class="accid" id="accid-0000000849317357">
										<use xlink:href="#E260" x="13115" y="2854" height="720px" width="720px" />
									</g>
								</g>
								<g class="note" id="note-L40F1">
									<use xlink:href="#E0A4" x="13637" y="2494" height="720px" width="720px" />
									<g class="dots" id="dots-0000002034858301">
										<ellipse cx="13953" cy="2404" rx="36" ry="36" />
									</g>
									<g class="stem">
										<rect x="13637" y="2516" height="962" width="18" />
									</g>
									<g class="accid" id="accid-0000001227028971" />
								</g>
							</g>
							<g class="beam" id="beam-L41F1-L44F1">
								<polygon points="14443,1928 16045,1820 16045,1910 14443,2018 " />
								<polygon points="14443,2063 16045,1955 16045,2045 14443,2153 " />
								<g class="note" id="note-L41F1">
									<use xlink:href="#E0A4" x="14235" y="2854" height="720px" width="720px" />
									<g class="stem">
										<rect x="14443" y="1946" height="886" width="18" />
									</g>
									<g class="accid" id="accid-0000002094000743" />
								</g>
								<g class="note" id="note-L42F1">
									<use xlink:href="#E0A4" x="14764" y="2674" height="720px" width="720px" />
									<g class="stem">
										<rect x="14972" y="1910" height="742" width="18" />
									</g>
									<g class="accid" id="accid-0000000224125785">
										<use xlink:href="#E260" x="14568" y="2674" height="720px" width="720px" />
									</g>
								</g>
								<g class="note" id="note-L43F1">
									<use xlink:href="#E0A4" x="15292" y="3394" height="720px" width="720px" />
									<g class="stem">
										<rect x="15500" y="1874" height="1498" width="18" />
									</g>
									<g class="accid" id="accid-0000000053151995">
										<use xlink:href="#E260" x="15096" y="3394" height="720px" width="720px" />
									</g>
								</g>
								<g class="note" id="note-L44F1">
									<use xlink:href="#E0A4" x="15819" y="2494" height="720px" width="720px" />
									<g class="stem">
										<rect x="16027" y="1838" height="634" width="18" />
									</g>
									<g class="accid" id="accid-0000001841889490" />
								</g>
							</g>
						</g>
					</g>
					<g class="tie" id="tie-L44F1-L46F1">
						<path d="M16067,2539 C16184,2637 16418,2637 16538,2539 C16418,2681 16184,2681 16067,2539" stroke="#000000" stroke-linecap="round" stroke-linejoin="round" stroke-width="9" />
					</g>
					<g class="mNum autogenerated" id="mnum-0000001915429159" />
					<g class="barLineAttr" id="bline-0000000120328108">
						<path d="M16160 3034 L16160 720" stroke="#000000" stroke-width="27" />
					</g>
				</g>
				<g class="measure" id="measure-L45">
					<g class="staff" id="staff-L45F2N1">
						<path d="M16173 720 L20004 720" stroke="#000000" stroke-width="13" />
						<path d="M16173 900 L20004 900" stroke="#000000" stroke-width="13" />
						<path d="M16173 1080 L20004 1080" stroke="#000000" stroke-width="13" />
						<path d="M16173 1260 L20004 1260" stroke="#000000" stroke-width="13" />
						<path d="M16173 1440 L20004 1440" stroke="#000000" stroke-width="13" />
						<g class="ledgerLines below">
							<path d="M16529 1620 L16808 1620" stroke="#000000" stroke-width="22" />
						</g>
						<g class="layer" id="layer-L45F2N1">
							<g class="beam" id="beam-L46F2-L49F2">
								<polygon points="16768,639 18370,480 18370,570 16768,729 " />
								<polygon points="16768,774 18370,615 18370,705 16768,864 " />
								<g class="note" id="note-L46F2">
									<use xlink:href="#E0A4" x="16560" y="1620" height="720px" width="720px" />
									<g class="stem">
										<rect x="16768" y="657" height="941" width="18" />
									</g>
									<g class="accid" id="accid-0000001517683949">
										<use xlink:href="#E262" x="16365" y="1620" height="720px" width="720px" />
									</g>
								</g>
								<g class="note" id="note-L47F2">
									<use xlink:href="#E0A4" x="17088" y="1260" height="720px" width="720px" />
									<g class="stem">
										<rect x="17296" y="604" height="634" width="18" />
									</g>
									<g class="accid" id="accid-0000001614576818">
										<use xlink:href="#E262" x="16893" y="1260" height="720px" width="720px" />
									</g>
								</g>
								<g class="note" id="note-L48F2">
									<use xlink:href="#E0A4" x="17615" y="1440" height="720px" width="720px" />
									<g class="stem">
										<rect x="17823" y="551" height="867" width="18" />
									</g>
									<g class="accid" id="accid-0000000916871321">
										<use xlink:href="#E262" x="17420" y="1440" height="720px" width="720px" />
									</g>
								</g>
								<g class="note" id="note-L49F2">
									<use xlink:href="#E0A4" x="18144" y="1350" height="720px" width="720px" />
									<g class="stem">
										<rect x="18352" y="498" height="830" width="18" />
									</g>
									<g class="accid" id="accid-0000001237472354">
										<use xlink:href="#E262" x="17949" y="1350" height="720px" width="720px" />
									</g>
								</g>
							</g>
							<g class="beam" id="beam-L50F2-L53F2">
								<polygon points="18880,373 19876,471 19876,561 18880,463 " />
								<polygon points="18880,508 19876,606 19876,696 18880,598 " />
								<g class="note" id="note-L50F2">
									<use xlink:href="#E0A4" x="18672" y="1170" height="720px" width="720px" />
									<g class="stem">
										<rect x="18880" y="391" height="757" width="18" />
									</g>
									<g class="accid" id="accid-0000001614083530">
										<use xlink:href="#E262" x="18477" y="1170" height="720px" width="720px" />
									</g>
								</g>
								<g class="note" id="note-L51F2">
									<use xlink:href="#E0A4" x="18998" y="1080" height="720px" width="720px" />
									<g class="stem">
										<rect x="19206" y="424" height="634" width="18" />
									</g>
									<g class="accid" id="accid-0000000890161851" />
								</g>
								<g class="note" id="note-L52F2">
									<use xlink:href="#E0A4" x="19324" y="1170" height="720px" width="720px" />
									<g class="stem">
										<rect x="19532" y="456" height="692" width="18" />
									</g>
									<g class="accid" id="accid-0000002082987659" />
								</g>
								<g class="note" id="note-L53F2">
									<use xlink:href="#E0A4" x="19650" y="1350" height="720px" width="720px" />
									<g class="stem">
										<rect x="19858" y="489" height="839" width="18" />
									</g>
									<g class="accid" id="accid-0000000846907008" />
								</g>
							</g>
						</g>
					</g>
					<g class="staff" id="staff-L45F1N1">
						<path d="M16173 2314 L20004 2314" stroke="#000000" stroke-width="13" />
						<path d="M16173 2494 L20004 2494" stroke="#000000" stroke-width="13" />
						<path d="M16173 2674 L20004 2674" stroke="#000000" stroke-width="13" />
						<path d="M16173 2854 L20004 2854" stroke="#000000" stroke-width="13" />
						<path d="M16173 3034 L20004 3034" stroke="#000000" stroke-width="13" />
						<g class="ledgerLines below">
							<path d="M18641 3214 L18920 3214" stroke="#000000" stroke-width="22" />
							<path d="M18641 3394 L18920 3394" stroke="#000000" stroke-width="22" />
						</g>
						<g class="layer" id="layer-L45F1N1">
							<g class="beam" id="beam-L46F1-L49F1">
								<polygon points="16560,3423 18162,3582 18162,3492 16560,3333 " />
								<polygon points="17624,3394 18162,3447 18162,3357 17624,3304 " />
								<g class="note" id="note-L46F1">
									<use xlink:href="#E0A4" x="16560" y="2494" height="720px" width="720px" />
									<g class="stem">
										<rect x="16560" y="2516" height="889" width="18" />
									</g>
									<g class="accid" id="accid-0000002141397458" />
								</g>
								<g class="note" id="note-L48F1">
									<use xlink:href="#E0A4" x="17615" y="2854" height="720px" width="720px" />
									<g class="stem">
										<rect x="17615" y="2876" height="635" width="18" />
									</g>
									<g class="accid" id="accid-0000000345140847">
										<use xlink:href="#E260" x="17419" y="2854" height="720px" width="720px" />
									</g>
								</g>
								<g class="note" id="note-L49F1">
									<use xlink:href="#E0A4" x="18144" y="2674" height="720px" width="720px" />
									<g class="stem">
										<rect x="18144" y="2696" height="868" width="18" />
									</g>
									<g class="accid" id="accid-0000001314773142">
										<use xlink:href="#E260" x="17948" y="2674" height="720px" width="720px" />
									</g>
								</g>
							</g>
							<g class="beam" id="beam-L50F1-L51F1">
								<polygon points="18880,1853 19224,1820 19224,1910 18880,1943 " />
								<polygon points="18880,1988 19038,1973 19038,2063 18880,2078 " />
								<g class="note" id="note-L50F1">
									<use xlink:href="#E0A4" x="18672" y="3394" height="720px" width="720px" />
									<g class="stem">
										<rect x="18880" y="1871" height="1501" width="18" />
									</g>
									<g class="accid" id="accid-0000001233270165">
										<use xlink:href="#E260" x="18476" y="3394" height="720px" width="720px" />
									</g>
								</g>
								<g class="note" id="note-L51F1">
									<use xlink:href="#E0A4" x="18998" y="2494" height="720px" width="720px" />
									<g class="dots" id="dots-0000000245665883">
										<ellipse cx="19314" cy="2404" rx="36" ry="36" />
									</g>
									<g class="stem">
										<rect x="19206" y="1838" height="634" width="18" />
									</g>
									<g class="accid" id="accid-0000001475445122" />
								</g>
							</g>
						</g>
					</g>
					<g class="mNum autogenerated" id="mnum-0000001975223433" />
					<g class="barLineAttr" id="bline-0000000882774823">
						<path d="M19991 3034 L19991 720" stroke="#000000" stroke-width="27" />
					</g>
				</g>
			</g>
		</g>
	</svg>
</svg>
