<?xml version="1.0" encoding="UTF-8" standalone="no"?>
<svg width="2100.00px" height="450.00px" version="1.1" xmlns="http://www.w3.org/2000/svg" xmlns:xlink="http://www.w3.org/1999/xlink" overflow="visible">
	<desc>Engraved by Verovio 2.0.0-dev-0f0381c</desc>
	<defs>
		<symbol id="E050" viewBox="0 0 1000 1000" overflow="inherit">
			<path transform="scale(1,-1)" d="M441 -245c-23 -4 -48 -6 -76 -6c-59 0 -102 7 -130 20c-88 42 -150 93 -187 154c-26 44 -43 103 -48 176c-4 60 11 123 44 189c29 57 65 106 110 148s96 85 153 127c-3 16 -8 46 -13 92c-4 43 -5 73 -5 89c0 117 16 172 69 257c34 54 64 82 89 82c21 0 43 -30 69 -92 s39 -115 41 -159c2 -120 -19 -173 -67 -256c-13 -20 -63 -90 -98 -118c-13 -9 -25 -19 -37 -29l31 -181c8 1 18 2 28 2c58 0 102 -12 133 -35c59 -43 92 -104 98 -184c11 -135 -80 -229 -180 -270c8 -57 17 -110 25 -162c5 -31 6 -58 6 -80c0 -30 -5 -53 -14 -70 c-35 -64 -88 -99 -158 -103c-42 -3 -83 6 -124 26c-50 24 -77 59 -80 105c-2 34 5 63 20 87c18 28 45 42 79 44c51 4 99 -40 103 -87c4 -56 -30 -94 -105 -115c17 -24 51 -36 102 -36c62 0 116 43 140 85c9 16 13 41 13 74c0 20 -1 42 -5 67c-8 53 -18 106 -26 159zM461 939 c-95 0 -135 -175 -135 -286c0 -24 2 -48 5 -71c50 39 92 82 127 128c43 57 63 106 60 148c-4 54 -23 82 -57 81zM406 119l54 -326c80 27 116 88 109 184c-7 99 -62 146 -163 142zM382 117c-74 -2 -132 -50 -128 -127c2 -46 43 -99 75 -115c-3 -2 -7 -5 -10 -10 c-70 33 -116 88 -123 172c-5 73 42 135 88 170c23 17 49 29 78 36l-29 170c-21 -13 -52 -37 -92 -73c-50 -44 -86 -84 -109 -119c-49 -75 -71 -140 -67 -195c5 -68 35 -127 93 -176s125 -73 203 -73c25 0 50 3 75 9c-19 111 -36 221 -54 331z" />
		</symbol>
		<symbol id="E082" viewBox="0 0 1000 1000" overflow="inherit">
			<path transform="scale(1,-1)" d="M104 -185c-18 0 -55 -14 -65 -65h-36l-3 29c0 25 6 46 18 64c11 19 22 30 39 43l121 82l37 29c15 11 27 29 38 54c12 24 18 47 18 70c0 40 -19 88 -94 88c-25 0 -32 0 -50 -8c-14 -5 -23 -12 -26 -22c3 -9 7 -15 10 -18l24 -17c12 -7 17 -11 27 -21c5 -7 7 -16 7 -27 c0 -12 0 -57 -79 -74c-30 0 -76 26 -76 94c0 66 80 135 196 135c72 0 182 -32 182 -150c0 -53 -32 -95 -113 -133l-91 -41c-26 -11 -45 -23 -57 -37l49 7c84 0 115 -41 148 -41c20 0 33 20 39 61h35c0 -152 -68 -168 -114 -168c-17 0 -55 0 -69 7v0l-28 17 c-49 37 -69 40 -87 42z" />
		</symbol>
		<symbol id="E084" viewBox="0 0 1000 1000" overflow="inherit">
			<path transform="scale(1,-1)" d="M0 -78c84 97 114 180 134 329h170c-13 -32 -82 -132 -99 -151l-84 -97c-33 -36 -59 -63 -80 -81h162v102l127 123v-225h57v-39h-57v-34c0 -43 19 -65 57 -65v-34h-244v36c48 0 60 26 60 70v27h-203v39z" />
		</symbol>
		<symbol id="E0A4" viewBox="0 0 1000 1000" overflow="inherit">
			<path transform="scale(1,-1)" d="M0 -39c0 68 73 172 200 172c66 0 114 -37 114 -95c0 -84 -106 -171 -218 -171c-64 0 -96 30 -96 94z" />
		</symbol>
		<symbol id="E062" viewBox="0 0 1000 1000" overflow="inherit">
			<path transform="scale(1,-1)" d="M158 96c51 0 73 -14 88 -49l16 -39c0 -17 -2 -30 -7 -40c-3 -11 -10 -21 -19 -31c-17 -18 -49 -43 -84 -43c-55 0 -77 13 -112 44c-24 21 -35 55 -35 100c0 46 14 81 32 112c30 52 71 79 137 93l36 6l26 2c154 0 235 -68 274 -182c11 -32 18 -68 18 -107 c0 -103 -26 -182 -68 -250c-89 -145 -234 -230 -412 -288l-30 -5c-9 0 -14 3 -14 8c3 10 5 11 10 16c35 15 70 30 96 44l78 43c96 57 162 136 197 258c9 33 17 60 22 100c3 22 5 35 6 39c-7 69 -16 115 -23 140s-4 22 -16 40c-8 12 -19 23 -31 34c-24 21 -62 44 -118 44 c-48 0 -84 -8 -113 -28c-28 -19 -42 -44 -42 -73v-16c2 -5 3 -9 4 -11c24 22 52 39 84 39zM585 -118c0 32 23 58 57 58c18 0 33 -6 40 -18c9 -15 16 -18 16 -40c0 -9 -2 -16 -5 -21c-6 -19 -27 -37 -51 -37c-34 0 -57 26 -57 58zM642 177c31 0 56 -27 56 -58 c0 -30 -25 -58 -56 -58l-23 3c-19 7 -34 32 -34 55l3 23c9 20 28 35 54 35z" />
		</symbol>
		<symbol id="E260" viewBox="0 0 1000 1000" overflow="inherit">
			<path transform="scale(1,-1)" d="M20 110c32 16 54 27 93 27c26 0 35 -3 54 -13c13 -7 24 -20 27 -38l4 -25c0 -28 -16 -57 -45 -89c-23 -25 -39 -44 -65 -68l-88 -79v644h20v-359zM90 106c-32 0 -48 -10 -70 -29v-194c31 31 54 59 71 84c21 32 32 59 32 84c0 9 1 16 1 20c0 14 -3 21 -11 30l-8 3z" />
		</symbol>
		<symbol id="E262" viewBox="0 0 1000 1000" overflow="inherit">
			<path transform="scale(1,-1)" d="M136 186v169h17v-164l44 14v-91l-44 -14v-165l44 12v-91l-44 -13v-155h-17v150l-76 -22v-155h-17v149l-43 -13v90l43 14v167l-43 -14v92l43 13v169h17v-163zM60 73v-167l76 22v168z" />
		</symbol>
		<symbol id="E261" viewBox="0 0 1000 1000" overflow="inherit">
			<path transform="scale(1,-1)" d="M0 -188v539h18v-191l139 22v-533h-17v186zM18 -100l122 17v176l-122 -19v-174z" />
		</symbol>
	</defs>
	<style type="text/css">g.page-margin{font-family:Times;} g.tempo{font-weight:bold;} g.dir, g.dynam, g.mNum{font-style:italic;} g.label{font-weight:normal;}</style>
	<svg class="definition-scale" viewBox="0 0 21000 4500">
		<g class="page-margin" transform="translate(500, 500)">
			<g class="system" id="system-0000000507847735">
				<path d="M13 720 L13 3225" stroke="#000000" stroke-width="27" />
				<path d="M-32,3207 C-392,2667 58,2153 -212,1973 C121,2153 -329,2667 -32,3207" stroke="#000000" stroke-linecap="round" stroke-linejoin="round" stroke-width="18" />
				<path d="M-32,738 C-329,1278 121,1793 -212,1973 C58,1793 -392,1278 -32,738" stroke="#000000" stroke-linecap="round" stroke-linejoin="round" stroke-width="18" />
				<g class="section boundaryStart" id="section-L1F1" />
				<g class="measure" id="measure-L4">
					<g class="staff" id="staff-L4F2N1">
						<path d="M0 720 L4531 720" stroke="#000000" stroke-width="13" />
						<path d="M0 900 L4531 900" stroke="#000000" stroke-width="13" />
						<path d="M0 1080 L4531 1080" stroke="#000000" stroke-width="13" />
						<path d="M0 1260 L4531 1260" stroke="#000000" stroke-width="13" />
						<path d="M0 1440 L4531 1440" stroke="#000000" stroke-width="13" />
						<g class="clef" id="clef-0000000540039776">
							<use xlink:href="#E050" x="90" y="1260" height="720px" width="720px" />
						</g>
						<g class="meterSig" id="msig-0000001182623010">
							<use xlink:href="#E082" x="771" y="900" height="720px" width="720px" />
							<use xlink:href="#E084" x="777" y="1260" height="720px" width="720px" />
						</g>
						<g class="ledgerLines below">
							<path d="M2503 1620 L2782 1620" stroke="#000000" stroke-width="22" />
							<path d="M3290 1620 L3569 1620" stroke="#000000" stroke-width="22" />
							<path d="M4076 1620 L4355 1620" stroke="#000000" stroke-width="22" />
						</g>
						<g class="layer" id="layer-L4F2N1">
							<g class="beam" id="beam-L5F2-L8F2">
								<polygon points="1583,636 2760,752 2760,842 1583,726 " />
								<polygon points="1583,771 1741,786 1741,876 1583,861 " />
								<polygon points="2602,872 2760,887 2760,977 2602,962 " />
								<g class="note" id="note-L5F2">
									<use xlink:href="#E0A4" x="1375" y="1440" height="720px" width="720px" />
									<g class="stem">
										<rect x="1583" y="654" height="764" width="18" />
									</g>
									<g class="accid" id="accid-0000001692155547" />
								</g>
								<g class="note" id="note-L6F2">
									<use xlink:href="#E0A4" x="1768" y="1350" height="720px" width="720px" />
									<g class="stem">
										<rect x="1976" y="694" height="634" width="18" />
									</g>
									<g class="accid" id="accid-0000001817994344" />
								</g>
								<g class="note" id="note-L8F2">
									<use xlink:href="#E0A4" x="2534" y="1620" height="720px" width="720px" />
									<g class="stem">
										<rect x="2742" y="770" height="828" width="18" />
									</g>
									<g class="accid" id="accid-0000001860894418" />
								</g>
							</g>
							<g class="beam" id="beam-L9F2-L12F2">
								<polygon points="3136,675 4333,675 4333,765 3136,765 " />
								<polygon points="3136,810 4333,810 4333,900 3136,900 " />
								<g class="note" id="note-L9F2">
									<use xlink:href="#E0A4" x="2928" y="1530" height="720px" width="720px" />
									<g class="stem">
										<rect x="3136" y="693" height="815" width="18" />
									</g>
									<g class="accid" id="accid-0000000609517792" />
								</g>
								<g class="note" id="note-L10F2">
									<use xlink:href="#E0A4" x="3321" y="1620" height="720px" width="720px" />
									<g class="stem">
										<rect x="3529" y="693" height="905" width="18" />
									</g>
									<g class="accid" id="accid-0000000415723774" />
								</g>
								<g class="note" id="note-L11F2">
									<use xlink:href="#E0A4" x="3714" y="1350" height="720px" width="720px" />
									<g class="stem">
										<rect x="3922" y="693" height="635" width="18" />
									</g>
									<g class="accid" id="accid-0000001525764631" />
								</g>
								<g class="note" id="note-L12F2">
									<use xlink:href="#E0A4" x="4107" y="1620" height="720px" width="720px" />
									<g class="stem">
										<rect x="4315" y="693" height="905" width="18" />
									</g>
									<g class="accid" id="accid-0000001693965631" />
								</g>
							</g>
						</g>
					</g>
					<g class="staff" id="staff-L4F1N1">
						<path d="M0 2505 L4531 2505" stroke="#000000" stroke-width="13" />
						<path d="M0 2685 L4531 2685" stroke="#000000" stroke-width="13" />
						<path d="M0 2865 L4531 2865" stroke="#000000" stroke-width="13" />
						<path d="M0 3045 L4531 3045" stroke="#000000" stroke-width="13" />
						<path d="M0 3225 L4531 3225" stroke="#000000" stroke-width="13" />
						<g class="clef" id="clef-0000001383776085">
							<use xlink:href="#E062" x="90" y="2685" height="720px" width="720px" />
						</g>
						<g class="meterSig" id="msig-0000002024247232">
							<use xlink:href="#E082" x="771" y="2685" height="720px" width="720px" />
							<use xlink:href="#E084" x="777" y="3045" height="720px" width="720px" />
						</g>
						<g class="layer" id="layer-L4F1N1">
							<g class="beam" id="beam-L5F1-L8F1">
								<polygon points="1375,3630 2552,3514 2552,3424 1375,3540 " />
								<polygon points="2150,3418 2552,3379 2552,3289 2150,3328 " />
								<g class="note" id="note-L5F1">
									<use xlink:href="#E0A4" x="1375" y="2955" height="720px" width="720px" />
									<g class="stem">
										<rect x="1375" y="2977" height="635" width="18" />
									</g>
									<g class="accid" id="accid-0000001071663147" />
								</g>
								<g class="note" id="note-L7F1">
									<use xlink:href="#E0A4" x="2141" y="2505" height="720px" width="720px" />
									<g class="stem">
										<rect x="2141" y="2527" height="1008" width="18" />
									</g>
									<g class="accid" id="accid-0000002127994850" />
								</g>
								<g class="note" id="note-L8F1">
									<use xlink:href="#E0A4" x="2534" y="2595" height="720px" width="720px" />
									<g class="stem">
										<rect x="2534" y="2617" height="879" width="18" />
									</g>
									<g class="accid" id="accid-0000001608570105" />
								</g>
							</g>
							<g class="beam" id="beam-L9F1-L12F1">
								<polygon points="2928,3431 4125,3489 4125,3399 2928,3341 " />
								<polygon points="2928,3296 3086,3303 3086,3213 2928,3206 " />
								<polygon points="3967,3346 4125,3354 4125,3264 3967,3256 " />
								<g class="note" id="note-L9F1">
									<use xlink:href="#E0A4" x="2928" y="2595" height="720px" width="720px" />
									<g class="stem">
										<rect x="2928" y="2617" height="796" width="18" />
									</g>
									<g class="accid" id="accid-0000000991758261" />
								</g>
								<g class="note" id="note-L10F1">
									<use xlink:href="#E0A4" x="3321" y="2775" height="720px" width="720px" />
									<g class="stem">
										<rect x="3321" y="2797" height="635" width="18" />
									</g>
									<g class="accid" id="accid-0000000052941853" />
								</g>
								<g class="note" id="note-L12F1">
									<use xlink:href="#E0A4" x="4107" y="2685" height="720px" width="720px" />
									<g class="stem">
										<rect x="4107" y="2707" height="764" width="18" />
									</g>
									<g class="accid" id="accid-0000000523600859" />
								</g>
							</g>
						</g>
					</g>
					<g class="tie" id="tie-L8F1-L9F1">
						<path d="M2647,2460 C2745,2318 2941,2318 3041,2460 C2941,2362 2745,2362 2647,2460" stroke="#000000" stroke-linecap="round" stroke-linejoin="round" stroke-width="9" />
					</g>
					<g class="tie" id="tie-L12F2-L14F2">
						<path d="M4355,1665 C4510,1763 4820,1763 4977,1665 C4820,1807 4510,1807 4355,1665" stroke="#000000" stroke-linecap="round" stroke-linejoin="round" stroke-width="9" />
					</g>
					<g class="mNum autogenerated" id="mnum-0000002058422378" />
					<g class="barLineAttr" id="bline-0000001198507744">
						<path d="M4518 3225 L4518 720" stroke="#000000" stroke-width="27" />
					</g>
				</g>
				<g class="measure" id="measure-L13">
					<g class="staff" id="staff-L13F2N1">
						<path d="M4531 720 L8644 720" stroke="#000000" stroke-width="13" />
						<path d="M4531 900 L8644 900" stroke="#000000" stroke-width="13" />
						<path d="M4531 1080 L8644 1080" stroke="#000000" stroke-width="13" />
						<path d="M4531 1260 L8644 1260" stroke="#000000" stroke-width="13" />
						<path d="M4531 1440 L8644 1440" stroke="#000000" stroke-width="13" />
						<g class="ledgerLines below">
							<path d="M4968 1620 L5247 1620" stroke="#000000" stroke-width="22" />
						</g>
						<g class="layer" id="layer-L13F2N1">
							<g class="beam" id="beam-L14F2-L17F2">
								<polygon points="5207,802 6649,722 6649,812 5207,892 " />
								<polygon points="5207,937 5365,929 5365,1019 5207,1027 " />
								<polygon points="6491,865 6649,857 6649,947 6491,955 " />
								<g class="note" id="note-L14F2">
									<use xlink:href="#E0A4" x="4999" y="1620" height="720px" width="720px" />
									<g class="stem">
										<rect x="5207" y="820" height="778" width="18" />
									</g>
									<g class="accid" id="accid-0000000521317105" />
								</g>
								<g class="note" id="note-L15F2">
									<use xlink:href="#E0A4" x="5637" y="1440" height="720px" width="720px" />
									<g class="stem">
										<rect x="5845" y="784" height="634" width="18" />
									</g>
									<g class="accid" id="accid-0000001960435139">
										<use xlink:href="#E260" x="5441" y="1440" height="720px" width="720px" />
									</g>
								</g>
								<g class="note" id="note-L17F2">
									<use xlink:href="#E0A4" x="6423" y="1530" height="720px" width="720px" />
									<g class="stem">
										<rect x="6631" y="740" height="768" width="18" />
									</g>
									<g class="accid" id="accid-0000002109259864" />
								</g>
							</g>
							<g class="beam" id="beam-L18F2-L20F2">
								<polygon points="7268,665 8073,586 8073,676 7268,755 " />
								<polygon points="7268,800 7670,760 7670,850 7268,890 " />
								<g class="note" id="note-L18F2">
									<use xlink:href="#E0A4" x="7060" y="1530" height="720px" width="720px" />
									<g class="stem">
										<rect x="7268" y="683" height="825" width="18" />
									</g>
									<g class="accid" id="accid-0000000280830659" />
								</g>
								<g class="note" id="note-L19F2">
									<use xlink:href="#E0A4" x="7453" y="1440" height="720px" width="720px" />
									<g class="stem">
										<rect x="7661" y="643" height="775" width="18" />
									</g>
									<g class="accid" id="accid-0000001562611670" />
								</g>
								<g class="note" id="note-L20F2">
									<use xlink:href="#E0A4" x="7847" y="1260" height="720px" width="720px" />
									<g class="stem">
										<rect x="8055" y="604" height="634" width="18" />
									</g>
									<g class="accid" id="accid-0000001714763976" />
								</g>
							</g>
						</g>
					</g>
					<g class="staff" id="staff-L13F1N1">
						<path d="M4531 2505 L8644 2505" stroke="#000000" stroke-width="13" />
						<path d="M4531 2685 L8644 2685" stroke="#000000" stroke-width="13" />
						<path d="M4531 2865 L8644 2865" stroke="#000000" stroke-width="13" />
						<path d="M4531 3045 L8644 3045" stroke="#000000" stroke-width="13" />
						<path d="M4531 3225 L8644 3225" stroke="#000000" stroke-width="13" />
						<g class="layer" id="layer-L13F1N1">
							<g class="beam" id="beam-L14F1-L17F1">
								<polygon points="4999,3457 6441,3323 6441,3233 4999,3367 " />
								<polygon points="4999,3322 6441,3188 6441,3098 4999,3232 " />
								<g class="note" id="note-L14F1">
									<use xlink:href="#E0A4" x="4999" y="2775" height="720px" width="720px" />
									<g class="stem">
										<rect x="4999" y="2797" height="642" width="18" />
									</g>
									<g class="accid" id="accid-0000000660194978">
										<use xlink:href="#E260" x="4803" y="2775" height="720px" width="720px" />
									</g>
								</g>
								<g class="note" id="note-L15F1">
									<use xlink:href="#E0A4" x="5637" y="2505" height="720px" width="720px" />
									<g class="stem">
										<rect x="5637" y="2527" height="852" width="18" />
									</g>
									<g class="accid" id="accid-0000000320718733">
										<use xlink:href="#E260" x="5441" y="2505" height="720px" width="720px" />
									</g>
								</g>
								<g class="note" id="note-L16F1">
									<use xlink:href="#E0A4" x="6030" y="2685" height="720px" width="720px" />
									<g class="stem">
										<rect x="6030" y="2707" height="635" width="18" />
									</g>
									<g class="accid" id="accid-0000001621132613" />
								</g>
								<g class="note" id="note-L17F1">
									<use xlink:href="#E0A4" x="6423" y="2595" height="720px" width="720px" />
									<g class="stem">
										<rect x="6423" y="2617" height="688" width="18" />
									</g>
									<g class="accid" id="accid-0000000431153531" />
								</g>
							</g>
							<g class="beam" id="beam-L18F1-L21F1">
								<polygon points="7060,3091 8238,3181 8238,3091 7060,3001 " />
								<polygon points="8080,3035 8238,3046 8238,2956 8080,2945 " />
								<g class="note" id="note-L18F1">
									<use xlink:href="#E0A4" x="7060" y="2415" height="720px" width="720px" />
									<g class="dots" id="dots-0000000930633111">
										<ellipse cx="7376" cy="2415" rx="36" ry="36" />
									</g>
									<g class="stem">
										<rect x="7060" y="2437" height="636" width="18" />
									</g>
									<g class="accid" id="accid-0000001517801169">
										<use xlink:href="#E260" x="6864" y="2415" height="720px" width="720px" />
									</g>
								</g>
								<g class="note" id="note-L21F1">
									<use xlink:href="#E0A4" x="8220" y="2505" height="720px" width="720px" />
									<g class="stem">
										<rect x="8220" y="2527" height="636" width="18" />
									</g>
									<g class="accid" id="accid-0000001312911505" />
								</g>
							</g>
						</g>
					</g>
					<g class="tie" id="tie-L17F2-L18F2">
						<path d="M6671,1575 C6762,1673 6944,1673 7038,1575 C6944,1717 6762,1717 6671,1575" stroke="#000000" stroke-linecap="round" stroke-linejoin="round" stroke-width="9" />
					</g>
					<g class="mNum autogenerated" id="mnum-0000001431333200" />
					<g class="barLineAttr" id="bline-0000000433737961">
						<path d="M8631 3225 L8631 720" stroke="#000000" stroke-width="27" />
					</g>
				</g>
				<g class="measure" id="measure-L22">
					<g class="staff" id="staff-L22F2N1">
						<path d="M8644 720 L12755 720" stroke="#000000" stroke-width="13" />
						<path d="M8644 900 L12755 900" stroke="#000000" stroke-width="13" />
						<path d="M8644 1080 L12755 1080" stroke="#000000" stroke-width="13" />
						<path d="M8644 1260 L12755 1260" stroke="#000000" stroke-width="13" />
						<path d="M8644 1440 L12755 1440" stroke="#000000" stroke-width="13" />
						<g class="ledgerLines below">
							<path d="M10241 1620 L10520 1620" stroke="#000000" stroke-width="22" />
							<path d="M11514 1620 L11793 1620" stroke="#000000" stroke-width="22" />
							<path d="M12301 1620 L12580 1620" stroke="#000000" stroke-width="22" />
						</g>
						<g class="layer" id="layer-L22F2N1">
							<g class="beam" id="beam-L23F2-L26F2">
								<polygon points="9320,636 10498,752 10498,842 9320,726 " />
								<polygon points="9320,771 9478,786 9478,876 9320,861 " />
								<polygon points="10340,872 10498,887 10498,977 10340,962 " />
								<g class="note" id="note-L23F2">
									<use xlink:href="#E0A4" x="9112" y="1530" height="720px" width="720px" />
									<g class="stem">
										<rect x="9320" y="654" height="854" width="18" />
									</g>
									<g class="accid" id="accid-0000001559219870">
										<use xlink:href="#E260" x="8916" y="1530" height="720px" width="720px" />
									</g>
								</g>
								<g class="note" id="note-L24F2">
									<use xlink:href="#E0A4" x="9506" y="1350" height="720px" width="720px" />
									<g class="stem">
										<rect x="9714" y="694" height="634" width="18" />
									</g>
									<g class="accid" id="accid-0000001994314826" />
								</g>
								<g class="note" id="note-L26F2">
									<use xlink:href="#E0A4" x="10272" y="1710" height="720px" width="720px" />
									<g class="stem">
										<rect x="10480" y="770" height="918" width="18" />
									</g>
									<g class="accid" id="accid-0000000157117307">
										<use xlink:href="#E260" x="10076" y="1710" height="720px" width="720px" />
									</g>
								</g>
							</g>
							<g class="beam" id="beam-L27F2-L30F2">
								<polygon points="11117,573 12558,716 12558,806 11117,663 " />
								<polygon points="11117,708 12558,851 12558,941 11117,798 " />
								<g class="note" id="note-L27F2">
									<use xlink:href="#E0A4" x="10909" y="1440" height="720px" width="720px" />
									<g class="stem">
										<rect x="11117" y="591" height="827" width="18" />
									</g>
									<g class="accid" id="accid-0000000812072980">
										<use xlink:href="#E260" x="10713" y="1440" height="720px" width="720px" />
									</g>
								</g>
								<g class="note" id="note-L28F2">
									<use xlink:href="#E0A4" x="11545" y="1710" height="720px" width="720px" />
									<g class="stem">
										<rect x="11753" y="655" height="1033" width="18" />
									</g>
									<g class="accid" id="accid-0000001288553919" />
								</g>
								<g class="note" id="note-L29F2">
									<use xlink:href="#E0A4" x="11939" y="1350" height="720px" width="720px" />
									<g class="stem">
										<rect x="12147" y="694" height="634" width="18" />
									</g>
									<g class="accid" id="accid-0000000877179627" />
								</g>
								<g class="note" id="note-L30F2">
									<use xlink:href="#E0A4" x="12332" y="1710" height="720px" width="720px" />
									<g class="stem">
										<rect x="12540" y="734" height="954" width="18" />
									</g>
									<g class="accid" id="accid-0000002018264374" />
								</g>
							</g>
						</g>
					</g>
					<g class="staff" id="staff-L22F1N1">
						<path d="M8644 2505 L12755 2505" stroke="#000000" stroke-width="13" />
						<path d="M8644 2685 L12755 2685" stroke="#000000" stroke-width="13" />
						<path d="M8644 2865 L12755 2865" stroke="#000000" stroke-width="13" />
						<path d="M8644 3045 L12755 3045" stroke="#000000" stroke-width="13" />
						<path d="M8644 3225 L12755 3225" stroke="#000000" stroke-width="13" />
						<g class="layer" id="layer-L22F1N1">
							<g class="beam" id="beam-L23F1-L26F1">
								<polygon points="9320,1998 10498,1882 10498,1972 9320,2088 " />
								<polygon points="10096,2056 10498,2017 10498,2107 10096,2146 " />
								<g class="note" id="note-L23F1">
									<use xlink:href="#E0A4" x="9112" y="3315" height="720px" width="720px" />
									<g class="stem">
										<rect x="9320" y="2016" height="1277" width="18" />
									</g>
									<g class="accid" id="accid-0000001939996122">
										<use xlink:href="#E262" x="8917" y="3315" height="720px" width="720px" />
									</g>
								</g>
								<g class="note" id="note-L25F1">
									<use xlink:href="#E0A4" x="9879" y="2595" height="720px" width="720px" />
									<g class="stem">
										<rect x="10087" y="1939" height="634" width="18" />
									</g>
									<g class="accid" id="accid-0000001920280072">
										<use xlink:href="#E262" x="9684" y="2595" height="720px" width="720px" />
									</g>
								</g>
								<g class="note" id="note-L26F1">
									<use xlink:href="#E0A4" x="10272" y="3315" height="720px" width="720px" />
									<g class="stem">
										<rect x="10480" y="1900" height="1393" width="18" />
									</g>
									<g class="accid" id="accid-0000000614781657" />
								</g>
							</g>
							<g class="beam" id="beam-L27F1-L30F1">
								<polygon points="11117,2244 12558,2101 12558,2191 11117,2334 " />
								<polygon points="11117,2379 11275,2364 11275,2454 11117,2469 " />
								<polygon points="12400,2251 12558,2236 12558,2326 12400,2341 " />
								<g class="note" id="note-L27F1">
									<use xlink:href="#E0A4" x="10909" y="3315" height="720px" width="720px" />
									<g class="stem">
										<rect x="11117" y="2262" height="1031" width="18" />
									</g>
									<g class="accid" id="accid-0000000036682037" />
								</g>
								<g class="note" id="note-L28F1">
									<use xlink:href="#E0A4" x="11545" y="2955" height="720px" width="720px" />
									<g class="stem">
										<rect x="11753" y="2198" height="735" width="18" />
									</g>
									<g class="accid" id="accid-0000000024837335">
										<use xlink:href="#E262" x="11350" y="2955" height="720px" width="720px" />
									</g>
								</g>
								<g class="note" id="note-L30F1">
									<use xlink:href="#E0A4" x="12332" y="2775" height="720px" width="720px" />
									<g class="stem">
										<rect x="12540" y="2119" height="634" width="18" />
									</g>
									<g class="accid" id="accid-0000000234657359">
										<use xlink:href="#E262" x="12137" y="2775" height="720px" width="720px" />
									</g>
								</g>
							</g>
						</g>
					</g>
					<g class="tie" id="tie-L26F1-L27F1">
						<path d="M10520,3360 C10611,3458 10793,3458 10887,3360 C10793,3502 10611,3502 10520,3360" stroke="#000000" stroke-linecap="round" stroke-linejoin="round" stroke-width="9" />
					</g>
					<g class="tie" id="tie-L30F2-L32F2">
						<path d="M12580,1755 C12674,1853 12862,1853 12958,1755 C12862,1897 12674,1897 12580,1755" stroke="#000000" stroke-linecap="round" stroke-linejoin="round" stroke-width="9" />
					</g>
					<g class="mNum autogenerated" id="mnum-0000000480779059" />
					<g class="barLineAttr" id="bline-0000001551514813">
						<path d="M12742 3225 L12742 720" stroke="#000000" stroke-width="27" />
					</g>
				</g>
				<g class="measure" id="measure-L31">
					<g class="staff" id="staff-L31F2N1">
						<path d="M12755 720 L16621 720" stroke="#000000" stroke-width="13" />
						<path d="M12755 900 L16621 900" stroke="#000000" stroke-width="13" />
						<path d="M12755 1080 L16621 1080" stroke="#000000" stroke-width="13" />
						<path d="M12755 1260 L16621 1260" stroke="#000000" stroke-width="13" />
						<path d="M12755 1440 L16621 1440" stroke="#000000" stroke-width="13" />
						<g class="ledgerLines below">
							<path d="M12949 1620 L13228 1620" stroke="#000000" stroke-width="22" />
							<path d="M13584 1620 L13863 1620" stroke="#000000" stroke-width="22" />
							<path d="M14614 1620 L14893 1620" stroke="#000000" stroke-width="22" />
							<path d="M15007 1620 L15286 1620" stroke="#000000" stroke-width="22" />
							<path d="M15400 1620 L15679 1620" stroke="#000000" stroke-width="22" />
						</g>
						<g class="layer" id="layer-L31F2N1">
							<g class="beam" id="beam-L32F2-L35F2">
								<polygon points="13188,940 14871,954 14871,1044 13188,1030 " />
								<polygon points="13188,1075 13346,1077 13346,1167 13188,1165 " />
								<polygon points="14713,1088 14871,1089 14871,1179 14713,1178 " />
								<g class="note" id="note-L32F2">
									<use xlink:href="#E0A4" x="12980" y="1710" height="720px" width="720px" />
									<g class="stem">
										<rect x="13188" y="958" height="730" width="18" />
									</g>
									<g class="accid" id="accid-0000000923028521" />
								</g>
								<g class="note" id="note-L33F2">
									<use xlink:href="#E0A4" x="13615" y="1620" height="720px" width="720px" />
									<g class="stem">
										<rect x="13823" y="964" height="634" width="18" />
									</g>
									<g class="accid" id="accid-0000000097491619">
										<use xlink:href="#E262" x="13420" y="1620" height="720px" width="720px" />
									</g>
								</g>
								<g class="note" id="note-L35F2">
									<use xlink:href="#E0A4" x="14645" y="1710" height="720px" width="720px" />
									<g class="stem">
										<rect x="14853" y="972" height="716" width="18" />
									</g>
									<g class="accid" id="accid-L35F2">
										<use xlink:href="#E261" x="14478" y="1710" height="720px" width="720px" />
									</g>
								</g>
							</g>
							<g class="beam" id="beam-L36F2-L38F2">
								<polygon points="15246,845 16050,766 16050,856 15246,935 " />
								<polygon points="15246,980 15648,940 15648,1030 15246,1070 " />
								<g class="note" id="note-L36F2">
									<use xlink:href="#E0A4" x="15038" y="1710" height="720px" width="720px" />
									<g class="stem">
										<rect x="15246" y="863" height="825" width="18" />
									</g>
									<g class="accid" id="accid-0000001128437690" />
								</g>
								<g class="note" id="note-L37F2">
									<use xlink:href="#E0A4" x="15431" y="1620" height="720px" width="720px" />
									<g class="stem">
										<rect x="15639" y="823" height="775" width="18" />
									</g>
									<g class="accid" id="accid-0000001717952351" />
								</g>
								<g class="note" id="note-L38F2">
									<use xlink:href="#E0A4" x="15824" y="1440" height="720px" width="720px" />
									<g class="stem">
										<rect x="16032" y="784" height="634" width="18" />
									</g>
									<g class="accid" id="accid-0000000828697555" />
								</g>
							</g>
						</g>
					</g>
					<g class="staff" id="staff-L31F1N1">
						<path d="M12755 2505 L16621 2505" stroke="#000000" stroke-width="13" />
						<path d="M12755 2685 L16621 2685" stroke="#000000" stroke-width="13" />
						<path d="M12755 2865 L16621 2865" stroke="#000000" stroke-width="13" />
						<path d="M12755 3045 L16621 3045" stroke="#000000" stroke-width="13" />
						<path d="M12755 3225 L16621 3225" stroke="#000000" stroke-width="13" />
						<g class="layer" id="layer-L31F1N1">
							<g class="beam" id="beam-L32F1-L35F1">
								<polygon points="12980,3810 14663,3643 14663,3553 12980,3720 " />
								<polygon points="12980,3675 14663,3508 14663,3418 12980,3585 " />
								<g class="note" id="note-L32F1">
									<use xlink:href="#E0A4" x="12980" y="3135" height="720px" width="720px" />
									<g class="stem">
										<rect x="12980" y="3157" height="635" width="18" />
									</g>
									<g class="accid" id="accid-0000000059204321" />
								</g>
								<g class="note" id="note-L33F1">
									<use xlink:href="#E0A4" x="13615" y="2595" height="720px" width="720px" />
									<g class="stem">
										<rect x="13615" y="2617" height="1111" width="18" />
									</g>
									<g class="accid" id="accid-0000000929555494">
										<use xlink:href="#E262" x="13420" y="2595" height="720px" width="720px" />
									</g>
								</g>
								<g class="note" id="note-L34F1">
									<use xlink:href="#E0A4" x="14251" y="2685" height="720px" width="720px" />
									<g class="stem">
										<rect x="14251" y="2707" height="957" width="18" />
									</g>
									<g class="accid" id="accid-0000001368136575">
										<use xlink:href="#E262" x="14056" y="2685" height="720px" width="720px" />
									</g>
								</g>
								<g class="note" id="note-L35F1">
									<use xlink:href="#E0A4" x="14645" y="2775" height="720px" width="720px" />
									<g class="stem">
										<rect x="14645" y="2797" height="828" width="18" />
									</g>
									<g class="accid" id="accid-0000002047125449" />
								</g>
							</g>
							<g class="beam" id="beam-L36F1-L39F1">
								<polygon points="15038,3810 16216,3694 16216,3604 15038,3720 " />
								<polygon points="16058,3573 16216,3559 16216,3469 16058,3483 " />
								<g class="note" id="note-L36F1">
									<use xlink:href="#E0A4" x="15038" y="3135" height="720px" width="720px" />
									<g class="dots" id="dots-0000001203545114">
										<ellipse cx="15354" cy="3135" rx="36" ry="36" />
									</g>
									<g class="stem">
										<rect x="15038" y="3157" height="635" width="18" />
									</g>
									<g class="accid" id="accid-0000000999217829" />
								</g>
								<g class="note" id="note-L39F1">
									<use xlink:href="#E0A4" x="16198" y="2595" height="720px" width="720px" />
									<g class="stem">
										<rect x="16198" y="2617" height="1059" width="18" />
									</g>
									<g class="accid" id="accid-0000000214483180" />
								</g>
							</g>
						</g>
					</g>
					<g class="tie" id="tie-L35F2-L36F2">
						<path d="M14758,1845 C14856,1943 15052,1943 15151,1845 C15052,1987 14856,1987 14758,1845" stroke="#000000" stroke-linecap="round" stroke-linejoin="round" stroke-width="9" />
					</g>
					<g class="mNum autogenerated" id="mnum-0000000013771433" />
					<g class="barLineAttr" id="bline-0000001449087112">
						<path d="M16608 3225 L16608 720" stroke="#000000" stroke-width="27" />
					</g>
				</g>
				<g class="measure" id="measure-L40">
					<g class="staff" id="staff-L40F2N1">
						<path d="M16621 720 L20002 720" stroke="#000000" stroke-width="13" />
						<path d="M16621 900 L20002 900" stroke="#000000" stroke-width="13" />
						<path d="M16621 1080 L20002 1080" stroke="#000000" stroke-width="13" />
						<path d="M16621 1260 L20002 1260" stroke="#000000" stroke-width="13" />
						<path d="M16621 1440 L20002 1440" stroke="#000000" stroke-width="13" />
						<g class="ledgerLines below">
							<path d="M17974 1620 L18253 1620" stroke="#000000" stroke-width="22" />
							<path d="M18761 1620 L19040 1620" stroke="#000000" stroke-width="22" />
							<path d="M19547 1620 L19826 1620" stroke="#000000" stroke-width="22" />
						</g>
						<g class="layer" id="layer-L40F2N1">
							<g class="beam" id="beam-L41F2-L44F2">
								<polygon points="17054,636 18231,752 18231,842 17054,726 " />
								<polygon points="17054,771 17212,786 17212,876 17054,861 " />
								<polygon points="18073,872 18231,887 18231,977 18073,962 " />
								<g class="note" id="note-L41F2">
									<use xlink:href="#E0A4" x="16846" y="1440" height="720px" width="720px" />
									<g class="stem">
										<rect x="17054" y="654" height="764" width="18" />
									</g>
									<g class="accid" id="accid-0000001057311873" />
								</g>
								<g class="note" id="note-L42F2">
									<use xlink:href="#E0A4" x="17239" y="1350" height="720px" width="720px" />
									<g class="stem">
										<rect x="17447" y="694" height="634" width="18" />
									</g>
									<g class="accid" id="accid-0000000326263522" />
								</g>
								<g class="note" id="note-L44F2">
									<use xlink:href="#E0A4" x="18005" y="1620" height="720px" width="720px" />
									<g class="stem">
										<rect x="18213" y="770" height="828" width="18" />
									</g>
									<g class="accid" id="accid-0000000076620624" />
								</g>
							</g>
							<g class="beam" id="beam-L45F2-L48F2">
								<polygon points="18607,675 19804,675 19804,765 18607,765 " />
								<polygon points="18607,810 19804,810 19804,900 18607,900 " />
								<g class="note" id="note-L45F2">
									<use xlink:href="#E0A4" x="18399" y="1530" height="720px" width="720px" />
									<g class="stem">
										<rect x="18607" y="693" height="815" width="18" />
									</g>
									<g class="accid" id="accid-0000000610539255" />
								</g>
								<g class="note" id="note-L46F2">
									<use xlink:href="#E0A4" x="18792" y="1620" height="720px" width="720px" />
									<g class="stem">
										<rect x="19000" y="693" height="905" width="18" />
									</g>
									<g class="accid" id="accid-0000000380698494" />
								</g>
								<g class="note" id="note-L47F2">
									<use xlink:href="#E0A4" x="19185" y="1350" height="720px" width="720px" />
									<g class="stem">
										<rect x="19393" y="693" height="635" width="18" />
									</g>
									<g class="accid" id="accid-0000001825778667" />
								</g>
								<g class="note" id="note-L48F2">
									<use xlink:href="#E0A4" x="19578" y="1620" height="720px" width="720px" />
									<g class="stem">
										<rect x="19786" y="693" height="905" width="18" />
									</g>
									<g class="accid" id="accid-0000001065492194" />
								</g>
							</g>
						</g>
					</g>
					<g class="staff" id="staff-L40F1N1">
						<path d="M16621 2505 L20002 2505" stroke="#000000" stroke-width="13" />
						<path d="M16621 2685 L20002 2685" stroke="#000000" stroke-width="13" />
						<path d="M16621 2865 L20002 2865" stroke="#000000" stroke-width="13" />
						<path d="M16621 3045 L20002 3045" stroke="#000000" stroke-width="13" />
						<path d="M16621 3225 L20002 3225" stroke="#000000" stroke-width="13" />
						<g class="layer" id="layer-L40F1N1">
							<g class="beam" id="beam-L41F1-L44F1">
								<polygon points="16846,3630 18023,3514 18023,3424 16846,3540 " />
								<polygon points="17621,3418 18023,3379 18023,3289 17621,3328 " />
								<g class="note" id="note-L41F1">
									<use xlink:href="#E0A4" x="16846" y="2955" height="720px" width="720px" />
									<g class="stem">
										<rect x="16846" y="2977" height="635" width="18" />
									</g>
									<g class="accid" id="accid-0000001463748616" />
								</g>
								<g class="note" id="note-L43F1">
									<use xlink:href="#E0A4" x="17612" y="2505" height="720px" width="720px" />
									<g class="stem">
										<rect x="17612" y="2527" height="1008" width="18" />
									</g>
									<g class="accid" id="accid-0000000743589399" />
								</g>
								<g class="note" id="note-L44F1">
									<use xlink:href="#E0A4" x="18005" y="2595" height="720px" width="720px" />
									<g class="stem">
										<rect x="18005" y="2617" height="879" width="18" />
									</g>
									<g class="accid" id="accid-0000001784916063" />
								</g>
							</g>
							<g class="beam" id="beam-L45F1-L48F1">
								<polygon points="18399,3431 19596,3489 19596,3399 18399,3341 " />
								<polygon points="18399,3296 18557,3303 18557,3213 18399,3206 " />
								<polygon points="19438,3346 19596,3354 19596,3264 19438,3256 " />
								<g class="note" id="note-L45F1">
									<use xlink:href="#E0A4" x="18399" y="2595" height="720px" width="720px" />
									<g class="stem">
										<rect x="18399" y="2617" height="796" width="18" />
									</g>
									<g class="accid" id="accid-0000001877341427" />
								</g>
								<g class="note" id="note-L46F1">
									<use xlink:href="#E0A4" x="18792" y="2775" height="720px" width="720px" />
									<g class="stem">
										<rect x="18792" y="2797" height="635" width="18" />
									</g>
									<g class="accid" id="accid-0000001926540637" />
								</g>
								<g class="note" id="note-L48F1">
									<use xlink:href="#E0A4" x="19578" y="2685" height="720px" width="720px" />
									<g class="stem">
										<rect x="19578" y="2707" height="764" width="18" />
									</g>
									<g class="accid" id="accid-0000000341249195" />
								</g>
							</g>
						</g>
					</g>
					<g class="tie" id="tie-L44F1-L45F1">
						<path d="M18118,2460 C18216,2318 18412,2318 18512,2460 C18412,2362 18216,2362 18118,2460" stroke="#000000" stroke-linecap="round" stroke-linejoin="round" stroke-width="9" />
					</g>
					<g class="tie" id="tie-L48F2-L50F2">
						<path d="M19691,1755 C19765,1853 19913,1853 19989,1755 C19913,1897 19765,1897 19691,1755" stroke="#000000" stroke-linecap="round" stroke-linejoin="round" stroke-width="9" />
					</g>
					<g class="mNum autogenerated" id="mnum-0000001796116256" />
					<g class="barLineAttr" id="bline-0000001384692732">
						<path d="M19989 3225 L19989 720" stroke="#000000" stroke-width="27" />
					</g>
				</g>
			</g>
		</g>
	</svg>
</svg>
