<?xml version="1.0" encoding="UTF-8" standalone="no"?>
<svg width="2100.00px" height="450.00px" version="1.1" xmlns="http://www.w3.org/2000/svg" xmlns:xlink="http://www.w3.org/1999/xlink" overflow="visible">
	<desc>Engraved by Verovio 2.0.0-dev-0f0381c</desc>
	<defs>
		<symbol id="E050" viewBox="0 0 1000 1000" overflow="inherit">
			<path transform="scale(1,-1)" d="M441 -245c-23 -4 -48 -6 -76 -6c-59 0 -102 7 -130 20c-88 42 -150 93 -187 154c-26 44 -43 103 -48 176c-4 60 11 123 44 189c29 57 65 106 110 148s96 85 153 127c-3 16 -8 46 -13 92c-4 43 -5 73 -5 89c0 117 16 172 69 257c34 54 64 82 89 82c21 0 43 -30 69 -92 s39 -115 41 -159c2 -120 -19 -173 -67 -256c-13 -20 -63 -90 -98 -118c-13 -9 -25 -19 -37 -29l31 -181c8 1 18 2 28 2c58 0 102 -12 133 -35c59 -43 92 -104 98 -184c11 -135 -80 -229 -180 -270c8 -57 17 -110 25 -162c5 -31 6 -58 6 -80c0 -30 -5 -53 -14 -70 c-35 -64 -88 -99 -158 -103c-42 -3 -83 6 -124 26c-50 24 -77 59 -80 105c-2 34 5 63 20 87c18 28 45 42 79 44c51 4 99 -40 103 -87c4 -56 -30 -94 -105 -115c17 -24 51 -36 102 -36c62 0 116 43 140 85c9 16 13 41 13 74c0 20 -1 42 -5 67c-8 53 -18 106 -26 159zM461 939 c-95 0 -135 -175 -135 -286c0 -24 2 -48 5 -71c50 39 92 82 127 128c43 57 63 106 60 148c-4 54 -23 82 -57 81zM406 119l54 -326c80 27 116 88 109 184c-7 99 -62 146 -163 142zM382 117c-74 -2 -132 -50 -128 -127c2 -46 43 -99 75 -115c-3 -2 -7 -5 -10 -10 c-70 33 -116 88 -123 172c-5 73 42 135 88 170c23 17 49 29 78 36l-29 170c-21 -13 -52 -37 -92 -73c-50 -44 -86 -84 -109 -119c-49 -75 -71 -140 -67 -195c5 -68 35 -127 93 -176s125 -73 203 -73c25 0 50 3 75 9c-19 111 -36 221 -54 331z" />
		</symbol>
		<symbol id="E082" viewBox="0 0 1000 1000" overflow="inherit">
			<path transform="scale(1,-1)" d="M104 -185c-18 0 -55 -14 -65 -65h-36l-3 29c0 25 6 46 18 64c11 19 22 30 39 43l121 82l37 29c15 11 27 29 38 54c12 24 18 47 18 70c0 40 -19 88 -94 88c-25 0 -32 0 -50 -8c-14 -5 -23 -12 -26 -22c3 -9 7 -15 10 -18l24 -17c12 -7 17 -11 27 -21c5 -7 7 -16 7 -27 c0 -12 0 -57 -79 -74c-30 0 -76 26 -76 94c0 66 80 135 196 135c72 0 182 -32 182 -150c0 -53 -32 -95 -113 -133l-91 -41c-26 -11 -45 -23 -57 -37l49 7c84 0 115 -41 148 -41c20 0 33 20 39 61h35c0 -152 -68 -168 -114 -168c-17 0 -55 0 -69 7v0l-28 17 c-49 37 -69 40 -87 42z" />
		</symbol>
		<symbol id="E084" viewBox="0 0 1000 1000" overflow="inherit">
			<path transform="scale(1,-1)" d="M0 -78c84 97 114 180 134 329h170c-13 -32 -82 -132 -99 -151l-84 -97c-33 -36 -59 -63 -80 -81h162v102l127 123v-225h57v-39h-57v-34c0 -43 19 -65 57 -65v-34h-244v36c48 0 60 26 60 70v27h-203v39z" />
		</symbol>
		<symbol id="E0A4" viewBox="0 0 1000 1000" overflow="inherit">
			<path transform="scale(1,-1)" d="M0 -39c0 68 73 172 200 172c66 0 114 -37 114 -95c0 -84 -106 -171 -218 -171c-64 0 -96 30 -96 94z" />
		</symbol>
		<symbol id="E062" viewBox="0 0 1000 1000" overflow="inherit">
			<path transform="scale(1,-1)" d="M158 96c51 0 73 -14 88 -49l16 -39c0 -17 -2 -30 -7 -40c-3 -11 -10 -21 -19 -31c-17 -18 -49 -43 -84 -43c-55 0 -77 13 -112 44c-24 21 -35 55 -35 100c0 46 14 81 32 112c30 52 71 79 137 93l36 6l26 2c154 0 235 -68 274 -182c11 -32 18 -68 18 -107 c0 -103 -26 -182 -68 -250c-89 -145 -234 -230 -412 -288l-30 -5c-9 0 -14 3 -14 8c3 10 5 11 10 16c35 15 70 30 96 44l78 43c96 57 162 136 197 258c9 33 17 60 22 100c3 22 5 35 6 39c-7 69 -16 115 -23 140s-4 22 -16 40c-8 12 -19 23 -31 34c-24 21 -62 44 -118 44 c-48 0 -84 -8 -113 -28c-28 -19 -42 -44 -42 -73v-16c2 -5 3 -9 4 -11c24 22 52 39 84 39zM585 -118c0 32 23 58 57 58c18 0 33 -6 40 -18c9 -15 16 -18 16 -40c0 -9 -2 -16 -5 -21c-6 -19 -27 -37 -51 -37c-34 0 -57 26 -57 58zM642 177c31 0 56 -27 56 -58 c0 -30 -25 -58 -56 -58l-23 3c-19 7 -34 32 -34 55l3 23c9 20 28 35 54 35z" />
		</symbol>
		<symbol id="E260" viewBox="0 0 1000 1000" overflow="inherit">
			<path transform="scale(1,-1)" d="M20 110c32 16 54 27 93 27c26 0 35 -3 54 -13c13 -7 24 -20 27 -38l4 -25c0 -28 -16 -57 -45 -89c-23 -25 -39 -44 -65 -68l-88 -79v644h20v-359zM90 106c-32 0 -48 -10 -70 -29v-194c31 31 54 59 71 84c21 32 32 59 32 84c0 9 1 16 1 20c0 14 -3 21 -11 30l-8 3z" />
		</symbol>
	</defs>
	<style type="text/css">g.page-margin{font-family:Times;} g.tempo{font-weight:bold;} g.dir, g.dynam, g.mNum{font-style:italic;} g.label{font-weight:normal;}</style>
	<svg class="definition-scale" viewBox="0 0 21000 4500">
		<g class="page-margin" transform="translate(500, 500)">
			<g class="system" id="system-0000000662625048">
				<path d="M13 720 L13 2880" stroke="#000000" stroke-width="27" />
				<path d="M-32,2862 C-392,2322 58,1980 -212,1800 C121,1980 -329,2322 -32,2862" stroke="#000000" stroke-linecap="round" stroke-linejoin="round" stroke-width="18" />
				<path d="M-32,738 C-329,1278 121,1620 -212,1800 C58,1620 -392,1278 -32,738" stroke="#000000" stroke-linecap="round" stroke-linejoin="round" stroke-width="18" />
				<g class="section boundaryStart" id="section-L1F1" />
				<g class="measure" id="measure-L4">
					<g class="staff" id="staff-L4F2N1">
						<path d="M0 720 L4407 720" stroke="#000000" stroke-width="13" />
						<path d="M0 900 L4407 900" stroke="#000000" stroke-width="13" />
						<path d="M0 1080 L4407 1080" stroke="#000000" stroke-width="13" />
						<path d="M0 1260 L4407 1260" stroke="#000000" stroke-width="13" />
						<path d="M0 1440 L4407 1440" stroke="#000000" stroke-width="13" />
						<g class="clef" id="clef-0000000300433241">
							<use xlink:href="#E050" x="90" y="1260" height="720px" width="720px" />
						</g>
						<g class="meterSig" id="msig-0000000647427390">
							<use xlink:href="#E082" x="771" y="900" height="720px" width="720px" />
							<use xlink:href="#E084" x="777" y="1260" height="720px" width="720px" />
						</g>
						<g class="layer" id="layer-L4F2N1">
							<g class="beam" id="beam-L5F2-L8F2">
								<polygon points="1573,392 2720,279 2720,369 1573,482 " />
								<polygon points="1573,527 2720,414 2720,504 1573,617 " />
								<g class="note" id="note-L5F2">
									<use xlink:href="#E0A4" x="1365" y="1440" height="720px" width="720px" />
									<g class="stem">
										<rect x="1573" y="410" height="1008" width="18" />
									</g>
									<g class="accid" id="accid-0000002078392129" />
								</g>
								<g class="note" id="note-L6F2">
									<use xlink:href="#E0A4" x="1741" y="1080" height="720px" width="720px" />
									<g class="stem">
										<rect x="1949" y="372" height="686" width="18" />
									</g>
									<g class="accid" id="accid-0000001165710480" />
								</g>
								<g class="note" id="note-L7F2">
									<use xlink:href="#E0A4" x="2118" y="990" height="720px" width="720px" />
									<g class="stem">
										<rect x="2326" y="334" height="634" width="18" />
									</g>
									<g class="accid" id="accid-0000000331804754" />
								</g>
								<g class="note" id="note-L8F2">
									<use xlink:href="#E0A4" x="2494" y="1260" height="720px" width="720px" />
									<g class="stem">
										<rect x="2702" y="297" height="941" width="18" />
									</g>
									<g class="accid" id="accid-0000000937478385" />
								</g>
							</g>
							<g class="beam" id="beam-L9F2-L12F2">
								<polygon points="3079,567 4227,586 4227,676 3079,657 " />
								<polygon points="3841,715 4227,721 4227,811 3841,805 " />
								<g class="note" id="note-L9F2">
									<use xlink:href="#E0A4" x="2871" y="1260" height="720px" width="720px" />
									<g class="stem">
										<rect x="3079" y="585" height="653" width="18" />
									</g>
									<g class="accid" id="accid-0000000319555026" />
								</g>
								<g class="note" id="note-L11F2">
									<use xlink:href="#E0A4" x="3624" y="1350" height="720px" width="720px" />
									<g class="stem">
										<rect x="3832" y="598" height="730" width="18" />
									</g>
									<g class="accid" id="accid-0000000665874507" />
								</g>
								<g class="note" id="note-L12F2">
									<use xlink:href="#E0A4" x="4001" y="1260" height="720px" width="720px" />
									<g class="stem">
										<rect x="4209" y="604" height="634" width="18" />
									</g>
									<g class="accid" id="accid-0000001786064870" />
								</g>
							</g>
						</g>
					</g>
					<g class="staff" id="staff-L4F1N1">
						<path d="M0 2160 L4407 2160" stroke="#000000" stroke-width="13" />
						<path d="M0 2340 L4407 2340" stroke="#000000" stroke-width="13" />
						<path d="M0 2520 L4407 2520" stroke="#000000" stroke-width="13" />
						<path d="M0 2700 L4407 2700" stroke="#000000" stroke-width="13" />
						<path d="M0 2880 L4407 2880" stroke="#000000" stroke-width="13" />
						<g class="clef" id="clef-0000000012504381">
							<use xlink:href="#E062" x="90" y="2340" height="720px" width="720px" />
						</g>
						<g class="meterSig" id="msig-0000001855217708">
							<use xlink:href="#E082" x="771" y="2340" height="720px" width="720px" />
							<use xlink:href="#E084" x="777" y="2700" height="720px" width="720px" />
						</g>
						<g class="layer" id="layer-L4F1N1">
							<g class="beam" id="beam-L5F1-L6F1">
								<polygon points="1365,3285 1759,3247 1759,3157 1365,3195 " />
								<polygon points="1365,3150 1523,3135 1523,3045 1365,3060 " />
								<g class="note" id="note-L5F1">
									<use xlink:href="#E0A4" x="1365" y="2610" height="720px" width="720px" />
									<g class="stem">
										<rect x="1365" y="2632" height="635" width="18" />
									</g>
									<g class="accid" id="accid-0000001350391738" />
								</g>
								<g class="note" id="note-L6F1">
									<use xlink:href="#E0A4" x="1741" y="2430" height="720px" width="720px" />
									<g class="dots" id="dots-0000001124642862">
										<ellipse cx="2057" cy="2430" rx="36" ry="36" />
									</g>
									<g class="stem">
										<rect x="1741" y="2452" height="777" width="18" />
									</g>
									<g class="accid" id="accid-0000000737287088" />
								</g>
							</g>
							<g class="beam" id="beam-L9F1-L12F1">
								<polygon points="3079,1869 4227,1756 4227,1846 3079,1959 " />
								<polygon points="3079,2004 4227,1891 4227,1981 3079,2094 " />
								<g class="note" id="note-L9F1">
									<use xlink:href="#E0A4" x="2871" y="2610" height="720px" width="720px" />
									<g class="stem">
										<rect x="3079" y="1887" height="701" width="18" />
									</g>
									<g class="accid" id="accid-0000001457020015" />
								</g>
								<g class="note" id="note-L10F1">
									<use xlink:href="#E0A4" x="3248" y="2520" height="720px" width="720px" />
									<g class="stem">
										<rect x="3456" y="1849" height="649" width="18" />
									</g>
									<g class="accid" id="accid-0000000114724805" />
								</g>
								<g class="note" id="note-L11F1">
									<use xlink:href="#E0A4" x="3624" y="2610" height="720px" width="720px" />
									<g class="stem">
										<rect x="3832" y="1811" height="777" width="18" />
									</g>
									<g class="accid" id="accid-0000000203701836" />
								</g>
								<g class="note" id="note-L12F1">
									<use xlink:href="#E0A4" x="4001" y="2430" height="720px" width="720px" />
									<g class="stem">
										<rect x="4209" y="1774" height="634" width="18" />
									</g>
									<g class="accid" id="accid-0000002036119428" />
								</g>
							</g>
						</g>
					</g>
					<g class="tie" id="tie-L8F2-L9F2">
						<path d="M2607,1395 C2701,1493 2889,1493 2984,1395 C2889,1537 2701,1537 2607,1395" stroke="#000000" stroke-linecap="round" stroke-linejoin="round" stroke-width="9" />
					</g>
					<g class="mNum autogenerated" id="mnum-0000000156446413" />
					<g class="barLineAttr" id="bline-0000000326716419">
						<path d="M4394 2880 L4394 720" stroke="#000000" stroke-width="27" />
					</g>
				</g>
				<g class="measure" id="measure-L13">
					<g class="staff" id="staff-L13F2N1">
						<path d="M4407 720 L7664 720" stroke="#000000" stroke-width="13" />
						<path d="M4407 900 L7664 900" stroke="#000000" stroke-width="13" />
						<path d="M4407 1080 L7664 1080" stroke="#000000" stroke-width="13" />
						<path d="M4407 1260 L7664 1260" stroke="#000000" stroke-width="13" />
						<path d="M4407 1440 L7664 1440" stroke="#000000" stroke-width="13" />
						<g class="layer" id="layer-L13F2N1">
							<g class="beam" id="beam-L14F2-L17F2">
								<polygon points="4830,392 5977,279 5977,369 4830,482 " />
								<polygon points="4830,527 5977,414 5977,504 4830,617 " />
								<g class="note" id="note-L14F2">
									<use xlink:href="#E0A4" x="4622" y="1440" height="720px" width="720px" />
									<g class="stem">
										<rect x="4830" y="410" height="1008" width="18" />
									</g>
									<g class="accid" id="accid-0000001646697805" />
								</g>
								<g class="note" id="note-L15F2">
									<use xlink:href="#E0A4" x="4998" y="1080" height="720px" width="720px" />
									<g class="stem">
										<rect x="5206" y="372" height="686" width="18" />
									</g>
									<g class="accid" id="accid-0000000021274856" />
								</g>
								<g class="note" id="note-L16F2">
									<use xlink:href="#E0A4" x="5375" y="990" height="720px" width="720px" />
									<g class="stem">
										<rect x="5583" y="334" height="634" width="18" />
									</g>
									<g class="accid" id="accid-0000001076542935" />
								</g>
								<g class="note" id="note-L17F2">
									<use xlink:href="#E0A4" x="5751" y="1260" height="720px" width="720px" />
									<g class="stem">
										<rect x="5959" y="297" height="941" width="18" />
									</g>
									<g class="accid" id="accid-0000001097476643" />
								</g>
							</g>
							<g class="beam" id="beam-L18F2-L21F2">
								<polygon points="6336,567 7484,586 7484,676 6336,657 " />
								<polygon points="7098,715 7484,721 7484,811 7098,805 " />
								<g class="note" id="note-L18F2">
									<use xlink:href="#E0A4" x="6128" y="1260" height="720px" width="720px" />
									<g class="stem">
										<rect x="6336" y="585" height="653" width="18" />
									</g>
									<g class="accid" id="accid-0000000935311715" />
								</g>
								<g class="note" id="note-L20F2">
									<use xlink:href="#E0A4" x="6881" y="1350" height="720px" width="720px" />
									<g class="stem">
										<rect x="7089" y="598" height="730" width="18" />
									</g>
									<g class="accid" id="accid-0000000462764437" />
								</g>
								<g class="note" id="note-L21F2">
									<use xlink:href="#E0A4" x="7258" y="1260" height="720px" width="720px" />
									<g class="stem">
										<rect x="7466" y="604" height="634" width="18" />
									</g>
									<g class="accid" id="accid-0000001018546343" />
								</g>
							</g>
						</g>
					</g>
					<g class="staff" id="staff-L13F1N1">
						<path d="M4407 2160 L7664 2160" stroke="#000000" stroke-width="13" />
						<path d="M4407 2340 L7664 2340" stroke="#000000" stroke-width="13" />
						<path d="M4407 2520 L7664 2520" stroke="#000000" stroke-width="13" />
						<path d="M4407 2700 L7664 2700" stroke="#000000" stroke-width="13" />
						<path d="M4407 2880 L7664 2880" stroke="#000000" stroke-width="13" />
						<g class="layer" id="layer-L13F1N1">
							<g class="beam" id="beam-L14F1-L15F1">
								<polygon points="4622,3285 5016,3247 5016,3157 4622,3195 " />
								<polygon points="4622,3150 4780,3135 4780,3045 4622,3060 " />
								<g class="note" id="note-L14F1">
									<use xlink:href="#E0A4" x="4622" y="2610" height="720px" width="720px" />
									<g class="stem">
										<rect x="4622" y="2632" height="635" width="18" />
									</g>
									<g class="accid" id="accid-0000000722365703" />
								</g>
								<g class="note" id="note-L15F1">
									<use xlink:href="#E0A4" x="4998" y="2430" height="720px" width="720px" />
									<g class="dots" id="dots-0000000706488985">
										<ellipse cx="5314" cy="2430" rx="36" ry="36" />
									</g>
									<g class="stem">
										<rect x="4998" y="2452" height="777" width="18" />
									</g>
									<g class="accid" id="accid-0000001724651305" />
								</g>
							</g>
							<g class="beam" id="beam-L18F1-L21F1">
								<polygon points="6336,1869 7484,1756 7484,1846 6336,1959 " />
								<polygon points="6336,2004 7484,1891 7484,1981 6336,2094 " />
								<g class="note" id="note-L18F1">
									<use xlink:href="#E0A4" x="6128" y="2610" height="720px" width="720px" />
									<g class="stem">
										<rect x="6336" y="1887" height="701" width="18" />
									</g>
									<g class="accid" id="accid-0000002123022777" />
								</g>
								<g class="note" id="note-L19F1">
									<use xlink:href="#E0A4" x="6505" y="2520" height="720px" width="720px" />
									<g class="stem">
										<rect x="6713" y="1849" height="649" width="18" />
									</g>
									<g class="accid" id="accid-0000000567241633" />
								</g>
								<g class="note" id="note-L20F1">
									<use xlink:href="#E0A4" x="6881" y="2610" height="720px" width="720px" />
									<g class="stem">
										<rect x="7089" y="1811" height="777" width="18" />
									</g>
									<g class="accid" id="accid-0000001605324894" />
								</g>
								<g class="note" id="note-L21F1">
									<use xlink:href="#E0A4" x="7258" y="2430" height="720px" width="720px" />
									<g class="stem">
										<rect x="7466" y="1774" height="634" width="18" />
									</g>
									<g class="accid" id="accid-0000001735001011" />
								</g>
							</g>
						</g>
					</g>
					<g class="tie" id="tie-L17F2-L18F2">
						<path d="M5864,1395 C5958,1493 6146,1493 6241,1395 C6146,1537 5958,1537 5864,1395" stroke="#000000" stroke-linecap="round" stroke-linejoin="round" stroke-width="9" />
					</g>
					<g class="mNum autogenerated" id="mnum-0000000276922932" />
					<g class="barLineAttr" id="bline-0000001371600944">
						<path d="M7651 2880 L7651 720" stroke="#000000" stroke-width="27" />
					</g>
				</g>
				<g class="measure" id="measure-L22">
					<g class="staff" id="staff-L22F2N1">
						<path d="M7664 720 L11621 720" stroke="#000000" stroke-width="13" />
						<path d="M7664 900 L11621 900" stroke="#000000" stroke-width="13" />
						<path d="M7664 1080 L11621 1080" stroke="#000000" stroke-width="13" />
						<path d="M7664 1260 L11621 1260" stroke="#000000" stroke-width="13" />
						<path d="M7664 1440 L11621 1440" stroke="#000000" stroke-width="13" />
						<g class="layer" id="layer-L22F2N1">
							<g class="beam" id="beam-L23F2-L26F2">
								<polygon points="8320,528 9935,368 9935,458 8320,618 " />
								<polygon points="8320,663 9935,503 9935,593 8320,753 " />
								<g class="note" id="note-L23F2">
									<use xlink:href="#E0A4" x="8112" y="1440" height="720px" width="720px" />
									<g class="stem">
										<rect x="8320" y="546" height="872" width="18" />
									</g>
									<g class="accid" id="accid-0000001829579327">
										<use xlink:href="#E260" x="7916" y="1440" height="720px" width="720px" />
									</g>
								</g>
								<g class="note" id="note-L24F2">
									<use xlink:href="#E0A4" x="8723" y="1170" height="720px" width="720px" />
									<g class="stem">
										<rect x="8931" y="485" height="663" width="18" />
									</g>
									<g class="accid" id="accid-0000001945711824">
										<use xlink:href="#E260" x="8527" y="1170" height="720px" width="720px" />
									</g>
								</g>
								<g class="note" id="note-L25F2">
									<use xlink:href="#E0A4" x="9333" y="1080" height="720px" width="720px" />
									<g class="stem">
										<rect x="9541" y="424" height="634" width="18" />
									</g>
									<g class="accid" id="accid-0000001488132213">
										<use xlink:href="#E260" x="9137" y="1080" height="720px" width="720px" />
									</g>
								</g>
								<g class="note" id="note-L26F2">
									<use xlink:href="#E0A4" x="9709" y="1260" height="720px" width="720px" />
									<g class="stem">
										<rect x="9917" y="386" height="852" width="18" />
									</g>
									<g class="accid" id="accid-0000001637703544" />
								</g>
							</g>
							<g class="beam" id="beam-L27F2-L30F2">
								<polygon points="10294,566 11441,586 11441,676 10294,656 " />
								<polygon points="11056,714 11441,721 11441,811 11056,804 " />
								<g class="note" id="note-L27F2">
									<use xlink:href="#E0A4" x="10086" y="1260" height="720px" width="720px" />
									<g class="stem">
										<rect x="10294" y="584" height="654" width="18" />
									</g>
									<g class="accid" id="accid-0000000051685154" />
								</g>
								<g class="note" id="note-L29F2">
									<use xlink:href="#E0A4" x="10839" y="1350" height="720px" width="720px" />
									<g class="stem">
										<rect x="11047" y="597" height="731" width="18" />
									</g>
									<g class="accid" id="accid-0000001797441496" />
								</g>
								<g class="note" id="note-L30F2">
									<use xlink:href="#E0A4" x="11215" y="1260" height="720px" width="720px" />
									<g class="stem">
										<rect x="11423" y="604" height="634" width="18" />
									</g>
									<g class="accid" id="accid-0000001504492238" />
								</g>
							</g>
						</g>
					</g>
					<g class="staff" id="staff-L22F1N1">
						<path d="M7664 2160 L11621 2160" stroke="#000000" stroke-width="13" />
						<path d="M7664 2340 L11621 2340" stroke="#000000" stroke-width="13" />
						<path d="M7664 2520 L11621 2520" stroke="#000000" stroke-width="13" />
						<path d="M7664 2700 L11621 2700" stroke="#000000" stroke-width="13" />
						<path d="M7664 2880 L11621 2880" stroke="#000000" stroke-width="13" />
						<g class="layer" id="layer-L22F1N1">
							<g class="beam" id="beam-L23F1-L24F1">
								<polygon points="8320,1817 8949,1756 8949,1846 8320,1907 " />
								<polygon points="8320,1952 8478,1937 8478,2027 8320,2042 " />
								<g class="note" id="note-L23F1">
									<use xlink:href="#E0A4" x="8112" y="2700" height="720px" width="720px" />
									<g class="stem">
										<rect x="8320" y="1835" height="843" width="18" />
									</g>
									<g class="accid" id="accid-0000000745846409">
										<use xlink:href="#E260" x="7916" y="2700" height="720px" width="720px" />
									</g>
								</g>
								<g class="note" id="note-L24F1">
									<use xlink:href="#E0A4" x="8723" y="2430" height="720px" width="720px" />
									<g class="dots" id="dots-0000000592392065">
										<ellipse cx="9039" cy="2430" rx="36" ry="36" />
									</g>
									<g class="stem">
										<rect x="8931" y="1774" height="634" width="18" />
									</g>
									<g class="accid" id="accid-0000002006572899">
										<use xlink:href="#E260" x="8527" y="2430" height="720px" width="720px" />
									</g>
								</g>
							</g>
							<g class="beam" id="beam-L27F1-L30F1">
								<polygon points="10294,1869 11441,1756 11441,1846 10294,1959 " />
								<polygon points="10294,2004 11441,1891 11441,1981 10294,2094 " />
								<g class="note" id="note-L27F1">
									<use xlink:href="#E0A4" x="10086" y="2700" height="720px" width="720px" />
									<g class="stem">
										<rect x="10294" y="1887" height="791" width="18" />
									</g>
									<g class="accid" id="accid-0000001839785460" />
								</g>
								<g class="note" id="note-L28F1">
									<use xlink:href="#E0A4" x="10462" y="2520" height="720px" width="720px" />
									<g class="stem">
										<rect x="10670" y="1849" height="649" width="18" />
									</g>
									<g class="accid" id="accid-0000000142501970" />
								</g>
								<g class="note" id="note-L29F1">
									<use xlink:href="#E0A4" x="10839" y="2700" height="720px" width="720px" />
									<g class="stem">
										<rect x="11047" y="1811" height="867" width="18" />
									</g>
									<g class="accid" id="accid-0000002018299259" />
								</g>
								<g class="note" id="note-L30F1">
									<use xlink:href="#E0A4" x="11215" y="2430" height="720px" width="720px" />
									<g class="stem">
										<rect x="11423" y="1774" height="634" width="18" />
									</g>
									<g class="accid" id="accid-0000000729825351" />
								</g>
							</g>
						</g>
					</g>
					<g class="tie" id="tie-L26F2-L27F2">
						<path d="M9822,1395 C9916,1493 10104,1493 10199,1395 C10104,1537 9916,1537 9822,1395" stroke="#000000" stroke-linecap="round" stroke-linejoin="round" stroke-width="9" />
					</g>
					<g class="mNum autogenerated" id="mnum-0000002064591705" />
					<g class="barLineAttr" id="bline-0000000927398806">
						<path d="M11608 2880 L11608 720" stroke="#000000" stroke-width="27" />
					</g>
				</g>
				<g class="measure" id="measure-L31">
					<g class="staff" id="staff-L31F2N1">
						<path d="M11621 720 L15578 720" stroke="#000000" stroke-width="13" />
						<path d="M11621 900 L15578 900" stroke="#000000" stroke-width="13" />
						<path d="M11621 1080 L15578 1080" stroke="#000000" stroke-width="13" />
						<path d="M11621 1260 L15578 1260" stroke="#000000" stroke-width="13" />
						<path d="M11621 1440 L15578 1440" stroke="#000000" stroke-width="13" />
						<g class="layer" id="layer-L31F2N1">
							<g class="beam" id="beam-L32F2-L35F2">
								<polygon points="12277,528 13892,368 13892,458 12277,618 " />
								<polygon points="12277,663 13892,503 13892,593 12277,753 " />
								<g class="note" id="note-L32F2">
									<use xlink:href="#E0A4" x="12069" y="1440" height="720px" width="720px" />
									<g class="stem">
										<rect x="12277" y="546" height="872" width="18" />
									</g>
									<g class="accid" id="accid-0000001205607005">
										<use xlink:href="#E260" x="11873" y="1440" height="720px" width="720px" />
									</g>
								</g>
								<g class="note" id="note-L33F2">
									<use xlink:href="#E0A4" x="12680" y="1170" height="720px" width="720px" />
									<g class="stem">
										<rect x="12888" y="485" height="663" width="18" />
									</g>
									<g class="accid" id="accid-0000001734323179">
										<use xlink:href="#E260" x="12484" y="1170" height="720px" width="720px" />
									</g>
								</g>
								<g class="note" id="note-L34F2">
									<use xlink:href="#E0A4" x="13290" y="1080" height="720px" width="720px" />
									<g class="stem">
										<rect x="13498" y="424" height="634" width="18" />
									</g>
									<g class="accid" id="accid-0000001913589573">
										<use xlink:href="#E260" x="13094" y="1080" height="720px" width="720px" />
									</g>
								</g>
								<g class="note" id="note-L35F2">
									<use xlink:href="#E0A4" x="13666" y="1260" height="720px" width="720px" />
									<g class="stem">
										<rect x="13874" y="386" height="852" width="18" />
									</g>
									<g class="accid" id="accid-0000001817299344" />
								</g>
							</g>
							<g class="beam" id="beam-L36F2-L39F2">
								<polygon points="14251,566 15398,586 15398,676 14251,656 " />
								<polygon points="15013,714 15398,721 15398,811 15013,804 " />
								<g class="note" id="note-L36F2">
									<use xlink:href="#E0A4" x="14043" y="1260" height="720px" width="720px" />
									<g class="stem">
										<rect x="14251" y="584" height="654" width="18" />
									</g>
									<g class="accid" id="accid-0000000747200880" />
								</g>
								<g class="note" id="note-L38F2">
									<use xlink:href="#E0A4" x="14796" y="1350" height="720px" width="720px" />
									<g class="stem">
										<rect x="15004" y="597" height="731" width="18" />
									</g>
									<g class="accid" id="accid-0000000115593423" />
								</g>
								<g class="note" id="note-L39F2">
									<use xlink:href="#E0A4" x="15172" y="1260" height="720px" width="720px" />
									<g class="stem">
										<rect x="15380" y="604" height="634" width="18" />
									</g>
									<g class="accid" id="accid-0000000397966086" />
								</g>
							</g>
						</g>
					</g>
					<g class="staff" id="staff-L31F1N1">
						<path d="M11621 2160 L15578 2160" stroke="#000000" stroke-width="13" />
						<path d="M11621 2340 L15578 2340" stroke="#000000" stroke-width="13" />
						<path d="M11621 2520 L15578 2520" stroke="#000000" stroke-width="13" />
						<path d="M11621 2700 L15578 2700" stroke="#000000" stroke-width="13" />
						<path d="M11621 2880 L15578 2880" stroke="#000000" stroke-width="13" />
						<g class="layer" id="layer-L31F1N1">
							<g class="beam" id="beam-L32F1-L33F1">
								<polygon points="12277,1817 12906,1756 12906,1846 12277,1907 " />
								<polygon points="12277,1952 12435,1937 12435,2027 12277,2042 " />
								<g class="note" id="note-L32F1">
									<use xlink:href="#E0A4" x="12069" y="2700" height="720px" width="720px" />
									<g class="stem">
										<rect x="12277" y="1835" height="843" width="18" />
									</g>
									<g class="accid" id="accid-0000000476642056">
										<use xlink:href="#E260" x="11873" y="2700" height="720px" width="720px" />
									</g>
								</g>
								<g class="note" id="note-L33F1">
									<use xlink:href="#E0A4" x="12680" y="2430" height="720px" width="720px" />
									<g class="dots" id="dots-0000002033175509">
										<ellipse cx="12996" cy="2430" rx="36" ry="36" />
									</g>
									<g class="stem">
										<rect x="12888" y="1774" height="634" width="18" />
									</g>
									<g class="accid" id="accid-0000001679871617">
										<use xlink:href="#E260" x="12484" y="2430" height="720px" width="720px" />
									</g>
								</g>
							</g>
							<g class="beam" id="beam-L36F1-L39F1">
								<polygon points="14251,1869 15398,1756 15398,1846 14251,1959 " />
								<polygon points="14251,2004 15398,1891 15398,1981 14251,2094 " />
								<g class="note" id="note-L36F1">
									<use xlink:href="#E0A4" x="14043" y="2700" height="720px" width="720px" />
									<g class="stem">
										<rect x="14251" y="1887" height="791" width="18" />
									</g>
									<g class="accid" id="accid-0000000879558743" />
								</g>
								<g class="note" id="note-L37F1">
									<use xlink:href="#E0A4" x="14419" y="2520" height="720px" width="720px" />
									<g class="stem">
										<rect x="14627" y="1849" height="649" width="18" />
									</g>
									<g class="accid" id="accid-0000001280337490" />
								</g>
								<g class="note" id="note-L38F1">
									<use xlink:href="#E0A4" x="14796" y="2700" height="720px" width="720px" />
									<g class="stem">
										<rect x="15004" y="1811" height="867" width="18" />
									</g>
									<g class="accid" id="accid-0000001098165643" />
								</g>
								<g class="note" id="note-L39F1">
									<use xlink:href="#E0A4" x="15172" y="2430" height="720px" width="720px" />
									<g class="stem">
										<rect x="15380" y="1774" height="634" width="18" />
									</g>
									<g class="accid" id="accid-0000001492582594" />
								</g>
							</g>
						</g>
					</g>
					<g class="tie" id="tie-L35F2-L36F2">
						<path d="M13779,1395 C13873,1493 14061,1493 14156,1395 C14061,1537 13873,1537 13779,1395" stroke="#000000" stroke-linecap="round" stroke-linejoin="round" stroke-width="9" />
					</g>
					<g class="mNum autogenerated" id="mnum-0000000632280123" />
					<g class="barLineAttr" id="bline-0000001840868069">
						<path d="M15565 2880 L15565 720" stroke="#000000" stroke-width="27" />
					</g>
				</g>
				<g class="measure" id="measure-L40">
					<g class="staff" id="staff-L40F2N1">
						<path d="M15578 720 L20002 720" stroke="#000000" stroke-width="13" />
						<path d="M15578 900 L20002 900" stroke="#000000" stroke-width="13" />
						<path d="M15578 1080 L20002 1080" stroke="#000000" stroke-width="13" />
						<path d="M15578 1260 L20002 1260" stroke="#000000" stroke-width="13" />
						<path d="M15578 1440 L20002 1440" stroke="#000000" stroke-width="13" />
						<g class="layer" id="layer-L40F2N1">
							<g class="beam" id="beam-L41F2-L44F2">
								<polygon points="16234,528 18083,345 18083,435 16234,618 " />
								<polygon points="16234,663 18083,480 18083,570 16234,753 " />
								<g class="note" id="note-L41F2">
									<use xlink:href="#E0A4" x="16026" y="1530" height="720px" width="720px" />
									<g class="stem">
										<rect x="16234" y="546" height="962" width="18" />
									</g>
									<g class="accid" id="accid-0000001963312743">
										<use xlink:href="#E260" x="15830" y="1530" height="720px" width="720px" />
									</g>
								</g>
								<g class="note" id="note-L42F2">
									<use xlink:href="#E0A4" x="16637" y="1170" height="720px" width="720px" />
									<g class="stem">
										<rect x="16845" y="485" height="663" width="18" />
									</g>
									<g class="accid" id="accid-0000001390522702">
										<use xlink:href="#E260" x="16441" y="1170" height="720px" width="720px" />
									</g>
								</g>
								<g class="note" id="note-L43F2">
									<use xlink:href="#E0A4" x="17247" y="1080" height="720px" width="720px" />
									<g class="stem">
										<rect x="17455" y="424" height="634" width="18" />
									</g>
									<g class="accid" id="accid-0000001253999638">
										<use xlink:href="#E260" x="17051" y="1080" height="720px" width="720px" />
									</g>
								</g>
								<g class="note" id="note-L44F2">
									<use xlink:href="#E0A4" x="17857" y="1260" height="720px" width="720px" />
									<g class="stem">
										<rect x="18065" y="363" height="875" width="18" />
									</g>
									<g class="accid" id="accid-0000001535131176">
										<use xlink:href="#E260" x="17661" y="1260" height="720px" width="720px" />
									</g>
								</g>
							</g>
							<g class="beam" id="beam-L45F2-L48F2">
								<polygon points="18441,561 19822,586 19822,676 18441,651 " />
								<polygon points="19437,714 19822,721 19822,811 19437,804 " />
								<g class="note" id="note-L45F2">
									<use xlink:href="#E0A4" x="18233" y="1260" height="720px" width="720px" />
									<g class="stem">
										<rect x="18441" y="579" height="659" width="18" />
									</g>
									<g class="accid" id="accid-0000001832061806" />
								</g>
								<g class="note" id="note-L47F2">
									<use xlink:href="#E0A4" x="19220" y="1350" height="720px" width="720px" />
									<g class="stem">
										<rect x="19428" y="597" height="731" width="18" />
									</g>
									<g class="accid" id="accid-0000001509282715" />
								</g>
								<g class="note" id="note-L48F2">
									<use xlink:href="#E0A4" x="19596" y="1260" height="720px" width="720px" />
									<g class="stem">
										<rect x="19804" y="604" height="634" width="18" />
									</g>
									<g class="accid" id="accid-0000000029662665" />
								</g>
							</g>
						</g>
					</g>
					<g class="staff" id="staff-L40F1N1">
						<path d="M15578 2160 L20002 2160" stroke="#000000" stroke-width="13" />
						<path d="M15578 2340 L20002 2340" stroke="#000000" stroke-width="13" />
						<path d="M15578 2520 L20002 2520" stroke="#000000" stroke-width="13" />
						<path d="M15578 2700 L20002 2700" stroke="#000000" stroke-width="13" />
						<path d="M15578 2880 L20002 2880" stroke="#000000" stroke-width="13" />
						<g class="layer" id="layer-L40F1N1">
							<g class="beam" id="beam-L41F1-L42F1">
								<polygon points="16234,1907 16863,1846 16863,1936 16234,1997 " />
								<polygon points="16234,2042 16392,2027 16392,2117 16234,2132 " />
								<g class="note" id="note-L41F1">
									<use xlink:href="#E0A4" x="16026" y="2700" height="720px" width="720px" />
									<g class="stem">
										<rect x="16234" y="1925" height="753" width="18" />
									</g>
									<g class="accid" id="accid-0000000185397938">
										<use xlink:href="#E260" x="15830" y="2700" height="720px" width="720px" />
									</g>
								</g>
								<g class="note" id="note-L42F1">
									<use xlink:href="#E0A4" x="16637" y="2520" height="720px" width="720px" />
									<g class="dots" id="dots-0000000899528682">
										<ellipse cx="16953" cy="2430" rx="36" ry="36" />
									</g>
									<g class="stem">
										<rect x="16845" y="1864" height="634" width="18" />
									</g>
									<g class="accid" id="accid-0000001483532964">
										<use xlink:href="#E260" x="16441" y="2520" height="720px" width="720px" />
									</g>
								</g>
							</g>
							<g class="beam" id="beam-L45F1-L48F1">
								<polygon points="18441,1802 19822,1698 19822,1788 18441,1892 " />
								<polygon points="18441,1937 19822,1833 19822,1923 18441,2027 " />
								<g class="note" id="note-L45F1">
									<use xlink:href="#E0A4" x="18233" y="2700" height="720px" width="720px" />
									<g class="stem">
										<rect x="18441" y="1820" height="858" width="18" />
									</g>
									<g class="accid" id="accid-0000000537241631" />
								</g>
								<g class="note" id="note-L46F1">
									<use xlink:href="#E0A4" x="18843" y="2430" height="720px" width="720px" />
									<g class="stem">
										<rect x="19051" y="1774" height="634" width="18" />
									</g>
									<g class="accid" id="accid-0000001804245094">
										<use xlink:href="#E260" x="18647" y="2430" height="720px" width="720px" />
									</g>
								</g>
								<g class="note" id="note-L47F1">
									<use xlink:href="#E0A4" x="19220" y="2700" height="720px" width="720px" />
									<g class="stem">
										<rect x="19428" y="1745" height="933" width="18" />
									</g>
									<g class="accid" id="accid-0000002003428430" />
								</g>
								<g class="note" id="note-L48F1">
									<use xlink:href="#E0A4" x="19596" y="2520" height="720px" width="720px" />
									<g class="stem">
										<rect x="19804" y="1716" height="782" width="18" />
									</g>
									<g class="accid" id="accid-0000000827503102" />
								</g>
							</g>
						</g>
					</g>
					<g class="tie" id="tie-L44F2-L45F2">
						<path d="M17970,1395 C18064,1493 18252,1493 18346,1395 C18252,1537 18064,1537 17970,1395" stroke="#000000" stroke-linecap="round" stroke-linejoin="round" stroke-width="9" />
					</g>
					<g class="mNum autogenerated" id="mnum-0000001860384611" />
					<g class="barLineAttr" id="bline-0000000465429637">
						<path d="M19989 2880 L19989 720" stroke="#000000" stroke-width="27" />
					</g>
				</g>
			</g>
		</g>
	</svg>
</svg>
