<?xml version="1.0" encoding="UTF-8" standalone="no"?>
<svg width="2100.00px" height="450.00px" version="1.1" xmlns="http://www.w3.org/2000/svg" xmlns:xlink="http://www.w3.org/1999/xlink" overflow="visible">
	<desc>Engraved by Verovio 2.0.0-dev-0f0381c</desc>
	<defs>
		<symbol id="E050" viewBox="0 0 1000 1000" overflow="inherit">
			<path transform="scale(1,-1)" d="M441 -245c-23 -4 -48 -6 -76 -6c-59 0 -102 7 -130 20c-88 42 -150 93 -187 154c-26 44 -43 103 -48 176c-4 60 11 123 44 189c29 57 65 106 110 148s96 85 153 127c-3 16 -8 46 -13 92c-4 43 -5 73 -5 89c0 117 16 172 69 257c34 54 64 82 89 82c21 0 43 -30 69 -92 s39 -115 41 -159c2 -120 -19 -173 -67 -256c-13 -20 -63 -90 -98 -118c-13 -9 -25 -19 -37 -29l31 -181c8 1 18 2 28 2c58 0 102 -12 133 -35c59 -43 92 -104 98 -184c11 -135 -80 -229 -180 -270c8 -57 17 -110 25 -162c5 -31 6 -58 6 -80c0 -30 -5 -53 -14 -70 c-35 -64 -88 -99 -158 -103c-42 -3 -83 6 -124 26c-50 24 -77 59 -80 105c-2 34 5 63 20 87c18 28 45 42 79 44c51 4 99 -40 103 -87c4 -56 -30 -94 -105 -115c17 -24 51 -36 102 -36c62 0 116 43 140 85c9 16 13 41 13 74c0 20 -1 42 -5 67c-8 53 -18 106 -26 159zM461 939 c-95 0 -135 -175 -135 -286c0 -24 2 -48 5 -71c50 39 92 82 127 128c43 57 63 106 60 148c-4 54 -23 82 -57 81zM406 119l54 -326c80 27 116 88 109 184c-7 99 -62 146 -163 142zM382 117c-74 -2 -132 -50 -128 -127c2 -46 43 -99 75 -115c-3 -2 -7 -5 -10 -10 c-70 33 -116 88 -123 172c-5 73 42 135 88 170c23 17 49 29 78 36l-29 170c-21 -13 -52 -37 -92 -73c-50 -44 -86 -84 -109 -119c-49 -75 -71 -140 -67 -195c5 -68 35 -127 93 -176s125 -73 203 -73c25 0 50 3 75 9c-19 111 -36 221 -54 331z" />
		</symbol>
		<symbol id="E082" viewBox="0 0 1000 1000" overflow="inherit">
			<path transform="scale(1,-1)" d="M104 -185c-18 0 -55 -14 -65 -65h-36l-3 29c0 25 6 46 18 64c11 19 22 30 39 43l121 82l37 29c15 11 27 29 38 54c12 24 18 47 18 70c0 40 -19 88 -94 88c-25 0 -32 0 -50 -8c-14 -5 -23 -12 -26 -22c3 -9 7 -15 10 -18l24 -17c12 -7 17 -11 27 -21c5 -7 7 -16 7 -27 c0 -12 0 -57 -79 -74c-30 0 -76 26 -76 94c0 66 80 135 196 135c72 0 182 -32 182 -150c0 -53 -32 -95 -113 -133l-91 -41c-26 -11 -45 -23 -57 -37l49 7c84 0 115 -41 148 -41c20 0 33 20 39 61h35c0 -152 -68 -168 -114 -168c-17 0 -55 0 -69 7v0l-28 17 c-49 37 -69 40 -87 42z" />
		</symbol>
		<symbol id="E084" viewBox="0 0 1000 1000" overflow="inherit">
			<path transform="scale(1,-1)" d="M0 -78c84 97 114 180 134 329h170c-13 -32 -82 -132 -99 -151l-84 -97c-33 -36 -59 -63 -80 -81h162v102l127 123v-225h57v-39h-57v-34c0 -43 19 -65 57 -65v-34h-244v36c48 0 60 26 60 70v27h-203v39z" />
		</symbol>
		<symbol id="E0A4" viewBox="0 0 1000 1000" overflow="inherit">
			<path transform="scale(1,-1)" d="M0 -39c0 68 73 172 200 172c66 0 114 -37 114 -95c0 -84 -106 -171 -218 -171c-64 0 -96 30 -96 94z" />
		</symbol>
		<symbol id="E062" viewBox="0 0 1000 1000" overflow="inherit">
			<path transform="scale(1,-1)" d="M158 96c51 0 73 -14 88 -49l16 -39c0 -17 -2 -30 -7 -40c-3 -11 -10 -21 -19 -31c-17 -18 -49 -43 -84 -43c-55 0 -77 13 -112 44c-24 21 -35 55 -35 100c0 46 14 81 32 112c30 52 71 79 137 93l36 6l26 2c154 0 235 -68 274 -182c11 -32 18 -68 18 -107 c0 -103 -26 -182 -68 -250c-89 -145 -234 -230 -412 -288l-30 -5c-9 0 -14 3 -14 8c3 10 5 11 10 16c35 15 70 30 96 44l78 43c96 57 162 136 197 258c9 33 17 60 22 100c3 22 5 35 6 39c-7 69 -16 115 -23 140s-4 22 -16 40c-8 12 -19 23 -31 34c-24 21 -62 44 -118 44 c-48 0 -84 -8 -113 -28c-28 -19 -42 -44 -42 -73v-16c2 -5 3 -9 4 -11c24 22 52 39 84 39zM585 -118c0 32 23 58 57 58c18 0 33 -6 40 -18c9 -15 16 -18 16 -40c0 -9 -2 -16 -5 -21c-6 -19 -27 -37 -51 -37c-34 0 -57 26 -57 58zM642 177c31 0 56 -27 56 -58 c0 -30 -25 -58 -56 -58l-23 3c-19 7 -34 32 -34 55l3 23c9 20 28 35 54 35z" />
		</symbol>
		<symbol id="E260" viewBox="0 0 1000 1000" overflow="inherit">
			<path transform="scale(1,-1)" d="M20 110c32 16 54 27 93 27c26 0 35 -3 54 -13c13 -7 24 -20 27 -38l4 -25c0 -28 -16 -57 -45 -89c-23 -25 -39 -44 -65 -68l-88 -79v644h20v-359zM90 106c-32 0 -48 -10 -70 -29v-194c31 31 54 59 71 84c21 32 32 59 32 84c0 9 1 16 1 20c0 14 -3 21 -11 30l-8 3z" />
		</symbol>
		<symbol id="E262" viewBox="0 0 1000 1000" overflow="inherit">
			<path transform="scale(1,-1)" d="M136 186v169h17v-164l44 14v-91l-44 -14v-165l44 12v-91l-44 -13v-155h-17v150l-76 -22v-155h-17v149l-43 -13v90l43 14v167l-43 -14v92l43 13v169h17v-163zM60 73v-167l76 22v168z" />
		</symbol>
	</defs>
	<style type="text/css">g.page-margin{font-family:Times;} g.tempo{font-weight:bold;} g.dir, g.dynam, g.mNum{font-style:italic;} g.label{font-weight:normal;}</style>
	<svg class="definition-scale" viewBox="0 0 21000 4500">
		<g class="page-margin" transform="translate(500, 500)">
			<g class="system" id="system-0000001119864277">
				<path d="M13 720 L13 2885" stroke="#000000" stroke-width="27" />
				<path d="M-32,2867 C-392,2327 58,1983 -212,1803 C121,1983 -329,2327 -32,2867" stroke="#000000" stroke-linecap="round" stroke-linejoin="round" stroke-width="18" />
				<path d="M-32,738 C-329,1278 121,1623 -212,1803 C58,1623 -392,1278 -32,738" stroke="#000000" stroke-linecap="round" stroke-linejoin="round" stroke-width="18" />
				<g class="section boundaryStart" id="section-L1F1" />
				<g class="measure" id="measure-L4">
					<g class="staff" id="staff-L4F2N1">
						<path d="M0 720 L4320 720" stroke="#000000" stroke-width="13" />
						<path d="M0 900 L4320 900" stroke="#000000" stroke-width="13" />
						<path d="M0 1080 L4320 1080" stroke="#000000" stroke-width="13" />
						<path d="M0 1260 L4320 1260" stroke="#000000" stroke-width="13" />
						<path d="M0 1440 L4320 1440" stroke="#000000" stroke-width="13" />
						<g class="clef" id="clef-0000000299776901">
							<use xlink:href="#E050" x="90" y="1260" height="720px" width="720px" />
						</g>
						<g class="meterSig" id="msig-0000000353739245">
							<use xlink:href="#E082" x="771" y="900" height="720px" width="720px" />
							<use xlink:href="#E084" x="777" y="1260" height="720px" width="720px" />
						</g>
						<g class="layer" id="layer-L4F2N1">
							<g class="beam" id="beam-L5F2-L8F2">
								<polygon points="1568,390 2692,279 2692,369 1568,480 " />
								<polygon points="1568,525 2692,414 2692,504 1568,615 " />
								<g class="note" id="note-L5F2">
									<use xlink:href="#E0A4" x="1360" y="1440" height="720px" width="720px" />
									<g class="stem">
										<rect x="1568" y="408" height="1010" width="18" />
									</g>
									<g class="accid" id="accid-0000002072874690" />
								</g>
								<g class="note" id="note-L6F2">
									<use xlink:href="#E0A4" x="1729" y="1260" height="720px" width="720px" />
									<g class="stem">
										<rect x="1937" y="371" height="867" width="18" />
									</g>
									<g class="accid" id="accid-0000001762120713" />
								</g>
								<g class="note" id="note-L7F2">
									<use xlink:href="#E0A4" x="2098" y="990" height="720px" width="720px" />
									<g class="stem">
										<rect x="2306" y="334" height="634" width="18" />
									</g>
									<g class="accid" id="accid-0000000062876270" />
								</g>
								<g class="note" id="note-L8F2">
									<use xlink:href="#E0A4" x="2466" y="1080" height="720px" width="720px" />
									<g class="stem">
										<rect x="2674" y="297" height="761" width="18" />
									</g>
									<g class="accid" id="accid-0000001036144795" />
								</g>
							</g>
							<g class="beam" id="beam-L9F2-L12F2">
								<polygon points="3043,496 4148,605 4148,695 3043,586 " />
								<polygon points="3043,631 3201,646 3201,736 3043,721 " />
								<polygon points="3990,725 4148,740 4148,830 3990,815 " />
								<g class="note" id="note-L9F2">
									<use xlink:href="#E0A4" x="2835" y="1170" height="720px" width="720px" />
									<g class="stem">
										<rect x="3043" y="514" height="634" width="18" />
									</g>
									<g class="accid" id="accid-0000001431687948" />
								</g>
								<g class="note" id="note-L10F2">
									<use xlink:href="#E0A4" x="3203" y="1440" height="720px" width="720px" />
									<g class="stem">
										<rect x="3411" y="551" height="867" width="18" />
									</g>
									<g class="accid" id="accid-0000002128474997" />
								</g>
								<g class="note" id="note-L12F2">
									<use xlink:href="#E0A4" x="3922" y="1530" height="720px" width="720px" />
									<g class="stem">
										<rect x="4130" y="623" height="885" width="18" />
									</g>
									<g class="accid" id="accid-0000000479774482" />
								</g>
							</g>
						</g>
					</g>
					<g class="staff" id="staff-L4F1N1">
						<path d="M0 2165 L4320 2165" stroke="#000000" stroke-width="13" />
						<path d="M0 2345 L4320 2345" stroke="#000000" stroke-width="13" />
						<path d="M0 2525 L4320 2525" stroke="#000000" stroke-width="13" />
						<path d="M0 2705 L4320 2705" stroke="#000000" stroke-width="13" />
						<path d="M0 2885 L4320 2885" stroke="#000000" stroke-width="13" />
						<g class="clef" id="clef-0000001060755819">
							<use xlink:href="#E062" x="90" y="2345" height="720px" width="720px" />
						</g>
						<g class="meterSig" id="msig-0000001861296186">
							<use xlink:href="#E082" x="771" y="2345" height="720px" width="720px" />
							<use xlink:href="#E084" x="777" y="2705" height="720px" width="720px" />
						</g>
						<g class="layer" id="layer-L4F1N1">
							<g class="beam" id="beam-L5F1-L8F1">
								<polygon points="1360,3290 2484,3179 2484,3089 1360,3200 " />
								<polygon points="1360,3155 2484,3044 2484,2954 1360,3065 " />
								<g class="note" id="note-L5F1">
									<use xlink:href="#E0A4" x="1360" y="2615" height="720px" width="720px" />
									<g class="stem">
										<rect x="1360" y="2637" height="635" width="18" />
									</g>
									<g class="accid" id="accid-0000000764492385" />
								</g>
								<g class="note" id="note-L6F1">
									<use xlink:href="#E0A4" x="1729" y="2525" height="720px" width="720px" />
									<g class="stem">
										<rect x="1729" y="2547" height="688" width="18" />
									</g>
									<g class="accid" id="accid-0000000805722726" />
								</g>
								<g class="note" id="note-L7F1">
									<use xlink:href="#E0A4" x="2098" y="2435" height="720px" width="720px" />
									<g class="stem">
										<rect x="2098" y="2457" height="741" width="18" />
									</g>
									<g class="accid" id="accid-0000000504062479" />
								</g>
								<g class="note" id="note-L8F1">
									<use xlink:href="#E0A4" x="2466" y="2255" height="720px" width="720px" />
									<g class="stem">
										<rect x="2466" y="2277" height="884" width="18" />
									</g>
									<g class="accid" id="accid-0000001231842110" />
								</g>
							</g>
							<g class="beam" id="beam-L9F1-L12F1">
								<polygon points="2835,2948 3940,2930 3940,2840 2835,2858 " />
								<polygon points="3562,2801 3940,2795 3940,2705 3562,2711 " />
								<g class="note" id="note-L9F1">
									<use xlink:href="#E0A4" x="2835" y="2255" height="720px" width="720px" />
									<g class="stem">
										<rect x="2835" y="2277" height="653" width="18" />
									</g>
									<g class="accid" id="accid-0000000901856292" />
								</g>
								<g class="note" id="note-L11F1">
									<use xlink:href="#E0A4" x="3553" y="2165" height="720px" width="720px" />
									<g class="stem">
										<rect x="3553" y="2187" height="731" width="18" />
									</g>
									<g class="accid" id="accid-0000001874060601" />
								</g>
								<g class="note" id="note-L12F1">
									<use xlink:href="#E0A4" x="3922" y="2255" height="720px" width="720px" />
									<g class="stem">
										<rect x="3922" y="2277" height="635" width="18" />
									</g>
									<g class="accid" id="accid-0000000648095107" />
								</g>
							</g>
						</g>
					</g>
					<g class="tie" id="tie-L8F1-L9F1">
						<path d="M2579,2120 C2671,1978 2855,1978 2948,2120 C2855,2022 2671,2022 2579,2120" stroke="#000000" stroke-linecap="round" stroke-linejoin="round" stroke-width="9" />
					</g>
					<g class="mNum autogenerated" id="mnum-0000001594481953" />
					<g class="barLineAttr" id="bline-0000001902219149">
						<path d="M4307 2885 L4307 720" stroke="#000000" stroke-width="27" />
					</g>
				</g>
				<g class="measure" id="measure-L13">
					<g class="staff" id="staff-L13F2N1">
						<path d="M4320 720 L7508 720" stroke="#000000" stroke-width="13" />
						<path d="M4320 900 L7508 900" stroke="#000000" stroke-width="13" />
						<path d="M4320 1080 L7508 1080" stroke="#000000" stroke-width="13" />
						<path d="M4320 1260 L7508 1260" stroke="#000000" stroke-width="13" />
						<path d="M4320 1440 L7508 1440" stroke="#000000" stroke-width="13" />
						<g class="layer" id="layer-L13F2N1">
							<g class="beam" id="beam-L14F2-L17F2">
								<polygon points="4738,427 5862,316 5862,406 4738,517 " />
								<polygon points="4738,562 5862,451 5862,541 4738,652 " />
								<g class="note" id="note-L14F2">
									<use xlink:href="#E0A4" x="4530" y="1440" height="720px" width="720px" />
									<g class="stem">
										<rect x="4738" y="445" height="973" width="18" />
									</g>
									<g class="accid" id="accid-0000000181626681" />
								</g>
								<g class="note" id="note-L15F2">
									<use xlink:href="#E0A4" x="4899" y="1170" height="720px" width="720px" />
									<g class="stem">
										<rect x="5107" y="408" height="740" width="18" />
									</g>
									<g class="accid" id="accid-0000001903796732" />
								</g>
								<g class="note" id="note-L16F2">
									<use xlink:href="#E0A4" x="5268" y="1080" height="720px" width="720px" />
									<g class="stem">
										<rect x="5476" y="371" height="687" width="18" />
									</g>
									<g class="accid" id="accid-0000000432649751" />
								</g>
								<g class="note" id="note-L17F2">
									<use xlink:href="#E0A4" x="5636" y="990" height="720px" width="720px" />
									<g class="stem">
										<rect x="5844" y="334" height="634" width="18" />
									</g>
									<g class="accid" id="accid-0000000616825222" />
								</g>
							</g>
							<g class="beam" id="beam-L18F2-L21F2">
								<polygon points="6213,406 7337,517 7337,607 6213,496 " />
								<polygon points="6213,541 6371,556 6371,646 6213,631 " />
								<polygon points="7179,637 7337,652 7337,742 7179,727 " />
								<g class="note" id="note-L18F2">
									<use xlink:href="#E0A4" x="6005" y="1080" height="720px" width="720px" />
									<g class="stem">
										<rect x="6213" y="424" height="634" width="18" />
									</g>
									<g class="accid" id="accid-0000001304237466" />
								</g>
								<g class="note" id="note-L19F2">
									<use xlink:href="#E0A4" x="6373" y="1440" height="720px" width="720px" />
									<g class="stem">
										<rect x="6581" y="461" height="957" width="18" />
									</g>
									<g class="accid" id="accid-0000001054603417" />
								</g>
								<g class="note" id="note-L21F2">
									<use xlink:href="#E0A4" x="7111" y="1530" height="720px" width="720px" />
									<g class="stem">
										<rect x="7319" y="535" height="973" width="18" />
									</g>
									<g class="accid" id="accid-0000001804756433" />
								</g>
							</g>
						</g>
					</g>
					<g class="staff" id="staff-L13F1N1">
						<path d="M4320 2165 L7508 2165" stroke="#000000" stroke-width="13" />
						<path d="M4320 2345 L7508 2345" stroke="#000000" stroke-width="13" />
						<path d="M4320 2525 L7508 2525" stroke="#000000" stroke-width="13" />
						<path d="M4320 2705 L7508 2705" stroke="#000000" stroke-width="13" />
						<path d="M4320 2885 L7508 2885" stroke="#000000" stroke-width="13" />
						<g class="ledgerLines above">
							<path d="M4499 1985 L4778 1985" stroke="#000000" stroke-width="22" />
						</g>
						<g class="layer" id="layer-L13F1N1">
							<g class="beam" id="beam-L14F1-L15F1">
								<polygon points="4530,2983 4917,3020 4917,2930 4530,2893 " />
								<polygon points="4530,2848 4688,2863 4688,2773 4530,2758 " />
								<g class="note" id="note-L14F1">
									<use xlink:href="#E0A4" x="4530" y="1985" height="720px" width="720px" />
									<g class="stem">
										<rect x="4530" y="2007" height="958" width="18" />
									</g>
									<g class="accid" id="accid-0000000024160637" />
								</g>
								<g class="note" id="note-L15F1">
									<use xlink:href="#E0A4" x="4899" y="2345" height="720px" width="720px" />
									<g class="dots" id="dots-0000001822697929">
										<ellipse cx="5215" cy="2255" rx="36" ry="36" />
									</g>
									<g class="stem">
										<rect x="4899" y="2367" height="635" width="18" />
									</g>
									<g class="accid" id="accid-0000001612996321" />
								</g>
							</g>
							<g class="beam" id="beam-L18F1-L21F1">
								<polygon points="6005,3110 7129,3084 7129,2994 6005,3020 " />
								<polygon points="6005,2975 7129,2949 7129,2859 6005,2885 " />
								<g class="note" id="note-L18F1">
									<use xlink:href="#E0A4" x="6005" y="2435" height="720px" width="720px" />
									<g class="stem">
										<rect x="6005" y="2457" height="635" width="18" />
									</g>
									<g class="accid" id="accid-0000001779422645" />
								</g>
								<g class="note" id="note-L19F1">
									<use xlink:href="#E0A4" x="6373" y="2075" height="720px" width="720px" />
									<g class="stem">
										<rect x="6373" y="2097" height="986" width="18" />
									</g>
									<g class="accid" id="accid-0000001922346859" />
								</g>
								<g class="note" id="note-L20F1">
									<use xlink:href="#E0A4" x="6742" y="2255" height="720px" width="720px" />
									<g class="stem">
										<rect x="6742" y="2277" height="797" width="18" />
									</g>
									<g class="accid" id="accid-0000001882963200" />
								</g>
								<g class="note" id="note-L21F1">
									<use xlink:href="#E0A4" x="7111" y="2345" height="720px" width="720px" />
									<g class="stem">
										<rect x="7111" y="2367" height="699" width="18" />
									</g>
									<g class="accid" id="accid-0000001037188142" />
								</g>
							</g>
						</g>
					</g>
					<g class="mNum autogenerated" id="mnum-0000000712569334" />
					<g class="barLineAttr" id="bline-0000000873833739">
						<path d="M7495 2885 L7495 720" stroke="#000000" stroke-width="27" />
					</g>
				</g>
				<g class="measure" id="measure-L22">
					<g class="staff" id="staff-L22F2N1">
						<path d="M7508 720 L11592 720" stroke="#000000" stroke-width="13" />
						<path d="M7508 900 L11592 900" stroke="#000000" stroke-width="13" />
						<path d="M7508 1080 L11592 1080" stroke="#000000" stroke-width="13" />
						<path d="M7508 1260 L11592 1260" stroke="#000000" stroke-width="13" />
						<path d="M7508 1440 L11592 1440" stroke="#000000" stroke-width="13" />
						<g class="layer" id="layer-L22F2N1">
							<g class="beam" id="beam-L23F2-L26F2">
								<polygon points="8155,413 9736,256 9736,346 8155,503 " />
								<polygon points="8155,548 9736,391 9736,481 8155,638 " />
								<g class="note" id="note-L23F2">
									<use xlink:href="#E0A4" x="7947" y="1440" height="720px" width="720px" />
									<g class="stem">
										<rect x="8155" y="431" height="987" width="18" />
									</g>
									<g class="accid" id="accid-0000000178233363">
										<use xlink:href="#E260" x="7751" y="1440" height="720px" width="720px" />
									</g>
								</g>
								<g class="note" id="note-L24F2">
									<use xlink:href="#E0A4" x="8316" y="1260" height="720px" width="720px" />
									<g class="stem">
										<rect x="8524" y="394" height="844" width="18" />
									</g>
									<g class="accid" id="accid-0000000735165353" />
								</g>
								<g class="note" id="note-L25F2">
									<use xlink:href="#E0A4" x="8913" y="990" height="720px" width="720px" />
									<g class="stem">
										<rect x="9121" y="334" height="634" width="18" />
									</g>
									<g class="accid" id="accid-0000000973046369" />
								</g>
								<g class="note" id="note-L26F2">
									<use xlink:href="#E0A4" x="9510" y="1080" height="720px" width="720px" />
									<g class="stem">
										<rect x="9718" y="274" height="784" width="18" />
									</g>
									<g class="accid" id="accid-0000000298498432">
										<use xlink:href="#E260" x="9314" y="1080" height="720px" width="720px" />
									</g>
								</g>
							</g>
							<g class="beam" id="beam-L27F2-L30F2">
								<polygon points="10315,496 11420,605 11420,695 10315,586 " />
								<polygon points="10315,631 10473,646 10473,736 10315,721 " />
								<polygon points="11262,725 11420,740 11420,830 11262,815 " />
								<g class="note" id="note-L27F2">
									<use xlink:href="#E0A4" x="10107" y="1170" height="720px" width="720px" />
									<g class="stem">
										<rect x="10315" y="514" height="634" width="18" />
									</g>
									<g class="accid" id="accid-0000001902825595">
										<use xlink:href="#E260" x="9911" y="1170" height="720px" width="720px" />
									</g>
								</g>
								<g class="note" id="note-L28F2">
									<use xlink:href="#E0A4" x="10476" y="1440" height="720px" width="720px" />
									<g class="stem">
										<rect x="10684" y="551" height="867" width="18" />
									</g>
									<g class="accid" id="accid-0000002122796712" />
								</g>
								<g class="note" id="note-L30F2">
									<use xlink:href="#E0A4" x="11194" y="1530" height="720px" width="720px" />
									<g class="stem">
										<rect x="11402" y="623" height="885" width="18" />
									</g>
									<g class="accid" id="accid-0000000373803640" />
								</g>
							</g>
						</g>
					</g>
					<g class="staff" id="staff-L22F1N1">
						<path d="M7508 2165 L11592 2165" stroke="#000000" stroke-width="13" />
						<path d="M7508 2345 L11592 2345" stroke="#000000" stroke-width="13" />
						<path d="M7508 2525 L11592 2525" stroke="#000000" stroke-width="13" />
						<path d="M7508 2705 L11592 2705" stroke="#000000" stroke-width="13" />
						<path d="M7508 2885 L11592 2885" stroke="#000000" stroke-width="13" />
						<g class="layer" id="layer-L22F1N1">
							<g class="beam" id="beam-L23F1-L26F1">
								<polygon points="7947,3290 9528,3133 9528,3043 7947,3200 " />
								<polygon points="7947,3155 9528,2998 9528,2908 7947,3065 " />
								<g class="note" id="note-L23F1">
									<use xlink:href="#E0A4" x="7947" y="2615" height="720px" width="720px" />
									<g class="stem">
										<rect x="7947" y="2637" height="635" width="18" />
									</g>
									<g class="accid" id="accid-0000001325884396" />
								</g>
								<g class="note" id="note-L24F1">
									<use xlink:href="#E0A4" x="8316" y="2525" height="720px" width="720px" />
									<g class="stem">
										<rect x="8316" y="2547" height="688" width="18" />
									</g>
									<g class="accid" id="accid-0000001682291304" />
								</g>
								<g class="note" id="note-L25F1">
									<use xlink:href="#E0A4" x="8913" y="2435" height="720px" width="720px" />
									<g class="stem">
										<rect x="8913" y="2457" height="718" width="18" />
									</g>
									<g class="accid" id="accid-0000000302028277">
										<use xlink:href="#E260" x="8717" y="2435" height="720px" width="720px" />
									</g>
								</g>
								<g class="note" id="note-L26F1">
									<use xlink:href="#E0A4" x="9510" y="2255" height="720px" width="720px" />
									<g class="stem">
										<rect x="9510" y="2277" height="838" width="18" />
									</g>
									<g class="accid" id="accid-0000001102242216" />
								</g>
							</g>
							<g class="beam" id="beam-L27F1-L30F1">
								<polygon points="10107,2948 11212,2930 11212,2840 10107,2858 " />
								<polygon points="10835,2801 11212,2795 11212,2705 10835,2711 " />
								<g class="note" id="note-L27F1">
									<use xlink:href="#E0A4" x="10107" y="2255" height="720px" width="720px" />
									<g class="stem">
										<rect x="10107" y="2277" height="653" width="18" />
									</g>
									<g class="accid" id="accid-0000001627035420" />
								</g>
								<g class="note" id="note-L29F1">
									<use xlink:href="#E0A4" x="10826" y="2165" height="720px" width="720px" />
									<g class="stem">
										<rect x="10826" y="2187" height="731" width="18" />
									</g>
									<g class="accid" id="accid-0000000810433500">
										<use xlink:href="#E260" x="10630" y="2165" height="720px" width="720px" />
									</g>
								</g>
								<g class="note" id="note-L30F1">
									<use xlink:href="#E0A4" x="11194" y="2255" height="720px" width="720px" />
									<g class="stem">
										<rect x="11194" y="2277" height="635" width="18" />
									</g>
									<g class="accid" id="accid-0000000058249890" />
								</g>
							</g>
						</g>
					</g>
					<g class="tie" id="tie-L26F1-L27F1">
						<path d="M9758,2210 C9839,2068 10001,2068 10085,2210 C10001,2112 9839,2112 9758,2210" stroke="#000000" stroke-linecap="round" stroke-linejoin="round" stroke-width="9" />
					</g>
					<g class="mNum autogenerated" id="mnum-0000000199735448" />
					<g class="barLineAttr" id="bline-0000000079357547">
						<path d="M11579 2885 L11579 720" stroke="#000000" stroke-width="27" />
					</g>
				</g>
				<g class="measure" id="measure-L31">
					<g class="staff" id="staff-L31F2N1">
						<path d="M11592 720 L15695 720" stroke="#000000" stroke-width="13" />
						<path d="M11592 900 L15695 900" stroke="#000000" stroke-width="13" />
						<path d="M11592 1080 L15695 1080" stroke="#000000" stroke-width="13" />
						<path d="M11592 1260 L15695 1260" stroke="#000000" stroke-width="13" />
						<path d="M11592 1440 L15695 1440" stroke="#000000" stroke-width="13" />
						<g class="layer" id="layer-L31F2N1">
							<g class="beam" id="beam-L32F2-L35F2">
								<polygon points="12239,473 13820,316 13820,406 12239,563 " />
								<polygon points="12239,608 13820,451 13820,541 12239,698 " />
								<g class="note" id="note-L32F2">
									<use xlink:href="#E0A4" x="12031" y="1440" height="720px" width="720px" />
									<g class="stem">
										<rect x="12239" y="491" height="927" width="18" />
									</g>
									<g class="accid" id="accid-0000000774304732">
										<use xlink:href="#E260" x="11835" y="1440" height="720px" width="720px" />
									</g>
								</g>
								<g class="note" id="note-L33F2">
									<use xlink:href="#E0A4" x="12628" y="1170" height="720px" width="720px" />
									<g class="stem">
										<rect x="12836" y="431" height="717" width="18" />
									</g>
									<g class="accid" id="accid-0000001709541111">
										<use xlink:href="#E260" x="12432" y="1170" height="720px" width="720px" />
									</g>
								</g>
								<g class="note" id="note-L34F2">
									<use xlink:href="#E0A4" x="13225" y="1080" height="720px" width="720px" />
									<g class="stem">
										<rect x="13433" y="371" height="687" width="18" />
									</g>
									<g class="accid" id="accid-0000001032405007">
										<use xlink:href="#E260" x="13029" y="1080" height="720px" width="720px" />
									</g>
								</g>
								<g class="note" id="note-L35F2">
									<use xlink:href="#E0A4" x="13594" y="990" height="720px" width="720px" />
									<g class="stem">
										<rect x="13802" y="334" height="634" width="18" />
									</g>
									<g class="accid" id="accid-0000000190503406" />
								</g>
							</g>
							<g class="beam" id="beam-L36F2-L39F2">
								<polygon points="14171,406 15523,540 15523,630 14171,496 " />
								<polygon points="14171,541 14329,556 14329,646 14171,631 " />
								<polygon points="15365,660 15523,675 15523,765 15365,750 " />
								<g class="note" id="note-L36F2">
									<use xlink:href="#E0A4" x="13963" y="1080" height="720px" width="720px" />
									<g class="stem">
										<rect x="14171" y="424" height="634" width="18" />
									</g>
									<g class="accid" id="accid-0000001009062249" />
								</g>
								<g class="note" id="note-L37F2">
									<use xlink:href="#E0A4" x="14560" y="1440" height="720px" width="720px" />
									<g class="stem">
										<rect x="14768" y="484" height="934" width="18" />
									</g>
									<g class="accid" id="accid-0000000713456049" />
								</g>
								<g class="note" id="note-L39F2">
									<use xlink:href="#E0A4" x="15297" y="1530" height="720px" width="720px" />
									<g class="stem">
										<rect x="15505" y="558" height="950" width="18" />
									</g>
									<g class="accid" id="accid-0000001337500991" />
								</g>
							</g>
						</g>
					</g>
					<g class="staff" id="staff-L31F1N1">
						<path d="M11592 2165 L15695 2165" stroke="#000000" stroke-width="13" />
						<path d="M11592 2345 L15695 2345" stroke="#000000" stroke-width="13" />
						<path d="M11592 2525 L15695 2525" stroke="#000000" stroke-width="13" />
						<path d="M11592 2705 L15695 2705" stroke="#000000" stroke-width="13" />
						<path d="M11592 2885 L15695 2885" stroke="#000000" stroke-width="13" />
						<g class="ledgerLines above">
							<path d="M12000 1985 L12279 1985" stroke="#000000" stroke-width="22" />
						</g>
						<g class="layer" id="layer-L31F1N1">
							<g class="beam" id="beam-L32F1-L33F1">
								<polygon points="12031,2960 12646,3020 12646,2930 12031,2870 " />
								<polygon points="12031,2825 12189,2840 12189,2750 12031,2735 " />
								<g class="note" id="note-L32F1">
									<use xlink:href="#E0A4" x="12031" y="1985" height="720px" width="720px" />
									<g class="stem">
										<rect x="12031" y="2007" height="935" width="18" />
									</g>
									<g class="accid" id="accid-0000000023855554" />
								</g>
								<g class="note" id="note-L33F1">
									<use xlink:href="#E0A4" x="12628" y="2345" height="720px" width="720px" />
									<g class="dots" id="dots-0000000678500776">
										<ellipse cx="12944" cy="2255" rx="36" ry="36" />
									</g>
									<g class="stem">
										<rect x="12628" y="2367" height="635" width="18" />
									</g>
									<g class="accid" id="accid-0000001735359764" />
								</g>
							</g>
							<g class="beam" id="beam-L36F1-L39F1">
								<polygon points="13963,3110 15315,3038 15315,2948 13963,3020 " />
								<polygon points="13963,2975 15315,2903 15315,2813 13963,2885 " />
								<g class="note" id="note-L36F1">
									<use xlink:href="#E0A4" x="13963" y="2435" height="720px" width="720px" />
									<g class="stem">
										<rect x="13963" y="2457" height="635" width="18" />
									</g>
									<g class="accid" id="accid-0000001291747541">
										<use xlink:href="#E260" x="13767" y="2435" height="720px" width="720px" />
									</g>
								</g>
								<g class="note" id="note-L37F1">
									<use xlink:href="#E0A4" x="14560" y="2075" height="720px" width="720px" />
									<g class="stem">
										<rect x="14560" y="2097" height="963" width="18" />
									</g>
									<g class="accid" id="accid-0000000821442451">
										<use xlink:href="#E260" x="14364" y="2075" height="720px" width="720px" />
									</g>
								</g>
								<g class="note" id="note-L38F1">
									<use xlink:href="#E0A4" x="14928" y="2255" height="720px" width="720px" />
									<g class="stem">
										<rect x="14928" y="2277" height="763" width="18" />
									</g>
									<g class="accid" id="accid-0000000196368518" />
								</g>
								<g class="note" id="note-L39F1">
									<use xlink:href="#E0A4" x="15297" y="2345" height="720px" width="720px" />
									<g class="stem">
										<rect x="15297" y="2367" height="653" width="18" />
									</g>
									<g class="accid" id="accid-0000001113838622" />
								</g>
							</g>
						</g>
					</g>
					<g class="mNum autogenerated" id="mnum-0000000093854479" />
					<g class="barLineAttr" id="bline-0000000799582584">
						<path d="M15682 2885 L15682 720" stroke="#000000" stroke-width="27" />
					</g>
				</g>
				<g class="measure" id="measure-L40">
					<g class="staff" id="staff-L40F2N1">
						<path d="M15695 720 L20002 720" stroke="#000000" stroke-width="13" />
						<path d="M15695 900 L20002 900" stroke="#000000" stroke-width="13" />
						<path d="M15695 1080 L20002 1080" stroke="#000000" stroke-width="13" />
						<path d="M15695 1260 L20002 1260" stroke="#000000" stroke-width="13" />
						<path d="M15695 1440 L20002 1440" stroke="#000000" stroke-width="13" />
						<g class="ledgerLines below">
							<path d="M19573 1620 L19852 1620" stroke="#000000" stroke-width="22" />
						</g>
						<g class="layer" id="layer-L40F2N1">
							<g class="beam" id="beam-L41F2-L44F2">
								<polygon points="16341,525 18147,346 18147,436 16341,615 " />
								<polygon points="16341,660 18147,481 18147,571 16341,750 " />
								<g class="note" id="note-L41F2">
									<use xlink:href="#E0A4" x="16133" y="1530" height="720px" width="720px" />
									<g class="stem">
										<rect x="16341" y="543" height="965" width="18" />
									</g>
									<g class="accid" id="accid-0000002039120227">
										<use xlink:href="#E262" x="15938" y="1530" height="720px" width="720px" />
									</g>
								</g>
								<g class="note" id="note-L42F2">
									<use xlink:href="#E0A4" x="16729" y="1350" height="720px" width="720px" />
									<g class="stem">
										<rect x="16937" y="483" height="845" width="18" />
									</g>
									<g class="accid" id="accid-0000000896727015">
										<use xlink:href="#E262" x="16534" y="1350" height="720px" width="720px" />
									</g>
								</g>
								<g class="note" id="note-L43F2">
									<use xlink:href="#E0A4" x="17325" y="1080" height="720px" width="720px" />
									<g class="stem">
										<rect x="17533" y="424" height="634" width="18" />
									</g>
									<g class="accid" id="accid-0000000260540999" />
								</g>
								<g class="note" id="note-L44F2">
									<use xlink:href="#E0A4" x="17921" y="1170" height="720px" width="720px" />
									<g class="stem">
										<rect x="18129" y="364" height="784" width="18" />
									</g>
									<g class="accid" id="accid-0000001565667809">
										<use xlink:href="#E262" x="17726" y="1170" height="720px" width="720px" />
									</g>
								</g>
							</g>
							<g class="beam" id="beam-L45F2-L48F2">
								<polygon points="18725,586 19830,695 19830,785 18725,676 " />
								<polygon points="18725,721 18883,736 18883,826 18725,811 " />
								<polygon points="19672,815 19830,830 19830,920 19672,905 " />
								<g class="note" id="note-L45F2">
									<use xlink:href="#E0A4" x="18517" y="1260" height="720px" width="720px" />
									<g class="stem">
										<rect x="18725" y="604" height="634" width="18" />
									</g>
									<g class="accid" id="accid-0000000579469994">
										<use xlink:href="#E262" x="18322" y="1260" height="720px" width="720px" />
									</g>
								</g>
								<g class="note" id="note-L46F2">
									<use xlink:href="#E0A4" x="18886" y="1530" height="720px" width="720px" />
									<g class="stem">
										<rect x="19094" y="641" height="867" width="18" />
									</g>
									<g class="accid" id="accid-0000000657331459" />
								</g>
								<g class="note" id="note-L48F2">
									<use xlink:href="#E0A4" x="19604" y="1620" height="720px" width="720px" />
									<g class="stem">
										<rect x="19812" y="713" height="885" width="18" />
									</g>
									<g class="accid" id="accid-0000000416140169">
										<use xlink:href="#E262" x="19409" y="1620" height="720px" width="720px" />
									</g>
								</g>
							</g>
						</g>
					</g>
					<g class="staff" id="staff-L40F1N1">
						<path d="M15695 2165 L20002 2165" stroke="#000000" stroke-width="13" />
						<path d="M15695 2345 L20002 2345" stroke="#000000" stroke-width="13" />
						<path d="M15695 2525 L20002 2525" stroke="#000000" stroke-width="13" />
						<path d="M15695 2705 L20002 2705" stroke="#000000" stroke-width="13" />
						<path d="M15695 2885 L20002 2885" stroke="#000000" stroke-width="13" />
						<g class="layer" id="layer-L40F1N1">
							<g class="beam" id="beam-L41F1-L44F1">
								<polygon points="16341,1850 18147,1671 18147,1761 16341,1940 " />
								<polygon points="16341,1985 18147,1806 18147,1896 16341,2075 " />
								<g class="note" id="note-L41F1">
									<use xlink:href="#E0A4" x="16133" y="2705" height="720px" width="720px" />
									<g class="stem">
										<rect x="16341" y="1868" height="815" width="18" />
									</g>
									<g class="accid" id="accid-0000000460341514" />
								</g>
								<g class="note" id="note-L42F1">
									<use xlink:href="#E0A4" x="16729" y="2615" height="720px" width="720px" />
									<g class="stem">
										<rect x="16937" y="1808" height="785" width="18" />
									</g>
									<g class="accid" id="accid-0000001164014298">
										<use xlink:href="#E262" x="16534" y="2615" height="720px" width="720px" />
									</g>
								</g>
								<g class="note" id="note-L43F1">
									<use xlink:href="#E0A4" x="17325" y="2525" height="720px" width="720px" />
									<g class="stem">
										<rect x="17533" y="1749" height="754" width="18" />
									</g>
									<g class="accid" id="accid-0000000270454900">
										<use xlink:href="#E262" x="17130" y="2525" height="720px" width="720px" />
									</g>
								</g>
								<g class="note" id="note-L44F1">
									<use xlink:href="#E0A4" x="17921" y="2345" height="720px" width="720px" />
									<g class="stem">
										<rect x="18129" y="1689" height="634" width="18" />
									</g>
									<g class="accid" id="accid-0000000726882867">
										<use xlink:href="#E262" x="17726" y="2345" height="720px" width="720px" />
									</g>
								</g>
							</g>
							<g class="beam" id="beam-L45F1-L48F1">
								<polygon points="18517,3038 19622,3020 19622,2930 18517,2948 " />
								<polygon points="19245,2891 19622,2885 19622,2795 19245,2801 " />
								<g class="note" id="note-L45F1">
									<use xlink:href="#E0A4" x="18517" y="2345" height="720px" width="720px" />
									<g class="stem">
										<rect x="18517" y="2367" height="653" width="18" />
									</g>
									<g class="accid" id="accid-0000001970497677" />
								</g>
								<g class="note" id="note-L47F1">
									<use xlink:href="#E0A4" x="19236" y="2255" height="720px" width="720px" />
									<g class="stem">
										<rect x="19236" y="2277" height="731" width="18" />
									</g>
									<g class="accid" id="accid-0000002091278038">
										<use xlink:href="#E262" x="19041" y="2255" height="720px" width="720px" />
									</g>
								</g>
								<g class="note" id="note-L48F1">
									<use xlink:href="#E0A4" x="19604" y="2345" height="720px" width="720px" />
									<g class="stem">
										<rect x="19604" y="2367" height="635" width="18" />
									</g>
									<g class="accid" id="accid-0000001097150173" />
								</g>
							</g>
						</g>
					</g>
					<g class="tie" id="tie-L44F1-L45F1">
						<path d="M18169,2390 C18250,2488 18412,2488 18495,2390 C18412,2532 18250,2532 18169,2390" stroke="#000000" stroke-linecap="round" stroke-linejoin="round" stroke-width="9" />
					</g>
					<g class="mNum autogenerated" id="mnum-0000001234780001" />
					<g class="barLineAttr" id="bline-0000001302674022">
						<path d="M19989 2885 L19989 720" stroke="#000000" stroke-width="27" />
					</g>
				</g>
			</g>
		</g>
	</svg>
</svg>
