<?xml version="1.0" encoding="UTF-8" standalone="no"?>
<svg width="2100.00px" height="450.00px" version="1.1" xmlns="http://www.w3.org/2000/svg" xmlns:xlink="http://www.w3.org/1999/xlink" overflow="visible">
	<desc>Engraved by Verovio 2.0.0-dev-0f0381c</desc>
	<defs>
		<symbol id="E050" viewBox="0 0 1000 1000" overflow="inherit">
			<path transform="scale(1,-1)" d="M441 -245c-23 -4 -48 -6 -76 -6c-59 0 -102 7 -130 20c-88 42 -150 93 -187 154c-26 44 -43 103 -48 176c-4 60 11 123 44 189c29 57 65 106 110 148s96 85 153 127c-3 16 -8 46 -13 92c-4 43 -5 73 -5 89c0 117 16 172 69 257c34 54 64 82 89 82c21 0 43 -30 69 -92 s39 -115 41 -159c2 -120 -19 -173 -67 -256c-13 -20 -63 -90 -98 -118c-13 -9 -25 -19 -37 -29l31 -181c8 1 18 2 28 2c58 0 102 -12 133 -35c59 -43 92 -104 98 -184c11 -135 -80 -229 -180 -270c8 -57 17 -110 25 -162c5 -31 6 -58 6 -80c0 -30 -5 -53 -14 -70 c-35 -64 -88 -99 -158 -103c-42 -3 -83 6 -124 26c-50 24 -77 59 -80 105c-2 34 5 63 20 87c18 28 45 42 79 44c51 4 99 -40 103 -87c4 -56 -30 -94 -105 -115c17 -24 51 -36 102 -36c62 0 116 43 140 85c9 16 13 41 13 74c0 20 -1 42 -5 67c-8 53 -18 106 -26 159zM461 939 c-95 0 -135 -175 -135 -286c0 -24 2 -48 5 -71c50 39 92 82 127 128c43 57 63 106 60 148c-4 54 -23 82 -57 81zM406 119l54 -326c80 27 116 88 109 184c-7 99 -62 146 -163 142zM382 117c-74 -2 -132 -50 -128 -127c2 -46 43 -99 75 -115c-3 -2 -7 -5 -10 -10 c-70 33 -116 88 -123 172c-5 73 42 135 88 170c23 17 49 29 78 36l-29 170c-21 -13 -52 -37 -92 -73c-50 -44 -86 -84 -109 -119c-49 -75 -71 -140 -67 -195c5 -68 35 -127 93 -176s125 -73 203 -73c25 0 50 3 75 9c-19 111 -36 221 -54 331z" />
		</symbol>
		<symbol id="E082" viewBox="0 0 1000 1000" overflow="inherit">
			<path transform="scale(1,-1)" d="M104 -185c-18 0 -55 -14 -65 -65h-36l-3 29c0 25 6 46 18 64c11 19 22 30 39 43l121 82l37 29c15 11 27 29 38 54c12 24 18 47 18 70c0 40 -19 88 -94 88c-25 0 -32 0 -50 -8c-14 -5 -23 -12 -26 -22c3 -9 7 -15 10 -18l24 -17c12 -7 17 -11 27 -21c5 -7 7 -16 7 -27 c0 -12 0 -57 -79 -74c-30 0 -76 26 -76 94c0 66 80 135 196 135c72 0 182 -32 182 -150c0 -53 -32 -95 -113 -133l-91 -41c-26 -11 -45 -23 -57 -37l49 7c84 0 115 -41 148 -41c20 0 33 20 39 61h35c0 -152 -68 -168 -114 -168c-17 0 -55 0 -69 7v0l-28 17 c-49 37 -69 40 -87 42z" />
		</symbol>
		<symbol id="E084" viewBox="0 0 1000 1000" overflow="inherit">
			<path transform="scale(1,-1)" d="M0 -78c84 97 114 180 134 329h170c-13 -32 -82 -132 -99 -151l-84 -97c-33 -36 -59 -63 -80 -81h162v102l127 123v-225h57v-39h-57v-34c0 -43 19 -65 57 -65v-34h-244v36c48 0 60 26 60 70v27h-203v39z" />
		</symbol>
		<symbol id="E0A4" viewBox="0 0 1000 1000" overflow="inherit">
			<path transform="scale(1,-1)" d="M0 -39c0 68 73 172 200 172c66 0 114 -37 114 -95c0 -84 -106 -171 -218 -171c-64 0 -96 30 -96 94z" />
		</symbol>
		<symbol id="E062" viewBox="0 0 1000 1000" overflow="inherit">
			<path transform="scale(1,-1)" d="M158 96c51 0 73 -14 88 -49l16 -39c0 -17 -2 -30 -7 -40c-3 -11 -10 -21 -19 -31c-17 -18 -49 -43 -84 -43c-55 0 -77 13 -112 44c-24 21 -35 55 -35 100c0 46 14 81 32 112c30 52 71 79 137 93l36 6l26 2c154 0 235 -68 274 -182c11 -32 18 -68 18 -107 c0 -103 -26 -182 -68 -250c-89 -145 -234 -230 -412 -288l-30 -5c-9 0 -14 3 -14 8c3 10 5 11 10 16c35 15 70 30 96 44l78 43c96 57 162 136 197 258c9 33 17 60 22 100c3 22 5 35 6 39c-7 69 -16 115 -23 140s-4 22 -16 40c-8 12 -19 23 -31 34c-24 21 -62 44 -118 44 c-48 0 -84 -8 -113 -28c-28 -19 -42 -44 -42 -73v-16c2 -5 3 -9 4 -11c24 22 52 39 84 39zM585 -118c0 32 23 58 57 58c18 0 33 -6 40 -18c9 -15 16 -18 16 -40c0 -9 -2 -16 -5 -21c-6 -19 -27 -37 -51 -37c-34 0 -57 26 -57 58zM642 177c31 0 56 -27 56 -58 c0 -30 -25 -58 -56 -58l-23 3c-19 7 -34 32 -34 55l3 23c9 20 28 35 54 35z" />
		</symbol>
		<symbol id="E260" viewBox="0 0 1000 1000" overflow="inherit">
			<path transform="scale(1,-1)" d="M20 110c32 16 54 27 93 27c26 0 35 -3 54 -13c13 -7 24 -20 27 -38l4 -25c0 -28 -16 -57 -45 -89c-23 -25 -39 -44 -65 -68l-88 -79v644h20v-359zM90 106c-32 0 -48 -10 -70 -29v-194c31 31 54 59 71 84c21 32 32 59 32 84c0 9 1 16 1 20c0 14 -3 21 -11 30l-8 3z" />
		</symbol>
		<symbol id="E262" viewBox="0 0 1000 1000" overflow="inherit">
			<path transform="scale(1,-1)" d="M136 186v169h17v-164l44 14v-91l-44 -14v-165l44 12v-91l-44 -13v-155h-17v150l-76 -22v-155h-17v149l-43 -13v90l43 14v167l-43 -14v92l43 13v169h17v-163zM60 73v-167l76 22v168z" />
		</symbol>
	</defs>
	<style type="text/css">g.page-margin{font-family:Times;} g.tempo{font-weight:bold;} g.dir, g.dynam, g.mNum{font-style:italic;} g.label{font-weight:normal;}</style>
	<svg class="definition-scale" viewBox="0 0 21000 4500">
		<g class="page-margin" transform="translate(500, 500)">
			<g class="system" id="system-0000000074677430">
				<path d="M13 720 L13 2880" stroke="#000000" stroke-width="27" />
				<path d="M-32,2862 C-392,2322 58,1980 -212,1800 C121,1980 -329,2322 -32,2862" stroke="#000000" stroke-linecap="round" stroke-linejoin="round" stroke-width="18" />
				<path d="M-32,738 C-329,1278 121,1620 -212,1800 C58,1620 -392,1278 -32,738" stroke="#000000" stroke-linecap="round" stroke-linejoin="round" stroke-width="18" />
				<g class="section boundaryStart" id="section-L1F1" />
				<g class="measure" id="measure-L4">
					<g class="staff" id="staff-L4F2N1">
						<path d="M0 720 L4497 720" stroke="#000000" stroke-width="13" />
						<path d="M0 900 L4497 900" stroke="#000000" stroke-width="13" />
						<path d="M0 1080 L4497 1080" stroke="#000000" stroke-width="13" />
						<path d="M0 1260 L4497 1260" stroke="#000000" stroke-width="13" />
						<path d="M0 1440 L4497 1440" stroke="#000000" stroke-width="13" />
						<g class="clef" id="clef-0000000871878836">
							<use xlink:href="#E050" x="90" y="1260" height="720px" width="720px" />
						</g>
						<g class="meterSig" id="msig-0000001386673171">
							<use xlink:href="#E082" x="771" y="900" height="720px" width="720px" />
							<use xlink:href="#E084" x="777" y="1260" height="720px" width="720px" />
						</g>
						<g class="layer" id="layer-L4F2N1">
							<g class="beam" id="beam-L5F2-L8F2">
								<polygon points="1579,565 2758,457 2758,547 1579,655 " />
								<polygon points="1579,700 2758,592 2758,682 1579,790 " />
								<g class="note" id="note-L5F2">
									<use xlink:href="#E0A4" x="1371" y="1260" height="720px" width="720px" />
									<g class="stem">
										<rect x="1579" y="583" height="655" width="18" />
									</g>
									<g class="accid" id="accid-0000001418711327" />
								</g>
								<g class="note" id="note-L6F2">
									<use xlink:href="#E0A4" x="1758" y="1350" height="720px" width="720px" />
									<g class="stem">
										<rect x="1966" y="547" height="781" width="18" />
									</g>
									<g class="accid" id="accid-0000002077124020" />
								</g>
								<g class="note" id="note-L7F2">
									<use xlink:href="#E0A4" x="2145" y="1260" height="720px" width="720px" />
									<g class="stem">
										<rect x="2353" y="511" height="727" width="18" />
									</g>
									<g class="accid" id="accid-0000000622430527" />
								</g>
								<g class="note" id="note-L8F2">
									<use xlink:href="#E0A4" x="2532" y="1170" height="720px" width="720px" />
									<g class="stem">
										<rect x="2740" y="475" height="673" width="18" />
									</g>
									<g class="accid" id="accid-0000001705886525" />
								</g>
							</g>
							<g class="beam" id="beam-L9F2-L12F2">
								<polygon points="3127,277 4306,393 4306,483 3127,367 " />
								<polygon points="3127,412 4306,528 4306,618 3127,502 " />
								<g class="note" id="note-L9F2">
									<use xlink:href="#E0A4" x="2919" y="1170" height="720px" width="720px" />
									<g class="stem">
										<rect x="3127" y="295" height="853" width="18" />
									</g>
									<g class="accid" id="accid-0000000753317086" />
								</g>
								<g class="note" id="note-L10F2">
									<use xlink:href="#E0A4" x="3306" y="990" height="720px" width="720px" />
									<g class="stem">
										<rect x="3514" y="334" height="634" width="18" />
									</g>
									<g class="accid" id="accid-0000000564563453" />
								</g>
								<g class="note" id="note-L11F2">
									<use xlink:href="#E0A4" x="3693" y="1170" height="720px" width="720px" />
									<g class="stem">
										<rect x="3901" y="373" height="775" width="18" />
									</g>
									<g class="accid" id="accid-0000001877090528" />
								</g>
								<g class="note" id="note-L12F2">
									<use xlink:href="#E0A4" x="4080" y="1260" height="720px" width="720px" />
									<g class="stem">
										<rect x="4288" y="411" height="827" width="18" />
									</g>
									<g class="accid" id="accid-0000000424360080" />
								</g>
							</g>
						</g>
					</g>
					<g class="staff" id="staff-L4F1N1">
						<path d="M0 2160 L4497 2160" stroke="#000000" stroke-width="13" />
						<path d="M0 2340 L4497 2340" stroke="#000000" stroke-width="13" />
						<path d="M0 2520 L4497 2520" stroke="#000000" stroke-width="13" />
						<path d="M0 2700 L4497 2700" stroke="#000000" stroke-width="13" />
						<path d="M0 2880 L4497 2880" stroke="#000000" stroke-width="13" />
						<g class="clef" id="clef-0000001323447753">
							<use xlink:href="#E062" x="90" y="2340" height="720px" width="720px" />
						</g>
						<g class="meterSig" id="msig-0000001698252692">
							<use xlink:href="#E082" x="771" y="2340" height="720px" width="720px" />
							<use xlink:href="#E084" x="777" y="2700" height="720px" width="720px" />
						</g>
						<g class="layer" id="layer-L4F1N1">
							<g class="beam" id="beam-L5F1-L7F1">
								<polygon points="1579,1959 2371,1881 2371,1971 1579,2049 " />
								<g class="note" id="note-L5F1">
									<use xlink:href="#E0A4" x="1371" y="2610" height="720px" width="720px" />
									<g class="stem">
										<rect x="1579" y="1977" height="611" width="18" />
									</g>
									<g class="accid" id="accid-0000001051423291" />
								</g>
								<g class="note" id="note-L7F1">
									<use xlink:href="#E0A4" x="2145" y="2520" height="720px" width="720px" />
									<g class="stem">
										<rect x="2353" y="1899" height="599" width="18" />
									</g>
									<g class="accid" id="accid-0000000215497041" />
								</g>
							</g>
							<g class="beam" id="beam-L9F1-L11F1">
								<polygon points="2919,3285 3711,3207 3711,3117 2919,3195 " />
								<polygon points="2919,3150 3315,3111 3315,3021 2919,3060 " />
								<g class="note" id="note-L9F1">
									<use xlink:href="#E0A4" x="2919" y="2610" height="720px" width="720px" />
									<g class="stem">
										<rect x="2919" y="2632" height="635" width="18" />
									</g>
									<g class="accid" id="accid-0000000208050976" />
								</g>
								<g class="note" id="note-L10F1">
									<use xlink:href="#E0A4" x="3306" y="2250" height="720px" width="720px" />
									<g class="stem">
										<rect x="3306" y="2272" height="956" width="18" />
									</g>
									<g class="accid" id="accid-0000000438230469" />
								</g>
								<g class="note" id="note-L11F1">
									<use xlink:href="#E0A4" x="3693" y="2340" height="720px" width="720px" />
									<g class="stem">
										<rect x="3693" y="2362" height="827" width="18" />
									</g>
									<g class="accid" id="accid-0000001265302479" />
								</g>
							</g>
						</g>
					</g>
					<g class="tie" id="tie-L8F2-L9F2">
						<path d="M2645,1305 C2741,1403 2933,1403 3032,1305 C2933,1447 2741,1447 2645,1305" stroke="#000000" stroke-linecap="round" stroke-linejoin="round" stroke-width="9" />
					</g>
					<g class="mNum autogenerated" id="mnum-0000001643287225" />
					<g class="barLineAttr" id="bline-0000001589820451">
						<path d="M4484 2880 L4484 720" stroke="#000000" stroke-width="27" />
					</g>
				</g>
				<g class="measure" id="measure-L13">
					<g class="staff" id="staff-L13F2N1">
						<path d="M4497 720 L7825 720" stroke="#000000" stroke-width="13" />
						<path d="M4497 900 L7825 900" stroke="#000000" stroke-width="13" />
						<path d="M4497 1080 L7825 1080" stroke="#000000" stroke-width="13" />
						<path d="M4497 1260 L7825 1260" stroke="#000000" stroke-width="13" />
						<path d="M4497 1440 L7825 1440" stroke="#000000" stroke-width="13" />
						<g class="layer" id="layer-L13F2N1">
							<g class="beam" id="beam-L14F2-L17F2">
								<polygon points="4718,1761 5877,1743 5877,1653 4718,1671 " />
								<polygon points="4718,1626 4876,1624 4876,1534 4718,1536 " />
								<polygon points="5719,1610 5877,1608 5877,1518 5719,1520 " />
								<g class="note" id="note-L14F2">
									<use xlink:href="#E0A4" x="4718" y="990" height="720px" width="720px" />
									<g class="stem">
										<rect x="4718" y="1012" height="731" width="18" />
									</g>
									<g class="accid" id="accid-0000000758557840" />
								</g>
								<g class="note" id="note-L15F2">
									<use xlink:href="#E0A4" x="5105" y="1080" height="720px" width="720px" />
									<g class="stem">
										<rect x="5105" y="1102" height="635" width="18" />
									</g>
									<g class="accid" id="accid-0000000971216220" />
								</g>
								<g class="note" id="note-L17F2">
									<use xlink:href="#E0A4" x="5859" y="990" height="720px" width="720px" />
									<g class="stem">
										<rect x="5859" y="1012" height="713" width="18" />
									</g>
									<g class="accid" id="accid-0000000832293229" />
								</g>
							</g>
							<g class="beam" id="beam-L18F2-L21F2">
								<polygon points="6455,568 7634,460 7634,550 6455,658 " />
								<polygon points="6455,703 7634,595 7634,685 6455,793 " />
								<g class="note" id="note-L18F2">
									<use xlink:href="#E0A4" x="6247" y="1350" height="720px" width="720px" />
									<g class="stem">
										<rect x="6455" y="586" height="742" width="18" />
									</g>
									<g class="accid" id="accid-0000000986316846" />
								</g>
								<g class="note" id="note-L19F2">
									<use xlink:href="#E0A4" x="6634" y="1260" height="720px" width="720px" />
									<g class="stem">
										<rect x="6842" y="550" height="688" width="18" />
									</g>
									<g class="accid" id="accid-0000000711212062" />
								</g>
								<g class="note" id="note-L20F2">
									<use xlink:href="#E0A4" x="7021" y="1170" height="720px" width="720px" />
									<g class="stem">
										<rect x="7229" y="514" height="634" width="18" />
									</g>
									<g class="accid" id="accid-0000001151524571" />
								</g>
								<g class="note" id="note-L21F2">
									<use xlink:href="#E0A4" x="7408" y="1260" height="720px" width="720px" />
									<g class="stem">
										<rect x="7616" y="478" height="760" width="18" />
									</g>
									<g class="accid" id="accid-0000000132818414" />
								</g>
							</g>
						</g>
					</g>
					<g class="staff" id="staff-L13F1N1">
						<path d="M4497 2160 L7825 2160" stroke="#000000" stroke-width="13" />
						<path d="M4497 2340 L7825 2340" stroke="#000000" stroke-width="13" />
						<path d="M4497 2520 L7825 2520" stroke="#000000" stroke-width="13" />
						<path d="M4497 2700 L7825 2700" stroke="#000000" stroke-width="13" />
						<path d="M4497 2880 L7825 2880" stroke="#000000" stroke-width="13" />
						<g class="ledgerLines above">
							<path d="M5441 1980 L5720 1980" stroke="#000000" stroke-width="22" />
						</g>
						<g class="layer" id="layer-L13F1N1">
							<g class="beam" id="beam-L14F1-L17F1">
								<polygon points="4718,2994 5877,3015 5877,2925 4718,2904 " />
								<polygon points="5481,2873 5877,2880 5877,2790 5481,2783 " />
								<g class="note" id="note-L14F1">
									<use xlink:href="#E0A4" x="4718" y="2250" height="720px" width="720px" />
									<g class="stem">
										<rect x="4718" y="2272" height="704" width="18" />
									</g>
									<g class="accid" id="accid-0000001082859567" />
								</g>
								<g class="note" id="note-L16F1">
									<use xlink:href="#E0A4" x="5472" y="1980" height="720px" width="720px" />
									<g class="stem">
										<rect x="5472" y="2002" height="988" width="18" />
									</g>
									<g class="accid" id="accid-0000000671833239" />
								</g>
								<g class="note" id="note-L17F1">
									<use xlink:href="#E0A4" x="5859" y="2340" height="720px" width="720px" />
									<g class="stem">
										<rect x="5859" y="2362" height="635" width="18" />
									</g>
									<g class="accid" id="accid-0000000556454185" />
								</g>
							</g>
							<g class="beam" id="beam-L18F1-L20F1">
								<polygon points="6247,2892 7039,2970 7039,2880 6247,2802 " />
								<g class="note" id="note-L18F1">
									<use xlink:href="#E0A4" x="6247" y="2160" height="720px" width="720px" />
									<g class="stem">
										<rect x="6247" y="2182" height="692" width="18" />
									</g>
									<g class="accid" id="accid-0000001597082784" />
								</g>
								<g class="note" id="note-L20F1">
									<use xlink:href="#E0A4" x="7021" y="2340" height="720px" width="720px" />
									<g class="stem">
										<rect x="7021" y="2362" height="590" width="18" />
									</g>
									<g class="accid" id="accid-0000001908877024" />
								</g>
							</g>
						</g>
					</g>
					<g class="mNum autogenerated" id="mnum-0000001847741223" />
					<g class="barLineAttr" id="bline-0000000725029625">
						<path d="M7812 2880 L7812 720" stroke="#000000" stroke-width="27" />
					</g>
				</g>
				<g class="measure" id="measure-L22">
					<g class="staff" id="staff-L22F2N1">
						<path d="M7825 720 L11413 720" stroke="#000000" stroke-width="13" />
						<path d="M7825 900 L11413 900" stroke="#000000" stroke-width="13" />
						<path d="M7825 1080 L11413 1080" stroke="#000000" stroke-width="13" />
						<path d="M7825 1260 L11413 1260" stroke="#000000" stroke-width="13" />
						<path d="M7825 1440 L11413 1440" stroke="#000000" stroke-width="13" />
						<g class="layer" id="layer-L22F2N1">
							<g class="beam" id="beam-L23F2-L26F2">
								<polygon points="8254,567 9673,448 9673,538 8254,657 " />
								<polygon points="8254,702 9673,583 9673,673 8254,792 " />
								<g class="note" id="note-L23F2">
									<use xlink:href="#E0A4" x="8046" y="1260" height="720px" width="720px" />
									<g class="stem">
										<rect x="8254" y="585" height="653" width="18" />
									</g>
									<g class="accid" id="accid-0000000981528179" />
								</g>
								<g class="note" id="note-L24F2">
									<use xlink:href="#E0A4" x="8433" y="1350" height="720px" width="720px" />
									<g class="stem">
										<rect x="8641" y="552" height="776" width="18" />
									</g>
									<g class="accid" id="accid-0000001429901456" />
								</g>
								<g class="note" id="note-L25F2">
									<use xlink:href="#E0A4" x="8820" y="1260" height="720px" width="720px" />
									<g class="stem">
										<rect x="9028" y="519" height="719" width="18" />
									</g>
									<g class="accid" id="accid-0000001685630666" />
								</g>
								<g class="note" id="note-L26F2">
									<use xlink:href="#E0A4" x="9447" y="1170" height="720px" width="720px" />
									<g class="stem">
										<rect x="9655" y="466" height="682" width="18" />
									</g>
									<g class="accid" id="accid-0000000927567371">
										<use xlink:href="#E260" x="9251" y="1170" height="720px" width="720px" />
									</g>
								</g>
							</g>
							<g class="beam" id="beam-L27F2-L30F2">
								<polygon points="10042,277 11221,393 11221,483 10042,367 " />
								<polygon points="10042,412 11221,528 11221,618 10042,502 " />
								<g class="note" id="note-L27F2">
									<use xlink:href="#E0A4" x="9834" y="1170" height="720px" width="720px" />
									<g class="stem">
										<rect x="10042" y="295" height="853" width="18" />
									</g>
									<g class="accid" id="accid-0000000476859309" />
								</g>
								<g class="note" id="note-L28F2">
									<use xlink:href="#E0A4" x="10221" y="990" height="720px" width="720px" />
									<g class="stem">
										<rect x="10429" y="334" height="634" width="18" />
									</g>
									<g class="accid" id="accid-0000001634962295" />
								</g>
								<g class="note" id="note-L29F2">
									<use xlink:href="#E0A4" x="10608" y="1170" height="720px" width="720px" />
									<g class="stem">
										<rect x="10816" y="373" height="775" width="18" />
									</g>
									<g class="accid" id="accid-0000002108345474" />
								</g>
								<g class="note" id="note-L30F2">
									<use xlink:href="#E0A4" x="10995" y="1260" height="720px" width="720px" />
									<g class="stem">
										<rect x="11203" y="411" height="827" width="18" />
									</g>
									<g class="accid" id="accid-0000000626239326" />
								</g>
							</g>
						</g>
					</g>
					<g class="staff" id="staff-L22F1N1">
						<path d="M7825 2160 L11413 2160" stroke="#000000" stroke-width="13" />
						<path d="M7825 2340 L11413 2340" stroke="#000000" stroke-width="13" />
						<path d="M7825 2520 L11413 2520" stroke="#000000" stroke-width="13" />
						<path d="M7825 2700 L11413 2700" stroke="#000000" stroke-width="13" />
						<path d="M7825 2880 L11413 2880" stroke="#000000" stroke-width="13" />
						<g class="layer" id="layer-L22F1N1">
							<g class="beam" id="beam-L23F1-L25F1">
								<polygon points="8254,1959 9046,1881 9046,1971 8254,2049 " />
								<g class="note" id="note-L23F1">
									<use xlink:href="#E0A4" x="8046" y="2610" height="720px" width="720px" />
									<g class="stem">
										<rect x="8254" y="1977" height="611" width="18" />
									</g>
									<g class="accid" id="accid-0000001442848815" />
								</g>
								<g class="note" id="note-L25F1">
									<use xlink:href="#E0A4" x="8820" y="2520" height="720px" width="720px" />
									<g class="stem">
										<rect x="9028" y="1899" height="599" width="18" />
									</g>
									<g class="accid" id="accid-0000001610802708" />
								</g>
							</g>
							<g class="beam" id="beam-L27F1-L29F1">
								<polygon points="9834,3285 10626,3207 10626,3117 9834,3195 " />
								<polygon points="9834,3150 10230,3111 10230,3021 9834,3060 " />
								<g class="note" id="note-L27F1">
									<use xlink:href="#E0A4" x="9834" y="2610" height="720px" width="720px" />
									<g class="stem">
										<rect x="9834" y="2632" height="635" width="18" />
									</g>
									<g class="accid" id="accid-0000000367159631" />
								</g>
								<g class="note" id="note-L28F1">
									<use xlink:href="#E0A4" x="10221" y="2250" height="720px" width="720px" />
									<g class="stem">
										<rect x="10221" y="2272" height="956" width="18" />
									</g>
									<g class="accid" id="accid-0000001626076964" />
								</g>
								<g class="note" id="note-L29F1">
									<use xlink:href="#E0A4" x="10608" y="2340" height="720px" width="720px" />
									<g class="stem">
										<rect x="10608" y="2362" height="827" width="18" />
									</g>
									<g class="accid" id="accid-0000000419006187" />
								</g>
							</g>
						</g>
					</g>
					<g class="tie" id="tie-L26F2-L27F2">
						<path d="M9560,1305 C9656,1403 9848,1403 9947,1305 C9848,1447 9656,1447 9560,1305" stroke="#000000" stroke-linecap="round" stroke-linejoin="round" stroke-width="9" />
					</g>
					<g class="mNum autogenerated" id="mnum-0000001147548456" />
					<g class="barLineAttr" id="bline-0000001261192405">
						<path d="M11400 2880 L11400 720" stroke="#000000" stroke-width="27" />
					</g>
				</g>
				<g class="measure" id="measure-L31">
					<g class="staff" id="staff-L31F2N1">
						<path d="M11413 720 L15461 720" stroke="#000000" stroke-width="13" />
						<path d="M11413 900 L15461 900" stroke="#000000" stroke-width="13" />
						<path d="M11413 1080 L15461 1080" stroke="#000000" stroke-width="13" />
						<path d="M11413 1260 L15461 1260" stroke="#000000" stroke-width="13" />
						<path d="M11413 1440 L15461 1440" stroke="#000000" stroke-width="13" />
						<g class="layer" id="layer-L31F2N1">
							<g class="beam" id="beam-L32F2-L35F2">
								<polygon points="11634,1757 13034,1752 13034,1662 11634,1667 " />
								<polygon points="11634,1622 11792,1622 11792,1532 11634,1532 " />
								<polygon points="12876,1618 13034,1617 13034,1527 12876,1528 " />
								<g class="note" id="note-L32F2">
									<use xlink:href="#E0A4" x="11634" y="990" height="720px" width="720px" />
									<g class="stem">
										<rect x="11634" y="1012" height="727" width="18" />
									</g>
									<g class="accid" id="accid-0000001827062084" />
								</g>
								<g class="note" id="note-L33F2">
									<use xlink:href="#E0A4" x="12261" y="1080" height="720px" width="720px" />
									<g class="stem">
										<rect x="12261" y="1102" height="635" width="18" />
									</g>
									<g class="accid" id="accid-0000000707818781">
										<use xlink:href="#E260" x="12065" y="1080" height="720px" width="720px" />
									</g>
								</g>
								<g class="note" id="note-L35F2">
									<use xlink:href="#E0A4" x="13016" y="990" height="720px" width="720px" />
									<g class="stem">
										<rect x="13016" y="1012" height="722" width="18" />
									</g>
									<g class="accid" id="accid-0000001844542817" />
								</g>
							</g>
							<g class="beam" id="beam-L36F2-L39F2">
								<polygon points="13851,575 15270,466 15270,556 13851,665 " />
								<polygon points="13851,710 15270,601 15270,691 13851,800 " />
								<g class="note" id="note-L36F2">
									<use xlink:href="#E0A4" x="13643" y="1350" height="720px" width="720px" />
									<g class="stem">
										<rect x="13851" y="593" height="735" width="18" />
									</g>
									<g class="accid" id="accid-0000001163547898" />
								</g>
								<g class="note" id="note-L37F2">
									<use xlink:href="#E0A4" x="14030" y="1260" height="720px" width="720px" />
									<g class="stem">
										<rect x="14238" y="563" height="675" width="18" />
									</g>
									<g class="accid" id="accid-0000001936064750" />
								</g>
								<g class="note" id="note-L38F2">
									<use xlink:href="#E0A4" x="14657" y="1170" height="720px" width="720px" />
									<g class="stem">
										<rect x="14865" y="514" height="634" width="18" />
									</g>
									<g class="accid" id="accid-0000001969139672">
										<use xlink:href="#E260" x="14461" y="1170" height="720px" width="720px" />
									</g>
								</g>
								<g class="note" id="note-L39F2">
									<use xlink:href="#E0A4" x="15044" y="1260" height="720px" width="720px" />
									<g class="stem">
										<rect x="15252" y="484" height="754" width="18" />
									</g>
									<g class="accid" id="accid-0000002147139756" />
								</g>
							</g>
						</g>
					</g>
					<g class="staff" id="staff-L31F1N1">
						<path d="M11413 2160 L15461 2160" stroke="#000000" stroke-width="13" />
						<path d="M11413 2340 L15461 2340" stroke="#000000" stroke-width="13" />
						<path d="M11413 2520 L15461 2520" stroke="#000000" stroke-width="13" />
						<path d="M11413 2700 L15461 2700" stroke="#000000" stroke-width="13" />
						<path d="M11413 2880 L15461 2880" stroke="#000000" stroke-width="13" />
						<g class="ledgerLines above">
							<path d="M12598 1980 L12877 1980" stroke="#000000" stroke-width="22" />
						</g>
						<g class="layer" id="layer-L31F1N1">
							<g class="beam" id="beam-L32F1-L35F1">
								<polygon points="11634,3017 13034,3015 13034,2925 11634,2927 " />
								<polygon points="12638,2881 13034,2880 13034,2790 12638,2791 " />
								<g class="note" id="note-L32F1">
									<use xlink:href="#E0A4" x="11634" y="2250" height="720px" width="720px" />
									<g class="stem">
										<rect x="11634" y="2272" height="727" width="18" />
									</g>
									<g class="accid" id="accid-0000000304854828" />
								</g>
								<g class="note" id="note-L34F1">
									<use xlink:href="#E0A4" x="12629" y="1980" height="720px" width="720px" />
									<g class="stem">
										<rect x="12629" y="2002" height="996" width="18" />
									</g>
									<g class="accid" id="accid-0000001674791109" />
								</g>
								<g class="note" id="note-L35F1">
									<use xlink:href="#E0A4" x="13016" y="2340" height="720px" width="720px" />
									<g class="stem">
										<rect x="13016" y="2362" height="635" width="18" />
									</g>
									<g class="accid" id="accid-0000000171155395" />
								</g>
							</g>
							<g class="beam" id="beam-L36F1-L38F1">
								<polygon points="13643,2868 14675,2970 14675,2880 13643,2778 " />
								<g class="note" id="note-L36F1">
									<use xlink:href="#E0A4" x="13643" y="2160" height="720px" width="720px" />
									<g class="stem">
										<rect x="13643" y="2182" height="668" width="18" />
									</g>
									<g class="accid" id="accid-0000000825478066">
										<use xlink:href="#E260" x="13447" y="2160" height="720px" width="720px" />
									</g>
								</g>
								<g class="note" id="note-L38F1">
									<use xlink:href="#E0A4" x="14657" y="2340" height="720px" width="720px" />
									<g class="stem">
										<rect x="14657" y="2362" height="590" width="18" />
									</g>
									<g class="accid" id="accid-0000002066606408" />
								</g>
							</g>
						</g>
					</g>
					<g class="mNum autogenerated" id="mnum-0000001480358249" />
					<g class="barLineAttr" id="bline-0000000739065001">
						<path d="M15448 2880 L15448 720" stroke="#000000" stroke-width="27" />
					</g>
				</g>
				<g class="measure" id="measure-L40">
					<g class="staff" id="staff-L40F2N1">
						<path d="M15461 720 L20003 720" stroke="#000000" stroke-width="13" />
						<path d="M15461 900 L20003 900" stroke="#000000" stroke-width="13" />
						<path d="M15461 1080 L20003 1080" stroke="#000000" stroke-width="13" />
						<path d="M15461 1260 L20003 1260" stroke="#000000" stroke-width="13" />
						<path d="M15461 1440 L20003 1440" stroke="#000000" stroke-width="13" />
						<g class="layer" id="layer-L40F2N1">
							<g class="beam" id="beam-L41F2-L44F2">
								<polygon points="16129,659 17786,533 17786,623 16129,749 " />
								<polygon points="16129,794 17786,668 17786,758 16129,884 " />
								<g class="note" id="note-L41F2">
									<use xlink:href="#E0A4" x="15921" y="1350" height="720px" width="720px" />
									<g class="stem">
										<rect x="16129" y="677" height="651" width="18" />
									</g>
									<g class="accid" id="accid-0000000331004721">
										<use xlink:href="#E262" x="15726" y="1350" height="720px" width="720px" />
									</g>
								</g>
								<g class="note" id="note-L42F2">
									<use xlink:href="#E0A4" x="16547" y="1530" height="720px" width="720px" />
									<g class="stem">
										<rect x="16755" y="629" height="879" width="18" />
									</g>
									<g class="accid" id="accid-0000001858187213">
										<use xlink:href="#E262" x="16352" y="1530" height="720px" width="720px" />
									</g>
								</g>
								<g class="note" id="note-L43F2">
									<use xlink:href="#E0A4" x="16934" y="1350" height="720px" width="720px" />
									<g class="stem">
										<rect x="17142" y="599" height="729" width="18" />
									</g>
									<g class="accid" id="accid-0000002048558792" />
								</g>
								<g class="note" id="note-L44F2">
									<use xlink:href="#E0A4" x="17560" y="1260" height="720px" width="720px" />
									<g class="stem">
										<rect x="17768" y="551" height="687" width="18" />
									</g>
									<g class="accid" id="accid-0000000818012084">
										<use xlink:href="#E262" x="17365" y="1260" height="720px" width="720px" />
									</g>
								</g>
							</g>
							<g class="beam" id="beam-L45F2-L48F2">
								<polygon points="18155,459 19811,555 19811,645 18155,549 " />
								<polygon points="18155,594 19811,690 19811,780 18155,684 " />
								<g class="note" id="note-L45F2">
									<use xlink:href="#E0A4" x="17947" y="1260" height="720px" width="720px" />
									<g class="stem">
										<rect x="18155" y="477" height="761" width="18" />
									</g>
									<g class="accid" id="accid-0000000623308384" />
								</g>
								<g class="note" id="note-L46F2">
									<use xlink:href="#E0A4" x="18573" y="1170" height="720px" width="720px" />
									<g class="stem">
										<rect x="18781" y="514" height="634" width="18" />
									</g>
									<g class="accid" id="accid-0000000348861534">
										<use xlink:href="#E262" x="18378" y="1170" height="720px" width="720px" />
									</g>
								</g>
								<g class="note" id="note-L47F2">
									<use xlink:href="#E0A4" x="19198" y="1260" height="720px" width="720px" />
									<g class="stem">
										<rect x="19406" y="551" height="687" width="18" />
									</g>
									<g class="accid" id="accid-0000001182387288" />
								</g>
								<g class="note" id="note-L48F2">
									<use xlink:href="#E0A4" x="19585" y="1350" height="720px" width="720px" />
									<g class="stem">
										<rect x="19793" y="573" height="755" width="18" />
									</g>
									<g class="accid" id="accid-0000001271561336" />
								</g>
							</g>
						</g>
					</g>
					<g class="staff" id="staff-L40F1N1">
						<path d="M15461 2160 L20003 2160" stroke="#000000" stroke-width="13" />
						<path d="M15461 2340 L20003 2340" stroke="#000000" stroke-width="13" />
						<path d="M15461 2520 L20003 2520" stroke="#000000" stroke-width="13" />
						<path d="M15461 2700 L20003 2700" stroke="#000000" stroke-width="13" />
						<path d="M15461 2880 L20003 2880" stroke="#000000" stroke-width="13" />
						<g class="layer" id="layer-L40F1N1">
							<g class="beam" id="beam-L41F1-L43F1">
								<polygon points="16129,2051 17160,1961 17160,2051 16129,2141 " />
								<g class="note" id="note-L41F1">
									<use xlink:href="#E0A4" x="15921" y="2700" height="720px" width="720px" />
									<g class="stem">
										<rect x="16129" y="2069" height="609" width="18" />
									</g>
									<g class="accid" id="accid-0000000388366140" />
								</g>
								<g class="note" id="note-L43F1">
									<use xlink:href="#E0A4" x="16934" y="2610" height="720px" width="720px" />
									<g class="stem">
										<rect x="17142" y="1979" height="609" width="18" />
									</g>
									<g class="accid" id="accid-0000000097279379">
										<use xlink:href="#E262" x="16739" y="2610" height="720px" width="720px" />
									</g>
								</g>
							</g>
							<g class="beam" id="beam-L45F1-L47F1">
								<polygon points="17947,3375 19216,3249 19216,3159 17947,3285 " />
								<polygon points="17947,3240 18582,3177 18582,3087 17947,3150 " />
								<g class="note" id="note-L45F1">
									<use xlink:href="#E0A4" x="17947" y="2700" height="720px" width="720px" />
									<g class="stem">
										<rect x="17947" y="2722" height="635" width="18" />
									</g>
									<g class="accid" id="accid-0000001100000715" />
								</g>
								<g class="note" id="note-L46F1">
									<use xlink:href="#E0A4" x="18573" y="2340" height="720px" width="720px" />
									<g class="stem">
										<rect x="18573" y="2362" height="932" width="18" />
									</g>
									<g class="accid" id="accid-0000000015035368">
										<use xlink:href="#E262" x="18378" y="2340" height="720px" width="720px" />
									</g>
								</g>
								<g class="note" id="note-L47F1">
									<use xlink:href="#E0A4" x="19198" y="2430" height="720px" width="720px" />
									<g class="stem">
										<rect x="19198" y="2452" height="779" width="18" />
									</g>
									<g class="accid" id="accid-0000000108745439">
										<use xlink:href="#E262" x="19003" y="2430" height="720px" width="720px" />
									</g>
								</g>
							</g>
						</g>
					</g>
					<g class="tie" id="tie-L44F2-L45F2">
						<path d="M17673,1395 C17769,1493 17961,1493 18060,1395 C17961,1537 17769,1537 17673,1395" stroke="#000000" stroke-linecap="round" stroke-linejoin="round" stroke-width="9" />
					</g>
					<g class="mNum autogenerated" id="mnum-0000001573999298" />
					<g class="barLineAttr" id="bline-0000000501032249">
						<path d="M19990 2880 L19990 720" stroke="#000000" stroke-width="27" />
					</g>
				</g>
			</g>
		</g>
	</svg>
</svg>
