<?xml version="1.0" encoding="UTF-8" standalone="no"?>
<svg width="2100.00px" height="450.00px" version="1.1" xmlns="http://www.w3.org/2000/svg" xmlns:xlink="http://www.w3.org/1999/xlink" overflow="visible">
	<desc>Engraved by Verovio 2.0.0-dev-0f0381c</desc>
	<defs>
		<symbol id="E050" viewBox="0 0 1000 1000" overflow="inherit">
			<path transform="scale(1,-1)" d="M441 -245c-23 -4 -48 -6 -76 -6c-59 0 -102 7 -130 20c-88 42 -150 93 -187 154c-26 44 -43 103 -48 176c-4 60 11 123 44 189c29 57 65 106 110 148s96 85 153 127c-3 16 -8 46 -13 92c-4 43 -5 73 -5 89c0 117 16 172 69 257c34 54 64 82 89 82c21 0 43 -30 69 -92 s39 -115 41 -159c2 -120 -19 -173 -67 -256c-13 -20 -63 -90 -98 -118c-13 -9 -25 -19 -37 -29l31 -181c8 1 18 2 28 2c58 0 102 -12 133 -35c59 -43 92 -104 98 -184c11 -135 -80 -229 -180 -270c8 -57 17 -110 25 -162c5 -31 6 -58 6 -80c0 -30 -5 -53 -14 -70 c-35 -64 -88 -99 -158 -103c-42 -3 -83 6 -124 26c-50 24 -77 59 -80 105c-2 34 5 63 20 87c18 28 45 42 79 44c51 4 99 -40 103 -87c4 -56 -30 -94 -105 -115c17 -24 51 -36 102 -36c62 0 116 43 140 85c9 16 13 41 13 74c0 20 -1 42 -5 67c-8 53 -18 106 -26 159zM461 939 c-95 0 -135 -175 -135 -286c0 -24 2 -48 5 -71c50 39 92 82 127 128c43 57 63 106 60 148c-4 54 -23 82 -57 81zM406 119l54 -326c80 27 116 88 109 184c-7 99 -62 146 -163 142zM382 117c-74 -2 -132 -50 -128 -127c2 -46 43 -99 75 -115c-3 -2 -7 -5 -10 -10 c-70 33 -116 88 -123 172c-5 73 42 135 88 170c23 17 49 29 78 36l-29 170c-21 -13 -52 -37 -92 -73c-50 -44 -86 -84 -109 -119c-49 -75 -71 -140 -67 -195c5 -68 35 -127 93 -176s125 -73 203 -73c25 0 50 3 75 9c-19 111 -36 221 -54 331z" />
		</symbol>
		<symbol id="E082" viewBox="0 0 1000 1000" overflow="inherit">
			<path transform="scale(1,-1)" d="M104 -185c-18 0 -55 -14 -65 -65h-36l-3 29c0 25 6 46 18 64c11 19 22 30 39 43l121 82l37 29c15 11 27 29 38 54c12 24 18 47 18 70c0 40 -19 88 -94 88c-25 0 -32 0 -50 -8c-14 -5 -23 -12 -26 -22c3 -9 7 -15 10 -18l24 -17c12 -7 17 -11 27 -21c5 -7 7 -16 7 -27 c0 -12 0 -57 -79 -74c-30 0 -76 26 -76 94c0 66 80 135 196 135c72 0 182 -32 182 -150c0 -53 -32 -95 -113 -133l-91 -41c-26 -11 -45 -23 -57 -37l49 7c84 0 115 -41 148 -41c20 0 33 20 39 61h35c0 -152 -68 -168 -114 -168c-17 0 -55 0 -69 7v0l-28 17 c-49 37 -69 40 -87 42z" />
		</symbol>
		<symbol id="E084" viewBox="0 0 1000 1000" overflow="inherit">
			<path transform="scale(1,-1)" d="M0 -78c84 97 114 180 134 329h170c-13 -32 -82 -132 -99 -151l-84 -97c-33 -36 -59 -63 -80 -81h162v102l127 123v-225h57v-39h-57v-34c0 -43 19 -65 57 -65v-34h-244v36c48 0 60 26 60 70v27h-203v39z" />
		</symbol>
		<symbol id="E0A4" viewBox="0 0 1000 1000" overflow="inherit">
			<path transform="scale(1,-1)" d="M0 -39c0 68 73 172 200 172c66 0 114 -37 114 -95c0 -84 -106 -171 -218 -171c-64 0 -96 30 -96 94z" />
		</symbol>
		<symbol id="E062" viewBox="0 0 1000 1000" overflow="inherit">
			<path transform="scale(1,-1)" d="M158 96c51 0 73 -14 88 -49l16 -39c0 -17 -2 -30 -7 -40c-3 -11 -10 -21 -19 -31c-17 -18 -49 -43 -84 -43c-55 0 -77 13 -112 44c-24 21 -35 55 -35 100c0 46 14 81 32 112c30 52 71 79 137 93l36 6l26 2c154 0 235 -68 274 -182c11 -32 18 -68 18 -107 c0 -103 -26 -182 -68 -250c-89 -145 -234 -230 -412 -288l-30 -5c-9 0 -14 3 -14 8c3 10 5 11 10 16c35 15 70 30 96 44l78 43c96 57 162 136 197 258c9 33 17 60 22 100c3 22 5 35 6 39c-7 69 -16 115 -23 140s-4 22 -16 40c-8 12 -19 23 -31 34c-24 21 -62 44 -118 44 c-48 0 -84 -8 -113 -28c-28 -19 -42 -44 -42 -73v-16c2 -5 3 -9 4 -11c24 22 52 39 84 39zM585 -118c0 32 23 58 57 58c18 0 33 -6 40 -18c9 -15 16 -18 16 -40c0 -9 -2 -16 -5 -21c-6 -19 -27 -37 -51 -37c-34 0 -57 26 -57 58zM642 177c31 0 56 -27 56 -58 c0 -30 -25 -58 -56 -58l-23 3c-19 7 -34 32 -34 55l3 23c9 20 28 35 54 35z" />
		</symbol>
		<symbol id="E260" viewBox="0 0 1000 1000" overflow="inherit">
			<path transform="scale(1,-1)" d="M20 110c32 16 54 27 93 27c26 0 35 -3 54 -13c13 -7 24 -20 27 -38l4 -25c0 -28 -16 -57 -45 -89c-23 -25 -39 -44 -65 -68l-88 -79v644h20v-359zM90 106c-32 0 -48 -10 -70 -29v-194c31 31 54 59 71 84c21 32 32 59 32 84c0 9 1 16 1 20c0 14 -3 21 -11 30l-8 3z" />
		</symbol>
		<symbol id="E262" viewBox="0 0 1000 1000" overflow="inherit">
			<path transform="scale(1,-1)" d="M136 186v169h17v-164l44 14v-91l-44 -14v-165l44 12v-91l-44 -13v-155h-17v150l-76 -22v-155h-17v149l-43 -13v90l43 14v167l-43 -14v92l43 13v169h17v-163zM60 73v-167l76 22v168z" />
		</symbol>
	</defs>
	<style type="text/css">g.page-margin{font-family:Times;} g.tempo{font-weight:bold;} g.dir, g.dynam, g.mNum{font-style:italic;} g.label{font-weight:normal;}</style>
	<svg class="definition-scale" viewBox="0 0 21000 4500">
		<g class="page-margin" transform="translate(500, 500)">
			<g class="system" id="system-0000001509035741">
				<path d="M13 720 L13 2880" stroke="#000000" stroke-width="27" />
				<path d="M-32,2862 C-392,2322 58,1980 -212,1800 C121,1980 -329,2322 -32,2862" stroke="#000000" stroke-linecap="round" stroke-linejoin="round" stroke-width="18" />
				<path d="M-32,738 C-329,1278 121,1620 -212,1800 C58,1620 -392,1278 -32,738" stroke="#000000" stroke-linecap="round" stroke-linejoin="round" stroke-width="18" />
				<g class="section boundaryStart" id="section-L1F1" />
				<g class="measure" id="measure-L4">
					<g class="staff" id="staff-L4F2N1">
						<path d="M0 720 L4430 720" stroke="#000000" stroke-width="13" />
						<path d="M0 900 L4430 900" stroke="#000000" stroke-width="13" />
						<path d="M0 1080 L4430 1080" stroke="#000000" stroke-width="13" />
						<path d="M0 1260 L4430 1260" stroke="#000000" stroke-width="13" />
						<path d="M0 1440 L4430 1440" stroke="#000000" stroke-width="13" />
						<g class="clef" id="clef-0000000225481087">
							<use xlink:href="#E050" x="90" y="1260" height="720px" width="720px" />
						</g>
						<g class="meterSig" id="msig-0000001499475901">
							<use xlink:href="#E082" x="771" y="900" height="720px" width="720px" />
							<use xlink:href="#E084" x="777" y="1260" height="720px" width="720px" />
						</g>
						<g class="layer" id="layer-L4F2N1">
							<g class="beam" id="beam-L5F2-L7F2">
								<polygon points="1577,445 2362,368 2362,458 1577,535 " />
								<polygon points="1577,580 1970,541 1970,631 1577,670 " />
								<g class="note" id="note-L5F2">
									<use xlink:href="#E0A4" x="1369" y="1260" height="720px" width="720px" />
									<g class="stem">
										<rect x="1577" y="463" height="775" width="18" />
									</g>
									<g class="accid" id="accid-0000001383423488" />
								</g>
								<g class="note" id="note-L6F2">
									<use xlink:href="#E0A4" x="1753" y="1080" height="720px" width="720px" />
									<g class="stem">
										<rect x="1961" y="424" height="634" width="18" />
									</g>
									<g class="accid" id="accid-0000001453468657" />
								</g>
								<g class="note" id="note-L7F2">
									<use xlink:href="#E0A4" x="2136" y="1170" height="720px" width="720px" />
									<g class="stem">
										<rect x="2344" y="386" height="762" width="18" />
									</g>
									<g class="accid" id="accid-0000000595278949" />
								</g>
							</g>
							<g class="beam" id="beam-L9F2-L12F2">
								<polygon points="2884,1666 4034,1756 4034,1666 2884,1576 " />
								<polygon points="3876,1609 4034,1621 4034,1531 3876,1519 " />
								<g class="note" id="note-L9F2">
									<use xlink:href="#E0A4" x="2884" y="990" height="720px" width="720px" />
									<g class="dots" id="dots-0000000469928225">
										<ellipse cx="3200" cy="990" rx="36" ry="36" />
									</g>
									<g class="stem">
										<rect x="2884" y="1012" height="636" width="18" />
									</g>
									<g class="accid" id="accid-0000000118252803" />
								</g>
								<g class="note" id="note-L12F2">
									<use xlink:href="#E0A4" x="4016" y="1080" height="720px" width="720px" />
									<g class="stem">
										<rect x="4016" y="1102" height="636" width="18" />
									</g>
									<g class="accid" id="accid-0000000318578283" />
								</g>
							</g>
						</g>
					</g>
					<g class="staff" id="staff-L4F1N1">
						<path d="M0 2160 L4430 2160" stroke="#000000" stroke-width="13" />
						<path d="M0 2340 L4430 2340" stroke="#000000" stroke-width="13" />
						<path d="M0 2520 L4430 2520" stroke="#000000" stroke-width="13" />
						<path d="M0 2700 L4430 2700" stroke="#000000" stroke-width="13" />
						<path d="M0 2880 L4430 2880" stroke="#000000" stroke-width="13" />
						<g class="clef" id="clef-0000000970870562">
							<use xlink:href="#E062" x="90" y="2340" height="720px" width="720px" />
						</g>
						<g class="meterSig" id="msig-0000000840785628">
							<use xlink:href="#E082" x="771" y="2340" height="720px" width="720px" />
							<use xlink:href="#E084" x="777" y="2700" height="720px" width="720px" />
						</g>
						<g class="layer" id="layer-L4F1N1">
							<g class="beam" id="beam-L5F1-L8F1">
								<polygon points="1577,1918 2727,1828 2727,1918 1577,2008 " />
								<polygon points="2569,1975 2727,1963 2727,2053 2569,2065 " />
								<g class="note" id="note-L5F1">
									<use xlink:href="#E0A4" x="1369" y="2610" height="720px" width="720px" />
									<g class="dots" id="dots-0000001846116676">
										<ellipse cx="1685" cy="2610" rx="36" ry="36" />
									</g>
									<g class="stem">
										<rect x="1577" y="1936" height="652" width="18" />
									</g>
									<g class="accid" id="accid-0000001575012253" />
								</g>
								<g class="note" id="note-L8F1">
									<use xlink:href="#E0A4" x="2501" y="2520" height="720px" width="720px" />
									<g class="stem">
										<rect x="2709" y="1846" height="652" width="18" />
									</g>
									<g class="accid" id="accid-0000000124564681" />
								</g>
							</g>
							<g class="beam" id="beam-L9F1-L11F1">
								<polygon points="2884,3118 3670,3195 3670,3105 2884,3028 " />
								<polygon points="2884,2983 3277,3022 3277,2932 2884,2893 " />
								<g class="note" id="note-L9F1">
									<use xlink:href="#E0A4" x="2884" y="2430" height="720px" width="720px" />
									<g class="stem">
										<rect x="2884" y="2452" height="648" width="18" />
									</g>
									<g class="accid" id="accid-0000001978104168" />
								</g>
								<g class="note" id="note-L10F1">
									<use xlink:href="#E0A4" x="3268" y="2340" height="720px" width="720px" />
									<g class="stem">
										<rect x="3268" y="2362" height="777" width="18" />
									</g>
									<g class="accid" id="accid-0000002094866270" />
								</g>
								<g class="note" id="note-L11F1">
									<use xlink:href="#E0A4" x="3652" y="2520" height="720px" width="720px" />
									<g class="stem">
										<rect x="3652" y="2542" height="635" width="18" />
									</g>
									<g class="accid" id="accid-0000001313239705" />
								</g>
							</g>
						</g>
					</g>
					<g class="tie" id="tie-L11F1-L14F1">
						<path d="M3900,2475 C4081,2333 4443,2333 4627,2475 C4443,2377 4081,2377 3900,2475" stroke="#000000" stroke-linecap="round" stroke-linejoin="round" stroke-width="9" />
					</g>
					<g class="mNum autogenerated" id="mnum-0000001321901236" />
					<g class="barLineAttr" id="bline-0000000984551207">
						<path d="M4417 2880 L4417 720" stroke="#000000" stroke-width="27" />
					</g>
				</g>
				<g class="measure" id="measure-L13">
					<g class="staff" id="staff-L13F2N1">
						<path d="M4430 720 L7748 720" stroke="#000000" stroke-width="13" />
						<path d="M4430 900 L7748 900" stroke="#000000" stroke-width="13" />
						<path d="M4430 1080 L7748 1080" stroke="#000000" stroke-width="13" />
						<path d="M4430 1260 L7748 1260" stroke="#000000" stroke-width="13" />
						<path d="M4430 1440 L7748 1440" stroke="#000000" stroke-width="13" />
						<g class="layer" id="layer-L13F2N1">
							<g class="beam" id="beam-L14F2-L17F2">
								<polygon points="4649,1826 5818,1884 5818,1794 4649,1736 " />
								<polygon points="4649,1691 4807,1698 4807,1608 4649,1601 " />
								<polygon points="5660,1741 5818,1749 5818,1659 5660,1651 " />
								<g class="note" id="note-L14F2">
									<use xlink:href="#E0A4" x="4649" y="990" height="720px" width="720px" />
									<g class="stem">
										<rect x="4649" y="1012" height="796" width="18" />
									</g>
									<g class="accid" id="accid-0000001792483008" />
								</g>
								<g class="note" id="note-L15F2">
									<use xlink:href="#E0A4" x="5033" y="1170" height="720px" width="720px" />
									<g class="stem">
										<rect x="5033" y="1192" height="635" width="18" />
									</g>
									<g class="accid" id="accid-0000000336144242" />
								</g>
								<g class="note" id="note-L17F2">
									<use xlink:href="#E0A4" x="5800" y="1080" height="720px" width="720px" />
									<g class="stem">
										<rect x="5800" y="1102" height="764" width="18" />
									</g>
									<g class="accid" id="accid-0000000192717768" />
								</g>
							</g>
							<g class="beam" id="beam-L18F2-L21F2">
								<polygon points="6392,384 7561,269 7561,359 6392,474 " />
								<polygon points="6392,519 7561,404 7561,494 6392,609 " />
								<g class="note" id="note-L18F2">
									<use xlink:href="#E0A4" x="6184" y="1080" height="720px" width="720px" />
									<g class="stem">
										<rect x="6392" y="402" height="656" width="18" />
									</g>
									<g class="accid" id="accid-0000000391588627" />
								</g>
								<g class="note" id="note-L19F2">
									<use xlink:href="#E0A4" x="6567" y="1440" height="720px" width="720px" />
									<g class="stem">
										<rect x="6775" y="363" height="1055" width="18" />
									</g>
									<g class="accid" id="accid-0000001841680576" />
								</g>
								<g class="note" id="note-L20F2">
									<use xlink:href="#E0A4" x="6951" y="1080" height="720px" width="720px" />
									<g class="stem">
										<rect x="7159" y="325" height="733" width="18" />
									</g>
									<g class="accid" id="accid-0000000930445341" />
								</g>
								<g class="note" id="note-L21F2">
									<use xlink:href="#E0A4" x="7335" y="990" height="720px" width="720px" />
									<g class="stem">
										<rect x="7543" y="287" height="681" width="18" />
									</g>
									<g class="accid" id="accid-0000000307635775" />
								</g>
							</g>
						</g>
					</g>
					<g class="staff" id="staff-L13F1N1">
						<path d="M4430 2160 L7748 2160" stroke="#000000" stroke-width="13" />
						<path d="M4430 2340 L7748 2340" stroke="#000000" stroke-width="13" />
						<path d="M4430 2520 L7748 2520" stroke="#000000" stroke-width="13" />
						<path d="M4430 2700 L7748 2700" stroke="#000000" stroke-width="13" />
						<path d="M4430 2880 L7748 2880" stroke="#000000" stroke-width="13" />
						<g class="layer" id="layer-L13F1N1">
							<g class="beam" id="beam-L14F1-L17F1">
								<polygon points="4649,3324 5818,3208 5818,3118 4649,3234 " />
								<polygon points="4649,3189 5818,3073 5818,2983 4649,3099 " />
								<g class="note" id="note-L14F1">
									<use xlink:href="#E0A4" x="4649" y="2520" height="720px" width="720px" />
									<g class="stem">
										<rect x="4649" y="2542" height="764" width="18" />
									</g>
									<g class="accid" id="accid-0000002095732883" />
								</g>
								<g class="note" id="note-L15F1">
									<use xlink:href="#E0A4" x="5033" y="2610" height="720px" width="720px" />
									<g class="stem">
										<rect x="5033" y="2632" height="635" width="18" />
									</g>
									<g class="accid" id="accid-0000002080312518" />
								</g>
								<g class="note" id="note-L16F1">
									<use xlink:href="#E0A4" x="5416" y="2430" height="720px" width="720px" />
									<g class="stem">
										<rect x="5416" y="2452" height="777" width="18" />
									</g>
									<g class="accid" id="accid-0000000567495553" />
								</g>
								<g class="note" id="note-L17F1">
									<use xlink:href="#E0A4" x="5800" y="2340" height="720px" width="720px" />
									<g class="stem">
										<rect x="5800" y="2362" height="828" width="18" />
									</g>
									<g class="accid" id="accid-0000001766741174" />
								</g>
							</g>
							<g class="beam" id="beam-L18F1-L21F1">
								<polygon points="6392,1846 7561,1961 7561,2051 6392,1936 " />
								<polygon points="7403,2081 7561,2096 7561,2186 7403,2171 " />
								<g class="note" id="note-L18F1">
									<use xlink:href="#E0A4" x="6184" y="2520" height="720px" width="720px" />
									<g class="dots" id="dots-0000000068989762">
										<ellipse cx="6500" cy="2430" rx="36" ry="36" />
									</g>
									<g class="stem">
										<rect x="6392" y="1864" height="634" width="18" />
									</g>
									<g class="accid" id="accid-0000000033288704" />
								</g>
								<g class="note" id="note-L21F1">
									<use xlink:href="#E0A4" x="7335" y="2700" height="720px" width="720px" />
									<g class="stem">
										<rect x="7543" y="1979" height="699" width="18" />
									</g>
									<g class="accid" id="accid-0000001061528162" />
								</g>
							</g>
						</g>
					</g>
					<g class="tie" id="tie-L17F2-L18F2">
						<path d="M5913,945 C6009,803 6201,803 6297,945 C6201,847 6009,847 5913,945" stroke="#000000" stroke-linecap="round" stroke-linejoin="round" stroke-width="9" />
					</g>
					<g class="mNum autogenerated" id="mnum-0000001561559056" />
					<g class="barLineAttr" id="bline-0000001999153011">
						<path d="M7735 2880 L7735 720" stroke="#000000" stroke-width="27" />
					</g>
				</g>
				<g class="measure" id="measure-L22">
					<g class="staff" id="staff-L22F2N1">
						<path d="M7748 720 L11741 720" stroke="#000000" stroke-width="13" />
						<path d="M7748 900 L11741 900" stroke="#000000" stroke-width="13" />
						<path d="M7748 1080 L11741 1080" stroke="#000000" stroke-width="13" />
						<path d="M7748 1260 L11741 1260" stroke="#000000" stroke-width="13" />
						<path d="M7748 1440 L11741 1440" stroke="#000000" stroke-width="13" />
						<g class="layer" id="layer-L22F2N1">
							<g class="beam" id="beam-L23F2-L25F2">
								<polygon points="8175,451 9436,361 9436,451 8175,541 " />
								<polygon points="8175,586 8806,541 8806,631 8175,676 " />
								<g class="note" id="note-L23F2">
									<use xlink:href="#E0A4" x="7967" y="1260" height="720px" width="720px" />
									<g class="stem">
										<rect x="8175" y="469" height="769" width="18" />
									</g>
									<g class="accid" id="accid-0000000400139837" />
								</g>
								<g class="note" id="note-L24F2">
									<use xlink:href="#E0A4" x="8589" y="1080" height="720px" width="720px" />
									<g class="stem">
										<rect x="8797" y="424" height="634" width="18" />
									</g>
									<g class="accid" id="accid-0000000229667090">
										<use xlink:href="#E260" x="8393" y="1080" height="720px" width="720px" />
									</g>
								</g>
								<g class="note" id="note-L25F2">
									<use xlink:href="#E0A4" x="9210" y="1170" height="720px" width="720px" />
									<g class="stem">
										<rect x="9418" y="379" height="769" width="18" />
									</g>
									<g class="accid" id="accid-0000000059866463">
										<use xlink:href="#E260" x="9014" y="1170" height="720px" width="720px" />
									</g>
								</g>
							</g>
							<g class="beam" id="beam-L27F2-L30F2">
								<polygon points="10196,1666 11346,1756 11346,1666 10196,1576 " />
								<polygon points="11188,1609 11346,1621 11346,1531 11188,1519 " />
								<g class="note" id="note-L27F2">
									<use xlink:href="#E0A4" x="10196" y="990" height="720px" width="720px" />
									<g class="dots" id="dots-0000000327466790">
										<ellipse cx="10512" cy="990" rx="36" ry="36" />
									</g>
									<g class="stem">
										<rect x="10196" y="1012" height="636" width="18" />
									</g>
									<g class="accid" id="accid-0000000136992353" />
								</g>
								<g class="note" id="note-L30F2">
									<use xlink:href="#E0A4" x="11328" y="1080" height="720px" width="720px" />
									<g class="stem">
										<rect x="11328" y="1102" height="636" width="18" />
									</g>
									<g class="accid" id="accid-0000000227950760" />
								</g>
							</g>
						</g>
					</g>
					<g class="staff" id="staff-L22F1N1">
						<path d="M7748 2160 L11741 2160" stroke="#000000" stroke-width="13" />
						<path d="M7748 2340 L11741 2340" stroke="#000000" stroke-width="13" />
						<path d="M7748 2520 L11741 2520" stroke="#000000" stroke-width="13" />
						<path d="M7748 2700 L11741 2700" stroke="#000000" stroke-width="13" />
						<path d="M7748 2880 L11741 2880" stroke="#000000" stroke-width="13" />
						<g class="layer" id="layer-L22F1N1">
							<g class="beam" id="beam-L23F1-L26F1">
								<polygon points="8175,1923 9801,1833 9801,1923 8175,2013 " />
								<polygon points="9643,1977 9801,1968 9801,2058 9643,2067 " />
								<g class="note" id="note-L23F1">
									<use xlink:href="#E0A4" x="7967" y="2610" height="720px" width="720px" />
									<g class="dots" id="dots-0000000786243767">
										<ellipse cx="8283" cy="2610" rx="36" ry="36" />
									</g>
									<g class="stem">
										<rect x="8175" y="1941" height="647" width="18" />
									</g>
									<g class="accid" id="accid-0000001441400488" />
								</g>
								<g class="note" id="note-L26F1">
									<use xlink:href="#E0A4" x="9575" y="2520" height="720px" width="720px" />
									<g class="stem">
										<rect x="9783" y="1851" height="647" width="18" />
									</g>
									<g class="accid" id="accid-0000000042950608" />
								</g>
							</g>
							<g class="beam" id="beam-L27F1-L29F1">
								<polygon points="10196,3118 10982,3195 10982,3105 10196,3028 " />
								<polygon points="10196,2983 10589,3022 10589,2932 10196,2893 " />
								<g class="note" id="note-L27F1">
									<use xlink:href="#E0A4" x="10196" y="2430" height="720px" width="720px" />
									<g class="stem">
										<rect x="10196" y="2452" height="648" width="18" />
									</g>
									<g class="accid" id="accid-0000002139564955">
										<use xlink:href="#E260" x="10000" y="2430" height="720px" width="720px" />
									</g>
								</g>
								<g class="note" id="note-L28F1">
									<use xlink:href="#E0A4" x="10580" y="2340" height="720px" width="720px" />
									<g class="stem">
										<rect x="10580" y="2362" height="777" width="18" />
									</g>
									<g class="accid" id="accid-0000001652130068" />
								</g>
								<g class="note" id="note-L29F1">
									<use xlink:href="#E0A4" x="10964" y="2520" height="720px" width="720px" />
									<g class="stem">
										<rect x="10964" y="2542" height="635" width="18" />
									</g>
									<g class="accid" id="accid-0000001867320434" />
								</g>
							</g>
						</g>
					</g>
					<g class="tie" id="tie-L29F1-L32F1">
						<path d="M11212,2475 C11393,2333 11755,2333 11938,2475 C11755,2377 11393,2377 11212,2475" stroke="#000000" stroke-linecap="round" stroke-linejoin="round" stroke-width="9" />
					</g>
					<g class="mNum autogenerated" id="mnum-0000000603809416" />
					<g class="barLineAttr" id="bline-0000001852256201">
						<path d="M11728 2880 L11728 720" stroke="#000000" stroke-width="27" />
					</g>
				</g>
				<g class="measure" id="measure-L31">
					<g class="staff" id="staff-L31F2N1">
						<path d="M11741 720 L15773 720" stroke="#000000" stroke-width="13" />
						<path d="M11741 900 L15773 900" stroke="#000000" stroke-width="13" />
						<path d="M11741 1080 L15773 1080" stroke="#000000" stroke-width="13" />
						<path d="M11741 1260 L15773 1260" stroke="#000000" stroke-width="13" />
						<path d="M11741 1440 L15773 1440" stroke="#000000" stroke-width="13" />
						<g class="layer" id="layer-L31F2N1">
							<g class="beam" id="beam-L32F2-L35F2">
								<polygon points="11960,1819 13605,1886 13605,1796 11960,1729 " />
								<polygon points="11960,1684 12118,1690 12118,1600 11960,1594 " />
								<polygon points="13447,1745 13605,1751 13605,1661 13447,1655 " />
								<g class="note" id="note-L32F2">
									<use xlink:href="#E0A4" x="11960" y="990" height="720px" width="720px" />
									<g class="stem">
										<rect x="11960" y="1012" height="789" width="18" />
									</g>
									<g class="accid" id="accid-0000001189045417" />
								</g>
								<g class="note" id="note-L33F2">
									<use xlink:href="#E0A4" x="12582" y="1170" height="720px" width="720px" />
									<g class="stem">
										<rect x="12582" y="1192" height="635" width="18" />
									</g>
									<g class="accid" id="accid-0000000330602445">
										<use xlink:href="#E260" x="12386" y="1170" height="720px" width="720px" />
									</g>
								</g>
								<g class="note" id="note-L35F2">
									<use xlink:href="#E0A4" x="13587" y="1080" height="720px" width="720px" />
									<g class="stem">
										<rect x="13587" y="1102" height="766" width="18" />
									</g>
									<g class="accid" id="accid-0000000794617847">
										<use xlink:href="#E260" x="13391" y="1080" height="720px" width="720px" />
									</g>
								</g>
							</g>
							<g class="beam" id="beam-L36F2-L39F2">
								<polygon points="14179,384 15586,245 15586,335 14179,474 " />
								<polygon points="14179,519 15586,380 15586,470 14179,609 " />
								<g class="note" id="note-L36F2">
									<use xlink:href="#E0A4" x="13971" y="1080" height="720px" width="720px" />
									<g class="stem">
										<rect x="14179" y="402" height="656" width="18" />
									</g>
									<g class="accid" id="accid-0000000653605153" />
								</g>
								<g class="note" id="note-L37F2">
									<use xlink:href="#E0A4" x="14592" y="1440" height="720px" width="720px" />
									<g class="stem">
										<rect x="14800" y="340" height="1078" width="18" />
									</g>
									<g class="accid" id="accid-0000000310517025">
										<use xlink:href="#E260" x="14396" y="1440" height="720px" width="720px" />
									</g>
								</g>
								<g class="note" id="note-L38F2">
									<use xlink:href="#E0A4" x="14976" y="1080" height="720px" width="720px" />
									<g class="stem">
										<rect x="15184" y="302" height="756" width="18" />
									</g>
									<g class="accid" id="accid-0000001394353091" />
								</g>
								<g class="note" id="note-L39F2">
									<use xlink:href="#E0A4" x="15360" y="990" height="720px" width="720px" />
									<g class="stem">
										<rect x="15568" y="263" height="705" width="18" />
									</g>
									<g class="accid" id="accid-0000001032353372" />
								</g>
							</g>
						</g>
					</g>
					<g class="staff" id="staff-L31F1N1">
						<path d="M11741 2160 L15773 2160" stroke="#000000" stroke-width="13" />
						<path d="M11741 2340 L15773 2340" stroke="#000000" stroke-width="13" />
						<path d="M11741 2520 L15773 2520" stroke="#000000" stroke-width="13" />
						<path d="M11741 2700 L15773 2700" stroke="#000000" stroke-width="13" />
						<path d="M11741 2880 L15773 2880" stroke="#000000" stroke-width="13" />
						<g class="layer" id="layer-L31F1N1">
							<g class="beam" id="beam-L32F1-L35F1">
								<polygon points="11960,3348 13605,3185 13605,3095 11960,3258 " />
								<polygon points="11960,3213 13605,3050 13605,2960 11960,3123 " />
								<g class="note" id="note-L32F1">
									<use xlink:href="#E0A4" x="11960" y="2520" height="720px" width="720px" />
									<g class="stem">
										<rect x="11960" y="2542" height="788" width="18" />
									</g>
									<g class="accid" id="accid-0000000072107022" />
								</g>
								<g class="note" id="note-L33F1">
									<use xlink:href="#E0A4" x="12582" y="2610" height="720px" width="720px" />
									<g class="stem">
										<rect x="12582" y="2632" height="635" width="18" />
									</g>
									<g class="accid" id="accid-0000000394000172" />
								</g>
								<g class="note" id="note-L34F1">
									<use xlink:href="#E0A4" x="13203" y="2430" height="720px" width="720px" />
									<g class="stem">
										<rect x="13203" y="2452" height="753" width="18" />
									</g>
									<g class="accid" id="accid-0000000328365411">
										<use xlink:href="#E260" x="13007" y="2430" height="720px" width="720px" />
									</g>
								</g>
								<g class="note" id="note-L35F1">
									<use xlink:href="#E0A4" x="13587" y="2340" height="720px" width="720px" />
									<g class="stem">
										<rect x="13587" y="2362" height="805" width="18" />
									</g>
									<g class="accid" id="accid-0000001858994366" />
								</g>
							</g>
							<g class="beam" id="beam-L36F1-L39F1">
								<polygon points="14179,1846 15586,1985 15586,2075 14179,1936 " />
								<polygon points="15428,2105 15586,2120 15586,2210 15428,2195 " />
								<g class="note" id="note-L36F1">
									<use xlink:href="#E0A4" x="13971" y="2520" height="720px" width="720px" />
									<g class="dots" id="dots-0000002054327516">
										<ellipse cx="14287" cy="2430" rx="36" ry="36" />
									</g>
									<g class="stem">
										<rect x="14179" y="1864" height="634" width="18" />
									</g>
									<g class="accid" id="accid-0000001890175426" />
								</g>
								<g class="note" id="note-L39F1">
									<use xlink:href="#E0A4" x="15360" y="2700" height="720px" width="720px" />
									<g class="stem">
										<rect x="15568" y="2003" height="675" width="18" />
									</g>
									<g class="accid" id="accid-0000001586146456">
										<use xlink:href="#E260" x="15164" y="2700" height="720px" width="720px" />
									</g>
								</g>
							</g>
						</g>
					</g>
					<g class="tie" id="tie-L35F2-L36F2">
						<path d="M13700,945 C13796,803 13988,803 14084,945 C13988,847 13796,847 13700,945" stroke="#000000" stroke-linecap="round" stroke-linejoin="round" stroke-width="9" />
					</g>
					<g class="mNum autogenerated" id="mnum-0000000087310099" />
					<g class="barLineAttr" id="bline-0000000225363538">
						<path d="M15760 2880 L15760 720" stroke="#000000" stroke-width="27" />
					</g>
				</g>
				<g class="measure" id="measure-L40">
					<g class="staff" id="staff-L40F2N1">
						<path d="M15773 720 L20002 720" stroke="#000000" stroke-width="13" />
						<path d="M15773 900 L20002 900" stroke="#000000" stroke-width="13" />
						<path d="M15773 1080 L20002 1080" stroke="#000000" stroke-width="13" />
						<path d="M15773 1260 L20002 1260" stroke="#000000" stroke-width="13" />
						<path d="M15773 1440 L20002 1440" stroke="#000000" stroke-width="13" />
						<g class="layer" id="layer-L40F2N1">
							<g class="beam" id="beam-L41F2-L43F2">
								<polygon points="16438,541 17697,451 17697,541 16438,631 " />
								<polygon points="16438,676 17067,631 17067,721 16438,766 " />
								<g class="note" id="note-L41F2">
									<use xlink:href="#E0A4" x="16230" y="1350" height="720px" width="720px" />
									<g class="stem">
										<rect x="16438" y="559" height="769" width="18" />
									</g>
									<g class="accid" id="accid-0000002056943718">
										<use xlink:href="#E262" x="16035" y="1350" height="720px" width="720px" />
									</g>
								</g>
								<g class="note" id="note-L42F2">
									<use xlink:href="#E0A4" x="16850" y="1170" height="720px" width="720px" />
									<g class="stem">
										<rect x="17058" y="514" height="634" width="18" />
									</g>
									<g class="accid" id="accid-0000000001504713">
										<use xlink:href="#E262" x="16655" y="1170" height="720px" width="720px" />
									</g>
								</g>
								<g class="note" id="note-L43F2">
									<use xlink:href="#E0A4" x="17471" y="1260" height="720px" width="720px" />
									<g class="stem">
										<rect x="17679" y="469" height="769" width="18" />
									</g>
									<g class="accid" id="accid-0000001331032415">
										<use xlink:href="#E262" x="17276" y="1260" height="720px" width="720px" />
									</g>
								</g>
							</g>
							<g class="beam" id="beam-L45F2-L48F2">
								<polygon points="18665,406 19814,496 19814,586 18665,496 " />
								<polygon points="19656,619 19814,631 19814,721 19656,709 " />
								<g class="note" id="note-L45F2">
									<use xlink:href="#E0A4" x="18457" y="1080" height="720px" width="720px" />
									<g class="dots" id="dots-0000000761856345">
										<ellipse cx="18773" cy="990" rx="36" ry="36" />
									</g>
									<g class="stem">
										<rect x="18665" y="424" height="634" width="18" />
									</g>
									<g class="accid" id="accid-0000001692449423" />
								</g>
								<g class="note" id="note-L48F2">
									<use xlink:href="#E0A4" x="19588" y="1170" height="720px" width="720px" />
									<g class="stem">
										<rect x="19796" y="514" height="634" width="18" />
									</g>
									<g class="accid" id="accid-0000001386411036" />
								</g>
							</g>
						</g>
					</g>
					<g class="staff" id="staff-L40F1N1">
						<path d="M15773 2160 L20002 2160" stroke="#000000" stroke-width="13" />
						<path d="M15773 2340 L20002 2340" stroke="#000000" stroke-width="13" />
						<path d="M15773 2520 L20002 2520" stroke="#000000" stroke-width="13" />
						<path d="M15773 2700 L20002 2700" stroke="#000000" stroke-width="13" />
						<path d="M15773 2880 L20002 2880" stroke="#000000" stroke-width="13" />
						<g class="layer" id="layer-L40F1N1">
							<g class="beam" id="beam-L41F1-L44F1">
								<polygon points="16438,1923 18061,1833 18061,1923 16438,2013 " />
								<polygon points="17903,1977 18061,1968 18061,2058 17903,2067 " />
								<g class="note" id="note-L41F1">
									<use xlink:href="#E0A4" x="16230" y="2610" height="720px" width="720px" />
									<g class="dots" id="dots-0000000064543462">
										<ellipse cx="16546" cy="2610" rx="36" ry="36" />
									</g>
									<g class="stem">
										<rect x="16438" y="1941" height="647" width="18" />
									</g>
									<g class="accid" id="accid-0000001218618561">
										<use xlink:href="#E260" x="16034" y="2610" height="720px" width="720px" />
									</g>
								</g>
								<g class="note" id="note-L44F1">
									<use xlink:href="#E0A4" x="17835" y="2520" height="720px" width="720px" />
									<g class="stem">
										<rect x="18043" y="1851" height="647" width="18" />
									</g>
									<g class="accid" id="accid-0000000223656359">
										<use xlink:href="#E260" x="17639" y="2520" height="720px" width="720px" />
									</g>
								</g>
							</g>
							<g class="beam" id="beam-L45F1-L47F1">
								<polygon points="18457,3118 19242,3195 19242,3105 18457,3028 " />
								<polygon points="18457,2983 18849,3022 18849,2932 18457,2893 " />
								<g class="note" id="note-L45F1">
									<use xlink:href="#E0A4" x="18457" y="2430" height="720px" width="720px" />
									<g class="stem">
										<rect x="18457" y="2452" height="648" width="18" />
									</g>
									<g class="accid" id="accid-0000000436289262">
										<use xlink:href="#E260" x="18261" y="2430" height="720px" width="720px" />
									</g>
								</g>
								<g class="note" id="note-L46F1">
									<use xlink:href="#E0A4" x="18840" y="2340" height="720px" width="720px" />
									<g class="stem">
										<rect x="18840" y="2362" height="777" width="18" />
									</g>
									<g class="accid" id="accid-0000001104009210" />
								</g>
								<g class="note" id="note-L47F1">
									<use xlink:href="#E0A4" x="19224" y="2520" height="720px" width="720px" />
									<g class="stem">
										<rect x="19224" y="2542" height="635" width="18" />
									</g>
									<g class="accid" id="accid-0000001230689227" />
								</g>
							</g>
						</g>
					</g>
					<g class="tie" id="tie-L47F1-L50F1">
						<path d="M19472,2475 C19601,2333 19859,2333 19989,2475 C19859,2377 19601,2377 19472,2475" stroke="#000000" stroke-linecap="round" stroke-linejoin="round" stroke-width="9" />
					</g>
					<g class="mNum autogenerated" id="mnum-0000000655027332" />
					<g class="barLineAttr" id="bline-0000000740711176">
						<path d="M19989 2880 L19989 720" stroke="#000000" stroke-width="27" />
					</g>
				</g>
			</g>
		</g>
	</svg>
</svg>
