<?xml version="1.0" encoding="UTF-8" standalone="no"?>
<svg width="2100.00px" height="450.00px" version="1.1" xmlns="http://www.w3.org/2000/svg" xmlns:xlink="http://www.w3.org/1999/xlink" overflow="visible">
	<desc>Engraved by Verovio 2.0.0-dev-0f0381c</desc>
	<defs>
		<symbol id="E050" viewBox="0 0 1000 1000" overflow="inherit">
			<path transform="scale(1,-1)" d="M441 -245c-23 -4 -48 -6 -76 -6c-59 0 -102 7 -130 20c-88 42 -150 93 -187 154c-26 44 -43 103 -48 176c-4 60 11 123 44 189c29 57 65 106 110 148s96 85 153 127c-3 16 -8 46 -13 92c-4 43 -5 73 -5 89c0 117 16 172 69 257c34 54 64 82 89 82c21 0 43 -30 69 -92 s39 -115 41 -159c2 -120 -19 -173 -67 -256c-13 -20 -63 -90 -98 -118c-13 -9 -25 -19 -37 -29l31 -181c8 1 18 2 28 2c58 0 102 -12 133 -35c59 -43 92 -104 98 -184c11 -135 -80 -229 -180 -270c8 -57 17 -110 25 -162c5 -31 6 -58 6 -80c0 -30 -5 -53 -14 -70 c-35 -64 -88 -99 -158 -103c-42 -3 -83 6 -124 26c-50 24 -77 59 -80 105c-2 34 5 63 20 87c18 28 45 42 79 44c51 4 99 -40 103 -87c4 -56 -30 -94 -105 -115c17 -24 51 -36 102 -36c62 0 116 43 140 85c9 16 13 41 13 74c0 20 -1 42 -5 67c-8 53 -18 106 -26 159zM461 939 c-95 0 -135 -175 -135 -286c0 -24 2 -48 5 -71c50 39 92 82 127 128c43 57 63 106 60 148c-4 54 -23 82 -57 81zM406 119l54 -326c80 27 116 88 109 184c-7 99 -62 146 -163 142zM382 117c-74 -2 -132 -50 -128 -127c2 -46 43 -99 75 -115c-3 -2 -7 -5 -10 -10 c-70 33 -116 88 -123 172c-5 73 42 135 88 170c23 17 49 29 78 36l-29 170c-21 -13 -52 -37 -92 -73c-50 -44 -86 -84 -109 -119c-49 -75 -71 -140 -67 -195c5 -68 35 -127 93 -176s125 -73 203 -73c25 0 50 3 75 9c-19 111 -36 221 -54 331z" />
		</symbol>
		<symbol id="E082" viewBox="0 0 1000 1000" overflow="inherit">
			<path transform="scale(1,-1)" d="M104 -185c-18 0 -55 -14 -65 -65h-36l-3 29c0 25 6 46 18 64c11 19 22 30 39 43l121 82l37 29c15 11 27 29 38 54c12 24 18 47 18 70c0 40 -19 88 -94 88c-25 0 -32 0 -50 -8c-14 -5 -23 -12 -26 -22c3 -9 7 -15 10 -18l24 -17c12 -7 17 -11 27 -21c5 -7 7 -16 7 -27 c0 -12 0 -57 -79 -74c-30 0 -76 26 -76 94c0 66 80 135 196 135c72 0 182 -32 182 -150c0 -53 -32 -95 -113 -133l-91 -41c-26 -11 -45 -23 -57 -37l49 7c84 0 115 -41 148 -41c20 0 33 20 39 61h35c0 -152 -68 -168 -114 -168c-17 0 -55 0 -69 7v0l-28 17 c-49 37 -69 40 -87 42z" />
		</symbol>
		<symbol id="E084" viewBox="0 0 1000 1000" overflow="inherit">
			<path transform="scale(1,-1)" d="M0 -78c84 97 114 180 134 329h170c-13 -32 -82 -132 -99 -151l-84 -97c-33 -36 -59 -63 -80 -81h162v102l127 123v-225h57v-39h-57v-34c0 -43 19 -65 57 -65v-34h-244v36c48 0 60 26 60 70v27h-203v39z" />
		</symbol>
		<symbol id="E0A4" viewBox="0 0 1000 1000" overflow="inherit">
			<path transform="scale(1,-1)" d="M0 -39c0 68 73 172 200 172c66 0 114 -37 114 -95c0 -84 -106 -171 -218 -171c-64 0 -96 30 -96 94z" />
		</symbol>
		<symbol id="E062" viewBox="0 0 1000 1000" overflow="inherit">
			<path transform="scale(1,-1)" d="M158 96c51 0 73 -14 88 -49l16 -39c0 -17 -2 -30 -7 -40c-3 -11 -10 -21 -19 -31c-17 -18 -49 -43 -84 -43c-55 0 -77 13 -112 44c-24 21 -35 55 -35 100c0 46 14 81 32 112c30 52 71 79 137 93l36 6l26 2c154 0 235 -68 274 -182c11 -32 18 -68 18 -107 c0 -103 -26 -182 -68 -250c-89 -145 -234 -230 -412 -288l-30 -5c-9 0 -14 3 -14 8c3 10 5 11 10 16c35 15 70 30 96 44l78 43c96 57 162 136 197 258c9 33 17 60 22 100c3 22 5 35 6 39c-7 69 -16 115 -23 140s-4 22 -16 40c-8 12 -19 23 -31 34c-24 21 -62 44 -118 44 c-48 0 -84 -8 -113 -28c-28 -19 -42 -44 -42 -73v-16c2 -5 3 -9 4 -11c24 22 52 39 84 39zM585 -118c0 32 23 58 57 58c18 0 33 -6 40 -18c9 -15 16 -18 16 -40c0 -9 -2 -16 -5 -21c-6 -19 -27 -37 -51 -37c-34 0 -57 26 -57 58zM642 177c31 0 56 -27 56 -58 c0 -30 -25 -58 -56 -58l-23 3c-19 7 -34 32 -34 55l3 23c9 20 28 35 54 35z" />
		</symbol>
		<symbol id="E4E7" viewBox="0 0 1000 1000" overflow="inherit">
			<path transform="scale(1,-1)" d="M133 -111c-16 38 -21 43 -64 51c-37 -4 -60 -25 -68 -60c0 -32 18 -52 55 -58c8 -6 22 -10 43 -10c31 0 62 7 82 20l-108 -324h37c72 220 143 439 215 659h-4l-10 -2l-7 -1c-15 -35 -27 -52 -59 -71c-26 -15 -56 -27 -88 -29c-11 0 -20 2 -26 6c29 3 56 25 51 56 c-15 35 -19 42 -64 48c-38 -4 -60 -23 -68 -58c0 -32 18 -52 55 -59c7 -5 22 -8 45 -8c48 0 76 7 112 25l-66 -197c-21 -23 -50 -47 -90 -47c-7 0 -15 1 -25 4c31 5 52 22 52 55z" />
		</symbol>
		<symbol id="E260" viewBox="0 0 1000 1000" overflow="inherit">
			<path transform="scale(1,-1)" d="M20 110c32 16 54 27 93 27c26 0 35 -3 54 -13c13 -7 24 -20 27 -38l4 -25c0 -28 -16 -57 -45 -89c-23 -25 -39 -44 -65 -68l-88 -79v644h20v-359zM90 106c-32 0 -48 -10 -70 -29v-194c31 31 54 59 71 84c21 32 32 59 32 84c0 9 1 16 1 20c0 14 -3 21 -11 30l-8 3z" />
		</symbol>
		<symbol id="E262" viewBox="0 0 1000 1000" overflow="inherit">
			<path transform="scale(1,-1)" d="M136 186v169h17v-164l44 14v-91l-44 -14v-165l44 12v-91l-44 -13v-155h-17v150l-76 -22v-155h-17v149l-43 -13v90l43 14v167l-43 -14v92l43 13v169h17v-163zM60 73v-167l76 22v168z" />
		</symbol>
	</defs>
	<style type="text/css">g.page-margin{font-family:Times;} g.tempo{font-weight:bold;} g.dir, g.dynam, g.mNum{font-style:italic;} g.label{font-weight:normal;}</style>
	<svg class="definition-scale" viewBox="0 0 21000 4500">
		<g class="page-margin" transform="translate(500, 500)">
			<g class="system" id="system-0000000665360701">
				<path d="M13 720 L13 2944" stroke="#000000" stroke-width="27" />
				<path d="M-32,2926 C-392,2386 58,2012 -212,1832 C121,2012 -329,2386 -32,2926" stroke="#000000" stroke-linecap="round" stroke-linejoin="round" stroke-width="18" />
				<path d="M-32,738 C-329,1278 121,1652 -212,1832 C58,1652 -392,1278 -32,738" stroke="#000000" stroke-linecap="round" stroke-linejoin="round" stroke-width="18" />
				<g class="section boundaryStart" id="section-L1F1" />
				<g class="measure" id="measure-L4">
					<g class="staff" id="staff-L4F2N1">
						<path d="M0 720 L4403 720" stroke="#000000" stroke-width="13" />
						<path d="M0 900 L4403 900" stroke="#000000" stroke-width="13" />
						<path d="M0 1080 L4403 1080" stroke="#000000" stroke-width="13" />
						<path d="M0 1260 L4403 1260" stroke="#000000" stroke-width="13" />
						<path d="M0 1440 L4403 1440" stroke="#000000" stroke-width="13" />
						<g class="clef" id="clef-0000001419760819">
							<use xlink:href="#E050" x="90" y="1260" height="720px" width="720px" />
						</g>
						<g class="meterSig" id="msig-0000001229283116">
							<use xlink:href="#E082" x="771" y="900" height="720px" width="720px" />
							<use xlink:href="#E084" x="777" y="1260" height="720px" width="720px" />
						</g>
						<g class="layer" id="layer-L4F2N1">
							<g class="beam" id="beam-L5F2-L8F2">
								<polygon points="1573,746 2732,766 2732,856 1573,836 " />
								<polygon points="2345,894 2732,901 2732,991 2345,984 " />
								<g class="note" id="note-L5F2">
									<use xlink:href="#E0A4" x="1365" y="1440" height="720px" width="720px" />
									<g class="stem">
										<rect x="1573" y="764" height="654" width="18" />
									</g>
									<g class="accid" id="accid-0000001972527243" />
								</g>
								<g class="note" id="note-L7F2">
									<use xlink:href="#E0A4" x="2128" y="1530" height="720px" width="720px" />
									<g class="stem">
										<rect x="2336" y="777" height="731" width="18" />
									</g>
									<g class="accid" id="accid-0000001280668617" />
								</g>
								<g class="note" id="note-L8F2">
									<use xlink:href="#E0A4" x="2506" y="1440" height="720px" width="720px" />
									<g class="stem">
										<rect x="2714" y="784" height="634" width="18" />
									</g>
									<g class="accid" id="accid-0000000482212534" />
								</g>
							</g>
							<g class="beam" id="beam-L9F2-L11F2">
								<polygon points="3091,406 3864,482 3864,572 3091,496 " />
								<polygon points="3091,541 3477,579 3477,669 3091,631 " />
								<g class="note" id="note-L9F2">
									<use xlink:href="#E0A4" x="2883" y="1080" height="720px" width="720px" />
									<g class="stem">
										<rect x="3091" y="424" height="634" width="18" />
									</g>
									<g class="accid" id="accid-0000000256739003" />
								</g>
								<g class="note" id="note-L10F2">
									<use xlink:href="#E0A4" x="3260" y="1260" height="720px" width="720px" />
									<g class="stem">
										<rect x="3468" y="462" height="776" width="18" />
									</g>
									<g class="accid" id="accid-0000001255637387" />
								</g>
								<g class="note" id="note-L11F2">
									<use xlink:href="#E0A4" x="3638" y="1350" height="720px" width="720px" />
									<g class="stem">
										<rect x="3846" y="500" height="828" width="18" />
									</g>
									<g class="accid" id="accid-0000001279567055" />
								</g>
							</g>
						</g>
					</g>
					<g class="staff" id="staff-L4F1N1">
						<path d="M0 2224 L4403 2224" stroke="#000000" stroke-width="13" />
						<path d="M0 2404 L4403 2404" stroke="#000000" stroke-width="13" />
						<path d="M0 2584 L4403 2584" stroke="#000000" stroke-width="13" />
						<path d="M0 2764 L4403 2764" stroke="#000000" stroke-width="13" />
						<path d="M0 2944 L4403 2944" stroke="#000000" stroke-width="13" />
						<g class="clef" id="clef-0000001768646472">
							<use xlink:href="#E062" x="90" y="2404" height="720px" width="720px" />
						</g>
						<g class="meterSig" id="msig-0000000172613130">
							<use xlink:href="#E082" x="771" y="2404" height="720px" width="720px" />
							<use xlink:href="#E084" x="777" y="2764" height="720px" width="720px" />
						</g>
						<g class="layer" id="layer-L4F1N1">
							<g class="beam" id="beam-L5F1-L7F1">
								<polygon points="1365,3439 2146,3362 2146,3272 1365,3349 " />
								<polygon points="1365,3304 1760,3265 1760,3175 1365,3214 " />
								<g class="rest" id="rest-L5F1">
									<use xlink:href="#E4E7" x="1365" y="2584" height="720px" width="720px" />
								</g>
								<g class="note" id="note-L6F1">
									<use xlink:href="#E0A4" x="1751" y="2314" height="720px" width="720px" />
									<g class="stem">
										<rect x="1751" y="2336" height="1046" width="18" />
									</g>
									<g class="accid" id="accid-0000000461775193" />
								</g>
								<g class="note" id="note-L7F1">
									<use xlink:href="#E0A4" x="2128" y="2404" height="720px" width="720px" />
									<g class="stem">
										<rect x="2128" y="2426" height="918" width="18" />
									</g>
									<g class="accid" id="accid-0000001087923168" />
								</g>
							</g>
							<g class="beam" id="beam-L9F1-L12F1">
								<polygon points="2883,3237 4014,3349 4014,3259 2883,3147 " />
								<polygon points="2883,3102 3041,3117 3041,3027 2883,3012 " />
								<polygon points="3856,3199 4014,3214 4014,3124 3856,3109 " />
								<g class="note" id="note-L9F1">
									<use xlink:href="#E0A4" x="2883" y="2314" height="720px" width="720px" />
									<g class="stem">
										<rect x="2883" y="2336" height="883" width="18" />
									</g>
									<g class="accid" id="accid-0000001889960119" />
								</g>
								<g class="note" id="note-L10F1">
									<use xlink:href="#E0A4" x="3260" y="2584" height="720px" width="720px" />
									<g class="stem">
										<rect x="3260" y="2606" height="651" width="18" />
									</g>
									<g class="accid" id="accid-0000001572076700" />
								</g>
								<g class="note" id="note-L12F1">
									<use xlink:href="#E0A4" x="3996" y="2674" height="720px" width="720px" />
									<g class="stem">
										<rect x="3996" y="2696" height="635" width="18" />
									</g>
									<g class="accid" id="accid-0000001952938623" />
								</g>
							</g>
						</g>
					</g>
					<g class="mNum autogenerated" id="mnum-0000001292316075" />
					<g class="barLineAttr" id="bline-0000001099894308">
						<path d="M4390 2944 L4390 720" stroke="#000000" stroke-width="27" />
					</g>
				</g>
				<g class="measure" id="measure-L13">
					<g class="staff" id="staff-L13F2N1">
						<path d="M4403 720 L7667 720" stroke="#000000" stroke-width="13" />
						<path d="M4403 900 L7667 900" stroke="#000000" stroke-width="13" />
						<path d="M4403 1080 L7667 1080" stroke="#000000" stroke-width="13" />
						<path d="M4403 1260 L7667 1260" stroke="#000000" stroke-width="13" />
						<path d="M4403 1440 L7667 1440" stroke="#000000" stroke-width="13" />
						<g class="ledgerLines below">
							<path d="M4587 1620 L4866 1620" stroke="#000000" stroke-width="22" />
						</g>
						<g class="layer" id="layer-L13F2N1">
							<g class="beam" id="beam-L14F2-L17F2">
								<polygon points="4826,752 5976,639 5976,729 4826,842 " />
								<polygon points="4826,887 5976,774 5976,864 4826,977 " />
								<g class="note" id="note-L14F2">
									<use xlink:href="#E0A4" x="4618" y="1620" height="720px" width="720px" />
									<g class="stem">
										<rect x="4826" y="770" height="828" width="18" />
									</g>
									<g class="accid" id="accid-0000001992229943" />
								</g>
								<g class="note" id="note-L15F2">
									<use xlink:href="#E0A4" x="4996" y="1530" height="720px" width="720px" />
									<g class="stem">
										<rect x="5204" y="732" height="776" width="18" />
									</g>
									<g class="accid" id="accid-0000000375393367" />
								</g>
								<g class="note" id="note-L16F2">
									<use xlink:href="#E0A4" x="5373" y="1350" height="720px" width="720px" />
									<g class="stem">
										<rect x="5581" y="694" height="634" width="18" />
									</g>
									<g class="accid" id="accid-0000000383961172" />
								</g>
								<g class="note" id="note-L17F2">
									<use xlink:href="#E0A4" x="5750" y="1440" height="720px" width="720px" />
									<g class="stem">
										<rect x="5958" y="657" height="761" width="18" />
									</g>
									<g class="accid" id="accid-0000000639387087" />
								</g>
							</g>
							<g class="beam" id="beam-L18F2-L21F2">
								<polygon points="6336,609 7486,496 7486,586 6336,699 " />
								<polygon points="7099,668 7486,631 7486,721 7099,758 " />
								<g class="note" id="note-L18F2">
									<use xlink:href="#E0A4" x="6128" y="1530" height="720px" width="720px" />
									<g class="stem">
										<rect x="6336" y="627" height="881" width="18" />
									</g>
									<g class="accid" id="accid-0000001889739956" />
								</g>
								<g class="note" id="note-L20F2">
									<use xlink:href="#E0A4" x="6882" y="1260" height="720px" width="720px" />
									<g class="stem">
										<rect x="7090" y="551" height="687" width="18" />
									</g>
									<g class="accid" id="accid-0000002100248233" />
								</g>
								<g class="note" id="note-L21F2">
									<use xlink:href="#E0A4" x="7260" y="1170" height="720px" width="720px" />
									<g class="stem">
										<rect x="7468" y="514" height="634" width="18" />
									</g>
									<g class="accid" id="accid-0000000258585488" />
								</g>
							</g>
						</g>
					</g>
					<g class="staff" id="staff-L13F1N1">
						<path d="M4403 2224 L7667 2224" stroke="#000000" stroke-width="13" />
						<path d="M4403 2404 L7667 2404" stroke="#000000" stroke-width="13" />
						<path d="M4403 2584 L7667 2584" stroke="#000000" stroke-width="13" />
						<path d="M4403 2764 L7667 2764" stroke="#000000" stroke-width="13" />
						<path d="M4403 2944 L7667 2944" stroke="#000000" stroke-width="13" />
						<g class="layer" id="layer-L13F1N1">
							<g class="beam" id="beam-L14F1-L17F1">
								<polygon points="4618,3335 5768,3221 5768,3131 4618,3245 " />
								<polygon points="5382,3124 5768,3086 5768,2996 5382,3034 " />
								<g class="note" id="note-L14F1">
									<use xlink:href="#E0A4" x="4618" y="2494" height="720px" width="720px" />
									<g class="stem">
										<rect x="4618" y="2516" height="801" width="18" />
									</g>
									<g class="accid" id="accid-0000000164578068" />
								</g>
								<g class="note" id="note-L16F1">
									<use xlink:href="#E0A4" x="5373" y="2584" height="720px" width="720px" />
									<g class="stem">
										<rect x="5373" y="2606" height="635" width="18" />
									</g>
									<g class="accid" id="accid-0000000089325887" />
								</g>
								<g class="note" id="note-L17F1">
									<use xlink:href="#E0A4" x="5750" y="2314" height="720px" width="720px" />
									<g class="stem">
										<rect x="5750" y="2336" height="867" width="18" />
									</g>
									<g class="accid" id="accid-0000001288289200" />
								</g>
							</g>
							<g class="beam" id="beam-L18F1-L20F1">
								<polygon points="6128,3273 6900,3349 6900,3259 6128,3183 " />
								<polygon points="6128,3138 6514,3176 6514,3086 6128,3048 " />
								<g class="note" id="note-L18F1">
									<use xlink:href="#E0A4" x="6128" y="2314" height="720px" width="720px" />
									<g class="stem">
										<rect x="6128" y="2336" height="919" width="18" />
									</g>
									<g class="accid" id="accid-0000000099603728" />
								</g>
								<g class="note" id="note-L19F1">
									<use xlink:href="#E0A4" x="6505" y="2494" height="720px" width="720px" />
									<g class="stem">
										<rect x="6505" y="2516" height="777" width="18" />
									</g>
									<g class="accid" id="accid-0000000154476134" />
								</g>
								<g class="note" id="note-L20F1">
									<use xlink:href="#E0A4" x="6882" y="2674" height="720px" width="720px" />
									<g class="stem">
										<rect x="6882" y="2696" height="635" width="18" />
									</g>
									<g class="accid" id="accid-0000002120140510" />
								</g>
							</g>
						</g>
					</g>
					<g class="tie" id="tie-L17F1-L18F1">
						<path d="M5863,2179 C5957,2037 6145,2037 6241,2179 C6145,2081 5957,2081 5863,2179" stroke="#000000" stroke-linecap="round" stroke-linejoin="round" stroke-width="9" />
					</g>
					<g class="mNum autogenerated" id="mnum-0000000187600169" />
					<g class="barLineAttr" id="bline-0000000909250040">
						<path d="M7654 2944 L7654 720" stroke="#000000" stroke-width="27" />
					</g>
				</g>
				<g class="measure" id="measure-L22">
					<g class="staff" id="staff-L22F2N1">
						<path d="M7667 720 L11388 720" stroke="#000000" stroke-width="13" />
						<path d="M7667 900 L11388 900" stroke="#000000" stroke-width="13" />
						<path d="M7667 1080 L11388 1080" stroke="#000000" stroke-width="13" />
						<path d="M7667 1260 L11388 1260" stroke="#000000" stroke-width="13" />
						<path d="M7667 1440 L11388 1440" stroke="#000000" stroke-width="13" />
						<g class="layer" id="layer-L22F2N1">
							<g class="beam" id="beam-L23F2-L26F2">
								<polygon points="8324,746 9483,766 9483,856 8324,836 " />
								<polygon points="9096,894 9483,901 9483,991 9096,984 " />
								<g class="note" id="note-L23F2">
									<use xlink:href="#E0A4" x="8116" y="1440" height="720px" width="720px" />
									<g class="stem">
										<rect x="8324" y="764" height="654" width="18" />
									</g>
									<g class="accid" id="accid-0000000405302204">
										<use xlink:href="#E260" x="7920" y="1440" height="720px" width="720px" />
									</g>
								</g>
								<g class="note" id="note-L25F2">
									<use xlink:href="#E0A4" x="8879" y="1530" height="720px" width="720px" />
									<g class="stem">
										<rect x="9087" y="777" height="731" width="18" />
									</g>
									<g class="accid" id="accid-0000000952860711" />
								</g>
								<g class="note" id="note-L26F2">
									<use xlink:href="#E0A4" x="9257" y="1440" height="720px" width="720px" />
									<g class="stem">
										<rect x="9465" y="784" height="634" width="18" />
									</g>
									<g class="accid" id="accid-0000000716110109" />
								</g>
							</g>
							<g class="beam" id="beam-L27F2-L29F2">
								<polygon points="10076,406 10849,482 10849,572 10076,496 " />
								<polygon points="10076,541 10462,579 10462,669 10076,631 " />
								<g class="note" id="note-L27F2">
									<use xlink:href="#E0A4" x="9868" y="1080" height="720px" width="720px" />
									<g class="stem">
										<rect x="10076" y="424" height="634" width="18" />
									</g>
									<g class="accid" id="accid-0000001370234934">
										<use xlink:href="#E260" x="9672" y="1080" height="720px" width="720px" />
									</g>
								</g>
								<g class="note" id="note-L28F2">
									<use xlink:href="#E0A4" x="10245" y="1260" height="720px" width="720px" />
									<g class="stem">
										<rect x="10453" y="462" height="776" width="18" />
									</g>
									<g class="accid" id="accid-0000000976798782" />
								</g>
								<g class="note" id="note-L29F2">
									<use xlink:href="#E0A4" x="10623" y="1350" height="720px" width="720px" />
									<g class="stem">
										<rect x="10831" y="500" height="828" width="18" />
									</g>
									<g class="accid" id="accid-0000000526603421" />
								</g>
							</g>
						</g>
					</g>
					<g class="staff" id="staff-L22F1N1">
						<path d="M7667 2224 L11388 2224" stroke="#000000" stroke-width="13" />
						<path d="M7667 2404 L11388 2404" stroke="#000000" stroke-width="13" />
						<path d="M7667 2584 L11388 2584" stroke="#000000" stroke-width="13" />
						<path d="M7667 2764 L11388 2764" stroke="#000000" stroke-width="13" />
						<path d="M7667 2944 L11388 2944" stroke="#000000" stroke-width="13" />
						<g class="layer" id="layer-L22F1N1">
							<g class="beam" id="beam-L23F1-L25F1">
								<polygon points="8116,3439 8897,3362 8897,3272 8116,3349 " />
								<polygon points="8116,3304 8511,3265 8511,3175 8116,3214 " />
								<g class="rest" id="rest-L23F1">
									<use xlink:href="#E4E7" x="8116" y="2584" height="720px" width="720px" />
								</g>
								<g class="note" id="note-L24F1">
									<use xlink:href="#E0A4" x="8502" y="2314" height="720px" width="720px" />
									<g class="stem">
										<rect x="8502" y="2336" height="1046" width="18" />
									</g>
									<g class="accid" id="accid-0000001245001080" />
								</g>
								<g class="note" id="note-L25F1">
									<use xlink:href="#E0A4" x="8879" y="2404" height="720px" width="720px" />
									<g class="stem">
										<rect x="8879" y="2426" height="918" width="18" />
									</g>
									<g class="accid" id="accid-0000000642211784" />
								</g>
							</g>
							<g class="beam" id="beam-L27F1-L30F1">
								<polygon points="9868,3237 10999,3349 10999,3259 9868,3147 " />
								<polygon points="9868,3102 10026,3117 10026,3027 9868,3012 " />
								<polygon points="10841,3199 10999,3214 10999,3124 10841,3109 " />
								<g class="note" id="note-L27F1">
									<use xlink:href="#E0A4" x="9868" y="2314" height="720px" width="720px" />
									<g class="stem">
										<rect x="9868" y="2336" height="883" width="18" />
									</g>
									<g class="accid" id="accid-0000002076116505" />
								</g>
								<g class="note" id="note-L28F1">
									<use xlink:href="#E0A4" x="10245" y="2584" height="720px" width="720px" />
									<g class="stem">
										<rect x="10245" y="2606" height="651" width="18" />
									</g>
									<g class="accid" id="accid-0000002137220261" />
								</g>
								<g class="note" id="note-L30F1">
									<use xlink:href="#E0A4" x="10981" y="2674" height="720px" width="720px" />
									<g class="stem">
										<rect x="10981" y="2696" height="635" width="18" />
									</g>
									<g class="accid" id="accid-0000001947124414" />
								</g>
							</g>
						</g>
					</g>
					<g class="mNum autogenerated" id="mnum-0000000613201464" />
					<g class="barLineAttr" id="bline-0000000200495959">
						<path d="M11375 2944 L11375 720" stroke="#000000" stroke-width="27" />
					</g>
				</g>
				<g class="measure" id="measure-L31">
					<g class="staff" id="staff-L31F2N1">
						<path d="M11388 720 L15354 720" stroke="#000000" stroke-width="13" />
						<path d="M11388 900 L15354 900" stroke="#000000" stroke-width="13" />
						<path d="M11388 1080 L15354 1080" stroke="#000000" stroke-width="13" />
						<path d="M11388 1260 L15354 1260" stroke="#000000" stroke-width="13" />
						<path d="M11388 1440 L15354 1440" stroke="#000000" stroke-width="13" />
						<g class="ledgerLines below">
							<path d="M11806 1620 L12085 1620" stroke="#000000" stroke-width="22" />
						</g>
						<g class="layer" id="layer-L31F2N1">
							<g class="beam" id="beam-L32F2-L35F2">
								<polygon points="12045,752 13429,615 13429,705 12045,842 " />
								<polygon points="12045,887 13429,750 13429,840 12045,977 " />
								<g class="note" id="note-L32F2">
									<use xlink:href="#E0A4" x="11837" y="1620" height="720px" width="720px" />
									<g class="stem">
										<rect x="12045" y="770" height="828" width="18" />
									</g>
									<g class="accid" id="accid-0000000969645988" />
								</g>
								<g class="note" id="note-L33F2">
									<use xlink:href="#E0A4" x="12215" y="1530" height="720px" width="720px" />
									<g class="stem">
										<rect x="12423" y="732" height="776" width="18" />
									</g>
									<g class="accid" id="accid-0000001166975076" />
								</g>
								<g class="note" id="note-L34F2">
									<use xlink:href="#E0A4" x="12592" y="1350" height="720px" width="720px" />
									<g class="stem">
										<rect x="12800" y="694" height="634" width="18" />
									</g>
									<g class="accid" id="accid-0000000676979884" />
								</g>
								<g class="note" id="note-L35F2">
									<use xlink:href="#E0A4" x="13203" y="1440" height="720px" width="720px" />
									<g class="stem">
										<rect x="13411" y="633" height="785" width="18" />
									</g>
									<g class="accid" id="accid-0000001199965024">
										<use xlink:href="#E260" x="13007" y="1440" height="720px" width="720px" />
									</g>
								</g>
							</g>
							<g class="beam" id="beam-L36F2-L39F2">
								<polygon points="13789,633 15173,496 15173,586 13789,723 " />
								<polygon points="14552,692 15173,631 15173,721 14552,782 " />
								<g class="note" id="note-L36F2">
									<use xlink:href="#E0A4" x="13581" y="1530" height="720px" width="720px" />
									<g class="stem">
										<rect x="13789" y="651" height="857" width="18" />
									</g>
									<g class="accid" id="accid-0000001250459926" />
								</g>
								<g class="note" id="note-L38F2">
									<use xlink:href="#E0A4" x="14335" y="1260" height="720px" width="720px" />
									<g class="stem">
										<rect x="14543" y="575" height="663" width="18" />
									</g>
									<g class="accid" id="accid-0000001777487970" />
								</g>
								<g class="note" id="note-L39F2">
									<use xlink:href="#E0A4" x="14947" y="1170" height="720px" width="720px" />
									<g class="stem">
										<rect x="15155" y="514" height="634" width="18" />
									</g>
									<g class="accid" id="accid-0000000053443638">
										<use xlink:href="#E260" x="14751" y="1170" height="720px" width="720px" />
									</g>
								</g>
							</g>
						</g>
					</g>
					<g class="staff" id="staff-L31F1N1">
						<path d="M11388 2224 L15354 2224" stroke="#000000" stroke-width="13" />
						<path d="M11388 2404 L15354 2404" stroke="#000000" stroke-width="13" />
						<path d="M11388 2584 L15354 2584" stroke="#000000" stroke-width="13" />
						<path d="M11388 2764 L15354 2764" stroke="#000000" stroke-width="13" />
						<path d="M11388 2944 L15354 2944" stroke="#000000" stroke-width="13" />
						<g class="layer" id="layer-L31F1N1">
							<g class="beam" id="beam-L32F1-L35F1">
								<polygon points="11837,3335 13221,3198 13221,3108 11837,3245 " />
								<polygon points="12601,3124 13221,3063 13221,2973 12601,3034 " />
								<g class="note" id="note-L32F1">
									<use xlink:href="#E0A4" x="11837" y="2494" height="720px" width="720px" />
									<g class="stem">
										<rect x="11837" y="2516" height="801" width="18" />
									</g>
									<g class="accid" id="accid-0000000804267047">
										<use xlink:href="#E260" x="11641" y="2494" height="720px" width="720px" />
									</g>
								</g>
								<g class="note" id="note-L34F1">
									<use xlink:href="#E0A4" x="12592" y="2584" height="720px" width="720px" />
									<g class="stem">
										<rect x="12592" y="2606" height="635" width="18" />
									</g>
									<g class="accid" id="accid-0000000942350027" />
								</g>
								<g class="note" id="note-L35F1">
									<use xlink:href="#E0A4" x="13203" y="2314" height="720px" width="720px" />
									<g class="stem">
										<rect x="13203" y="2336" height="844" width="18" />
									</g>
									<g class="accid" id="accid-0000000447176937" />
								</g>
							</g>
							<g class="beam" id="beam-L36F1-L38F1">
								<polygon points="13581,3273 14353,3349 14353,3259 13581,3183 " />
								<polygon points="13581,3138 13967,3176 13967,3086 13581,3048 " />
								<g class="note" id="note-L36F1">
									<use xlink:href="#E0A4" x="13581" y="2314" height="720px" width="720px" />
									<g class="stem">
										<rect x="13581" y="2336" height="919" width="18" />
									</g>
									<g class="accid" id="accid-0000001202747770" />
								</g>
								<g class="note" id="note-L37F1">
									<use xlink:href="#E0A4" x="13958" y="2494" height="720px" width="720px" />
									<g class="stem">
										<rect x="13958" y="2516" height="777" width="18" />
									</g>
									<g class="accid" id="accid-0000000772934423" />
								</g>
								<g class="note" id="note-L38F1">
									<use xlink:href="#E0A4" x="14335" y="2674" height="720px" width="720px" />
									<g class="stem">
										<rect x="14335" y="2696" height="635" width="18" />
									</g>
									<g class="accid" id="accid-0000000818479979" />
								</g>
							</g>
						</g>
					</g>
					<g class="tie" id="tie-L35F1-L36F1">
						<path d="M13316,2179 C13410,2037 13598,2037 13694,2179 C13598,2081 13410,2081 13316,2179" stroke="#000000" stroke-linecap="round" stroke-linejoin="round" stroke-width="9" />
					</g>
					<g class="mNum autogenerated" id="mnum-0000000559873428" />
					<g class="barLineAttr" id="bline-0000000315507570">
						<path d="M15341 2944 L15341 720" stroke="#000000" stroke-width="27" />
					</g>
				</g>
				<g class="measure" id="measure-L40">
					<g class="staff" id="staff-L40F2N1">
						<path d="M15354 720 L20004 720" stroke="#000000" stroke-width="13" />
						<path d="M15354 900 L20004 900" stroke="#000000" stroke-width="13" />
						<path d="M15354 1080 L20004 1080" stroke="#000000" stroke-width="13" />
						<path d="M15354 1260 L20004 1260" stroke="#000000" stroke-width="13" />
						<path d="M15354 1440 L20004 1440" stroke="#000000" stroke-width="13" />
						<g class="ledgerLines below">
							<path d="M17000 1620 L17279 1620" stroke="#000000" stroke-width="22" />
						</g>
						<g class="layer" id="layer-L40F2N1">
							<g class="beam" id="beam-L41F2-L44F2">
								<polygon points="16010,826 17634,856 17634,946 16010,916 " />
								<polygon points="17248,984 17634,991 17634,1081 17248,1074 " />
								<g class="note" id="note-L41F2">
									<use xlink:href="#E0A4" x="15802" y="1530" height="720px" width="720px" />
									<g class="stem">
										<rect x="16010" y="844" height="664" width="18" />
									</g>
									<g class="accid" id="accid-0000001994043054">
										<use xlink:href="#E262" x="15607" y="1530" height="720px" width="720px" />
									</g>
								</g>
								<g class="note" id="note-L43F2">
									<use xlink:href="#E0A4" x="17031" y="1620" height="720px" width="720px" />
									<g class="stem">
										<rect x="17239" y="867" height="731" width="18" />
									</g>
									<g class="accid" id="accid-0000001686642682">
										<use xlink:href="#E262" x="16836" y="1620" height="720px" width="720px" />
									</g>
								</g>
								<g class="note" id="note-L44F2">
									<use xlink:href="#E0A4" x="17408" y="1530" height="720px" width="720px" />
									<g class="stem">
										<rect x="17616" y="874" height="634" width="18" />
									</g>
									<g class="accid" id="accid-0000001671038009" />
								</g>
							</g>
							<g class="beam" id="beam-L45F2-L47F2">
								<polygon points="18226,496 19465,618 19465,708 18226,586 " />
								<polygon points="18226,631 18845,692 18845,782 18226,721 " />
								<g class="note" id="note-L45F2">
									<use xlink:href="#E0A4" x="18018" y="1170" height="720px" width="720px" />
									<g class="stem">
										<rect x="18226" y="514" height="634" width="18" />
									</g>
									<g class="accid" id="accid-0000000409292846">
										<use xlink:href="#E262" x="17823" y="1170" height="720px" width="720px" />
									</g>
								</g>
								<g class="note" id="note-L46F2">
									<use xlink:href="#E0A4" x="18628" y="1350" height="720px" width="720px" />
									<g class="stem">
										<rect x="18836" y="575" height="753" width="18" />
									</g>
									<g class="accid" id="accid-0000001429497329">
										<use xlink:href="#E262" x="18433" y="1350" height="720px" width="720px" />
									</g>
								</g>
								<g class="note" id="note-L47F2">
									<use xlink:href="#E0A4" x="19239" y="1440" height="720px" width="720px" />
									<g class="stem">
										<rect x="19447" y="636" height="782" width="18" />
									</g>
									<g class="accid" id="accid-0000001746385269">
										<use xlink:href="#E262" x="19044" y="1440" height="720px" width="720px" />
									</g>
								</g>
							</g>
						</g>
					</g>
					<g class="staff" id="staff-L40F1N1">
						<path d="M15354 2224 L20004 2224" stroke="#000000" stroke-width="13" />
						<path d="M15354 2404 L20004 2404" stroke="#000000" stroke-width="13" />
						<path d="M15354 2584 L20004 2584" stroke="#000000" stroke-width="13" />
						<path d="M15354 2764 L20004 2764" stroke="#000000" stroke-width="13" />
						<path d="M15354 2944 L20004 2944" stroke="#000000" stroke-width="13" />
						<g class="layer" id="layer-L40F1N1">
							<g class="beam" id="beam-L41F1-L43F1">
								<polygon points="15802,3439 17049,3316 17049,3226 15802,3349 " />
								<polygon points="15802,3304 16430,3242 16430,3152 15802,3214 " />
								<g class="rest" id="rest-L41F1">
									<use xlink:href="#E4E7" x="15802" y="2584" height="720px" width="720px" />
								</g>
								<g class="note" id="note-L42F1">
									<use xlink:href="#E0A4" x="16421" y="2404" height="720px" width="720px" />
									<g class="stem">
										<rect x="16421" y="2426" height="933" width="18" />
									</g>
									<g class="accid" id="accid-0000001107249409">
										<use xlink:href="#E262" x="16226" y="2404" height="720px" width="720px" />
									</g>
								</g>
								<g class="note" id="note-L43F1">
									<use xlink:href="#E0A4" x="17031" y="2494" height="720px" width="720px" />
									<g class="stem">
										<rect x="17031" y="2516" height="782" width="18" />
									</g>
									<g class="accid" id="accid-0000000392319555">
										<use xlink:href="#E262" x="16836" y="2494" height="720px" width="720px" />
									</g>
								</g>
							</g>
							<g class="beam" id="beam-L45F1-L48F1">
								<polygon points="18226,1730 19823,1888 19823,1978 18226,1820 " />
								<polygon points="18226,1865 18384,1880 18384,1970 18226,1955 " />
								<polygon points="19665,2008 19823,2023 19823,2113 19665,2098 " />
								<g class="note" id="note-L45F1">
									<use xlink:href="#E0A4" x="18018" y="2404" height="720px" width="720px" />
									<g class="stem">
										<rect x="18226" y="1748" height="634" width="18" />
									</g>
									<g class="accid" id="accid-0000001630341794" />
								</g>
								<g class="note" id="note-L46F1">
									<use xlink:href="#E0A4" x="18628" y="2674" height="720px" width="720px" />
									<g class="stem">
										<rect x="18836" y="1809" height="843" width="18" />
									</g>
									<g class="accid" id="accid-0000001074002915">
										<use xlink:href="#E262" x="18433" y="2674" height="720px" width="720px" />
									</g>
								</g>
								<g class="note" id="note-L48F1">
									<use xlink:href="#E0A4" x="19597" y="2764" height="720px" width="720px" />
									<g class="stem">
										<rect x="19805" y="1906" height="836" width="18" />
									</g>
									<g class="accid" id="accid-0000001929327186" />
								</g>
							</g>
						</g>
					</g>
					<g class="mNum autogenerated" id="mnum-0000000771488308" />
					<g class="barLineAttr" id="bline-0000001806243724">
						<path d="M19991 2944 L19991 720" stroke="#000000" stroke-width="27" />
					</g>
				</g>
			</g>
		</g>
	</svg>
</svg>
