<?xml version="1.0" encoding="UTF-8" standalone="no"?>
<svg width="2100.00px" height="450.00px" version="1.1" xmlns="http://www.w3.org/2000/svg" xmlns:xlink="http://www.w3.org/1999/xlink" overflow="visible">
	<desc>Engraved by Verovio 2.0.0-dev-0f0381c</desc>
	<defs>
		<symbol id="E050" viewBox="0 0 1000 1000" overflow="inherit">
			<path transform="scale(1,-1)" d="M441 -245c-23 -4 -48 -6 -76 -6c-59 0 -102 7 -130 20c-88 42 -150 93 -187 154c-26 44 -43 103 -48 176c-4 60 11 123 44 189c29 57 65 106 110 148s96 85 153 127c-3 16 -8 46 -13 92c-4 43 -5 73 -5 89c0 117 16 172 69 257c34 54 64 82 89 82c21 0 43 -30 69 -92 s39 -115 41 -159c2 -120 -19 -173 -67 -256c-13 -20 -63 -90 -98 -118c-13 -9 -25 -19 -37 -29l31 -181c8 1 18 2 28 2c58 0 102 -12 133 -35c59 -43 92 -104 98 -184c11 -135 -80 -229 -180 -270c8 -57 17 -110 25 -162c5 -31 6 -58 6 -80c0 -30 -5 -53 -14 -70 c-35 -64 -88 -99 -158 -103c-42 -3 -83 6 -124 26c-50 24 -77 59 -80 105c-2 34 5 63 20 87c18 28 45 42 79 44c51 4 99 -40 103 -87c4 -56 -30 -94 -105 -115c17 -24 51 -36 102 -36c62 0 116 43 140 85c9 16 13 41 13 74c0 20 -1 42 -5 67c-8 53 -18 106 -26 159zM461 939 c-95 0 -135 -175 -135 -286c0 -24 2 -48 5 -71c50 39 92 82 127 128c43 57 63 106 60 148c-4 54 -23 82 -57 81zM406 119l54 -326c80 27 116 88 109 184c-7 99 -62 146 -163 142zM382 117c-74 -2 -132 -50 -128 -127c2 -46 43 -99 75 -115c-3 -2 -7 -5 -10 -10 c-70 33 -116 88 -123 172c-5 73 42 135 88 170c23 17 49 29 78 36l-29 170c-21 -13 -52 -37 -92 -73c-50 -44 -86 -84 -109 -119c-49 -75 -71 -140 -67 -195c5 -68 35 -127 93 -176s125 -73 203 -73c25 0 50 3 75 9c-19 111 -36 221 -54 331z" />
		</symbol>
		<symbol id="E082" viewBox="0 0 1000 1000" overflow="inherit">
			<path transform="scale(1,-1)" d="M104 -185c-18 0 -55 -14 -65 -65h-36l-3 29c0 25 6 46 18 64c11 19 22 30 39 43l121 82l37 29c15 11 27 29 38 54c12 24 18 47 18 70c0 40 -19 88 -94 88c-25 0 -32 0 -50 -8c-14 -5 -23 -12 -26 -22c3 -9 7 -15 10 -18l24 -17c12 -7 17 -11 27 -21c5 -7 7 -16 7 -27 c0 -12 0 -57 -79 -74c-30 0 -76 26 -76 94c0 66 80 135 196 135c72 0 182 -32 182 -150c0 -53 -32 -95 -113 -133l-91 -41c-26 -11 -45 -23 -57 -37l49 7c84 0 115 -41 148 -41c20 0 33 20 39 61h35c0 -152 -68 -168 -114 -168c-17 0 -55 0 -69 7v0l-28 17 c-49 37 -69 40 -87 42z" />
		</symbol>
		<symbol id="E084" viewBox="0 0 1000 1000" overflow="inherit">
			<path transform="scale(1,-1)" d="M0 -78c84 97 114 180 134 329h170c-13 -32 -82 -132 -99 -151l-84 -97c-33 -36 -59 -63 -80 -81h162v102l127 123v-225h57v-39h-57v-34c0 -43 19 -65 57 -65v-34h-244v36c48 0 60 26 60 70v27h-203v39z" />
		</symbol>
		<symbol id="E0A4" viewBox="0 0 1000 1000" overflow="inherit">
			<path transform="scale(1,-1)" d="M0 -39c0 68 73 172 200 172c66 0 114 -37 114 -95c0 -84 -106 -171 -218 -171c-64 0 -96 30 -96 94z" />
		</symbol>
		<symbol id="E062" viewBox="0 0 1000 1000" overflow="inherit">
			<path transform="scale(1,-1)" d="M158 96c51 0 73 -14 88 -49l16 -39c0 -17 -2 -30 -7 -40c-3 -11 -10 -21 -19 -31c-17 -18 -49 -43 -84 -43c-55 0 -77 13 -112 44c-24 21 -35 55 -35 100c0 46 14 81 32 112c30 52 71 79 137 93l36 6l26 2c154 0 235 -68 274 -182c11 -32 18 -68 18 -107 c0 -103 -26 -182 -68 -250c-89 -145 -234 -230 -412 -288l-30 -5c-9 0 -14 3 -14 8c3 10 5 11 10 16c35 15 70 30 96 44l78 43c96 57 162 136 197 258c9 33 17 60 22 100c3 22 5 35 6 39c-7 69 -16 115 -23 140s-4 22 -16 40c-8 12 -19 23 -31 34c-24 21 -62 44 -118 44 c-48 0 -84 -8 -113 -28c-28 -19 -42 -44 -42 -73v-16c2 -5 3 -9 4 -11c24 22 52 39 84 39zM585 -118c0 32 23 58 57 58c18 0 33 -6 40 -18c9 -15 16 -18 16 -40c0 -9 -2 -16 -5 -21c-6 -19 -27 -37 -51 -37c-34 0 -57 26 -57 58zM642 177c31 0 56 -27 56 -58 c0 -30 -25 -58 -56 -58l-23 3c-19 7 -34 32 -34 55l3 23c9 20 28 35 54 35z" />
		</symbol>
		<symbol id="E4E6" viewBox="0 0 1000 1000" overflow="inherit">
			<path transform="scale(1,-1)" d="M0 123c7 34 33 56 69 60c29 -3 43 -9 53 -29c4 -8 7 -15 10 -22c0 -21 -1 -25 -11 -35c-5 -8 -18 -14 -40 -20l12 -3l15 -1c44 0 97 26 122 56c10 11 18 26 24 42c7 1 15 2 22 3l-140 -424h-36l111 330c-10 -6 -27 -12 -53 -16l-52 -8h-10l-20 1c-1 0 -8 3 -21 6 c-37 9 -55 28 -55 60z" />
		</symbol>
		<symbol id="E260" viewBox="0 0 1000 1000" overflow="inherit">
			<path transform="scale(1,-1)" d="M20 110c32 16 54 27 93 27c26 0 35 -3 54 -13c13 -7 24 -20 27 -38l4 -25c0 -28 -16 -57 -45 -89c-23 -25 -39 -44 -65 -68l-88 -79v644h20v-359zM90 106c-32 0 -48 -10 -70 -29v-194c31 31 54 59 71 84c21 32 32 59 32 84c0 9 1 16 1 20c0 14 -3 21 -11 30l-8 3z" />
		</symbol>
		<symbol id="E262" viewBox="0 0 1000 1000" overflow="inherit">
			<path transform="scale(1,-1)" d="M136 186v169h17v-164l44 14v-91l-44 -14v-165l44 12v-91l-44 -13v-155h-17v150l-76 -22v-155h-17v149l-43 -13v90l43 14v167l-43 -14v92l43 13v169h17v-163zM60 73v-167l76 22v168z" />
		</symbol>
	</defs>
	<style type="text/css">g.page-margin{font-family:Times;} g.tempo{font-weight:bold;} g.dir, g.dynam, g.mNum{font-style:italic;} g.label{font-weight:normal;}</style>
	<svg class="definition-scale" viewBox="0 0 21000 4500">
		<g class="page-margin" transform="translate(500, 500)">
			<g class="system" id="system-0000000659096417">
				<path d="M13 720 L13 2880" stroke="#000000" stroke-width="27" />
				<path d="M-32,2862 C-392,2322 58,1980 -212,1800 C121,1980 -329,2322 -32,2862" stroke="#000000" stroke-linecap="round" stroke-linejoin="round" stroke-width="18" />
				<path d="M-32,738 C-329,1278 121,1620 -212,1800 C58,1620 -392,1278 -32,738" stroke="#000000" stroke-linecap="round" stroke-linejoin="round" stroke-width="18" />
				<g class="section boundaryStart" id="section-L1F1" />
				<g class="measure" id="measure-L4">
					<g class="staff" id="staff-L4F2N1">
						<path d="M0 720 L4475 720" stroke="#000000" stroke-width="13" />
						<path d="M0 900 L4475 900" stroke="#000000" stroke-width="13" />
						<path d="M0 1080 L4475 1080" stroke="#000000" stroke-width="13" />
						<path d="M0 1260 L4475 1260" stroke="#000000" stroke-width="13" />
						<path d="M0 1440 L4475 1440" stroke="#000000" stroke-width="13" />
						<g class="clef" id="clef-0000001528013516">
							<use xlink:href="#E050" x="90" y="1260" height="720px" width="720px" />
						</g>
						<g class="meterSig" id="msig-0000001713712586">
							<use xlink:href="#E082" x="771" y="900" height="720px" width="720px" />
							<use xlink:href="#E084" x="777" y="1260" height="720px" width="720px" />
						</g>
						<g class="layer" id="layer-L4F2N1">
							<g class="beam" id="beam-L5F2-L8F2">
								<polygon points="1579,604 2757,577 2757,667 1579,694 " />
								<polygon points="1579,739 2757,712 2757,802 1579,829 " />
								<g class="note" id="note-L5F2">
									<use xlink:href="#E0A4" x="1371" y="1440" height="720px" width="720px" />
									<g class="stem">
										<rect x="1579" y="622" height="796" width="18" />
									</g>
									<g class="accid" id="accid-0000000110913588" />
								</g>
								<g class="note" id="note-L6F2">
									<use xlink:href="#E0A4" x="1758" y="1350" height="720px" width="720px" />
									<g class="stem">
										<rect x="1966" y="613" height="715" width="18" />
									</g>
									<g class="accid" id="accid-0000000087064196" />
								</g>
								<g class="note" id="note-L7F2">
									<use xlink:href="#E0A4" x="2144" y="1260" height="720px" width="720px" />
									<g class="stem">
										<rect x="2352" y="604" height="634" width="18" />
									</g>
									<g class="accid" id="accid-0000001649918347" />
								</g>
								<g class="note" id="note-L8F2">
									<use xlink:href="#E0A4" x="2531" y="1440" height="720px" width="720px" />
									<g class="stem">
										<rect x="2739" y="595" height="823" width="18" />
									</g>
									<g class="accid" id="accid-0000002107130380" />
								</g>
							</g>
							<g class="beam" id="beam-L9F2-L12F2">
								<polygon points="3126,662 4284,548 4284,638 3126,752 " />
								<polygon points="3889,721 4284,683 4284,773 3889,811 " />
								<g class="note" id="note-L9F2">
									<use xlink:href="#E0A4" x="2918" y="1530" height="720px" width="720px" />
									<g class="stem">
										<rect x="3126" y="680" height="828" width="18" />
									</g>
									<g class="accid" id="accid-0000001474983677" />
								</g>
								<g class="note" id="note-L11F2">
									<use xlink:href="#E0A4" x="3672" y="1260" height="720px" width="720px" />
									<g class="stem">
										<rect x="3880" y="604" height="634" width="18" />
									</g>
									<g class="accid" id="accid-0000000901630343" />
								</g>
								<g class="note" id="note-L12F2">
									<use xlink:href="#E0A4" x="4058" y="1440" height="720px" width="720px" />
									<g class="stem">
										<rect x="4266" y="566" height="852" width="18" />
									</g>
									<g class="accid" id="accid-0000000088013140" />
								</g>
							</g>
						</g>
					</g>
					<g class="staff" id="staff-L4F1N1">
						<path d="M0 2160 L4475 2160" stroke="#000000" stroke-width="13" />
						<path d="M0 2340 L4475 2340" stroke="#000000" stroke-width="13" />
						<path d="M0 2520 L4475 2520" stroke="#000000" stroke-width="13" />
						<path d="M0 2700 L4475 2700" stroke="#000000" stroke-width="13" />
						<path d="M0 2880 L4475 2880" stroke="#000000" stroke-width="13" />
						<g class="clef" id="clef-0000000316759338">
							<use xlink:href="#E062" x="90" y="2340" height="720px" width="720px" />
						</g>
						<g class="meterSig" id="msig-0000000162232853">
							<use xlink:href="#E082" x="771" y="2340" height="720px" width="720px" />
							<use xlink:href="#E084" x="777" y="2700" height="720px" width="720px" />
						</g>
						<g class="ledgerLines above">
							<path d="M3273 1980 L3552 1980" stroke="#000000" stroke-width="22" />
						</g>
						<g class="layer" id="layer-L4F1N1">
							<g class="beam" id="beam-L5F1-L8F1">
								<polygon points="1371,3375 2549,3259 2549,3169 1371,3285 " />
								<polygon points="2153,3162 2549,3124 2549,3034 2153,3072 " />
								<g class="rest" id="rest-L5F1">
									<use xlink:href="#E4E6" x="1371" y="2520" height="720px" width="720px" />
								</g>
								<g class="note" id="note-L7F1">
									<use xlink:href="#E0A4" x="2144" y="2430" height="720px" width="720px" />
									<g class="stem">
										<rect x="2144" y="2452" height="827" width="18" />
									</g>
									<g class="accid" id="accid-0000001117937685" />
								</g>
								<g class="note" id="note-L8F1">
									<use xlink:href="#E0A4" x="2531" y="2250" height="720px" width="720px" />
									<g class="stem">
										<rect x="2531" y="2272" height="969" width="18" />
									</g>
									<g class="accid" id="accid-0000000787679215" />
								</g>
							</g>
							<g class="beam" id="beam-L9F1-L10F1">
								<polygon points="2918,2745 3322,2706 3322,2616 2918,2655 " />
								<polygon points="2918,2610 3076,2595 3076,2505 2918,2520 " />
								<g class="note" id="note-L9F1">
									<use xlink:href="#E0A4" x="2918" y="2070" height="720px" width="720px" />
									<g class="stem">
										<rect x="2918" y="2092" height="635" width="18" />
									</g>
									<g class="accid" id="accid-0000000078180966" />
								</g>
								<g class="note" id="note-L10F1">
									<use xlink:href="#E0A4" x="3304" y="1980" height="720px" width="720px" />
									<g class="dots" id="dots-0000000956055088">
										<ellipse cx="3620" cy="1890" rx="36" ry="36" />
									</g>
									<g class="stem">
										<rect x="3304" y="2002" height="686" width="18" />
									</g>
									<g class="accid" id="accid-0000000735590637" />
								</g>
							</g>
						</g>
					</g>
					<g class="mNum autogenerated" id="mnum-0000000665216392" />
					<g class="barLineAttr" id="bline-0000000306758758">
						<path d="M4462 2880 L4462 720" stroke="#000000" stroke-width="27" />
					</g>
				</g>
				<g class="measure" id="measure-L13">
					<g class="staff" id="staff-L13F2N1">
						<path d="M4475 720 L7597 720" stroke="#000000" stroke-width="13" />
						<path d="M4475 900 L7597 900" stroke="#000000" stroke-width="13" />
						<path d="M4475 1080 L7597 1080" stroke="#000000" stroke-width="13" />
						<path d="M4475 1260 L7597 1260" stroke="#000000" stroke-width="13" />
						<path d="M4475 1440 L7597 1440" stroke="#000000" stroke-width="13" />
						<g class="ledgerLines below">
							<path d="M4665 1620 L4944 1620" stroke="#000000" stroke-width="22" />
							<path d="M5438 1620 L5717 1620" stroke="#000000" stroke-width="22" />
						</g>
						<g class="layer" id="layer-L13F2N1">
							<g class="beam" id="beam-L14F2-L17F2">
								<polygon points="4904,702 6082,586 6082,676 4904,792 " />
								<polygon points="4904,837 6082,721 6082,811 4904,927 " />
								<g class="note" id="note-L14F2">
									<use xlink:href="#E0A4" x="4696" y="1620" height="720px" width="720px" />
									<g class="stem">
										<rect x="4904" y="720" height="878" width="18" />
									</g>
									<g class="accid" id="accid-0000001729432514" />
								</g>
								<g class="note" id="note-L15F2">
									<use xlink:href="#E0A4" x="5083" y="1530" height="720px" width="720px" />
									<g class="stem">
										<rect x="5291" y="681" height="827" width="18" />
									</g>
									<g class="accid" id="accid-0000001362439617" />
								</g>
								<g class="note" id="note-L16F2">
									<use xlink:href="#E0A4" x="5469" y="1620" height="720px" width="720px" />
									<g class="stem">
										<rect x="5677" y="642" height="956" width="18" />
									</g>
									<g class="accid" id="accid-0000001500667062" />
								</g>
								<g class="note" id="note-L17F2">
									<use xlink:href="#E0A4" x="5856" y="1260" height="720px" width="720px" />
									<g class="stem">
										<rect x="6064" y="604" height="634" width="18" />
									</g>
									<g class="accid" id="accid-0000000160596816" />
								</g>
							</g>
							<g class="beam" id="beam-L18F2-L20F2">
								<polygon points="6451,478 7406,405 7406,495 6451,568 " />
								<polygon points="7010,570 7406,540 7406,630 7010,660 " />
								<g class="note" id="note-L18F2">
									<use xlink:href="#E0A4" x="6243" y="1170" height="720px" width="720px" />
									<g class="stem">
										<rect x="6451" y="496" height="652" width="18" />
									</g>
									<g class="accid" id="accid-0000001926671792" />
								</g>
								<g class="note" id="note-L19F2">
									<use xlink:href="#E0A4" x="6793" y="1260" height="720px" width="720px" />
									<g class="stem">
										<rect x="7001" y="453" height="785" width="18" />
									</g>
									<g class="accid" id="accid-0000002142137393" />
								</g>
								<g class="note" id="note-L20F2">
									<use xlink:href="#E0A4" x="7180" y="1080" height="720px" width="720px" />
									<g class="stem">
										<rect x="7388" y="423" height="635" width="18" />
									</g>
									<g class="accid" id="accid-0000001232630799" />
								</g>
							</g>
						</g>
					</g>
					<g class="staff" id="staff-L13F1N1">
						<path d="M4475 2160 L7597 2160" stroke="#000000" stroke-width="13" />
						<path d="M4475 2340 L7597 2340" stroke="#000000" stroke-width="13" />
						<path d="M4475 2520 L7597 2520" stroke="#000000" stroke-width="13" />
						<path d="M4475 2700 L7597 2700" stroke="#000000" stroke-width="13" />
						<path d="M4475 2880 L7597 2880" stroke="#000000" stroke-width="13" />
						<g class="layer" id="layer-L13F1N1">
							<g class="beam" id="beam-L14F1-L17F1">
								<polygon points="4696,2989 5874,3105 5874,3015 4696,2899 " />
								<polygon points="4696,2854 5874,2970 5874,2880 4696,2764 " />
								<g class="note" id="note-L14F1">
									<use xlink:href="#E0A4" x="4696" y="2250" height="720px" width="720px" />
									<g class="stem">
										<rect x="4696" y="2272" height="699" width="18" />
									</g>
									<g class="accid" id="accid-0000001143287735" />
								</g>
								<g class="note" id="note-L15F1">
									<use xlink:href="#E0A4" x="5083" y="2160" height="720px" width="720px" />
									<g class="stem">
										<rect x="5083" y="2182" height="828" width="18" />
									</g>
									<g class="accid" id="accid-0000001874990282" />
								</g>
								<g class="note" id="note-L16F1">
									<use xlink:href="#E0A4" x="5469" y="2250" height="720px" width="720px" />
									<g class="stem">
										<rect x="5469" y="2272" height="777" width="18" />
									</g>
									<g class="accid" id="accid-0000001039836340" />
								</g>
								<g class="note" id="note-L17F1">
									<use xlink:href="#E0A4" x="5856" y="2430" height="720px" width="720px" />
									<g class="stem">
										<rect x="5856" y="2452" height="635" width="18" />
									</g>
									<g class="accid" id="accid-0000000417654176" />
								</g>
							</g>
							<g class="beam" id="beam-L18F1-L20F1">
								<polygon points="6243,3189 7198,3199 7198,3109 6243,3099 " />
								<polygon points="6802,3060 7198,3064 7198,2974 6802,2970 " />
								<g class="note" id="note-L18F1">
									<use xlink:href="#E0A4" x="6243" y="2430" height="720px" width="720px" />
									<g class="stem">
										<rect x="6243" y="2452" height="719" width="18" />
									</g>
									<g class="accid" id="accid-0000000477989302" />
								</g>
								<g class="note" id="note-L19F1">
									<use xlink:href="#E0A4" x="6793" y="2520" height="720px" width="720px" />
									<g class="stem">
										<rect x="6793" y="2542" height="635" width="18" />
									</g>
									<g class="accid" id="accid-0000001162166413" />
								</g>
								<g class="note" id="note-L20F1">
									<use xlink:href="#E0A4" x="7180" y="2430" height="720px" width="720px" />
									<g class="stem">
										<rect x="7180" y="2452" height="729" width="18" />
									</g>
									<g class="accid" id="accid-0000000902581884" />
								</g>
							</g>
						</g>
					</g>
					<g class="tie" id="tie-L17F1-L18F1">
						<path d="M5969,2295 C6065,2153 6257,2153 6356,2295 C6257,2197 6065,2197 5969,2295" stroke="#000000" stroke-linecap="round" stroke-linejoin="round" stroke-width="9" />
					</g>
					<g class="mNum autogenerated" id="mnum-0000001804439084" />
					<g class="barLineAttr" id="bline-0000001892285426">
						<path d="M7584 2880 L7584 720" stroke="#000000" stroke-width="27" />
					</g>
				</g>
				<g class="measure" id="measure-L21">
					<g class="staff" id="staff-L21F2N1">
						<path d="M7597 720 L11642 720" stroke="#000000" stroke-width="13" />
						<path d="M7597 900 L11642 900" stroke="#000000" stroke-width="13" />
						<path d="M7597 1080 L11642 1080" stroke="#000000" stroke-width="13" />
						<path d="M7597 1260 L11642 1260" stroke="#000000" stroke-width="13" />
						<path d="M7597 1440 L11642 1440" stroke="#000000" stroke-width="13" />
						<g class="layer" id="layer-L21F2N1">
							<g class="beam" id="beam-L22F2-L25F2">
								<polygon points="8266,362 9684,406 9684,496 8266,452 " />
								<polygon points="8266,497 9684,541 9684,631 8266,587 " />
								<g class="note" id="note-L22F2">
									<use xlink:href="#E0A4" x="8058" y="1080" height="720px" width="720px" />
									<g class="stem">
										<rect x="8266" y="380" height="678" width="18" />
									</g>
									<g class="accid" id="accid-0000000601742067">
										<use xlink:href="#E260" x="7862" y="1080" height="720px" width="720px" />
									</g>
								</g>
								<g class="note" id="note-L23F2">
									<use xlink:href="#E0A4" x="8684" y="1170" height="720px" width="720px" />
									<g class="stem">
										<rect x="8892" y="400" height="748" width="18" />
									</g>
									<g class="accid" id="accid-0000001129312143">
										<use xlink:href="#E260" x="8488" y="1170" height="720px" width="720px" />
									</g>
								</g>
								<g class="note" id="note-L24F2">
									<use xlink:href="#E0A4" x="9071" y="1260" height="720px" width="720px" />
									<g class="stem">
										<rect x="9279" y="412" height="826" width="18" />
									</g>
									<g class="accid" id="accid-0000000887853620" />
								</g>
								<g class="note" id="note-L25F2">
									<use xlink:href="#E0A4" x="9458" y="1080" height="720px" width="720px" />
									<g class="stem">
										<rect x="9666" y="424" height="634" width="18" />
									</g>
									<g class="accid" id="accid-0000000793931633" />
								</g>
							</g>
							<g class="beam" id="beam-L26F2-L29F2">
								<polygon points="10292,520 11451,406 11451,496 10292,610 " />
								<polygon points="11055,579 11451,541 11451,631 11055,669 " />
								<g class="note" id="note-L26F2">
									<use xlink:href="#E0A4" x="10084" y="1350" height="720px" width="720px" />
									<g class="stem">
										<rect x="10292" y="538" height="790" width="18" />
									</g>
									<g class="accid" id="accid-0000000759766560" />
								</g>
								<g class="note" id="note-L28F2">
									<use xlink:href="#E0A4" x="10838" y="1260" height="720px" width="720px" />
									<g class="stem">
										<rect x="11046" y="462" height="776" width="18" />
									</g>
									<g class="accid" id="accid-0000001734183676" />
								</g>
								<g class="note" id="note-L29F2">
									<use xlink:href="#E0A4" x="11225" y="1080" height="720px" width="720px" />
									<g class="stem">
										<rect x="11433" y="424" height="634" width="18" />
									</g>
									<g class="accid" id="accid-0000002093850776" />
								</g>
							</g>
						</g>
					</g>
					<g class="staff" id="staff-L21F1N1">
						<path d="M7597 2160 L11642 2160" stroke="#000000" stroke-width="13" />
						<path d="M7597 2340 L11642 2340" stroke="#000000" stroke-width="13" />
						<path d="M7597 2520 L11642 2520" stroke="#000000" stroke-width="13" />
						<path d="M7597 2700 L11642 2700" stroke="#000000" stroke-width="13" />
						<path d="M7597 2880 L11642 2880" stroke="#000000" stroke-width="13" />
						<g class="ledgerLines above">
							<path d="M10440 1980 L10719 1980" stroke="#000000" stroke-width="22" />
						</g>
						<g class="layer" id="layer-L21F1N1">
							<g class="beam" id="beam-L22F1-L25F1">
								<polygon points="8058,3375 9476,3235 9476,3145 8058,3285 " />
								<polygon points="9080,3138 9476,3100 9476,3010 9080,3048 " />
								<g class="rest" id="rest-L22F1">
									<use xlink:href="#E4E6" x="8058" y="2520" height="720px" width="720px" />
								</g>
								<g class="note" id="note-L24F1">
									<use xlink:href="#E0A4" x="9071" y="2430" height="720px" width="720px" />
									<g class="stem">
										<rect x="9071" y="2452" height="803" width="18" />
									</g>
									<g class="accid" id="accid-0000000441094358">
										<use xlink:href="#E260" x="8875" y="2430" height="720px" width="720px" />
									</g>
								</g>
								<g class="note" id="note-L25F1">
									<use xlink:href="#E0A4" x="9458" y="2250" height="720px" width="720px" />
									<g class="stem">
										<rect x="9458" y="2272" height="945" width="18" />
									</g>
									<g class="accid" id="accid-0000000459024470" />
								</g>
							</g>
							<g class="beam" id="beam-L26F1-L27F1">
								<polygon points="10084,2745 10489,2706 10489,2616 10084,2655 " />
								<polygon points="10084,2610 10242,2595 10242,2505 10084,2520 " />
								<g class="note" id="note-L26F1">
									<use xlink:href="#E0A4" x="10084" y="2070" height="720px" width="720px" />
									<g class="stem">
										<rect x="10084" y="2092" height="635" width="18" />
									</g>
									<g class="accid" id="accid-0000001180588506">
										<use xlink:href="#E260" x="9888" y="2070" height="720px" width="720px" />
									</g>
								</g>
								<g class="note" id="note-L27F1">
									<use xlink:href="#E0A4" x="10471" y="1980" height="720px" width="720px" />
									<g class="dots" id="dots-0000001771412218">
										<ellipse cx="10787" cy="1890" rx="36" ry="36" />
									</g>
									<g class="stem">
										<rect x="10471" y="2002" height="686" width="18" />
									</g>
									<g class="accid" id="accid-0000001688963994" />
								</g>
							</g>
						</g>
					</g>
					<g class="mNum autogenerated" id="mnum-0000002036761441" />
					<g class="barLineAttr" id="bline-0000002103864278">
						<path d="M11629 2880 L11629 720" stroke="#000000" stroke-width="27" />
					</g>
				</g>
				<g class="measure" id="measure-L30">
					<g class="staff" id="staff-L30F2N1">
						<path d="M11642 720 L15484 720" stroke="#000000" stroke-width="13" />
						<path d="M11642 900 L15484 900" stroke="#000000" stroke-width="13" />
						<path d="M11642 1080 L15484 1080" stroke="#000000" stroke-width="13" />
						<path d="M11642 1260 L15484 1260" stroke="#000000" stroke-width="13" />
						<path d="M11642 1440 L15484 1440" stroke="#000000" stroke-width="13" />
						<g class="layer" id="layer-L30F2N1">
							<g class="beam" id="beam-L31F2-L34F2">
								<polygon points="12311,734 13969,583 13969,673 12311,824 " />
								<polygon points="12311,869 13969,718 13969,808 12311,959 " />
								<g class="note" id="note-L31F2">
									<use xlink:href="#E0A4" x="12103" y="1440" height="720px" width="720px" />
									<g class="stem">
										<rect x="12311" y="752" height="666" width="18" />
									</g>
									<g class="accid" id="accid-0000001884354045">
										<use xlink:href="#E260" x="11907" y="1440" height="720px" width="720px" />
									</g>
								</g>
								<g class="note" id="note-L32F2">
									<use xlink:href="#E0A4" x="12729" y="1350" height="720px" width="720px" />
									<g class="stem">
										<rect x="12937" y="694" height="634" width="18" />
									</g>
									<g class="accid" id="accid-0000000339148544" />
								</g>
								<g class="note" id="note-L33F2">
									<use xlink:href="#E0A4" x="13116" y="1440" height="720px" width="720px" />
									<g class="stem">
										<rect x="13324" y="659" height="759" width="18" />
									</g>
									<g class="accid" id="accid-0000000708101153" />
								</g>
								<g class="note" id="note-L34F2">
									<use xlink:href="#E0A4" x="13743" y="1260" height="720px" width="720px" />
									<g class="stem">
										<rect x="13951" y="601" height="637" width="18" />
									</g>
									<g class="accid" id="accid-0000000960452924" />
								</g>
							</g>
							<g class="beam" id="beam-L35F2-L37F2">
								<polygon points="14129,1879 15085,1973 15085,1883 14129,1789 " />
								<polygon points="14689,1800 15085,1838 15085,1748 14689,1710 " />
								<g class="note" id="note-L35F2">
									<use xlink:href="#E0A4" x="14129" y="900" height="720px" width="720px" />
									<g class="stem">
										<rect x="14129" y="922" height="939" width="18" />
									</g>
									<g class="accid" id="accid-0000000197958825" />
								</g>
								<g class="note" id="note-L36F2">
									<use xlink:href="#E0A4" x="14680" y="1260" height="720px" width="720px" />
									<g class="stem">
										<rect x="14680" y="1282" height="635" width="18" />
									</g>
									<g class="accid" id="accid-0000002112952370" />
								</g>
								<g class="note" id="note-L37F2">
									<use xlink:href="#E0A4" x="15067" y="990" height="720px" width="720px" />
									<g class="stem">
										<rect x="15067" y="1012" height="943" width="18" />
									</g>
									<g class="accid" id="accid-0000000433063723" />
								</g>
							</g>
						</g>
					</g>
					<g class="staff" id="staff-L30F1N1">
						<path d="M11642 2160 L15484 2160" stroke="#000000" stroke-width="13" />
						<path d="M11642 2340 L15484 2340" stroke="#000000" stroke-width="13" />
						<path d="M11642 2520 L15484 2520" stroke="#000000" stroke-width="13" />
						<path d="M11642 2700 L15484 2700" stroke="#000000" stroke-width="13" />
						<path d="M11642 2880 L15484 2880" stroke="#000000" stroke-width="13" />
						<g class="layer" id="layer-L30F1N1">
							<g class="beam" id="beam-L31F1-L34F1">
								<polygon points="12103,2941 13761,3105 13761,3015 12103,2851 " />
								<polygon points="12103,2806 13761,2970 13761,2880 12103,2716 " />
								<g class="note" id="note-L31F1">
									<use xlink:href="#E0A4" x="12103" y="2250" height="720px" width="720px" />
									<g class="stem">
										<rect x="12103" y="2272" height="651" width="18" />
									</g>
									<g class="accid" id="accid-0000000700377929" />
								</g>
								<g class="note" id="note-L32F1">
									<use xlink:href="#E0A4" x="12729" y="2160" height="720px" width="720px" />
									<g class="stem">
										<rect x="12729" y="2182" height="804" width="18" />
									</g>
									<g class="accid" id="accid-0000001385022860">
										<use xlink:href="#E260" x="12533" y="2160" height="720px" width="720px" />
									</g>
								</g>
								<g class="note" id="note-L33F1">
									<use xlink:href="#E0A4" x="13116" y="2250" height="720px" width="720px" />
									<g class="stem">
										<rect x="13116" y="2272" height="753" width="18" />
									</g>
									<g class="accid" id="accid-0000001142723719" />
								</g>
								<g class="note" id="note-L34F1">
									<use xlink:href="#E0A4" x="13743" y="2430" height="720px" width="720px" />
									<g class="stem">
										<rect x="13743" y="2452" height="635" width="18" />
									</g>
									<g class="accid" id="accid-0000000979237581">
										<use xlink:href="#E260" x="13547" y="2430" height="720px" width="720px" />
									</g>
								</g>
							</g>
							<g class="beam" id="beam-L35F1-L37F1">
								<polygon points="14129,3189 15085,3199 15085,3109 14129,3099 " />
								<polygon points="14689,3060 15085,3064 15085,2974 14689,2970 " />
								<g class="note" id="note-L35F1">
									<use xlink:href="#E0A4" x="14129" y="2430" height="720px" width="720px" />
									<g class="stem">
										<rect x="14129" y="2452" height="719" width="18" />
									</g>
									<g class="accid" id="accid-0000001926271244" />
								</g>
								<g class="note" id="note-L36F1">
									<use xlink:href="#E0A4" x="14680" y="2520" height="720px" width="720px" />
									<g class="stem">
										<rect x="14680" y="2542" height="635" width="18" />
									</g>
									<g class="accid" id="accid-0000001717010430" />
								</g>
								<g class="note" id="note-L37F1">
									<use xlink:href="#E0A4" x="15067" y="2430" height="720px" width="720px" />
									<g class="stem">
										<rect x="15067" y="2452" height="729" width="18" />
									</g>
									<g class="accid" id="accid-0000000388580232" />
								</g>
							</g>
						</g>
					</g>
					<g class="tie" id="tie-L34F1-L35F1">
						<path d="M13856,2295 C13952,2153 14144,2153 14242,2295 C14144,2197 13952,2197 13856,2295" stroke="#000000" stroke-linecap="round" stroke-linejoin="round" stroke-width="9" />
					</g>
					<g class="mNum autogenerated" id="mnum-0000001985193991" />
					<g class="barLineAttr" id="bline-0000001528255472">
						<path d="M15471 2880 L15471 720" stroke="#000000" stroke-width="27" />
					</g>
				</g>
				<g class="measure" id="measure-L38">
					<g class="staff" id="staff-L38F2N1">
						<path d="M15484 720 L20003 720" stroke="#000000" stroke-width="13" />
						<path d="M15484 900 L20003 900" stroke="#000000" stroke-width="13" />
						<path d="M15484 1080 L20003 1080" stroke="#000000" stroke-width="13" />
						<path d="M15484 1260 L20003 1260" stroke="#000000" stroke-width="13" />
						<path d="M15484 1440 L20003 1440" stroke="#000000" stroke-width="13" />
						<g class="layer" id="layer-L38F2N1">
							<g class="beam" id="beam-L39F2-L42F2">
								<polygon points="16151,469 18046,496 18046,586 16151,559 " />
								<polygon points="16151,604 18046,631 18046,721 16151,694 " />
								<g class="note" id="note-L39F2">
									<use xlink:href="#E0A4" x="15943" y="1170" height="720px" width="720px" />
									<g class="stem">
										<rect x="16151" y="487" height="661" width="18" />
									</g>
									<g class="accid" id="accid-0000001178326286">
										<use xlink:href="#E262" x="15748" y="1170" height="720px" width="720px" />
									</g>
								</g>
								<g class="note" id="note-L40F2">
									<use xlink:href="#E0A4" x="16569" y="1260" height="720px" width="720px" />
									<g class="stem">
										<rect x="16777" y="496" height="742" width="18" />
									</g>
									<g class="accid" id="accid-0000000797558063">
										<use xlink:href="#E262" x="16374" y="1260" height="720px" width="720px" />
									</g>
								</g>
								<g class="note" id="note-L41F2">
									<use xlink:href="#E0A4" x="17194" y="1350" height="720px" width="720px" />
									<g class="stem">
										<rect x="17402" y="505" height="823" width="18" />
									</g>
									<g class="accid" id="accid-0000001122635806">
										<use xlink:href="#E262" x="16999" y="1350" height="720px" width="720px" />
									</g>
								</g>
								<g class="note" id="note-L42F2">
									<use xlink:href="#E0A4" x="17820" y="1170" height="720px" width="720px" />
									<g class="stem">
										<rect x="18028" y="514" height="634" width="18" />
									</g>
									<g class="accid" id="accid-0000001742813284" />
								</g>
							</g>
							<g class="beam" id="beam-L43F2-L46F2">
								<polygon points="18653,610 19812,496 19812,586 18653,700 " />
								<polygon points="19416,669 19812,631 19812,721 19416,759 " />
								<g class="note" id="note-L43F2">
									<use xlink:href="#E0A4" x="18445" y="1440" height="720px" width="720px" />
									<g class="stem">
										<rect x="18653" y="628" height="790" width="18" />
									</g>
									<g class="accid" id="accid-0000002110125908">
										<use xlink:href="#E262" x="18250" y="1440" height="720px" width="720px" />
									</g>
								</g>
								<g class="note" id="note-L45F2">
									<use xlink:href="#E0A4" x="19199" y="1350" height="720px" width="720px" />
									<g class="stem">
										<rect x="19407" y="552" height="776" width="18" />
									</g>
									<g class="accid" id="accid-0000001378491874" />
								</g>
								<g class="note" id="note-L46F2">
									<use xlink:href="#E0A4" x="19586" y="1170" height="720px" width="720px" />
									<g class="stem">
										<rect x="19794" y="514" height="634" width="18" />
									</g>
									<g class="accid" id="accid-0000000170270142" />
								</g>
							</g>
						</g>
					</g>
					<g class="staff" id="staff-L38F1N1">
						<path d="M15484 2160 L20003 2160" stroke="#000000" stroke-width="13" />
						<path d="M15484 2340 L20003 2340" stroke="#000000" stroke-width="13" />
						<path d="M15484 2520 L20003 2520" stroke="#000000" stroke-width="13" />
						<path d="M15484 2700 L20003 2700" stroke="#000000" stroke-width="13" />
						<path d="M15484 2880 L20003 2880" stroke="#000000" stroke-width="13" />
						<g class="layer" id="layer-L38F1N1">
							<g class="beam" id="beam-L39F1-L42F1">
								<polygon points="15943,3375 17838,3187 17838,3097 15943,3285 " />
								<polygon points="17203,3114 17838,3052 17838,2962 17203,3024 " />
								<g class="rest" id="rest-L39F1">
									<use xlink:href="#E4E6" x="15943" y="2520" height="720px" width="720px" />
								</g>
								<g class="note" id="note-L41F1">
									<use xlink:href="#E0A4" x="17194" y="2520" height="720px" width="720px" />
									<g class="stem">
										<rect x="17194" y="2542" height="689" width="18" />
									</g>
									<g class="accid" id="accid-0000001606937107">
										<use xlink:href="#E262" x="16999" y="2520" height="720px" width="720px" />
									</g>
								</g>
								<g class="note" id="note-L42F1">
									<use xlink:href="#E0A4" x="17820" y="2340" height="720px" width="720px" />
									<g class="stem">
										<rect x="17820" y="2362" height="807" width="18" />
									</g>
									<g class="accid" id="accid-0000001589048699">
										<use xlink:href="#E262" x="17625" y="2340" height="720px" width="720px" />
									</g>
								</g>
							</g>
							<g class="beam" id="beam-L43F1-L44F1">
								<polygon points="18445,2835 18850,2796 18850,2706 18445,2745 " />
								<polygon points="18445,2700 18603,2685 18603,2595 18445,2610 " />
								<g class="note" id="note-L43F1">
									<use xlink:href="#E0A4" x="18445" y="2160" height="720px" width="720px" />
									<g class="stem">
										<rect x="18445" y="2182" height="635" width="18" />
									</g>
									<g class="accid" id="accid-0000000411228889">
										<use xlink:href="#E262" x="18250" y="2160" height="720px" width="720px" />
									</g>
								</g>
								<g class="note" id="note-L44F1">
									<use xlink:href="#E0A4" x="18832" y="2070" height="720px" width="720px" />
									<g class="dots" id="dots-0000001357093516">
										<ellipse cx="19148" cy="2070" rx="36" ry="36" />
									</g>
									<g class="stem">
										<rect x="18832" y="2092" height="686" width="18" />
									</g>
									<g class="accid" id="accid-0000001030001075" />
								</g>
							</g>
						</g>
					</g>
					<g class="mNum autogenerated" id="mnum-0000001312637937" />
					<g class="barLineAttr" id="bline-0000000759003734">
						<path d="M19990 2880 L19990 720" stroke="#000000" stroke-width="27" />
					</g>
				</g>
			</g>
		</g>
	</svg>
</svg>
