<?xml version="1.0" encoding="UTF-8" standalone="no"?>
<svg width="2100.00px" height="450.00px" version="1.1" xmlns="http://www.w3.org/2000/svg" xmlns:xlink="http://www.w3.org/1999/xlink" overflow="visible">
	<desc>Engraved by Verovio 2.0.0-dev-0f0381c</desc>
	<defs>
		<symbol id="E050" viewBox="0 0 1000 1000" overflow="inherit">
			<path transform="scale(1,-1)" d="M441 -245c-23 -4 -48 -6 -76 -6c-59 0 -102 7 -130 20c-88 42 -150 93 -187 154c-26 44 -43 103 -48 176c-4 60 11 123 44 189c29 57 65 106 110 148s96 85 153 127c-3 16 -8 46 -13 92c-4 43 -5 73 -5 89c0 117 16 172 69 257c34 54 64 82 89 82c21 0 43 -30 69 -92 s39 -115 41 -159c2 -120 -19 -173 -67 -256c-13 -20 -63 -90 -98 -118c-13 -9 -25 -19 -37 -29l31 -181c8 1 18 2 28 2c58 0 102 -12 133 -35c59 -43 92 -104 98 -184c11 -135 -80 -229 -180 -270c8 -57 17 -110 25 -162c5 -31 6 -58 6 -80c0 -30 -5 -53 -14 -70 c-35 -64 -88 -99 -158 -103c-42 -3 -83 6 -124 26c-50 24 -77 59 -80 105c-2 34 5 63 20 87c18 28 45 42 79 44c51 4 99 -40 103 -87c4 -56 -30 -94 -105 -115c17 -24 51 -36 102 -36c62 0 116 43 140 85c9 16 13 41 13 74c0 20 -1 42 -5 67c-8 53 -18 106 -26 159zM461 939 c-95 0 -135 -175 -135 -286c0 -24 2 -48 5 -71c50 39 92 82 127 128c43 57 63 106 60 148c-4 54 -23 82 -57 81zM406 119l54 -326c80 27 116 88 109 184c-7 99 -62 146 -163 142zM382 117c-74 -2 -132 -50 -128 -127c2 -46 43 -99 75 -115c-3 -2 -7 -5 -10 -10 c-70 33 -116 88 -123 172c-5 73 42 135 88 170c23 17 49 29 78 36l-29 170c-21 -13 -52 -37 -92 -73c-50 -44 -86 -84 -109 -119c-49 -75 -71 -140 -67 -195c5 -68 35 -127 93 -176s125 -73 203 -73c25 0 50 3 75 9c-19 111 -36 221 -54 331z" />
		</symbol>
		<symbol id="E082" viewBox="0 0 1000 1000" overflow="inherit">
			<path transform="scale(1,-1)" d="M104 -185c-18 0 -55 -14 -65 -65h-36l-3 29c0 25 6 46 18 64c11 19 22 30 39 43l121 82l37 29c15 11 27 29 38 54c12 24 18 47 18 70c0 40 -19 88 -94 88c-25 0 -32 0 -50 -8c-14 -5 -23 -12 -26 -22c3 -9 7 -15 10 -18l24 -17c12 -7 17 -11 27 -21c5 -7 7 -16 7 -27 c0 -12 0 -57 -79 -74c-30 0 -76 26 -76 94c0 66 80 135 196 135c72 0 182 -32 182 -150c0 -53 -32 -95 -113 -133l-91 -41c-26 -11 -45 -23 -57 -37l49 7c84 0 115 -41 148 -41c20 0 33 20 39 61h35c0 -152 -68 -168 -114 -168c-17 0 -55 0 -69 7v0l-28 17 c-49 37 -69 40 -87 42z" />
		</symbol>
		<symbol id="E084" viewBox="0 0 1000 1000" overflow="inherit">
			<path transform="scale(1,-1)" d="M0 -78c84 97 114 180 134 329h170c-13 -32 -82 -132 -99 -151l-84 -97c-33 -36 -59 -63 -80 -81h162v102l127 123v-225h57v-39h-57v-34c0 -43 19 -65 57 -65v-34h-244v36c48 0 60 26 60 70v27h-203v39z" />
		</symbol>
		<symbol id="E4E5" viewBox="0 0 1000 1000" overflow="inherit">
			<path transform="scale(1,-1)" d="M107 292c-13 24 -30 49 -52 71c-1 1 0 2 0 3l-2 2c3 3 4 4 6 4c12 0 26 -7 40 -20s44 -40 89 -81c26 -24 28 -29 46 -47c4 -4 8 -9 10 -14c6 -8 8 -16 8 -27c0 -19 -12 -40 -36 -61c-28 -23 -49 -38 -61 -73c-4 -11 -7 -27 -10 -50c13 -43 34 -83 59 -121 c31 -47 59 -79 101 -129c-8 0 -26 7 -54 20l-62 29l-21 6l-23 1c-25 0 -45 -10 -60 -30l-4 -14l-1 -12c0 -33 20 -56 39 -78c8 -9 17 -18 26 -26c17 -15 27 -24 28 -30l-3 -3c-11 5 -19 10 -25 15c-9 3 -37 21 -45 26c-24 14 -45 32 -63 51c-19 21 -37 44 -37 71 c0 63 27 95 80 95c41 0 86 -18 136 -52c-19 26 -37 48 -55 66c-23 23 -48 44 -73 65c-28 23 -47 40 -58 53s-17 26 -18 39c75 64 113 125 113 183c0 27 -7 48 -18 68z" />
		</symbol>
		<symbol id="E0A4" viewBox="0 0 1000 1000" overflow="inherit">
			<path transform="scale(1,-1)" d="M0 -39c0 68 73 172 200 172c66 0 114 -37 114 -95c0 -84 -106 -171 -218 -171c-64 0 -96 30 -96 94z" />
		</symbol>
		<symbol id="E062" viewBox="0 0 1000 1000" overflow="inherit">
			<path transform="scale(1,-1)" d="M158 96c51 0 73 -14 88 -49l16 -39c0 -17 -2 -30 -7 -40c-3 -11 -10 -21 -19 -31c-17 -18 -49 -43 -84 -43c-55 0 -77 13 -112 44c-24 21 -35 55 -35 100c0 46 14 81 32 112c30 52 71 79 137 93l36 6l26 2c154 0 235 -68 274 -182c11 -32 18 -68 18 -107 c0 -103 -26 -182 -68 -250c-89 -145 -234 -230 -412 -288l-30 -5c-9 0 -14 3 -14 8c3 10 5 11 10 16c35 15 70 30 96 44l78 43c96 57 162 136 197 258c9 33 17 60 22 100c3 22 5 35 6 39c-7 69 -16 115 -23 140s-4 22 -16 40c-8 12 -19 23 -31 34c-24 21 -62 44 -118 44 c-48 0 -84 -8 -113 -28c-28 -19 -42 -44 -42 -73v-16c2 -5 3 -9 4 -11c24 22 52 39 84 39zM585 -118c0 32 23 58 57 58c18 0 33 -6 40 -18c9 -15 16 -18 16 -40c0 -9 -2 -16 -5 -21c-6 -19 -27 -37 -51 -37c-34 0 -57 26 -57 58zM642 177c31 0 56 -27 56 -58 c0 -30 -25 -58 -56 -58l-23 3c-19 7 -34 32 -34 55l3 23c9 20 28 35 54 35z" />
		</symbol>
		<symbol id="E260" viewBox="0 0 1000 1000" overflow="inherit">
			<path transform="scale(1,-1)" d="M20 110c32 16 54 27 93 27c26 0 35 -3 54 -13c13 -7 24 -20 27 -38l4 -25c0 -28 -16 -57 -45 -89c-23 -25 -39 -44 -65 -68l-88 -79v644h20v-359zM90 106c-32 0 -48 -10 -70 -29v-194c31 31 54 59 71 84c21 32 32 59 32 84c0 9 1 16 1 20c0 14 -3 21 -11 30l-8 3z" />
		</symbol>
		<symbol id="E262" viewBox="0 0 1000 1000" overflow="inherit">
			<path transform="scale(1,-1)" d="M136 186v169h17v-164l44 14v-91l-44 -14v-165l44 12v-91l-44 -13v-155h-17v150l-76 -22v-155h-17v149l-43 -13v90l43 14v167l-43 -14v92l43 13v169h17v-163zM60 73v-167l76 22v168z" />
		</symbol>
	</defs>
	<style type="text/css">g.page-margin{font-family:Times;} g.tempo{font-weight:bold;} g.dir, g.dynam, g.mNum{font-style:italic;} g.label{font-weight:normal;}</style>
	<svg class="definition-scale" viewBox="0 0 21000 4500">
		<g class="page-margin" transform="translate(500, 500)">
			<g class="system" id="system-0000000277046429">
				<path d="M13 720 L13 2885" stroke="#000000" stroke-width="27" />
				<path d="M-32,2867 C-392,2327 58,1983 -212,1803 C121,1983 -329,2327 -32,2867" stroke="#000000" stroke-linecap="round" stroke-linejoin="round" stroke-width="18" />
				<path d="M-32,738 C-329,1278 121,1623 -212,1803 C58,1623 -392,1278 -32,738" stroke="#000000" stroke-linecap="round" stroke-linejoin="round" stroke-width="18" />
				<g class="section boundaryStart" id="section-L1F1" />
				<g class="measure" id="measure-L4">
					<g class="staff" id="staff-L4F2N1">
						<path d="M0 720 L3814 720" stroke="#000000" stroke-width="13" />
						<path d="M0 900 L3814 900" stroke="#000000" stroke-width="13" />
						<path d="M0 1080 L3814 1080" stroke="#000000" stroke-width="13" />
						<path d="M0 1260 L3814 1260" stroke="#000000" stroke-width="13" />
						<path d="M0 1440 L3814 1440" stroke="#000000" stroke-width="13" />
						<g class="clef" id="clef-0000001234282609">
							<use xlink:href="#E050" x="90" y="1260" height="720px" width="720px" />
						</g>
						<g class="meterSig" id="msig-0000002043263090">
							<use xlink:href="#E082" x="771" y="900" height="720px" width="720px" />
							<use xlink:href="#E084" x="777" y="1260" height="720px" width="720px" />
						</g>
						<g class="layer" id="layer-L4F2N1">
							<g class="rest" id="rest-L5F2">
								<use xlink:href="#E4E5" x="1338" y="1080" height="720px" width="720px" />
							</g>
							<g class="beam" id="beam-L9F2-L11F2">
								<polygon points="2865,316 3683,396 3683,486 2865,406 " />
								<polygon points="3344,498 3683,531 3683,621 3344,588 " />
								<g class="note" id="note-L9F2">
									<use xlink:href="#E0A4" x="2657" y="990" height="720px" width="720px" />
									<g class="stem">
										<rect x="2865" y="334" height="634" width="18" />
									</g>
									<g class="accid" id="accid-0000001993214169" />
								</g>
								<g class="note" id="note-L10F2">
									<use xlink:href="#E0A4" x="3127" y="1080" height="720px" width="720px" />
									<g class="stem">
										<rect x="3335" y="381" height="677" width="18" />
									</g>
									<g class="accid" id="accid-0000000184424080" />
								</g>
								<g class="note" id="note-L11F2">
									<use xlink:href="#E0A4" x="3457" y="1440" height="720px" width="720px" />
									<g class="stem">
										<rect x="3665" y="414" height="1004" width="18" />
									</g>
									<g class="accid" id="accid-0000001210189375" />
								</g>
							</g>
						</g>
					</g>
					<g class="staff" id="staff-L4F1N1">
						<path d="M0 2165 L3814 2165" stroke="#000000" stroke-width="13" />
						<path d="M0 2345 L3814 2345" stroke="#000000" stroke-width="13" />
						<path d="M0 2525 L3814 2525" stroke="#000000" stroke-width="13" />
						<path d="M0 2705 L3814 2705" stroke="#000000" stroke-width="13" />
						<path d="M0 2885 L3814 2885" stroke="#000000" stroke-width="13" />
						<g class="clef" id="clef-0000000711754453">
							<use xlink:href="#E062" x="90" y="2345" height="720px" width="720px" />
						</g>
						<g class="meterSig" id="msig-0000000973177781">
							<use xlink:href="#E082" x="771" y="2345" height="720px" width="720px" />
							<use xlink:href="#E084" x="777" y="2705" height="720px" width="720px" />
						</g>
						<g class="layer" id="layer-L4F1N1">
							<g class="beam" id="beam-L5F1-L8F1">
								<polygon points="1546,1860 2554,1761 2554,1851 1546,1950 " />
								<polygon points="1546,1995 2554,1896 2554,1986 1546,2085 " />
								<g class="note" id="note-L5F1">
									<use xlink:href="#E0A4" x="1338" y="2615" height="720px" width="720px" />
									<g class="stem">
										<rect x="1546" y="1878" height="715" width="18" />
									</g>
									<g class="accid" id="accid-0000000138104000" />
								</g>
								<g class="note" id="note-L6F1">
									<use xlink:href="#E0A4" x="1668" y="2525" height="720px" width="720px" />
									<g class="stem">
										<rect x="1876" y="1845" height="658" width="18" />
									</g>
									<g class="accid" id="accid-0000001489760582" />
								</g>
								<g class="note" id="note-L7F1">
									<use xlink:href="#E0A4" x="1998" y="2615" height="720px" width="720px" />
									<g class="stem">
										<rect x="2206" y="1812" height="781" width="18" />
									</g>
									<g class="accid" id="accid-0000001759124201" />
								</g>
								<g class="note" id="note-L8F1">
									<use xlink:href="#E0A4" x="2328" y="2435" height="720px" width="720px" />
									<g class="stem">
										<rect x="2536" y="1779" height="634" width="18" />
									</g>
									<g class="accid" id="accid-0000001006428067" />
								</g>
							</g>
							<g class="beam" id="beam-L9F1-L11F1">
								<polygon points="2657,3243 3475,3323 3475,3233 2657,3153 " />
								<polygon points="3136,3155 3475,3188 3475,3098 3136,3065 " />
								<g class="note" id="note-L9F1">
									<use xlink:href="#E0A4" x="2657" y="2435" height="720px" width="720px" />
									<g class="stem">
										<rect x="2657" y="2457" height="768" width="18" />
									</g>
									<g class="accid" id="accid-0000001785975150" />
								</g>
								<g class="note" id="note-L10F1">
									<use xlink:href="#E0A4" x="3127" y="2615" height="720px" width="720px" />
									<g class="stem">
										<rect x="3127" y="2637" height="635" width="18" />
									</g>
									<g class="accid" id="accid-0000001953479010" />
								</g>
								<g class="note" id="note-L11F1">
									<use xlink:href="#E0A4" x="3457" y="2525" height="720px" width="720px" />
									<g class="stem">
										<rect x="3457" y="2547" height="758" width="18" />
									</g>
									<g class="accid" id="accid-0000000342528214" />
								</g>
							</g>
						</g>
					</g>
					<g class="tie" id="tie-L8F1-L9F1">
						<path d="M2441,2570 C2523,2668 2687,2668 2770,2570 C2687,2712 2523,2712 2441,2570" stroke="#000000" stroke-linecap="round" stroke-linejoin="round" stroke-width="9" />
					</g>
					<g class="mNum autogenerated" id="mnum-0000000106015068" />
					<g class="barLineAttr" id="bline-0000001842931702">
						<path d="M3801 2885 L3801 720" stroke="#000000" stroke-width="27" />
					</g>
				</g>
				<g class="measure" id="measure-L12">
					<g class="staff" id="staff-L12F2N1">
						<path d="M3814 720 L6668 720" stroke="#000000" stroke-width="13" />
						<path d="M3814 900 L6668 900" stroke="#000000" stroke-width="13" />
						<path d="M3814 1080 L6668 1080" stroke="#000000" stroke-width="13" />
						<path d="M3814 1260 L6668 1260" stroke="#000000" stroke-width="13" />
						<path d="M3814 1440 L6668 1440" stroke="#000000" stroke-width="13" />
						<g class="layer" id="layer-L12F2N1">
							<g class="beam" id="beam-L13F2-L16F2">
								<polygon points="4210,529 5218,430 5218,520 4210,619 " />
								<polygon points="4210,664 5218,565 5218,655 4210,754 " />
								<g class="note" id="note-L13F2">
									<use xlink:href="#E0A4" x="4002" y="1530" height="720px" width="720px" />
									<g class="stem">
										<rect x="4210" y="547" height="961" width="18" />
									</g>
									<g class="accid" id="accid-0000000793110872" />
								</g>
								<g class="note" id="note-L14F2">
									<use xlink:href="#E0A4" x="4332" y="1170" height="720px" width="720px" />
									<g class="stem">
										<rect x="4540" y="514" height="634" width="18" />
									</g>
									<g class="accid" id="accid-0000001836480425" />
								</g>
								<g class="note" id="note-L15F2">
									<use xlink:href="#E0A4" x="4662" y="1350" height="720px" width="720px" />
									<g class="stem">
										<rect x="4870" y="481" height="847" width="18" />
									</g>
									<g class="accid" id="accid-0000000156169094" />
								</g>
								<g class="note" id="note-L16F2">
									<use xlink:href="#E0A4" x="4992" y="1260" height="720px" width="720px" />
									<g class="stem">
										<rect x="5200" y="448" height="790" width="18" />
									</g>
									<g class="accid" id="accid-0000000431820767" />
								</g>
							</g>
							<g class="beam" id="beam-L17F2-L20F2">
								<polygon points="5529,283 6536,382 6536,472 5529,373 " />
								<polygon points="5529,418 6536,517 6536,607 5529,508 " />
								<g class="note" id="note-L17F2">
									<use xlink:href="#E0A4" x="5321" y="1080" height="720px" width="720px" />
									<g class="stem">
										<rect x="5529" y="301" height="757" width="18" />
									</g>
									<g class="accid" id="accid-0000001674052348" />
								</g>
								<g class="note" id="note-L18F2">
									<use xlink:href="#E0A4" x="5651" y="990" height="720px" width="720px" />
									<g class="stem">
										<rect x="5859" y="334" height="634" width="18" />
									</g>
									<g class="accid" id="accid-0000000197126131" />
								</g>
								<g class="note" id="note-L19F2">
									<use xlink:href="#E0A4" x="5981" y="1080" height="720px" width="720px" />
									<g class="stem">
										<rect x="6189" y="367" height="691" width="18" />
									</g>
									<g class="accid" id="accid-0000000551817474" />
								</g>
								<g class="note" id="note-L20F2">
									<use xlink:href="#E0A4" x="6310" y="1260" height="720px" width="720px" />
									<g class="stem">
										<rect x="6518" y="400" height="838" width="18" />
									</g>
									<g class="accid" id="accid-0000002123236723" />
								</g>
							</g>
						</g>
					</g>
					<g class="staff" id="staff-L12F1N1">
						<path d="M3814 2165 L6668 2165" stroke="#000000" stroke-width="13" />
						<path d="M3814 2345 L6668 2345" stroke="#000000" stroke-width="13" />
						<path d="M3814 2525 L6668 2525" stroke="#000000" stroke-width="13" />
						<path d="M3814 2705 L6668 2705" stroke="#000000" stroke-width="13" />
						<path d="M3814 2885 L6668 2885" stroke="#000000" stroke-width="13" />
						<g class="layer" id="layer-L12F1N1">
							<g class="beam" id="beam-L13F1-L14F1">
								<polygon points="4002,3290 4350,3257 4350,3167 4002,3200 " />
								<polygon points="4002,3155 4160,3140 4160,3050 4002,3065 " />
								<g class="note" id="note-L13F1">
									<use xlink:href="#E0A4" x="4002" y="2615" height="720px" width="720px" />
									<g class="stem">
										<rect x="4002" y="2637" height="635" width="18" />
									</g>
									<g class="accid" id="accid-0000000611554329" />
								</g>
								<g class="note" id="note-L14F1">
									<use xlink:href="#E0A4" x="4332" y="2435" height="720px" width="720px" />
									<g class="dots" id="dots-0000001673671022">
										<ellipse cx="4648" cy="2435" rx="36" ry="36" />
									</g>
									<g class="stem">
										<rect x="4332" y="2457" height="782" width="18" />
									</g>
									<g class="accid" id="accid-0000001645054480" />
								</g>
							</g>
							<g class="beam" id="beam-L17F1-L20F1">
								<polygon points="5529,1860 6536,1761 6536,1851 5529,1950 " />
								<polygon points="5529,1995 6536,1896 6536,1986 5529,2085 " />
								<g class="note" id="note-L17F1">
									<use xlink:href="#E0A4" x="5321" y="2615" height="720px" width="720px" />
									<g class="stem">
										<rect x="5529" y="1878" height="715" width="18" />
									</g>
									<g class="accid" id="accid-0000000834904800" />
								</g>
								<g class="note" id="note-L18F1">
									<use xlink:href="#E0A4" x="5651" y="2525" height="720px" width="720px" />
									<g class="stem">
										<rect x="5859" y="1845" height="658" width="18" />
									</g>
									<g class="accid" id="accid-0000001507775290" />
								</g>
								<g class="note" id="note-L19F1">
									<use xlink:href="#E0A4" x="5981" y="2615" height="720px" width="720px" />
									<g class="stem">
										<rect x="6189" y="1812" height="781" width="18" />
									</g>
									<g class="accid" id="accid-0000001424900588" />
								</g>
								<g class="note" id="note-L20F1">
									<use xlink:href="#E0A4" x="6310" y="2435" height="720px" width="720px" />
									<g class="stem">
										<rect x="6518" y="1779" height="634" width="18" />
									</g>
									<g class="accid" id="accid-0000001437562075" />
								</g>
							</g>
						</g>
					</g>
					<g class="tie" id="tie-L20F1-L22F1">
						<path d="M6558,2480 C6627,2578 6765,2578 6834,2480 C6765,2622 6627,2622 6558,2480" stroke="#000000" stroke-linecap="round" stroke-linejoin="round" stroke-width="9" />
					</g>
					<g class="mNum autogenerated" id="mnum-0000001190924343" />
					<g class="barLineAttr" id="bline-0000000612246590">
						<path d="M6655 2885 L6655 720" stroke="#000000" stroke-width="27" />
					</g>
				</g>
				<g class="measure" id="measure-L21">
					<g class="staff" id="staff-L21F2N1">
						<path d="M6668 720 L9584 720" stroke="#000000" stroke-width="13" />
						<path d="M6668 900 L9584 900" stroke="#000000" stroke-width="13" />
						<path d="M6668 1080 L9584 1080" stroke="#000000" stroke-width="13" />
						<path d="M6668 1260 L9584 1260" stroke="#000000" stroke-width="13" />
						<path d="M6668 1440 L9584 1440" stroke="#000000" stroke-width="13" />
						<g class="layer" id="layer-L21F2N1">
							<g class="rest" id="rest-L22F2">
								<use xlink:href="#E4E5" x="6856" y="1080" height="720px" width="720px" />
							</g>
							<g class="beam" id="beam-L25F2-L28F2">
								<polygon points="8258,316 9453,434 9453,524 8258,406 " />
								<polygon points="8910,516 9453,569 9453,659 8910,606 " />
								<g class="note" id="note-L25F2">
									<use xlink:href="#E0A4" x="8050" y="990" height="720px" width="720px" />
									<g class="stem">
										<rect x="8258" y="334" height="634" width="18" />
									</g>
									<g class="accid" id="accid-0000000126266602" />
								</g>
								<g class="note" id="note-L27F2">
									<use xlink:href="#E0A4" x="8693" y="1080" height="720px" width="720px" />
									<g class="stem">
										<rect x="8901" y="399" height="659" width="18" />
									</g>
									<g class="accid" id="accid-0000001167014535">
										<use xlink:href="#E260" x="8497" y="1080" height="720px" width="720px" />
									</g>
								</g>
								<g class="note" id="note-L28F2">
									<use xlink:href="#E0A4" x="9227" y="1440" height="720px" width="720px" />
									<g class="stem">
										<rect x="9435" y="452" height="966" width="18" />
									</g>
									<g class="accid" id="accid-0000001427702245">
										<use xlink:href="#E260" x="9031" y="1440" height="720px" width="720px" />
									</g>
								</g>
							</g>
						</g>
					</g>
					<g class="staff" id="staff-L21F1N1">
						<path d="M6668 2165 L9584 2165" stroke="#000000" stroke-width="13" />
						<path d="M6668 2345 L9584 2345" stroke="#000000" stroke-width="13" />
						<path d="M6668 2525 L9584 2525" stroke="#000000" stroke-width="13" />
						<path d="M6668 2705 L9584 2705" stroke="#000000" stroke-width="13" />
						<path d="M6668 2885 L9584 2885" stroke="#000000" stroke-width="13" />
						<g class="layer" id="layer-L21F1N1">
							<g class="beam" id="beam-L22F1-L24F1">
								<polygon points="7064,1761 7946,1848 7946,1938 7064,1851 " />
								<polygon points="7608,1950 7946,1983 7946,2073 7608,2040 " />
								<g class="note" id="note-L22F1">
									<use xlink:href="#E0A4" x="6856" y="2435" height="720px" width="720px" />
									<g class="stem">
										<rect x="7064" y="1779" height="634" width="18" />
									</g>
									<g class="accid" id="accid-0000001966669790" />
								</g>
								<g class="note" id="note-L23F1">
									<use xlink:href="#E0A4" x="7391" y="2705" height="720px" width="720px" />
									<g class="stem">
										<rect x="7599" y="1833" height="850" width="18" />
									</g>
									<g class="accid" id="accid-0000000396393792">
										<use xlink:href="#E260" x="7195" y="2705" height="720px" width="720px" />
									</g>
								</g>
								<g class="note" id="note-L24F1">
									<use xlink:href="#E0A4" x="7720" y="2525" height="720px" width="720px" />
									<g class="stem">
										<rect x="7928" y="1866" height="637" width="18" />
									</g>
									<g class="accid" id="accid-0000001360135194" />
								</g>
							</g>
							<g class="beam" id="beam-L25F1-L26F1">
								<polygon points="8050,3380 8398,3347 8398,3257 8050,3290 " />
								<polygon points="8050,3245 8208,3230 8208,3140 8050,3155 " />
								<g class="note" id="note-L25F1">
									<use xlink:href="#E0A4" x="8050" y="2705" height="720px" width="720px" />
									<g class="stem">
										<rect x="8050" y="2727" height="635" width="18" />
									</g>
									<g class="accid" id="accid-0000001054788185" />
								</g>
								<g class="note" id="note-L26F1">
									<use xlink:href="#E0A4" x="8380" y="2345" height="720px" width="720px" />
									<g class="dots" id="dots-0000000159915684">
										<ellipse cx="8696" cy="2255" rx="36" ry="36" />
									</g>
									<g class="stem">
										<rect x="8380" y="2367" height="962" width="18" />
									</g>
									<g class="accid" id="accid-0000001749006977" />
								</g>
							</g>
						</g>
					</g>
					<g class="mNum autogenerated" id="mnum-0000001984432616" />
					<g class="barLineAttr" id="bline-0000002096921649">
						<path d="M9571 2885 L9571 720" stroke="#000000" stroke-width="27" />
					</g>
				</g>
				<g class="measure" id="measure-L29">
					<g class="staff" id="staff-L29F2N1">
						<path d="M9584 720 L13051 720" stroke="#000000" stroke-width="13" />
						<path d="M9584 900 L13051 900" stroke="#000000" stroke-width="13" />
						<path d="M9584 1080 L13051 1080" stroke="#000000" stroke-width="13" />
						<path d="M9584 1260 L13051 1260" stroke="#000000" stroke-width="13" />
						<path d="M9584 1440 L13051 1440" stroke="#000000" stroke-width="13" />
						<g class="layer" id="layer-L29F2N1">
							<g class="beam" id="beam-L30F2-L33F2">
								<polygon points="10185,550 11397,430 11397,520 10185,640 " />
								<polygon points="10185,685 11397,565 11397,655 10185,775 " />
								<g class="note" id="note-L30F2">
									<use xlink:href="#E0A4" x="9977" y="1530" height="720px" width="720px" />
									<g class="stem">
										<rect x="10185" y="568" height="940" width="18" />
									</g>
									<g class="accid" id="accid-0000001121298320" />
								</g>
								<g class="note" id="note-L31F2">
									<use xlink:href="#E0A4" x="10511" y="1170" height="720px" width="720px" />
									<g class="stem">
										<rect x="10719" y="514" height="634" width="18" />
									</g>
									<g class="accid" id="accid-0000001849945980">
										<use xlink:href="#E260" x="10315" y="1170" height="720px" width="720px" />
									</g>
								</g>
								<g class="note" id="note-L32F2">
									<use xlink:href="#E0A4" x="10841" y="1350" height="720px" width="720px" />
									<g class="stem">
										<rect x="11049" y="481" height="847" width="18" />
									</g>
									<g class="accid" id="accid-0000000845125126" />
								</g>
								<g class="note" id="note-L33F2">
									<use xlink:href="#E0A4" x="11171" y="1260" height="720px" width="720px" />
									<g class="stem">
										<rect x="11379" y="448" height="790" width="18" />
									</g>
									<g class="accid" id="accid-0000001671289191" />
								</g>
							</g>
							<g class="beam" id="beam-L34F2-L37F2">
								<polygon points="11913,283 12920,382 12920,472 11913,373 " />
								<polygon points="11913,418 12920,517 12920,607 11913,508 " />
								<g class="note" id="note-L34F2">
									<use xlink:href="#E0A4" x="11705" y="1080" height="720px" width="720px" />
									<g class="stem">
										<rect x="11913" y="301" height="757" width="18" />
									</g>
									<g class="accid" id="accid-0000001388630414">
										<use xlink:href="#E260" x="11509" y="1080" height="720px" width="720px" />
									</g>
								</g>
								<g class="note" id="note-L35F2">
									<use xlink:href="#E0A4" x="12035" y="990" height="720px" width="720px" />
									<g class="stem">
										<rect x="12243" y="334" height="634" width="18" />
									</g>
									<g class="accid" id="accid-0000000442143755" />
								</g>
								<g class="note" id="note-L36F2">
									<use xlink:href="#E0A4" x="12364" y="1080" height="720px" width="720px" />
									<g class="stem">
										<rect x="12572" y="367" height="691" width="18" />
									</g>
									<g class="accid" id="accid-0000001232685678" />
								</g>
								<g class="note" id="note-L37F2">
									<use xlink:href="#E0A4" x="12694" y="1260" height="720px" width="720px" />
									<g class="stem">
										<rect x="12902" y="400" height="838" width="18" />
									</g>
									<g class="accid" id="accid-0000001202331513" />
								</g>
							</g>
						</g>
					</g>
					<g class="staff" id="staff-L29F1N1">
						<path d="M9584 2165 L13051 2165" stroke="#000000" stroke-width="13" />
						<path d="M9584 2345 L13051 2345" stroke="#000000" stroke-width="13" />
						<path d="M9584 2525 L13051 2525" stroke="#000000" stroke-width="13" />
						<path d="M9584 2705 L13051 2705" stroke="#000000" stroke-width="13" />
						<path d="M9584 2885 L13051 2885" stroke="#000000" stroke-width="13" />
						<g class="layer" id="layer-L29F1N1">
							<g class="beam" id="beam-L30F1-L33F1">
								<polygon points="10185,1791 11397,1671 11397,1761 10185,1881 " />
								<polygon points="10185,1926 11397,1806 11397,1896 10185,2016 " />
								<g class="note" id="note-L30F1">
									<use xlink:href="#E0A4" x="9977" y="2705" height="720px" width="720px" />
									<g class="stem">
										<rect x="10185" y="1809" height="874" width="18" />
									</g>
									<g class="accid" id="accid-0000001362800904">
										<use xlink:href="#E260" x="9781" y="2705" height="720px" width="720px" />
									</g>
								</g>
								<g class="note" id="note-L31F1">
									<use xlink:href="#E0A4" x="10511" y="2525" height="720px" width="720px" />
									<g class="stem">
										<rect x="10719" y="1755" height="748" width="18" />
									</g>
									<g class="accid" id="accid-0000001270596144" />
								</g>
								<g class="note" id="note-L32F1">
									<use xlink:href="#E0A4" x="10841" y="2705" height="720px" width="720px" />
									<g class="stem">
										<rect x="11049" y="1722" height="961" width="18" />
									</g>
									<g class="accid" id="accid-0000000869722174" />
								</g>
								<g class="note" id="note-L33F1">
									<use xlink:href="#E0A4" x="11171" y="2345" height="720px" width="720px" />
									<g class="stem">
										<rect x="11379" y="1689" height="634" width="18" />
									</g>
									<g class="accid" id="accid-0000000143937169" />
								</g>
							</g>
							<g class="beam" id="beam-L34F1-L37F1">
								<polygon points="11705,3224 12712,3323 12712,3233 11705,3134 " />
								<polygon points="12373,3155 12712,3188 12712,3098 12373,3065 " />
								<g class="note" id="note-L34F1">
									<use xlink:href="#E0A4" x="11705" y="2345" height="720px" width="720px" />
									<g class="stem">
										<rect x="11705" y="2367" height="839" width="18" />
									</g>
									<g class="accid" id="accid-0000002057473907" />
								</g>
								<g class="note" id="note-L36F1">
									<use xlink:href="#E0A4" x="12364" y="2615" height="720px" width="720px" />
									<g class="stem">
										<rect x="12364" y="2637" height="635" width="18" />
									</g>
									<g class="accid" id="accid-0000001909238641" />
								</g>
								<g class="note" id="note-L37F1">
									<use xlink:href="#E0A4" x="12694" y="2525" height="720px" width="720px" />
									<g class="stem">
										<rect x="12694" y="2547" height="758" width="18" />
									</g>
									<g class="accid" id="accid-0000001878199140" />
								</g>
							</g>
						</g>
					</g>
					<g class="tie" id="tie-L33F1-L34F1">
						<path d="M11284,2480 C11417,2578 11683,2578 11818,2480 C11683,2622 11417,2622 11284,2480" stroke="#000000" stroke-linecap="round" stroke-linejoin="round" stroke-width="9" />
					</g>
					<g class="mNum autogenerated" id="mnum-0000000059693965" />
					<g class="barLineAttr" id="bline-0000000556752780">
						<path d="M13038 2885 L13038 720" stroke="#000000" stroke-width="27" />
					</g>
				</g>
				<g class="measure" id="measure-L38">
					<g class="staff" id="staff-L38F2N1">
						<path d="M13051 720 L16131 720" stroke="#000000" stroke-width="13" />
						<path d="M13051 900 L16131 900" stroke="#000000" stroke-width="13" />
						<path d="M13051 1080 L16131 1080" stroke="#000000" stroke-width="13" />
						<path d="M13051 1260 L16131 1260" stroke="#000000" stroke-width="13" />
						<path d="M13051 1440 L16131 1440" stroke="#000000" stroke-width="13" />
						<g class="layer" id="layer-L38F2N1">
							<g class="rest" id="rest-L39F2">
								<use xlink:href="#E4E5" x="13443" y="1080" height="720px" width="720px" />
							</g>
							<g class="beam" id="beam-L41F2-L44F2">
								<polygon points="14789,406 16000,526 16000,616 14789,496 " />
								<polygon points="15458,607 16000,661 16000,751 15458,697 " />
								<g class="note" id="note-L41F2">
									<use xlink:href="#E0A4" x="14581" y="1080" height="720px" width="720px" />
									<g class="stem">
										<rect x="14789" y="424" height="634" width="18" />
									</g>
									<g class="accid" id="accid-0000001245403211" />
								</g>
								<g class="note" id="note-L43F2">
									<use xlink:href="#E0A4" x="15241" y="1170" height="720px" width="720px" />
									<g class="stem">
										<rect x="15449" y="490" height="658" width="18" />
									</g>
									<g class="accid" id="accid-0000001549059338">
										<use xlink:href="#E262" x="15046" y="1170" height="720px" width="720px" />
									</g>
								</g>
								<g class="note" id="note-L44F2">
									<use xlink:href="#E0A4" x="15774" y="1530" height="720px" width="720px" />
									<g class="stem">
										<rect x="15982" y="544" height="964" width="18" />
									</g>
									<g class="accid" id="accid-0000000049472329">
										<use xlink:href="#E262" x="15579" y="1530" height="720px" width="720px" />
									</g>
								</g>
							</g>
						</g>
					</g>
					<g class="staff" id="staff-L38F1N1">
						<path d="M13051 2165 L16131 2165" stroke="#000000" stroke-width="13" />
						<path d="M13051 2345 L16131 2345" stroke="#000000" stroke-width="13" />
						<path d="M13051 2525 L16131 2525" stroke="#000000" stroke-width="13" />
						<path d="M13051 2705 L16131 2705" stroke="#000000" stroke-width="13" />
						<path d="M13051 2885 L16131 2885" stroke="#000000" stroke-width="13" />
						<g class="layer" id="layer-L38F1N1">
							<g class="beam" id="beam-L39F1-L40F1">
								<polygon points="13651,1995 14202,1941 14202,2031 13651,2085 " />
								<polygon points="13651,2130 13809,2115 13809,2205 13651,2220 " />
								<g class="note" id="note-L39F1">
									<use xlink:href="#E0A4" x="13443" y="2795" height="720px" width="720px" />
									<g class="stem">
										<rect x="13651" y="2013" height="760" width="18" />
									</g>
									<g class="accid" id="accid-0000000106678278">
										<use xlink:href="#E262" x="13248" y="2795" height="720px" width="720px" />
									</g>
								</g>
								<g class="note" id="note-L40F1">
									<use xlink:href="#E0A4" x="13976" y="2615" height="720px" width="720px" />
									<g class="dots" id="dots-0000000356110167">
										<ellipse cx="14292" cy="2615" rx="36" ry="36" />
									</g>
									<g class="stem">
										<rect x="14184" y="1959" height="634" width="18" />
									</g>
									<g class="accid" id="accid-0000001569900294">
										<use xlink:href="#E262" x="13781" y="2615" height="720px" width="720px" />
									</g>
								</g>
							</g>
							<g class="beam" id="beam-L41F1-L44F1">
								<polygon points="14789,1928 16000,1972 16000,2062 14789,2018 " />
								<polygon points="14789,2063 16000,2107 16000,2197 14789,2153 " />
								<g class="note" id="note-L41F1">
									<use xlink:href="#E0A4" x="14581" y="2795" height="720px" width="720px" />
									<g class="stem">
										<rect x="14789" y="1946" height="827" width="18" />
									</g>
									<g class="accid" id="accid-0000000992024463" />
								</g>
								<g class="note" id="note-L42F1">
									<use xlink:href="#E0A4" x="14911" y="2615" height="720px" width="720px" />
									<g class="stem">
										<rect x="15119" y="1959" height="634" width="18" />
									</g>
									<g class="accid" id="accid-0000001389276446" />
								</g>
								<g class="note" id="note-L43F1">
									<use xlink:href="#E0A4" x="15241" y="2705" height="720px" width="720px" />
									<g class="stem">
										<rect x="15449" y="1971" height="712" width="18" />
									</g>
									<g class="accid" id="accid-0000001774334604" />
								</g>
								<g class="note" id="note-L44F1">
									<use xlink:href="#E0A4" x="15774" y="2795" height="720px" width="720px" />
									<g class="stem">
										<rect x="15982" y="1990" height="783" width="18" />
									</g>
									<g class="accid" id="accid-0000000506893693" />
								</g>
							</g>
						</g>
					</g>
					<g class="tie" id="tie-L44F1-L46F1">
						<path d="M16022,2840 C16141,2938 16379,2938 16501,2840 C16379,2982 16141,2982 16022,2840" stroke="#000000" stroke-linecap="round" stroke-linejoin="round" stroke-width="9" />
					</g>
					<g class="mNum autogenerated" id="mnum-0000000261124521" />
					<g class="barLineAttr" id="bline-0000000687563989">
						<path d="M16118 2885 L16118 720" stroke="#000000" stroke-width="27" />
					</g>
				</g>
				<g class="measure" id="measure-L45">
					<g class="staff" id="staff-L45F2N1">
						<path d="M16131 720 L20002 720" stroke="#000000" stroke-width="13" />
						<path d="M16131 900 L20002 900" stroke="#000000" stroke-width="13" />
						<path d="M16131 1080 L20002 1080" stroke="#000000" stroke-width="13" />
						<path d="M16131 1260 L20002 1260" stroke="#000000" stroke-width="13" />
						<path d="M16131 1440 L20002 1440" stroke="#000000" stroke-width="13" />
						<g class="ledgerLines below">
							<path d="M16492 1620 L16771 1620" stroke="#000000" stroke-width="22" />
						</g>
						<g class="layer" id="layer-L45F2N1">
							<g class="beam" id="beam-L46F2-L49F2">
								<polygon points="16731,640 18348,480 18348,570 16731,730 " />
								<polygon points="16731,775 18348,615 18348,705 16731,865 " />
								<g class="note" id="note-L46F2">
									<use xlink:href="#E0A4" x="16523" y="1620" height="720px" width="720px" />
									<g class="stem">
										<rect x="16731" y="658" height="940" width="18" />
									</g>
									<g class="accid" id="accid-0000001334741836">
										<use xlink:href="#E262" x="16328" y="1620" height="720px" width="720px" />
									</g>
								</g>
								<g class="note" id="note-L47F2">
									<use xlink:href="#E0A4" x="17056" y="1260" height="720px" width="720px" />
									<g class="stem">
										<rect x="17264" y="604" height="634" width="18" />
									</g>
									<g class="accid" id="accid-0000001824477928">
										<use xlink:href="#E262" x="16861" y="1260" height="720px" width="720px" />
									</g>
								</g>
								<g class="note" id="note-L48F2">
									<use xlink:href="#E0A4" x="17589" y="1440" height="720px" width="720px" />
									<g class="stem">
										<rect x="17797" y="551" height="867" width="18" />
									</g>
									<g class="accid" id="accid-0000000354650295">
										<use xlink:href="#E262" x="17394" y="1440" height="720px" width="720px" />
									</g>
								</g>
								<g class="note" id="note-L49F2">
									<use xlink:href="#E0A4" x="18122" y="1350" height="720px" width="720px" />
									<g class="stem">
										<rect x="18330" y="498" height="830" width="18" />
									</g>
									<g class="accid" id="accid-0000000791608450">
										<use xlink:href="#E262" x="17927" y="1350" height="720px" width="720px" />
									</g>
								</g>
							</g>
							<g class="beam" id="beam-L50F2-L53F2">
								<polygon points="18864,373 19871,472 19871,562 18864,463 " />
								<polygon points="18864,508 19871,607 19871,697 18864,598 " />
								<g class="note" id="note-L50F2">
									<use xlink:href="#E0A4" x="18656" y="1170" height="720px" width="720px" />
									<g class="stem">
										<rect x="18864" y="391" height="757" width="18" />
									</g>
									<g class="accid" id="accid-0000001964004471">
										<use xlink:href="#E262" x="18461" y="1170" height="720px" width="720px" />
									</g>
								</g>
								<g class="note" id="note-L51F2">
									<use xlink:href="#E0A4" x="18985" y="1080" height="720px" width="720px" />
									<g class="stem">
										<rect x="19193" y="424" height="634" width="18" />
									</g>
									<g class="accid" id="accid-0000000040006091" />
								</g>
								<g class="note" id="note-L52F2">
									<use xlink:href="#E0A4" x="19315" y="1170" height="720px" width="720px" />
									<g class="stem">
										<rect x="19523" y="457" height="691" width="18" />
									</g>
									<g class="accid" id="accid-0000001551329795" />
								</g>
								<g class="note" id="note-L53F2">
									<use xlink:href="#E0A4" x="19645" y="1350" height="720px" width="720px" />
									<g class="stem">
										<rect x="19853" y="490" height="838" width="18" />
									</g>
									<g class="accid" id="accid-0000001964714572" />
								</g>
							</g>
						</g>
					</g>
					<g class="staff" id="staff-L45F1N1">
						<path d="M16131 2165 L20002 2165" stroke="#000000" stroke-width="13" />
						<path d="M16131 2345 L20002 2345" stroke="#000000" stroke-width="13" />
						<path d="M16131 2525 L20002 2525" stroke="#000000" stroke-width="13" />
						<path d="M16131 2705 L20002 2705" stroke="#000000" stroke-width="13" />
						<path d="M16131 2885 L20002 2885" stroke="#000000" stroke-width="13" />
						<g class="layer" id="layer-L45F1N1">
							<g class="beam" id="beam-L46F1-L49F1">
								<polygon points="16731,2076 18348,1941 18348,2031 16731,2166 " />
								<polygon points="17806,2121 18348,2076 18348,2166 17806,2211 " />
								<g class="note" id="note-L46F1">
									<use xlink:href="#E0A4" x="16523" y="2795" height="720px" width="720px" />
									<g class="stem">
										<rect x="16731" y="2094" height="679" width="18" />
									</g>
									<g class="accid" id="accid-0000001777842522" />
								</g>
								<g class="note" id="note-L48F1">
									<use xlink:href="#E0A4" x="17589" y="2885" height="720px" width="720px" />
									<g class="stem">
										<rect x="17797" y="2004" height="859" width="18" />
									</g>
									<g class="accid" id="accid-0000000023081947">
										<use xlink:href="#E262" x="17394" y="2885" height="720px" width="720px" />
									</g>
								</g>
								<g class="note" id="note-L49F1">
									<use xlink:href="#E0A4" x="18122" y="2615" height="720px" width="720px" />
									<g class="stem">
										<rect x="18330" y="1959" height="634" width="18" />
									</g>
									<g class="accid" id="accid-0000000546358047">
										<use xlink:href="#E262" x="17927" y="2615" height="720px" width="720px" />
									</g>
								</g>
							</g>
							<g class="beam" id="beam-L50F1-L51F1">
								<polygon points="18864,2031 19211,2064 19211,2154 18864,2121 " />
								<polygon points="18864,2166 19022,2181 19022,2271 18864,2256 " />
								<g class="note" id="note-L50F1">
									<use xlink:href="#E0A4" x="18656" y="2705" height="720px" width="720px" />
									<g class="stem">
										<rect x="18864" y="2049" height="634" width="18" />
									</g>
									<g class="accid" id="accid-0000000294815375" />
								</g>
								<g class="note" id="note-L51F1">
									<use xlink:href="#E0A4" x="18985" y="2885" height="720px" width="720px" />
									<g class="dots" id="dots-0000000810135649">
										<ellipse cx="19301" cy="2795" rx="36" ry="36" />
									</g>
									<g class="stem">
										<rect x="19193" y="2082" height="781" width="18" />
									</g>
									<g class="accid" id="accid-0000000726060161" />
								</g>
							</g>
						</g>
					</g>
					<g class="mNum autogenerated" id="mnum-0000001980589302" />
					<g class="barLineAttr" id="bline-0000001813143686">
						<path d="M19989 2885 L19989 720" stroke="#000000" stroke-width="27" />
					</g>
				</g>
			</g>
		</g>
	</svg>
</svg>
