<?xml version="1.0" encoding="UTF-8" standalone="no"?>
<svg width="2100.00px" height="600.00px" version="1.1" xmlns="http://www.w3.org/2000/svg" xmlns:xlink="http://www.w3.org/1999/xlink" overflow="visible">
	<desc>Engraved by Verovio 2.0.0-dev-0f0381c</desc>
	<defs>
		<symbol id="E003" viewBox="0 0 1000 1000" overflow="inherit">
			<path transform="scale(1,-1)" d="M0 -0c49 0 97.5 -2.26367 135.5 4.73633c206 95 258.5 264.264 263.5 271.264c0 1 -14 7 -15 6c-88 -154 -251 -167 -321 -170c-1 0 -63 -1 -63 -1v-111z" />
		</symbol>
		<symbol id="E004" viewBox="0 0 1000 1000" overflow="inherit">
			<path transform="scale(1,-1)" d="M0 0c49 0 97.5 2.26367 135.5 -4.73633c206 -95 258.5 -264.264 263.5 -271.264c0 -1 -14 -7 -15 -6c-88 154 -251 167 -321 170c-1 0 -63 1 -63 1v111z" />
		</symbol>
		<symbol id="E050" viewBox="0 0 1000 1000" overflow="inherit">
			<path transform="scale(1,-1)" d="M441 -245c-23 -4 -48 -6 -76 -6c-59 0 -102 7 -130 20c-88 42 -150 93 -187 154c-26 44 -43 103 -48 176c-4 60 11 123 44 189c29 57 65 106 110 148s96 85 153 127c-3 16 -8 46 -13 92c-4 43 -5 73 -5 89c0 117 16 172 69 257c34 54 64 82 89 82c21 0 43 -30 69 -92 s39 -115 41 -159c2 -120 -19 -173 -67 -256c-13 -20 -63 -90 -98 -118c-13 -9 -25 -19 -37 -29l31 -181c8 1 18 2 28 2c58 0 102 -12 133 -35c59 -43 92 -104 98 -184c11 -135 -80 -229 -180 -270c8 -57 17 -110 25 -162c5 -31 6 -58 6 -80c0 -30 -5 -53 -14 -70 c-35 -64 -88 -99 -158 -103c-42 -3 -83 6 -124 26c-50 24 -77 59 -80 105c-2 34 5 63 20 87c18 28 45 42 79 44c51 4 99 -40 103 -87c4 -56 -30 -94 -105 -115c17 -24 51 -36 102 -36c62 0 116 43 140 85c9 16 13 41 13 74c0 20 -1 42 -5 67c-8 53 -18 106 -26 159zM461 939 c-95 0 -135 -175 -135 -286c0 -24 2 -48 5 -71c50 39 92 82 127 128c43 57 63 106 60 148c-4 54 -23 82 -57 81zM406 119l54 -326c80 27 116 88 109 184c-7 99 -62 146 -163 142zM382 117c-74 -2 -132 -50 -128 -127c2 -46 43 -99 75 -115c-3 -2 -7 -5 -10 -10 c-70 33 -116 88 -123 172c-5 73 42 135 88 170c23 17 49 29 78 36l-29 170c-21 -13 -52 -37 -92 -73c-50 -44 -86 -84 -109 -119c-49 -75 -71 -140 -67 -195c5 -68 35 -127 93 -176s125 -73 203 -73c25 0 50 3 75 9c-19 111 -36 221 -54 331z" />
		</symbol>
		<symbol id="E082" viewBox="0 0 1000 1000" overflow="inherit">
			<path transform="scale(1,-1)" d="M104 -185c-18 0 -55 -14 -65 -65h-36l-3 29c0 25 6 46 18 64c11 19 22 30 39 43l121 82l37 29c15 11 27 29 38 54c12 24 18 47 18 70c0 40 -19 88 -94 88c-25 0 -32 0 -50 -8c-14 -5 -23 -12 -26 -22c3 -9 7 -15 10 -18l24 -17c12 -7 17 -11 27 -21c5 -7 7 -16 7 -27 c0 -12 0 -57 -79 -74c-30 0 -76 26 -76 94c0 66 80 135 196 135c72 0 182 -32 182 -150c0 -53 -32 -95 -113 -133l-91 -41c-26 -11 -45 -23 -57 -37l49 7c84 0 115 -41 148 -41c20 0 33 20 39 61h35c0 -152 -68 -168 -114 -168c-17 0 -55 0 -69 7v0l-28 17 c-49 37 -69 40 -87 42z" />
		</symbol>
		<symbol id="E084" viewBox="0 0 1000 1000" overflow="inherit">
			<path transform="scale(1,-1)" d="M0 -78c84 97 114 180 134 329h170c-13 -32 -82 -132 -99 -151l-84 -97c-33 -36 -59 -63 -80 -81h162v102l127 123v-225h57v-39h-57v-34c0 -43 19 -65 57 -65v-34h-244v36c48 0 60 26 60 70v27h-203v39z" />
		</symbol>
		<symbol id="E4E7" viewBox="0 0 1000 1000" overflow="inherit">
			<path transform="scale(1,-1)" d="M133 -111c-16 38 -21 43 -64 51c-37 -4 -60 -25 -68 -60c0 -32 18 -52 55 -58c8 -6 22 -10 43 -10c31 0 62 7 82 20l-108 -324h37c72 220 143 439 215 659h-4l-10 -2l-7 -1c-15 -35 -27 -52 -59 -71c-26 -15 -56 -27 -88 -29c-11 0 -20 2 -26 6c29 3 56 25 51 56 c-15 35 -19 42 -64 48c-38 -4 -60 -23 -68 -58c0 -32 18 -52 55 -59c7 -5 22 -8 45 -8c48 0 76 7 112 25l-66 -197c-21 -23 -50 -47 -90 -47c-7 0 -15 1 -25 4c31 5 52 22 52 55z" />
		</symbol>
		<symbol id="E0A4" viewBox="0 0 1000 1000" overflow="inherit">
			<path transform="scale(1,-1)" d="M0 -39c0 68 73 172 200 172c66 0 114 -37 114 -95c0 -84 -106 -171 -218 -171c-64 0 -96 30 -96 94z" />
		</symbol>
		<symbol id="E260" viewBox="0 0 1000 1000" overflow="inherit">
			<path transform="scale(1,-1)" d="M20 110c32 16 54 27 93 27c26 0 35 -3 54 -13c13 -7 24 -20 27 -38l4 -25c0 -28 -16 -57 -45 -89c-23 -25 -39 -44 -65 -68l-88 -79v644h20v-359zM90 106c-32 0 -48 -10 -70 -29v-194c31 31 54 59 71 84c21 32 32 59 32 84c0 9 1 16 1 20c0 14 -3 21 -11 30l-8 3z" />
		</symbol>
		<symbol id="E4E6" viewBox="0 0 1000 1000" overflow="inherit">
			<path transform="scale(1,-1)" d="M0 123c7 34 33 56 69 60c29 -3 43 -9 53 -29c4 -8 7 -15 10 -22c0 -21 -1 -25 -11 -35c-5 -8 -18 -14 -40 -20l12 -3l15 -1c44 0 97 26 122 56c10 11 18 26 24 42c7 1 15 2 22 3l-140 -424h-36l111 330c-10 -6 -27 -12 -53 -16l-52 -8h-10l-20 1c-1 0 -8 3 -21 6 c-37 9 -55 28 -55 60z" />
		</symbol>
		<symbol id="E062" viewBox="0 0 1000 1000" overflow="inherit">
			<path transform="scale(1,-1)" d="M158 96c51 0 73 -14 88 -49l16 -39c0 -17 -2 -30 -7 -40c-3 -11 -10 -21 -19 -31c-17 -18 -49 -43 -84 -43c-55 0 -77 13 -112 44c-24 21 -35 55 -35 100c0 46 14 81 32 112c30 52 71 79 137 93l36 6l26 2c154 0 235 -68 274 -182c11 -32 18 -68 18 -107 c0 -103 -26 -182 -68 -250c-89 -145 -234 -230 -412 -288l-30 -5c-9 0 -14 3 -14 8c3 10 5 11 10 16c35 15 70 30 96 44l78 43c96 57 162 136 197 258c9 33 17 60 22 100c3 22 5 35 6 39c-7 69 -16 115 -23 140s-4 22 -16 40c-8 12 -19 23 -31 34c-24 21 -62 44 -118 44 c-48 0 -84 -8 -113 -28c-28 -19 -42 -44 -42 -73v-16c2 -5 3 -9 4 -11c24 22 52 39 84 39zM585 -118c0 32 23 58 57 58c18 0 33 -6 40 -18c9 -15 16 -18 16 -40c0 -9 -2 -16 -5 -21c-6 -19 -27 -37 -51 -37c-34 0 -57 26 -57 58zM642 177c31 0 56 -27 56 -58 c0 -30 -25 -58 -56 -58l-23 3c-19 7 -34 32 -34 55l3 23c9 20 28 35 54 35z" />
		</symbol>
	</defs>
	<style type="text/css">g.page-margin{font-family:Times;} g.tempo{font-weight:bold;} g.dir, g.dynam, g.mNum{font-style:italic;} g.label{font-weight:normal;}</style>
	<svg class="definition-scale" viewBox="0 0 21000 6000">
		<g class="page-margin" transform="translate(500, 500)">
			<g class="system" id="system-0000000926032124">
				<path d="M13 720 L13 4498" stroke="#000000" stroke-width="27" />
				<use xlink:href="#E003" x="-167" y="720" height="720px" width="720px" />
				<use xlink:href="#E004" x="-167" y="4498" height="720px" width="720px" />
				<rect x="-167" y="702" height="3814" width="90" />
				<g class="section boundaryStart" id="section-L1F1" />
				<g class="measure" id="measure-L4">
					<g class="staff" id="staff-L4F3N1">
						<path d="M0 720 L5613 720" stroke="#000000" stroke-width="13" />
						<path d="M0 900 L5613 900" stroke="#000000" stroke-width="13" />
						<path d="M0 1080 L5613 1080" stroke="#000000" stroke-width="13" />
						<path d="M0 1260 L5613 1260" stroke="#000000" stroke-width="13" />
						<path d="M0 1440 L5613 1440" stroke="#000000" stroke-width="13" />
						<g class="clef" id="clef-0000000455159252">
							<use xlink:href="#E050" x="90" y="1260" height="720px" width="720px" />
						</g>
						<g class="meterSig" id="msig-0000000524797750">
							<use xlink:href="#E082" x="771" y="900" height="720px" width="720px" />
							<use xlink:href="#E084" x="777" y="1260" height="720px" width="720px" />
						</g>
						<g class="ledgerLines above">
							<path d="M2650 540 L2929 540" stroke="#000000" stroke-width="22" />
							<path d="M3050 540 L3329 540" stroke="#000000" stroke-width="22" />
							<path d="M3697 540 L3976 540" stroke="#000000" stroke-width="22" />
							<path d="M4344 540 L4623 540" stroke="#000000" stroke-width="22" />
						</g>
						<g class="layer" id="layer-L4F3N1">
							<g class="beam" id="beam-L5F3-L8F3">
								<polygon points="1626,1935 3099,1789 3099,1699 1626,1845 " />
								<polygon points="1626,1800 3099,1654 3099,1564 1626,1710 " />
								<g class="rest" id="rest-L5F3">
									<use xlink:href="#E4E7" x="1626" y="1080" height="720px" width="720px" />
								</g>
								<g class="note" id="note-L6F3">
									<use xlink:href="#E0A4" x="2034" y="630" height="720px" width="720px" />
									<g class="stem">
										<rect x="2034" y="652" height="1224" width="18" />
									</g>
									<g class="accid" id="accid-0000000652445973" />
								</g>
								<g class="note" id="note-L7F3">
									<use xlink:href="#E0A4" x="2681" y="540" height="720px" width="720px" />
									<g class="stem">
										<rect x="2681" y="562" height="1249" width="18" />
									</g>
									<g class="accid" id="accid-0000000367941177">
										<use xlink:href="#E260" x="2485" y="540" height="720px" width="720px" />
									</g>
								</g>
								<g class="note" id="note-L8F3">
									<use xlink:href="#E0A4" x="3081" y="540" height="720px" width="720px" />
									<g class="stem">
										<rect x="3081" y="562" height="1209" width="18" />
									</g>
									<g class="accid" id="accid-0000001265669377" />
								</g>
							</g>
							<g class="beam" id="beam-L9F3-L12F3">
								<polygon points="3728,1249 5201,1395 5201,1305 3728,1159 " />
								<polygon points="3728,1114 5201,1260 5201,1170 3728,1024 " />
								<g class="note" id="note-L9F3">
									<use xlink:href="#E0A4" x="3728" y="450" height="720px" width="720px" />
									<g class="stem">
										<rect x="3728" y="472" height="759" width="18" />
									</g>
									<g class="accid" id="accid-0000000860007022">
										<use xlink:href="#E260" x="3532" y="450" height="720px" width="720px" />
									</g>
								</g>
								<g class="note" id="note-L10F3">
									<use xlink:href="#E0A4" x="4375" y="540" height="720px" width="720px" />
									<g class="stem">
										<rect x="4375" y="562" height="734" width="18" />
									</g>
									<g class="accid" id="accid-0000000991002091" />
								</g>
								<g class="note" id="note-L11F3">
									<use xlink:href="#E0A4" x="4775" y="630" height="720px" width="720px" />
									<g class="stem">
										<rect x="4775" y="652" height="684" width="18" />
									</g>
									<g class="accid" id="accid-0000000204854378" />
								</g>
								<g class="note" id="note-L12F3">
									<use xlink:href="#E0A4" x="5183" y="720" height="720px" width="720px" />
									<g class="stem">
										<rect x="5183" y="742" height="635" width="18" />
									</g>
									<g class="accid" id="accid-0000001661216245" />
								</g>
							</g>
						</g>
					</g>
					<g class="staff" id="staff-L4F2N1">
						<path d="M0 2338 L5613 2338" stroke="#000000" stroke-width="13" />
						<path d="M0 2518 L5613 2518" stroke="#000000" stroke-width="13" />
						<path d="M0 2698 L5613 2698" stroke="#000000" stroke-width="13" />
						<path d="M0 2878 L5613 2878" stroke="#000000" stroke-width="13" />
						<path d="M0 3058 L5613 3058" stroke="#000000" stroke-width="13" />
						<g class="clef" id="clef-0000000560446021">
							<use xlink:href="#E050" x="90" y="2878" height="720px" width="720px" />
						</g>
						<g class="meterSig" id="msig-0000000552999205">
							<use xlink:href="#E082" x="771" y="2518" height="720px" width="720px" />
							<use xlink:href="#E084" x="777" y="2878" height="720px" width="720px" />
						</g>
						<g class="layer" id="layer-L4F2N1">
							<g class="beam" id="beam-L5F2-L8F2">
								<polygon points="1834,2362 3307,2216 3307,2306 1834,2452 " />
								<polygon points="1834,2497 3307,2351 3307,2441 1834,2587 " />
								<g class="note" id="note-L5F2">
									<use xlink:href="#E0A4" x="1626" y="3058" height="720px" width="720px" />
									<g class="stem">
										<rect x="1834" y="2380" height="656" width="18" />
									</g>
									<g class="accid" id="accid-0000001273172767">
										<use xlink:href="#E260" x="1430" y="3058" height="720px" width="720px" />
									</g>
								</g>
								<g class="rest" id="rest-L6F2">
									<use xlink:href="#E4E6" x="2034" y="3058" height="720px" width="720px" />
								</g>
								<g class="note" id="note-L8F2">
									<use xlink:href="#E0A4" x="3081" y="2968" height="720px" width="720px" />
									<g class="stem">
										<rect x="3289" y="2234" height="712" width="18" />
									</g>
									<g class="accid" id="accid-0000001758739645" />
								</g>
							</g>
							<g class="beam" id="beam-L9F2-L12F2">
								<polygon points="3936,2089 5409,1943 5409,2033 3936,2179 " />
								<polygon points="3936,2224 5409,2078 5409,2168 3936,2314 " />
								<g class="note" id="note-L9F2">
									<use xlink:href="#E0A4" x="3728" y="3058" height="720px" width="720px" />
									<g class="stem">
										<rect x="3936" y="2107" height="929" width="18" />
									</g>
									<g class="accid" id="accid-0000000252121793" />
								</g>
								<g class="note" id="note-L10F2">
									<use xlink:href="#E0A4" x="4375" y="2698" height="720px" width="720px" />
									<g class="stem">
										<rect x="4583" y="2042" height="634" width="18" />
									</g>
									<g class="accid" id="accid-0000002134403783">
										<use xlink:href="#E260" x="4179" y="2698" height="720px" width="720px" />
									</g>
								</g>
								<g class="rest" id="rest-L11F2">
									<use xlink:href="#E4E7" x="4775" y="2698" height="720px" width="720px" />
								</g>
								<g class="note" id="note-L12F2">
									<use xlink:href="#E0A4" x="5183" y="2698" height="720px" width="720px" />
									<g class="stem">
										<rect x="5391" y="1961" height="715" width="18" />
									</g>
									<g class="accid" id="accid-0000000317855033" />
								</g>
							</g>
						</g>
					</g>
					<g class="staff" id="staff-L4F1N1">
						<path d="M0 3778 L5613 3778" stroke="#000000" stroke-width="13" />
						<path d="M0 3958 L5613 3958" stroke="#000000" stroke-width="13" />
						<path d="M0 4138 L5613 4138" stroke="#000000" stroke-width="13" />
						<path d="M0 4318 L5613 4318" stroke="#000000" stroke-width="13" />
						<path d="M0 4498 L5613 4498" stroke="#000000" stroke-width="13" />
						<g class="clef" id="clef-0000002095897866">
							<use xlink:href="#E062" x="90" y="3958" height="720px" width="720px" />
						</g>
						<g class="meterSig" id="msig-0000000581172121">
							<use xlink:href="#E082" x="771" y="3958" height="720px" width="720px" />
							<use xlink:href="#E084" x="777" y="4318" height="720px" width="720px" />
						</g>
						<g class="layer" id="layer-L4F1N1">
							<g class="beam" id="beam-L5F1-L8F1">
								<polygon points="1626,4724 3099,4782 3099,4692 1626,4634 " />
								<polygon points="1626,4589 3099,4647 3099,4557 1626,4499 " />
								<g class="note" id="note-L5F1">
									<use xlink:href="#E0A4" x="1626" y="4048" height="720px" width="720px" />
									<g class="stem">
										<rect x="1626" y="4070" height="636" width="18" />
									</g>
									<g class="accid" id="accid-0000001780186381">
										<use xlink:href="#E260" x="1430" y="4048" height="720px" width="720px" />
									</g>
								</g>
								<g class="rest" id="rest-L6F1">
									<use xlink:href="#E4E7" x="2034" y="4138" height="720px" width="720px" />
								</g>
								<g class="note" id="note-L7F1">
									<use xlink:href="#E0A4" x="2681" y="3868" height="720px" width="720px" />
									<g class="stem">
										<rect x="2681" y="3890" height="858" width="18" />
									</g>
									<g class="accid" id="accid-0000002110364772" />
								</g>
								<g class="rest" id="rest-L8F1">
									<use xlink:href="#E4E7" x="3081" y="4138" height="720px" width="720px" />
								</g>
							</g>
							<g class="beam" id="beam-L9F1-L12F1">
								<polygon points="3728,5008 5201,4862 5201,4772 3728,4918 " />
								<polygon points="4784,4768 5201,4727 5201,4637 4784,4678 " />
								<g class="rest" id="rest-L9F1">
									<use xlink:href="#E4E6" x="3728" y="4138" height="720px" width="720px" />
								</g>
								<g class="note" id="note-L11F1">
									<use xlink:href="#E0A4" x="4775" y="4228" height="720px" width="720px" />
									<g class="stem">
										<rect x="4775" y="4250" height="635" width="18" />
									</g>
									<g class="accid" id="accid-0000001096080737" />
								</g>
								<g class="note" id="note-L12F1">
									<use xlink:href="#E0A4" x="5183" y="4048" height="720px" width="720px" />
									<g class="stem">
										<rect x="5183" y="4070" height="774" width="18" />
									</g>
									<g class="accid" id="accid-0000001656378868" />
								</g>
							</g>
						</g>
					</g>
					<g class="mNum autogenerated" id="mnum-0000000327634816" />
					<g class="barLineAttr" id="bline-0000001879080847">
						<path d="M5600 1440 L5600 720" stroke="#000000" stroke-width="27" />
						<path d="M5600 3058 L5600 2338" stroke="#000000" stroke-width="27" />
						<path d="M5600 4498 L5600 3778" stroke="#000000" stroke-width="27" />
					</g>
				</g>
				<g class="measure" id="measure-L13">
					<g class="staff" id="staff-L13F3N1">
						<path d="M5613 720 L10333 720" stroke="#000000" stroke-width="13" />
						<path d="M5613 900 L10333 900" stroke="#000000" stroke-width="13" />
						<path d="M5613 1080 L10333 1080" stroke="#000000" stroke-width="13" />
						<path d="M5613 1260 L10333 1260" stroke="#000000" stroke-width="13" />
						<path d="M5613 1440 L10333 1440" stroke="#000000" stroke-width="13" />
						<g class="ledgerLines above">
							<path d="M6058 540 L6337 540" stroke="#000000" stroke-width="22" />
							<path d="M6466 540 L6745 540" stroke="#000000" stroke-width="22" />
							<path d="M7769 540 L8048 540" stroke="#000000" stroke-width="22" />
							<path d="M9064 540 L9343 540" stroke="#000000" stroke-width="22" />
							<path d="M6058 360 L6337 360" stroke="#000000" stroke-width="22" />
							<path d="M6466 360 L6745 360" stroke="#000000" stroke-width="22" />
						</g>
						<g class="layer" id="layer-L13F3N1">
							<g class="beam" id="beam-L14F3-L17F3">
								<polygon points="6089,1080 7818,1252 7818,1162 6089,990 " />
								<polygon points="6089,945 7818,1117 7818,1027 6089,855 " />
								<g class="note" id="note-L14F3">
									<use xlink:href="#E0A4" x="6089" y="360" height="720px" width="720px" />
									<g class="stem">
										<rect x="6089" y="382" height="680" width="18" />
									</g>
									<g class="accid" id="accid-0000000643917545" />
								</g>
								<g class="note" id="note-L15F3">
									<use xlink:href="#E0A4" x="6497" y="360" height="720px" width="720px" />
									<g class="stem">
										<rect x="6497" y="382" height="721" width="18" />
									</g>
									<g class="accid" id="accid-0000001322587322" />
								</g>
								<g class="rest" id="rest-L16F3">
									<use xlink:href="#E4E7" x="7144" y="540" height="720px" width="720px" />
								</g>
								<g class="note" id="note-L17F3">
									<use xlink:href="#E0A4" x="7800" y="450" height="720px" width="720px" />
									<g class="stem">
										<rect x="7800" y="472" height="762" width="18" />
									</g>
									<g class="accid" id="accid-0000001225947213">
										<use xlink:href="#E260" x="7604" y="450" height="720px" width="720px" />
									</g>
								</g>
							</g>
							<g class="beam" id="beam-L18F3-L20F3">
								<polygon points="8448,1935 9512,1830 9512,1740 8448,1845 " />
								<polygon points="8448,1800 9104,1735 9104,1645 8448,1710 " />
								<g class="rest" id="rest-L18F3">
									<use xlink:href="#E4E7" x="8448" y="1080" height="720px" width="720px" />
								</g>
								<g class="note" id="note-L19F3">
									<use xlink:href="#E0A4" x="9095" y="450" height="720px" width="720px" />
									<g class="stem">
										<rect x="9095" y="472" height="1380" width="18" />
									</g>
									<g class="accid" id="accid-0000002090865204" />
								</g>
								<g class="rest" id="rest-L20F3">
									<use xlink:href="#E4E6" x="9494" y="1080" height="720px" width="720px" />
								</g>
							</g>
						</g>
					</g>
					<g class="staff" id="staff-L13F2N1">
						<path d="M5613 2338 L10333 2338" stroke="#000000" stroke-width="13" />
						<path d="M5613 2518 L10333 2518" stroke="#000000" stroke-width="13" />
						<path d="M5613 2698 L10333 2698" stroke="#000000" stroke-width="13" />
						<path d="M5613 2878 L10333 2878" stroke="#000000" stroke-width="13" />
						<path d="M5613 3058 L10333 3058" stroke="#000000" stroke-width="13" />
						<g class="layer" id="layer-L13F2N1">
							<g class="beam" id="beam-L14F2-L17F2">
								<polygon points="6297,2353 8026,2258 8026,2348 6297,2443 " />
								<polygon points="6297,2488 8026,2393 8026,2483 6297,2578 " />
								<g class="note" id="note-L14F2">
									<use xlink:href="#E0A4" x="6089" y="3058" height="720px" width="720px" />
									<g class="stem">
										<rect x="6297" y="2371" height="665" width="18" />
									</g>
									<g class="accid" id="accid-0000001695559967">
										<use xlink:href="#E260" x="5893" y="3058" height="720px" width="720px" />
									</g>
								</g>
								<g class="rest" id="rest-L15F2">
									<use xlink:href="#E4E7" x="6497" y="3058" height="720px" width="720px" />
								</g>
								<g class="note" id="note-L16F2">
									<use xlink:href="#E0A4" x="7144" y="2968" height="720px" width="720px" />
									<g class="stem">
										<rect x="7352" y="2312" height="634" width="18" />
									</g>
									<g class="accid" id="accid-0000000356557246" />
								</g>
								<g class="note" id="note-L17F2">
									<use xlink:href="#E0A4" x="7800" y="3058" height="720px" width="720px" />
									<g class="stem">
										<rect x="8008" y="2276" height="760" width="18" />
									</g>
									<g class="accid" id="accid-0000001042085357" />
								</g>
							</g>
							<g class="beam" id="beam-L18F2-L21F2">
								<polygon points="8656,1980 10120,2041 10120,2131 8656,2070 " />
								<polygon points="8656,2115 10120,2176 10120,2266 8656,2205 " />
								<g class="note" id="note-L18F2">
									<use xlink:href="#E0A4" x="8448" y="2788" height="720px" width="720px" />
									<g class="stem">
										<rect x="8656" y="1998" height="768" width="18" />
									</g>
									<g class="accid" id="accid-0000001998687134">
										<use xlink:href="#E260" x="8252" y="2788" height="720px" width="720px" />
									</g>
								</g>
								<g class="note" id="note-L19F2">
									<use xlink:href="#E0A4" x="9095" y="2698" height="720px" width="720px" />
									<g class="stem">
										<rect x="9303" y="2025" height="651" width="18" />
									</g>
									<g class="accid" id="accid-0000001710608418">
										<use xlink:href="#E260" x="8899" y="2698" height="720px" width="720px" />
									</g>
								</g>
								<g class="note" id="note-L20F2">
									<use xlink:href="#E0A4" x="9494" y="2698" height="720px" width="720px" />
									<g class="stem">
										<rect x="9702" y="2042" height="634" width="18" />
									</g>
									<g class="accid" id="accid-0000001466303473" />
								</g>
								<g class="rest" id="rest-L21F2">
									<use xlink:href="#E4E7" x="9894" y="2698" height="720px" width="720px" />
								</g>
							</g>
						</g>
					</g>
					<g class="staff" id="staff-L13F1N1">
						<path d="M5613 3778 L10333 3778" stroke="#000000" stroke-width="13" />
						<path d="M5613 3958 L10333 3958" stroke="#000000" stroke-width="13" />
						<path d="M5613 4138 L10333 4138" stroke="#000000" stroke-width="13" />
						<path d="M5613 4318 L10333 4318" stroke="#000000" stroke-width="13" />
						<path d="M5613 4498 L10333 4498" stroke="#000000" stroke-width="13" />
						<g class="ledgerLines above">
							<path d="M9064 3598 L9343 3598" stroke="#000000" stroke-width="22" />
						</g>
						<g class="layer" id="layer-L13F1N1">
							<g class="beam" id="beam-L14F1-L17F1">
								<polygon points="6089,4993 7818,4821 7818,4731 6089,4903 " />
								<polygon points="6089,4858 7818,4686 7818,4596 6089,4768 " />
								<g class="rest" id="rest-L14F1">
									<use xlink:href="#E4E7" x="6089" y="4138" height="720px" width="720px" />
								</g>
								<g class="note" id="note-L15F1">
									<use xlink:href="#E0A4" x="6497" y="4138" height="720px" width="720px" />
									<g class="stem">
										<rect x="6497" y="4160" height="774" width="18" />
									</g>
									<g class="accid" id="accid-0000000303338764" />
								</g>
								<g class="note" id="note-L16F1">
									<use xlink:href="#E0A4" x="7144" y="3778" height="720px" width="720px" />
									<g class="stem">
										<rect x="7144" y="3800" height="1069" width="18" />
									</g>
									<g class="accid" id="accid-0000000160292266">
										<use xlink:href="#E260" x="6948" y="3778" height="720px" width="720px" />
									</g>
								</g>
								<g class="note" id="note-L17F1">
									<use xlink:href="#E0A4" x="7800" y="3688" height="720px" width="720px" />
									<g class="stem">
										<rect x="7800" y="3710" height="1093" width="18" />
									</g>
									<g class="accid" id="accid-0000000270789204">
										<use xlink:href="#E260" x="7604" y="3688" height="720px" width="720px" />
									</g>
								</g>
							</g>
							<g class="beam" id="beam-L18F1-L21F1">
								<polygon points="8448,4398 9912,4543 9912,4453 8448,4308 " />
								<polygon points="8448,4263 9912,4408 9912,4318 8448,4173 " />
								<g class="note" id="note-L18F1">
									<use xlink:href="#E0A4" x="8448" y="3688" height="720px" width="720px" />
									<g class="stem">
										<rect x="8448" y="3710" height="670" width="18" />
									</g>
									<g class="accid" id="accid-0000001579166231" />
								</g>
								<g class="note" id="note-L19F1">
									<use xlink:href="#E0A4" x="9095" y="3598" height="720px" width="720px" />
									<g class="stem">
										<rect x="9095" y="3620" height="825" width="18" />
									</g>
									<g class="accid" id="accid-0000000292316168" />
								</g>
								<g class="note" id="note-L20F1">
									<use xlink:href="#E0A4" x="9494" y="3688" height="720px" width="720px" />
									<g class="stem">
										<rect x="9494" y="3710" height="775" width="18" />
									</g>
									<g class="accid" id="accid-0000000380547398" />
								</g>
								<g class="note" id="note-L21F1">
									<use xlink:href="#E0A4" x="9894" y="3868" height="720px" width="720px" />
									<g class="stem">
										<rect x="9894" y="3890" height="635" width="18" />
									</g>
									<g class="accid" id="accid-0000000035556241" />
								</g>
							</g>
						</g>
					</g>
					<g class="mNum autogenerated" id="mnum-0000000032927911" />
					<g class="barLineAttr" id="bline-0000001580797647">
						<path d="M10320 1440 L10320 720" stroke="#000000" stroke-width="27" />
						<path d="M10320 3058 L10320 2338" stroke="#000000" stroke-width="27" />
						<path d="M10320 4498 L10320 3778" stroke="#000000" stroke-width="27" />
					</g>
				</g>
				<g class="measure" id="measure-L22">
					<g class="staff" id="staff-L22F3N1">
						<path d="M10333 720 L15035 720" stroke="#000000" stroke-width="13" />
						<path d="M10333 900 L15035 900" stroke="#000000" stroke-width="13" />
						<path d="M10333 1080 L15035 1080" stroke="#000000" stroke-width="13" />
						<path d="M10333 1260 L15035 1260" stroke="#000000" stroke-width="13" />
						<path d="M10333 1440 L15035 1440" stroke="#000000" stroke-width="13" />
						<g class="ledgerLines above">
							<path d="M11833 540 L12112 540" stroke="#000000" stroke-width="22" />
							<path d="M12233 540 L12512 540" stroke="#000000" stroke-width="22" />
							<path d="M12880 540 L13159 540" stroke="#000000" stroke-width="22" />
							<path d="M13527 540 L13806 540" stroke="#000000" stroke-width="22" />
						</g>
						<g class="layer" id="layer-L22F3N1">
							<g class="beam" id="beam-L23F3-L26F3">
								<polygon points="10809,1935 12282,1789 12282,1699 10809,1845 " />
								<polygon points="10809,1800 12282,1654 12282,1564 10809,1710 " />
								<g class="rest" id="rest-L23F3">
									<use xlink:href="#E4E7" x="10809" y="1080" height="720px" width="720px" />
								</g>
								<g class="note" id="note-L24F3">
									<use xlink:href="#E0A4" x="11217" y="630" height="720px" width="720px" />
									<g class="stem">
										<rect x="11217" y="652" height="1224" width="18" />
									</g>
									<g class="accid" id="accid-0000001674816449" />
								</g>
								<g class="note" id="note-L25F3">
									<use xlink:href="#E0A4" x="11864" y="540" height="720px" width="720px" />
									<g class="stem">
										<rect x="11864" y="562" height="1249" width="18" />
									</g>
									<g class="accid" id="accid-0000000530969604">
										<use xlink:href="#E260" x="11668" y="540" height="720px" width="720px" />
									</g>
								</g>
								<g class="note" id="note-L26F3">
									<use xlink:href="#E0A4" x="12264" y="540" height="720px" width="720px" />
									<g class="stem">
										<rect x="12264" y="562" height="1209" width="18" />
									</g>
									<g class="accid" id="accid-0000000604329547" />
								</g>
							</g>
							<g class="beam" id="beam-L27F3-L30F3">
								<polygon points="12911,1225 14623,1395 14623,1305 12911,1135 " />
								<polygon points="12911,1090 14623,1260 14623,1170 12911,1000 " />
								<g class="note" id="note-L27F3">
									<use xlink:href="#E0A4" x="12911" y="450" height="720px" width="720px" />
									<g class="stem">
										<rect x="12911" y="472" height="735" width="18" />
									</g>
									<g class="accid" id="accid-0000000156580497">
										<use xlink:href="#E260" x="12715" y="450" height="720px" width="720px" />
									</g>
								</g>
								<g class="note" id="note-L28F3">
									<use xlink:href="#E0A4" x="13558" y="540" height="720px" width="720px" />
									<g class="stem">
										<rect x="13558" y="562" height="710" width="18" />
									</g>
									<g class="accid" id="accid-0000000519127709" />
								</g>
								<g class="note" id="note-L29F3">
									<use xlink:href="#E0A4" x="13958" y="630" height="720px" width="720px" />
									<g class="stem">
										<rect x="13958" y="652" height="660" width="18" />
									</g>
									<g class="accid" id="accid-0000001300707771" />
								</g>
								<g class="note" id="note-L30F3">
									<use xlink:href="#E0A4" x="14605" y="720" height="720px" width="720px" />
									<g class="stem">
										<rect x="14605" y="742" height="635" width="18" />
									</g>
									<g class="accid" id="accid-0000000468082698" />
								</g>
							</g>
						</g>
					</g>
					<g class="staff" id="staff-L22F2N1">
						<path d="M10333 2338 L15035 2338" stroke="#000000" stroke-width="13" />
						<path d="M10333 2518 L15035 2518" stroke="#000000" stroke-width="13" />
						<path d="M10333 2698 L15035 2698" stroke="#000000" stroke-width="13" />
						<path d="M10333 2878 L15035 2878" stroke="#000000" stroke-width="13" />
						<path d="M10333 3058 L15035 3058" stroke="#000000" stroke-width="13" />
						<g class="layer" id="layer-L22F2N1">
							<g class="beam" id="beam-L23F2-L26F2">
								<polygon points="11017,2362 12490,2216 12490,2306 11017,2452 " />
								<polygon points="11017,2497 12490,2351 12490,2441 11017,2587 " />
								<g class="note" id="note-L23F2">
									<use xlink:href="#E0A4" x="10809" y="3058" height="720px" width="720px" />
									<g class="stem">
										<rect x="11017" y="2380" height="656" width="18" />
									</g>
									<g class="accid" id="accid-0000001919624265">
										<use xlink:href="#E260" x="10613" y="3058" height="720px" width="720px" />
									</g>
								</g>
								<g class="rest" id="rest-L24F2">
									<use xlink:href="#E4E6" x="11217" y="3058" height="720px" width="720px" />
								</g>
								<g class="note" id="note-L26F2">
									<use xlink:href="#E0A4" x="12264" y="2968" height="720px" width="720px" />
									<g class="stem">
										<rect x="12472" y="2234" height="712" width="18" />
									</g>
									<g class="accid" id="accid-0000000534141128" />
								</g>
							</g>
							<g class="beam" id="beam-L27F2-L30F2">
								<polygon points="13119,2089 14831,1919 14831,2009 13119,2179 " />
								<polygon points="13119,2224 14831,2054 14831,2144 13119,2314 " />
								<g class="note" id="note-L27F2">
									<use xlink:href="#E0A4" x="12911" y="3058" height="720px" width="720px" />
									<g class="stem">
										<rect x="13119" y="2107" height="929" width="18" />
									</g>
									<g class="accid" id="accid-0000000257823631" />
								</g>
								<g class="note" id="note-L28F2">
									<use xlink:href="#E0A4" x="13558" y="2698" height="720px" width="720px" />
									<g class="stem">
										<rect x="13766" y="2042" height="634" width="18" />
									</g>
									<g class="accid" id="accid-0000000328092269">
										<use xlink:href="#E260" x="13362" y="2698" height="720px" width="720px" />
									</g>
								</g>
								<g class="rest" id="rest-L29F2">
									<use xlink:href="#E4E7" x="13958" y="2698" height="720px" width="720px" />
								</g>
								<g class="note" id="note-L30F2">
									<use xlink:href="#E0A4" x="14605" y="2698" height="720px" width="720px" />
									<g class="stem">
										<rect x="14813" y="1937" height="739" width="18" />
									</g>
									<g class="accid" id="accid-0000001347426829" />
								</g>
							</g>
						</g>
					</g>
					<g class="staff" id="staff-L22F1N1">
						<path d="M10333 3778 L15035 3778" stroke="#000000" stroke-width="13" />
						<path d="M10333 3958 L15035 3958" stroke="#000000" stroke-width="13" />
						<path d="M10333 4138 L15035 4138" stroke="#000000" stroke-width="13" />
						<path d="M10333 4318 L15035 4318" stroke="#000000" stroke-width="13" />
						<path d="M10333 4498 L15035 4498" stroke="#000000" stroke-width="13" />
						<g class="layer" id="layer-L22F1N1">
							<g class="beam" id="beam-L23F1-L26F1">
								<polygon points="10809,5083 12282,4937 12282,4847 10809,4993 " />
								<polygon points="10809,4948 12282,4802 12282,4712 10809,4858 " />
								<g class="note" id="note-L23F1">
									<use xlink:href="#E0A4" x="10809" y="4408" height="720px" width="720px" />
									<g class="stem">
										<rect x="10809" y="4430" height="635" width="18" />
									</g>
									<g class="accid" id="accid-0000000647185727">
										<use xlink:href="#E260" x="10613" y="4408" height="720px" width="720px" />
									</g>
								</g>
								<g class="rest" id="rest-L24F1">
									<use xlink:href="#E4E7" x="11217" y="4138" height="720px" width="720px" />
								</g>
								<g class="note" id="note-L25F1">
									<use xlink:href="#E0A4" x="11864" y="3868" height="720px" width="720px" />
									<g class="stem">
										<rect x="11864" y="3890" height="1069" width="18" />
									</g>
									<g class="accid" id="accid-0000001653265658" />
								</g>
								<g class="rest" id="rest-L26F1">
									<use xlink:href="#E4E7" x="12264" y="4138" height="720px" width="720px" />
								</g>
							</g>
							<g class="beam" id="beam-L27F1-L30F1">
								<polygon points="12911,5008 14623,4838 14623,4748 12911,4918 " />
								<polygon points="13967,4768 14623,4703 14623,4613 13967,4678 " />
								<g class="rest" id="rest-L27F1">
									<use xlink:href="#E4E6" x="12911" y="4138" height="720px" width="720px" />
								</g>
								<g class="note" id="note-L29F1">
									<use xlink:href="#E0A4" x="13958" y="4228" height="720px" width="720px" />
									<g class="stem">
										<rect x="13958" y="4250" height="635" width="18" />
									</g>
									<g class="accid" id="accid-0000000689497221" />
								</g>
								<g class="note" id="note-L30F1">
									<use xlink:href="#E0A4" x="14605" y="4048" height="720px" width="720px" />
									<g class="stem">
										<rect x="14605" y="4070" height="750" width="18" />
									</g>
									<g class="accid" id="accid-0000000818620496">
										<use xlink:href="#E260" x="14409" y="4048" height="720px" width="720px" />
									</g>
								</g>
							</g>
						</g>
					</g>
					<g class="mNum autogenerated" id="mnum-0000001247935031" />
					<g class="barLineAttr" id="bline-0000001538372221">
						<path d="M15022 1440 L15022 720" stroke="#000000" stroke-width="27" />
						<path d="M15022 3058 L15022 2338" stroke="#000000" stroke-width="27" />
						<path d="M15022 4498 L15022 3778" stroke="#000000" stroke-width="27" />
					</g>
				</g>
				<g class="measure" id="measure-L31">
					<g class="staff" id="staff-L31F3N1">
						<path d="M15035 720 L20002 720" stroke="#000000" stroke-width="13" />
						<path d="M15035 900 L20002 900" stroke="#000000" stroke-width="13" />
						<path d="M15035 1080 L20002 1080" stroke="#000000" stroke-width="13" />
						<path d="M15035 1260 L20002 1260" stroke="#000000" stroke-width="13" />
						<path d="M15035 1440 L20002 1440" stroke="#000000" stroke-width="13" />
						<g class="ledgerLines above">
							<path d="M15480 540 L15759 540" stroke="#000000" stroke-width="22" />
							<path d="M16136 540 L16415 540" stroke="#000000" stroke-width="22" />
							<path d="M17439 540 L17718 540" stroke="#000000" stroke-width="22" />
							<path d="M18734 540 L19013 540" stroke="#000000" stroke-width="22" />
							<path d="M15480 360 L15759 360" stroke="#000000" stroke-width="22" />
							<path d="M16136 360 L16415 360" stroke="#000000" stroke-width="22" />
						</g>
						<g class="layer" id="layer-L31F3N1">
							<g class="beam" id="beam-L32F3-L35F3">
								<polygon points="15511,1080 17488,1269 17488,1179 15511,990 " />
								<polygon points="15511,945 17488,1134 17488,1044 15511,855 " />
								<g class="note" id="note-L32F3">
									<use xlink:href="#E0A4" x="15511" y="360" height="720px" width="720px" />
									<g class="stem">
										<rect x="15511" y="382" height="680" width="18" />
									</g>
									<g class="accid" id="accid-0000000575004446" />
								</g>
								<g class="note" id="note-L33F3">
									<use xlink:href="#E0A4" x="16167" y="360" height="720px" width="720px" />
									<g class="stem">
										<rect x="16167" y="382" height="743" width="18" />
									</g>
									<g class="accid" id="accid-0000002146037690" />
								</g>
								<g class="rest" id="rest-L34F3">
									<use xlink:href="#E4E7" x="16814" y="540" height="720px" width="720px" />
								</g>
								<g class="note" id="note-L35F3">
									<use xlink:href="#E0A4" x="17470" y="450" height="720px" width="720px" />
									<g class="stem">
										<rect x="17470" y="472" height="779" width="18" />
									</g>
									<g class="accid" id="accid-0000000419048870">
										<use xlink:href="#E260" x="17274" y="450" height="720px" width="720px" />
									</g>
								</g>
							</g>
							<g class="beam" id="beam-L36F3-L38F3">
								<polygon points="18117,1935 19182,1830 19182,1740 18117,1845 " />
								<polygon points="18117,1800 18774,1735 18774,1645 18117,1710 " />
								<g class="rest" id="rest-L36F3">
									<use xlink:href="#E4E7" x="18117" y="1080" height="720px" width="720px" />
								</g>
								<g class="note" id="note-L37F3">
									<use xlink:href="#E0A4" x="18765" y="450" height="720px" width="720px" />
									<g class="stem">
										<rect x="18765" y="472" height="1380" width="18" />
									</g>
									<g class="accid" id="accid-0000001090647567" />
								</g>
								<g class="rest" id="rest-L38F3">
									<use xlink:href="#E4E6" x="19164" y="1080" height="720px" width="720px" />
								</g>
							</g>
						</g>
					</g>
					<g class="staff" id="staff-L31F2N1">
						<path d="M15035 2338 L20002 2338" stroke="#000000" stroke-width="13" />
						<path d="M15035 2518 L20002 2518" stroke="#000000" stroke-width="13" />
						<path d="M15035 2698 L20002 2698" stroke="#000000" stroke-width="13" />
						<path d="M15035 2878 L20002 2878" stroke="#000000" stroke-width="13" />
						<path d="M15035 3058 L20002 3058" stroke="#000000" stroke-width="13" />
						<g class="layer" id="layer-L31F2N1">
							<g class="beam" id="beam-L32F2-L35F2">
								<polygon points="15719,2348 17696,2267 17696,2357 15719,2438 " />
								<polygon points="15719,2483 17696,2402 17696,2492 15719,2573 " />
								<g class="note" id="note-L32F2">
									<use xlink:href="#E0A4" x="15511" y="3058" height="720px" width="720px" />
									<g class="stem">
										<rect x="15719" y="2366" height="670" width="18" />
									</g>
									<g class="accid" id="accid-0000001806101183">
										<use xlink:href="#E260" x="15315" y="3058" height="720px" width="720px" />
									</g>
								</g>
								<g class="rest" id="rest-L33F2">
									<use xlink:href="#E4E7" x="16167" y="3058" height="720px" width="720px" />
								</g>
								<g class="note" id="note-L34F2">
									<use xlink:href="#E0A4" x="16814" y="2968" height="720px" width="720px" />
									<g class="stem">
										<rect x="17022" y="2312" height="634" width="18" />
									</g>
									<g class="accid" id="accid-0000000638974457" />
								</g>
								<g class="note" id="note-L35F2">
									<use xlink:href="#E0A4" x="17470" y="3058" height="720px" width="720px" />
									<g class="stem">
										<rect x="17678" y="2285" height="751" width="18" />
									</g>
									<g class="accid" id="accid-0000001618688751" />
								</g>
							</g>
							<g class="beam" id="beam-L36F2-L39F2">
								<polygon points="18325,1980 19789,2041 19789,2131 18325,2070 " />
								<polygon points="18325,2115 19789,2176 19789,2266 18325,2205 " />
								<g class="note" id="note-L36F2">
									<use xlink:href="#E0A4" x="18117" y="2788" height="720px" width="720px" />
									<g class="stem">
										<rect x="18325" y="1998" height="768" width="18" />
									</g>
									<g class="accid" id="accid-0000000500000578">
										<use xlink:href="#E260" x="17921" y="2788" height="720px" width="720px" />
									</g>
								</g>
								<g class="note" id="note-L37F2">
									<use xlink:href="#E0A4" x="18765" y="2698" height="720px" width="720px" />
									<g class="stem">
										<rect x="18973" y="2025" height="651" width="18" />
									</g>
									<g class="accid" id="accid-0000000215660332">
										<use xlink:href="#E260" x="18569" y="2698" height="720px" width="720px" />
									</g>
								</g>
								<g class="note" id="note-L38F2">
									<use xlink:href="#E0A4" x="19164" y="2698" height="720px" width="720px" />
									<g class="stem">
										<rect x="19372" y="2042" height="634" width="18" />
									</g>
									<g class="accid" id="accid-0000000132072167" />
								</g>
								<g class="rest" id="rest-L39F2">
									<use xlink:href="#E4E7" x="19563" y="2698" height="720px" width="720px" />
								</g>
							</g>
						</g>
					</g>
					<g class="staff" id="staff-L31F1N1">
						<path d="M15035 3778 L20002 3778" stroke="#000000" stroke-width="13" />
						<path d="M15035 3958 L20002 3958" stroke="#000000" stroke-width="13" />
						<path d="M15035 4138 L20002 4138" stroke="#000000" stroke-width="13" />
						<path d="M15035 4318 L20002 4318" stroke="#000000" stroke-width="13" />
						<path d="M15035 4498 L20002 4498" stroke="#000000" stroke-width="13" />
						<g class="ledgerLines above">
							<path d="M18734 3598 L19013 3598" stroke="#000000" stroke-width="22" />
						</g>
						<g class="layer" id="layer-L31F1N1">
							<g class="beam" id="beam-L32F1-L35F1">
								<polygon points="15511,5214 17488,5018 17488,4928 15511,5124 " />
								<polygon points="15511,5079 17488,4883 17488,4793 15511,4989 " />
								<g class="rest" id="rest-L32F1">
									<use xlink:href="#E4E7" x="15511" y="4138" height="720px" width="720px" />
								</g>
								<g class="note" id="note-L33F1">
									<use xlink:href="#E0A4" x="16167" y="4138" height="720px" width="720px" />
									<g class="stem">
										<rect x="16167" y="4160" height="970" width="18" />
									</g>
									<g class="accid" id="accid-0000000878601100">
										<use xlink:href="#E260" x="15971" y="4138" height="720px" width="720px" />
									</g>
								</g>
								<g class="note" id="note-L34F1">
									<use xlink:href="#E0A4" x="16814" y="4408" height="720px" width="720px" />
									<g class="stem">
										<rect x="16814" y="4430" height="635" width="18" />
									</g>
									<g class="accid" id="accid-0000000760537385">
										<use xlink:href="#E260" x="16618" y="4408" height="720px" width="720px" />
									</g>
								</g>
								<g class="note" id="note-L35F1">
									<use xlink:href="#E0A4" x="17470" y="3688" height="720px" width="720px" />
									<g class="stem">
										<rect x="17470" y="3710" height="1290" width="18" />
									</g>
									<g class="accid" id="accid-0000000908573830">
										<use xlink:href="#E260" x="17274" y="3688" height="720px" width="720px" />
									</g>
								</g>
							</g>
							<g class="beam" id="beam-L36F1-L39F1">
								<polygon points="18117,4398 19581,4543 19581,4453 18117,4308 " />
								<polygon points="18117,4263 19581,4408 19581,4318 18117,4173 " />
								<g class="note" id="note-L36F1">
									<use xlink:href="#E0A4" x="18117" y="3688" height="720px" width="720px" />
									<g class="stem">
										<rect x="18117" y="3710" height="670" width="18" />
									</g>
									<g class="accid" id="accid-0000001192122603" />
								</g>
								<g class="note" id="note-L37F1">
									<use xlink:href="#E0A4" x="18765" y="3598" height="720px" width="720px" />
									<g class="stem">
										<rect x="18765" y="3620" height="825" width="18" />
									</g>
									<g class="accid" id="accid-0000000846310157" />
								</g>
								<g class="note" id="note-L38F1">
									<use xlink:href="#E0A4" x="19164" y="3688" height="720px" width="720px" />
									<g class="stem">
										<rect x="19164" y="3710" height="775" width="18" />
									</g>
									<g class="accid" id="accid-0000000289643491" />
								</g>
								<g class="note" id="note-L39F1">
									<use xlink:href="#E0A4" x="19563" y="3868" height="720px" width="720px" />
									<g class="stem">
										<rect x="19563" y="3890" height="635" width="18" />
									</g>
									<g class="accid" id="accid-0000000335447851" />
								</g>
							</g>
						</g>
					</g>
					<g class="mNum autogenerated" id="mnum-0000001555022108" />
					<g class="barLineAttr" id="bline-0000001453813688">
						<path d="M19989 1440 L19989 720" stroke="#000000" stroke-width="27" />
						<path d="M19989 3058 L19989 2338" stroke="#000000" stroke-width="27" />
						<path d="M19989 4498 L19989 3778" stroke="#000000" stroke-width="27" />
					</g>
				</g>
			</g>
		</g>
	</svg>
</svg>
