<?xml version="1.0" encoding="UTF-8" standalone="no"?>
<svg width="2100.00px" height="600.00px" version="1.1" xmlns="http://www.w3.org/2000/svg" xmlns:xlink="http://www.w3.org/1999/xlink" overflow="visible">
	<desc>Engraved by Verovio 2.0.0-dev-0f0381c</desc>
	<defs>
		<symbol id="E003" viewBox="0 0 1000 1000" overflow="inherit">
			<path transform="scale(1,-1)" d="M0 -0c49 0 97.5 -2.26367 135.5 4.73633c206 95 258.5 264.264 263.5 271.264c0 1 -14 7 -15 6c-88 -154 -251 -167 -321 -170c-1 0 -63 -1 -63 -1v-111z" />
		</symbol>
		<symbol id="E004" viewBox="0 0 1000 1000" overflow="inherit">
			<path transform="scale(1,-1)" d="M0 0c49 0 97.5 2.26367 135.5 -4.73633c206 -95 258.5 -264.264 263.5 -271.264c0 -1 -14 -7 -15 -6c-88 154 -251 167 -321 170c-1 0 -63 1 -63 1v111z" />
		</symbol>
		<symbol id="E050" viewBox="0 0 1000 1000" overflow="inherit">
			<path transform="scale(1,-1)" d="M441 -245c-23 -4 -48 -6 -76 -6c-59 0 -102 7 -130 20c-88 42 -150 93 -187 154c-26 44 -43 103 -48 176c-4 60 11 123 44 189c29 57 65 106 110 148s96 85 153 127c-3 16 -8 46 -13 92c-4 43 -5 73 -5 89c0 117 16 172 69 257c34 54 64 82 89 82c21 0 43 -30 69 -92 s39 -115 41 -159c2 -120 -19 -173 -67 -256c-13 -20 -63 -90 -98 -118c-13 -9 -25 -19 -37 -29l31 -181c8 1 18 2 28 2c58 0 102 -12 133 -35c59 -43 92 -104 98 -184c11 -135 -80 -229 -180 -270c8 -57 17 -110 25 -162c5 -31 6 -58 6 -80c0 -30 -5 -53 -14 -70 c-35 -64 -88 -99 -158 -103c-42 -3 -83 6 -124 26c-50 24 -77 59 -80 105c-2 34 5 63 20 87c18 28 45 42 79 44c51 4 99 -40 103 -87c4 -56 -30 -94 -105 -115c17 -24 51 -36 102 -36c62 0 116 43 140 85c9 16 13 41 13 74c0 20 -1 42 -5 67c-8 53 -18 106 -26 159zM461 939 c-95 0 -135 -175 -135 -286c0 -24 2 -48 5 -71c50 39 92 82 127 128c43 57 63 106 60 148c-4 54 -23 82 -57 81zM406 119l54 -326c80 27 116 88 109 184c-7 99 -62 146 -163 142zM382 117c-74 -2 -132 -50 -128 -127c2 -46 43 -99 75 -115c-3 -2 -7 -5 -10 -10 c-70 33 -116 88 -123 172c-5 73 42 135 88 170c23 17 49 29 78 36l-29 170c-21 -13 -52 -37 -92 -73c-50 -44 -86 -84 -109 -119c-49 -75 -71 -140 -67 -195c5 -68 35 -127 93 -176s125 -73 203 -73c25 0 50 3 75 9c-19 111 -36 221 -54 331z" />
		</symbol>
		<symbol id="E082" viewBox="0 0 1000 1000" overflow="inherit">
			<path transform="scale(1,-1)" d="M104 -185c-18 0 -55 -14 -65 -65h-36l-3 29c0 25 6 46 18 64c11 19 22 30 39 43l121 82l37 29c15 11 27 29 38 54c12 24 18 47 18 70c0 40 -19 88 -94 88c-25 0 -32 0 -50 -8c-14 -5 -23 -12 -26 -22c3 -9 7 -15 10 -18l24 -17c12 -7 17 -11 27 -21c5 -7 7 -16 7 -27 c0 -12 0 -57 -79 -74c-30 0 -76 26 -76 94c0 66 80 135 196 135c72 0 182 -32 182 -150c0 -53 -32 -95 -113 -133l-91 -41c-26 -11 -45 -23 -57 -37l49 7c84 0 115 -41 148 -41c20 0 33 20 39 61h35c0 -152 -68 -168 -114 -168c-17 0 -55 0 -69 7v0l-28 17 c-49 37 -69 40 -87 42z" />
		</symbol>
		<symbol id="E084" viewBox="0 0 1000 1000" overflow="inherit">
			<path transform="scale(1,-1)" d="M0 -78c84 97 114 180 134 329h170c-13 -32 -82 -132 -99 -151l-84 -97c-33 -36 -59 -63 -80 -81h162v102l127 123v-225h57v-39h-57v-34c0 -43 19 -65 57 -65v-34h-244v36c48 0 60 26 60 70v27h-203v39z" />
		</symbol>
		<symbol id="E0A4" viewBox="0 0 1000 1000" overflow="inherit">
			<path transform="scale(1,-1)" d="M0 -39c0 68 73 172 200 172c66 0 114 -37 114 -95c0 -84 -106 -171 -218 -171c-64 0 -96 30 -96 94z" />
		</symbol>
		<symbol id="E260" viewBox="0 0 1000 1000" overflow="inherit">
			<path transform="scale(1,-1)" d="M20 110c32 16 54 27 93 27c26 0 35 -3 54 -13c13 -7 24 -20 27 -38l4 -25c0 -28 -16 -57 -45 -89c-23 -25 -39 -44 -65 -68l-88 -79v644h20v-359zM90 106c-32 0 -48 -10 -70 -29v-194c31 31 54 59 71 84c21 32 32 59 32 84c0 9 1 16 1 20c0 14 -3 21 -11 30l-8 3z" />
		</symbol>
		<symbol id="E4E7" viewBox="0 0 1000 1000" overflow="inherit">
			<path transform="scale(1,-1)" d="M133 -111c-16 38 -21 43 -64 51c-37 -4 -60 -25 -68 -60c0 -32 18 -52 55 -58c8 -6 22 -10 43 -10c31 0 62 7 82 20l-108 -324h37c72 220 143 439 215 659h-4l-10 -2l-7 -1c-15 -35 -27 -52 -59 -71c-26 -15 -56 -27 -88 -29c-11 0 -20 2 -26 6c29 3 56 25 51 56 c-15 35 -19 42 -64 48c-38 -4 -60 -23 -68 -58c0 -32 18 -52 55 -59c7 -5 22 -8 45 -8c48 0 76 7 112 25l-66 -197c-21 -23 -50 -47 -90 -47c-7 0 -15 1 -25 4c31 5 52 22 52 55z" />
		</symbol>
		<symbol id="E062" viewBox="0 0 1000 1000" overflow="inherit">
			<path transform="scale(1,-1)" d="M158 96c51 0 73 -14 88 -49l16 -39c0 -17 -2 -30 -7 -40c-3 -11 -10 -21 -19 -31c-17 -18 -49 -43 -84 -43c-55 0 -77 13 -112 44c-24 21 -35 55 -35 100c0 46 14 81 32 112c30 52 71 79 137 93l36 6l26 2c154 0 235 -68 274 -182c11 -32 18 -68 18 -107 c0 -103 -26 -182 -68 -250c-89 -145 -234 -230 -412 -288l-30 -5c-9 0 -14 3 -14 8c3 10 5 11 10 16c35 15 70 30 96 44l78 43c96 57 162 136 197 258c9 33 17 60 22 100c3 22 5 35 6 39c-7 69 -16 115 -23 140s-4 22 -16 40c-8 12 -19 23 -31 34c-24 21 -62 44 -118 44 c-48 0 -84 -8 -113 -28c-28 -19 -42 -44 -42 -73v-16c2 -5 3 -9 4 -11c24 22 52 39 84 39zM585 -118c0 32 23 58 57 58c18 0 33 -6 40 -18c9 -15 16 -18 16 -40c0 -9 -2 -16 -5 -21c-6 -19 -27 -37 -51 -37c-34 0 -57 26 -57 58zM642 177c31 0 56 -27 56 -58 c0 -30 -25 -58 -56 -58l-23 3c-19 7 -34 32 -34 55l3 23c9 20 28 35 54 35z" />
		</symbol>
		<symbol id="E4E6" viewBox="0 0 1000 1000" overflow="inherit">
			<path transform="scale(1,-1)" d="M0 123c7 34 33 56 69 60c29 -3 43 -9 53 -29c4 -8 7 -15 10 -22c0 -21 -1 -25 -11 -35c-5 -8 -18 -14 -40 -20l12 -3l15 -1c44 0 97 26 122 56c10 11 18 26 24 42c7 1 15 2 22 3l-140 -424h-36l111 330c-10 -6 -27 -12 -53 -16l-52 -8h-10l-20 1c-1 0 -8 3 -21 6 c-37 9 -55 28 -55 60z" />
		</symbol>
	</defs>
	<style type="text/css">g.page-margin{font-family:Times;} g.tempo{font-weight:bold;} g.dir, g.dynam, g.mNum{font-style:italic;} g.label{font-weight:normal;}</style>
	<svg class="definition-scale" viewBox="0 0 21000 6000">
		<g class="page-margin" transform="translate(500, 500)">
			<g class="system" id="system-0000001882092184">
				<path d="M13 720 L13 4364" stroke="#000000" stroke-width="27" />
				<use xlink:href="#E003" x="-167" y="720" height="720px" width="720px" />
				<use xlink:href="#E004" x="-167" y="4364" height="720px" width="720px" />
				<rect x="-167" y="702" height="3680" width="90" />
				<g class="section boundaryStart" id="section-L1F1" />
				<g class="measure" id="measure-L4">
					<g class="staff" id="staff-L4F3N1">
						<path d="M0 720 L5752 720" stroke="#000000" stroke-width="13" />
						<path d="M0 900 L5752 900" stroke="#000000" stroke-width="13" />
						<path d="M0 1080 L5752 1080" stroke="#000000" stroke-width="13" />
						<path d="M0 1260 L5752 1260" stroke="#000000" stroke-width="13" />
						<path d="M0 1440 L5752 1440" stroke="#000000" stroke-width="13" />
						<g class="clef" id="clef-0000000159303660">
							<use xlink:href="#E050" x="90" y="1260" height="720px" width="720px" />
						</g>
						<g class="meterSig" id="msig-0000001651989458">
							<use xlink:href="#E082" x="771" y="900" height="720px" width="720px" />
							<use xlink:href="#E084" x="777" y="1260" height="720px" width="720px" />
						</g>
						<g class="ledgerLines above">
							<path d="M2937 540 L3216 540" stroke="#000000" stroke-width="22" />
						</g>
						<g class="layer" id="layer-L4F3N1">
							<g class="beam" id="beam-L5F3-L8F3">
								<polygon points="1639,1396 3405,1571 3405,1481 1639,1306 " />
								<polygon points="1639,1261 3405,1436 3405,1346 1639,1171 " />
								<g class="note" id="note-L5F3">
									<use xlink:href="#E0A4" x="1639" y="720" height="720px" width="720px" />
									<g class="stem">
										<rect x="1639" y="742" height="636" width="18" />
									</g>
									<g class="accid" id="accid-0000002060264632" />
								</g>
								<g class="note" id="note-L6F3">
									<use xlink:href="#E0A4" x="2303" y="720" height="720px" width="720px" />
									<g class="stem">
										<rect x="2303" y="742" height="703" width="18" />
									</g>
									<g class="accid" id="accid-0000001466461524" />
								</g>
								<g class="note" id="note-L7F3">
									<use xlink:href="#E0A4" x="2968" y="450" height="720px" width="720px" />
									<g class="stem">
										<rect x="2968" y="472" height="1039" width="18" />
									</g>
									<g class="accid" id="accid-0000000566971541">
										<use xlink:href="#E260" x="2772" y="450" height="720px" width="720px" />
									</g>
								</g>
								<g class="rest" id="rest-L8F3">
									<use xlink:href="#E4E7" x="3387" y="1080" height="720px" width="720px" />
								</g>
							</g>
							<g class="beam" id="beam-L9F3-L12F3">
								<polygon points="3807,1935 5319,1866 5319,1776 3807,1845 " />
								<polygon points="3807,1800 5319,1731 5319,1641 3807,1710 " />
								<g class="rest" id="rest-L9F3">
									<use xlink:href="#E4E7" x="3807" y="1080" height="720px" width="720px" />
								</g>
								<g class="note" id="note-L10F3">
									<use xlink:href="#E0A4" x="4226" y="990" height="720px" width="720px" />
									<g class="stem">
										<rect x="4226" y="1012" height="886" width="18" />
									</g>
									<g class="accid" id="accid-0000001266780063" />
								</g>
								<g class="note" id="note-L11F3">
									<use xlink:href="#E0A4" x="4891" y="810" height="720px" width="720px" />
									<g class="stem">
										<rect x="4891" y="832" height="1035" width="18" />
									</g>
									<g class="accid" id="accid-0000001183007478">
										<use xlink:href="#E260" x="4695" y="810" height="720px" width="720px" />
									</g>
								</g>
								<g class="rest" id="rest-L12F3">
									<use xlink:href="#E4E7" x="5301" y="1080" height="720px" width="720px" />
								</g>
							</g>
						</g>
					</g>
					<g class="staff" id="staff-L4F2N1">
						<path d="M0 2204 L5752 2204" stroke="#000000" stroke-width="13" />
						<path d="M0 2384 L5752 2384" stroke="#000000" stroke-width="13" />
						<path d="M0 2564 L5752 2564" stroke="#000000" stroke-width="13" />
						<path d="M0 2744 L5752 2744" stroke="#000000" stroke-width="13" />
						<path d="M0 2924 L5752 2924" stroke="#000000" stroke-width="13" />
						<g class="clef" id="clef-0000000170748543">
							<use xlink:href="#E050" x="90" y="2744" height="720px" width="720px" />
						</g>
						<g class="meterSig" id="msig-0000000732609809">
							<use xlink:href="#E082" x="771" y="2384" height="720px" width="720px" />
							<use xlink:href="#E084" x="777" y="2744" height="720px" width="720px" />
						</g>
						<g class="ledgerLines below">
							<path d="M4860 3104 L5139 3104" stroke="#000000" stroke-width="22" />
						</g>
						<g class="layer" id="layer-L4F2N1">
							<g class="beam" id="beam-L5F2-L8F2">
								<polygon points="1847,2079 3613,2160 3613,2250 1847,2169 " />
								<polygon points="1847,2214 3613,2295 3613,2385 1847,2304 " />
								<g class="note" id="note-L5F2">
									<use xlink:href="#E0A4" x="1639" y="2834" height="720px" width="720px" />
									<g class="stem">
										<rect x="1847" y="2097" height="715" width="18" />
									</g>
									<g class="accid" id="accid-0000001724270978" />
								</g>
								<g class="note" id="note-L6F2">
									<use xlink:href="#E0A4" x="2303" y="2924" height="720px" width="720px" />
									<g class="stem">
										<rect x="2511" y="2127" height="775" width="18" />
									</g>
									<g class="accid" id="accid-0000001300460392">
										<use xlink:href="#E260" x="2107" y="2924" height="720px" width="720px" />
									</g>
								</g>
								<g class="rest" id="rest-L7F2">
									<use xlink:href="#E4E7" x="2968" y="2924" height="720px" width="720px" />
								</g>
								<g class="note" id="note-L8F2">
									<use xlink:href="#E0A4" x="3387" y="2834" height="720px" width="720px" />
									<g class="stem">
										<rect x="3595" y="2178" height="634" width="18" />
									</g>
									<g class="accid" id="accid-0000001071678545" />
								</g>
							</g>
							<g class="beam" id="beam-L9F2-L12F2">
								<polygon points="4015,2070 5527,2220 5527,2310 4015,2160 " />
								<polygon points="4015,2205 5527,2355 5527,2445 4015,2295 " />
								<g class="note" id="note-L9F2">
									<use xlink:href="#E0A4" x="3807" y="2744" height="720px" width="720px" />
									<g class="stem">
										<rect x="4015" y="2088" height="634" width="18" />
									</g>
									<g class="accid" id="accid-0000000610378021" />
								</g>
								<g class="note" id="note-L10F2">
									<use xlink:href="#E0A4" x="4226" y="3014" height="720px" width="720px" />
									<g class="stem">
										<rect x="4434" y="2130" height="862" width="18" />
									</g>
									<g class="accid" id="accid-0000001747070451" />
								</g>
								<g class="note" id="note-L11F2">
									<use xlink:href="#E0A4" x="4891" y="3104" height="720px" width="720px" />
									<g class="stem">
										<rect x="5099" y="2197" height="885" width="18" />
									</g>
									<g class="accid" id="accid-0000001835720345" />
								</g>
								<g class="note" id="note-L12F2">
									<use xlink:href="#E0A4" x="5301" y="2924" height="720px" width="720px" />
									<g class="stem">
										<rect x="5509" y="2238" height="664" width="18" />
									</g>
									<g class="accid" id="accid-0000001783936234" />
								</g>
							</g>
						</g>
					</g>
					<g class="staff" id="staff-L4F1N1">
						<path d="M0 3644 L5752 3644" stroke="#000000" stroke-width="13" />
						<path d="M0 3824 L5752 3824" stroke="#000000" stroke-width="13" />
						<path d="M0 4004 L5752 4004" stroke="#000000" stroke-width="13" />
						<path d="M0 4184 L5752 4184" stroke="#000000" stroke-width="13" />
						<path d="M0 4364 L5752 4364" stroke="#000000" stroke-width="13" />
						<g class="clef" id="clef-0000001449311612">
							<use xlink:href="#E062" x="90" y="3824" height="720px" width="720px" />
						</g>
						<g class="meterSig" id="msig-0000001820738610">
							<use xlink:href="#E082" x="771" y="3824" height="720px" width="720px" />
							<use xlink:href="#E084" x="777" y="4184" height="720px" width="720px" />
						</g>
						<g class="layer" id="layer-L4F1N1">
							<g class="beam" id="beam-L5F1-L8F1">
								<polygon points="1639,4722 3405,4547 3405,4457 1639,4632 " />
								<polygon points="1639,4587 3405,4412 3405,4322 1639,4497 " />
								<g class="note" id="note-L5F1">
									<use xlink:href="#E0A4" x="1639" y="3914" height="720px" width="720px" />
									<g class="stem">
										<rect x="1639" y="3936" height="768" width="18" />
									</g>
									<g class="accid" id="accid-0000000231174607">
										<use xlink:href="#E260" x="1443" y="3914" height="720px" width="720px" />
									</g>
								</g>
								<g class="rest" id="rest-L6F1">
									<use xlink:href="#E4E7" x="2303" y="4004" height="720px" width="720px" />
								</g>
								<g class="note" id="note-L7F1">
									<use xlink:href="#E0A4" x="2968" y="3914" height="720px" width="720px" />
									<g class="stem">
										<rect x="2968" y="3936" height="635" width="18" />
									</g>
									<g class="accid" id="accid-0000000870901650" />
								</g>
								<g class="note" id="note-L8F1">
									<use xlink:href="#E0A4" x="3387" y="3734" height="720px" width="720px" />
									<g class="stem">
										<rect x="3387" y="3756" height="773" width="18" />
									</g>
									<g class="accid" id="accid-0000001570312878" />
								</g>
							</g>
							<g class="beam" id="beam-L9F1-L12F1">
								<polygon points="3807,4782 5319,4640 5319,4550 3807,4692 " />
								<polygon points="3807,4647 5319,4505 5319,4415 3807,4557 " />
								<g class="note" id="note-L9F1">
									<use xlink:href="#E0A4" x="3807" y="4004" height="720px" width="720px" />
									<g class="stem">
										<rect x="3807" y="4026" height="738" width="18" />
									</g>
									<g class="accid" id="accid-0000000275307198" />
								</g>
								<g class="rest" id="rest-L10F1">
									<use xlink:href="#E4E7" x="4226" y="4004" height="720px" width="720px" />
								</g>
								<g class="note" id="note-L11F1">
									<use xlink:href="#E0A4" x="4891" y="4004" height="720px" width="720px" />
									<g class="stem">
										<rect x="4891" y="4026" height="635" width="18" />
									</g>
									<g class="accid" id="accid-0000000101794606" />
								</g>
								<g class="note" id="note-L12F1">
									<use xlink:href="#E0A4" x="5301" y="3914" height="720px" width="720px" />
									<g class="stem">
										<rect x="5301" y="3936" height="686" width="18" />
									</g>
									<g class="accid" id="accid-0000000683211355" />
								</g>
							</g>
						</g>
					</g>
					<g class="mNum autogenerated" id="mnum-0000001606710917" />
					<g class="barLineAttr" id="bline-0000000135269138">
						<path d="M5739 1440 L5739 720" stroke="#000000" stroke-width="27" />
						<path d="M5739 2924 L5739 2204" stroke="#000000" stroke-width="27" />
						<path d="M5739 4364 L5739 3644" stroke="#000000" stroke-width="27" />
					</g>
				</g>
				<g class="measure" id="measure-L13">
					<g class="staff" id="staff-L13F3N1">
						<path d="M5752 720 L10072 720" stroke="#000000" stroke-width="13" />
						<path d="M5752 900 L10072 900" stroke="#000000" stroke-width="13" />
						<path d="M5752 1080 L10072 1080" stroke="#000000" stroke-width="13" />
						<path d="M5752 1260 L10072 1260" stroke="#000000" stroke-width="13" />
						<path d="M5752 1440 L10072 1440" stroke="#000000" stroke-width="13" />
						<g class="ledgerLines above">
							<path d="M7285 540 L7564 540" stroke="#000000" stroke-width="22" />
						</g>
						<g class="layer" id="layer-L13F3N1">
							<g class="beam" id="beam-L14F3-L17F3">
								<polygon points="5986,1575 7998,1375 7998,1285 5986,1485 " />
								<polygon points="5986,1440 7998,1240 7998,1150 5986,1350 " />
								<g class="note" id="note-L14F3">
									<use xlink:href="#E0A4" x="5986" y="900" height="720px" width="720px" />
									<g class="stem">
										<rect x="5986" y="922" height="635" width="18" />
									</g>
									<g class="accid" id="accid-0000001027950384" />
								</g>
								<g class="note" id="note-L15F3">
									<use xlink:href="#E0A4" x="6651" y="810" height="720px" width="720px" />
									<g class="stem">
										<rect x="6651" y="832" height="658" width="18" />
									</g>
									<g class="accid" id="accid-0000001787304223">
										<use xlink:href="#E260" x="6455" y="810" height="720px" width="720px" />
									</g>
								</g>
								<g class="note" id="note-L16F3">
									<use xlink:href="#E0A4" x="7316" y="450" height="720px" width="720px" />
									<g class="stem">
										<rect x="7316" y="472" height="952" width="18" />
									</g>
									<g class="accid" id="accid-0000000498990059">
										<use xlink:href="#E260" x="7120" y="450" height="720px" width="720px" />
									</g>
								</g>
								<g class="note" id="note-L17F3">
									<use xlink:href="#E0A4" x="7980" y="630" height="720px" width="720px" />
									<g class="stem">
										<rect x="7980" y="652" height="705" width="18" />
									</g>
									<g class="accid" id="accid-0000001430842635" />
								</g>
							</g>
							<g class="beam" id="beam-L18F3-L20F3">
								<polygon points="8391,1534 9229,1616 9229,1526 8391,1444 " />
								<polygon points="8391,1399 8810,1440 8810,1350 8391,1309 " />
								<g class="note" id="note-L18F3">
									<use xlink:href="#E0A4" x="8391" y="810" height="720px" width="720px" />
									<g class="stem">
										<rect x="8391" y="832" height="684" width="18" />
									</g>
									<g class="accid" id="accid-0000000492987785" />
								</g>
								<g class="note" id="note-L19F3">
									<use xlink:href="#E0A4" x="8801" y="900" height="720px" width="720px" />
									<g class="stem">
										<rect x="8801" y="922" height="635" width="18" />
									</g>
									<g class="accid" id="accid-0000001762007731" />
								</g>
								<g class="rest" id="rest-L20F3">
									<use xlink:href="#E4E6" x="9211" y="1080" height="720px" width="720px" />
								</g>
							</g>
						</g>
					</g>
					<g class="staff" id="staff-L13F2N1">
						<path d="M5752 2204 L10072 2204" stroke="#000000" stroke-width="13" />
						<path d="M5752 2384 L10072 2384" stroke="#000000" stroke-width="13" />
						<path d="M5752 2564 L10072 2564" stroke="#000000" stroke-width="13" />
						<path d="M5752 2744 L10072 2744" stroke="#000000" stroke-width="13" />
						<path d="M5752 2924 L10072 2924" stroke="#000000" stroke-width="13" />
						<g class="layer" id="layer-L13F2N1">
							<g class="beam" id="beam-L14F2-L17F2">
								<polygon points="6194,2069 8206,2069 8206,2159 6194,2159 " />
								<polygon points="7533,2204 8206,2204 8206,2294 7533,2294 " />
								<g class="rest" id="rest-L14F2">
									<use xlink:href="#E4E6" x="5986" y="2564" height="720px" width="720px" />
								</g>
								<g class="note" id="note-L16F2">
									<use xlink:href="#E0A4" x="7316" y="2744" height="720px" width="720px" />
									<g class="stem">
										<rect x="7524" y="2087" height="635" width="18" />
									</g>
									<g class="accid" id="accid-0000001013295545" />
								</g>
								<g class="note" id="note-L17F2">
									<use xlink:href="#E0A4" x="7980" y="2744" height="720px" width="720px" />
									<g class="stem">
										<rect x="8188" y="2087" height="635" width="18" />
									</g>
									<g class="accid" id="accid-0000001556118567" />
								</g>
							</g>
							<g class="beam" id="beam-L18F2-L20F2">
								<polygon points="8599,2111 9437,2029 9437,2119 8599,2201 " />
								<polygon points="8599,2246 9018,2205 9018,2295 8599,2336 " />
								<g class="note" id="note-L18F2">
									<use xlink:href="#E0A4" x="8391" y="2834" height="720px" width="720px" />
									<g class="stem">
										<rect x="8599" y="2129" height="683" width="18" />
									</g>
									<g class="accid" id="accid-0000000411690654" />
								</g>
								<g class="note" id="note-L19F2">
									<use xlink:href="#E0A4" x="8801" y="2744" height="720px" width="720px" />
									<g class="stem">
										<rect x="9009" y="2088" height="634" width="18" />
									</g>
									<g class="accid" id="accid-0000000056636780" />
								</g>
								<g class="rest" id="rest-L20F2">
									<use xlink:href="#E4E6" x="9211" y="2564" height="720px" width="720px" />
								</g>
							</g>
						</g>
					</g>
					<g class="staff" id="staff-L13F1N1">
						<path d="M5752 3644 L10072 3644" stroke="#000000" stroke-width="13" />
						<path d="M5752 3824 L10072 3824" stroke="#000000" stroke-width="13" />
						<path d="M5752 4004 L10072 4004" stroke="#000000" stroke-width="13" />
						<path d="M5752 4184 L10072 4184" stroke="#000000" stroke-width="13" />
						<path d="M5752 4364 L10072 4364" stroke="#000000" stroke-width="13" />
						<g class="layer" id="layer-L13F1N1">
							<g class="beam" id="beam-L14F1-L17F1">
								<polygon points="5986,4535 7998,4589 7998,4499 5986,4445 " />
								<polygon points="5986,4400 7998,4454 7998,4364 5986,4310 " />
								<g class="note" id="note-L14F1">
									<use xlink:href="#E0A4" x="5986" y="3824" height="720px" width="720px" />
									<g class="stem">
										<rect x="5986" y="3846" height="671" width="18" />
									</g>
									<g class="accid" id="accid-0000000569175639" />
								</g>
								<g class="note" id="note-L15F1">
									<use xlink:href="#E0A4" x="6651" y="3824" height="720px" width="720px" />
									<g class="stem">
										<rect x="6651" y="3846" height="689" width="18" />
									</g>
									<g class="accid" id="accid-0000001329363823" />
								</g>
								<g class="note" id="note-L16F1">
									<use xlink:href="#E0A4" x="7316" y="3734" height="720px" width="720px" />
									<g class="stem">
										<rect x="7316" y="3756" height="797" width="18" />
									</g>
									<g class="accid" id="accid-0000001964869255" />
								</g>
								<g class="note" id="note-L17F1">
									<use xlink:href="#E0A4" x="7980" y="3914" height="720px" width="720px" />
									<g class="stem">
										<rect x="7980" y="3936" height="635" width="18" />
									</g>
									<g class="accid" id="accid-0000001703407410">
										<use xlink:href="#E260" x="7784" y="3914" height="720px" width="720px" />
									</g>
								</g>
							</g>
							<g class="beam" id="beam-L18F1-L21F1">
								<polygon points="8391,4859 9639,4821 9639,4731 8391,4769 " />
								<polygon points="9220,4699 9639,4686 9639,4596 9220,4609 " />
								<g class="rest" id="rest-L18F1">
									<use xlink:href="#E4E6" x="8391" y="4004" height="720px" width="720px" />
								</g>
								<g class="note" id="note-L20F1">
									<use xlink:href="#E0A4" x="9211" y="4004" height="720px" width="720px" />
									<g class="stem">
										<rect x="9211" y="4026" height="790" width="18" />
									</g>
									<g class="accid" id="accid-0000000678349429" />
								</g>
								<g class="rest" id="rest-L21F1">
									<use xlink:href="#E4E7" x="9621" y="4004" height="720px" width="720px" />
								</g>
							</g>
						</g>
					</g>
					<g class="mNum autogenerated" id="mnum-0000000445942933" />
					<g class="barLineAttr" id="bline-0000001886052666">
						<path d="M10059 1440 L10059 720" stroke="#000000" stroke-width="27" />
						<path d="M10059 2924 L10059 2204" stroke="#000000" stroke-width="27" />
						<path d="M10059 4364 L10059 3644" stroke="#000000" stroke-width="27" />
					</g>
				</g>
				<g class="measure" id="measure-L22">
					<g class="staff" id="staff-L22F3N1">
						<path d="M10072 720 L15428 720" stroke="#000000" stroke-width="13" />
						<path d="M10072 900 L15428 900" stroke="#000000" stroke-width="13" />
						<path d="M10072 1080 L15428 1080" stroke="#000000" stroke-width="13" />
						<path d="M10072 1260 L15428 1260" stroke="#000000" stroke-width="13" />
						<path d="M10072 1440 L15428 1440" stroke="#000000" stroke-width="13" />
						<g class="ledgerLines above">
							<path d="M11868 540 L12147 540" stroke="#000000" stroke-width="22" />
							<path d="M11868 360 L12147 360" stroke="#000000" stroke-width="22" />
						</g>
						<g class="layer" id="layer-L22F3N1">
							<g class="beam" id="beam-L23F3-L26F3">
								<polygon points="10561,1396 12582,1449 12582,1359 10561,1306 " />
								<polygon points="10561,1261 12582,1314 12582,1224 10561,1171 " />
								<g class="note" id="note-L23F3">
									<use xlink:href="#E0A4" x="10561" y="720" height="720px" width="720px" />
									<g class="stem">
										<rect x="10561" y="742" height="636" width="18" />
									</g>
									<g class="accid" id="accid-0000001301074580" />
								</g>
								<g class="note" id="note-L24F3">
									<use xlink:href="#E0A4" x="11225" y="720" height="720px" width="720px" />
									<g class="stem">
										<rect x="11225" y="742" height="653" width="18" />
									</g>
									<g class="accid" id="accid-0000000993209036" />
								</g>
								<g class="note" id="note-L25F3">
									<use xlink:href="#E0A4" x="11899" y="360" height="720px" width="720px" />
									<g class="stem">
										<rect x="11899" y="382" height="1031" width="18" />
									</g>
									<g class="accid" id="accid-0000001630469171" />
								</g>
								<g class="rest" id="rest-L26F3">
									<use xlink:href="#E4E7" x="12564" y="720" height="720px" width="720px" />
								</g>
							</g>
							<g class="beam" id="beam-L27F3-L30F3">
								<polygon points="13229,1935 14995,1853 14995,1763 13229,1845 " />
								<polygon points="13229,1800 14995,1718 14995,1628 13229,1710 " />
								<g class="rest" id="rest-L27F3">
									<use xlink:href="#E4E7" x="13229" y="1080" height="720px" width="720px" />
								</g>
								<g class="note" id="note-L28F3">
									<use xlink:href="#E0A4" x="13902" y="900" height="720px" width="720px" />
									<g class="stem">
										<rect x="13902" y="922" height="963" width="18" />
									</g>
									<g class="accid" id="accid-0000001974352945">
										<use xlink:href="#E260" x="13706" y="900" height="720px" width="720px" />
									</g>
								</g>
								<g class="note" id="note-L29F3">
									<use xlink:href="#E0A4" x="14567" y="810" height="720px" width="720px" />
									<g class="stem">
										<rect x="14567" y="832" height="1022" width="18" />
									</g>
									<g class="accid" id="accid-0000000857375012">
										<use xlink:href="#E260" x="14371" y="810" height="720px" width="720px" />
									</g>
								</g>
								<g class="rest" id="rest-L30F3">
									<use xlink:href="#E4E7" x="14977" y="1080" height="720px" width="720px" />
								</g>
							</g>
						</g>
					</g>
					<g class="staff" id="staff-L22F2N1">
						<path d="M10072 2204 L15428 2204" stroke="#000000" stroke-width="13" />
						<path d="M10072 2384 L15428 2384" stroke="#000000" stroke-width="13" />
						<path d="M10072 2564 L15428 2564" stroke="#000000" stroke-width="13" />
						<path d="M10072 2744 L15428 2744" stroke="#000000" stroke-width="13" />
						<path d="M10072 2924 L15428 2924" stroke="#000000" stroke-width="13" />
						<g class="ledgerLines below">
							<path d="M14536 3104 L14815 3104" stroke="#000000" stroke-width="22" />
						</g>
						<g class="layer" id="layer-L22F2N1">
							<g class="beam" id="beam-L23F2-L26F2">
								<polygon points="10769,2105 12790,2160 12790,2250 10769,2195 " />
								<polygon points="10769,2240 12790,2295 12790,2385 10769,2330 " />
								<g class="note" id="note-L23F2">
									<use xlink:href="#E0A4" x="10561" y="2834" height="720px" width="720px" />
									<g class="stem">
										<rect x="10769" y="2123" height="689" width="18" />
									</g>
									<g class="accid" id="accid-0000000011932919" />
								</g>
								<g class="note" id="note-L24F2">
									<use xlink:href="#E0A4" x="11225" y="2924" height="720px" width="720px" />
									<g class="stem">
										<rect x="11433" y="2141" height="761" width="18" />
									</g>
									<g class="accid" id="accid-0000001656464868">
										<use xlink:href="#E260" x="11029" y="2924" height="720px" width="720px" />
									</g>
								</g>
								<g class="rest" id="rest-L25F2">
									<use xlink:href="#E4E7" x="11899" y="2924" height="720px" width="720px" />
								</g>
								<g class="note" id="note-L26F2">
									<use xlink:href="#E0A4" x="12564" y="2834" height="720px" width="720px" />
									<g class="stem">
										<rect x="12772" y="2178" height="634" width="18" />
									</g>
									<g class="accid" id="accid-0000000622540874" />
								</g>
							</g>
							<g class="beam" id="beam-L27F2-L30F2">
								<polygon points="13437,1980 15203,2155 15203,2245 13437,2070 " />
								<polygon points="13437,2115 15203,2290 15203,2380 13437,2205 " />
								<g class="note" id="note-L27F2">
									<use xlink:href="#E0A4" x="13229" y="2654" height="720px" width="720px" />
									<g class="stem">
										<rect x="13437" y="1998" height="634" width="18" />
									</g>
									<g class="accid" id="accid-0000001456740343">
										<use xlink:href="#E260" x="13033" y="2654" height="720px" width="720px" />
									</g>
								</g>
								<g class="note" id="note-L28F2">
									<use xlink:href="#E0A4" x="13902" y="3014" height="720px" width="720px" />
									<g class="stem">
										<rect x="14110" y="2066" height="926" width="18" />
									</g>
									<g class="accid" id="accid-0000001325292313">
										<use xlink:href="#E260" x="13706" y="3014" height="720px" width="720px" />
									</g>
								</g>
								<g class="note" id="note-L29F2">
									<use xlink:href="#E0A4" x="14567" y="3194" height="720px" width="720px" />
									<g class="stem">
										<rect x="14775" y="2132" height="1040" width="18" />
									</g>
									<g class="accid" id="accid-0000001063349644">
										<use xlink:href="#E260" x="14371" y="3194" height="720px" width="720px" />
									</g>
								</g>
								<g class="note" id="note-L30F2">
									<use xlink:href="#E0A4" x="14977" y="2924" height="720px" width="720px" />
									<g class="stem">
										<rect x="15185" y="2173" height="729" width="18" />
									</g>
									<g class="accid" id="accid-0000000417864336" />
								</g>
							</g>
						</g>
					</g>
					<g class="staff" id="staff-L22F1N1">
						<path d="M10072 3644 L15428 3644" stroke="#000000" stroke-width="13" />
						<path d="M10072 3824 L15428 3824" stroke="#000000" stroke-width="13" />
						<path d="M10072 4004 L15428 4004" stroke="#000000" stroke-width="13" />
						<path d="M10072 4184 L15428 4184" stroke="#000000" stroke-width="13" />
						<path d="M10072 4364 L15428 4364" stroke="#000000" stroke-width="13" />
						<g class="layer" id="layer-L22F1N1">
							<g class="beam" id="beam-L23F1-L26F1">
								<polygon points="10561,4949 12582,4748 12582,4658 10561,4859 " />
								<polygon points="10561,4814 12582,4613 12582,4523 10561,4724 " />
								<g class="note" id="note-L23F1">
									<use xlink:href="#E0A4" x="10561" y="4274" height="720px" width="720px" />
									<g class="stem">
										<rect x="10561" y="4296" height="635" width="18" />
									</g>
									<g class="accid" id="accid-0000001940875211">
										<use xlink:href="#E260" x="10365" y="4274" height="720px" width="720px" />
									</g>
								</g>
								<g class="rest" id="rest-L24F1">
									<use xlink:href="#E4E7" x="11225" y="4004" height="720px" width="720px" />
								</g>
								<g class="note" id="note-L25F1">
									<use xlink:href="#E0A4" x="11899" y="3914" height="720px" width="720px" />
									<g class="stem">
										<rect x="11899" y="3936" height="861" width="18" />
									</g>
									<g class="accid" id="accid-0000000317844970">
										<use xlink:href="#E260" x="11703" y="3914" height="720px" width="720px" />
									</g>
								</g>
								<g class="note" id="note-L26F1">
									<use xlink:href="#E0A4" x="12564" y="3644" height="720px" width="720px" />
									<g class="stem">
										<rect x="12564" y="3666" height="1064" width="18" />
									</g>
									<g class="accid" id="accid-0000000700575802">
										<use xlink:href="#E260" x="12368" y="3644" height="720px" width="720px" />
									</g>
								</g>
							</g>
							<g class="beam" id="beam-L27F1-L30F1">
								<polygon points="13229,4771 14995,4651 14995,4561 13229,4681 " />
								<polygon points="13229,4636 14995,4516 14995,4426 13229,4546 " />
								<g class="note" id="note-L27F1">
									<use xlink:href="#E0A4" x="13229" y="4004" height="720px" width="720px" />
									<g class="stem">
										<rect x="13229" y="4026" height="727" width="18" />
									</g>
									<g class="accid" id="accid-0000001271855358">
										<use xlink:href="#E260" x="13033" y="4004" height="720px" width="720px" />
									</g>
								</g>
								<g class="rest" id="rest-L28F1">
									<use xlink:href="#E4E7" x="13902" y="4004" height="720px" width="720px" />
								</g>
								<g class="note" id="note-L29F1">
									<use xlink:href="#E0A4" x="14567" y="4004" height="720px" width="720px" />
									<g class="stem">
										<rect x="14567" y="4026" height="635" width="18" />
									</g>
									<g class="accid" id="accid-0000001217772115" />
								</g>
								<g class="note" id="note-L30F1">
									<use xlink:href="#E0A4" x="14977" y="3914" height="720px" width="720px" />
									<g class="stem">
										<rect x="14977" y="3936" height="697" width="18" />
									</g>
									<g class="accid" id="accid-0000001008298285" />
								</g>
							</g>
						</g>
					</g>
					<g class="mNum autogenerated" id="mnum-0000000096413808" />
					<g class="barLineAttr" id="bline-0000000540772537">
						<path d="M15415 1440 L15415 720" stroke="#000000" stroke-width="27" />
						<path d="M15415 2924 L15415 2204" stroke="#000000" stroke-width="27" />
						<path d="M15415 4364 L15415 3644" stroke="#000000" stroke-width="27" />
					</g>
				</g>
				<g class="measure" id="measure-L31">
					<g class="staff" id="staff-L31F3N1">
						<path d="M15428 720 L20002 720" stroke="#000000" stroke-width="13" />
						<path d="M15428 900 L20002 900" stroke="#000000" stroke-width="13" />
						<path d="M15428 1080 L20002 1080" stroke="#000000" stroke-width="13" />
						<path d="M15428 1260 L20002 1260" stroke="#000000" stroke-width="13" />
						<path d="M15428 1440 L20002 1440" stroke="#000000" stroke-width="13" />
						<g class="ledgerLines above">
							<path d="M17215 540 L17494 540" stroke="#000000" stroke-width="22" />
							<path d="M17880 540 L18159 540" stroke="#000000" stroke-width="22" />
							<path d="M17215 360 L17494 360" stroke="#000000" stroke-width="22" />
						</g>
						<g class="layer" id="layer-L31F3N1">
							<g class="beam" id="beam-L32F3-L35F3">
								<polygon points="15917,1755 17929,1555 17929,1465 15917,1665 " />
								<polygon points="15917,1620 17929,1420 17929,1330 15917,1530 " />
								<g class="note" id="note-L32F3">
									<use xlink:href="#E0A4" x="15917" y="1080" height="720px" width="720px" />
									<g class="stem">
										<rect x="15917" y="1102" height="635" width="18" />
									</g>
									<g class="accid" id="accid-0000001618493617">
										<use xlink:href="#E260" x="15721" y="1080" height="720px" width="720px" />
									</g>
								</g>
								<g class="note" id="note-L33F3">
									<use xlink:href="#E0A4" x="16581" y="810" height="720px" width="720px" />
									<g class="stem">
										<rect x="16581" y="832" height="838" width="18" />
									</g>
									<g class="accid" id="accid-0000001082359343">
										<use xlink:href="#E260" x="16385" y="810" height="720px" width="720px" />
									</g>
								</g>
								<g class="note" id="note-L34F3">
									<use xlink:href="#E0A4" x="17246" y="360" height="720px" width="720px" />
									<g class="stem">
										<rect x="17246" y="382" height="1222" width="18" />
									</g>
									<g class="accid" id="accid-0000002049366416" />
								</g>
								<g class="note" id="note-L35F3">
									<use xlink:href="#E0A4" x="17911" y="540" height="720px" width="720px" />
									<g class="stem">
										<rect x="17911" y="562" height="975" width="18" />
									</g>
									<g class="accid" id="accid-0000000978238709">
										<use xlink:href="#E260" x="17715" y="540" height="720px" width="720px" />
									</g>
								</g>
							</g>
							<g class="beam" id="beam-L36F3-L38F3">
								<polygon points="18321,1714 19160,1797 19160,1707 18321,1624 " />
								<polygon points="18321,1579 18740,1620 18740,1530 18321,1489 " />
								<g class="note" id="note-L36F3">
									<use xlink:href="#E0A4" x="18321" y="810" height="720px" width="720px" />
									<g class="stem">
										<rect x="18321" y="832" height="864" width="18" />
									</g>
									<g class="accid" id="accid-0000001927577779" />
								</g>
								<g class="note" id="note-L37F3">
									<use xlink:href="#E0A4" x="18731" y="1080" height="720px" width="720px" />
									<g class="stem">
										<rect x="18731" y="1102" height="635" width="18" />
									</g>
									<g class="accid" id="accid-0000001124372872" />
								</g>
								<g class="rest" id="rest-L38F3">
									<use xlink:href="#E4E6" x="19142" y="1080" height="720px" width="720px" />
								</g>
							</g>
						</g>
					</g>
					<g class="staff" id="staff-L31F2N1">
						<path d="M15428 2204 L20002 2204" stroke="#000000" stroke-width="13" />
						<path d="M15428 2384 L20002 2384" stroke="#000000" stroke-width="13" />
						<path d="M15428 2564 L20002 2564" stroke="#000000" stroke-width="13" />
						<path d="M15428 2744 L20002 2744" stroke="#000000" stroke-width="13" />
						<path d="M15428 2924 L20002 2924" stroke="#000000" stroke-width="13" />
						<g class="layer" id="layer-L31F2N1">
							<g class="beam" id="beam-L32F2-L35F2">
								<polygon points="16125,2044 18137,1948 18137,2038 16125,2134 " />
								<polygon points="17463,2115 18137,2083 18137,2173 17463,2205 " />
								<g class="rest" id="rest-L32F2">
									<use xlink:href="#E4E6" x="15917" y="2564" height="720px" width="720px" />
								</g>
								<g class="note" id="note-L34F2">
									<use xlink:href="#E0A4" x="17246" y="2654" height="720px" width="720px" />
									<g class="stem">
										<rect x="17454" y="1998" height="634" width="18" />
									</g>
									<g class="accid" id="accid-0000000526604938">
										<use xlink:href="#E260" x="17050" y="2654" height="720px" width="720px" />
									</g>
								</g>
								<g class="note" id="note-L35F2">
									<use xlink:href="#E0A4" x="17911" y="2654" height="720px" width="720px" />
									<g class="stem">
										<rect x="18119" y="1966" height="666" width="18" />
									</g>
									<g class="accid" id="accid-0000001653109706" />
								</g>
							</g>
							<g class="beam" id="beam-L36F2-L38F2">
								<polygon points="18529,2021 19368,1939 19368,2029 18529,2111 " />
								<polygon points="18529,2156 18948,2115 18948,2205 18529,2246 " />
								<g class="note" id="note-L36F2">
									<use xlink:href="#E0A4" x="18321" y="2834" height="720px" width="720px" />
									<g class="stem">
										<rect x="18529" y="2039" height="773" width="18" />
									</g>
									<g class="accid" id="accid-0000000055548214" />
								</g>
								<g class="note" id="note-L37F2">
									<use xlink:href="#E0A4" x="18731" y="2654" height="720px" width="720px" />
									<g class="stem">
										<rect x="18939" y="1998" height="634" width="18" />
									</g>
									<g class="accid" id="accid-0000000439940503" />
								</g>
								<g class="rest" id="rest-L38F2">
									<use xlink:href="#E4E6" x="19142" y="2564" height="720px" width="720px" />
								</g>
							</g>
						</g>
					</g>
					<g class="staff" id="staff-L31F1N1">
						<path d="M15428 3644 L20002 3644" stroke="#000000" stroke-width="13" />
						<path d="M15428 3824 L20002 3824" stroke="#000000" stroke-width="13" />
						<path d="M15428 4004 L20002 4004" stroke="#000000" stroke-width="13" />
						<path d="M15428 4184 L20002 4184" stroke="#000000" stroke-width="13" />
						<path d="M15428 4364 L20002 4364" stroke="#000000" stroke-width="13" />
						<g class="layer" id="layer-L31F1N1">
							<g class="beam" id="beam-L32F1-L35F1">
								<polygon points="15917,4562 17929,4589 17929,4499 15917,4472 " />
								<polygon points="15917,4427 17929,4454 17929,4364 15917,4337 " />
								<g class="note" id="note-L32F1">
									<use xlink:href="#E0A4" x="15917" y="3824" height="720px" width="720px" />
									<g class="stem">
										<rect x="15917" y="3846" height="698" width="18" />
									</g>
									<g class="accid" id="accid-0000001223315758" />
								</g>
								<g class="note" id="note-L33F1">
									<use xlink:href="#E0A4" x="16581" y="3824" height="720px" width="720px" />
									<g class="stem">
										<rect x="16581" y="3846" height="707" width="18" />
									</g>
									<g class="accid" id="accid-0000000017181639" />
								</g>
								<g class="note" id="note-L34F1">
									<use xlink:href="#E0A4" x="17246" y="3644" height="720px" width="720px" />
									<g class="stem">
										<rect x="17246" y="3666" height="896" width="18" />
									</g>
									<g class="accid" id="accid-0000001698089113">
										<use xlink:href="#E260" x="17050" y="3644" height="720px" width="720px" />
									</g>
								</g>
								<g class="note" id="note-L35F1">
									<use xlink:href="#E0A4" x="17911" y="3914" height="720px" width="720px" />
									<g class="stem">
										<rect x="17911" y="3936" height="635" width="18" />
									</g>
									<g class="accid" id="accid-0000002134622542">
										<use xlink:href="#E260" x="17715" y="3914" height="720px" width="720px" />
									</g>
								</g>
							</g>
							<g class="beam" id="beam-L36F1-L39F1">
								<polygon points="18321,4859 19570,4821 19570,4731 18321,4769 " />
								<polygon points="19151,4698 19570,4686 19570,4596 19151,4608 " />
								<g class="rest" id="rest-L36F1">
									<use xlink:href="#E4E6" x="18321" y="4004" height="720px" width="720px" />
								</g>
								<g class="note" id="note-L38F1">
									<use xlink:href="#E0A4" x="19142" y="4004" height="720px" width="720px" />
									<g class="stem">
										<rect x="19142" y="4026" height="789" width="18" />
									</g>
									<g class="accid" id="accid-0000001063151866">
										<use xlink:href="#E260" x="18946" y="4004" height="720px" width="720px" />
									</g>
								</g>
								<g class="rest" id="rest-L39F1">
									<use xlink:href="#E4E7" x="19552" y="4004" height="720px" width="720px" />
								</g>
							</g>
						</g>
					</g>
					<g class="mNum autogenerated" id="mnum-0000000109049019" />
					<g class="barLineAttr" id="bline-0000000025168608">
						<path d="M19989 1440 L19989 720" stroke="#000000" stroke-width="27" />
						<path d="M19989 2924 L19989 2204" stroke="#000000" stroke-width="27" />
						<path d="M19989 4364 L19989 3644" stroke="#000000" stroke-width="27" />
					</g>
				</g>
			</g>
		</g>
	</svg>
</svg>
