<?xml version="1.0" encoding="UTF-8" standalone="no"?>
<svg width="2100.00px" height="600.00px" version="1.1" xmlns="http://www.w3.org/2000/svg" xmlns:xlink="http://www.w3.org/1999/xlink" overflow="visible">
	<desc>Engraved by Verovio 2.0.0-dev-0f0381c</desc>
	<defs>
		<symbol id="E003" viewBox="0 0 1000 1000" overflow="inherit">
			<path transform="scale(1,-1)" d="M0 -0c49 0 97.5 -2.26367 135.5 4.73633c206 95 258.5 264.264 263.5 271.264c0 1 -14 7 -15 6c-88 -154 -251 -167 -321 -170c-1 0 -63 -1 -63 -1v-111z" />
		</symbol>
		<symbol id="E004" viewBox="0 0 1000 1000" overflow="inherit">
			<path transform="scale(1,-1)" d="M0 0c49 0 97.5 2.26367 135.5 -4.73633c206 -95 258.5 -264.264 263.5 -271.264c0 -1 -14 -7 -15 -6c-88 154 -251 167 -321 170c-1 0 -63 1 -63 1v111z" />
		</symbol>
		<symbol id="E050" viewBox="0 0 1000 1000" overflow="inherit">
			<path transform="scale(1,-1)" d="M441 -245c-23 -4 -48 -6 -76 -6c-59 0 -102 7 -130 20c-88 42 -150 93 -187 154c-26 44 -43 103 -48 176c-4 60 11 123 44 189c29 57 65 106 110 148s96 85 153 127c-3 16 -8 46 -13 92c-4 43 -5 73 -5 89c0 117 16 172 69 257c34 54 64 82 89 82c21 0 43 -30 69 -92 s39 -115 41 -159c2 -120 -19 -173 -67 -256c-13 -20 -63 -90 -98 -118c-13 -9 -25 -19 -37 -29l31 -181c8 1 18 2 28 2c58 0 102 -12 133 -35c59 -43 92 -104 98 -184c11 -135 -80 -229 -180 -270c8 -57 17 -110 25 -162c5 -31 6 -58 6 -80c0 -30 -5 -53 -14 -70 c-35 -64 -88 -99 -158 -103c-42 -3 -83 6 -124 26c-50 24 -77 59 -80 105c-2 34 5 63 20 87c18 28 45 42 79 44c51 4 99 -40 103 -87c4 -56 -30 -94 -105 -115c17 -24 51 -36 102 -36c62 0 116 43 140 85c9 16 13 41 13 74c0 20 -1 42 -5 67c-8 53 -18 106 -26 159zM461 939 c-95 0 -135 -175 -135 -286c0 -24 2 -48 5 -71c50 39 92 82 127 128c43 57 63 106 60 148c-4 54 -23 82 -57 81zM406 119l54 -326c80 27 116 88 109 184c-7 99 -62 146 -163 142zM382 117c-74 -2 -132 -50 -128 -127c2 -46 43 -99 75 -115c-3 -2 -7 -5 -10 -10 c-70 33 -116 88 -123 172c-5 73 42 135 88 170c23 17 49 29 78 36l-29 170c-21 -13 -52 -37 -92 -73c-50 -44 -86 -84 -109 -119c-49 -75 -71 -140 -67 -195c5 -68 35 -127 93 -176s125 -73 203 -73c25 0 50 3 75 9c-19 111 -36 221 -54 331z" />
		</symbol>
		<symbol id="E082" viewBox="0 0 1000 1000" overflow="inherit">
			<path transform="scale(1,-1)" d="M104 -185c-18 0 -55 -14 -65 -65h-36l-3 29c0 25 6 46 18 64c11 19 22 30 39 43l121 82l37 29c15 11 27 29 38 54c12 24 18 47 18 70c0 40 -19 88 -94 88c-25 0 -32 0 -50 -8c-14 -5 -23 -12 -26 -22c3 -9 7 -15 10 -18l24 -17c12 -7 17 -11 27 -21c5 -7 7 -16 7 -27 c0 -12 0 -57 -79 -74c-30 0 -76 26 -76 94c0 66 80 135 196 135c72 0 182 -32 182 -150c0 -53 -32 -95 -113 -133l-91 -41c-26 -11 -45 -23 -57 -37l49 7c84 0 115 -41 148 -41c20 0 33 20 39 61h35c0 -152 -68 -168 -114 -168c-17 0 -55 0 -69 7v0l-28 17 c-49 37 -69 40 -87 42z" />
		</symbol>
		<symbol id="E084" viewBox="0 0 1000 1000" overflow="inherit">
			<path transform="scale(1,-1)" d="M0 -78c84 97 114 180 134 329h170c-13 -32 -82 -132 -99 -151l-84 -97c-33 -36 -59 -63 -80 -81h162v102l127 123v-225h57v-39h-57v-34c0 -43 19 -65 57 -65v-34h-244v36c48 0 60 26 60 70v27h-203v39z" />
		</symbol>
		<symbol id="E0A4" viewBox="0 0 1000 1000" overflow="inherit">
			<path transform="scale(1,-1)" d="M0 -39c0 68 73 172 200 172c66 0 114 -37 114 -95c0 -84 -106 -171 -218 -171c-64 0 -96 30 -96 94z" />
		</symbol>
		<symbol id="E260" viewBox="0 0 1000 1000" overflow="inherit">
			<path transform="scale(1,-1)" d="M20 110c32 16 54 27 93 27c26 0 35 -3 54 -13c13 -7 24 -20 27 -38l4 -25c0 -28 -16 -57 -45 -89c-23 -25 -39 -44 -65 -68l-88 -79v644h20v-359zM90 106c-32 0 -48 -10 -70 -29v-194c31 31 54 59 71 84c21 32 32 59 32 84c0 9 1 16 1 20c0 14 -3 21 -11 30l-8 3z" />
		</symbol>
		<symbol id="E4E7" viewBox="0 0 1000 1000" overflow="inherit">
			<path transform="scale(1,-1)" d="M133 -111c-16 38 -21 43 -64 51c-37 -4 -60 -25 -68 -60c0 -32 18 -52 55 -58c8 -6 22 -10 43 -10c31 0 62 7 82 20l-108 -324h37c72 220 143 439 215 659h-4l-10 -2l-7 -1c-15 -35 -27 -52 -59 -71c-26 -15 -56 -27 -88 -29c-11 0 -20 2 -26 6c29 3 56 25 51 56 c-15 35 -19 42 -64 48c-38 -4 -60 -23 -68 -58c0 -32 18 -52 55 -59c7 -5 22 -8 45 -8c48 0 76 7 112 25l-66 -197c-21 -23 -50 -47 -90 -47c-7 0 -15 1 -25 4c31 5 52 22 52 55z" />
		</symbol>
		<symbol id="E4E6" viewBox="0 0 1000 1000" overflow="inherit">
			<path transform="scale(1,-1)" d="M0 123c7 34 33 56 69 60c29 -3 43 -9 53 -29c4 -8 7 -15 10 -22c0 -21 -1 -25 -11 -35c-5 -8 -18 -14 -40 -20l12 -3l15 -1c44 0 97 26 122 56c10 11 18 26 24 42c7 1 15 2 22 3l-140 -424h-36l111 330c-10 -6 -27 -12 -53 -16l-52 -8h-10l-20 1c-1 0 -8 3 -21 6 c-37 9 -55 28 -55 60z" />
		</symbol>
		<symbol id="E062" viewBox="0 0 1000 1000" overflow="inherit">
			<path transform="scale(1,-1)" d="M158 96c51 0 73 -14 88 -49l16 -39c0 -17 -2 -30 -7 -40c-3 -11 -10 -21 -19 -31c-17 -18 -49 -43 -84 -43c-55 0 -77 13 -112 44c-24 21 -35 55 -35 100c0 46 14 81 32 112c30 52 71 79 137 93l36 6l26 2c154 0 235 -68 274 -182c11 -32 18 -68 18 -107 c0 -103 -26 -182 -68 -250c-89 -145 -234 -230 -412 -288l-30 -5c-9 0 -14 3 -14 8c3 10 5 11 10 16c35 15 70 30 96 44l78 43c96 57 162 136 197 258c9 33 17 60 22 100c3 22 5 35 6 39c-7 69 -16 115 -23 140s-4 22 -16 40c-8 12 -19 23 -31 34c-24 21 -62 44 -118 44 c-48 0 -84 -8 -113 -28c-28 -19 -42 -44 -42 -73v-16c2 -5 3 -9 4 -11c24 22 52 39 84 39zM585 -118c0 32 23 58 57 58c18 0 33 -6 40 -18c9 -15 16 -18 16 -40c0 -9 -2 -16 -5 -21c-6 -19 -27 -37 -51 -37c-34 0 -57 26 -57 58zM642 177c31 0 56 -27 56 -58 c0 -30 -25 -58 -56 -58l-23 3c-19 7 -34 32 -34 55l3 23c9 20 28 35 54 35z" />
		</symbol>
	</defs>
	<style type="text/css">g.page-margin{font-family:Times;} g.tempo{font-weight:bold;} g.dir, g.dynam, g.mNum{font-style:italic;} g.label{font-weight:normal;}</style>
	<svg class="definition-scale" viewBox="0 0 21000 6000">
		<g class="page-margin" transform="translate(500, 500)">
			<g class="system" id="system-0000001224826932">
				<path d="M13 720 L13 4515" stroke="#000000" stroke-width="27" />
				<use xlink:href="#E003" x="-167" y="720" height="720px" width="720px" />
				<use xlink:href="#E004" x="-167" y="4515" height="720px" width="720px" />
				<rect x="-167" y="702" height="3831" width="90" />
				<g class="section boundaryStart" id="section-L1F1" />
				<g class="measure" id="measure-L4">
					<g class="staff" id="staff-L4F3N1">
						<path d="M0 720 L5855 720" stroke="#000000" stroke-width="13" />
						<path d="M0 900 L5855 900" stroke="#000000" stroke-width="13" />
						<path d="M0 1080 L5855 1080" stroke="#000000" stroke-width="13" />
						<path d="M0 1260 L5855 1260" stroke="#000000" stroke-width="13" />
						<path d="M0 1440 L5855 1440" stroke="#000000" stroke-width="13" />
						<g class="clef" id="clef-0000001439381985">
							<use xlink:href="#E050" x="90" y="1260" height="720px" width="720px" />
						</g>
						<g class="meterSig" id="msig-0000000289738440">
							<use xlink:href="#E082" x="771" y="900" height="720px" width="720px" />
							<use xlink:href="#E084" x="777" y="1260" height="720px" width="720px" />
						</g>
						<g class="ledgerLines above">
							<path d="M4803 540 L5082 540" stroke="#000000" stroke-width="22" />
							<path d="M5416 540 L5695 540" stroke="#000000" stroke-width="22" />
						</g>
						<g class="layer" id="layer-L4F3N1">
							<g class="beam" id="beam-L5F3-L8F3">
								<polygon points="1601,1576 2996,1634 2996,1544 1601,1486 " />
								<polygon points="1601,1441 2996,1499 2996,1409 1601,1351 " />
								<g class="note" id="note-L5F3">
									<use xlink:href="#E0A4" x="1601" y="900" height="720px" width="720px" />
									<g class="stem">
										<rect x="1601" y="922" height="636" width="18" />
									</g>
									<g class="accid" id="accid-0000001806751746" />
								</g>
								<g class="note" id="note-L6F3">
									<use xlink:href="#E0A4" x="2213" y="810" height="720px" width="720px" />
									<g class="stem">
										<rect x="2213" y="832" height="752" width="18" />
									</g>
									<g class="accid" id="accid-0000000843195938">
										<use xlink:href="#E260" x="2017" y="810" height="720px" width="720px" />
									</g>
								</g>
								<g class="rest" id="rest-L7F3">
									<use xlink:href="#E4E7" x="2592" y="1080" height="720px" width="720px" />
								</g>
								<g class="note" id="note-L8F3">
									<use xlink:href="#E0A4" x="2978" y="810" height="720px" width="720px" />
									<g class="stem">
										<rect x="2978" y="832" height="784" width="18" />
									</g>
									<g class="accid" id="accid-0000000871949788" />
								</g>
							</g>
							<g class="beam" id="beam-L9F3-L12F3">
								<polygon points="3591,1935 5465,1749 5465,1659 3591,1845 " />
								<polygon points="4843,1675 5465,1614 5465,1524 4843,1585 " />
								<g class="rest" id="rest-L9F3">
									<use xlink:href="#E4E6" x="3591" y="1080" height="720px" width="720px" />
								</g>
								<g class="note" id="note-L11F3">
									<use xlink:href="#E0A4" x="4834" y="540" height="720px" width="720px" />
									<g class="stem">
										<rect x="4834" y="562" height="1230" width="18" />
									</g>
									<g class="accid" id="accid-0000000637423909">
										<use xlink:href="#E260" x="4638" y="540" height="720px" width="720px" />
									</g>
								</g>
								<g class="note" id="note-L12F3">
									<use xlink:href="#E0A4" x="5447" y="450" height="720px" width="720px" />
									<g class="stem">
										<rect x="5447" y="472" height="1259" width="18" />
									</g>
									<g class="accid" id="accid-0000000213526184">
										<use xlink:href="#E260" x="5251" y="450" height="720px" width="720px" />
									</g>
								</g>
							</g>
						</g>
					</g>
					<g class="staff" id="staff-L4F2N1">
						<path d="M0 2355 L5855 2355" stroke="#000000" stroke-width="13" />
						<path d="M0 2535 L5855 2535" stroke="#000000" stroke-width="13" />
						<path d="M0 2715 L5855 2715" stroke="#000000" stroke-width="13" />
						<path d="M0 2895 L5855 2895" stroke="#000000" stroke-width="13" />
						<path d="M0 3075 L5855 3075" stroke="#000000" stroke-width="13" />
						<g class="clef" id="clef-0000001288533331">
							<use xlink:href="#E050" x="90" y="2895" height="720px" width="720px" />
						</g>
						<g class="meterSig" id="msig-0000001154597769">
							<use xlink:href="#E082" x="771" y="2535" height="720px" width="720px" />
							<use xlink:href="#E084" x="777" y="2895" height="720px" width="720px" />
						</g>
						<g class="layer" id="layer-L4F2N1">
							<g class="beam" id="beam-L5F2-L8F2">
								<polygon points="1809,2220 3204,2220 3204,2310 1809,2310 " />
								<polygon points="1809,2355 3204,2355 3204,2445 1809,2445 " />
								<g class="note" id="note-L5F2">
									<use xlink:href="#E0A4" x="1601" y="2895" height="720px" width="720px" />
									<g class="stem">
										<rect x="1809" y="2238" height="635" width="18" />
									</g>
									<g class="accid" id="accid-0000000353996635" />
								</g>
								<g class="rest" id="rest-L6F2">
									<use xlink:href="#E4E6" x="2213" y="2715" height="720px" width="720px" />
								</g>
								<g class="note" id="note-L8F2">
									<use xlink:href="#E0A4" x="2978" y="2895" height="720px" width="720px" />
									<g class="stem">
										<rect x="3186" y="2238" height="635" width="18" />
									</g>
									<g class="accid" id="accid-0000000955914928" />
								</g>
							</g>
							<g class="beam" id="beam-L9F2-L12F2">
								<polygon points="3799,2166 5673,1980 5673,2070 3799,2256 " />
								<polygon points="3799,2301 5673,2115 5673,2205 3799,2391 " />
								<g class="rest" id="rest-L9F2">
									<use xlink:href="#E4E7" x="3591" y="2715" height="720px" width="720px" />
								</g>
								<g class="note" id="note-L10F2">
									<use xlink:href="#E0A4" x="4212" y="2805" height="720px" width="720px" />
									<g class="stem">
										<rect x="4420" y="2122" height="661" width="18" />
									</g>
									<g class="accid" id="accid-0000001792707595">
										<use xlink:href="#E260" x="4016" y="2805" height="720px" width="720px" />
									</g>
								</g>
								<g class="note" id="note-L11F2">
									<use xlink:href="#E0A4" x="4834" y="2715" height="720px" width="720px" />
									<g class="stem">
										<rect x="5042" y="2059" height="634" width="18" />
									</g>
									<g class="accid" id="accid-0000001790475378">
										<use xlink:href="#E260" x="4638" y="2715" height="720px" width="720px" />
									</g>
								</g>
								<g class="note" id="note-L12F2">
									<use xlink:href="#E0A4" x="5447" y="2715" height="720px" width="720px" />
									<g class="stem">
										<rect x="5655" y="1998" height="695" width="18" />
									</g>
									<g class="accid" id="accid-0000002033494132" />
								</g>
							</g>
						</g>
					</g>
					<g class="staff" id="staff-L4F1N1">
						<path d="M0 3795 L5855 3795" stroke="#000000" stroke-width="13" />
						<path d="M0 3975 L5855 3975" stroke="#000000" stroke-width="13" />
						<path d="M0 4155 L5855 4155" stroke="#000000" stroke-width="13" />
						<path d="M0 4335 L5855 4335" stroke="#000000" stroke-width="13" />
						<path d="M0 4515 L5855 4515" stroke="#000000" stroke-width="13" />
						<g class="clef" id="clef-0000000662469291">
							<use xlink:href="#E062" x="90" y="3975" height="720px" width="720px" />
						</g>
						<g class="meterSig" id="msig-0000001566147789">
							<use xlink:href="#E082" x="771" y="3975" height="720px" width="720px" />
							<use xlink:href="#E084" x="777" y="4335" height="720px" width="720px" />
						</g>
						<g class="layer" id="layer-L4F1N1">
							<g class="beam" id="beam-L5F1-L8F1">
								<polygon points="1601,4741 2996,4769 2996,4679 1601,4651 " />
								<polygon points="1601,4606 2996,4634 2996,4544 1601,4516 " />
								<g class="note" id="note-L5F1">
									<use xlink:href="#E0A4" x="1601" y="4065" height="720px" width="720px" />
									<g class="stem">
										<rect x="1601" y="4087" height="636" width="18" />
									</g>
									<g class="accid" id="accid-0000002146403410">
										<use xlink:href="#E260" x="1405" y="4065" height="720px" width="720px" />
									</g>
								</g>
								<g class="note" id="note-L6F1">
									<use xlink:href="#E0A4" x="2213" y="3975" height="720px" width="720px" />
									<g class="stem">
										<rect x="2213" y="3997" height="738" width="18" />
									</g>
									<g class="accid" id="accid-0000000030815511" />
								</g>
								<g class="rest" id="rest-L7F1">
									<use xlink:href="#E4E7" x="2592" y="4155" height="720px" width="720px" />
								</g>
								<g class="note" id="note-L8F1">
									<use xlink:href="#E0A4" x="2978" y="3975" height="720px" width="720px" />
									<g class="stem">
										<rect x="2978" y="3997" height="754" width="18" />
									</g>
									<g class="accid" id="accid-0000000252886795" />
								</g>
							</g>
							<g class="beam" id="beam-L9F1-L12F1">
								<polygon points="3591,4452 5465,4479 5465,4389 3591,4362 " />
								<polygon points="3591,4317 5465,4344 5465,4254 3591,4227 " />
								<g class="note" id="note-L9F1">
									<use xlink:href="#E0A4" x="3591" y="3705" height="720px" width="720px" />
									<g class="stem">
										<rect x="3591" y="3727" height="707" width="18" />
									</g>
									<g class="accid" id="accid-0000000461374659">
										<use xlink:href="#E260" x="3395" y="3705" height="720px" width="720px" />
									</g>
								</g>
								<g class="rest" id="rest-L10F1">
									<use xlink:href="#E4E7" x="4212" y="3795" height="720px" width="720px" />
								</g>
								<g class="note" id="note-L11F1">
									<use xlink:href="#E0A4" x="4834" y="3795" height="720px" width="720px" />
									<g class="stem">
										<rect x="4834" y="3817" height="635" width="18" />
									</g>
									<g class="accid" id="accid-0000001860404998">
										<use xlink:href="#E260" x="4638" y="3795" height="720px" width="720px" />
									</g>
								</g>
								<g class="note" id="note-L12F1">
									<use xlink:href="#E0A4" x="5447" y="3795" height="720px" width="720px" />
									<g class="stem">
										<rect x="5447" y="3817" height="644" width="18" />
									</g>
									<g class="accid" id="accid-0000001046708476" />
								</g>
							</g>
						</g>
					</g>
					<g class="mNum autogenerated" id="mnum-0000001195653666" />
					<g class="barLineAttr" id="bline-0000002033296094">
						<path d="M5842 1440 L5842 720" stroke="#000000" stroke-width="27" />
						<path d="M5842 3075 L5842 2355" stroke="#000000" stroke-width="27" />
						<path d="M5842 4515 L5842 3795" stroke="#000000" stroke-width="27" />
					</g>
				</g>
				<g class="measure" id="measure-L13">
					<g class="staff" id="staff-L13F3N1">
						<path d="M5855 720 L10576 720" stroke="#000000" stroke-width="13" />
						<path d="M5855 900 L10576 900" stroke="#000000" stroke-width="13" />
						<path d="M5855 1080 L10576 1080" stroke="#000000" stroke-width="13" />
						<path d="M5855 1260 L10576 1260" stroke="#000000" stroke-width="13" />
						<path d="M5855 1440 L10576 1440" stroke="#000000" stroke-width="13" />
						<g class="ledgerLines above">
							<path d="M8122 540 L8401 540" stroke="#000000" stroke-width="22" />
							<path d="M8508 540 L8787 540" stroke="#000000" stroke-width="22" />
							<path d="M9121 540 L9400 540" stroke="#000000" stroke-width="22" />
							<path d="M10129 540 L10408 540" stroke="#000000" stroke-width="22" />
							<path d="M10129 360 L10408 360" stroke="#000000" stroke-width="22" />
						</g>
						<g class="layer" id="layer-L13F3N1">
							<g class="beam" id="beam-L14F3-L17F3">
								<polygon points="6306,1431 8171,1321 8171,1231 6306,1341 " />
								<polygon points="6306,1296 8171,1186 8171,1096 6306,1206 " />
								<g class="note" id="note-L14F3">
									<use xlink:href="#E0A4" x="6306" y="630" height="720px" width="720px" />
									<g class="stem">
										<rect x="6306" y="652" height="761" width="18" />
									</g>
									<g class="accid" id="accid-0000000262643105" />
								</g>
								<g class="note" id="note-L15F3">
									<use xlink:href="#E0A4" x="6918" y="720" height="720px" width="720px" />
									<g class="stem">
										<rect x="6918" y="742" height="635" width="18" />
									</g>
									<g class="accid" id="accid-0000000220661174" />
								</g>
								<g class="rest" id="rest-L16F3">
									<use xlink:href="#E4E7" x="7531" y="720" height="720px" width="720px" />
								</g>
								<g class="note" id="note-L17F3">
									<use xlink:href="#E0A4" x="8153" y="450" height="720px" width="720px" />
									<g class="stem">
										<rect x="8153" y="472" height="831" width="18" />
									</g>
									<g class="accid" id="accid-0000001022640923">
										<use xlink:href="#E260" x="7957" y="450" height="720px" width="720px" />
									</g>
								</g>
							</g>
							<g class="beam" id="beam-L18F3-L21F3">
								<polygon points="8539,1212 10178,1220 10178,1130 8539,1122 " />
								<polygon points="8539,1077 10178,1085 10178,995 8539,987 " />
								<g class="note" id="note-L18F3">
									<use xlink:href="#E0A4" x="8539" y="450" height="720px" width="720px" />
									<g class="stem">
										<rect x="8539" y="472" height="722" width="18" />
									</g>
									<g class="accid" id="accid-0000000243183551" />
								</g>
								<g class="note" id="note-L19F3">
									<use xlink:href="#E0A4" x="9152" y="540" height="720px" width="720px" />
									<g class="stem">
										<rect x="9152" y="562" height="635" width="18" />
									</g>
									<g class="accid" id="accid-0000000883347777">
										<use xlink:href="#E260" x="8956" y="540" height="720px" width="720px" />
									</g>
								</g>
								<g class="rest" id="rest-L20F3">
									<use xlink:href="#E4E7" x="9773" y="540" height="720px" width="720px" />
								</g>
								<g class="note" id="note-L21F3">
									<use xlink:href="#E0A4" x="10160" y="360" height="720px" width="720px" />
									<g class="stem">
										<rect x="10160" y="382" height="820" width="18" />
									</g>
									<g class="accid" id="accid-0000001396618914" />
								</g>
							</g>
						</g>
					</g>
					<g class="staff" id="staff-L13F2N1">
						<path d="M5855 2355 L10576 2355" stroke="#000000" stroke-width="13" />
						<path d="M5855 2535 L10576 2535" stroke="#000000" stroke-width="13" />
						<path d="M5855 2715 L10576 2715" stroke="#000000" stroke-width="13" />
						<path d="M5855 2895 L10576 2895" stroke="#000000" stroke-width="13" />
						<path d="M5855 3075 L10576 3075" stroke="#000000" stroke-width="13" />
						<g class="layer" id="layer-L13F2N1">
							<g class="beam" id="beam-L14F2-L17F2">
								<polygon points="6514,1968 8379,1942 8379,2032 6514,2058 " />
								<polygon points="6514,2103 8379,2077 8379,2167 6514,2193 " />
								<g class="note" id="note-L14F2">
									<use xlink:href="#E0A4" x="6306" y="2805" height="720px" width="720px" />
									<g class="stem">
										<rect x="6514" y="1986" height="797" width="18" />
									</g>
									<g class="accid" id="accid-0000001136800420">
										<use xlink:href="#E260" x="6110" y="2805" height="720px" width="720px" />
									</g>
								</g>
								<g class="note" id="note-L15F2">
									<use xlink:href="#E0A4" x="6918" y="2715" height="720px" width="720px" />
									<g class="stem">
										<rect x="7126" y="1978" height="715" width="18" />
									</g>
									<g class="accid" id="accid-0000001733067416">
										<use xlink:href="#E260" x="6722" y="2715" height="720px" width="720px" />
									</g>
								</g>
								<g class="note" id="note-L16F2">
									<use xlink:href="#E0A4" x="7531" y="2625" height="720px" width="720px" />
									<g class="stem">
										<rect x="7739" y="1969" height="634" width="18" />
									</g>
									<g class="accid" id="accid-0000001296291046" />
								</g>
								<g class="note" id="note-L17F2">
									<use xlink:href="#E0A4" x="8153" y="2805" height="720px" width="720px" />
									<g class="stem">
										<rect x="8361" y="1960" height="823" width="18" />
									</g>
									<g class="accid" id="accid-0000002105889822" />
								</g>
							</g>
							<g class="beam" id="beam-L18F2-L21F2">
								<polygon points="8747,2131 10386,2214 10386,2304 8747,2221 " />
								<polygon points="8747,2266 10386,2349 10386,2439 8747,2356 " />
								<g class="note" id="note-L18F2">
									<use xlink:href="#E0A4" x="8539" y="2805" height="720px" width="720px" />
									<g class="stem">
										<rect x="8747" y="2149" height="634" width="18" />
									</g>
									<g class="accid" id="accid-0000000986878627" />
								</g>
								<g class="rest" id="rest-L19F2">
									<use xlink:href="#E4E7" x="9152" y="2715" height="720px" width="720px" />
								</g>
								<g class="note" id="note-L20F2">
									<use xlink:href="#E0A4" x="9773" y="2895" height="720px" width="720px" />
									<g class="stem">
										<rect x="9981" y="2212" height="661" width="18" />
									</g>
									<g class="accid" id="accid-0000001979393697" />
								</g>
								<g class="rest" id="rest-L21F2">
									<use xlink:href="#E4E7" x="10160" y="2715" height="720px" width="720px" />
								</g>
							</g>
						</g>
					</g>
					<g class="staff" id="staff-L13F1N1">
						<path d="M5855 3795 L10576 3795" stroke="#000000" stroke-width="13" />
						<path d="M5855 3975 L10576 3975" stroke="#000000" stroke-width="13" />
						<path d="M5855 4155 L10576 4155" stroke="#000000" stroke-width="13" />
						<path d="M5855 4335 L10576 4335" stroke="#000000" stroke-width="13" />
						<path d="M5855 4515 L10576 4515" stroke="#000000" stroke-width="13" />
						<g class="layer" id="layer-L13F1N1">
							<g class="beam" id="beam-L14F1-L17F1">
								<polygon points="6306,5010 8171,4959 8171,4869 6306,4920 " />
								<polygon points="6306,4875 8171,4824 8171,4734 6306,4785 " />
								<g class="rest" id="rest-L14F1">
									<use xlink:href="#E4E7" x="6306" y="4155" height="720px" width="720px" />
								</g>
								<g class="note" id="note-L15F1">
									<use xlink:href="#E0A4" x="6918" y="3885" height="720px" width="720px" />
									<g class="stem">
										<rect x="6918" y="3907" height="1068" width="18" />
									</g>
									<g class="accid" id="accid-0000001745341216" />
								</g>
								<g class="note" id="note-L16F1">
									<use xlink:href="#E0A4" x="7531" y="3705" height="720px" width="720px" />
									<g class="stem">
										<rect x="7531" y="3727" height="1231" width="18" />
									</g>
									<g class="accid" id="accid-0000000231378803">
										<use xlink:href="#E260" x="7335" y="3705" height="720px" width="720px" />
									</g>
								</g>
								<g class="rest" id="rest-L17F1">
									<use xlink:href="#E4E7" x="8153" y="4155" height="720px" width="720px" />
								</g>
							</g>
							<g class="beam" id="beam-L18F1-L21F1">
								<polygon points="8539,4444 10178,4478 10178,4388 8539,4354 " />
								<polygon points="8539,4309 10178,4343 10178,4253 8539,4219 " />
								<g class="note" id="note-L18F1">
									<use xlink:href="#E0A4" x="8539" y="3705" height="720px" width="720px" />
									<g class="stem">
										<rect x="8539" y="3727" height="699" width="18" />
									</g>
									<g class="accid" id="accid-0000001117206428" />
								</g>
								<g class="rest" id="rest-L19F1">
									<use xlink:href="#E4E7" x="9152" y="3795" height="720px" width="720px" />
								</g>
								<g class="note" id="note-L20F1">
									<use xlink:href="#E0A4" x="9773" y="3795" height="720px" width="720px" />
									<g class="stem">
										<rect x="9773" y="3817" height="635" width="18" />
									</g>
									<g class="accid" id="accid-0000002120215310">
										<use xlink:href="#E260" x="9577" y="3795" height="720px" width="720px" />
									</g>
								</g>
								<g class="note" id="note-L21F1">
									<use xlink:href="#E0A4" x="10160" y="3795" height="720px" width="720px" />
									<g class="stem">
										<rect x="10160" y="3817" height="643" width="18" />
									</g>
									<g class="accid" id="accid-0000000568390686" />
								</g>
							</g>
						</g>
					</g>
					<g class="mNum autogenerated" id="mnum-0000001311915048" />
					<g class="barLineAttr" id="bline-0000001515088013">
						<path d="M10563 1440 L10563 720" stroke="#000000" stroke-width="27" />
						<path d="M10563 3075 L10563 2355" stroke="#000000" stroke-width="27" />
						<path d="M10563 4515 L10563 3795" stroke="#000000" stroke-width="27" />
					</g>
				</g>
				<g class="measure" id="measure-L22">
					<g class="staff" id="staff-L22F3N1">
						<path d="M10576 720 L15281 720" stroke="#000000" stroke-width="13" />
						<path d="M10576 900 L15281 900" stroke="#000000" stroke-width="13" />
						<path d="M10576 1080 L15281 1080" stroke="#000000" stroke-width="13" />
						<path d="M10576 1260 L15281 1260" stroke="#000000" stroke-width="13" />
						<path d="M10576 1440 L15281 1440" stroke="#000000" stroke-width="13" />
						<g class="ledgerLines above">
							<path d="M14229 540 L14508 540" stroke="#000000" stroke-width="22" />
							<path d="M14842 540 L15121 540" stroke="#000000" stroke-width="22" />
						</g>
						<g class="layer" id="layer-L22F3N1">
							<g class="beam" id="beam-L23F3-L26F3">
								<polygon points="11027,1576 12422,1634 12422,1544 11027,1486 " />
								<polygon points="11027,1441 12422,1499 12422,1409 11027,1351 " />
								<g class="note" id="note-L23F3">
									<use xlink:href="#E0A4" x="11027" y="900" height="720px" width="720px" />
									<g class="stem">
										<rect x="11027" y="922" height="636" width="18" />
									</g>
									<g class="accid" id="accid-0000001329660957">
										<use xlink:href="#E260" x="10831" y="900" height="720px" width="720px" />
									</g>
								</g>
								<g class="note" id="note-L24F3">
									<use xlink:href="#E0A4" x="11639" y="810" height="720px" width="720px" />
									<g class="stem">
										<rect x="11639" y="832" height="752" width="18" />
									</g>
									<g class="accid" id="accid-0000000567162626">
										<use xlink:href="#E260" x="11443" y="810" height="720px" width="720px" />
									</g>
								</g>
								<g class="rest" id="rest-L25F3">
									<use xlink:href="#E4E7" x="12018" y="1080" height="720px" width="720px" />
								</g>
								<g class="note" id="note-L26F3">
									<use xlink:href="#E0A4" x="12404" y="810" height="720px" width="720px" />
									<g class="stem">
										<rect x="12404" y="832" height="784" width="18" />
									</g>
									<g class="accid" id="accid-0000001622877292" />
								</g>
							</g>
							<g class="beam" id="beam-L27F3-L30F3">
								<polygon points="13017,1935 14891,1749 14891,1659 13017,1845 " />
								<polygon points="14269,1675 14891,1614 14891,1524 14269,1585 " />
								<g class="rest" id="rest-L27F3">
									<use xlink:href="#E4E6" x="13017" y="1080" height="720px" width="720px" />
								</g>
								<g class="note" id="note-L29F3">
									<use xlink:href="#E0A4" x="14260" y="540" height="720px" width="720px" />
									<g class="stem">
										<rect x="14260" y="562" height="1230" width="18" />
									</g>
									<g class="accid" id="accid-0000000153266188">
										<use xlink:href="#E260" x="14064" y="540" height="720px" width="720px" />
									</g>
								</g>
								<g class="note" id="note-L30F3">
									<use xlink:href="#E0A4" x="14873" y="450" height="720px" width="720px" />
									<g class="stem">
										<rect x="14873" y="472" height="1259" width="18" />
									</g>
									<g class="accid" id="accid-0000000787384947">
										<use xlink:href="#E260" x="14677" y="450" height="720px" width="720px" />
									</g>
								</g>
							</g>
						</g>
					</g>
					<g class="staff" id="staff-L22F2N1">
						<path d="M10576 2355 L15281 2355" stroke="#000000" stroke-width="13" />
						<path d="M10576 2535 L15281 2535" stroke="#000000" stroke-width="13" />
						<path d="M10576 2715 L15281 2715" stroke="#000000" stroke-width="13" />
						<path d="M10576 2895 L15281 2895" stroke="#000000" stroke-width="13" />
						<path d="M10576 3075 L15281 3075" stroke="#000000" stroke-width="13" />
						<g class="layer" id="layer-L22F2N1">
							<g class="beam" id="beam-L23F2-L26F2">
								<polygon points="11235,2220 12630,2220 12630,2310 11235,2310 " />
								<polygon points="11235,2355 12630,2355 12630,2445 11235,2445 " />
								<g class="note" id="note-L23F2">
									<use xlink:href="#E0A4" x="11027" y="2895" height="720px" width="720px" />
									<g class="stem">
										<rect x="11235" y="2238" height="635" width="18" />
									</g>
									<g class="accid" id="accid-0000002132703116" />
								</g>
								<g class="rest" id="rest-L24F2">
									<use xlink:href="#E4E6" x="11639" y="2715" height="720px" width="720px" />
								</g>
								<g class="note" id="note-L26F2">
									<use xlink:href="#E0A4" x="12404" y="2895" height="720px" width="720px" />
									<g class="stem">
										<rect x="12612" y="2238" height="635" width="18" />
									</g>
									<g class="accid" id="accid-0000000239511693" />
								</g>
							</g>
							<g class="beam" id="beam-L27F2-L30F2">
								<polygon points="13225,2166 15099,1980 15099,2070 13225,2256 " />
								<polygon points="13225,2301 15099,2115 15099,2205 13225,2391 " />
								<g class="rest" id="rest-L27F2">
									<use xlink:href="#E4E7" x="13017" y="2715" height="720px" width="720px" />
								</g>
								<g class="note" id="note-L28F2">
									<use xlink:href="#E0A4" x="13638" y="2805" height="720px" width="720px" />
									<g class="stem">
										<rect x="13846" y="2122" height="661" width="18" />
									</g>
									<g class="accid" id="accid-0000001270577351">
										<use xlink:href="#E260" x="13442" y="2805" height="720px" width="720px" />
									</g>
								</g>
								<g class="note" id="note-L29F2">
									<use xlink:href="#E0A4" x="14260" y="2715" height="720px" width="720px" />
									<g class="stem">
										<rect x="14468" y="2059" height="634" width="18" />
									</g>
									<g class="accid" id="accid-0000000891943101">
										<use xlink:href="#E260" x="14064" y="2715" height="720px" width="720px" />
									</g>
								</g>
								<g class="note" id="note-L30F2">
									<use xlink:href="#E0A4" x="14873" y="2715" height="720px" width="720px" />
									<g class="stem">
										<rect x="15081" y="1998" height="695" width="18" />
									</g>
									<g class="accid" id="accid-0000001406809515" />
								</g>
							</g>
						</g>
					</g>
					<g class="staff" id="staff-L22F1N1">
						<path d="M10576 3795 L15281 3795" stroke="#000000" stroke-width="13" />
						<path d="M10576 3975 L15281 3975" stroke="#000000" stroke-width="13" />
						<path d="M10576 4155 L15281 4155" stroke="#000000" stroke-width="13" />
						<path d="M10576 4335 L15281 4335" stroke="#000000" stroke-width="13" />
						<path d="M10576 4515 L15281 4515" stroke="#000000" stroke-width="13" />
						<g class="layer" id="layer-L22F1N1">
							<g class="beam" id="beam-L23F1-L26F1">
								<polygon points="11027,5100 12422,4962 12422,4872 11027,5010 " />
								<polygon points="11027,4965 12422,4827 12422,4737 11027,4875 " />
								<g class="note" id="note-L23F1">
									<use xlink:href="#E0A4" x="11027" y="4425" height="720px" width="720px" />
									<g class="stem">
										<rect x="11027" y="4447" height="635" width="18" />
									</g>
									<g class="accid" id="accid-0000001871969304">
										<use xlink:href="#E260" x="10831" y="4425" height="720px" width="720px" />
									</g>
								</g>
								<g class="note" id="note-L24F1">
									<use xlink:href="#E0A4" x="11639" y="3975" height="720px" width="720px" />
									<g class="stem">
										<rect x="11639" y="3997" height="1023" width="18" />
									</g>
									<g class="accid" id="accid-0000001546322149" />
								</g>
								<g class="rest" id="rest-L25F1">
									<use xlink:href="#E4E7" x="12018" y="4155" height="720px" width="720px" />
								</g>
								<g class="note" id="note-L26F1">
									<use xlink:href="#E0A4" x="12404" y="3975" height="720px" width="720px" />
									<g class="stem">
										<rect x="12404" y="3997" height="947" width="18" />
									</g>
									<g class="accid" id="accid-0000001315250362" />
								</g>
							</g>
							<g class="beam" id="beam-L27F1-L30F1">
								<polygon points="13017,4452 14891,4479 14891,4389 13017,4362 " />
								<polygon points="13017,4317 14891,4344 14891,4254 13017,4227 " />
								<g class="note" id="note-L27F1">
									<use xlink:href="#E0A4" x="13017" y="3705" height="720px" width="720px" />
									<g class="stem">
										<rect x="13017" y="3727" height="707" width="18" />
									</g>
									<g class="accid" id="accid-0000001172835495">
										<use xlink:href="#E260" x="12821" y="3705" height="720px" width="720px" />
									</g>
								</g>
								<g class="rest" id="rest-L28F1">
									<use xlink:href="#E4E7" x="13638" y="3795" height="720px" width="720px" />
								</g>
								<g class="note" id="note-L29F1">
									<use xlink:href="#E0A4" x="14260" y="3795" height="720px" width="720px" />
									<g class="stem">
										<rect x="14260" y="3817" height="635" width="18" />
									</g>
									<g class="accid" id="accid-0000000174475061">
										<use xlink:href="#E260" x="14064" y="3795" height="720px" width="720px" />
									</g>
								</g>
								<g class="note" id="note-L30F1">
									<use xlink:href="#E0A4" x="14873" y="3795" height="720px" width="720px" />
									<g class="stem">
										<rect x="14873" y="3817" height="644" width="18" />
									</g>
									<g class="accid" id="accid-0000001310145428" />
								</g>
							</g>
						</g>
					</g>
					<g class="mNum autogenerated" id="mnum-0000001386535211" />
					<g class="barLineAttr" id="bline-0000000237954928">
						<path d="M15268 1440 L15268 720" stroke="#000000" stroke-width="27" />
						<path d="M15268 3075 L15268 2355" stroke="#000000" stroke-width="27" />
						<path d="M15268 4515 L15268 3795" stroke="#000000" stroke-width="27" />
					</g>
				</g>
				<g class="measure" id="measure-L31">
					<g class="staff" id="staff-L31F3N1">
						<path d="M15281 720 L20002 720" stroke="#000000" stroke-width="13" />
						<path d="M15281 900 L20002 900" stroke="#000000" stroke-width="13" />
						<path d="M15281 1080 L20002 1080" stroke="#000000" stroke-width="13" />
						<path d="M15281 1260 L20002 1260" stroke="#000000" stroke-width="13" />
						<path d="M15281 1440 L20002 1440" stroke="#000000" stroke-width="13" />
						<g class="ledgerLines above">
							<path d="M17548 540 L17827 540" stroke="#000000" stroke-width="22" />
							<path d="M17934 540 L18213 540" stroke="#000000" stroke-width="22" />
							<path d="M18547 540 L18826 540" stroke="#000000" stroke-width="22" />
							<path d="M19555 540 L19834 540" stroke="#000000" stroke-width="22" />
							<path d="M19555 360 L19834 360" stroke="#000000" stroke-width="22" />
						</g>
						<g class="layer" id="layer-L31F3N1">
							<g class="beam" id="beam-L32F3-L35F3">
								<polygon points="15732,1431 17597,1321 17597,1231 15732,1341 " />
								<polygon points="15732,1296 17597,1186 17597,1096 15732,1206 " />
								<g class="note" id="note-L32F3">
									<use xlink:href="#E0A4" x="15732" y="630" height="720px" width="720px" />
									<g class="stem">
										<rect x="15732" y="652" height="761" width="18" />
									</g>
									<g class="accid" id="accid-0000001167939652" />
								</g>
								<g class="note" id="note-L33F3">
									<use xlink:href="#E0A4" x="16344" y="720" height="720px" width="720px" />
									<g class="stem">
										<rect x="16344" y="742" height="635" width="18" />
									</g>
									<g class="accid" id="accid-0000001092595242" />
								</g>
								<g class="rest" id="rest-L34F3">
									<use xlink:href="#E4E7" x="16957" y="720" height="720px" width="720px" />
								</g>
								<g class="note" id="note-L35F3">
									<use xlink:href="#E0A4" x="17579" y="450" height="720px" width="720px" />
									<g class="stem">
										<rect x="17579" y="472" height="831" width="18" />
									</g>
									<g class="accid" id="accid-0000001847201653">
										<use xlink:href="#E260" x="17383" y="450" height="720px" width="720px" />
									</g>
								</g>
							</g>
							<g class="beam" id="beam-L36F3-L39F3">
								<polygon points="17965,1212 19604,1220 19604,1130 17965,1122 " />
								<polygon points="17965,1077 19604,1085 19604,995 17965,987 " />
								<g class="note" id="note-L36F3">
									<use xlink:href="#E0A4" x="17965" y="450" height="720px" width="720px" />
									<g class="stem">
										<rect x="17965" y="472" height="722" width="18" />
									</g>
									<g class="accid" id="accid-0000000374226869" />
								</g>
								<g class="note" id="note-L37F3">
									<use xlink:href="#E0A4" x="18578" y="540" height="720px" width="720px" />
									<g class="stem">
										<rect x="18578" y="562" height="635" width="18" />
									</g>
									<g class="accid" id="accid-0000001314265203">
										<use xlink:href="#E260" x="18382" y="540" height="720px" width="720px" />
									</g>
								</g>
								<g class="rest" id="rest-L38F3">
									<use xlink:href="#E4E7" x="19199" y="540" height="720px" width="720px" />
								</g>
								<g class="note" id="note-L39F3">
									<use xlink:href="#E0A4" x="19586" y="360" height="720px" width="720px" />
									<g class="stem">
										<rect x="19586" y="382" height="820" width="18" />
									</g>
									<g class="accid" id="accid-0000000349042865" />
								</g>
							</g>
						</g>
					</g>
					<g class="staff" id="staff-L31F2N1">
						<path d="M15281 2355 L20002 2355" stroke="#000000" stroke-width="13" />
						<path d="M15281 2535 L20002 2535" stroke="#000000" stroke-width="13" />
						<path d="M15281 2715 L20002 2715" stroke="#000000" stroke-width="13" />
						<path d="M15281 2895 L20002 2895" stroke="#000000" stroke-width="13" />
						<path d="M15281 3075 L20002 3075" stroke="#000000" stroke-width="13" />
						<g class="layer" id="layer-L31F2N1">
							<g class="beam" id="beam-L32F2-L35F2">
								<polygon points="15940,1968 17805,1942 17805,2032 15940,2058 " />
								<polygon points="15940,2103 17805,2077 17805,2167 15940,2193 " />
								<g class="note" id="note-L32F2">
									<use xlink:href="#E0A4" x="15732" y="2805" height="720px" width="720px" />
									<g class="stem">
										<rect x="15940" y="1986" height="797" width="18" />
									</g>
									<g class="accid" id="accid-0000001985302956">
										<use xlink:href="#E260" x="15536" y="2805" height="720px" width="720px" />
									</g>
								</g>
								<g class="note" id="note-L33F2">
									<use xlink:href="#E0A4" x="16344" y="2715" height="720px" width="720px" />
									<g class="stem">
										<rect x="16552" y="1978" height="715" width="18" />
									</g>
									<g class="accid" id="accid-0000001345032771">
										<use xlink:href="#E260" x="16148" y="2715" height="720px" width="720px" />
									</g>
								</g>
								<g class="note" id="note-L34F2">
									<use xlink:href="#E0A4" x="16957" y="2625" height="720px" width="720px" />
									<g class="stem">
										<rect x="17165" y="1969" height="634" width="18" />
									</g>
									<g class="accid" id="accid-0000001454735134" />
								</g>
								<g class="note" id="note-L35F2">
									<use xlink:href="#E0A4" x="17579" y="2805" height="720px" width="720px" />
									<g class="stem">
										<rect x="17787" y="1960" height="823" width="18" />
									</g>
									<g class="accid" id="accid-0000001847936639" />
								</g>
							</g>
							<g class="beam" id="beam-L36F2-L39F2">
								<polygon points="18173,2131 19812,2214 19812,2304 18173,2221 " />
								<polygon points="18173,2266 19812,2349 19812,2439 18173,2356 " />
								<g class="note" id="note-L36F2">
									<use xlink:href="#E0A4" x="17965" y="2805" height="720px" width="720px" />
									<g class="stem">
										<rect x="18173" y="2149" height="634" width="18" />
									</g>
									<g class="accid" id="accid-0000001090066574" />
								</g>
								<g class="rest" id="rest-L37F2">
									<use xlink:href="#E4E7" x="18578" y="2715" height="720px" width="720px" />
								</g>
								<g class="note" id="note-L38F2">
									<use xlink:href="#E0A4" x="19199" y="2895" height="720px" width="720px" />
									<g class="stem">
										<rect x="19407" y="2212" height="661" width="18" />
									</g>
									<g class="accid" id="accid-0000001849640614" />
								</g>
								<g class="rest" id="rest-L39F2">
									<use xlink:href="#E4E7" x="19586" y="2715" height="720px" width="720px" />
								</g>
							</g>
						</g>
					</g>
					<g class="staff" id="staff-L31F1N1">
						<path d="M15281 3795 L20002 3795" stroke="#000000" stroke-width="13" />
						<path d="M15281 3975 L20002 3975" stroke="#000000" stroke-width="13" />
						<path d="M15281 4155 L20002 4155" stroke="#000000" stroke-width="13" />
						<path d="M15281 4335 L20002 4335" stroke="#000000" stroke-width="13" />
						<path d="M15281 4515 L20002 4515" stroke="#000000" stroke-width="13" />
						<g class="layer" id="layer-L31F1N1">
							<g class="beam" id="beam-L32F1-L35F1">
								<polygon points="15732,5010 17597,4959 17597,4869 15732,4920 " />
								<polygon points="15732,4875 17597,4824 17597,4734 15732,4785 " />
								<g class="rest" id="rest-L32F1">
									<use xlink:href="#E4E7" x="15732" y="4155" height="720px" width="720px" />
								</g>
								<g class="note" id="note-L33F1">
									<use xlink:href="#E0A4" x="16344" y="3885" height="720px" width="720px" />
									<g class="stem">
										<rect x="16344" y="3907" height="1068" width="18" />
									</g>
									<g class="accid" id="accid-0000001761702112" />
								</g>
								<g class="note" id="note-L34F1">
									<use xlink:href="#E0A4" x="16957" y="3705" height="720px" width="720px" />
									<g class="stem">
										<rect x="16957" y="3727" height="1231" width="18" />
									</g>
									<g class="accid" id="accid-0000000385740735">
										<use xlink:href="#E260" x="16761" y="3705" height="720px" width="720px" />
									</g>
								</g>
								<g class="rest" id="rest-L35F1">
									<use xlink:href="#E4E7" x="17579" y="4155" height="720px" width="720px" />
								</g>
							</g>
							<g class="beam" id="beam-L36F1-L39F1">
								<polygon points="17965,4444 19604,4478 19604,4388 17965,4354 " />
								<polygon points="17965,4309 19604,4343 19604,4253 17965,4219 " />
								<g class="note" id="note-L36F1">
									<use xlink:href="#E0A4" x="17965" y="3705" height="720px" width="720px" />
									<g class="stem">
										<rect x="17965" y="3727" height="699" width="18" />
									</g>
									<g class="accid" id="accid-0000002138890044" />
								</g>
								<g class="rest" id="rest-L37F1">
									<use xlink:href="#E4E7" x="18578" y="3795" height="720px" width="720px" />
								</g>
								<g class="note" id="note-L38F1">
									<use xlink:href="#E0A4" x="19199" y="3795" height="720px" width="720px" />
									<g class="stem">
										<rect x="19199" y="3817" height="635" width="18" />
									</g>
									<g class="accid" id="accid-0000001796088312">
										<use xlink:href="#E260" x="19003" y="3795" height="720px" width="720px" />
									</g>
								</g>
								<g class="note" id="note-L39F1">
									<use xlink:href="#E0A4" x="19586" y="3795" height="720px" width="720px" />
									<g class="stem">
										<rect x="19586" y="3817" height="643" width="18" />
									</g>
									<g class="accid" id="accid-0000001868897187" />
								</g>
							</g>
						</g>
					</g>
					<g class="mNum autogenerated" id="mnum-0000001798642761" />
					<g class="barLineAttr" id="bline-0000000780975284">
						<path d="M19989 1440 L19989 720" stroke="#000000" stroke-width="27" />
						<path d="M19989 3075 L19989 2355" stroke="#000000" stroke-width="27" />
						<path d="M19989 4515 L19989 3795" stroke="#000000" stroke-width="27" />
					</g>
				</g>
			</g>
		</g>
	</svg>
</svg>
