<?xml version="1.0" encoding="UTF-8" standalone="no"?>
<svg width="2100.00px" height="600.00px" version="1.1" xmlns="http://www.w3.org/2000/svg" xmlns:xlink="http://www.w3.org/1999/xlink" overflow="visible">
	<desc>Engraved by Verovio 2.0.0-dev-0f0381c</desc>
	<defs>
		<symbol id="E003" viewBox="0 0 1000 1000" overflow="inherit">
			<path transform="scale(1,-1)" d="M0 -0c49 0 97.5 -2.26367 135.5 4.73633c206 95 258.5 264.264 263.5 271.264c0 1 -14 7 -15 6c-88 -154 -251 -167 -321 -170c-1 0 -63 -1 -63 -1v-111z" />
		</symbol>
		<symbol id="E004" viewBox="0 0 1000 1000" overflow="inherit">
			<path transform="scale(1,-1)" d="M0 0c49 0 97.5 2.26367 135.5 -4.73633c206 -95 258.5 -264.264 263.5 -271.264c0 -1 -14 -7 -15 -6c-88 154 -251 167 -321 170c-1 0 -63 1 -63 1v111z" />
		</symbol>
		<symbol id="E050" viewBox="0 0 1000 1000" overflow="inherit">
			<path transform="scale(1,-1)" d="M441 -245c-23 -4 -48 -6 -76 -6c-59 0 -102 7 -130 20c-88 42 -150 93 -187 154c-26 44 -43 103 -48 176c-4 60 11 123 44 189c29 57 65 106 110 148s96 85 153 127c-3 16 -8 46 -13 92c-4 43 -5 73 -5 89c0 117 16 172 69 257c34 54 64 82 89 82c21 0 43 -30 69 -92 s39 -115 41 -159c2 -120 -19 -173 -67 -256c-13 -20 -63 -90 -98 -118c-13 -9 -25 -19 -37 -29l31 -181c8 1 18 2 28 2c58 0 102 -12 133 -35c59 -43 92 -104 98 -184c11 -135 -80 -229 -180 -270c8 -57 17 -110 25 -162c5 -31 6 -58 6 -80c0 -30 -5 -53 -14 -70 c-35 -64 -88 -99 -158 -103c-42 -3 -83 6 -124 26c-50 24 -77 59 -80 105c-2 34 5 63 20 87c18 28 45 42 79 44c51 4 99 -40 103 -87c4 -56 -30 -94 -105 -115c17 -24 51 -36 102 -36c62 0 116 43 140 85c9 16 13 41 13 74c0 20 -1 42 -5 67c-8 53 -18 106 -26 159zM461 939 c-95 0 -135 -175 -135 -286c0 -24 2 -48 5 -71c50 39 92 82 127 128c43 57 63 106 60 148c-4 54 -23 82 -57 81zM406 119l54 -326c80 27 116 88 109 184c-7 99 -62 146 -163 142zM382 117c-74 -2 -132 -50 -128 -127c2 -46 43 -99 75 -115c-3 -2 -7 -5 -10 -10 c-70 33 -116 88 -123 172c-5 73 42 135 88 170c23 17 49 29 78 36l-29 170c-21 -13 -52 -37 -92 -73c-50 -44 -86 -84 -109 -119c-49 -75 -71 -140 -67 -195c5 -68 35 -127 93 -176s125 -73 203 -73c25 0 50 3 75 9c-19 111 -36 221 -54 331z" />
		</symbol>
		<symbol id="E082" viewBox="0 0 1000 1000" overflow="inherit">
			<path transform="scale(1,-1)" d="M104 -185c-18 0 -55 -14 -65 -65h-36l-3 29c0 25 6 46 18 64c11 19 22 30 39 43l121 82l37 29c15 11 27 29 38 54c12 24 18 47 18 70c0 40 -19 88 -94 88c-25 0 -32 0 -50 -8c-14 -5 -23 -12 -26 -22c3 -9 7 -15 10 -18l24 -17c12 -7 17 -11 27 -21c5 -7 7 -16 7 -27 c0 -12 0 -57 -79 -74c-30 0 -76 26 -76 94c0 66 80 135 196 135c72 0 182 -32 182 -150c0 -53 -32 -95 -113 -133l-91 -41c-26 -11 -45 -23 -57 -37l49 7c84 0 115 -41 148 -41c20 0 33 20 39 61h35c0 -152 -68 -168 -114 -168c-17 0 -55 0 -69 7v0l-28 17 c-49 37 -69 40 -87 42z" />
		</symbol>
		<symbol id="E084" viewBox="0 0 1000 1000" overflow="inherit">
			<path transform="scale(1,-1)" d="M0 -78c84 97 114 180 134 329h170c-13 -32 -82 -132 -99 -151l-84 -97c-33 -36 -59 -63 -80 -81h162v102l127 123v-225h57v-39h-57v-34c0 -43 19 -65 57 -65v-34h-244v36c48 0 60 26 60 70v27h-203v39z" />
		</symbol>
		<symbol id="E0A4" viewBox="0 0 1000 1000" overflow="inherit">
			<path transform="scale(1,-1)" d="M0 -39c0 68 73 172 200 172c66 0 114 -37 114 -95c0 -84 -106 -171 -218 -171c-64 0 -96 30 -96 94z" />
		</symbol>
		<symbol id="E260" viewBox="0 0 1000 1000" overflow="inherit">
			<path transform="scale(1,-1)" d="M20 110c32 16 54 27 93 27c26 0 35 -3 54 -13c13 -7 24 -20 27 -38l4 -25c0 -28 -16 -57 -45 -89c-23 -25 -39 -44 -65 -68l-88 -79v644h20v-359zM90 106c-32 0 -48 -10 -70 -29v-194c31 31 54 59 71 84c21 32 32 59 32 84c0 9 1 16 1 20c0 14 -3 21 -11 30l-8 3z" />
		</symbol>
		<symbol id="E4E7" viewBox="0 0 1000 1000" overflow="inherit">
			<path transform="scale(1,-1)" d="M133 -111c-16 38 -21 43 -64 51c-37 -4 -60 -25 -68 -60c0 -32 18 -52 55 -58c8 -6 22 -10 43 -10c31 0 62 7 82 20l-108 -324h37c72 220 143 439 215 659h-4l-10 -2l-7 -1c-15 -35 -27 -52 -59 -71c-26 -15 -56 -27 -88 -29c-11 0 -20 2 -26 6c29 3 56 25 51 56 c-15 35 -19 42 -64 48c-38 -4 -60 -23 -68 -58c0 -32 18 -52 55 -59c7 -5 22 -8 45 -8c48 0 76 7 112 25l-66 -197c-21 -23 -50 -47 -90 -47c-7 0 -15 1 -25 4c31 5 52 22 52 55z" />
		</symbol>
		<symbol id="E4E6" viewBox="0 0 1000 1000" overflow="inherit">
			<path transform="scale(1,-1)" d="M0 123c7 34 33 56 69 60c29 -3 43 -9 53 -29c4 -8 7 -15 10 -22c0 -21 -1 -25 -11 -35c-5 -8 -18 -14 -40 -20l12 -3l15 -1c44 0 97 26 122 56c10 11 18 26 24 42c7 1 15 2 22 3l-140 -424h-36l111 330c-10 -6 -27 -12 -53 -16l-52 -8h-10l-20 1c-1 0 -8 3 -21 6 c-37 9 -55 28 -55 60z" />
		</symbol>
		<symbol id="E062" viewBox="0 0 1000 1000" overflow="inherit">
			<path transform="scale(1,-1)" d="M158 96c51 0 73 -14 88 -49l16 -39c0 -17 -2 -30 -7 -40c-3 -11 -10 -21 -19 -31c-17 -18 -49 -43 -84 -43c-55 0 -77 13 -112 44c-24 21 -35 55 -35 100c0 46 14 81 32 112c30 52 71 79 137 93l36 6l26 2c154 0 235 -68 274 -182c11 -32 18 -68 18 -107 c0 -103 -26 -182 -68 -250c-89 -145 -234 -230 -412 -288l-30 -5c-9 0 -14 3 -14 8c3 10 5 11 10 16c35 15 70 30 96 44l78 43c96 57 162 136 197 258c9 33 17 60 22 100c3 22 5 35 6 39c-7 69 -16 115 -23 140s-4 22 -16 40c-8 12 -19 23 -31 34c-24 21 -62 44 -118 44 c-48 0 -84 -8 -113 -28c-28 -19 -42 -44 -42 -73v-16c2 -5 3 -9 4 -11c24 22 52 39 84 39zM585 -118c0 32 23 58 57 58c18 0 33 -6 40 -18c9 -15 16 -18 16 -40c0 -9 -2 -16 -5 -21c-6 -19 -27 -37 -51 -37c-34 0 -57 26 -57 58zM642 177c31 0 56 -27 56 -58 c0 -30 -25 -58 -56 -58l-23 3c-19 7 -34 32 -34 55l3 23c9 20 28 35 54 35z" />
		</symbol>
	</defs>
	<style type="text/css">g.page-margin{font-family:Times;} g.tempo{font-weight:bold;} g.dir, g.dynam, g.mNum{font-style:italic;} g.label{font-weight:normal;}</style>
	<svg class="definition-scale" viewBox="0 0 21000 6000">
		<g class="page-margin" transform="translate(500, 500)">
			<g class="system" id="system-0000001751250327">
				<path d="M13 720 L13 4571" stroke="#000000" stroke-width="27" />
				<use xlink:href="#E003" x="-167" y="720" height="720px" width="720px" />
				<use xlink:href="#E004" x="-167" y="4571" height="720px" width="720px" />
				<rect x="-167" y="702" height="3887" width="90" />
				<g class="section boundaryStart" id="section-L1F1" />
				<g class="measure" id="measure-L4">
					<g class="staff" id="staff-L4F3N1">
						<path d="M0 720 L5611 720" stroke="#000000" stroke-width="13" />
						<path d="M0 900 L5611 900" stroke="#000000" stroke-width="13" />
						<path d="M0 1080 L5611 1080" stroke="#000000" stroke-width="13" />
						<path d="M0 1260 L5611 1260" stroke="#000000" stroke-width="13" />
						<path d="M0 1440 L5611 1440" stroke="#000000" stroke-width="13" />
						<g class="clef" id="clef-0000000464113331">
							<use xlink:href="#E050" x="90" y="1260" height="720px" width="720px" />
						</g>
						<g class="meterSig" id="msig-0000000692148213">
							<use xlink:href="#E082" x="771" y="900" height="720px" width="720px" />
							<use xlink:href="#E084" x="777" y="1260" height="720px" width="720px" />
						</g>
						<g class="ledgerLines above">
							<path d="M4506 540 L4785 540" stroke="#000000" stroke-width="22" />
							<path d="M5151 540 L5430 540" stroke="#000000" stroke-width="22" />
						</g>
						<g class="layer" id="layer-L4F3N1">
							<g class="beam" id="beam-L5F3-L8F3">
								<polygon points="1625,1525 2847,1404 2847,1314 1625,1435 " />
								<polygon points="1625,1390 2847,1269 2847,1179 1625,1300 " />
								<g class="note" id="note-L5F3">
									<use xlink:href="#E0A4" x="1625" y="810" height="720px" width="720px" />
									<g class="stem">
										<rect x="1625" y="832" height="675" width="18" />
									</g>
									<g class="accid" id="accid-0000001244780018">
										<use xlink:href="#E260" x="1429" y="810" height="720px" width="720px" />
									</g>
								</g>
								<g class="note" id="note-L6F3">
									<use xlink:href="#E0A4" x="2023" y="810" height="720px" width="720px" />
									<g class="stem">
										<rect x="2023" y="832" height="635" width="18" />
									</g>
									<g class="accid" id="accid-0000000628204812" />
								</g>
								<g class="rest" id="rest-L7F3">
									<use xlink:href="#E4E7" x="2422" y="720" height="720px" width="720px" />
								</g>
								<g class="note" id="note-L8F3">
									<use xlink:href="#E0A4" x="2829" y="630" height="720px" width="720px" />
									<g class="stem">
										<rect x="2829" y="652" height="734" width="18" />
									</g>
									<g class="accid" id="accid-0000000806874623" />
								</g>
							</g>
							<g class="beam" id="beam-L9F3-L12F3">
								<polygon points="3475,1935 5200,1764 5200,1674 3475,1845 " />
								<polygon points="4546,1693 5200,1629 5200,1539 4546,1603 " />
								<g class="rest" id="rest-L9F3">
									<use xlink:href="#E4E6" x="3475" y="1080" height="720px" width="720px" />
								</g>
								<g class="note" id="note-L11F3">
									<use xlink:href="#E0A4" x="4537" y="540" height="720px" width="720px" />
									<g class="stem">
										<rect x="4537" y="562" height="1248" width="18" />
									</g>
									<g class="accid" id="accid-0000000611245590">
										<use xlink:href="#E260" x="4341" y="540" height="720px" width="720px" />
									</g>
								</g>
								<g class="note" id="note-L12F3">
									<use xlink:href="#E0A4" x="5182" y="450" height="720px" width="720px" />
									<g class="stem">
										<rect x="5182" y="472" height="1274" width="18" />
									</g>
									<g class="accid" id="accid-0000001977541786">
										<use xlink:href="#E260" x="4986" y="450" height="720px" width="720px" />
									</g>
								</g>
							</g>
						</g>
					</g>
					<g class="staff" id="staff-L4F2N1">
						<path d="M0 2411 L5611 2411" stroke="#000000" stroke-width="13" />
						<path d="M0 2591 L5611 2591" stroke="#000000" stroke-width="13" />
						<path d="M0 2771 L5611 2771" stroke="#000000" stroke-width="13" />
						<path d="M0 2951 L5611 2951" stroke="#000000" stroke-width="13" />
						<path d="M0 3131 L5611 3131" stroke="#000000" stroke-width="13" />
						<g class="clef" id="clef-0000000016100092">
							<use xlink:href="#E050" x="90" y="2951" height="720px" width="720px" />
						</g>
						<g class="meterSig" id="msig-0000000011306722">
							<use xlink:href="#E082" x="771" y="2591" height="720px" width="720px" />
							<use xlink:href="#E084" x="777" y="2951" height="720px" width="720px" />
						</g>
						<g class="layer" id="layer-L4F2N1">
							<g class="beam" id="beam-L5F2-L8F2">
								<polygon points="1625,3485 2847,3446 2847,3356 1625,3395 " />
								<polygon points="1625,3350 2847,3311 2847,3221 1625,3260 " />
								<g class="note" id="note-L5F2">
									<use xlink:href="#E0A4" x="1625" y="2771" height="720px" width="720px" />
									<g class="stem">
										<rect x="1625" y="2793" height="674" width="18" />
									</g>
									<g class="accid" id="accid-0000000417357302">
										<use xlink:href="#E260" x="1429" y="2771" height="720px" width="720px" />
									</g>
								</g>
								<g class="rest" id="rest-L6F2">
									<use xlink:href="#E4E6" x="2023" y="2771" height="720px" width="720px" />
								</g>
								<g class="note" id="note-L8F2">
									<use xlink:href="#E0A4" x="2829" y="2771" height="720px" width="720px" />
									<g class="stem">
										<rect x="2829" y="2793" height="635" width="18" />
									</g>
									<g class="accid" id="accid-0000001391912540" />
								</g>
							</g>
							<g class="beam" id="beam-L9F2-L12F2">
								<polygon points="3683,2016 5408,1980 5408,2070 3683,2106 " />
								<polygon points="3683,2151 5408,2115 5408,2205 3683,2241 " />
								<g class="rest" id="rest-L9F2">
									<use xlink:href="#E4E7" x="3475" y="2771" height="720px" width="720px" />
								</g>
								<g class="note" id="note-L10F2">
									<use xlink:href="#E0A4" x="3882" y="2681" height="720px" width="720px" />
									<g class="stem">
										<rect x="4090" y="2025" height="634" width="18" />
									</g>
									<g class="accid" id="accid-0000000208098430" />
								</g>
								<g class="note" id="note-L11F2">
									<use xlink:href="#E0A4" x="4537" y="3041" height="720px" width="720px" />
									<g class="stem">
										<rect x="4745" y="2011" height="1008" width="18" />
									</g>
									<g class="accid" id="accid-0000000425771941" />
								</g>
								<g class="note" id="note-L12F2">
									<use xlink:href="#E0A4" x="5182" y="2771" height="720px" width="720px" />
									<g class="stem">
										<rect x="5390" y="1998" height="751" width="18" />
									</g>
									<g class="accid" id="accid-0000000800072256" />
								</g>
							</g>
						</g>
					</g>
					<g class="staff" id="staff-L4F1N1">
						<path d="M0 3851 L5611 3851" stroke="#000000" stroke-width="13" />
						<path d="M0 4031 L5611 4031" stroke="#000000" stroke-width="13" />
						<path d="M0 4211 L5611 4211" stroke="#000000" stroke-width="13" />
						<path d="M0 4391 L5611 4391" stroke="#000000" stroke-width="13" />
						<path d="M0 4571 L5611 4571" stroke="#000000" stroke-width="13" />
						<g class="clef" id="clef-0000001053515718">
							<use xlink:href="#E062" x="90" y="4031" height="720px" width="720px" />
						</g>
						<g class="meterSig" id="msig-0000000436002911">
							<use xlink:href="#E082" x="771" y="4031" height="720px" width="720px" />
							<use xlink:href="#E084" x="777" y="4391" height="720px" width="720px" />
						</g>
						<g class="layer" id="layer-L4F1N1">
							<g class="beam" id="beam-L5F1-L8F1">
								<polygon points="1625,4796 2847,4795 2847,4705 1625,4706 " />
								<polygon points="1625,4661 2847,4660 2847,4570 1625,4571 " />
								<g class="note" id="note-L5F1">
									<use xlink:href="#E0A4" x="1625" y="4121" height="720px" width="720px" />
									<g class="stem">
										<rect x="1625" y="4143" height="635" width="18" />
									</g>
									<g class="accid" id="accid-0000001200962685">
										<use xlink:href="#E260" x="1429" y="4121" height="720px" width="720px" />
									</g>
								</g>
								<g class="note" id="note-L6F1">
									<use xlink:href="#E0A4" x="2023" y="4121" height="720px" width="720px" />
									<g class="stem">
										<rect x="2023" y="4143" height="635" width="18" />
									</g>
									<g class="accid" id="accid-0000000488290740" />
								</g>
								<g class="rest" id="rest-L7F1">
									<use xlink:href="#E4E7" x="2422" y="4211" height="720px" width="720px" />
								</g>
								<g class="note" id="note-L8F1">
									<use xlink:href="#E0A4" x="2829" y="4031" height="720px" width="720px" />
									<g class="stem">
										<rect x="2829" y="4053" height="724" width="18" />
									</g>
									<g class="accid" id="accid-0000001981163613" />
								</g>
							</g>
							<g class="beam" id="beam-L9F1-L12F1">
								<polygon points="3475,4607 5200,4436 5200,4346 3475,4517 " />
								<polygon points="3475,4472 5200,4301 5200,4211 3475,4382 " />
								<g class="note" id="note-L9F1">
									<use xlink:href="#E0A4" x="3475" y="3851" height="720px" width="720px" />
									<g class="stem">
										<rect x="3475" y="3873" height="716" width="18" />
									</g>
									<g class="accid" id="accid-0000000261866559">
										<use xlink:href="#E260" x="3279" y="3851" height="720px" width="720px" />
									</g>
								</g>
								<g class="rest" id="rest-L10F1">
									<use xlink:href="#E4E7" x="3882" y="3851" height="720px" width="720px" />
								</g>
								<g class="note" id="note-L11F1">
									<use xlink:href="#E0A4" x="4537" y="3761" height="720px" width="720px" />
									<g class="stem">
										<rect x="4537" y="3783" height="699" width="18" />
									</g>
									<g class="accid" id="accid-0000001471669852">
										<use xlink:href="#E260" x="4341" y="3761" height="720px" width="720px" />
									</g>
								</g>
								<g class="note" id="note-L12F1">
									<use xlink:href="#E0A4" x="5182" y="3761" height="720px" width="720px" />
									<g class="stem">
										<rect x="5182" y="3783" height="635" width="18" />
									</g>
									<g class="accid" id="accid-0000000448954689" />
								</g>
							</g>
						</g>
					</g>
					<g class="mNum autogenerated" id="mnum-0000000146510903" />
					<g class="barLineAttr" id="bline-0000000089411385">
						<path d="M5598 1440 L5598 720" stroke="#000000" stroke-width="27" />
						<path d="M5598 3131 L5598 2411" stroke="#000000" stroke-width="27" />
						<path d="M5598 4571 L5598 3851" stroke="#000000" stroke-width="27" />
					</g>
				</g>
				<g class="measure" id="measure-L13">
					<g class="staff" id="staff-L13F3N1">
						<path d="M5611 720 L10576 720" stroke="#000000" stroke-width="13" />
						<path d="M5611 900 L10576 900" stroke="#000000" stroke-width="13" />
						<path d="M5611 1080 L10576 1080" stroke="#000000" stroke-width="13" />
						<path d="M5611 1260 L10576 1260" stroke="#000000" stroke-width="13" />
						<path d="M5611 1440 L10576 1440" stroke="#000000" stroke-width="13" />
						<g class="ledgerLines above">
							<path d="M6055 540 L6334 540" stroke="#000000" stroke-width="22" />
							<path d="M7753 540 L8032 540" stroke="#000000" stroke-width="22" />
							<path d="M8399 540 L8678 540" stroke="#000000" stroke-width="22" />
							<path d="M8798 540 L9077 540" stroke="#000000" stroke-width="22" />
						</g>
						<g class="layer" id="layer-L13F3N1">
							<g class="beam" id="beam-L14F3-L17F3">
								<polygon points="6086,1261 7802,1377 7802,1287 6086,1171 " />
								<polygon points="6086,1126 7802,1242 7802,1152 6086,1036 " />
								<g class="note" id="note-L14F3">
									<use xlink:href="#E0A4" x="6086" y="540" height="720px" width="720px" />
									<g class="stem">
										<rect x="6086" y="562" height="681" width="18" />
									</g>
									<g class="accid" id="accid-0000000279022721">
										<use xlink:href="#E260" x="5890" y="540" height="720px" width="720px" />
									</g>
								</g>
								<g class="note" id="note-L15F3">
									<use xlink:href="#E0A4" x="6731" y="630" height="720px" width="720px" />
									<g class="stem">
										<rect x="6731" y="652" height="635" width="18" />
									</g>
									<g class="accid" id="accid-0000001206945472" />
								</g>
								<g class="rest" id="rest-L16F3">
									<use xlink:href="#E4E7" x="7377" y="720" height="720px" width="720px" />
								</g>
								<g class="note" id="note-L17F3">
									<use xlink:href="#E0A4" x="7784" y="540" height="720px" width="720px" />
									<g class="stem">
										<rect x="7784" y="562" height="797" width="18" />
									</g>
									<g class="accid" id="accid-0000000520542422" />
								</g>
							</g>
							<g class="beam" id="beam-L18F3-L21F3">
								<polygon points="8430,1314 10156,1485 10156,1395 8430,1224 " />
								<polygon points="8430,1179 10156,1350 10156,1260 8430,1089 " />
								<g class="note" id="note-L18F3">
									<use xlink:href="#E0A4" x="8430" y="450" height="720px" width="720px" />
									<g class="stem">
										<rect x="8430" y="472" height="824" width="18" />
									</g>
									<g class="accid" id="accid-0000001055473078">
										<use xlink:href="#E260" x="8234" y="450" height="720px" width="720px" />
									</g>
								</g>
								<g class="note" id="note-L19F3">
									<use xlink:href="#E0A4" x="8829" y="450" height="720px" width="720px" />
									<g class="stem">
										<rect x="8829" y="472" height="864" width="18" />
									</g>
									<g class="accid" id="accid-0000000267962104" />
								</g>
								<g class="rest" id="rest-L20F3">
									<use xlink:href="#E4E7" x="9483" y="720" height="720px" width="720px" />
								</g>
								<g class="note" id="note-L21F3">
									<use xlink:href="#E0A4" x="10138" y="810" height="720px" width="720px" />
									<g class="stem">
										<rect x="10138" y="832" height="635" width="18" />
									</g>
									<g class="accid" id="accid-0000001994967215">
										<use xlink:href="#E260" x="9942" y="810" height="720px" width="720px" />
									</g>
								</g>
							</g>
						</g>
					</g>
					<g class="staff" id="staff-L13F2N1">
						<path d="M5611 2411 L10576 2411" stroke="#000000" stroke-width="13" />
						<path d="M5611 2591 L10576 2591" stroke="#000000" stroke-width="13" />
						<path d="M5611 2771 L10576 2771" stroke="#000000" stroke-width="13" />
						<path d="M5611 2951 L10576 2951" stroke="#000000" stroke-width="13" />
						<path d="M5611 3131 L10576 3131" stroke="#000000" stroke-width="13" />
						<g class="layer" id="layer-L13F2N1">
							<g class="beam" id="beam-L14F2-L17F2">
								<polygon points="6294,2007 8010,2177 8010,2267 6294,2097 " />
								<polygon points="6294,2142 8010,2312 8010,2402 6294,2232 " />
								<g class="note" id="note-L14F2">
									<use xlink:href="#E0A4" x="6086" y="2681" height="720px" width="720px" />
									<g class="stem">
										<rect x="6294" y="2025" height="634" width="18" />
									</g>
									<g class="accid" id="accid-0000001854135313" />
								</g>
								<g class="note" id="note-L15F2">
									<use xlink:href="#E0A4" x="6731" y="2771" height="720px" width="720px" />
									<g class="stem">
										<rect x="6939" y="2090" height="659" width="18" />
									</g>
									<g class="accid" id="accid-0000002126346458">
										<use xlink:href="#E260" x="6535" y="2771" height="720px" width="720px" />
									</g>
								</g>
								<g class="note" id="note-L16F2">
									<use xlink:href="#E0A4" x="7377" y="2861" height="720px" width="720px" />
									<g class="stem">
										<rect x="7585" y="2154" height="685" width="18" />
									</g>
									<g class="accid" id="accid-0000001957164919">
										<use xlink:href="#E260" x="7181" y="2861" height="720px" width="720px" />
									</g>
								</g>
								<g class="note" id="note-L17F2">
									<use xlink:href="#E0A4" x="7784" y="2951" height="720px" width="720px" />
									<g class="stem">
										<rect x="7992" y="2195" height="734" width="18" />
									</g>
									<g class="accid" id="accid-0000001023617663" />
								</g>
							</g>
							<g class="beam" id="beam-L18F2-L21F2">
								<polygon points="8638,2201 10364,2178 10364,2268 8638,2291 " />
								<polygon points="8638,2336 10364,2313 10364,2403 8638,2426 " />
								<g class="note" id="note-L18F2">
									<use xlink:href="#E0A4" x="8430" y="2951" height="720px" width="720px" />
									<g class="stem">
										<rect x="8638" y="2219" height="710" width="18" />
									</g>
									<g class="accid" id="accid-0000000119490161" />
								</g>
								<g class="rest" id="rest-L19F2">
									<use xlink:href="#E4E7" x="8829" y="2771" height="720px" width="720px" />
								</g>
								<g class="note" id="note-L20F2">
									<use xlink:href="#E0A4" x="9483" y="2861" height="720px" width="720px" />
									<g class="stem">
										<rect x="9691" y="2205" height="634" width="18" />
									</g>
									<g class="accid" id="accid-0000001291800306" />
								</g>
								<g class="rest" id="rest-L21F2">
									<use xlink:href="#E4E7" x="10138" y="2771" height="720px" width="720px" />
								</g>
							</g>
						</g>
					</g>
					<g class="staff" id="staff-L13F1N1">
						<path d="M5611 3851 L10576 3851" stroke="#000000" stroke-width="13" />
						<path d="M5611 4031 L10576 4031" stroke="#000000" stroke-width="13" />
						<path d="M5611 4211 L10576 4211" stroke="#000000" stroke-width="13" />
						<path d="M5611 4391 L10576 4391" stroke="#000000" stroke-width="13" />
						<path d="M5611 4571 L10576 4571" stroke="#000000" stroke-width="13" />
						<g class="ledgerLines above">
							<path d="M6700 3671 L6979 3671" stroke="#000000" stroke-width="22" />
						</g>
						<g class="layer" id="layer-L13F1N1">
							<g class="beam" id="beam-L14F1-L17F1">
								<polygon points="6086,5067 7802,5120 7802,5030 6086,4977 " />
								<polygon points="6086,4932 7802,4985 7802,4895 6086,4842 " />
								<g class="rest" id="rest-L14F1">
									<use xlink:href="#E4E7" x="6086" y="4211" height="720px" width="720px" />
								</g>
								<g class="note" id="note-L15F1">
									<use xlink:href="#E0A4" x="6731" y="3671" height="720px" width="720px" />
									<g class="stem">
										<rect x="6731" y="3693" height="1376" width="18" />
									</g>
									<g class="accid" id="accid-0000001334716361" />
								</g>
								<g class="note" id="note-L16F1">
									<use xlink:href="#E0A4" x="7377" y="4031" height="720px" width="720px" />
									<g class="stem">
										<rect x="7377" y="4053" height="1036" width="18" />
									</g>
									<g class="accid" id="accid-0000001985210750" />
								</g>
								<g class="rest" id="rest-L17F1">
									<use xlink:href="#E4E7" x="7784" y="4211" height="720px" width="720px" />
								</g>
							</g>
							<g class="beam" id="beam-L18F1-L21F1">
								<polygon points="8430,4616 10156,4445 10156,4355 8430,4526 " />
								<polygon points="8430,4481 10156,4310 10156,4220 8430,4391 " />
								<g class="note" id="note-L18F1">
									<use xlink:href="#E0A4" x="8430" y="3941" height="720px" width="720px" />
									<g class="stem">
										<rect x="8430" y="3963" height="635" width="18" />
									</g>
									<g class="accid" id="accid-0000000823237216" />
								</g>
								<g class="rest" id="rest-L19F1">
									<use xlink:href="#E4E7" x="8829" y="3851" height="720px" width="720px" />
								</g>
								<g class="note" id="note-L20F1">
									<use xlink:href="#E0A4" x="9483" y="3761" height="720px" width="720px" />
									<g class="stem">
										<rect x="9483" y="3783" height="709" width="18" />
									</g>
									<g class="accid" id="accid-0000001800927381">
										<use xlink:href="#E260" x="9287" y="3761" height="720px" width="720px" />
									</g>
								</g>
								<g class="note" id="note-L21F1">
									<use xlink:href="#E0A4" x="10138" y="3761" height="720px" width="720px" />
									<g class="stem">
										<rect x="10138" y="3783" height="644" width="18" />
									</g>
									<g class="accid" id="accid-0000000651128281" />
								</g>
							</g>
						</g>
					</g>
					<g class="mNum autogenerated" id="mnum-0000000256577007" />
					<g class="barLineAttr" id="bline-0000001334003965">
						<path d="M10563 1440 L10563 720" stroke="#000000" stroke-width="27" />
						<path d="M10563 3131 L10563 2411" stroke="#000000" stroke-width="27" />
						<path d="M10563 4571 L10563 3851" stroke="#000000" stroke-width="27" />
					</g>
				</g>
				<g class="measure" id="measure-L22">
					<g class="staff" id="staff-L22F3N1">
						<path d="M10576 720 L15037 720" stroke="#000000" stroke-width="13" />
						<path d="M10576 900 L15037 900" stroke="#000000" stroke-width="13" />
						<path d="M10576 1080 L15037 1080" stroke="#000000" stroke-width="13" />
						<path d="M10576 1260 L15037 1260" stroke="#000000" stroke-width="13" />
						<path d="M10576 1440 L15037 1440" stroke="#000000" stroke-width="13" />
						<g class="ledgerLines above">
							<path d="M13932 540 L14211 540" stroke="#000000" stroke-width="22" />
							<path d="M14577 540 L14856 540" stroke="#000000" stroke-width="22" />
						</g>
						<g class="layer" id="layer-L22F3N1">
							<g class="beam" id="beam-L23F3-L26F3">
								<polygon points="11051,1540 12520,1418 12520,1328 11051,1450 " />
								<polygon points="11051,1405 12520,1283 12520,1193 11051,1315 " />
								<g class="note" id="note-L23F3">
									<use xlink:href="#E0A4" x="11051" y="810" height="720px" width="720px" />
									<g class="stem">
										<rect x="11051" y="832" height="690" width="18" />
									</g>
									<g class="accid" id="accid-0000001929058736">
										<use xlink:href="#E260" x="10855" y="810" height="720px" width="720px" />
									</g>
								</g>
								<g class="note" id="note-L24F3">
									<use xlink:href="#E0A4" x="11696" y="810" height="720px" width="720px" />
									<g class="stem">
										<rect x="11696" y="832" height="635" width="18" />
									</g>
									<g class="accid" id="accid-0000000712303271" />
								</g>
								<g class="rest" id="rest-L25F3">
									<use xlink:href="#E4E7" x="12095" y="720" height="720px" width="720px" />
								</g>
								<g class="note" id="note-L26F3">
									<use xlink:href="#E0A4" x="12502" y="630" height="720px" width="720px" />
									<g class="stem">
										<rect x="12502" y="652" height="748" width="18" />
									</g>
									<g class="accid" id="accid-0000001255270909" />
								</g>
							</g>
							<g class="beam" id="beam-L27F3-L30F3">
								<polygon points="12901,1935 14626,1764 14626,1674 12901,1845 " />
								<polygon points="13972,1693 14626,1629 14626,1539 13972,1603 " />
								<g class="rest" id="rest-L27F3">
									<use xlink:href="#E4E6" x="12901" y="1080" height="720px" width="720px" />
								</g>
								<g class="note" id="note-L29F3">
									<use xlink:href="#E0A4" x="13963" y="540" height="720px" width="720px" />
									<g class="stem">
										<rect x="13963" y="562" height="1248" width="18" />
									</g>
									<g class="accid" id="accid-0000000026882426">
										<use xlink:href="#E260" x="13767" y="540" height="720px" width="720px" />
									</g>
								</g>
								<g class="note" id="note-L30F3">
									<use xlink:href="#E0A4" x="14608" y="450" height="720px" width="720px" />
									<g class="stem">
										<rect x="14608" y="472" height="1274" width="18" />
									</g>
									<g class="accid" id="accid-0000001838165136">
										<use xlink:href="#E260" x="14412" y="450" height="720px" width="720px" />
									</g>
								</g>
							</g>
						</g>
					</g>
					<g class="staff" id="staff-L22F2N1">
						<path d="M10576 2411 L15037 2411" stroke="#000000" stroke-width="13" />
						<path d="M10576 2591 L15037 2591" stroke="#000000" stroke-width="13" />
						<path d="M10576 2771 L15037 2771" stroke="#000000" stroke-width="13" />
						<path d="M10576 2951 L15037 2951" stroke="#000000" stroke-width="13" />
						<path d="M10576 3131 L15037 3131" stroke="#000000" stroke-width="13" />
						<g class="layer" id="layer-L22F2N1">
							<g class="beam" id="beam-L23F2-L26F2">
								<polygon points="11051,3459 12520,3446 12520,3356 11051,3369 " />
								<polygon points="11051,3324 12520,3311 12520,3221 11051,3234 " />
								<g class="note" id="note-L23F2">
									<use xlink:href="#E0A4" x="11051" y="2771" height="720px" width="720px" />
									<g class="stem">
										<rect x="11051" y="2793" height="648" width="18" />
									</g>
									<g class="accid" id="accid-0000000889239313">
										<use xlink:href="#E260" x="10855" y="2771" height="720px" width="720px" />
									</g>
								</g>
								<g class="rest" id="rest-L24F2">
									<use xlink:href="#E4E6" x="11696" y="2771" height="720px" width="720px" />
								</g>
								<g class="note" id="note-L26F2">
									<use xlink:href="#E0A4" x="12502" y="2771" height="720px" width="720px" />
									<g class="stem">
										<rect x="12502" y="2793" height="635" width="18" />
									</g>
									<g class="accid" id="accid-0000001305358670" />
								</g>
							</g>
							<g class="beam" id="beam-L27F2-L30F2">
								<polygon points="13109,2016 14834,1980 14834,2070 13109,2106 " />
								<polygon points="13109,2151 14834,2115 14834,2205 13109,2241 " />
								<g class="rest" id="rest-L27F2">
									<use xlink:href="#E4E7" x="12901" y="2771" height="720px" width="720px" />
								</g>
								<g class="note" id="note-L28F2">
									<use xlink:href="#E0A4" x="13308" y="2681" height="720px" width="720px" />
									<g class="stem">
										<rect x="13516" y="2025" height="634" width="18" />
									</g>
									<g class="accid" id="accid-0000000435763738" />
								</g>
								<g class="note" id="note-L29F2">
									<use xlink:href="#E0A4" x="13963" y="3041" height="720px" width="720px" />
									<g class="stem">
										<rect x="14171" y="2011" height="1008" width="18" />
									</g>
									<g class="accid" id="accid-0000000535836256" />
								</g>
								<g class="note" id="note-L30F2">
									<use xlink:href="#E0A4" x="14608" y="2771" height="720px" width="720px" />
									<g class="stem">
										<rect x="14816" y="1998" height="751" width="18" />
									</g>
									<g class="accid" id="accid-0000001978166139" />
								</g>
							</g>
						</g>
					</g>
					<g class="staff" id="staff-L22F1N1">
						<path d="M10576 3851 L15037 3851" stroke="#000000" stroke-width="13" />
						<path d="M10576 4031 L15037 4031" stroke="#000000" stroke-width="13" />
						<path d="M10576 4211 L15037 4211" stroke="#000000" stroke-width="13" />
						<path d="M10576 4391 L15037 4391" stroke="#000000" stroke-width="13" />
						<path d="M10576 4571 L15037 4571" stroke="#000000" stroke-width="13" />
						<g class="layer" id="layer-L22F1N1">
							<g class="beam" id="beam-L23F1-L26F1">
								<polygon points="11051,5156 12520,5010 12520,4920 11051,5066 " />
								<polygon points="11051,5021 12520,4875 12520,4785 11051,4931 " />
								<g class="note" id="note-L23F1">
									<use xlink:href="#E0A4" x="11051" y="4481" height="720px" width="720px" />
									<g class="stem">
										<rect x="11051" y="4503" height="635" width="18" />
									</g>
									<g class="accid" id="accid-0000000037209747">
										<use xlink:href="#E260" x="10855" y="4481" height="720px" width="720px" />
									</g>
								</g>
								<g class="note" id="note-L24F1">
									<use xlink:href="#E0A4" x="11696" y="4121" height="720px" width="720px" />
									<g class="stem">
										<rect x="11696" y="4143" height="930" width="18" />
									</g>
									<g class="accid" id="accid-0000001756097914">
										<use xlink:href="#E260" x="11500" y="4121" height="720px" width="720px" />
									</g>
								</g>
								<g class="rest" id="rest-L25F1">
									<use xlink:href="#E4E7" x="12095" y="4211" height="720px" width="720px" />
								</g>
								<g class="note" id="note-L26F1">
									<use xlink:href="#E0A4" x="12502" y="4031" height="720px" width="720px" />
									<g class="stem">
										<rect x="12502" y="4053" height="939" width="18" />
									</g>
									<g class="accid" id="accid-0000000244804012" />
								</g>
							</g>
							<g class="beam" id="beam-L27F1-L30F1">
								<polygon points="12901,5156 14626,4985 14626,4895 12901,5066 " />
								<polygon points="12901,5021 14626,4850 14626,4760 12901,4931 " />
								<g class="note" id="note-L27F1">
									<use xlink:href="#E0A4" x="12901" y="4481" height="720px" width="720px" />
									<g class="stem">
										<rect x="12901" y="4503" height="635" width="18" />
									</g>
									<g class="accid" id="accid-0000000777167418" />
								</g>
								<g class="rest" id="rest-L28F1">
									<use xlink:href="#E4E7" x="13308" y="4211" height="720px" width="720px" />
								</g>
								<g class="note" id="note-L29F1">
									<use xlink:href="#E0A4" x="13963" y="3761" height="720px" width="720px" />
									<g class="stem">
										<rect x="13963" y="3783" height="1248" width="18" />
									</g>
									<g class="accid" id="accid-0000000595651975">
										<use xlink:href="#E260" x="13767" y="3761" height="720px" width="720px" />
									</g>
								</g>
								<g class="note" id="note-L30F1">
									<use xlink:href="#E0A4" x="14608" y="3761" height="720px" width="720px" />
									<g class="stem">
										<rect x="14608" y="3783" height="1184" width="18" />
									</g>
									<g class="accid" id="accid-0000000632667054" />
								</g>
							</g>
						</g>
					</g>
					<g class="mNum autogenerated" id="mnum-0000002124234306" />
					<g class="barLineAttr" id="bline-0000000046969016">
						<path d="M15024 1440 L15024 720" stroke="#000000" stroke-width="27" />
						<path d="M15024 3131 L15024 2411" stroke="#000000" stroke-width="27" />
						<path d="M15024 4571 L15024 3851" stroke="#000000" stroke-width="27" />
					</g>
				</g>
				<g class="measure" id="measure-L31">
					<g class="staff" id="staff-L31F3N1">
						<path d="M15037 720 L20002 720" stroke="#000000" stroke-width="13" />
						<path d="M15037 900 L20002 900" stroke="#000000" stroke-width="13" />
						<path d="M15037 1080 L20002 1080" stroke="#000000" stroke-width="13" />
						<path d="M15037 1260 L20002 1260" stroke="#000000" stroke-width="13" />
						<path d="M15037 1440 L20002 1440" stroke="#000000" stroke-width="13" />
						<g class="ledgerLines above">
							<path d="M15481 540 L15760 540" stroke="#000000" stroke-width="22" />
							<path d="M17179 540 L17458 540" stroke="#000000" stroke-width="22" />
							<path d="M17825 540 L18104 540" stroke="#000000" stroke-width="22" />
							<path d="M18224 540 L18503 540" stroke="#000000" stroke-width="22" />
						</g>
						<g class="layer" id="layer-L31F3N1">
							<g class="beam" id="beam-L32F3-L35F3">
								<polygon points="15512,1261 17228,1377 17228,1287 15512,1171 " />
								<polygon points="15512,1126 17228,1242 17228,1152 15512,1036 " />
								<g class="note" id="note-L32F3">
									<use xlink:href="#E0A4" x="15512" y="540" height="720px" width="720px" />
									<g class="stem">
										<rect x="15512" y="562" height="681" width="18" />
									</g>
									<g class="accid" id="accid-0000000682838423">
										<use xlink:href="#E260" x="15316" y="540" height="720px" width="720px" />
									</g>
								</g>
								<g class="note" id="note-L33F3">
									<use xlink:href="#E0A4" x="16157" y="630" height="720px" width="720px" />
									<g class="stem">
										<rect x="16157" y="652" height="635" width="18" />
									</g>
									<g class="accid" id="accid-0000001762198742" />
								</g>
								<g class="rest" id="rest-L34F3">
									<use xlink:href="#E4E7" x="16803" y="720" height="720px" width="720px" />
								</g>
								<g class="note" id="note-L35F3">
									<use xlink:href="#E0A4" x="17210" y="540" height="720px" width="720px" />
									<g class="stem">
										<rect x="17210" y="562" height="797" width="18" />
									</g>
									<g class="accid" id="accid-0000000473718210" />
								</g>
							</g>
							<g class="beam" id="beam-L36F3-L39F3">
								<polygon points="17856,1314 19582,1485 19582,1395 17856,1224 " />
								<polygon points="17856,1179 19582,1350 19582,1260 17856,1089 " />
								<g class="note" id="note-L36F3">
									<use xlink:href="#E0A4" x="17856" y="450" height="720px" width="720px" />
									<g class="stem">
										<rect x="17856" y="472" height="824" width="18" />
									</g>
									<g class="accid" id="accid-0000001496161330">
										<use xlink:href="#E260" x="17660" y="450" height="720px" width="720px" />
									</g>
								</g>
								<g class="note" id="note-L37F3">
									<use xlink:href="#E0A4" x="18255" y="450" height="720px" width="720px" />
									<g class="stem">
										<rect x="18255" y="472" height="864" width="18" />
									</g>
									<g class="accid" id="accid-0000000114971626" />
								</g>
								<g class="rest" id="rest-L38F3">
									<use xlink:href="#E4E7" x="18909" y="720" height="720px" width="720px" />
								</g>
								<g class="note" id="note-L39F3">
									<use xlink:href="#E0A4" x="19564" y="810" height="720px" width="720px" />
									<g class="stem">
										<rect x="19564" y="832" height="635" width="18" />
									</g>
									<g class="accid" id="accid-0000001088810414">
										<use xlink:href="#E260" x="19368" y="810" height="720px" width="720px" />
									</g>
								</g>
							</g>
						</g>
					</g>
					<g class="staff" id="staff-L31F2N1">
						<path d="M15037 2411 L20002 2411" stroke="#000000" stroke-width="13" />
						<path d="M15037 2591 L20002 2591" stroke="#000000" stroke-width="13" />
						<path d="M15037 2771 L20002 2771" stroke="#000000" stroke-width="13" />
						<path d="M15037 2951 L20002 2951" stroke="#000000" stroke-width="13" />
						<path d="M15037 3131 L20002 3131" stroke="#000000" stroke-width="13" />
						<g class="layer" id="layer-L31F2N1">
							<g class="beam" id="beam-L32F2-L35F2">
								<polygon points="15720,2007 17436,2177 17436,2267 15720,2097 " />
								<polygon points="15720,2142 17436,2312 17436,2402 15720,2232 " />
								<g class="note" id="note-L32F2">
									<use xlink:href="#E0A4" x="15512" y="2681" height="720px" width="720px" />
									<g class="stem">
										<rect x="15720" y="2025" height="634" width="18" />
									</g>
									<g class="accid" id="accid-0000000713781168" />
								</g>
								<g class="note" id="note-L33F2">
									<use xlink:href="#E0A4" x="16157" y="2771" height="720px" width="720px" />
									<g class="stem">
										<rect x="16365" y="2090" height="659" width="18" />
									</g>
									<g class="accid" id="accid-0000000122333020">
										<use xlink:href="#E260" x="15961" y="2771" height="720px" width="720px" />
									</g>
								</g>
								<g class="note" id="note-L34F2">
									<use xlink:href="#E0A4" x="16803" y="2861" height="720px" width="720px" />
									<g class="stem">
										<rect x="17011" y="2154" height="685" width="18" />
									</g>
									<g class="accid" id="accid-0000001863315122">
										<use xlink:href="#E260" x="16607" y="2861" height="720px" width="720px" />
									</g>
								</g>
								<g class="note" id="note-L35F2">
									<use xlink:href="#E0A4" x="17210" y="2951" height="720px" width="720px" />
									<g class="stem">
										<rect x="17418" y="2195" height="734" width="18" />
									</g>
									<g class="accid" id="accid-0000001635510575" />
								</g>
							</g>
							<g class="beam" id="beam-L36F2-L39F2">
								<polygon points="18064,2201 19790,2178 19790,2268 18064,2291 " />
								<polygon points="18064,2336 19790,2313 19790,2403 18064,2426 " />
								<g class="note" id="note-L36F2">
									<use xlink:href="#E0A4" x="17856" y="2951" height="720px" width="720px" />
									<g class="stem">
										<rect x="18064" y="2219" height="710" width="18" />
									</g>
									<g class="accid" id="accid-0000002096500357" />
								</g>
								<g class="rest" id="rest-L37F2">
									<use xlink:href="#E4E7" x="18255" y="2771" height="720px" width="720px" />
								</g>
								<g class="note" id="note-L38F2">
									<use xlink:href="#E0A4" x="18909" y="2861" height="720px" width="720px" />
									<g class="stem">
										<rect x="19117" y="2205" height="634" width="18" />
									</g>
									<g class="accid" id="accid-0000001574077992" />
								</g>
								<g class="rest" id="rest-L39F2">
									<use xlink:href="#E4E7" x="19564" y="2771" height="720px" width="720px" />
								</g>
							</g>
						</g>
					</g>
					<g class="staff" id="staff-L31F1N1">
						<path d="M15037 3851 L20002 3851" stroke="#000000" stroke-width="13" />
						<path d="M15037 4031 L20002 4031" stroke="#000000" stroke-width="13" />
						<path d="M15037 4211 L20002 4211" stroke="#000000" stroke-width="13" />
						<path d="M15037 4391 L20002 4391" stroke="#000000" stroke-width="13" />
						<path d="M15037 4571 L20002 4571" stroke="#000000" stroke-width="13" />
						<g class="ledgerLines above">
							<path d="M16126 3671 L16405 3671" stroke="#000000" stroke-width="22" />
						</g>
						<g class="layer" id="layer-L31F1N1">
							<g class="beam" id="beam-L32F1-L35F1">
								<polygon points="15512,5067 17228,5120 17228,5030 15512,4977 " />
								<polygon points="15512,4932 17228,4985 17228,4895 15512,4842 " />
								<g class="rest" id="rest-L32F1">
									<use xlink:href="#E4E7" x="15512" y="4211" height="720px" width="720px" />
								</g>
								<g class="note" id="note-L33F1">
									<use xlink:href="#E0A4" x="16157" y="3671" height="720px" width="720px" />
									<g class="stem">
										<rect x="16157" y="3693" height="1376" width="18" />
									</g>
									<g class="accid" id="accid-0000000054350583" />
								</g>
								<g class="note" id="note-L34F1">
									<use xlink:href="#E0A4" x="16803" y="4031" height="720px" width="720px" />
									<g class="stem">
										<rect x="16803" y="4053" height="1036" width="18" />
									</g>
									<g class="accid" id="accid-0000001013851882" />
								</g>
								<g class="rest" id="rest-L35F1">
									<use xlink:href="#E4E7" x="17210" y="4211" height="720px" width="720px" />
								</g>
							</g>
							<g class="beam" id="beam-L36F1-L39F1">
								<polygon points="17856,4616 19582,4445 19582,4355 17856,4526 " />
								<polygon points="17856,4481 19582,4310 19582,4220 17856,4391 " />
								<g class="note" id="note-L36F1">
									<use xlink:href="#E0A4" x="17856" y="3941" height="720px" width="720px" />
									<g class="stem">
										<rect x="17856" y="3963" height="635" width="18" />
									</g>
									<g class="accid" id="accid-0000000923712903" />
								</g>
								<g class="rest" id="rest-L37F1">
									<use xlink:href="#E4E7" x="18255" y="3851" height="720px" width="720px" />
								</g>
								<g class="note" id="note-L38F1">
									<use xlink:href="#E0A4" x="18909" y="3761" height="720px" width="720px" />
									<g class="stem">
										<rect x="18909" y="3783" height="709" width="18" />
									</g>
									<g class="accid" id="accid-0000001475373824">
										<use xlink:href="#E260" x="18713" y="3761" height="720px" width="720px" />
									</g>
								</g>
								<g class="note" id="note-L39F1">
									<use xlink:href="#E0A4" x="19564" y="3761" height="720px" width="720px" />
									<g class="stem">
										<rect x="19564" y="3783" height="644" width="18" />
									</g>
									<g class="accid" id="accid-0000001059321553" />
								</g>
							</g>
						</g>
					</g>
					<g class="mNum autogenerated" id="mnum-0000000234234140" />
					<g class="barLineAttr" id="bline-0000001875693457">
						<path d="M19989 1440 L19989 720" stroke="#000000" stroke-width="27" />
						<path d="M19989 3131 L19989 2411" stroke="#000000" stroke-width="27" />
						<path d="M19989 4571 L19989 3851" stroke="#000000" stroke-width="27" />
					</g>
				</g>
			</g>
		</g>
	</svg>
</svg>
