<?xml version="1.0" encoding="UTF-8" standalone="no"?>
<svg width="2100.00px" height="600.00px" version="1.1" xmlns="http://www.w3.org/2000/svg" xmlns:xlink="http://www.w3.org/1999/xlink" overflow="visible">
	<desc>Engraved by Verovio 2.0.0-dev-0f0381c</desc>
	<defs>
		<symbol id="E003" viewBox="0 0 1000 1000" overflow="inherit">
			<path transform="scale(1,-1)" d="M0 -0c49 0 97.5 -2.26367 135.5 4.73633c206 95 258.5 264.264 263.5 271.264c0 1 -14 7 -15 6c-88 -154 -251 -167 -321 -170c-1 0 -63 -1 -63 -1v-111z" />
		</symbol>
		<symbol id="E004" viewBox="0 0 1000 1000" overflow="inherit">
			<path transform="scale(1,-1)" d="M0 0c49 0 97.5 2.26367 135.5 -4.73633c206 -95 258.5 -264.264 263.5 -271.264c0 -1 -14 -7 -15 -6c-88 154 -251 167 -321 170c-1 0 -63 1 -63 1v111z" />
		</symbol>
		<symbol id="E050" viewBox="0 0 1000 1000" overflow="inherit">
			<path transform="scale(1,-1)" d="M441 -245c-23 -4 -48 -6 -76 -6c-59 0 -102 7 -130 20c-88 42 -150 93 -187 154c-26 44 -43 103 -48 176c-4 60 11 123 44 189c29 57 65 106 110 148s96 85 153 127c-3 16 -8 46 -13 92c-4 43 -5 73 -5 89c0 117 16 172 69 257c34 54 64 82 89 82c21 0 43 -30 69 -92 s39 -115 41 -159c2 -120 -19 -173 -67 -256c-13 -20 -63 -90 -98 -118c-13 -9 -25 -19 -37 -29l31 -181c8 1 18 2 28 2c58 0 102 -12 133 -35c59 -43 92 -104 98 -184c11 -135 -80 -229 -180 -270c8 -57 17 -110 25 -162c5 -31 6 -58 6 -80c0 -30 -5 -53 -14 -70 c-35 -64 -88 -99 -158 -103c-42 -3 -83 6 -124 26c-50 24 -77 59 -80 105c-2 34 5 63 20 87c18 28 45 42 79 44c51 4 99 -40 103 -87c4 -56 -30 -94 -105 -115c17 -24 51 -36 102 -36c62 0 116 43 140 85c9 16 13 41 13 74c0 20 -1 42 -5 67c-8 53 -18 106 -26 159zM461 939 c-95 0 -135 -175 -135 -286c0 -24 2 -48 5 -71c50 39 92 82 127 128c43 57 63 106 60 148c-4 54 -23 82 -57 81zM406 119l54 -326c80 27 116 88 109 184c-7 99 -62 146 -163 142zM382 117c-74 -2 -132 -50 -128 -127c2 -46 43 -99 75 -115c-3 -2 -7 -5 -10 -10 c-70 33 -116 88 -123 172c-5 73 42 135 88 170c23 17 49 29 78 36l-29 170c-21 -13 -52 -37 -92 -73c-50 -44 -86 -84 -109 -119c-49 -75 -71 -140 -67 -195c5 -68 35 -127 93 -176s125 -73 203 -73c25 0 50 3 75 9c-19 111 -36 221 -54 331z" />
		</symbol>
		<symbol id="E082" viewBox="0 0 1000 1000" overflow="inherit">
			<path transform="scale(1,-1)" d="M104 -185c-18 0 -55 -14 -65 -65h-36l-3 29c0 25 6 46 18 64c11 19 22 30 39 43l121 82l37 29c15 11 27 29 38 54c12 24 18 47 18 70c0 40 -19 88 -94 88c-25 0 -32 0 -50 -8c-14 -5 -23 -12 -26 -22c3 -9 7 -15 10 -18l24 -17c12 -7 17 -11 27 -21c5 -7 7 -16 7 -27 c0 -12 0 -57 -79 -74c-30 0 -76 26 -76 94c0 66 80 135 196 135c72 0 182 -32 182 -150c0 -53 -32 -95 -113 -133l-91 -41c-26 -11 -45 -23 -57 -37l49 7c84 0 115 -41 148 -41c20 0 33 20 39 61h35c0 -152 -68 -168 -114 -168c-17 0 -55 0 -69 7v0l-28 17 c-49 37 -69 40 -87 42z" />
		</symbol>
		<symbol id="E084" viewBox="0 0 1000 1000" overflow="inherit">
			<path transform="scale(1,-1)" d="M0 -78c84 97 114 180 134 329h170c-13 -32 -82 -132 -99 -151l-84 -97c-33 -36 -59 -63 -80 -81h162v102l127 123v-225h57v-39h-57v-34c0 -43 19 -65 57 -65v-34h-244v36c48 0 60 26 60 70v27h-203v39z" />
		</symbol>
		<symbol id="E0A4" viewBox="0 0 1000 1000" overflow="inherit">
			<path transform="scale(1,-1)" d="M0 -39c0 68 73 172 200 172c66 0 114 -37 114 -95c0 -84 -106 -171 -218 -171c-64 0 -96 30 -96 94z" />
		</symbol>
		<symbol id="E260" viewBox="0 0 1000 1000" overflow="inherit">
			<path transform="scale(1,-1)" d="M20 110c32 16 54 27 93 27c26 0 35 -3 54 -13c13 -7 24 -20 27 -38l4 -25c0 -28 -16 -57 -45 -89c-23 -25 -39 -44 -65 -68l-88 -79v644h20v-359zM90 106c-32 0 -48 -10 -70 -29v-194c31 31 54 59 71 84c21 32 32 59 32 84c0 9 1 16 1 20c0 14 -3 21 -11 30l-8 3z" />
		</symbol>
		<symbol id="E4E7" viewBox="0 0 1000 1000" overflow="inherit">
			<path transform="scale(1,-1)" d="M133 -111c-16 38 -21 43 -64 51c-37 -4 -60 -25 -68 -60c0 -32 18 -52 55 -58c8 -6 22 -10 43 -10c31 0 62 7 82 20l-108 -324h37c72 220 143 439 215 659h-4l-10 -2l-7 -1c-15 -35 -27 -52 -59 -71c-26 -15 -56 -27 -88 -29c-11 0 -20 2 -26 6c29 3 56 25 51 56 c-15 35 -19 42 -64 48c-38 -4 -60 -23 -68 -58c0 -32 18 -52 55 -59c7 -5 22 -8 45 -8c48 0 76 7 112 25l-66 -197c-21 -23 -50 -47 -90 -47c-7 0 -15 1 -25 4c31 5 52 22 52 55z" />
		</symbol>
		<symbol id="E4E6" viewBox="0 0 1000 1000" overflow="inherit">
			<path transform="scale(1,-1)" d="M0 123c7 34 33 56 69 60c29 -3 43 -9 53 -29c4 -8 7 -15 10 -22c0 -21 -1 -25 -11 -35c-5 -8 -18 -14 -40 -20l12 -3l15 -1c44 0 97 26 122 56c10 11 18 26 24 42c7 1 15 2 22 3l-140 -424h-36l111 330c-10 -6 -27 -12 -53 -16l-52 -8h-10l-20 1c-1 0 -8 3 -21 6 c-37 9 -55 28 -55 60z" />
		</symbol>
		<symbol id="E062" viewBox="0 0 1000 1000" overflow="inherit">
			<path transform="scale(1,-1)" d="M158 96c51 0 73 -14 88 -49l16 -39c0 -17 -2 -30 -7 -40c-3 -11 -10 -21 -19 -31c-17 -18 -49 -43 -84 -43c-55 0 -77 13 -112 44c-24 21 -35 55 -35 100c0 46 14 81 32 112c30 52 71 79 137 93l36 6l26 2c154 0 235 -68 274 -182c11 -32 18 -68 18 -107 c0 -103 -26 -182 -68 -250c-89 -145 -234 -230 -412 -288l-30 -5c-9 0 -14 3 -14 8c3 10 5 11 10 16c35 15 70 30 96 44l78 43c96 57 162 136 197 258c9 33 17 60 22 100c3 22 5 35 6 39c-7 69 -16 115 -23 140s-4 22 -16 40c-8 12 -19 23 -31 34c-24 21 -62 44 -118 44 c-48 0 -84 -8 -113 -28c-28 -19 -42 -44 -42 -73v-16c2 -5 3 -9 4 -11c24 22 52 39 84 39zM585 -118c0 32 23 58 57 58c18 0 33 -6 40 -18c9 -15 16 -18 16 -40c0 -9 -2 -16 -5 -21c-6 -19 -27 -37 -51 -37c-34 0 -57 26 -57 58zM642 177c31 0 56 -27 56 -58 c0 -30 -25 -58 -56 -58l-23 3c-19 7 -34 32 -34 55l3 23c9 20 28 35 54 35z" />
		</symbol>
	</defs>
	<style type="text/css">g.page-margin{font-family:Times;} g.tempo{font-weight:bold;} g.dir, g.dynam, g.mNum{font-style:italic;} g.label{font-weight:normal;}</style>
	<svg class="definition-scale" viewBox="0 0 21000 6000">
		<g class="page-margin" transform="translate(500, 500)">
			<g class="system" id="system-0000000625371001">
				<path d="M13 720 L13 4571" stroke="#000000" stroke-width="27" />
				<use xlink:href="#E003" x="-167" y="720" height="720px" width="720px" />
				<use xlink:href="#E004" x="-167" y="4571" height="720px" width="720px" />
				<rect x="-167" y="702" height="3887" width="90" />
				<g class="section boundaryStart" id="section-L1F1" />
				<g class="measure" id="measure-L4">
					<g class="staff" id="staff-L4F3N1">
						<path d="M0 720 L5669 720" stroke="#000000" stroke-width="13" />
						<path d="M0 900 L5669 900" stroke="#000000" stroke-width="13" />
						<path d="M0 1080 L5669 1080" stroke="#000000" stroke-width="13" />
						<path d="M0 1260 L5669 1260" stroke="#000000" stroke-width="13" />
						<path d="M0 1440 L5669 1440" stroke="#000000" stroke-width="13" />
						<g class="clef" id="clef-0000001903633675">
							<use xlink:href="#E050" x="90" y="1260" height="720px" width="720px" />
						</g>
						<g class="meterSig" id="msig-0000001159802719">
							<use xlink:href="#E082" x="771" y="900" height="720px" width="720px" />
							<use xlink:href="#E084" x="777" y="1260" height="720px" width="720px" />
						</g>
						<g class="ledgerLines above">
							<path d="M4549 540 L4828 540" stroke="#000000" stroke-width="22" />
							<path d="M5203 540 L5482 540" stroke="#000000" stroke-width="22" />
						</g>
						<g class="layer" id="layer-L4F3N1">
							<g class="beam" id="beam-L5F3-L8F3">
								<polygon points="1631,1526 2869,1404 2869,1314 1631,1436 " />
								<polygon points="1631,1391 2869,1269 2869,1179 1631,1301 " />
								<g class="note" id="note-L5F3">
									<use xlink:href="#E0A4" x="1631" y="810" height="720px" width="720px" />
									<g class="stem">
										<rect x="1631" y="832" height="676" width="18" />
									</g>
									<g class="accid" id="accid-0000000543001124">
										<use xlink:href="#E260" x="1435" y="810" height="720px" width="720px" />
									</g>
								</g>
								<g class="note" id="note-L6F3">
									<use xlink:href="#E0A4" x="2034" y="810" height="720px" width="720px" />
									<g class="stem">
										<rect x="2034" y="832" height="635" width="18" />
									</g>
									<g class="accid" id="accid-0000001739919474" />
								</g>
								<g class="rest" id="rest-L7F3">
									<use xlink:href="#E4E7" x="2438" y="720" height="720px" width="720px" />
								</g>
								<g class="note" id="note-L8F3">
									<use xlink:href="#E0A4" x="2851" y="630" height="720px" width="720px" />
									<g class="stem">
										<rect x="2851" y="652" height="734" width="18" />
									</g>
									<g class="accid" id="accid-0000001600267744" />
								</g>
							</g>
							<g class="beam" id="beam-L9F3-L12F3">
								<polygon points="3505,1935 5252,1762 5252,1672 3505,1845 " />
								<polygon points="4589,1692 5252,1627 5252,1537 4589,1602 " />
								<g class="rest" id="rest-L9F3">
									<use xlink:href="#E4E6" x="3505" y="1080" height="720px" width="720px" />
								</g>
								<g class="note" id="note-L11F3">
									<use xlink:href="#E0A4" x="4580" y="540" height="720px" width="720px" />
									<g class="stem">
										<rect x="4580" y="562" height="1247" width="18" />
									</g>
									<g class="accid" id="accid-0000001929386435">
										<use xlink:href="#E260" x="4384" y="540" height="720px" width="720px" />
									</g>
								</g>
								<g class="note" id="note-L12F3">
									<use xlink:href="#E0A4" x="5234" y="450" height="720px" width="720px" />
									<g class="stem">
										<rect x="5234" y="472" height="1272" width="18" />
									</g>
									<g class="accid" id="accid-0000000286321387">
										<use xlink:href="#E260" x="5038" y="450" height="720px" width="720px" />
									</g>
								</g>
							</g>
						</g>
					</g>
					<g class="staff" id="staff-L4F2N1">
						<path d="M0 2411 L5669 2411" stroke="#000000" stroke-width="13" />
						<path d="M0 2591 L5669 2591" stroke="#000000" stroke-width="13" />
						<path d="M0 2771 L5669 2771" stroke="#000000" stroke-width="13" />
						<path d="M0 2951 L5669 2951" stroke="#000000" stroke-width="13" />
						<path d="M0 3131 L5669 3131" stroke="#000000" stroke-width="13" />
						<g class="clef" id="clef-0000000095234414">
							<use xlink:href="#E050" x="90" y="2951" height="720px" width="720px" />
						</g>
						<g class="meterSig" id="msig-0000000729479083">
							<use xlink:href="#E082" x="771" y="2591" height="720px" width="720px" />
							<use xlink:href="#E084" x="777" y="2951" height="720px" width="720px" />
						</g>
						<g class="layer" id="layer-L4F2N1">
							<g class="beam" id="beam-L5F2-L8F2">
								<polygon points="1631,3485 2869,3446 2869,3356 1631,3395 " />
								<polygon points="1631,3350 2869,3311 2869,3221 1631,3260 " />
								<g class="note" id="note-L5F2">
									<use xlink:href="#E0A4" x="1631" y="2771" height="720px" width="720px" />
									<g class="stem">
										<rect x="1631" y="2793" height="674" width="18" />
									</g>
									<g class="accid" id="accid-0000000781706772">
										<use xlink:href="#E260" x="1435" y="2771" height="720px" width="720px" />
									</g>
								</g>
								<g class="rest" id="rest-L6F2">
									<use xlink:href="#E4E6" x="2034" y="2771" height="720px" width="720px" />
								</g>
								<g class="note" id="note-L8F2">
									<use xlink:href="#E0A4" x="2851" y="2771" height="720px" width="720px" />
									<g class="stem">
										<rect x="2851" y="2793" height="635" width="18" />
									</g>
									<g class="accid" id="accid-0000000685260697" />
								</g>
							</g>
							<g class="beam" id="beam-L9F2-L12F2">
								<polygon points="3713,2016 5460,1980 5460,2070 3713,2106 " />
								<polygon points="3713,2151 5460,2115 5460,2205 3713,2241 " />
								<g class="rest" id="rest-L9F2">
									<use xlink:href="#E4E7" x="3505" y="2771" height="720px" width="720px" />
								</g>
								<g class="note" id="note-L10F2">
									<use xlink:href="#E0A4" x="3917" y="2681" height="720px" width="720px" />
									<g class="stem">
										<rect x="4125" y="2025" height="634" width="18" />
									</g>
									<g class="accid" id="accid-0000000173956503" />
								</g>
								<g class="note" id="note-L11F2">
									<use xlink:href="#E0A4" x="4580" y="3041" height="720px" width="720px" />
									<g class="stem">
										<rect x="4788" y="2011" height="1008" width="18" />
									</g>
									<g class="accid" id="accid-0000001369536356" />
								</g>
								<g class="note" id="note-L12F2">
									<use xlink:href="#E0A4" x="5234" y="2771" height="720px" width="720px" />
									<g class="stem">
										<rect x="5442" y="1998" height="751" width="18" />
									</g>
									<g class="accid" id="accid-0000000107142043" />
								</g>
							</g>
						</g>
					</g>
					<g class="staff" id="staff-L4F1N1">
						<path d="M0 3851 L5669 3851" stroke="#000000" stroke-width="13" />
						<path d="M0 4031 L5669 4031" stroke="#000000" stroke-width="13" />
						<path d="M0 4211 L5669 4211" stroke="#000000" stroke-width="13" />
						<path d="M0 4391 L5669 4391" stroke="#000000" stroke-width="13" />
						<path d="M0 4571 L5669 4571" stroke="#000000" stroke-width="13" />
						<g class="clef" id="clef-0000000370807258">
							<use xlink:href="#E062" x="90" y="4031" height="720px" width="720px" />
						</g>
						<g class="meterSig" id="msig-0000000160041612">
							<use xlink:href="#E082" x="771" y="4031" height="720px" width="720px" />
							<use xlink:href="#E084" x="777" y="4391" height="720px" width="720px" />
						</g>
						<g class="layer" id="layer-L4F1N1">
							<g class="beam" id="beam-L5F1-L8F1">
								<polygon points="1631,4796 2869,4795 2869,4705 1631,4706 " />
								<polygon points="1631,4661 2869,4660 2869,4570 1631,4571 " />
								<g class="note" id="note-L5F1">
									<use xlink:href="#E0A4" x="1631" y="4121" height="720px" width="720px" />
									<g class="stem">
										<rect x="1631" y="4143" height="635" width="18" />
									</g>
									<g class="accid" id="accid-0000000557928800">
										<use xlink:href="#E260" x="1435" y="4121" height="720px" width="720px" />
									</g>
								</g>
								<g class="note" id="note-L6F1">
									<use xlink:href="#E0A4" x="2034" y="4121" height="720px" width="720px" />
									<g class="stem">
										<rect x="2034" y="4143" height="635" width="18" />
									</g>
									<g class="accid" id="accid-0000000630009360" />
								</g>
								<g class="rest" id="rest-L7F1">
									<use xlink:href="#E4E7" x="2438" y="4211" height="720px" width="720px" />
								</g>
								<g class="note" id="note-L8F1">
									<use xlink:href="#E0A4" x="2851" y="4031" height="720px" width="720px" />
									<g class="stem">
										<rect x="2851" y="4053" height="724" width="18" />
									</g>
									<g class="accid" id="accid-0000000963547305" />
								</g>
							</g>
							<g class="beam" id="beam-L9F1-L12F1">
								<polygon points="3505,4609 5252,4436 5252,4346 3505,4519 " />
								<polygon points="3505,4474 5252,4301 5252,4211 3505,4384 " />
								<g class="note" id="note-L9F1">
									<use xlink:href="#E0A4" x="3505" y="3851" height="720px" width="720px" />
									<g class="stem">
										<rect x="3505" y="3873" height="718" width="18" />
									</g>
									<g class="accid" id="accid-0000001813938528">
										<use xlink:href="#E260" x="3309" y="3851" height="720px" width="720px" />
									</g>
								</g>
								<g class="rest" id="rest-L10F1">
									<use xlink:href="#E4E7" x="3917" y="3851" height="720px" width="720px" />
								</g>
								<g class="note" id="note-L11F1">
									<use xlink:href="#E0A4" x="4580" y="3761" height="720px" width="720px" />
									<g class="stem">
										<rect x="4580" y="3783" height="700" width="18" />
									</g>
									<g class="accid" id="accid-0000001914319109">
										<use xlink:href="#E260" x="4384" y="3761" height="720px" width="720px" />
									</g>
								</g>
								<g class="note" id="note-L12F1">
									<use xlink:href="#E0A4" x="5234" y="3761" height="720px" width="720px" />
									<g class="stem">
										<rect x="5234" y="3783" height="635" width="18" />
									</g>
									<g class="accid" id="accid-0000000854820394" />
								</g>
							</g>
						</g>
					</g>
					<g class="mNum autogenerated" id="mnum-0000001615964749" />
					<g class="barLineAttr" id="bline-0000000875069628">
						<path d="M5656 1440 L5656 720" stroke="#000000" stroke-width="27" />
						<path d="M5656 3131 L5656 2411" stroke="#000000" stroke-width="27" />
						<path d="M5656 4571 L5656 3851" stroke="#000000" stroke-width="27" />
					</g>
				</g>
				<g class="measure" id="measure-L13">
					<g class="staff" id="staff-L13F3N1">
						<path d="M5669 720 L10697 720" stroke="#000000" stroke-width="13" />
						<path d="M5669 900 L10697 900" stroke="#000000" stroke-width="13" />
						<path d="M5669 1080 L10697 1080" stroke="#000000" stroke-width="13" />
						<path d="M5669 1260 L10697 1260" stroke="#000000" stroke-width="13" />
						<path d="M5669 1440 L10697 1440" stroke="#000000" stroke-width="13" />
						<g class="ledgerLines above">
							<path d="M6119 540 L6398 540" stroke="#000000" stroke-width="22" />
							<path d="M7839 540 L8118 540" stroke="#000000" stroke-width="22" />
							<path d="M8493 540 L8772 540" stroke="#000000" stroke-width="22" />
							<path d="M8897 540 L9176 540" stroke="#000000" stroke-width="22" />
						</g>
						<g class="layer" id="layer-L13F3N1">
							<g class="beam" id="beam-L14F3-L17F3">
								<polygon points="6150,1261 7888,1377 7888,1287 6150,1171 " />
								<polygon points="6150,1126 7888,1242 7888,1152 6150,1036 " />
								<g class="note" id="note-L14F3">
									<use xlink:href="#E0A4" x="6150" y="540" height="720px" width="720px" />
									<g class="stem">
										<rect x="6150" y="562" height="681" width="18" />
									</g>
									<g class="accid" id="accid-0000000306008133">
										<use xlink:href="#E260" x="5954" y="540" height="720px" width="720px" />
									</g>
								</g>
								<g class="note" id="note-L15F3">
									<use xlink:href="#E0A4" x="6804" y="630" height="720px" width="720px" />
									<g class="stem">
										<rect x="6804" y="652" height="635" width="18" />
									</g>
									<g class="accid" id="accid-0000002080138213" />
								</g>
								<g class="rest" id="rest-L16F3">
									<use xlink:href="#E4E7" x="7458" y="720" height="720px" width="720px" />
								</g>
								<g class="note" id="note-L17F3">
									<use xlink:href="#E0A4" x="7870" y="540" height="720px" width="720px" />
									<g class="stem">
										<rect x="7870" y="562" height="797" width="18" />
									</g>
									<g class="accid" id="accid-0000001383120461" />
								</g>
							</g>
							<g class="beam" id="beam-L18F3-L21F3">
								<polygon points="8524,1312 10272,1485 10272,1395 8524,1222 " />
								<polygon points="8524,1177 10272,1350 10272,1260 8524,1087 " />
								<g class="note" id="note-L18F3">
									<use xlink:href="#E0A4" x="8524" y="450" height="720px" width="720px" />
									<g class="stem">
										<rect x="8524" y="472" height="822" width="18" />
									</g>
									<g class="accid" id="accid-0000001220732546">
										<use xlink:href="#E260" x="8328" y="450" height="720px" width="720px" />
									</g>
								</g>
								<g class="note" id="note-L19F3">
									<use xlink:href="#E0A4" x="8928" y="450" height="720px" width="720px" />
									<g class="stem">
										<rect x="8928" y="472" height="863" width="18" />
									</g>
									<g class="accid" id="accid-0000000032675981" />
								</g>
								<g class="rest" id="rest-L20F3">
									<use xlink:href="#E4E7" x="9591" y="720" height="720px" width="720px" />
								</g>
								<g class="note" id="note-L21F3">
									<use xlink:href="#E0A4" x="10254" y="810" height="720px" width="720px" />
									<g class="stem">
										<rect x="10254" y="832" height="635" width="18" />
									</g>
									<g class="accid" id="accid-0000000325437798">
										<use xlink:href="#E260" x="10058" y="810" height="720px" width="720px" />
									</g>
								</g>
							</g>
						</g>
					</g>
					<g class="staff" id="staff-L13F2N1">
						<path d="M5669 2411 L10697 2411" stroke="#000000" stroke-width="13" />
						<path d="M5669 2591 L10697 2591" stroke="#000000" stroke-width="13" />
						<path d="M5669 2771 L10697 2771" stroke="#000000" stroke-width="13" />
						<path d="M5669 2951 L10697 2951" stroke="#000000" stroke-width="13" />
						<path d="M5669 3131 L10697 3131" stroke="#000000" stroke-width="13" />
						<g class="layer" id="layer-L13F2N1">
							<g class="beam" id="beam-L14F2-L17F2">
								<polygon points="6358,2007 8096,2179 8096,2269 6358,2097 " />
								<polygon points="6358,2142 8096,2314 8096,2404 6358,2232 " />
								<g class="note" id="note-L14F2">
									<use xlink:href="#E0A4" x="6150" y="2681" height="720px" width="720px" />
									<g class="stem">
										<rect x="6358" y="2025" height="634" width="18" />
									</g>
									<g class="accid" id="accid-0000001266928528" />
								</g>
								<g class="note" id="note-L15F2">
									<use xlink:href="#E0A4" x="6804" y="2771" height="720px" width="720px" />
									<g class="stem">
										<rect x="7012" y="2091" height="658" width="18" />
									</g>
									<g class="accid" id="accid-0000000662708000">
										<use xlink:href="#E260" x="6608" y="2771" height="720px" width="720px" />
									</g>
								</g>
								<g class="note" id="note-L16F2">
									<use xlink:href="#E0A4" x="7458" y="2861" height="720px" width="720px" />
									<g class="stem">
										<rect x="7666" y="2156" height="683" width="18" />
									</g>
									<g class="accid" id="accid-0000001084009832">
										<use xlink:href="#E260" x="7262" y="2861" height="720px" width="720px" />
									</g>
								</g>
								<g class="note" id="note-L17F2">
									<use xlink:href="#E0A4" x="7870" y="2951" height="720px" width="720px" />
									<g class="stem">
										<rect x="8078" y="2197" height="732" width="18" />
									</g>
									<g class="accid" id="accid-0000001345882183" />
								</g>
							</g>
							<g class="beam" id="beam-L18F2-L21F2">
								<polygon points="8732,2201 10480,2178 10480,2268 8732,2291 " />
								<polygon points="8732,2336 10480,2313 10480,2403 8732,2426 " />
								<g class="note" id="note-L18F2">
									<use xlink:href="#E0A4" x="8524" y="2951" height="720px" width="720px" />
									<g class="stem">
										<rect x="8732" y="2219" height="710" width="18" />
									</g>
									<g class="accid" id="accid-0000001121565579" />
								</g>
								<g class="rest" id="rest-L19F2">
									<use xlink:href="#E4E7" x="8928" y="2771" height="720px" width="720px" />
								</g>
								<g class="note" id="note-L20F2">
									<use xlink:href="#E0A4" x="9591" y="2861" height="720px" width="720px" />
									<g class="stem">
										<rect x="9799" y="2205" height="634" width="18" />
									</g>
									<g class="accid" id="accid-0000001467062027" />
								</g>
								<g class="rest" id="rest-L21F2">
									<use xlink:href="#E4E7" x="10254" y="2771" height="720px" width="720px" />
								</g>
							</g>
						</g>
					</g>
					<g class="staff" id="staff-L13F1N1">
						<path d="M5669 3851 L10697 3851" stroke="#000000" stroke-width="13" />
						<path d="M5669 4031 L10697 4031" stroke="#000000" stroke-width="13" />
						<path d="M5669 4211 L10697 4211" stroke="#000000" stroke-width="13" />
						<path d="M5669 4391 L10697 4391" stroke="#000000" stroke-width="13" />
						<path d="M5669 4571 L10697 4571" stroke="#000000" stroke-width="13" />
						<g class="ledgerLines above">
							<path d="M6773 3671 L7052 3671" stroke="#000000" stroke-width="22" />
						</g>
						<g class="layer" id="layer-L13F1N1">
							<g class="beam" id="beam-L14F1-L17F1">
								<polygon points="6150,5067 7888,5120 7888,5030 6150,4977 " />
								<polygon points="6150,4932 7888,4985 7888,4895 6150,4842 " />
								<g class="rest" id="rest-L14F1">
									<use xlink:href="#E4E7" x="6150" y="4211" height="720px" width="720px" />
								</g>
								<g class="note" id="note-L15F1">
									<use xlink:href="#E0A4" x="6804" y="3671" height="720px" width="720px" />
									<g class="stem">
										<rect x="6804" y="3693" height="1376" width="18" />
									</g>
									<g class="accid" id="accid-0000000049523298" />
								</g>
								<g class="note" id="note-L16F1">
									<use xlink:href="#E0A4" x="7458" y="4031" height="720px" width="720px" />
									<g class="stem">
										<rect x="7458" y="4053" height="1036" width="18" />
									</g>
									<g class="accid" id="accid-0000000172818507" />
								</g>
								<g class="rest" id="rest-L17F1">
									<use xlink:href="#E4E7" x="7870" y="4211" height="720px" width="720px" />
								</g>
							</g>
							<g class="beam" id="beam-L18F1-L21F1">
								<polygon points="8524,4616 10272,4443 10272,4353 8524,4526 " />
								<polygon points="8524,4481 10272,4308 10272,4218 8524,4391 " />
								<g class="note" id="note-L18F1">
									<use xlink:href="#E0A4" x="8524" y="3941" height="720px" width="720px" />
									<g class="stem">
										<rect x="8524" y="3963" height="635" width="18" />
									</g>
									<g class="accid" id="accid-0000000073795149" />
								</g>
								<g class="rest" id="rest-L19F1">
									<use xlink:href="#E4E7" x="8928" y="3851" height="720px" width="720px" />
								</g>
								<g class="note" id="note-L20F1">
									<use xlink:href="#E0A4" x="9591" y="3761" height="720px" width="720px" />
									<g class="stem">
										<rect x="9591" y="3783" height="708" width="18" />
									</g>
									<g class="accid" id="accid-0000000722790348">
										<use xlink:href="#E260" x="9395" y="3761" height="720px" width="720px" />
									</g>
								</g>
								<g class="note" id="note-L21F1">
									<use xlink:href="#E0A4" x="10254" y="3761" height="720px" width="720px" />
									<g class="stem">
										<rect x="10254" y="3783" height="642" width="18" />
									</g>
									<g class="accid" id="accid-0000001432692431" />
								</g>
							</g>
						</g>
					</g>
					<g class="mNum autogenerated" id="mnum-0000001719676585" />
					<g class="barLineAttr" id="bline-0000000601374275">
						<path d="M10684 1440 L10684 720" stroke="#000000" stroke-width="27" />
						<path d="M10684 3131 L10684 2411" stroke="#000000" stroke-width="27" />
						<path d="M10684 4571 L10684 3851" stroke="#000000" stroke-width="27" />
					</g>
				</g>
				<g class="measure" id="measure-L22">
					<g class="staff" id="staff-L22F3N1">
						<path d="M10697 720 L15216 720" stroke="#000000" stroke-width="13" />
						<path d="M10697 900 L15216 900" stroke="#000000" stroke-width="13" />
						<path d="M10697 1080 L15216 1080" stroke="#000000" stroke-width="13" />
						<path d="M10697 1260 L15216 1260" stroke="#000000" stroke-width="13" />
						<path d="M10697 1440 L15216 1440" stroke="#000000" stroke-width="13" />
						<g class="ledgerLines above">
							<path d="M12867 540 L13146 540" stroke="#000000" stroke-width="22" />
							<path d="M14750 540 L15029 540" stroke="#000000" stroke-width="22" />
							<path d="M14750 360 L15029 360" stroke="#000000" stroke-width="22" />
						</g>
						<g class="layer" id="layer-L22F3N1">
							<g class="beam" id="beam-L23F3-L26F3">
								<polygon points="11178,1551 12916,1379 12916,1289 11178,1461 " />
								<polygon points="11178,1416 12916,1244 12916,1154 11178,1326 " />
								<g class="note" id="note-L23F3">
									<use xlink:href="#E0A4" x="11178" y="810" height="720px" width="720px" />
									<g class="stem">
										<rect x="11178" y="832" height="701" width="18" />
									</g>
									<g class="accid" id="accid-0000000164045055">
										<use xlink:href="#E260" x="10982" y="810" height="720px" width="720px" />
									</g>
								</g>
								<g class="note" id="note-L24F3">
									<use xlink:href="#E0A4" x="11832" y="810" height="720px" width="720px" />
									<g class="stem">
										<rect x="11832" y="832" height="635" width="18" />
									</g>
									<g class="accid" id="accid-0000001482889114" />
								</g>
								<g class="rest" id="rest-L25F3">
									<use xlink:href="#E4E7" x="12235" y="720" height="720px" width="720px" />
								</g>
								<g class="note" id="note-L26F3">
									<use xlink:href="#E0A4" x="12898" y="540" height="720px" width="720px" />
									<g class="stem">
										<rect x="12898" y="562" height="799" width="18" />
									</g>
									<g class="accid" id="accid-0000001639555140">
										<use xlink:href="#E260" x="12702" y="540" height="720px" width="720px" />
									</g>
								</g>
							</g>
							<g class="beam" id="beam-L27F3-L30F3">
								<polygon points="13302,1935 14799,1787 14799,1697 13302,1845 " />
								<polygon points="14386,1692 14799,1652 14799,1562 14386,1602 " />
								<g class="rest" id="rest-L27F3">
									<use xlink:href="#E4E6" x="13302" y="1080" height="720px" width="720px" />
								</g>
								<g class="note" id="note-L29F3">
									<use xlink:href="#E0A4" x="14377" y="630" height="720px" width="720px" />
									<g class="stem">
										<rect x="14377" y="652" height="1157" width="18" />
									</g>
									<g class="accid" id="accid-0000000551408013" />
								</g>
								<g class="note" id="note-L30F3">
									<use xlink:href="#E0A4" x="14781" y="360" height="720px" width="720px" />
									<g class="stem">
										<rect x="14781" y="382" height="1387" width="18" />
									</g>
									<g class="accid" id="accid-0000000847049707" />
								</g>
							</g>
						</g>
					</g>
					<g class="staff" id="staff-L22F2N1">
						<path d="M10697 2411 L15216 2411" stroke="#000000" stroke-width="13" />
						<path d="M10697 2591 L15216 2591" stroke="#000000" stroke-width="13" />
						<path d="M10697 2771 L15216 2771" stroke="#000000" stroke-width="13" />
						<path d="M10697 2951 L15216 2951" stroke="#000000" stroke-width="13" />
						<path d="M10697 3131 L15216 3131" stroke="#000000" stroke-width="13" />
						<g class="layer" id="layer-L22F2N1">
							<g class="beam" id="beam-L23F2-L26F2">
								<polygon points="11178,3398 12916,3356 12916,3266 11178,3308 " />
								<polygon points="11178,3263 12916,3221 12916,3131 11178,3173 " />
								<g class="note" id="note-L23F2">
									<use xlink:href="#E0A4" x="11178" y="2681" height="720px" width="720px" />
									<g class="stem">
										<rect x="11178" y="2703" height="677" width="18" />
									</g>
									<g class="accid" id="accid-0000000749852706" />
								</g>
								<g class="rest" id="rest-L24F2">
									<use xlink:href="#E4E6" x="11832" y="2771" height="720px" width="720px" />
								</g>
								<g class="note" id="note-L26F2">
									<use xlink:href="#E0A4" x="12898" y="2681" height="720px" width="720px" />
									<g class="stem">
										<rect x="12898" y="2703" height="635" width="18" />
									</g>
									<g class="accid" id="accid-0000001107988873" />
								</g>
							</g>
							<g class="beam" id="beam-L27F2-L30F2">
								<polygon points="13510,2155 15007,2007 15007,2097 13510,2245 " />
								<polygon points="13510,2290 15007,2142 15007,2232 13510,2380 " />
								<g class="rest" id="rest-L27F2">
									<use xlink:href="#E4E7" x="13302" y="2771" height="720px" width="720px" />
								</g>
								<g class="note" id="note-L28F2">
									<use xlink:href="#E0A4" x="13965" y="2771" height="720px" width="720px" />
									<g class="stem">
										<rect x="14173" y="2106" height="643" width="18" />
									</g>
									<g class="accid" id="accid-0000001656061860">
										<use xlink:href="#E260" x="13769" y="2771" height="720px" width="720px" />
									</g>
								</g>
								<g class="note" id="note-L29F2">
									<use xlink:href="#E0A4" x="14377" y="3041" height="720px" width="720px" />
									<g class="stem">
										<rect x="14585" y="2065" height="954" width="18" />
									</g>
									<g class="accid" id="accid-0000000198981182" />
								</g>
								<g class="note" id="note-L30F2">
									<use xlink:href="#E0A4" x="14781" y="2681" height="720px" width="720px" />
									<g class="stem">
										<rect x="14989" y="2025" height="634" width="18" />
									</g>
									<g class="accid" id="accid-0000001207729350" />
								</g>
							</g>
						</g>
					</g>
					<g class="staff" id="staff-L22F1N1">
						<path d="M10697 3851 L15216 3851" stroke="#000000" stroke-width="13" />
						<path d="M10697 4031 L15216 4031" stroke="#000000" stroke-width="13" />
						<path d="M10697 4211 L15216 4211" stroke="#000000" stroke-width="13" />
						<path d="M10697 4391 L15216 4391" stroke="#000000" stroke-width="13" />
						<path d="M10697 4571 L15216 4571" stroke="#000000" stroke-width="13" />
						<g class="ledgerLines above">
							<path d="M14346 3671 L14625 3671" stroke="#000000" stroke-width="22" />
							<path d="M14750 3671 L15029 3671" stroke="#000000" stroke-width="22" />
						</g>
						<g class="layer" id="layer-L22F1N1">
							<g class="beam" id="beam-L23F1-L26F1">
								<polygon points="11178,5156 12916,4984 12916,4894 11178,5066 " />
								<polygon points="11178,5021 12916,4849 12916,4759 11178,4931 " />
								<g class="note" id="note-L23F1">
									<use xlink:href="#E0A4" x="11178" y="4481" height="720px" width="720px" />
									<g class="stem">
										<rect x="11178" y="4503" height="635" width="18" />
									</g>
									<g class="accid" id="accid-0000000732495537">
										<use xlink:href="#E260" x="10982" y="4481" height="720px" width="720px" />
									</g>
								</g>
								<g class="note" id="note-L24F1">
									<use xlink:href="#E0A4" x="11832" y="4121" height="720px" width="720px" />
									<g class="stem">
										<rect x="11832" y="4143" height="929" width="18" />
									</g>
									<g class="accid" id="accid-0000001635782939">
										<use xlink:href="#E260" x="11636" y="4121" height="720px" width="720px" />
									</g>
								</g>
								<g class="rest" id="rest-L25F1">
									<use xlink:href="#E4E7" x="12235" y="4211" height="720px" width="720px" />
								</g>
								<g class="note" id="note-L26F1">
									<use xlink:href="#E0A4" x="12898" y="4031" height="720px" width="720px" />
									<g class="stem">
										<rect x="12898" y="4053" height="913" width="18" />
									</g>
									<g class="accid" id="accid-0000001426430329" />
								</g>
							</g>
							<g class="beam" id="beam-L27F1-L30F1">
								<polygon points="13302,4616 14799,4468 14799,4378 13302,4526 " />
								<polygon points="13302,4481 14799,4333 14799,4243 13302,4391 " />
								<g class="note" id="note-L27F1">
									<use xlink:href="#E0A4" x="13302" y="3941" height="720px" width="720px" />
									<g class="stem">
										<rect x="13302" y="3963" height="635" width="18" />
									</g>
									<g class="accid" id="accid-0000000714708861" />
								</g>
								<g class="rest" id="rest-L28F1">
									<use xlink:href="#E4E7" x="13965" y="3851" height="720px" width="720px" />
								</g>
								<g class="note" id="note-L29F1">
									<use xlink:href="#E0A4" x="14377" y="3671" height="720px" width="720px" />
									<g class="stem">
										<rect x="14377" y="3693" height="797" width="18" />
									</g>
									<g class="accid" id="accid-0000000411350960" />
								</g>
								<g class="note" id="note-L30F1">
									<use xlink:href="#E0A4" x="14781" y="3671" height="720px" width="720px" />
									<g class="stem">
										<rect x="14781" y="3693" height="757" width="18" />
									</g>
									<g class="accid" id="accid-0000000921201875" />
								</g>
							</g>
						</g>
					</g>
					<g class="mNum autogenerated" id="mnum-0000000671074927" />
					<g class="barLineAttr" id="bline-0000000102259920">
						<path d="M15203 1440 L15203 720" stroke="#000000" stroke-width="27" />
						<path d="M15203 3131 L15203 2411" stroke="#000000" stroke-width="27" />
						<path d="M15203 4571 L15203 3851" stroke="#000000" stroke-width="27" />
					</g>
				</g>
				<g class="measure" id="measure-L31">
					<g class="staff" id="staff-L31F3N1">
						<path d="M15216 720 L20003 720" stroke="#000000" stroke-width="13" />
						<path d="M15216 900 L20003 900" stroke="#000000" stroke-width="13" />
						<path d="M15216 1080 L20003 1080" stroke="#000000" stroke-width="13" />
						<path d="M15216 1260 L20003 1260" stroke="#000000" stroke-width="13" />
						<path d="M15216 1440 L20003 1440" stroke="#000000" stroke-width="13" />
						<g class="ledgerLines above">
							<path d="M16329 540 L16608 540" stroke="#000000" stroke-width="22" />
							<path d="M18049 540 L18328 540" stroke="#000000" stroke-width="22" />
							<path d="M18453 540 L18732 540" stroke="#000000" stroke-width="22" />
							<path d="M18049 360 L18328 360" stroke="#000000" stroke-width="22" />
							<path d="M18453 360 L18732 360" stroke="#000000" stroke-width="22" />
						</g>
						<g class="layer" id="layer-L31F3N1">
							<g class="beam" id="beam-L32F3-L35F3">
								<polygon points="15697,1306 17435,1386 17435,1296 15697,1216 " />
								<polygon points="15697,1171 17435,1251 17435,1161 15697,1081 " />
								<g class="note" id="note-L32F3">
									<use xlink:href="#E0A4" x="15697" y="630" height="720px" width="720px" />
									<g class="stem">
										<rect x="15697" y="652" height="636" width="18" />
									</g>
									<g class="accid" id="accid-0000000087197979" />
								</g>
								<g class="note" id="note-L33F3">
									<use xlink:href="#E0A4" x="16360" y="540" height="720px" width="720px" />
									<g class="stem">
										<rect x="16360" y="562" height="757" width="18" />
									</g>
									<g class="accid" id="accid-0000000618935408">
										<use xlink:href="#E260" x="16164" y="540" height="720px" width="720px" />
									</g>
								</g>
								<g class="rest" id="rest-L34F3">
									<use xlink:href="#E4E7" x="16763" y="720" height="720px" width="720px" />
								</g>
								<g class="note" id="note-L35F3">
									<use xlink:href="#E0A4" x="17417" y="630" height="720px" width="720px" />
									<g class="stem">
										<rect x="17417" y="652" height="716" width="18" />
									</g>
									<g class="accid" id="accid-0000000815516248" />
								</g>
							</g>
							<g class="beam" id="beam-L36F3-L39F3">
								<polygon points="18080,1337 19577,1485 19577,1395 18080,1247 " />
								<polygon points="18080,1202 19577,1350 19577,1260 18080,1112 " />
								<g class="note" id="note-L36F3">
									<use xlink:href="#E0A4" x="18080" y="360" height="720px" width="720px" />
									<g class="stem">
										<rect x="18080" y="382" height="937" width="18" />
									</g>
									<g class="accid" id="accid-0000000698629305" />
								</g>
								<g class="note" id="note-L37F3">
									<use xlink:href="#E0A4" x="18484" y="360" height="720px" width="720px" />
									<g class="stem">
										<rect x="18484" y="382" height="978" width="18" />
									</g>
									<g class="accid" id="accid-0000001098861954" />
								</g>
								<g class="rest" id="rest-L38F3">
									<use xlink:href="#E4E7" x="18896" y="720" height="720px" width="720px" />
								</g>
								<g class="note" id="note-L39F3">
									<use xlink:href="#E0A4" x="19559" y="810" height="720px" width="720px" />
									<g class="stem">
										<rect x="19559" y="832" height="635" width="18" />
									</g>
									<g class="accid" id="accid-0000001718059462">
										<use xlink:href="#E260" x="19363" y="810" height="720px" width="720px" />
									</g>
								</g>
							</g>
						</g>
					</g>
					<g class="staff" id="staff-L31F2N1">
						<path d="M15216 2411 L20003 2411" stroke="#000000" stroke-width="13" />
						<path d="M15216 2591 L20003 2591" stroke="#000000" stroke-width="13" />
						<path d="M15216 2771 L20003 2771" stroke="#000000" stroke-width="13" />
						<path d="M15216 2951 L20003 2951" stroke="#000000" stroke-width="13" />
						<path d="M15216 3131 L20003 3131" stroke="#000000" stroke-width="13" />
						<g class="layer" id="layer-L31F2N1">
							<g class="beam" id="beam-L32F2-L35F2">
								<polygon points="15905,1951 17643,2096 17643,2186 15905,2041 " />
								<polygon points="15905,2086 17643,2231 17643,2321 15905,2176 " />
								<g class="note" id="note-L32F2">
									<use xlink:href="#E0A4" x="15697" y="2771" height="720px" width="720px" />
									<g class="stem">
										<rect x="15905" y="1969" height="780" width="18" />
									</g>
									<g class="accid" id="accid-0000000600388589">
										<use xlink:href="#E260" x="15501" y="2771" height="720px" width="720px" />
									</g>
								</g>
								<g class="note" id="note-L33F2">
									<use xlink:href="#E0A4" x="16360" y="2681" height="720px" width="720px" />
									<g class="stem">
										<rect x="16568" y="2025" height="634" width="18" />
									</g>
									<g class="accid" id="accid-0000000050372472" />
								</g>
								<g class="note" id="note-L34F2">
									<use xlink:href="#E0A4" x="16763" y="2951" height="720px" width="720px" />
									<g class="stem">
										<rect x="16971" y="2059" height="870" width="18" />
									</g>
									<g class="accid" id="accid-0000001181510227" />
								</g>
								<g class="note" id="note-L35F2">
									<use xlink:href="#E0A4" x="17417" y="2861" height="720px" width="720px" />
									<g class="stem">
										<rect x="17625" y="2114" height="725" width="18" />
									</g>
									<g class="accid" id="accid-0000001993101596">
										<use xlink:href="#E260" x="17221" y="2861" height="720px" width="720px" />
									</g>
								</g>
							</g>
							<g class="beam" id="beam-L36F2-L39F2">
								<polygon points="18288,2187 19785,2262 19785,2352 18288,2277 " />
								<polygon points="18288,2322 19785,2397 19785,2487 18288,2412 " />
								<g class="note" id="note-L36F2">
									<use xlink:href="#E0A4" x="18080" y="2861" height="720px" width="720px" />
									<g class="stem">
										<rect x="18288" y="2205" height="634" width="18" />
									</g>
									<g class="accid" id="accid-0000001316439577" />
								</g>
								<g class="rest" id="rest-L37F2">
									<use xlink:href="#E4E7" x="18484" y="2771" height="720px" width="720px" />
								</g>
								<g class="note" id="note-L38F2">
									<use xlink:href="#E0A4" x="18896" y="2951" height="720px" width="720px" />
									<g class="stem">
										<rect x="19104" y="2246" height="683" width="18" />
									</g>
									<g class="accid" id="accid-0000001566327871" />
								</g>
								<g class="rest" id="rest-L39F2">
									<use xlink:href="#E4E7" x="19559" y="2771" height="720px" width="720px" />
								</g>
							</g>
						</g>
					</g>
					<g class="staff" id="staff-L31F1N1">
						<path d="M15216 3851 L20003 3851" stroke="#000000" stroke-width="13" />
						<path d="M15216 4031 L20003 4031" stroke="#000000" stroke-width="13" />
						<path d="M15216 4211 L20003 4211" stroke="#000000" stroke-width="13" />
						<path d="M15216 4391 L20003 4391" stroke="#000000" stroke-width="13" />
						<path d="M15216 4571 L20003 4571" stroke="#000000" stroke-width="13" />
						<g class="ledgerLines above">
							<path d="M18865 3671 L19144 3671" stroke="#000000" stroke-width="22" />
							<path d="M19528 3671 L19807 3671" stroke="#000000" stroke-width="22" />
						</g>
						<g class="layer" id="layer-L31F1N1">
							<g class="beam" id="beam-L32F1-L35F1">
								<polygon points="15697,5067 17435,5124 17435,5034 15697,4977 " />
								<polygon points="15697,4932 17435,4989 17435,4899 15697,4842 " />
								<g class="rest" id="rest-L32F1">
									<use xlink:href="#E4E7" x="15697" y="4211" height="720px" width="720px" />
								</g>
								<g class="note" id="note-L33F1">
									<use xlink:href="#E0A4" x="16360" y="3761" height="720px" width="720px" />
									<g class="stem">
										<rect x="16360" y="3783" height="1288" width="18" />
									</g>
									<g class="accid" id="accid-0000001196681253">
										<use xlink:href="#E260" x="16164" y="3761" height="720px" width="720px" />
									</g>
								</g>
								<g class="note" id="note-L34F1">
									<use xlink:href="#E0A4" x="16763" y="4031" height="720px" width="720px" />
									<g class="stem">
										<rect x="16763" y="4053" height="1031" width="18" />
									</g>
									<g class="accid" id="accid-0000000283495162" />
								</g>
								<g class="rest" id="rest-L35F1">
									<use xlink:href="#E4E7" x="17417" y="4211" height="720px" width="720px" />
								</g>
							</g>
							<g class="beam" id="beam-L36F1-L39F1">
								<polygon points="18080,5156 19577,5008 19577,4918 18080,5066 " />
								<polygon points="18080,5021 19577,4873 19577,4783 18080,4931 " />
								<g class="note" id="note-L36F1">
									<use xlink:href="#E0A4" x="18080" y="4481" height="720px" width="720px" />
									<g class="stem">
										<rect x="18080" y="4503" height="635" width="18" />
									</g>
									<g class="accid" id="accid-0000000968428425">
										<use xlink:href="#E260" x="17884" y="4481" height="720px" width="720px" />
									</g>
								</g>
								<g class="rest" id="rest-L37F1">
									<use xlink:href="#E4E7" x="18484" y="4211" height="720px" width="720px" />
								</g>
								<g class="note" id="note-L38F1">
									<use xlink:href="#E0A4" x="18896" y="3671" height="720px" width="720px" />
									<g class="stem">
										<rect x="18896" y="3693" height="1363" width="18" />
									</g>
									<g class="accid" id="accid-0000000203911241" />
								</g>
								<g class="note" id="note-L39F1">
									<use xlink:href="#E0A4" x="19559" y="3671" height="720px" width="720px" />
									<g class="stem">
										<rect x="19559" y="3693" height="1297" width="18" />
									</g>
									<g class="accid" id="accid-0000001328579658" />
								</g>
							</g>
						</g>
					</g>
					<g class="mNum autogenerated" id="mnum-0000001236771806" />
					<g class="barLineAttr" id="bline-0000001583657691">
						<path d="M19990 1440 L19990 720" stroke="#000000" stroke-width="27" />
						<path d="M19990 3131 L19990 2411" stroke="#000000" stroke-width="27" />
						<path d="M19990 4571 L19990 3851" stroke="#000000" stroke-width="27" />
					</g>
				</g>
			</g>
		</g>
	</svg>
</svg>
