<?xml version="1.0" encoding="UTF-8" standalone="no"?>
<svg width="2100.00px" height="600.00px" version="1.1" xmlns="http://www.w3.org/2000/svg" xmlns:xlink="http://www.w3.org/1999/xlink" overflow="visible">
	<desc>Engraved by Verovio 2.0.0-dev-0f0381c</desc>
	<defs>
		<symbol id="E003" viewBox="0 0 1000 1000" overflow="inherit">
			<path transform="scale(1,-1)" d="M0 -0c49 0 97.5 -2.26367 135.5 4.73633c206 95 258.5 264.264 263.5 271.264c0 1 -14 7 -15 6c-88 -154 -251 -167 -321 -170c-1 0 -63 -1 -63 -1v-111z" />
		</symbol>
		<symbol id="E004" viewBox="0 0 1000 1000" overflow="inherit">
			<path transform="scale(1,-1)" d="M0 0c49 0 97.5 2.26367 135.5 -4.73633c206 -95 258.5 -264.264 263.5 -271.264c0 -1 -14 -7 -15 -6c-88 154 -251 167 -321 170c-1 0 -63 1 -63 1v111z" />
		</symbol>
		<symbol id="E050" viewBox="0 0 1000 1000" overflow="inherit">
			<path transform="scale(1,-1)" d="M441 -245c-23 -4 -48 -6 -76 -6c-59 0 -102 7 -130 20c-88 42 -150 93 -187 154c-26 44 -43 103 -48 176c-4 60 11 123 44 189c29 57 65 106 110 148s96 85 153 127c-3 16 -8 46 -13 92c-4 43 -5 73 -5 89c0 117 16 172 69 257c34 54 64 82 89 82c21 0 43 -30 69 -92 s39 -115 41 -159c2 -120 -19 -173 -67 -256c-13 -20 -63 -90 -98 -118c-13 -9 -25 -19 -37 -29l31 -181c8 1 18 2 28 2c58 0 102 -12 133 -35c59 -43 92 -104 98 -184c11 -135 -80 -229 -180 -270c8 -57 17 -110 25 -162c5 -31 6 -58 6 -80c0 -30 -5 -53 -14 -70 c-35 -64 -88 -99 -158 -103c-42 -3 -83 6 -124 26c-50 24 -77 59 -80 105c-2 34 5 63 20 87c18 28 45 42 79 44c51 4 99 -40 103 -87c4 -56 -30 -94 -105 -115c17 -24 51 -36 102 -36c62 0 116 43 140 85c9 16 13 41 13 74c0 20 -1 42 -5 67c-8 53 -18 106 -26 159zM461 939 c-95 0 -135 -175 -135 -286c0 -24 2 -48 5 -71c50 39 92 82 127 128c43 57 63 106 60 148c-4 54 -23 82 -57 81zM406 119l54 -326c80 27 116 88 109 184c-7 99 -62 146 -163 142zM382 117c-74 -2 -132 -50 -128 -127c2 -46 43 -99 75 -115c-3 -2 -7 -5 -10 -10 c-70 33 -116 88 -123 172c-5 73 42 135 88 170c23 17 49 29 78 36l-29 170c-21 -13 -52 -37 -92 -73c-50 -44 -86 -84 -109 -119c-49 -75 -71 -140 -67 -195c5 -68 35 -127 93 -176s125 -73 203 -73c25 0 50 3 75 9c-19 111 -36 221 -54 331z" />
		</symbol>
		<symbol id="E082" viewBox="0 0 1000 1000" overflow="inherit">
			<path transform="scale(1,-1)" d="M104 -185c-18 0 -55 -14 -65 -65h-36l-3 29c0 25 6 46 18 64c11 19 22 30 39 43l121 82l37 29c15 11 27 29 38 54c12 24 18 47 18 70c0 40 -19 88 -94 88c-25 0 -32 0 -50 -8c-14 -5 -23 -12 -26 -22c3 -9 7 -15 10 -18l24 -17c12 -7 17 -11 27 -21c5 -7 7 -16 7 -27 c0 -12 0 -57 -79 -74c-30 0 -76 26 -76 94c0 66 80 135 196 135c72 0 182 -32 182 -150c0 -53 -32 -95 -113 -133l-91 -41c-26 -11 -45 -23 -57 -37l49 7c84 0 115 -41 148 -41c20 0 33 20 39 61h35c0 -152 -68 -168 -114 -168c-17 0 -55 0 -69 7v0l-28 17 c-49 37 -69 40 -87 42z" />
		</symbol>
		<symbol id="E084" viewBox="0 0 1000 1000" overflow="inherit">
			<path transform="scale(1,-1)" d="M0 -78c84 97 114 180 134 329h170c-13 -32 -82 -132 -99 -151l-84 -97c-33 -36 -59 -63 -80 -81h162v102l127 123v-225h57v-39h-57v-34c0 -43 19 -65 57 -65v-34h-244v36c48 0 60 26 60 70v27h-203v39z" />
		</symbol>
		<symbol id="E4E7" viewBox="0 0 1000 1000" overflow="inherit">
			<path transform="scale(1,-1)" d="M133 -111c-16 38 -21 43 -64 51c-37 -4 -60 -25 -68 -60c0 -32 18 -52 55 -58c8 -6 22 -10 43 -10c31 0 62 7 82 20l-108 -324h37c72 220 143 439 215 659h-4l-10 -2l-7 -1c-15 -35 -27 -52 -59 -71c-26 -15 -56 -27 -88 -29c-11 0 -20 2 -26 6c29 3 56 25 51 56 c-15 35 -19 42 -64 48c-38 -4 -60 -23 -68 -58c0 -32 18 -52 55 -59c7 -5 22 -8 45 -8c48 0 76 7 112 25l-66 -197c-21 -23 -50 -47 -90 -47c-7 0 -15 1 -25 4c31 5 52 22 52 55z" />
		</symbol>
		<symbol id="E0A4" viewBox="0 0 1000 1000" overflow="inherit">
			<path transform="scale(1,-1)" d="M0 -39c0 68 73 172 200 172c66 0 114 -37 114 -95c0 -84 -106 -171 -218 -171c-64 0 -96 30 -96 94z" />
		</symbol>
		<symbol id="E260" viewBox="0 0 1000 1000" overflow="inherit">
			<path transform="scale(1,-1)" d="M20 110c32 16 54 27 93 27c26 0 35 -3 54 -13c13 -7 24 -20 27 -38l4 -25c0 -28 -16 -57 -45 -89c-23 -25 -39 -44 -65 -68l-88 -79v644h20v-359zM90 106c-32 0 -48 -10 -70 -29v-194c31 31 54 59 71 84c21 32 32 59 32 84c0 9 1 16 1 20c0 14 -3 21 -11 30l-8 3z" />
		</symbol>
		<symbol id="E4E6" viewBox="0 0 1000 1000" overflow="inherit">
			<path transform="scale(1,-1)" d="M0 123c7 34 33 56 69 60c29 -3 43 -9 53 -29c4 -8 7 -15 10 -22c0 -21 -1 -25 -11 -35c-5 -8 -18 -14 -40 -20l12 -3l15 -1c44 0 97 26 122 56c10 11 18 26 24 42c7 1 15 2 22 3l-140 -424h-36l111 330c-10 -6 -27 -12 -53 -16l-52 -8h-10l-20 1c-1 0 -8 3 -21 6 c-37 9 -55 28 -55 60z" />
		</symbol>
		<symbol id="E062" viewBox="0 0 1000 1000" overflow="inherit">
			<path transform="scale(1,-1)" d="M158 96c51 0 73 -14 88 -49l16 -39c0 -17 -2 -30 -7 -40c-3 -11 -10 -21 -19 -31c-17 -18 -49 -43 -84 -43c-55 0 -77 13 -112 44c-24 21 -35 55 -35 100c0 46 14 81 32 112c30 52 71 79 137 93l36 6l26 2c154 0 235 -68 274 -182c11 -32 18 -68 18 -107 c0 -103 -26 -182 -68 -250c-89 -145 -234 -230 -412 -288l-30 -5c-9 0 -14 3 -14 8c3 10 5 11 10 16c35 15 70 30 96 44l78 43c96 57 162 136 197 258c9 33 17 60 22 100c3 22 5 35 6 39c-7 69 -16 115 -23 140s-4 22 -16 40c-8 12 -19 23 -31 34c-24 21 -62 44 -118 44 c-48 0 -84 -8 -113 -28c-28 -19 -42 -44 -42 -73v-16c2 -5 3 -9 4 -11c24 22 52 39 84 39zM585 -118c0 32 23 58 57 58c18 0 33 -6 40 -18c9 -15 16 -18 16 -40c0 -9 -2 -16 -5 -21c-6 -19 -27 -37 -51 -37c-34 0 -57 26 -57 58zM642 177c31 0 56 -27 56 -58 c0 -30 -25 -58 -56 -58l-23 3c-19 7 -34 32 -34 55l3 23c9 20 28 35 54 35z" />
		</symbol>
	</defs>
	<style type="text/css">g.page-margin{font-family:Times;} g.tempo{font-weight:bold;} g.dir, g.dynam, g.mNum{font-style:italic;} g.label{font-weight:normal;}</style>
	<svg class="definition-scale" viewBox="0 0 21000 6000">
		<g class="page-margin" transform="translate(500, 500)">
			<g class="system" id="system-0000000034229662">
				<path d="M13 720 L13 4602" stroke="#000000" stroke-width="27" />
				<use xlink:href="#E003" x="-167" y="720" height="720px" width="720px" />
				<use xlink:href="#E004" x="-167" y="4602" height="720px" width="720px" />
				<rect x="-167" y="702" height="3918" width="90" />
				<g class="section boundaryStart" id="section-L1F1" />
				<g class="measure" id="measure-L4">
					<g class="staff" id="staff-L4F3N1">
						<path d="M0 720 L5736 720" stroke="#000000" stroke-width="13" />
						<path d="M0 900 L5736 900" stroke="#000000" stroke-width="13" />
						<path d="M0 1080 L5736 1080" stroke="#000000" stroke-width="13" />
						<path d="M0 1260 L5736 1260" stroke="#000000" stroke-width="13" />
						<path d="M0 1440 L5736 1440" stroke="#000000" stroke-width="13" />
						<g class="clef" id="clef-0000001774255844">
							<use xlink:href="#E050" x="90" y="1260" height="720px" width="720px" />
						</g>
						<g class="meterSig" id="msig-0000002107531513">
							<use xlink:href="#E082" x="771" y="900" height="720px" width="720px" />
							<use xlink:href="#E084" x="777" y="1260" height="720px" width="720px" />
						</g>
						<g class="ledgerLines above">
							<path d="M2280 540 L2559 540" stroke="#000000" stroke-width="22" />
							<path d="M2944 540 L3223 540" stroke="#000000" stroke-width="22" />
							<path d="M3362 540 L3641 540" stroke="#000000" stroke-width="22" />
							<path d="M4026 540 L4305 540" stroke="#000000" stroke-width="22" />
							<path d="M4436 540 L4715 540" stroke="#000000" stroke-width="22" />
							<path d="M4845 540 L5124 540" stroke="#000000" stroke-width="22" />
							<path d="M4026 360 L4305 360" stroke="#000000" stroke-width="22" />
						</g>
						<g class="layer" id="layer-L4F3N1">
							<g class="beam" id="beam-L5F3-L8F3">
								<polygon points="1638,1935 3411,1759 3411,1669 1638,1845 " />
								<polygon points="1638,1800 3411,1624 3411,1534 1638,1710 " />
								<g class="rest" id="rest-L5F3">
									<use xlink:href="#E4E7" x="1638" y="1080" height="720px" width="720px" />
								</g>
								<g class="note" id="note-L6F3">
									<use xlink:href="#E0A4" x="2311" y="450" height="720px" width="720px" />
									<g class="stem">
										<rect x="2311" y="472" height="1377" width="18" />
									</g>
									<g class="accid" id="accid-0000000208234116">
										<use xlink:href="#E260" x="2115" y="450" height="720px" width="720px" />
									</g>
								</g>
								<g class="note" id="note-L7F3">
									<use xlink:href="#E0A4" x="2975" y="540" height="720px" width="720px" />
									<g class="stem">
										<rect x="2975" y="562" height="1221" width="18" />
									</g>
									<g class="accid" id="accid-0000000074276099">
										<use xlink:href="#E260" x="2779" y="540" height="720px" width="720px" />
									</g>
								</g>
								<g class="note" id="note-L8F3">
									<use xlink:href="#E0A4" x="3393" y="450" height="720px" width="720px" />
									<g class="stem">
										<rect x="3393" y="472" height="1269" width="18" />
									</g>
									<g class="accid" id="accid-0000001662931540" />
								</g>
							</g>
							<g class="beam" id="beam-L9F3-L12F3">
								<polygon points="4057,1181 5313,1305 5313,1215 4057,1091 " />
								<polygon points="4057,1046 5313,1170 5313,1080 4057,956 " />
								<g class="note" id="note-L9F3">
									<use xlink:href="#E0A4" x="4057" y="360" height="720px" width="720px" />
									<g class="stem">
										<rect x="4057" y="382" height="781" width="18" />
									</g>
									<g class="accid" id="accid-0000000150286886" />
								</g>
								<g class="note" id="note-L10F3">
									<use xlink:href="#E0A4" x="4467" y="450" height="720px" width="720px" />
									<g class="stem">
										<rect x="4467" y="472" height="732" width="18" />
									</g>
									<g class="accid" id="accid-0000001226995226" />
								</g>
								<g class="note" id="note-L11F3">
									<use xlink:href="#E0A4" x="4876" y="540" height="720px" width="720px" />
									<g class="stem">
										<rect x="4876" y="562" height="683" width="18" />
									</g>
									<g class="accid" id="accid-0000000193841288" />
								</g>
								<g class="note" id="note-L12F3">
									<use xlink:href="#E0A4" x="5295" y="630" height="720px" width="720px" />
									<g class="stem">
										<rect x="5295" y="652" height="635" width="18" />
									</g>
									<g class="accid" id="accid-0000000589145974" />
								</g>
							</g>
						</g>
					</g>
					<g class="staff" id="staff-L4F2N1">
						<path d="M0 2384 L5736 2384" stroke="#000000" stroke-width="13" />
						<path d="M0 2564 L5736 2564" stroke="#000000" stroke-width="13" />
						<path d="M0 2744 L5736 2744" stroke="#000000" stroke-width="13" />
						<path d="M0 2924 L5736 2924" stroke="#000000" stroke-width="13" />
						<path d="M0 3104 L5736 3104" stroke="#000000" stroke-width="13" />
						<g class="clef" id="clef-0000000686865373">
							<use xlink:href="#E050" x="90" y="2924" height="720px" width="720px" />
						</g>
						<g class="meterSig" id="msig-0000001421721386">
							<use xlink:href="#E082" x="771" y="2564" height="720px" width="720px" />
							<use xlink:href="#E084" x="777" y="2924" height="720px" width="720px" />
						</g>
						<g class="layer" id="layer-L4F2N1">
							<g class="beam" id="beam-L5F2-L8F2">
								<polygon points="1846,2156 3619,1980 3619,2070 1846,2246 " />
								<polygon points="1846,2291 3619,2115 3619,2205 1846,2381 " />
								<g class="note" id="note-L5F2">
									<use xlink:href="#E0A4" x="1638" y="3104" height="720px" width="720px" />
									<g class="stem">
										<rect x="1846" y="2174" height="908" width="18" />
									</g>
									<g class="accid" id="accid-0000000001034389">
										<use xlink:href="#E260" x="1442" y="3104" height="720px" width="720px" />
									</g>
								</g>
								<g class="rest" id="rest-L6F2">
									<use xlink:href="#E4E6" x="2311" y="2744" height="720px" width="720px" />
								</g>
								<g class="note" id="note-L8F2">
									<use xlink:href="#E0A4" x="3393" y="2654" height="720px" width="720px" />
									<g class="stem">
										<rect x="3601" y="1998" height="634" width="18" />
									</g>
									<g class="accid" id="accid-0000001790185314" />
								</g>
							</g>
							<g class="beam" id="beam-L9F2-L12F2">
								<polygon points="4265,1939 5521,2063 5521,2153 4265,2029 " />
								<polygon points="4265,2074 5521,2198 5521,2288 4265,2164 " />
								<g class="note" id="note-L9F2">
									<use xlink:href="#E0A4" x="4057" y="2744" height="720px" width="720px" />
									<g class="stem">
										<rect x="4265" y="1957" height="765" width="18" />
									</g>
									<g class="accid" id="accid-0000002091191072">
										<use xlink:href="#E260" x="3861" y="2744" height="720px" width="720px" />
									</g>
								</g>
								<g class="note" id="note-L10F2">
									<use xlink:href="#E0A4" x="4467" y="2654" height="720px" width="720px" />
									<g class="stem">
										<rect x="4675" y="1998" height="634" width="18" />
									</g>
									<g class="accid" id="accid-0000000420083672" />
								</g>
								<g class="rest" id="rest-L11F2">
									<use xlink:href="#E4E7" x="4876" y="2744" height="720px" width="720px" />
								</g>
								<g class="note" id="note-L12F2">
									<use xlink:href="#E0A4" x="5295" y="2924" height="720px" width="720px" />
									<g class="stem">
										<rect x="5503" y="2081" height="821" width="18" />
									</g>
									<g class="accid" id="accid-0000000709598730" />
								</g>
							</g>
						</g>
					</g>
					<g class="staff" id="staff-L4F1N1">
						<path d="M0 3882 L5736 3882" stroke="#000000" stroke-width="13" />
						<path d="M0 4062 L5736 4062" stroke="#000000" stroke-width="13" />
						<path d="M0 4242 L5736 4242" stroke="#000000" stroke-width="13" />
						<path d="M0 4422 L5736 4422" stroke="#000000" stroke-width="13" />
						<path d="M0 4602 L5736 4602" stroke="#000000" stroke-width="13" />
						<g class="clef" id="clef-0000001968277980">
							<use xlink:href="#E062" x="90" y="4062" height="720px" width="720px" />
						</g>
						<g class="meterSig" id="msig-0000001009911472">
							<use xlink:href="#E082" x="771" y="4062" height="720px" width="720px" />
							<use xlink:href="#E084" x="777" y="4422" height="720px" width="720px" />
						</g>
						<g class="layer" id="layer-L4F1N1">
							<g class="beam" id="beam-L5F1-L8F1">
								<polygon points="1638,4842 3411,4803 3411,4713 1638,4752 " />
								<polygon points="1638,4707 3411,4668 3411,4578 1638,4617 " />
								<g class="note" id="note-L5F1">
									<use xlink:href="#E0A4" x="1638" y="4152" height="720px" width="720px" />
									<g class="stem">
										<rect x="1638" y="4174" height="650" width="18" />
									</g>
									<g class="accid" id="accid-0000000114426015">
										<use xlink:href="#E260" x="1442" y="4152" height="720px" width="720px" />
									</g>
								</g>
								<g class="note" id="note-L6F1">
									<use xlink:href="#E0A4" x="2311" y="4152" height="720px" width="720px" />
									<g class="stem">
										<rect x="2311" y="4174" height="635" width="18" />
									</g>
									<g class="accid" id="accid-0000001973831167" />
								</g>
								<g class="rest" id="rest-L7F1">
									<use xlink:href="#E4E7" x="2975" y="4242" height="720px" width="720px" />
								</g>
								<g class="note" id="note-L8F1">
									<use xlink:href="#E0A4" x="3393" y="3972" height="720px" width="720px" />
									<g class="stem">
										<rect x="3393" y="3994" height="791" width="18" />
									</g>
									<g class="accid" id="accid-0000001931948093" />
								</g>
							</g>
							<g class="beam" id="beam-L9F1-L12F1">
								<polygon points="4057,5097 5313,4973 5313,4883 4057,5007 " />
								<polygon points="5155,4853 5313,4838 5313,4748 5155,4763 " />
								<g class="rest" id="rest-L9F1">
									<use xlink:href="#E4E6" x="4057" y="4242" height="720px" width="720px" />
									<g class="dots" id="dots-0000000246922842">
										<ellipse cx="4345" cy="4152" rx="36" ry="36" />
									</g>
								</g>
								<g class="note" id="note-L12F1">
									<use xlink:href="#E0A4" x="5295" y="4062" height="720px" width="720px" />
									<g class="stem">
										<rect x="5295" y="4084" height="871" width="18" />
									</g>
									<g class="accid" id="accid-0000001554147385" />
								</g>
							</g>
						</g>
					</g>
					<g class="mNum autogenerated" id="mnum-0000000189512892" />
					<g class="barLineAttr" id="bline-0000001220877336">
						<path d="M5723 1440 L5723 720" stroke="#000000" stroke-width="27" />
						<path d="M5723 3104 L5723 2384" stroke="#000000" stroke-width="27" />
						<path d="M5723 4602 L5723 3882" stroke="#000000" stroke-width="27" />
					</g>
				</g>
				<g class="measure" id="measure-L13">
					<g class="staff" id="staff-L13F3N1">
						<path d="M5736 720 L10576 720" stroke="#000000" stroke-width="13" />
						<path d="M5736 900 L10576 900" stroke="#000000" stroke-width="13" />
						<path d="M5736 1080 L10576 1080" stroke="#000000" stroke-width="13" />
						<path d="M5736 1260 L10576 1260" stroke="#000000" stroke-width="13" />
						<path d="M5736 1440 L10576 1440" stroke="#000000" stroke-width="13" />
						<g class="ledgerLines above">
							<path d="M6603 540 L6882 540" stroke="#000000" stroke-width="22" />
							<path d="M7948 540 L8227 540" stroke="#000000" stroke-width="22" />
							<path d="M9276 540 L9555 540" stroke="#000000" stroke-width="22" />
						</g>
						<g class="layer" id="layer-L13F3N1">
							<g class="beam" id="beam-L14F3-L17F3">
								<polygon points="5970,1306 7997,1360 7997,1270 5970,1216 " />
								<polygon points="5970,1171 7997,1225 7997,1135 5970,1081 " />
								<g class="note" id="note-L14F3">
									<use xlink:href="#E0A4" x="5970" y="630" height="720px" width="720px" />
									<g class="stem">
										<rect x="5970" y="652" height="636" width="18" />
									</g>
									<g class="accid" id="accid-0000000365469885" />
								</g>
								<g class="note" id="note-L15F3">
									<use xlink:href="#E0A4" x="6634" y="450" height="720px" width="720px" />
									<g class="stem">
										<rect x="6634" y="472" height="834" width="18" />
									</g>
									<g class="accid" id="accid-0000000656780665">
										<use xlink:href="#E260" x="6438" y="450" height="720px" width="720px" />
									</g>
								</g>
								<g class="rest" id="rest-L16F3">
									<use xlink:href="#E4E7" x="7306" y="720" height="720px" width="720px" />
								</g>
								<g class="note" id="note-L17F3">
									<use xlink:href="#E0A4" x="7979" y="540" height="720px" width="720px" />
									<g class="stem">
										<rect x="7979" y="562" height="780" width="18" />
									</g>
									<g class="accid" id="accid-0000002123417190">
										<use xlink:href="#E260" x="7783" y="540" height="720px" width="720px" />
									</g>
								</g>
							</g>
							<g class="beam" id="beam-L18F3-L20F3">
								<polygon points="8643,1935 9734,1827 9734,1737 8643,1845 " />
								<polygon points="8643,1800 9316,1733 9316,1643 8643,1710 " />
								<g class="rest" id="rest-L18F3">
									<use xlink:href="#E4E7" x="8643" y="1080" height="720px" width="720px" />
								</g>
								<g class="note" id="note-L19F3">
									<use xlink:href="#E0A4" x="9307" y="450" height="720px" width="720px" />
									<g class="stem">
										<rect x="9307" y="472" height="1378" width="18" />
									</g>
									<g class="accid" id="accid-0000000691532642" />
								</g>
								<g class="rest" id="rest-L20F3">
									<use xlink:href="#E4E6" x="9716" y="1080" height="720px" width="720px" />
								</g>
							</g>
						</g>
					</g>
					<g class="staff" id="staff-L13F2N1">
						<path d="M5736 2384 L10576 2384" stroke="#000000" stroke-width="13" />
						<path d="M5736 2564 L10576 2564" stroke="#000000" stroke-width="13" />
						<path d="M5736 2744 L10576 2744" stroke="#000000" stroke-width="13" />
						<path d="M5736 2924 L10576 2924" stroke="#000000" stroke-width="13" />
						<path d="M5736 3104 L10576 3104" stroke="#000000" stroke-width="13" />
						<g class="layer" id="layer-L13F2N1">
							<g class="beam" id="beam-L14F2-L17F2">
								<polygon points="6178,2229 8205,2040 8205,2130 6178,2319 " />
								<polygon points="6178,2364 8205,2175 8205,2265 6178,2454 " />
								<g class="note" id="note-L14F2">
									<use xlink:href="#E0A4" x="5970" y="2924" height="720px" width="720px" />
									<g class="stem">
										<rect x="6178" y="2247" height="655" width="18" />
									</g>
									<g class="accid" id="accid-0000001313475296" />
								</g>
								<g class="rest" id="rest-L15F2">
									<use xlink:href="#E4E7" x="6634" y="2744" height="720px" width="720px" />
								</g>
								<g class="note" id="note-L16F2">
									<use xlink:href="#E0A4" x="7306" y="2834" height="720px" width="720px" />
									<g class="stem">
										<rect x="7514" y="2121" height="691" width="18" />
									</g>
									<g class="accid" id="accid-0000000492410780">
										<use xlink:href="#E260" x="7110" y="2834" height="720px" width="720px" />
									</g>
								</g>
								<g class="note" id="note-L17F2">
									<use xlink:href="#E0A4" x="7979" y="2744" height="720px" width="720px" />
									<g class="stem">
										<rect x="8187" y="2058" height="664" width="18" />
									</g>
									<g class="accid" id="accid-0000001844798492">
										<use xlink:href="#E260" x="7783" y="2744" height="720px" width="720px" />
									</g>
								</g>
							</g>
							<g class="beam" id="beam-L18F2-L21F2">
								<polygon points="8643,3352 10144,3501 10144,3411 8643,3262 " />
								<polygon points="8643,3217 10144,3366 10144,3276 8643,3127 " />
								<g class="note" id="note-L18F2">
									<use xlink:href="#E0A4" x="8643" y="2654" height="720px" width="720px" />
									<g class="stem">
										<rect x="8643" y="2676" height="658" width="18" />
									</g>
									<g class="accid" id="accid-0000002002681890" />
								</g>
								<g class="note" id="note-L19F2">
									<use xlink:href="#E0A4" x="9307" y="2744" height="720px" width="720px" />
									<g class="stem">
										<rect x="9307" y="2766" height="635" width="18" />
									</g>
									<g class="accid" id="accid-0000000354282748" />
								</g>
								<g class="note" id="note-L20F2">
									<use xlink:href="#E0A4" x="9716" y="2744" height="720px" width="720px" />
									<g class="stem">
										<rect x="9716" y="2766" height="676" width="18" />
									</g>
									<g class="accid" id="accid-0000000105662109" />
								</g>
								<g class="rest" id="rest-L21F2">
									<use xlink:href="#E4E7" x="10126" y="2744" height="720px" width="720px" />
								</g>
							</g>
						</g>
					</g>
					<g class="staff" id="staff-L13F1N1">
						<path d="M5736 3882 L10576 3882" stroke="#000000" stroke-width="13" />
						<path d="M5736 4062 L10576 4062" stroke="#000000" stroke-width="13" />
						<path d="M5736 4242 L10576 4242" stroke="#000000" stroke-width="13" />
						<path d="M5736 4422 L10576 4422" stroke="#000000" stroke-width="13" />
						<path d="M5736 4602 L10576 4602" stroke="#000000" stroke-width="13" />
						<g class="ledgerLines above">
							<path d="M7948 3702 L8227 3702" stroke="#000000" stroke-width="22" />
						</g>
						<g class="layer" id="layer-L13F1N1">
							<g class="beam" id="beam-L14F1-L17F1">
								<polygon points="5970,4781 7997,4580 7997,4490 5970,4691 " />
								<polygon points="5970,4646 7997,4445 7997,4355 5970,4556 " />
								<g class="note" id="note-L14F1">
									<use xlink:href="#E0A4" x="5970" y="4062" height="720px" width="720px" />
									<g class="stem">
										<rect x="5970" y="4084" height="679" width="18" />
									</g>
									<g class="accid" id="accid-0000000885514865" />
								</g>
								<g class="rest" id="rest-L15F1">
									<use xlink:href="#E4E7" x="6634" y="4242" height="720px" width="720px" />
								</g>
								<g class="note" id="note-L16F1">
									<use xlink:href="#E0A4" x="7306" y="3972" height="720px" width="720px" />
									<g class="stem">
										<rect x="7306" y="3994" height="635" width="18" />
									</g>
									<g class="accid" id="accid-0000001882948777" />
								</g>
								<g class="note" id="note-L17F1">
									<use xlink:href="#E0A4" x="7979" y="3702" height="720px" width="720px" />
									<g class="stem">
										<rect x="7979" y="3724" height="838" width="18" />
									</g>
									<g class="accid" id="accid-0000000673150174" />
								</g>
							</g>
							<g class="beam" id="beam-L18F1-L21F1">
								<polygon points="8643,4551 10144,4565 10144,4475 8643,4461 " />
								<polygon points="8643,4416 10144,4430 10144,4340 8643,4326 " />
								<g class="note" id="note-L18F1">
									<use xlink:href="#E0A4" x="8643" y="3792" height="720px" width="720px" />
									<g class="stem">
										<rect x="8643" y="3814" height="719" width="18" />
									</g>
									<g class="accid" id="accid-0000000238183164">
										<use xlink:href="#E260" x="8447" y="3792" height="720px" width="720px" />
									</g>
								</g>
								<g class="note" id="note-L19F1">
									<use xlink:href="#E0A4" x="9307" y="3882" height="720px" width="720px" />
									<g class="stem">
										<rect x="9307" y="3904" height="635" width="18" />
									</g>
									<g class="accid" id="accid-0000001214404194">
										<use xlink:href="#E260" x="9111" y="3882" height="720px" width="720px" />
									</g>
								</g>
								<g class="note" id="note-L20F1">
									<use xlink:href="#E0A4" x="9716" y="3882" height="720px" width="720px" />
									<g class="stem">
										<rect x="9716" y="3904" height="639" width="18" />
									</g>
									<g class="accid" id="accid-0000001268184779" />
								</g>
								<g class="note" id="note-L21F1">
									<use xlink:href="#E0A4" x="10126" y="3792" height="720px" width="720px" />
									<g class="stem">
										<rect x="10126" y="3814" height="733" width="18" />
									</g>
									<g class="accid" id="accid-0000001688974631" />
								</g>
							</g>
						</g>
					</g>
					<g class="mNum autogenerated" id="mnum-0000001370727526" />
					<g class="barLineAttr" id="bline-0000001655429751">
						<path d="M10563 1440 L10563 720" stroke="#000000" stroke-width="27" />
						<path d="M10563 3104 L10563 2384" stroke="#000000" stroke-width="27" />
						<path d="M10563 4602 L10563 3882" stroke="#000000" stroke-width="27" />
					</g>
				</g>
				<g class="measure" id="measure-L22">
					<g class="staff" id="staff-L22F3N1">
						<path d="M10576 720 L15162 720" stroke="#000000" stroke-width="13" />
						<path d="M10576 900 L15162 900" stroke="#000000" stroke-width="13" />
						<path d="M10576 1080 L15162 1080" stroke="#000000" stroke-width="13" />
						<path d="M10576 1260 L15162 1260" stroke="#000000" stroke-width="13" />
						<path d="M10576 1440 L15162 1440" stroke="#000000" stroke-width="13" />
						<g class="ledgerLines above">
							<path d="M11706 540 L11985 540" stroke="#000000" stroke-width="22" />
							<path d="M12370 540 L12649 540" stroke="#000000" stroke-width="22" />
							<path d="M12788 540 L13067 540" stroke="#000000" stroke-width="22" />
							<path d="M13452 540 L13731 540" stroke="#000000" stroke-width="22" />
							<path d="M13862 540 L14141 540" stroke="#000000" stroke-width="22" />
							<path d="M14271 540 L14550 540" stroke="#000000" stroke-width="22" />
							<path d="M13452 360 L13731 360" stroke="#000000" stroke-width="22" />
						</g>
						<g class="layer" id="layer-L22F3N1">
							<g class="beam" id="beam-L23F3-L26F3">
								<polygon points="11064,1935 12837,1759 12837,1669 11064,1845 " />
								<polygon points="11064,1800 12837,1624 12837,1534 11064,1710 " />
								<g class="rest" id="rest-L23F3">
									<use xlink:href="#E4E7" x="11064" y="1080" height="720px" width="720px" />
								</g>
								<g class="note" id="note-L24F3">
									<use xlink:href="#E0A4" x="11737" y="450" height="720px" width="720px" />
									<g class="stem">
										<rect x="11737" y="472" height="1377" width="18" />
									</g>
									<g class="accid" id="accid-0000000691454582">
										<use xlink:href="#E260" x="11541" y="450" height="720px" width="720px" />
									</g>
								</g>
								<g class="note" id="note-L25F3">
									<use xlink:href="#E0A4" x="12401" y="540" height="720px" width="720px" />
									<g class="stem">
										<rect x="12401" y="562" height="1221" width="18" />
									</g>
									<g class="accid" id="accid-0000000682336236">
										<use xlink:href="#E260" x="12205" y="540" height="720px" width="720px" />
									</g>
								</g>
								<g class="note" id="note-L26F3">
									<use xlink:href="#E0A4" x="12819" y="450" height="720px" width="720px" />
									<g class="stem">
										<rect x="12819" y="472" height="1269" width="18" />
									</g>
									<g class="accid" id="accid-0000000544115411" />
								</g>
							</g>
							<g class="beam" id="beam-L27F3-L30F3">
								<polygon points="13483,1181 14739,1305 14739,1215 13483,1091 " />
								<polygon points="13483,1046 14739,1170 14739,1080 13483,956 " />
								<g class="note" id="note-L27F3">
									<use xlink:href="#E0A4" x="13483" y="360" height="720px" width="720px" />
									<g class="stem">
										<rect x="13483" y="382" height="781" width="18" />
									</g>
									<g class="accid" id="accid-0000000944759503" />
								</g>
								<g class="note" id="note-L28F3">
									<use xlink:href="#E0A4" x="13893" y="450" height="720px" width="720px" />
									<g class="stem">
										<rect x="13893" y="472" height="732" width="18" />
									</g>
									<g class="accid" id="accid-0000000755607222" />
								</g>
								<g class="note" id="note-L29F3">
									<use xlink:href="#E0A4" x="14302" y="540" height="720px" width="720px" />
									<g class="stem">
										<rect x="14302" y="562" height="683" width="18" />
									</g>
									<g class="accid" id="accid-0000001475068684" />
								</g>
								<g class="note" id="note-L30F3">
									<use xlink:href="#E0A4" x="14721" y="630" height="720px" width="720px" />
									<g class="stem">
										<rect x="14721" y="652" height="635" width="18" />
									</g>
									<g class="accid" id="accid-0000000112981332" />
								</g>
							</g>
						</g>
					</g>
					<g class="staff" id="staff-L22F2N1">
						<path d="M10576 2384 L15162 2384" stroke="#000000" stroke-width="13" />
						<path d="M10576 2564 L15162 2564" stroke="#000000" stroke-width="13" />
						<path d="M10576 2744 L15162 2744" stroke="#000000" stroke-width="13" />
						<path d="M10576 2924 L15162 2924" stroke="#000000" stroke-width="13" />
						<path d="M10576 3104 L15162 3104" stroke="#000000" stroke-width="13" />
						<g class="layer" id="layer-L22F2N1">
							<g class="beam" id="beam-L23F2-L26F2">
								<polygon points="11272,2156 13045,1980 13045,2070 11272,2246 " />
								<polygon points="11272,2291 13045,2115 13045,2205 11272,2381 " />
								<g class="note" id="note-L23F2">
									<use xlink:href="#E0A4" x="11064" y="3104" height="720px" width="720px" />
									<g class="stem">
										<rect x="11272" y="2174" height="908" width="18" />
									</g>
									<g class="accid" id="accid-0000000276568216">
										<use xlink:href="#E260" x="10868" y="3104" height="720px" width="720px" />
									</g>
								</g>
								<g class="rest" id="rest-L24F2">
									<use xlink:href="#E4E6" x="11737" y="2744" height="720px" width="720px" />
								</g>
								<g class="note" id="note-L26F2">
									<use xlink:href="#E0A4" x="12819" y="2654" height="720px" width="720px" />
									<g class="stem">
										<rect x="13027" y="1998" height="634" width="18" />
									</g>
									<g class="accid" id="accid-0000002060694263" />
								</g>
							</g>
							<g class="beam" id="beam-L27F2-L30F2">
								<polygon points="13691,1939 14947,2063 14947,2153 13691,2029 " />
								<polygon points="13691,2074 14947,2198 14947,2288 13691,2164 " />
								<g class="note" id="note-L27F2">
									<use xlink:href="#E0A4" x="13483" y="2744" height="720px" width="720px" />
									<g class="stem">
										<rect x="13691" y="1957" height="765" width="18" />
									</g>
									<g class="accid" id="accid-0000001158721055">
										<use xlink:href="#E260" x="13287" y="2744" height="720px" width="720px" />
									</g>
								</g>
								<g class="note" id="note-L28F2">
									<use xlink:href="#E0A4" x="13893" y="2654" height="720px" width="720px" />
									<g class="stem">
										<rect x="14101" y="1998" height="634" width="18" />
									</g>
									<g class="accid" id="accid-0000001395039907" />
								</g>
								<g class="rest" id="rest-L29F2">
									<use xlink:href="#E4E7" x="14302" y="2744" height="720px" width="720px" />
								</g>
								<g class="note" id="note-L30F2">
									<use xlink:href="#E0A4" x="14721" y="2924" height="720px" width="720px" />
									<g class="stem">
										<rect x="14929" y="2081" height="821" width="18" />
									</g>
									<g class="accid" id="accid-0000000866862245" />
								</g>
							</g>
						</g>
					</g>
					<g class="staff" id="staff-L22F1N1">
						<path d="M10576 3882 L15162 3882" stroke="#000000" stroke-width="13" />
						<path d="M10576 4062 L15162 4062" stroke="#000000" stroke-width="13" />
						<path d="M10576 4242 L15162 4242" stroke="#000000" stroke-width="13" />
						<path d="M10576 4422 L15162 4422" stroke="#000000" stroke-width="13" />
						<path d="M10576 4602 L15162 4602" stroke="#000000" stroke-width="13" />
						<g class="layer" id="layer-L22F1N1">
							<g class="beam" id="beam-L23F1-L26F1">
								<polygon points="11064,5187 12837,5011 12837,4921 11064,5097 " />
								<polygon points="11064,5052 12837,4876 12837,4786 11064,4962 " />
								<g class="note" id="note-L23F1">
									<use xlink:href="#E0A4" x="11064" y="4512" height="720px" width="720px" />
									<g class="stem">
										<rect x="11064" y="4534" height="635" width="18" />
									</g>
									<g class="accid" id="accid-0000001042734309">
										<use xlink:href="#E260" x="10868" y="4512" height="720px" width="720px" />
									</g>
								</g>
								<g class="note" id="note-L24F1">
									<use xlink:href="#E0A4" x="11737" y="4152" height="720px" width="720px" />
									<g class="stem">
										<rect x="11737" y="4174" height="927" width="18" />
									</g>
									<g class="accid" id="accid-0000001346156233">
										<use xlink:href="#E260" x="11541" y="4152" height="720px" width="720px" />
									</g>
								</g>
								<g class="rest" id="rest-L25F1">
									<use xlink:href="#E4E7" x="12401" y="4242" height="720px" width="720px" />
								</g>
								<g class="note" id="note-L26F1">
									<use xlink:href="#E0A4" x="12819" y="3972" height="720px" width="720px" />
									<g class="stem">
										<rect x="12819" y="3994" height="999" width="18" />
									</g>
									<g class="accid" id="accid-0000000345352351" />
								</g>
							</g>
							<g class="beam" id="beam-L27F1-L30F1">
								<polygon points="13483,5097 14739,4973 14739,4883 13483,5007 " />
								<polygon points="14581,4853 14739,4838 14739,4748 14581,4763 " />
								<g class="rest" id="rest-L27F1">
									<use xlink:href="#E4E6" x="13483" y="4242" height="720px" width="720px" />
									<g class="dots" id="dots-0000001328954230">
										<ellipse cx="13771" cy="4152" rx="36" ry="36" />
									</g>
								</g>
								<g class="note" id="note-L30F1">
									<use xlink:href="#E0A4" x="14721" y="4062" height="720px" width="720px" />
									<g class="stem">
										<rect x="14721" y="4084" height="871" width="18" />
									</g>
									<g class="accid" id="accid-0000000743509011" />
								</g>
							</g>
						</g>
					</g>
					<g class="mNum autogenerated" id="mnum-0000001969230472" />
					<g class="barLineAttr" id="bline-0000000832189201">
						<path d="M15149 1440 L15149 720" stroke="#000000" stroke-width="27" />
						<path d="M15149 3104 L15149 2384" stroke="#000000" stroke-width="27" />
						<path d="M15149 4602 L15149 3882" stroke="#000000" stroke-width="27" />
					</g>
				</g>
				<g class="measure" id="measure-L31">
					<g class="staff" id="staff-L31F3N1">
						<path d="M15162 720 L20002 720" stroke="#000000" stroke-width="13" />
						<path d="M15162 900 L20002 900" stroke="#000000" stroke-width="13" />
						<path d="M15162 1080 L20002 1080" stroke="#000000" stroke-width="13" />
						<path d="M15162 1260 L20002 1260" stroke="#000000" stroke-width="13" />
						<path d="M15162 1440 L20002 1440" stroke="#000000" stroke-width="13" />
						<g class="ledgerLines above">
							<path d="M16029 540 L16308 540" stroke="#000000" stroke-width="22" />
							<path d="M17374 540 L17653 540" stroke="#000000" stroke-width="22" />
							<path d="M18702 540 L18981 540" stroke="#000000" stroke-width="22" />
						</g>
						<g class="layer" id="layer-L31F3N1">
							<g class="beam" id="beam-L32F3-L35F3">
								<polygon points="15396,1306 17423,1360 17423,1270 15396,1216 " />
								<polygon points="15396,1171 17423,1225 17423,1135 15396,1081 " />
								<g class="note" id="note-L32F3">
									<use xlink:href="#E0A4" x="15396" y="630" height="720px" width="720px" />
									<g class="stem">
										<rect x="15396" y="652" height="636" width="18" />
									</g>
									<g class="accid" id="accid-0000001517101737" />
								</g>
								<g class="note" id="note-L33F3">
									<use xlink:href="#E0A4" x="16060" y="450" height="720px" width="720px" />
									<g class="stem">
										<rect x="16060" y="472" height="834" width="18" />
									</g>
									<g class="accid" id="accid-0000001875044231">
										<use xlink:href="#E260" x="15864" y="450" height="720px" width="720px" />
									</g>
								</g>
								<g class="rest" id="rest-L34F3">
									<use xlink:href="#E4E7" x="16732" y="720" height="720px" width="720px" />
								</g>
								<g class="note" id="note-L35F3">
									<use xlink:href="#E0A4" x="17405" y="540" height="720px" width="720px" />
									<g class="stem">
										<rect x="17405" y="562" height="780" width="18" />
									</g>
									<g class="accid" id="accid-0000000632849063">
										<use xlink:href="#E260" x="17209" y="540" height="720px" width="720px" />
									</g>
								</g>
							</g>
							<g class="beam" id="beam-L36F3-L38F3">
								<polygon points="18069,1935 19160,1827 19160,1737 18069,1845 " />
								<polygon points="18069,1800 18742,1733 18742,1643 18069,1710 " />
								<g class="rest" id="rest-L36F3">
									<use xlink:href="#E4E7" x="18069" y="1080" height="720px" width="720px" />
								</g>
								<g class="note" id="note-L37F3">
									<use xlink:href="#E0A4" x="18733" y="450" height="720px" width="720px" />
									<g class="stem">
										<rect x="18733" y="472" height="1378" width="18" />
									</g>
									<g class="accid" id="accid-0000000499464472" />
								</g>
								<g class="rest" id="rest-L38F3">
									<use xlink:href="#E4E6" x="19142" y="1080" height="720px" width="720px" />
								</g>
							</g>
						</g>
					</g>
					<g class="staff" id="staff-L31F2N1">
						<path d="M15162 2384 L20002 2384" stroke="#000000" stroke-width="13" />
						<path d="M15162 2564 L20002 2564" stroke="#000000" stroke-width="13" />
						<path d="M15162 2744 L20002 2744" stroke="#000000" stroke-width="13" />
						<path d="M15162 2924 L20002 2924" stroke="#000000" stroke-width="13" />
						<path d="M15162 3104 L20002 3104" stroke="#000000" stroke-width="13" />
						<g class="layer" id="layer-L31F2N1">
							<g class="beam" id="beam-L32F2-L35F2">
								<polygon points="15604,2229 17631,2040 17631,2130 15604,2319 " />
								<polygon points="15604,2364 17631,2175 17631,2265 15604,2454 " />
								<g class="note" id="note-L32F2">
									<use xlink:href="#E0A4" x="15396" y="2924" height="720px" width="720px" />
									<g class="stem">
										<rect x="15604" y="2247" height="655" width="18" />
									</g>
									<g class="accid" id="accid-0000000835176286" />
								</g>
								<g class="rest" id="rest-L33F2">
									<use xlink:href="#E4E7" x="16060" y="2744" height="720px" width="720px" />
								</g>
								<g class="note" id="note-L34F2">
									<use xlink:href="#E0A4" x="16732" y="2834" height="720px" width="720px" />
									<g class="stem">
										<rect x="16940" y="2121" height="691" width="18" />
									</g>
									<g class="accid" id="accid-0000001444571916">
										<use xlink:href="#E260" x="16536" y="2834" height="720px" width="720px" />
									</g>
								</g>
								<g class="note" id="note-L35F2">
									<use xlink:href="#E0A4" x="17405" y="2744" height="720px" width="720px" />
									<g class="stem">
										<rect x="17613" y="2058" height="664" width="18" />
									</g>
									<g class="accid" id="accid-0000001383786366">
										<use xlink:href="#E260" x="17209" y="2744" height="720px" width="720px" />
									</g>
								</g>
							</g>
							<g class="beam" id="beam-L36F2-L39F2">
								<polygon points="18069,3352 19570,3501 19570,3411 18069,3262 " />
								<polygon points="18069,3217 19570,3366 19570,3276 18069,3127 " />
								<g class="note" id="note-L36F2">
									<use xlink:href="#E0A4" x="18069" y="2654" height="720px" width="720px" />
									<g class="stem">
										<rect x="18069" y="2676" height="658" width="18" />
									</g>
									<g class="accid" id="accid-0000001998285444" />
								</g>
								<g class="note" id="note-L37F2">
									<use xlink:href="#E0A4" x="18733" y="2744" height="720px" width="720px" />
									<g class="stem">
										<rect x="18733" y="2766" height="635" width="18" />
									</g>
									<g class="accid" id="accid-0000000821294147" />
								</g>
								<g class="note" id="note-L38F2">
									<use xlink:href="#E0A4" x="19142" y="2744" height="720px" width="720px" />
									<g class="stem">
										<rect x="19142" y="2766" height="676" width="18" />
									</g>
									<g class="accid" id="accid-0000001098026498" />
								</g>
								<g class="rest" id="rest-L39F2">
									<use xlink:href="#E4E7" x="19552" y="2744" height="720px" width="720px" />
								</g>
							</g>
						</g>
					</g>
					<g class="staff" id="staff-L31F1N1">
						<path d="M15162 3882 L20002 3882" stroke="#000000" stroke-width="13" />
						<path d="M15162 4062 L20002 4062" stroke="#000000" stroke-width="13" />
						<path d="M15162 4242 L20002 4242" stroke="#000000" stroke-width="13" />
						<path d="M15162 4422 L20002 4422" stroke="#000000" stroke-width="13" />
						<path d="M15162 4602 L20002 4602" stroke="#000000" stroke-width="13" />
						<g class="ledgerLines above">
							<path d="M17374 3702 L17653 3702" stroke="#000000" stroke-width="22" />
						</g>
						<g class="layer" id="layer-L31F1N1">
							<g class="beam" id="beam-L32F1-L35F1">
								<polygon points="15396,4781 17423,4580 17423,4490 15396,4691 " />
								<polygon points="15396,4646 17423,4445 17423,4355 15396,4556 " />
								<g class="note" id="note-L32F1">
									<use xlink:href="#E0A4" x="15396" y="4062" height="720px" width="720px" />
									<g class="stem">
										<rect x="15396" y="4084" height="679" width="18" />
									</g>
									<g class="accid" id="accid-0000001221408220" />
								</g>
								<g class="rest" id="rest-L33F1">
									<use xlink:href="#E4E7" x="16060" y="4242" height="720px" width="720px" />
								</g>
								<g class="note" id="note-L34F1">
									<use xlink:href="#E0A4" x="16732" y="3972" height="720px" width="720px" />
									<g class="stem">
										<rect x="16732" y="3994" height="635" width="18" />
									</g>
									<g class="accid" id="accid-0000001298716563" />
								</g>
								<g class="note" id="note-L35F1">
									<use xlink:href="#E0A4" x="17405" y="3702" height="720px" width="720px" />
									<g class="stem">
										<rect x="17405" y="3724" height="838" width="18" />
									</g>
									<g class="accid" id="accid-0000000261810499" />
								</g>
							</g>
							<g class="beam" id="beam-L36F1-L39F1">
								<polygon points="18069,5136 19570,5249 19570,5159 18069,5046 " />
								<polygon points="18069,5001 19570,5114 19570,5024 18069,4911 " />
								<g class="note" id="note-L36F1">
									<use xlink:href="#E0A4" x="18069" y="3792" height="720px" width="720px" />
									<g class="stem">
										<rect x="18069" y="3814" height="1304" width="18" />
									</g>
									<g class="accid" id="accid-0000000968380745">
										<use xlink:href="#E260" x="17873" y="3792" height="720px" width="720px" />
									</g>
								</g>
								<g class="note" id="note-L37F1">
									<use xlink:href="#E0A4" x="18733" y="4512" height="720px" width="720px" />
									<g class="stem">
										<rect x="18733" y="4534" height="635" width="18" />
									</g>
									<g class="accid" id="accid-0000000596423838">
										<use xlink:href="#E260" x="18537" y="4512" height="720px" width="720px" />
									</g>
								</g>
								<g class="note" id="note-L38F1">
									<use xlink:href="#E0A4" x="19142" y="4512" height="720px" width="720px" />
									<g class="stem">
										<rect x="19142" y="4534" height="666" width="18" />
									</g>
									<g class="accid" id="accid-0000000958589678" />
								</g>
								<g class="note" id="note-L39F1">
									<use xlink:href="#E0A4" x="19552" y="3792" height="720px" width="720px" />
									<g class="stem">
										<rect x="19552" y="3814" height="1417" width="18" />
									</g>
									<g class="accid" id="accid-0000002106659867" />
								</g>
							</g>
						</g>
					</g>
					<g class="mNum autogenerated" id="mnum-0000001355069188" />
					<g class="barLineAttr" id="bline-0000001888570447">
						<path d="M19989 1440 L19989 720" stroke="#000000" stroke-width="27" />
						<path d="M19989 3104 L19989 2384" stroke="#000000" stroke-width="27" />
						<path d="M19989 4602 L19989 3882" stroke="#000000" stroke-width="27" />
					</g>
				</g>
			</g>
		</g>
	</svg>
</svg>
