<?xml version="1.0" encoding="UTF-8" standalone="no"?>
<svg width="2100.00px" height="250.00px" version="1.1" xmlns="http://www.w3.org/2000/svg" xmlns:xlink="http://www.w3.org/1999/xlink" overflow="visible">
	<desc>Engraved by Verovio 2.0.0-dev-0f0381c</desc>
	<defs>
		<symbol id="E062" viewBox="0 0 1000 1000" overflow="inherit">
			<path transform="scale(1,-1)" d="M158 96c51 0 73 -14 88 -49l16 -39c0 -17 -2 -30 -7 -40c-3 -11 -10 -21 -19 -31c-17 -18 -49 -43 -84 -43c-55 0 -77 13 -112 44c-24 21 -35 55 -35 100c0 46 14 81 32 112c30 52 71 79 137 93l36 6l26 2c154 0 235 -68 274 -182c11 -32 18 -68 18 -107 c0 -103 -26 -182 -68 -250c-89 -145 -234 -230 -412 -288l-30 -5c-9 0 -14 3 -14 8c3 10 5 11 10 16c35 15 70 30 96 44l78 43c96 57 162 136 197 258c9 33 17 60 22 100c3 22 5 35 6 39c-7 69 -16 115 -23 140s-4 22 -16 40c-8 12 -19 23 -31 34c-24 21 -62 44 -118 44 c-48 0 -84 -8 -113 -28c-28 -19 -42 -44 -42 -73v-16c2 -5 3 -9 4 -11c24 22 52 39 84 39zM585 -118c0 32 23 58 57 58c18 0 33 -6 40 -18c9 -15 16 -18 16 -40c0 -9 -2 -16 -5 -21c-6 -19 -27 -37 -51 -37c-34 0 -57 26 -57 58zM642 177c31 0 56 -27 56 -58 c0 -30 -25 -58 -56 -58l-23 3c-19 7 -34 32 -34 55l3 23c9 20 28 35 54 35z" />
		</symbol>
		<symbol id="E082" viewBox="0 0 1000 1000" overflow="inherit">
			<path transform="scale(1,-1)" d="M104 -185c-18 0 -55 -14 -65 -65h-36l-3 29c0 25 6 46 18 64c11 19 22 30 39 43l121 82l37 29c15 11 27 29 38 54c12 24 18 47 18 70c0 40 -19 88 -94 88c-25 0 -32 0 -50 -8c-14 -5 -23 -12 -26 -22c3 -9 7 -15 10 -18l24 -17c12 -7 17 -11 27 -21c5 -7 7 -16 7 -27 c0 -12 0 -57 -79 -74c-30 0 -76 26 -76 94c0 66 80 135 196 135c72 0 182 -32 182 -150c0 -53 -32 -95 -113 -133l-91 -41c-26 -11 -45 -23 -57 -37l49 7c84 0 115 -41 148 -41c20 0 33 20 39 61h35c0 -152 -68 -168 -114 -168c-17 0 -55 0 -69 7v0l-28 17 c-49 37 -69 40 -87 42z" />
		</symbol>
		<symbol id="E084" viewBox="0 0 1000 1000" overflow="inherit">
			<path transform="scale(1,-1)" d="M0 -78c84 97 114 180 134 329h170c-13 -32 -82 -132 -99 -151l-84 -97c-33 -36 -59 -63 -80 -81h162v102l127 123v-225h57v-39h-57v-34c0 -43 19 -65 57 -65v-34h-244v36c48 0 60 26 60 70v27h-203v39z" />
		</symbol>
		<symbol id="E0A4" viewBox="0 0 1000 1000" overflow="inherit">
			<path transform="scale(1,-1)" d="M0 -39c0 68 73 172 200 172c66 0 114 -37 114 -95c0 -84 -106 -171 -218 -171c-64 0 -96 30 -96 94z" />
		</symbol>
		<symbol id="E262" viewBox="0 0 1000 1000" overflow="inherit">
			<path transform="scale(1,-1)" d="M136 186v169h17v-164l44 14v-91l-44 -14v-165l44 12v-91l-44 -13v-155h-17v150l-76 -22v-155h-17v149l-43 -13v90l43 14v167l-43 -14v92l43 13v169h17v-163zM60 73v-167l76 22v168z" />
		</symbol>
	</defs>
	<style type="text/css">g.page-margin{font-family:Times;} g.tempo{font-weight:bold;} g.dir, g.dynam, g.mNum{font-style:italic;} g.label{font-weight:normal;}</style>
	<svg class="definition-scale" viewBox="0 0 21000 2500">
		<g class="page-margin" transform="translate(500, 500)">
			<g class="system" id="system-0000000295526221">
				<g class="section boundaryStart" id="section-L1F1" />
				<g class="measure" id="measure-L4">
					<g class="staff" id="staff-L4F1N1">
						<path d="M0 720 L3843 720" stroke="#000000" stroke-width="13" />
						<path d="M0 900 L3843 900" stroke="#000000" stroke-width="13" />
						<path d="M0 1080 L3843 1080" stroke="#000000" stroke-width="13" />
						<path d="M0 1260 L3843 1260" stroke="#000000" stroke-width="13" />
						<path d="M0 1440 L3843 1440" stroke="#000000" stroke-width="13" />
						<g class="clef" id="clef-0000001463998431">
							<use xlink:href="#E062" x="88" y="900" height="720px" width="720px" />
						</g>
						<g class="meterSig" id="msig-0000001701486138">
							<use xlink:href="#E082" x="769" y="900" height="720px" width="720px" />
							<use xlink:href="#E084" x="775" y="1260" height="720px" width="720px" />
						</g>
						<g class="ledgerLines above">
							<path d="M3323 540 L3602 540" stroke="#000000" stroke-width="22" />
						</g>
						<g class="layer" id="layer-L4F1N1">
							<g class="note" id="note-L5F1">
								<use xlink:href="#E0A4" x="1545" y="900" height="720px" width="720px" />
								<g class="stem">
									<rect x="1545" y="922" height="608" width="18" />
								</g>
								<g class="accid" id="accid-0000001851307893">
									<use xlink:href="#E262" x="1350" y="900" height="720px" width="720px" />
								</g>
							</g>
							<g class="beam" id="beam-L6F1-L8F1">
								<polygon points="2274,1809 3372,1701 3372,1611 2274,1719 " />
								<polygon points="2274,1674 2823,1620 2823,1530 2274,1584 " />
								<g class="note" id="note-L6F1">
									<use xlink:href="#E0A4" x="2274" y="900" height="720px" width="720px" />
									<g class="stem">
										<rect x="2274" y="922" height="869" width="18" />
									</g>
									<g class="accid" id="accid-0000002088370077" />
								</g>
								<g class="note" id="note-L7F1">
									<use xlink:href="#E0A4" x="2814" y="1080" height="720px" width="720px" />
									<g class="stem">
										<rect x="2814" y="1102" height="635" width="18" />
									</g>
									<g class="accid" id="accid-0000001616955913">
										<use xlink:href="#E262" x="2619" y="1080" height="720px" width="720px" />
									</g>
								</g>
								<g class="note" id="note-L8F1">
									<use xlink:href="#E0A4" x="3354" y="540" height="720px" width="720px" />
									<g class="stem">
										<rect x="3354" y="562" height="1121" width="18" />
									</g>
									<g class="accid" id="accid-0000000689415149">
										<use xlink:href="#E262" x="3159" y="540" height="720px" width="720px" />
									</g>
								</g>
							</g>
						</g>
					</g>
					<g class="tie" id="tie-L5F1-L6F1">
						<path d="M1793,855 C1907,713 2135,713 2252,855 C2135,757 1907,757 1793,855" stroke="#000000" stroke-linecap="round" stroke-linejoin="round" stroke-width="9" />
					</g>
					<g class="tie" id="tie-L8F1-L10F1">
						<path d="M3602,495 C3704,353 3908,353 4012,495 C3908,397 3704,397 3602,495" stroke="#000000" stroke-linecap="round" stroke-linejoin="round" stroke-width="9" />
					</g>
					<g class="mNum autogenerated" id="mnum-0000000044818949" />
					<g class="barLineAttr" id="bline-0000000545426024">
						<path d="M3830 1440 L3830 720" stroke="#000000" stroke-width="27" />
					</g>
				</g>
				<g class="measure" id="measure-L9">
					<g class="staff" id="staff-L9F1N1">
						<path d="M3843 720 L7154 720" stroke="#000000" stroke-width="13" />
						<path d="M3843 900 L7154 900" stroke="#000000" stroke-width="13" />
						<path d="M3843 1080 L7154 1080" stroke="#000000" stroke-width="13" />
						<path d="M3843 1260 L7154 1260" stroke="#000000" stroke-width="13" />
						<path d="M3843 1440 L7154 1440" stroke="#000000" stroke-width="13" />
						<g class="ledgerLines above">
							<path d="M4003 540 L4282 540" stroke="#000000" stroke-width="22" />
							<path d="M5083 540 L5362 540" stroke="#000000" stroke-width="22" />
							<path d="M6497 540 L6776 540" stroke="#000000" stroke-width="22" />
						</g>
						<g class="layer" id="layer-L9F1N1">
							<g class="beam" id="beam-L10F1-L13F1">
								<polygon points="4034,1341 5672,1503 5672,1413 4034,1251 " />
								<polygon points="4034,1206 5672,1368 5672,1278 4034,1116 " />
								<g class="note" id="note-L10F1">
									<use xlink:href="#E0A4" x="4034" y="540" height="720px" width="720px" />
									<g class="stem">
										<rect x="4034" y="562" height="761" width="18" />
									</g>
									<g class="accid" id="accid-0000001532207908" />
								</g>
								<g class="note" id="note-L11F1">
									<use xlink:href="#E0A4" x="4574" y="720" height="720px" width="720px" />
									<g class="stem">
										<rect x="4574" y="742" height="635" width="18" />
									</g>
									<g class="accid" id="accid-0000000416156459">
										<use xlink:href="#E262" x="4379" y="720" height="720px" width="720px" />
									</g>
								</g>
								<g class="note" id="note-L12F1">
									<use xlink:href="#E0A4" x="5114" y="540" height="720px" width="720px" />
									<g class="stem">
										<rect x="5114" y="562" height="869" width="18" />
									</g>
									<g class="accid" id="accid-L12F1">
										<use xlink:href="#E262" x="4919" y="540" height="720px" width="720px" />
									</g>
								</g>
								<g class="note" id="note-L13F1">
									<use xlink:href="#E0A4" x="5654" y="810" height="720px" width="720px" />
									<g class="stem">
										<rect x="5654" y="832" height="653" width="18" />
									</g>
									<g class="accid" id="accid-0000001763396564">
										<use xlink:href="#E262" x="5459" y="810" height="720px" width="720px" />
									</g>
								</g>
							</g>
							<g class="beam" id="beam-L14F1-L15F1">
								<polygon points="6194,1575 6546,1541 6546,1451 6194,1485 " />
								<polygon points="6194,1440 6352,1425 6352,1335 6194,1350 " />
								<g class="note" id="note-L14F1">
									<use xlink:href="#E0A4" x="6194" y="900" height="720px" width="720px" />
									<g class="stem">
										<rect x="6194" y="922" height="635" width="18" />
									</g>
									<g class="accid" id="accid-0000001930232456">
										<use xlink:href="#E262" x="5999" y="900" height="720px" width="720px" />
									</g>
								</g>
								<g class="note" id="note-L15F1">
									<use xlink:href="#E0A4" x="6528" y="540" height="720px" width="720px" />
									<g class="dots" id="dots-0000000360275191">
										<ellipse cx="6844" cy="450" rx="36" ry="36" />
									</g>
									<g class="stem">
										<rect x="6528" y="562" height="961" width="18" />
									</g>
									<g class="accid" id="accid-0000001856266515" />
								</g>
							</g>
						</g>
					</g>
					<g class="mNum autogenerated" id="mnum-0000000898424206" />
					<g class="barLineAttr" id="bline-0000001920883333">
						<path d="M7141 1440 L7141 720" stroke="#000000" stroke-width="27" />
					</g>
				</g>
				<g class="measure" id="measure-L16">
					<g class="staff" id="staff-L16F1N1">
						<path d="M7154 720 L9230 720" stroke="#000000" stroke-width="13" />
						<path d="M7154 900 L9230 900" stroke="#000000" stroke-width="13" />
						<path d="M7154 1080 L9230 1080" stroke="#000000" stroke-width="13" />
						<path d="M7154 1260 L9230 1260" stroke="#000000" stroke-width="13" />
						<path d="M7154 1440 L9230 1440" stroke="#000000" stroke-width="13" />
						<g class="ledgerLines above">
							<path d="M8711 540 L8990 540" stroke="#000000" stroke-width="22" />
						</g>
						<g class="layer" id="layer-L16F1N1">
							<g class="note" id="note-L17F1">
								<use xlink:href="#E0A4" x="7345" y="900" height="720px" width="720px" />
								<g class="stem">
									<rect x="7345" y="922" height="608" width="18" />
								</g>
								<g class="accid" id="accid-0000000244318271" />
							</g>
							<g class="beam" id="beam-L18F1-L20F1">
								<polygon points="8074,1789 8760,1722 8760,1632 8074,1699 " />
								<polygon points="8074,1654 8417,1620 8417,1530 8074,1564 " />
								<g class="note" id="note-L18F1">
									<use xlink:href="#E0A4" x="8074" y="900" height="720px" width="720px" />
									<g class="stem">
										<rect x="8074" y="922" height="849" width="18" />
									</g>
									<g class="accid" id="accid-0000001883533088" />
								</g>
								<g class="note" id="note-L19F1">
									<use xlink:href="#E0A4" x="8408" y="1080" height="720px" width="720px" />
									<g class="stem">
										<rect x="8408" y="1102" height="635" width="18" />
									</g>
									<g class="accid" id="accid-0000000622743840" />
								</g>
								<g class="note" id="note-L20F1">
									<use xlink:href="#E0A4" x="8742" y="540" height="720px" width="720px" />
									<g class="stem">
										<rect x="8742" y="562" height="1142" width="18" />
									</g>
									<g class="accid" id="accid-0000000630032651" />
								</g>
							</g>
						</g>
					</g>
					<g class="tie" id="tie-L17F1-L18F1">
						<path d="M7593,855 C7707,713 7935,713 8052,855 C7935,757 7707,757 7593,855" stroke="#000000" stroke-linecap="round" stroke-linejoin="round" stroke-width="9" />
					</g>
					<g class="tie" id="tie-L20F1-L22F1">
						<path d="M8990,495 C9092,353 9296,353 9399,495 C9296,397 9092,397 8990,495" stroke="#000000" stroke-linecap="round" stroke-linejoin="round" stroke-width="9" />
					</g>
					<g class="mNum autogenerated" id="mnum-0000001871575690" />
					<g class="barLineAttr" id="bline-0000001963559708">
						<path d="M9217 1440 L9217 720" stroke="#000000" stroke-width="27" />
					</g>
				</g>
				<g class="measure" id="measure-L21">
					<g class="staff" id="staff-L21F1N1">
						<path d="M9230 720 L11922 720" stroke="#000000" stroke-width="13" />
						<path d="M9230 900 L11922 900" stroke="#000000" stroke-width="13" />
						<path d="M9230 1080 L11922 1080" stroke="#000000" stroke-width="13" />
						<path d="M9230 1260 L11922 1260" stroke="#000000" stroke-width="13" />
						<path d="M9230 1440 L11922 1440" stroke="#000000" stroke-width="13" />
						<g class="ledgerLines above">
							<path d="M9390 540 L9669 540" stroke="#000000" stroke-width="22" />
							<path d="M10058 540 L10337 540" stroke="#000000" stroke-width="22" />
							<path d="M11266 540 L11545 540" stroke="#000000" stroke-width="22" />
						</g>
						<g class="layer" id="layer-L21F1N1">
							<g class="beam" id="beam-L22F1-L25F1">
								<polygon points="9421,1294 10441,1395 10441,1305 9421,1204 " />
								<polygon points="9421,1159 10441,1260 10441,1170 9421,1069 " />
								<g class="note" id="note-L22F1">
									<use xlink:href="#E0A4" x="9421" y="540" height="720px" width="720px" />
									<g class="stem">
										<rect x="9421" y="562" height="714" width="18" />
									</g>
									<g class="accid" id="accid-0000000090548654" />
								</g>
								<g class="note" id="note-L23F1">
									<use xlink:href="#E0A4" x="9755" y="630" height="720px" width="720px" />
									<g class="stem">
										<rect x="9755" y="652" height="658" width="18" />
									</g>
									<g class="accid" id="accid-0000001431299703" />
								</g>
								<g class="note" id="note-L24F1">
									<use xlink:href="#E0A4" x="10089" y="450" height="720px" width="720px" />
									<g class="stem">
										<rect x="10089" y="472" height="871" width="18" />
									</g>
									<g class="accid" id="accid-0000000220311988" />
								</g>
								<g class="note" id="note-L25F1">
									<use xlink:href="#E0A4" x="10423" y="720" height="720px" width="720px" />
									<g class="stem">
										<rect x="10423" y="742" height="635" width="18" />
									</g>
									<g class="accid" id="accid-0000001294811915" />
								</g>
							</g>
							<g class="beam" id="beam-L26F1-L27F1">
								<polygon points="10963,1575 11315,1541 11315,1451 10963,1485 " />
								<polygon points="10963,1440 11121,1425 11121,1335 10963,1350 " />
								<g class="note" id="note-L26F1">
									<use xlink:href="#E0A4" x="10963" y="900" height="720px" width="720px" />
									<g class="stem">
										<rect x="10963" y="922" height="635" width="18" />
									</g>
									<g class="accid" id="accid-0000000462875017">
										<use xlink:href="#E262" x="10768" y="900" height="720px" width="720px" />
									</g>
								</g>
								<g class="note" id="note-L27F1">
									<use xlink:href="#E0A4" x="11297" y="450" height="720px" width="720px" />
									<g class="dots" id="dots-0000000465050292">
										<ellipse cx="11613" cy="450" rx="36" ry="36" />
									</g>
									<g class="stem">
										<rect x="11297" y="472" height="1051" width="18" />
									</g>
									<g class="accid" id="accid-0000001981935148" />
								</g>
							</g>
						</g>
					</g>
					<g class="mNum autogenerated" id="mnum-0000001299485688" />
					<g class="barLineAttr" id="bline-0000001170257430">
						<path d="M11909 1440 L11909 720" stroke="#000000" stroke-width="27" />
					</g>
				</g>
				<g class="measure" id="measure-L28">
					<g class="staff" id="staff-L28F1N1">
						<path d="M11922 720 L14617 720" stroke="#000000" stroke-width="13" />
						<path d="M11922 900 L14617 900" stroke="#000000" stroke-width="13" />
						<path d="M11922 1080 L14617 1080" stroke="#000000" stroke-width="13" />
						<path d="M11922 1260 L14617 1260" stroke="#000000" stroke-width="13" />
						<path d="M11922 1440 L14617 1440" stroke="#000000" stroke-width="13" />
						<g class="ledgerLines above">
							<path d="M14097 540 L14376 540" stroke="#000000" stroke-width="22" />
						</g>
						<g class="layer" id="layer-L28F1N1">
							<g class="note" id="note-L29F1">
								<use xlink:href="#E0A4" x="12319" y="900" height="720px" width="720px" />
								<g class="stem">
									<rect x="12319" y="922" height="608" width="18" />
								</g>
								<g class="accid" id="accid-0000000494098194">
									<use xlink:href="#E262" x="12124" y="900" height="720px" width="720px" />
								</g>
							</g>
							<g class="beam" id="beam-L30F1-L32F1">
								<polygon points="13048,1809 14146,1701 14146,1611 13048,1719 " />
								<polygon points="13048,1674 13597,1620 13597,1530 13048,1584 " />
								<g class="note" id="note-L30F1">
									<use xlink:href="#E0A4" x="13048" y="900" height="720px" width="720px" />
									<g class="stem">
										<rect x="13048" y="922" height="869" width="18" />
									</g>
									<g class="accid" id="accid-0000000157526587" />
								</g>
								<g class="note" id="note-L31F1">
									<use xlink:href="#E0A4" x="13588" y="1080" height="720px" width="720px" />
									<g class="stem">
										<rect x="13588" y="1102" height="635" width="18" />
									</g>
									<g class="accid" id="accid-0000001777519557">
										<use xlink:href="#E262" x="13393" y="1080" height="720px" width="720px" />
									</g>
								</g>
								<g class="note" id="note-L32F1">
									<use xlink:href="#E0A4" x="14128" y="540" height="720px" width="720px" />
									<g class="stem">
										<rect x="14128" y="562" height="1121" width="18" />
									</g>
									<g class="accid" id="accid-0000001952064163">
										<use xlink:href="#E262" x="13933" y="540" height="720px" width="720px" />
									</g>
								</g>
							</g>
						</g>
					</g>
					<g class="tie" id="tie-L29F1-L30F1">
						<path d="M12567,855 C12681,713 12909,713 13026,855 C12909,757 12681,757 12567,855" stroke="#000000" stroke-linecap="round" stroke-linejoin="round" stroke-width="9" />
					</g>
					<g class="tie" id="tie-L32F1-L34F1">
						<path d="M14376,495 C14478,353 14682,353 14786,495 C14682,397 14478,397 14376,495" stroke="#000000" stroke-linecap="round" stroke-linejoin="round" stroke-width="9" />
					</g>
					<g class="mNum autogenerated" id="mnum-0000000264614281" />
					<g class="barLineAttr" id="bline-0000001369351570">
						<path d="M14604 1440 L14604 720" stroke="#000000" stroke-width="27" />
					</g>
				</g>
				<g class="measure" id="measure-L33">
					<g class="staff" id="staff-L33F1N1">
						<path d="M14617 720 L17928 720" stroke="#000000" stroke-width="13" />
						<path d="M14617 900 L17928 900" stroke="#000000" stroke-width="13" />
						<path d="M14617 1080 L17928 1080" stroke="#000000" stroke-width="13" />
						<path d="M14617 1260 L17928 1260" stroke="#000000" stroke-width="13" />
						<path d="M14617 1440 L17928 1440" stroke="#000000" stroke-width="13" />
						<g class="ledgerLines above">
							<path d="M14777 540 L15056 540" stroke="#000000" stroke-width="22" />
							<path d="M15857 540 L16136 540" stroke="#000000" stroke-width="22" />
							<path d="M17271 540 L17550 540" stroke="#000000" stroke-width="22" />
						</g>
						<g class="layer" id="layer-L33F1N1">
							<g class="beam" id="beam-L34F1-L37F1">
								<polygon points="14808,1341 16446,1503 16446,1413 14808,1251 " />
								<polygon points="14808,1206 16446,1368 16446,1278 14808,1116 " />
								<g class="note" id="note-L34F1">
									<use xlink:href="#E0A4" x="14808" y="540" height="720px" width="720px" />
									<g class="stem">
										<rect x="14808" y="562" height="761" width="18" />
									</g>
									<g class="accid" id="accid-0000001167677681" />
								</g>
								<g class="note" id="note-L35F1">
									<use xlink:href="#E0A4" x="15348" y="720" height="720px" width="720px" />
									<g class="stem">
										<rect x="15348" y="742" height="635" width="18" />
									</g>
									<g class="accid" id="accid-0000000908131436">
										<use xlink:href="#E262" x="15153" y="720" height="720px" width="720px" />
									</g>
								</g>
								<g class="note" id="note-L36F1">
									<use xlink:href="#E0A4" x="15888" y="540" height="720px" width="720px" />
									<g class="stem">
										<rect x="15888" y="562" height="869" width="18" />
									</g>
									<g class="accid" id="accid-L36F1">
										<use xlink:href="#E262" x="15693" y="540" height="720px" width="720px" />
									</g>
								</g>
								<g class="note" id="note-L37F1">
									<use xlink:href="#E0A4" x="16428" y="810" height="720px" width="720px" />
									<g class="stem">
										<rect x="16428" y="832" height="653" width="18" />
									</g>
									<g class="accid" id="accid-0000001986919394">
										<use xlink:href="#E262" x="16233" y="810" height="720px" width="720px" />
									</g>
								</g>
							</g>
							<g class="beam" id="beam-L38F1-L39F1">
								<polygon points="16968,1575 17320,1541 17320,1451 16968,1485 " />
								<polygon points="16968,1440 17126,1425 17126,1335 16968,1350 " />
								<g class="note" id="note-L38F1">
									<use xlink:href="#E0A4" x="16968" y="900" height="720px" width="720px" />
									<g class="stem">
										<rect x="16968" y="922" height="635" width="18" />
									</g>
									<g class="accid" id="accid-0000001887488166">
										<use xlink:href="#E262" x="16773" y="900" height="720px" width="720px" />
									</g>
								</g>
								<g class="note" id="note-L39F1">
									<use xlink:href="#E0A4" x="17302" y="540" height="720px" width="720px" />
									<g class="dots" id="dots-0000000256121289">
										<ellipse cx="17618" cy="450" rx="36" ry="36" />
									</g>
									<g class="stem">
										<rect x="17302" y="562" height="961" width="18" />
									</g>
									<g class="accid" id="accid-0000001078125688" />
								</g>
							</g>
						</g>
					</g>
					<g class="mNum autogenerated" id="mnum-0000000502155250" />
					<g class="barLineAttr" id="bline-0000001941333053">
						<path d="M17915 1440 L17915 720" stroke="#000000" stroke-width="27" />
					</g>
				</g>
				<g class="measure" id="measure-L40">
					<g class="staff" id="staff-L40F1N1">
						<path d="M17928 720 L20004 720" stroke="#000000" stroke-width="13" />
						<path d="M17928 900 L20004 900" stroke="#000000" stroke-width="13" />
						<path d="M17928 1080 L20004 1080" stroke="#000000" stroke-width="13" />
						<path d="M17928 1260 L20004 1260" stroke="#000000" stroke-width="13" />
						<path d="M17928 1440 L20004 1440" stroke="#000000" stroke-width="13" />
						<g class="ledgerLines above">
							<path d="M19485 540 L19764 540" stroke="#000000" stroke-width="22" />
						</g>
						<g class="layer" id="layer-L40F1N1">
							<g class="note" id="note-L41F1">
								<use xlink:href="#E0A4" x="18119" y="900" height="720px" width="720px" />
								<g class="stem">
									<rect x="18119" y="922" height="608" width="18" />
								</g>
								<g class="accid" id="accid-0000001034125501" />
							</g>
							<g class="beam" id="beam-L42F1-L44F1">
								<polygon points="18848,1789 19534,1722 19534,1632 18848,1699 " />
								<polygon points="18848,1654 19191,1620 19191,1530 18848,1564 " />
								<g class="note" id="note-L42F1">
									<use xlink:href="#E0A4" x="18848" y="900" height="720px" width="720px" />
									<g class="stem">
										<rect x="18848" y="922" height="849" width="18" />
									</g>
									<g class="accid" id="accid-0000000801451969" />
								</g>
								<g class="note" id="note-L43F1">
									<use xlink:href="#E0A4" x="19182" y="1080" height="720px" width="720px" />
									<g class="stem">
										<rect x="19182" y="1102" height="635" width="18" />
									</g>
									<g class="accid" id="accid-0000000655509588" />
								</g>
								<g class="note" id="note-L44F1">
									<use xlink:href="#E0A4" x="19516" y="540" height="720px" width="720px" />
									<g class="stem">
										<rect x="19516" y="562" height="1142" width="18" />
									</g>
									<g class="accid" id="accid-0000000670354605" />
								</g>
							</g>
						</g>
					</g>
					<g class="tie" id="tie-L41F1-L42F1">
						<path d="M18367,855 C18481,713 18709,713 18826,855 C18709,757 18481,757 18367,855" stroke="#000000" stroke-linecap="round" stroke-linejoin="round" stroke-width="9" />
					</g>
					<g class="tie" id="tie-L44F1-L46F1">
						<path d="M19629,405 C19719,263 19899,263 19991,405 C19899,307 19719,307 19629,405" stroke="#000000" stroke-linecap="round" stroke-linejoin="round" stroke-width="9" />
					</g>
					<g class="mNum autogenerated" id="mnum-0000001910140920" />
					<g class="barLineAttr" id="bline-0000001929567136">
						<path d="M19991 1440 L19991 720" stroke="#000000" stroke-width="27" />
					</g>
				</g>
			</g>
		</g>
	</svg>
</svg>
