<?xml version="1.0" encoding="UTF-8" standalone="no"?>
<svg width="2100.00px" height="600.00px" version="1.1" xmlns="http://www.w3.org/2000/svg" xmlns:xlink="http://www.w3.org/1999/xlink" overflow="visible">
	<desc>Engraved by Verovio 2.0.0-dev-0f0381c</desc>
	<defs>
		<symbol id="E003" viewBox="0 0 1000 1000" overflow="inherit">
			<path transform="scale(1,-1)" d="M0 -0c49 0 97.5 -2.26367 135.5 4.73633c206 95 258.5 264.264 263.5 271.264c0 1 -14 7 -15 6c-88 -154 -251 -167 -321 -170c-1 0 -63 -1 -63 -1v-111z" />
		</symbol>
		<symbol id="E004" viewBox="0 0 1000 1000" overflow="inherit">
			<path transform="scale(1,-1)" d="M0 0c49 0 97.5 2.26367 135.5 -4.73633c206 -95 258.5 -264.264 263.5 -271.264c0 -1 -14 -7 -15 -6c-88 154 -251 167 -321 170c-1 0 -63 1 -63 1v111z" />
		</symbol>
		<symbol id="E050" viewBox="0 0 1000 1000" overflow="inherit">
			<path transform="scale(1,-1)" d="M441 -245c-23 -4 -48 -6 -76 -6c-59 0 -102 7 -130 20c-88 42 -150 93 -187 154c-26 44 -43 103 -48 176c-4 60 11 123 44 189c29 57 65 106 110 148s96 85 153 127c-3 16 -8 46 -13 92c-4 43 -5 73 -5 89c0 117 16 172 69 257c34 54 64 82 89 82c21 0 43 -30 69 -92 s39 -115 41 -159c2 -120 -19 -173 -67 -256c-13 -20 -63 -90 -98 -118c-13 -9 -25 -19 -37 -29l31 -181c8 1 18 2 28 2c58 0 102 -12 133 -35c59 -43 92 -104 98 -184c11 -135 -80 -229 -180 -270c8 -57 17 -110 25 -162c5 -31 6 -58 6 -80c0 -30 -5 -53 -14 -70 c-35 -64 -88 -99 -158 -103c-42 -3 -83 6 -124 26c-50 24 -77 59 -80 105c-2 34 5 63 20 87c18 28 45 42 79 44c51 4 99 -40 103 -87c4 -56 -30 -94 -105 -115c17 -24 51 -36 102 -36c62 0 116 43 140 85c9 16 13 41 13 74c0 20 -1 42 -5 67c-8 53 -18 106 -26 159zM461 939 c-95 0 -135 -175 -135 -286c0 -24 2 -48 5 -71c50 39 92 82 127 128c43 57 63 106 60 148c-4 54 -23 82 -57 81zM406 119l54 -326c80 27 116 88 109 184c-7 99 -62 146 -163 142zM382 117c-74 -2 -132 -50 -128 -127c2 -46 43 -99 75 -115c-3 -2 -7 -5 -10 -10 c-70 33 -116 88 -123 172c-5 73 42 135 88 170c23 17 49 29 78 36l-29 170c-21 -13 -52 -37 -92 -73c-50 -44 -86 -84 -109 -119c-49 -75 -71 -140 -67 -195c5 -68 35 -127 93 -176s125 -73 203 -73c25 0 50 3 75 9c-19 111 -36 221 -54 331z" />
		</symbol>
		<symbol id="E082" viewBox="0 0 1000 1000" overflow="inherit">
			<path transform="scale(1,-1)" d="M104 -185c-18 0 -55 -14 -65 -65h-36l-3 29c0 25 6 46 18 64c11 19 22 30 39 43l121 82l37 29c15 11 27 29 38 54c12 24 18 47 18 70c0 40 -19 88 -94 88c-25 0 -32 0 -50 -8c-14 -5 -23 -12 -26 -22c3 -9 7 -15 10 -18l24 -17c12 -7 17 -11 27 -21c5 -7 7 -16 7 -27 c0 -12 0 -57 -79 -74c-30 0 -76 26 -76 94c0 66 80 135 196 135c72 0 182 -32 182 -150c0 -53 -32 -95 -113 -133l-91 -41c-26 -11 -45 -23 -57 -37l49 7c84 0 115 -41 148 -41c20 0 33 20 39 61h35c0 -152 -68 -168 -114 -168c-17 0 -55 0 -69 7v0l-28 17 c-49 37 -69 40 -87 42z" />
		</symbol>
		<symbol id="E084" viewBox="0 0 1000 1000" overflow="inherit">
			<path transform="scale(1,-1)" d="M0 -78c84 97 114 180 134 329h170c-13 -32 -82 -132 -99 -151l-84 -97c-33 -36 -59 -63 -80 -81h162v102l127 123v-225h57v-39h-57v-34c0 -43 19 -65 57 -65v-34h-244v36c48 0 60 26 60 70v27h-203v39z" />
		</symbol>
		<symbol id="E0A4" viewBox="0 0 1000 1000" overflow="inherit">
			<path transform="scale(1,-1)" d="M0 -39c0 68 73 172 200 172c66 0 114 -37 114 -95c0 -84 -106 -171 -218 -171c-64 0 -96 30 -96 94z" />
		</symbol>
		<symbol id="E262" viewBox="0 0 1000 1000" overflow="inherit">
			<path transform="scale(1,-1)" d="M136 186v169h17v-164l44 14v-91l-44 -14v-165l44 12v-91l-44 -13v-155h-17v150l-76 -22v-155h-17v149l-43 -13v90l43 14v167l-43 -14v92l43 13v169h17v-163zM60 73v-167l76 22v168z" />
		</symbol>
		<symbol id="E4E7" viewBox="0 0 1000 1000" overflow="inherit">
			<path transform="scale(1,-1)" d="M133 -111c-16 38 -21 43 -64 51c-37 -4 -60 -25 -68 -60c0 -32 18 -52 55 -58c8 -6 22 -10 43 -10c31 0 62 7 82 20l-108 -324h37c72 220 143 439 215 659h-4l-10 -2l-7 -1c-15 -35 -27 -52 -59 -71c-26 -15 -56 -27 -88 -29c-11 0 -20 2 -26 6c29 3 56 25 51 56 c-15 35 -19 42 -64 48c-38 -4 -60 -23 -68 -58c0 -32 18 -52 55 -59c7 -5 22 -8 45 -8c48 0 76 7 112 25l-66 -197c-21 -23 -50 -47 -90 -47c-7 0 -15 1 -25 4c31 5 52 22 52 55z" />
		</symbol>
		<symbol id="E4E5" viewBox="0 0 1000 1000" overflow="inherit">
			<path transform="scale(1,-1)" d="M107 292c-13 24 -30 49 -52 71c-1 1 0 2 0 3l-2 2c3 3 4 4 6 4c12 0 26 -7 40 -20s44 -40 89 -81c26 -24 28 -29 46 -47c4 -4 8 -9 10 -14c6 -8 8 -16 8 -27c0 -19 -12 -40 -36 -61c-28 -23 -49 -38 -61 -73c-4 -11 -7 -27 -10 -50c13 -43 34 -83 59 -121 c31 -47 59 -79 101 -129c-8 0 -26 7 -54 20l-62 29l-21 6l-23 1c-25 0 -45 -10 -60 -30l-4 -14l-1 -12c0 -33 20 -56 39 -78c8 -9 17 -18 26 -26c17 -15 27 -24 28 -30l-3 -3c-11 5 -19 10 -25 15c-9 3 -37 21 -45 26c-24 14 -45 32 -63 51c-19 21 -37 44 -37 71 c0 63 27 95 80 95c41 0 86 -18 136 -52c-19 26 -37 48 -55 66c-23 23 -48 44 -73 65c-28 23 -47 40 -58 53s-17 26 -18 39c75 64 113 125 113 183c0 27 -7 48 -18 68z" />
		</symbol>
		<symbol id="E062" viewBox="0 0 1000 1000" overflow="inherit">
			<path transform="scale(1,-1)" d="M158 96c51 0 73 -14 88 -49l16 -39c0 -17 -2 -30 -7 -40c-3 -11 -10 -21 -19 -31c-17 -18 -49 -43 -84 -43c-55 0 -77 13 -112 44c-24 21 -35 55 -35 100c0 46 14 81 32 112c30 52 71 79 137 93l36 6l26 2c154 0 235 -68 274 -182c11 -32 18 -68 18 -107 c0 -103 -26 -182 -68 -250c-89 -145 -234 -230 -412 -288l-30 -5c-9 0 -14 3 -14 8c3 10 5 11 10 16c35 15 70 30 96 44l78 43c96 57 162 136 197 258c9 33 17 60 22 100c3 22 5 35 6 39c-7 69 -16 115 -23 140s-4 22 -16 40c-8 12 -19 23 -31 34c-24 21 -62 44 -118 44 c-48 0 -84 -8 -113 -28c-28 -19 -42 -44 -42 -73v-16c2 -5 3 -9 4 -11c24 22 52 39 84 39zM585 -118c0 32 23 58 57 58c18 0 33 -6 40 -18c9 -15 16 -18 16 -40c0 -9 -2 -16 -5 -21c-6 -19 -27 -37 -51 -37c-34 0 -57 26 -57 58zM642 177c31 0 56 -27 56 -58 c0 -30 -25 -58 -56 -58l-23 3c-19 7 -34 32 -34 55l3 23c9 20 28 35 54 35z" />
		</symbol>
		<symbol id="E4E6" viewBox="0 0 1000 1000" overflow="inherit">
			<path transform="scale(1,-1)" d="M0 123c7 34 33 56 69 60c29 -3 43 -9 53 -29c4 -8 7 -15 10 -22c0 -21 -1 -25 -11 -35c-5 -8 -18 -14 -40 -20l12 -3l15 -1c44 0 97 26 122 56c10 11 18 26 24 42c7 1 15 2 22 3l-140 -424h-36l111 330c-10 -6 -27 -12 -53 -16l-52 -8h-10l-20 1c-1 0 -8 3 -21 6 c-37 9 -55 28 -55 60z" />
		</symbol>
		<symbol id="E260" viewBox="0 0 1000 1000" overflow="inherit">
			<path transform="scale(1,-1)" d="M20 110c32 16 54 27 93 27c26 0 35 -3 54 -13c13 -7 24 -20 27 -38l4 -25c0 -28 -16 -57 -45 -89c-23 -25 -39 -44 -65 -68l-88 -79v644h20v-359zM90 106c-32 0 -48 -10 -70 -29v-194c31 31 54 59 71 84c21 32 32 59 32 84c0 9 1 16 1 20c0 14 -3 21 -11 30l-8 3z" />
		</symbol>
	</defs>
	<style type="text/css">g.page-margin{font-family:Times;} g.tempo{font-weight:bold;} g.dir, g.dynam, g.mNum{font-style:italic;} g.label{font-weight:normal;}</style>
	<svg class="definition-scale" viewBox="0 0 21000 6000">
		<g class="page-margin" transform="translate(500, 500)">
			<g class="system" id="system-0000000258497726">
				<path d="M13 720 L13 4393" stroke="#000000" stroke-width="27" />
				<use xlink:href="#E003" x="-167" y="720" height="720px" width="720px" />
				<use xlink:href="#E004" x="-167" y="4393" height="720px" width="720px" />
				<rect x="-167" y="702" height="3709" width="90" />
				<g class="section boundaryStart" id="section-L1F1" />
				<g class="measure" id="measure-L4">
					<g class="staff" id="staff-L4F3N1">
						<path d="M0 720 L5143 720" stroke="#000000" stroke-width="13" />
						<path d="M0 900 L5143 900" stroke="#000000" stroke-width="13" />
						<path d="M0 1080 L5143 1080" stroke="#000000" stroke-width="13" />
						<path d="M0 1260 L5143 1260" stroke="#000000" stroke-width="13" />
						<path d="M0 1440 L5143 1440" stroke="#000000" stroke-width="13" />
						<g class="clef" id="clef-0000001788078207">
							<use xlink:href="#E050" x="90" y="1260" height="720px" width="720px" />
						</g>
						<g class="meterSig" id="msig-0000000344268931">
							<use xlink:href="#E082" x="771" y="900" height="720px" width="720px" />
							<use xlink:href="#E084" x="777" y="1260" height="720px" width="720px" />
						</g>
						<g class="layer" id="layer-L4F3N1">
							<g class="beam" id="beam-L5F3-L8F3">
								<polygon points="1573,1845 2888,1819 2888,1729 1573,1755 " />
								<polygon points="1573,1710 2888,1684 2888,1594 1573,1620 " />
								<g class="note" id="note-L5F3">
									<use xlink:href="#E0A4" x="1573" y="1170" height="720px" width="720px" />
									<g class="stem">
										<rect x="1573" y="1192" height="635" width="18" />
									</g>
									<g class="accid" id="accid-0000000380599035">
										<use xlink:href="#E262" x="1378" y="1170" height="720px" width="720px" />
									</g>
								</g>
								<g class="rest" id="rest-L6F3">
									<use xlink:href="#E4E7" x="1929" y="1080" height="720px" width="720px" />
								</g>
								<g class="note" id="note-L7F3">
									<use xlink:href="#E0A4" x="2513" y="990" height="720px" width="720px" />
									<g class="stem">
										<rect x="2513" y="1012" height="796" width="18" />
									</g>
									<g class="accid" id="accid-0000001005653123">
										<use xlink:href="#E262" x="2318" y="990" height="720px" width="720px" />
									</g>
								</g>
								<g class="rest" id="rest-L8F3">
									<use xlink:href="#E4E7" x="2870" y="1080" height="720px" width="720px" />
								</g>
							</g>
							<g class="beam" id="beam-L9F3-L12F3">
								<polygon points="3442,397 4976,291 4976,381 3442,487 " />
								<polygon points="3442,532 4976,426 4976,516 3442,622 " />
								<g class="rest" id="rest-L9F3">
									<use xlink:href="#E4E7" x="3234" y="1080" height="720px" width="720px" />
								</g>
								<g class="note" id="note-L10F3">
									<use xlink:href="#E0A4" x="3818" y="1260" height="720px" width="720px" />
									<g class="stem">
										<rect x="4026" y="374" height="864" width="18" />
									</g>
									<g class="accid" id="accid-0000000291264098">
										<use xlink:href="#E262" x="3623" y="1260" height="720px" width="720px" />
									</g>
								</g>
								<g class="note" id="note-L11F3">
									<use xlink:href="#E0A4" x="4394" y="990" height="720px" width="720px" />
									<g class="stem">
										<rect x="4602" y="334" height="634" width="18" />
									</g>
									<g class="accid" id="accid-0000000464789357" />
								</g>
								<g class="rest" id="rest-L12F3">
									<use xlink:href="#E4E7" x="4750" y="1080" height="720px" width="720px" />
								</g>
							</g>
						</g>
					</g>
					<g class="staff" id="staff-L4F2N1">
						<path d="M0 2229 L5143 2229" stroke="#000000" stroke-width="13" />
						<path d="M0 2409 L5143 2409" stroke="#000000" stroke-width="13" />
						<path d="M0 2589 L5143 2589" stroke="#000000" stroke-width="13" />
						<path d="M0 2769 L5143 2769" stroke="#000000" stroke-width="13" />
						<path d="M0 2949 L5143 2949" stroke="#000000" stroke-width="13" />
						<g class="clef" id="clef-0000000806978299">
							<use xlink:href="#E050" x="90" y="2769" height="720px" width="720px" />
						</g>
						<g class="meterSig" id="msig-0000001525040488">
							<use xlink:href="#E082" x="771" y="2409" height="720px" width="720px" />
							<use xlink:href="#E084" x="777" y="2769" height="720px" width="720px" />
						</g>
						<g class="layer" id="layer-L4F2N1">
							<g class="rest" id="rest-L5F2">
								<use xlink:href="#E4E5" x="1573" y="2589" height="720px" width="720px" />
							</g>
							<g class="beam" id="beam-L9F2-L12F2">
								<polygon points="3442,2089 4976,2054 4976,2144 3442,2179 " />
								<polygon points="3442,2224 4976,2189 4976,2279 3442,2314 " />
								<g class="rest" id="rest-L9F2">
									<use xlink:href="#E4E7" x="3234" y="2589" height="720px" width="720px" />
								</g>
								<g class="note" id="note-L10F2">
									<use xlink:href="#E0A4" x="3818" y="3039" height="720px" width="720px" />
									<g class="stem">
										<rect x="4026" y="2094" height="923" width="18" />
									</g>
									<g class="accid" id="accid-0000000522295981">
										<use xlink:href="#E262" x="3623" y="3039" height="720px" width="720px" />
									</g>
								</g>
								<g class="note" id="note-L11F2">
									<use xlink:href="#E0A4" x="4394" y="2859" height="720px" width="720px" />
									<g class="stem">
										<rect x="4602" y="2080" height="757" width="18" />
									</g>
									<g class="accid" id="accid-0000000207887543">
										<use xlink:href="#E262" x="4199" y="2859" height="720px" width="720px" />
									</g>
								</g>
								<g class="rest" id="rest-L12F2">
									<use xlink:href="#E4E7" x="4750" y="2589" height="720px" width="720px" />
								</g>
							</g>
						</g>
					</g>
					<g class="staff" id="staff-L4F1N1">
						<path d="M0 3673 L5143 3673" stroke="#000000" stroke-width="13" />
						<path d="M0 3853 L5143 3853" stroke="#000000" stroke-width="13" />
						<path d="M0 4033 L5143 4033" stroke="#000000" stroke-width="13" />
						<path d="M0 4213 L5143 4213" stroke="#000000" stroke-width="13" />
						<path d="M0 4393 L5143 4393" stroke="#000000" stroke-width="13" />
						<g class="clef" id="clef-0000001138154871">
							<use xlink:href="#E062" x="90" y="3853" height="720px" width="720px" />
						</g>
						<g class="meterSig" id="msig-0000001332073068">
							<use xlink:href="#E082" x="771" y="3853" height="720px" width="720px" />
							<use xlink:href="#E084" x="777" y="4213" height="720px" width="720px" />
						</g>
						<g class="layer" id="layer-L4F1N1">
							<g class="beam" id="beam-L5F1-L6F1">
								<polygon points="1573,4529 1947,4565 1947,4475 1573,4439 " />
								<polygon points="1573,4394 1731,4409 1731,4319 1573,4304 " />
								<g class="note" id="note-L5F1">
									<use xlink:href="#E0A4" x="1573" y="3853" height="720px" width="720px" />
									<g class="stem">
										<rect x="1573" y="3875" height="636" width="18" />
									</g>
									<g class="accid" id="accid-0000000564843807">
										<use xlink:href="#E262" x="1378" y="3853" height="720px" width="720px" />
									</g>
								</g>
								<g class="rest" id="rest-L6F1">
									<use xlink:href="#E4E6" x="1929" y="4033" height="720px" width="720px" />
									<g class="dots" id="dots-0000000914200579">
										<ellipse cx="2217" cy="3943" rx="36" ry="36" />
									</g>
								</g>
							</g>
							<g class="beam" id="beam-L9F1-L12F1">
								<polygon points="3234,4888 4768,4794 4768,4704 3234,4798 " />
								<polygon points="3234,4753 4768,4659 4768,4569 3234,4663 " />
								<g class="rest" id="rest-L9F1">
									<use xlink:href="#E4E7" x="3234" y="4033" height="720px" width="720px" />
								</g>
								<g class="note" id="note-L10F1">
									<use xlink:href="#E0A4" x="3818" y="3763" height="720px" width="720px" />
									<g class="stem">
										<rect x="3818" y="3785" height="1049" width="18" />
									</g>
									<g class="accid" id="accid-0000001341667232">
										<use xlink:href="#E262" x="3623" y="3763" height="720px" width="720px" />
									</g>
								</g>
								<g class="note" id="note-L11F1">
									<use xlink:href="#E0A4" x="4394" y="3673" height="720px" width="720px" />
									<g class="stem">
										<rect x="4394" y="3695" height="1103" width="18" />
									</g>
									<g class="accid" id="accid-0000000260799588">
										<use xlink:href="#E262" x="4199" y="3673" height="720px" width="720px" />
									</g>
								</g>
								<g class="rest" id="rest-L12F1">
									<use xlink:href="#E4E7" x="4750" y="4033" height="720px" width="720px" />
								</g>
							</g>
						</g>
					</g>
					<g class="mNum autogenerated" id="mnum-0000001629122019" />
					<g class="barLineAttr" id="bline-0000001707725234">
						<path d="M5130 1440 L5130 720" stroke="#000000" stroke-width="27" />
						<path d="M5130 2949 L5130 2229" stroke="#000000" stroke-width="27" />
						<path d="M5130 4393 L5130 3673" stroke="#000000" stroke-width="27" />
					</g>
				</g>
				<g class="measure" id="measure-L13">
					<g class="staff" id="staff-L13F3N1">
						<path d="M5143 720 L9128 720" stroke="#000000" stroke-width="13" />
						<path d="M5143 900 L9128 900" stroke="#000000" stroke-width="13" />
						<path d="M5143 1080 L9128 1080" stroke="#000000" stroke-width="13" />
						<path d="M5143 1260 L9128 1260" stroke="#000000" stroke-width="13" />
						<path d="M5143 1440 L9128 1440" stroke="#000000" stroke-width="13" />
						<g class="layer" id="layer-L13F3N1">
							<g class="beam" id="beam-L14F3-L17F3">
								<polygon points="5554,560 7089,712 7089,802 5554,650 " />
								<polygon points="5554,695 7089,847 7089,937 5554,785 " />
								<g class="rest" id="rest-L14F3">
									<use xlink:href="#E4E7" x="5346" y="1080" height="720px" width="720px" />
								</g>
								<g class="note" id="note-L15F3">
									<use xlink:href="#E0A4" x="5930" y="1530" height="720px" width="720px" />
									<g class="stem">
										<rect x="6138" y="637" height="871" width="18" />
									</g>
									<g class="accid" id="accid-0000000397994740">
										<use xlink:href="#E262" x="5735" y="1530" height="720px" width="720px" />
									</g>
								</g>
								<g class="note" id="note-L16F3">
									<use xlink:href="#E0A4" x="6506" y="1350" height="720px" width="720px" />
									<g class="stem">
										<rect x="6714" y="694" height="634" width="18" />
									</g>
									<g class="accid" id="accid-0000001701267751">
										<use xlink:href="#E262" x="6311" y="1350" height="720px" width="720px" />
									</g>
								</g>
								<g class="note" id="note-L17F3">
									<use xlink:href="#E0A4" x="6863" y="1530" height="720px" width="720px" />
									<g class="stem">
										<rect x="7071" y="730" height="778" width="18" />
									</g>
									<g class="accid" id="accid-0000000012538940" />
								</g>
							</g>
							<g class="beam" id="beam-L18F3-L21F3">
								<polygon points="7655,269 8961,375 8961,465 7655,359 " />
								<polygon points="7655,404 8961,510 8961,600 7655,494 " />
								<g class="note" id="note-L18F3">
									<use xlink:href="#E0A4" x="7447" y="1170" height="720px" width="720px" />
									<g class="stem">
										<rect x="7655" y="287" height="861" width="18" />
									</g>
									<g class="accid" id="accid-0000001715161237">
										<use xlink:href="#E262" x="7252" y="1170" height="720px" width="720px" />
									</g>
								</g>
								<g class="note" id="note-L19F3">
									<use xlink:href="#E0A4" x="8023" y="990" height="720px" width="720px" />
									<g class="stem">
										<rect x="8231" y="334" height="634" width="18" />
									</g>
									<g class="accid" id="accid-0000000910268808">
										<use xlink:href="#E262" x="7828" y="990" height="720px" width="720px" />
									</g>
								</g>
								<g class="note" id="note-L20F3">
									<use xlink:href="#E0A4" x="8379" y="1170" height="720px" width="720px" />
									<g class="stem">
										<rect x="8587" y="364" height="784" width="18" />
									</g>
									<g class="accid" id="accid-0000001331518177" />
								</g>
								<g class="rest" id="rest-L21F3">
									<use xlink:href="#E4E7" x="8735" y="1080" height="720px" width="720px" />
								</g>
							</g>
						</g>
					</g>
					<g class="staff" id="staff-L13F2N1">
						<path d="M5143 2229 L9128 2229" stroke="#000000" stroke-width="13" />
						<path d="M5143 2409 L9128 2409" stroke="#000000" stroke-width="13" />
						<path d="M5143 2589 L9128 2589" stroke="#000000" stroke-width="13" />
						<path d="M5143 2769 L9128 2769" stroke="#000000" stroke-width="13" />
						<path d="M5143 2949 L9128 2949" stroke="#000000" stroke-width="13" />
						<g class="ledgerLines below">
							<path d="M6475 3129 L6754 3129" stroke="#000000" stroke-width="22" />
							<path d="M7416 3129 L7695 3129" stroke="#000000" stroke-width="22" />
							<path d="M7992 3129 L8271 3129" stroke="#000000" stroke-width="22" />
							<path d="M6475 3309 L6754 3309" stroke="#000000" stroke-width="22" />
							<path d="M7992 3309 L8271 3309" stroke="#000000" stroke-width="22" />
						</g>
						<g class="layer" id="layer-L13F2N1">
							<g class="beam" id="beam-L14F2-L17F2">
								<polygon points="5554,2036 7089,2188 7089,2278 5554,2126 " />
								<polygon points="5554,2171 7089,2323 7089,2413 5554,2261 " />
								<g class="rest" id="rest-L14F2">
									<use xlink:href="#E4E7" x="5346" y="2589" height="720px" width="720px" />
								</g>
								<g class="note" id="note-L15F2">
									<use xlink:href="#E0A4" x="5930" y="2769" height="720px" width="720px" />
									<g class="stem">
										<rect x="6138" y="2113" height="634" width="18" />
									</g>
									<g class="accid" id="accid-0000001330531921">
										<use xlink:href="#E262" x="5735" y="2769" height="720px" width="720px" />
									</g>
								</g>
								<g class="note" id="note-L16F2">
									<use xlink:href="#E0A4" x="6506" y="3309" height="720px" width="720px" />
									<g class="stem">
										<rect x="6714" y="2170" height="1117" width="18" />
									</g>
									<g class="accid" id="accid-0000002023397754">
										<use xlink:href="#E262" x="6311" y="3309" height="720px" width="720px" />
									</g>
								</g>
								<g class="rest" id="rest-L17F2">
									<use xlink:href="#E4E7" x="6863" y="2949" height="720px" width="720px" />
								</g>
							</g>
							<g class="beam" id="beam-L18F2-L20F2">
								<polygon points="7655,2455 8605,2483 8605,2573 7655,2545 " />
								<polygon points="7655,2590 8240,2607 8240,2697 7655,2680 " />
								<g class="note" id="note-L18F2">
									<use xlink:href="#E0A4" x="7447" y="3129" height="720px" width="720px" />
									<g class="stem">
										<rect x="7655" y="2473" height="634" width="18" />
									</g>
									<g class="accid" id="accid-0000001730251170">
										<use xlink:href="#E262" x="7252" y="3129" height="720px" width="720px" />
									</g>
								</g>
								<g class="note" id="note-L19F2">
									<use xlink:href="#E0A4" x="8023" y="3309" height="720px" width="720px" />
									<g class="stem">
										<rect x="8231" y="2490" height="797" width="18" />
									</g>
									<g class="accid" id="accid-0000001790841413" />
								</g>
								<g class="rest" id="rest-L20F2">
									<use xlink:href="#E4E6" x="8379" y="2949" height="720px" width="720px" />
								</g>
							</g>
						</g>
					</g>
					<g class="staff" id="staff-L13F1N1">
						<path d="M5143 3673 L9128 3673" stroke="#000000" stroke-width="13" />
						<path d="M5143 3853 L9128 3853" stroke="#000000" stroke-width="13" />
						<path d="M5143 4033 L9128 4033" stroke="#000000" stroke-width="13" />
						<path d="M5143 4213 L9128 4213" stroke="#000000" stroke-width="13" />
						<path d="M5143 4393 L9128 4393" stroke="#000000" stroke-width="13" />
						<g class="layer" id="layer-L13F1N1">
							<g class="beam" id="beam-L14F1-L17F1">
								<polygon points="5346,4888 6881,4736 6881,4646 5346,4798 " />
								<polygon points="5346,4753 6881,4601 6881,4511 5346,4663 " />
								<g class="rest" id="rest-L14F1">
									<use xlink:href="#E4E7" x="5346" y="4033" height="720px" width="720px" />
								</g>
								<g class="note" id="note-L15F1">
									<use xlink:href="#E0A4" x="5930" y="3763" height="720px" width="720px" />
									<g class="stem">
										<rect x="5930" y="3785" height="1026" width="18" />
									</g>
									<g class="accid" id="accid-0000002095070110">
										<use xlink:href="#E262" x="5735" y="3763" height="720px" width="720px" />
									</g>
								</g>
								<g class="note" id="note-L16F1">
									<use xlink:href="#E0A4" x="6506" y="3853" height="720px" width="720px" />
									<g class="stem">
										<rect x="6506" y="3875" height="879" width="18" />
									</g>
									<g class="accid" id="accid-0000000588968854">
										<use xlink:href="#E262" x="6311" y="3853" height="720px" width="720px" />
									</g>
								</g>
								<g class="note" id="note-L17F1">
									<use xlink:href="#E0A4" x="6863" y="3763" height="720px" width="720px" />
									<g class="stem">
										<rect x="6863" y="3785" height="933" width="18" />
									</g>
									<g class="accid" id="accid-0000000730950626" />
								</g>
							</g>
							<g class="beam" id="beam-L18F1-L20F1">
								<polygon points="7447,4470 8397,4564 8397,4474 7447,4380 " />
								<polygon points="7447,4335 8032,4393 8032,4303 7447,4245 " />
								<g class="note" id="note-L18F1">
									<use xlink:href="#E0A4" x="7447" y="3673" height="720px" width="720px" />
									<g class="stem">
										<rect x="7447" y="3695" height="757" width="18" />
									</g>
									<g class="accid" id="accid-0000000574218297">
										<use xlink:href="#E262" x="7252" y="3673" height="720px" width="720px" />
									</g>
								</g>
								<g class="note" id="note-L19F1">
									<use xlink:href="#E0A4" x="8023" y="3853" height="720px" width="720px" />
									<g class="stem">
										<rect x="8023" y="3875" height="635" width="18" />
									</g>
									<g class="accid" id="accid-0000001500480565" />
								</g>
								<g class="rest" id="rest-L20F1">
									<use xlink:href="#E4E6" x="8379" y="4033" height="720px" width="720px" />
								</g>
							</g>
						</g>
					</g>
					<g class="mNum autogenerated" id="mnum-0000002135864149" />
					<g class="barLineAttr" id="bline-0000000360551158">
						<path d="M9115 1440 L9115 720" stroke="#000000" stroke-width="27" />
						<path d="M9115 2949 L9115 2229" stroke="#000000" stroke-width="27" />
						<path d="M9115 4393 L9115 3673" stroke="#000000" stroke-width="27" />
					</g>
				</g>
				<g class="measure" id="measure-L22">
					<g class="staff" id="staff-L22F3N1">
						<path d="M9128 720 L12684 720" stroke="#000000" stroke-width="13" />
						<path d="M9128 900 L12684 900" stroke="#000000" stroke-width="13" />
						<path d="M9128 1080 L12684 1080" stroke="#000000" stroke-width="13" />
						<path d="M9128 1260 L12684 1260" stroke="#000000" stroke-width="13" />
						<path d="M9128 1440 L12684 1440" stroke="#000000" stroke-width="13" />
						<g class="layer" id="layer-L22F3N1">
							<g class="beam" id="beam-L23F3-L26F3">
								<polygon points="9552,1756 10647,1808 10647,1718 9552,1666 " />
								<polygon points="9552,1621 10647,1673 10647,1583 9552,1531 " />
								<g class="note" id="note-L23F3">
									<use xlink:href="#E0A4" x="9552" y="1080" height="720px" width="720px" />
									<g class="stem">
										<rect x="9552" y="1102" height="636" width="18" />
									</g>
									<g class="accid" id="accid-0000000767581487">
										<use xlink:href="#E260" x="9356" y="1080" height="720px" width="720px" />
									</g>
								</g>
								<g class="rest" id="rest-L24F3">
									<use xlink:href="#E4E7" x="9909" y="1080" height="720px" width="720px" />
								</g>
								<g class="note" id="note-L25F3">
									<use xlink:href="#E0A4" x="10273" y="900" height="720px" width="720px" />
									<g class="stem">
										<rect x="10273" y="922" height="851" width="18" />
									</g>
									<g class="accid" id="accid-0000001708490119" />
								</g>
								<g class="rest" id="rest-L26F3">
									<use xlink:href="#E4E7" x="10629" y="1080" height="720px" width="720px" />
								</g>
							</g>
							<g class="beam" id="beam-L27F3-L30F3">
								<polygon points="10993,1972 12309,1842 12309,1752 10993,1882 " />
								<polygon points="10993,1837 12309,1707 12309,1617 10993,1747 " />
								<g class="rest" id="rest-L27F3">
									<use xlink:href="#E4E7" x="10993" y="1080" height="720px" width="720px" />
								</g>
								<g class="note" id="note-L28F3">
									<use xlink:href="#E0A4" x="11357" y="1260" height="720px" width="720px" />
									<g class="stem">
										<rect x="11357" y="1282" height="635" width="18" />
									</g>
									<g class="accid" id="accid-0000001815951350" />
								</g>
								<g class="note" id="note-L29F3">
									<use xlink:href="#E0A4" x="11934" y="900" height="720px" width="720px" />
									<g class="stem">
										<rect x="11934" y="922" height="937" width="18" />
									</g>
									<g class="accid" id="accid-0000002049980869" />
								</g>
								<g class="rest" id="rest-L30F3">
									<use xlink:href="#E4E7" x="12291" y="1080" height="720px" width="720px" />
								</g>
							</g>
						</g>
					</g>
					<g class="staff" id="staff-L22F2N1">
						<path d="M9128 2229 L12684 2229" stroke="#000000" stroke-width="13" />
						<path d="M9128 2409 L12684 2409" stroke="#000000" stroke-width="13" />
						<path d="M9128 2589 L12684 2589" stroke="#000000" stroke-width="13" />
						<path d="M9128 2769 L12684 2769" stroke="#000000" stroke-width="13" />
						<path d="M9128 2949 L12684 2949" stroke="#000000" stroke-width="13" />
						<g class="layer" id="layer-L22F2N1">
							<g class="rest" id="rest-L23F2">
								<use xlink:href="#E4E5" x="9552" y="2589" height="720px" width="720px" />
							</g>
							<g class="beam" id="beam-L27F2-L30F2">
								<polygon points="11201,2083 12517,2017 12517,2107 11201,2173 " />
								<polygon points="11201,2218 12517,2152 12517,2242 11201,2308 " />
								<g class="rest" id="rest-L27F2">
									<use xlink:href="#E4E7" x="10993" y="2589" height="720px" width="720px" />
								</g>
								<g class="note" id="note-L28F2">
									<use xlink:href="#E0A4" x="11357" y="3039" height="720px" width="720px" />
									<g class="stem">
										<rect x="11565" y="2083" height="934" width="18" />
									</g>
									<g class="accid" id="accid-0000000470632728" />
								</g>
								<g class="note" id="note-L29F2">
									<use xlink:href="#E0A4" x="11934" y="2859" height="720px" width="720px" />
									<g class="stem">
										<rect x="12142" y="2054" height="783" width="18" />
									</g>
									<g class="accid" id="accid-0000000147971036" />
								</g>
								<g class="rest" id="rest-L30F2">
									<use xlink:href="#E4E7" x="12291" y="2589" height="720px" width="720px" />
								</g>
							</g>
						</g>
					</g>
					<g class="staff" id="staff-L22F1N1">
						<path d="M9128 3673 L12684 3673" stroke="#000000" stroke-width="13" />
						<path d="M9128 3853 L12684 3853" stroke="#000000" stroke-width="13" />
						<path d="M9128 4033 L12684 4033" stroke="#000000" stroke-width="13" />
						<path d="M9128 4213 L12684 4213" stroke="#000000" stroke-width="13" />
						<path d="M9128 4393 L12684 4393" stroke="#000000" stroke-width="13" />
						<g class="layer" id="layer-L22F1N1">
							<g class="beam" id="beam-L23F1-L24F1">
								<polygon points="9552,4529 9927,4565 9927,4475 9552,4439 " />
								<polygon points="9552,4394 9710,4409 9710,4319 9552,4304 " />
								<g class="note" id="note-L23F1">
									<use xlink:href="#E0A4" x="9552" y="3853" height="720px" width="720px" />
									<g class="stem">
										<rect x="9552" y="3875" height="636" width="18" />
									</g>
									<g class="accid" id="accid-0000001380154593" />
								</g>
								<g class="rest" id="rest-L24F1">
									<use xlink:href="#E4E6" x="9909" y="4033" height="720px" width="720px" />
									<g class="dots" id="dots-0000000501581373">
										<ellipse cx="10197" cy="3943" rx="36" ry="36" />
									</g>
								</g>
							</g>
							<g class="beam" id="beam-L27F1-L30F1">
								<polygon points="10993,4888 12309,4819 12309,4729 10993,4798 " />
								<polygon points="10993,4753 12309,4684 12309,4594 10993,4663 " />
								<g class="rest" id="rest-L27F1">
									<use xlink:href="#E4E7" x="10993" y="4033" height="720px" width="720px" />
								</g>
								<g class="note" id="note-L28F1">
									<use xlink:href="#E0A4" x="11357" y="3763" height="720px" width="720px" />
									<g class="stem">
										<rect x="11357" y="3785" height="1066" width="18" />
									</g>
									<g class="accid" id="accid-0000001534005087" />
								</g>
								<g class="note" id="note-L29F1">
									<use xlink:href="#E0A4" x="11934" y="3583" height="720px" width="720px" />
									<g class="stem">
										<rect x="11934" y="3605" height="1215" width="18" />
									</g>
									<g class="accid" id="accid-0000000309979171">
										<use xlink:href="#E260" x="11738" y="3583" height="720px" width="720px" />
									</g>
								</g>
								<g class="rest" id="rest-L30F1">
									<use xlink:href="#E4E7" x="12291" y="4033" height="720px" width="720px" />
								</g>
							</g>
						</g>
					</g>
					<g class="mNum autogenerated" id="mnum-0000002005204386" />
					<g class="barLineAttr" id="bline-0000001294458557">
						<path d="M12671 1440 L12671 720" stroke="#000000" stroke-width="27" />
						<path d="M12671 2949 L12671 2229" stroke="#000000" stroke-width="27" />
						<path d="M12671 4393 L12671 3673" stroke="#000000" stroke-width="27" />
					</g>
				</g>
				<g class="measure" id="measure-L31">
					<g class="staff" id="staff-L31F3N1">
						<path d="M12684 720 L16010 720" stroke="#000000" stroke-width="13" />
						<path d="M12684 900 L16010 900" stroke="#000000" stroke-width="13" />
						<path d="M12684 1080 L16010 1080" stroke="#000000" stroke-width="13" />
						<path d="M12684 1260 L16010 1260" stroke="#000000" stroke-width="13" />
						<path d="M12684 1440 L16010 1440" stroke="#000000" stroke-width="13" />
						<g class="layer" id="layer-L31F3N1">
							<g class="beam" id="beam-L32F3-L35F3">
								<polygon points="13095,591 14410,708 14410,798 13095,681 " />
								<polygon points="13095,726 14410,843 14410,933 13095,816 " />
								<g class="rest" id="rest-L32F3">
									<use xlink:href="#E4E7" x="12887" y="1080" height="720px" width="720px" />
								</g>
								<g class="note" id="note-L33F3">
									<use xlink:href="#E0A4" x="13252" y="1440" height="720px" width="720px" />
									<g class="stem">
										<rect x="13460" y="642" height="776" width="18" />
									</g>
									<g class="accid" id="accid-0000001736398191" />
								</g>
								<g class="note" id="note-L34F3">
									<use xlink:href="#E0A4" x="13828" y="1350" height="720px" width="720px" />
									<g class="stem">
										<rect x="14036" y="694" height="634" width="18" />
									</g>
									<g class="accid" id="accid-0000000815904440">
										<use xlink:href="#E262" x="13633" y="1350" height="720px" width="720px" />
									</g>
								</g>
								<g class="note" id="note-L35F3">
									<use xlink:href="#E0A4" x="14184" y="1440" height="720px" width="720px" />
									<g class="stem">
										<rect x="14392" y="726" height="692" width="18" />
									</g>
									<g class="accid" id="accid-0000000802705105" />
								</g>
							</g>
							<g class="beam" id="beam-L36F3-L39F3">
								<polygon points="14548,1756 15635,1863 15635,1773 14548,1666 " />
								<polygon points="14548,1621 15635,1728 15635,1638 14548,1531 " />
								<g class="note" id="note-L36F3">
									<use xlink:href="#E0A4" x="14548" y="1080" height="720px" width="720px" />
									<g class="stem">
										<rect x="14548" y="1102" height="636" width="18" />
									</g>
									<g class="accid" id="accid-0000001054678562" />
								</g>
								<g class="note" id="note-L37F3">
									<use xlink:href="#E0A4" x="14904" y="900" height="720px" width="720px" />
									<g class="stem">
										<rect x="14904" y="922" height="852" width="18" />
									</g>
									<g class="accid" id="accid-0000000531491943" />
								</g>
								<g class="note" id="note-L38F3">
									<use xlink:href="#E0A4" x="15260" y="1080" height="720px" width="720px" />
									<g class="stem">
										<rect x="15260" y="1102" height="708" width="18" />
									</g>
									<g class="accid" id="accid-0000001284482529" />
								</g>
								<g class="rest" id="rest-L39F3">
									<use xlink:href="#E4E7" x="15617" y="1080" height="720px" width="720px" />
								</g>
							</g>
						</g>
					</g>
					<g class="staff" id="staff-L31F2N1">
						<path d="M12684 2229 L16010 2229" stroke="#000000" stroke-width="13" />
						<path d="M12684 2409 L16010 2409" stroke="#000000" stroke-width="13" />
						<path d="M12684 2589 L16010 2589" stroke="#000000" stroke-width="13" />
						<path d="M12684 2769 L16010 2769" stroke="#000000" stroke-width="13" />
						<path d="M12684 2949 L16010 2949" stroke="#000000" stroke-width="13" />
						<g class="ledgerLines below">
							<path d="M13797 3129 L14076 3129" stroke="#000000" stroke-width="22" />
							<path d="M14873 3129 L15152 3129" stroke="#000000" stroke-width="22" />
						</g>
						<g class="layer" id="layer-L31F2N1">
							<g class="beam" id="beam-L32F2-L35F2">
								<polygon points="13095,1968 14410,2098 14410,2188 13095,2058 " />
								<polygon points="13095,2103 14410,2233 14410,2323 13095,2193 " />
								<g class="rest" id="rest-L32F2">
									<use xlink:href="#E4E7" x="12887" y="2589" height="720px" width="720px" />
								</g>
								<g class="note" id="note-L33F2">
									<use xlink:href="#E0A4" x="13252" y="2679" height="720px" width="720px" />
									<g class="stem">
										<rect x="13460" y="2023" height="634" width="18" />
									</g>
									<g class="accid" id="accid-0000001312150187" />
								</g>
								<g class="note" id="note-L34F2">
									<use xlink:href="#E0A4" x="13828" y="3219" height="720px" width="720px" />
									<g class="stem">
										<rect x="14036" y="2080" height="1117" width="18" />
									</g>
									<g class="accid" id="accid-0000000664908112" />
								</g>
								<g class="rest" id="rest-L35F2">
									<use xlink:href="#E4E7" x="14184" y="2949" height="720px" width="720px" />
								</g>
							</g>
							<g class="beam" id="beam-L36F2-L38F2">
								<polygon points="14756,2365 15486,2436 15486,2526 14756,2455 " />
								<polygon points="14756,2500 15121,2536 15121,2626 14756,2590 " />
								<g class="note" id="note-L36F2">
									<use xlink:href="#E0A4" x="14548" y="3039" height="720px" width="720px" />
									<g class="stem">
										<rect x="14756" y="2383" height="634" width="18" />
									</g>
									<g class="accid" id="accid-0000000613689825" />
								</g>
								<g class="note" id="note-L37F2">
									<use xlink:href="#E0A4" x="14904" y="3219" height="720px" width="720px" />
									<g class="stem">
										<rect x="15112" y="2419" height="778" width="18" />
									</g>
									<g class="accid" id="accid-0000000400434331" />
								</g>
								<g class="rest" id="rest-L38F2">
									<use xlink:href="#E4E6" x="15260" y="2949" height="720px" width="720px" />
								</g>
							</g>
						</g>
					</g>
					<g class="staff" id="staff-L31F1N1">
						<path d="M12684 3673 L16010 3673" stroke="#000000" stroke-width="13" />
						<path d="M12684 3853 L16010 3853" stroke="#000000" stroke-width="13" />
						<path d="M12684 4033 L16010 4033" stroke="#000000" stroke-width="13" />
						<path d="M12684 4213 L16010 4213" stroke="#000000" stroke-width="13" />
						<path d="M12684 4393 L16010 4393" stroke="#000000" stroke-width="13" />
						<g class="layer" id="layer-L31F1N1">
							<g class="beam" id="beam-L32F1-L35F1">
								<polygon points="12887,4888 14202,4758 14202,4668 12887,4798 " />
								<polygon points="12887,4753 14202,4623 14202,4533 12887,4663 " />
								<g class="rest" id="rest-L32F1">
									<use xlink:href="#E4E7" x="12887" y="4033" height="720px" width="720px" />
								</g>
								<g class="note" id="note-L33F1">
									<use xlink:href="#E0A4" x="13252" y="3673" height="720px" width="720px" />
									<g class="stem">
										<rect x="13252" y="3695" height="1138" width="18" />
									</g>
									<g class="accid" id="accid-0000000904089551" />
								</g>
								<g class="note" id="note-L34F1">
									<use xlink:href="#E0A4" x="13828" y="3853" height="720px" width="720px" />
									<g class="stem">
										<rect x="13828" y="3875" height="900" width="18" />
									</g>
									<g class="accid" id="accid-0000001764991666">
										<use xlink:href="#E262" x="13633" y="3853" height="720px" width="720px" />
									</g>
								</g>
								<g class="note" id="note-L35F1">
									<use xlink:href="#E0A4" x="14184" y="3673" height="720px" width="720px" />
									<g class="stem">
										<rect x="14184" y="3695" height="1045" width="18" />
									</g>
									<g class="accid" id="accid-0000001796932781" />
								</g>
							</g>
							<g class="beam" id="beam-L36F1-L38F1">
								<polygon points="14548,4492 15278,4564 15278,4474 14548,4402 " />
								<polygon points="14548,4357 14913,4393 14913,4303 14548,4267 " />
								<g class="note" id="note-L36F1">
									<use xlink:href="#E0A4" x="14548" y="3583" height="720px" width="720px" />
									<g class="stem">
										<rect x="14548" y="3605" height="869" width="18" />
									</g>
									<g class="accid" id="accid-0000002040801129" />
								</g>
								<g class="note" id="note-L37F1">
									<use xlink:href="#E0A4" x="14904" y="3853" height="720px" width="720px" />
									<g class="stem">
										<rect x="14904" y="3875" height="635" width="18" />
									</g>
									<g class="accid" id="accid-0000001178402619" />
								</g>
								<g class="rest" id="rest-L38F1">
									<use xlink:href="#E4E6" x="15260" y="4033" height="720px" width="720px" />
								</g>
							</g>
						</g>
					</g>
					<g class="mNum autogenerated" id="mnum-0000001523458711" />
					<g class="barLineAttr" id="bline-0000000050094376">
						<path d="M15997 1440 L15997 720" stroke="#000000" stroke-width="27" />
						<path d="M15997 2949 L15997 2229" stroke="#000000" stroke-width="27" />
						<path d="M15997 4393 L15997 3673" stroke="#000000" stroke-width="27" />
					</g>
				</g>
				<g class="measure" id="measure-L40">
					<g class="staff" id="staff-L40F3N1">
						<path d="M16010 720 L20003 720" stroke="#000000" stroke-width="13" />
						<path d="M16010 900 L20003 900" stroke="#000000" stroke-width="13" />
						<path d="M16010 1080 L20003 1080" stroke="#000000" stroke-width="13" />
						<path d="M16010 1260 L20003 1260" stroke="#000000" stroke-width="13" />
						<path d="M16010 1440 L20003 1440" stroke="#000000" stroke-width="13" />
						<g class="layer" id="layer-L40F3N1">
							<g class="beam" id="beam-L41F3-L44F3">
								<polygon points="16433,1845 17748,1819 17748,1729 16433,1755 " />
								<polygon points="16433,1710 17748,1684 17748,1594 16433,1620 " />
								<g class="note" id="note-L41F3">
									<use xlink:href="#E0A4" x="16433" y="1170" height="720px" width="720px" />
									<g class="stem">
										<rect x="16433" y="1192" height="635" width="18" />
									</g>
									<g class="accid" id="accid-0000001615961443">
										<use xlink:href="#E262" x="16238" y="1170" height="720px" width="720px" />
									</g>
								</g>
								<g class="rest" id="rest-L42F3">
									<use xlink:href="#E4E7" x="16789" y="1080" height="720px" width="720px" />
								</g>
								<g class="note" id="note-L43F3">
									<use xlink:href="#E0A4" x="17373" y="990" height="720px" width="720px" />
									<g class="stem">
										<rect x="17373" y="1012" height="796" width="18" />
									</g>
									<g class="accid" id="accid-0000001702451637">
										<use xlink:href="#E262" x="17178" y="990" height="720px" width="720px" />
									</g>
								</g>
								<g class="rest" id="rest-L44F3">
									<use xlink:href="#E4E7" x="17730" y="1080" height="720px" width="720px" />
								</g>
							</g>
							<g class="beam" id="beam-L45F3-L48F3">
								<polygon points="18302,397 19836,291 19836,381 18302,487 " />
								<polygon points="18302,532 19836,426 19836,516 18302,622 " />
								<g class="rest" id="rest-L45F3">
									<use xlink:href="#E4E7" x="18094" y="1080" height="720px" width="720px" />
								</g>
								<g class="note" id="note-L46F3">
									<use xlink:href="#E0A4" x="18678" y="1260" height="720px" width="720px" />
									<g class="stem">
										<rect x="18886" y="374" height="864" width="18" />
									</g>
									<g class="accid" id="accid-0000001014289025">
										<use xlink:href="#E262" x="18483" y="1260" height="720px" width="720px" />
									</g>
								</g>
								<g class="note" id="note-L47F3">
									<use xlink:href="#E0A4" x="19254" y="990" height="720px" width="720px" />
									<g class="stem">
										<rect x="19462" y="334" height="634" width="18" />
									</g>
									<g class="accid" id="accid-0000001903505127" />
								</g>
								<g class="rest" id="rest-L48F3">
									<use xlink:href="#E4E7" x="19610" y="1080" height="720px" width="720px" />
								</g>
							</g>
						</g>
					</g>
					<g class="staff" id="staff-L40F2N1">
						<path d="M16010 2229 L20003 2229" stroke="#000000" stroke-width="13" />
						<path d="M16010 2409 L20003 2409" stroke="#000000" stroke-width="13" />
						<path d="M16010 2589 L20003 2589" stroke="#000000" stroke-width="13" />
						<path d="M16010 2769 L20003 2769" stroke="#000000" stroke-width="13" />
						<path d="M16010 2949 L20003 2949" stroke="#000000" stroke-width="13" />
						<g class="layer" id="layer-L40F2N1">
							<g class="rest" id="rest-L41F2">
								<use xlink:href="#E4E5" x="16433" y="2589" height="720px" width="720px" />
							</g>
							<g class="beam" id="beam-L45F2-L48F2">
								<polygon points="18302,2089 19836,2054 19836,2144 18302,2179 " />
								<polygon points="18302,2224 19836,2189 19836,2279 18302,2314 " />
								<g class="rest" id="rest-L45F2">
									<use xlink:href="#E4E7" x="18094" y="2589" height="720px" width="720px" />
								</g>
								<g class="note" id="note-L46F2">
									<use xlink:href="#E0A4" x="18678" y="3039" height="720px" width="720px" />
									<g class="stem">
										<rect x="18886" y="2094" height="923" width="18" />
									</g>
									<g class="accid" id="accid-0000000210987063">
										<use xlink:href="#E262" x="18483" y="3039" height="720px" width="720px" />
									</g>
								</g>
								<g class="note" id="note-L47F2">
									<use xlink:href="#E0A4" x="19254" y="2859" height="720px" width="720px" />
									<g class="stem">
										<rect x="19462" y="2080" height="757" width="18" />
									</g>
									<g class="accid" id="accid-0000001275267850">
										<use xlink:href="#E262" x="19059" y="2859" height="720px" width="720px" />
									</g>
								</g>
								<g class="rest" id="rest-L48F2">
									<use xlink:href="#E4E7" x="19610" y="2589" height="720px" width="720px" />
								</g>
							</g>
						</g>
					</g>
					<g class="staff" id="staff-L40F1N1">
						<path d="M16010 3673 L20003 3673" stroke="#000000" stroke-width="13" />
						<path d="M16010 3853 L20003 3853" stroke="#000000" stroke-width="13" />
						<path d="M16010 4033 L20003 4033" stroke="#000000" stroke-width="13" />
						<path d="M16010 4213 L20003 4213" stroke="#000000" stroke-width="13" />
						<path d="M16010 4393 L20003 4393" stroke="#000000" stroke-width="13" />
						<g class="layer" id="layer-L40F1N1">
							<g class="beam" id="beam-L41F1-L42F1">
								<polygon points="16433,4529 16807,4565 16807,4475 16433,4439 " />
								<polygon points="16433,4394 16591,4409 16591,4319 16433,4304 " />
								<g class="note" id="note-L41F1">
									<use xlink:href="#E0A4" x="16433" y="3853" height="720px" width="720px" />
									<g class="stem">
										<rect x="16433" y="3875" height="636" width="18" />
									</g>
									<g class="accid" id="accid-0000001688723530">
										<use xlink:href="#E262" x="16238" y="3853" height="720px" width="720px" />
									</g>
								</g>
								<g class="rest" id="rest-L42F1">
									<use xlink:href="#E4E6" x="16789" y="4033" height="720px" width="720px" />
									<g class="dots" id="dots-0000001564293030">
										<ellipse cx="17077" cy="3943" rx="36" ry="36" />
									</g>
								</g>
							</g>
							<g class="beam" id="beam-L45F1-L48F1">
								<polygon points="18094,4888 19628,4794 19628,4704 18094,4798 " />
								<polygon points="18094,4753 19628,4659 19628,4569 18094,4663 " />
								<g class="rest" id="rest-L45F1">
									<use xlink:href="#E4E7" x="18094" y="4033" height="720px" width="720px" />
								</g>
								<g class="note" id="note-L46F1">
									<use xlink:href="#E0A4" x="18678" y="3763" height="720px" width="720px" />
									<g class="stem">
										<rect x="18678" y="3785" height="1049" width="18" />
									</g>
									<g class="accid" id="accid-0000001784615757">
										<use xlink:href="#E262" x="18483" y="3763" height="720px" width="720px" />
									</g>
								</g>
								<g class="note" id="note-L47F1">
									<use xlink:href="#E0A4" x="19254" y="3673" height="720px" width="720px" />
									<g class="stem">
										<rect x="19254" y="3695" height="1103" width="18" />
									</g>
									<g class="accid" id="accid-0000000775718870">
										<use xlink:href="#E262" x="19059" y="3673" height="720px" width="720px" />
									</g>
								</g>
								<g class="rest" id="rest-L48F1">
									<use xlink:href="#E4E7" x="19610" y="4033" height="720px" width="720px" />
								</g>
							</g>
						</g>
					</g>
					<g class="mNum autogenerated" id="mnum-0000000370181356" />
					<g class="barLineAttr" id="bline-0000001153984139">
						<path d="M19990 1440 L19990 720" stroke="#000000" stroke-width="27" />
						<path d="M19990 2949 L19990 2229" stroke="#000000" stroke-width="27" />
						<path d="M19990 4393 L19990 3673" stroke="#000000" stroke-width="27" />
					</g>
				</g>
			</g>
		</g>
	</svg>
</svg>
