<?xml version="1.0" encoding="UTF-8" standalone="no"?>
<svg width="2100.00px" height="450.00px" version="1.1" xmlns="http://www.w3.org/2000/svg" xmlns:xlink="http://www.w3.org/1999/xlink" overflow="visible">
	<desc>Engraved by Verovio 2.0.0-dev-0f0381c</desc>
	<defs>
		<symbol id="E050" viewBox="0 0 1000 1000" overflow="inherit">
			<path transform="scale(1,-1)" d="M441 -245c-23 -4 -48 -6 -76 -6c-59 0 -102 7 -130 20c-88 42 -150 93 -187 154c-26 44 -43 103 -48 176c-4 60 11 123 44 189c29 57 65 106 110 148s96 85 153 127c-3 16 -8 46 -13 92c-4 43 -5 73 -5 89c0 117 16 172 69 257c34 54 64 82 89 82c21 0 43 -30 69 -92 s39 -115 41 -159c2 -120 -19 -173 -67 -256c-13 -20 -63 -90 -98 -118c-13 -9 -25 -19 -37 -29l31 -181c8 1 18 2 28 2c58 0 102 -12 133 -35c59 -43 92 -104 98 -184c11 -135 -80 -229 -180 -270c8 -57 17 -110 25 -162c5 -31 6 -58 6 -80c0 -30 -5 -53 -14 -70 c-35 -64 -88 -99 -158 -103c-42 -3 -83 6 -124 26c-50 24 -77 59 -80 105c-2 34 5 63 20 87c18 28 45 42 79 44c51 4 99 -40 103 -87c4 -56 -30 -94 -105 -115c17 -24 51 -36 102 -36c62 0 116 43 140 85c9 16 13 41 13 74c0 20 -1 42 -5 67c-8 53 -18 106 -26 159zM461 939 c-95 0 -135 -175 -135 -286c0 -24 2 -48 5 -71c50 39 92 82 127 128c43 57 63 106 60 148c-4 54 -23 82 -57 81zM406 119l54 -326c80 27 116 88 109 184c-7 99 -62 146 -163 142zM382 117c-74 -2 -132 -50 -128 -127c2 -46 43 -99 75 -115c-3 -2 -7 -5 -10 -10 c-70 33 -116 88 -123 172c-5 73 42 135 88 170c23 17 49 29 78 36l-29 170c-21 -13 -52 -37 -92 -73c-50 -44 -86 -84 -109 -119c-49 -75 -71 -140 -67 -195c5 -68 35 -127 93 -176s125 -73 203 -73c25 0 50 3 75 9c-19 111 -36 221 -54 331z" />
		</symbol>
		<symbol id="E082" viewBox="0 0 1000 1000" overflow="inherit">
			<path transform="scale(1,-1)" d="M104 -185c-18 0 -55 -14 -65 -65h-36l-3 29c0 25 6 46 18 64c11 19 22 30 39 43l121 82l37 29c15 11 27 29 38 54c12 24 18 47 18 70c0 40 -19 88 -94 88c-25 0 -32 0 -50 -8c-14 -5 -23 -12 -26 -22c3 -9 7 -15 10 -18l24 -17c12 -7 17 -11 27 -21c5 -7 7 -16 7 -27 c0 -12 0 -57 -79 -74c-30 0 -76 26 -76 94c0 66 80 135 196 135c72 0 182 -32 182 -150c0 -53 -32 -95 -113 -133l-91 -41c-26 -11 -45 -23 -57 -37l49 7c84 0 115 -41 148 -41c20 0 33 20 39 61h35c0 -152 -68 -168 -114 -168c-17 0 -55 0 -69 7v0l-28 17 c-49 37 -69 40 -87 42z" />
		</symbol>
		<symbol id="E084" viewBox="0 0 1000 1000" overflow="inherit">
			<path transform="scale(1,-1)" d="M0 -78c84 97 114 180 134 329h170c-13 -32 -82 -132 -99 -151l-84 -97c-33 -36 -59 -63 -80 -81h162v102l127 123v-225h57v-39h-57v-34c0 -43 19 -65 57 -65v-34h-244v36c48 0 60 26 60 70v27h-203v39z" />
		</symbol>
		<symbol id="E4E7" viewBox="0 0 1000 1000" overflow="inherit">
			<path transform="scale(1,-1)" d="M133 -111c-16 38 -21 43 -64 51c-37 -4 -60 -25 -68 -60c0 -32 18 -52 55 -58c8 -6 22 -10 43 -10c31 0 62 7 82 20l-108 -324h37c72 220 143 439 215 659h-4l-10 -2l-7 -1c-15 -35 -27 -52 -59 -71c-26 -15 -56 -27 -88 -29c-11 0 -20 2 -26 6c29 3 56 25 51 56 c-15 35 -19 42 -64 48c-38 -4 -60 -23 -68 -58c0 -32 18 -52 55 -59c7 -5 22 -8 45 -8c48 0 76 7 112 25l-66 -197c-21 -23 -50 -47 -90 -47c-7 0 -15 1 -25 4c31 5 52 22 52 55z" />
		</symbol>
		<symbol id="E0A4" viewBox="0 0 1000 1000" overflow="inherit">
			<path transform="scale(1,-1)" d="M0 -39c0 68 73 172 200 172c66 0 114 -37 114 -95c0 -84 -106 -171 -218 -171c-64 0 -96 30 -96 94z" />
		</symbol>
		<symbol id="E262" viewBox="0 0 1000 1000" overflow="inherit">
			<path transform="scale(1,-1)" d="M136 186v169h17v-164l44 14v-91l-44 -14v-165l44 12v-91l-44 -13v-155h-17v150l-76 -22v-155h-17v149l-43 -13v90l43 14v167l-43 -14v92l43 13v169h17v-163zM60 73v-167l76 22v168z" />
		</symbol>
		<symbol id="E4E6" viewBox="0 0 1000 1000" overflow="inherit">
			<path transform="scale(1,-1)" d="M0 123c7 34 33 56 69 60c29 -3 43 -9 53 -29c4 -8 7 -15 10 -22c0 -21 -1 -25 -11 -35c-5 -8 -18 -14 -40 -20l12 -3l15 -1c44 0 97 26 122 56c10 11 18 26 24 42c7 1 15 2 22 3l-140 -424h-36l111 330c-10 -6 -27 -12 -53 -16l-52 -8h-10l-20 1c-1 0 -8 3 -21 6 c-37 9 -55 28 -55 60z" />
		</symbol>
		<symbol id="E062" viewBox="0 0 1000 1000" overflow="inherit">
			<path transform="scale(1,-1)" d="M158 96c51 0 73 -14 88 -49l16 -39c0 -17 -2 -30 -7 -40c-3 -11 -10 -21 -19 -31c-17 -18 -49 -43 -84 -43c-55 0 -77 13 -112 44c-24 21 -35 55 -35 100c0 46 14 81 32 112c30 52 71 79 137 93l36 6l26 2c154 0 235 -68 274 -182c11 -32 18 -68 18 -107 c0 -103 -26 -182 -68 -250c-89 -145 -234 -230 -412 -288l-30 -5c-9 0 -14 3 -14 8c3 10 5 11 10 16c35 15 70 30 96 44l78 43c96 57 162 136 197 258c9 33 17 60 22 100c3 22 5 35 6 39c-7 69 -16 115 -23 140s-4 22 -16 40c-8 12 -19 23 -31 34c-24 21 -62 44 -118 44 c-48 0 -84 -8 -113 -28c-28 -19 -42 -44 -42 -73v-16c2 -5 3 -9 4 -11c24 22 52 39 84 39zM585 -118c0 32 23 58 57 58c18 0 33 -6 40 -18c9 -15 16 -18 16 -40c0 -9 -2 -16 -5 -21c-6 -19 -27 -37 -51 -37c-34 0 -57 26 -57 58zM642 177c31 0 56 -27 56 -58 c0 -30 -25 -58 -56 -58l-23 3c-19 7 -34 32 -34 55l3 23c9 20 28 35 54 35z" />
		</symbol>
		<symbol id="E4E5" viewBox="0 0 1000 1000" overflow="inherit">
			<path transform="scale(1,-1)" d="M107 292c-13 24 -30 49 -52 71c-1 1 0 2 0 3l-2 2c3 3 4 4 6 4c12 0 26 -7 40 -20s44 -40 89 -81c26 -24 28 -29 46 -47c4 -4 8 -9 10 -14c6 -8 8 -16 8 -27c0 -19 -12 -40 -36 -61c-28 -23 -49 -38 -61 -73c-4 -11 -7 -27 -10 -50c13 -43 34 -83 59 -121 c31 -47 59 -79 101 -129c-8 0 -26 7 -54 20l-62 29l-21 6l-23 1c-25 0 -45 -10 -60 -30l-4 -14l-1 -12c0 -33 20 -56 39 -78c8 -9 17 -18 26 -26c17 -15 27 -24 28 -30l-3 -3c-11 5 -19 10 -25 15c-9 3 -37 21 -45 26c-24 14 -45 32 -63 51c-19 21 -37 44 -37 71 c0 63 27 95 80 95c41 0 86 -18 136 -52c-19 26 -37 48 -55 66c-23 23 -48 44 -73 65c-28 23 -47 40 -58 53s-17 26 -18 39c75 64 113 125 113 183c0 27 -7 48 -18 68z" />
		</symbol>
	</defs>
	<style type="text/css">g.page-margin{font-family:Times;} g.tempo{font-weight:bold;} g.dir, g.dynam, g.mNum{font-style:italic;} g.label{font-weight:normal;}</style>
	<svg class="definition-scale" viewBox="0 0 21000 4500">
		<g class="page-margin" transform="translate(500, 500)">
			<g class="system" id="system-0000000022571074">
				<path d="M13 720 L13 2880" stroke="#000000" stroke-width="27" />
				<path d="M-32,2862 C-392,2322 58,1980 -212,1800 C121,1980 -329,2322 -32,2862" stroke="#000000" stroke-linecap="round" stroke-linejoin="round" stroke-width="18" />
				<path d="M-32,738 C-329,1278 121,1620 -212,1800 C58,1620 -392,1278 -32,738" stroke="#000000" stroke-linecap="round" stroke-linejoin="round" stroke-width="18" />
				<g class="section boundaryStart" id="section-L1F1" />
				<g class="measure" id="measure-L4">
					<g class="staff" id="staff-L4F2N1">
						<path d="M0 720 L5334 720" stroke="#000000" stroke-width="13" />
						<path d="M0 900 L5334 900" stroke="#000000" stroke-width="13" />
						<path d="M0 1080 L5334 1080" stroke="#000000" stroke-width="13" />
						<path d="M0 1260 L5334 1260" stroke="#000000" stroke-width="13" />
						<path d="M0 1440 L5334 1440" stroke="#000000" stroke-width="13" />
						<g class="clef" id="clef-0000001714521581">
							<use xlink:href="#E050" x="90" y="1260" height="720px" width="720px" />
						</g>
						<g class="meterSig" id="msig-0000001028636421">
							<use xlink:href="#E082" x="771" y="900" height="720px" width="720px" />
							<use xlink:href="#E084" x="777" y="1260" height="720px" width="720px" />
						</g>
						<g class="ledgerLines below">
							<path d="M2181 1620 L2460 1620" stroke="#000000" stroke-width="22" />
						</g>
						<g class="layer" id="layer-L4F2N1">
							<g class="beam" id="beam-L5F2-L7F2">
								<polygon points="1804,585 3054,585 3054,675 1804,675 " />
								<polygon points="1804,720 2429,720 2429,810 1804,810 " />
								<g class="rest" id="rest-L5F2">
									<use xlink:href="#E4E7" x="1596" y="1080" height="720px" width="720px" />
								</g>
								<g class="note" id="note-L6F2">
									<use xlink:href="#E0A4" x="2212" y="1620" height="720px" width="720px" />
									<g class="stem">
										<rect x="2420" y="603" height="995" width="18" />
									</g>
									<g class="accid" id="accid-0000000508568038">
										<use xlink:href="#E262" x="2017" y="1620" height="720px" width="720px" />
									</g>
								</g>
								<g class="rest" id="rest-L7F2">
									<use xlink:href="#E4E6" x="2828" y="1080" height="720px" width="720px" />
								</g>
							</g>
							<g class="beam" id="beam-L9F2-L12F2">
								<polygon points="4020,597 5146,653 5146,743 4020,687 " />
								<polygon points="4762,769 5146,788 5146,878 4762,859 " />
								<g class="rest" id="rest-L9F2">
									<use xlink:href="#E4E6" x="3812" y="1080" height="720px" width="720px" />
								</g>
								<g class="note" id="note-L11F2">
									<use xlink:href="#E0A4" x="4545" y="1530" height="720px" width="720px" />
									<g class="stem">
										<rect x="4753" y="652" height="856" width="18" />
									</g>
									<g class="accid" id="accid-0000001377368304">
										<use xlink:href="#E262" x="4350" y="1530" height="720px" width="720px" />
									</g>
								</g>
								<g class="rest" id="rest-L12F2">
									<use xlink:href="#E4E7" x="4920" y="1080" height="720px" width="720px" />
								</g>
							</g>
						</g>
					</g>
					<g class="staff" id="staff-L4F1N1">
						<path d="M0 2160 L5334 2160" stroke="#000000" stroke-width="13" />
						<path d="M0 2340 L5334 2340" stroke="#000000" stroke-width="13" />
						<path d="M0 2520 L5334 2520" stroke="#000000" stroke-width="13" />
						<path d="M0 2700 L5334 2700" stroke="#000000" stroke-width="13" />
						<path d="M0 2880 L5334 2880" stroke="#000000" stroke-width="13" />
						<g class="clef" id="clef-0000001048969397">
							<use xlink:href="#E062" x="90" y="2340" height="720px" width="720px" />
						</g>
						<g class="meterSig" id="msig-0000001335397156">
							<use xlink:href="#E082" x="771" y="2340" height="720px" width="720px" />
							<use xlink:href="#E084" x="777" y="2700" height="720px" width="720px" />
						</g>
						<g class="ledgerLines above">
							<path d="M3781 1980 L4060 1980" stroke="#000000" stroke-width="22" />
						</g>
						<g class="layer" id="layer-L4F1N1">
							<g class="beam" id="beam-L5F1-L8F1">
								<polygon points="1596,3214 3222,3190 3222,3100 1596,3124 " />
								<polygon points="1596,3079 3222,3055 3222,2965 1596,2989 " />
								<g class="note" id="note-L5F1">
									<use xlink:href="#E0A4" x="1596" y="2340" height="720px" width="720px" />
									<g class="stem">
										<rect x="1596" y="2362" height="834" width="18" />
									</g>
									<g class="accid" id="accid-0000000253278067">
										<use xlink:href="#E262" x="1401" y="2340" height="720px" width="720px" />
									</g>
								</g>
								<g class="rest" id="rest-L6F1">
									<use xlink:href="#E4E7" x="2212" y="2520" height="720px" width="720px" />
								</g>
								<g class="note" id="note-L7F1">
									<use xlink:href="#E0A4" x="2828" y="2520" height="720px" width="720px" />
									<g class="stem">
										<rect x="2828" y="2542" height="635" width="18" />
									</g>
									<g class="accid" id="accid-0000000902952906">
										<use xlink:href="#E262" x="2633" y="2520" height="720px" width="720px" />
									</g>
								</g>
								<g class="note" id="note-L8F1">
									<use xlink:href="#E0A4" x="3204" y="2340" height="720px" width="720px" />
									<g class="stem">
										<rect x="3204" y="2362" height="810" width="18" />
									</g>
									<g class="accid" id="accid-0000000113138678" />
								</g>
							</g>
							<g class="beam" id="beam-L9F1-L10F1">
								<polygon points="3812,2656 4206,2694 4206,2604 3812,2566 " />
								<polygon points="3812,2521 3970,2536 3970,2446 3812,2431 " />
								<g class="note" id="note-L9F1">
									<use xlink:href="#E0A4" x="3812" y="1980" height="720px" width="720px" />
									<g class="stem">
										<rect x="3812" y="2002" height="636" width="18" />
									</g>
									<g class="accid" id="accid-0000000521645505">
										<use xlink:href="#E262" x="3617" y="1980" height="720px" width="720px" />
									</g>
								</g>
								<g class="rest" id="rest-L10F1">
									<use xlink:href="#E4E6" x="4188" y="2520" height="720px" width="720px" />
									<g class="dots" id="dots-0000001973292430">
										<ellipse cx="4476" cy="2430" rx="36" ry="36" />
									</g>
								</g>
							</g>
						</g>
					</g>
					<g class="mNum autogenerated" id="mnum-0000001131000594" />
					<g class="barLineAttr" id="bline-0000001482422344">
						<path d="M5321 2880 L5321 720" stroke="#000000" stroke-width="27" />
					</g>
				</g>
				<g class="measure" id="measure-L13">
					<g class="staff" id="staff-L13F2N1">
						<path d="M5334 720 L9296 720" stroke="#000000" stroke-width="13" />
						<path d="M5334 900 L9296 900" stroke="#000000" stroke-width="13" />
						<path d="M5334 1080 L9296 1080" stroke="#000000" stroke-width="13" />
						<path d="M5334 1260 L9296 1260" stroke="#000000" stroke-width="13" />
						<path d="M5334 1440 L9296 1440" stroke="#000000" stroke-width="13" />
						<g class="ledgerLines below">
							<path d="M8859 1620 L9138 1620" stroke="#000000" stroke-width="22" />
						</g>
						<g class="layer" id="layer-L13F2N1">
							<g class="beam" id="beam-L14F2-L16F2">
								<polygon points="5988,586 6990,599 6990,689 5988,676 " />
								<polygon points="5988,721 6605,729 6605,819 5988,811 " />
								<g class="note" id="note-L14F2">
									<use xlink:href="#E0A4" x="5780" y="1260" height="720px" width="720px" />
									<g class="stem">
										<rect x="5988" y="604" height="634" width="18" />
									</g>
									<g class="accid" id="accid-0000001311955848">
										<use xlink:href="#E262" x="5585" y="1260" height="720px" width="720px" />
									</g>
								</g>
								<g class="note" id="note-L15F2">
									<use xlink:href="#E0A4" x="6388" y="1350" height="720px" width="720px" />
									<g class="stem">
										<rect x="6596" y="612" height="716" width="18" />
									</g>
									<g class="accid" id="accid-0000000831960962">
										<use xlink:href="#E262" x="6193" y="1350" height="720px" width="720px" />
									</g>
								</g>
								<g class="rest" id="rest-L16F2">
									<use xlink:href="#E4E6" x="6764" y="1080" height="720px" width="720px" />
								</g>
							</g>
							<g class="beam" id="beam-L18F2-L20F2">
								<polygon points="7955,532 9116,647 9116,737 7955,622 " />
								<polygon points="8500,721 9116,782 9116,872 8500,811 " />
								<g class="rest" id="rest-L18F2">
									<use xlink:href="#E4E6" x="7747" y="1080" height="720px" width="720px" />
								</g>
								<g class="note" id="note-L19F2">
									<use xlink:href="#E0A4" x="8283" y="1260" height="720px" width="720px" />
									<g class="stem">
										<rect x="8491" y="604" height="634" width="18" />
									</g>
									<g class="accid" id="accid-0000000772043339" />
								</g>
								<g class="note" id="note-L20F2">
									<use xlink:href="#E0A4" x="8890" y="1620" height="720px" width="720px" />
									<g class="stem">
										<rect x="9098" y="665" height="933" width="18" />
									</g>
									<g class="accid" id="accid-0000000349448580">
										<use xlink:href="#E262" x="8695" y="1620" height="720px" width="720px" />
									</g>
								</g>
							</g>
						</g>
					</g>
					<g class="staff" id="staff-L13F1N1">
						<path d="M5334 2160 L9296 2160" stroke="#000000" stroke-width="13" />
						<path d="M5334 2340 L9296 2340" stroke="#000000" stroke-width="13" />
						<path d="M5334 2520 L9296 2520" stroke="#000000" stroke-width="13" />
						<path d="M5334 2700 L9296 2700" stroke="#000000" stroke-width="13" />
						<path d="M5334 2880 L9296 2880" stroke="#000000" stroke-width="13" />
						<g class="ledgerLines above">
							<path d="M7341 1980 L7620 1980" stroke="#000000" stroke-width="22" />
						</g>
						<g class="layer" id="layer-L13F1N1">
							<g class="beam" id="beam-L14F1-L17F1">
								<polygon points="5780,3375 7390,3215 7390,3125 5780,3285 " />
								<polygon points="6773,3141 7390,3080 7390,2990 6773,3051 " />
								<g class="rest" id="rest-L14F1">
									<use xlink:href="#E4E6" x="5780" y="2520" height="720px" width="720px" />
								</g>
								<g class="note" id="note-L16F1">
									<use xlink:href="#E0A4" x="6764" y="2160" height="720px" width="720px" />
									<g class="stem">
										<rect x="6764" y="2182" height="1076" width="18" />
									</g>
									<g class="accid" id="accid-0000001589796288">
										<use xlink:href="#E262" x="6569" y="2160" height="720px" width="720px" />
									</g>
								</g>
								<g class="note" id="note-L17F1">
									<use xlink:href="#E0A4" x="7372" y="1980" height="720px" width="720px" />
									<g class="stem">
										<rect x="7372" y="2002" height="1195" width="18" />
									</g>
									<g class="accid" id="accid-0000000690923023">
										<use xlink:href="#E262" x="7177" y="1980" height="720px" width="720px" />
									</g>
								</g>
							</g>
							<g class="rest" id="rest-L18F1">
								<use xlink:href="#E4E5" x="7747" y="2520" height="720px" width="720px" />
							</g>
						</g>
					</g>
					<g class="mNum autogenerated" id="mnum-0000001123922454" />
					<g class="barLineAttr" id="bline-0000001552556536">
						<path d="M9283 2880 L9283 720" stroke="#000000" stroke-width="27" />
					</g>
				</g>
				<g class="measure" id="measure-L21">
					<g class="staff" id="staff-L21F2N1">
						<path d="M9296 720 L12553 720" stroke="#000000" stroke-width="13" />
						<path d="M9296 900 L12553 900" stroke="#000000" stroke-width="13" />
						<path d="M9296 1080 L12553 1080" stroke="#000000" stroke-width="13" />
						<path d="M9296 1260 L12553 1260" stroke="#000000" stroke-width="13" />
						<path d="M9296 1440 L12553 1440" stroke="#000000" stroke-width="13" />
						<g class="ledgerLines below">
							<path d="M9864 1620 L10143 1620" stroke="#000000" stroke-width="22" />
						</g>
						<g class="layer" id="layer-L21F2N1">
							<g class="beam" id="beam-L22F2-L24F2">
								<polygon points="9719,585 10505,585 10505,675 9719,675 " />
								<polygon points="9719,720 10112,720 10112,810 9719,810 " />
								<g class="rest" id="rest-L22F2">
									<use xlink:href="#E4E7" x="9511" y="1080" height="720px" width="720px" />
								</g>
								<g class="note" id="note-L23F2">
									<use xlink:href="#E0A4" x="9895" y="1620" height="720px" width="720px" />
									<g class="stem">
										<rect x="10103" y="603" height="995" width="18" />
									</g>
									<g class="accid" id="accid-0000001852881043" />
								</g>
								<g class="rest" id="rest-L24F2">
									<use xlink:href="#E4E6" x="10279" y="1080" height="720px" width="720px" />
								</g>
							</g>
							<g class="beam" id="beam-L26F2-L29F2">
								<polygon points="11238,596 12365,652 12365,742 11238,686 " />
								<polygon points="11980,768 12365,787 12365,877 11980,858 " />
								<g class="rest" id="rest-L26F2">
									<use xlink:href="#E4E6" x="11030" y="1080" height="720px" width="720px" />
								</g>
								<g class="note" id="note-L28F2">
									<use xlink:href="#E0A4" x="11763" y="1530" height="720px" width="720px" />
									<g class="stem">
										<rect x="11971" y="651" height="857" width="18" />
									</g>
									<g class="accid" id="accid-0000001143510832" />
								</g>
								<g class="rest" id="rest-L29F2">
									<use xlink:href="#E4E7" x="12139" y="1080" height="720px" width="720px" />
								</g>
							</g>
						</g>
					</g>
					<g class="staff" id="staff-L21F1N1">
						<path d="M9296 2160 L12553 2160" stroke="#000000" stroke-width="13" />
						<path d="M9296 2340 L12553 2340" stroke="#000000" stroke-width="13" />
						<path d="M9296 2520 L12553 2520" stroke="#000000" stroke-width="13" />
						<path d="M9296 2700 L12553 2700" stroke="#000000" stroke-width="13" />
						<path d="M9296 2880 L12553 2880" stroke="#000000" stroke-width="13" />
						<g class="ledgerLines above">
							<path d="M10999 1980 L11278 1980" stroke="#000000" stroke-width="22" />
						</g>
						<g class="layer" id="layer-L21F1N1">
							<g class="beam" id="beam-L22F1-L25F1">
								<polygon points="9511,3230 10673,3177 10673,3087 9511,3140 " />
								<polygon points="9511,3095 10673,3042 10673,2952 9511,3005 " />
								<g class="note" id="note-L22F1">
									<use xlink:href="#E0A4" x="9511" y="2340" height="720px" width="720px" />
									<g class="stem">
										<rect x="9511" y="2362" height="850" width="18" />
									</g>
									<g class="accid" id="accid-0000000713131257" />
								</g>
								<g class="rest" id="rest-L23F1">
									<use xlink:href="#E4E7" x="9895" y="2520" height="720px" width="720px" />
								</g>
								<g class="note" id="note-L24F1">
									<use xlink:href="#E0A4" x="10279" y="2520" height="720px" width="720px" />
									<g class="stem">
										<rect x="10279" y="2542" height="635" width="18" />
									</g>
									<g class="accid" id="accid-0000000457057630" />
								</g>
								<g class="note" id="note-L25F1">
									<use xlink:href="#E0A4" x="10655" y="2340" height="720px" width="720px" />
									<g class="stem">
										<rect x="10655" y="2362" height="797" width="18" />
									</g>
									<g class="accid" id="accid-0000001512167067" />
								</g>
							</g>
							<g class="beam" id="beam-L26F1-L27F1">
								<polygon points="11030,2656 11424,2694 11424,2604 11030,2566 " />
								<polygon points="11030,2521 11188,2536 11188,2446 11030,2431 " />
								<g class="note" id="note-L26F1">
									<use xlink:href="#E0A4" x="11030" y="1980" height="720px" width="720px" />
									<g class="stem">
										<rect x="11030" y="2002" height="636" width="18" />
									</g>
									<g class="accid" id="accid-0000001875297390" />
								</g>
								<g class="rest" id="rest-L27F1">
									<use xlink:href="#E4E6" x="11406" y="2520" height="720px" width="720px" />
									<g class="dots" id="dots-0000000162909891">
										<ellipse cx="11694" cy="2430" rx="36" ry="36" />
									</g>
								</g>
							</g>
						</g>
					</g>
					<g class="mNum autogenerated" id="mnum-0000001382119415" />
					<g class="barLineAttr" id="bline-0000000515527180">
						<path d="M12540 2880 L12540 720" stroke="#000000" stroke-width="27" />
					</g>
				</g>
				<g class="measure" id="measure-L30">
					<g class="staff" id="staff-L30F2N1">
						<path d="M12553 720 L15819 720" stroke="#000000" stroke-width="13" />
						<path d="M12553 900 L15819 900" stroke="#000000" stroke-width="13" />
						<path d="M12553 1080 L15819 1080" stroke="#000000" stroke-width="13" />
						<path d="M12553 1260 L15819 1260" stroke="#000000" stroke-width="13" />
						<path d="M12553 1440 L15819 1440" stroke="#000000" stroke-width="13" />
						<g class="layer" id="layer-L30F2N1">
							<g class="beam" id="beam-L31F2-L33F2">
								<polygon points="12976,496 13977,595 13977,685 12976,586 " />
								<polygon points="12976,631 13592,692 13592,782 12976,721 " />
								<g class="note" id="note-L31F2">
									<use xlink:href="#E0A4" x="12768" y="1170" height="720px" width="720px" />
									<g class="stem">
										<rect x="12976" y="514" height="634" width="18" />
									</g>
									<g class="accid" id="accid-0000001426209722" />
								</g>
								<g class="note" id="note-L32F2">
									<use xlink:href="#E0A4" x="13375" y="1350" height="720px" width="720px" />
									<g class="stem">
										<rect x="13583" y="575" height="753" width="18" />
									</g>
									<g class="accid" id="accid-0000000558689394">
										<use xlink:href="#E262" x="13180" y="1350" height="720px" width="720px" />
									</g>
								</g>
								<g class="rest" id="rest-L33F2">
									<use xlink:href="#E4E6" x="13751" y="1080" height="720px" width="720px" />
								</g>
							</g>
							<g class="beam" id="beam-L35F2-L37F2">
								<polygon points="14711,442 15640,533 15640,623 14711,532 " />
								<polygon points="15255,631 15640,668 15640,758 15255,721 " />
								<g class="rest" id="rest-L35F2">
									<use xlink:href="#E4E6" x="14503" y="1080" height="720px" width="720px" />
								</g>
								<g class="note" id="note-L36F2">
									<use xlink:href="#E0A4" x="15038" y="1170" height="720px" width="720px" />
									<g class="stem">
										<rect x="15246" y="514" height="634" width="18" />
									</g>
									<g class="accid" id="accid-0000000027614385" />
								</g>
								<g class="note" id="note-L37F2">
									<use xlink:href="#E0A4" x="15414" y="1530" height="720px" width="720px" />
									<g class="stem">
										<rect x="15622" y="551" height="957" width="18" />
									</g>
									<g class="accid" id="accid-0000000265931120" />
								</g>
							</g>
						</g>
					</g>
					<g class="staff" id="staff-L30F1N1">
						<path d="M12553 2160 L15819 2160" stroke="#000000" stroke-width="13" />
						<path d="M12553 2340 L15819 2340" stroke="#000000" stroke-width="13" />
						<path d="M12553 2520 L15819 2520" stroke="#000000" stroke-width="13" />
						<path d="M12553 2700 L15819 2700" stroke="#000000" stroke-width="13" />
						<path d="M12553 2880 L15819 2880" stroke="#000000" stroke-width="13" />
						<g class="ledgerLines above">
							<path d="M14096 1980 L14375 1980" stroke="#000000" stroke-width="22" />
						</g>
						<g class="layer" id="layer-L30F1N1">
							<g class="beam" id="beam-L31F1-L34F1">
								<polygon points="12768,3375 14145,3239 14145,3149 12768,3285 " />
								<polygon points="13760,3141 14145,3104 14145,3014 13760,3051 " />
								<g class="rest" id="rest-L31F1">
									<use xlink:href="#E4E6" x="12768" y="2520" height="720px" width="720px" />
								</g>
								<g class="note" id="note-L33F1">
									<use xlink:href="#E0A4" x="13751" y="2070" height="720px" width="720px" />
									<g class="stem">
										<rect x="13751" y="2092" height="1166" width="18" />
									</g>
									<g class="accid" id="accid-0000001405566173" />
								</g>
								<g class="note" id="note-L34F1">
									<use xlink:href="#E0A4" x="14127" y="1890" height="720px" width="720px" />
									<g class="stem">
										<rect x="14127" y="1912" height="1309" width="18" />
									</g>
									<g class="accid" id="accid-0000001042120022" />
								</g>
							</g>
							<g class="rest" id="rest-L35F1">
								<use xlink:href="#E4E5" x="14503" y="2520" height="720px" width="720px" />
							</g>
						</g>
					</g>
					<g class="mNum autogenerated" id="mnum-0000001715467625" />
					<g class="barLineAttr" id="bline-0000000449630754">
						<path d="M15806 2880 L15806 720" stroke="#000000" stroke-width="27" />
					</g>
				</g>
				<g class="measure" id="measure-L38">
					<g class="staff" id="staff-L38F2N1">
						<path d="M15819 720 L20003 720" stroke="#000000" stroke-width="13" />
						<path d="M15819 900 L20003 900" stroke="#000000" stroke-width="13" />
						<path d="M15819 1080 L20003 1080" stroke="#000000" stroke-width="13" />
						<path d="M15819 1260 L20003 1260" stroke="#000000" stroke-width="13" />
						<path d="M15819 1440 L20003 1440" stroke="#000000" stroke-width="13" />
						<g class="ledgerLines below">
							<path d="M16850 1620 L17129 1620" stroke="#000000" stroke-width="22" />
						</g>
						<g class="layer" id="layer-L38F2N1">
							<g class="beam" id="beam-L39F2-L41F2">
								<polygon points="16473,585 17723,585 17723,675 16473,675 " />
								<polygon points="16473,720 17098,720 17098,810 16473,810 " />
								<g class="rest" id="rest-L39F2">
									<use xlink:href="#E4E7" x="16265" y="1080" height="720px" width="720px" />
								</g>
								<g class="note" id="note-L40F2">
									<use xlink:href="#E0A4" x="16881" y="1620" height="720px" width="720px" />
									<g class="stem">
										<rect x="17089" y="603" height="995" width="18" />
									</g>
									<g class="accid" id="accid-0000000283132547">
										<use xlink:href="#E262" x="16686" y="1620" height="720px" width="720px" />
									</g>
								</g>
								<g class="rest" id="rest-L41F2">
									<use xlink:href="#E4E6" x="17497" y="1080" height="720px" width="720px" />
								</g>
							</g>
							<g class="beam" id="beam-L43F2-L46F2">
								<polygon points="18689,597 19815,653 19815,743 18689,687 " />
								<polygon points="19431,769 19815,788 19815,878 19431,859 " />
								<g class="rest" id="rest-L43F2">
									<use xlink:href="#E4E6" x="18481" y="1080" height="720px" width="720px" />
								</g>
								<g class="note" id="note-L45F2">
									<use xlink:href="#E0A4" x="19214" y="1530" height="720px" width="720px" />
									<g class="stem">
										<rect x="19422" y="652" height="856" width="18" />
									</g>
									<g class="accid" id="accid-0000001904090342">
										<use xlink:href="#E262" x="19019" y="1530" height="720px" width="720px" />
									</g>
								</g>
								<g class="rest" id="rest-L46F2">
									<use xlink:href="#E4E7" x="19589" y="1080" height="720px" width="720px" />
								</g>
							</g>
						</g>
					</g>
					<g class="staff" id="staff-L38F1N1">
						<path d="M15819 2160 L20003 2160" stroke="#000000" stroke-width="13" />
						<path d="M15819 2340 L20003 2340" stroke="#000000" stroke-width="13" />
						<path d="M15819 2520 L20003 2520" stroke="#000000" stroke-width="13" />
						<path d="M15819 2700 L20003 2700" stroke="#000000" stroke-width="13" />
						<path d="M15819 2880 L20003 2880" stroke="#000000" stroke-width="13" />
						<g class="ledgerLines above">
							<path d="M18450 1980 L18729 1980" stroke="#000000" stroke-width="22" />
						</g>
						<g class="layer" id="layer-L38F1N1">
							<g class="beam" id="beam-L39F1-L42F1">
								<polygon points="16265,3214 17891,3190 17891,3100 16265,3124 " />
								<polygon points="16265,3079 17891,3055 17891,2965 16265,2989 " />
								<g class="note" id="note-L39F1">
									<use xlink:href="#E0A4" x="16265" y="2340" height="720px" width="720px" />
									<g class="stem">
										<rect x="16265" y="2362" height="834" width="18" />
									</g>
									<g class="accid" id="accid-0000002103450087">
										<use xlink:href="#E262" x="16070" y="2340" height="720px" width="720px" />
									</g>
								</g>
								<g class="rest" id="rest-L40F1">
									<use xlink:href="#E4E7" x="16881" y="2520" height="720px" width="720px" />
								</g>
								<g class="note" id="note-L41F1">
									<use xlink:href="#E0A4" x="17497" y="2520" height="720px" width="720px" />
									<g class="stem">
										<rect x="17497" y="2542" height="635" width="18" />
									</g>
									<g class="accid" id="accid-0000001522148591">
										<use xlink:href="#E262" x="17302" y="2520" height="720px" width="720px" />
									</g>
								</g>
								<g class="note" id="note-L42F1">
									<use xlink:href="#E0A4" x="17873" y="2340" height="720px" width="720px" />
									<g class="stem">
										<rect x="17873" y="2362" height="810" width="18" />
									</g>
									<g class="accid" id="accid-0000001901332633" />
								</g>
							</g>
							<g class="beam" id="beam-L43F1-L44F1">
								<polygon points="18481,2656 18875,2694 18875,2604 18481,2566 " />
								<polygon points="18481,2521 18639,2536 18639,2446 18481,2431 " />
								<g class="note" id="note-L43F1">
									<use xlink:href="#E0A4" x="18481" y="1980" height="720px" width="720px" />
									<g class="stem">
										<rect x="18481" y="2002" height="636" width="18" />
									</g>
									<g class="accid" id="accid-0000001627568977">
										<use xlink:href="#E262" x="18286" y="1980" height="720px" width="720px" />
									</g>
								</g>
								<g class="rest" id="rest-L44F1">
									<use xlink:href="#E4E6" x="18857" y="2520" height="720px" width="720px" />
									<g class="dots" id="dots-0000002061461341">
										<ellipse cx="19145" cy="2430" rx="36" ry="36" />
									</g>
								</g>
							</g>
						</g>
					</g>
					<g class="mNum autogenerated" id="mnum-0000000050918026" />
					<g class="barLineAttr" id="bline-0000000603655491">
						<path d="M19990 2880 L19990 720" stroke="#000000" stroke-width="27" />
					</g>
				</g>
			</g>
		</g>
	</svg>
</svg>
