<?xml version="1.0" encoding="UTF-8" standalone="no"?>
<svg width="2100.00px" height="250.00px" version="1.1" xmlns="http://www.w3.org/2000/svg" xmlns:xlink="http://www.w3.org/1999/xlink" overflow="visible">
	<desc>Engraved by Verovio 2.0.0-dev-0f0381c</desc>
	<defs>
		<symbol id="E062" viewBox="0 0 1000 1000" overflow="inherit">
			<path transform="scale(1,-1)" d="M158 96c51 0 73 -14 88 -49l16 -39c0 -17 -2 -30 -7 -40c-3 -11 -10 -21 -19 -31c-17 -18 -49 -43 -84 -43c-55 0 -77 13 -112 44c-24 21 -35 55 -35 100c0 46 14 81 32 112c30 52 71 79 137 93l36 6l26 2c154 0 235 -68 274 -182c11 -32 18 -68 18 -107 c0 -103 -26 -182 -68 -250c-89 -145 -234 -230 -412 -288l-30 -5c-9 0 -14 3 -14 8c3 10 5 11 10 16c35 15 70 30 96 44l78 43c96 57 162 136 197 258c9 33 17 60 22 100c3 22 5 35 6 39c-7 69 -16 115 -23 140s-4 22 -16 40c-8 12 -19 23 -31 34c-24 21 -62 44 -118 44 c-48 0 -84 -8 -113 -28c-28 -19 -42 -44 -42 -73v-16c2 -5 3 -9 4 -11c24 22 52 39 84 39zM585 -118c0 32 23 58 57 58c18 0 33 -6 40 -18c9 -15 16 -18 16 -40c0 -9 -2 -16 -5 -21c-6 -19 -27 -37 -51 -37c-34 0 -57 26 -57 58zM642 177c31 0 56 -27 56 -58 c0 -30 -25 -58 -56 -58l-23 3c-19 7 -34 32 -34 55l3 23c9 20 28 35 54 35z" />
		</symbol>
		<symbol id="E082" viewBox="0 0 1000 1000" overflow="inherit">
			<path transform="scale(1,-1)" d="M104 -185c-18 0 -55 -14 -65 -65h-36l-3 29c0 25 6 46 18 64c11 19 22 30 39 43l121 82l37 29c15 11 27 29 38 54c12 24 18 47 18 70c0 40 -19 88 -94 88c-25 0 -32 0 -50 -8c-14 -5 -23 -12 -26 -22c3 -9 7 -15 10 -18l24 -17c12 -7 17 -11 27 -21c5 -7 7 -16 7 -27 c0 -12 0 -57 -79 -74c-30 0 -76 26 -76 94c0 66 80 135 196 135c72 0 182 -32 182 -150c0 -53 -32 -95 -113 -133l-91 -41c-26 -11 -45 -23 -57 -37l49 7c84 0 115 -41 148 -41c20 0 33 20 39 61h35c0 -152 -68 -168 -114 -168c-17 0 -55 0 -69 7v0l-28 17 c-49 37 -69 40 -87 42z" />
		</symbol>
		<symbol id="E084" viewBox="0 0 1000 1000" overflow="inherit">
			<path transform="scale(1,-1)" d="M0 -78c84 97 114 180 134 329h170c-13 -32 -82 -132 -99 -151l-84 -97c-33 -36 -59 -63 -80 -81h162v102l127 123v-225h57v-39h-57v-34c0 -43 19 -65 57 -65v-34h-244v36c48 0 60 26 60 70v27h-203v39z" />
		</symbol>
		<symbol id="E0A4" viewBox="0 0 1000 1000" overflow="inherit">
			<path transform="scale(1,-1)" d="M0 -39c0 68 73 172 200 172c66 0 114 -37 114 -95c0 -84 -106 -171 -218 -171c-64 0 -96 30 -96 94z" />
		</symbol>
		<symbol id="E262" viewBox="0 0 1000 1000" overflow="inherit">
			<path transform="scale(1,-1)" d="M136 186v169h17v-164l44 14v-91l-44 -14v-165l44 12v-91l-44 -13v-155h-17v150l-76 -22v-155h-17v149l-43 -13v90l43 14v167l-43 -14v92l43 13v169h17v-163zM60 73v-167l76 22v168z" />
		</symbol>
		<symbol id="E4E7" viewBox="0 0 1000 1000" overflow="inherit">
			<path transform="scale(1,-1)" d="M133 -111c-16 38 -21 43 -64 51c-37 -4 -60 -25 -68 -60c0 -32 18 -52 55 -58c8 -6 22 -10 43 -10c31 0 62 7 82 20l-108 -324h37c72 220 143 439 215 659h-4l-10 -2l-7 -1c-15 -35 -27 -52 -59 -71c-26 -15 -56 -27 -88 -29c-11 0 -20 2 -26 6c29 3 56 25 51 56 c-15 35 -19 42 -64 48c-38 -4 -60 -23 -68 -58c0 -32 18 -52 55 -59c7 -5 22 -8 45 -8c48 0 76 7 112 25l-66 -197c-21 -23 -50 -47 -90 -47c-7 0 -15 1 -25 4c31 5 52 22 52 55z" />
		</symbol>
		<symbol id="E4E6" viewBox="0 0 1000 1000" overflow="inherit">
			<path transform="scale(1,-1)" d="M0 123c7 34 33 56 69 60c29 -3 43 -9 53 -29c4 -8 7 -15 10 -22c0 -21 -1 -25 -11 -35c-5 -8 -18 -14 -40 -20l12 -3l15 -1c44 0 97 26 122 56c10 11 18 26 24 42c7 1 15 2 22 3l-140 -424h-36l111 330c-10 -6 -27 -12 -53 -16l-52 -8h-10l-20 1c-1 0 -8 3 -21 6 c-37 9 -55 28 -55 60z" />
		</symbol>
		<symbol id="E260" viewBox="0 0 1000 1000" overflow="inherit">
			<path transform="scale(1,-1)" d="M20 110c32 16 54 27 93 27c26 0 35 -3 54 -13c13 -7 24 -20 27 -38l4 -25c0 -28 -16 -57 -45 -89c-23 -25 -39 -44 -65 -68l-88 -79v644h20v-359zM90 106c-32 0 -48 -10 -70 -29v-194c31 31 54 59 71 84c21 32 32 59 32 84c0 9 1 16 1 20c0 14 -3 21 -11 30l-8 3z" />
		</symbol>
	</defs>
	<style type="text/css">g.page-margin{font-family:Times;} g.tempo{font-weight:bold;} g.dir, g.dynam, g.mNum{font-style:italic;} g.label{font-weight:normal;}</style>
	<svg class="definition-scale" viewBox="0 0 21000 2500">
		<g class="page-margin" transform="translate(500, 500)">
			<g class="system" id="system-0000000932294898">
				<g class="section boundaryStart" id="section-L1F1" />
				<g class="measure" id="measure-L4">
					<g class="staff" id="staff-L4F1N1">
						<path d="M0 720 L4866 720" stroke="#000000" stroke-width="13" />
						<path d="M0 900 L4866 900" stroke="#000000" stroke-width="13" />
						<path d="M0 1080 L4866 1080" stroke="#000000" stroke-width="13" />
						<path d="M0 1260 L4866 1260" stroke="#000000" stroke-width="13" />
						<path d="M0 1440 L4866 1440" stroke="#000000" stroke-width="13" />
						<g class="clef" id="clef-0000000344988918">
							<use xlink:href="#E062" x="88" y="900" height="720px" width="720px" />
						</g>
						<g class="meterSig" id="msig-0000000022897926">
							<use xlink:href="#E082" x="769" y="900" height="720px" width="720px" />
							<use xlink:href="#E084" x="775" y="1260" height="720px" width="720px" />
						</g>
						<g class="ledgerLines above">
							<path d="M4439 540 L4718 540" stroke="#000000" stroke-width="22" />
						</g>
						<g class="layer" id="layer-L4F1N1">
							<g class="beam" id="beam-L5F1-L7F1">
								<polygon points="1584,1575 2787,1485 2787,1395 1584,1485 " />
								<polygon points="2185,1395 2787,1350 2787,1260 2185,1305 " />
								<g class="note" id="note-L5F1">
									<use xlink:href="#E0A4" x="1584" y="900" height="720px" width="720px" />
									<g class="stem">
										<rect x="1584" y="922" height="635" width="18" />
									</g>
									<g class="accid" id="accid-0000001298550996">
										<use xlink:href="#E262" x="1389" y="900" height="720px" width="720px" />
									</g>
								</g>
								<g class="note" id="note-L6F1">
									<use xlink:href="#E0A4" x="2176" y="720" height="720px" width="720px" />
									<g class="stem">
										<rect x="2176" y="742" height="770" width="18" />
									</g>
									<g class="accid" id="accid-0000001728607329">
										<use xlink:href="#E262" x="1981" y="720" height="720px" width="720px" />
									</g>
								</g>
								<g class="note" id="note-L7F1">
									<use xlink:href="#E0A4" x="2769" y="810" height="720px" width="720px" />
									<g class="stem">
										<rect x="2769" y="832" height="635" width="18" />
									</g>
									<g class="accid" id="accid-0000001341589873">
										<use xlink:href="#E262" x="2574" y="810" height="720px" width="720px" />
									</g>
								</g>
							</g>
							<g class="beam" id="beam-L8F1-L11F1">
								<polygon points="3136,1575 4488,1441 4488,1351 3136,1485 " />
								<polygon points="3136,1440 4488,1306 4488,1216 3136,1350 " />
								<g class="note" id="note-L8F1">
									<use xlink:href="#E0A4" x="3136" y="900" height="720px" width="720px" />
									<g class="stem">
										<rect x="3136" y="922" height="635" width="18" />
									</g>
									<g class="accid" id="accid-0000000519172873" />
								</g>
								<g class="note" id="note-L9F1">
									<use xlink:href="#E0A4" x="3502" y="720" height="720px" width="720px" />
									<g class="stem">
										<rect x="3502" y="742" height="778" width="18" />
									</g>
									<g class="accid" id="accid-0000000812506780" />
								</g>
								<g class="rest" id="rest-L10F1">
									<use xlink:href="#E4E7" x="3869" y="720" height="720px" width="720px" />
								</g>
								<g class="note" id="note-L11F1">
									<use xlink:href="#E0A4" x="4470" y="540" height="720px" width="720px" />
									<g class="stem">
										<rect x="4470" y="562" height="861" width="18" />
									</g>
									<g class="accid" id="accid-0000000617506731">
										<use xlink:href="#E262" x="4275" y="540" height="720px" width="720px" />
									</g>
								</g>
							</g>
						</g>
					</g>
					<g class="mNum autogenerated" id="mnum-0000001936681871" />
					<g class="barLineAttr" id="bline-0000000703265378">
						<path d="M4853 1440 L4853 720" stroke="#000000" stroke-width="27" />
					</g>
				</g>
				<g class="measure" id="measure-L12">
					<g class="staff" id="staff-L12F1N1">
						<path d="M4866 720 L7672 720" stroke="#000000" stroke-width="13" />
						<path d="M4866 900 L7672 900" stroke="#000000" stroke-width="13" />
						<path d="M4866 1080 L7672 1080" stroke="#000000" stroke-width="13" />
						<path d="M4866 1260 L7672 1260" stroke="#000000" stroke-width="13" />
						<path d="M4866 1440 L7672 1440" stroke="#000000" stroke-width="13" />
						<g class="layer" id="layer-L12F1N1">
							<g class="beam" id="beam-L13F1-L15F1">
								<polygon points="5075,1935 6246,1819 6246,1729 5075,1845 " />
								<polygon points="5645,1743 6246,1684 6246,1594 5645,1653 " />
								<g class="rest" id="rest-L13F1">
									<use xlink:href="#E4E6" x="5075" y="1080" height="720px" width="720px" />
								</g>
								<g class="note" id="note-L14F1">
									<use xlink:href="#E0A4" x="5636" y="720" height="720px" width="720px" />
									<g class="stem">
										<rect x="5636" y="742" height="1118" width="18" />
									</g>
									<g class="accid" id="accid-0000001052824904">
										<use xlink:href="#E262" x="5441" y="720" height="720px" width="720px" />
									</g>
								</g>
								<g class="note" id="note-L15F1">
									<use xlink:href="#E0A4" x="6228" y="900" height="720px" width="720px" />
									<g class="stem">
										<rect x="6228" y="922" height="879" width="18" />
									</g>
									<g class="accid" id="accid-0000000374094523">
										<use xlink:href="#E262" x="6033" y="900" height="720px" width="720px" />
									</g>
								</g>
							</g>
							<g class="beam" id="beam-L16F1-L17F1">
								<polygon points="6595,1531 7286,1599 7286,1509 6595,1441 " />
								<g class="note" id="note-L16F1">
									<use xlink:href="#E0A4" x="6595" y="900" height="720px" width="720px" />
									<g class="dots" id="dots-0000000374459300">
										<ellipse cx="6911" cy="810" rx="36" ry="36" />
									</g>
									<g class="stem">
										<rect x="6595" y="922" height="591" width="18" />
									</g>
									<g class="accid" id="accid-0000001251579815" />
								</g>
								<g class="rest" id="rest-L17F1">
									<use xlink:href="#E4E7" x="7268" y="1080" height="720px" width="720px" />
								</g>
							</g>
						</g>
					</g>
					<g class="tie" id="tie-L15F1-L16F1">
						<path d="M6341,765 C6432,623 6614,623 6708,765 C6614,667 6432,667 6341,765" stroke="#000000" stroke-linecap="round" stroke-linejoin="round" stroke-width="9" />
					</g>
					<g class="mNum autogenerated" id="mnum-0000001392232576" />
					<g class="barLineAttr" id="bline-0000002036277719">
						<path d="M7659 1440 L7659 720" stroke="#000000" stroke-width="27" />
					</g>
				</g>
				<g class="measure" id="measure-L18">
					<g class="staff" id="staff-L18F1N1">
						<path d="M7672 720 L10712 720" stroke="#000000" stroke-width="13" />
						<path d="M7672 900 L10712 900" stroke="#000000" stroke-width="13" />
						<path d="M7672 1080 L10712 1080" stroke="#000000" stroke-width="13" />
						<path d="M7672 1260 L10712 1260" stroke="#000000" stroke-width="13" />
						<path d="M7672 1440 L10712 1440" stroke="#000000" stroke-width="13" />
						<g class="ledgerLines above">
							<path d="M10285 540 L10564 540" stroke="#000000" stroke-width="22" />
						</g>
						<g class="layer" id="layer-L18F1N1">
							<g class="beam" id="beam-L19F1-L21F1">
								<polygon points="7881,1582 8860,1485 8860,1395 7881,1492 " />
								<polygon points="8484,1387 8860,1350 8860,1260 8484,1297 " />
								<g class="note" id="note-L19F1">
									<use xlink:href="#E0A4" x="7881" y="900" height="720px" width="720px" />
									<g class="stem">
										<rect x="7881" y="922" height="642" width="18" />
									</g>
									<g class="accid" id="accid-0000002104291302" />
								</g>
								<g class="note" id="note-L20F1">
									<use xlink:href="#E0A4" x="8475" y="630" height="720px" width="720px" />
									<g class="stem">
										<rect x="8475" y="652" height="852" width="18" />
									</g>
									<g class="accid" id="accid-0000001017871717">
										<use xlink:href="#E260" x="8279" y="630" height="720px" width="720px" />
									</g>
								</g>
								<g class="note" id="note-L21F1">
									<use xlink:href="#E0A4" x="8842" y="810" height="720px" width="720px" />
									<g class="stem">
										<rect x="8842" y="832" height="635" width="18" />
									</g>
									<g class="accid" id="accid-0000000574810215" />
								</g>
							</g>
							<g class="beam" id="beam-L22F1-L25F1">
								<polygon points="9208,1575 10334,1464 10334,1374 9208,1485 " />
								<polygon points="9208,1440 10334,1329 10334,1239 9208,1350 " />
								<g class="note" id="note-L22F1">
									<use xlink:href="#E0A4" x="9208" y="900" height="720px" width="720px" />
									<g class="stem">
										<rect x="9208" y="922" height="635" width="18" />
									</g>
									<g class="accid" id="accid-0000001516276616" />
								</g>
								<g class="note" id="note-L23F1">
									<use xlink:href="#E0A4" x="9575" y="630" height="720px" width="720px" />
									<g class="stem">
										<rect x="9575" y="652" height="868" width="18" />
									</g>
									<g class="accid" id="accid-0000000605257600" />
								</g>
								<g class="rest" id="rest-L24F1">
									<use xlink:href="#E4E7" x="9942" y="720" height="720px" width="720px" />
								</g>
								<g class="note" id="note-L25F1">
									<use xlink:href="#E0A4" x="10316" y="540" height="720px" width="720px" />
									<g class="stem">
										<rect x="10316" y="562" height="884" width="18" />
									</g>
									<g class="accid" id="accid-0000001844672439" />
								</g>
							</g>
						</g>
					</g>
					<g class="mNum autogenerated" id="mnum-0000001348410553" />
					<g class="barLineAttr" id="bline-0000000422783627">
						<path d="M10699 1440 L10699 720" stroke="#000000" stroke-width="27" />
					</g>
				</g>
				<g class="measure" id="measure-L26">
					<g class="staff" id="staff-L26F1N1">
						<path d="M10712 720 L13480 720" stroke="#000000" stroke-width="13" />
						<path d="M10712 900 L13480 900" stroke="#000000" stroke-width="13" />
						<path d="M10712 1080 L13480 1080" stroke="#000000" stroke-width="13" />
						<path d="M10712 1260 L13480 1260" stroke="#000000" stroke-width="13" />
						<path d="M10712 1440 L13480 1440" stroke="#000000" stroke-width="13" />
						<g class="layer" id="layer-L26F1N1">
							<g class="beam" id="beam-L27F1-L29F1">
								<polygon points="10921,1935 12054,1823 12054,1733 10921,1845 " />
								<polygon points="11452,1747 12054,1688 12054,1598 11452,1657 " />
								<g class="rest" id="rest-L27F1">
									<use xlink:href="#E4E6" x="10921" y="1080" height="720px" width="720px" />
								</g>
								<g class="note" id="note-L28F1">
									<use xlink:href="#E0A4" x="11443" y="630" height="720px" width="720px" />
									<g class="stem">
										<rect x="11443" y="652" height="1212" width="18" />
									</g>
									<g class="accid" id="accid-0000001525813305" />
								</g>
								<g class="note" id="note-L29F1">
									<use xlink:href="#E0A4" x="12036" y="900" height="720px" width="720px" />
									<g class="stem">
										<rect x="12036" y="922" height="883" width="18" />
									</g>
									<g class="accid" id="accid-0000000556443716">
										<use xlink:href="#E262" x="11841" y="900" height="720px" width="720px" />
									</g>
								</g>
							</g>
							<g class="beam" id="beam-L30F1-L31F1">
								<polygon points="12403,1531 13094,1599 13094,1509 12403,1441 " />
								<g class="note" id="note-L30F1">
									<use xlink:href="#E0A4" x="12403" y="900" height="720px" width="720px" />
									<g class="dots" id="dots-0000001135965491">
										<ellipse cx="12719" cy="810" rx="36" ry="36" />
									</g>
									<g class="stem">
										<rect x="12403" y="922" height="591" width="18" />
									</g>
									<g class="accid" id="accid-0000000669116317" />
								</g>
								<g class="rest" id="rest-L31F1">
									<use xlink:href="#E4E7" x="13076" y="1080" height="720px" width="720px" />
								</g>
							</g>
						</g>
					</g>
					<g class="tie" id="tie-L29F1-L30F1">
						<path d="M12149,765 C12240,623 12422,623 12516,765 C12422,667 12240,667 12149,765" stroke="#000000" stroke-linecap="round" stroke-linejoin="round" stroke-width="9" />
					</g>
					<g class="mNum autogenerated" id="mnum-0000001396988870" />
					<g class="barLineAttr" id="bline-0000001628989218">
						<path d="M13467 1440 L13467 720" stroke="#000000" stroke-width="27" />
					</g>
				</g>
				<g class="measure" id="measure-L32">
					<g class="staff" id="staff-L32F1N1">
						<path d="M13480 720 L17198 720" stroke="#000000" stroke-width="13" />
						<path d="M13480 900 L17198 900" stroke="#000000" stroke-width="13" />
						<path d="M13480 1080 L17198 1080" stroke="#000000" stroke-width="13" />
						<path d="M13480 1260 L17198 1260" stroke="#000000" stroke-width="13" />
						<path d="M13480 1440 L17198 1440" stroke="#000000" stroke-width="13" />
						<g class="ledgerLines above">
							<path d="M16771 540 L17050 540" stroke="#000000" stroke-width="22" />
						</g>
						<g class="layer" id="layer-L32F1N1">
							<g class="beam" id="beam-L33F1-L35F1">
								<polygon points="13916,1575 15119,1485 15119,1395 13916,1485 " />
								<polygon points="14517,1395 15119,1350 15119,1260 14517,1305 " />
								<g class="note" id="note-L33F1">
									<use xlink:href="#E0A4" x="13916" y="900" height="720px" width="720px" />
									<g class="stem">
										<rect x="13916" y="922" height="635" width="18" />
									</g>
									<g class="accid" id="accid-0000001027811277">
										<use xlink:href="#E262" x="13721" y="900" height="720px" width="720px" />
									</g>
								</g>
								<g class="note" id="note-L34F1">
									<use xlink:href="#E0A4" x="14508" y="720" height="720px" width="720px" />
									<g class="stem">
										<rect x="14508" y="742" height="770" width="18" />
									</g>
									<g class="accid" id="accid-0000000011130739">
										<use xlink:href="#E262" x="14313" y="720" height="720px" width="720px" />
									</g>
								</g>
								<g class="note" id="note-L35F1">
									<use xlink:href="#E0A4" x="15101" y="810" height="720px" width="720px" />
									<g class="stem">
										<rect x="15101" y="832" height="635" width="18" />
									</g>
									<g class="accid" id="accid-0000001693202547">
										<use xlink:href="#E262" x="14906" y="810" height="720px" width="720px" />
									</g>
								</g>
							</g>
							<g class="beam" id="beam-L36F1-L39F1">
								<polygon points="15468,1575 16820,1441 16820,1351 15468,1485 " />
								<polygon points="15468,1440 16820,1306 16820,1216 15468,1350 " />
								<g class="note" id="note-L36F1">
									<use xlink:href="#E0A4" x="15468" y="900" height="720px" width="720px" />
									<g class="stem">
										<rect x="15468" y="922" height="635" width="18" />
									</g>
									<g class="accid" id="accid-0000000144710099" />
								</g>
								<g class="note" id="note-L37F1">
									<use xlink:href="#E0A4" x="15834" y="720" height="720px" width="720px" />
									<g class="stem">
										<rect x="15834" y="742" height="778" width="18" />
									</g>
									<g class="accid" id="accid-0000000739676289" />
								</g>
								<g class="rest" id="rest-L38F1">
									<use xlink:href="#E4E7" x="16201" y="720" height="720px" width="720px" />
								</g>
								<g class="note" id="note-L39F1">
									<use xlink:href="#E0A4" x="16802" y="540" height="720px" width="720px" />
									<g class="stem">
										<rect x="16802" y="562" height="861" width="18" />
									</g>
									<g class="accid" id="accid-0000001438538117">
										<use xlink:href="#E262" x="16607" y="540" height="720px" width="720px" />
									</g>
								</g>
							</g>
						</g>
					</g>
					<g class="mNum autogenerated" id="mnum-0000000043854208" />
					<g class="barLineAttr" id="bline-0000001399865921">
						<path d="M17185 1440 L17185 720" stroke="#000000" stroke-width="27" />
					</g>
				</g>
				<g class="measure" id="measure-L40">
					<g class="staff" id="staff-L40F1N1">
						<path d="M17198 720 L20004 720" stroke="#000000" stroke-width="13" />
						<path d="M17198 900 L20004 900" stroke="#000000" stroke-width="13" />
						<path d="M17198 1080 L20004 1080" stroke="#000000" stroke-width="13" />
						<path d="M17198 1260 L20004 1260" stroke="#000000" stroke-width="13" />
						<path d="M17198 1440 L20004 1440" stroke="#000000" stroke-width="13" />
						<g class="layer" id="layer-L40F1N1">
							<g class="beam" id="beam-L41F1-L43F1">
								<polygon points="17407,1935 18578,1819 18578,1729 17407,1845 " />
								<polygon points="17977,1743 18578,1684 18578,1594 17977,1653 " />
								<g class="rest" id="rest-L41F1">
									<use xlink:href="#E4E6" x="17407" y="1080" height="720px" width="720px" />
								</g>
								<g class="note" id="note-L42F1">
									<use xlink:href="#E0A4" x="17968" y="720" height="720px" width="720px" />
									<g class="stem">
										<rect x="17968" y="742" height="1118" width="18" />
									</g>
									<g class="accid" id="accid-0000001736653926">
										<use xlink:href="#E262" x="17773" y="720" height="720px" width="720px" />
									</g>
								</g>
								<g class="note" id="note-L43F1">
									<use xlink:href="#E0A4" x="18560" y="900" height="720px" width="720px" />
									<g class="stem">
										<rect x="18560" y="922" height="879" width="18" />
									</g>
									<g class="accid" id="accid-0000000421306022">
										<use xlink:href="#E262" x="18365" y="900" height="720px" width="720px" />
									</g>
								</g>
							</g>
							<g class="beam" id="beam-L44F1-L45F1">
								<polygon points="18927,1531 19618,1599 19618,1509 18927,1441 " />
								<g class="note" id="note-L44F1">
									<use xlink:href="#E0A4" x="18927" y="900" height="720px" width="720px" />
									<g class="dots" id="dots-0000001012826641">
										<ellipse cx="19243" cy="810" rx="36" ry="36" />
									</g>
									<g class="stem">
										<rect x="18927" y="922" height="591" width="18" />
									</g>
									<g class="accid" id="accid-0000001065190022" />
								</g>
								<g class="rest" id="rest-L45F1">
									<use xlink:href="#E4E7" x="19600" y="1080" height="720px" width="720px" />
								</g>
							</g>
						</g>
					</g>
					<g class="tie" id="tie-L43F1-L44F1">
						<path d="M18673,765 C18764,623 18946,623 19040,765 C18946,667 18764,667 18673,765" stroke="#000000" stroke-linecap="round" stroke-linejoin="round" stroke-width="9" />
					</g>
					<g class="mNum autogenerated" id="mnum-0000001119032997" />
					<g class="barLineAttr" id="bline-0000001153344507">
						<path d="M19991 1440 L19991 720" stroke="#000000" stroke-width="27" />
					</g>
				</g>
			</g>
		</g>
	</svg>
</svg>
