<?xml version="1.0" encoding="UTF-8" standalone="no"?>
<svg width="2100.00px" height="250.00px" version="1.1" xmlns="http://www.w3.org/2000/svg" xmlns:xlink="http://www.w3.org/1999/xlink" overflow="visible">
	<desc>Engraved by Verovio 2.0.0-dev-0f0381c</desc>
	<defs>
		<symbol id="E062" viewBox="0 0 1000 1000" overflow="inherit">
			<path transform="scale(1,-1)" d="M158 96c51 0 73 -14 88 -49l16 -39c0 -17 -2 -30 -7 -40c-3 -11 -10 -21 -19 -31c-17 -18 -49 -43 -84 -43c-55 0 -77 13 -112 44c-24 21 -35 55 -35 100c0 46 14 81 32 112c30 52 71 79 137 93l36 6l26 2c154 0 235 -68 274 -182c11 -32 18 -68 18 -107 c0 -103 -26 -182 -68 -250c-89 -145 -234 -230 -412 -288l-30 -5c-9 0 -14 3 -14 8c3 10 5 11 10 16c35 15 70 30 96 44l78 43c96 57 162 136 197 258c9 33 17 60 22 100c3 22 5 35 6 39c-7 69 -16 115 -23 140s-4 22 -16 40c-8 12 -19 23 -31 34c-24 21 -62 44 -118 44 c-48 0 -84 -8 -113 -28c-28 -19 -42 -44 -42 -73v-16c2 -5 3 -9 4 -11c24 22 52 39 84 39zM585 -118c0 32 23 58 57 58c18 0 33 -6 40 -18c9 -15 16 -18 16 -40c0 -9 -2 -16 -5 -21c-6 -19 -27 -37 -51 -37c-34 0 -57 26 -57 58zM642 177c31 0 56 -27 56 -58 c0 -30 -25 -58 -56 -58l-23 3c-19 7 -34 32 -34 55l3 23c9 20 28 35 54 35z" />
		</symbol>
		<symbol id="E082" viewBox="0 0 1000 1000" overflow="inherit">
			<path transform="scale(1,-1)" d="M104 -185c-18 0 -55 -14 -65 -65h-36l-3 29c0 25 6 46 18 64c11 19 22 30 39 43l121 82l37 29c15 11 27 29 38 54c12 24 18 47 18 70c0 40 -19 88 -94 88c-25 0 -32 0 -50 -8c-14 -5 -23 -12 -26 -22c3 -9 7 -15 10 -18l24 -17c12 -7 17 -11 27 -21c5 -7 7 -16 7 -27 c0 -12 0 -57 -79 -74c-30 0 -76 26 -76 94c0 66 80 135 196 135c72 0 182 -32 182 -150c0 -53 -32 -95 -113 -133l-91 -41c-26 -11 -45 -23 -57 -37l49 7c84 0 115 -41 148 -41c20 0 33 20 39 61h35c0 -152 -68 -168 -114 -168c-17 0 -55 0 -69 7v0l-28 17 c-49 37 -69 40 -87 42z" />
		</symbol>
		<symbol id="E084" viewBox="0 0 1000 1000" overflow="inherit">
			<path transform="scale(1,-1)" d="M0 -78c84 97 114 180 134 329h170c-13 -32 -82 -132 -99 -151l-84 -97c-33 -36 -59 -63 -80 -81h162v102l127 123v-225h57v-39h-57v-34c0 -43 19 -65 57 -65v-34h-244v36c48 0 60 26 60 70v27h-203v39z" />
		</symbol>
		<symbol id="E0A4" viewBox="0 0 1000 1000" overflow="inherit">
			<path transform="scale(1,-1)" d="M0 -39c0 68 73 172 200 172c66 0 114 -37 114 -95c0 -84 -106 -171 -218 -171c-64 0 -96 30 -96 94z" />
		</symbol>
		<symbol id="E262" viewBox="0 0 1000 1000" overflow="inherit">
			<path transform="scale(1,-1)" d="M136 186v169h17v-164l44 14v-91l-44 -14v-165l44 12v-91l-44 -13v-155h-17v150l-76 -22v-155h-17v149l-43 -13v90l43 14v167l-43 -14v92l43 13v169h17v-163zM60 73v-167l76 22v168z" />
		</symbol>
		<symbol id="E4E6" viewBox="0 0 1000 1000" overflow="inherit">
			<path transform="scale(1,-1)" d="M0 123c7 34 33 56 69 60c29 -3 43 -9 53 -29c4 -8 7 -15 10 -22c0 -21 -1 -25 -11 -35c-5 -8 -18 -14 -40 -20l12 -3l15 -1c44 0 97 26 122 56c10 11 18 26 24 42c7 1 15 2 22 3l-140 -424h-36l111 330c-10 -6 -27 -12 -53 -16l-52 -8h-10l-20 1c-1 0 -8 3 -21 6 c-37 9 -55 28 -55 60z" />
		</symbol>
		<symbol id="E4E7" viewBox="0 0 1000 1000" overflow="inherit">
			<path transform="scale(1,-1)" d="M133 -111c-16 38 -21 43 -64 51c-37 -4 -60 -25 -68 -60c0 -32 18 -52 55 -58c8 -6 22 -10 43 -10c31 0 62 7 82 20l-108 -324h37c72 220 143 439 215 659h-4l-10 -2l-7 -1c-15 -35 -27 -52 -59 -71c-26 -15 -56 -27 -88 -29c-11 0 -20 2 -26 6c29 3 56 25 51 56 c-15 35 -19 42 -64 48c-38 -4 -60 -23 -68 -58c0 -32 18 -52 55 -59c7 -5 22 -8 45 -8c48 0 76 7 112 25l-66 -197c-21 -23 -50 -47 -90 -47c-7 0 -15 1 -25 4c31 5 52 22 52 55z" />
		</symbol>
	</defs>
	<style type="text/css">g.page-margin{font-family:Times;} g.tempo{font-weight:bold;} g.dir, g.dynam, g.mNum{font-style:italic;} g.label{font-weight:normal;}</style>
	<svg class="definition-scale" viewBox="0 0 21000 2500">
		<g class="page-margin" transform="translate(500, 500)">
			<g class="system" id="system-0000000390290238">
				<g class="section boundaryStart" id="section-L1F1" />
				<g class="measure" id="measure-L4">
					<g class="staff" id="staff-L4F1N1">
						<path d="M0 720 L3790 720" stroke="#000000" stroke-width="13" />
						<path d="M0 900 L3790 900" stroke="#000000" stroke-width="13" />
						<path d="M0 1080 L3790 1080" stroke="#000000" stroke-width="13" />
						<path d="M0 1260 L3790 1260" stroke="#000000" stroke-width="13" />
						<path d="M0 1440 L3790 1440" stroke="#000000" stroke-width="13" />
						<g class="clef" id="clef-0000000442328995">
							<use xlink:href="#E062" x="88" y="900" height="720px" width="720px" />
						</g>
						<g class="meterSig" id="msig-0000001782516698">
							<use xlink:href="#E082" x="769" y="900" height="720px" width="720px" />
							<use xlink:href="#E084" x="775" y="1260" height="720px" width="720px" />
						</g>
						<g class="layer" id="layer-L4F1N1">
							<g class="beam" id="beam-L5F1-L6F1">
								<polygon points="1534,1531 2014,1578 2014,1488 1534,1441 " />
								<g class="note" id="note-L5F1">
									<use xlink:href="#E0A4" x="1534" y="900" height="720px" width="720px" />
									<g class="stem">
										<rect x="1534" y="922" height="591" width="18" />
									</g>
									<g class="accid" id="accid-0000000029054014">
										<use xlink:href="#E262" x="1339" y="900" height="720px" width="720px" />
									</g>
								</g>
								<g class="rest" id="rest-L6F1">
									<use xlink:href="#E4E6" x="1996" y="1080" height="720px" width="720px" />
								</g>
							</g>
							<g class="beam" id="beam-L7F1-L9F1">
								<polygon points="2458,1935 3333,1849 3333,1759 2458,1845 " />
								<polygon points="2458,1800 2999,1746 2999,1656 2458,1710 " />
								<g class="rest" id="rest-L7F1">
									<use xlink:href="#E4E7" x="2458" y="1080" height="720px" width="720px" />
								</g>
								<g class="note" id="note-L8F1">
									<use xlink:href="#E0A4" x="2990" y="1080" height="720px" width="720px" />
									<g class="stem">
										<rect x="2990" y="1102" height="761" width="18" />
									</g>
									<g class="accid" id="accid-0000001663257198">
										<use xlink:href="#E262" x="2795" y="1080" height="720px" width="720px" />
									</g>
								</g>
								<g class="note" id="note-L9F1">
									<use xlink:href="#E0A4" x="3315" y="900" height="720px" width="720px" />
									<g class="stem">
										<rect x="3315" y="922" height="909" width="18" />
									</g>
									<g class="accid" id="accid-0000002014598018" />
								</g>
							</g>
						</g>
					</g>
					<g class="tie" id="tie-L9F1-L11F1">
						<path d="M3563,855 C3660,713 3854,713 3953,855 C3854,757 3660,757 3563,855" stroke="#000000" stroke-linecap="round" stroke-linejoin="round" stroke-width="9" />
					</g>
					<g class="mNum autogenerated" id="mnum-0000000846076790" />
					<g class="barLineAttr" id="bline-0000000480461072">
						<path d="M3777 1440 L3777 720" stroke="#000000" stroke-width="27" />
					</g>
				</g>
				<g class="measure" id="measure-L10">
					<g class="staff" id="staff-L10F1N1">
						<path d="M3790 720 L7020 720" stroke="#000000" stroke-width="13" />
						<path d="M3790 900 L7020 900" stroke="#000000" stroke-width="13" />
						<path d="M3790 1080 L7020 1080" stroke="#000000" stroke-width="13" />
						<path d="M3790 1260 L7020 1260" stroke="#000000" stroke-width="13" />
						<path d="M3790 1440 L7020 1440" stroke="#000000" stroke-width="13" />
						<g class="ledgerLines above">
							<path d="M4994 540 L5273 540" stroke="#000000" stroke-width="22" />
							<path d="M5843 540 L6122 540" stroke="#000000" stroke-width="22" />
						</g>
						<g class="layer" id="layer-L10F1N1">
							<g class="beam" id="beam-L11F1-L14F1">
								<polygon points="3975,1620 5568,1485 5568,1395 3975,1530 " />
								<polygon points="3975,1485 5568,1350 5568,1260 3975,1395 " />
								<g class="note" id="note-L11F1">
									<use xlink:href="#E0A4" x="3975" y="900" height="720px" width="720px" />
									<g class="stem">
										<rect x="3975" y="922" height="680" width="18" />
									</g>
									<g class="accid" id="accid-0000002146924925" />
								</g>
								<g class="note" id="note-L12F1">
									<use xlink:href="#E0A4" x="4500" y="720" height="720px" width="720px" />
									<g class="stem">
										<rect x="4500" y="742" height="815" width="18" />
									</g>
									<g class="accid" id="accid-0000002027080840">
										<use xlink:href="#E262" x="4305" y="720" height="720px" width="720px" />
									</g>
								</g>
								<g class="note" id="note-L13F1">
									<use xlink:href="#E0A4" x="5025" y="540" height="720px" width="720px" />
									<g class="stem">
										<rect x="5025" y="562" height="950" width="18" />
									</g>
									<g class="accid" id="accid-0000000173927850">
										<use xlink:href="#E262" x="4830" y="540" height="720px" width="720px" />
									</g>
								</g>
								<g class="note" id="note-L14F1">
									<use xlink:href="#E0A4" x="5550" y="810" height="720px" width="720px" />
									<g class="stem">
										<rect x="5550" y="832" height="635" width="18" />
									</g>
									<g class="accid" id="accid-0000001472092302">
										<use xlink:href="#E262" x="5355" y="810" height="720px" width="720px" />
									</g>
								</g>
							</g>
							<g class="beam" id="beam-L15F1-L17F1">
								<polygon points="5874,1362 6679,1441 6679,1351 5874,1272 " />
								<polygon points="5874,1227 6032,1242 6032,1152 5874,1137 " />
								<polygon points="6521,1291 6679,1306 6679,1216 6521,1201 " />
								<g class="note" id="note-L15F1">
									<use xlink:href="#E0A4" x="5874" y="540" height="720px" width="720px" />
									<g class="stem">
										<rect x="5874" y="562" height="782" width="18" />
									</g>
									<g class="accid" id="accid-0000000329720680" />
								</g>
								<g class="note" id="note-L16F1">
									<use xlink:href="#E0A4" x="6199" y="720" height="720px" width="720px" />
									<g class="stem">
										<rect x="6199" y="742" height="635" width="18" />
									</g>
									<g class="accid" id="accid-0000002044964304" />
								</g>
								<g class="rest" id="rest-L17F1">
									<use xlink:href="#E4E7" x="6661" y="1080" height="720px" width="720px" />
								</g>
							</g>
						</g>
					</g>
					<g class="mNum autogenerated" id="mnum-0000001193722067" />
					<g class="barLineAttr" id="bline-0000001290791377">
						<path d="M7007 1440 L7007 720" stroke="#000000" stroke-width="27" />
					</g>
				</g>
				<g class="measure" id="measure-L18">
					<g class="staff" id="staff-L18F1N1">
						<path d="M7020 720 L9261 720" stroke="#000000" stroke-width="13" />
						<path d="M7020 900 L9261 900" stroke="#000000" stroke-width="13" />
						<path d="M7020 1080 L9261 1080" stroke="#000000" stroke-width="13" />
						<path d="M7020 1260 L9261 1260" stroke="#000000" stroke-width="13" />
						<path d="M7020 1440 L9261 1440" stroke="#000000" stroke-width="13" />
						<g class="layer" id="layer-L18F1N1">
							<g class="beam" id="beam-L19F1-L20F1">
								<polygon points="7205,1531 7686,1578 7686,1488 7205,1441 " />
								<g class="note" id="note-L19F1">
									<use xlink:href="#E0A4" x="7205" y="900" height="720px" width="720px" />
									<g class="stem">
										<rect x="7205" y="922" height="591" width="18" />
									</g>
									<g class="accid" id="accid-0000000643234703" />
								</g>
								<g class="rest" id="rest-L20F1">
									<use xlink:href="#E4E6" x="7668" y="1080" height="720px" width="720px" />
								</g>
							</g>
							<g class="beam" id="beam-L21F1-L23F1">
								<polygon points="8130,1935 8804,1869 8804,1779 8130,1845 " />
								<polygon points="8130,1800 8470,1766 8470,1676 8130,1710 " />
								<g class="rest" id="rest-L21F1">
									<use xlink:href="#E4E7" x="8130" y="1080" height="720px" width="720px" />
								</g>
								<g class="note" id="note-L22F1">
									<use xlink:href="#E0A4" x="8461" y="1080" height="720px" width="720px" />
									<g class="stem">
										<rect x="8461" y="1102" height="781" width="18" />
									</g>
									<g class="accid" id="accid-0000001556812165" />
								</g>
								<g class="note" id="note-L23F1">
									<use xlink:href="#E0A4" x="8786" y="900" height="720px" width="720px" />
									<g class="stem">
										<rect x="8786" y="922" height="929" width="18" />
									</g>
									<g class="accid" id="accid-0000001585860769" />
								</g>
							</g>
						</g>
					</g>
					<g class="tie" id="tie-L23F1-L25F1">
						<path d="M9034,855 C9131,713 9325,713 9424,855 C9325,757 9131,757 9034,855" stroke="#000000" stroke-linecap="round" stroke-linejoin="round" stroke-width="9" />
					</g>
					<g class="mNum autogenerated" id="mnum-0000000753484363" />
					<g class="barLineAttr" id="bline-0000000861954807">
						<path d="M9248 1440 L9248 720" stroke="#000000" stroke-width="27" />
					</g>
				</g>
				<g class="measure" id="measure-L24">
					<g class="staff" id="staff-L24F1N1">
						<path d="M9261 720 L11890 720" stroke="#000000" stroke-width="13" />
						<path d="M9261 900 L11890 900" stroke="#000000" stroke-width="13" />
						<path d="M9261 1080 L11890 1080" stroke="#000000" stroke-width="13" />
						<path d="M9261 1260 L11890 1260" stroke="#000000" stroke-width="13" />
						<path d="M9261 1440 L11890 1440" stroke="#000000" stroke-width="13" />
						<g class="ledgerLines above">
							<path d="M10064 540 L10343 540" stroke="#000000" stroke-width="22" />
							<path d="M10714 540 L10993 540" stroke="#000000" stroke-width="22" />
						</g>
						<g class="layer" id="layer-L24F1N1">
							<g class="beam" id="beam-L25F1-L28F1">
								<polygon points="9446,1575 10438,1477 10438,1387 9446,1485 " />
								<polygon points="9446,1440 10438,1342 10438,1252 9446,1350 " />
								<g class="note" id="note-L25F1">
									<use xlink:href="#E0A4" x="9446" y="900" height="720px" width="720px" />
									<g class="stem">
										<rect x="9446" y="922" height="635" width="18" />
									</g>
									<g class="accid" id="accid-0000001425302280" />
								</g>
								<g class="note" id="note-L26F1">
									<use xlink:href="#E0A4" x="9771" y="630" height="720px" width="720px" />
									<g class="stem">
										<rect x="9771" y="652" height="872" width="18" />
									</g>
									<g class="accid" id="accid-0000000744343197" />
								</g>
								<g class="note" id="note-L27F1">
									<use xlink:href="#E0A4" x="10095" y="450" height="720px" width="720px" />
									<g class="stem">
										<rect x="10095" y="472" height="1020" width="18" />
									</g>
									<g class="accid" id="accid-0000001616610774" />
								</g>
								<g class="note" id="note-L28F1">
									<use xlink:href="#E0A4" x="10420" y="720" height="720px" width="720px" />
									<g class="stem">
										<rect x="10420" y="742" height="717" width="18" />
									</g>
									<g class="accid" id="accid-0000001074540691" />
								</g>
							</g>
							<g class="beam" id="beam-L29F1-L31F1">
								<polygon points="10745,1272 11549,1351 11549,1261 10745,1182 " />
								<polygon points="10745,1137 10903,1152 10903,1062 10745,1047 " />
								<polygon points="11391,1201 11549,1216 11549,1126 11391,1111 " />
								<g class="note" id="note-L29F1">
									<use xlink:href="#E0A4" x="10745" y="450" height="720px" width="720px" />
									<g class="stem">
										<rect x="10745" y="472" height="782" width="18" />
									</g>
									<g class="accid" id="accid-0000000074579188" />
								</g>
								<g class="note" id="note-L30F1">
									<use xlink:href="#E0A4" x="11069" y="630" height="720px" width="720px" />
									<g class="stem">
										<rect x="11069" y="652" height="635" width="18" />
									</g>
									<g class="accid" id="accid-0000000925637105" />
								</g>
								<g class="rest" id="rest-L31F1">
									<use xlink:href="#E4E7" x="11531" y="1080" height="720px" width="720px" />
								</g>
							</g>
						</g>
					</g>
					<g class="mNum autogenerated" id="mnum-0000001094105485" />
					<g class="barLineAttr" id="bline-0000001579598503">
						<path d="M11877 1440 L11877 720" stroke="#000000" stroke-width="27" />
					</g>
				</g>
				<g class="measure" id="measure-L32">
					<g class="staff" id="staff-L32F1N1">
						<path d="M11890 720 L14532 720" stroke="#000000" stroke-width="13" />
						<path d="M11890 900 L14532 900" stroke="#000000" stroke-width="13" />
						<path d="M11890 1080 L14532 1080" stroke="#000000" stroke-width="13" />
						<path d="M11890 1260 L14532 1260" stroke="#000000" stroke-width="13" />
						<path d="M11890 1440 L14532 1440" stroke="#000000" stroke-width="13" />
						<g class="layer" id="layer-L32F1N1">
							<g class="beam" id="beam-L33F1-L34F1">
								<polygon points="12276,1531 12756,1578 12756,1488 12276,1441 " />
								<g class="note" id="note-L33F1">
									<use xlink:href="#E0A4" x="12276" y="900" height="720px" width="720px" />
									<g class="stem">
										<rect x="12276" y="922" height="591" width="18" />
									</g>
									<g class="accid" id="accid-0000000195809404">
										<use xlink:href="#E262" x="12081" y="900" height="720px" width="720px" />
									</g>
								</g>
								<g class="rest" id="rest-L34F1">
									<use xlink:href="#E4E6" x="12738" y="1080" height="720px" width="720px" />
								</g>
							</g>
							<g class="beam" id="beam-L35F1-L37F1">
								<polygon points="13200,1935 14075,1849 14075,1759 13200,1845 " />
								<polygon points="13200,1800 13741,1746 13741,1656 13200,1710 " />
								<g class="rest" id="rest-L35F1">
									<use xlink:href="#E4E7" x="13200" y="1080" height="720px" width="720px" />
								</g>
								<g class="note" id="note-L36F1">
									<use xlink:href="#E0A4" x="13732" y="1080" height="720px" width="720px" />
									<g class="stem">
										<rect x="13732" y="1102" height="761" width="18" />
									</g>
									<g class="accid" id="accid-0000000490492475">
										<use xlink:href="#E262" x="13537" y="1080" height="720px" width="720px" />
									</g>
								</g>
								<g class="note" id="note-L37F1">
									<use xlink:href="#E0A4" x="14057" y="900" height="720px" width="720px" />
									<g class="stem">
										<rect x="14057" y="922" height="909" width="18" />
									</g>
									<g class="accid" id="accid-0000000563429410" />
								</g>
							</g>
						</g>
					</g>
					<g class="tie" id="tie-L37F1-L39F1">
						<path d="M14305,855 C14402,713 14596,713 14695,855 C14596,757 14402,757 14305,855" stroke="#000000" stroke-linecap="round" stroke-linejoin="round" stroke-width="9" />
					</g>
					<g class="mNum autogenerated" id="mnum-0000001057004660" />
					<g class="barLineAttr" id="bline-0000000564216823">
						<path d="M14519 1440 L14519 720" stroke="#000000" stroke-width="27" />
					</g>
				</g>
				<g class="measure" id="measure-L38">
					<g class="staff" id="staff-L38F1N1">
						<path d="M14532 720 L17762 720" stroke="#000000" stroke-width="13" />
						<path d="M14532 900 L17762 900" stroke="#000000" stroke-width="13" />
						<path d="M14532 1080 L17762 1080" stroke="#000000" stroke-width="13" />
						<path d="M14532 1260 L17762 1260" stroke="#000000" stroke-width="13" />
						<path d="M14532 1440 L17762 1440" stroke="#000000" stroke-width="13" />
						<g class="ledgerLines above">
							<path d="M15736 540 L16015 540" stroke="#000000" stroke-width="22" />
							<path d="M16585 540 L16864 540" stroke="#000000" stroke-width="22" />
						</g>
						<g class="layer" id="layer-L38F1N1">
							<g class="beam" id="beam-L39F1-L42F1">
								<polygon points="14717,1620 16310,1485 16310,1395 14717,1530 " />
								<polygon points="14717,1485 16310,1350 16310,1260 14717,1395 " />
								<g class="note" id="note-L39F1">
									<use xlink:href="#E0A4" x="14717" y="900" height="720px" width="720px" />
									<g class="stem">
										<rect x="14717" y="922" height="680" width="18" />
									</g>
									<g class="accid" id="accid-0000001053925191" />
								</g>
								<g class="note" id="note-L40F1">
									<use xlink:href="#E0A4" x="15242" y="720" height="720px" width="720px" />
									<g class="stem">
										<rect x="15242" y="742" height="815" width="18" />
									</g>
									<g class="accid" id="accid-0000001057644323">
										<use xlink:href="#E262" x="15047" y="720" height="720px" width="720px" />
									</g>
								</g>
								<g class="note" id="note-L41F1">
									<use xlink:href="#E0A4" x="15767" y="540" height="720px" width="720px" />
									<g class="stem">
										<rect x="15767" y="562" height="950" width="18" />
									</g>
									<g class="accid" id="accid-0000001910393909">
										<use xlink:href="#E262" x="15572" y="540" height="720px" width="720px" />
									</g>
								</g>
								<g class="note" id="note-L42F1">
									<use xlink:href="#E0A4" x="16292" y="810" height="720px" width="720px" />
									<g class="stem">
										<rect x="16292" y="832" height="635" width="18" />
									</g>
									<g class="accid" id="accid-0000000584195458">
										<use xlink:href="#E262" x="16097" y="810" height="720px" width="720px" />
									</g>
								</g>
							</g>
							<g class="beam" id="beam-L43F1-L45F1">
								<polygon points="16616,1362 17421,1441 17421,1351 16616,1272 " />
								<polygon points="16616,1227 16774,1242 16774,1152 16616,1137 " />
								<polygon points="17263,1291 17421,1306 17421,1216 17263,1201 " />
								<g class="note" id="note-L43F1">
									<use xlink:href="#E0A4" x="16616" y="540" height="720px" width="720px" />
									<g class="stem">
										<rect x="16616" y="562" height="782" width="18" />
									</g>
									<g class="accid" id="accid-0000000573302975" />
								</g>
								<g class="note" id="note-L44F1">
									<use xlink:href="#E0A4" x="16941" y="720" height="720px" width="720px" />
									<g class="stem">
										<rect x="16941" y="742" height="635" width="18" />
									</g>
									<g class="accid" id="accid-0000000574230540" />
								</g>
								<g class="rest" id="rest-L45F1">
									<use xlink:href="#E4E7" x="17403" y="1080" height="720px" width="720px" />
								</g>
							</g>
						</g>
					</g>
					<g class="mNum autogenerated" id="mnum-0000000071767755" />
					<g class="barLineAttr" id="bline-0000001913691188">
						<path d="M17749 1440 L17749 720" stroke="#000000" stroke-width="27" />
					</g>
				</g>
				<g class="measure" id="measure-L46">
					<g class="staff" id="staff-L46F1N1">
						<path d="M17762 720 L20003 720" stroke="#000000" stroke-width="13" />
						<path d="M17762 900 L20003 900" stroke="#000000" stroke-width="13" />
						<path d="M17762 1080 L20003 1080" stroke="#000000" stroke-width="13" />
						<path d="M17762 1260 L20003 1260" stroke="#000000" stroke-width="13" />
						<path d="M17762 1440 L20003 1440" stroke="#000000" stroke-width="13" />
						<g class="layer" id="layer-L46F1N1">
							<g class="beam" id="beam-L47F1-L48F1">
								<polygon points="17947,1531 18428,1578 18428,1488 17947,1441 " />
								<g class="note" id="note-L47F1">
									<use xlink:href="#E0A4" x="17947" y="900" height="720px" width="720px" />
									<g class="stem">
										<rect x="17947" y="922" height="591" width="18" />
									</g>
									<g class="accid" id="accid-0000001204524939" />
								</g>
								<g class="rest" id="rest-L48F1">
									<use xlink:href="#E4E6" x="18410" y="1080" height="720px" width="720px" />
								</g>
							</g>
							<g class="beam" id="beam-L49F1-L51F1">
								<polygon points="18872,1935 19546,1869 19546,1779 18872,1845 " />
								<polygon points="18872,1800 19212,1766 19212,1676 18872,1710 " />
								<g class="rest" id="rest-L49F1">
									<use xlink:href="#E4E7" x="18872" y="1080" height="720px" width="720px" />
								</g>
								<g class="note" id="note-L50F1">
									<use xlink:href="#E0A4" x="19203" y="1080" height="720px" width="720px" />
									<g class="stem">
										<rect x="19203" y="1102" height="781" width="18" />
									</g>
									<g class="accid" id="accid-0000000311581942" />
								</g>
								<g class="note" id="note-L51F1">
									<use xlink:href="#E0A4" x="19528" y="900" height="720px" width="720px" />
									<g class="stem">
										<rect x="19528" y="922" height="929" width="18" />
									</g>
									<g class="accid" id="accid-0000001022271605" />
								</g>
							</g>
						</g>
					</g>
					<g class="tie" id="tie-L51F1-L53F1">
						<path d="M19641,765 C19728,623 19902,623 19990,765 C19902,667 19728,667 19641,765" stroke="#000000" stroke-linecap="round" stroke-linejoin="round" stroke-width="9" />
					</g>
					<g class="mNum autogenerated" id="mnum-0000001616412358" />
					<g class="barLineAttr" id="bline-0000000795138578">
						<path d="M19990 1440 L19990 720" stroke="#000000" stroke-width="27" />
					</g>
				</g>
			</g>
		</g>
	</svg>
</svg>
