<?xml version="1.0" encoding="UTF-8" standalone="no"?>
<svg width="2100.00px" height="250.00px" version="1.1" xmlns="http://www.w3.org/2000/svg" xmlns:xlink="http://www.w3.org/1999/xlink" overflow="visible">
	<desc>Engraved by Verovio 2.0.0-dev-0f0381c</desc>
	<defs>
		<symbol id="E062" viewBox="0 0 1000 1000" overflow="inherit">
			<path transform="scale(1,-1)" d="M158 96c51 0 73 -14 88 -49l16 -39c0 -17 -2 -30 -7 -40c-3 -11 -10 -21 -19 -31c-17 -18 -49 -43 -84 -43c-55 0 -77 13 -112 44c-24 21 -35 55 -35 100c0 46 14 81 32 112c30 52 71 79 137 93l36 6l26 2c154 0 235 -68 274 -182c11 -32 18 -68 18 -107 c0 -103 -26 -182 -68 -250c-89 -145 -234 -230 -412 -288l-30 -5c-9 0 -14 3 -14 8c3 10 5 11 10 16c35 15 70 30 96 44l78 43c96 57 162 136 197 258c9 33 17 60 22 100c3 22 5 35 6 39c-7 69 -16 115 -23 140s-4 22 -16 40c-8 12 -19 23 -31 34c-24 21 -62 44 -118 44 c-48 0 -84 -8 -113 -28c-28 -19 -42 -44 -42 -73v-16c2 -5 3 -9 4 -11c24 22 52 39 84 39zM585 -118c0 32 23 58 57 58c18 0 33 -6 40 -18c9 -15 16 -18 16 -40c0 -9 -2 -16 -5 -21c-6 -19 -27 -37 -51 -37c-34 0 -57 26 -57 58zM642 177c31 0 56 -27 56 -58 c0 -30 -25 -58 -56 -58l-23 3c-19 7 -34 32 -34 55l3 23c9 20 28 35 54 35z" />
		</symbol>
		<symbol id="E082" viewBox="0 0 1000 1000" overflow="inherit">
			<path transform="scale(1,-1)" d="M104 -185c-18 0 -55 -14 -65 -65h-36l-3 29c0 25 6 46 18 64c11 19 22 30 39 43l121 82l37 29c15 11 27 29 38 54c12 24 18 47 18 70c0 40 -19 88 -94 88c-25 0 -32 0 -50 -8c-14 -5 -23 -12 -26 -22c3 -9 7 -15 10 -18l24 -17c12 -7 17 -11 27 -21c5 -7 7 -16 7 -27 c0 -12 0 -57 -79 -74c-30 0 -76 26 -76 94c0 66 80 135 196 135c72 0 182 -32 182 -150c0 -53 -32 -95 -113 -133l-91 -41c-26 -11 -45 -23 -57 -37l49 7c84 0 115 -41 148 -41c20 0 33 20 39 61h35c0 -152 -68 -168 -114 -168c-17 0 -55 0 -69 7v0l-28 17 c-49 37 -69 40 -87 42z" />
		</symbol>
		<symbol id="E084" viewBox="0 0 1000 1000" overflow="inherit">
			<path transform="scale(1,-1)" d="M0 -78c84 97 114 180 134 329h170c-13 -32 -82 -132 -99 -151l-84 -97c-33 -36 -59 -63 -80 -81h162v102l127 123v-225h57v-39h-57v-34c0 -43 19 -65 57 -65v-34h-244v36c48 0 60 26 60 70v27h-203v39z" />
		</symbol>
		<symbol id="E0A4" viewBox="0 0 1000 1000" overflow="inherit">
			<path transform="scale(1,-1)" d="M0 -39c0 68 73 172 200 172c66 0 114 -37 114 -95c0 -84 -106 -171 -218 -171c-64 0 -96 30 -96 94z" />
		</symbol>
		<symbol id="E262" viewBox="0 0 1000 1000" overflow="inherit">
			<path transform="scale(1,-1)" d="M136 186v169h17v-164l44 14v-91l-44 -14v-165l44 12v-91l-44 -13v-155h-17v150l-76 -22v-155h-17v149l-43 -13v90l43 14v167l-43 -14v92l43 13v169h17v-163zM60 73v-167l76 22v168z" />
		</symbol>
		<symbol id="E260" viewBox="0 0 1000 1000" overflow="inherit">
			<path transform="scale(1,-1)" d="M20 110c32 16 54 27 93 27c26 0 35 -3 54 -13c13 -7 24 -20 27 -38l4 -25c0 -28 -16 -57 -45 -89c-23 -25 -39 -44 -65 -68l-88 -79v644h20v-359zM90 106c-32 0 -48 -10 -70 -29v-194c31 31 54 59 71 84c21 32 32 59 32 84c0 9 1 16 1 20c0 14 -3 21 -11 30l-8 3z" />
		</symbol>
	</defs>
	<style type="text/css">g.page-margin{font-family:Times;} g.tempo{font-weight:bold;} g.dir, g.dynam, g.mNum{font-style:italic;} g.label{font-weight:normal;}</style>
	<svg class="definition-scale" viewBox="0 0 21000 2500">
		<g class="page-margin" transform="translate(500, 500)">
			<g class="system" id="system-0000000347760951">
				<g class="section boundaryStart" id="section-L1F1" />
				<g class="measure" id="measure-L4">
					<g class="staff" id="staff-L4F1N1">
						<path d="M0 720 L4349 720" stroke="#000000" stroke-width="13" />
						<path d="M0 900 L4349 900" stroke="#000000" stroke-width="13" />
						<path d="M0 1080 L4349 1080" stroke="#000000" stroke-width="13" />
						<path d="M0 1260 L4349 1260" stroke="#000000" stroke-width="13" />
						<path d="M0 1440 L4349 1440" stroke="#000000" stroke-width="13" />
						<g class="clef" id="clef-0000000429991964">
							<use xlink:href="#E062" x="88" y="900" height="720px" width="720px" />
						</g>
						<g class="meterSig" id="msig-0000000592466793">
							<use xlink:href="#E082" x="769" y="900" height="720px" width="720px" />
							<use xlink:href="#E084" x="775" y="1260" height="720px" width="720px" />
						</g>
						<g class="ledgerLines above">
							<path d="M2935 540 L3214 540" stroke="#000000" stroke-width="22" />
							<path d="M3955 540 L4234 540" stroke="#000000" stroke-width="22" />
						</g>
						<g class="layer" id="layer-L4F1N1">
							<g class="beam" id="beam-L5F1-L7F1">
								<polygon points="1546,1589 2442,1575 2442,1485 1546,1499 " />
								<polygon points="2098,1446 2442,1440 2442,1350 2098,1356 " />
								<g class="note" id="note-L5F1">
									<use xlink:href="#E0A4" x="1546" y="900" height="720px" width="720px" />
									<g class="stem">
										<rect x="1546" y="922" height="649" width="18" />
									</g>
									<g class="accid" id="accid-0000001882130879">
										<use xlink:href="#E262" x="1351" y="900" height="720px" width="720px" />
									</g>
								</g>
								<g class="note" id="note-L6F1">
									<use xlink:href="#E0A4" x="2089" y="810" height="720px" width="720px" />
									<g class="stem">
										<rect x="2089" y="832" height="731" width="18" />
									</g>
									<g class="accid" id="accid-0000001760106067">
										<use xlink:href="#E262" x="1894" y="810" height="720px" width="720px" />
									</g>
								</g>
								<g class="note" id="note-L7F1">
									<use xlink:href="#E0A4" x="2424" y="900" height="720px" width="720px" />
									<g class="stem">
										<rect x="2424" y="922" height="635" width="18" />
									</g>
									<g class="accid" id="accid-0000002041285357" />
								</g>
							</g>
							<g class="beam" id="beam-L8F1-L10F1">
								<polygon points="2966,1391 4004,1398 4004,1308 2966,1301 " />
								<polygon points="2966,1256 3124,1257 3124,1167 2966,1166 " />
								<polygon points="3846,1262 4004,1263 4004,1173 3846,1172 " />
								<g class="note" id="note-L8F1">
									<use xlink:href="#E0A4" x="2966" y="540" height="720px" width="720px" />
									<g class="stem">
										<rect x="2966" y="562" height="811" width="18" />
									</g>
									<g class="accid" id="accid-0000001863990948">
										<use xlink:href="#E262" x="2771" y="540" height="720px" width="720px" />
									</g>
								</g>
								<g class="note" id="note-L9F1">
									<use xlink:href="#E0A4" x="3509" y="720" height="720px" width="720px" />
									<g class="stem">
										<rect x="3509" y="742" height="635" width="18" />
									</g>
									<g class="accid" id="accid-0000000899373890">
										<use xlink:href="#E262" x="3314" y="720" height="720px" width="720px" />
									</g>
								</g>
								<g class="note" id="note-L10F1">
									<use xlink:href="#E0A4" x="3986" y="540" height="720px" width="720px" />
									<g class="stem">
										<rect x="3986" y="562" height="818" width="18" />
									</g>
									<g class="accid" id="accid-0000000438763766" />
								</g>
							</g>
						</g>
					</g>
					<g class="tie" id="tie-L10F1-L12F1">
						<path d="M4234,495 C4305,353 4447,353 4519,495 C4447,397 4305,397 4234,495" stroke="#000000" stroke-linecap="round" stroke-linejoin="round" stroke-width="9" />
					</g>
					<g class="mNum autogenerated" id="mnum-0000000983168941" />
					<g class="barLineAttr" id="bline-0000000322805818">
						<path d="M4336 1440 L4336 720" stroke="#000000" stroke-width="27" />
					</g>
				</g>
				<g class="measure" id="measure-L11">
					<g class="staff" id="staff-L11F1N1">
						<path d="M4349 720 L6706 720" stroke="#000000" stroke-width="13" />
						<path d="M4349 900 L6706 900" stroke="#000000" stroke-width="13" />
						<path d="M4349 1080 L6706 1080" stroke="#000000" stroke-width="13" />
						<path d="M4349 1260 L6706 1260" stroke="#000000" stroke-width="13" />
						<path d="M4349 1440 L6706 1440" stroke="#000000" stroke-width="13" />
						<g class="ledgerLines above">
							<path d="M4510 540 L4789 540" stroke="#000000" stroke-width="22" />
						</g>
						<g class="layer" id="layer-L11F1N1">
							<g class="beam" id="beam-L12F1-L14F1">
								<polygon points="4541,1466 5643,1575 5643,1485 4541,1376 " />
								<polygon points="5092,1386 5643,1440 5643,1350 5092,1296 " />
								<g class="note" id="note-L12F1">
									<use xlink:href="#E0A4" x="4541" y="540" height="720px" width="720px" />
									<g class="stem">
										<rect x="4541" y="562" height="886" width="18" />
									</g>
									<g class="accid" id="accid-0000000705777926" />
								</g>
								<g class="note" id="note-L13F1">
									<use xlink:href="#E0A4" x="5083" y="810" height="720px" width="720px" />
									<g class="stem">
										<rect x="5083" y="832" height="671" width="18" />
									</g>
									<g class="accid" id="accid-0000000657798425">
										<use xlink:href="#E262" x="4888" y="810" height="720px" width="720px" />
									</g>
								</g>
								<g class="note" id="note-L14F1">
									<use xlink:href="#E0A4" x="5625" y="900" height="720px" width="720px" />
									<g class="stem">
										<rect x="5625" y="922" height="635" width="18" />
									</g>
									<g class="accid" id="accid-0000001865215022">
										<use xlink:href="#E262" x="5430" y="900" height="720px" width="720px" />
									</g>
								</g>
							</g>
							<g class="note" id="note-L15F1">
								<use xlink:href="#E0A4" x="5960" y="900" height="720px" width="720px" />
								<g class="stem">
									<rect x="5960" y="922" height="608" width="18" />
								</g>
								<g class="accid" id="accid-0000000870347552" />
							</g>
						</g>
					</g>
					<g class="tie" id="tie-L14F1-L15F1">
						<path d="M5738,765 C5821,623 5987,623 6073,765 C5987,667 5821,667 5738,765" stroke="#000000" stroke-linecap="round" stroke-linejoin="round" stroke-width="9" />
					</g>
					<g class="mNum autogenerated" id="mnum-0000001868738360" />
					<g class="barLineAttr" id="bline-0000000164161469">
						<path d="M6693 1440 L6693 720" stroke="#000000" stroke-width="27" />
					</g>
				</g>
				<g class="measure" id="measure-L16">
					<g class="staff" id="staff-L16F1N1">
						<path d="M6706 720 L9430 720" stroke="#000000" stroke-width="13" />
						<path d="M6706 900 L9430 900" stroke="#000000" stroke-width="13" />
						<path d="M6706 1080 L9430 1080" stroke="#000000" stroke-width="13" />
						<path d="M6706 1260 L9430 1260" stroke="#000000" stroke-width="13" />
						<path d="M6706 1440 L9430 1440" stroke="#000000" stroke-width="13" />
						<g class="ledgerLines above">
							<path d="M8015 540 L8294 540" stroke="#000000" stroke-width="22" />
							<path d="M9036 540 L9315 540" stroke="#000000" stroke-width="22" />
						</g>
						<g class="layer" id="layer-L16F1N1">
							<g class="beam" id="beam-L17F1-L19F1">
								<polygon points="6898,1585 7728,1575 7728,1485 6898,1495 " />
								<polygon points="7384,1444 7728,1440 7728,1350 7384,1354 " />
								<g class="note" id="note-L17F1">
									<use xlink:href="#E0A4" x="6898" y="900" height="720px" width="720px" />
									<g class="stem">
										<rect x="6898" y="922" height="645" width="18" />
									</g>
									<g class="accid" id="accid-0000000401407483" />
								</g>
								<g class="note" id="note-L18F1">
									<use xlink:href="#E0A4" x="7375" y="810" height="720px" width="720px" />
									<g class="stem">
										<rect x="7375" y="832" height="729" width="18" />
									</g>
									<g class="accid" id="accid-0000000983409223" />
								</g>
								<g class="note" id="note-L19F1">
									<use xlink:href="#E0A4" x="7710" y="900" height="720px" width="720px" />
									<g class="stem">
										<rect x="7710" y="922" height="635" width="18" />
									</g>
									<g class="accid" id="accid-0000000070887849" />
								</g>
							</g>
							<g class="beam" id="beam-L20F1-L22F1">
								<polygon points="8046,1303 9085,1306 9085,1216 8046,1213 " />
								<polygon points="8046,1168 8204,1168 8204,1078 8046,1078 " />
								<polygon points="8927,1171 9085,1171 9085,1081 8927,1081 " />
								<g class="note" id="note-L20F1">
									<use xlink:href="#E0A4" x="8046" y="540" height="720px" width="720px" />
									<g class="stem">
										<rect x="8046" y="562" height="723" width="18" />
									</g>
									<g class="accid" id="accid-0000002111744932" />
								</g>
								<g class="note" id="note-L21F1">
									<use xlink:href="#E0A4" x="8589" y="630" height="720px" width="720px" />
									<g class="stem">
										<rect x="8589" y="652" height="635" width="18" />
									</g>
									<g class="accid" id="accid-0000001026112789">
										<use xlink:href="#E260" x="8393" y="630" height="720px" width="720px" />
									</g>
								</g>
								<g class="note" id="note-L22F1">
									<use xlink:href="#E0A4" x="9067" y="540" height="720px" width="720px" />
									<g class="stem">
										<rect x="9067" y="562" height="726" width="18" />
									</g>
									<g class="accid" id="accid-0000001396885379" />
								</g>
							</g>
						</g>
					</g>
					<g class="tie" id="tie-L22F1-L24F1">
						<path d="M9315,495 C9386,353 9528,353 9600,495 C9528,397 9386,397 9315,495" stroke="#000000" stroke-linecap="round" stroke-linejoin="round" stroke-width="9" />
					</g>
					<g class="mNum autogenerated" id="mnum-0000001058039270" />
					<g class="barLineAttr" id="bline-0000001833714937">
						<path d="M9417 1440 L9417 720" stroke="#000000" stroke-width="27" />
					</g>
				</g>
				<g class="measure" id="measure-L23">
					<g class="staff" id="staff-L23F1N1">
						<path d="M9430 720 L11722 720" stroke="#000000" stroke-width="13" />
						<path d="M9430 900 L11722 900" stroke="#000000" stroke-width="13" />
						<path d="M9430 1080 L11722 1080" stroke="#000000" stroke-width="13" />
						<path d="M9430 1260 L11722 1260" stroke="#000000" stroke-width="13" />
						<path d="M9430 1440 L11722 1440" stroke="#000000" stroke-width="13" />
						<g class="ledgerLines above">
							<path d="M9591 540 L9870 540" stroke="#000000" stroke-width="22" />
						</g>
						<g class="layer" id="layer-L23F1N1">
							<g class="beam" id="beam-L24F1-L26F1">
								<polygon points="9622,1473 10659,1575 10659,1485 9622,1383 " />
								<polygon points="10108,1386 10659,1440 10659,1350 10108,1296 " />
								<g class="note" id="note-L24F1">
									<use xlink:href="#E0A4" x="9622" y="540" height="720px" width="720px" />
									<g class="stem">
										<rect x="9622" y="562" height="893" width="18" />
									</g>
									<g class="accid" id="accid-0000000711099001" />
								</g>
								<g class="note" id="note-L25F1">
									<use xlink:href="#E0A4" x="10099" y="720" height="720px" width="720px" />
									<g class="stem">
										<rect x="10099" y="742" height="761" width="18" />
									</g>
									<g class="accid" id="accid-0000001594195566" />
								</g>
								<g class="note" id="note-L26F1">
									<use xlink:href="#E0A4" x="10641" y="900" height="720px" width="720px" />
									<g class="stem">
										<rect x="10641" y="922" height="635" width="18" />
									</g>
									<g class="accid" id="accid-0000001329900108">
										<use xlink:href="#E262" x="10446" y="900" height="720px" width="720px" />
									</g>
								</g>
							</g>
							<g class="note" id="note-L27F1">
								<use xlink:href="#E0A4" x="10977" y="900" height="720px" width="720px" />
								<g class="stem">
									<rect x="10977" y="922" height="608" width="18" />
								</g>
								<g class="accid" id="accid-0000001412352546" />
							</g>
						</g>
					</g>
					<g class="tie" id="tie-L26F1-L27F1">
						<path d="M10754,765 C10838,623 11006,623 11090,765 C11006,667 10838,667 10754,765" stroke="#000000" stroke-linecap="round" stroke-linejoin="round" stroke-width="9" />
					</g>
					<g class="mNum autogenerated" id="mnum-0000000739615415" />
					<g class="barLineAttr" id="bline-0000000418567231">
						<path d="M11709 1440 L11709 720" stroke="#000000" stroke-width="27" />
					</g>
				</g>
				<g class="measure" id="measure-L28">
					<g class="staff" id="staff-L28F1N1">
						<path d="M11722 720 L14923 720" stroke="#000000" stroke-width="13" />
						<path d="M11722 900 L14923 900" stroke="#000000" stroke-width="13" />
						<path d="M11722 1080 L14923 1080" stroke="#000000" stroke-width="13" />
						<path d="M11722 1260 L14923 1260" stroke="#000000" stroke-width="13" />
						<path d="M11722 1440 L14923 1440" stroke="#000000" stroke-width="13" />
						<g class="ledgerLines above">
							<path d="M13509 540 L13788 540" stroke="#000000" stroke-width="22" />
							<path d="M14529 540 L14808 540" stroke="#000000" stroke-width="22" />
						</g>
						<g class="layer" id="layer-L28F1N1">
							<g class="beam" id="beam-L29F1-L31F1">
								<polygon points="12120,1589 13016,1575 13016,1485 12120,1499 " />
								<polygon points="12672,1446 13016,1440 13016,1350 12672,1356 " />
								<g class="note" id="note-L29F1">
									<use xlink:href="#E0A4" x="12120" y="900" height="720px" width="720px" />
									<g class="stem">
										<rect x="12120" y="922" height="649" width="18" />
									</g>
									<g class="accid" id="accid-0000000791257530">
										<use xlink:href="#E262" x="11925" y="900" height="720px" width="720px" />
									</g>
								</g>
								<g class="note" id="note-L30F1">
									<use xlink:href="#E0A4" x="12663" y="810" height="720px" width="720px" />
									<g class="stem">
										<rect x="12663" y="832" height="731" width="18" />
									</g>
									<g class="accid" id="accid-0000000746948515">
										<use xlink:href="#E262" x="12468" y="810" height="720px" width="720px" />
									</g>
								</g>
								<g class="note" id="note-L31F1">
									<use xlink:href="#E0A4" x="12998" y="900" height="720px" width="720px" />
									<g class="stem">
										<rect x="12998" y="922" height="635" width="18" />
									</g>
									<g class="accid" id="accid-0000001116525350" />
								</g>
							</g>
							<g class="beam" id="beam-L32F1-L34F1">
								<polygon points="13540,1391 14578,1398 14578,1308 13540,1301 " />
								<polygon points="13540,1256 13698,1257 13698,1167 13540,1166 " />
								<polygon points="14420,1262 14578,1263 14578,1173 14420,1172 " />
								<g class="note" id="note-L32F1">
									<use xlink:href="#E0A4" x="13540" y="540" height="720px" width="720px" />
									<g class="stem">
										<rect x="13540" y="562" height="811" width="18" />
									</g>
									<g class="accid" id="accid-0000001773117638">
										<use xlink:href="#E262" x="13345" y="540" height="720px" width="720px" />
									</g>
								</g>
								<g class="note" id="note-L33F1">
									<use xlink:href="#E0A4" x="14083" y="720" height="720px" width="720px" />
									<g class="stem">
										<rect x="14083" y="742" height="635" width="18" />
									</g>
									<g class="accid" id="accid-0000000472779978">
										<use xlink:href="#E262" x="13888" y="720" height="720px" width="720px" />
									</g>
								</g>
								<g class="note" id="note-L34F1">
									<use xlink:href="#E0A4" x="14560" y="540" height="720px" width="720px" />
									<g class="stem">
										<rect x="14560" y="562" height="818" width="18" />
									</g>
									<g class="accid" id="accid-0000001255193018" />
								</g>
							</g>
						</g>
					</g>
					<g class="tie" id="tie-L34F1-L36F1">
						<path d="M14808,495 C14879,353 15021,353 15093,495 C15021,397 14879,397 14808,495" stroke="#000000" stroke-linecap="round" stroke-linejoin="round" stroke-width="9" />
					</g>
					<g class="mNum autogenerated" id="mnum-0000001644306710" />
					<g class="barLineAttr" id="bline-0000000666022637">
						<path d="M14910 1440 L14910 720" stroke="#000000" stroke-width="27" />
					</g>
				</g>
				<g class="measure" id="measure-L35">
					<g class="staff" id="staff-L35F1N1">
						<path d="M14923 720 L17280 720" stroke="#000000" stroke-width="13" />
						<path d="M14923 900 L17280 900" stroke="#000000" stroke-width="13" />
						<path d="M14923 1080 L17280 1080" stroke="#000000" stroke-width="13" />
						<path d="M14923 1260 L17280 1260" stroke="#000000" stroke-width="13" />
						<path d="M14923 1440 L17280 1440" stroke="#000000" stroke-width="13" />
						<g class="ledgerLines above">
							<path d="M15084 540 L15363 540" stroke="#000000" stroke-width="22" />
						</g>
						<g class="layer" id="layer-L35F1N1">
							<g class="beam" id="beam-L36F1-L38F1">
								<polygon points="15115,1466 16217,1575 16217,1485 15115,1376 " />
								<polygon points="15666,1386 16217,1440 16217,1350 15666,1296 " />
								<g class="note" id="note-L36F1">
									<use xlink:href="#E0A4" x="15115" y="540" height="720px" width="720px" />
									<g class="stem">
										<rect x="15115" y="562" height="886" width="18" />
									</g>
									<g class="accid" id="accid-0000000083219629" />
								</g>
								<g class="note" id="note-L37F1">
									<use xlink:href="#E0A4" x="15657" y="810" height="720px" width="720px" />
									<g class="stem">
										<rect x="15657" y="832" height="671" width="18" />
									</g>
									<g class="accid" id="accid-0000001994485946">
										<use xlink:href="#E262" x="15462" y="810" height="720px" width="720px" />
									</g>
								</g>
								<g class="note" id="note-L38F1">
									<use xlink:href="#E0A4" x="16199" y="900" height="720px" width="720px" />
									<g class="stem">
										<rect x="16199" y="922" height="635" width="18" />
									</g>
									<g class="accid" id="accid-0000001759799511">
										<use xlink:href="#E262" x="16004" y="900" height="720px" width="720px" />
									</g>
								</g>
							</g>
							<g class="note" id="note-L39F1">
								<use xlink:href="#E0A4" x="16534" y="900" height="720px" width="720px" />
								<g class="stem">
									<rect x="16534" y="922" height="608" width="18" />
								</g>
								<g class="accid" id="accid-0000000541950894" />
							</g>
						</g>
					</g>
					<g class="tie" id="tie-L38F1-L39F1">
						<path d="M16312,765 C16395,623 16561,623 16647,765 C16561,667 16395,667 16312,765" stroke="#000000" stroke-linecap="round" stroke-linejoin="round" stroke-width="9" />
					</g>
					<g class="mNum autogenerated" id="mnum-0000001422421641" />
					<g class="barLineAttr" id="bline-0000002059710350">
						<path d="M17267 1440 L17267 720" stroke="#000000" stroke-width="27" />
					</g>
				</g>
				<g class="measure" id="measure-L40">
					<g class="staff" id="staff-L40F1N1">
						<path d="M17280 720 L20004 720" stroke="#000000" stroke-width="13" />
						<path d="M17280 900 L20004 900" stroke="#000000" stroke-width="13" />
						<path d="M17280 1080 L20004 1080" stroke="#000000" stroke-width="13" />
						<path d="M17280 1260 L20004 1260" stroke="#000000" stroke-width="13" />
						<path d="M17280 1440 L20004 1440" stroke="#000000" stroke-width="13" />
						<g class="ledgerLines above">
							<path d="M18589 540 L18868 540" stroke="#000000" stroke-width="22" />
							<path d="M19610 540 L19889 540" stroke="#000000" stroke-width="22" />
						</g>
						<g class="layer" id="layer-L40F1N1">
							<g class="beam" id="beam-L41F1-L43F1">
								<polygon points="17472,1585 18302,1575 18302,1485 17472,1495 " />
								<polygon points="17958,1444 18302,1440 18302,1350 17958,1354 " />
								<g class="note" id="note-L41F1">
									<use xlink:href="#E0A4" x="17472" y="900" height="720px" width="720px" />
									<g class="stem">
										<rect x="17472" y="922" height="645" width="18" />
									</g>
									<g class="accid" id="accid-0000001947944118" />
								</g>
								<g class="note" id="note-L42F1">
									<use xlink:href="#E0A4" x="17949" y="810" height="720px" width="720px" />
									<g class="stem">
										<rect x="17949" y="832" height="729" width="18" />
									</g>
									<g class="accid" id="accid-0000001520871162" />
								</g>
								<g class="note" id="note-L43F1">
									<use xlink:href="#E0A4" x="18284" y="900" height="720px" width="720px" />
									<g class="stem">
										<rect x="18284" y="922" height="635" width="18" />
									</g>
									<g class="accid" id="accid-0000001503683222" />
								</g>
							</g>
							<g class="beam" id="beam-L44F1-L46F1">
								<polygon points="18620,1303 19659,1306 19659,1216 18620,1213 " />
								<polygon points="18620,1168 18778,1168 18778,1078 18620,1078 " />
								<polygon points="19501,1171 19659,1171 19659,1081 19501,1081 " />
								<g class="note" id="note-L44F1">
									<use xlink:href="#E0A4" x="18620" y="540" height="720px" width="720px" />
									<g class="stem">
										<rect x="18620" y="562" height="723" width="18" />
									</g>
									<g class="accid" id="accid-0000000941834091" />
								</g>
								<g class="note" id="note-L45F1">
									<use xlink:href="#E0A4" x="19163" y="630" height="720px" width="720px" />
									<g class="stem">
										<rect x="19163" y="652" height="635" width="18" />
									</g>
									<g class="accid" id="accid-0000000274812528">
										<use xlink:href="#E260" x="18967" y="630" height="720px" width="720px" />
									</g>
								</g>
								<g class="note" id="note-L46F1">
									<use xlink:href="#E0A4" x="19641" y="540" height="720px" width="720px" />
									<g class="stem">
										<rect x="19641" y="562" height="726" width="18" />
									</g>
									<g class="accid" id="accid-0000000187157368" />
								</g>
							</g>
						</g>
					</g>
					<g class="tie" id="tie-L46F1-L48F1">
						<path d="M19754,405 C19813,263 19931,263 19991,405 C19931,307 19813,307 19754,405" stroke="#000000" stroke-linecap="round" stroke-linejoin="round" stroke-width="9" />
					</g>
					<g class="mNum autogenerated" id="mnum-0000000996674797" />
					<g class="barLineAttr" id="bline-0000001225312296">
						<path d="M19991 1440 L19991 720" stroke="#000000" stroke-width="27" />
					</g>
				</g>
			</g>
		</g>
	</svg>
</svg>
