<?xml version="1.0" encoding="UTF-8" standalone="no"?>
<svg width="2100.00px" height="450.00px" version="1.1" xmlns="http://www.w3.org/2000/svg" xmlns:xlink="http://www.w3.org/1999/xlink" overflow="visible">
	<desc>Engraved by Verovio 2.0.0-dev-0f0381c</desc>
	<defs>
		<symbol id="E050" viewBox="0 0 1000 1000" overflow="inherit">
			<path transform="scale(1,-1)" d="M441 -245c-23 -4 -48 -6 -76 -6c-59 0 -102 7 -130 20c-88 42 -150 93 -187 154c-26 44 -43 103 -48 176c-4 60 11 123 44 189c29 57 65 106 110 148s96 85 153 127c-3 16 -8 46 -13 92c-4 43 -5 73 -5 89c0 117 16 172 69 257c34 54 64 82 89 82c21 0 43 -30 69 -92 s39 -115 41 -159c2 -120 -19 -173 -67 -256c-13 -20 -63 -90 -98 -118c-13 -9 -25 -19 -37 -29l31 -181c8 1 18 2 28 2c58 0 102 -12 133 -35c59 -43 92 -104 98 -184c11 -135 -80 -229 -180 -270c8 -57 17 -110 25 -162c5 -31 6 -58 6 -80c0 -30 -5 -53 -14 -70 c-35 -64 -88 -99 -158 -103c-42 -3 -83 6 -124 26c-50 24 -77 59 -80 105c-2 34 5 63 20 87c18 28 45 42 79 44c51 4 99 -40 103 -87c4 -56 -30 -94 -105 -115c17 -24 51 -36 102 -36c62 0 116 43 140 85c9 16 13 41 13 74c0 20 -1 42 -5 67c-8 53 -18 106 -26 159zM461 939 c-95 0 -135 -175 -135 -286c0 -24 2 -48 5 -71c50 39 92 82 127 128c43 57 63 106 60 148c-4 54 -23 82 -57 81zM406 119l54 -326c80 27 116 88 109 184c-7 99 -62 146 -163 142zM382 117c-74 -2 -132 -50 -128 -127c2 -46 43 -99 75 -115c-3 -2 -7 -5 -10 -10 c-70 33 -116 88 -123 172c-5 73 42 135 88 170c23 17 49 29 78 36l-29 170c-21 -13 -52 -37 -92 -73c-50 -44 -86 -84 -109 -119c-49 -75 -71 -140 -67 -195c5 -68 35 -127 93 -176s125 -73 203 -73c25 0 50 3 75 9c-19 111 -36 221 -54 331z" />
		</symbol>
		<symbol id="E082" viewBox="0 0 1000 1000" overflow="inherit">
			<path transform="scale(1,-1)" d="M104 -185c-18 0 -55 -14 -65 -65h-36l-3 29c0 25 6 46 18 64c11 19 22 30 39 43l121 82l37 29c15 11 27 29 38 54c12 24 18 47 18 70c0 40 -19 88 -94 88c-25 0 -32 0 -50 -8c-14 -5 -23 -12 -26 -22c3 -9 7 -15 10 -18l24 -17c12 -7 17 -11 27 -21c5 -7 7 -16 7 -27 c0 -12 0 -57 -79 -74c-30 0 -76 26 -76 94c0 66 80 135 196 135c72 0 182 -32 182 -150c0 -53 -32 -95 -113 -133l-91 -41c-26 -11 -45 -23 -57 -37l49 7c84 0 115 -41 148 -41c20 0 33 20 39 61h35c0 -152 -68 -168 -114 -168c-17 0 -55 0 -69 7v0l-28 17 c-49 37 -69 40 -87 42z" />
		</symbol>
		<symbol id="E084" viewBox="0 0 1000 1000" overflow="inherit">
			<path transform="scale(1,-1)" d="M0 -78c84 97 114 180 134 329h170c-13 -32 -82 -132 -99 -151l-84 -97c-33 -36 -59 -63 -80 -81h162v102l127 123v-225h57v-39h-57v-34c0 -43 19 -65 57 -65v-34h-244v36c48 0 60 26 60 70v27h-203v39z" />
		</symbol>
		<symbol id="E4E6" viewBox="0 0 1000 1000" overflow="inherit">
			<path transform="scale(1,-1)" d="M0 123c7 34 33 56 69 60c29 -3 43 -9 53 -29c4 -8 7 -15 10 -22c0 -21 -1 -25 -11 -35c-5 -8 -18 -14 -40 -20l12 -3l15 -1c44 0 97 26 122 56c10 11 18 26 24 42c7 1 15 2 22 3l-140 -424h-36l111 330c-10 -6 -27 -12 -53 -16l-52 -8h-10l-20 1c-1 0 -8 3 -21 6 c-37 9 -55 28 -55 60z" />
		</symbol>
		<symbol id="E0A4" viewBox="0 0 1000 1000" overflow="inherit">
			<path transform="scale(1,-1)" d="M0 -39c0 68 73 172 200 172c66 0 114 -37 114 -95c0 -84 -106 -171 -218 -171c-64 0 -96 30 -96 94z" />
		</symbol>
		<symbol id="E262" viewBox="0 0 1000 1000" overflow="inherit">
			<path transform="scale(1,-1)" d="M136 186v169h17v-164l44 14v-91l-44 -14v-165l44 12v-91l-44 -13v-155h-17v150l-76 -22v-155h-17v149l-43 -13v90l43 14v167l-43 -14v92l43 13v169h17v-163zM60 73v-167l76 22v168z" />
		</symbol>
		<symbol id="E062" viewBox="0 0 1000 1000" overflow="inherit">
			<path transform="scale(1,-1)" d="M158 96c51 0 73 -14 88 -49l16 -39c0 -17 -2 -30 -7 -40c-3 -11 -10 -21 -19 -31c-17 -18 -49 -43 -84 -43c-55 0 -77 13 -112 44c-24 21 -35 55 -35 100c0 46 14 81 32 112c30 52 71 79 137 93l36 6l26 2c154 0 235 -68 274 -182c11 -32 18 -68 18 -107 c0 -103 -26 -182 -68 -250c-89 -145 -234 -230 -412 -288l-30 -5c-9 0 -14 3 -14 8c3 10 5 11 10 16c35 15 70 30 96 44l78 43c96 57 162 136 197 258c9 33 17 60 22 100c3 22 5 35 6 39c-7 69 -16 115 -23 140s-4 22 -16 40c-8 12 -19 23 -31 34c-24 21 -62 44 -118 44 c-48 0 -84 -8 -113 -28c-28 -19 -42 -44 -42 -73v-16c2 -5 3 -9 4 -11c24 22 52 39 84 39zM585 -118c0 32 23 58 57 58c18 0 33 -6 40 -18c9 -15 16 -18 16 -40c0 -9 -2 -16 -5 -21c-6 -19 -27 -37 -51 -37c-34 0 -57 26 -57 58zM642 177c31 0 56 -27 56 -58 c0 -30 -25 -58 -56 -58l-23 3c-19 7 -34 32 -34 55l3 23c9 20 28 35 54 35z" />
		</symbol>
		<symbol id="E4E7" viewBox="0 0 1000 1000" overflow="inherit">
			<path transform="scale(1,-1)" d="M133 -111c-16 38 -21 43 -64 51c-37 -4 -60 -25 -68 -60c0 -32 18 -52 55 -58c8 -6 22 -10 43 -10c31 0 62 7 82 20l-108 -324h37c72 220 143 439 215 659h-4l-10 -2l-7 -1c-15 -35 -27 -52 -59 -71c-26 -15 -56 -27 -88 -29c-11 0 -20 2 -26 6c29 3 56 25 51 56 c-15 35 -19 42 -64 48c-38 -4 -60 -23 -68 -58c0 -32 18 -52 55 -59c7 -5 22 -8 45 -8c48 0 76 7 112 25l-66 -197c-21 -23 -50 -47 -90 -47c-7 0 -15 1 -25 4c31 5 52 22 52 55z" />
		</symbol>
		<symbol id="E260" viewBox="0 0 1000 1000" overflow="inherit">
			<path transform="scale(1,-1)" d="M20 110c32 16 54 27 93 27c26 0 35 -3 54 -13c13 -7 24 -20 27 -38l4 -25c0 -28 -16 -57 -45 -89c-23 -25 -39 -44 -65 -68l-88 -79v644h20v-359zM90 106c-32 0 -48 -10 -70 -29v-194c31 31 54 59 71 84c21 32 32 59 32 84c0 9 1 16 1 20c0 14 -3 21 -11 30l-8 3z" />
		</symbol>
	</defs>
	<style type="text/css">g.page-margin{font-family:Times;} g.tempo{font-weight:bold;} g.dir, g.dynam, g.mNum{font-style:italic;} g.label{font-weight:normal;}</style>
	<svg class="definition-scale" viewBox="0 0 21000 4500">
		<g class="page-margin" transform="translate(500, 500)">
			<g class="system" id="system-0000000691002093">
				<path d="M13 720 L13 2880" stroke="#000000" stroke-width="27" />
				<path d="M-32,2862 C-392,2322 58,1980 -212,1800 C121,1980 -329,2322 -32,2862" stroke="#000000" stroke-linecap="round" stroke-linejoin="round" stroke-width="18" />
				<path d="M-32,738 C-329,1278 121,1620 -212,1800 C58,1620 -392,1278 -32,738" stroke="#000000" stroke-linecap="round" stroke-linejoin="round" stroke-width="18" />
				<g class="section boundaryStart" id="section-L1F1" />
				<g class="measure" id="measure-L4">
					<g class="staff" id="staff-L4F2N1">
						<path d="M0 720 L5025 720" stroke="#000000" stroke-width="13" />
						<path d="M0 900 L5025 900" stroke="#000000" stroke-width="13" />
						<path d="M0 1080 L5025 1080" stroke="#000000" stroke-width="13" />
						<path d="M0 1260 L5025 1260" stroke="#000000" stroke-width="13" />
						<path d="M0 1440 L5025 1440" stroke="#000000" stroke-width="13" />
						<g class="clef" id="clef-0000001297462904">
							<use xlink:href="#E050" x="90" y="1260" height="720px" width="720px" />
						</g>
						<g class="meterSig" id="msig-0000000910075890">
							<use xlink:href="#E082" x="771" y="900" height="720px" width="720px" />
							<use xlink:href="#E084" x="777" y="1260" height="720px" width="720px" />
						</g>
						<g class="ledgerLines below">
							<path d="M2441 1620 L2720 1620" stroke="#000000" stroke-width="22" />
							<path d="M3033 1620 L3312 1620" stroke="#000000" stroke-width="22" />
							<path d="M3033 1800 L3312 1800" stroke="#000000" stroke-width="22" />
						</g>
						<g class="layer" id="layer-L4F2N1">
							<g class="beam" id="beam-L5F2-L7F2">
								<polygon points="1793,607 2698,696 2698,786 1793,697 " />
								<polygon points="2540,816 2698,831 2698,921 2540,906 " />
								<g class="rest" id="rest-L5F2">
									<use xlink:href="#E4E6" x="1585" y="1080" height="720px" width="720px" />
									<g class="dots" id="dots-0000000337992336">
										<ellipse cx="1873" cy="990" rx="36" ry="36" />
									</g>
								</g>
								<g class="note" id="note-L7F2">
									<use xlink:href="#E0A4" x="2472" y="1620" height="720px" width="720px" />
									<g class="stem">
										<rect x="2680" y="714" height="884" width="18" />
									</g>
									<g class="accid" id="accid-0000000780808023">
										<use xlink:href="#E262" x="2277" y="1620" height="720px" width="720px" />
									</g>
								</g>
							</g>
							<g class="beam" id="beam-L8F2-L11F2">
								<polygon points="3272,832 4848,676 4848,766 3272,922 " />
								<polygon points="3272,967 4848,811 4848,901 3272,1057 " />
								<g class="note" id="note-L8F2">
									<use xlink:href="#E0A4" x="3064" y="1800" height="720px" width="720px" />
									<g class="stem">
										<rect x="3272" y="850" height="928" width="18" />
									</g>
									<g class="accid" id="accid-0000001699479720">
										<use xlink:href="#E262" x="2869" y="1800" height="720px" width="720px" />
									</g>
								</g>
								<g class="rest" id="rest-L9F2">
									<use xlink:href="#E4E6" x="3664" y="1440" height="720px" width="720px" />
								</g>
								<g class="note" id="note-L11F2">
									<use xlink:href="#E0A4" x="4622" y="1350" height="720px" width="720px" />
									<g class="stem">
										<rect x="4830" y="694" height="634" width="18" />
									</g>
									<g class="accid" id="accid-0000000847235673">
										<use xlink:href="#E262" x="4427" y="1350" height="720px" width="720px" />
									</g>
								</g>
							</g>
						</g>
					</g>
					<g class="staff" id="staff-L4F1N1">
						<path d="M0 2160 L5025 2160" stroke="#000000" stroke-width="13" />
						<path d="M0 2340 L5025 2340" stroke="#000000" stroke-width="13" />
						<path d="M0 2520 L5025 2520" stroke="#000000" stroke-width="13" />
						<path d="M0 2700 L5025 2700" stroke="#000000" stroke-width="13" />
						<path d="M0 2880 L5025 2880" stroke="#000000" stroke-width="13" />
						<g class="clef" id="clef-0000001266949296">
							<use xlink:href="#E062" x="90" y="2340" height="720px" width="720px" />
						</g>
						<g class="meterSig" id="msig-0000001316457867">
							<use xlink:href="#E082" x="771" y="2340" height="720px" width="720px" />
							<use xlink:href="#E084" x="777" y="2700" height="720px" width="720px" />
						</g>
						<g class="layer" id="layer-L4F1N1">
							<g class="beam" id="beam-L5F1-L6F1">
								<polygon points="1585,3016 1969,3053 1969,2963 1585,2926 " />
								<polygon points="1585,2881 1743,2896 1743,2806 1585,2791 " />
								<g class="note" id="note-L5F1">
									<use xlink:href="#E0A4" x="1585" y="2340" height="720px" width="720px" />
									<g class="stem">
										<rect x="1585" y="2362" height="636" width="18" />
									</g>
									<g class="accid" id="accid-0000002021318914">
										<use xlink:href="#E262" x="1390" y="2340" height="720px" width="720px" />
									</g>
								</g>
								<g class="rest" id="rest-L6F1">
									<use xlink:href="#E4E6" x="1951" y="2520" height="720px" width="720px" />
									<g class="dots" id="dots-0000000251697259">
										<ellipse cx="2239" cy="2430" rx="36" ry="36" />
									</g>
								</g>
							</g>
							<g class="beam" id="beam-L8F1-L11F1">
								<polygon points="3064,3375 4640,3281 4640,3191 3064,3285 " />
								<polygon points="3064,3240 4640,3146 4640,3056 3064,3150 " />
								<g class="rest" id="rest-L8F1">
									<use xlink:href="#E4E7" x="3064" y="2520" height="720px" width="720px" />
								</g>
								<g class="note" id="note-L9F1">
									<use xlink:href="#E0A4" x="3664" y="2250" height="720px" width="720px" />
									<g class="stem">
										<rect x="3664" y="2272" height="1049" width="18" />
									</g>
									<g class="accid" id="accid-0000001590740049">
										<use xlink:href="#E262" x="3469" y="2250" height="720px" width="720px" />
									</g>
								</g>
								<g class="note" id="note-L10F1">
									<use xlink:href="#E0A4" x="4256" y="2160" height="720px" width="720px" />
									<g class="stem">
										<rect x="4256" y="2182" height="1103" width="18" />
									</g>
									<g class="accid" id="accid-0000001194455932">
										<use xlink:href="#E262" x="4061" y="2160" height="720px" width="720px" />
									</g>
								</g>
								<g class="rest" id="rest-L11F1">
									<use xlink:href="#E4E7" x="4622" y="2520" height="720px" width="720px" />
								</g>
							</g>
						</g>
					</g>
					<g class="mNum autogenerated" id="mnum-0000000600657798" />
					<g class="barLineAttr" id="bline-0000000876838440">
						<path d="M5012 2880 L5012 720" stroke="#000000" stroke-width="27" />
					</g>
				</g>
				<g class="measure" id="measure-L12">
					<g class="staff" id="staff-L12F2N1">
						<path d="M5025 720 L9085 720" stroke="#000000" stroke-width="13" />
						<path d="M5025 900 L9085 900" stroke="#000000" stroke-width="13" />
						<path d="M5025 1080 L9085 1080" stroke="#000000" stroke-width="13" />
						<path d="M5025 1260 L9085 1260" stroke="#000000" stroke-width="13" />
						<path d="M5025 1440 L9085 1440" stroke="#000000" stroke-width="13" />
						<g class="layer" id="layer-L12F2N1">
							<g class="beam" id="beam-L13F2-L16F2">
								<polygon points="5442,572 7018,608 7018,698 5442,662 " />
								<polygon points="5442,707 7018,743 7018,833 5442,797 " />
								<g class="rest" id="rest-L13F2">
									<use xlink:href="#E4E7" x="5234" y="1080" height="720px" width="720px" />
								</g>
								<g class="note" id="note-L14F2">
									<use xlink:href="#E0A4" x="5834" y="1260" height="720px" width="720px" />
									<g class="stem">
										<rect x="6042" y="604" height="634" width="18" />
									</g>
									<g class="accid" id="accid-0000000237794710">
										<use xlink:href="#E262" x="5639" y="1260" height="720px" width="720px" />
									</g>
								</g>
								<g class="note" id="note-L15F2">
									<use xlink:href="#E0A4" x="6426" y="1350" height="720px" width="720px" />
									<g class="stem">
										<rect x="6634" y="618" height="710" width="18" />
									</g>
									<g class="accid" id="accid-0000000398456260">
										<use xlink:href="#E262" x="6231" y="1350" height="720px" width="720px" />
									</g>
								</g>
								<g class="rest" id="rest-L16F2">
									<use xlink:href="#E4E7" x="6792" y="1080" height="720px" width="720px" />
								</g>
							</g>
							<g class="beam" id="beam-L17F2-L20F2">
								<polygon points="7592,607 8915,738 8915,828 7592,697 " />
								<polygon points="8757,858 8915,873 8915,963 8757,948 " />
								<g class="rest" id="rest-L17F2">
									<use xlink:href="#E4E6" x="7384" y="1080" height="720px" width="720px" />
									<g class="dots" id="dots-0000000733677579">
										<ellipse cx="7672" cy="990" rx="36" ry="36" />
									</g>
								</g>
								<g class="note" id="note-L20F2">
									<use xlink:href="#E0A4" x="8689" y="1530" height="720px" width="720px" />
									<g class="stem">
										<rect x="8897" y="756" height="752" width="18" />
									</g>
									<g class="accid" id="accid-0000001867849120">
										<use xlink:href="#E262" x="8494" y="1530" height="720px" width="720px" />
									</g>
								</g>
							</g>
						</g>
					</g>
					<g class="staff" id="staff-L12F1N1">
						<path d="M5025 2160 L9085 2160" stroke="#000000" stroke-width="13" />
						<path d="M5025 2340 L9085 2340" stroke="#000000" stroke-width="13" />
						<path d="M5025 2520 L9085 2520" stroke="#000000" stroke-width="13" />
						<path d="M5025 2700 L9085 2700" stroke="#000000" stroke-width="13" />
						<path d="M5025 2880 L9085 2880" stroke="#000000" stroke-width="13" />
						<g class="ledgerLines above">
							<path d="M6761 1980 L7040 1980" stroke="#000000" stroke-width="22" />
						</g>
						<g class="layer" id="layer-L12F1N1">
							<g class="beam" id="beam-L13F1-L16F1">
								<polygon points="5234,3375 6810,3219 6810,3129 5234,3285 " />
								<polygon points="6652,3099 6810,3084 6810,2994 6652,3009 " />
								<g class="rest" id="rest-L13F1">
									<use xlink:href="#E4E6" x="5234" y="2520" height="720px" width="720px" />
									<g class="dots" id="dots-0000002044174896">
										<ellipse cx="5522" cy="2430" rx="36" ry="36" />
									</g>
								</g>
								<g class="note" id="note-L16F1">
									<use xlink:href="#E0A4" x="6792" y="1980" height="720px" width="720px" />
									<g class="stem">
										<rect x="6792" y="2002" height="1199" width="18" />
									</g>
									<g class="accid" id="accid-0000001071249859">
										<use xlink:href="#E262" x="6597" y="1980" height="720px" width="720px" />
									</g>
								</g>
							</g>
							<g class="beam" id="beam-L17F1-L19F1">
								<polygon points="7384,2955 8360,3051 8360,2961 7384,2865 " />
								<polygon points="7384,2820 7985,2880 7985,2790 7384,2730 " />
								<g class="note" id="note-L17F1">
									<use xlink:href="#E0A4" x="7384" y="2160" height="720px" width="720px" />
									<g class="stem">
										<rect x="7384" y="2182" height="755" width="18" />
									</g>
									<g class="accid" id="accid-0000001849152889">
										<use xlink:href="#E262" x="7189" y="2160" height="720px" width="720px" />
									</g>
								</g>
								<g class="note" id="note-L18F1">
									<use xlink:href="#E0A4" x="7976" y="2340" height="720px" width="720px" />
									<g class="stem">
										<rect x="7976" y="2362" height="635" width="18" />
									</g>
									<g class="accid" id="accid-0000002056442801">
										<use xlink:href="#E262" x="7781" y="2340" height="720px" width="720px" />
									</g>
								</g>
								<g class="rest" id="rest-L19F1">
									<use xlink:href="#E4E6" x="8342" y="2520" height="720px" width="720px" />
								</g>
							</g>
						</g>
					</g>
					<g class="mNum autogenerated" id="mnum-0000000386256596" />
					<g class="barLineAttr" id="bline-0000000332388110">
						<path d="M9072 2880 L9072 720" stroke="#000000" stroke-width="27" />
					</g>
				</g>
				<g class="measure" id="measure-L21">
					<g class="staff" id="staff-L21F2N1">
						<path d="M9085 720 L12511 720" stroke="#000000" stroke-width="13" />
						<path d="M9085 900 L12511 900" stroke="#000000" stroke-width="13" />
						<path d="M9085 1080 L12511 1080" stroke="#000000" stroke-width="13" />
						<path d="M9085 1260 L12511 1260" stroke="#000000" stroke-width="13" />
						<path d="M9085 1440 L12511 1440" stroke="#000000" stroke-width="13" />
						<g class="ledgerLines below">
							<path d="M10150 1620 L10429 1620" stroke="#000000" stroke-width="22" />
							<path d="M10743 1620 L11022 1620" stroke="#000000" stroke-width="22" />
						</g>
						<g class="layer" id="layer-L21F2N1">
							<g class="beam" id="beam-L22F2-L24F2">
								<polygon points="9502,607 10407,696 10407,786 9502,697 " />
								<polygon points="10249,816 10407,831 10407,921 10249,906 " />
								<g class="rest" id="rest-L22F2">
									<use xlink:href="#E4E6" x="9294" y="1080" height="720px" width="720px" />
									<g class="dots" id="dots-0000001556932573">
										<ellipse cx="9582" cy="990" rx="36" ry="36" />
									</g>
								</g>
								<g class="note" id="note-L24F2">
									<use xlink:href="#E0A4" x="10181" y="1620" height="720px" width="720px" />
									<g class="stem">
										<rect x="10389" y="714" height="884" width="18" />
									</g>
									<g class="accid" id="accid-0000000584981500" />
								</g>
							</g>
							<g class="beam" id="beam-L25F2-L28F2">
								<polygon points="10982,810 12334,676 12334,766 10982,900 " />
								<polygon points="10982,945 12334,811 12334,901 10982,1035 " />
								<g class="note" id="note-L25F2">
									<use xlink:href="#E0A4" x="10774" y="1710" height="720px" width="720px" />
									<g class="stem">
										<rect x="10982" y="828" height="860" width="18" />
									</g>
									<g class="accid" id="accid-0000001687135802">
										<use xlink:href="#E260" x="10578" y="1710" height="720px" width="720px" />
									</g>
								</g>
								<g class="rest" id="rest-L26F2">
									<use xlink:href="#E4E6" x="11149" y="1440" height="720px" width="720px" />
								</g>
								<g class="note" id="note-L28F2">
									<use xlink:href="#E0A4" x="12108" y="1350" height="720px" width="720px" />
									<g class="stem">
										<rect x="12316" y="694" height="634" width="18" />
									</g>
									<g class="accid" id="accid-0000000551872769" />
								</g>
							</g>
						</g>
					</g>
					<g class="staff" id="staff-L21F1N1">
						<path d="M9085 2160 L12511 2160" stroke="#000000" stroke-width="13" />
						<path d="M9085 2340 L12511 2340" stroke="#000000" stroke-width="13" />
						<path d="M9085 2520 L12511 2520" stroke="#000000" stroke-width="13" />
						<path d="M9085 2700 L12511 2700" stroke="#000000" stroke-width="13" />
						<path d="M9085 2880 L12511 2880" stroke="#000000" stroke-width="13" />
						<g class="layer" id="layer-L21F1N1">
							<g class="beam" id="beam-L22F1-L23F1">
								<polygon points="9294,3016 9678,3053 9678,2963 9294,2926 " />
								<polygon points="9294,2881 9452,2896 9452,2806 9294,2791 " />
								<g class="note" id="note-L22F1">
									<use xlink:href="#E0A4" x="9294" y="2340" height="720px" width="720px" />
									<g class="stem">
										<rect x="9294" y="2362" height="636" width="18" />
									</g>
									<g class="accid" id="accid-0000001166371860" />
								</g>
								<g class="rest" id="rest-L23F1">
									<use xlink:href="#E4E6" x="9660" y="2520" height="720px" width="720px" />
									<g class="dots" id="dots-0000001619697635">
										<ellipse cx="9948" cy="2430" rx="36" ry="36" />
									</g>
								</g>
							</g>
							<g class="beam" id="beam-L25F1-L28F1">
								<polygon points="10774,3375 12126,3305 12126,3215 10774,3285 " />
								<polygon points="10774,3240 12126,3170 12126,3080 10774,3150 " />
								<g class="rest" id="rest-L25F1">
									<use xlink:href="#E4E7" x="10774" y="2520" height="720px" width="720px" />
								</g>
								<g class="note" id="note-L26F1">
									<use xlink:href="#E0A4" x="11149" y="2250" height="720px" width="720px" />
									<g class="stem">
										<rect x="11149" y="2272" height="1065" width="18" />
									</g>
									<g class="accid" id="accid-0000001390481489" />
								</g>
								<g class="note" id="note-L27F1">
									<use xlink:href="#E0A4" x="11742" y="2070" height="720px" width="720px" />
									<g class="stem">
										<rect x="11742" y="2092" height="1214" width="18" />
									</g>
									<g class="accid" id="accid-0000001110412988">
										<use xlink:href="#E260" x="11546" y="2070" height="720px" width="720px" />
									</g>
								</g>
								<g class="rest" id="rest-L28F1">
									<use xlink:href="#E4E7" x="12108" y="2520" height="720px" width="720px" />
								</g>
							</g>
						</g>
					</g>
					<g class="mNum autogenerated" id="mnum-0000000630390718" />
					<g class="barLineAttr" id="bline-0000000007209290">
						<path d="M12498 2880 L12498 720" stroke="#000000" stroke-width="27" />
					</g>
				</g>
				<g class="measure" id="measure-L29">
					<g class="staff" id="staff-L29F2N1">
						<path d="M12511 720 L16127 720" stroke="#000000" stroke-width="13" />
						<path d="M12511 900 L16127 900" stroke="#000000" stroke-width="13" />
						<path d="M12511 1080 L16127 1080" stroke="#000000" stroke-width="13" />
						<path d="M12511 1260 L16127 1260" stroke="#000000" stroke-width="13" />
						<path d="M12511 1440 L16127 1440" stroke="#000000" stroke-width="13" />
						<g class="layer" id="layer-L29F2N1">
							<g class="beam" id="beam-L30F2-L33F2">
								<polygon points="12928,477 14278,544 14278,634 12928,567 " />
								<polygon points="12928,612 14278,679 14278,769 12928,702 " />
								<g class="rest" id="rest-L30F2">
									<use xlink:href="#E4E7" x="12720" y="1080" height="720px" width="720px" />
								</g>
								<g class="note" id="note-L31F2">
									<use xlink:href="#E0A4" x="13094" y="1170" height="720px" width="720px" />
									<g class="stem">
										<rect x="13302" y="514" height="634" width="18" />
									</g>
									<g class="accid" id="accid-0000000913701786" />
								</g>
								<g class="note" id="note-L32F2">
									<use xlink:href="#E0A4" x="13686" y="1350" height="720px" width="720px" />
									<g class="stem">
										<rect x="13894" y="544" height="784" width="18" />
									</g>
									<g class="accid" id="accid-0000002046338497">
										<use xlink:href="#E262" x="13491" y="1350" height="720px" width="720px" />
									</g>
								</g>
								<g class="rest" id="rest-L33F2">
									<use xlink:href="#E4E7" x="14052" y="1080" height="720px" width="720px" />
								</g>
							</g>
							<g class="beam" id="beam-L34F2-L37F2">
								<polygon points="14634,607 15958,738 15958,828 14634,697 " />
								<polygon points="15800,858 15958,873 15958,963 15800,948 " />
								<g class="rest" id="rest-L34F2">
									<use xlink:href="#E4E6" x="14426" y="1080" height="720px" width="720px" />
									<g class="dots" id="dots-0000000949131952">
										<ellipse cx="14714" cy="990" rx="36" ry="36" />
									</g>
								</g>
								<g class="note" id="note-L37F2">
									<use xlink:href="#E0A4" x="15732" y="1440" height="720px" width="720px" />
									<g class="stem">
										<rect x="15940" y="756" height="662" width="18" />
									</g>
									<g class="accid" id="accid-0000001840093981" />
								</g>
							</g>
						</g>
					</g>
					<g class="staff" id="staff-L29F1N1">
						<path d="M12511 2160 L16127 2160" stroke="#000000" stroke-width="13" />
						<path d="M12511 2340 L16127 2340" stroke="#000000" stroke-width="13" />
						<path d="M12511 2520 L16127 2520" stroke="#000000" stroke-width="13" />
						<path d="M12511 2700 L16127 2700" stroke="#000000" stroke-width="13" />
						<path d="M12511 2880 L16127 2880" stroke="#000000" stroke-width="13" />
						<g class="ledgerLines above">
							<path d="M14021 1980 L14300 1980" stroke="#000000" stroke-width="22" />
						</g>
						<g class="layer" id="layer-L29F1N1">
							<g class="beam" id="beam-L30F1-L33F1">
								<polygon points="12720,3375 14070,3241 14070,3151 12720,3285 " />
								<polygon points="13912,3121 14070,3106 14070,3016 13912,3031 " />
								<g class="rest" id="rest-L30F1">
									<use xlink:href="#E4E6" x="12720" y="2520" height="720px" width="720px" />
									<g class="dots" id="dots-0000001335919149">
										<ellipse cx="13008" cy="2430" rx="36" ry="36" />
									</g>
								</g>
								<g class="note" id="note-L33F1">
									<use xlink:href="#E0A4" x="14052" y="1890" height="720px" width="720px" />
									<g class="stem">
										<rect x="14052" y="1912" height="1311" width="18" />
									</g>
									<g class="accid" id="accid-0000001818868272" />
								</g>
							</g>
							<g class="beam" id="beam-L34F1-L36F1">
								<polygon points="14426,2955 15402,3051 15402,2961 14426,2865 " />
								<polygon points="14426,2820 15027,2880 15027,2790 14426,2730 " />
								<g class="note" id="note-L34F1">
									<use xlink:href="#E0A4" x="14426" y="2070" height="720px" width="720px" />
									<g class="stem">
										<rect x="14426" y="2092" height="845" width="18" />
									</g>
									<g class="accid" id="accid-0000001492250594" />
								</g>
								<g class="note" id="note-L35F1">
									<use xlink:href="#E0A4" x="15018" y="2340" height="720px" width="720px" />
									<g class="stem">
										<rect x="15018" y="2362" height="635" width="18" />
									</g>
									<g class="accid" id="accid-0000001052451632">
										<use xlink:href="#E262" x="14823" y="2340" height="720px" width="720px" />
									</g>
								</g>
								<g class="rest" id="rest-L36F1">
									<use xlink:href="#E4E6" x="15384" y="2520" height="720px" width="720px" />
								</g>
							</g>
						</g>
					</g>
					<g class="mNum autogenerated" id="mnum-0000001528369382" />
					<g class="barLineAttr" id="bline-0000000953541735">
						<path d="M16114 2880 L16114 720" stroke="#000000" stroke-width="27" />
					</g>
				</g>
				<g class="measure" id="measure-L38">
					<g class="staff" id="staff-L38F2N1">
						<path d="M16127 720 L20002 720" stroke="#000000" stroke-width="13" />
						<path d="M16127 900 L20002 900" stroke="#000000" stroke-width="13" />
						<path d="M16127 1080 L20002 1080" stroke="#000000" stroke-width="13" />
						<path d="M16127 1260 L20002 1260" stroke="#000000" stroke-width="13" />
						<path d="M16127 1440 L20002 1440" stroke="#000000" stroke-width="13" />
						<g class="ledgerLines below">
							<path d="M17418 1620 L17697 1620" stroke="#000000" stroke-width="22" />
							<path d="M18010 1620 L18289 1620" stroke="#000000" stroke-width="22" />
							<path d="M18010 1800 L18289 1800" stroke="#000000" stroke-width="22" />
						</g>
						<g class="layer" id="layer-L38F2N1">
							<g class="beam" id="beam-L39F2-L41F2">
								<polygon points="16770,607 17675,696 17675,786 16770,697 " />
								<polygon points="17517,816 17675,831 17675,921 17517,906 " />
								<g class="rest" id="rest-L39F2">
									<use xlink:href="#E4E6" x="16562" y="1080" height="720px" width="720px" />
									<g class="dots" id="dots-0000001992676071">
										<ellipse cx="16850" cy="990" rx="36" ry="36" />
									</g>
								</g>
								<g class="note" id="note-L41F2">
									<use xlink:href="#E0A4" x="17449" y="1620" height="720px" width="720px" />
									<g class="stem">
										<rect x="17657" y="714" height="884" width="18" />
									</g>
									<g class="accid" id="accid-0000002032179592">
										<use xlink:href="#E262" x="17254" y="1620" height="720px" width="720px" />
									</g>
								</g>
							</g>
							<g class="beam" id="beam-L42F2-L45F2">
								<polygon points="18249,832 19825,676 19825,766 18249,922 " />
								<polygon points="18249,967 19825,811 19825,901 18249,1057 " />
								<g class="note" id="note-L42F2">
									<use xlink:href="#E0A4" x="18041" y="1800" height="720px" width="720px" />
									<g class="stem">
										<rect x="18249" y="850" height="928" width="18" />
									</g>
									<g class="accid" id="accid-0000000797427611">
										<use xlink:href="#E262" x="17846" y="1800" height="720px" width="720px" />
									</g>
								</g>
								<g class="rest" id="rest-L43F2">
									<use xlink:href="#E4E6" x="18641" y="1440" height="720px" width="720px" />
								</g>
								<g class="note" id="note-L45F2">
									<use xlink:href="#E0A4" x="19599" y="1350" height="720px" width="720px" />
									<g class="stem">
										<rect x="19807" y="694" height="634" width="18" />
									</g>
									<g class="accid" id="accid-0000002011914341">
										<use xlink:href="#E262" x="19404" y="1350" height="720px" width="720px" />
									</g>
								</g>
							</g>
						</g>
					</g>
					<g class="staff" id="staff-L38F1N1">
						<path d="M16127 2160 L20002 2160" stroke="#000000" stroke-width="13" />
						<path d="M16127 2340 L20002 2340" stroke="#000000" stroke-width="13" />
						<path d="M16127 2520 L20002 2520" stroke="#000000" stroke-width="13" />
						<path d="M16127 2700 L20002 2700" stroke="#000000" stroke-width="13" />
						<path d="M16127 2880 L20002 2880" stroke="#000000" stroke-width="13" />
						<g class="layer" id="layer-L38F1N1">
							<g class="beam" id="beam-L39F1-L40F1">
								<polygon points="16562,3016 16946,3053 16946,2963 16562,2926 " />
								<polygon points="16562,2881 16720,2896 16720,2806 16562,2791 " />
								<g class="note" id="note-L39F1">
									<use xlink:href="#E0A4" x="16562" y="2340" height="720px" width="720px" />
									<g class="stem">
										<rect x="16562" y="2362" height="636" width="18" />
									</g>
									<g class="accid" id="accid-0000000782747015">
										<use xlink:href="#E262" x="16367" y="2340" height="720px" width="720px" />
									</g>
								</g>
								<g class="rest" id="rest-L40F1">
									<use xlink:href="#E4E6" x="16928" y="2520" height="720px" width="720px" />
									<g class="dots" id="dots-0000000867595355">
										<ellipse cx="17216" cy="2430" rx="36" ry="36" />
									</g>
								</g>
							</g>
							<g class="beam" id="beam-L42F1-L45F1">
								<polygon points="18041,3375 19617,3281 19617,3191 18041,3285 " />
								<polygon points="18041,3240 19617,3146 19617,3056 18041,3150 " />
								<g class="rest" id="rest-L42F1">
									<use xlink:href="#E4E7" x="18041" y="2520" height="720px" width="720px" />
								</g>
								<g class="note" id="note-L43F1">
									<use xlink:href="#E0A4" x="18641" y="2250" height="720px" width="720px" />
									<g class="stem">
										<rect x="18641" y="2272" height="1049" width="18" />
									</g>
									<g class="accid" id="accid-0000001662521242">
										<use xlink:href="#E262" x="18446" y="2250" height="720px" width="720px" />
									</g>
								</g>
								<g class="note" id="note-L44F1">
									<use xlink:href="#E0A4" x="19233" y="2160" height="720px" width="720px" />
									<g class="stem">
										<rect x="19233" y="2182" height="1103" width="18" />
									</g>
									<g class="accid" id="accid-0000001962176456">
										<use xlink:href="#E262" x="19038" y="2160" height="720px" width="720px" />
									</g>
								</g>
								<g class="rest" id="rest-L45F1">
									<use xlink:href="#E4E7" x="19599" y="2520" height="720px" width="720px" />
								</g>
							</g>
						</g>
					</g>
					<g class="mNum autogenerated" id="mnum-0000002091687549" />
					<g class="barLineAttr" id="bline-0000001614328327">
						<path d="M19989 2880 L19989 720" stroke="#000000" stroke-width="27" />
					</g>
				</g>
			</g>
		</g>
	</svg>
</svg>
