<?xml version="1.0" encoding="UTF-8" standalone="no"?>
<svg width="2100.00px" height="250.00px" version="1.1" xmlns="http://www.w3.org/2000/svg" xmlns:xlink="http://www.w3.org/1999/xlink" overflow="visible">
	<desc>Engraved by Verovio 2.0.0-dev-0f0381c</desc>
	<defs>
		<symbol id="E062" viewBox="0 0 1000 1000" overflow="inherit">
			<path transform="scale(1,-1)" d="M158 96c51 0 73 -14 88 -49l16 -39c0 -17 -2 -30 -7 -40c-3 -11 -10 -21 -19 -31c-17 -18 -49 -43 -84 -43c-55 0 -77 13 -112 44c-24 21 -35 55 -35 100c0 46 14 81 32 112c30 52 71 79 137 93l36 6l26 2c154 0 235 -68 274 -182c11 -32 18 -68 18 -107 c0 -103 -26 -182 -68 -250c-89 -145 -234 -230 -412 -288l-30 -5c-9 0 -14 3 -14 8c3 10 5 11 10 16c35 15 70 30 96 44l78 43c96 57 162 136 197 258c9 33 17 60 22 100c3 22 5 35 6 39c-7 69 -16 115 -23 140s-4 22 -16 40c-8 12 -19 23 -31 34c-24 21 -62 44 -118 44 c-48 0 -84 -8 -113 -28c-28 -19 -42 -44 -42 -73v-16c2 -5 3 -9 4 -11c24 22 52 39 84 39zM585 -118c0 32 23 58 57 58c18 0 33 -6 40 -18c9 -15 16 -18 16 -40c0 -9 -2 -16 -5 -21c-6 -19 -27 -37 -51 -37c-34 0 -57 26 -57 58zM642 177c31 0 56 -27 56 -58 c0 -30 -25 -58 -56 -58l-23 3c-19 7 -34 32 -34 55l3 23c9 20 28 35 54 35z" />
		</symbol>
		<symbol id="E082" viewBox="0 0 1000 1000" overflow="inherit">
			<path transform="scale(1,-1)" d="M104 -185c-18 0 -55 -14 -65 -65h-36l-3 29c0 25 6 46 18 64c11 19 22 30 39 43l121 82l37 29c15 11 27 29 38 54c12 24 18 47 18 70c0 40 -19 88 -94 88c-25 0 -32 0 -50 -8c-14 -5 -23 -12 -26 -22c3 -9 7 -15 10 -18l24 -17c12 -7 17 -11 27 -21c5 -7 7 -16 7 -27 c0 -12 0 -57 -79 -74c-30 0 -76 26 -76 94c0 66 80 135 196 135c72 0 182 -32 182 -150c0 -53 -32 -95 -113 -133l-91 -41c-26 -11 -45 -23 -57 -37l49 7c84 0 115 -41 148 -41c20 0 33 20 39 61h35c0 -152 -68 -168 -114 -168c-17 0 -55 0 -69 7v0l-28 17 c-49 37 -69 40 -87 42z" />
		</symbol>
		<symbol id="E084" viewBox="0 0 1000 1000" overflow="inherit">
			<path transform="scale(1,-1)" d="M0 -78c84 97 114 180 134 329h170c-13 -32 -82 -132 -99 -151l-84 -97c-33 -36 -59 -63 -80 -81h162v102l127 123v-225h57v-39h-57v-34c0 -43 19 -65 57 -65v-34h-244v36c48 0 60 26 60 70v27h-203v39z" />
		</symbol>
		<symbol id="E0A4" viewBox="0 0 1000 1000" overflow="inherit">
			<path transform="scale(1,-1)" d="M0 -39c0 68 73 172 200 172c66 0 114 -37 114 -95c0 -84 -106 -171 -218 -171c-64 0 -96 30 -96 94z" />
		</symbol>
		<symbol id="E262" viewBox="0 0 1000 1000" overflow="inherit">
			<path transform="scale(1,-1)" d="M136 186v169h17v-164l44 14v-91l-44 -14v-165l44 12v-91l-44 -13v-155h-17v150l-76 -22v-155h-17v149l-43 -13v90l43 14v167l-43 -14v92l43 13v169h17v-163zM60 73v-167l76 22v168z" />
		</symbol>
		<symbol id="E4E6" viewBox="0 0 1000 1000" overflow="inherit">
			<path transform="scale(1,-1)" d="M0 123c7 34 33 56 69 60c29 -3 43 -9 53 -29c4 -8 7 -15 10 -22c0 -21 -1 -25 -11 -35c-5 -8 -18 -14 -40 -20l12 -3l15 -1c44 0 97 26 122 56c10 11 18 26 24 42c7 1 15 2 22 3l-140 -424h-36l111 330c-10 -6 -27 -12 -53 -16l-52 -8h-10l-20 1c-1 0 -8 3 -21 6 c-37 9 -55 28 -55 60z" />
		</symbol>
		<symbol id="E4E7" viewBox="0 0 1000 1000" overflow="inherit">
			<path transform="scale(1,-1)" d="M133 -111c-16 38 -21 43 -64 51c-37 -4 -60 -25 -68 -60c0 -32 18 -52 55 -58c8 -6 22 -10 43 -10c31 0 62 7 82 20l-108 -324h37c72 220 143 439 215 659h-4l-10 -2l-7 -1c-15 -35 -27 -52 -59 -71c-26 -15 -56 -27 -88 -29c-11 0 -20 2 -26 6c29 3 56 25 51 56 c-15 35 -19 42 -64 48c-38 -4 -60 -23 -68 -58c0 -32 18 -52 55 -59c7 -5 22 -8 45 -8c48 0 76 7 112 25l-66 -197c-21 -23 -50 -47 -90 -47c-7 0 -15 1 -25 4c31 5 52 22 52 55z" />
		</symbol>
		<symbol id="E4E8" viewBox="0 0 1000 1000" overflow="inherit">
			<path transform="scale(1,-1)" d="M145 179c-37 0 -60 -24 -68 -58c0 -32 18 -52 54 -61c12 -6 28 -9 46 -9c33 0 59 9 81 21l-61 -187c-3 -6 -12 -14 -30 -26c-22 -15 -43 -22 -61 -22c-10 0 -19 1 -25 4c24 6 40 15 47 26c3 5 4 15 4 29c-7 20 -15 34 -25 40c-5 3 -18 6 -38 10c-37 -4 -60 -23 -68 -58 c0 -38 20 -53 55 -61c12 -6 30 -9 52 -9c30 0 54 6 71 17l18 50l-123 -370h37l288 889l-4 1l-18 -2c-12 -49 -54 -77 -101 -92c-16 -5 -31 -8 -45 -8c-11 0 -19 2 -24 6c34 8 51 18 51 55c-8 28 -28 49 -61 49c-39 0 -63 -26 -72 -59c0 -33 19 -52 56 -59c6 -3 13 -5 23 -6 l28 -2h15c6 0 17 4 35 8c22 5 43 6 55 17l-66 -198c-17 -20 -53 -45 -88 -45c-8 0 -16 2 -24 5c23 6 35 13 39 18c6 9 10 19 10 30c0 33 -29 57 -63 57z" />
		</symbol>
		<symbol id="E260" viewBox="0 0 1000 1000" overflow="inherit">
			<path transform="scale(1,-1)" d="M20 110c32 16 54 27 93 27c26 0 35 -3 54 -13c13 -7 24 -20 27 -38l4 -25c0 -28 -16 -57 -45 -89c-23 -25 -39 -44 -65 -68l-88 -79v644h20v-359zM90 106c-32 0 -48 -10 -70 -29v-194c31 31 54 59 71 84c21 32 32 59 32 84c0 9 1 16 1 20c0 14 -3 21 -11 30l-8 3z" />
		</symbol>
	</defs>
	<style type="text/css">g.page-margin{font-family:Times;} g.tempo{font-weight:bold;} g.dir, g.dynam, g.mNum{font-style:italic;} g.label{font-weight:normal;}</style>
	<svg class="definition-scale" viewBox="0 0 21000 2500">
		<g class="page-margin" transform="translate(500, 500)">
			<g class="system" id="system-0000000416195790">
				<g class="section boundaryStart" id="section-L1F1" />
				<g class="measure" id="measure-L4">
					<g class="staff" id="staff-L4F1N1">
						<path d="M0 720 L5426 720" stroke="#000000" stroke-width="13" />
						<path d="M0 900 L5426 900" stroke="#000000" stroke-width="13" />
						<path d="M0 1080 L5426 1080" stroke="#000000" stroke-width="13" />
						<path d="M0 1260 L5426 1260" stroke="#000000" stroke-width="13" />
						<path d="M0 1440 L5426 1440" stroke="#000000" stroke-width="13" />
						<g class="clef" id="clef-0000000554467808">
							<use xlink:href="#E062" x="88" y="900" height="720px" width="720px" />
						</g>
						<g class="meterSig" id="msig-0000001008904723">
							<use xlink:href="#E082" x="769" y="900" height="720px" width="720px" />
							<use xlink:href="#E084" x="775" y="1260" height="720px" width="720px" />
						</g>
						<g class="ledgerLines above">
							<path d="M4437 540 L4716 540" stroke="#000000" stroke-width="22" />
						</g>
						<g class="layer" id="layer-L4F1N1">
							<g class="beam" id="beam-L5F1-L6F1">
								<polygon points="1603,1711 2005,1750 2005,1660 1603,1621 " />
								<polygon points="1603,1576 1761,1591 1761,1501 1603,1486 " />
								<polygon points="1603,1441 1761,1456 1761,1366 1603,1351 " />
								<g class="note" id="note-L5F1">
									<use xlink:href="#E0A4" x="1603" y="900" height="720px" width="720px" />
									<g class="stem">
										<rect x="1603" y="922" height="771" width="18" />
									</g>
									<g class="accid" id="accid-0000001360277881">
										<use xlink:href="#E262" x="1408" y="900" height="720px" width="720px" />
									</g>
								</g>
								<g class="rest" id="rest-L6F1">
									<use xlink:href="#E4E6" x="1987" y="1080" height="720px" width="720px" />
									<g class="dots" id="dots-0000000900731519">
										<ellipse cx="2275" cy="990" rx="36" ry="36" />
										<ellipse cx="2410" cy="990" rx="36" ry="36" />
									</g>
								</g>
							</g>
							<g class="beam" id="beam-L7F1-L11F1">
								<polygon points="2763,2070 4869,1942 4869,1852 2763,1980 " />
								<polygon points="2763,1935 3401,1896 3401,1806 2763,1845 " />
								<polygon points="3401,1896 4477,1830 4477,1740 3401,1806 " />
								<polygon points="4477,1830 4869,1807 4869,1717 4477,1740 " />
								<polygon points="3401,1761 4477,1695 4477,1605 3401,1671 " />
								<g class="rest" id="rest-L7F1">
									<use xlink:href="#E4E7" x="2763" y="1080" height="720px" width="720px" />
								</g>
								<g class="note" id="note-L8F1">
									<use xlink:href="#E0A4" x="3392" y="720" height="720px" width="720px" />
									<g class="stem">
										<rect x="3392" y="742" height="1271" width="18" />
									</g>
									<g class="accid" id="accid-0000001660540594">
										<use xlink:href="#E262" x="3197" y="720" height="720px" width="720px" />
									</g>
								</g>
								<g class="rest" id="rest-L9F1">
									<use xlink:href="#E4E8" x="3775" y="720" height="720px" width="720px" />
								</g>
								<g class="note" id="note-L10F1">
									<use xlink:href="#E0A4" x="4468" y="540" height="720px" width="720px" />
									<g class="stem">
										<rect x="4468" y="562" height="1385" width="18" />
									</g>
									<g class="accid" id="accid-0000001175321792">
										<use xlink:href="#E262" x="4273" y="540" height="720px" width="720px" />
									</g>
								</g>
								<g class="rest" id="rest-L11F1">
									<use xlink:href="#E4E7" x="4851" y="1080" height="720px" width="720px" />
									<g class="dots" id="dots-0000001342642624">
										<ellipse cx="5174" cy="990" rx="36" ry="36" />
									</g>
								</g>
							</g>
						</g>
					</g>
					<g class="mNum autogenerated" id="mnum-0000000677447359" />
					<g class="barLineAttr" id="bline-0000002059209502">
						<path d="M5413 1440 L5413 720" stroke="#000000" stroke-width="27" />
					</g>
				</g>
				<g class="measure" id="measure-L12">
					<g class="staff" id="staff-L12F1N1">
						<path d="M5426 720 L11047 720" stroke="#000000" stroke-width="13" />
						<path d="M5426 900 L11047 900" stroke="#000000" stroke-width="13" />
						<path d="M5426 1080 L11047 1080" stroke="#000000" stroke-width="13" />
						<path d="M5426 1260 L11047 1260" stroke="#000000" stroke-width="13" />
						<path d="M5426 1440 L11047 1440" stroke="#000000" stroke-width="13" />
						<g class="ledgerLines above">
							<path d="M8395 540 L8674 540" stroke="#000000" stroke-width="22" />
						</g>
						<g class="layer" id="layer-L12F1N1">
							<g class="beam" id="beam-L13F1-L19F1">
								<polygon points="5645,2070 8827,1875 8827,1785 5645,1980 " />
								<polygon points="5645,1935 6282,1896 6282,1806 5645,1845 " />
								<polygon points="6282,1896 7359,1830 7359,1740 6282,1806 " />
								<polygon points="7359,1830 8435,1764 8435,1674 7359,1740 " />
								<polygon points="8435,1764 8827,1740 8827,1650 8435,1674 " />
								<polygon points="6282,1761 7359,1695 7359,1605 6282,1671 " />
								<polygon points="7359,1695 8435,1629 8435,1539 7359,1605 " />
								<polygon points="8435,1629 8827,1605 8827,1515 8435,1539 " />
								<g class="rest" id="rest-L13F1">
									<use xlink:href="#E4E7" x="5645" y="1080" height="720px" width="720px" />
								</g>
								<g class="note" id="note-L14F1">
									<use xlink:href="#E0A4" x="6273" y="720" height="720px" width="720px" />
									<g class="stem">
										<rect x="6273" y="742" height="1271" width="18" />
									</g>
									<g class="accid" id="accid-0000000973732916">
										<use xlink:href="#E262" x="6078" y="720" height="720px" width="720px" />
									</g>
								</g>
								<g class="rest" id="rest-L15F1">
									<use xlink:href="#E4E8" x="6657" y="1080" height="720px" width="720px" />
								</g>
								<g class="note" id="note-L16F1">
									<use xlink:href="#E0A4" x="7350" y="900" height="720px" width="720px" />
									<g class="stem">
										<rect x="7350" y="922" height="1025" width="18" />
									</g>
									<g class="accid" id="accid-0000001559264737">
										<use xlink:href="#E262" x="7155" y="900" height="720px" width="720px" />
									</g>
								</g>
								<g class="rest" id="rest-L17F1">
									<use xlink:href="#E4E8" x="7733" y="720" height="720px" width="720px" />
								</g>
								<g class="note" id="note-L18F1">
									<use xlink:href="#E0A4" x="8426" y="540" height="720px" width="720px" />
									<g class="stem">
										<rect x="8426" y="562" height="1319" width="18" />
									</g>
									<g class="accid" id="accid-0000002122226550">
										<use xlink:href="#E262" x="8231" y="540" height="720px" width="720px" />
									</g>
								</g>
								<g class="rest" id="rest-L19F1">
									<use xlink:href="#E4E8" x="8809" y="1080" height="720px" width="720px" />
								</g>
							</g>
							<g class="beam" id="beam-L20F1-L23F1">
								<polygon points="9265,1626 10506,1749 10506,1659 9265,1536 " />
								<polygon points="9265,1491 10114,1575 10114,1485 9265,1401 " />
								<polygon points="9265,1356 10114,1440 10114,1350 9265,1266 " />
								<g class="note" id="note-L20F1">
									<use xlink:href="#E0A4" x="9265" y="720" height="720px" width="720px" />
									<g class="stem">
										<rect x="9265" y="742" height="866" width="18" />
									</g>
									<g class="accid" id="accid-0000000276910811" />
								</g>
								<g class="rest" id="rest-L21F1">
									<use xlink:href="#E4E8" x="9649" y="1080" height="720px" width="720px" />
								</g>
								<g class="note" id="note-L22F1">
									<use xlink:href="#E0A4" x="10105" y="900" height="720px" width="720px" />
									<g class="stem">
										<rect x="10105" y="922" height="770" width="18" />
									</g>
									<g class="accid" id="accid-0000001213205749" />
								</g>
								<g class="rest" id="rest-L23F1">
									<use xlink:href="#E4E6" x="10488" y="1080" height="720px" width="720px" />
								</g>
							</g>
						</g>
					</g>
					<g class="mNum autogenerated" id="mnum-0000000400053622" />
					<g class="barLineAttr" id="bline-0000000916638465">
						<path d="M11034 1440 L11034 720" stroke="#000000" stroke-width="27" />
					</g>
				</g>
				<g class="measure" id="measure-L24">
					<g class="staff" id="staff-L24F1N1">
						<path d="M11047 720 L14853 720" stroke="#000000" stroke-width="13" />
						<path d="M11047 900 L14853 900" stroke="#000000" stroke-width="13" />
						<path d="M11047 1080 L14853 1080" stroke="#000000" stroke-width="13" />
						<path d="M11047 1260 L14853 1260" stroke="#000000" stroke-width="13" />
						<path d="M11047 1440 L14853 1440" stroke="#000000" stroke-width="13" />
						<g class="ledgerLines above">
							<path d="M13864 540 L14143 540" stroke="#000000" stroke-width="22" />
						</g>
						<g class="layer" id="layer-L24F1N1">
							<g class="beam" id="beam-L25F1-L26F1">
								<polygon points="11266,1711 11667,1750 11667,1660 11266,1621 " />
								<polygon points="11266,1576 11424,1591 11424,1501 11266,1486 " />
								<polygon points="11266,1441 11424,1456 11424,1366 11266,1351 " />
								<g class="note" id="note-L25F1">
									<use xlink:href="#E0A4" x="11266" y="900" height="720px" width="720px" />
									<g class="stem">
										<rect x="11266" y="922" height="771" width="18" />
									</g>
									<g class="accid" id="accid-0000002119475849" />
								</g>
								<g class="rest" id="rest-L26F1">
									<use xlink:href="#E4E6" x="11649" y="1080" height="720px" width="720px" />
									<g class="dots" id="dots-0000002060060874">
										<ellipse cx="11937" cy="990" rx="36" ry="36" />
										<ellipse cx="12072" cy="990" rx="36" ry="36" />
									</g>
								</g>
							</g>
							<g class="beam" id="beam-L27F1-L31F1">
								<polygon points="12426,2070 14297,1962 14297,1872 12426,1980 " />
								<polygon points="12426,1935 13065,1898 13065,1808 12426,1845 " />
								<polygon points="13065,1898 13904,1850 13904,1760 13065,1808 " />
								<polygon points="13904,1850 14297,1827 14297,1737 13904,1760 " />
								<polygon points="13065,1763 13904,1715 13904,1625 13065,1673 " />
								<g class="rest" id="rest-L27F1">
									<use xlink:href="#E4E7" x="12426" y="1080" height="720px" width="720px" />
								</g>
								<g class="note" id="note-L28F1">
									<use xlink:href="#E0A4" x="13056" y="630" height="720px" width="720px" />
									<g class="stem">
										<rect x="13056" y="652" height="1363" width="18" />
									</g>
									<g class="accid" id="accid-0000001790017646">
										<use xlink:href="#E260" x="12860" y="630" height="720px" width="720px" />
									</g>
								</g>
								<g class="rest" id="rest-L29F1">
									<use xlink:href="#E4E8" x="13439" y="720" height="720px" width="720px" />
								</g>
								<g class="note" id="note-L30F1">
									<use xlink:href="#E0A4" x="13895" y="540" height="720px" width="720px" />
									<g class="stem">
										<rect x="13895" y="562" height="1405" width="18" />
									</g>
									<g class="accid" id="accid-0000000301989738" />
								</g>
								<g class="rest" id="rest-L31F1">
									<use xlink:href="#E4E7" x="14279" y="1080" height="720px" width="720px" />
									<g class="dots" id="dots-0000000945218682">
										<ellipse cx="14602" cy="990" rx="36" ry="36" />
									</g>
								</g>
							</g>
						</g>
					</g>
					<g class="mNum autogenerated" id="mnum-0000001238115182" />
					<g class="barLineAttr" id="bline-0000001943195323">
						<path d="M14840 1440 L14840 720" stroke="#000000" stroke-width="27" />
					</g>
				</g>
				<g class="measure" id="measure-L32">
					<g class="staff" id="staff-L32F1N1">
						<path d="M14853 720 L20001 720" stroke="#000000" stroke-width="13" />
						<path d="M14853 900 L20001 900" stroke="#000000" stroke-width="13" />
						<path d="M14853 1080 L20001 1080" stroke="#000000" stroke-width="13" />
						<path d="M14853 1260 L20001 1260" stroke="#000000" stroke-width="13" />
						<path d="M14853 1440 L20001 1440" stroke="#000000" stroke-width="13" />
						<g class="ledgerLines above">
							<path d="M17349 540 L17628 540" stroke="#000000" stroke-width="22" />
						</g>
						<g class="layer" id="layer-L32F1N1">
							<g class="beam" id="beam-L33F1-L39F1">
								<polygon points="15072,2070 17781,1899 17781,1809 15072,1980 " />
								<polygon points="15072,1935 15473,1910 15473,1820 15072,1845 " />
								<polygon points="15473,1910 16549,1842 16549,1752 15473,1820 " />
								<polygon points="16549,1842 17389,1788 17389,1698 16549,1752 " />
								<polygon points="17389,1788 17781,1764 17781,1674 17389,1698 " />
								<polygon points="15473,1775 16549,1707 16549,1617 15473,1685 " />
								<polygon points="16549,1707 17389,1653 17389,1563 16549,1617 " />
								<polygon points="17389,1653 17781,1629 17781,1539 17389,1563 " />
								<g class="rest" id="rest-L33F1">
									<use xlink:href="#E4E7" x="15072" y="1080" height="720px" width="720px" />
								</g>
								<g class="note" id="note-L34F1">
									<use xlink:href="#E0A4" x="15464" y="630" height="720px" width="720px" />
									<g class="stem">
										<rect x="15464" y="652" height="1375" width="18" />
									</g>
									<g class="accid" id="accid-0000001296725980" />
								</g>
								<g class="rest" id="rest-L35F1">
									<use xlink:href="#E4E8" x="15847" y="1080" height="720px" width="720px" />
								</g>
								<g class="note" id="note-L36F1">
									<use xlink:href="#E0A4" x="16540" y="900" height="720px" width="720px" />
									<g class="stem">
										<rect x="16540" y="922" height="1037" width="18" />
									</g>
									<g class="accid" id="accid-0000001968319543">
										<use xlink:href="#E262" x="16345" y="900" height="720px" width="720px" />
									</g>
								</g>
								<g class="rest" id="rest-L37F1">
									<use xlink:href="#E4E8" x="16923" y="720" height="720px" width="720px" />
								</g>
								<g class="note" id="note-L38F1">
									<use xlink:href="#E0A4" x="17380" y="450" height="720px" width="720px" />
									<g class="stem">
										<rect x="17380" y="472" height="1433" width="18" />
									</g>
									<g class="accid" id="accid-0000001012099505" />
								</g>
								<g class="rest" id="rest-L39F1">
									<use xlink:href="#E4E8" x="17763" y="1080" height="720px" width="720px" />
								</g>
							</g>
							<g class="beam" id="beam-L40F1-L43F1">
								<polygon points="18219,1626 19460,1749 19460,1659 18219,1536 " />
								<polygon points="18219,1491 19068,1575 19068,1485 18219,1401 " />
								<polygon points="18219,1356 19068,1440 19068,1350 18219,1266 " />
								<g class="note" id="note-L40F1">
									<use xlink:href="#E0A4" x="18219" y="630" height="720px" width="720px" />
									<g class="stem">
										<rect x="18219" y="652" height="956" width="18" />
									</g>
									<g class="accid" id="accid-0000001047773853" />
								</g>
								<g class="rest" id="rest-L41F1">
									<use xlink:href="#E4E8" x="18603" y="1080" height="720px" width="720px" />
								</g>
								<g class="note" id="note-L42F1">
									<use xlink:href="#E0A4" x="19059" y="900" height="720px" width="720px" />
									<g class="stem">
										<rect x="19059" y="922" height="770" width="18" />
									</g>
									<g class="accid" id="accid-0000001682760416" />
								</g>
								<g class="rest" id="rest-L43F1">
									<use xlink:href="#E4E6" x="19442" y="1080" height="720px" width="720px" />
								</g>
							</g>
						</g>
					</g>
					<g class="mNum autogenerated" id="mnum-0000001088245314" />
					<g class="barLineAttr" id="bline-0000001622706928">
						<path d="M19988 1440 L19988 720" stroke="#000000" stroke-width="27" />
					</g>
				</g>
			</g>
		</g>
	</svg>
</svg>
