<?xml version="1.0" encoding="UTF-8" standalone="no"?>
<svg width="2100.00px" height="450.00px" version="1.1" xmlns="http://www.w3.org/2000/svg" xmlns:xlink="http://www.w3.org/1999/xlink" overflow="visible">
	<desc>Engraved by Verovio 2.0.0-dev-0f0381c</desc>
	<defs>
		<symbol id="E050" viewBox="0 0 1000 1000" overflow="inherit">
			<path transform="scale(1,-1)" d="M441 -245c-23 -4 -48 -6 -76 -6c-59 0 -102 7 -130 20c-88 42 -150 93 -187 154c-26 44 -43 103 -48 176c-4 60 11 123 44 189c29 57 65 106 110 148s96 85 153 127c-3 16 -8 46 -13 92c-4 43 -5 73 -5 89c0 117 16 172 69 257c34 54 64 82 89 82c21 0 43 -30 69 -92 s39 -115 41 -159c2 -120 -19 -173 -67 -256c-13 -20 -63 -90 -98 -118c-13 -9 -25 -19 -37 -29l31 -181c8 1 18 2 28 2c58 0 102 -12 133 -35c59 -43 92 -104 98 -184c11 -135 -80 -229 -180 -270c8 -57 17 -110 25 -162c5 -31 6 -58 6 -80c0 -30 -5 -53 -14 -70 c-35 -64 -88 -99 -158 -103c-42 -3 -83 6 -124 26c-50 24 -77 59 -80 105c-2 34 5 63 20 87c18 28 45 42 79 44c51 4 99 -40 103 -87c4 -56 -30 -94 -105 -115c17 -24 51 -36 102 -36c62 0 116 43 140 85c9 16 13 41 13 74c0 20 -1 42 -5 67c-8 53 -18 106 -26 159zM461 939 c-95 0 -135 -175 -135 -286c0 -24 2 -48 5 -71c50 39 92 82 127 128c43 57 63 106 60 148c-4 54 -23 82 -57 81zM406 119l54 -326c80 27 116 88 109 184c-7 99 -62 146 -163 142zM382 117c-74 -2 -132 -50 -128 -127c2 -46 43 -99 75 -115c-3 -2 -7 -5 -10 -10 c-70 33 -116 88 -123 172c-5 73 42 135 88 170c23 17 49 29 78 36l-29 170c-21 -13 -52 -37 -92 -73c-50 -44 -86 -84 -109 -119c-49 -75 -71 -140 -67 -195c5 -68 35 -127 93 -176s125 -73 203 -73c25 0 50 3 75 9c-19 111 -36 221 -54 331z" />
		</symbol>
		<symbol id="E082" viewBox="0 0 1000 1000" overflow="inherit">
			<path transform="scale(1,-1)" d="M104 -185c-18 0 -55 -14 -65 -65h-36l-3 29c0 25 6 46 18 64c11 19 22 30 39 43l121 82l37 29c15 11 27 29 38 54c12 24 18 47 18 70c0 40 -19 88 -94 88c-25 0 -32 0 -50 -8c-14 -5 -23 -12 -26 -22c3 -9 7 -15 10 -18l24 -17c12 -7 17 -11 27 -21c5 -7 7 -16 7 -27 c0 -12 0 -57 -79 -74c-30 0 -76 26 -76 94c0 66 80 135 196 135c72 0 182 -32 182 -150c0 -53 -32 -95 -113 -133l-91 -41c-26 -11 -45 -23 -57 -37l49 7c84 0 115 -41 148 -41c20 0 33 20 39 61h35c0 -152 -68 -168 -114 -168c-17 0 -55 0 -69 7v0l-28 17 c-49 37 -69 40 -87 42z" />
		</symbol>
		<symbol id="E084" viewBox="0 0 1000 1000" overflow="inherit">
			<path transform="scale(1,-1)" d="M0 -78c84 97 114 180 134 329h170c-13 -32 -82 -132 -99 -151l-84 -97c-33 -36 -59 -63 -80 -81h162v102l127 123v-225h57v-39h-57v-34c0 -43 19 -65 57 -65v-34h-244v36c48 0 60 26 60 70v27h-203v39z" />
		</symbol>
		<symbol id="E4E6" viewBox="0 0 1000 1000" overflow="inherit">
			<path transform="scale(1,-1)" d="M0 123c7 34 33 56 69 60c29 -3 43 -9 53 -29c4 -8 7 -15 10 -22c0 -21 -1 -25 -11 -35c-5 -8 -18 -14 -40 -20l12 -3l15 -1c44 0 97 26 122 56c10 11 18 26 24 42c7 1 15 2 22 3l-140 -424h-36l111 330c-10 -6 -27 -12 -53 -16l-52 -8h-10l-20 1c-1 0 -8 3 -21 6 c-37 9 -55 28 -55 60z" />
		</symbol>
		<symbol id="E0A4" viewBox="0 0 1000 1000" overflow="inherit">
			<path transform="scale(1,-1)" d="M0 -39c0 68 73 172 200 172c66 0 114 -37 114 -95c0 -84 -106 -171 -218 -171c-64 0 -96 30 -96 94z" />
		</symbol>
		<symbol id="E262" viewBox="0 0 1000 1000" overflow="inherit">
			<path transform="scale(1,-1)" d="M136 186v169h17v-164l44 14v-91l-44 -14v-165l44 12v-91l-44 -13v-155h-17v150l-76 -22v-155h-17v149l-43 -13v90l43 14v167l-43 -14v92l43 13v169h17v-163zM60 73v-167l76 22v168z" />
		</symbol>
		<symbol id="E062" viewBox="0 0 1000 1000" overflow="inherit">
			<path transform="scale(1,-1)" d="M158 96c51 0 73 -14 88 -49l16 -39c0 -17 -2 -30 -7 -40c-3 -11 -10 -21 -19 -31c-17 -18 -49 -43 -84 -43c-55 0 -77 13 -112 44c-24 21 -35 55 -35 100c0 46 14 81 32 112c30 52 71 79 137 93l36 6l26 2c154 0 235 -68 274 -182c11 -32 18 -68 18 -107 c0 -103 -26 -182 -68 -250c-89 -145 -234 -230 -412 -288l-30 -5c-9 0 -14 3 -14 8c3 10 5 11 10 16c35 15 70 30 96 44l78 43c96 57 162 136 197 258c9 33 17 60 22 100c3 22 5 35 6 39c-7 69 -16 115 -23 140s-4 22 -16 40c-8 12 -19 23 -31 34c-24 21 -62 44 -118 44 c-48 0 -84 -8 -113 -28c-28 -19 -42 -44 -42 -73v-16c2 -5 3 -9 4 -11c24 22 52 39 84 39zM585 -118c0 32 23 58 57 58c18 0 33 -6 40 -18c9 -15 16 -18 16 -40c0 -9 -2 -16 -5 -21c-6 -19 -27 -37 -51 -37c-34 0 -57 26 -57 58zM642 177c31 0 56 -27 56 -58 c0 -30 -25 -58 -56 -58l-23 3c-19 7 -34 32 -34 55l3 23c9 20 28 35 54 35z" />
		</symbol>
		<symbol id="E4E7" viewBox="0 0 1000 1000" overflow="inherit">
			<path transform="scale(1,-1)" d="M133 -111c-16 38 -21 43 -64 51c-37 -4 -60 -25 -68 -60c0 -32 18 -52 55 -58c8 -6 22 -10 43 -10c31 0 62 7 82 20l-108 -324h37c72 220 143 439 215 659h-4l-10 -2l-7 -1c-15 -35 -27 -52 -59 -71c-26 -15 -56 -27 -88 -29c-11 0 -20 2 -26 6c29 3 56 25 51 56 c-15 35 -19 42 -64 48c-38 -4 -60 -23 -68 -58c0 -32 18 -52 55 -59c7 -5 22 -8 45 -8c48 0 76 7 112 25l-66 -197c-21 -23 -50 -47 -90 -47c-7 0 -15 1 -25 4c31 5 52 22 52 55z" />
		</symbol>
	</defs>
	<style type="text/css">g.page-margin{font-family:Times;} g.tempo{font-weight:bold;} g.dir, g.dynam, g.mNum{font-style:italic;} g.label{font-weight:normal;}</style>
	<svg class="definition-scale" viewBox="0 0 21000 4500">
		<g class="page-margin" transform="translate(500, 500)">
			<g class="system" id="system-0000001315823754">
				<path d="M13 720 L13 2880" stroke="#000000" stroke-width="27" />
				<path d="M-32,2862 C-392,2322 58,1980 -212,1800 C121,1980 -329,2322 -32,2862" stroke="#000000" stroke-linecap="round" stroke-linejoin="round" stroke-width="18" />
				<path d="M-32,738 C-329,1278 121,1620 -212,1800 C58,1620 -392,1278 -32,738" stroke="#000000" stroke-linecap="round" stroke-linejoin="round" stroke-width="18" />
				<g class="section boundaryStart" id="section-L1F1" />
				<g class="measure" id="measure-L4">
					<g class="staff" id="staff-L4F2N1">
						<path d="M0 720 L5033 720" stroke="#000000" stroke-width="13" />
						<path d="M0 900 L5033 900" stroke="#000000" stroke-width="13" />
						<path d="M0 1080 L5033 1080" stroke="#000000" stroke-width="13" />
						<path d="M0 1260 L5033 1260" stroke="#000000" stroke-width="13" />
						<path d="M0 1440 L5033 1440" stroke="#000000" stroke-width="13" />
						<g class="clef" id="clef-0000000235120840">
							<use xlink:href="#E050" x="90" y="1260" height="720px" width="720px" />
						</g>
						<g class="meterSig" id="msig-0000000306047400">
							<use xlink:href="#E082" x="771" y="900" height="720px" width="720px" />
							<use xlink:href="#E084" x="777" y="1260" height="720px" width="720px" />
						</g>
						<g class="layer" id="layer-L4F2N1">
							<g class="beam" id="beam-L5F2-L7F2">
								<polygon points="1821,585 2783,585 2783,675 1821,675 " />
								<polygon points="2625,720 2783,720 2783,810 2625,810 " />
								<g class="rest" id="rest-L5F2">
									<use xlink:href="#E4E6" x="1613" y="1080" height="720px" width="720px" />
									<g class="dots" id="dots-0000000292117860">
										<ellipse cx="1901" cy="990" rx="36" ry="36" />
									</g>
								</g>
								<g class="note" id="note-L7F2">
									<use xlink:href="#E0A4" x="2557" y="1260" height="720px" width="720px" />
									<g class="stem">
										<rect x="2765" y="603" height="635" width="18" />
									</g>
									<g class="accid" id="accid-0000000640449581">
										<use xlink:href="#E262" x="2362" y="1260" height="720px" width="720px" />
									</g>
								</g>
							</g>
							<g class="beam" id="beam-L8F2-L11F2">
								<polygon points="3395,662 4830,575 4830,665 3395,752 " />
								<polygon points="3395,797 4830,710 4830,800 3395,887 " />
								<g class="note" id="note-L8F2">
									<use xlink:href="#E0A4" x="3187" y="1350" height="720px" width="720px" />
									<g class="stem">
										<rect x="3395" y="680" height="648" width="18" />
									</g>
									<g class="accid" id="accid-0000000002531949">
										<use xlink:href="#E262" x="2992" y="1350" height="720px" width="720px" />
									</g>
								</g>
								<g class="rest" id="rest-L9F2">
									<use xlink:href="#E4E6" x="3825" y="1080" height="720px" width="720px" />
								</g>
								<g class="note" id="note-L11F2">
									<use xlink:href="#E0A4" x="4604" y="1260" height="720px" width="720px" />
									<g class="stem">
										<rect x="4812" y="593" height="645" width="18" />
									</g>
									<g class="accid" id="accid-0000000300489639" />
								</g>
							</g>
						</g>
					</g>
					<g class="staff" id="staff-L4F1N1">
						<path d="M0 2160 L5033 2160" stroke="#000000" stroke-width="13" />
						<path d="M0 2340 L5033 2340" stroke="#000000" stroke-width="13" />
						<path d="M0 2520 L5033 2520" stroke="#000000" stroke-width="13" />
						<path d="M0 2700 L5033 2700" stroke="#000000" stroke-width="13" />
						<path d="M0 2880 L5033 2880" stroke="#000000" stroke-width="13" />
						<g class="clef" id="clef-0000000515317235">
							<use xlink:href="#E062" x="90" y="2340" height="720px" width="720px" />
						</g>
						<g class="meterSig" id="msig-0000000135220294">
							<use xlink:href="#E082" x="771" y="2340" height="720px" width="720px" />
							<use xlink:href="#E084" x="777" y="2700" height="720px" width="720px" />
						</g>
						<g class="layer" id="layer-L4F1N1">
							<g class="beam" id="beam-L5F1-L6F1">
								<polygon points="1613,3016 2020,3055 2020,2965 1613,2926 " />
								<polygon points="1613,2881 1771,2896 1771,2806 1613,2791 " />
								<g class="note" id="note-L5F1">
									<use xlink:href="#E0A4" x="1613" y="2340" height="720px" width="720px" />
									<g class="stem">
										<rect x="1613" y="2362" height="636" width="18" />
									</g>
									<g class="accid" id="accid-0000001806055272">
										<use xlink:href="#E262" x="1418" y="2340" height="720px" width="720px" />
									</g>
								</g>
								<g class="rest" id="rest-L6F1">
									<use xlink:href="#E4E6" x="2002" y="2520" height="720px" width="720px" />
									<g class="dots" id="dots-0000000581871025">
										<ellipse cx="2290" cy="2430" rx="36" ry="36" />
									</g>
								</g>
							</g>
							<g class="beam" id="beam-L8F1-L11F1">
								<polygon points="3187,3375 4622,3286 4622,3196 3187,3285 " />
								<polygon points="3187,3240 4622,3151 4622,3061 3187,3150 " />
								<g class="rest" id="rest-L8F1">
									<use xlink:href="#E4E7" x="3187" y="2520" height="720px" width="720px" />
								</g>
								<g class="note" id="note-L9F1">
									<use xlink:href="#E0A4" x="3825" y="2520" height="720px" width="720px" />
									<g class="stem">
										<rect x="3825" y="2542" height="775" width="18" />
									</g>
									<g class="accid" id="accid-0000001883609141">
										<use xlink:href="#E262" x="3630" y="2520" height="720px" width="720px" />
									</g>
								</g>
								<g class="note" id="note-L10F1">
									<use xlink:href="#E0A4" x="4215" y="2340" height="720px" width="720px" />
									<g class="stem">
										<rect x="4215" y="2362" height="930" width="18" />
									</g>
									<g class="accid" id="accid-0000000286451449" />
								</g>
								<g class="rest" id="rest-L11F1">
									<use xlink:href="#E4E7" x="4604" y="2520" height="720px" width="720px" />
								</g>
							</g>
						</g>
					</g>
					<g class="mNum autogenerated" id="mnum-0000000865613423" />
					<g class="barLineAttr" id="bline-0000002074268200">
						<path d="M5020 2880 L5020 720" stroke="#000000" stroke-width="27" />
					</g>
				</g>
				<g class="measure" id="measure-L12">
					<g class="staff" id="staff-L12F2N1">
						<path d="M5033 720 L9352 720" stroke="#000000" stroke-width="13" />
						<path d="M5033 900 L9352 900" stroke="#000000" stroke-width="13" />
						<path d="M5033 1080 L9352 1080" stroke="#000000" stroke-width="13" />
						<path d="M5033 1260 L9352 1260" stroke="#000000" stroke-width="13" />
						<path d="M5033 1440 L9352 1440" stroke="#000000" stroke-width="13" />
						<g class="ledgerLines below">
							<path d="M5863 1620 L6142 1620" stroke="#000000" stroke-width="22" />
						</g>
						<g class="layer" id="layer-L12F2N1">
							<g class="beam" id="beam-L13F2-L16F2">
								<polygon points="5463,578 7139,518 7139,608 5463,668 " />
								<polygon points="5463,713 7139,653 7139,743 5463,803 " />
								<g class="rest" id="rest-L13F2">
									<use xlink:href="#E4E7" x="5255" y="1080" height="720px" width="720px" />
								</g>
								<g class="note" id="note-L14F2">
									<use xlink:href="#E0A4" x="5894" y="1620" height="720px" width="720px" />
									<g class="stem">
										<rect x="6102" y="573" height="1025" width="18" />
									</g>
									<g class="accid" id="accid-0000001968034458">
										<use xlink:href="#E262" x="5699" y="1620" height="720px" width="720px" />
									</g>
								</g>
								<g class="note" id="note-L15F2">
									<use xlink:href="#E0A4" x="6524" y="1350" height="720px" width="720px" />
									<g class="stem">
										<rect x="6732" y="550" height="778" width="18" />
									</g>
									<g class="accid" id="accid-0000001277441389">
										<use xlink:href="#E262" x="6329" y="1350" height="720px" width="720px" />
									</g>
								</g>
								<g class="rest" id="rest-L16F2">
									<use xlink:href="#E4E7" x="6913" y="1080" height="720px" width="720px" />
								</g>
							</g>
							<g class="beam" id="beam-L17F2-L20F2">
								<polygon points="7751,585 9158,585 9158,675 7751,675 " />
								<polygon points="9000,720 9158,720 9158,810 9000,810 " />
								<g class="rest" id="rest-L17F2">
									<use xlink:href="#E4E6" x="7543" y="1080" height="720px" width="720px" />
									<g class="dots" id="dots-0000001115483004">
										<ellipse cx="7831" cy="990" rx="36" ry="36" />
									</g>
								</g>
								<g class="note" id="note-L20F2">
									<use xlink:href="#E0A4" x="8932" y="1260" height="720px" width="720px" />
									<g class="stem">
										<rect x="9140" y="603" height="635" width="18" />
									</g>
									<g class="accid" id="accid-0000001661066177">
										<use xlink:href="#E262" x="8737" y="1260" height="720px" width="720px" />
									</g>
								</g>
							</g>
						</g>
					</g>
					<g class="staff" id="staff-L12F1N1">
						<path d="M5033 2160 L9352 2160" stroke="#000000" stroke-width="13" />
						<path d="M5033 2340 L9352 2340" stroke="#000000" stroke-width="13" />
						<path d="M5033 2520 L9352 2520" stroke="#000000" stroke-width="13" />
						<path d="M5033 2700 L9352 2700" stroke="#000000" stroke-width="13" />
						<path d="M5033 2880 L9352 2880" stroke="#000000" stroke-width="13" />
						<g class="ledgerLines above">
							<path d="M7512 1980 L7791 1980" stroke="#000000" stroke-width="22" />
						</g>
						<g class="layer" id="layer-L12F1N1">
							<g class="beam" id="beam-L13F1-L16F1">
								<polygon points="5255,3375 6931,3209 6931,3119 5255,3285 " />
								<polygon points="6773,3089 6931,3074 6931,2984 6773,2999 " />
								<g class="rest" id="rest-L13F1">
									<use xlink:href="#E4E6" x="5255" y="2520" height="720px" width="720px" />
									<g class="dots" id="dots-0000000123382947">
										<ellipse cx="5543" cy="2430" rx="36" ry="36" />
									</g>
								</g>
								<g class="note" id="note-L16F1">
									<use xlink:href="#E0A4" x="6913" y="2160" height="720px" width="720px" />
									<g class="stem">
										<rect x="6913" y="2182" height="1009" width="18" />
									</g>
									<g class="accid" id="accid-0000001187626538">
										<use xlink:href="#E262" x="6718" y="2160" height="720px" width="720px" />
									</g>
								</g>
							</g>
							<g class="beam" id="beam-L17F1-L19F1">
								<polygon points="7543,3132 8580,3234 8580,3144 7543,3042 " />
								<polygon points="7543,2997 8182,3060 8182,2970 7543,2907 " />
								<g class="note" id="note-L17F1">
									<use xlink:href="#E0A4" x="7543" y="1980" height="720px" width="720px" />
									<g class="stem">
										<rect x="7543" y="2002" height="1112" width="18" />
									</g>
									<g class="accid" id="accid-0000001917406270">
										<use xlink:href="#E262" x="7348" y="1980" height="720px" width="720px" />
									</g>
								</g>
								<g class="note" id="note-L18F1">
									<use xlink:href="#E0A4" x="8173" y="2520" height="720px" width="720px" />
									<g class="stem">
										<rect x="8173" y="2542" height="635" width="18" />
									</g>
									<g class="accid" id="accid-0000001562592017">
										<use xlink:href="#E262" x="7978" y="2520" height="720px" width="720px" />
									</g>
								</g>
								<g class="rest" id="rest-L19F1">
									<use xlink:href="#E4E6" x="8562" y="2520" height="720px" width="720px" />
								</g>
							</g>
						</g>
					</g>
					<g class="mNum autogenerated" id="mnum-0000000104056202" />
					<g class="barLineAttr" id="bline-0000000885313643">
						<path d="M9339 2880 L9339 720" stroke="#000000" stroke-width="27" />
					</g>
				</g>
				<g class="measure" id="measure-L21">
					<g class="staff" id="staff-L21F2N1">
						<path d="M9352 720 L12514 720" stroke="#000000" stroke-width="13" />
						<path d="M9352 900 L12514 900" stroke="#000000" stroke-width="13" />
						<path d="M9352 1080 L12514 1080" stroke="#000000" stroke-width="13" />
						<path d="M9352 1260 L12514 1260" stroke="#000000" stroke-width="13" />
						<path d="M9352 1440 L12514 1440" stroke="#000000" stroke-width="13" />
						<g class="layer" id="layer-L21F2N1">
							<g class="beam" id="beam-L22F2-L24F2">
								<polygon points="9782,585 10745,585 10745,675 9782,675 " />
								<polygon points="10587,720 10745,720 10745,810 10587,810 " />
								<g class="rest" id="rest-L22F2">
									<use xlink:href="#E4E6" x="9574" y="1080" height="720px" width="720px" />
									<g class="dots" id="dots-0000001972794338">
										<ellipse cx="9862" cy="990" rx="36" ry="36" />
									</g>
								</g>
								<g class="note" id="note-L24F2">
									<use xlink:href="#E0A4" x="10519" y="1260" height="720px" width="720px" />
									<g class="stem">
										<rect x="10727" y="603" height="635" width="18" />
									</g>
									<g class="accid" id="accid-0000001092814980" />
								</g>
							</g>
							<g class="beam" id="beam-L25F2-L28F2">
								<polygon points="11116,661 12311,584 12311,674 11116,751 " />
								<polygon points="11116,796 12311,719 12311,809 11116,886 " />
								<g class="note" id="note-L25F2">
									<use xlink:href="#E0A4" x="10908" y="1350" height="720px" width="720px" />
									<g class="stem">
										<rect x="11116" y="679" height="649" width="18" />
									</g>
									<g class="accid" id="accid-0000000134129235" />
								</g>
								<g class="rest" id="rest-L26F2">
									<use xlink:href="#E4E6" x="11306" y="1080" height="720px" width="720px" />
								</g>
								<g class="note" id="note-L28F2">
									<use xlink:href="#E0A4" x="12085" y="1260" height="720px" width="720px" />
									<g class="stem">
										<rect x="12293" y="602" height="636" width="18" />
									</g>
									<g class="accid" id="accid-0000001778005494" />
								</g>
							</g>
						</g>
					</g>
					<g class="staff" id="staff-L21F1N1">
						<path d="M9352 2160 L12514 2160" stroke="#000000" stroke-width="13" />
						<path d="M9352 2340 L12514 2340" stroke="#000000" stroke-width="13" />
						<path d="M9352 2520 L12514 2520" stroke="#000000" stroke-width="13" />
						<path d="M9352 2700 L12514 2700" stroke="#000000" stroke-width="13" />
						<path d="M9352 2880 L12514 2880" stroke="#000000" stroke-width="13" />
						<g class="layer" id="layer-L21F1N1">
							<g class="beam" id="beam-L22F1-L23F1">
								<polygon points="9574,3016 9982,3055 9982,2965 9574,2926 " />
								<polygon points="9574,2881 9732,2896 9732,2806 9574,2791 " />
								<g class="note" id="note-L22F1">
									<use xlink:href="#E0A4" x="9574" y="2340" height="720px" width="720px" />
									<g class="stem">
										<rect x="9574" y="2362" height="636" width="18" />
									</g>
									<g class="accid" id="accid-0000000305026895" />
								</g>
								<g class="rest" id="rest-L23F1">
									<use xlink:href="#E4E6" x="9964" y="2520" height="720px" width="720px" />
									<g class="dots" id="dots-0000000941949057">
										<ellipse cx="10252" cy="2430" rx="36" ry="36" />
									</g>
								</g>
							</g>
							<g class="beam" id="beam-L25F1-L28F1">
								<polygon points="10908,3375 12103,3319 12103,3229 10908,3285 " />
								<polygon points="10908,3240 12103,3184 12103,3094 10908,3150 " />
								<g class="rest" id="rest-L25F1">
									<use xlink:href="#E4E7" x="10908" y="2520" height="720px" width="720px" />
								</g>
								<g class="note" id="note-L26F1">
									<use xlink:href="#E0A4" x="11306" y="2520" height="720px" width="720px" />
									<g class="stem">
										<rect x="11306" y="2542" height="796" width="18" />
									</g>
									<g class="accid" id="accid-0000000398490958" />
								</g>
								<g class="note" id="note-L27F1">
									<use xlink:href="#E0A4" x="11696" y="2340" height="720px" width="720px" />
									<g class="stem">
										<rect x="11696" y="2362" height="958" width="18" />
									</g>
									<g class="accid" id="accid-0000000451769049" />
								</g>
								<g class="rest" id="rest-L28F1">
									<use xlink:href="#E4E7" x="12085" y="2520" height="720px" width="720px" />
								</g>
							</g>
						</g>
					</g>
					<g class="mNum autogenerated" id="mnum-0000001403720964" />
					<g class="barLineAttr" id="bline-0000001167691974">
						<path d="M12501 2880 L12501 720" stroke="#000000" stroke-width="27" />
					</g>
				</g>
				<g class="measure" id="measure-L29">
					<g class="staff" id="staff-L29F2N1">
						<path d="M12514 720 L16121 720" stroke="#000000" stroke-width="13" />
						<path d="M12514 900 L16121 900" stroke="#000000" stroke-width="13" />
						<path d="M12514 1080 L16121 1080" stroke="#000000" stroke-width="13" />
						<path d="M12514 1260 L16121 1260" stroke="#000000" stroke-width="13" />
						<path d="M12514 1440 L16121 1440" stroke="#000000" stroke-width="13" />
						<g class="layer" id="layer-L29F2N1">
							<g class="beam" id="beam-L30F2-L33F2">
								<polygon points="12944,575 14380,510 14380,600 12944,665 " />
								<polygon points="12944,710 14380,645 14380,735 12944,800 " />
								<g class="rest" id="rest-L30F2">
									<use xlink:href="#E4E7" x="12736" y="1080" height="720px" width="720px" />
								</g>
								<g class="note" id="note-L31F2">
									<use xlink:href="#E0A4" x="13135" y="1530" height="720px" width="720px" />
									<g class="stem">
										<rect x="13343" y="575" height="933" width="18" />
									</g>
									<g class="accid" id="accid-0000001284501303" />
								</g>
								<g class="note" id="note-L32F2">
									<use xlink:href="#E0A4" x="13764" y="1350" height="720px" width="720px" />
									<g class="stem">
										<rect x="13972" y="546" height="782" width="18" />
									</g>
									<g class="accid" id="accid-0000000566151827">
										<use xlink:href="#E262" x="13569" y="1350" height="720px" width="720px" />
									</g>
								</g>
								<g class="rest" id="rest-L33F2">
									<use xlink:href="#E4E7" x="14154" y="1080" height="720px" width="720px" />
								</g>
							</g>
							<g class="beam" id="beam-L34F2-L37F2">
								<polygon points="14760,569 15927,479 15927,569 14760,659 " />
								<polygon points="15769,625 15927,614 15927,704 15769,715 " />
								<g class="rest" id="rest-L34F2">
									<use xlink:href="#E4E6" x="14552" y="1080" height="720px" width="720px" />
									<g class="dots" id="dots-0000001891692398">
										<ellipse cx="14840" cy="990" rx="36" ry="36" />
									</g>
								</g>
								<g class="note" id="note-L37F2">
									<use xlink:href="#E0A4" x="15701" y="1170" height="720px" width="720px" />
									<g class="stem">
										<rect x="15909" y="497" height="651" width="18" />
									</g>
									<g class="accid" id="accid-0000001775200942" />
								</g>
							</g>
						</g>
					</g>
					<g class="staff" id="staff-L29F1N1">
						<path d="M12514 2160 L16121 2160" stroke="#000000" stroke-width="13" />
						<path d="M12514 2340 L16121 2340" stroke="#000000" stroke-width="13" />
						<path d="M12514 2520 L16121 2520" stroke="#000000" stroke-width="13" />
						<path d="M12514 2700 L16121 2700" stroke="#000000" stroke-width="13" />
						<path d="M12514 2880 L16121 2880" stroke="#000000" stroke-width="13" />
						<g class="ledgerLines above">
							<path d="M14521 1980 L14800 1980" stroke="#000000" stroke-width="22" />
						</g>
						<g class="layer" id="layer-L29F1N1">
							<g class="beam" id="beam-L30F1-L33F1">
								<polygon points="12736,3375 14172,3233 14172,3143 12736,3285 " />
								<polygon points="14014,3113 14172,3098 14172,3008 14014,3023 " />
								<g class="rest" id="rest-L30F1">
									<use xlink:href="#E4E6" x="12736" y="2520" height="720px" width="720px" />
									<g class="dots" id="dots-0000001890133751">
										<ellipse cx="13024" cy="2430" rx="36" ry="36" />
									</g>
								</g>
								<g class="note" id="note-L33F1">
									<use xlink:href="#E0A4" x="14154" y="2070" height="720px" width="720px" />
									<g class="stem">
										<rect x="14154" y="2092" height="1123" width="18" />
									</g>
									<g class="accid" id="accid-0000001780649433" />
								</g>
							</g>
							<g class="beam" id="beam-L34F1-L36F1">
								<polygon points="14552,3066 15349,3144 15349,3054 14552,2976 " />
								<polygon points="14552,2931 14951,2970 14951,2880 14552,2841 " />
								<g class="note" id="note-L34F1">
									<use xlink:href="#E0A4" x="14552" y="1890" height="720px" width="720px" />
									<g class="stem">
										<rect x="14552" y="1912" height="1136" width="18" />
									</g>
									<g class="accid" id="accid-0000001156136973" />
								</g>
								<g class="note" id="note-L35F1">
									<use xlink:href="#E0A4" x="14942" y="2430" height="720px" width="720px" />
									<g class="stem">
										<rect x="14942" y="2452" height="635" width="18" />
									</g>
									<g class="accid" id="accid-0000000470203377" />
								</g>
								<g class="rest" id="rest-L36F1">
									<use xlink:href="#E4E6" x="15331" y="2520" height="720px" width="720px" />
								</g>
							</g>
						</g>
					</g>
					<g class="mNum autogenerated" id="mnum-0000001663769586" />
					<g class="barLineAttr" id="bline-0000001516646701">
						<path d="M16108 2880 L16108 720" stroke="#000000" stroke-width="27" />
					</g>
				</g>
				<g class="measure" id="measure-L38">
					<g class="staff" id="staff-L38F2N1">
						<path d="M16121 720 L20004 720" stroke="#000000" stroke-width="13" />
						<path d="M16121 900 L20004 900" stroke="#000000" stroke-width="13" />
						<path d="M16121 1080 L20004 1080" stroke="#000000" stroke-width="13" />
						<path d="M16121 1260 L20004 1260" stroke="#000000" stroke-width="13" />
						<path d="M16121 1440 L20004 1440" stroke="#000000" stroke-width="13" />
						<g class="layer" id="layer-L38F2N1">
							<g class="beam" id="beam-L39F2-L41F2">
								<polygon points="16792,585 17754,585 17754,675 16792,675 " />
								<polygon points="17596,720 17754,720 17754,810 17596,810 " />
								<g class="rest" id="rest-L39F2">
									<use xlink:href="#E4E6" x="16584" y="1080" height="720px" width="720px" />
									<g class="dots" id="dots-0000000534968340">
										<ellipse cx="16872" cy="990" rx="36" ry="36" />
									</g>
								</g>
								<g class="note" id="note-L41F2">
									<use xlink:href="#E0A4" x="17528" y="1260" height="720px" width="720px" />
									<g class="stem">
										<rect x="17736" y="603" height="635" width="18" />
									</g>
									<g class="accid" id="accid-0000001511283738">
										<use xlink:href="#E262" x="17333" y="1260" height="720px" width="720px" />
									</g>
								</g>
							</g>
							<g class="beam" id="beam-L42F2-L45F2">
								<polygon points="18366,662 19801,575 19801,665 18366,752 " />
								<polygon points="18366,797 19801,710 19801,800 18366,887 " />
								<g class="note" id="note-L42F2">
									<use xlink:href="#E0A4" x="18158" y="1350" height="720px" width="720px" />
									<g class="stem">
										<rect x="18366" y="680" height="648" width="18" />
									</g>
									<g class="accid" id="accid-0000001674187229">
										<use xlink:href="#E262" x="17963" y="1350" height="720px" width="720px" />
									</g>
								</g>
								<g class="rest" id="rest-L43F2">
									<use xlink:href="#E4E6" x="18796" y="1080" height="720px" width="720px" />
								</g>
								<g class="note" id="note-L45F2">
									<use xlink:href="#E0A4" x="19575" y="1260" height="720px" width="720px" />
									<g class="stem">
										<rect x="19783" y="593" height="645" width="18" />
									</g>
									<g class="accid" id="accid-0000001252745057" />
								</g>
							</g>
						</g>
					</g>
					<g class="staff" id="staff-L38F1N1">
						<path d="M16121 2160 L20004 2160" stroke="#000000" stroke-width="13" />
						<path d="M16121 2340 L20004 2340" stroke="#000000" stroke-width="13" />
						<path d="M16121 2520 L20004 2520" stroke="#000000" stroke-width="13" />
						<path d="M16121 2700 L20004 2700" stroke="#000000" stroke-width="13" />
						<path d="M16121 2880 L20004 2880" stroke="#000000" stroke-width="13" />
						<g class="layer" id="layer-L38F1N1">
							<g class="beam" id="beam-L39F1-L40F1">
								<polygon points="16584,3016 16991,3055 16991,2965 16584,2926 " />
								<polygon points="16584,2881 16742,2896 16742,2806 16584,2791 " />
								<g class="note" id="note-L39F1">
									<use xlink:href="#E0A4" x="16584" y="2340" height="720px" width="720px" />
									<g class="stem">
										<rect x="16584" y="2362" height="636" width="18" />
									</g>
									<g class="accid" id="accid-0000000428724629">
										<use xlink:href="#E262" x="16389" y="2340" height="720px" width="720px" />
									</g>
								</g>
								<g class="rest" id="rest-L40F1">
									<use xlink:href="#E4E6" x="16973" y="2520" height="720px" width="720px" />
									<g class="dots" id="dots-0000001298742412">
										<ellipse cx="17261" cy="2430" rx="36" ry="36" />
									</g>
								</g>
							</g>
							<g class="beam" id="beam-L42F1-L45F1">
								<polygon points="18158,3375 19593,3286 19593,3196 18158,3285 " />
								<polygon points="18158,3240 19593,3151 19593,3061 18158,3150 " />
								<g class="rest" id="rest-L42F1">
									<use xlink:href="#E4E7" x="18158" y="2520" height="720px" width="720px" />
								</g>
								<g class="note" id="note-L43F1">
									<use xlink:href="#E0A4" x="18796" y="2520" height="720px" width="720px" />
									<g class="stem">
										<rect x="18796" y="2542" height="775" width="18" />
									</g>
									<g class="accid" id="accid-0000000435696878">
										<use xlink:href="#E262" x="18601" y="2520" height="720px" width="720px" />
									</g>
								</g>
								<g class="note" id="note-L44F1">
									<use xlink:href="#E0A4" x="19186" y="2340" height="720px" width="720px" />
									<g class="stem">
										<rect x="19186" y="2362" height="930" width="18" />
									</g>
									<g class="accid" id="accid-0000001359363481" />
								</g>
								<g class="rest" id="rest-L45F1">
									<use xlink:href="#E4E7" x="19575" y="2520" height="720px" width="720px" />
								</g>
							</g>
						</g>
					</g>
					<g class="mNum autogenerated" id="mnum-0000000692158477" />
					<g class="barLineAttr" id="bline-0000000277641161">
						<path d="M19991 2880 L19991 720" stroke="#000000" stroke-width="27" />
					</g>
				</g>
			</g>
		</g>
	</svg>
</svg>
