<?xml version="1.0" encoding="UTF-8" standalone="no"?>
<svg width="2100.00px" height="250.00px" version="1.1" xmlns="http://www.w3.org/2000/svg" xmlns:xlink="http://www.w3.org/1999/xlink" overflow="visible">
	<desc>Engraved by Verovio 2.0.0-dev-0f0381c</desc>
	<defs>
		<symbol id="E062" viewBox="0 0 1000 1000" overflow="inherit">
			<path transform="scale(1,-1)" d="M158 96c51 0 73 -14 88 -49l16 -39c0 -17 -2 -30 -7 -40c-3 -11 -10 -21 -19 -31c-17 -18 -49 -43 -84 -43c-55 0 -77 13 -112 44c-24 21 -35 55 -35 100c0 46 14 81 32 112c30 52 71 79 137 93l36 6l26 2c154 0 235 -68 274 -182c11 -32 18 -68 18 -107 c0 -103 -26 -182 -68 -250c-89 -145 -234 -230 -412 -288l-30 -5c-9 0 -14 3 -14 8c3 10 5 11 10 16c35 15 70 30 96 44l78 43c96 57 162 136 197 258c9 33 17 60 22 100c3 22 5 35 6 39c-7 69 -16 115 -23 140s-4 22 -16 40c-8 12 -19 23 -31 34c-24 21 -62 44 -118 44 c-48 0 -84 -8 -113 -28c-28 -19 -42 -44 -42 -73v-16c2 -5 3 -9 4 -11c24 22 52 39 84 39zM585 -118c0 32 23 58 57 58c18 0 33 -6 40 -18c9 -15 16 -18 16 -40c0 -9 -2 -16 -5 -21c-6 -19 -27 -37 -51 -37c-34 0 -57 26 -57 58zM642 177c31 0 56 -27 56 -58 c0 -30 -25 -58 -56 -58l-23 3c-19 7 -34 32 -34 55l3 23c9 20 28 35 54 35z" />
		</symbol>
		<symbol id="E082" viewBox="0 0 1000 1000" overflow="inherit">
			<path transform="scale(1,-1)" d="M104 -185c-18 0 -55 -14 -65 -65h-36l-3 29c0 25 6 46 18 64c11 19 22 30 39 43l121 82l37 29c15 11 27 29 38 54c12 24 18 47 18 70c0 40 -19 88 -94 88c-25 0 -32 0 -50 -8c-14 -5 -23 -12 -26 -22c3 -9 7 -15 10 -18l24 -17c12 -7 17 -11 27 -21c5 -7 7 -16 7 -27 c0 -12 0 -57 -79 -74c-30 0 -76 26 -76 94c0 66 80 135 196 135c72 0 182 -32 182 -150c0 -53 -32 -95 -113 -133l-91 -41c-26 -11 -45 -23 -57 -37l49 7c84 0 115 -41 148 -41c20 0 33 20 39 61h35c0 -152 -68 -168 -114 -168c-17 0 -55 0 -69 7v0l-28 17 c-49 37 -69 40 -87 42z" />
		</symbol>
		<symbol id="E084" viewBox="0 0 1000 1000" overflow="inherit">
			<path transform="scale(1,-1)" d="M0 -78c84 97 114 180 134 329h170c-13 -32 -82 -132 -99 -151l-84 -97c-33 -36 -59 -63 -80 -81h162v102l127 123v-225h57v-39h-57v-34c0 -43 19 -65 57 -65v-34h-244v36c48 0 60 26 60 70v27h-203v39z" />
		</symbol>
		<symbol id="E0A4" viewBox="0 0 1000 1000" overflow="inherit">
			<path transform="scale(1,-1)" d="M0 -39c0 68 73 172 200 172c66 0 114 -37 114 -95c0 -84 -106 -171 -218 -171c-64 0 -96 30 -96 94z" />
		</symbol>
		<symbol id="E262" viewBox="0 0 1000 1000" overflow="inherit">
			<path transform="scale(1,-1)" d="M136 186v169h17v-164l44 14v-91l-44 -14v-165l44 12v-91l-44 -13v-155h-17v150l-76 -22v-155h-17v149l-43 -13v90l43 14v167l-43 -14v92l43 13v169h17v-163zM60 73v-167l76 22v168z" />
		</symbol>
		<symbol id="E260" viewBox="0 0 1000 1000" overflow="inherit">
			<path transform="scale(1,-1)" d="M20 110c32 16 54 27 93 27c26 0 35 -3 54 -13c13 -7 24 -20 27 -38l4 -25c0 -28 -16 -57 -45 -89c-23 -25 -39 -44 -65 -68l-88 -79v644h20v-359zM90 106c-32 0 -48 -10 -70 -29v-194c31 31 54 59 71 84c21 32 32 59 32 84c0 9 1 16 1 20c0 14 -3 21 -11 30l-8 3z" />
		</symbol>
	</defs>
	<style type="text/css">g.page-margin{font-family:Times;} g.tempo{font-weight:bold;} g.dir, g.dynam, g.mNum{font-style:italic;} g.label{font-weight:normal;}</style>
	<svg class="definition-scale" viewBox="0 0 21000 2500">
		<g class="page-margin" transform="translate(500, 500)">
			<g class="system" id="system-0000001202830236">
				<g class="section boundaryStart" id="section-L1F1" />
				<g class="measure" id="measure-L4">
					<g class="staff" id="staff-L4F1N1">
						<path d="M0 720 L5140 720" stroke="#000000" stroke-width="13" />
						<path d="M0 900 L5140 900" stroke="#000000" stroke-width="13" />
						<path d="M0 1080 L5140 1080" stroke="#000000" stroke-width="13" />
						<path d="M0 1260 L5140 1260" stroke="#000000" stroke-width="13" />
						<path d="M0 1440 L5140 1440" stroke="#000000" stroke-width="13" />
						<g class="clef" id="clef-0000001276190624">
							<use xlink:href="#E062" x="88" y="900" height="720px" width="720px" />
						</g>
						<g class="meterSig" id="msig-0000002016634979">
							<use xlink:href="#E082" x="769" y="900" height="720px" width="720px" />
							<use xlink:href="#E084" x="775" y="1260" height="720px" width="720px" />
						</g>
						<g class="ledgerLines above">
							<path d="M2124 540 L2403 540" stroke="#000000" stroke-width="22" />
							<path d="M3423 540 L3702 540" stroke="#000000" stroke-width="22" />
						</g>
						<g class="layer" id="layer-L4F1N1">
							<g class="beam" id="beam-L5F1-L8F1">
								<polygon points="1575,1576 3113,1601 3113,1511 1575,1486 " />
								<polygon points="1575,1441 3113,1466 3113,1376 1575,1351 " />
								<g class="note" id="note-L5F1">
									<use xlink:href="#E0A4" x="1575" y="900" height="720px" width="720px" />
									<g class="stem">
										<rect x="1575" y="922" height="636" width="18" />
									</g>
									<g class="accid" id="accid-0000000213183289">
										<use xlink:href="#E262" x="1380" y="900" height="720px" width="720px" />
									</g>
								</g>
								<g class="note" id="note-L6F1">
									<use xlink:href="#E0A4" x="2155" y="540" height="720px" width="720px" />
									<g class="stem">
										<rect x="2155" y="562" height="1005" width="18" />
									</g>
									<g class="accid" id="accid-0000000653147235">
										<use xlink:href="#E262" x="1960" y="540" height="720px" width="720px" />
									</g>
								</g>
								<g class="note" id="note-L7F1">
									<use xlink:href="#E0A4" x="2736" y="720" height="720px" width="720px" />
									<g class="stem">
										<rect x="2736" y="742" height="835" width="18" />
									</g>
									<g class="accid" id="accid-0000001339438841">
										<use xlink:href="#E262" x="2541" y="720" height="720px" width="720px" />
									</g>
								</g>
								<g class="note" id="note-L8F1">
									<use xlink:href="#E0A4" x="3095" y="900" height="720px" width="720px" />
									<g class="stem">
										<rect x="3095" y="922" height="661" width="18" />
									</g>
									<g class="accid" id="accid-0000001069846575" />
								</g>
							</g>
							<g class="beam" id="beam-L9F1-L12F1">
								<polygon points="3454,1445 4770,1575 4770,1485 3454,1355 " />
								<polygon points="3454,1310 4770,1440 4770,1350 3454,1220 " />
								<g class="note" id="note-L9F1">
									<use xlink:href="#E0A4" x="3454" y="540" height="720px" width="720px" />
									<g class="stem">
										<rect x="3454" y="562" height="865" width="18" />
									</g>
									<g class="accid" id="accid-0000000004569373" />
								</g>
								<g class="note" id="note-L10F1">
									<use xlink:href="#E0A4" x="3813" y="720" height="720px" width="720px" />
									<g class="stem">
										<rect x="3813" y="742" height="721" width="18" />
									</g>
									<g class="accid" id="accid-0000000467337762" />
								</g>
								<g class="note" id="note-L11F1">
									<use xlink:href="#E0A4" x="4393" y="810" height="720px" width="720px" />
									<g class="stem">
										<rect x="4393" y="832" height="689" width="18" />
									</g>
									<g class="accid" id="accid-0000001136571713">
										<use xlink:href="#E262" x="4198" y="810" height="720px" width="720px" />
									</g>
								</g>
								<g class="note" id="note-L12F1">
									<use xlink:href="#E0A4" x="4752" y="900" height="720px" width="720px" />
									<g class="stem">
										<rect x="4752" y="922" height="635" width="18" />
									</g>
									<g class="accid" id="accid-0000000416847074" />
								</g>
							</g>
						</g>
					</g>
					<g class="mNum autogenerated" id="mnum-0000000269494632" />
					<g class="barLineAttr" id="bline-0000000900569347">
						<path d="M5127 1440 L5127 720" stroke="#000000" stroke-width="27" />
					</g>
				</g>
				<g class="measure" id="measure-L13">
					<g class="staff" id="staff-L13F1N1">
						<path d="M5140 720 L9354 720" stroke="#000000" stroke-width="13" />
						<path d="M5140 900 L9354 900" stroke="#000000" stroke-width="13" />
						<path d="M5140 1080 L9354 1080" stroke="#000000" stroke-width="13" />
						<path d="M5140 1260 L9354 1260" stroke="#000000" stroke-width="13" />
						<path d="M5140 1440 L9354 1440" stroke="#000000" stroke-width="13" />
						<g class="ledgerLines above">
							<path d="M6697 540 L6976 540" stroke="#000000" stroke-width="22" />
							<path d="M7636 540 L7915 540" stroke="#000000" stroke-width="22" />
							<path d="M8935 540 L9214 540" stroke="#000000" stroke-width="22" />
						</g>
						<g class="layer" id="layer-L13F1N1">
							<g class="beam" id="beam-L14F1-L17F1">
								<polygon points="5567,1813 7326,1638 7326,1548 5567,1723 " />
								<polygon points="5567,1678 7326,1503 7326,1413 5567,1588 " />
								<g class="note" id="note-L14F1">
									<use xlink:href="#E0A4" x="5567" y="810" height="720px" width="720px" />
									<g class="stem">
										<rect x="5567" y="832" height="963" width="18" />
									</g>
									<g class="accid" id="accid-0000000247770007">
										<use xlink:href="#E262" x="5372" y="810" height="720px" width="720px" />
									</g>
								</g>
								<g class="note" id="note-L15F1">
									<use xlink:href="#E0A4" x="6147" y="1080" height="720px" width="720px" />
									<g class="stem">
										<rect x="6147" y="1102" height="635" width="18" />
									</g>
									<g class="accid" id="accid-0000001479609397">
										<use xlink:href="#E262" x="5952" y="1080" height="720px" width="720px" />
									</g>
								</g>
								<g class="note" id="note-L16F1">
									<use xlink:href="#E0A4" x="6728" y="540" height="720px" width="720px" />
									<g class="stem">
										<rect x="6728" y="562" height="1116" width="18" />
									</g>
									<g class="accid" id="accid-0000000853031944">
										<use xlink:href="#E262" x="6533" y="540" height="720px" width="720px" />
									</g>
								</g>
								<g class="note" id="note-L17F1">
									<use xlink:href="#E0A4" x="7308" y="720" height="720px" width="720px" />
									<g class="stem">
										<rect x="7308" y="742" height="878" width="18" />
									</g>
									<g class="accid" id="accid-0000000277509111">
										<use xlink:href="#E262" x="7113" y="720" height="720px" width="720px" />
									</g>
								</g>
							</g>
							<g class="beam" id="beam-L18F1-L21F1">
								<polygon points="7667,1563 8984,1589 8984,1499 7667,1473 " />
								<polygon points="7667,1428 8984,1454 8984,1364 7667,1338 " />
								<g class="note" id="note-L18F1">
									<use xlink:href="#E0A4" x="7667" y="540" height="720px" width="720px" />
									<g class="stem">
										<rect x="7667" y="562" height="983" width="18" />
									</g>
									<g class="accid" id="accid-0000000492229536" />
								</g>
								<g class="note" id="note-L19F1">
									<use xlink:href="#E0A4" x="8248" y="900" height="720px" width="720px" />
									<g class="stem">
										<rect x="8248" y="922" height="635" width="18" />
									</g>
									<g class="accid" id="accid-0000000910913216">
										<use xlink:href="#E262" x="8053" y="900" height="720px" width="720px" />
									</g>
								</g>
								<g class="note" id="note-L20F1">
									<use xlink:href="#E0A4" x="8607" y="810" height="720px" width="720px" />
									<g class="stem">
										<rect x="8607" y="832" height="732" width="18" />
									</g>
									<g class="accid" id="accid-0000001337921461" />
								</g>
								<g class="note" id="note-L21F1">
									<use xlink:href="#E0A4" x="8966" y="540" height="720px" width="720px" />
									<g class="stem">
										<rect x="8966" y="562" height="1009" width="18" />
									</g>
									<g class="accid" id="accid-0000001480074626" />
								</g>
							</g>
						</g>
					</g>
					<g class="mNum autogenerated" id="mnum-0000001738895999" />
					<g class="barLineAttr" id="bline-0000000325791109">
						<path d="M9341 1440 L9341 720" stroke="#000000" stroke-width="27" />
					</g>
				</g>
				<g class="measure" id="measure-L22">
					<g class="staff" id="staff-L22F1N1">
						<path d="M9354 720 L12683 720" stroke="#000000" stroke-width="13" />
						<path d="M9354 900 L12683 900" stroke="#000000" stroke-width="13" />
						<path d="M9354 1080 L12683 1080" stroke="#000000" stroke-width="13" />
						<path d="M9354 1260 L12683 1260" stroke="#000000" stroke-width="13" />
						<path d="M9354 1440 L12683 1440" stroke="#000000" stroke-width="13" />
						<g class="ledgerLines above">
							<path d="M9887 540 L10166 540" stroke="#000000" stroke-width="22" />
							<path d="M11187 540 L11466 540" stroke="#000000" stroke-width="22" />
						</g>
						<g class="layer" id="layer-L22F1N1">
							<g class="beam" id="beam-L23F1-L26F1">
								<polygon points="9559,1576 10877,1609 10877,1519 9559,1486 " />
								<polygon points="9559,1441 10877,1474 10877,1384 9559,1351 " />
								<g class="note" id="note-L23F1">
									<use xlink:href="#E0A4" x="9559" y="900" height="720px" width="720px" />
									<g class="stem">
										<rect x="9559" y="922" height="636" width="18" />
									</g>
									<g class="accid" id="accid-0000001200364251" />
								</g>
								<g class="note" id="note-L24F1">
									<use xlink:href="#E0A4" x="9918" y="540" height="720px" width="720px" />
									<g class="stem">
										<rect x="9918" y="562" height="1005" width="18" />
									</g>
									<g class="accid" id="accid-0000001165371573" />
								</g>
								<g class="note" id="note-L25F1">
									<use xlink:href="#E0A4" x="10500" y="630" height="720px" width="720px" />
									<g class="stem">
										<rect x="10500" y="652" height="930" width="18" />
									</g>
									<g class="accid" id="accid-0000000166091524">
										<use xlink:href="#E260" x="10304" y="630" height="720px" width="720px" />
									</g>
								</g>
								<g class="note" id="note-L26F1">
									<use xlink:href="#E0A4" x="10859" y="900" height="720px" width="720px" />
									<g class="stem">
										<rect x="10859" y="922" height="669" width="18" />
									</g>
									<g class="accid" id="accid-0000001495266259" />
								</g>
							</g>
							<g class="beam" id="beam-L27F1-L30F1">
								<polygon points="11218,1467 12313,1575 12313,1485 11218,1377 " />
								<polygon points="11218,1332 12313,1440 12313,1350 11218,1242 " />
								<g class="note" id="note-L27F1">
									<use xlink:href="#E0A4" x="11218" y="540" height="720px" width="720px" />
									<g class="stem">
										<rect x="11218" y="562" height="887" width="18" />
									</g>
									<g class="accid" id="accid-0000000856968386" />
								</g>
								<g class="note" id="note-L28F1">
									<use xlink:href="#E0A4" x="11577" y="630" height="720px" width="720px" />
									<g class="stem">
										<rect x="11577" y="652" height="833" width="18" />
									</g>
									<g class="accid" id="accid-0000000006569392" />
								</g>
								<g class="note" id="note-L29F1">
									<use xlink:href="#E0A4" x="11936" y="810" height="720px" width="720px" />
									<g class="stem">
										<rect x="11936" y="832" height="689" width="18" />
									</g>
									<g class="accid" id="accid-0000000629482027" />
								</g>
								<g class="note" id="note-L30F1">
									<use xlink:href="#E0A4" x="12295" y="900" height="720px" width="720px" />
									<g class="stem">
										<rect x="12295" y="922" height="635" width="18" />
									</g>
									<g class="accid" id="accid-0000001089755292" />
								</g>
							</g>
						</g>
					</g>
					<g class="mNum autogenerated" id="mnum-0000001115534900" />
					<g class="barLineAttr" id="bline-0000001743258467">
						<path d="M12670 1440 L12670 720" stroke="#000000" stroke-width="27" />
					</g>
				</g>
				<g class="measure" id="measure-L31">
					<g class="staff" id="staff-L31F1N1">
						<path d="M12683 720 L16011 720" stroke="#000000" stroke-width="13" />
						<path d="M12683 900 L16011 900" stroke="#000000" stroke-width="13" />
						<path d="M12683 1080 L16011 1080" stroke="#000000" stroke-width="13" />
						<path d="M12683 1260 L16011 1260" stroke="#000000" stroke-width="13" />
						<path d="M12683 1440 L16011 1440" stroke="#000000" stroke-width="13" />
						<g class="ledgerLines above">
							<path d="M13575 540 L13854 540" stroke="#000000" stroke-width="22" />
							<path d="M14293 540 L14572 540" stroke="#000000" stroke-width="22" />
							<path d="M15592 540 L15871 540" stroke="#000000" stroke-width="22" />
						</g>
						<g class="layer" id="layer-L31F1N1">
							<g class="beam" id="beam-L32F1-L35F1">
								<polygon points="12888,1701 13983,1593 13983,1503 12888,1611 " />
								<polygon points="12888,1566 13983,1458 13983,1368 12888,1476 " />
								<g class="note" id="note-L32F1">
									<use xlink:href="#E0A4" x="12888" y="720" height="720px" width="720px" />
									<g class="stem">
										<rect x="12888" y="742" height="941" width="18" />
									</g>
									<g class="accid" id="accid-0000000865242684" />
								</g>
								<g class="note" id="note-L33F1">
									<use xlink:href="#E0A4" x="13247" y="990" height="720px" width="720px" />
									<g class="stem">
										<rect x="13247" y="1012" height="635" width="18" />
									</g>
									<g class="accid" id="accid-0000001847730440" />
								</g>
								<g class="note" id="note-L34F1">
									<use xlink:href="#E0A4" x="13606" y="450" height="720px" width="720px" />
									<g class="stem">
										<rect x="13606" y="472" height="1139" width="18" />
									</g>
									<g class="accid" id="accid-0000000348749935" />
								</g>
								<g class="note" id="note-L35F1">
									<use xlink:href="#E0A4" x="13965" y="630" height="720px" width="720px" />
									<g class="stem">
										<rect x="13965" y="652" height="923" width="18" />
									</g>
									<g class="accid" id="accid-0000000139528450" />
								</g>
							</g>
							<g class="beam" id="beam-L36F1-L39F1">
								<polygon points="14324,1571 15641,1581 15641,1491 14324,1481 " />
								<polygon points="14324,1436 15641,1446 15641,1356 14324,1346 " />
								<g class="note" id="note-L36F1">
									<use xlink:href="#E0A4" x="14324" y="450" height="720px" width="720px" />
									<g class="stem">
										<rect x="14324" y="472" height="1081" width="18" />
									</g>
									<g class="accid" id="accid-0000000896839817" />
								</g>
								<g class="note" id="note-L37F1">
									<use xlink:href="#E0A4" x="14905" y="900" height="720px" width="720px" />
									<g class="stem">
										<rect x="14905" y="922" height="635" width="18" />
									</g>
									<g class="accid" id="accid-0000001818708158">
										<use xlink:href="#E262" x="14710" y="900" height="720px" width="720px" />
									</g>
								</g>
								<g class="note" id="note-L38F1">
									<use xlink:href="#E0A4" x="15264" y="720" height="720px" width="720px" />
									<g class="stem">
										<rect x="15264" y="742" height="818" width="18" />
									</g>
									<g class="accid" id="accid-0000000818732686" />
								</g>
								<g class="note" id="note-L39F1">
									<use xlink:href="#E0A4" x="15623" y="450" height="720px" width="720px" />
									<g class="stem">
										<rect x="15623" y="472" height="1091" width="18" />
									</g>
									<g class="accid" id="accid-0000001281947772" />
								</g>
							</g>
						</g>
					</g>
					<g class="mNum autogenerated" id="mnum-0000000735530629" />
					<g class="barLineAttr" id="bline-0000000208365625">
						<path d="M15998 1440 L15998 720" stroke="#000000" stroke-width="27" />
					</g>
				</g>
				<g class="measure" id="measure-L40">
					<g class="staff" id="staff-L40F1N1">
						<path d="M16011 720 L20003 720" stroke="#000000" stroke-width="13" />
						<path d="M16011 900 L20003 900" stroke="#000000" stroke-width="13" />
						<path d="M16011 1080 L20003 1080" stroke="#000000" stroke-width="13" />
						<path d="M16011 1260 L20003 1260" stroke="#000000" stroke-width="13" />
						<path d="M16011 1440 L20003 1440" stroke="#000000" stroke-width="13" />
						<g class="ledgerLines above">
							<path d="M16987 540 L17266 540" stroke="#000000" stroke-width="22" />
							<path d="M18286 540 L18565 540" stroke="#000000" stroke-width="22" />
						</g>
						<g class="layer" id="layer-L40F1N1">
							<g class="beam" id="beam-L41F1-L44F1">
								<polygon points="16438,1576 17976,1601 17976,1511 16438,1486 " />
								<polygon points="16438,1441 17976,1466 17976,1376 16438,1351 " />
								<g class="note" id="note-L41F1">
									<use xlink:href="#E0A4" x="16438" y="900" height="720px" width="720px" />
									<g class="stem">
										<rect x="16438" y="922" height="636" width="18" />
									</g>
									<g class="accid" id="accid-0000000137475344">
										<use xlink:href="#E262" x="16243" y="900" height="720px" width="720px" />
									</g>
								</g>
								<g class="note" id="note-L42F1">
									<use xlink:href="#E0A4" x="17018" y="540" height="720px" width="720px" />
									<g class="stem">
										<rect x="17018" y="562" height="1005" width="18" />
									</g>
									<g class="accid" id="accid-0000001447362962">
										<use xlink:href="#E262" x="16823" y="540" height="720px" width="720px" />
									</g>
								</g>
								<g class="note" id="note-L43F1">
									<use xlink:href="#E0A4" x="17599" y="720" height="720px" width="720px" />
									<g class="stem">
										<rect x="17599" y="742" height="835" width="18" />
									</g>
									<g class="accid" id="accid-0000001421251004">
										<use xlink:href="#E262" x="17404" y="720" height="720px" width="720px" />
									</g>
								</g>
								<g class="note" id="note-L44F1">
									<use xlink:href="#E0A4" x="17958" y="900" height="720px" width="720px" />
									<g class="stem">
										<rect x="17958" y="922" height="661" width="18" />
									</g>
									<g class="accid" id="accid-0000000993027185" />
								</g>
							</g>
							<g class="beam" id="beam-L45F1-L48F1">
								<polygon points="18317,1445 19633,1575 19633,1485 18317,1355 " />
								<polygon points="18317,1310 19633,1440 19633,1350 18317,1220 " />
								<g class="note" id="note-L45F1">
									<use xlink:href="#E0A4" x="18317" y="540" height="720px" width="720px" />
									<g class="stem">
										<rect x="18317" y="562" height="865" width="18" />
									</g>
									<g class="accid" id="accid-0000000151079483" />
								</g>
								<g class="note" id="note-L46F1">
									<use xlink:href="#E0A4" x="18676" y="720" height="720px" width="720px" />
									<g class="stem">
										<rect x="18676" y="742" height="721" width="18" />
									</g>
									<g class="accid" id="accid-0000000059341600" />
								</g>
								<g class="note" id="note-L47F1">
									<use xlink:href="#E0A4" x="19256" y="810" height="720px" width="720px" />
									<g class="stem">
										<rect x="19256" y="832" height="689" width="18" />
									</g>
									<g class="accid" id="accid-0000001737049086">
										<use xlink:href="#E262" x="19061" y="810" height="720px" width="720px" />
									</g>
								</g>
								<g class="note" id="note-L48F1">
									<use xlink:href="#E0A4" x="19615" y="900" height="720px" width="720px" />
									<g class="stem">
										<rect x="19615" y="922" height="635" width="18" />
									</g>
									<g class="accid" id="accid-0000001435697096" />
								</g>
							</g>
						</g>
					</g>
					<g class="mNum autogenerated" id="mnum-0000000107829037" />
					<g class="barLineAttr" id="bline-0000002125692645">
						<path d="M19990 1440 L19990 720" stroke="#000000" stroke-width="27" />
					</g>
				</g>
			</g>
		</g>
	</svg>
</svg>
