<?xml version="1.0" encoding="UTF-8" standalone="no"?>
<svg width="2100.00px" height="250.00px" version="1.1" xmlns="http://www.w3.org/2000/svg" xmlns:xlink="http://www.w3.org/1999/xlink" overflow="visible">
	<desc>Engraved by Verovio 2.0.0-dev-0f0381c</desc>
	<defs>
		<symbol id="E062" viewBox="0 0 1000 1000" overflow="inherit">
			<path transform="scale(1,-1)" d="M158 96c51 0 73 -14 88 -49l16 -39c0 -17 -2 -30 -7 -40c-3 -11 -10 -21 -19 -31c-17 -18 -49 -43 -84 -43c-55 0 -77 13 -112 44c-24 21 -35 55 -35 100c0 46 14 81 32 112c30 52 71 79 137 93l36 6l26 2c154 0 235 -68 274 -182c11 -32 18 -68 18 -107 c0 -103 -26 -182 -68 -250c-89 -145 -234 -230 -412 -288l-30 -5c-9 0 -14 3 -14 8c3 10 5 11 10 16c35 15 70 30 96 44l78 43c96 57 162 136 197 258c9 33 17 60 22 100c3 22 5 35 6 39c-7 69 -16 115 -23 140s-4 22 -16 40c-8 12 -19 23 -31 34c-24 21 -62 44 -118 44 c-48 0 -84 -8 -113 -28c-28 -19 -42 -44 -42 -73v-16c2 -5 3 -9 4 -11c24 22 52 39 84 39zM585 -118c0 32 23 58 57 58c18 0 33 -6 40 -18c9 -15 16 -18 16 -40c0 -9 -2 -16 -5 -21c-6 -19 -27 -37 -51 -37c-34 0 -57 26 -57 58zM642 177c31 0 56 -27 56 -58 c0 -30 -25 -58 -56 -58l-23 3c-19 7 -34 32 -34 55l3 23c9 20 28 35 54 35z" />
		</symbol>
		<symbol id="E082" viewBox="0 0 1000 1000" overflow="inherit">
			<path transform="scale(1,-1)" d="M104 -185c-18 0 -55 -14 -65 -65h-36l-3 29c0 25 6 46 18 64c11 19 22 30 39 43l121 82l37 29c15 11 27 29 38 54c12 24 18 47 18 70c0 40 -19 88 -94 88c-25 0 -32 0 -50 -8c-14 -5 -23 -12 -26 -22c3 -9 7 -15 10 -18l24 -17c12 -7 17 -11 27 -21c5 -7 7 -16 7 -27 c0 -12 0 -57 -79 -74c-30 0 -76 26 -76 94c0 66 80 135 196 135c72 0 182 -32 182 -150c0 -53 -32 -95 -113 -133l-91 -41c-26 -11 -45 -23 -57 -37l49 7c84 0 115 -41 148 -41c20 0 33 20 39 61h35c0 -152 -68 -168 -114 -168c-17 0 -55 0 -69 7v0l-28 17 c-49 37 -69 40 -87 42z" />
		</symbol>
		<symbol id="E084" viewBox="0 0 1000 1000" overflow="inherit">
			<path transform="scale(1,-1)" d="M0 -78c84 97 114 180 134 329h170c-13 -32 -82 -132 -99 -151l-84 -97c-33 -36 -59 -63 -80 -81h162v102l127 123v-225h57v-39h-57v-34c0 -43 19 -65 57 -65v-34h-244v36c48 0 60 26 60 70v27h-203v39z" />
		</symbol>
		<symbol id="E0A4" viewBox="0 0 1000 1000" overflow="inherit">
			<path transform="scale(1,-1)" d="M0 -39c0 68 73 172 200 172c66 0 114 -37 114 -95c0 -84 -106 -171 -218 -171c-64 0 -96 30 -96 94z" />
		</symbol>
		<symbol id="E262" viewBox="0 0 1000 1000" overflow="inherit">
			<path transform="scale(1,-1)" d="M136 186v169h17v-164l44 14v-91l-44 -14v-165l44 12v-91l-44 -13v-155h-17v150l-76 -22v-155h-17v149l-43 -13v90l43 14v167l-43 -14v92l43 13v169h17v-163zM60 73v-167l76 22v168z" />
		</symbol>
		<symbol id="E260" viewBox="0 0 1000 1000" overflow="inherit">
			<path transform="scale(1,-1)" d="M20 110c32 16 54 27 93 27c26 0 35 -3 54 -13c13 -7 24 -20 27 -38l4 -25c0 -28 -16 -57 -45 -89c-23 -25 -39 -44 -65 -68l-88 -79v644h20v-359zM90 106c-32 0 -48 -10 -70 -29v-194c31 31 54 59 71 84c21 32 32 59 32 84c0 9 1 16 1 20c0 14 -3 21 -11 30l-8 3z" />
		</symbol>
	</defs>
	<style type="text/css">g.page-margin{font-family:Times;} g.tempo{font-weight:bold;} g.dir, g.dynam, g.mNum{font-style:italic;} g.label{font-weight:normal;}</style>
	<svg class="definition-scale" viewBox="0 0 21000 2500">
		<g class="page-margin" transform="translate(500, 500)">
			<g class="system" id="system-0000001537605271">
				<g class="section boundaryStart" id="section-L1F1" />
				<g class="measure" id="measure-L4">
					<g class="staff" id="staff-L4F1N1">
						<path d="M0 720 L5188 720" stroke="#000000" stroke-width="13" />
						<path d="M0 900 L5188 900" stroke="#000000" stroke-width="13" />
						<path d="M0 1080 L5188 1080" stroke="#000000" stroke-width="13" />
						<path d="M0 1260 L5188 1260" stroke="#000000" stroke-width="13" />
						<path d="M0 1440 L5188 1440" stroke="#000000" stroke-width="13" />
						<g class="clef" id="clef-0000000743615327">
							<use xlink:href="#E062" x="88" y="900" height="720px" width="720px" />
						</g>
						<g class="meterSig" id="msig-0000001735458996">
							<use xlink:href="#E082" x="769" y="900" height="720px" width="720px" />
							<use xlink:href="#E084" x="775" y="1260" height="720px" width="720px" />
						</g>
						<g class="layer" id="layer-L4F1N1">
							<g class="beam" id="beam-L5F1-L8F1">
								<polygon points="1580,1601 3136,1755 3136,1665 1580,1511 " />
								<polygon points="1580,1466 3136,1620 3136,1530 1580,1376 " />
								<g class="note" id="note-L5F1">
									<use xlink:href="#E0A4" x="1580" y="900" height="720px" width="720px" />
									<g class="stem">
										<rect x="1580" y="922" height="661" width="18" />
									</g>
									<g class="accid" id="accid-0000001401792443">
										<use xlink:href="#E262" x="1385" y="900" height="720px" width="720px" />
									</g>
								</g>
								<g class="note" id="note-L6F1">
									<use xlink:href="#E0A4" x="2167" y="810" height="720px" width="720px" />
									<g class="stem">
										<rect x="2167" y="832" height="810" width="18" />
									</g>
									<g class="accid" id="accid-0000000833278288">
										<use xlink:href="#E262" x="1972" y="810" height="720px" width="720px" />
									</g>
								</g>
								<g class="note" id="note-L7F1">
									<use xlink:href="#E0A4" x="2530" y="900" height="720px" width="720px" />
									<g class="stem">
										<rect x="2530" y="922" height="756" width="18" />
									</g>
									<g class="accid" id="accid-0000001956882158" />
								</g>
								<g class="note" id="note-L8F1">
									<use xlink:href="#E0A4" x="3118" y="1080" height="720px" width="720px" />
									<g class="stem">
										<rect x="3118" y="1102" height="635" width="18" />
									</g>
									<g class="accid" id="accid-0000001546501692">
										<use xlink:href="#E262" x="2923" y="1080" height="720px" width="720px" />
									</g>
								</g>
							</g>
							<g class="beam" id="beam-L9F1-L12F1">
								<polygon points="3481,1594 4813,1485 4813,1395 3481,1504 " />
								<polygon points="3481,1459 4813,1350 4813,1260 3481,1369 " />
								<g class="note" id="note-L9F1">
									<use xlink:href="#E0A4" x="3481" y="900" height="720px" width="720px" />
									<g class="stem">
										<rect x="3481" y="922" height="654" width="18" />
									</g>
									<g class="accid" id="accid-0000000555820393" />
								</g>
								<g class="note" id="note-L10F1">
									<use xlink:href="#E0A4" x="3845" y="810" height="720px" width="720px" />
									<g class="stem">
										<rect x="3845" y="832" height="714" width="18" />
									</g>
									<g class="accid" id="accid-0000000214931762" />
								</g>
								<g class="note" id="note-L11F1">
									<use xlink:href="#E0A4" x="4432" y="720" height="720px" width="720px" />
									<g class="stem">
										<rect x="4432" y="742" height="755" width="18" />
									</g>
									<g class="accid" id="accid-0000001235218482">
										<use xlink:href="#E262" x="4237" y="720" height="720px" width="720px" />
									</g>
								</g>
								<g class="note" id="note-L12F1">
									<use xlink:href="#E0A4" x="4795" y="810" height="720px" width="720px" />
									<g class="stem">
										<rect x="4795" y="832" height="635" width="18" />
									</g>
									<g class="accid" id="accid-0000002138548836" />
								</g>
							</g>
						</g>
					</g>
					<g class="mNum autogenerated" id="mnum-0000000315146459" />
					<g class="barLineAttr" id="bline-0000000728240448">
						<path d="M5175 1440 L5175 720" stroke="#000000" stroke-width="27" />
					</g>
				</g>
				<g class="measure" id="measure-L13">
					<g class="staff" id="staff-L13F1N1">
						<path d="M5188 720 L9228 720" stroke="#000000" stroke-width="13" />
						<path d="M5188 900 L9228 900" stroke="#000000" stroke-width="13" />
						<path d="M5188 1080 L9228 1080" stroke="#000000" stroke-width="13" />
						<path d="M5188 1260 L9228 1260" stroke="#000000" stroke-width="13" />
						<path d="M5188 1440 L9228 1440" stroke="#000000" stroke-width="13" />
						<g class="ledgerLines above">
							<path d="M5589 540 L5868 540" stroke="#000000" stroke-width="22" />
							<path d="M6539 540 L6818 540" stroke="#000000" stroke-width="22" />
						</g>
						<g class="layer" id="layer-L13F1N1">
							<g class="beam" id="beam-L14F1-L17F1">
								<polygon points="5620,1336 7176,1490 7176,1400 5620,1246 " />
								<polygon points="5620,1201 7176,1355 7176,1265 5620,1111 " />
								<g class="note" id="note-L14F1">
									<use xlink:href="#E0A4" x="5620" y="540" height="720px" width="720px" />
									<g class="stem">
										<rect x="5620" y="562" height="756" width="18" />
									</g>
									<g class="accid" id="accid-0000001560288650">
										<use xlink:href="#E262" x="5425" y="540" height="720px" width="720px" />
									</g>
								</g>
								<g class="note" id="note-L15F1">
									<use xlink:href="#E0A4" x="6207" y="720" height="720px" width="720px" />
									<g class="stem">
										<rect x="6207" y="742" height="635" width="18" />
									</g>
									<g class="accid" id="accid-0000001902427551">
										<use xlink:href="#E262" x="6012" y="720" height="720px" width="720px" />
									</g>
								</g>
								<g class="note" id="note-L16F1">
									<use xlink:href="#E0A4" x="6570" y="540" height="720px" width="720px" />
									<g class="stem">
										<rect x="6570" y="562" height="851" width="18" />
									</g>
									<g class="accid" id="accid-0000000346089735" />
								</g>
								<g class="note" id="note-L17F1">
									<use xlink:href="#E0A4" x="7158" y="810" height="720px" width="720px" />
									<g class="stem">
										<rect x="7158" y="832" height="640" width="18" />
									</g>
									<g class="accid" id="accid-0000000517445949">
										<use xlink:href="#E262" x="6963" y="810" height="720px" width="720px" />
									</g>
								</g>
							</g>
							<g class="beam" id="beam-L18F1-L21F1">
								<polygon points="7745,1576 8853,1603 8853,1513 7745,1486 " />
								<polygon points="7745,1441 8853,1468 8853,1378 7745,1351 " />
								<g class="note" id="note-L18F1">
									<use xlink:href="#E0A4" x="7745" y="900" height="720px" width="720px" />
									<g class="stem">
										<rect x="7745" y="922" height="636" width="18" />
									</g>
									<g class="accid" id="accid-0000000027186566">
										<use xlink:href="#E262" x="7550" y="900" height="720px" width="720px" />
									</g>
								</g>
								<g class="note" id="note-L19F1">
									<use xlink:href="#E0A4" x="8109" y="720" height="720px" width="720px" />
									<g class="stem">
										<rect x="8109" y="742" height="825" width="18" />
									</g>
									<g class="accid" id="accid-0000001629614114" />
								</g>
								<g class="note" id="note-L20F1">
									<use xlink:href="#E0A4" x="8472" y="810" height="720px" width="720px" />
									<g class="stem">
										<rect x="8472" y="832" height="744" width="18" />
									</g>
									<g class="accid" id="accid-0000000177050494" />
								</g>
								<g class="note" id="note-L21F1">
									<use xlink:href="#E0A4" x="8835" y="900" height="720px" width="720px" />
									<g class="stem">
										<rect x="8835" y="922" height="663" width="18" />
									</g>
									<g class="accid" id="accid-0000000795459996" />
								</g>
							</g>
						</g>
					</g>
					<g class="mNum autogenerated" id="mnum-0000000339326095" />
					<g class="barLineAttr" id="bline-0000000001869542">
						<path d="M9215 1440 L9215 720" stroke="#000000" stroke-width="27" />
					</g>
				</g>
				<g class="measure" id="measure-L22">
					<g class="staff" id="staff-L22F1N1">
						<path d="M9228 720 L12596 720" stroke="#000000" stroke-width="13" />
						<path d="M9228 900 L12596 900" stroke="#000000" stroke-width="13" />
						<path d="M9228 1080 L12596 1080" stroke="#000000" stroke-width="13" />
						<path d="M9228 1260 L12596 1260" stroke="#000000" stroke-width="13" />
						<path d="M9228 1440 L12596 1440" stroke="#000000" stroke-width="13" />
						<g class="layer" id="layer-L22F1N1">
							<g class="beam" id="beam-L23F1-L26F1">
								<polygon points="9435,1646 10543,1755 10543,1665 9435,1556 " />
								<polygon points="9435,1511 10543,1620 10543,1530 9435,1421 " />
								<g class="note" id="note-L23F1">
									<use xlink:href="#E0A4" x="9435" y="900" height="720px" width="720px" />
									<g class="stem">
										<rect x="9435" y="922" height="706" width="18" />
									</g>
									<g class="accid" id="accid-0000001936785522" />
								</g>
								<g class="note" id="note-L24F1">
									<use xlink:href="#E0A4" x="9799" y="810" height="720px" width="720px" />
									<g class="stem">
										<rect x="9799" y="832" height="833" width="18" />
									</g>
									<g class="accid" id="accid-0000001442223477" />
								</g>
								<g class="note" id="note-L25F1">
									<use xlink:href="#E0A4" x="10162" y="900" height="720px" width="720px" />
									<g class="stem">
										<rect x="10162" y="922" height="779" width="18" />
									</g>
									<g class="accid" id="accid-0000000370927531" />
								</g>
								<g class="note" id="note-L26F1">
									<use xlink:href="#E0A4" x="10525" y="1080" height="720px" width="720px" />
									<g class="stem">
										<rect x="10525" y="1102" height="635" width="18" />
									</g>
									<g class="accid" id="accid-0000002124174277" />
								</g>
							</g>
							<g class="beam" id="beam-L27F1-L30F1">
								<polygon points="10889,1617 12222,1485 12222,1395 10889,1527 " />
								<polygon points="10889,1482 12222,1350 12222,1260 10889,1392 " />
								<g class="note" id="note-L27F1">
									<use xlink:href="#E0A4" x="10889" y="900" height="720px" width="720px" />
									<g class="stem">
										<rect x="10889" y="922" height="677" width="18" />
									</g>
									<g class="accid" id="accid-0000002085178185" />
								</g>
								<g class="note" id="note-L28F1">
									<use xlink:href="#E0A4" x="11252" y="810" height="720px" width="720px" />
									<g class="stem">
										<rect x="11252" y="832" height="730" width="18" />
									</g>
									<g class="accid" id="accid-0000000728602343" />
								</g>
								<g class="note" id="note-L29F1">
									<use xlink:href="#E0A4" x="11841" y="630" height="720px" width="720px" />
									<g class="stem">
										<rect x="11841" y="652" height="851" width="18" />
									</g>
									<g class="accid" id="accid-0000001361823627">
										<use xlink:href="#E260" x="11645" y="630" height="720px" width="720px" />
									</g>
								</g>
								<g class="note" id="note-L30F1">
									<use xlink:href="#E0A4" x="12204" y="810" height="720px" width="720px" />
									<g class="stem">
										<rect x="12204" y="832" height="635" width="18" />
									</g>
									<g class="accid" id="accid-0000001582017374" />
								</g>
							</g>
						</g>
					</g>
					<g class="mNum autogenerated" id="mnum-0000002137944314" />
					<g class="barLineAttr" id="bline-0000000578974256">
						<path d="M12583 1440 L12583 720" stroke="#000000" stroke-width="27" />
					</g>
				</g>
				<g class="measure" id="measure-L31">
					<g class="staff" id="staff-L31F1N1">
						<path d="M12596 720 L15963 720" stroke="#000000" stroke-width="13" />
						<path d="M12596 900 L15963 900" stroke="#000000" stroke-width="13" />
						<path d="M12596 1080 L15963 1080" stroke="#000000" stroke-width="13" />
						<path d="M12596 1260 L15963 1260" stroke="#000000" stroke-width="13" />
						<path d="M12596 1440 L15963 1440" stroke="#000000" stroke-width="13" />
						<g class="ledgerLines above">
							<path d="M12772 540 L13051 540" stroke="#000000" stroke-width="22" />
							<path d="M13499 540 L13778 540" stroke="#000000" stroke-width="22" />
						</g>
						<g class="layer" id="layer-L31F1N1">
							<g class="beam" id="beam-L32F1-L35F1">
								<polygon points="12803,1286 13911,1395 13911,1305 12803,1196 " />
								<polygon points="12803,1151 13911,1260 13911,1170 12803,1061 " />
								<g class="note" id="note-L32F1">
									<use xlink:href="#E0A4" x="12803" y="450" height="720px" width="720px" />
									<g class="stem">
										<rect x="12803" y="472" height="796" width="18" />
									</g>
									<g class="accid" id="accid-0000001095844395" />
								</g>
								<g class="note" id="note-L33F1">
									<use xlink:href="#E0A4" x="13167" y="630" height="720px" width="720px" />
									<g class="stem">
										<rect x="13167" y="652" height="653" width="18" />
									</g>
									<g class="accid" id="accid-0000001862697646" />
								</g>
								<g class="note" id="note-L34F1">
									<use xlink:href="#E0A4" x="13530" y="450" height="720px" width="720px" />
									<g class="stem">
										<rect x="13530" y="472" height="869" width="18" />
									</g>
									<g class="accid" id="accid-0000000717952038" />
								</g>
								<g class="note" id="note-L35F1">
									<use xlink:href="#E0A4" x="13893" y="720" height="720px" width="720px" />
									<g class="stem">
										<rect x="13893" y="742" height="635" width="18" />
									</g>
									<g class="accid" id="accid-0000000153326981" />
								</g>
							</g>
							<g class="beam" id="beam-L36F1-L39F1">
								<polygon points="14481,1576 15589,1603 15589,1513 14481,1486 " />
								<polygon points="14481,1441 15589,1468 15589,1378 14481,1351 " />
								<g class="note" id="note-L36F1">
									<use xlink:href="#E0A4" x="14481" y="900" height="720px" width="720px" />
									<g class="stem">
										<rect x="14481" y="922" height="636" width="18" />
									</g>
									<g class="accid" id="accid-0000001889134359">
										<use xlink:href="#E262" x="14286" y="900" height="720px" width="720px" />
									</g>
								</g>
								<g class="note" id="note-L37F1">
									<use xlink:href="#E0A4" x="14844" y="630" height="720px" width="720px" />
									<g class="stem">
										<rect x="14844" y="652" height="915" width="18" />
									</g>
									<g class="accid" id="accid-0000000189232306" />
								</g>
								<g class="note" id="note-L38F1">
									<use xlink:href="#E0A4" x="15207" y="720" height="720px" width="720px" />
									<g class="stem">
										<rect x="15207" y="742" height="834" width="18" />
									</g>
									<g class="accid" id="accid-0000002096955088" />
								</g>
								<g class="note" id="note-L39F1">
									<use xlink:href="#E0A4" x="15571" y="900" height="720px" width="720px" />
									<g class="stem">
										<rect x="15571" y="922" height="663" width="18" />
									</g>
									<g class="accid" id="accid-0000000238539314" />
								</g>
							</g>
						</g>
					</g>
					<g class="mNum autogenerated" id="mnum-0000000508564684" />
					<g class="barLineAttr" id="bline-0000000277616950">
						<path d="M15950 1440 L15950 720" stroke="#000000" stroke-width="27" />
					</g>
				</g>
				<g class="measure" id="measure-L40">
					<g class="staff" id="staff-L40F1N1">
						<path d="M15963 720 L20003 720" stroke="#000000" stroke-width="13" />
						<path d="M15963 900 L20003 900" stroke="#000000" stroke-width="13" />
						<path d="M15963 1080 L20003 1080" stroke="#000000" stroke-width="13" />
						<path d="M15963 1260 L20003 1260" stroke="#000000" stroke-width="13" />
						<path d="M15963 1440 L20003 1440" stroke="#000000" stroke-width="13" />
						<g class="layer" id="layer-L40F1N1">
							<g class="beam" id="beam-L41F1-L44F1">
								<polygon points="16395,1601 17951,1755 17951,1665 16395,1511 " />
								<polygon points="16395,1466 17951,1620 17951,1530 16395,1376 " />
								<g class="note" id="note-L41F1">
									<use xlink:href="#E0A4" x="16395" y="900" height="720px" width="720px" />
									<g class="stem">
										<rect x="16395" y="922" height="661" width="18" />
									</g>
									<g class="accid" id="accid-0000001135488059">
										<use xlink:href="#E262" x="16200" y="900" height="720px" width="720px" />
									</g>
								</g>
								<g class="note" id="note-L42F1">
									<use xlink:href="#E0A4" x="16982" y="810" height="720px" width="720px" />
									<g class="stem">
										<rect x="16982" y="832" height="810" width="18" />
									</g>
									<g class="accid" id="accid-0000001597377902">
										<use xlink:href="#E262" x="16787" y="810" height="720px" width="720px" />
									</g>
								</g>
								<g class="note" id="note-L43F1">
									<use xlink:href="#E0A4" x="17345" y="900" height="720px" width="720px" />
									<g class="stem">
										<rect x="17345" y="922" height="756" width="18" />
									</g>
									<g class="accid" id="accid-0000000124234866" />
								</g>
								<g class="note" id="note-L44F1">
									<use xlink:href="#E0A4" x="17933" y="1080" height="720px" width="720px" />
									<g class="stem">
										<rect x="17933" y="1102" height="635" width="18" />
									</g>
									<g class="accid" id="accid-0000001039173021">
										<use xlink:href="#E262" x="17738" y="1080" height="720px" width="720px" />
									</g>
								</g>
							</g>
							<g class="beam" id="beam-L45F1-L48F1">
								<polygon points="18296,1594 19628,1485 19628,1395 18296,1504 " />
								<polygon points="18296,1459 19628,1350 19628,1260 18296,1369 " />
								<g class="note" id="note-L45F1">
									<use xlink:href="#E0A4" x="18296" y="900" height="720px" width="720px" />
									<g class="stem">
										<rect x="18296" y="922" height="654" width="18" />
									</g>
									<g class="accid" id="accid-0000000749667278" />
								</g>
								<g class="note" id="note-L46F1">
									<use xlink:href="#E0A4" x="18660" y="810" height="720px" width="720px" />
									<g class="stem">
										<rect x="18660" y="832" height="714" width="18" />
									</g>
									<g class="accid" id="accid-0000001270082197" />
								</g>
								<g class="note" id="note-L47F1">
									<use xlink:href="#E0A4" x="19247" y="720" height="720px" width="720px" />
									<g class="stem">
										<rect x="19247" y="742" height="755" width="18" />
									</g>
									<g class="accid" id="accid-0000002047396159">
										<use xlink:href="#E262" x="19052" y="720" height="720px" width="720px" />
									</g>
								</g>
								<g class="note" id="note-L48F1">
									<use xlink:href="#E0A4" x="19610" y="810" height="720px" width="720px" />
									<g class="stem">
										<rect x="19610" y="832" height="635" width="18" />
									</g>
									<g class="accid" id="accid-0000000445977177" />
								</g>
							</g>
						</g>
					</g>
					<g class="mNum autogenerated" id="mnum-0000001419676285" />
					<g class="barLineAttr" id="bline-0000001397863816">
						<path d="M19990 1440 L19990 720" stroke="#000000" stroke-width="27" />
					</g>
				</g>
			</g>
		</g>
	</svg>
</svg>
